<?xml version="1.0" standalone="no"?>
 <!DOCTYPE svg PUBLIC "-//W3C//DTD SVG 1.1//EN" 
 "http://www.w3.org/Graphics/SVG/1.1/DTD/svg11.dtd"> 
<svg xmlns="http://www.w3.org/2000/svg" version="1.1" 
    width="21.59cm" height="14.0005cm" viewBox="0 0 85000 55120 ">
<title>SVG Picture created as ponta-de-prova-logica-simplificada-F.SilkS.svg date 2019/04/09 20:48:05 </title>
  <desc>Picture generated by PCBNEW </desc>
<g style="fill:#000000; fill-opacity:1;stroke:#000000; stroke-opacity:1;
stroke-linecap:round; stroke-linejoin:round; "
 transform="translate(0 0) scale(1 1)">
</g>
<g style="fill:#000000; fill-opacity:0.0; 
stroke:#000000; stroke-width:-0.000393701; stroke-opacity:1; 
stroke-linecap:round; stroke-linejoin:round;">
</g>
<g style="fill:#000000; fill-opacity:0.0; 
stroke:#000000; stroke-width:59.0551; stroke-opacity:1; 
stroke-linecap:round; stroke-linejoin:round;">
<path d="M29053 24121
L28659 24121
L28659 23971
L28678 23934
L28697 23915
L28734 23896
L28790 23896
L28828 23915
L28847 23934
L28865 23971
L28865 24121
" />
<path d="M29053 23671
L29034 23709
L29015 23727
L28978 23746
L28865 23746
L28828 23727
L28809 23709
L28790 23671
L28790 23615
L28809 23577
L28828 23559
L28865 23540
L28978 23540
L29015 23559
L29034 23577
L29053 23615
L29053 23671
" />
<path d="M28790 23371
L29053 23371
" />
<path d="M28828 23371
L28809 23352
L28790 23315
L28790 23259
L28809 23221
L28847 23202
L29053 23202
" />
<path d="M28790 23071
L28790 22921
" />
<path d="M28659 23015
L28997 23015
L29034 22996
L29053 22959
L29053 22921
" />
<path d="M29053 22621
L28847 22621
L28809 22640
L28790 22678
L28790 22753
L28809 22790
" />
<path d="M29034 22621
L29053 22659
L29053 22753
L29034 22790
L28997 22809
L28959 22809
L28922 22790
L28903 22753
L28903 22659
L28884 22621
" />
<path d="M29053 21965
L28659 21965
" />
<path d="M29034 21965
L29053 22003
L29053 22078
L29034 22115
L29015 22134
L28978 22153
L28865 22153
L28828 22134
L28809 22115
L28790 22078
L28790 22003
L28809 21965
" />
<path d="M29034 21628
L29053 21665
L29053 21740
L29034 21778
L28997 21796
L28847 21796
L28809 21778
L28790 21740
L28790 21665
L28809 21628
L28847 21609
L28884 21609
L28922 21796
" />
<path d="M29053 21140
L28659 21140
L28659 20990
L28678 20953
L28697 20934
L28734 20915
L28790 20915
L28828 20934
L28847 20953
L28865 20990
L28865 21140
" />
<path d="M29053 20747
L28790 20747
" />
<path d="M28865 20747
L28828 20728
L28809 20709
L28790 20672
L28790 20634
" />
<path d="M29053 20447
L29034 20484
L29015 20503
L28978 20522
L28865 20522
L28828 20503
L28809 20484
L28790 20447
L28790 20390
L28809 20353
L28828 20334
L28865 20315
L28978 20315
L29015 20334
L29034 20353
L29053 20390
L29053 20447
" />
<path d="M28790 20184
L29053 20090
L28790 19997
" />
<path d="M29053 19678
L28847 19678
L28809 19697
L28790 19734
L28790 19809
L28809 19847
" />
<path d="M29034 19678
L29053 19715
L29053 19809
L29034 19847
L28997 19865
L28959 19865
L28922 19847
L28903 19809
L28903 19715
L28884 19678
" />
<path d="M29702 22574
L29702 22762
L29309 22762
" />
<path d="M29702 22387
L29684 22424
L29665 22443
L29627 22462
L29515 22462
L29477 22443
L29459 22424
L29440 22387
L29440 22331
L29459 22293
L29477 22274
L29515 22256
L29627 22256
L29665 22274
L29684 22293
L29702 22331
L29702 22387
" />
<path d="M29290 22312
L29346 22368
" />
<path d="M29440 21918
L29759 21918
L29796 21937
L29815 21956
L29834 21993
L29834 22049
L29815 22087
" />
<path d="M29684 21918
L29702 21956
L29702 22031
L29684 22068
L29665 22087
L29627 22106
L29515 22106
L29477 22087
L29459 22068
L29440 22031
L29440 21956
L29459 21918
" />
<path d="M29702 21731
L29440 21731
" />
<path d="M29309 21731
L29327 21750
L29346 21731
L29327 21712
L29309 21731
L29346 21731
" />
<path d="M29684 21375
L29702 21412
L29702 21487
L29684 21525
L29665 21543
L29627 21562
L29515 21562
L29477 21543
L29459 21525
L29440 21487
L29440 21412
L29459 21375
" />
<path d="M29702 21037
L29496 21037
L29459 21056
L29440 21093
L29440 21168
L29459 21206
" />
<path d="M29684 21037
L29702 21075
L29702 21168
L29684 21206
L29646 21225
L29609 21225
L29571 21206
L29552 21168
L29552 21075
L29534 21037
" />
</g>
<g style="fill:#000000; fill-opacity:0.0; 
stroke:#000000; stroke-width:78.7402; stroke-opacity:1; 
stroke-linecap:round; stroke-linejoin:round;">
<path d="M8800 11100
L8800 10300
" />
<path d="M7975 11221
L7999 11244
L8022 11314
L8022 11361
L7999 11431
L7952 11478
L7905 11502
L7811 11525
L7741 11525
L7647 11502
L7600 11478
L7553 11431
L7530 11361
L7530 11314
L7553 11244
L7577 11221
" />
<path d="M8022 11010
L7530 11010
L7882 10846
L7530 10682
L8022 10682
" />
<path d="M7530 10353
L7530 10260
L7553 10213
L7600 10166
L7694 10143
L7858 10143
L7952 10166
L7999 10213
L8022 10260
L8022 10353
L7999 10400
L7952 10447
L7858 10471
L7694 10471
L7600 10447
L7553 10400
L7530 10353
" />
<path d="M7999 9955
L8022 9885
L8022 9768
L7999 9721
L7975 9697
L7928 9674
L7882 9674
L7835 9697
L7811 9721
L7788 9768
L7764 9861
L7741 9908
L7717 9932
L7671 9955
L7624 9955
L7577 9932
L7553 9908
L7530 9861
L7530 9744
L7553 9674
" />
<path d="M7530 13027
L7530 12746
" />
<path d="M8022 12886
L7530 12886
" />
<path d="M7530 12652
L7530 12371
" />
<path d="M8022 12511
L7530 12511
" />
<path d="M8022 11972
L8022 12207
L7530 12207
" />
<path d="M8500 10900
L8500 10500
" />
<path d="M8500 10500
L8800 10500
" />
<path d="M8800 10900
L8500 10900
" />
<path d="M8300 12300
L8800 12300
" />
<path d="M8300 12700
L8300 12300
" />
<path d="M8800 12700
L8300 12700
" />
<path d="M8800 12900
L8800 12100
" />
<path d="M7530 21327
L7530 21562
L7764 21585
L7741 21562
L7717 21515
L7717 21398
L7741 21351
L7764 21327
L7811 21304
L7928 21304
L7975 21327
L7999 21351
L8022 21398
L8022 21515
L7999 21562
L7975 21585
" />
<path d="M7530 21163
L8022 20999
L7530 20835
" />
<path d="M7835 20671
L7835 20296
" />
<path d="M8022 19804
L8022 20085
" />
<path d="M8022 19945
L7530 19945
L7600 19992
L7647 20039
L7671 20085
" />
<path d="M7530 19359
L7530 19593
L7764 19617
L7741 19593
L7717 19546
L7717 19429
L7741 19382
L7764 19359
L7811 19336
L7928 19336
L7975 19359
L7999 19382
L8022 19429
L8022 19546
L7999 19593
L7975 19617
" />
<path d="M7530 19195
L8022 19031
L7530 18867
" />
</g>
<g style="fill:#000000; fill-opacity:0.0; 
stroke:#000000; stroke-width:118.11; stroke-opacity:1; 
stroke-linecap:round; stroke-linejoin:round;">
<path d="M12726 23878
L12726 23821
L12754 23765
L12782 23737
L12839 23709
L12951 23681
L13092 23681
L13204 23709
L13260 23737
L13289 23765
L13317 23821
L13317 23878
L13289 23934
L13260 23962
L13204 23990
L13092 24018
L12951 24018
L12839 23990
L12782 23962
L12754 23934
L12726 23878
" />
<path d="M10867 23681
L10867 24018
" />
<path d="M10867 23850
L10276 23850
L10360 23906
L10417 23962
L10445 24018
" />
</g>
<g style="fill:#000000; fill-opacity:0.0; 
stroke:#000000; stroke-width:78.7402; stroke-opacity:1; 
stroke-linecap:round; stroke-linejoin:round;">
<path d="M7503 15624
L7480 15671
L7480 15742
L7503 15812
L7550 15859
L7597 15882
L7691 15906
L7761 15906
L7855 15882
L7902 15859
L7949 15812
L7972 15742
L7972 15695
L7949 15624
L7925 15601
L7761 15601
L7761 15695
" />
<path d="M7972 15390
L7480 15390
L7972 15109
L7480 15109
" />
<path d="M7972 14875
L7480 14875
L7480 14757
L7503 14687
L7550 14640
L7597 14617
L7691 14593
L7761 14593
L7855 14617
L7902 14640
L7949 14687
L7972 14757
L7972 14875
" />
<path d="M7480 17835
L7972 17671
L7480 17507
" />
<path d="M7949 17132
L7972 17179
L7972 17273
L7949 17320
L7925 17343
L7878 17367
L7738 17367
L7691 17343
L7667 17320
L7644 17273
L7644 17179
L7667 17132
" />
<path d="M7949 16711
L7972 16757
L7972 16851
L7949 16898
L7925 16921
L7878 16945
L7738 16945
L7691 16921
L7667 16898
L7644 16851
L7644 16757
L7667 16711
" />
</g>
<g style="fill:#000000; fill-opacity:0.0; 
stroke:#000000; stroke-width:39.3701; stroke-opacity:1; 
stroke-linecap:round; stroke-linejoin:round;">
<path d="M7000 24250 A1000 1000 0.0 0 0 8000 25250 " />
<path d="M32000 25250 A1000 1000 0.0 0 0 33000 24250 " />
<path d="M33000 8250 A1000 1000 0.0 0 0 32000 7250 " />
<path d="M8000 7250 A1000 1000 0.0 0 0 7000 8250 " />
<path d="M8000 25250
L32000 25250
" />
<path d="M7000 8250
L7000 24250
" />
<path d="M32000 7250
L8000 7250
" />
<path d="M33000 24250
L33000 8250
" />
<path d="M12400 10115
L12400 13365
" />
<path d="M9025 10115
L9025 13490
" />
<path d="M12400 10115
L9025 10115
" />
<path d="M12400 13365
L12275 13490
" />
<path d="M12275 13490
L9025 13490
" />
</g>
<g style="fill:#000000; fill-opacity:0.0; 
stroke:#000000; stroke-width:59.0551; stroke-opacity:1; 
stroke-linecap:round; stroke-linejoin:round;">
<path d="M9050 11540
L9350 11540
" />
<path d="M9350 11540
L9350 12040
" />
<path d="M9350 12040
L9050 12040
" />
<path d="M25000 18250
L33000 18250
" />
<path d="M33000 18250
L33000 14250
" />
<path d="M33000 14250
L25000 14250
" />
<path d="M25000 14250
L25000 18250
" />
</g>
<g style="fill:#000000; fill-opacity:0.0; 
stroke:#000000; stroke-width:47.2441; stroke-opacity:1; 
stroke-linecap:round; stroke-linejoin:round;">
<path d="M12037 21539
L12037 21409
" />
<path d="M9462 21539
L12037 21539
" />
<path d="M9462 21409
L9462 21539
" />
<path d="M12037 20460
L12037 20590
" />
<path d="M9462 20460
L12037 20460
" />
<path d="M9462 20590
L9462 20460
" />
<path d="M9924.65 23658.4 A783.465 783.465 0.0 0 0 9986.42 22385.8 " />
<path d="M9013.58 22385.8 A783.465 783.465 0.0 0 0 9075.35 23658.4 " />
<path d="M9925.13 23409.9 A590.551 590.551 0.0 0 0 9925.2 22590.2 " />
<path d="M9074.8 22590.2 A590.551 590.551 0.0 0 0 9074.87 23409.9 " />
<path d="M9986 22385
L9925 22385
" />
<path d="M9074 22385
L9013 22385
" />
<path d="M18537 11659
L18537 11789
" />
<path d="M18537 11789
L15962 11789
" />
<path d="M15962 11789
L15962 11659
" />
<path d="M18537 10840
L18537 10710
" />
<path d="M18537 10710
L15962 10710
" />
<path d="M15962 10710
L15962 10840
" />
<path d="M15183 21547
L19316 21547
" />
<path d="M15183 14452
L15183 21547
" />
<path d="M19316 14452
L15183 14452
" />
<path d="M19316 21547
L19316 14452
" />
<path d="M16364 21523
L16856 21523
" />
<path d="M16364 14476
L16364 21523
" />
<path d="M18135 14476
L16364 14476
" />
<path d="M18135 21523
L18135 14476
" />
<path d="M17643 21523
L18135 21523
" />
<path d="M17643.7 21523.6 A393.701 393.701 0.0 0 0 16856.3 21523.6 " />
<path d="M14665 18484
L14789 18484
" />
<path d="M13710 18484
L13834 18484
" />
<path d="M14665 20547
L14789 20547
" />
<path d="M13710 20547
L13834 20547
" />
<path d="M14789 20547
L14789 18484
" />
<path d="M13710 20547
L13710 18484
" />
<path d="M14789 14952
L14789 17015
" />
<path d="M13710 14952
L13710 17015
" />
<path d="M14789 14952
L14665 14952
" />
<path d="M13834 14952
L13710 14952
" />
<path d="M14789 17015
L14665 17015
" />
<path d="M13834 17015
L13710 17015
" />
<path d="M23787 17789
L23787 17659
" />
<path d="M21212 17789
L23787 17789
" />
<path d="M21212 17659
L21212 17789
" />
<path d="M23787 16710
L23787 16840
" />
<path d="M21212 16710
L23787 16710
" />
<path d="M21212 16840
L21212 16710
" />
<path d="M11574 22385
L11513 22385
" />
<path d="M12486 22385
L12425 22385
" />
<path d="M11574.8 22590.2 A590.551 590.551 0.0 0 0 11574.9 23409.9 " />
<path d="M12425.1 23409.9 A590.551 590.551 0.0 0 0 12425.2 22590.2 " />
<path d="M11513.6 22385.8 A783.465 783.465 0.0 0 0 11575.4 23658.4 " />
<path d="M12424.6 23658.4 A783.465 783.465 0.0 0 0 12486.4 22385.8 " />
<path d="M8269 18293
L13230 18293
" />
<path d="M13230 18293
L13230 14218
" />
<path d="M13230 14218
L12856 14218
" />
<path d="M12856 14218
L12954 14021
" />
<path d="M12954 14021
L12206 14021
" />
<path d="M12206 14021
L12187 14021
" />
<path d="M12187 14021
L12285 14218
" />
<path d="M12285 14218
L10159 14218
" />
<path d="M10159 14218
L10277 14021
" />
<path d="M10277 14021
L8269 14021
" />
<path d="M8269 14021
L8269 18293
" />
<path d="M18537 13789
L18537 13659
" />
<path d="M15962 13789
L18537 13789
" />
<path d="M15962 13659
L15962 13789
" />
<path d="M18537 12710
L18537 12840
" />
<path d="M15962 12710
L18537 12710
" />
<path d="M15962 12840
L15962 12710
" />
<path d="M23787 15789
L23787 15659
" />
<path d="M21212 15789
L23787 15789
" />
<path d="M21212 15659
L21212 15789
" />
<path d="M23787 14710
L23787 14840
" />
<path d="M21212 14710
L23787 14710
" />
<path d="M21212 14840
L21212 14710
" />
<path d="M23787 11789
L23787 11659
" />
<path d="M21212 11789
L23787 11789
" />
<path d="M21212 11659
L21212 11789
" />
<path d="M23787 10710
L23787 10840
" />
<path d="M21212 10710
L23787 10710
" />
<path d="M21212 10840
L21212 10710
" />
<path d="M21212 12840
L21212 12710
" />
<path d="M21212 12710
L23787 12710
" />
<path d="M23787 12710
L23787 12840
" />
<path d="M21212 13659
L21212 13789
" />
<path d="M21212 13789
L23787 13789
" />
<path d="M23787 13789
L23787 13659
" />
<path d="M21212 18840
L21212 18710
" />
<path d="M21212 18710
L23787 18710
" />
<path d="M23787 18710
L23787 18840
" />
<path d="M21212 19659
L21212 19789
" />
<path d="M21212 19789
L23787 19789
" />
<path d="M23787 19789
L23787 19659
" />
<path d="M21212 22840
L21212 22710
" />
<path d="M21212 22710
L23787 22710
" />
<path d="M23787 22710
L23787 22840
" />
<path d="M21212 23659
L21212 23789
" />
<path d="M21212 23789
L23787 23789
" />
<path d="M23787 23789
L23787 23659
" />
<path d="M21212 20710
L21212 20840
" />
<path d="M23787 20710
L21212 20710
" />
<path d="M23787 20840
L23787 20710
" />
<path d="M21212 21789
L21212 21659
" />
<path d="M23787 21789
L21212 21789
" />
<path d="M23787 21659
L23787 21789
" />
<path d="M18537 23659
L18537 23789
" />
<path d="M18537 23789
L15962 23789
" />
<path d="M15962 23789
L15962 23659
" />
<path d="M18537 22840
L18537 22710
" />
<path d="M18537 22710
L15962 22710
" />
<path d="M15962 22710
L15962 22840
" />
<path d="M12037 20039
L12037 19909
" />
<path d="M9462 20039
L12037 20039
" />
<path d="M9462 19909
L9462 20039
" />
<path d="M12037 18960
L12037 19090
" />
<path d="M9462 18960
L12037 18960
" />
<path d="M9462 19090
L9462 18960
" />
</g>
<g style="fill:#000000; fill-opacity:0.0; 
stroke:#000000; stroke-width:59.0551; stroke-opacity:1; 
stroke-linecap:round; stroke-linejoin:round;">
<path d="M12725 11409
L12781 11428
L12875 11428
L12912 11409
L12931 11390
L12950 11353
L12950 11315
L12931 11278
L12912 11259
L12875 11240
L12800 11221
L12762 11203
L12743 11184
L12725 11146
L12725 11109
L12743 11071
L12762 11053
L12800 11034
L12893 11034
L12950 11053
" />
<path d="M13081 11034
L13175 11428
L13250 11146
L13324 11428
L13418 11034
" />
<path d="M13774 11428
L13549 11428
" />
<path d="M13662 11428
L13662 11034
L13624 11090
L13587 11128
L13549 11146
" />
<path d="M23709 24778
L23709 24384
L23859 24384
L23896 24403
L23915 24421
L23934 24459
L23934 24515
L23915 24553
L23896 24571
L23859 24590
L23709 24590
" />
<path d="M24271 24778
L24271 24571
L24253 24534
L24215 24515
L24140 24515
L24103 24534
" />
<path d="M24271 24759
L24234 24778
L24140 24778
L24103 24759
L24084 24721
L24084 24684
L24103 24646
L24140 24628
L24234 24628
L24271 24609
" />
<path d="M24459 24778
L24459 24515
" />
<path d="M24459 24590
L24478 24553
L24496 24534
L24534 24515
L24571 24515
" />
<path d="M24871 24515
L24871 24778
" />
<path d="M24778 24365
L24684 24646
L24928 24646
" />
<path d="M8609 24778
L8609 24384
L8759 24384
L8796 24403
L8815 24421
L8834 24459
L8834 24515
L8815 24553
L8796 24571
L8759 24590
L8609 24590
" />
<path d="M9171 24778
L9171 24571
L9153 24534
L9115 24515
L9040 24515
L9003 24534
" />
<path d="M9171 24759
L9134 24778
L9040 24778
L9003 24759
L8984 24721
L8984 24684
L9003 24646
L9040 24628
L9134 24628
L9171 24609
" />
<path d="M9359 24778
L9359 24515
" />
<path d="M9359 24590
L9378 24553
L9396 24534
L9434 24515
L9471 24515
" />
<path d="M9565 24384
L9809 24384
L9678 24534
L9734 24534
L9771 24553
L9790 24571
L9809 24609
L9809 24703
L9790 24740
L9771 24759
L9734 24778
L9621 24778
L9584 24759
L9565 24740
" />
<path d="M23609 8478
L23609 8084
L23759 8084
L23796 8103
L23815 8121
L23834 8159
L23834 8215
L23815 8253
L23796 8271
L23759 8290
L23609 8290
" />
<path d="M24171 8478
L24171 8271
L24153 8234
L24115 8215
L24040 8215
L24003 8234
" />
<path d="M24171 8459
L24134 8478
L24040 8478
L24003 8459
L23984 8421
L23984 8384
L24003 8346
L24040 8328
L24134 8328
L24171 8309
" />
<path d="M24359 8478
L24359 8215
" />
<path d="M24359 8290
L24378 8253
L24396 8234
L24434 8215
L24471 8215
" />
<path d="M24584 8121
L24603 8103
L24640 8084
L24734 8084
L24771 8103
L24790 8121
L24809 8159
L24809 8196
L24790 8253
L24565 8478
L24809 8478
" />
<path d="M8609 8478
L8609 8084
L8759 8084
L8796 8103
L8815 8121
L8834 8159
L8834 8215
L8815 8253
L8796 8271
L8759 8290
L8609 8290
" />
<path d="M9171 8478
L9171 8271
L9153 8234
L9115 8215
L9040 8215
L9003 8234
" />
<path d="M9171 8459
L9134 8478
L9040 8478
L9003 8459
L8984 8421
L8984 8384
L9003 8346
L9040 8328
L9134 8328
L9171 8309
" />
<path d="M9359 8478
L9359 8215
" />
<path d="M9359 8290
L9378 8253
L9396 8234
L9434 8215
L9471 8215
" />
<path d="M9809 8478
L9584 8478
" />
<path d="M9696 8478
L9696 8084
L9659 8140
L9621 8178
L9584 8196
" />
<path d="M28562 13828
L28562 13434
L28712 13434
L28750 13453
L28768 13471
L28787 13509
L28787 13565
L28768 13603
L28750 13621
L28712 13640
L28562 13640
" />
<path d="M28956 13828
L28956 13434
L29106 13434
L29143 13453
L29162 13471
L29181 13509
L29181 13565
L29162 13603
L29143 13621
L29106 13640
L28956 13640
" />
<path d="M29556 13828
L29331 13828
" />
<path d="M29443 13828
L29443 13434
L29406 13490
L29368 13528
L29331 13546
" />
<path d="M13378 21253
L13190 21384
" />
<path d="M13378 21478
L12984 21478
L12984 21328
L13003 21290
L13021 21271
L13059 21253
L13115 21253
L13153 21271
L13171 21290
L13190 21328
L13190 21478
" />
<path d="M13378 20878
L13378 21103
" />
<path d="M13378 20990
L12984 20990
L13040 21028
L13078 21065
L13096 21103
" />
<path d="M13021 20728
L13003 20709
L12984 20671
L12984 20578
L13003 20540
L13021 20521
L13059 20503
L13096 20503
L13153 20521
L13378 20746
L13378 20503
" />
<path d="M8009 22628
L8009 22234
L8103 22234
L8159 22253
L8196 22290
L8215 22328
L8234 22403
L8234 22459
L8215 22534
L8196 22571
L8159 22609
L8103 22628
L8009 22628
" />
<path d="M8609 22628
L8384 22628
" />
<path d="M8496 22628
L8496 22234
L8459 22290
L8421 22328
L8384 22346
" />
<path d="M14634 10928
L14503 10740
" />
<path d="M14409 10928
L14409 10534
L14559 10534
L14596 10553
L14615 10571
L14634 10609
L14634 10665
L14615 10703
L14596 10721
L14559 10740
L14409 10740
" />
<path d="M14765 10534
L15009 10534
L14878 10684
L14934 10684
L14971 10703
L14990 10721
L15009 10759
L15009 10853
L14990 10890
L14971 10909
L14934 10928
L14821 10928
L14784 10909
L14765 10890
" />
<path d="M18450 21701
L18450 22020
L18468 22057
L18487 22076
L18525 22095
L18600 22095
L18637 22076
L18656 22057
L18675 22020
L18675 21701
" />
<path d="M19068 22095
L18843 22095
" />
<path d="M18956 22095
L18956 21701
L18918 21757
L18881 21795
L18843 21814
" />
<path d="M14434 21690
L14415 21709
L14359 21728
L14321 21728
L14265 21709
L14228 21671
L14209 21634
L14190 21559
L14190 21503
L14209 21428
L14228 21390
L14265 21353
L14321 21334
L14359 21334
L14415 21353
L14434 21371
" />
<path d="M14584 21371
L14603 21353
L14640 21334
L14734 21334
L14771 21353
L14790 21371
L14809 21409
L14809 21446
L14790 21503
L14565 21728
L14809 21728
" />
<path d="M14434 14090
L14415 14109
L14359 14128
L14321 14128
L14265 14109
L14228 14071
L14209 14034
L14190 13959
L14190 13903
L14209 13828
L14228 13790
L14265 13753
L14321 13734
L14359 13734
L14415 13753
L14434 13771
" />
<path d="M14809 14128
L14584 14128
" />
<path d="M14696 14128
L14696 13734
L14659 13790
L14621 13828
L14584 13846
" />
<path d="M23434 16428
L23303 16240
" />
<path d="M23209 16428
L23209 16034
L23359 16034
L23396 16053
L23415 16071
L23434 16109
L23434 16165
L23415 16203
L23396 16221
L23359 16240
L23209 16240
" />
<path d="M23659 16203
L23621 16184
L23603 16165
L23584 16128
L23584 16109
L23603 16071
L23621 16053
L23659 16034
L23734 16034
L23771 16053
L23790 16071
L23809 16109
L23809 16128
L23790 16165
L23771 16184
L23734 16203
L23659 16203
L23621 16221
L23603 16240
L23584 16278
L23584 16353
L23603 16390
L23621 16409
L23659 16428
L23734 16428
L23771 16409
L23790 16390
L23809 16353
L23809 16278
L23790 16240
L23771 16221
L23734 16203
" />
<path d="M10459 22678
L10459 22284
L10553 22284
L10609 22303
L10646 22340
L10665 22378
L10684 22453
L10684 22509
L10665 22584
L10646 22621
L10609 22659
L10553 22678
L10459 22678
" />
<path d="M10834 22321
L10853 22303
L10890 22284
L10984 22284
L11021 22303
L11040 22321
L11059 22359
L11059 22396
L11040 22453
L10815 22678
L11059 22678
" />
<path d="M13118 13284
L13118 13565
L13100 13621
L13062 13659
L13006 13678
L12968 13678
" />
<path d="M13512 13678
L13287 13678
" />
<path d="M13399 13678
L13399 13284
L13362 13340
L13324 13378
L13287 13396
" />
<path d="M25368 20034
L25368 20315
L25350 20371
L25312 20409
L25256 20428
L25218 20428
" />
<path d="M25537 20071
L25556 20053
L25593 20034
L25687 20034
L25724 20053
L25743 20071
L25762 20109
L25762 20146
L25743 20203
L25518 20428
L25762 20428
" />
<path d="M14634 12828
L14503 12640
" />
<path d="M14409 12828
L14409 12434
L14559 12434
L14596 12453
L14615 12471
L14634 12509
L14634 12565
L14615 12603
L14596 12621
L14559 12640
L14409 12640
" />
<path d="M15009 12828
L14784 12828
" />
<path d="M14896 12828
L14896 12434
L14859 12490
L14821 12528
L14784 12546
" />
<path d="M23434 14495
L23303 14307
" />
<path d="M23209 14495
L23209 14101
L23359 14101
L23396 14120
L23415 14138
L23434 14176
L23434 14232
L23415 14270
L23396 14288
L23359 14307
L23209 14307
" />
<path d="M23584 14138
L23603 14120
L23640 14101
L23734 14101
L23771 14120
L23790 14138
L23809 14176
L23809 14213
L23790 14270
L23565 14495
L23809 14495
" />
<path d="M23434 10428
L23303 10240
" />
<path d="M23209 10428
L23209 10034
L23359 10034
L23396 10053
L23415 10071
L23434 10109
L23434 10165
L23415 10203
L23396 10221
L23359 10240
L23209 10240
" />
<path d="M23771 10165
L23771 10428
" />
<path d="M23678 10015
L23584 10296
L23828 10296
" />
<path d="M23434 12495
L23303 12307
" />
<path d="M23209 12495
L23209 12101
L23359 12101
L23396 12120
L23415 12138
L23434 12176
L23434 12232
L23415 12270
L23396 12288
L23359 12307
L23209 12307
" />
<path d="M23790 12101
L23603 12101
L23584 12288
L23603 12270
L23640 12251
L23734 12251
L23771 12270
L23790 12288
L23809 12326
L23809 12420
L23790 12457
L23771 12476
L23734 12495
L23640 12495
L23603 12476
L23584 12457
" />
<path d="M23434 18495
L23303 18307
" />
<path d="M23209 18495
L23209 18101
L23359 18101
L23396 18120
L23415 18138
L23434 18176
L23434 18232
L23415 18270
L23396 18288
L23359 18307
L23209 18307
" />
<path d="M23771 18101
L23696 18101
L23659 18120
L23640 18138
L23603 18195
L23584 18270
L23584 18420
L23603 18457
L23621 18476
L23659 18495
L23734 18495
L23771 18476
L23790 18457
L23809 18420
L23809 18326
L23790 18288
L23771 18270
L23734 18251
L23659 18251
L23621 18270
L23603 18288
L23584 18326
" />
<path d="M23434 22528
L23303 22340
" />
<path d="M23209 22528
L23209 22134
L23359 22134
L23396 22153
L23415 22171
L23434 22209
L23434 22265
L23415 22303
L23396 22321
L23359 22340
L23209 22340
" />
<path d="M23565 22134
L23828 22134
L23659 22528
" />
<path d="M23434 20528
L23303 20340
" />
<path d="M23209 20528
L23209 20134
L23359 20134
L23396 20153
L23415 20171
L23434 20209
L23434 20265
L23415 20303
L23396 20321
L23359 20340
L23209 20340
" />
<path d="M23621 20528
L23696 20528
L23734 20509
L23753 20490
L23790 20434
L23809 20359
L23809 20209
L23790 20171
L23771 20153
L23734 20134
L23659 20134
L23621 20153
L23603 20171
L23584 20209
L23584 20303
L23603 20340
L23621 20359
L23659 20378
L23734 20378
L23771 20359
L23790 20340
L23809 20303
" />
<path d="M14246 23178
L14115 22990
" />
<path d="M14021 23178
L14021 22784
L14171 22784
L14209 22803
L14228 22821
L14246 22859
L14246 22915
L14228 22953
L14209 22971
L14171 22990
L14021 22990
" />
<path d="M14621 23178
L14396 23178
" />
<path d="M14509 23178
L14509 22784
L14471 22840
L14434 22878
L14396 22896
" />
<path d="M14865 22784
L14903 22784
L14940 22803
L14959 22821
L14978 22859
L14996 22934
L14996 23028
L14978 23103
L14959 23140
L14940 23159
L14903 23178
L14865 23178
L14828 23159
L14809 23140
L14790 23103
L14771 23028
L14771 22934
L14790 22859
L14809 22821
L14828 22803
L14865 22784
" />
<path d="M13378 19753
L13190 19884
" />
<path d="M13378 19978
L12984 19978
L12984 19828
L13003 19790
L13021 19771
L13059 19753
L13115 19753
L13153 19771
L13171 19790
L13190 19828
L13190 19978
" />
<path d="M13378 19378
L13378 19603
" />
<path d="M13378 19490
L12984 19490
L13040 19528
L13078 19565
L13096 19603
" />
<path d="M13378 19003
L13378 19228
" />
<path d="M13378 19115
L12984 19115
L13040 19153
L13078 19190
L13096 19228
" />
</g> 
</svg>
