<?xml version="1.0" standalone="no"?>
 <!DOCTYPE svg PUBLIC "-//W3C//DTD SVG 1.1//EN" 
 "http://www.w3.org/Graphics/SVG/1.1/DTD/svg11.dtd"> 
<svg xmlns="http://www.w3.org/2000/svg" version="1.1" 
    width="29.7002cm" height="21.0007cm" viewBox="0 0 116930 82680 ">
<title>SVG Picture created as ponta-de-prova-logica-simplificada-B.Cu.svg date 2019/03/24 16:16:06 </title>
  <desc>Picture generated by PCBNEW </desc>
<g style="fill:#000000; fill-opacity:1;stroke:#000000; stroke-opacity:1;
stroke-linecap:round; stroke-linejoin:round; "
 transform="translate(0 0) scale(1 1)">
</g>
<g style="fill:#000000; fill-opacity:0.0; 
stroke:#000000; stroke-width:-0.000393701; stroke-opacity:1; 
stroke-linecap:round; stroke-linejoin:round;">
</g>
<g style="fill:#000000; fill-opacity:1.0; 
stroke:#000000; stroke-width:39.3701; stroke-opacity:1; 
stroke-linecap:round; stroke-linejoin:round;">
<rect x="60958.3" y="5261.81" width="50959.8" height="41305.2" rx="0" />
</g>
<g style="fill:#FFFFFF; fill-opacity:1.0; 
stroke:#FFFFFF; stroke-width:39.3701; stroke-opacity:1; 
stroke-linecap:round; stroke-linejoin:round;">
</g>
<g style="fill:#FFFFFF; fill-opacity:0.0; 
stroke:#FFFFFF; stroke-width:39.3701; stroke-opacity:1; 
stroke-linecap:round; stroke-linejoin:round;">
</g>
<g style="fill:#FFFFFF; fill-opacity:0.0; 
stroke:#FFFFFF; stroke-width:78.7402; stroke-opacity:1; 
stroke-linecap:round; stroke-linejoin:round;">
<path d="M86458 16025
L86458 16156
" />
<path d="M86251 16212
L86251 16025
L86645 16025
L86645 16212
" />
<path d="M86645 16325
L86645 16550
" />
<path d="M86251 16437
L86645 16437
" />
<path d="M86458 16681
L86458 16812
" />
<path d="M86251 16868
L86251 16681
L86645 16681
L86645 16868
" />
<path d="M86251 17243
L86251 17018
" />
<path d="M86251 17131
L86645 17131
L86589 17093
L86551 17056
L86533 17018
" />
<path d="M86645 17487
L86645 17524
L86626 17562
L86608 17581
L86570 17599
L86495 17618
L86401 17618
L86326 17599
L86289 17581
L86270 17562
L86251 17524
L86251 17487
L86270 17449
L86289 17431
L86326 17412
L86401 17393
L86495 17393
L86570 17412
L86608 17431
L86626 17449
L86645 17487
" />
<path d="M86608 17768
L86626 17787
L86645 17824
L86645 17918
L86626 17956
L86608 17974
L86570 17993
L86533 17993
L86476 17974
L86251 17749
L86251 17993
" />
<path d="M85001 16184
L85189 16053
" />
<path d="M85001 15959
L85395 15959
L85395 16109
L85376 16146
L85358 16165
L85320 16184
L85264 16184
L85226 16165
L85208 16146
L85189 16109
L85189 15959
" />
<path d="M85020 16503
L85001 16465
L85001 16390
L85020 16353
L85058 16334
L85208 16334
L85245 16353
L85264 16390
L85264 16465
L85245 16503
L85208 16521
L85170 16521
L85133 16334
" />
<path d="M85264 16653
L85001 16746
L85264 16840
" />
<path d="M85039 16990
L85020 17009
L85001 16990
L85020 16971
L85039 16990
L85001 16990
" />
<path d="M85395 17553
L85395 17590
L85376 17628
L85358 17646
L85320 17665
L85245 17684
L85151 17684
L85076 17665
L85039 17646
L85020 17628
L85001 17590
L85001 17553
L85020 17515
L85039 17496
L85076 17478
L85151 17459
L85245 17459
L85320 17478
L85358 17496
L85376 17515
L85395 17553
" />
<path d="M85358 17834
L85376 17853
L85395 17890
L85395 17984
L85376 18021
L85358 18040
L85320 18059
L85283 18059
L85226 18040
L85001 17815
L85001 18059
" />
</g>
<g style="fill:#FFFFFF; fill-opacity:0.0; 
stroke:#FFFFFF; stroke-width:39.3701; stroke-opacity:1; 
stroke-linecap:round; stroke-linejoin:round;">
<path d="M108930 26750 A1000 1000 0.0 0 0 109930 25750 " />
<path d="M83930 25750 A1000 1000 0.0 0 0 84930 26750 " />
<path d="M84930 7250 A1000 1000 0.0 0 0 83930 8250 " />
<path d="M109930 8250 A1000 1000 0.0 0 0 108930 7250 " />
<path d="M108930 26750
L84930 26750
" />
<path d="M109930 8250
L109930 25750
" />
<path d="M84930 7250
L108930 7250
" />
<path d="M83930 25750
L83930 8250
" />
</g>
<g style="fill:#FFFFFF; fill-opacity:0.0; 
stroke:#FFFFFF; stroke-width:787.402; stroke-opacity:1; 
stroke-linecap:round; stroke-linejoin:round;">
<path d="M105180 10553
L105180 10946
" />
<path d="M106180 10553
L106180 10946
" />
<path d="M107180 10553
L107180 10946
" />
<path d="M107180 12803
L107180 13196
" />
<path d="M106180 12803
L106180 13196
" />
</g>
<g style="fill:#FFFFFF; fill-opacity:0.0; 
stroke:#FFFFFF; stroke-width:0; stroke-opacity:1; 
stroke-linecap:round; stroke-linejoin:round;">
</g>
<g style="fill:#FFFFFF; fill-opacity:1.0; 
stroke:#FFFFFF; stroke-width:0; stroke-opacity:1; 
stroke-linecap:round; stroke-linejoin:round;">
<polyline style="fill-rule:evenodd;"
points="105573,13590
105573,12409
104786,12409
104786,13590
105573,13590
" /> 
</g>
<g style="fill:#FFFFFF; fill-opacity:1.0; 
stroke:#FFFFFF; stroke-width:787.402; stroke-opacity:1; 
stroke-linecap:round; stroke-linejoin:round;">
</g>
<g style="fill:#FFFFFF; fill-opacity:0.0; 
stroke:#FFFFFF; stroke-width:787.402; stroke-opacity:1; 
stroke-linecap:round; stroke-linejoin:round;">
<path d="M104876 21000
L104483 21000
" />
<path d="M107876 21000
L107483 21000
" />
</g>
<g style="fill:#FFFFFF; fill-opacity:0.0; 
stroke:#FFFFFF; stroke-width:0; stroke-opacity:1; 
stroke-linecap:round; stroke-linejoin:round;">
</g>
<g style="fill:#FFFFFF; fill-opacity:1.0; 
stroke:#FFFFFF; stroke-width:0; stroke-opacity:1; 
stroke-linecap:round; stroke-linejoin:round;">
<polyline style="fill-rule:evenodd;"
points="107823,22106
107036,22106
107036,22893
107823,22893
107823,22106
" /> 
</g>
<g style="fill:#FFFFFF; fill-opacity:1.0; 
stroke:#FFFFFF; stroke-width:787.402; stroke-opacity:1; 
stroke-linecap:round; stroke-linejoin:round;">
</g>
<g style="fill:#FFFFFF; fill-opacity:0.0; 
stroke:#FFFFFF; stroke-width:787.402; stroke-opacity:1; 
stroke-linecap:round; stroke-linejoin:round;">
<path d="M107233 23500
L107626 23500
" />
<path d="M97983 11250
L98376 11250
" />
<path d="M100983 11250
L101376 11250
" />
</g>
<g style="fill:#FFFFFF; fill-opacity:0.0; 
stroke:#FFFFFF; stroke-width:629.921; stroke-opacity:1; 
stroke-linecap:round; stroke-linejoin:round;">
<path d="M100904 21000
L101455 21000
" />
<path d="M97904 15000
L98455 15000
" />
<path d="M100904 20000
L101455 20000
" />
<path d="M97904 16000
L98455 16000
" />
<path d="M100904 19000
L101455 19000
" />
<path d="M97904 17000
L98455 17000
" />
<path d="M100904 18000
L101455 18000
" />
<path d="M97904 18000
L98455 18000
" />
<path d="M100904 17000
L101455 17000
" />
<path d="M97904 19000
L98455 19000
" />
<path d="M100904 16000
L101455 16000
" />
<path d="M97904 20000
L98455 20000
" />
<path d="M100904 15000
L101455 15000
" />
</g>
<g style="fill:#FFFFFF; fill-opacity:0.0; 
stroke:#FFFFFF; stroke-width:0; stroke-opacity:1; 
stroke-linecap:round; stroke-linejoin:round;">
</g>
<g style="fill:#FFFFFF; fill-opacity:1.0; 
stroke:#FFFFFF; stroke-width:0; stroke-opacity:1; 
stroke-linecap:round; stroke-linejoin:round;">
<polyline style="fill-rule:evenodd;"
points="97589,20685
97589,21314
98770,21314
98770,20685
97589,20685
" /> 
</g>
<g style="fill:#FFFFFF; fill-opacity:1.0; 
stroke:#FFFFFF; stroke-width:629.921; stroke-opacity:1; 
stroke-linecap:round; stroke-linejoin:round;">
</g>
<g style="fill:#FFFFFF; fill-opacity:0.0; 
stroke:#FFFFFF; stroke-width:629.921; stroke-opacity:1; 
stroke-linecap:round; stroke-linejoin:round;">
<path d="M102680 18807
L102680 18255
" />
<path d="M102680 20775
L102680 20224
" />
<path d="M102680 14724
L102680 15275
" />
<path d="M102680 16692
L102680 17244
" />
</g>
<g style="fill:#FFFFFF; fill-opacity:1.0; 
stroke:#FFFFFF; stroke-width:0; stroke-opacity:1; 
stroke-linecap:round; stroke-linejoin:round;">
<circle cx="90680" cy="21000" r="590.551" /> 
</g>
<g style="fill:#FFFFFF; fill-opacity:1.0; 
stroke:#FFFFFF; stroke-width:39.3701; stroke-opacity:1; 
stroke-linecap:round; stroke-linejoin:round;">
</g>
<g style="fill:#FFFFFF; fill-opacity:1.0; 
stroke:#FFFFFF; stroke-width:0; stroke-opacity:1; 
stroke-linecap:round; stroke-linejoin:round;">
<circle cx="85180" cy="21000" r="590.551" /> 
</g>
<g style="fill:#FFFFFF; fill-opacity:1.0; 
stroke:#FFFFFF; stroke-width:39.3701; stroke-opacity:1; 
stroke-linecap:round; stroke-linejoin:round;">
</g>
<g style="fill:#FFFFFF; fill-opacity:1.0; 
stroke:#FFFFFF; stroke-width:0; stroke-opacity:1; 
stroke-linecap:round; stroke-linejoin:round;">
<circle cx="90680" cy="13000" r="590.551" /> 
</g>
<g style="fill:#FFFFFF; fill-opacity:1.0; 
stroke:#FFFFFF; stroke-width:39.3701; stroke-opacity:1; 
stroke-linecap:round; stroke-linejoin:round;">
</g>
<g style="fill:#FFFFFF; fill-opacity:1.0; 
stroke:#FFFFFF; stroke-width:0; stroke-opacity:1; 
stroke-linecap:round; stroke-linejoin:round;">
<circle cx="85180" cy="13000" r="590.551" /> 
</g>
<g style="fill:#FFFFFF; fill-opacity:1.0; 
stroke:#FFFFFF; stroke-width:39.3701; stroke-opacity:1; 
stroke-linecap:round; stroke-linejoin:round;">
</g>
<g style="fill:#FFFFFF; fill-opacity:1.0; 
stroke:#FFFFFF; stroke-width:787.402; stroke-opacity:1; 
stroke-linecap:round; stroke-linejoin:round;">
</g>
<g style="fill:#FFFFFF; fill-opacity:0.0; 
stroke:#FFFFFF; stroke-width:787.402; stroke-opacity:1; 
stroke-linecap:round; stroke-linejoin:round;">
<path d="M93126 17250
L92733 17250
" />
<path d="M96126 17250
L95733 17250
" />
<path d="M104733 23500
L105126 23500
" />
</g>
<g style="fill:#FFFFFF; fill-opacity:0.0; 
stroke:#FFFFFF; stroke-width:0; stroke-opacity:1; 
stroke-linecap:round; stroke-linejoin:round;">
</g>
<g style="fill:#FFFFFF; fill-opacity:1.0; 
stroke:#FFFFFF; stroke-width:0; stroke-opacity:1; 
stroke-linecap:round; stroke-linejoin:round;">
<polyline style="fill-rule:evenodd;"
points="105323,22106
104536,22106
104536,22893
105323,22893
105323,22106
" /> 
<polyline style="fill-rule:evenodd;"
points="105400,17639
106959,17639
106959,16860
105400,16860
105400,17639
" /> 
</g>
<g style="fill:#FFFFFF; fill-opacity:1.0; 
stroke:#FFFFFF; stroke-width:779.528; stroke-opacity:1; 
stroke-linecap:round; stroke-linejoin:round;">
</g>
<g style="fill:#FFFFFF; fill-opacity:0.0; 
stroke:#FFFFFF; stroke-width:779.528; stroke-opacity:1; 
stroke-linecap:round; stroke-linejoin:round;">
<path d="M106569 15281
L105790 15281
" />
</g>
<g style="fill:#FFFFFF; fill-opacity:1.0; 
stroke:#FFFFFF; stroke-width:0; stroke-opacity:1; 
stroke-linecap:round; stroke-linejoin:round;">
<circle cx="87930" cy="21500" r="393.5" /> 
</g>
<g style="fill:#FFFFFF; fill-opacity:1.0; 
stroke:#FFFFFF; stroke-width:39.3701; stroke-opacity:1; 
stroke-linecap:round; stroke-linejoin:round;">
</g>
<g style="fill:#FFFFFF; fill-opacity:1.0; 
stroke:#FFFFFF; stroke-width:787.402; stroke-opacity:1; 
stroke-linecap:round; stroke-linejoin:round;">
</g>
<g style="fill:#FFFFFF; fill-opacity:0.0; 
stroke:#FFFFFF; stroke-width:787.402; stroke-opacity:1; 
stroke-linecap:round; stroke-linejoin:round;">
<path d="M98376 13250
L97983 13250
" />
<path d="M101376 13250
L100983 13250
" />
<path d="M93126 15250
L92733 15250
" />
<path d="M96126 15250
L95733 15250
" />
<path d="M93126 11250
L92733 11250
" />
<path d="M96126 11250
L95733 11250
" />
<path d="M96126 13250
L95733 13250
" />
<path d="M93126 13250
L92733 13250
" />
<path d="M96126 19250
L95733 19250
" />
<path d="M93126 19250
L92733 19250
" />
<path d="M96126 23250
L95733 23250
" />
<path d="M93126 23250
L92733 23250
" />
<path d="M95733 21250
L96126 21250
" />
<path d="M92733 21250
L93126 21250
" />
<path d="M97983 23250
L98376 23250
" />
<path d="M100983 23250
L101376 23250
" />
<path d="M104876 19500
L104483 19500
" />
<path d="M107876 19500
L107483 19500
" />
</g>
<g style="fill:#FFFFFF; fill-opacity:1.0; 
stroke:#FFFFFF; stroke-width:0; stroke-opacity:1; 
stroke-linecap:round; stroke-linejoin:round;">
<circle cx="87930" cy="11250" r="393.701" /> 
</g>
<g style="fill:#FFFFFF; fill-opacity:1.0; 
stroke:#FFFFFF; stroke-width:39.3701; stroke-opacity:1; 
stroke-linecap:round; stroke-linejoin:round;">
</g>
<g style="fill:#FFFFFF; fill-opacity:1.0; 
stroke:#FFFFFF; stroke-width:0; stroke-opacity:1; 
stroke-linecap:round; stroke-linejoin:round;">
<circle cx="87930" cy="14250" r="393.701" /> 
</g>
<g style="fill:#FFFFFF; fill-opacity:1.0; 
stroke:#FFFFFF; stroke-width:39.3701; stroke-opacity:1; 
stroke-linecap:round; stroke-linejoin:round;">
</g>
<g style="fill:#FFFFFF; fill-opacity:1.0; 
stroke:#FFFFFF; stroke-width:0; stroke-opacity:1; 
stroke-linecap:round; stroke-linejoin:round;">
<circle cx="103180" cy="10250" r="393.701" /> 
</g>
<g style="fill:#FFFFFF; fill-opacity:1.0; 
stroke:#FFFFFF; stroke-width:39.3701; stroke-opacity:1; 
stroke-linecap:round; stroke-linejoin:round;">
</g>
<g style="fill:#FFFFFF; fill-opacity:1.0; 
stroke:#FFFFFF; stroke-width:0; stroke-opacity:1; 
stroke-linecap:round; stroke-linejoin:round;">
<circle cx="94430" cy="10250" r="393.701" /> 
</g>
<g style="fill:#FFFFFF; fill-opacity:1.0; 
stroke:#FFFFFF; stroke-width:39.3701; stroke-opacity:1; 
stroke-linecap:round; stroke-linejoin:round;">
</g>
<g style="fill:#FFFFFF; fill-opacity:1.0; 
stroke:#FFFFFF; stroke-width:0; stroke-opacity:1; 
stroke-linecap:round; stroke-linejoin:round;">
<circle cx="98180" cy="12250" r="393.701" /> 
</g>
<g style="fill:#FFFFFF; fill-opacity:1.0; 
stroke:#FFFFFF; stroke-width:39.3701; stroke-opacity:1; 
stroke-linecap:round; stroke-linejoin:round;">
</g>
<g style="fill:#FFFFFF; fill-opacity:1.0; 
stroke:#FFFFFF; stroke-width:0; stroke-opacity:1; 
stroke-linecap:round; stroke-linejoin:round;">
<circle cx="94430" cy="12250" r="393.701" /> 
</g>
<g style="fill:#FFFFFF; fill-opacity:1.0; 
stroke:#FFFFFF; stroke-width:39.3701; stroke-opacity:1; 
stroke-linecap:round; stroke-linejoin:round;">
</g>
<g style="fill:#FFFFFF; fill-opacity:1.0; 
stroke:#FFFFFF; stroke-width:0; stroke-opacity:1; 
stroke-linecap:round; stroke-linejoin:round;">
<circle cx="103180" cy="12250" r="393.701" /> 
</g>
<g style="fill:#FFFFFF; fill-opacity:1.0; 
stroke:#FFFFFF; stroke-width:39.3701; stroke-opacity:1; 
stroke-linecap:round; stroke-linejoin:round;">
</g>
<g style="fill:#FFFFFF; fill-opacity:1.0; 
stroke:#FFFFFF; stroke-width:0; stroke-opacity:1; 
stroke-linecap:round; stroke-linejoin:round;">
<circle cx="99180" cy="12250" r="393.701" /> 
</g>
<g style="fill:#FFFFFF; fill-opacity:1.0; 
stroke:#FFFFFF; stroke-width:39.3701; stroke-opacity:1; 
stroke-linecap:round; stroke-linejoin:round;">
</g>
<g style="fill:#FFFFFF; fill-opacity:1.0; 
stroke:#FFFFFF; stroke-width:0; stroke-opacity:1; 
stroke-linecap:round; stroke-linejoin:round;">
<circle cx="96930" cy="22000" r="393.701" /> 
</g>
<g style="fill:#FFFFFF; fill-opacity:1.0; 
stroke:#FFFFFF; stroke-width:39.3701; stroke-opacity:1; 
stroke-linecap:round; stroke-linejoin:round;">
</g>
<g style="fill:#FFFFFF; fill-opacity:1.0; 
stroke:#FFFFFF; stroke-width:0; stroke-opacity:1; 
stroke-linecap:round; stroke-linejoin:round;">
<circle cx="96930" cy="16500" r="393.701" /> 
</g>
<g style="fill:#FFFFFF; fill-opacity:1.0; 
stroke:#FFFFFF; stroke-width:39.3701; stroke-opacity:1; 
stroke-linecap:round; stroke-linejoin:round;">
</g>
<g style="fill:#FFFFFF; fill-opacity:1.0; 
stroke:#FFFFFF; stroke-width:0; stroke-opacity:1; 
stroke-linecap:round; stroke-linejoin:round;">
<circle cx="96930" cy="18250" r="393.701" /> 
</g>
<g style="fill:#FFFFFF; fill-opacity:1.0; 
stroke:#FFFFFF; stroke-width:39.3701; stroke-opacity:1; 
stroke-linecap:round; stroke-linejoin:round;">
</g>
<g style="fill:#FFFFFF; fill-opacity:1.0; 
stroke:#FFFFFF; stroke-width:0; stroke-opacity:1; 
stroke-linecap:round; stroke-linejoin:round;">
<circle cx="96930" cy="13850" r="393.701" /> 
</g>
<g style="fill:#FFFFFF; fill-opacity:1.0; 
stroke:#FFFFFF; stroke-width:39.3701; stroke-opacity:1; 
stroke-linecap:round; stroke-linejoin:round;">
</g>
<g style="fill:#FFFFFF; fill-opacity:1.0; 
stroke:#FFFFFF; stroke-width:0; stroke-opacity:1; 
stroke-linecap:round; stroke-linejoin:round;">
<circle cx="106180" cy="9250" r="393.701" /> 
</g>
<g style="fill:#FFFFFF; fill-opacity:1.0; 
stroke:#FFFFFF; stroke-width:39.3701; stroke-opacity:1; 
stroke-linecap:round; stroke-linejoin:round;">
</g>
<g style="fill:#FFFFFF; fill-opacity:1.0; 
stroke:#FFFFFF; stroke-width:0; stroke-opacity:1; 
stroke-linecap:round; stroke-linejoin:round;">
<circle cx="96930" cy="9250" r="393.701" /> 
</g>
<g style="fill:#FFFFFF; fill-opacity:1.0; 
stroke:#FFFFFF; stroke-width:39.3701; stroke-opacity:1; 
stroke-linecap:round; stroke-linejoin:round;">
</g>
<g style="fill:#FFFFFF; fill-opacity:1.0; 
stroke:#FFFFFF; stroke-width:0; stroke-opacity:1; 
stroke-linecap:round; stroke-linejoin:round;">
<circle cx="99180" cy="22250" r="393.701" /> 
</g>
<g style="fill:#FFFFFF; fill-opacity:1.0; 
stroke:#FFFFFF; stroke-width:39.3701; stroke-opacity:1; 
stroke-linecap:round; stroke-linejoin:round;">
</g>
<g style="fill:#FFFFFF; fill-opacity:1.0; 
stroke:#FFFFFF; stroke-width:0; stroke-opacity:1; 
stroke-linecap:round; stroke-linejoin:round;">
<circle cx="102930" cy="22250" r="393.701" /> 
</g>
<g style="fill:#FFFFFF; fill-opacity:1.0; 
stroke:#FFFFFF; stroke-width:39.3701; stroke-opacity:1; 
stroke-linecap:round; stroke-linejoin:round;">
</g>
<g style="fill:#FFFFFF; fill-opacity:1.0; 
stroke:#FFFFFF; stroke-width:196.85; stroke-opacity:1; 
stroke-linecap:round; stroke-linejoin:round;">
</g>
<g style="fill:#FFFFFF; fill-opacity:0.0; 
stroke:#FFFFFF; stroke-width:196.85; stroke-opacity:1; 
stroke-linecap:round; stroke-linejoin:round;">
<path d="M95930 18757
L95930 17250
" />
<path d="M95930 19250
L95930 18757
" />
<path d="M98180 17000
L98180 16000
" />
<path d="M98868 16000
L98180 16000
" />
<path d="M100680 14250
L98868 16000
" />
<path d="M101680 14250
L100680 14250
" />
<path d="M102680 15000
L102266 15000
" />
<path d="M102266 15000
L101680 14250
" />
<path d="M95180 19250
L95930 19250
" />
<path d="M92930 23250
L93680 23250
" />
<path d="M93680 23250
L94430 22500
" />
<path d="M94430 22500
L94430 20000
" />
<path d="M94430 20000
L95180 19250
" />
<path d="M97930 15750
L98180 16000
" />
<path d="M96655 15750
L97930 15750
" />
<path d="M95930 16475
L96655 15750
" />
<path d="M95930 17250
L95930 16475
" />
<path d="M107876 19500
L107680 19500
" />
<path d="M108568 20192
L107876 19500
" />
<path d="M108568 21951
L108568 20192
" />
<path d="M108020 22500
L108568 21951
" />
<path d="M107430 22500
L108020 22500
" />
<path d="M106430 21000
L104930 22500
" />
<path d="M107680 21000
L106430 21000
" />
<path d="M95241 15250
L95930 15250
" />
<path d="M94241 16250
L95241 15250
" />
<path d="M89930 16250
L94241 16250
" />
<path d="M87930 14250
L89930 16250
" />
<path d="M98180 13840
L98180 13250
" />
<path d="M96770 15250
L98180 13840
" />
<path d="M95930 15250
L96770 15250
" />
<path d="M88323 10856
L87930 11250
" />
<path d="M91180 8000
L88323 10856
" />
<path d="M107680 8000
L91180 8000
" />
<path d="M107180 13000
L107680 13000
" />
<path d="M107680 13000
L107930 12750
" />
<path d="M107930 12750
L107930 8250
" />
<path d="M107930 8250
L107680 8000
" />
<path d="M101180 11250
L101180 9807
" />
<path d="M101180 9807
L101180 8750
" />
<path d="M101180 8750
L100930 8500
" />
<path d="M95930 9000
L95930 11250
" />
<path d="M107180 10750
L107180 8750
" />
<path d="M107180 8750
L106930 8500
" />
<path d="M106930 8500
L96430 8500
" />
<path d="M96430 8500
L95930 9000
" />
<path d="M95930 12659
L95930 13250
" />
<path d="M94520 11250
L95930 12659
" />
<path d="M92930 11250
L94520 11250
" />
<path d="M103680 10750
L103180 10250
" />
<path d="M105180 10750
L103680 10750
" />
<path d="M94430 11159
L94520 11250
" />
<path d="M94430 10250
L94430 11159
" />
<path d="M93126 17250
L92930 17250
" />
<path d="M92930 21250
L93126 21250
" />
<path d="M93126 21250
L93930 20446
" />
<path d="M93930 20446
L93930 18053
" />
<path d="M93930 18053
L93126 17250
" />
<path d="M99180 19000
L98180 19000
" />
<path d="M102680 21500
L102430 21750
" />
<path d="M102680 20500
L102680 21500
" />
<path d="M102430 21750
L100680 21750
" />
<path d="M100680 21750
L99680 20750
" />
<path d="M99680 20750
L99680 19500
" />
<path d="M99680 19500
L99180 19000
" />
<path d="M97904 19000
L98180 19000
" />
<path d="M96962 19942
L97904 19000
" />
<path d="M96062 19942
L96962 19942
" />
<path d="M95041 20963
L96062 19942
" />
<path d="M95041 21770
L95041 20963
" />
<path d="M95930 22659
L95041 21770
" />
<path d="M95930 23250
L95930 22659
" />
<path d="M105203 17250
L106180 17250
" />
<path d="M101180 13250
L102680 13250
" />
<path d="M104430 15000
L104430 16476
" />
<path d="M102680 13250
L104430 15000
" />
<path d="M104430 16476
L105203 17250
" />
<path d="M95930 24250
L95930 23250
" />
<path d="M96180 24500
L95930 24250
" />
<path d="M106180 17250
L107180 17250
" />
<path d="M109111 19181
L109111 23818
" />
<path d="M107180 17250
L109111 19181
" />
<path d="M109111 23818
L108430 24500
" />
<path d="M107430 23500
L107430 24250
" />
<path d="M107430 24250
L107680 24500
" />
<path d="M108430 24500
L107680 24500
" />
<path d="M104930 24250
L105180 24500
" />
<path d="M104930 23500
L104930 24250
" />
<path d="M105180 24500
L96180 24500
" />
<path d="M107680 24500
L105180 24500
" />
<path d="M90430 19250
L92930 19250
" />
<path d="M87930 21500
L87930 20000
" />
<path d="M87930 20000
L88680 19250
" />
<path d="M88680 19250
L90430 19250
" />
<path d="M92930 15250
L93717 15250
" />
<path d="M93717 15250
L94430 14537
" />
<path d="M98180 12250
L98180 11250
" />
<path d="M94430 14537
L94430 12250
" />
<path d="M104589 13000
L105180 13000
" />
<path d="M103180 12324
L103855 13000
" />
<path d="M103180 12250
L103180 12324
" />
<path d="M103855 13000
L104589 13000
" />
<path d="M99180 12250
L98180 12250
" />
<path d="M96930 16500
L96930 18250
" />
<path d="M97180 18000
L96930 18250
" />
<path d="M98180 18000
L97180 18000
" />
<path d="M96930 12350
L96930 13850
" />
<path d="M96930 9250
L96930 12350
" />
<path d="M106180 10750
L106180 9250
" />
<path d="M96930 22000
L98180 23250
" />
<path d="M103323 21856
L102930 22250
" />
<path d="M104483 19500
L103495 20487
" />
<path d="M103495 21684
L103323 21856
" />
<path d="M103495 20487
L103495 21684
" />
<path d="M104680 19500
L104483 19500
" />
<path d="M99180 22000
L98180 21000
" />
<path d="M99180 22250
L99180 22000
" />
<path d="M98967 20000
L98180 20000
" />
<path d="M103892 21590
L103892 22311
" />
<path d="M99283 20315
L98967 20000
" />
<path d="M103892 22311
L103262 22942
" />
<path d="M104483 21000
L103892 21590
" />
<path d="M101905 22250
L100618 22250
" />
<path d="M104680 21000
L104483 21000
" />
<path d="M99283 20914
L99283 20315
" />
<path d="M103262 22942
L102597 22942
" />
<path d="M102597 22942
L101905 22250
" />
<path d="M100618 22250
L99283 20914
" />
<path d="M98180 14488
L98180 15000
" />
<path d="M105606 11638
L104068 11638
" />
<path d="M106180 12212
L105606 11638
" />
<path d="M104068 11638
L103987 11557
" />
<path d="M106180 13000
L106180 12212
" />
<path d="M103987 11557
L102122 11557
" />
<path d="M102122 11557
L101680 12000
" />
<path d="M100454 12000
L99512 12942
" />
<path d="M101680 12000
L100454 12000
" />
<path d="M99512 12942
L99512 13155
" />
<path d="M99512 13155
L98180 14488
" />
</g>
<g style="fill:#FFFFFF; fill-opacity:1.0; 
stroke:#FFFFFF; stroke-width:100; stroke-opacity:1; 
stroke-linecap:round; stroke-linejoin:round;">
<polyline style="fill-rule:evenodd;"
points="84748,7544
84579,7611
84431,7719
84315,7859
84237,8024
84200,8216
84199,8254
84199,25733
84224,25931
84291,26100
84399,26248
84539,26364
84704,26442
84896,26479
84934,26480
108913,26480
109111,26455
109280,26388
109428,26280
109544,26140
109622,25975
109659,25783
109660,25745
109660,19181
109467,19181
109460,19216
109460,23783
109467,23818
109440,23954
109382,24040
109382,24040
109363,24069
109333,24088
108700,24722
108681,24751
108652,24770
108652,24770
108565,24828
108464,24848
108464,24848
108430,24855
108395,24848
107714,24848
107680,24855
107645,24848
105214,24848
105180,24855
105145,24848
96214,24848
96180,24855
96145,24848
96145,24848
96044,24828
95928,24751
95909,24722
95707,24520
95678,24501
95601,24385
95581,24284
95581,24284
95574,24250
95581,24215
95581,23876
95481,23856
95269,23714
95126,23501
95076,23250
95126,22998
95269,22785
95445,22667
94818,22041
94789,22021
94778,22004
94778,22465
94785,22500
94778,22534
94778,22534
94758,22635
94681,22751
94652,22770
93950,23472
93931,23501
93902,23520
93902,23520
93832,23566
93815,23578
93714,23598
93714,23598
93680,23605
93665,23602
93590,23714
93378,23856
93190,23893
92669,23893
92481,23856
92269,23714
92126,23501
92076,23250
92126,22998
92269,22785
92481,22643
92669,22606
93190,22606
93378,22643
93590,22785
93615,22822
94081,22355
94081,20788
93756,21113
93783,21250
93733,21501
93590,21714
93378,21856
93190,21893
92669,21893
92481,21856
92269,21714
92126,21501
92076,21250
92126,20998
92237,20832
91520,20832
91520,21167
91392,21476
91156,21712
90847,21840
90512,21840
90203,21712
89967,21476
89839,21167
89839,20832
89967,20523
90203,20287
90512,20159
90847,20159
91156,20287
91392,20523
91520,20832
92237,20832
92269,20785
92481,20643
92669,20606
93190,20606
93263,20620
93581,20302
93581,19720
93378,19856
93190,19893
92669,19893
92481,19856
92269,19714
92191,19598
88824,19598
88278,20144
88278,20947
88294,20954
88475,21135
88573,21372
88573,21628
88475,21864
88294,22045
88058,22143
87802,22143
87565,22045
87384,21864
87286,21628
87286,21372
87384,21135
87565,20954
87581,20947
87581,20832
86020,20832
86020,21167
85892,21476
85656,21712
85347,21840
85012,21840
84703,21712
84467,21476
84339,21167
84339,20832
84467,20523
84703,20287
85012,20159
85347,20159
85656,20287
85892,20523
86020,20832
87581,20832
87581,20034
87574,20000
87581,19965
87581,19965
87601,19864
87612,19848
87659,19777
87659,19777
87678,19748
87707,19729
88409,19027
88428,18998
88544,18921
88645,18901
88645,18901
88680,18894
88714,18901
92191,18901
92269,18785
92481,18643
92669,18606
93190,18606
93378,18643
93581,18779
93581,18197
93263,17879
93190,17893
92669,17893
92481,17856
92269,17714
92126,17501
92076,17250
92126,16998
92269,16785
92481,16643
92669,16606
93190,16606
93378,16643
93590,16785
93733,16998
93783,17250
93756,17386
94152,17782
94181,17801
94200,17831
94200,17831
94258,17917
94285,18053
94278,18087
94278,19658
94909,19027
94928,18998
95044,18921
95145,18901
95145,18901
95180,18894
95194,18897
95269,18785
95481,18643
95581,18623
95581,17876
95481,17856
95269,17714
95126,17501
95076,17250
95126,16998
95269,16785
95481,16643
95581,16623
95581,16509
95574,16475
95581,16441
95581,16441
95601,16339
95678,16224
95707,16205
96019,15893
95669,15893
95481,15856
95269,15714
94511,16472
94492,16501
94463,16520
94463,16520
94419,16549
94376,16578
94275,16598
94275,16598
94241,16605
94206,16598
89964,16598
89930,16605
89895,16598
89895,16598
89794,16578
89678,16501
89659,16472
88829,15642
86983,15642
86983,18357
85813,18357
85813,15642
86983,15642
88829,15642
88763,15576
85733,15576
85733,18423
84563,18423
84563,15576
85733,15576
88763,15576
88074,14886
88058,14893
87801,14893
87565,14795
87384,14614
87286,14378
87286,14121
87384,13885
87565,13704
87801,13606
88058,13606
88294,13704
88475,13885
88573,14121
88573,14378
88566,14394
90074,15901
94096,15901
94970,15027
94989,14998
95105,14921
95189,14904
95269,14785
95481,14643
95669,14606
96190,14606
96378,14643
96590,14785
96651,14876
97034,14493
96801,14493
96565,14395
96384,14214
96286,13978
96286,13874
96190,13893
95669,13893
95481,13856
95269,13714
95126,13501
95076,13250
95126,12998
95269,12785
95445,12667
95073,12295
95073,12378
94975,12614
94794,12795
94778,12802
94778,14503
94785,14537
94778,14571
94778,14571
94758,14673
94681,14788
94652,14808
93988,15472
93968,15501
93939,15520
93939,15520
93873,15564
93853,15578
93751,15598
93751,15598
93717,15605
93683,15598
93668,15598
93590,15714
93378,15856
93190,15893
92669,15893
92481,15856
92269,15714
92126,15501
92076,15250
92126,14998
92269,14785
92481,14643
92669,14606
93190,14606
93378,14643
93590,14785
93630,14844
94081,14393
94081,13399
93752,13399
93740,13450
93617,13669
93419,13825
93176,13893
92980,13893
92980,13300
92880,13300
92880,13893
92683,13893
92440,13825
92242,13669
92119,13450
92107,13399
92154,13300
92880,13300
92980,13300
93705,13300
93752,13399
94081,13399
94081,13100
93752,13100
93705,13200
92980,13200
92980,12606
92880,12606
92880,13200
92154,13200
92107,13100
92119,13049
92241,12832
91520,12832
91520,13167
91392,13476
91156,13712
90847,13840
90512,13840
90203,13712
89967,13476
89839,13167
89839,12832
86020,12832
86020,13167
85892,13476
85656,13712
85347,13840
85012,13840
84703,13712
84467,13476
84339,13167
84339,12832
84467,12523
84703,12287
85012,12159
85347,12159
85656,12287
85892,12523
86020,12832
89839,12832
89967,12523
90203,12287
90512,12159
90847,12159
91156,12287
91392,12523
91520,12832
92241,12832
92242,12830
92440,12674
92683,12606
92880,12606
92980,12606
93176,12606
93419,12674
93617,12830
93740,13049
93752,13100
94081,13100
94081,12802
94065,12795
93884,12614
93786,12378
93786,12121
93884,11885
94065,11704
94301,11606
94384,11606
94376,11598
93668,11598
93590,11714
93378,11856
93190,11893
92669,11893
92481,11856
92269,11714
92126,11501
92076,11250
92126,10998
92269,10785
92481,10643
92669,10606
93190,10606
93378,10643
93590,10785
93668,10901
94081,10901
94081,10802
94065,10795
93884,10614
93786,10378
93786,10121
93884,9885
94065,9704
94301,9606
94558,9606
94794,9704
94975,9885
95073,10121
95073,10378
94975,10614
94794,10795
94778,10802
94778,11008
94791,11027
95092,11329
95076,11250
95126,10998
95269,10785
95481,10643
95581,10623
95581,9034
95574,8999
95581,8965
95581,8965
95601,8864
95678,8748
95707,8729
96088,8348
91324,8348
88566,11105
88573,11121
88573,11378
88475,11614
88294,11795
88058,11893
87801,11893
87565,11795
87384,11614
87286,11378
87286,11121
87384,10885
87565,10704
87801,10606
88058,10606
88074,10613
90909,7777
90928,7748
91044,7671
91145,7651
91145,7651
91180,7644
91214,7651
107645,7651
107680,7644
107714,7651
107714,7651
107809,7670
107815,7671
107902,7729
107902,7729
107931,7748
107950,7777
108152,7979
108181,7998
108200,8027
108200,8027
108258,8114
108285,8250
108278,8284
108278,12715
108285,12750
108278,12784
108278,12784
108258,12885
108181,13001
108152,13020
107950,13222
107931,13251
107902,13270
107902,13270
107815,13328
107809,13329
107786,13448
107644,13660
107431,13803
107180,13853
106928,13803
106715,13660
106680,13607
106644,13660
106431,13803
106180,13853
105928,13803
105792,13712
105753,13770
105671,13826
105573,13845
104786,13845
104688,13826
104606,13770
104550,13688
104531,13590
104531,13348
103889,13348
103855,13355
103821,13348
103821,13348
103719,13328
103604,13251
103585,13222
103256,12893
103051,12893
102815,12795
102634,12614
102536,12378
102536,12121
102625,11906
102266,11906
101950,12222
101931,12251
101902,12270
101902,12270
101858,12299
101815,12328
101714,12348
101714,12348
101680,12355
101645,12348
100598,12348
99860,13086
99860,13121
99867,13155
99860,13190
99860,13190
99840,13291
99763,13407
99734,13426
98686,14474
98862,14592
98987,14779
99031,15000
98987,15220
98862,15407
98724,15500
98819,15563
100411,14025
100428,13998
100460,13977
100462,13975
100488,13958
100544,13921
100547,13921
100549,13919
100614,13907
100645,13901
100648,13901
100686,13894
100717,13901
101666,13901
101723,13897
101768,13912
101815,13921
101834,13933
101854,13940
101891,13972
101931,13998
101962,14045
102227,14384
102272,14317
102459,14192
102680,14148
102900,14192
103087,14317
103212,14503
103244,14668
103244,15331
103212,15496
103087,15682
102900,15807
102680,15851
102459,15807
102272,15682
102147,15496
102115,15331
102115,15317
102112,15316
102091,15309
102055,15277
102015,15251
101984,15204
101980,15199
101890,15364
101721,15500
101890,15635
101996,15829
102003,15862
101955,15950
101230,15950
101230,15050
101237,15050
101237,14950
101230,14950
101230,14942
101130,14942
101130,14950
101122,14950
101122,15050
101130,15050
101130,15950
100404,15950
100356,15862
100363,15829
100469,15635
100638,15500
100469,15364
100363,15170
100356,15137
100404,15050
100353,15050
99137,16224
99120,16251
99088,16272
99086,16274
99060,16291
99004,16328
99001,16328
98999,16330
98934,16342
98903,16348
98902,16348
98862,16407
98724,16500
98862,16592
98987,16779
99031,17000
98987,17220
98862,17407
98724,17500
98862,17592
98987,17779
99031,18000
98987,18220
98862,18407
98724,18500
98862,18592
98902,18651
99145,18651
99180,18644
99214,18651
99214,18651
99315,18671
99315,18671
99315,18671
99402,18729
99402,18729
99431,18748
99450,18777
99902,19229
99931,19248
99950,19277
99950,19277
100008,19364
100035,19500
100028,19534
100028,20605
100372,20949
100404,20949
100356,20862
100363,20829
100469,20635
100638,20500
100469,20364
100363,20170
100356,20137
100404,20050
101130,20050
101130,20950
101122,20950
101122,21050
101130,21050
101130,21057
101230,21057
101230,21050
101955,21050
102003,21137
101996,21170
101890,21364
101843,21401
102285,21401
102331,21355
102331,21222
102272,21182
102147,20996
102115,20831
102115,20168
102121,20137
102003,20137
101996,20170
101890,20364
101721,20500
101890,20635
101996,20829
102003,20862
101955,20950
101230,20950
101230,20050
101955,20050
102003,20137
102121,20137
102147,20003
102272,19817
102459,19692
102680,19648
102900,19692
103087,19817
103212,20003
103244,20168
103244,20235
103273,20216
103853,19636
103826,19500
103876,19248
104019,19035
104231,18893
104419,18856
104940,18856
105128,18893
105340,19035
105483,19248
105533,19500
105483,19751
105340,19964
105128,20106
104940,20143
104419,20143
104346,20129
103844,20631
103844,20912
103876,20748
104019,20535
104231,20393
104419,20356
104940,20356
105128,20393
105340,20535
105483,20748
105533,21000
105483,21251
105340,21464
105128,21606
104940,21643
104419,21643
104346,21629
104241,21734
104241,22277
104247,22311
104220,22447
104163,22533
104163,22533
104143,22562
104114,22582
103532,23164
103513,23193
103484,23212
103484,23212
103479,23215
103398,23270
103296,23290
103296,23290
103262,23297
103227,23290
102632,23290
102597,23297
102563,23290
102563,23290
102461,23270
102346,23193
102327,23164
102263,23100
102002,23100
101955,23200
101230,23200
101230,22606
101130,22606
101130,23200
100404,23200
100357,23100
100369,23049
100492,22830
100690,22674
100933,22606
101130,22606
101230,22606
101426,22606
101669,22674
101867,22830
101990,23049
102002,23100
102263,23100
101761,22598
100653,22598
100618,22605
100584,22598
100584,22598
100482,22578
100367,22501
100348,22472
99061,21185
99031,21165
99025,21155
99025,21314
99019,21346
99279,21606
99308,21606
99544,21704
99725,21885
99823,22121
99823,22378
99725,22614
99544,22795
99308,22893
99051,22893
98859,22814
98983,22998
99033,23250
98983,23501
98840,23714
98628,23856
98440,23893
97919,23893
97731,23856
97519,23714
97376,23501
97326,23250
97376,22998
97400,22963
97074,22636
97058,22643
96801,22643
96565,22545
96384,22364
96286,22128
96286,21871
96290,21861
96176,21893
95980,21893
95980,21300
96705,21300
96743,21380
96801,21356
97058,21356
97294,21454
97475,21635
97573,21871
97573,22128
97566,22144
98029,22606
98440,22606
98628,22643
98734,22714
98634,22614
98536,22378
98536,22121
98616,21928
98257,21569
97589,21569
97491,21550
97409,21495
97353,21412
97334,21314
97334,21100
96752,21100
96705,21200
95980,21200
95980,20606
96176,20606
96419,20674
96617,20830
96740,21049
96752,21100
97334,21100
97334,20685
97353,20587
97409,20504
97491,20449
97544,20439
97497,20407
97372,20220
97339,20057
97232,20164
97213,20193
97184,20212
97184,20212
97170,20222
97098,20270
96996,20290
96996,20290
96962,20297
96927,20290
96206,20290
95880,20617
95880,21200
95872,21200
95872,21300
95880,21300
95880,21893
95683,21893
95646,21883
96152,22388
96181,22408
96200,22437
96200,22437
96258,22523
96278,22623
96378,22643
96590,22785
96733,22998
96783,23250
96733,23501
96590,23714
96378,23856
96278,23876
96278,24105
96324,24151
104581,24151
104581,24126
104481,24106
104269,23964
104126,23751
104076,23500
104096,23399
102002,23399
101990,23450
101867,23669
101669,23825
101426,23893
101230,23893
101230,23300
101130,23300
101130,23893
100933,23893
100690,23825
100492,23669
100369,23450
100357,23399
100404,23300
101130,23300
101230,23300
101955,23300
102002,23399
104096,23399
104126,23248
104269,23035
104311,23007
104300,22991
104281,22893
104281,22106
104300,22008
104356,21926
104438,21870
104536,21851
105085,21851
106159,20777
106178,20748
106294,20671
106395,20651
106395,20651
106430,20644
106464,20651
106941,20651
107019,20535
107231,20393
107419,20356
107940,20356
108128,20393
108220,20455
108220,20336
108013,20129
107940,20143
107419,20143
107231,20106
107019,19964
106876,19751
106826,19500
106876,19248
107019,19035
107231,18893
107419,18856
107940,18856
108128,18893
108340,19035
108483,19248
108533,19500
108506,19636
108763,19893
108763,19326
108018,18581
103244,18581
103244,18857
103182,19069
103044,19241
102850,19348
102817,19355
102730,19307
102730,18581
102630,18581
102630,19307
102542,19355
102509,19348
102315,19241
102231,19137
102003,19137
101996,19170
101890,19364
101721,19500
101890,19635
101996,19829
102003,19862
101955,19950
101230,19950
101230,19050
101130,19050
101130,19950
100404,19950
100356,19862
100363,19829
100469,19635
100638,19500
100469,19364
100363,19170
100356,19137
100404,19050
101130,19050
101230,19050
101955,19050
102003,19137
102231,19137
102177,19069
102115,18857
102115,18581
102630,18581
102730,18581
103244,18581
108018,18581
107186,17749
107139,17820
107057,17875
106959,17894
105400,17894
105302,17875
105220,17820
105164,17737
105145,17639
105145,17593
105067,17578
104952,17501
104932,17472
104479,17018
103244,17018
103244,17294
103182,17506
103044,17678
102914,17750
103044,17821
103182,17993
103244,18205
103244,18481
102730,18481
102730,17755
102740,17750
102730,17744
102730,17018
102630,17018
102630,17744
102619,17750
102630,17755
102630,18481
102115,18481
102115,18205
102135,18137
102003,18137
101996,18170
101890,18364
101721,18500
101890,18635
101996,18829
102003,18862
101955,18950
101230,18950
101230,18050
101130,18050
101130,18950
100404,18950
100356,18862
100363,18829
100469,18635
100638,18500
100469,18364
100363,18170
100356,18137
100404,18050
101130,18050
101230,18050
101955,18050
102003,18137
102135,18137
102177,17993
102315,17821
102445,17750
102315,17678
102177,17506
102115,17294
102115,17137
102003,17137
101996,17170
101890,17364
101721,17500
101890,17635
101996,17829
102003,17862
101955,17950
101230,17950
101230,17050
101130,17050
101130,17950
100404,17950
100356,17862
100363,17829
100469,17635
100638,17500
100469,17364
100363,17170
100356,17137
100404,17050
101130,17050
101230,17050
101955,17050
102003,17137
102115,17137
102115,17018
102630,17018
102730,17018
103244,17018
104479,17018
104207,16747
104178,16727
104122,16643
104122,16642
103244,16642
103244,16918
102730,16918
102730,16192
102630,16192
102630,16918
102115,16918
102115,16642
102177,16430
102315,16258
102509,16151
102542,16144
102630,16192
102730,16192
102817,16144
102850,16151
103044,16258
103182,16430
103244,16642
104122,16642
104101,16612
104100,16605
104081,16510
104081,16510
104074,16476
104081,16442
104081,16137
102003,16137
101996,16170
101890,16364
101721,16500
101890,16635
101996,16829
102003,16862
101955,16950
101230,16950
101230,16050
101130,16050
101130,16950
100404,16950
100356,16862
100363,16829
100469,16635
100638,16500
100469,16364
100363,16170
100356,16137
100404,16050
101130,16050
101230,16050
101955,16050
102003,16137
104081,16137
104081,15144
102535,13598
101918,13598
101840,13714
101628,13856
101440,13893
100919,13893
100731,13856
100519,13714
100376,13501
100326,13250
100376,12998
100519,12785
100731,12643
100919,12606
101440,12606
101628,12643
101840,12785
101918,12901
102645,12901
102680,12894
102714,12901
102714,12901
102815,12921
102815,12921
102815,12921
102902,12979
102902,12979
102931,12998
102950,13027
104652,14729
104681,14748
104758,14864
104778,14965
104778,14965
104785,15000
104778,15034
104778,16332
105182,16736
105220,16679
105302,16624
105400,16605
106959,16605
107057,16624
107139,16679
107195,16762
107214,16860
107214,16901
107315,16921
107402,16979
107402,16979
107431,16998
107450,17027
109333,18911
109363,18930
109440,19045
109460,19147
109460,19147
109467,19181
109660,19181
109660,15430
107191,15430
107179,15480
107057,15698
106860,15853
106619,15921
106230,15921
106230,15331
106130,15331
106130,15921
105740,15921
105499,15853
105302,15698
105180,15480
105168,15430
105215,15331
106130,15331
106230,15331
107144,15331
107191,15430
109660,15430
109660,15132
107191,15132
107144,15231
106230,15231
106230,14641
106130,14641
106130,15231
105215,15231
105168,15132
105180,15082
105302,14864
105499,14709
105740,14641
106130,14641
106230,14641
106619,14641
106860,14709
107057,14864
107179,15082
107191,15132
109660,15132
109660,8266
109635,8068
109568,7899
109460,7751
109320,7635
109155,7557
108963,7520
108925,7519
84946,7519
84748,7544
" /> 
</g>
<g style="fill:#000000; fill-opacity:1.0; 
stroke:#000000; stroke-width:100; stroke-opacity:1; 
stroke-linecap:round; stroke-linejoin:round;">
</g>
<g style="fill:#000000; fill-opacity:1.0; 
stroke:#000000; stroke-width:0; stroke-opacity:1; 
stroke-linecap:round; stroke-linejoin:round;">
<circle cx="87930" cy="11250" r="177.165" /> 
</g>
<g style="fill:#000000; fill-opacity:1.0; 
stroke:#000000; stroke-width:39.3701; stroke-opacity:1; 
stroke-linecap:round; stroke-linejoin:round;">
</g>
<g style="fill:#000000; fill-opacity:1.0; 
stroke:#000000; stroke-width:0; stroke-opacity:1; 
stroke-linecap:round; stroke-linejoin:round;">
<circle cx="87930" cy="14250" r="177.165" /> 
</g>
<g style="fill:#000000; fill-opacity:1.0; 
stroke:#000000; stroke-width:39.3701; stroke-opacity:1; 
stroke-linecap:round; stroke-linejoin:round;">
</g>
<g style="fill:#000000; fill-opacity:1.0; 
stroke:#000000; stroke-width:0; stroke-opacity:1; 
stroke-linecap:round; stroke-linejoin:round;">
<circle cx="103180" cy="10250" r="177.165" /> 
</g>
<g style="fill:#000000; fill-opacity:1.0; 
stroke:#000000; stroke-width:39.3701; stroke-opacity:1; 
stroke-linecap:round; stroke-linejoin:round;">
</g>
<g style="fill:#000000; fill-opacity:1.0; 
stroke:#000000; stroke-width:0; stroke-opacity:1; 
stroke-linecap:round; stroke-linejoin:round;">
<circle cx="94430" cy="10250" r="177.165" /> 
</g>
<g style="fill:#000000; fill-opacity:1.0; 
stroke:#000000; stroke-width:39.3701; stroke-opacity:1; 
stroke-linecap:round; stroke-linejoin:round;">
</g>
<g style="fill:#000000; fill-opacity:1.0; 
stroke:#000000; stroke-width:0; stroke-opacity:1; 
stroke-linecap:round; stroke-linejoin:round;">
<circle cx="98180" cy="12250" r="177.165" /> 
</g>
<g style="fill:#000000; fill-opacity:1.0; 
stroke:#000000; stroke-width:39.3701; stroke-opacity:1; 
stroke-linecap:round; stroke-linejoin:round;">
</g>
<g style="fill:#000000; fill-opacity:1.0; 
stroke:#000000; stroke-width:0; stroke-opacity:1; 
stroke-linecap:round; stroke-linejoin:round;">
<circle cx="94430" cy="12250" r="177.165" /> 
</g>
<g style="fill:#000000; fill-opacity:1.0; 
stroke:#000000; stroke-width:39.3701; stroke-opacity:1; 
stroke-linecap:round; stroke-linejoin:round;">
</g>
<g style="fill:#000000; fill-opacity:1.0; 
stroke:#000000; stroke-width:0; stroke-opacity:1; 
stroke-linecap:round; stroke-linejoin:round;">
<circle cx="103180" cy="12250" r="177.165" /> 
</g>
<g style="fill:#000000; fill-opacity:1.0; 
stroke:#000000; stroke-width:39.3701; stroke-opacity:1; 
stroke-linecap:round; stroke-linejoin:round;">
</g>
<g style="fill:#000000; fill-opacity:1.0; 
stroke:#000000; stroke-width:0; stroke-opacity:1; 
stroke-linecap:round; stroke-linejoin:round;">
<circle cx="99180" cy="12250" r="177.165" /> 
</g>
<g style="fill:#000000; fill-opacity:1.0; 
stroke:#000000; stroke-width:39.3701; stroke-opacity:1; 
stroke-linecap:round; stroke-linejoin:round;">
</g>
<g style="fill:#000000; fill-opacity:1.0; 
stroke:#000000; stroke-width:0; stroke-opacity:1; 
stroke-linecap:round; stroke-linejoin:round;">
<circle cx="96930" cy="22000" r="177.165" /> 
</g>
<g style="fill:#000000; fill-opacity:1.0; 
stroke:#000000; stroke-width:39.3701; stroke-opacity:1; 
stroke-linecap:round; stroke-linejoin:round;">
</g>
<g style="fill:#000000; fill-opacity:1.0; 
stroke:#000000; stroke-width:0; stroke-opacity:1; 
stroke-linecap:round; stroke-linejoin:round;">
<circle cx="96930" cy="16500" r="177.165" /> 
</g>
<g style="fill:#000000; fill-opacity:1.0; 
stroke:#000000; stroke-width:39.3701; stroke-opacity:1; 
stroke-linecap:round; stroke-linejoin:round;">
</g>
<g style="fill:#000000; fill-opacity:1.0; 
stroke:#000000; stroke-width:0; stroke-opacity:1; 
stroke-linecap:round; stroke-linejoin:round;">
<circle cx="96930" cy="18250" r="177.165" /> 
</g>
<g style="fill:#000000; fill-opacity:1.0; 
stroke:#000000; stroke-width:39.3701; stroke-opacity:1; 
stroke-linecap:round; stroke-linejoin:round;">
</g>
<g style="fill:#000000; fill-opacity:1.0; 
stroke:#000000; stroke-width:0; stroke-opacity:1; 
stroke-linecap:round; stroke-linejoin:round;">
<circle cx="96930" cy="13850" r="177.165" /> 
</g>
<g style="fill:#000000; fill-opacity:1.0; 
stroke:#000000; stroke-width:39.3701; stroke-opacity:1; 
stroke-linecap:round; stroke-linejoin:round;">
</g>
<g style="fill:#000000; fill-opacity:1.0; 
stroke:#000000; stroke-width:0; stroke-opacity:1; 
stroke-linecap:round; stroke-linejoin:round;">
<circle cx="106180" cy="9250" r="177.165" /> 
</g>
<g style="fill:#000000; fill-opacity:1.0; 
stroke:#000000; stroke-width:39.3701; stroke-opacity:1; 
stroke-linecap:round; stroke-linejoin:round;">
</g>
<g style="fill:#000000; fill-opacity:1.0; 
stroke:#000000; stroke-width:0; stroke-opacity:1; 
stroke-linecap:round; stroke-linejoin:round;">
<circle cx="96930" cy="9250" r="177.165" /> 
</g>
<g style="fill:#000000; fill-opacity:1.0; 
stroke:#000000; stroke-width:39.3701; stroke-opacity:1; 
stroke-linecap:round; stroke-linejoin:round;">
</g>
<g style="fill:#000000; fill-opacity:1.0; 
stroke:#000000; stroke-width:0; stroke-opacity:1; 
stroke-linecap:round; stroke-linejoin:round;">
<circle cx="99180" cy="22250" r="177.165" /> 
</g>
<g style="fill:#000000; fill-opacity:1.0; 
stroke:#000000; stroke-width:39.3701; stroke-opacity:1; 
stroke-linecap:round; stroke-linejoin:round;">
</g>
<g style="fill:#000000; fill-opacity:1.0; 
stroke:#000000; stroke-width:0; stroke-opacity:1; 
stroke-linecap:round; stroke-linejoin:round;">
<circle cx="102930" cy="22250" r="177.165" /> 
</g>
<g style="fill:#000000; fill-opacity:1.0; 
stroke:#000000; stroke-width:39.3701; stroke-opacity:1; 
stroke-linecap:round; stroke-linejoin:round;">
</g>
<g style="fill:#000000; fill-opacity:1.0; 
stroke:#000000; stroke-width:0; stroke-opacity:1; 
stroke-linecap:round; stroke-linejoin:round;">
<circle cx="105180" cy="10750" r="177.165" /> 
</g>
<g style="fill:#000000; fill-opacity:1.0; 
stroke:#000000; stroke-width:39.3701; stroke-opacity:1; 
stroke-linecap:round; stroke-linejoin:round;">
</g>
<g style="fill:#000000; fill-opacity:1.0; 
stroke:#000000; stroke-width:0; stroke-opacity:1; 
stroke-linecap:round; stroke-linejoin:round;">
<circle cx="106180" cy="10750" r="177.165" /> 
</g>
<g style="fill:#000000; fill-opacity:1.0; 
stroke:#000000; stroke-width:39.3701; stroke-opacity:1; 
stroke-linecap:round; stroke-linejoin:round;">
</g>
<g style="fill:#000000; fill-opacity:1.0; 
stroke:#000000; stroke-width:0; stroke-opacity:1; 
stroke-linecap:round; stroke-linejoin:round;">
<circle cx="107180" cy="10750" r="177.165" /> 
</g>
<g style="fill:#000000; fill-opacity:1.0; 
stroke:#000000; stroke-width:39.3701; stroke-opacity:1; 
stroke-linecap:round; stroke-linejoin:round;">
</g>
<g style="fill:#000000; fill-opacity:1.0; 
stroke:#000000; stroke-width:0; stroke-opacity:1; 
stroke-linecap:round; stroke-linejoin:round;">
<circle cx="107180" cy="13000" r="177.165" /> 
</g>
<g style="fill:#000000; fill-opacity:1.0; 
stroke:#000000; stroke-width:39.3701; stroke-opacity:1; 
stroke-linecap:round; stroke-linejoin:round;">
</g>
<g style="fill:#000000; fill-opacity:1.0; 
stroke:#000000; stroke-width:0; stroke-opacity:1; 
stroke-linecap:round; stroke-linejoin:round;">
<circle cx="106180" cy="13000" r="177.165" /> 
</g>
<g style="fill:#000000; fill-opacity:1.0; 
stroke:#000000; stroke-width:39.3701; stroke-opacity:1; 
stroke-linecap:round; stroke-linejoin:round;">
</g>
<g style="fill:#000000; fill-opacity:1.0; 
stroke:#000000; stroke-width:0; stroke-opacity:1; 
stroke-linecap:round; stroke-linejoin:round;">
<circle cx="105180" cy="13000" r="177.165" /> 
</g>
<g style="fill:#000000; fill-opacity:1.0; 
stroke:#000000; stroke-width:39.3701; stroke-opacity:1; 
stroke-linecap:round; stroke-linejoin:round;">
</g>
<g style="fill:#000000; fill-opacity:1.0; 
stroke:#000000; stroke-width:0; stroke-opacity:1; 
stroke-linecap:round; stroke-linejoin:round;">
<circle cx="104680" cy="21000" r="177.165" /> 
</g>
<g style="fill:#000000; fill-opacity:1.0; 
stroke:#000000; stroke-width:39.3701; stroke-opacity:1; 
stroke-linecap:round; stroke-linejoin:round;">
</g>
<g style="fill:#000000; fill-opacity:1.0; 
stroke:#000000; stroke-width:0; stroke-opacity:1; 
stroke-linecap:round; stroke-linejoin:round;">
<circle cx="107680" cy="21000" r="177.165" /> 
</g>
<g style="fill:#000000; fill-opacity:1.0; 
stroke:#000000; stroke-width:39.3701; stroke-opacity:1; 
stroke-linecap:round; stroke-linejoin:round;">
</g>
<g style="fill:#000000; fill-opacity:1.0; 
stroke:#000000; stroke-width:0; stroke-opacity:1; 
stroke-linecap:round; stroke-linejoin:round;">
<circle cx="107430" cy="22500" r="177.165" /> 
</g>
<g style="fill:#000000; fill-opacity:1.0; 
stroke:#000000; stroke-width:39.3701; stroke-opacity:1; 
stroke-linecap:round; stroke-linejoin:round;">
</g>
<g style="fill:#000000; fill-opacity:1.0; 
stroke:#000000; stroke-width:0; stroke-opacity:1; 
stroke-linecap:round; stroke-linejoin:round;">
<circle cx="107430" cy="23500" r="177.165" /> 
</g>
<g style="fill:#000000; fill-opacity:1.0; 
stroke:#000000; stroke-width:39.3701; stroke-opacity:1; 
stroke-linecap:round; stroke-linejoin:round;">
</g>
<g style="fill:#000000; fill-opacity:1.0; 
stroke:#000000; stroke-width:0; stroke-opacity:1; 
stroke-linecap:round; stroke-linejoin:round;">
<circle cx="98180" cy="11250" r="177.165" /> 
</g>
<g style="fill:#000000; fill-opacity:1.0; 
stroke:#000000; stroke-width:39.3701; stroke-opacity:1; 
stroke-linecap:round; stroke-linejoin:round;">
</g>
<g style="fill:#000000; fill-opacity:1.0; 
stroke:#000000; stroke-width:0; stroke-opacity:1; 
stroke-linecap:round; stroke-linejoin:round;">
<circle cx="101180" cy="11250" r="177.165" /> 
</g>
<g style="fill:#000000; fill-opacity:1.0; 
stroke:#000000; stroke-width:39.3701; stroke-opacity:1; 
stroke-linecap:round; stroke-linejoin:round;">
</g>
<g style="fill:#000000; fill-opacity:1.0; 
stroke:#000000; stroke-width:0; stroke-opacity:1; 
stroke-linecap:round; stroke-linejoin:round;">
<circle cx="101180" cy="21000" r="177.165" /> 
</g>
<g style="fill:#000000; fill-opacity:1.0; 
stroke:#000000; stroke-width:39.3701; stroke-opacity:1; 
stroke-linecap:round; stroke-linejoin:round;">
</g>
<g style="fill:#000000; fill-opacity:1.0; 
stroke:#000000; stroke-width:0; stroke-opacity:1; 
stroke-linecap:round; stroke-linejoin:round;">
<circle cx="98180" cy="15000" r="177.165" /> 
</g>
<g style="fill:#000000; fill-opacity:1.0; 
stroke:#000000; stroke-width:39.3701; stroke-opacity:1; 
stroke-linecap:round; stroke-linejoin:round;">
</g>
<g style="fill:#000000; fill-opacity:1.0; 
stroke:#000000; stroke-width:0; stroke-opacity:1; 
stroke-linecap:round; stroke-linejoin:round;">
<circle cx="101180" cy="20000" r="177.165" /> 
</g>
<g style="fill:#000000; fill-opacity:1.0; 
stroke:#000000; stroke-width:39.3701; stroke-opacity:1; 
stroke-linecap:round; stroke-linejoin:round;">
</g>
<g style="fill:#000000; fill-opacity:1.0; 
stroke:#000000; stroke-width:0; stroke-opacity:1; 
stroke-linecap:round; stroke-linejoin:round;">
<circle cx="98180" cy="16000" r="177.165" /> 
</g>
<g style="fill:#000000; fill-opacity:1.0; 
stroke:#000000; stroke-width:39.3701; stroke-opacity:1; 
stroke-linecap:round; stroke-linejoin:round;">
</g>
<g style="fill:#000000; fill-opacity:1.0; 
stroke:#000000; stroke-width:0; stroke-opacity:1; 
stroke-linecap:round; stroke-linejoin:round;">
<circle cx="101180" cy="19000" r="177.165" /> 
</g>
<g style="fill:#000000; fill-opacity:1.0; 
stroke:#000000; stroke-width:39.3701; stroke-opacity:1; 
stroke-linecap:round; stroke-linejoin:round;">
</g>
<g style="fill:#000000; fill-opacity:1.0; 
stroke:#000000; stroke-width:0; stroke-opacity:1; 
stroke-linecap:round; stroke-linejoin:round;">
<circle cx="98180" cy="17000" r="177.165" /> 
</g>
<g style="fill:#000000; fill-opacity:1.0; 
stroke:#000000; stroke-width:39.3701; stroke-opacity:1; 
stroke-linecap:round; stroke-linejoin:round;">
</g>
<g style="fill:#000000; fill-opacity:1.0; 
stroke:#000000; stroke-width:0; stroke-opacity:1; 
stroke-linecap:round; stroke-linejoin:round;">
<circle cx="101180" cy="18000" r="177.165" /> 
</g>
<g style="fill:#000000; fill-opacity:1.0; 
stroke:#000000; stroke-width:39.3701; stroke-opacity:1; 
stroke-linecap:round; stroke-linejoin:round;">
</g>
<g style="fill:#000000; fill-opacity:1.0; 
stroke:#000000; stroke-width:0; stroke-opacity:1; 
stroke-linecap:round; stroke-linejoin:round;">
<circle cx="98180" cy="18000" r="177.165" /> 
</g>
<g style="fill:#000000; fill-opacity:1.0; 
stroke:#000000; stroke-width:39.3701; stroke-opacity:1; 
stroke-linecap:round; stroke-linejoin:round;">
</g>
<g style="fill:#000000; fill-opacity:1.0; 
stroke:#000000; stroke-width:0; stroke-opacity:1; 
stroke-linecap:round; stroke-linejoin:round;">
<circle cx="101180" cy="17000" r="177.165" /> 
</g>
<g style="fill:#000000; fill-opacity:1.0; 
stroke:#000000; stroke-width:39.3701; stroke-opacity:1; 
stroke-linecap:round; stroke-linejoin:round;">
</g>
<g style="fill:#000000; fill-opacity:1.0; 
stroke:#000000; stroke-width:0; stroke-opacity:1; 
stroke-linecap:round; stroke-linejoin:round;">
<circle cx="98180" cy="19000" r="177.165" /> 
</g>
<g style="fill:#000000; fill-opacity:1.0; 
stroke:#000000; stroke-width:39.3701; stroke-opacity:1; 
stroke-linecap:round; stroke-linejoin:round;">
</g>
<g style="fill:#000000; fill-opacity:1.0; 
stroke:#000000; stroke-width:0; stroke-opacity:1; 
stroke-linecap:round; stroke-linejoin:round;">
<circle cx="101180" cy="16000" r="177.165" /> 
</g>
<g style="fill:#000000; fill-opacity:1.0; 
stroke:#000000; stroke-width:39.3701; stroke-opacity:1; 
stroke-linecap:round; stroke-linejoin:round;">
</g>
<g style="fill:#000000; fill-opacity:1.0; 
stroke:#000000; stroke-width:0; stroke-opacity:1; 
stroke-linecap:round; stroke-linejoin:round;">
<circle cx="98180" cy="20000" r="177.165" /> 
</g>
<g style="fill:#000000; fill-opacity:1.0; 
stroke:#000000; stroke-width:39.3701; stroke-opacity:1; 
stroke-linecap:round; stroke-linejoin:round;">
</g>
<g style="fill:#000000; fill-opacity:1.0; 
stroke:#000000; stroke-width:0; stroke-opacity:1; 
stroke-linecap:round; stroke-linejoin:round;">
<circle cx="101180" cy="15000" r="177.165" /> 
</g>
<g style="fill:#000000; fill-opacity:1.0; 
stroke:#000000; stroke-width:39.3701; stroke-opacity:1; 
stroke-linecap:round; stroke-linejoin:round;">
</g>
<g style="fill:#000000; fill-opacity:1.0; 
stroke:#000000; stroke-width:0; stroke-opacity:1; 
stroke-linecap:round; stroke-linejoin:round;">
<circle cx="98180" cy="21000" r="177.165" /> 
</g>
<g style="fill:#000000; fill-opacity:1.0; 
stroke:#000000; stroke-width:39.3701; stroke-opacity:1; 
stroke-linecap:round; stroke-linejoin:round;">
</g>
<g style="fill:#000000; fill-opacity:1.0; 
stroke:#000000; stroke-width:0; stroke-opacity:1; 
stroke-linecap:round; stroke-linejoin:round;">
<circle cx="102680" cy="18531.5" r="177.165" /> 
</g>
<g style="fill:#000000; fill-opacity:1.0; 
stroke:#000000; stroke-width:39.3701; stroke-opacity:1; 
stroke-linecap:round; stroke-linejoin:round;">
</g>
<g style="fill:#000000; fill-opacity:1.0; 
stroke:#000000; stroke-width:0; stroke-opacity:1; 
stroke-linecap:round; stroke-linejoin:round;">
<circle cx="102680" cy="20500" r="177.165" /> 
</g>
<g style="fill:#000000; fill-opacity:1.0; 
stroke:#000000; stroke-width:39.3701; stroke-opacity:1; 
stroke-linecap:round; stroke-linejoin:round;">
</g>
<g style="fill:#000000; fill-opacity:1.0; 
stroke:#000000; stroke-width:0; stroke-opacity:1; 
stroke-linecap:round; stroke-linejoin:round;">
<circle cx="102680" cy="15000" r="177.165" /> 
</g>
<g style="fill:#000000; fill-opacity:1.0; 
stroke:#000000; stroke-width:39.3701; stroke-opacity:1; 
stroke-linecap:round; stroke-linejoin:round;">
</g>
<g style="fill:#000000; fill-opacity:1.0; 
stroke:#000000; stroke-width:0; stroke-opacity:1; 
stroke-linecap:round; stroke-linejoin:round;">
<circle cx="102680" cy="16968.5" r="177.165" /> 
</g>
<g style="fill:#000000; fill-opacity:1.0; 
stroke:#000000; stroke-width:39.3701; stroke-opacity:1; 
stroke-linecap:round; stroke-linejoin:round;">
</g>
<g style="fill:#000000; fill-opacity:1.0; 
stroke:#000000; stroke-width:0; stroke-opacity:1; 
stroke-linecap:round; stroke-linejoin:round;">
<circle cx="90680" cy="21000" r="177.165" /> 
</g>
<g style="fill:#000000; fill-opacity:1.0; 
stroke:#000000; stroke-width:39.3701; stroke-opacity:1; 
stroke-linecap:round; stroke-linejoin:round;">
</g>
<g style="fill:#000000; fill-opacity:1.0; 
stroke:#000000; stroke-width:0; stroke-opacity:1; 
stroke-linecap:round; stroke-linejoin:round;">
<circle cx="85180" cy="21000" r="177.165" /> 
</g>
<g style="fill:#000000; fill-opacity:1.0; 
stroke:#000000; stroke-width:39.3701; stroke-opacity:1; 
stroke-linecap:round; stroke-linejoin:round;">
</g>
<g style="fill:#000000; fill-opacity:1.0; 
stroke:#000000; stroke-width:0; stroke-opacity:1; 
stroke-linecap:round; stroke-linejoin:round;">
<circle cx="90680" cy="13000" r="177.165" /> 
</g>
<g style="fill:#000000; fill-opacity:1.0; 
stroke:#000000; stroke-width:39.3701; stroke-opacity:1; 
stroke-linecap:round; stroke-linejoin:round;">
</g>
<g style="fill:#000000; fill-opacity:1.0; 
stroke:#000000; stroke-width:0; stroke-opacity:1; 
stroke-linecap:round; stroke-linejoin:round;">
<circle cx="85180" cy="13000" r="177.165" /> 
</g>
<g style="fill:#000000; fill-opacity:1.0; 
stroke:#000000; stroke-width:39.3701; stroke-opacity:1; 
stroke-linecap:round; stroke-linejoin:round;">
</g>
<g style="fill:#000000; fill-opacity:1.0; 
stroke:#000000; stroke-width:0; stroke-opacity:1; 
stroke-linecap:round; stroke-linejoin:round;">
<circle cx="92930" cy="17250" r="177.165" /> 
</g>
<g style="fill:#000000; fill-opacity:1.0; 
stroke:#000000; stroke-width:39.3701; stroke-opacity:1; 
stroke-linecap:round; stroke-linejoin:round;">
</g>
<g style="fill:#000000; fill-opacity:1.0; 
stroke:#000000; stroke-width:0; stroke-opacity:1; 
stroke-linecap:round; stroke-linejoin:round;">
<circle cx="95930" cy="17250" r="177.165" /> 
</g>
<g style="fill:#000000; fill-opacity:1.0; 
stroke:#000000; stroke-width:39.3701; stroke-opacity:1; 
stroke-linecap:round; stroke-linejoin:round;">
</g>
<g style="fill:#000000; fill-opacity:1.0; 
stroke:#000000; stroke-width:0; stroke-opacity:1; 
stroke-linecap:round; stroke-linejoin:round;">
<circle cx="104930" cy="23500" r="177.165" /> 
</g>
<g style="fill:#000000; fill-opacity:1.0; 
stroke:#000000; stroke-width:39.3701; stroke-opacity:1; 
stroke-linecap:round; stroke-linejoin:round;">
</g>
<g style="fill:#000000; fill-opacity:1.0; 
stroke:#000000; stroke-width:0; stroke-opacity:1; 
stroke-linecap:round; stroke-linejoin:round;">
<circle cx="104930" cy="22500" r="177.165" /> 
</g>
<g style="fill:#000000; fill-opacity:1.0; 
stroke:#000000; stroke-width:39.3701; stroke-opacity:1; 
stroke-linecap:round; stroke-linejoin:round;">
</g>
<g style="fill:#000000; fill-opacity:1.0; 
stroke:#000000; stroke-width:0; stroke-opacity:1; 
stroke-linecap:round; stroke-linejoin:round;">
<circle cx="106180" cy="17250" r="177.165" /> 
</g>
<g style="fill:#000000; fill-opacity:1.0; 
stroke:#000000; stroke-width:39.3701; stroke-opacity:1; 
stroke-linecap:round; stroke-linejoin:round;">
</g>
<g style="fill:#000000; fill-opacity:1.0; 
stroke:#000000; stroke-width:0; stroke-opacity:1; 
stroke-linecap:round; stroke-linejoin:round;">
<circle cx="106180" cy="15281.5" r="177.165" /> 
</g>
<g style="fill:#000000; fill-opacity:1.0; 
stroke:#000000; stroke-width:39.3701; stroke-opacity:1; 
stroke-linecap:round; stroke-linejoin:round;">
</g>
<g style="fill:#000000; fill-opacity:1.0; 
stroke:#000000; stroke-width:0; stroke-opacity:1; 
stroke-linecap:round; stroke-linejoin:round;">
<circle cx="87930" cy="21500" r="177.165" /> 
</g>
<g style="fill:#000000; fill-opacity:1.0; 
stroke:#000000; stroke-width:39.3701; stroke-opacity:1; 
stroke-linecap:round; stroke-linejoin:round;">
</g>
<g style="fill:#000000; fill-opacity:1.0; 
stroke:#000000; stroke-width:0; stroke-opacity:1; 
stroke-linecap:round; stroke-linejoin:round;">
<circle cx="98180" cy="13250" r="177.165" /> 
</g>
<g style="fill:#000000; fill-opacity:1.0; 
stroke:#000000; stroke-width:39.3701; stroke-opacity:1; 
stroke-linecap:round; stroke-linejoin:round;">
</g>
<g style="fill:#000000; fill-opacity:1.0; 
stroke:#000000; stroke-width:0; stroke-opacity:1; 
stroke-linecap:round; stroke-linejoin:round;">
<circle cx="101180" cy="13250" r="177.165" /> 
</g>
<g style="fill:#000000; fill-opacity:1.0; 
stroke:#000000; stroke-width:39.3701; stroke-opacity:1; 
stroke-linecap:round; stroke-linejoin:round;">
</g>
<g style="fill:#000000; fill-opacity:1.0; 
stroke:#000000; stroke-width:0; stroke-opacity:1; 
stroke-linecap:round; stroke-linejoin:round;">
<circle cx="92930" cy="15250" r="177.165" /> 
</g>
<g style="fill:#000000; fill-opacity:1.0; 
stroke:#000000; stroke-width:39.3701; stroke-opacity:1; 
stroke-linecap:round; stroke-linejoin:round;">
</g>
<g style="fill:#000000; fill-opacity:1.0; 
stroke:#000000; stroke-width:0; stroke-opacity:1; 
stroke-linecap:round; stroke-linejoin:round;">
<circle cx="95930" cy="15250" r="177.165" /> 
</g>
<g style="fill:#000000; fill-opacity:1.0; 
stroke:#000000; stroke-width:39.3701; stroke-opacity:1; 
stroke-linecap:round; stroke-linejoin:round;">
</g>
<g style="fill:#000000; fill-opacity:1.0; 
stroke:#000000; stroke-width:0; stroke-opacity:1; 
stroke-linecap:round; stroke-linejoin:round;">
<circle cx="92930" cy="11250" r="177.165" /> 
</g>
<g style="fill:#000000; fill-opacity:1.0; 
stroke:#000000; stroke-width:39.3701; stroke-opacity:1; 
stroke-linecap:round; stroke-linejoin:round;">
</g>
<g style="fill:#000000; fill-opacity:1.0; 
stroke:#000000; stroke-width:0; stroke-opacity:1; 
stroke-linecap:round; stroke-linejoin:round;">
<circle cx="95930" cy="11250" r="177.165" /> 
</g>
<g style="fill:#000000; fill-opacity:1.0; 
stroke:#000000; stroke-width:39.3701; stroke-opacity:1; 
stroke-linecap:round; stroke-linejoin:round;">
</g>
<g style="fill:#000000; fill-opacity:1.0; 
stroke:#000000; stroke-width:0; stroke-opacity:1; 
stroke-linecap:round; stroke-linejoin:round;">
<circle cx="95930" cy="13250" r="177.165" /> 
</g>
<g style="fill:#000000; fill-opacity:1.0; 
stroke:#000000; stroke-width:39.3701; stroke-opacity:1; 
stroke-linecap:round; stroke-linejoin:round;">
</g>
<g style="fill:#000000; fill-opacity:1.0; 
stroke:#000000; stroke-width:0; stroke-opacity:1; 
stroke-linecap:round; stroke-linejoin:round;">
<circle cx="92930" cy="13250" r="177.165" /> 
</g>
<g style="fill:#000000; fill-opacity:1.0; 
stroke:#000000; stroke-width:39.3701; stroke-opacity:1; 
stroke-linecap:round; stroke-linejoin:round;">
</g>
<g style="fill:#000000; fill-opacity:1.0; 
stroke:#000000; stroke-width:0; stroke-opacity:1; 
stroke-linecap:round; stroke-linejoin:round;">
<circle cx="95930" cy="19250" r="177.165" /> 
</g>
<g style="fill:#000000; fill-opacity:1.0; 
stroke:#000000; stroke-width:39.3701; stroke-opacity:1; 
stroke-linecap:round; stroke-linejoin:round;">
</g>
<g style="fill:#000000; fill-opacity:1.0; 
stroke:#000000; stroke-width:0; stroke-opacity:1; 
stroke-linecap:round; stroke-linejoin:round;">
<circle cx="92930" cy="19250" r="177.165" /> 
</g>
<g style="fill:#000000; fill-opacity:1.0; 
stroke:#000000; stroke-width:39.3701; stroke-opacity:1; 
stroke-linecap:round; stroke-linejoin:round;">
</g>
<g style="fill:#000000; fill-opacity:1.0; 
stroke:#000000; stroke-width:0; stroke-opacity:1; 
stroke-linecap:round; stroke-linejoin:round;">
<circle cx="95930" cy="23250" r="177.165" /> 
</g>
<g style="fill:#000000; fill-opacity:1.0; 
stroke:#000000; stroke-width:39.3701; stroke-opacity:1; 
stroke-linecap:round; stroke-linejoin:round;">
</g>
<g style="fill:#000000; fill-opacity:1.0; 
stroke:#000000; stroke-width:0; stroke-opacity:1; 
stroke-linecap:round; stroke-linejoin:round;">
<circle cx="92930" cy="23250" r="177.165" /> 
</g>
<g style="fill:#000000; fill-opacity:1.0; 
stroke:#000000; stroke-width:39.3701; stroke-opacity:1; 
stroke-linecap:round; stroke-linejoin:round;">
</g>
<g style="fill:#000000; fill-opacity:1.0; 
stroke:#000000; stroke-width:0; stroke-opacity:1; 
stroke-linecap:round; stroke-linejoin:round;">
<circle cx="95930" cy="21250" r="177.165" /> 
</g>
<g style="fill:#000000; fill-opacity:1.0; 
stroke:#000000; stroke-width:39.3701; stroke-opacity:1; 
stroke-linecap:round; stroke-linejoin:round;">
</g>
<g style="fill:#000000; fill-opacity:1.0; 
stroke:#000000; stroke-width:0; stroke-opacity:1; 
stroke-linecap:round; stroke-linejoin:round;">
<circle cx="92930" cy="21250" r="177.165" /> 
</g>
<g style="fill:#000000; fill-opacity:1.0; 
stroke:#000000; stroke-width:39.3701; stroke-opacity:1; 
stroke-linecap:round; stroke-linejoin:round;">
</g>
<g style="fill:#000000; fill-opacity:1.0; 
stroke:#000000; stroke-width:0; stroke-opacity:1; 
stroke-linecap:round; stroke-linejoin:round;">
<circle cx="98180" cy="23250" r="177.165" /> 
</g>
<g style="fill:#000000; fill-opacity:1.0; 
stroke:#000000; stroke-width:39.3701; stroke-opacity:1; 
stroke-linecap:round; stroke-linejoin:round;">
</g>
<g style="fill:#000000; fill-opacity:1.0; 
stroke:#000000; stroke-width:0; stroke-opacity:1; 
stroke-linecap:round; stroke-linejoin:round;">
<circle cx="101180" cy="23250" r="177.165" /> 
</g>
<g style="fill:#000000; fill-opacity:1.0; 
stroke:#000000; stroke-width:39.3701; stroke-opacity:1; 
stroke-linecap:round; stroke-linejoin:round;">
</g>
<g style="fill:#000000; fill-opacity:1.0; 
stroke:#000000; stroke-width:0; stroke-opacity:1; 
stroke-linecap:round; stroke-linejoin:round;">
<circle cx="104680" cy="19500" r="177.165" /> 
</g>
<g style="fill:#000000; fill-opacity:1.0; 
stroke:#000000; stroke-width:39.3701; stroke-opacity:1; 
stroke-linecap:round; stroke-linejoin:round;">
</g>
<g style="fill:#000000; fill-opacity:1.0; 
stroke:#000000; stroke-width:0; stroke-opacity:1; 
stroke-linecap:round; stroke-linejoin:round;">
<circle cx="107680" cy="19500" r="177.165" /> 
</g>
<g style="fill:#000000; fill-opacity:1.0; 
stroke:#000000; stroke-width:39.3701; stroke-opacity:1; 
stroke-linecap:round; stroke-linejoin:round;">
</g>
<g style="fill:#FFFFFF; fill-opacity:1.0; 
stroke:#FFFFFF; stroke-width:39.3701; stroke-opacity:1; 
stroke-linecap:round; stroke-linejoin:round;">
</g> 
</svg>
