G04 #@! TF.GenerationSoftware,KiCad,Pcbnew,(5.0.2)-1*
G04 #@! TF.CreationDate,2019-04-09T19:56:11-03:00*
G04 #@! TF.ProjectId,ponta-de-prova-logica-simplificada,706f6e74-612d-4646-952d-70726f76612d,03*
G04 #@! TF.SameCoordinates,Original*
G04 #@! TF.FileFunction,Soldermask,Bot*
G04 #@! TF.FilePolarity,Negative*
%FSLAX46Y46*%
G04 Gerber Fmt 4.6, Leading zero omitted, Abs format (unit mm)*
G04 Created by KiCad (PCBNEW (5.0.2)-1) date 09-04-2019 19:56:11*
%MOMM*%
%LPD*%
G01*
G04 APERTURE LIST*
%ADD10C,0.100000*%
G04 APERTURE END LIST*
D10*
X20320000Y-64135000D02*
G75*
G02X17780000Y-61595000I0J2540000D01*
G01*
X83820000Y-61595000D02*
G75*
G02X81280000Y-64135000I-2540000J0D01*
G01*
X81280000Y-18415000D02*
G75*
G02X83820000Y-20955000I0J-2540000D01*
G01*
X17780000Y-20955000D02*
G75*
G02X20320000Y-18415000I2540000J0D01*
G01*
X20320000Y-64135000D02*
X81280000Y-64135000D01*
X17780000Y-20955000D02*
X17780000Y-61595000D01*
X81280000Y-18415000D02*
X20320000Y-18415000D01*
X83820000Y-61595000D02*
X83820000Y-20955000D01*
G36*
X64945770Y-60610372D02*
X65061689Y-60633429D01*
X65243678Y-60708811D01*
X65407463Y-60818249D01*
X65546751Y-60957537D01*
X65656189Y-61121322D01*
X65731571Y-61303311D01*
X65770000Y-61496509D01*
X65770000Y-61693491D01*
X65731571Y-61886689D01*
X65656189Y-62068678D01*
X65546751Y-62232463D01*
X65407463Y-62371751D01*
X65243678Y-62481189D01*
X65061689Y-62556571D01*
X64945770Y-62579628D01*
X64868493Y-62595000D01*
X64671507Y-62595000D01*
X64594230Y-62579628D01*
X64478311Y-62556571D01*
X64296322Y-62481189D01*
X64132537Y-62371751D01*
X63993249Y-62232463D01*
X63883811Y-62068678D01*
X63808429Y-61886689D01*
X63770000Y-61693491D01*
X63770000Y-61496509D01*
X63808429Y-61303311D01*
X63883811Y-61121322D01*
X63993249Y-60957537D01*
X64132537Y-60818249D01*
X64296322Y-60708811D01*
X64478311Y-60633429D01*
X64594230Y-60610372D01*
X64671507Y-60595000D01*
X64868493Y-60595000D01*
X64945770Y-60610372D01*
X64945770Y-60610372D01*
G37*
G36*
X20495770Y-60610372D02*
X20611689Y-60633429D01*
X20793678Y-60708811D01*
X20957463Y-60818249D01*
X21096751Y-60957537D01*
X21206189Y-61121322D01*
X21281571Y-61303311D01*
X21320000Y-61496509D01*
X21320000Y-61693491D01*
X21281571Y-61886689D01*
X21206189Y-62068678D01*
X21096751Y-62232463D01*
X20957463Y-62371751D01*
X20793678Y-62481189D01*
X20611689Y-62556571D01*
X20495770Y-62579628D01*
X20418493Y-62595000D01*
X20221507Y-62595000D01*
X20144230Y-62579628D01*
X20028311Y-62556571D01*
X19846322Y-62481189D01*
X19682537Y-62371751D01*
X19543249Y-62232463D01*
X19433811Y-62068678D01*
X19358429Y-61886689D01*
X19320000Y-61693491D01*
X19320000Y-61496509D01*
X19358429Y-61303311D01*
X19433811Y-61121322D01*
X19543249Y-60957537D01*
X19682537Y-60818249D01*
X19846322Y-60708811D01*
X20028311Y-60633429D01*
X20144230Y-60610372D01*
X20221507Y-60595000D01*
X20418493Y-60595000D01*
X20495770Y-60610372D01*
X20495770Y-60610372D01*
G37*
G36*
X24826030Y-58704469D02*
X24826033Y-58704470D01*
X24826034Y-58704470D01*
X25014535Y-58761651D01*
X25014537Y-58761652D01*
X25188260Y-58854509D01*
X25340528Y-58979472D01*
X25465491Y-59131740D01*
X25465492Y-59131742D01*
X25558349Y-59305465D01*
X25599019Y-59439537D01*
X25615531Y-59493970D01*
X25634838Y-59690000D01*
X25615531Y-59886030D01*
X25615530Y-59886033D01*
X25615530Y-59886034D01*
X25564275Y-60055000D01*
X25558348Y-60074537D01*
X25465491Y-60248260D01*
X25340528Y-60400528D01*
X25188260Y-60525491D01*
X25188258Y-60525492D01*
X25014535Y-60618349D01*
X24826034Y-60675530D01*
X24826033Y-60675530D01*
X24826030Y-60675531D01*
X24679124Y-60690000D01*
X23580876Y-60690000D01*
X23433970Y-60675531D01*
X23433967Y-60675530D01*
X23433966Y-60675530D01*
X23245465Y-60618349D01*
X23071742Y-60525492D01*
X23071740Y-60525491D01*
X22919472Y-60400528D01*
X22794509Y-60248260D01*
X22701652Y-60074537D01*
X22695726Y-60055000D01*
X22644470Y-59886034D01*
X22644470Y-59886033D01*
X22644469Y-59886030D01*
X22625162Y-59690000D01*
X22644469Y-59493970D01*
X22660981Y-59439537D01*
X22701651Y-59305465D01*
X22794508Y-59131742D01*
X22794509Y-59131740D01*
X22919472Y-58979472D01*
X23071740Y-58854509D01*
X23245463Y-58761652D01*
X23245465Y-58761651D01*
X23433966Y-58704470D01*
X23433967Y-58704470D01*
X23433970Y-58704469D01*
X23580876Y-58690000D01*
X24679124Y-58690000D01*
X24826030Y-58704469D01*
X24826030Y-58704469D01*
G37*
G36*
X31176030Y-58704469D02*
X31176033Y-58704470D01*
X31176034Y-58704470D01*
X31364535Y-58761651D01*
X31364537Y-58761652D01*
X31538260Y-58854509D01*
X31690528Y-58979472D01*
X31815491Y-59131740D01*
X31815492Y-59131742D01*
X31908349Y-59305465D01*
X31949019Y-59439537D01*
X31965531Y-59493970D01*
X31984838Y-59690000D01*
X31965531Y-59886030D01*
X31965530Y-59886033D01*
X31965530Y-59886034D01*
X31914275Y-60055000D01*
X31908348Y-60074537D01*
X31815491Y-60248260D01*
X31690528Y-60400528D01*
X31538260Y-60525491D01*
X31538258Y-60525492D01*
X31364535Y-60618349D01*
X31176034Y-60675530D01*
X31176033Y-60675530D01*
X31176030Y-60675531D01*
X31029124Y-60690000D01*
X29930876Y-60690000D01*
X29783970Y-60675531D01*
X29783967Y-60675530D01*
X29783966Y-60675530D01*
X29595465Y-60618349D01*
X29421742Y-60525492D01*
X29421740Y-60525491D01*
X29269472Y-60400528D01*
X29144509Y-60248260D01*
X29051652Y-60074537D01*
X29045726Y-60055000D01*
X28994470Y-59886034D01*
X28994470Y-59886033D01*
X28994469Y-59886030D01*
X28975162Y-59690000D01*
X28994469Y-59493970D01*
X29010981Y-59439537D01*
X29051651Y-59305465D01*
X29144508Y-59131742D01*
X29144509Y-59131740D01*
X29269472Y-58979472D01*
X29421740Y-58854509D01*
X29595463Y-58761652D01*
X29595465Y-58761651D01*
X29783966Y-58704470D01*
X29783967Y-58704470D01*
X29783970Y-58704469D01*
X29930876Y-58690000D01*
X31029124Y-58690000D01*
X31176030Y-58704469D01*
X31176030Y-58704469D01*
G37*
G36*
X54036030Y-58069469D02*
X54036033Y-58069470D01*
X54036034Y-58069470D01*
X54224535Y-58126651D01*
X54224537Y-58126652D01*
X54398260Y-58219509D01*
X54550528Y-58344472D01*
X54675491Y-58496740D01*
X54675492Y-58496742D01*
X54768349Y-58670465D01*
X54824178Y-58854509D01*
X54825531Y-58858970D01*
X54844838Y-59055000D01*
X54825531Y-59251030D01*
X54825530Y-59251033D01*
X54825530Y-59251034D01*
X54809019Y-59305465D01*
X54768348Y-59439537D01*
X54675491Y-59613260D01*
X54550528Y-59765528D01*
X54398260Y-59890491D01*
X54398258Y-59890492D01*
X54224535Y-59983349D01*
X54036034Y-60040530D01*
X54036033Y-60040530D01*
X54036030Y-60040531D01*
X53889124Y-60055000D01*
X52790876Y-60055000D01*
X52643970Y-60040531D01*
X52643967Y-60040530D01*
X52643966Y-60040530D01*
X52455465Y-59983349D01*
X52281742Y-59890492D01*
X52281740Y-59890491D01*
X52129472Y-59765528D01*
X52004509Y-59613260D01*
X51911652Y-59439537D01*
X51870982Y-59305465D01*
X51854470Y-59251034D01*
X51854470Y-59251033D01*
X51854469Y-59251030D01*
X51835162Y-59055000D01*
X51854469Y-58858970D01*
X51855822Y-58854509D01*
X51911651Y-58670465D01*
X52004508Y-58496742D01*
X52004509Y-58496740D01*
X52129472Y-58344472D01*
X52281740Y-58219509D01*
X52455463Y-58126652D01*
X52455465Y-58126651D01*
X52643966Y-58069470D01*
X52643967Y-58069470D01*
X52643970Y-58069469D01*
X52790876Y-58055000D01*
X53889124Y-58055000D01*
X54036030Y-58069469D01*
X54036030Y-58069469D01*
G37*
G36*
X61656030Y-58069469D02*
X61656033Y-58069470D01*
X61656034Y-58069470D01*
X61844535Y-58126651D01*
X61844537Y-58126652D01*
X62018260Y-58219509D01*
X62170528Y-58344472D01*
X62295491Y-58496740D01*
X62295492Y-58496742D01*
X62388349Y-58670465D01*
X62444178Y-58854509D01*
X62445531Y-58858970D01*
X62464838Y-59055000D01*
X62445531Y-59251030D01*
X62445530Y-59251033D01*
X62445530Y-59251034D01*
X62429019Y-59305465D01*
X62388348Y-59439537D01*
X62295491Y-59613260D01*
X62170528Y-59765528D01*
X62018260Y-59890491D01*
X62018258Y-59890492D01*
X61844535Y-59983349D01*
X61656034Y-60040530D01*
X61656033Y-60040530D01*
X61656030Y-60040531D01*
X61509124Y-60055000D01*
X60410876Y-60055000D01*
X60263970Y-60040531D01*
X60263967Y-60040530D01*
X60263966Y-60040530D01*
X60075465Y-59983349D01*
X59901742Y-59890492D01*
X59901740Y-59890491D01*
X59749472Y-59765528D01*
X59624509Y-59613260D01*
X59531652Y-59439537D01*
X59490982Y-59305465D01*
X59474470Y-59251034D01*
X59474470Y-59251033D01*
X59474469Y-59251030D01*
X59455162Y-59055000D01*
X59474469Y-58858970D01*
X59475822Y-58854509D01*
X59531651Y-58670465D01*
X59624508Y-58496742D01*
X59624509Y-58496740D01*
X59749472Y-58344472D01*
X59901740Y-58219509D01*
X60075463Y-58126652D01*
X60075465Y-58126651D01*
X60263966Y-58069470D01*
X60263967Y-58069470D01*
X60263970Y-58069469D01*
X60410876Y-58055000D01*
X61509124Y-58055000D01*
X61656030Y-58069469D01*
X61656030Y-58069469D01*
G37*
G36*
X48321030Y-58069469D02*
X48321033Y-58069470D01*
X48321034Y-58069470D01*
X48509535Y-58126651D01*
X48509537Y-58126652D01*
X48683260Y-58219509D01*
X48835528Y-58344472D01*
X48960491Y-58496740D01*
X48960492Y-58496742D01*
X49053349Y-58670465D01*
X49109178Y-58854509D01*
X49110531Y-58858970D01*
X49129838Y-59055000D01*
X49110531Y-59251030D01*
X49110530Y-59251033D01*
X49110530Y-59251034D01*
X49094019Y-59305465D01*
X49053348Y-59439537D01*
X48960491Y-59613260D01*
X48835528Y-59765528D01*
X48683260Y-59890491D01*
X48683258Y-59890492D01*
X48509535Y-59983349D01*
X48321034Y-60040530D01*
X48321033Y-60040530D01*
X48321030Y-60040531D01*
X48174124Y-60055000D01*
X47075876Y-60055000D01*
X46928970Y-60040531D01*
X46928967Y-60040530D01*
X46928966Y-60040530D01*
X46740465Y-59983349D01*
X46566742Y-59890492D01*
X46566740Y-59890491D01*
X46414472Y-59765528D01*
X46289509Y-59613260D01*
X46196652Y-59439537D01*
X46155982Y-59305465D01*
X46139470Y-59251034D01*
X46139470Y-59251033D01*
X46139469Y-59251030D01*
X46120162Y-59055000D01*
X46139469Y-58858970D01*
X46140822Y-58854509D01*
X46196651Y-58670465D01*
X46289508Y-58496742D01*
X46289509Y-58496740D01*
X46414472Y-58344472D01*
X46566740Y-58219509D01*
X46740463Y-58126652D01*
X46740465Y-58126651D01*
X46928966Y-58069470D01*
X46928967Y-58069470D01*
X46928970Y-58069469D01*
X47075876Y-58055000D01*
X48174124Y-58055000D01*
X48321030Y-58069469D01*
X48321030Y-58069469D01*
G37*
G36*
X40701030Y-58069469D02*
X40701033Y-58069470D01*
X40701034Y-58069470D01*
X40889535Y-58126651D01*
X40889537Y-58126652D01*
X41063260Y-58219509D01*
X41215528Y-58344472D01*
X41340491Y-58496740D01*
X41340492Y-58496742D01*
X41433349Y-58670465D01*
X41489178Y-58854509D01*
X41490531Y-58858970D01*
X41509838Y-59055000D01*
X41490531Y-59251030D01*
X41490530Y-59251033D01*
X41490530Y-59251034D01*
X41474019Y-59305465D01*
X41433348Y-59439537D01*
X41340491Y-59613260D01*
X41215528Y-59765528D01*
X41063260Y-59890491D01*
X41063258Y-59890492D01*
X40889535Y-59983349D01*
X40701034Y-60040530D01*
X40701033Y-60040530D01*
X40701030Y-60040531D01*
X40554124Y-60055000D01*
X39455876Y-60055000D01*
X39308970Y-60040531D01*
X39308967Y-60040530D01*
X39308966Y-60040530D01*
X39120465Y-59983349D01*
X38946742Y-59890492D01*
X38946740Y-59890491D01*
X38794472Y-59765528D01*
X38669509Y-59613260D01*
X38576652Y-59439537D01*
X38535982Y-59305465D01*
X38519470Y-59251034D01*
X38519470Y-59251033D01*
X38519469Y-59251030D01*
X38500162Y-59055000D01*
X38519469Y-58858970D01*
X38520822Y-58854509D01*
X38576651Y-58670465D01*
X38669508Y-58496742D01*
X38669509Y-58496740D01*
X38794472Y-58344472D01*
X38946740Y-58219509D01*
X39120463Y-58126652D01*
X39120465Y-58126651D01*
X39308966Y-58069470D01*
X39308967Y-58069470D01*
X39308970Y-58069469D01*
X39455876Y-58055000D01*
X40554124Y-58055000D01*
X40701030Y-58069469D01*
X40701030Y-58069469D01*
G37*
G36*
X25130000Y-58150000D02*
X23130000Y-58150000D01*
X23130000Y-56150000D01*
X25130000Y-56150000D01*
X25130000Y-58150000D01*
X25130000Y-58150000D01*
G37*
G36*
X31480000Y-58150000D02*
X29480000Y-58150000D01*
X29480000Y-56150000D01*
X31480000Y-56150000D01*
X31480000Y-58150000D01*
X31480000Y-58150000D01*
G37*
G36*
X54036030Y-52989469D02*
X54036033Y-52989470D01*
X54036034Y-52989470D01*
X54224535Y-53046651D01*
X54224537Y-53046652D01*
X54398260Y-53139509D01*
X54550528Y-53264472D01*
X54675491Y-53416740D01*
X54739253Y-53536030D01*
X54768349Y-53590465D01*
X54809019Y-53724537D01*
X54825531Y-53778970D01*
X54844838Y-53975000D01*
X54825531Y-54171030D01*
X54825530Y-54171033D01*
X54825530Y-54171034D01*
X54774275Y-54340000D01*
X54768348Y-54359537D01*
X54675491Y-54533260D01*
X54550528Y-54685528D01*
X54398260Y-54810491D01*
X54398258Y-54810492D01*
X54224535Y-54903349D01*
X54036034Y-54960530D01*
X54036033Y-54960530D01*
X54036030Y-54960531D01*
X53889124Y-54975000D01*
X52790876Y-54975000D01*
X52643970Y-54960531D01*
X52643967Y-54960530D01*
X52643966Y-54960530D01*
X52455465Y-54903349D01*
X52281742Y-54810492D01*
X52281740Y-54810491D01*
X52129472Y-54685528D01*
X52004509Y-54533260D01*
X51911652Y-54359537D01*
X51905726Y-54340000D01*
X51854470Y-54171034D01*
X51854470Y-54171033D01*
X51854469Y-54171030D01*
X51835162Y-53975000D01*
X51854469Y-53778970D01*
X51870981Y-53724537D01*
X51911651Y-53590465D01*
X51940747Y-53536030D01*
X52004509Y-53416740D01*
X52129472Y-53264472D01*
X52281740Y-53139509D01*
X52455463Y-53046652D01*
X52455465Y-53046651D01*
X52643966Y-52989470D01*
X52643967Y-52989470D01*
X52643970Y-52989469D01*
X52790876Y-52975000D01*
X53889124Y-52975000D01*
X54036030Y-52989469D01*
X54036030Y-52989469D01*
G37*
G36*
X61656030Y-52989469D02*
X61656033Y-52989470D01*
X61656034Y-52989470D01*
X61844535Y-53046651D01*
X61844537Y-53046652D01*
X62018260Y-53139509D01*
X62170528Y-53264472D01*
X62295491Y-53416740D01*
X62359253Y-53536030D01*
X62388349Y-53590465D01*
X62429019Y-53724537D01*
X62445531Y-53778970D01*
X62464838Y-53975000D01*
X62445531Y-54171030D01*
X62445530Y-54171033D01*
X62445530Y-54171034D01*
X62394275Y-54340000D01*
X62388348Y-54359537D01*
X62295491Y-54533260D01*
X62170528Y-54685528D01*
X62018260Y-54810491D01*
X62018258Y-54810492D01*
X61844535Y-54903349D01*
X61656034Y-54960530D01*
X61656033Y-54960530D01*
X61656030Y-54960531D01*
X61509124Y-54975000D01*
X60410876Y-54975000D01*
X60263970Y-54960531D01*
X60263967Y-54960530D01*
X60263966Y-54960530D01*
X60075465Y-54903349D01*
X59901742Y-54810492D01*
X59901740Y-54810491D01*
X59749472Y-54685528D01*
X59624509Y-54533260D01*
X59531652Y-54359537D01*
X59525726Y-54340000D01*
X59474470Y-54171034D01*
X59474470Y-54171033D01*
X59474469Y-54171030D01*
X59455162Y-53975000D01*
X59474469Y-53778970D01*
X59490981Y-53724537D01*
X59531651Y-53590465D01*
X59560747Y-53536030D01*
X59624509Y-53416740D01*
X59749472Y-53264472D01*
X59901740Y-53139509D01*
X60075463Y-53046652D01*
X60075465Y-53046651D01*
X60263966Y-52989470D01*
X60263967Y-52989470D01*
X60263970Y-52989469D01*
X60410876Y-52975000D01*
X61509124Y-52975000D01*
X61656030Y-52989469D01*
X61656030Y-52989469D01*
G37*
G36*
X65061538Y-53013919D02*
X65243437Y-53089264D01*
X65407141Y-53198648D01*
X65546352Y-53337859D01*
X65655736Y-53501563D01*
X65731081Y-53683462D01*
X65769490Y-53876557D01*
X65769490Y-54073443D01*
X65731081Y-54266538D01*
X65655736Y-54448437D01*
X65546352Y-54612141D01*
X65407141Y-54751352D01*
X65243437Y-54860736D01*
X65061538Y-54936081D01*
X64868443Y-54974490D01*
X64671557Y-54974490D01*
X64478462Y-54936081D01*
X64296563Y-54860736D01*
X64132859Y-54751352D01*
X63993648Y-54612141D01*
X63884264Y-54448437D01*
X63808919Y-54266538D01*
X63770510Y-54073443D01*
X63770510Y-53876557D01*
X63808919Y-53683462D01*
X63884264Y-53501563D01*
X63993648Y-53337859D01*
X64132859Y-53198648D01*
X64296563Y-53089264D01*
X64478462Y-53013919D01*
X64671557Y-52975510D01*
X64868443Y-52975510D01*
X65061538Y-53013919D01*
X65061538Y-53013919D01*
G37*
G36*
X24191030Y-52354469D02*
X24191033Y-52354470D01*
X24191034Y-52354470D01*
X24379535Y-52411651D01*
X24379537Y-52411652D01*
X24553260Y-52504509D01*
X24705528Y-52629472D01*
X24830491Y-52781740D01*
X24830492Y-52781742D01*
X24923349Y-52955465D01*
X24979178Y-53139509D01*
X24980531Y-53143970D01*
X24999838Y-53340000D01*
X24980531Y-53536030D01*
X24980530Y-53536033D01*
X24980530Y-53536034D01*
X24964019Y-53590465D01*
X24923348Y-53724537D01*
X24830491Y-53898260D01*
X24705528Y-54050528D01*
X24553260Y-54175491D01*
X24379537Y-54268348D01*
X24379535Y-54268349D01*
X24191034Y-54325530D01*
X24191033Y-54325530D01*
X24191030Y-54325531D01*
X24044124Y-54340000D01*
X22945876Y-54340000D01*
X22798970Y-54325531D01*
X22798967Y-54325530D01*
X22798966Y-54325530D01*
X22610465Y-54268349D01*
X22610463Y-54268348D01*
X22436740Y-54175491D01*
X22284472Y-54050528D01*
X22159509Y-53898260D01*
X22066652Y-53724537D01*
X22025982Y-53590465D01*
X22009470Y-53536034D01*
X22009470Y-53536033D01*
X22009469Y-53536030D01*
X21990162Y-53340000D01*
X22009469Y-53143970D01*
X22010822Y-53139509D01*
X22066651Y-52955465D01*
X22159508Y-52781742D01*
X22159509Y-52781740D01*
X22284472Y-52629472D01*
X22436740Y-52504509D01*
X22610463Y-52411652D01*
X22610465Y-52411651D01*
X22798966Y-52354470D01*
X22798967Y-52354470D01*
X22798970Y-52354469D01*
X22945876Y-52340000D01*
X24044124Y-52340000D01*
X24191030Y-52354469D01*
X24191030Y-52354469D01*
G37*
G36*
X31811030Y-52354469D02*
X31811033Y-52354470D01*
X31811034Y-52354470D01*
X31999535Y-52411651D01*
X31999537Y-52411652D01*
X32173260Y-52504509D01*
X32325528Y-52629472D01*
X32450491Y-52781740D01*
X32450492Y-52781742D01*
X32543349Y-52955465D01*
X32599178Y-53139509D01*
X32600531Y-53143970D01*
X32619838Y-53340000D01*
X32600531Y-53536030D01*
X32600530Y-53536033D01*
X32600530Y-53536034D01*
X32584019Y-53590465D01*
X32543348Y-53724537D01*
X32450491Y-53898260D01*
X32325528Y-54050528D01*
X32173260Y-54175491D01*
X31999537Y-54268348D01*
X31999535Y-54268349D01*
X31811034Y-54325530D01*
X31811033Y-54325530D01*
X31811030Y-54325531D01*
X31664124Y-54340000D01*
X30565876Y-54340000D01*
X30418970Y-54325531D01*
X30418967Y-54325530D01*
X30418966Y-54325530D01*
X30230465Y-54268349D01*
X30230463Y-54268348D01*
X30056740Y-54175491D01*
X29904472Y-54050528D01*
X29779509Y-53898260D01*
X29686652Y-53724537D01*
X29645982Y-53590465D01*
X29629470Y-53536034D01*
X29629470Y-53536033D01*
X29629469Y-53536030D01*
X29610162Y-53340000D01*
X29629469Y-53143970D01*
X29630822Y-53139509D01*
X29686651Y-52955465D01*
X29779508Y-52781742D01*
X29779509Y-52781740D01*
X29904472Y-52629472D01*
X30056740Y-52504509D01*
X30230463Y-52411652D01*
X30230465Y-52411651D01*
X30418966Y-52354470D01*
X30418967Y-52354470D01*
X30418970Y-52354469D01*
X30565876Y-52340000D01*
X31664124Y-52340000D01*
X31811030Y-52354469D01*
X31811030Y-52354469D01*
G37*
G36*
X40822649Y-52547717D02*
X40861827Y-52551576D01*
X40937228Y-52574449D01*
X41012629Y-52597321D01*
X41151608Y-52671608D01*
X41273422Y-52771578D01*
X41373392Y-52893392D01*
X41447679Y-53032371D01*
X41493424Y-53183174D01*
X41508870Y-53340000D01*
X41493424Y-53496826D01*
X41447679Y-53647629D01*
X41373392Y-53786608D01*
X41273422Y-53908422D01*
X41151608Y-54008392D01*
X41012629Y-54082679D01*
X40937228Y-54105551D01*
X40861827Y-54128424D01*
X40822649Y-54132283D01*
X40744295Y-54140000D01*
X39265705Y-54140000D01*
X39187351Y-54132283D01*
X39148173Y-54128424D01*
X39072772Y-54105551D01*
X38997371Y-54082679D01*
X38858392Y-54008392D01*
X38736578Y-53908422D01*
X38636608Y-53786608D01*
X38562321Y-53647629D01*
X38516576Y-53496826D01*
X38501130Y-53340000D01*
X38516576Y-53183174D01*
X38562321Y-53032371D01*
X38636608Y-52893392D01*
X38736578Y-52771578D01*
X38858392Y-52671608D01*
X38997371Y-52597321D01*
X39072772Y-52574449D01*
X39148173Y-52551576D01*
X39187351Y-52547717D01*
X39265705Y-52540000D01*
X40744295Y-52540000D01*
X40822649Y-52547717D01*
X40822649Y-52547717D01*
G37*
G36*
X49125000Y-54140000D02*
X46125000Y-54140000D01*
X46125000Y-52540000D01*
X49125000Y-52540000D01*
X49125000Y-54140000D01*
X49125000Y-54140000D01*
G37*
G36*
X36351826Y-50581576D02*
X36427227Y-50604449D01*
X36502628Y-50627321D01*
X36641604Y-50701606D01*
X36641606Y-50701607D01*
X36641605Y-50701607D01*
X36763422Y-50801578D01*
X36763423Y-50801580D01*
X36763425Y-50801581D01*
X36863392Y-50923392D01*
X36937679Y-51062371D01*
X36983424Y-51213174D01*
X36995000Y-51330705D01*
X36995000Y-52809295D01*
X36983424Y-52926826D01*
X36937679Y-53077629D01*
X36863392Y-53216608D01*
X36763422Y-53338422D01*
X36641608Y-53438392D01*
X36502629Y-53512679D01*
X36427227Y-53535552D01*
X36351827Y-53558424D01*
X36195000Y-53573870D01*
X36038174Y-53558424D01*
X35962774Y-53535552D01*
X35887372Y-53512679D01*
X35748393Y-53438392D01*
X35626579Y-53338422D01*
X35526609Y-53216608D01*
X35452322Y-53077629D01*
X35406577Y-52926826D01*
X35395001Y-52809295D01*
X35395000Y-51330706D01*
X35406576Y-51213175D01*
X35406577Y-51213173D01*
X35452321Y-51062373D01*
X35452321Y-51062372D01*
X35526606Y-50923396D01*
X35626576Y-50801581D01*
X35626578Y-50801578D01*
X35626580Y-50801577D01*
X35626581Y-50801575D01*
X35748392Y-50701608D01*
X35887371Y-50627321D01*
X35962772Y-50604449D01*
X36038173Y-50581576D01*
X36195000Y-50566130D01*
X36351826Y-50581576D01*
X36351826Y-50581576D01*
G37*
G36*
X40822649Y-50007717D02*
X40861827Y-50011576D01*
X40937228Y-50034449D01*
X41012629Y-50057321D01*
X41151608Y-50131608D01*
X41273422Y-50231578D01*
X41373392Y-50353392D01*
X41447679Y-50492371D01*
X41493424Y-50643174D01*
X41508870Y-50800000D01*
X41493424Y-50956826D01*
X41447679Y-51107629D01*
X41373392Y-51246608D01*
X41273422Y-51368422D01*
X41151608Y-51468392D01*
X41012629Y-51542679D01*
X40937227Y-51565552D01*
X40861827Y-51588424D01*
X40822649Y-51592283D01*
X40744295Y-51600000D01*
X39265705Y-51600000D01*
X39187351Y-51592283D01*
X39148173Y-51588424D01*
X39072773Y-51565552D01*
X38997371Y-51542679D01*
X38858392Y-51468392D01*
X38736578Y-51368422D01*
X38636608Y-51246608D01*
X38562321Y-51107629D01*
X38516576Y-50956826D01*
X38501130Y-50800000D01*
X38516576Y-50643174D01*
X38562321Y-50492371D01*
X38636608Y-50353392D01*
X38736578Y-50231578D01*
X38858392Y-50131608D01*
X38997371Y-50057321D01*
X39072772Y-50034449D01*
X39148173Y-50011576D01*
X39187351Y-50007717D01*
X39265705Y-50000000D01*
X40744295Y-50000000D01*
X40822649Y-50007717D01*
X40822649Y-50007717D01*
G37*
G36*
X48442649Y-50007717D02*
X48481827Y-50011576D01*
X48557228Y-50034449D01*
X48632629Y-50057321D01*
X48771608Y-50131608D01*
X48893422Y-50231578D01*
X48993392Y-50353392D01*
X49067679Y-50492371D01*
X49113424Y-50643174D01*
X49128870Y-50800000D01*
X49113424Y-50956826D01*
X49067679Y-51107629D01*
X48993392Y-51246608D01*
X48893422Y-51368422D01*
X48771608Y-51468392D01*
X48632629Y-51542679D01*
X48557227Y-51565552D01*
X48481827Y-51588424D01*
X48442649Y-51592283D01*
X48364295Y-51600000D01*
X46885705Y-51600000D01*
X46807351Y-51592283D01*
X46768173Y-51588424D01*
X46692773Y-51565552D01*
X46617371Y-51542679D01*
X46478392Y-51468392D01*
X46356578Y-51368422D01*
X46256608Y-51246608D01*
X46182321Y-51107629D01*
X46136576Y-50956826D01*
X46121130Y-50800000D01*
X46136576Y-50643174D01*
X46182321Y-50492371D01*
X46256608Y-50353392D01*
X46356578Y-50231578D01*
X46478392Y-50131608D01*
X46617371Y-50057321D01*
X46692772Y-50034449D01*
X46768173Y-50011576D01*
X46807351Y-50007717D01*
X46885705Y-50000000D01*
X48364295Y-50000000D01*
X48442649Y-50007717D01*
X48442649Y-50007717D01*
G37*
G36*
X31811030Y-48544469D02*
X31811033Y-48544470D01*
X31811034Y-48544470D01*
X31999535Y-48601651D01*
X31999537Y-48601652D01*
X32173260Y-48694509D01*
X32325528Y-48819472D01*
X32450491Y-48971740D01*
X32497667Y-49060000D01*
X32543349Y-49145465D01*
X32584019Y-49279537D01*
X32600531Y-49333970D01*
X32619838Y-49530000D01*
X32600531Y-49726030D01*
X32600530Y-49726033D01*
X32600530Y-49726034D01*
X32549275Y-49895000D01*
X32543348Y-49914537D01*
X32450491Y-50088260D01*
X32325528Y-50240528D01*
X32173260Y-50365491D01*
X32173258Y-50365492D01*
X31999535Y-50458349D01*
X31811034Y-50515530D01*
X31811033Y-50515530D01*
X31811030Y-50515531D01*
X31664124Y-50530000D01*
X30565876Y-50530000D01*
X30418970Y-50515531D01*
X30418967Y-50515530D01*
X30418966Y-50515530D01*
X30230465Y-50458349D01*
X30056742Y-50365492D01*
X30056740Y-50365491D01*
X29904472Y-50240528D01*
X29779509Y-50088260D01*
X29686652Y-49914537D01*
X29680726Y-49895000D01*
X29629470Y-49726034D01*
X29629470Y-49726033D01*
X29629469Y-49726030D01*
X29610162Y-49530000D01*
X29629469Y-49333970D01*
X29645981Y-49279537D01*
X29686651Y-49145465D01*
X29732333Y-49060000D01*
X29779509Y-48971740D01*
X29904472Y-48819472D01*
X30056740Y-48694509D01*
X30230463Y-48601652D01*
X30230465Y-48601651D01*
X30418966Y-48544470D01*
X30418967Y-48544470D01*
X30418970Y-48544469D01*
X30565876Y-48530000D01*
X31664124Y-48530000D01*
X31811030Y-48544469D01*
X31811030Y-48544469D01*
G37*
G36*
X24191030Y-48544469D02*
X24191033Y-48544470D01*
X24191034Y-48544470D01*
X24379535Y-48601651D01*
X24379537Y-48601652D01*
X24553260Y-48694509D01*
X24705528Y-48819472D01*
X24830491Y-48971740D01*
X24877667Y-49060000D01*
X24923349Y-49145465D01*
X24964019Y-49279537D01*
X24980531Y-49333970D01*
X24999838Y-49530000D01*
X24980531Y-49726030D01*
X24980530Y-49726033D01*
X24980530Y-49726034D01*
X24929275Y-49895000D01*
X24923348Y-49914537D01*
X24830491Y-50088260D01*
X24705528Y-50240528D01*
X24553260Y-50365491D01*
X24553258Y-50365492D01*
X24379535Y-50458349D01*
X24191034Y-50515530D01*
X24191033Y-50515530D01*
X24191030Y-50515531D01*
X24044124Y-50530000D01*
X22945876Y-50530000D01*
X22798970Y-50515531D01*
X22798967Y-50515530D01*
X22798966Y-50515530D01*
X22610465Y-50458349D01*
X22436742Y-50365492D01*
X22436740Y-50365491D01*
X22284472Y-50240528D01*
X22159509Y-50088260D01*
X22066652Y-49914537D01*
X22060726Y-49895000D01*
X22009470Y-49726034D01*
X22009470Y-49726033D01*
X22009469Y-49726030D01*
X21990162Y-49530000D01*
X22009469Y-49333970D01*
X22025981Y-49279537D01*
X22066651Y-49145465D01*
X22112333Y-49060000D01*
X22159509Y-48971740D01*
X22284472Y-48819472D01*
X22436740Y-48694509D01*
X22610463Y-48601652D01*
X22610465Y-48601651D01*
X22798966Y-48544470D01*
X22798967Y-48544470D01*
X22798970Y-48544469D01*
X22945876Y-48530000D01*
X24044124Y-48530000D01*
X24191030Y-48544469D01*
X24191030Y-48544469D01*
G37*
G36*
X61656030Y-47909469D02*
X61656033Y-47909470D01*
X61656034Y-47909470D01*
X61844535Y-47966651D01*
X61844537Y-47966652D01*
X62018260Y-48059509D01*
X62170528Y-48184472D01*
X62295491Y-48336740D01*
X62295492Y-48336742D01*
X62388349Y-48510465D01*
X62444178Y-48694509D01*
X62445531Y-48698970D01*
X62464838Y-48895000D01*
X62445531Y-49091030D01*
X62445530Y-49091033D01*
X62445530Y-49091034D01*
X62429019Y-49145465D01*
X62388348Y-49279537D01*
X62295491Y-49453260D01*
X62170528Y-49605528D01*
X62018260Y-49730491D01*
X62018258Y-49730492D01*
X61844535Y-49823349D01*
X61656034Y-49880530D01*
X61656033Y-49880530D01*
X61656030Y-49880531D01*
X61509124Y-49895000D01*
X60410876Y-49895000D01*
X60263970Y-49880531D01*
X60263967Y-49880530D01*
X60263966Y-49880530D01*
X60075465Y-49823349D01*
X59901742Y-49730492D01*
X59901740Y-49730491D01*
X59749472Y-49605528D01*
X59624509Y-49453260D01*
X59531652Y-49279537D01*
X59490982Y-49145465D01*
X59474470Y-49091034D01*
X59474470Y-49091033D01*
X59474469Y-49091030D01*
X59455162Y-48895000D01*
X59474469Y-48698970D01*
X59475822Y-48694509D01*
X59531651Y-48510465D01*
X59624508Y-48336742D01*
X59624509Y-48336740D01*
X59749472Y-48184472D01*
X59901740Y-48059509D01*
X60075463Y-47966652D01*
X60075465Y-47966651D01*
X60263966Y-47909470D01*
X60263967Y-47909470D01*
X60263970Y-47909469D01*
X60410876Y-47895000D01*
X61509124Y-47895000D01*
X61656030Y-47909469D01*
X61656030Y-47909469D01*
G37*
G36*
X54036030Y-47909469D02*
X54036033Y-47909470D01*
X54036034Y-47909470D01*
X54224535Y-47966651D01*
X54224537Y-47966652D01*
X54398260Y-48059509D01*
X54550528Y-48184472D01*
X54675491Y-48336740D01*
X54675492Y-48336742D01*
X54768349Y-48510465D01*
X54824178Y-48694509D01*
X54825531Y-48698970D01*
X54844838Y-48895000D01*
X54825531Y-49091030D01*
X54825530Y-49091033D01*
X54825530Y-49091034D01*
X54809019Y-49145465D01*
X54768348Y-49279537D01*
X54675491Y-49453260D01*
X54550528Y-49605528D01*
X54398260Y-49730491D01*
X54398258Y-49730492D01*
X54224535Y-49823349D01*
X54036034Y-49880530D01*
X54036033Y-49880530D01*
X54036030Y-49880531D01*
X53889124Y-49895000D01*
X52790876Y-49895000D01*
X52643970Y-49880531D01*
X52643967Y-49880530D01*
X52643966Y-49880530D01*
X52455465Y-49823349D01*
X52281742Y-49730492D01*
X52281740Y-49730491D01*
X52129472Y-49605528D01*
X52004509Y-49453260D01*
X51911652Y-49279537D01*
X51870982Y-49145465D01*
X51854470Y-49091034D01*
X51854470Y-49091033D01*
X51854469Y-49091030D01*
X51835162Y-48895000D01*
X51854469Y-48698970D01*
X51855822Y-48694509D01*
X51911651Y-48510465D01*
X52004508Y-48336742D01*
X52004509Y-48336740D01*
X52129472Y-48184472D01*
X52281740Y-48059509D01*
X52455463Y-47966652D01*
X52455465Y-47966651D01*
X52643966Y-47909470D01*
X52643967Y-47909470D01*
X52643970Y-47909469D01*
X52790876Y-47895000D01*
X53889124Y-47895000D01*
X54036030Y-47909469D01*
X54036030Y-47909469D01*
G37*
G36*
X48442649Y-47467717D02*
X48481827Y-47471576D01*
X48557227Y-47494448D01*
X48632629Y-47517321D01*
X48771608Y-47591608D01*
X48893422Y-47691578D01*
X48993392Y-47813392D01*
X49067679Y-47952371D01*
X49113424Y-48103174D01*
X49128870Y-48260000D01*
X49113424Y-48416826D01*
X49067679Y-48567629D01*
X48993392Y-48706608D01*
X48893422Y-48828422D01*
X48771608Y-48928392D01*
X48632629Y-49002679D01*
X48557227Y-49025552D01*
X48481827Y-49048424D01*
X48442649Y-49052283D01*
X48364295Y-49060000D01*
X46885705Y-49060000D01*
X46807351Y-49052283D01*
X46768173Y-49048424D01*
X46692773Y-49025552D01*
X46617371Y-49002679D01*
X46478392Y-48928392D01*
X46356578Y-48828422D01*
X46256608Y-48706608D01*
X46182321Y-48567629D01*
X46136576Y-48416826D01*
X46121130Y-48260000D01*
X46136576Y-48103174D01*
X46182321Y-47952371D01*
X46256608Y-47813392D01*
X46356578Y-47691578D01*
X46478392Y-47591608D01*
X46617371Y-47517321D01*
X46692773Y-47494448D01*
X46768173Y-47471576D01*
X46807351Y-47467717D01*
X46885705Y-47460000D01*
X48364295Y-47460000D01*
X48442649Y-47467717D01*
X48442649Y-47467717D01*
G37*
G36*
X40822649Y-47467717D02*
X40861827Y-47471576D01*
X40937227Y-47494448D01*
X41012629Y-47517321D01*
X41151608Y-47591608D01*
X41273422Y-47691578D01*
X41373392Y-47813392D01*
X41447679Y-47952371D01*
X41493424Y-48103174D01*
X41508870Y-48260000D01*
X41493424Y-48416826D01*
X41447679Y-48567629D01*
X41373392Y-48706608D01*
X41273422Y-48828422D01*
X41151608Y-48928392D01*
X41012629Y-49002679D01*
X40937227Y-49025552D01*
X40861827Y-49048424D01*
X40822649Y-49052283D01*
X40744295Y-49060000D01*
X39265705Y-49060000D01*
X39187351Y-49052283D01*
X39148173Y-49048424D01*
X39072773Y-49025552D01*
X38997371Y-49002679D01*
X38858392Y-48928392D01*
X38736578Y-48828422D01*
X38636608Y-48706608D01*
X38562321Y-48567629D01*
X38516576Y-48416826D01*
X38501130Y-48260000D01*
X38516576Y-48103174D01*
X38562321Y-47952371D01*
X38636608Y-47813392D01*
X38736578Y-47691578D01*
X38858392Y-47591608D01*
X38997371Y-47517321D01*
X39072773Y-47494448D01*
X39148173Y-47471576D01*
X39187351Y-47467717D01*
X39265705Y-47460000D01*
X40744295Y-47460000D01*
X40822649Y-47467717D01*
X40822649Y-47467717D01*
G37*
G36*
X36351826Y-45581576D02*
X36427226Y-45604448D01*
X36502628Y-45627321D01*
X36641604Y-45701606D01*
X36641606Y-45701607D01*
X36641605Y-45701607D01*
X36763422Y-45801578D01*
X36763423Y-45801580D01*
X36763425Y-45801581D01*
X36863392Y-45923392D01*
X36937679Y-46062371D01*
X36960551Y-46137772D01*
X36983424Y-46213173D01*
X36995000Y-46330707D01*
X36995000Y-47809293D01*
X36983424Y-47926827D01*
X36971343Y-47966652D01*
X36937679Y-48077629D01*
X36863392Y-48216608D01*
X36763422Y-48338422D01*
X36641608Y-48438392D01*
X36502629Y-48512679D01*
X36427228Y-48535551D01*
X36351827Y-48558424D01*
X36195000Y-48573870D01*
X36038174Y-48558424D01*
X35962773Y-48535551D01*
X35887372Y-48512679D01*
X35748393Y-48438392D01*
X35626579Y-48338422D01*
X35526609Y-48216608D01*
X35452322Y-48077629D01*
X35418658Y-47966652D01*
X35406577Y-47926827D01*
X35395001Y-47809293D01*
X35395000Y-46330708D01*
X35406576Y-46213174D01*
X35452321Y-46062373D01*
X35452321Y-46062372D01*
X35526606Y-45923396D01*
X35626576Y-45801581D01*
X35626578Y-45801578D01*
X35626580Y-45801577D01*
X35626581Y-45801575D01*
X35748392Y-45701608D01*
X35887371Y-45627321D01*
X35962773Y-45604448D01*
X36038173Y-45581576D01*
X36195000Y-45566130D01*
X36351826Y-45581576D01*
X36351826Y-45581576D01*
G37*
G36*
X48442649Y-44927717D02*
X48481827Y-44931576D01*
X48557228Y-44954449D01*
X48632629Y-44977321D01*
X48771608Y-45051608D01*
X48893422Y-45151578D01*
X48993392Y-45273392D01*
X49067679Y-45412371D01*
X49067679Y-45412372D01*
X49113424Y-45563173D01*
X49119742Y-45627321D01*
X49128870Y-45720000D01*
X49113424Y-45876826D01*
X49067679Y-46027629D01*
X48993392Y-46166608D01*
X48893422Y-46288422D01*
X48771608Y-46388392D01*
X48632629Y-46462679D01*
X48557228Y-46485551D01*
X48481827Y-46508424D01*
X48442649Y-46512283D01*
X48364295Y-46520000D01*
X46885705Y-46520000D01*
X46807351Y-46512283D01*
X46768173Y-46508424D01*
X46692772Y-46485551D01*
X46617371Y-46462679D01*
X46478392Y-46388392D01*
X46356578Y-46288422D01*
X46256608Y-46166608D01*
X46182321Y-46027629D01*
X46136576Y-45876826D01*
X46121130Y-45720000D01*
X46130258Y-45627321D01*
X46136576Y-45563173D01*
X46182321Y-45412372D01*
X46182321Y-45412371D01*
X46256608Y-45273392D01*
X46356578Y-45151578D01*
X46478392Y-45051608D01*
X46617371Y-44977321D01*
X46692772Y-44954449D01*
X46768173Y-44931576D01*
X46807351Y-44927717D01*
X46885705Y-44920000D01*
X48364295Y-44920000D01*
X48442649Y-44927717D01*
X48442649Y-44927717D01*
G37*
G36*
X40822649Y-44927717D02*
X40861827Y-44931576D01*
X40937228Y-44954449D01*
X41012629Y-44977321D01*
X41151608Y-45051608D01*
X41273422Y-45151578D01*
X41373392Y-45273392D01*
X41447679Y-45412371D01*
X41447679Y-45412372D01*
X41493424Y-45563173D01*
X41499742Y-45627321D01*
X41508870Y-45720000D01*
X41493424Y-45876826D01*
X41447679Y-46027629D01*
X41373392Y-46166608D01*
X41273422Y-46288422D01*
X41151608Y-46388392D01*
X41012629Y-46462679D01*
X40937228Y-46485551D01*
X40861827Y-46508424D01*
X40822649Y-46512283D01*
X40744295Y-46520000D01*
X39265705Y-46520000D01*
X39187351Y-46512283D01*
X39148173Y-46508424D01*
X39072772Y-46485551D01*
X38997371Y-46462679D01*
X38858392Y-46388392D01*
X38736578Y-46288422D01*
X38636608Y-46166608D01*
X38562321Y-46027629D01*
X38516576Y-45876826D01*
X38501130Y-45720000D01*
X38510258Y-45627321D01*
X38516576Y-45563173D01*
X38562321Y-45412372D01*
X38562321Y-45412371D01*
X38636608Y-45273392D01*
X38736578Y-45151578D01*
X38858392Y-45051608D01*
X38997371Y-44977321D01*
X39072772Y-44954449D01*
X39148173Y-44931576D01*
X39187351Y-44927717D01*
X39265705Y-44920000D01*
X40744295Y-44920000D01*
X40822649Y-44927717D01*
X40822649Y-44927717D01*
G37*
G36*
X54036030Y-42829469D02*
X54036033Y-42829470D01*
X54036034Y-42829470D01*
X54224535Y-42886651D01*
X54224537Y-42886652D01*
X54398260Y-42979509D01*
X54550528Y-43104472D01*
X54675491Y-43256740D01*
X54768348Y-43430463D01*
X54825531Y-43618970D01*
X54844838Y-43815000D01*
X54825531Y-44011030D01*
X54825530Y-44011033D01*
X54825530Y-44011034D01*
X54796229Y-44107628D01*
X54768348Y-44199537D01*
X54675491Y-44373260D01*
X54550528Y-44525528D01*
X54398260Y-44650491D01*
X54398258Y-44650492D01*
X54224535Y-44743349D01*
X54036034Y-44800530D01*
X54036033Y-44800530D01*
X54036030Y-44800531D01*
X53889124Y-44815000D01*
X52790876Y-44815000D01*
X52643970Y-44800531D01*
X52643967Y-44800530D01*
X52643966Y-44800530D01*
X52455465Y-44743349D01*
X52281742Y-44650492D01*
X52281740Y-44650491D01*
X52129472Y-44525528D01*
X52004509Y-44373260D01*
X51911652Y-44199537D01*
X51883772Y-44107628D01*
X51854470Y-44011034D01*
X51854470Y-44011033D01*
X51854469Y-44011030D01*
X51835162Y-43815000D01*
X51854469Y-43618970D01*
X51911652Y-43430463D01*
X52004509Y-43256740D01*
X52129472Y-43104472D01*
X52281740Y-42979509D01*
X52455463Y-42886652D01*
X52455465Y-42886651D01*
X52643966Y-42829470D01*
X52643967Y-42829470D01*
X52643970Y-42829469D01*
X52790876Y-42815000D01*
X53889124Y-42815000D01*
X54036030Y-42829469D01*
X54036030Y-42829469D01*
G37*
G36*
X61656030Y-42829469D02*
X61656033Y-42829470D01*
X61656034Y-42829470D01*
X61844535Y-42886651D01*
X61844537Y-42886652D01*
X62018260Y-42979509D01*
X62170528Y-43104472D01*
X62295491Y-43256740D01*
X62388348Y-43430463D01*
X62445531Y-43618970D01*
X62464838Y-43815000D01*
X62445531Y-44011030D01*
X62445530Y-44011033D01*
X62445530Y-44011034D01*
X62416229Y-44107628D01*
X62388348Y-44199537D01*
X62295491Y-44373260D01*
X62170528Y-44525528D01*
X62018260Y-44650491D01*
X62018258Y-44650492D01*
X61844535Y-44743349D01*
X61656034Y-44800530D01*
X61656033Y-44800530D01*
X61656030Y-44800531D01*
X61509124Y-44815000D01*
X60410876Y-44815000D01*
X60263970Y-44800531D01*
X60263967Y-44800530D01*
X60263966Y-44800530D01*
X60075465Y-44743349D01*
X59901742Y-44650492D01*
X59901740Y-44650491D01*
X59749472Y-44525528D01*
X59624509Y-44373260D01*
X59531652Y-44199537D01*
X59503772Y-44107628D01*
X59474470Y-44011034D01*
X59474470Y-44011033D01*
X59474469Y-44011030D01*
X59455162Y-43815000D01*
X59474469Y-43618970D01*
X59531652Y-43430463D01*
X59624509Y-43256740D01*
X59749472Y-43104472D01*
X59901740Y-42979509D01*
X60075463Y-42886652D01*
X60075465Y-42886651D01*
X60263966Y-42829470D01*
X60263967Y-42829470D01*
X60263970Y-42829469D01*
X60410876Y-42815000D01*
X61509124Y-42815000D01*
X61656030Y-42829469D01*
X61656030Y-42829469D01*
G37*
G36*
X29285000Y-44805000D02*
X25325000Y-44805000D01*
X25325000Y-42825000D01*
X29285000Y-42825000D01*
X29285000Y-44805000D01*
X29285000Y-44805000D01*
G37*
G36*
X36351827Y-41611576D02*
X36427227Y-41634448D01*
X36502629Y-41657321D01*
X36641608Y-41731608D01*
X36763422Y-41831578D01*
X36863392Y-41953392D01*
X36937679Y-42092371D01*
X36937679Y-42092372D01*
X36983424Y-42243173D01*
X36995000Y-42360707D01*
X36995000Y-43839293D01*
X36983424Y-43956827D01*
X36966982Y-44011030D01*
X36937679Y-44107629D01*
X36863392Y-44246608D01*
X36763425Y-44368419D01*
X36763423Y-44368420D01*
X36763422Y-44368422D01*
X36672059Y-44443400D01*
X36641604Y-44468394D01*
X36502628Y-44542679D01*
X36427226Y-44565552D01*
X36351826Y-44588424D01*
X36195000Y-44603870D01*
X36038173Y-44588424D01*
X35962773Y-44565552D01*
X35887371Y-44542679D01*
X35748392Y-44468392D01*
X35626581Y-44368425D01*
X35626580Y-44368423D01*
X35626578Y-44368422D01*
X35526607Y-44246605D01*
X35452322Y-44107629D01*
X35452321Y-44107628D01*
X35410094Y-43968424D01*
X35406576Y-43956826D01*
X35395000Y-43839292D01*
X35395001Y-42360707D01*
X35406577Y-42243173D01*
X35452322Y-42092372D01*
X35452322Y-42092371D01*
X35526609Y-41953392D01*
X35626579Y-41831578D01*
X35748393Y-41731608D01*
X35887372Y-41657321D01*
X35962774Y-41634448D01*
X36038174Y-41611576D01*
X36195000Y-41596130D01*
X36351827Y-41611576D01*
X36351827Y-41611576D01*
G37*
G36*
X40822649Y-42387717D02*
X40861827Y-42391576D01*
X40937227Y-42414448D01*
X41012629Y-42437321D01*
X41151608Y-42511608D01*
X41273422Y-42611578D01*
X41373392Y-42733392D01*
X41447679Y-42872371D01*
X41493424Y-43023174D01*
X41508870Y-43180000D01*
X41493424Y-43336826D01*
X41447679Y-43487629D01*
X41373392Y-43626608D01*
X41273422Y-43748422D01*
X41151608Y-43848392D01*
X41012629Y-43922679D01*
X40937227Y-43945552D01*
X40861827Y-43968424D01*
X40822649Y-43972283D01*
X40744295Y-43980000D01*
X39265705Y-43980000D01*
X39187351Y-43972283D01*
X39148173Y-43968424D01*
X39072773Y-43945552D01*
X38997371Y-43922679D01*
X38858392Y-43848392D01*
X38736578Y-43748422D01*
X38636608Y-43626608D01*
X38562321Y-43487629D01*
X38516576Y-43336826D01*
X38501130Y-43180000D01*
X38516576Y-43023174D01*
X38562321Y-42872371D01*
X38636608Y-42733392D01*
X38736578Y-42611578D01*
X38858392Y-42511608D01*
X38997371Y-42437321D01*
X39072773Y-42414448D01*
X39148173Y-42391576D01*
X39187351Y-42387717D01*
X39265705Y-42380000D01*
X40744295Y-42380000D01*
X40822649Y-42387717D01*
X40822649Y-42387717D01*
G37*
G36*
X48442649Y-42387717D02*
X48481827Y-42391576D01*
X48557227Y-42414448D01*
X48632629Y-42437321D01*
X48771608Y-42511608D01*
X48893422Y-42611578D01*
X48993392Y-42733392D01*
X49067679Y-42872371D01*
X49113424Y-43023174D01*
X49128870Y-43180000D01*
X49113424Y-43336826D01*
X49067679Y-43487629D01*
X48993392Y-43626608D01*
X48893422Y-43748422D01*
X48771608Y-43848392D01*
X48632629Y-43922679D01*
X48557227Y-43945552D01*
X48481827Y-43968424D01*
X48442649Y-43972283D01*
X48364295Y-43980000D01*
X46885705Y-43980000D01*
X46807351Y-43972283D01*
X46768173Y-43968424D01*
X46692773Y-43945552D01*
X46617371Y-43922679D01*
X46478392Y-43848392D01*
X46356578Y-43748422D01*
X46256608Y-43626608D01*
X46182321Y-43487629D01*
X46136576Y-43336826D01*
X46121130Y-43180000D01*
X46136576Y-43023174D01*
X46182321Y-42872371D01*
X46256608Y-42733392D01*
X46356578Y-42611578D01*
X46478392Y-42511608D01*
X46617371Y-42437321D01*
X46692773Y-42414448D01*
X46768173Y-42391576D01*
X46807351Y-42387717D01*
X46885705Y-42380000D01*
X48364295Y-42380000D01*
X48442649Y-42387717D01*
X48442649Y-42387717D01*
G37*
G36*
X67258378Y-39732859D02*
X67622354Y-39883622D01*
X67949929Y-40102501D01*
X68228499Y-40381071D01*
X68447378Y-40708646D01*
X68598141Y-41072622D01*
X68675000Y-41459016D01*
X68675000Y-41852984D01*
X68598141Y-42239378D01*
X68447378Y-42603354D01*
X68228499Y-42930929D01*
X67949929Y-43209499D01*
X67622354Y-43428378D01*
X67258378Y-43579141D01*
X66871984Y-43656000D01*
X66478016Y-43656000D01*
X66091622Y-43579141D01*
X65727646Y-43428378D01*
X65400071Y-43209499D01*
X65121501Y-42930929D01*
X64902622Y-42603354D01*
X64751859Y-42239378D01*
X64675000Y-41852984D01*
X64675000Y-41459016D01*
X64751859Y-41072622D01*
X64902622Y-40708646D01*
X65121501Y-40381071D01*
X65400071Y-40102501D01*
X65727646Y-39883622D01*
X66091622Y-39732859D01*
X66478016Y-39656000D01*
X66871984Y-39656000D01*
X67258378Y-39732859D01*
X67258378Y-39732859D01*
G37*
G36*
X81228378Y-39732859D02*
X81592354Y-39883622D01*
X81919929Y-40102501D01*
X82198499Y-40381071D01*
X82417378Y-40708646D01*
X82568141Y-41072622D01*
X82645000Y-41459016D01*
X82645000Y-41852984D01*
X82568141Y-42239378D01*
X82417378Y-42603354D01*
X82198499Y-42930929D01*
X81919929Y-43209499D01*
X81592354Y-43428378D01*
X81228378Y-43579141D01*
X80841984Y-43656000D01*
X80448016Y-43656000D01*
X80061622Y-43579141D01*
X79697646Y-43428378D01*
X79370071Y-43209499D01*
X79091501Y-42930929D01*
X78872622Y-42603354D01*
X78721859Y-42239378D01*
X78645000Y-41852984D01*
X78645000Y-41459016D01*
X78721859Y-41072622D01*
X78872622Y-40708646D01*
X79091501Y-40381071D01*
X79370071Y-40102501D01*
X79697646Y-39883622D01*
X80061622Y-39732859D01*
X80448016Y-39656000D01*
X80841984Y-39656000D01*
X81228378Y-39732859D01*
X81228378Y-39732859D01*
G37*
G36*
X48442649Y-39847717D02*
X48481827Y-39851576D01*
X48557228Y-39874449D01*
X48632629Y-39897321D01*
X48771608Y-39971608D01*
X48893422Y-40071578D01*
X48993392Y-40193392D01*
X49067679Y-40332371D01*
X49113424Y-40483174D01*
X49128870Y-40640000D01*
X49113424Y-40796826D01*
X49067679Y-40947629D01*
X48993392Y-41086608D01*
X48893422Y-41208422D01*
X48771608Y-41308392D01*
X48632629Y-41382679D01*
X48557227Y-41405552D01*
X48481827Y-41428424D01*
X48442649Y-41432283D01*
X48364295Y-41440000D01*
X46885705Y-41440000D01*
X46807351Y-41432283D01*
X46768173Y-41428424D01*
X46692773Y-41405552D01*
X46617371Y-41382679D01*
X46478392Y-41308392D01*
X46356578Y-41208422D01*
X46256608Y-41086608D01*
X46182321Y-40947629D01*
X46136576Y-40796826D01*
X46121130Y-40640000D01*
X46136576Y-40483174D01*
X46182321Y-40332371D01*
X46256608Y-40193392D01*
X46356578Y-40071578D01*
X46478392Y-39971608D01*
X46617371Y-39897321D01*
X46692772Y-39874449D01*
X46768173Y-39851576D01*
X46807351Y-39847717D01*
X46885705Y-39840000D01*
X48364295Y-39840000D01*
X48442649Y-39847717D01*
X48442649Y-39847717D01*
G37*
G36*
X40822649Y-39847717D02*
X40861827Y-39851576D01*
X40937228Y-39874449D01*
X41012629Y-39897321D01*
X41151608Y-39971608D01*
X41273422Y-40071578D01*
X41373392Y-40193392D01*
X41447679Y-40332371D01*
X41493424Y-40483174D01*
X41508870Y-40640000D01*
X41493424Y-40796826D01*
X41447679Y-40947629D01*
X41373392Y-41086608D01*
X41273422Y-41208422D01*
X41151608Y-41308392D01*
X41012629Y-41382679D01*
X40937227Y-41405552D01*
X40861827Y-41428424D01*
X40822649Y-41432283D01*
X40744295Y-41440000D01*
X39265705Y-41440000D01*
X39187351Y-41432283D01*
X39148173Y-41428424D01*
X39072773Y-41405552D01*
X38997371Y-41382679D01*
X38858392Y-41308392D01*
X38736578Y-41208422D01*
X38636608Y-41086608D01*
X38562321Y-40947629D01*
X38516576Y-40796826D01*
X38501130Y-40640000D01*
X38516576Y-40483174D01*
X38562321Y-40332371D01*
X38636608Y-40193392D01*
X38736578Y-40071578D01*
X38858392Y-39971608D01*
X38997371Y-39897321D01*
X39072772Y-39874449D01*
X39148173Y-39851576D01*
X39187351Y-39847717D01*
X39265705Y-39840000D01*
X40744295Y-39840000D01*
X40822649Y-39847717D01*
X40822649Y-39847717D01*
G37*
G36*
X28489070Y-37839324D02*
X28489073Y-37839325D01*
X28489074Y-37839325D01*
X28675690Y-37895934D01*
X28847676Y-37987862D01*
X28998423Y-38111577D01*
X29122138Y-38262324D01*
X29199804Y-38407628D01*
X29214065Y-38434308D01*
X29270676Y-38620930D01*
X29289790Y-38815000D01*
X29270676Y-39009070D01*
X29270675Y-39009073D01*
X29270675Y-39009074D01*
X29214066Y-39195690D01*
X29122138Y-39367676D01*
X28998423Y-39518423D01*
X28847676Y-39642138D01*
X28675690Y-39734066D01*
X28489074Y-39790675D01*
X28489073Y-39790675D01*
X28489070Y-39790676D01*
X28343636Y-39805000D01*
X26266364Y-39805000D01*
X26120930Y-39790676D01*
X26120927Y-39790675D01*
X26120926Y-39790675D01*
X25934310Y-39734066D01*
X25762324Y-39642138D01*
X25611577Y-39518423D01*
X25487862Y-39367676D01*
X25395934Y-39195690D01*
X25339325Y-39009074D01*
X25339325Y-39009073D01*
X25339324Y-39009070D01*
X25320210Y-38815000D01*
X25339324Y-38620930D01*
X25395935Y-38434308D01*
X25410196Y-38407628D01*
X25487862Y-38262324D01*
X25611577Y-38111577D01*
X25762324Y-37987862D01*
X25934310Y-37895934D01*
X26120926Y-37839325D01*
X26120927Y-37839325D01*
X26120930Y-37839324D01*
X26266364Y-37825000D01*
X28343636Y-37825000D01*
X28489070Y-37839324D01*
X28489070Y-37839324D01*
G37*
G36*
X54036030Y-37749469D02*
X54036033Y-37749470D01*
X54036034Y-37749470D01*
X54224535Y-37806651D01*
X54224537Y-37806652D01*
X54398260Y-37899509D01*
X54550528Y-38024472D01*
X54675491Y-38176740D01*
X54768348Y-38350463D01*
X54825531Y-38538970D01*
X54844838Y-38735000D01*
X54825531Y-38931030D01*
X54825530Y-38931033D01*
X54825530Y-38931034D01*
X54771961Y-39107629D01*
X54768348Y-39119537D01*
X54675491Y-39293260D01*
X54550528Y-39445528D01*
X54398260Y-39570491D01*
X54398258Y-39570492D01*
X54224535Y-39663349D01*
X54036034Y-39720530D01*
X54036033Y-39720530D01*
X54036030Y-39720531D01*
X53889124Y-39735000D01*
X52790876Y-39735000D01*
X52643970Y-39720531D01*
X52643967Y-39720530D01*
X52643966Y-39720530D01*
X52455465Y-39663349D01*
X52281742Y-39570492D01*
X52281740Y-39570491D01*
X52129472Y-39445528D01*
X52004509Y-39293260D01*
X51911652Y-39119537D01*
X51908040Y-39107629D01*
X51854470Y-38931034D01*
X51854470Y-38931033D01*
X51854469Y-38931030D01*
X51835162Y-38735000D01*
X51854469Y-38538970D01*
X51911652Y-38350463D01*
X52004509Y-38176740D01*
X52129472Y-38024472D01*
X52281740Y-37899509D01*
X52455463Y-37806652D01*
X52455465Y-37806651D01*
X52643966Y-37749470D01*
X52643967Y-37749470D01*
X52643970Y-37749469D01*
X52790876Y-37735000D01*
X53889124Y-37735000D01*
X54036030Y-37749469D01*
X54036030Y-37749469D01*
G37*
G36*
X61656030Y-37749469D02*
X61656033Y-37749470D01*
X61656034Y-37749470D01*
X61844535Y-37806651D01*
X61844537Y-37806652D01*
X62018260Y-37899509D01*
X62170528Y-38024472D01*
X62295491Y-38176740D01*
X62388348Y-38350463D01*
X62445531Y-38538970D01*
X62464838Y-38735000D01*
X62445531Y-38931030D01*
X62445530Y-38931033D01*
X62445530Y-38931034D01*
X62391961Y-39107629D01*
X62388348Y-39119537D01*
X62295491Y-39293260D01*
X62170528Y-39445528D01*
X62018260Y-39570491D01*
X62018258Y-39570492D01*
X61844535Y-39663349D01*
X61656034Y-39720530D01*
X61656033Y-39720530D01*
X61656030Y-39720531D01*
X61509124Y-39735000D01*
X60410876Y-39735000D01*
X60263970Y-39720531D01*
X60263967Y-39720530D01*
X60263966Y-39720530D01*
X60075465Y-39663349D01*
X59901742Y-39570492D01*
X59901740Y-39570491D01*
X59749472Y-39445528D01*
X59624509Y-39293260D01*
X59531652Y-39119537D01*
X59528040Y-39107629D01*
X59474470Y-38931034D01*
X59474470Y-38931033D01*
X59474469Y-38931030D01*
X59455162Y-38735000D01*
X59474469Y-38538970D01*
X59531652Y-38350463D01*
X59624509Y-38176740D01*
X59749472Y-38024472D01*
X59901740Y-37899509D01*
X60075463Y-37806652D01*
X60075465Y-37806651D01*
X60263966Y-37749470D01*
X60263967Y-37749470D01*
X60263970Y-37749469D01*
X60410876Y-37735000D01*
X61509124Y-37735000D01*
X61656030Y-37749469D01*
X61656030Y-37749469D01*
G37*
G36*
X36351827Y-36611576D02*
X36427228Y-36634449D01*
X36502629Y-36657321D01*
X36641608Y-36731608D01*
X36763422Y-36831578D01*
X36863392Y-36953392D01*
X36937679Y-37092371D01*
X36983424Y-37243174D01*
X36995000Y-37360705D01*
X36995000Y-38839295D01*
X36983424Y-38956826D01*
X36937679Y-39107629D01*
X36863392Y-39246608D01*
X36763425Y-39368419D01*
X36763423Y-39368420D01*
X36763422Y-39368422D01*
X36763418Y-39368425D01*
X36641604Y-39468394D01*
X36502628Y-39542679D01*
X36427226Y-39565552D01*
X36351826Y-39588424D01*
X36195000Y-39603870D01*
X36038173Y-39588424D01*
X35962773Y-39565552D01*
X35887371Y-39542679D01*
X35748392Y-39468392D01*
X35626581Y-39368425D01*
X35626580Y-39368423D01*
X35626578Y-39368422D01*
X35526607Y-39246605D01*
X35458687Y-39119537D01*
X35452321Y-39107628D01*
X35422424Y-39009070D01*
X35406576Y-38956826D01*
X35399839Y-38888424D01*
X35395000Y-38839294D01*
X35395001Y-37360705D01*
X35406577Y-37243174D01*
X35452322Y-37092371D01*
X35526609Y-36953392D01*
X35626579Y-36831578D01*
X35748393Y-36731608D01*
X35887372Y-36657321D01*
X35962773Y-36634449D01*
X36038174Y-36611576D01*
X36195000Y-36596130D01*
X36351827Y-36611576D01*
X36351827Y-36611576D01*
G37*
G36*
X40822649Y-37307717D02*
X40861827Y-37311576D01*
X40937227Y-37334448D01*
X41012629Y-37357321D01*
X41151608Y-37431608D01*
X41273422Y-37531578D01*
X41373392Y-37653392D01*
X41447679Y-37792371D01*
X41452011Y-37806652D01*
X41493424Y-37943173D01*
X41508870Y-38100000D01*
X41493424Y-38256827D01*
X41470551Y-38332228D01*
X41447679Y-38407629D01*
X41373392Y-38546608D01*
X41273422Y-38668422D01*
X41151608Y-38768392D01*
X41012629Y-38842679D01*
X40937227Y-38865552D01*
X40861827Y-38888424D01*
X40822649Y-38892283D01*
X40744295Y-38900000D01*
X39265705Y-38900000D01*
X39187351Y-38892283D01*
X39148173Y-38888424D01*
X39072772Y-38865551D01*
X38997371Y-38842679D01*
X38858392Y-38768392D01*
X38736578Y-38668422D01*
X38636608Y-38546608D01*
X38562321Y-38407629D01*
X38539449Y-38332228D01*
X38516576Y-38256827D01*
X38501130Y-38100000D01*
X38516576Y-37943173D01*
X38557989Y-37806652D01*
X38562321Y-37792371D01*
X38636608Y-37653392D01*
X38736578Y-37531578D01*
X38858392Y-37431608D01*
X38997371Y-37357321D01*
X39072772Y-37334449D01*
X39148173Y-37311576D01*
X39187351Y-37307717D01*
X39265705Y-37300000D01*
X40744295Y-37300000D01*
X40822649Y-37307717D01*
X40822649Y-37307717D01*
G37*
G36*
X48442649Y-37307717D02*
X48481827Y-37311576D01*
X48557227Y-37334448D01*
X48632629Y-37357321D01*
X48771608Y-37431608D01*
X48893422Y-37531578D01*
X48993392Y-37653392D01*
X49067679Y-37792371D01*
X49072011Y-37806652D01*
X49113424Y-37943173D01*
X49128870Y-38100000D01*
X49113424Y-38256827D01*
X49090551Y-38332228D01*
X49067679Y-38407629D01*
X48993392Y-38546608D01*
X48893422Y-38668422D01*
X48771608Y-38768392D01*
X48632629Y-38842679D01*
X48557227Y-38865552D01*
X48481827Y-38888424D01*
X48442649Y-38892283D01*
X48364295Y-38900000D01*
X46885705Y-38900000D01*
X46807351Y-38892283D01*
X46768173Y-38888424D01*
X46692772Y-38865551D01*
X46617371Y-38842679D01*
X46478392Y-38768392D01*
X46356578Y-38668422D01*
X46256608Y-38546608D01*
X46182321Y-38407629D01*
X46159449Y-38332228D01*
X46136576Y-38256827D01*
X46121130Y-38100000D01*
X46136576Y-37943173D01*
X46177989Y-37806652D01*
X46182321Y-37792371D01*
X46256608Y-37653392D01*
X46356578Y-37531578D01*
X46478392Y-37431608D01*
X46617371Y-37357321D01*
X46692772Y-37334449D01*
X46768173Y-37311576D01*
X46807351Y-37307717D01*
X46885705Y-37300000D01*
X48364295Y-37300000D01*
X48442649Y-37307717D01*
X48442649Y-37307717D01*
G37*
G36*
X40701030Y-32669469D02*
X40701033Y-32669470D01*
X40701034Y-32669470D01*
X40889535Y-32726651D01*
X40889537Y-32726652D01*
X41063260Y-32819509D01*
X41215528Y-32944472D01*
X41340491Y-33096740D01*
X41340492Y-33096742D01*
X41433349Y-33270465D01*
X41468346Y-33385835D01*
X41490531Y-33458970D01*
X41509838Y-33655000D01*
X41490531Y-33851030D01*
X41490530Y-33851033D01*
X41490530Y-33851034D01*
X41437670Y-34025292D01*
X41433348Y-34039537D01*
X41340491Y-34213260D01*
X41215528Y-34365528D01*
X41063260Y-34490491D01*
X41063258Y-34490492D01*
X40889535Y-34583349D01*
X40701034Y-34640530D01*
X40701033Y-34640530D01*
X40701030Y-34640531D01*
X40554124Y-34655000D01*
X39455876Y-34655000D01*
X39308970Y-34640531D01*
X39308967Y-34640530D01*
X39308966Y-34640530D01*
X39120465Y-34583349D01*
X38946742Y-34490492D01*
X38946740Y-34490491D01*
X38794472Y-34365528D01*
X38669509Y-34213260D01*
X38576652Y-34039537D01*
X38572331Y-34025292D01*
X38519470Y-33851034D01*
X38519470Y-33851033D01*
X38519469Y-33851030D01*
X38500162Y-33655000D01*
X38519469Y-33458970D01*
X38541654Y-33385835D01*
X38576651Y-33270465D01*
X38669508Y-33096742D01*
X38669509Y-33096740D01*
X38794472Y-32944472D01*
X38946740Y-32819509D01*
X39120463Y-32726652D01*
X39120465Y-32726651D01*
X39308966Y-32669470D01*
X39308967Y-32669470D01*
X39308970Y-32669469D01*
X39455876Y-32655000D01*
X40554124Y-32655000D01*
X40701030Y-32669469D01*
X40701030Y-32669469D01*
G37*
G36*
X61656030Y-32669469D02*
X61656033Y-32669470D01*
X61656034Y-32669470D01*
X61844535Y-32726651D01*
X61844537Y-32726652D01*
X62018260Y-32819509D01*
X62170528Y-32944472D01*
X62295491Y-33096740D01*
X62295492Y-33096742D01*
X62388349Y-33270465D01*
X62423346Y-33385835D01*
X62445531Y-33458970D01*
X62464838Y-33655000D01*
X62445531Y-33851030D01*
X62445530Y-33851033D01*
X62445530Y-33851034D01*
X62392670Y-34025292D01*
X62388348Y-34039537D01*
X62295491Y-34213260D01*
X62170528Y-34365528D01*
X62018260Y-34490491D01*
X62018258Y-34490492D01*
X61844535Y-34583349D01*
X61656034Y-34640530D01*
X61656033Y-34640530D01*
X61656030Y-34640531D01*
X61509124Y-34655000D01*
X60410876Y-34655000D01*
X60263970Y-34640531D01*
X60263967Y-34640530D01*
X60263966Y-34640530D01*
X60075465Y-34583349D01*
X59901742Y-34490492D01*
X59901740Y-34490491D01*
X59749472Y-34365528D01*
X59624509Y-34213260D01*
X59531652Y-34039537D01*
X59527331Y-34025292D01*
X59474470Y-33851034D01*
X59474470Y-33851033D01*
X59474469Y-33851030D01*
X59455162Y-33655000D01*
X59474469Y-33458970D01*
X59496654Y-33385835D01*
X59531651Y-33270465D01*
X59624508Y-33096742D01*
X59624509Y-33096740D01*
X59749472Y-32944472D01*
X59901740Y-32819509D01*
X60075463Y-32726652D01*
X60075465Y-32726651D01*
X60263966Y-32669470D01*
X60263967Y-32669470D01*
X60263970Y-32669469D01*
X60410876Y-32655000D01*
X61509124Y-32655000D01*
X61656030Y-32669469D01*
X61656030Y-32669469D01*
G37*
G36*
X54036030Y-32669469D02*
X54036033Y-32669470D01*
X54036034Y-32669470D01*
X54224535Y-32726651D01*
X54224537Y-32726652D01*
X54398260Y-32819509D01*
X54550528Y-32944472D01*
X54675491Y-33096740D01*
X54675492Y-33096742D01*
X54768349Y-33270465D01*
X54803346Y-33385835D01*
X54825531Y-33458970D01*
X54844838Y-33655000D01*
X54825531Y-33851030D01*
X54825530Y-33851033D01*
X54825530Y-33851034D01*
X54772670Y-34025292D01*
X54768348Y-34039537D01*
X54675491Y-34213260D01*
X54550528Y-34365528D01*
X54398260Y-34490491D01*
X54398258Y-34490492D01*
X54224535Y-34583349D01*
X54036034Y-34640530D01*
X54036033Y-34640530D01*
X54036030Y-34640531D01*
X53889124Y-34655000D01*
X52790876Y-34655000D01*
X52643970Y-34640531D01*
X52643967Y-34640530D01*
X52643966Y-34640530D01*
X52455465Y-34583349D01*
X52281742Y-34490492D01*
X52281740Y-34490491D01*
X52129472Y-34365528D01*
X52004509Y-34213260D01*
X51911652Y-34039537D01*
X51907331Y-34025292D01*
X51854470Y-33851034D01*
X51854470Y-33851033D01*
X51854469Y-33851030D01*
X51835162Y-33655000D01*
X51854469Y-33458970D01*
X51876654Y-33385835D01*
X51911651Y-33270465D01*
X52004508Y-33096742D01*
X52004509Y-33096740D01*
X52129472Y-32944472D01*
X52281740Y-32819509D01*
X52455463Y-32726652D01*
X52455465Y-32726651D01*
X52643966Y-32669470D01*
X52643967Y-32669470D01*
X52643970Y-32669469D01*
X52790876Y-32655000D01*
X53889124Y-32655000D01*
X54036030Y-32669469D01*
X54036030Y-32669469D01*
G37*
G36*
X48321030Y-32669469D02*
X48321033Y-32669470D01*
X48321034Y-32669470D01*
X48509535Y-32726651D01*
X48509537Y-32726652D01*
X48683260Y-32819509D01*
X48835528Y-32944472D01*
X48960491Y-33096740D01*
X48960492Y-33096742D01*
X49053349Y-33270465D01*
X49088346Y-33385835D01*
X49110531Y-33458970D01*
X49129838Y-33655000D01*
X49110531Y-33851030D01*
X49110530Y-33851033D01*
X49110530Y-33851034D01*
X49057670Y-34025292D01*
X49053348Y-34039537D01*
X48960491Y-34213260D01*
X48835528Y-34365528D01*
X48683260Y-34490491D01*
X48683258Y-34490492D01*
X48509535Y-34583349D01*
X48321034Y-34640530D01*
X48321033Y-34640530D01*
X48321030Y-34640531D01*
X48174124Y-34655000D01*
X47075876Y-34655000D01*
X46928970Y-34640531D01*
X46928967Y-34640530D01*
X46928966Y-34640530D01*
X46740465Y-34583349D01*
X46566742Y-34490492D01*
X46566740Y-34490491D01*
X46414472Y-34365528D01*
X46289509Y-34213260D01*
X46196652Y-34039537D01*
X46192331Y-34025292D01*
X46139470Y-33851034D01*
X46139470Y-33851033D01*
X46139469Y-33851030D01*
X46120162Y-33655000D01*
X46139469Y-33458970D01*
X46161654Y-33385835D01*
X46196651Y-33270465D01*
X46289508Y-33096742D01*
X46289509Y-33096740D01*
X46414472Y-32944472D01*
X46566740Y-32819509D01*
X46740463Y-32726652D01*
X46740465Y-32726651D01*
X46928966Y-32669470D01*
X46928967Y-32669470D01*
X46928970Y-32669469D01*
X47075876Y-32655000D01*
X48174124Y-32655000D01*
X48321030Y-32669469D01*
X48321030Y-32669469D01*
G37*
G36*
X27501029Y-31204269D02*
X27501032Y-31204270D01*
X27501033Y-31204270D01*
X27689534Y-31261451D01*
X27689536Y-31261452D01*
X27689539Y-31261453D01*
X27863258Y-31354307D01*
X28015528Y-31479272D01*
X28140491Y-31631540D01*
X28233348Y-31805263D01*
X28290531Y-31993770D01*
X28305000Y-32140676D01*
X28305000Y-33238924D01*
X28290531Y-33385830D01*
X28290530Y-33385833D01*
X28290530Y-33385834D01*
X28233350Y-33574333D01*
X28233348Y-33574337D01*
X28140491Y-33748060D01*
X28015528Y-33900328D01*
X27863260Y-34025291D01*
X27863258Y-34025292D01*
X27689535Y-34118149D01*
X27501034Y-34175330D01*
X27501033Y-34175330D01*
X27501030Y-34175331D01*
X27305000Y-34194638D01*
X27108971Y-34175331D01*
X27108968Y-34175330D01*
X27108967Y-34175330D01*
X26920466Y-34118149D01*
X26746743Y-34025292D01*
X26746741Y-34025291D01*
X26594473Y-33900328D01*
X26469510Y-33748060D01*
X26376651Y-33574333D01*
X26319469Y-33385835D01*
X26305000Y-33238924D01*
X26305000Y-32140677D01*
X26319469Y-31993771D01*
X26319470Y-31993767D01*
X26376651Y-31805266D01*
X26376652Y-31805264D01*
X26376653Y-31805261D01*
X26469507Y-31631542D01*
X26594472Y-31479272D01*
X26746740Y-31354309D01*
X26920463Y-31261452D01*
X26920465Y-31261451D01*
X27108966Y-31204270D01*
X27108967Y-31204270D01*
X27108970Y-31204269D01*
X27305000Y-31184962D01*
X27501029Y-31204269D01*
X27501029Y-31204269D01*
G37*
G36*
X24961029Y-31204269D02*
X24961032Y-31204270D01*
X24961033Y-31204270D01*
X25149534Y-31261451D01*
X25149536Y-31261452D01*
X25149539Y-31261453D01*
X25323258Y-31354307D01*
X25475528Y-31479272D01*
X25600491Y-31631540D01*
X25693348Y-31805263D01*
X25750531Y-31993770D01*
X25765000Y-32140676D01*
X25765000Y-33238924D01*
X25750531Y-33385830D01*
X25750530Y-33385833D01*
X25750530Y-33385834D01*
X25693350Y-33574333D01*
X25693348Y-33574337D01*
X25600491Y-33748060D01*
X25475528Y-33900328D01*
X25323260Y-34025291D01*
X25323258Y-34025292D01*
X25149535Y-34118149D01*
X24961034Y-34175330D01*
X24961033Y-34175330D01*
X24961030Y-34175331D01*
X24765000Y-34194638D01*
X24568971Y-34175331D01*
X24568968Y-34175330D01*
X24568967Y-34175330D01*
X24380466Y-34118149D01*
X24206743Y-34025292D01*
X24206741Y-34025291D01*
X24054473Y-33900328D01*
X23929510Y-33748060D01*
X23836651Y-33574333D01*
X23779469Y-33385835D01*
X23765000Y-33238924D01*
X23765000Y-32140677D01*
X23779469Y-31993771D01*
X23779470Y-31993767D01*
X23836651Y-31805266D01*
X23836652Y-31805264D01*
X23836653Y-31805261D01*
X23929507Y-31631542D01*
X24054472Y-31479272D01*
X24206740Y-31354309D01*
X24380463Y-31261452D01*
X24380465Y-31261451D01*
X24568966Y-31204270D01*
X24568967Y-31204270D01*
X24568970Y-31204269D01*
X24765000Y-31184962D01*
X24961029Y-31204269D01*
X24961029Y-31204269D01*
G37*
G36*
X30845000Y-34189800D02*
X28845000Y-34189800D01*
X28845000Y-31189800D01*
X30845000Y-31189800D01*
X30845000Y-34189800D01*
X30845000Y-34189800D01*
G37*
G36*
X61656030Y-27589469D02*
X61656033Y-27589470D01*
X61656034Y-27589470D01*
X61844535Y-27646651D01*
X61844537Y-27646652D01*
X62018260Y-27739509D01*
X62170528Y-27864472D01*
X62295491Y-28016740D01*
X62295492Y-28016742D01*
X62388349Y-28190465D01*
X62445530Y-28378966D01*
X62445531Y-28378970D01*
X62464838Y-28575000D01*
X62445531Y-28771030D01*
X62445530Y-28771033D01*
X62445530Y-28771034D01*
X62439616Y-28790531D01*
X62388348Y-28959537D01*
X62295491Y-29133260D01*
X62170528Y-29285528D01*
X62018260Y-29410491D01*
X62018258Y-29410492D01*
X61844535Y-29503349D01*
X61656034Y-29560530D01*
X61656033Y-29560530D01*
X61656030Y-29560531D01*
X61509124Y-29575000D01*
X60410876Y-29575000D01*
X60263970Y-29560531D01*
X60263967Y-29560530D01*
X60263966Y-29560530D01*
X60075465Y-29503349D01*
X59901742Y-29410492D01*
X59901740Y-29410491D01*
X59749472Y-29285528D01*
X59624509Y-29133260D01*
X59531652Y-28959537D01*
X59480385Y-28790531D01*
X59474470Y-28771034D01*
X59474470Y-28771033D01*
X59474469Y-28771030D01*
X59455162Y-28575000D01*
X59474469Y-28378970D01*
X59474470Y-28378966D01*
X59531651Y-28190465D01*
X59624508Y-28016742D01*
X59624509Y-28016740D01*
X59749472Y-27864472D01*
X59901740Y-27739509D01*
X60075463Y-27646652D01*
X60075465Y-27646651D01*
X60263966Y-27589470D01*
X60263967Y-27589470D01*
X60263970Y-27589469D01*
X60410876Y-27575000D01*
X61509124Y-27575000D01*
X61656030Y-27589469D01*
X61656030Y-27589469D01*
G37*
G36*
X54036030Y-27589469D02*
X54036033Y-27589470D01*
X54036034Y-27589470D01*
X54224535Y-27646651D01*
X54224537Y-27646652D01*
X54398260Y-27739509D01*
X54550528Y-27864472D01*
X54675491Y-28016740D01*
X54675492Y-28016742D01*
X54768349Y-28190465D01*
X54825530Y-28378966D01*
X54825531Y-28378970D01*
X54844838Y-28575000D01*
X54825531Y-28771030D01*
X54825530Y-28771033D01*
X54825530Y-28771034D01*
X54819616Y-28790531D01*
X54768348Y-28959537D01*
X54675491Y-29133260D01*
X54550528Y-29285528D01*
X54398260Y-29410491D01*
X54398258Y-29410492D01*
X54224535Y-29503349D01*
X54036034Y-29560530D01*
X54036033Y-29560530D01*
X54036030Y-29560531D01*
X53889124Y-29575000D01*
X52790876Y-29575000D01*
X52643970Y-29560531D01*
X52643967Y-29560530D01*
X52643966Y-29560530D01*
X52455465Y-29503349D01*
X52281742Y-29410492D01*
X52281740Y-29410491D01*
X52129472Y-29285528D01*
X52004509Y-29133260D01*
X51911652Y-28959537D01*
X51860385Y-28790531D01*
X51854470Y-28771034D01*
X51854470Y-28771033D01*
X51854469Y-28771030D01*
X51835162Y-28575000D01*
X51854469Y-28378970D01*
X51854470Y-28378966D01*
X51911651Y-28190465D01*
X52004508Y-28016742D01*
X52004509Y-28016740D01*
X52129472Y-27864472D01*
X52281740Y-27739509D01*
X52455463Y-27646652D01*
X52455465Y-27646651D01*
X52643966Y-27589470D01*
X52643967Y-27589470D01*
X52643970Y-27589469D01*
X52790876Y-27575000D01*
X53889124Y-27575000D01*
X54036030Y-27589469D01*
X54036030Y-27589469D01*
G37*
G36*
X48321030Y-27589469D02*
X48321033Y-27589470D01*
X48321034Y-27589470D01*
X48509535Y-27646651D01*
X48509537Y-27646652D01*
X48683260Y-27739509D01*
X48835528Y-27864472D01*
X48960491Y-28016740D01*
X48960492Y-28016742D01*
X49053349Y-28190465D01*
X49110530Y-28378966D01*
X49110531Y-28378970D01*
X49129838Y-28575000D01*
X49110531Y-28771030D01*
X49110530Y-28771033D01*
X49110530Y-28771034D01*
X49104616Y-28790531D01*
X49053348Y-28959537D01*
X48960491Y-29133260D01*
X48835528Y-29285528D01*
X48683260Y-29410491D01*
X48683258Y-29410492D01*
X48509535Y-29503349D01*
X48321034Y-29560530D01*
X48321033Y-29560530D01*
X48321030Y-29560531D01*
X48174124Y-29575000D01*
X47075876Y-29575000D01*
X46928970Y-29560531D01*
X46928967Y-29560530D01*
X46928966Y-29560530D01*
X46740465Y-29503349D01*
X46566742Y-29410492D01*
X46566740Y-29410491D01*
X46414472Y-29285528D01*
X46289509Y-29133260D01*
X46196652Y-28959537D01*
X46145385Y-28790531D01*
X46139470Y-28771034D01*
X46139470Y-28771033D01*
X46139469Y-28771030D01*
X46120162Y-28575000D01*
X46139469Y-28378970D01*
X46139470Y-28378966D01*
X46196651Y-28190465D01*
X46289508Y-28016742D01*
X46289509Y-28016740D01*
X46414472Y-27864472D01*
X46566740Y-27739509D01*
X46740463Y-27646652D01*
X46740465Y-27646651D01*
X46928966Y-27589470D01*
X46928967Y-27589470D01*
X46928970Y-27589469D01*
X47075876Y-27575000D01*
X48174124Y-27575000D01*
X48321030Y-27589469D01*
X48321030Y-27589469D01*
G37*
G36*
X40701030Y-27589469D02*
X40701033Y-27589470D01*
X40701034Y-27589470D01*
X40889535Y-27646651D01*
X40889537Y-27646652D01*
X41063260Y-27739509D01*
X41215528Y-27864472D01*
X41340491Y-28016740D01*
X41340492Y-28016742D01*
X41433349Y-28190465D01*
X41490530Y-28378966D01*
X41490531Y-28378970D01*
X41509838Y-28575000D01*
X41490531Y-28771030D01*
X41490530Y-28771033D01*
X41490530Y-28771034D01*
X41484616Y-28790531D01*
X41433348Y-28959537D01*
X41340491Y-29133260D01*
X41215528Y-29285528D01*
X41063260Y-29410491D01*
X41063258Y-29410492D01*
X40889535Y-29503349D01*
X40701034Y-29560530D01*
X40701033Y-29560530D01*
X40701030Y-29560531D01*
X40554124Y-29575000D01*
X39455876Y-29575000D01*
X39308970Y-29560531D01*
X39308967Y-29560530D01*
X39308966Y-29560530D01*
X39120465Y-29503349D01*
X38946742Y-29410492D01*
X38946740Y-29410491D01*
X38794472Y-29285528D01*
X38669509Y-29133260D01*
X38576652Y-28959537D01*
X38525385Y-28790531D01*
X38519470Y-28771034D01*
X38519470Y-28771033D01*
X38519469Y-28771030D01*
X38500162Y-28575000D01*
X38519469Y-28378970D01*
X38519470Y-28378966D01*
X38576651Y-28190465D01*
X38669508Y-28016742D01*
X38669509Y-28016740D01*
X38794472Y-27864472D01*
X38946740Y-27739509D01*
X39120463Y-27646652D01*
X39120465Y-27646651D01*
X39308966Y-27589470D01*
X39308967Y-27589470D01*
X39308970Y-27589469D01*
X39455876Y-27575000D01*
X40554124Y-27575000D01*
X40701030Y-27589469D01*
X40701030Y-27589469D01*
G37*
G36*
X24961029Y-25819469D02*
X24961032Y-25819470D01*
X24961033Y-25819470D01*
X25149534Y-25876651D01*
X25149536Y-25876652D01*
X25149539Y-25876653D01*
X25323258Y-25969507D01*
X25475528Y-26094472D01*
X25600491Y-26246740D01*
X25693348Y-26420463D01*
X25750531Y-26608970D01*
X25765000Y-26755876D01*
X25765000Y-27854124D01*
X25750531Y-28001030D01*
X25750530Y-28001033D01*
X25750530Y-28001034D01*
X25693350Y-28189533D01*
X25693348Y-28189537D01*
X25600491Y-28363260D01*
X25475528Y-28515528D01*
X25323260Y-28640491D01*
X25323258Y-28640492D01*
X25149535Y-28733349D01*
X24961034Y-28790530D01*
X24961033Y-28790530D01*
X24961030Y-28790531D01*
X24765000Y-28809838D01*
X24568971Y-28790531D01*
X24568968Y-28790530D01*
X24568967Y-28790530D01*
X24380466Y-28733349D01*
X24206743Y-28640492D01*
X24206741Y-28640491D01*
X24054473Y-28515528D01*
X23929510Y-28363260D01*
X23836651Y-28189533D01*
X23779469Y-28001035D01*
X23765000Y-27854124D01*
X23765000Y-26755877D01*
X23779469Y-26608971D01*
X23779470Y-26608967D01*
X23836651Y-26420466D01*
X23836652Y-26420464D01*
X23836653Y-26420461D01*
X23929507Y-26246742D01*
X24054472Y-26094472D01*
X24206740Y-25969509D01*
X24380463Y-25876652D01*
X24380465Y-25876651D01*
X24568966Y-25819470D01*
X24568967Y-25819470D01*
X24568970Y-25819469D01*
X24765000Y-25800162D01*
X24961029Y-25819469D01*
X24961029Y-25819469D01*
G37*
G36*
X27501029Y-25819469D02*
X27501032Y-25819470D01*
X27501033Y-25819470D01*
X27689534Y-25876651D01*
X27689536Y-25876652D01*
X27689539Y-25876653D01*
X27863258Y-25969507D01*
X28015528Y-26094472D01*
X28140491Y-26246740D01*
X28233348Y-26420463D01*
X28290531Y-26608970D01*
X28305000Y-26755876D01*
X28305000Y-27854124D01*
X28290531Y-28001030D01*
X28290530Y-28001033D01*
X28290530Y-28001034D01*
X28233350Y-28189533D01*
X28233348Y-28189537D01*
X28140491Y-28363260D01*
X28015528Y-28515528D01*
X27863260Y-28640491D01*
X27863258Y-28640492D01*
X27689535Y-28733349D01*
X27501034Y-28790530D01*
X27501033Y-28790530D01*
X27501030Y-28790531D01*
X27305000Y-28809838D01*
X27108971Y-28790531D01*
X27108968Y-28790530D01*
X27108967Y-28790530D01*
X26920466Y-28733349D01*
X26746743Y-28640492D01*
X26746741Y-28640491D01*
X26594473Y-28515528D01*
X26469510Y-28363260D01*
X26376651Y-28189533D01*
X26319469Y-28001035D01*
X26305000Y-27854124D01*
X26305000Y-26755877D01*
X26319469Y-26608971D01*
X26319470Y-26608967D01*
X26376651Y-26420466D01*
X26376652Y-26420464D01*
X26376653Y-26420461D01*
X26469507Y-26246742D01*
X26594472Y-26094472D01*
X26746740Y-25969509D01*
X26920463Y-25876652D01*
X26920465Y-25876651D01*
X27108966Y-25819470D01*
X27108967Y-25819470D01*
X27108970Y-25819469D01*
X27305000Y-25800162D01*
X27501029Y-25819469D01*
X27501029Y-25819469D01*
G37*
G36*
X30041029Y-25819469D02*
X30041032Y-25819470D01*
X30041033Y-25819470D01*
X30229534Y-25876651D01*
X30229536Y-25876652D01*
X30229539Y-25876653D01*
X30403258Y-25969507D01*
X30555528Y-26094472D01*
X30680491Y-26246740D01*
X30773348Y-26420463D01*
X30830531Y-26608970D01*
X30845000Y-26755876D01*
X30845000Y-27854124D01*
X30830531Y-28001030D01*
X30830530Y-28001033D01*
X30830530Y-28001034D01*
X30773350Y-28189533D01*
X30773348Y-28189537D01*
X30680491Y-28363260D01*
X30555528Y-28515528D01*
X30403260Y-28640491D01*
X30403258Y-28640492D01*
X30229535Y-28733349D01*
X30041034Y-28790530D01*
X30041033Y-28790530D01*
X30041030Y-28790531D01*
X29845000Y-28809838D01*
X29648971Y-28790531D01*
X29648968Y-28790530D01*
X29648967Y-28790530D01*
X29460466Y-28733349D01*
X29286743Y-28640492D01*
X29286741Y-28640491D01*
X29134473Y-28515528D01*
X29009510Y-28363260D01*
X28916651Y-28189533D01*
X28859469Y-28001035D01*
X28845000Y-27854124D01*
X28845000Y-26755877D01*
X28859469Y-26608971D01*
X28859470Y-26608967D01*
X28916651Y-26420466D01*
X28916652Y-26420464D01*
X28916653Y-26420461D01*
X29009507Y-26246742D01*
X29134472Y-26094472D01*
X29286740Y-25969509D01*
X29460463Y-25876652D01*
X29460465Y-25876651D01*
X29648966Y-25819470D01*
X29648967Y-25819470D01*
X29648970Y-25819469D01*
X29845000Y-25800162D01*
X30041029Y-25819469D01*
X30041029Y-25819469D01*
G37*
G36*
X64945770Y-19970372D02*
X65061689Y-19993429D01*
X65243678Y-20068811D01*
X65407463Y-20178249D01*
X65546751Y-20317537D01*
X65656189Y-20481322D01*
X65731571Y-20663311D01*
X65770000Y-20856509D01*
X65770000Y-21053491D01*
X65731571Y-21246689D01*
X65656189Y-21428678D01*
X65546751Y-21592463D01*
X65407463Y-21731751D01*
X65243678Y-21841189D01*
X65061689Y-21916571D01*
X64945770Y-21939628D01*
X64868493Y-21955000D01*
X64671507Y-21955000D01*
X64594230Y-21939628D01*
X64478311Y-21916571D01*
X64296322Y-21841189D01*
X64132537Y-21731751D01*
X63993249Y-21592463D01*
X63883811Y-21428678D01*
X63808429Y-21246689D01*
X63770000Y-21053491D01*
X63770000Y-20856509D01*
X63808429Y-20663311D01*
X63883811Y-20481322D01*
X63993249Y-20317537D01*
X64132537Y-20178249D01*
X64296322Y-20068811D01*
X64478311Y-19993429D01*
X64594230Y-19970372D01*
X64671507Y-19955000D01*
X64868493Y-19955000D01*
X64945770Y-19970372D01*
X64945770Y-19970372D01*
G37*
G36*
X20495770Y-19970372D02*
X20611689Y-19993429D01*
X20793678Y-20068811D01*
X20957463Y-20178249D01*
X21096751Y-20317537D01*
X21206189Y-20481322D01*
X21281571Y-20663311D01*
X21320000Y-20856509D01*
X21320000Y-21053491D01*
X21281571Y-21246689D01*
X21206189Y-21428678D01*
X21096751Y-21592463D01*
X20957463Y-21731751D01*
X20793678Y-21841189D01*
X20611689Y-21916571D01*
X20495770Y-21939628D01*
X20418493Y-21955000D01*
X20221507Y-21955000D01*
X20144230Y-21939628D01*
X20028311Y-21916571D01*
X19846322Y-21841189D01*
X19682537Y-21731751D01*
X19543249Y-21592463D01*
X19433811Y-21428678D01*
X19358429Y-21246689D01*
X19320000Y-21053491D01*
X19320000Y-20856509D01*
X19358429Y-20663311D01*
X19433811Y-20481322D01*
X19543249Y-20317537D01*
X19682537Y-20178249D01*
X19846322Y-20068811D01*
X20028311Y-19993429D01*
X20144230Y-19970372D01*
X20221507Y-19955000D01*
X20418493Y-19955000D01*
X20495770Y-19970372D01*
X20495770Y-19970372D01*
G37*
M02*
