M48
;DRILL file {KiCad (5.0.2)-1} date 09-04-2019 20:42:47
;FORMAT={-:-/ absolute / metric / decimal}
FMAT,2
METRIC,TZ
T1C0.900
T2C1.000
T3C1.200
T4C3.000
%
G90
G05
T1
X27.305Y-23.495
X34.925Y-26.035
X34.925Y-31.115
X35.56Y-56.515
X45.085Y-31.115
X45.085Y-56.515
X47.625Y-31.115
X50.8Y-23.495
X50.8Y-35.179
X50.8Y-41.91
X50.8Y-46.355
X50.8Y-55.88
X57.15Y-26.035
X57.15Y-31.115
X64.77Y-27.305
X64.77Y-34.29
X53.34Y-28.575
X60.96Y-28.575
X36.195Y-38.1
X36.195Y-43.1
X30.48Y-57.15
X30.48Y-59.69
X23.495Y-53.34
X31.115Y-53.34
X53.34Y-48.895
X60.96Y-48.895
X64.77Y-53.975
X40.005Y-28.575
X47.625Y-28.575
X53.34Y-53.975
X60.96Y-53.975
X53.34Y-38.735
X60.96Y-38.735
X36.195Y-47.07
X36.195Y-52.07
X23.495Y-49.53
X31.115Y-49.53
X53.34Y-33.655
X60.96Y-33.655
X53.34Y-43.815
X60.96Y-43.815
X24.765Y-27.305
X24.765Y-32.69
X27.305Y-27.305
X27.305Y-32.69
X29.845Y-27.305
X29.845Y-32.69
X24.13Y-57.15
X24.13Y-59.69
X53.34Y-59.055
X60.96Y-59.055
X40.005Y-33.655
X47.625Y-33.655
X40.005Y-38.1
X40.005Y-40.64
X40.005Y-43.18
X40.005Y-45.72
X40.005Y-48.26
X40.005Y-50.8
X40.005Y-53.34
X47.625Y-38.1
X47.625Y-40.64
X47.625Y-43.18
X47.625Y-45.72
X47.625Y-48.26
X47.625Y-50.8
X47.625Y-53.34
X40.005Y-59.055
X47.625Y-59.055
T2
X20.32Y-20.955
X20.32Y-61.595
X64.77Y-61.595
X64.77Y-20.955
T3
X27.305Y-38.815
X27.305Y-43.815
T4
X66.675Y-41.275
X80.645Y-41.275
T0
M30
