<?xml version="1.0" standalone="no"?>
 <!DOCTYPE svg PUBLIC "-//W3C//DTD SVG 1.1//EN" 
 "http://www.w3.org/Graphics/SVG/1.1/DTD/svg11.dtd"> 
<svg xmlns="http://www.w3.org/2000/svg" version="1.1" 
    width="21.59cm" height="14.0005cm" viewBox="0 0 85000 55120 ">
<title>SVG Picture created as ponta-de-prova-logica-simplificada-B.Mask.svg date 2019/04/09 20:48:05 </title>
  <desc>Picture generated by PCBNEW </desc>
<g style="fill:#000000; fill-opacity:1;stroke:#000000; stroke-opacity:1;
stroke-linecap:round; stroke-linejoin:round; "
 transform="translate(0 0) scale(1 1)">
</g>
<g style="fill:#000000; fill-opacity:0.0; 
stroke:#000000; stroke-width:-0.000393701; stroke-opacity:1; 
stroke-linecap:round; stroke-linejoin:round;">
</g>
<g style="fill:#000000; fill-opacity:0.0; 
stroke:#000000; stroke-width:39.3701; stroke-opacity:1; 
stroke-linecap:round; stroke-linejoin:round;">
<path d="M7000 24250 A1000 1000 0.0 0 0 8000 25250 " />
<path d="M32000 25250 A1000 1000 0.0 0 0 33000 24250 " />
<path d="M33000 8250 A1000 1000 0.0 0 0 32000 7250 " />
<path d="M8000 7250 A1000 1000 0.0 0 0 7000 8250 " />
<path d="M8000 25250
L32000 25250
" />
<path d="M7000 8250
L7000 24250
" />
<path d="M32000 7250
L8000 7250
" />
<path d="M33000 24250
L33000 8250
" />
</g>
<g style="fill:#000000; fill-opacity:1.0; 
stroke:#000000; stroke-width:0; stroke-opacity:1; 
stroke-linecap:round; stroke-linejoin:round;">
<polyline style="fill-rule:evenodd;"
points="25569,23862
25614,23871
25686,23901
25750,23944
25805,23999
25848,24063
25878,24135
25893,24211
25893,24288
25878,24364
25848,24436
25805,24500
25750,24555
25686,24598
25614,24628
25569,24637
25538,24643
25461,24643
25430,24637
25385,24628
25313,24598
25249,24555
25194,24500
25151,24436
25121,24364
25106,24288
25106,24211
25121,24135
25151,24063
25194,23999
25249,23944
25313,23901
25385,23871
25430,23862
25461,23856
25538,23856
25569,23862
" /> 
<polyline style="fill-rule:evenodd;"
points="8069,23862
8114,23871
8186,23901
8250,23944
8305,23999
8348,24063
8378,24135
8393,24211
8393,24288
8378,24364
8348,24436
8305,24500
8250,24555
8186,24598
8114,24628
8069,24637
8038,24643
7961,24643
7930,24637
7885,24628
7813,24598
7749,24555
7694,24500
7651,24436
7621,24364
7606,24288
7606,24211
7621,24135
7651,24063
7694,23999
7749,23944
7813,23901
7885,23871
7930,23862
7961,23856
8038,23856
8069,23862
" /> 
<polyline style="fill-rule:evenodd;"
points="9774,23111
9774,23111
9774,23111
9848,23134
9848,23134
9916,23171
9976,23220
10025,23280
10025,23280
10062,23348
10078,23401
10084,23422
10092,23500
10084,23577
10084,23577
10084,23577
10064,23643
10062,23651
10025,23719
9976,23779
9916,23828
9916,23828
9848,23865
9774,23888
9774,23888
9774,23888
9716,23893
9283,23893
9225,23888
9225,23888
9225,23888
9151,23865
9083,23828
9083,23828
9023,23779
8974,23719
8937,23651
8935,23643
8915,23577
8915,23577
8915,23577
8907,23500
8915,23422
8921,23401
8937,23348
8974,23280
8974,23280
9023,23220
9083,23171
9151,23134
9151,23134
9225,23111
9225,23111
9225,23111
9283,23106
9716,23106
9774,23111
" /> 
<polyline style="fill-rule:evenodd;"
points="12274,23111
12274,23111
12274,23111
12348,23134
12348,23134
12416,23171
12476,23220
12525,23280
12525,23280
12562,23348
12578,23401
12584,23422
12592,23500
12584,23577
12584,23577
12584,23577
12564,23643
12562,23651
12525,23719
12476,23779
12416,23828
12416,23828
12348,23865
12274,23888
12274,23888
12274,23888
12216,23893
11783,23893
11725,23888
11725,23888
11725,23888
11651,23865
11583,23828
11583,23828
11523,23779
11474,23719
11437,23651
11435,23643
11415,23577
11415,23577
11415,23577
11407,23500
11415,23422
11421,23401
11437,23348
11474,23280
11474,23280
11523,23220
11583,23171
11651,23134
11651,23134
11725,23111
11725,23111
11725,23111
11783,23106
12216,23106
12274,23111
" /> 
<polyline style="fill-rule:evenodd;"
points="21274,22861
21274,22861
21274,22861
21348,22884
21348,22884
21416,22921
21476,22970
21525,23030
21525,23030
21562,23098
21584,23171
21584,23172
21592,23250
21584,23327
21584,23327
21584,23327
21578,23348
21562,23401
21525,23469
21476,23529
21416,23578
21416,23578
21348,23615
21274,23638
21274,23638
21274,23638
21216,23643
20783,23643
20725,23638
20725,23638
20725,23638
20651,23615
20583,23578
20583,23578
20523,23529
20474,23469
20437,23401
20421,23348
20415,23327
20415,23327
20415,23327
20407,23250
20415,23172
20415,23171
20437,23098
20474,23030
20474,23030
20523,22970
20583,22921
20651,22884
20651,22884
20725,22861
20725,22861
20725,22861
20783,22856
21216,22856
21274,22861
" /> 
<polyline style="fill-rule:evenodd;"
points="24274,22861
24274,22861
24274,22861
24348,22884
24348,22884
24416,22921
24476,22970
24525,23030
24525,23030
24562,23098
24584,23171
24584,23172
24592,23250
24584,23327
24584,23327
24584,23327
24578,23348
24562,23401
24525,23469
24476,23529
24416,23578
24416,23578
24348,23615
24274,23638
24274,23638
24274,23638
24216,23643
23783,23643
23725,23638
23725,23638
23725,23638
23651,23615
23583,23578
23583,23578
23523,23529
23474,23469
23437,23401
23421,23348
23415,23327
23415,23327
23415,23327
23407,23250
23415,23172
23415,23171
23437,23098
23474,23030
23474,23030
23523,22970
23583,22921
23651,22884
23651,22884
23725,22861
23725,22861
23725,22861
23783,22856
24216,22856
24274,22861
" /> 
<polyline style="fill-rule:evenodd;"
points="19024,22861
19024,22861
19024,22861
19098,22884
19098,22884
19166,22921
19226,22970
19275,23030
19275,23030
19312,23098
19334,23171
19334,23172
19342,23250
19334,23327
19334,23327
19334,23327
19328,23348
19312,23401
19275,23469
19226,23529
19166,23578
19166,23578
19098,23615
19024,23638
19024,23638
19024,23638
18966,23643
18533,23643
18475,23638
18475,23638
18475,23638
18401,23615
18333,23578
18333,23578
18273,23529
18224,23469
18187,23401
18171,23348
18165,23327
18165,23327
18165,23327
18157,23250
18165,23172
18165,23171
18187,23098
18224,23030
18224,23030
18273,22970
18333,22921
18401,22884
18401,22884
18475,22861
18475,22861
18475,22861
18533,22856
18966,22856
19024,22861
" /> 
<polyline style="fill-rule:evenodd;"
points="16024,22861
16024,22861
16024,22861
16098,22884
16098,22884
16166,22921
16226,22970
16275,23030
16275,23030
16312,23098
16334,23171
16334,23172
16342,23250
16334,23327
16334,23327
16334,23327
16328,23348
16312,23401
16275,23469
16226,23529
16166,23578
16166,23578
16098,23615
16024,23638
16024,23638
16024,23638
15966,23643
15533,23643
15475,23638
15475,23638
15475,23638
15401,23615
15333,23578
15333,23578
15273,23529
15224,23469
15187,23401
15171,23348
15165,23327
15165,23327
15165,23327
15157,23250
15165,23172
15165,23171
15187,23098
15224,23030
15224,23030
15273,22970
15333,22921
15401,22884
15401,22884
15475,22861
15475,22861
15475,22861
15533,22856
15966,22856
16024,22861
" /> 
<polyline style="fill-rule:evenodd;"
points="9893,22893
9106,22893
9106,22106
9893,22106
9893,22893
" /> 
<polyline style="fill-rule:evenodd;"
points="12393,22893
11606,22893
11606,22106
12393,22106
12393,22893
" /> 
<polyline style="fill-rule:evenodd;"
points="21274,20861
21274,20861
21274,20861
21348,20884
21348,20884
21416,20921
21476,20970
21525,21030
21550,21077
21562,21098
21578,21151
21584,21172
21592,21250
21584,21327
21584,21327
21584,21327
21564,21393
21562,21401
21525,21469
21476,21529
21416,21578
21416,21578
21348,21615
21274,21638
21274,21638
21274,21638
21216,21643
20783,21643
20725,21638
20725,21638
20725,21638
20651,21615
20583,21578
20583,21578
20523,21529
20474,21469
20437,21401
20435,21393
20415,21327
20415,21327
20415,21327
20407,21250
20415,21172
20421,21151
20437,21098
20449,21077
20474,21030
20523,20970
20583,20921
20651,20884
20651,20884
20725,20861
20725,20861
20725,20861
20783,20856
21216,20856
21274,20861
" /> 
<polyline style="fill-rule:evenodd;"
points="24274,20861
24274,20861
24274,20861
24348,20884
24348,20884
24416,20921
24476,20970
24525,21030
24550,21077
24562,21098
24578,21151
24584,21172
24592,21250
24584,21327
24584,21327
24584,21327
24564,21393
24562,21401
24525,21469
24476,21529
24416,21578
24416,21578
24348,21615
24274,21638
24274,21638
24274,21638
24216,21643
23783,21643
23725,21638
23725,21638
23725,21638
23651,21615
23583,21578
23583,21578
23523,21529
23474,21469
23437,21401
23435,21393
23415,21327
23415,21327
23415,21327
23407,21250
23415,21172
23421,21151
23437,21098
23449,21077
23474,21030
23523,20970
23583,20921
23651,20884
23651,20884
23725,20861
23725,20861
23725,20861
23783,20856
24216,20856
24274,20861
" /> 
<polyline style="fill-rule:evenodd;"
points="25614,20871
25686,20901
25750,20944
25805,20999
25848,21063
25878,21135
25893,21211
25893,21288
25878,21364
25848,21436
25805,21500
25750,21555
25686,21598
25614,21628
25538,21643
25461,21643
25385,21628
25313,21598
25249,21555
25194,21500
25151,21436
25121,21364
25106,21288
25106,21211
25121,21135
25151,21063
25194,20999
25249,20944
25313,20901
25385,20871
25461,20856
25538,20856
25614,20871
" /> 
<polyline style="fill-rule:evenodd;"
points="9524,20611
9524,20611
9524,20611
9598,20634
9598,20634
9666,20671
9726,20720
9775,20780
9775,20780
9812,20848
9834,20921
9834,20922
9842,21000
9834,21077
9834,21077
9834,21077
9828,21098
9812,21151
9775,21219
9726,21279
9666,21328
9598,21365
9598,21365
9524,21388
9524,21388
9524,21388
9466,21393
9033,21393
8975,21388
8975,21388
8975,21388
8901,21365
8901,21365
8833,21328
8773,21279
8724,21219
8687,21151
8671,21098
8665,21077
8665,21077
8665,21077
8657,21000
8665,20922
8665,20921
8687,20848
8724,20780
8724,20780
8773,20720
8833,20671
8901,20634
8901,20634
8975,20611
8975,20611
8975,20611
9033,20606
9466,20606
9524,20611
" /> 
<polyline style="fill-rule:evenodd;"
points="12524,20611
12524,20611
12524,20611
12598,20634
12598,20634
12666,20671
12726,20720
12775,20780
12775,20780
12812,20848
12834,20921
12834,20922
12842,21000
12834,21077
12834,21077
12834,21077
12828,21098
12812,21151
12775,21219
12726,21279
12666,21328
12598,21365
12598,21365
12524,21388
12524,21388
12524,21388
12466,21393
12033,21393
11975,21388
11975,21388
11975,21388
11901,21365
11901,21365
11833,21328
11773,21279
11724,21219
11687,21151
11671,21098
11665,21077
11665,21077
11665,21077
11657,21000
11665,20922
11665,20921
11687,20848
11724,20780
11724,20780
11773,20720
11833,20671
11901,20634
11901,20634
11975,20611
11975,20611
11975,20611
12033,20606
12466,20606
12524,20611
" /> 
<polyline style="fill-rule:evenodd;"
points="16071,20688
16087,20689
16117,20698
16146,20707
16201,20736
16249,20776
16288,20824
16317,20878
16335,20938
16342,21000
16335,21061
16317,21121
16288,21175
16249,21223
16201,21263
16146,21292
16117,21301
16087,21310
16071,21311
16041,21314
15458,21314
15428,21311
15412,21310
15382,21301
15353,21292
15298,21263
15250,21223
15211,21175
15182,21121
15164,21061
15157,21000
15164,20938
15182,20878
15211,20824
15250,20776
15298,20736
15353,20707
15382,20698
15412,20689
15428,20688
15458,20685
16041,20685
16071,20688
" /> 
<polyline style="fill-rule:evenodd;"
points="19340,21314
18159,21314
18159,20685
19340,20685
19340,21314
" /> 
<polyline style="fill-rule:evenodd;"
points="14311,19914
14341,19923
14371,19932
14425,19961
14425,19961
14425,19961
14473,20000
14473,20000
14473,20000
14513,20048
14542,20103
14560,20162
14564,20208
14564,20791
14560,20837
14542,20896
14513,20951
14473,20999
14425,21038
14371,21067
14341,21076
14311,21085
14250,21092
14188,21085
14158,21076
14128,21067
14074,21038
14026,20999
13986,20951
13957,20896
13939,20837
13935,20791
13935,20208
13939,20162
13939,20162
13957,20103
13957,20103
13986,20048
14026,20000
14026,20000
14026,20000
14026,20000
14074,19961
14128,19932
14158,19923
14188,19914
14250,19907
14311,19914
" /> 
<polyline style="fill-rule:evenodd;"
points="16071,19688
16087,19689
16117,19698
16146,19707
16201,19736
16249,19776
16288,19824
16317,19878
16335,19938
16342,20000
16335,20061
16317,20121
16288,20175
16249,20223
16201,20263
16146,20292
16117,20301
16087,20310
16071,20311
16041,20314
15458,20314
15428,20311
15412,20310
15382,20301
15353,20292
15298,20263
15250,20223
15211,20175
15182,20121
15164,20061
15157,20000
15164,19938
15182,19878
15211,19824
15250,19776
15298,19736
15353,19707
15382,19698
15412,19689
15428,19688
15458,19685
16041,19685
16071,19688
" /> 
<polyline style="fill-rule:evenodd;"
points="19071,19688
19087,19689
19117,19698
19146,19707
19201,19736
19249,19776
19288,19824
19317,19878
19335,19938
19342,20000
19335,20061
19317,20121
19288,20175
19249,20223
19201,20263
19146,20292
19117,20301
19087,20310
19071,20311
19041,20314
18458,20314
18428,20311
18412,20310
18382,20301
18353,20292
18298,20263
18250,20223
18211,20175
18182,20121
18164,20061
18157,20000
18164,19938
18182,19878
18211,19824
18250,19776
18298,19736
18353,19707
18382,19698
18412,19689
18428,19688
18458,19685
19041,19685
19071,19688
" /> 
<polyline style="fill-rule:evenodd;"
points="12524,19111
12524,19111
12524,19111
12598,19134
12598,19134
12666,19171
12726,19220
12775,19280
12794,19314
12812,19348
12828,19401
12834,19422
12842,19500
12834,19577
12834,19577
12834,19577
12814,19643
12812,19651
12775,19719
12726,19779
12666,19828
12666,19828
12598,19865
12524,19888
12524,19888
12524,19888
12466,19893
12033,19893
11975,19888
11975,19888
11975,19888
11901,19865
11833,19828
11833,19828
11773,19779
11724,19719
11687,19651
11685,19643
11665,19577
11665,19577
11665,19577
11657,19500
11665,19422
11671,19401
11687,19348
11705,19314
11724,19280
11773,19220
11833,19171
11901,19134
11901,19134
11975,19111
11975,19111
11975,19111
12033,19106
12466,19106
12524,19111
" /> 
<polyline style="fill-rule:evenodd;"
points="9524,19111
9524,19111
9524,19111
9598,19134
9598,19134
9666,19171
9726,19220
9775,19280
9794,19314
9812,19348
9828,19401
9834,19422
9842,19500
9834,19577
9834,19577
9834,19577
9814,19643
9812,19651
9775,19719
9726,19779
9666,19828
9666,19828
9598,19865
9524,19888
9524,19888
9524,19888
9466,19893
9033,19893
8975,19888
8975,19888
8975,19888
8901,19865
8833,19828
8833,19828
8773,19779
8724,19719
8687,19651
8685,19643
8665,19577
8665,19577
8665,19577
8657,19500
8665,19422
8671,19401
8687,19348
8705,19314
8724,19280
8773,19220
8833,19171
8901,19134
8901,19134
8975,19111
8975,19111
8975,19111
9033,19106
9466,19106
9524,19111
" /> 
<polyline style="fill-rule:evenodd;"
points="24274,18861
24274,18861
24274,18861
24348,18884
24348,18884
24416,18921
24476,18970
24525,19030
24525,19030
24562,19098
24584,19171
24584,19172
24592,19250
24584,19327
24584,19327
24584,19327
24578,19348
24562,19401
24525,19469
24476,19529
24416,19578
24416,19578
24348,19615
24274,19638
24274,19638
24274,19638
24216,19643
23783,19643
23725,19638
23725,19638
23725,19638
23651,19615
23583,19578
23583,19578
23523,19529
23474,19469
23437,19401
23421,19348
23415,19327
23415,19327
23415,19327
23407,19250
23415,19172
23415,19171
23437,19098
23474,19030
23474,19030
23523,18970
23583,18921
23651,18884
23651,18884
23725,18861
23725,18861
23725,18861
23783,18856
24216,18856
24274,18861
" /> 
<polyline style="fill-rule:evenodd;"
points="21274,18861
21274,18861
21274,18861
21348,18884
21348,18884
21416,18921
21476,18970
21525,19030
21525,19030
21562,19098
21584,19171
21584,19172
21592,19250
21584,19327
21584,19327
21584,19327
21578,19348
21562,19401
21525,19469
21476,19529
21416,19578
21416,19578
21348,19615
21274,19638
21274,19638
21274,19638
21216,19643
20783,19643
20725,19638
20725,19638
20725,19638
20651,19615
20583,19578
20583,19578
20523,19529
20474,19469
20437,19401
20421,19348
20415,19327
20415,19327
20415,19327
20407,19250
20415,19172
20415,19171
20437,19098
20474,19030
20474,19030
20523,18970
20583,18921
20651,18884
20651,18884
20725,18861
20725,18861
20725,18861
20783,18856
21216,18856
21274,18861
" /> 
<polyline style="fill-rule:evenodd;"
points="19071,18688
19087,18689
19117,18698
19146,18707
19201,18736
19249,18776
19288,18824
19317,18878
19335,18938
19342,19000
19335,19061
19317,19121
19288,19175
19249,19223
19201,19263
19146,19292
19117,19301
19087,19310
19071,19311
19041,19314
18458,19314
18428,19311
18412,19310
18382,19301
18353,19292
18298,19263
18250,19223
18211,19175
18182,19121
18164,19061
18157,19000
18164,18938
18182,18878
18211,18824
18250,18776
18298,18736
18353,18707
18382,18698
18412,18689
18428,18688
18458,18685
19041,18685
19071,18688
" /> 
<polyline style="fill-rule:evenodd;"
points="16071,18688
16087,18689
16117,18698
16146,18707
16201,18736
16249,18776
16288,18824
16317,18878
16335,18938
16342,19000
16335,19061
16317,19121
16288,19175
16249,19223
16201,19263
16146,19292
16117,19301
16087,19310
16071,19311
16041,19314
15458,19314
15428,19311
15412,19310
15382,19301
15353,19292
15298,19263
15250,19223
15211,19175
15182,19121
15164,19061
15157,19000
15164,18938
15182,18878
15211,18824
15250,18776
15298,18736
15353,18707
15382,18698
15412,18689
15428,18688
15458,18685
16041,18685
16071,18688
" /> 
<polyline style="fill-rule:evenodd;"
points="14311,17945
14341,17954
14371,17963
14425,17992
14425,17992
14425,17992
14473,18032
14473,18032
14473,18032
14513,18080
14542,18134
14551,18164
14560,18194
14564,18240
14564,18822
14560,18868
14555,18884
14542,18928
14513,18982
14473,19030
14425,19070
14371,19099
14341,19108
14311,19117
14250,19123
14188,19117
14158,19108
14128,19099
14074,19070
14026,19030
13986,18982
13957,18928
13944,18884
13939,18868
13935,18822
13935,18240
13939,18194
13957,18134
13957,18134
13986,18080
14026,18032
14026,18032
14026,18032
14026,18032
14074,17992
14128,17963
14158,17954
14188,17945
14250,17939
14311,17945
" /> 
<polyline style="fill-rule:evenodd;"
points="19071,17688
19087,17689
19117,17698
19146,17707
19201,17736
19249,17776
19288,17824
19317,17878
19317,17878
19335,17938
19338,17963
19342,18000
19335,18061
19317,18121
19288,18175
19249,18223
19201,18263
19146,18292
19117,18301
19087,18310
19071,18311
19041,18314
18458,18314
18428,18311
18412,18310
18382,18301
18353,18292
18298,18263
18250,18223
18211,18175
18182,18121
18164,18061
18157,18000
18161,17963
18164,17938
18182,17878
18182,17878
18211,17824
18250,17776
18298,17736
18353,17707
18382,17698
18412,17689
18428,17688
18458,17685
19041,17685
19071,17688
" /> 
<polyline style="fill-rule:evenodd;"
points="16071,17688
16087,17689
16117,17698
16146,17707
16201,17736
16249,17776
16288,17824
16317,17878
16317,17878
16335,17938
16338,17963
16342,18000
16335,18061
16317,18121
16288,18175
16249,18223
16201,18263
16146,18292
16117,18301
16087,18310
16071,18311
16041,18314
15458,18314
15428,18311
15412,18310
15382,18301
15353,18292
15298,18263
15250,18223
15211,18175
15182,18121
15164,18061
15157,18000
15161,17963
15164,17938
15182,17878
15182,17878
15211,17824
15250,17776
15298,17736
15353,17707
15382,17698
15412,17689
15428,17688
15458,17685
16041,17685
16071,17688
" /> 
<polyline style="fill-rule:evenodd;"
points="21274,16861
21274,16861
21274,16861
21348,16884
21348,16884
21416,16921
21476,16970
21525,17030
21562,17098
21584,17172
21592,17250
21584,17327
21584,17327
21584,17327
21573,17365
21562,17401
21525,17469
21476,17529
21416,17578
21416,17578
21348,17615
21274,17638
21274,17638
21274,17638
21216,17643
20783,17643
20725,17638
20725,17638
20725,17638
20651,17615
20583,17578
20583,17578
20523,17529
20474,17469
20437,17401
20426,17365
20415,17327
20415,17327
20415,17327
20407,17250
20415,17172
20437,17098
20474,17030
20523,16970
20583,16921
20651,16884
20651,16884
20725,16861
20725,16861
20725,16861
20783,16856
21216,16856
21274,16861
" /> 
<polyline style="fill-rule:evenodd;"
points="24274,16861
24274,16861
24274,16861
24348,16884
24348,16884
24416,16921
24476,16970
24525,17030
24562,17098
24584,17172
24592,17250
24584,17327
24584,17327
24584,17327
24573,17365
24562,17401
24525,17469
24476,17529
24416,17578
24416,17578
24348,17615
24274,17638
24274,17638
24274,17638
24216,17643
23783,17643
23725,17638
23725,17638
23725,17638
23651,17615
23583,17578
23583,17578
23523,17529
23474,17469
23437,17401
23426,17365
23415,17327
23415,17327
23415,17327
23407,17250
23415,17172
23437,17098
23474,17030
23523,16970
23583,16921
23651,16884
23651,16884
23725,16861
23725,16861
23725,16861
23783,16856
24216,16856
24274,16861
" /> 
<polyline style="fill-rule:evenodd;"
points="11529,17639
9970,17639
9970,16860
11529,16860
11529,17639
" /> 
<polyline style="fill-rule:evenodd;"
points="14311,16382
14341,16391
14371,16400
14425,16429
14473,16469
14513,16517
14542,16571
14542,16571
14560,16631
14564,16677
14564,17259
14560,17305
14553,17327
14542,17365
14513,17419
14473,17467
14473,17467
14473,17467
14437,17497
14425,17507
14371,17536
14341,17545
14311,17554
14250,17560
14188,17554
14158,17545
14128,17536
14074,17507
14026,17467
14026,17467
14026,17467
13986,17419
13957,17365
13957,17365
13940,17310
13939,17305
13935,17259
13935,16677
13939,16631
13957,16571
13957,16571
13986,16517
14026,16469
14074,16429
14128,16400
14158,16391
14188,16382
14250,16376
14311,16382
" /> 
<polyline style="fill-rule:evenodd;"
points="16071,16688
16087,16689
16117,16698
16146,16707
16201,16736
16249,16776
16288,16824
16317,16878
16335,16938
16342,17000
16335,17061
16317,17121
16288,17175
16249,17223
16201,17263
16146,17292
16117,17301
16087,17310
16071,17311
16041,17314
15458,17314
15428,17311
15412,17310
15382,17301
15353,17292
15298,17263
15250,17223
15211,17175
15182,17121
15164,17061
15157,17000
15164,16938
15182,16878
15211,16824
15250,16776
15298,16736
15353,16707
15382,16698
15412,16689
15428,16688
15458,16685
16041,16685
16071,16688
" /> 
<polyline style="fill-rule:evenodd;"
points="19071,16688
19087,16689
19117,16698
19146,16707
19201,16736
19249,16776
19288,16824
19317,16878
19335,16938
19342,17000
19335,17061
19317,17121
19288,17175
19249,17223
19201,17263
19146,17292
19117,17301
19087,17310
19071,17311
19041,17314
18458,17314
18428,17311
18412,17310
18382,17301
18353,17292
18298,17263
18250,17223
18211,17175
18182,17121
18164,17061
18157,17000
18164,16938
18182,16878
18211,16824
18250,16776
18298,16736
18353,16707
18382,16698
18412,16689
18428,16688
18458,16685
19041,16685
19071,16688
" /> 
<polyline style="fill-rule:evenodd;"
points="26479,15492
26622,15552
26751,15638
26861,15748
26947,15877
27007,16020
27037,16172
27037,16327
27007,16479
26947,16622
26861,16751
26751,16861
26622,16947
26479,17007
26327,17037
26172,17037
26020,17007
25877,16947
25748,16861
25638,16751
25552,16622
25492,16479
25462,16327
25462,16172
25492,16020
25552,15877
25638,15748
25748,15638
25877,15552
26020,15492
26172,15462
26327,15462
26479,15492
" /> 
<polyline style="fill-rule:evenodd;"
points="31979,15492
32122,15552
32251,15638
32361,15748
32447,15877
32507,16020
32537,16172
32537,16327
32507,16479
32447,16622
32361,16751
32251,16861
32122,16947
31979,17007
31827,17037
31672,17037
31520,17007
31377,16947
31248,16861
31138,16751
31052,16622
30992,16479
30962,16327
30962,16172
30992,16020
31052,15877
31138,15748
31248,15638
31377,15552
31520,15492
31672,15462
31827,15462
31979,15492
" /> 
<polyline style="fill-rule:evenodd;"
points="19071,15688
19087,15689
19117,15698
19146,15707
19201,15736
19249,15776
19288,15824
19317,15878
19335,15938
19342,16000
19335,16061
19317,16121
19288,16175
19249,16223
19201,16263
19146,16292
19117,16301
19087,16310
19071,16311
19041,16314
18458,16314
18428,16311
18412,16310
18382,16301
18353,16292
18298,16263
18250,16223
18211,16175
18182,16121
18164,16061
18157,16000
18164,15938
18182,15878
18211,15824
18250,15776
18298,15736
18353,15707
18382,15698
18412,15689
18428,15688
18458,15685
19041,15685
19071,15688
" /> 
<polyline style="fill-rule:evenodd;"
points="16071,15688
16087,15689
16117,15698
16146,15707
16201,15736
16249,15776
16288,15824
16317,15878
16335,15938
16342,16000
16335,16061
16317,16121
16288,16175
16249,16223
16201,16263
16146,16292
16117,16301
16087,16310
16071,16311
16041,16314
15458,16314
15428,16311
15412,16310
15382,16301
15353,16292
15298,16263
15250,16223
15211,16175
15182,16121
15164,16061
15157,16000
15164,15938
15182,15878
15211,15824
15250,15776
15298,15736
15353,15707
15382,15698
15412,15689
15428,15688
15458,15685
16041,15685
16071,15688
" /> 
<polyline style="fill-rule:evenodd;"
points="11216,14897
11216,14897
11216,14897
11289,14919
11357,14955
11416,15004
11465,15063
11495,15121
11501,15131
11523,15205
11531,15281
11523,15357
11523,15357
11523,15357
11501,15431
11465,15499
11416,15558
11357,15607
11289,15643
11216,15665
11216,15665
11216,15665
11158,15671
10341,15671
10283,15665
10283,15665
10283,15665
10210,15643
10142,15607
10083,15558
10034,15499
9998,15431
9976,15357
9976,15357
9976,15357
9968,15281
9976,15205
9998,15131
10004,15121
10034,15063
10083,15004
10142,14955
10210,14919
10283,14897
10283,14897
10283,14897
10341,14891
11158,14891
11216,14897
" /> 
<polyline style="fill-rule:evenodd;"
points="21274,14861
21274,14861
21274,14861
21348,14884
21348,14884
21416,14921
21476,14970
21525,15030
21562,15098
21584,15172
21592,15250
21584,15327
21584,15327
21584,15327
21563,15396
21562,15401
21525,15469
21476,15529
21416,15578
21416,15578
21348,15615
21274,15638
21274,15638
21274,15638
21216,15643
20783,15643
20725,15638
20725,15638
20725,15638
20651,15615
20583,15578
20583,15578
20523,15529
20474,15469
20437,15401
20436,15396
20415,15327
20415,15327
20415,15327
20407,15250
20415,15172
20437,15098
20474,15030
20523,14970
20583,14921
20651,14884
20651,14884
20725,14861
20725,14861
20725,14861
20783,14856
21216,14856
21274,14861
" /> 
<polyline style="fill-rule:evenodd;"
points="24274,14861
24274,14861
24274,14861
24348,14884
24348,14884
24416,14921
24476,14970
24525,15030
24562,15098
24584,15172
24592,15250
24584,15327
24584,15327
24584,15327
24563,15396
24562,15401
24525,15469
24476,15529
24416,15578
24416,15578
24348,15615
24274,15638
24274,15638
24274,15638
24216,15643
23783,15643
23725,15638
23725,15638
23725,15638
23651,15615
23583,15578
23583,15578
23523,15529
23474,15469
23437,15401
23436,15396
23415,15327
23415,15327
23415,15327
23407,15250
23415,15172
23437,15098
23474,15030
23523,14970
23583,14921
23651,14884
23651,14884
23725,14861
23725,14861
23725,14861
23783,14856
24216,14856
24274,14861
" /> 
<polyline style="fill-rule:evenodd;"
points="14311,14414
14341,14423
14371,14432
14425,14461
14473,14500
14513,14548
14542,14603
14560,14662
14564,14708
14564,15291
14560,15337
14542,15396
14513,15451
14473,15499
14473,15499
14473,15499
14473,15499
14425,15538
14371,15567
14341,15576
14311,15585
14250,15592
14188,15585
14158,15576
14128,15567
14074,15538
14026,15499
14026,15499
14026,15499
13986,15451
13960,15401
13957,15396
13945,15357
13939,15337
13936,15310
13935,15291
13935,14708
13939,14662
13957,14603
13986,14548
14026,14500
14074,14461
14128,14432
14158,14423
14188,14414
14250,14407
14311,14414
" /> 
<polyline style="fill-rule:evenodd;"
points="16071,14688
16087,14689
16117,14698
16146,14707
16201,14736
16249,14776
16288,14824
16317,14878
16319,14884
16335,14938
16342,15000
16335,15061
16326,15091
16317,15121
16288,15175
16249,15223
16201,15263
16146,15292
16117,15301
16087,15310
16071,15311
16041,15314
15458,15314
15428,15311
15412,15310
15382,15301
15353,15292
15298,15263
15250,15223
15211,15175
15182,15121
15173,15091
15164,15061
15157,15000
15164,14938
15180,14884
15182,14878
15211,14824
15250,14776
15298,14736
15353,14707
15382,14698
15412,14689
15428,14688
15458,14685
16041,14685
16071,14688
" /> 
<polyline style="fill-rule:evenodd;"
points="19071,14688
19087,14689
19117,14698
19146,14707
19201,14736
19249,14776
19288,14824
19317,14878
19319,14884
19335,14938
19342,15000
19335,15061
19326,15091
19317,15121
19288,15175
19249,15223
19201,15263
19146,15292
19117,15301
19087,15310
19071,15311
19041,15314
18458,15314
18428,15311
18412,15310
18382,15301
18353,15292
18298,15263
18250,15223
18211,15175
18182,15121
18173,15091
18164,15061
18157,15000
18164,14938
18180,14884
18182,14878
18211,14824
18250,14776
18298,14736
18353,14707
18382,14698
18412,14689
18428,14688
18458,14685
19041,14685
19071,14688
" /> 
<polyline style="fill-rule:evenodd;"
points="16024,12861
16024,12861
16024,12861
16098,12884
16098,12884
16166,12921
16226,12970
16275,13030
16275,13030
16312,13098
16326,13144
16334,13172
16342,13250
16334,13327
16334,13327
16334,13327
16314,13395
16312,13401
16275,13469
16226,13529
16166,13578
16166,13578
16098,13615
16024,13638
16024,13638
16024,13638
15966,13643
15533,13643
15475,13638
15475,13638
15475,13638
15401,13615
15333,13578
15333,13578
15273,13529
15224,13469
15187,13401
15185,13395
15165,13327
15165,13327
15165,13327
15157,13250
15165,13172
15173,13144
15187,13098
15224,13030
15224,13030
15273,12970
15333,12921
15401,12884
15401,12884
15475,12861
15475,12861
15475,12861
15533,12856
15966,12856
16024,12861
" /> 
<polyline style="fill-rule:evenodd;"
points="24274,12861
24274,12861
24274,12861
24348,12884
24348,12884
24416,12921
24476,12970
24525,13030
24525,13030
24562,13098
24576,13144
24584,13172
24592,13250
24584,13327
24584,13327
24584,13327
24564,13395
24562,13401
24525,13469
24476,13529
24416,13578
24416,13578
24348,13615
24274,13638
24274,13638
24274,13638
24216,13643
23783,13643
23725,13638
23725,13638
23725,13638
23651,13615
23583,13578
23583,13578
23523,13529
23474,13469
23437,13401
23435,13395
23415,13327
23415,13327
23415,13327
23407,13250
23415,13172
23423,13144
23437,13098
23474,13030
23474,13030
23523,12970
23583,12921
23651,12884
23651,12884
23725,12861
23725,12861
23725,12861
23783,12856
24216,12856
24274,12861
" /> 
<polyline style="fill-rule:evenodd;"
points="21274,12861
21274,12861
21274,12861
21348,12884
21348,12884
21416,12921
21476,12970
21525,13030
21525,13030
21562,13098
21576,13144
21584,13172
21592,13250
21584,13327
21584,13327
21584,13327
21564,13395
21562,13401
21525,13469
21476,13529
21416,13578
21416,13578
21348,13615
21274,13638
21274,13638
21274,13638
21216,13643
20783,13643
20725,13638
20725,13638
20725,13638
20651,13615
20583,13578
20583,13578
20523,13529
20474,13469
20437,13401
20435,13395
20415,13327
20415,13327
20415,13327
20407,13250
20415,13172
20423,13144
20437,13098
20474,13030
20474,13030
20523,12970
20583,12921
20651,12884
20651,12884
20725,12861
20725,12861
20725,12861
20783,12856
21216,12856
21274,12861
" /> 
<polyline style="fill-rule:evenodd;"
points="19024,12861
19024,12861
19024,12861
19098,12884
19098,12884
19166,12921
19226,12970
19275,13030
19275,13030
19312,13098
19326,13144
19334,13172
19342,13250
19334,13327
19334,13327
19334,13327
19314,13395
19312,13401
19275,13469
19226,13529
19166,13578
19166,13578
19098,13615
19024,13638
19024,13638
19024,13638
18966,13643
18533,13643
18475,13638
18475,13638
18475,13638
18401,13615
18333,13578
18333,13578
18273,13529
18224,13469
18187,13401
18185,13395
18165,13327
18165,13327
18165,13327
18157,13250
18165,13172
18173,13144
18187,13098
18224,13030
18224,13030
18273,12970
18333,12921
18401,12884
18401,12884
18475,12861
18475,12861
18475,12861
18533,12856
18966,12856
19024,12861
" /> 
<polyline style="fill-rule:evenodd;"
points="10827,12285
10827,12285
10827,12285
10901,12307
10901,12307
10901,12307
10969,12344
11029,12393
11078,12453
11115,12521
11138,12595
11143,12653
11143,13086
11138,13144
11138,13144
11138,13144
11115,13218
11115,13218
11078,13286
11029,13346
10969,13395
10969,13395
10901,13432
10827,13454
10827,13454
10827,13454
10750,13462
10672,13454
10672,13454
10672,13454
10598,13432
10530,13395
10530,13395
10470,13346
10421,13286
10384,13218
10361,13144
10356,13086
10356,12653
10361,12595
10361,12595
10384,12521
10384,12521
10384,12521
10421,12453
10470,12393
10530,12344
10598,12307
10598,12307
10672,12285
10672,12285
10672,12285
10750,12277
10827,12285
" /> 
<polyline style="fill-rule:evenodd;"
points="9827,12285
9827,12285
9827,12285
9901,12307
9901,12307
9901,12307
9969,12344
10029,12393
10078,12453
10115,12521
10138,12595
10143,12653
10143,13086
10138,13144
10138,13144
10138,13144
10115,13218
10115,13218
10078,13286
10029,13346
9969,13395
9969,13395
9901,13432
9827,13454
9827,13454
9827,13454
9750,13462
9672,13454
9672,13454
9672,13454
9598,13432
9530,13395
9530,13395
9470,13346
9421,13286
9384,13218
9361,13144
9356,13086
9356,12653
9361,12595
9361,12595
9384,12521
9384,12521
9384,12521
9421,12453
9470,12393
9530,12344
9598,12307
9598,12307
9672,12285
9672,12285
9672,12285
9750,12277
9827,12285
" /> 
<polyline style="fill-rule:evenodd;"
points="12143,13460
11356,13460
11356,12279
12143,12279
12143,13460
" /> 
<polyline style="fill-rule:evenodd;"
points="24274,10861
24274,10861
24274,10861
24348,10884
24348,10884
24416,10921
24476,10970
24525,11030
24525,11030
24562,11098
24584,11172
24584,11172
24592,11250
24584,11327
24584,11327
24584,11327
24582,11334
24562,11401
24525,11469
24476,11529
24416,11578
24416,11578
24348,11615
24274,11638
24274,11638
24274,11638
24216,11643
23783,11643
23725,11638
23725,11638
23725,11638
23651,11615
23583,11578
23583,11578
23523,11529
23474,11469
23437,11401
23417,11334
23415,11327
23415,11327
23415,11327
23407,11250
23415,11172
23415,11172
23437,11098
23474,11030
23474,11030
23523,10970
23583,10921
23651,10884
23651,10884
23725,10861
23725,10861
23725,10861
23783,10856
24216,10856
24274,10861
" /> 
<polyline style="fill-rule:evenodd;"
points="21274,10861
21274,10861
21274,10861
21348,10884
21348,10884
21416,10921
21476,10970
21525,11030
21525,11030
21562,11098
21584,11172
21584,11172
21592,11250
21584,11327
21584,11327
21584,11327
21582,11334
21562,11401
21525,11469
21476,11529
21416,11578
21416,11578
21348,11615
21274,11638
21274,11638
21274,11638
21216,11643
20783,11643
20725,11638
20725,11638
20725,11638
20651,11615
20583,11578
20583,11578
20523,11529
20474,11469
20437,11401
20417,11334
20415,11327
20415,11327
20415,11327
20407,11250
20415,11172
20415,11172
20437,11098
20474,11030
20474,11030
20523,10970
20583,10921
20651,10884
20651,10884
20725,10861
20725,10861
20725,10861
20783,10856
21216,10856
21274,10861
" /> 
<polyline style="fill-rule:evenodd;"
points="19024,10861
19024,10861
19024,10861
19098,10884
19098,10884
19166,10921
19226,10970
19275,11030
19275,11030
19312,11098
19334,11172
19334,11172
19342,11250
19334,11327
19334,11327
19334,11327
19332,11334
19312,11401
19275,11469
19226,11529
19166,11578
19166,11578
19098,11615
19024,11638
19024,11638
19024,11638
18966,11643
18533,11643
18475,11638
18475,11638
18475,11638
18401,11615
18333,11578
18333,11578
18273,11529
18224,11469
18187,11401
18167,11334
18165,11327
18165,11327
18165,11327
18157,11250
18165,11172
18165,11172
18187,11098
18224,11030
18224,11030
18273,10970
18333,10921
18401,10884
18401,10884
18475,10861
18475,10861
18475,10861
18533,10856
18966,10856
19024,10861
" /> 
<polyline style="fill-rule:evenodd;"
points="16024,10861
16024,10861
16024,10861
16098,10884
16098,10884
16166,10921
16226,10970
16275,11030
16275,11030
16312,11098
16334,11172
16334,11172
16342,11250
16334,11327
16334,11327
16334,11327
16332,11334
16312,11401
16275,11469
16226,11529
16166,11578
16166,11578
16098,11615
16024,11638
16024,11638
16024,11638
15966,11643
15533,11643
15475,11638
15475,11638
15475,11638
15401,11615
15333,11578
15333,11578
15273,11529
15224,11469
15187,11401
15167,11334
15165,11327
15165,11327
15165,11327
15157,11250
15165,11172
15165,11172
15187,11098
15224,11030
15224,11030
15273,10970
15333,10921
15401,10884
15401,10884
15475,10861
15475,10861
15475,10861
15533,10856
15966,10856
16024,10861
" /> 
<polyline style="fill-rule:evenodd;"
points="9827,10165
9827,10165
9827,10165
9901,10187
9901,10187
9901,10187
9969,10224
10029,10273
10078,10333
10115,10401
10138,10475
10143,10533
10143,10966
10138,11024
10138,11024
10138,11024
10115,11098
10115,11098
10078,11166
10029,11226
9969,11275
9969,11275
9901,11312
9827,11334
9827,11334
9827,11334
9750,11342
9672,11334
9672,11334
9672,11334
9598,11312
9530,11275
9530,11275
9470,11226
9421,11166
9384,11098
9361,11024
9356,10966
9356,10533
9361,10475
9361,10475
9384,10401
9384,10401
9384,10401
9421,10333
9470,10273
9530,10224
9598,10187
9598,10187
9672,10165
9672,10165
9672,10165
9750,10157
9827,10165
" /> 
<polyline style="fill-rule:evenodd;"
points="10827,10165
10827,10165
10827,10165
10901,10187
10901,10187
10901,10187
10969,10224
11029,10273
11078,10333
11115,10401
11138,10475
11143,10533
11143,10966
11138,11024
11138,11024
11138,11024
11115,11098
11115,11098
11078,11166
11029,11226
10969,11275
10969,11275
10901,11312
10827,11334
10827,11334
10827,11334
10750,11342
10672,11334
10672,11334
10672,11334
10598,11312
10530,11275
10530,11275
10470,11226
10421,11166
10384,11098
10361,11024
10356,10966
10356,10533
10361,10475
10361,10475
10384,10401
10384,10401
10384,10401
10421,10333
10470,10273
10530,10224
10598,10187
10598,10187
10672,10165
10672,10165
10672,10165
10750,10157
10827,10165
" /> 
<polyline style="fill-rule:evenodd;"
points="11827,10165
11827,10165
11827,10165
11901,10187
11901,10187
11901,10187
11969,10224
12029,10273
12078,10333
12115,10401
12138,10475
12143,10533
12143,10966
12138,11024
12138,11024
12138,11024
12115,11098
12115,11098
12078,11166
12029,11226
11969,11275
11969,11275
11901,11312
11827,11334
11827,11334
11827,11334
11750,11342
11672,11334
11672,11334
11672,11334
11598,11312
11530,11275
11530,11275
11470,11226
11421,11166
11384,11098
11361,11024
11356,10966
11356,10533
11361,10475
11361,10475
11384,10401
11384,10401
11384,10401
11421,10333
11470,10273
11530,10224
11598,10187
11598,10187
11672,10165
11672,10165
11672,10165
11750,10157
11827,10165
" /> 
<polyline style="fill-rule:evenodd;"
points="25569,7862
25614,7871
25686,7901
25750,7944
25805,7999
25848,8063
25878,8135
25893,8211
25893,8288
25878,8364
25848,8436
25805,8500
25750,8555
25686,8598
25614,8628
25569,8637
25538,8643
25461,8643
25430,8637
25385,8628
25313,8598
25249,8555
25194,8500
25151,8436
25121,8364
25106,8288
25106,8211
25121,8135
25151,8063
25194,7999
25249,7944
25313,7901
25385,7871
25430,7862
25461,7856
25538,7856
25569,7862
" /> 
<polyline style="fill-rule:evenodd;"
points="8069,7862
8114,7871
8186,7901
8250,7944
8305,7999
8348,8063
8378,8135
8393,8211
8393,8288
8378,8364
8348,8436
8305,8500
8250,8555
8186,8598
8114,8628
8069,8637
8038,8643
7961,8643
7930,8637
7885,8628
7813,8598
7749,8555
7694,8500
7651,8436
7621,8364
7606,8288
7606,8211
7621,8135
7651,8063
7694,7999
7749,7944
7813,7901
7885,7871
7930,7862
7961,7856
8038,7856
8069,7862
" /> 
</g> 
</svg>
