<?xml version="1.0" standalone="no"?>
 <!DOCTYPE svg PUBLIC "-//W3C//DTD SVG 1.1//EN" 
 "http://www.w3.org/Graphics/SVG/1.1/DTD/svg11.dtd"> 
<svg xmlns="http://www.w3.org/2000/svg" version="1.1" 
    width="21.59cm" height="14.0005cm" viewBox="0 0 85000 55120 ">
<title>SVG Picture created as ponta-de-prova-logica-simplificada-B.Cu.svg date 2019/04/09 20:48:05 </title>
  <desc>Picture generated by PCBNEW </desc>
<g style="fill:#000000; fill-opacity:1;stroke:#000000; stroke-opacity:1;
stroke-linecap:round; stroke-linejoin:round; "
 transform="translate(0 0) scale(1 1)">
</g>
<g style="fill:#000000; fill-opacity:0.0; 
stroke:#000000; stroke-width:-0.000393701; stroke-opacity:1; 
stroke-linecap:round; stroke-linejoin:round;">
</g>
<g style="fill:#000000; fill-opacity:0.0; 
stroke:#000000; stroke-width:78.7402; stroke-opacity:1; 
stroke-linecap:round; stroke-linejoin:round;">
<path d="M30471 8275
L30471 8406
" />
<path d="M30678 8462
L30678 8275
L30284 8275
L30284 8462
" />
<path d="M30284 8575
L30284 8800
" />
<path d="M30678 8687
L30284 8687
" />
<path d="M30471 8931
L30471 9062
" />
<path d="M30678 9118
L30678 8931
L30284 8931
L30284 9118
" />
<path d="M30678 9493
L30678 9268
" />
<path d="M30678 9381
L30284 9381
L30340 9343
L30378 9306
L30396 9268
" />
<path d="M30284 9737
L30284 9774
L30303 9812
L30321 9831
L30359 9849
L30434 9868
L30528 9868
L30603 9849
L30640 9831
L30659 9812
L30678 9774
L30678 9737
L30659 9699
L30640 9681
L30603 9662
L30528 9643
L30434 9643
L30359 9662
L30321 9681
L30303 9699
L30284 9737
" />
<path d="M30321 10018
L30303 10037
L30284 10074
L30284 10168
L30303 10206
L30321 10224
L30359 10243
L30396 10243
L30453 10224
L30678 9999
L30678 10243
" />
<path d="M31928 8434
L31740 8303
" />
<path d="M31928 8209
L31534 8209
L31534 8359
L31553 8396
L31571 8415
L31609 8434
L31665 8434
L31703 8415
L31721 8396
L31740 8359
L31740 8209
" />
<path d="M31909 8753
L31928 8715
L31928 8640
L31909 8603
L31871 8584
L31721 8584
L31684 8603
L31665 8640
L31665 8715
L31684 8753
L31721 8771
L31759 8771
L31796 8584
" />
<path d="M31665 8903
L31928 8996
L31665 9090
" />
<path d="M31890 9240
L31909 9259
L31928 9240
L31909 9221
L31890 9240
L31928 9240
" />
<path d="M31534 9803
L31534 9840
L31553 9878
L31571 9896
L31609 9915
L31684 9934
L31778 9934
L31853 9915
L31890 9896
L31909 9878
L31928 9840
L31928 9803
L31909 9765
L31890 9746
L31853 9728
L31778 9709
L31684 9709
L31609 9728
L31571 9746
L31553 9765
L31534 9803
" />
<path d="M31534 10065
L31534 10309
L31684 10178
L31684 10234
L31703 10271
L31721 10290
L31759 10309
L31853 10309
L31890 10290
L31909 10271
L31928 10234
L31928 10121
L31909 10084
L31890 10065
" />
</g>
<g style="fill:#000000; fill-opacity:0.0; 
stroke:#000000; stroke-width:39.3701; stroke-opacity:1; 
stroke-linecap:round; stroke-linejoin:round;">
<path d="M7000 24250 A1000 1000 0.0 0 0 8000 25250 " />
<path d="M32000 25250 A1000 1000 0.0 0 0 33000 24250 " />
<path d="M33000 8250 A1000 1000 0.0 0 0 32000 7250 " />
<path d="M8000 7250 A1000 1000 0.0 0 0 7000 8250 " />
<path d="M8000 25250
L32000 25250
" />
<path d="M7000 8250
L7000 24250
" />
<path d="M32000 7250
L8000 7250
" />
<path d="M33000 24250
L33000 8250
" />
</g>
<g style="fill:#000000; fill-opacity:0.0; 
stroke:#000000; stroke-width:787.402; stroke-opacity:1; 
stroke-linecap:round; stroke-linejoin:round;">
<path d="M11750 10553
L11750 10946
" />
<path d="M10750 10553
L10750 10946
" />
<path d="M9750 10553
L9750 10946
" />
<path d="M9750 12673
L9750 13066
" />
<path d="M10750 12673
L10750 13066
" />
</g>
<g style="fill:#000000; fill-opacity:0.0; 
stroke:#000000; stroke-width:0; stroke-opacity:1; 
stroke-linecap:round; stroke-linejoin:round;">
</g>
<g style="fill:#000000; fill-opacity:1.0; 
stroke:#000000; stroke-width:0; stroke-opacity:1; 
stroke-linecap:round; stroke-linejoin:round;">
<polyline style="fill-rule:evenodd;"
points="11356,13460
11356,12279
12143,12279
12143,13460
11356,13460
" /> 
<circle cx="25500" cy="24250" r="393.701" /> 
</g>
<g style="fill:#000000; fill-opacity:1.0; 
stroke:#000000; stroke-width:39.3701; stroke-opacity:1; 
stroke-linecap:round; stroke-linejoin:round;">
</g>
<g style="fill:#000000; fill-opacity:1.0; 
stroke:#000000; stroke-width:0; stroke-opacity:1; 
stroke-linecap:round; stroke-linejoin:round;">
<circle cx="8000" cy="24250" r="393.701" /> 
</g>
<g style="fill:#000000; fill-opacity:1.0; 
stroke:#000000; stroke-width:39.3701; stroke-opacity:1; 
stroke-linecap:round; stroke-linejoin:round;">
</g>
<g style="fill:#000000; fill-opacity:1.0; 
stroke:#000000; stroke-width:0; stroke-opacity:1; 
stroke-linecap:round; stroke-linejoin:round;">
<circle cx="25500" cy="8250" r="393.701" /> 
</g>
<g style="fill:#000000; fill-opacity:1.0; 
stroke:#000000; stroke-width:39.3701; stroke-opacity:1; 
stroke-linecap:round; stroke-linejoin:round;">
</g>
<g style="fill:#000000; fill-opacity:1.0; 
stroke:#000000; stroke-width:0; stroke-opacity:1; 
stroke-linecap:round; stroke-linejoin:round;">
<circle cx="8000" cy="8250" r="393.701" /> 
</g>
<g style="fill:#000000; fill-opacity:1.0; 
stroke:#000000; stroke-width:39.3701; stroke-opacity:1; 
stroke-linecap:round; stroke-linejoin:round;">
</g>
<g style="fill:#000000; fill-opacity:1.0; 
stroke:#000000; stroke-width:0; stroke-opacity:1; 
stroke-linecap:round; stroke-linejoin:round;">
<circle cx="26250" cy="16250" r="787.402" /> 
</g>
<g style="fill:#000000; fill-opacity:1.0; 
stroke:#000000; stroke-width:39.3701; stroke-opacity:1; 
stroke-linecap:round; stroke-linejoin:round;">
</g>
<g style="fill:#000000; fill-opacity:1.0; 
stroke:#000000; stroke-width:0; stroke-opacity:1; 
stroke-linecap:round; stroke-linejoin:round;">
<circle cx="31750" cy="16250" r="787.402" /> 
</g>
<g style="fill:#000000; fill-opacity:1.0; 
stroke:#000000; stroke-width:39.3701; stroke-opacity:1; 
stroke-linecap:round; stroke-linejoin:round;">
</g>
<g style="fill:#000000; fill-opacity:1.0; 
stroke:#000000; stroke-width:787.402; stroke-opacity:1; 
stroke-linecap:round; stroke-linejoin:round;">
</g>
<g style="fill:#000000; fill-opacity:0.0; 
stroke:#000000; stroke-width:787.402; stroke-opacity:1; 
stroke-linecap:round; stroke-linejoin:round;">
<path d="M12053 21000
L12446 21000
" />
<path d="M9053 21000
L9446 21000
" />
</g>
<g style="fill:#000000; fill-opacity:0.0; 
stroke:#000000; stroke-width:0; stroke-opacity:1; 
stroke-linecap:round; stroke-linejoin:round;">
</g>
<g style="fill:#000000; fill-opacity:1.0; 
stroke:#000000; stroke-width:0; stroke-opacity:1; 
stroke-linecap:round; stroke-linejoin:round;">
<polyline style="fill-rule:evenodd;"
points="9106,22106
9893,22106
9893,22893
9106,22893
9106,22106
" /> 
</g>
<g style="fill:#000000; fill-opacity:1.0; 
stroke:#000000; stroke-width:787.402; stroke-opacity:1; 
stroke-linecap:round; stroke-linejoin:round;">
</g>
<g style="fill:#000000; fill-opacity:0.0; 
stroke:#000000; stroke-width:787.402; stroke-opacity:1; 
stroke-linecap:round; stroke-linejoin:round;">
<path d="M9696 23500
L9303 23500
" />
<path d="M18946 11250
L18553 11250
" />
<path d="M15946 11250
L15553 11250
" />
</g>
<g style="fill:#000000; fill-opacity:0.0; 
stroke:#000000; stroke-width:629.921; stroke-opacity:1; 
stroke-linecap:round; stroke-linejoin:round;">
<path d="M16025 21000
L15474 21000
" />
<path d="M19025 15000
L18474 15000
" />
<path d="M16025 20000
L15474 20000
" />
<path d="M19025 16000
L18474 16000
" />
<path d="M16025 19000
L15474 19000
" />
<path d="M19025 17000
L18474 17000
" />
<path d="M16025 18000
L15474 18000
" />
<path d="M19025 18000
L18474 18000
" />
<path d="M16025 17000
L15474 17000
" />
<path d="M19025 19000
L18474 19000
" />
<path d="M16025 16000
L15474 16000
" />
<path d="M19025 20000
L18474 20000
" />
<path d="M16025 15000
L15474 15000
" />
</g>
<g style="fill:#000000; fill-opacity:0.0; 
stroke:#000000; stroke-width:0; stroke-opacity:1; 
stroke-linecap:round; stroke-linejoin:round;">
</g>
<g style="fill:#000000; fill-opacity:1.0; 
stroke:#000000; stroke-width:0; stroke-opacity:1; 
stroke-linecap:round; stroke-linejoin:round;">
<polyline style="fill-rule:evenodd;"
points="19340,20685
19340,21314
18159,21314
18159,20685
19340,20685
" /> 
</g>
<g style="fill:#000000; fill-opacity:1.0; 
stroke:#000000; stroke-width:629.921; stroke-opacity:1; 
stroke-linecap:round; stroke-linejoin:round;">
</g>
<g style="fill:#000000; fill-opacity:0.0; 
stroke:#000000; stroke-width:629.921; stroke-opacity:1; 
stroke-linecap:round; stroke-linejoin:round;">
<path d="M14250 18807
L14250 18255
" />
<path d="M14250 20775
L14250 20224
" />
<path d="M14250 14724
L14250 15275
" />
<path d="M14250 16692
L14250 17244
" />
</g>
<g style="fill:#000000; fill-opacity:0.0; 
stroke:#000000; stroke-width:787.402; stroke-opacity:1; 
stroke-linecap:round; stroke-linejoin:round;">
<path d="M23803 17250
L24196 17250
" />
<path d="M20803 17250
L21196 17250
" />
<path d="M12196 23500
L11803 23500
" />
</g>
<g style="fill:#000000; fill-opacity:0.0; 
stroke:#000000; stroke-width:0; stroke-opacity:1; 
stroke-linecap:round; stroke-linejoin:round;">
</g>
<g style="fill:#000000; fill-opacity:1.0; 
stroke:#000000; stroke-width:0; stroke-opacity:1; 
stroke-linecap:round; stroke-linejoin:round;">
<polyline style="fill-rule:evenodd;"
points="11606,22106
12393,22106
12393,22893
11606,22893
11606,22106
" /> 
<polyline style="fill-rule:evenodd;"
points="11529,17639
9970,17639
9970,16860
11529,16860
11529,17639
" /> 
</g>
<g style="fill:#000000; fill-opacity:1.0; 
stroke:#000000; stroke-width:779.528; stroke-opacity:1; 
stroke-linecap:round; stroke-linejoin:round;">
</g>
<g style="fill:#000000; fill-opacity:0.0; 
stroke:#000000; stroke-width:779.528; stroke-opacity:1; 
stroke-linecap:round; stroke-linejoin:round;">
<path d="M10360 15281
L11139 15281
" />
</g>
<g style="fill:#000000; fill-opacity:1.0; 
stroke:#000000; stroke-width:0; stroke-opacity:1; 
stroke-linecap:round; stroke-linejoin:round;">
<circle cx="25500" cy="21250" r="393.5" /> 
</g>
<g style="fill:#000000; fill-opacity:1.0; 
stroke:#000000; stroke-width:39.3701; stroke-opacity:1; 
stroke-linecap:round; stroke-linejoin:round;">
</g>
<g style="fill:#000000; fill-opacity:1.0; 
stroke:#000000; stroke-width:787.402; stroke-opacity:1; 
stroke-linecap:round; stroke-linejoin:round;">
</g>
<g style="fill:#000000; fill-opacity:0.0; 
stroke:#000000; stroke-width:787.402; stroke-opacity:1; 
stroke-linecap:round; stroke-linejoin:round;">
<path d="M18553 13250
L18946 13250
" />
<path d="M15553 13250
L15946 13250
" />
<path d="M23803 15250
L24196 15250
" />
<path d="M20803 15250
L21196 15250
" />
<path d="M23803 11250
L24196 11250
" />
<path d="M20803 11250
L21196 11250
" />
<path d="M20803 13250
L21196 13250
" />
<path d="M23803 13250
L24196 13250
" />
<path d="M20803 19250
L21196 19250
" />
<path d="M23803 19250
L24196 19250
" />
<path d="M20803 23250
L21196 23250
" />
<path d="M23803 23250
L24196 23250
" />
<path d="M21196 21250
L20803 21250
" />
<path d="M24196 21250
L23803 21250
" />
<path d="M18946 23250
L18553 23250
" />
<path d="M15946 23250
L15553 23250
" />
<path d="M12053 19500
L12446 19500
" />
<path d="M9053 19500
L9446 19500
" />
</g>
<g style="fill:#000000; fill-opacity:1.0; 
stroke:#000000; stroke-width:0; stroke-opacity:1; 
stroke-linecap:round; stroke-linejoin:round;">
<circle cx="25500" cy="10750" r="393.701" /> 
</g>
<g style="fill:#000000; fill-opacity:1.0; 
stroke:#000000; stroke-width:39.3701; stroke-opacity:1; 
stroke-linecap:round; stroke-linejoin:round;">
</g>
<g style="fill:#000000; fill-opacity:1.0; 
stroke:#000000; stroke-width:0; stroke-opacity:1; 
stroke-linecap:round; stroke-linejoin:round;">
<circle cx="25500" cy="13500" r="393.701" /> 
</g>
<g style="fill:#000000; fill-opacity:1.0; 
stroke:#000000; stroke-width:39.3701; stroke-opacity:1; 
stroke-linecap:round; stroke-linejoin:round;">
</g>
<g style="fill:#000000; fill-opacity:1.0; 
stroke:#000000; stroke-width:0; stroke-opacity:1; 
stroke-linecap:round; stroke-linejoin:round;">
<circle cx="13750" cy="10250" r="393.701" /> 
</g>
<g style="fill:#000000; fill-opacity:1.0; 
stroke:#000000; stroke-width:39.3701; stroke-opacity:1; 
stroke-linecap:round; stroke-linejoin:round;">
</g>
<g style="fill:#000000; fill-opacity:1.0; 
stroke:#000000; stroke-width:0; stroke-opacity:1; 
stroke-linecap:round; stroke-linejoin:round;">
<circle cx="22500" cy="10250" r="393.701" /> 
</g>
<g style="fill:#000000; fill-opacity:1.0; 
stroke:#000000; stroke-width:39.3701; stroke-opacity:1; 
stroke-linecap:round; stroke-linejoin:round;">
</g>
<g style="fill:#000000; fill-opacity:1.0; 
stroke:#000000; stroke-width:0; stroke-opacity:1; 
stroke-linecap:round; stroke-linejoin:round;">
<circle cx="18750" cy="12250" r="393.701" /> 
</g>
<g style="fill:#000000; fill-opacity:1.0; 
stroke:#000000; stroke-width:39.3701; stroke-opacity:1; 
stroke-linecap:round; stroke-linejoin:round;">
</g>
<g style="fill:#000000; fill-opacity:1.0; 
stroke:#000000; stroke-width:0; stroke-opacity:1; 
stroke-linecap:round; stroke-linejoin:round;">
<circle cx="22500" cy="12250" r="393.701" /> 
</g>
<g style="fill:#000000; fill-opacity:1.0; 
stroke:#000000; stroke-width:39.3701; stroke-opacity:1; 
stroke-linecap:round; stroke-linejoin:round;">
</g>
<g style="fill:#000000; fill-opacity:1.0; 
stroke:#000000; stroke-width:0; stroke-opacity:1; 
stroke-linecap:round; stroke-linejoin:round;">
<circle cx="13750" cy="12250" r="393.701" /> 
</g>
<g style="fill:#000000; fill-opacity:1.0; 
stroke:#000000; stroke-width:39.3701; stroke-opacity:1; 
stroke-linecap:round; stroke-linejoin:round;">
</g>
<g style="fill:#000000; fill-opacity:1.0; 
stroke:#000000; stroke-width:0; stroke-opacity:1; 
stroke-linecap:round; stroke-linejoin:round;">
<circle cx="17750" cy="12250" r="393.701" /> 
</g>
<g style="fill:#000000; fill-opacity:1.0; 
stroke:#000000; stroke-width:39.3701; stroke-opacity:1; 
stroke-linecap:round; stroke-linejoin:round;">
</g>
<g style="fill:#000000; fill-opacity:1.0; 
stroke:#000000; stroke-width:0; stroke-opacity:1; 
stroke-linecap:round; stroke-linejoin:round;">
<circle cx="20000" cy="22000" r="393.701" /> 
</g>
<g style="fill:#000000; fill-opacity:1.0; 
stroke:#000000; stroke-width:39.3701; stroke-opacity:1; 
stroke-linecap:round; stroke-linejoin:round;">
</g>
<g style="fill:#000000; fill-opacity:1.0; 
stroke:#000000; stroke-width:0; stroke-opacity:1; 
stroke-linecap:round; stroke-linejoin:round;">
<circle cx="20000" cy="16500" r="393.701" /> 
</g>
<g style="fill:#000000; fill-opacity:1.0; 
stroke:#000000; stroke-width:39.3701; stroke-opacity:1; 
stroke-linecap:round; stroke-linejoin:round;">
</g>
<g style="fill:#000000; fill-opacity:1.0; 
stroke:#000000; stroke-width:0; stroke-opacity:1; 
stroke-linecap:round; stroke-linejoin:round;">
<circle cx="20000" cy="18250" r="393.701" /> 
</g>
<g style="fill:#000000; fill-opacity:1.0; 
stroke:#000000; stroke-width:39.3701; stroke-opacity:1; 
stroke-linecap:round; stroke-linejoin:round;">
</g>
<g style="fill:#000000; fill-opacity:1.0; 
stroke:#000000; stroke-width:0; stroke-opacity:1; 
stroke-linecap:round; stroke-linejoin:round;">
<circle cx="20000" cy="13850" r="393.701" /> 
</g>
<g style="fill:#000000; fill-opacity:1.0; 
stroke:#000000; stroke-width:39.3701; stroke-opacity:1; 
stroke-linecap:round; stroke-linejoin:round;">
</g>
<g style="fill:#000000; fill-opacity:1.0; 
stroke:#000000; stroke-width:0; stroke-opacity:1; 
stroke-linecap:round; stroke-linejoin:round;">
<circle cx="10750" cy="9250" r="393.701" /> 
</g>
<g style="fill:#000000; fill-opacity:1.0; 
stroke:#000000; stroke-width:39.3701; stroke-opacity:1; 
stroke-linecap:round; stroke-linejoin:round;">
</g>
<g style="fill:#000000; fill-opacity:1.0; 
stroke:#000000; stroke-width:0; stroke-opacity:1; 
stroke-linecap:round; stroke-linejoin:round;">
<circle cx="20000" cy="9250" r="393.701" /> 
</g>
<g style="fill:#000000; fill-opacity:1.0; 
stroke:#000000; stroke-width:39.3701; stroke-opacity:1; 
stroke-linecap:round; stroke-linejoin:round;">
</g>
<g style="fill:#000000; fill-opacity:1.0; 
stroke:#000000; stroke-width:0; stroke-opacity:1; 
stroke-linecap:round; stroke-linejoin:round;">
<circle cx="17750" cy="22250" r="393.701" /> 
</g>
<g style="fill:#000000; fill-opacity:1.0; 
stroke:#000000; stroke-width:39.3701; stroke-opacity:1; 
stroke-linecap:round; stroke-linejoin:round;">
</g>
<g style="fill:#000000; fill-opacity:1.0; 
stroke:#000000; stroke-width:0; stroke-opacity:1; 
stroke-linecap:round; stroke-linejoin:round;">
<circle cx="14000" cy="22250" r="393.701" /> 
</g>
<g style="fill:#000000; fill-opacity:1.0; 
stroke:#000000; stroke-width:39.3701; stroke-opacity:1; 
stroke-linecap:round; stroke-linejoin:round;">
</g>
<g style="fill:#000000; fill-opacity:1.0; 
stroke:#000000; stroke-width:196.85; stroke-opacity:1; 
stroke-linecap:round; stroke-linejoin:round;">
</g>
<g style="fill:#000000; fill-opacity:0.0; 
stroke:#000000; stroke-width:196.85; stroke-opacity:1; 
stroke-linecap:round; stroke-linejoin:round;">
<path d="M21000 18757
L21000 17250
" />
<path d="M21000 19250
L21000 18757
" />
<path d="M18750 17000
L18750 16000
" />
<path d="M21750 19250
L21000 19250
" />
<path d="M24000 23250
L23250 23250
" />
<path d="M23250 23250
L22500 22500
" />
<path d="M22500 22500
L22500 20000
" />
<path d="M22500 20000
L21750 19250
" />
<path d="M19000 15750
L18750 16000
" />
<path d="M20274 15750
L19000 15750
" />
<path d="M21000 16475
L20274 15750
" />
<path d="M21000 17250
L21000 16475
" />
<path d="M14500 15000
L14250 15000
" />
<path d="M15113 14386
L14500 15000
" />
<path d="M16279 14386
L15113 14386
" />
<path d="M18750 16000
L17893 16000
" />
<path d="M17893 16000
L16279 14386
" />
<path d="M9053 19500
L9250 19500
" />
<path d="M8361 20192
L9053 19500
" />
<path d="M8361 21951
L8361 20192
" />
<path d="M8909 22500
L8361 21951
" />
<path d="M9500 22500
L8909 22500
" />
<path d="M10500 21000
L12000 22500
" />
<path d="M9250 21000
L10500 21000
" />
<path d="M18750 13840
L18750 13250
" />
<path d="M20159 15250
L18750 13840
" />
<path d="M21000 15250
L20159 15250
" />
<path d="M25500 10000
L25500 10750
" />
<path d="M23500 8000
L25500 10000
" />
<path d="M9250 8000
L23500 8000
" />
<path d="M9000 12750
L9000 8250
" />
<path d="M9000 8250
L9250 8000
" />
<path d="M21688 15250
L21000 15250
" />
<path d="M22688 16250
L21688 15250
" />
<path d="M9120 12870
L9750 12870
" />
<path d="M9000 12750
L9120 12870
" />
<path d="M25500 14056
L25500 13500
" />
<path d="M25500 15392
L25500 14056
" />
<path d="M24642 16250
L25500 15392
" />
<path d="M22688 16250
L24642 16250
" />
<path d="M15750 11250
L15750 9807
" />
<path d="M15750 9807
L15750 8750
" />
<path d="M15750 8750
L16000 8500
" />
<path d="M21000 9000
L21000 11250
" />
<path d="M9750 10750
L9750 8750
" />
<path d="M9750 8750
L10000 8500
" />
<path d="M10000 8500
L20500 8500
" />
<path d="M20500 8500
L21000 9000
" />
<path d="M21000 12659
L21000 13250
" />
<path d="M22409 11250
L21000 12659
" />
<path d="M24000 11250
L22409 11250
" />
<path d="M13250 10750
L13750 10250
" />
<path d="M11750 10750
L13250 10750
" />
<path d="M22500 11159
L22409 11250
" />
<path d="M22500 10250
L22500 11159
" />
<path d="M23803 17250
L24000 17250
" />
<path d="M24000 21250
L23803 21250
" />
<path d="M23803 21250
L23000 20446
" />
<path d="M23000 20446
L23000 18053
" />
<path d="M23000 18053
L23803 17250
" />
<path d="M17750 19000
L18750 19000
" />
<path d="M14250 21500
L14500 21750
" />
<path d="M14250 20500
L14250 21500
" />
<path d="M14500 21750
L16250 21750
" />
<path d="M16250 21750
L17250 20750
" />
<path d="M17250 20750
L17250 19500
" />
<path d="M17250 19500
L17750 19000
" />
<path d="M19025 19000
L18750 19000
" />
<path d="M19967 19942
L19025 19000
" />
<path d="M20867 19942
L19967 19942
" />
<path d="M21888 20963
L20867 19942
" />
<path d="M21888 21770
L21888 20963
" />
<path d="M21000 22659
L21888 21770
" />
<path d="M21000 23250
L21000 22659
" />
<path d="M11726 17250
L10750 17250
" />
<path d="M15750 13250
L14250 13250
" />
<path d="M12500 15000
L12500 16476
" />
<path d="M14250 13250
L12500 15000
" />
<path d="M12500 16476
L11726 17250
" />
<path d="M21000 24250
L21000 23250
" />
<path d="M20750 24500
L21000 24250
" />
<path d="M10750 17250
L9750 17250
" />
<path d="M9500 23500
L9500 24250
" />
<path d="M9500 24250
L9250 24500
" />
<path d="M12000 24250
L11750 24500
" />
<path d="M12000 23500
L12000 24250
" />
<path d="M11750 24500
L20750 24500
" />
<path d="M9250 24500
L11750 24500
" />
<path d="M7818 23068
L9250 24500
" />
<path d="M7750 19250
L7818 23068
" />
<path d="M7750 19250
L9750 17250
" />
<path d="M24787 19250
L25500 19962
" />
<path d="M24000 19250
L24787 19250
" />
<path d="M25500 19962
L25500 21250
" />
<path d="M24000 15250
L23212 15250
" />
<path d="M23212 15250
L22500 14537
" />
<path d="M18750 12250
L18750 11250
" />
<path d="M22500 14537
L22500 12250
" />
<path d="M17750 12250
L18750 12250
" />
<path d="M13750 12250
L13750 12324
" />
<path d="M13130 12870
L11750 12870
" />
<path d="M13750 12250
L13130 12870
" />
<path d="M20000 16500
L20000 18250
" />
<path d="M19750 18000
L20000 18250
" />
<path d="M18750 18000
L19750 18000
" />
<path d="M20000 12350
L20000 13850
" />
<path d="M20000 9250
L20000 12350
" />
<path d="M10750 10750
L10750 9250
" />
<path d="M20000 22000
L18750 23250
" />
<path d="M13606 21856
L14000 22250
" />
<path d="M12446 19500
L13434 20487
" />
<path d="M13434 21684
L13606 21856
" />
<path d="M13434 20487
L13434 21684
" />
<path d="M12250 19500
L12446 19500
" />
<path d="M17750 22000
L18750 21000
" />
<path d="M17750 22250
L17750 22000
" />
<path d="M13300 22574
L13300 22300
" />
<path d="M13667 22942
L13300 22574
" />
<path d="M14332 22942
L13667 22942
" />
<path d="M17962 20000
L17646 20315
" />
<path d="M18750 20000
L17962 20000
" />
<path d="M17646 20315
L17646 20914
" />
<path d="M17646 20914
L16311 22250
" />
<path d="M16311 22250
L15024 22250
" />
<path d="M15024 22250
L14332 22942
" />
<path d="M12446 21000
L12250 21000
" />
<path d="M13037 21590
L12446 21000
" />
<path d="M13037 22037
L13037 21590
" />
<path d="M13300 22300
L13037 22037
" />
<path d="M10750 12082
L10750 12870
" />
<path d="M11193 11638
L10750 12082
" />
<path d="M12861 11638
L11193 11638
" />
<path d="M12942 11557
L12861 11638
" />
<path d="M14807 11557
L12942 11557
" />
<path d="M18750 15000
L18750 14488
" />
<path d="M18750 14488
L17417 13155
" />
<path d="M17417 13155
L17417 12942
" />
<path d="M17417 12942
L16475 12000
" />
<path d="M16475 12000
L15250 12000
" />
<path d="M15250 12000
L14807 11557
" />
</g>
<g style="fill:#000000; fill-opacity:1.0; 
stroke:#000000; stroke-width:100; stroke-opacity:1; 
stroke-linecap:round; stroke-linejoin:round;">
<polyline style="fill-rule:evenodd;"
points="32181,7544
32350,7611
32498,7719
32614,7859
32692,8024
32729,8216
32730,8254
32730,15905
32629,15662
32337,15370
31956,15212
31543,15212
31162,15370
30870,15662
30712,16043
30712,16456
30870,16837
31162,17129
31543,17287
31956,17287
32337,17129
32629,16837
32730,16594
32730,24233
32705,24431
32638,24600
32530,24748
32390,24864
32225,24942
32033,24979
31995,24980
8016,24980
7818,24955
7649,24888
7501,24780
7385,24640
7307,24475
7270,24283
7269,24245
7269,24121
7356,24121
7356,24378
7454,24614
7635,24795
7871,24893
8128,24893
8364,24795
8545,24614
8641,24383
8979,24722
8998,24751
9027,24770
9027,24770
9037,24777
9114,24828
9215,24848
9215,24848
9250,24855
9284,24848
11715,24848
11750,24855
11784,24848
20715,24848
20750,24855
20784,24848
20784,24848
20885,24828
21001,24751
21020,24722
21222,24520
21251,24501
21276,24462
21328,24385
21332,24364
21348,24284
21348,24284
21355,24250
21348,24215
21348,24121
24856,24121
24856,24378
24954,24614
25135,24795
25371,24893
25628,24893
25864,24795
26045,24614
26143,24378
26143,24121
26045,23885
25864,23704
25628,23606
25371,23606
25135,23704
24954,23885
24856,24121
21348,24121
21348,23876
21448,23856
21660,23714
21803,23501
21853,23250
21803,22998
21660,22785
21484,22667
22111,22041
22140,22021
22151,22004
22151,22465
22144,22500
22151,22534
22151,22534
22171,22635
22248,22751
22277,22770
22979,23472
22998,23501
23027,23520
23027,23520
23114,23578
23215,23598
23215,23598
23250,23605
23264,23602
23339,23714
23551,23856
23739,23893
24260,23893
24448,23856
24660,23714
24803,23501
24853,23250
24803,22998
24660,22785
24448,22643
24260,22606
23739,22606
23551,22643
23339,22785
23314,22822
22848,22355
22848,20788
23173,21113
23146,21250
23196,21501
23339,21714
23551,21856
23739,21893
24260,21893
24448,21856
24660,21714
24803,21501
24853,21250
24803,20998
24660,20785
24448,20643
24260,20606
23739,20606
23666,20620
23348,20302
23348,19720
23551,19856
23739,19893
24260,19893
24448,19856
24660,19714
24700,19655
25151,20106
25151,20697
25135,20704
24954,20885
24856,21122
24856,21378
24954,21614
25135,21795
25372,21893
25628,21893
25864,21795
26045,21614
26143,21378
26143,21122
26045,20885
25864,20704
25848,20697
25848,19996
25855,19962
25848,19928
25848,19928
25828,19826
25795,19777
25770,19740
25770,19740
25751,19711
25722,19691
25058,19027
25038,18998
24923,18921
24821,18901
24821,18901
24787,18894
24753,18901
24738,18901
24660,18785
24448,18643
24260,18606
23739,18606
23551,18643
23348,18779
23348,18197
23666,17879
23739,17893
24260,17893
24448,17856
24660,17714
24803,17501
24853,17250
24803,16998
24660,16785
24448,16643
24260,16606
23739,16606
23551,16643
23339,16785
23196,16998
23146,17250
23173,17386
22777,17782
22748,17801
22729,17831
22729,17831
22671,17917
22644,18053
22651,18087
22651,19658
22020,19027
22001,18998
21885,18921
21784,18901
21784,18901
21750,18894
21735,18897
21660,18785
21448,18643
21348,18623
21348,17876
21448,17856
21660,17714
21803,17501
21853,17250
21803,16998
21660,16785
21448,16643
21348,16623
21348,16509
21355,16475
21348,16441
21348,16441
21328,16339
21251,16224
21222,16205
20910,15893
21260,15893
21448,15856
21660,15714
22418,16472
22437,16501
22466,16520
22466,16520
22510,16549
22553,16578
22654,16598
22654,16598
22688,16605
22723,16598
24608,16598
24642,16605
24677,16598
24677,16598
24778,16578
24894,16501
24913,16472
25212,16173
25212,16456
25370,16837
25662,17129
26043,17287
26456,17287
26837,17129
27129,16837
27287,16456
27287,16043
27129,15662
26837,15370
26456,15212
26043,15212
25848,15293
25848,14052
25864,14045
26045,13864
26143,13628
26143,13371
26045,13135
25864,12954
25628,12856
25371,12856
25135,12954
24954,13135
24856,13371
24856,13628
24954,13864
25135,14045
25151,14052
25151,14091
25151,14091
25151,15248
24498,15901
22833,15901
21959,15027
21940,14998
21824,14921
21740,14904
21660,14785
21448,14643
21260,14606
20739,14606
20551,14643
20339,14785
20278,14876
19895,14493
20128,14493
20364,14395
20545,14214
20643,13978
20643,13874
20739,13893
21260,13893
21448,13856
21660,13714
21803,13501
21853,13250
21803,12998
21660,12785
21484,12667
21856,12295
21856,12378
21954,12614
22135,12795
22151,12802
22151,14503
22144,14537
22151,14571
22151,14571
22171,14673
22248,14788
22277,14808
22941,15472
22961,15501
22990,15520
22990,15520
23056,15564
23076,15578
23178,15598
23178,15598
23212,15605
23246,15598
23261,15598
23339,15714
23551,15856
23739,15893
24260,15893
24448,15856
24660,15714
24803,15501
24853,15250
24803,14998
24660,14785
24448,14643
24260,14606
23739,14606
23551,14643
23339,14785
23299,14844
22848,14393
22848,13399
23177,13399
23189,13450
23312,13669
23510,13825
23753,13893
23950,13893
23950,13300
24050,13300
24050,13893
24246,13893
24489,13825
24687,13669
24810,13450
24822,13399
24775,13300
24050,13300
23950,13300
23224,13300
23177,13399
22848,13399
22848,13100
23177,13100
23224,13200
23950,13200
23950,12606
24050,12606
24050,13200
24775,13200
24822,13100
24810,13049
24687,12830
24489,12674
24246,12606
24050,12606
23950,12606
23753,12606
23510,12674
23312,12830
23189,13049
23177,13100
22848,13100
22848,12802
22864,12795
23045,12614
23143,12378
23143,12121
23045,11885
22864,11704
22628,11606
22545,11606
22553,11598
23261,11598
23339,11714
23551,11856
23739,11893
24260,11893
24448,11856
24660,11714
24803,11501
24853,11250
24803,10998
24660,10785
24448,10643
24260,10606
23739,10606
23551,10643
23339,10785
23261,10901
22848,10901
22848,10802
22864,10795
23045,10614
23143,10378
23143,10121
23045,9885
22864,9704
22628,9606
22371,9606
22135,9704
21954,9885
21856,10121
21856,10378
21954,10614
22135,10795
22151,10802
22151,11008
22138,11027
21837,11329
21853,11250
21803,10998
21660,10785
21448,10643
21348,10623
21348,9034
21355,8999
21348,8965
21348,8965
21328,8864
21251,8748
21222,8729
20841,8348
23355,8348
25151,10144
25151,10197
25135,10204
24954,10385
24856,10621
24856,10878
24954,11114
25135,11295
25371,11393
25628,11393
25864,11295
26045,11114
26143,10878
26143,10621
26045,10385
25864,10204
25848,10197
25848,10034
25855,10000
25848,9965
25848,9965
25828,9864
25751,9748
25722,9729
24114,8121
24856,8121
24856,8378
24954,8614
25135,8795
25371,8893
25628,8893
25864,8795
26045,8614
26143,8378
26143,8121
26048,7892
29946,7892
29946,10607
31116,10607
31116,7892
29946,7892
26048,7892
26045,7885
25986,7826
31196,7826
31196,10673
32366,10673
32366,7826
31196,7826
25986,7826
25864,7704
25628,7606
25371,7606
25135,7704
24954,7885
24856,8121
24114,8121
23770,7777
23751,7748
23635,7671
23534,7651
23534,7651
23500,7644
23465,7651
9284,7651
9250,7644
9215,7651
9215,7651
9120,7670
9114,7671
9027,7729
9027,7729
8998,7748
8979,7777
8777,7979
8748,7998
8729,8027
8729,8027
8671,8114
8644,8250
8651,8284
8651,12715
8644,12750
8651,12784
8651,12784
8671,12885
8748,13001
8777,13020
8849,13092
8868,13121
8984,13198
9085,13218
9085,13218
9119,13225
9124,13224
9143,13318
9285,13530
9498,13673
9750,13723
10001,13673
10214,13530
10250,13477
10285,13530
10498,13673
10750,13723
11001,13673
11137,13582
11176,13640
11258,13696
11356,13715
12143,13715
12241,13696
12323,13640
12379,13558
12398,13460
12398,13218
13095,13218
13130,13225
13164,13218
13164,13218
13265,13198
13381,13121
13400,13092
13605,12886
13621,12893
13878,12893
14114,12795
14295,12614
14393,12378
14393,12121
14304,11906
14663,11906
14979,12222
14998,12251
15027,12270
15027,12270
15041,12279
15114,12328
15215,12348
15215,12348
15249,12355
15284,12348
16331,12348
17069,13086
17069,13121
17062,13155
17069,13190
17069,13190
17089,13291
17166,13407
17195,13426
18243,14474
18067,14592
17942,14779
17898,15000
17942,15220
18067,15407
18205,15500
18067,15592
18031,15645
16550,14164
16530,14135
16415,14058
16313,14038
16313,14038
16279,14031
16245,14038
15147,14038
15113,14031
15079,14038
15079,14038
14977,14058
14891,14115
14891,14115
14862,14135
14842,14164
14670,14336
14657,14317
14470,14192
14250,14148
14029,14192
13842,14317
13717,14503
13685,14668
13685,15331
13717,15496
13842,15682
14029,15807
14250,15851
14470,15807
14657,15682
14782,15496
14814,15331
14814,15177
14942,15050
14974,15050
14926,15137
14933,15170
15039,15364
15208,15500
15039,15635
14933,15829
14926,15862
14974,15950
15700,15950
15700,15050
15692,15050
15692,14950
15700,14950
15700,14942
15800,14942
15800,14950
15807,14950
15807,15050
15800,15050
15800,15950
16525,15950
16573,15862
16566,15829
16460,15635
16291,15500
16460,15364
16566,15170
16567,15167
17622,16222
17641,16251
17670,16270
17670,16270
17714,16299
17757,16328
17858,16348
17858,16348
17893,16355
17927,16348
18027,16348
18067,16407
18205,16500
18067,16592
17942,16779
17898,17000
17942,17220
18067,17407
18205,17500
18067,17592
17942,17779
17898,18000
17942,18220
18067,18407
18205,18500
18067,18592
18027,18651
17784,18651
17749,18644
17715,18651
17715,18651
17614,18671
17614,18671
17614,18671
17527,18729
17527,18729
17498,18748
17479,18777
17027,19229
16998,19248
16979,19277
16979,19277
16921,19364
16894,19500
16901,19534
16901,20605
16557,20949
16525,20949
16573,20862
16566,20829
16460,20635
16291,20500
16460,20364
16566,20170
16573,20137
16525,20050
15800,20050
15800,20950
15807,20950
15807,21050
15800,21050
15800,21057
15700,21057
15700,21050
14974,21050
14926,21137
14933,21170
15039,21364
15086,21401
14644,21401
14598,21355
14598,21222
14657,21182
14782,20996
14814,20831
14814,20168
14808,20137
14926,20137
14933,20170
15039,20364
15208,20500
15039,20635
14933,20829
14926,20862
14974,20950
15700,20950
15700,20050
14974,20050
14926,20137
14808,20137
14782,20003
14657,19817
14470,19692
14250,19648
14029,19692
13842,19817
13717,20003
13685,20168
13685,20235
13656,20216
13076,19636
13103,19500
13053,19248
12910,19035
12698,18893
12510,18856
11989,18856
11801,18893
11589,19035
11446,19248
11396,19500
11446,19751
11589,19964
11801,20106
11989,20143
12510,20143
12583,20129
13085,20631
13085,20912
13053,20748
12910,20535
12698,20393
12510,20356
11989,20356
11801,20393
11589,20535
11446,20748
11396,21000
11446,21251
11589,21464
11801,21606
11989,21643
12510,21643
12583,21629
12688,21734
12688,22003
12682,22037
12688,22071
12688,22071
12709,22173
12786,22288
12815,22308
12951,22444
12951,22540
12944,22574
12951,22608
12951,22608
12971,22710
13048,22825
13077,22844
13397,23164
13416,23193
13445,23212
13445,23212
13450,23215
13531,23270
13633,23290
13633,23290
13667,23297
13702,23290
14297,23290
14332,23297
14366,23290
14366,23290
14468,23270
14583,23193
14602,23164
14666,23100
14927,23100
14974,23200
15700,23200
15700,22606
15800,22606
15800,23200
16525,23200
16572,23100
16560,23049
16437,22830
16239,22674
15996,22606
15800,22606
15700,22606
15503,22606
15260,22674
15062,22830
14939,23049
14927,23100
14666,23100
15168,22598
16276,22598
16311,22605
16345,22598
16345,22598
16447,22578
16562,22501
16581,22472
17868,21185
17898,21165
17904,21155
17904,21314
17910,21346
17650,21606
17621,21606
17385,21704
17204,21885
17106,22121
17106,22378
17204,22614
17385,22795
17621,22893
17878,22893
18070,22814
17946,22998
17896,23250
17946,23501
18089,23714
18301,23856
18489,23893
19010,23893
19198,23856
19410,23714
19553,23501
19603,23250
19553,22998
19529,22963
19855,22636
19871,22643
20128,22643
20364,22545
20545,22364
20643,22128
20643,21871
20639,21861
20753,21893
20950,21893
20950,21300
20224,21300
20186,21380
20128,21356
19871,21356
19635,21454
19454,21635
19356,21871
19356,22128
19363,22144
18900,22606
18489,22606
18301,22643
18195,22714
18295,22614
18393,22378
18393,22121
18313,21928
18672,21569
19340,21569
19438,21550
19520,21495
19576,21412
19595,21314
19595,21100
20177,21100
20224,21200
20950,21200
20950,20606
20753,20606
20510,20674
20312,20830
20189,21049
20177,21100
19595,21100
19595,20685
19576,20587
19520,20504
19438,20449
19385,20439
19432,20407
19557,20220
19590,20057
19697,20164
19716,20193
19745,20212
19745,20212
19780,20236
19831,20270
19933,20290
19933,20290
19967,20297
20002,20290
20723,20290
21050,20617
21050,21200
21057,21200
21057,21300
21050,21300
21050,21893
21246,21893
21283,21883
20777,22388
20748,22408
20729,22437
20729,22437
20671,22523
20651,22623
20551,22643
20339,22785
20196,22998
20146,23250
20196,23501
20339,23714
20551,23856
20651,23876
20651,24105
20605,24151
12348,24151
12348,24126
12448,24106
12660,23964
12803,23751
12853,23500
12833,23399
14927,23399
14939,23450
15062,23669
15260,23825
15503,23893
15700,23893
15700,23300
15800,23300
15800,23893
15996,23893
16239,23825
16437,23669
16560,23450
16572,23399
16525,23300
15800,23300
15700,23300
14974,23300
14927,23399
12833,23399
12803,23248
12660,23035
12618,23007
12629,22991
12648,22893
12648,22106
12629,22008
12573,21926
12491,21870
12393,21851
11844,21851
10770,20777
10751,20748
10635,20671
10534,20651
10534,20651
10500,20644
10465,20651
9988,20651
9910,20535
9698,20393
9510,20356
8989,20356
8801,20393
8709,20455
8709,20336
8916,20129
8989,20143
9510,20143
9698,20106
9910,19964
10053,19751
10103,19500
10053,19248
9910,19035
9698,18893
9510,18856
8989,18856
8801,18893
8589,19035
8446,19248
8396,19500
8423,19636
8138,19921
8110,19940
8101,19391
8911,18581
13685,18581
13685,18857
13747,19069
13885,19241
14079,19348
14112,19355
14200,19307
14200,18581
14300,18581
14300,19307
14387,19355
14420,19348
14614,19241
14698,19137
14926,19137
14933,19170
15039,19364
15208,19500
15039,19635
14933,19829
14926,19862
14974,19950
15700,19950
15700,19050
15800,19050
15800,19950
16525,19950
16573,19862
16566,19829
16460,19635
16291,19500
16460,19364
16566,19170
16573,19137
16525,19050
15800,19050
15700,19050
14974,19050
14926,19137
14698,19137
14752,19069
14814,18857
14814,18581
14300,18581
14200,18581
13685,18581
8911,18581
9743,17749
9790,17820
9872,17875
9970,17894
11529,17894
11627,17875
11709,17820
11765,17737
11784,17639
11784,17593
11862,17578
11977,17501
11997,17472
12450,17018
13685,17018
13685,17294
13747,17506
13885,17678
14015,17750
13885,17821
13747,17993
13685,18205
13685,18481
14200,18481
14200,17755
14189,17750
14200,17744
14200,17018
14300,17018
14300,17744
14310,17750
14300,17755
14300,18481
14814,18481
14814,18205
14794,18137
14926,18137
14933,18170
15039,18364
15208,18500
15039,18635
14933,18829
14926,18862
14974,18950
15700,18950
15700,18050
15800,18050
15800,18950
16525,18950
16573,18862
16566,18829
16460,18635
16291,18500
16460,18364
16566,18170
16573,18137
16525,18050
15800,18050
15700,18050
14974,18050
14926,18137
14794,18137
14752,17993
14614,17821
14484,17750
14614,17678
14752,17506
14814,17294
14814,17137
14926,17137
14933,17170
15039,17364
15208,17500
15039,17635
14933,17829
14926,17862
14974,17950
15700,17950
15700,17050
15800,17050
15800,17950
16525,17950
16573,17862
16566,17829
16460,17635
16291,17500
16460,17364
16566,17170
16573,17137
16525,17050
15800,17050
15700,17050
14974,17050
14926,17137
14814,17137
14814,17018
14300,17018
14200,17018
13685,17018
12450,17018
12722,16747
12751,16727
12807,16643
12807,16642
13685,16642
13685,16918
14200,16918
14200,16192
14300,16192
14300,16918
14814,16918
14814,16642
14752,16430
14614,16258
14420,16151
14387,16144
14300,16192
14200,16192
14112,16144
14079,16151
13885,16258
13747,16430
13685,16642
12807,16642
12828,16612
12829,16605
12848,16510
12848,16510
12855,16476
12848,16442
12848,16137
14926,16137
14933,16170
15039,16364
15208,16500
15039,16635
14933,16829
14926,16862
14974,16950
15700,16950
15700,16050
15800,16050
15800,16950
16525,16950
16573,16862
16566,16829
16460,16635
16291,16500
16460,16364
16566,16170
16573,16137
16525,16050
15800,16050
15700,16050
14974,16050
14926,16137
12848,16137
12848,15144
14394,13598
15011,13598
15089,13714
15301,13856
15489,13893
16010,13893
16198,13856
16410,13714
16553,13501
16603,13250
16553,12998
16410,12785
16198,12643
16010,12606
15489,12606
15301,12643
15089,12785
15011,12901
14284,12901
14249,12894
14215,12901
14215,12901
14114,12921
14114,12921
14114,12921
14027,12979
14027,12979
13998,12998
13979,13027
12277,14729
12248,14748
12171,14864
12151,14965
12151,14965
12144,15000
12151,15034
12151,16332
11747,16736
11709,16679
11627,16624
11529,16605
9970,16605
9872,16624
9790,16679
9734,16762
9715,16860
9715,16901
9614,16921
9527,16979
9527,16979
9498,16998
9479,17027
7525,18981
7494,19003
7458,19059
7421,19114
7421,19117
7419,19119
7407,19185
7394,19250
7402,19287
7469,23036
7462,23068
7470,23105
7470,23108
7476,23139
7489,23204
7491,23206
7492,23209
7530,23264
7547,23290
7549,23292
7571,23323
7598,23340
7866,23608
7635,23704
7454,23885
7356,24121
7269,24121
7269,15430
9738,15430
9750,15480
9872,15698
10069,15853
10310,15921
10700,15921
10700,15331
10800,15331
10800,15921
11189,15921
11430,15853
11627,15698
11749,15480
11761,15430
11714,15331
10800,15331
10700,15331
9785,15331
9738,15430
7269,15430
7269,15132
9738,15132
9785,15231
10700,15231
10700,14641
10800,14641
10800,15231
11714,15231
11761,15132
11749,15082
11627,14864
11430,14709
11189,14641
10800,14641
10700,14641
10310,14641
10069,14709
9872,14864
9750,15082
9738,15132
7269,15132
7269,8266
7288,8121
7356,8121
7356,8378
7454,8614
7635,8795
7871,8893
8128,8893
8364,8795
8545,8614
8643,8378
8643,8121
8545,7885
8364,7704
8128,7606
7871,7606
7635,7704
7454,7885
7356,8121
7288,8121
7294,8068
7361,7899
7469,7751
7609,7635
7774,7557
7966,7520
8004,7519
31983,7519
32181,7544
" /> 
</g> 
</svg>
