<?xml version="1.0" standalone="no"?>
 <!DOCTYPE svg PUBLIC "-//W3C//DTD SVG 1.1//EN" 
 "http://www.w3.org/Graphics/SVG/1.1/DTD/svg11.dtd"> 
<svg xmlns="http://www.w3.org/2000/svg" version="1.1" 
    width="21.59cm" height="14.0005cm" viewBox="0 0 85000 55120 ">
<title>SVG Picture created as ponta-de-prova-logica-simplificada-F.Fab.svg date 2019/04/09 20:54:31 </title>
  <desc>Picture generated by PCBNEW </desc>
<g style="fill:#000000; fill-opacity:1;stroke:#000000; stroke-opacity:1;
stroke-linecap:round; stroke-linejoin:round; "
 transform="translate(0 0) scale(1 1)">
</g>
<g style="fill:#000000; fill-opacity:0.0; 
stroke:#000000; stroke-width:-0.000393701; stroke-opacity:1; 
stroke-linecap:round; stroke-linejoin:round;">
</g>
<g style="fill:#000000; fill-opacity:0.0; 
stroke:#000000; stroke-width:39.3701; stroke-opacity:1; 
stroke-linecap:round; stroke-linejoin:round;">
<path d="M7000 24250 A1000 1000 0.0 0 0 8000 25250 " />
<path d="M32000 25250 A1000 1000 0.0 0 0 33000 24250 " />
<path d="M33000 8250 A1000 1000 0.0 0 0 32000 7250 " />
<path d="M8000 7250 A1000 1000 0.0 0 0 7000 8250 " />
<path d="M8000 25250
L32000 25250
" />
<path d="M7000 8250
L7000 24250
" />
<path d="M32000 7250
L8000 7250
" />
<path d="M33000 24250
L33000 8250
" />
<path d="M12300 10940
L12300 12540
" />
<path d="M12300 10940
L9100 10940
" />
<path d="M9100 12690
L12150 12690
" />
<path d="M9100 12690
L9100 10940
" />
<path d="M12150 12690
L12300 12540
" />
</g>
<g style="fill:#000000; fill-opacity:0.0; 
stroke:#000000; stroke-width:59.0551; stroke-opacity:1; 
stroke-linecap:round; stroke-linejoin:round;">
<path d="M9100 11540
L9400 11540
" />
<path d="M9400 11540
L9400 12040
" />
<path d="M9400 12040
L9100 12040
" />
</g>
<g style="fill:#000000; fill-opacity:0.0; 
stroke:#000000; stroke-width:39.3701; stroke-opacity:1; 
stroke-linecap:round; stroke-linejoin:round;">
<path d="M12250 21000
L11990 21000
" />
<path d="M9250 21000
L9509 21000
" />
<path d="M11990 20507
L9509 20507
" />
<path d="M11990 21492
L11990 20507
" />
<path d="M9509 21492
L11990 21492
" />
<path d="M9509 20507
L9509 21492
" />
<path d="M9041.15 22409.2 A748.031 748.031 0.0 1 0 9959.13 22409.4 " />
<circle cx="9500" cy="23000" r="590.551" /> 
<path d="M9959 22409
L9040 22409
" />
<path d="M18490 11742
L18490 10757
" />
<path d="M18490 10757
L16009 10757
" />
<path d="M16009 10757
L16009 11742
" />
<path d="M16009 11742
L18490 11742
" />
<path d="M18750 11250
L18490 11250
" />
<path d="M15750 11250
L16009 11250
" />
<path d="M15250 21523
L19250 21523
" />
<path d="M15250 14476
L15250 21523
" />
<path d="M19250 14476
L15250 14476
" />
<path d="M19250 21523
L19250 14476
" />
<path d="M18500 21106
L18106 21500
" />
<path d="M18500 14500
L18500 21106
" />
<path d="M16000 14500
L18500 14500
" />
<path d="M16000 21500
L16000 14500
" />
<path d="M18106 21500
L16000 21500
" />
<path d="M13757 18531
L13757 20500
" />
<path d="M14742 18531
L13757 18531
" />
<path d="M14742 20500
L14742 18531
" />
<path d="M13757 20500
L14742 20500
" />
<path d="M14742 15000
L13757 15000
" />
<path d="M13757 15000
L13757 16968
" />
<path d="M13757 16968
L14742 16968
" />
<path d="M14742 16968
L14742 15000
" />
<path d="M24000 17250
L23740 17250
" />
<path d="M21000 17250
L21259 17250
" />
<path d="M23740 16757
L21259 16757
" />
<path d="M23740 17742
L23740 16757
" />
<path d="M21259 17742
L23740 17742
" />
<path d="M21259 16757
L21259 17742
" />
<path d="M12459 22409
L11540 22409
" />
<circle cx="12000" cy="23000" r="590.551" /> 
<path d="M11541.2 22409.2 A748.031 748.031 0.0 1 0 12459.1 22409.4 " />
<path d="M11750 17746
L11750 16746
" />
<path d="M11750 16746
L10651 16746
" />
<path d="M10651 17746
L10651 16746
" />
<path d="M11750 17746
L10651 17746
" />
<path d="M11750 15777
L11750 14777
" />
<path d="M11750 14777
L10651 14777
" />
<path d="M10651 15777
L10651 14777
" />
<path d="M11750 15777
L10651 15777
" />
<path d="M8301 14253
L9501 14253
" />
<path d="M8301 14253
L8301 18265
" />
<path d="M8301 14253
L8301 14057
" />
<path d="M8301 14057
L10198 14057
" />
<path d="M10198 14057
L10100 14253
" />
<path d="M12899 14057
L12801 14253
" />
<path d="M12801 14253
L13198 14253
" />
<path d="M12250 14057
L12348 14253
" />
<path d="M12348 14253
L12801 14253
" />
<path d="M12250 14057
L12899 14057
" />
<path d="M13198 16076
L12450 16076
" />
<path d="M10651 14474
L12450 14474
" />
<path d="M13198 16076
L13198 14474
" />
<path d="M13198 14474
L13198 14253
" />
<path d="M13198 16446
L12450 16446
" />
<path d="M13198 16446
L13198 16076
" />
<path d="M10651 18045
L12450 18045
" />
<path d="M13198 18265
L13198 18045
" />
<path d="M13198 18045
L13198 16446
" />
<path d="M12450 16076
L12450 14474
" />
<path d="M12450 16076
L10651 16076
" />
<path d="M12450 14474
L13198 14474
" />
<path d="M12450 16446
L12450 18045
" />
<path d="M12450 16446
L10651 16446
" />
<path d="M12450 18045
L13198 18045
" />
<path d="M12198 14624
L10950 14624
" />
<path d="M12198 14624
L12198 15927
" />
<path d="M12198 15927
L10950 15927
" />
<path d="M12198 16596
L10950 16596
" />
<path d="M12198 16596
L12198 17895
" />
<path d="M12198 17895
L10950 17895
" />
<path d="M10950 17895
L10950 17746
" />
<path d="M10950 16596
L10950 16746
" />
<path d="M10950 15927
L10950 15777
" />
<path d="M10950 14624
L10950 14777
" />
<path d="M13198 18265
L10498 18265
" />
<path d="M10498 18265
L9501 18265
" />
<path d="M10100 14253
L10498 14253
" />
<path d="M10498 14253
L12348 14253
" />
<path d="M9501 18265
L9501 14253
" />
<path d="M9501 18265
L8301 18265
" />
<path d="M9501 14253
L10100 14253
" />
<path d="M9399 16076
L8399 16076
" />
<path d="M8399 16076
L8399 14474
" />
<path d="M8399 14474
L9399 14474
" />
<path d="M9399 14474
L9399 16076
" />
<path d="M9399 16446
L8399 16446
" />
<path d="M9399 16446
L9399 18045
" />
<path d="M9399 18045
L8399 18045
" />
<path d="M8399 16446
L8399 18045
" />
<path d="M8998 15915
L8750 14714
" />
<path d="M9049 15864
L8801 14667
" />
<path d="M8998 17887
L8750 16683
" />
<path d="M9049 17836
L8801 16635
" />
<path d="M10651 18045
L10651 17895
" />
<path d="M10651 16446
L10651 16596
" />
<path d="M10651 16596
L10651 17895
" />
<path d="M10498 18265
L10498 17895
" />
<path d="M10498 17895
L10498 16596
" />
<path d="M10498 16596
L10498 15927
" />
<path d="M10498 14253
L10498 14624
" />
<path d="M10498 14624
L10498 15927
" />
<path d="M10651 14474
L10651 14624
" />
<path d="M10651 16076
L10651 15927
" />
<path d="M10651 15927
L10651 14624
" />
<path d="M9145.27 14696.6 A270.395 270.395 0.0 0 0 8761.81 14675.2 " />
<path d="M9108.95 15853.3 A959.056 959.056 0.0 0 0 9127.95 14679.1 " />
<path d="M8757.21 14675.9 A809.158 809.158 0.0 0 0 8781.5 15915.4 " />
<path d="M8758.39 15896.8 A234.409 234.409 0.0 0 0 9124.02 15840.6 " />
<path d="M9141.34 16665.1 A267.485 267.485 0.0 0 0 8761.81 16647.6 " />
<path d="M9112.76 17824.7 A961.42 961.42 0.0 0 0 9127.95 16647.6 " />
<path d="M8753.33 16643.7 A812.227 812.227 0.0 0 0 8781.5 17887.8 " />
<path d="M8758.39 17865.3 A234.409 234.409 0.0 0 0 9124.02 17809.1 " />
<path d="M18750 13250
L18490 13250
" />
<path d="M15750 13250
L16009 13250
" />
<path d="M18490 12757
L16009 12757
" />
<path d="M18490 13742
L18490 12757
" />
<path d="M16009 13742
L18490 13742
" />
<path d="M16009 12757
L16009 13742
" />
<path d="M24000 15250
L23740 15250
" />
<path d="M21000 15250
L21259 15250
" />
<path d="M23740 14757
L21259 14757
" />
<path d="M23740 15742
L23740 14757
" />
<path d="M21259 15742
L23740 15742
" />
<path d="M21259 14757
L21259 15742
" />
<path d="M24000 11250
L23740 11250
" />
<path d="M21000 11250
L21259 11250
" />
<path d="M23740 10757
L21259 10757
" />
<path d="M23740 11742
L23740 10757
" />
<path d="M21259 11742
L23740 11742
" />
<path d="M21259 10757
L21259 11742
" />
<path d="M21259 12757
L21259 13742
" />
<path d="M21259 13742
L23740 13742
" />
<path d="M23740 13742
L23740 12757
" />
<path d="M23740 12757
L21259 12757
" />
<path d="M21000 13250
L21259 13250
" />
<path d="M24000 13250
L23740 13250
" />
<path d="M21259 18757
L21259 19742
" />
<path d="M21259 19742
L23740 19742
" />
<path d="M23740 19742
L23740 18757
" />
<path d="M23740 18757
L21259 18757
" />
<path d="M21000 19250
L21259 19250
" />
<path d="M24000 19250
L23740 19250
" />
<path d="M21259 22757
L21259 23742
" />
<path d="M21259 23742
L23740 23742
" />
<path d="M23740 23742
L23740 22757
" />
<path d="M23740 22757
L21259 22757
" />
<path d="M21000 23250
L21259 23250
" />
<path d="M24000 23250
L23740 23250
" />
<path d="M21000 21250
L21259 21250
" />
<path d="M24000 21250
L23740 21250
" />
<path d="M21259 21742
L23740 21742
" />
<path d="M21259 20757
L21259 21742
" />
<path d="M23740 20757
L21259 20757
" />
<path d="M23740 21742
L23740 20757
" />
<path d="M18490 23742
L18490 22757
" />
<path d="M18490 22757
L16009 22757
" />
<path d="M16009 22757
L16009 23742
" />
<path d="M16009 23742
L18490 23742
" />
<path d="M18750 23250
L18490 23250
" />
<path d="M15750 23250
L16009 23250
" />
<path d="M12250 19500
L11990 19500
" />
<path d="M9250 19500
L9509 19500
" />
<path d="M11990 19007
L9509 19007
" />
<path d="M11990 19992
L11990 19007
" />
<path d="M9509 19992
L11990 19992
" />
<path d="M9509 19007
L9509 19992
" />
</g>
<g style="fill:#000000; fill-opacity:0.0; 
stroke:#000000; stroke-width:59.0551; stroke-opacity:1; 
stroke-linecap:round; stroke-linejoin:round;">
<path d="M8859 13524
L8878 13468
L8878 13374
L8859 13337
L8840 13318
L8803 13299
L8765 13299
L8728 13318
L8709 13337
L8690 13374
L8671 13449
L8653 13487
L8634 13506
L8596 13524
L8559 13524
L8521 13506
L8503 13487
L8484 13449
L8484 13356
L8503 13299
" />
<path d="M8484 13168
L8878 13074
L8596 12999
L8878 12924
L8484 12831
" />
<path d="M8915 12774
L8915 12474
" />
<path d="M8878 12381
L8484 12381
L8484 12287
L8503 12231
L8540 12193
L8578 12174
L8653 12156
L8709 12156
L8784 12174
L8821 12193
L8859 12231
L8878 12287
L8878 12381
" />
<path d="M8878 11987
L8484 11987
L8484 11837
L8503 11800
L8521 11781
L8559 11762
L8615 11762
L8653 11781
L8671 11800
L8690 11837
L8690 11987
" />
<path d="M8878 11593
L8484 11593
L8484 11500
L8503 11443
L8540 11406
L8578 11387
L8653 11368
L8709 11368
L8784 11387
L8821 11406
L8859 11443
L8878 11500
L8878 11593
" />
<path d="M8484 11256
L8484 11031
" />
<path d="M8878 11143
L8484 11143
" />
<path d="M8915 10993
L8915 10693
" />
<path d="M8878 10637
L8615 10431
" />
<path d="M8615 10637
L8878 10431
" />
<path d="M8521 10300
L8503 10281
L8484 10243
L8484 10150
L8503 10112
L8521 10093
L8559 10075
L8596 10075
L8653 10093
L8878 10318
L8878 10075
" />
<path d="M10225 11909
L10281 11928
L10375 11928
L10412 11909
L10431 11890
L10450 11853
L10450 11815
L10431 11778
L10412 11759
L10375 11740
L10300 11721
L10262 11703
L10243 11684
L10225 11646
L10225 11609
L10243 11571
L10262 11553
L10300 11534
L10393 11534
L10450 11553
" />
<path d="M10581 11534
L10675 11928
L10750 11646
L10824 11928
L10918 11534
" />
<path d="M11274 11928
L11049 11928
" />
<path d="M11162 11928
L11162 11534
L11124 11590
L11087 11628
L11049 11646
" />
<path d="M26009 24478
L26009 24084
L26159 24084
L26196 24103
L26215 24121
L26234 24159
L26234 24215
L26215 24253
L26196 24271
L26159 24290
L26009 24290
" />
<path d="M26571 24478
L26571 24271
L26553 24234
L26515 24215
L26440 24215
L26403 24234
" />
<path d="M26571 24459
L26534 24478
L26440 24478
L26403 24459
L26384 24421
L26384 24384
L26403 24346
L26440 24328
L26534 24328
L26571 24309
" />
<path d="M26759 24478
L26759 24215
" />
<path d="M26759 24290
L26778 24253
L26796 24234
L26834 24215
L26871 24215
" />
<path d="M27171 24215
L27171 24478
" />
<path d="M27078 24065
L26984 24346
L27228 24346
" />
<path d="M8509 24578
L8509 24184
L8659 24184
L8696 24203
L8715 24221
L8734 24259
L8734 24315
L8715 24353
L8696 24371
L8659 24390
L8509 24390
" />
<path d="M9071 24578
L9071 24371
L9053 24334
L9015 24315
L8940 24315
L8903 24334
" />
<path d="M9071 24559
L9034 24578
L8940 24578
L8903 24559
L8884 24521
L8884 24484
L8903 24446
L8940 24428
L9034 24428
L9071 24409
" />
<path d="M9259 24578
L9259 24315
" />
<path d="M9259 24390
L9278 24353
L9296 24334
L9334 24315
L9371 24315
" />
<path d="M9465 24184
L9709 24184
L9578 24334
L9634 24334
L9671 24353
L9690 24371
L9709 24409
L9709 24503
L9690 24540
L9671 24559
L9634 24578
L9521 24578
L9484 24559
L9465 24540
" />
<path d="M23809 8378
L23809 7984
L23959 7984
L23996 8003
L24015 8021
L24034 8059
L24034 8115
L24015 8153
L23996 8171
L23959 8190
L23809 8190
" />
<path d="M24371 8378
L24371 8171
L24353 8134
L24315 8115
L24240 8115
L24203 8134
" />
<path d="M24371 8359
L24334 8378
L24240 8378
L24203 8359
L24184 8321
L24184 8284
L24203 8246
L24240 8228
L24334 8228
L24371 8209
" />
<path d="M24559 8378
L24559 8115
" />
<path d="M24559 8190
L24578 8153
L24596 8134
L24634 8115
L24671 8115
" />
<path d="M24784 8021
L24803 8003
L24840 7984
L24934 7984
L24971 8003
L24990 8021
L25009 8059
L25009 8096
L24990 8153
L24765 8378
L25009 8378
" />
<path d="M8509 8428
L8509 8034
L8659 8034
L8696 8053
L8715 8071
L8734 8109
L8734 8165
L8715 8203
L8696 8221
L8659 8240
L8509 8240
" />
<path d="M9071 8428
L9071 8221
L9053 8184
L9015 8165
L8940 8165
L8903 8184
" />
<path d="M9071 8409
L9034 8428
L8940 8428
L8903 8409
L8884 8371
L8884 8334
L8903 8296
L8940 8278
L9034 8278
L9071 8259
" />
<path d="M9259 8428
L9259 8165
" />
<path d="M9259 8240
L9278 8203
L9296 8184
L9334 8165
L9371 8165
" />
<path d="M9709 8428
L9484 8428
" />
<path d="M9596 8428
L9596 8034
L9559 8090
L9521 8128
L9484 8146
" />
<path d="M13153 24012
L13134 24049
L13115 24068
L13078 24087
L13059 24087
L13021 24068
L13003 24049
L12984 24012
L12984 23937
L13003 23899
L13021 23881
L13059 23862
L13078 23862
L13115 23881
L13134 23899
L13153 23937
L13153 24012
L13171 24049
L13190 24068
L13228 24087
L13303 24087
L13340 24068
L13359 24049
L13378 24012
L13378 23937
L13359 23899
L13340 23881
L13303 23862
L13228 23862
L13190 23881
L13171 23899
L13153 23937
" />
<path d="M13021 23712
L13003 23693
L12984 23656
L12984 23562
L13003 23524
L13021 23506
L13059 23487
L13096 23487
L13153 23506
L13378 23731
L13378 23487
" />
<path d="M12984 23243
L12984 23206
L13003 23168
L13021 23149
L13059 23131
L13134 23112
L13228 23112
L13303 23131
L13340 23149
L13359 23168
L13378 23206
L13378 23243
L13359 23281
L13340 23299
L13303 23318
L13228 23337
L13134 23337
L13059 23318
L13021 23299
L13003 23281
L12984 23243
" />
<path d="M12965 22662
L13471 22999
" />
<path d="M12984 22456
L12984 22418
L13003 22381
L13021 22362
L13059 22343
L13134 22325
L13228 22325
L13303 22343
L13340 22362
L13359 22381
L13378 22418
L13378 22456
L13359 22493
L13340 22512
L13303 22531
L13228 22550
L13134 22550
L13059 22531
L13021 22512
L13003 22493
L12984 22456
" />
<path d="M13340 22156
L13359 22137
L13378 22156
L13359 22175
L13340 22156
L13378 22156
" />
<path d="M12984 21781
L12984 21968
L13171 21987
L13153 21968
L13134 21931
L13134 21837
L13153 21800
L13171 21781
L13209 21762
L13303 21762
L13340 21781
L13359 21800
L13378 21837
L13378 21931
L13359 21968
L13340 21987
" />
<path d="M12984 21631
L13378 21537
L13096 21462
L13378 21387
L12984 21293
" />
<path d="M10496 21178
L10365 20990
" />
<path d="M10271 21178
L10271 20784
L10421 20784
L10459 20803
L10478 20821
L10496 20859
L10496 20915
L10478 20953
L10459 20971
L10421 20990
L10271 20990
" />
<path d="M10871 21178
L10646 21178
" />
<path d="M10759 21178
L10759 20784
L10721 20840
L10684 20878
L10646 20896
" />
<path d="M11021 20821
L11040 20803
L11078 20784
L11171 20784
L11209 20803
L11228 20821
L11246 20859
L11246 20896
L11228 20953
L11003 21178
L11246 21178
" />
<path d="M8119 23328
L8512 23196
L8119 23065
" />
<path d="M8512 22934
L8119 22934
L8119 22840
L8137 22784
L8175 22746
L8212 22728
L8287 22709
L8344 22709
L8419 22728
L8456 22746
L8494 22784
L8512 22840
L8512 22934
" />
<path d="M13940 11021
L13959 11003
L13996 10984
L14090 10984
L14128 11003
L14146 11021
L14165 11059
L14165 11096
L14146 11153
L13921 11378
L14165 11378
" />
<path d="M14315 11021
L14334 11003
L14371 10984
L14465 10984
L14503 11003
L14521 11021
L14540 11059
L14540 11096
L14521 11153
L14296 11378
L14540 11378
" />
<path d="M14709 11378
L14709 10984
" />
<path d="M14746 11228
L14859 11378
" />
<path d="M14859 11115
L14709 11265
" />
<path d="M17184 11428
L17053 11240
" />
<path d="M16959 11428
L16959 11034
L17109 11034
L17146 11053
L17165 11071
L17184 11109
L17184 11165
L17165 11203
L17146 11221
L17109 11240
L16959 11240
" />
<path d="M17315 11034
L17559 11034
L17428 11184
L17484 11184
L17521 11203
L17540 11221
L17559 11259
L17559 11353
L17540 11390
L17521 11409
L17484 11428
L17371 11428
L17334 11409
L17315 11390
" />
<path d="M16534 14378
L16346 14378
L16346 13984
" />
<path d="M16665 14378
L16665 13984
L16796 14265
L16928 13984
L16928 14378
" />
<path d="M17078 13984
L17321 13984
L17190 14134
L17246 14134
L17284 14153
L17303 14171
L17321 14209
L17321 14303
L17303 14340
L17284 14359
L17246 14378
L17134 14378
L17096 14359
L17078 14340
" />
<path d="M17453 13984
L17696 13984
L17565 14134
L17621 14134
L17659 14153
L17678 14171
L17696 14209
L17696 14303
L17678 14340
L17659 14359
L17621 14378
L17509 14378
L17471 14359
L17453 14340
" />
<path d="M17884 14378
L17959 14378
L17996 14359
L18015 14340
L18053 14284
L18071 14209
L18071 14059
L18053 14021
L18034 14003
L17996 13984
L17921 13984
L17884 14003
L17865 14021
L17846 14059
L17846 14153
L17865 14190
L17884 14209
L17921 14228
L17996 14228
L18034 14209
L18053 14190
L18071 14153
" />
<path d="M16950 17784
L16950 18103
L16968 18140
L16987 18159
L17025 18178
L17100 18178
L17137 18159
L17156 18140
L17175 18103
L17175 17784
" />
<path d="M17568 18178
L17343 18178
" />
<path d="M17456 18178
L17456 17784
L17418 17840
L17381 17878
L17343 17896
" />
<path d="M13678 20909
L13678 21134
" />
<path d="M13678 21021
L13284 21021
L13340 21059
L13378 21096
L13396 21134
" />
<path d="M13284 20665
L13284 20628
L13303 20590
L13321 20571
L13359 20553
L13434 20534
L13528 20534
L13603 20553
L13640 20571
L13659 20590
L13678 20628
L13678 20665
L13659 20703
L13640 20721
L13603 20740
L13528 20759
L13434 20759
L13359 20740
L13321 20721
L13303 20703
L13284 20665
" />
<path d="M13284 20290
L13284 20253
L13303 20215
L13321 20196
L13359 20178
L13434 20159
L13528 20159
L13603 20178
L13640 20196
L13659 20215
L13678 20253
L13678 20290
L13659 20328
L13640 20346
L13603 20365
L13528 20384
L13434 20384
L13359 20365
L13321 20346
L13303 20328
L13284 20290
" />
<path d="M13415 19990
L13678 19990
" />
<path d="M13453 19990
L13434 19971
L13415 19934
L13415 19878
L13434 19840
L13471 19821
L13678 19821
" />
<path d="M13471 19503
L13471 19634
" />
<path d="M13678 19634
L13284 19634
L13284 19446
" />
<path d="M14390 19581
L14409 19600
L14428 19656
L14428 19693
L14409 19750
L14371 19787
L14334 19806
L14259 19825
L14203 19825
L14128 19806
L14090 19787
L14053 19750
L14034 19693
L14034 19656
L14053 19600
L14071 19581
" />
<path d="M14071 19431
L14053 19412
L14034 19375
L14034 19281
L14053 19243
L14071 19225
L14109 19206
L14146 19206
L14203 19225
L14428 19450
L14428 19206
" />
<path d="M13678 15621
L13678 15846
" />
<path d="M13678 15734
L13284 15734
L13340 15771
L13378 15809
L13396 15846
" />
<path d="M13284 15378
L13284 15340
L13303 15303
L13321 15284
L13359 15265
L13434 15246
L13528 15246
L13603 15265
L13640 15284
L13659 15303
L13678 15340
L13678 15378
L13659 15415
L13640 15434
L13603 15453
L13528 15471
L13434 15471
L13359 15453
L13321 15434
L13303 15415
L13284 15378
" />
<path d="M13415 15078
L13678 15078
" />
<path d="M13453 15078
L13434 15059
L13415 15021
L13415 14965
L13434 14928
L13471 14909
L13678 14909
" />
<path d="M13471 14590
L13471 14721
" />
<path d="M13678 14721
L13284 14721
L13284 14534
" />
<path d="M14390 16049
L14409 16068
L14428 16124
L14428 16162
L14409 16218
L14371 16256
L14334 16274
L14259 16293
L14203 16293
L14128 16274
L14090 16256
L14053 16218
L14034 16162
L14034 16124
L14053 16068
L14071 16049
" />
<path d="M14428 15674
L14428 15899
" />
<path d="M14428 15787
L14034 15787
L14090 15824
L14128 15862
L14146 15899
" />
<path d="M22940 17967
L22865 17967
L22828 17986
L22809 18004
L22771 18061
L22753 18136
L22753 18286
L22771 18323
L22790 18342
L22828 18361
L22903 18361
L22940 18342
L22959 18323
L22978 18286
L22978 18192
L22959 18154
L22940 18136
L22903 18117
L22828 18117
L22790 18136
L22771 18154
L22753 18192
" />
<path d="M23203 18136
L23165 18117
L23146 18098
L23128 18061
L23128 18042
L23146 18004
L23165 17986
L23203 17967
L23278 17967
L23315 17986
L23334 18004
L23353 18042
L23353 18061
L23334 18098
L23315 18117
L23278 18136
L23203 18136
L23165 18154
L23146 18173
L23128 18211
L23128 18286
L23146 18323
L23165 18342
L23203 18361
L23278 18361
L23315 18342
L23334 18323
L23353 18286
L23353 18211
L23334 18173
L23315 18154
L23278 18136
" />
<path d="M23596 17967
L23634 17967
L23671 17986
L23690 18004
L23709 18042
L23728 18117
L23728 18211
L23709 18286
L23690 18323
L23671 18342
L23634 18361
L23596 18361
L23559 18342
L23540 18323
L23521 18286
L23503 18211
L23503 18117
L23521 18042
L23540 18004
L23559 17986
L23596 17967
" />
<path d="M23896 18361
L23896 17967
" />
<path d="M23934 18211
L24046 18361
" />
<path d="M24046 18098
L23896 18248
" />
<path d="M22434 17428
L22303 17240
" />
<path d="M22209 17428
L22209 17034
L22359 17034
L22396 17053
L22415 17071
L22434 17109
L22434 17165
L22415 17203
L22396 17221
L22359 17240
L22209 17240
" />
<path d="M22659 17203
L22621 17184
L22603 17165
L22584 17128
L22584 17109
L22603 17071
L22621 17053
L22659 17034
L22734 17034
L22771 17053
L22790 17071
L22809 17109
L22809 17128
L22790 17165
L22771 17184
L22734 17203
L22659 17203
L22621 17221
L22603 17240
L22584 17278
L22584 17353
L22603 17390
L22621 17409
L22659 17428
L22734 17428
L22771 17409
L22790 17390
L22809 17353
L22809 17278
L22790 17240
L22771 17221
L22734 17203
" />
<path d="M10619 23356
L11012 23224
L10619 23093
" />
<path d="M11012 22962
L10619 22962
L10900 22831
L10619 22700
L11012 22700
" />
<path d="M9747 16396
L10028 16396
L10084 16415
L10121 16453
L10140 16509
L10140 16546
" />
<path d="M10140 16003
L10140 16228
" />
<path d="M10140 16115
L9747 16115
L9803 16153
L9840 16190
L9859 16228
" />
<path d="M26284 21696
L26284 21471
" />
<path d="M26678 21584
L26284 21584
" />
<path d="M26678 21340
L26284 21340
L26284 21190
L26303 21153
L26321 21134
L26359 21115
L26415 21115
L26453 21134
L26471 21153
L26490 21190
L26490 21340
" />
<path d="M26678 20740
L26678 20965
" />
<path d="M26678 20853
L26284 20853
L26340 20890
L26378 20928
L26396 20965
" />
<path d="M25468 19984
L25468 20265
L25450 20321
L25412 20359
L25356 20378
L25318 20378
" />
<path d="M25637 20021
L25656 20003
L25693 19984
L25787 19984
L25824 20003
L25843 20021
L25862 20059
L25862 20096
L25843 20153
L25618 20378
L25862 20378
" />
<path d="M14128 12915
L14128 13178
" />
<path d="M14034 12765
L13940 13046
L14184 13046
" />
<path d="M14296 12784
L14559 12784
L14390 13178
" />
<path d="M14709 13178
L14709 12784
" />
<path d="M14746 13028
L14859 13178
" />
<path d="M14859 12915
L14709 13065
" />
<path d="M17184 13428
L17053 13240
" />
<path d="M16959 13428
L16959 13034
L17109 13034
L17146 13053
L17165 13071
L17184 13109
L17184 13165
L17165 13203
L17146 13221
L17109 13240
L16959 13240
" />
<path d="M17559 13428
L17334 13428
" />
<path d="M17446 13428
L17446 13034
L17409 13090
L17371 13128
L17334 13146
" />
<path d="M23346 15967
L23159 15967
L23140 16154
L23159 16136
L23196 16117
L23290 16117
L23328 16136
L23346 16154
L23365 16192
L23365 16286
L23346 16323
L23328 16342
L23290 16361
L23196 16361
L23159 16342
L23140 16323
" />
<path d="M23703 15967
L23628 15967
L23590 15986
L23571 16004
L23534 16061
L23515 16136
L23515 16286
L23534 16323
L23553 16342
L23590 16361
L23665 16361
L23703 16342
L23721 16323
L23740 16286
L23740 16192
L23721 16154
L23703 16136
L23665 16117
L23590 16117
L23553 16136
L23534 16154
L23515 16192
" />
<path d="M23909 16361
L23909 15967
" />
<path d="M23946 16211
L24059 16361
" />
<path d="M24059 16098
L23909 16248
" />
<path d="M22434 15428
L22303 15240
" />
<path d="M22209 15428
L22209 15034
L22359 15034
L22396 15053
L22415 15071
L22434 15109
L22434 15165
L22415 15203
L22396 15221
L22359 15240
L22209 15240
" />
<path d="M22584 15071
L22603 15053
L22640 15034
L22734 15034
L22771 15053
L22790 15071
L22809 15109
L22809 15146
L22790 15203
L22565 15428
L22809 15428
" />
<path d="M23328 12115
L23328 12378
" />
<path d="M23234 11965
L23140 12246
L23384 12246
" />
<path d="M23496 11984
L23759 11984
L23590 12378
" />
<path d="M23909 12378
L23909 11984
" />
<path d="M23946 12228
L24059 12378
" />
<path d="M24059 12115
L23909 12265
" />
<path d="M22434 11428
L22303 11240
" />
<path d="M22209 11428
L22209 11034
L22359 11034
L22396 11053
L22415 11071
L22434 11109
L22434 11165
L22415 11203
L22396 11221
L22359 11240
L22209 11240
" />
<path d="M22771 11165
L22771 11428
" />
<path d="M22678 11015
L22584 11296
L22828 11296
" />
<path d="M23121 13984
L23365 13984
L23234 14134
L23290 14134
L23328 14153
L23346 14171
L23365 14209
L23365 14303
L23346 14340
L23328 14359
L23290 14378
L23178 14378
L23140 14359
L23121 14340
" />
<path d="M23496 13984
L23740 13984
L23609 14134
L23665 14134
L23703 14153
L23721 14171
L23740 14209
L23740 14303
L23721 14340
L23703 14359
L23665 14378
L23553 14378
L23515 14359
L23496 14340
" />
<path d="M23909 14378
L23909 13984
" />
<path d="M23946 14228
L24059 14378
" />
<path d="M24059 14115
L23909 14265
" />
<path d="M22434 13428
L22303 13240
" />
<path d="M22209 13428
L22209 13034
L22359 13034
L22396 13053
L22415 13071
L22434 13109
L22434 13165
L22415 13203
L22396 13221
L22359 13240
L22209 13240
" />
<path d="M22790 13034
L22603 13034
L22584 13221
L22603 13203
L22640 13184
L22734 13184
L22771 13203
L22790 13221
L22809 13259
L22809 13353
L22790 13390
L22771 13409
L22734 13428
L22640 13428
L22603 13409
L22584 13390
" />
<path d="M23365 20361
L23140 20361
" />
<path d="M23253 20361
L23253 19967
L23215 20023
L23178 20061
L23140 20079
" />
<path d="M23609 19967
L23646 19967
L23684 19986
L23703 20004
L23721 20042
L23740 20117
L23740 20211
L23721 20286
L23703 20323
L23684 20342
L23646 20361
L23609 20361
L23571 20342
L23553 20323
L23534 20286
L23515 20211
L23515 20117
L23534 20042
L23553 20004
L23571 19986
L23609 19967
" />
<path d="M23909 20361
L23909 19967
" />
<path d="M23946 20211
L24059 20361
" />
<path d="M24059 20098
L23909 20248
" />
<path d="M22434 19428
L22303 19240
" />
<path d="M22209 19428
L22209 19034
L22359 19034
L22396 19053
L22415 19071
L22434 19109
L22434 19165
L22415 19203
L22396 19221
L22359 19240
L22209 19240
" />
<path d="M22771 19034
L22696 19034
L22659 19053
L22640 19071
L22603 19128
L22584 19203
L22584 19353
L22603 19390
L22621 19409
L22659 19428
L22734 19428
L22771 19409
L22790 19390
L22809 19353
L22809 19259
L22790 19221
L22771 19203
L22734 19184
L22659 19184
L22621 19203
L22603 19221
L22584 19259
" />
<path d="M23106 24378
L22881 24378
" />
<path d="M22993 24378
L22993 23984
L22956 24040
L22918 24078
L22881 24096
" />
<path d="M23275 24340
L23293 24359
L23275 24378
L23256 24359
L23275 24340
L23275 24378
" />
<path d="M23443 24021
L23462 24003
L23500 23984
L23593 23984
L23631 24003
L23649 24021
L23668 24059
L23668 24096
L23649 24153
L23425 24378
L23668 24378
" />
<path d="M23837 24378
L23837 23984
L23968 24265
L24099 23984
L24099 24378
" />
<path d="M22434 23428
L22303 23240
" />
<path d="M22209 23428
L22209 23034
L22359 23034
L22396 23053
L22415 23071
L22434 23109
L22434 23165
L22415 23203
L22396 23221
L22359 23240
L22209 23240
" />
<path d="M22565 23034
L22828 23034
L22659 23428
" />
<path d="M22734 21984
L22978 21984
L22846 22134
L22903 22134
L22940 22153
L22959 22171
L22978 22209
L22978 22303
L22959 22340
L22940 22359
L22903 22378
L22790 22378
L22753 22359
L22734 22340
" />
<path d="M23165 22378
L23240 22378
L23278 22359
L23296 22340
L23334 22284
L23353 22209
L23353 22059
L23334 22021
L23315 22003
L23278 21984
L23203 21984
L23165 22003
L23146 22021
L23128 22059
L23128 22153
L23146 22190
L23165 22209
L23203 22228
L23278 22228
L23315 22209
L23334 22190
L23353 22153
" />
<path d="M23596 21984
L23634 21984
L23671 22003
L23690 22021
L23709 22059
L23728 22134
L23728 22228
L23709 22303
L23690 22340
L23671 22359
L23634 22378
L23596 22378
L23559 22359
L23540 22340
L23521 22303
L23503 22228
L23503 22134
L23521 22059
L23540 22021
L23559 22003
L23596 21984
" />
<path d="M23896 22378
L23896 21984
" />
<path d="M23934 22228
L24046 22378
" />
<path d="M24046 22115
L23896 22265
" />
<path d="M22434 21428
L22303 21240
" />
<path d="M22209 21428
L22209 21034
L22359 21034
L22396 21053
L22415 21071
L22434 21109
L22434 21165
L22415 21203
L22396 21221
L22359 21240
L22209 21240
" />
<path d="M22621 21428
L22696 21428
L22734 21409
L22753 21390
L22790 21334
L22809 21259
L22809 21109
L22790 21071
L22771 21053
L22734 21034
L22659 21034
L22621 21053
L22603 21071
L22584 21109
L22584 21203
L22603 21240
L22621 21259
L22659 21278
L22734 21278
L22771 21259
L22790 21240
L22809 21203
" />
<path d="M17000 24278
L16775 24278
" />
<path d="M16887 24278
L16887 23884
L16850 23940
L16812 23978
L16775 23996
" />
<path d="M17243 23884
L17281 23884
L17318 23903
L17337 23921
L17356 23959
L17374 24034
L17374 24128
L17356 24203
L17337 24240
L17318 24259
L17281 24278
L17243 24278
L17206 24259
L17187 24240
L17168 24203
L17150 24128
L17150 24034
L17168 23959
L17187 23921
L17206 23903
L17243 23884
" />
<path d="M17543 24278
L17543 23884
L17674 24165
L17806 23884
L17806 24278
" />
<path d="M16996 23428
L16865 23240
" />
<path d="M16771 23428
L16771 23034
L16921 23034
L16959 23053
L16978 23071
L16996 23109
L16996 23165
L16978 23203
L16959 23221
L16921 23240
L16771 23240
" />
<path d="M17371 23428
L17146 23428
" />
<path d="M17259 23428
L17259 23034
L17221 23090
L17184 23128
L17146 23146
" />
<path d="M17615 23034
L17653 23034
L17690 23053
L17709 23071
L17728 23109
L17746 23184
L17746 23278
L17728 23353
L17709 23390
L17690 23409
L17653 23428
L17615 23428
L17578 23409
L17559 23390
L17540 23353
L17521 23278
L17521 23184
L17540 23109
L17559 23071
L17578 23053
L17615 23034
" />
<path d="M9587 18553
L9550 18534
L9531 18515
L9512 18478
L9512 18459
L9531 18421
L9550 18403
L9587 18384
L9662 18384
L9700 18403
L9718 18421
L9737 18459
L9737 18478
L9718 18515
L9700 18534
L9662 18553
L9587 18553
L9550 18571
L9531 18590
L9512 18628
L9512 18703
L9531 18740
L9550 18759
L9587 18778
L9662 18778
L9700 18759
L9718 18740
L9737 18703
L9737 18628
L9718 18590
L9700 18571
L9662 18553
" />
<path d="M9887 18421
L9906 18403
L9943 18384
L10037 18384
L10075 18403
L10093 18421
L10112 18459
L10112 18496
L10093 18553
L9868 18778
L10112 18778
" />
<path d="M10356 18384
L10393 18384
L10431 18403
L10450 18421
L10468 18459
L10487 18534
L10487 18628
L10468 18703
L10450 18740
L10431 18759
L10393 18778
L10356 18778
L10318 18759
L10300 18740
L10281 18703
L10262 18628
L10262 18534
L10281 18459
L10300 18421
L10318 18403
L10356 18384
" />
<path d="M10937 18365
L10600 18871
" />
<path d="M11143 18384
L11181 18384
L11218 18403
L11237 18421
L11256 18459
L11274 18534
L11274 18628
L11256 18703
L11237 18740
L11218 18759
L11181 18778
L11143 18778
L11106 18759
L11087 18740
L11068 18703
L11049 18628
L11049 18534
L11068 18459
L11087 18421
L11106 18403
L11143 18384
" />
<path d="M11443 18740
L11462 18759
L11443 18778
L11424 18759
L11443 18740
L11443 18778
" />
<path d="M11818 18384
L11631 18384
L11612 18571
L11631 18553
L11668 18534
L11762 18534
L11799 18553
L11818 18571
L11837 18609
L11837 18703
L11818 18740
L11799 18759
L11762 18778
L11668 18778
L11631 18759
L11612 18740
" />
<path d="M11968 18384
L12062 18778
L12137 18496
L12212 18778
L12306 18384
" />
<path d="M10496 19678
L10365 19490
" />
<path d="M10271 19678
L10271 19284
L10421 19284
L10459 19303
L10478 19321
L10496 19359
L10496 19415
L10478 19453
L10459 19471
L10421 19490
L10271 19490
" />
<path d="M10871 19678
L10646 19678
" />
<path d="M10759 19678
L10759 19284
L10721 19340
L10684 19378
L10646 19396
" />
<path d="M11246 19678
L11021 19678
" />
<path d="M11134 19678
L11134 19284
L11096 19340
L11059 19378
L11021 19396
" />
</g> 
</svg>
