G04 #@! TF.GenerationSoftware,KiCad,Pcbnew,(5.0.2)-1*
G04 #@! TF.CreationDate,2019-04-01T19:29:54-03:00*
G04 #@! TF.ProjectId,ponta-de-prova-logica-simplificada#confeccao-semi-profissional,706f6e74-612d-4646-952d-70726f76612d,02*
G04 #@! TF.SameCoordinates,Original*
G04 #@! TF.FileFunction,Legend,Top*
G04 #@! TF.FilePolarity,Positive*
%FSLAX46Y46*%
G04 Gerber Fmt 4.6, Leading zero omitted, Abs format (unit mm)*
G04 Created by KiCad (PCBNEW (5.0.2)-1) date 01-04-2019 19:29:54*
%MOMM*%
%LPD*%
G01*
G04 APERTURE LIST*
%ADD10C,0.300000*%
%ADD11C,0.200000*%
%ADD12C,0.100000*%
%ADD13C,0.120000*%
%ADD14C,0.150000*%
G04 APERTURE END LIST*
D10*
X27118571Y-56586428D02*
X27118571Y-56443571D01*
X27190000Y-56300714D01*
X27261428Y-56229285D01*
X27404285Y-56157857D01*
X27690000Y-56086428D01*
X28047142Y-56086428D01*
X28332857Y-56157857D01*
X28475714Y-56229285D01*
X28547142Y-56300714D01*
X28618571Y-56443571D01*
X28618571Y-56586428D01*
X28547142Y-56729285D01*
X28475714Y-56800714D01*
X28332857Y-56872142D01*
X28047142Y-56943571D01*
X27690000Y-56943571D01*
X27404285Y-56872142D01*
X27261428Y-56800714D01*
X27190000Y-56729285D01*
X27118571Y-56586428D01*
X22268571Y-55451428D02*
X22268571Y-56308571D01*
X22268571Y-55880000D02*
X20768571Y-55880000D01*
X20982857Y-56022857D01*
X21125714Y-56165714D01*
X21197142Y-56308571D01*
D11*
X19060000Y-39687380D02*
X19000476Y-39806428D01*
X19000476Y-39985000D01*
X19060000Y-40163571D01*
X19179047Y-40282619D01*
X19298095Y-40342142D01*
X19536190Y-40401666D01*
X19714761Y-40401666D01*
X19952857Y-40342142D01*
X20071904Y-40282619D01*
X20190952Y-40163571D01*
X20250476Y-39985000D01*
X20250476Y-39865952D01*
X20190952Y-39687380D01*
X20131428Y-39627857D01*
X19714761Y-39627857D01*
X19714761Y-39865952D01*
X20250476Y-39092142D02*
X19000476Y-39092142D01*
X20250476Y-38377857D01*
X19000476Y-38377857D01*
X20250476Y-37782619D02*
X19000476Y-37782619D01*
X19000476Y-37485000D01*
X19060000Y-37306428D01*
X19179047Y-37187380D01*
X19298095Y-37127857D01*
X19536190Y-37068333D01*
X19714761Y-37068333D01*
X19952857Y-37127857D01*
X20071904Y-37187380D01*
X20190952Y-37306428D01*
X20250476Y-37485000D01*
X20250476Y-37782619D01*
X19000476Y-45303095D02*
X20250476Y-44886428D01*
X19000476Y-44469761D01*
X20190952Y-43517380D02*
X20250476Y-43636428D01*
X20250476Y-43874523D01*
X20190952Y-43993571D01*
X20131428Y-44053095D01*
X20012380Y-44112619D01*
X19655238Y-44112619D01*
X19536190Y-44053095D01*
X19476666Y-43993571D01*
X19417142Y-43874523D01*
X19417142Y-43636428D01*
X19476666Y-43517380D01*
X20190952Y-42445952D02*
X20250476Y-42565000D01*
X20250476Y-42803095D01*
X20190952Y-42922142D01*
X20131428Y-42981666D01*
X20012380Y-43041190D01*
X19655238Y-43041190D01*
X19536190Y-42981666D01*
X19476666Y-42922142D01*
X19417142Y-42803095D01*
X19417142Y-42565000D01*
X19476666Y-42445952D01*
D12*
X20320000Y-67945000D02*
G75*
G02X17780000Y-65405000I0J2540000D01*
G01*
X83820000Y-65405000D02*
G75*
G02X81280000Y-67945000I-2540000J0D01*
G01*
X81280000Y-18415000D02*
G75*
G02X83820000Y-20955000I0J-2540000D01*
G01*
X17780000Y-20955000D02*
G75*
G02X20320000Y-18415000I2540000J0D01*
G01*
X20320000Y-67945000D02*
X81280000Y-67945000D01*
X17780000Y-20955000D02*
X17780000Y-65405000D01*
X81280000Y-18415000D02*
X20320000Y-18415000D01*
X83820000Y-65405000D02*
X83820000Y-20955000D01*
G04 #@! TO.C,SW1*
X31496000Y-25844500D02*
X31496000Y-34099500D01*
X22923500Y-25844500D02*
X22923500Y-34417000D01*
X31496000Y-25844500D02*
X22923500Y-25844500D01*
X31496000Y-34099500D02*
X31178500Y-34417000D01*
X31178500Y-34417000D02*
X22923500Y-34417000D01*
D13*
G04 #@! TO.C,R12*
X30575000Y-54710000D02*
X30575000Y-54380000D01*
X24035000Y-54710000D02*
X30575000Y-54710000D01*
X24035000Y-54380000D02*
X24035000Y-54710000D01*
X30575000Y-51970000D02*
X30575000Y-52300000D01*
X24035000Y-51970000D02*
X30575000Y-51970000D01*
X24035000Y-52300000D02*
X24035000Y-51970000D01*
G04 #@! TO.C,D1*
X25208608Y-60092335D02*
G75*
G03X25365516Y-56860000I-1078608J1672335D01*
G01*
X23051392Y-60092335D02*
G75*
G02X22894484Y-56860000I1078608J1672335D01*
G01*
X25209837Y-59461130D02*
G75*
G03X25210000Y-57379039I-1079837J1041130D01*
G01*
X23050163Y-59461130D02*
G75*
G02X23050000Y-57379039I1079837J1041130D01*
G01*
X25366000Y-56860000D02*
X25210000Y-56860000D01*
X23050000Y-56860000D02*
X22894000Y-56860000D01*
G04 #@! TO.C,R3*
X47085000Y-29615000D02*
X47085000Y-29945000D01*
X47085000Y-29945000D02*
X40545000Y-29945000D01*
X40545000Y-29945000D02*
X40545000Y-29615000D01*
X47085000Y-27535000D02*
X47085000Y-27205000D01*
X47085000Y-27205000D02*
X40545000Y-27205000D01*
X40545000Y-27205000D02*
X40545000Y-27535000D01*
G04 #@! TO.C,U1*
X38565000Y-54730000D02*
X49065000Y-54730000D01*
X38565000Y-36710000D02*
X38565000Y-54730000D01*
X49065000Y-36710000D02*
X38565000Y-36710000D01*
X49065000Y-54730000D02*
X49065000Y-36710000D01*
X41565000Y-54670000D02*
X42815000Y-54670000D01*
X41565000Y-36770000D02*
X41565000Y-54670000D01*
X46065000Y-36770000D02*
X41565000Y-36770000D01*
X46065000Y-54670000D02*
X46065000Y-36770000D01*
X44815000Y-54670000D02*
X46065000Y-54670000D01*
X42815000Y-54670000D02*
G75*
G02X44815000Y-54670000I1000000J0D01*
G01*
G04 #@! TO.C,C2*
X37250000Y-46950000D02*
X37565000Y-46950000D01*
X34825000Y-46950000D02*
X35140000Y-46950000D01*
X37250000Y-52190000D02*
X37565000Y-52190000D01*
X34825000Y-52190000D02*
X35140000Y-52190000D01*
X37565000Y-52190000D02*
X37565000Y-46950000D01*
X34825000Y-52190000D02*
X34825000Y-46950000D01*
G04 #@! TO.C,C1*
X37565000Y-37980000D02*
X37565000Y-43220000D01*
X34825000Y-37980000D02*
X34825000Y-43220000D01*
X37565000Y-37980000D02*
X37250000Y-37980000D01*
X35140000Y-37980000D02*
X34825000Y-37980000D01*
X37565000Y-43220000D02*
X37250000Y-43220000D01*
X35140000Y-43220000D02*
X34825000Y-43220000D01*
D14*
G04 #@! TO.C,PP1*
X63500000Y-48260000D02*
X83820000Y-48260000D01*
X83820000Y-48260000D02*
X83820000Y-38100000D01*
X83820000Y-38100000D02*
X63500000Y-38100000D01*
X63500000Y-38100000D02*
X63500000Y-48260000D01*
X64770000Y-48260000D02*
X64770000Y-58420000D01*
X64770000Y-58420000D02*
X68580000Y-58420000D01*
X68580000Y-58420000D02*
X68580000Y-48260000D01*
X78740000Y-48260000D02*
X78740000Y-58420000D01*
X82550000Y-58420000D02*
X82550000Y-48260000D01*
X78740000Y-58420000D02*
X82550000Y-58420000D01*
X68580000Y-38100000D02*
X68580000Y-27940000D01*
X64770000Y-27940000D02*
X64770000Y-38100000D01*
X68580000Y-27940000D02*
X64770000Y-27940000D01*
X82550000Y-38100000D02*
X82550000Y-27940000D01*
X78740000Y-27940000D02*
X78740000Y-38100000D01*
X82550000Y-27940000D02*
X78740000Y-27940000D01*
D13*
G04 #@! TO.C,R8*
X60420000Y-45185000D02*
X60420000Y-44855000D01*
X53880000Y-45185000D02*
X60420000Y-45185000D01*
X53880000Y-44855000D02*
X53880000Y-45185000D01*
X60420000Y-42445000D02*
X60420000Y-42775000D01*
X53880000Y-42445000D02*
X60420000Y-42445000D01*
X53880000Y-42775000D02*
X53880000Y-42445000D01*
G04 #@! TO.C,D2*
X29400000Y-56860000D02*
X29244000Y-56860000D01*
X31716000Y-56860000D02*
X31560000Y-56860000D01*
X29400163Y-59461130D02*
G75*
G02X29400000Y-57379039I1079837J1041130D01*
G01*
X31559837Y-59461130D02*
G75*
G03X31560000Y-57379039I-1079837J1041130D01*
G01*
X29401392Y-60092335D02*
G75*
G02X29244484Y-56860000I1078608J1672335D01*
G01*
X31558608Y-60092335D02*
G75*
G03X31715516Y-56860000I-1078608J1672335D01*
G01*
G04 #@! TO.C,J1*
X21005000Y-46465000D02*
X33605000Y-46465000D01*
X33605000Y-46465000D02*
X33605000Y-36115000D01*
X33605000Y-36115000D02*
X32655000Y-36115000D01*
X32655000Y-36115000D02*
X32905000Y-35615000D01*
X32905000Y-35615000D02*
X31005000Y-35615000D01*
X31005000Y-35615000D02*
X30955000Y-35615000D01*
X30955000Y-35615000D02*
X31205000Y-36115000D01*
X31205000Y-36115000D02*
X25805000Y-36115000D01*
X25805000Y-36115000D02*
X26105000Y-35615000D01*
X26105000Y-35615000D02*
X21005000Y-35615000D01*
X21005000Y-35615000D02*
X21005000Y-46465000D01*
G04 #@! TO.C,R1*
X47085000Y-35025000D02*
X47085000Y-34695000D01*
X40545000Y-35025000D02*
X47085000Y-35025000D01*
X40545000Y-34695000D02*
X40545000Y-35025000D01*
X47085000Y-32285000D02*
X47085000Y-32615000D01*
X40545000Y-32285000D02*
X47085000Y-32285000D01*
X40545000Y-32615000D02*
X40545000Y-32285000D01*
G04 #@! TO.C,R2*
X60420000Y-40105000D02*
X60420000Y-39775000D01*
X53880000Y-40105000D02*
X60420000Y-40105000D01*
X53880000Y-39775000D02*
X53880000Y-40105000D01*
X60420000Y-37365000D02*
X60420000Y-37695000D01*
X53880000Y-37365000D02*
X60420000Y-37365000D01*
X53880000Y-37695000D02*
X53880000Y-37365000D01*
G04 #@! TO.C,R4*
X60420000Y-29945000D02*
X60420000Y-29615000D01*
X53880000Y-29945000D02*
X60420000Y-29945000D01*
X53880000Y-29615000D02*
X53880000Y-29945000D01*
X60420000Y-27205000D02*
X60420000Y-27535000D01*
X53880000Y-27205000D02*
X60420000Y-27205000D01*
X53880000Y-27535000D02*
X53880000Y-27205000D01*
G04 #@! TO.C,R5*
X53880000Y-32615000D02*
X53880000Y-32285000D01*
X53880000Y-32285000D02*
X60420000Y-32285000D01*
X60420000Y-32285000D02*
X60420000Y-32615000D01*
X53880000Y-34695000D02*
X53880000Y-35025000D01*
X53880000Y-35025000D02*
X60420000Y-35025000D01*
X60420000Y-35025000D02*
X60420000Y-34695000D01*
G04 #@! TO.C,R6*
X53880000Y-47855000D02*
X53880000Y-47525000D01*
X53880000Y-47525000D02*
X60420000Y-47525000D01*
X60420000Y-47525000D02*
X60420000Y-47855000D01*
X53880000Y-49935000D02*
X53880000Y-50265000D01*
X53880000Y-50265000D02*
X60420000Y-50265000D01*
X60420000Y-50265000D02*
X60420000Y-49935000D01*
G04 #@! TO.C,R7*
X53880000Y-58015000D02*
X53880000Y-57685000D01*
X53880000Y-57685000D02*
X60420000Y-57685000D01*
X60420000Y-57685000D02*
X60420000Y-58015000D01*
X53880000Y-60095000D02*
X53880000Y-60425000D01*
X53880000Y-60425000D02*
X60420000Y-60425000D01*
X60420000Y-60425000D02*
X60420000Y-60095000D01*
G04 #@! TO.C,R9*
X53880000Y-52605000D02*
X53880000Y-52935000D01*
X60420000Y-52605000D02*
X53880000Y-52605000D01*
X60420000Y-52935000D02*
X60420000Y-52605000D01*
X53880000Y-55345000D02*
X53880000Y-55015000D01*
X60420000Y-55345000D02*
X53880000Y-55345000D01*
X60420000Y-55015000D02*
X60420000Y-55345000D01*
G04 #@! TO.C,R10*
X47085000Y-60095000D02*
X47085000Y-60425000D01*
X47085000Y-60425000D02*
X40545000Y-60425000D01*
X40545000Y-60425000D02*
X40545000Y-60095000D01*
X47085000Y-58015000D02*
X47085000Y-57685000D01*
X47085000Y-57685000D02*
X40545000Y-57685000D01*
X40545000Y-57685000D02*
X40545000Y-58015000D01*
G04 #@! TO.C,R11*
X30575000Y-50900000D02*
X30575000Y-50570000D01*
X24035000Y-50900000D02*
X30575000Y-50900000D01*
X24035000Y-50570000D02*
X24035000Y-50900000D01*
X30575000Y-48160000D02*
X30575000Y-48490000D01*
X24035000Y-48160000D02*
X30575000Y-48160000D01*
X24035000Y-48490000D02*
X24035000Y-48160000D01*
G04 #@! TD*
G04 #@! TO.C,SW1*
D14*
X32321666Y-28979761D02*
X32464523Y-29027380D01*
X32702619Y-29027380D01*
X32797857Y-28979761D01*
X32845476Y-28932142D01*
X32893095Y-28836904D01*
X32893095Y-28741666D01*
X32845476Y-28646428D01*
X32797857Y-28598809D01*
X32702619Y-28551190D01*
X32512142Y-28503571D01*
X32416904Y-28455952D01*
X32369285Y-28408333D01*
X32321666Y-28313095D01*
X32321666Y-28217857D01*
X32369285Y-28122619D01*
X32416904Y-28075000D01*
X32512142Y-28027380D01*
X32750238Y-28027380D01*
X32893095Y-28075000D01*
X33226428Y-28027380D02*
X33464523Y-29027380D01*
X33655000Y-28313095D01*
X33845476Y-29027380D01*
X34083571Y-28027380D01*
X34988333Y-29027380D02*
X34416904Y-29027380D01*
X34702619Y-29027380D02*
X34702619Y-28027380D01*
X34607380Y-28170238D01*
X34512142Y-28265476D01*
X34416904Y-28313095D01*
G04 #@! TO.C,R12*
X21407380Y-53982857D02*
X20931190Y-54316190D01*
X21407380Y-54554285D02*
X20407380Y-54554285D01*
X20407380Y-54173333D01*
X20455000Y-54078095D01*
X20502619Y-54030476D01*
X20597857Y-53982857D01*
X20740714Y-53982857D01*
X20835952Y-54030476D01*
X20883571Y-54078095D01*
X20931190Y-54173333D01*
X20931190Y-54554285D01*
X21407380Y-53030476D02*
X21407380Y-53601904D01*
X21407380Y-53316190D02*
X20407380Y-53316190D01*
X20550238Y-53411428D01*
X20645476Y-53506666D01*
X20693095Y-53601904D01*
X20502619Y-52649523D02*
X20455000Y-52601904D01*
X20407380Y-52506666D01*
X20407380Y-52268571D01*
X20455000Y-52173333D01*
X20502619Y-52125714D01*
X20597857Y-52078095D01*
X20693095Y-52078095D01*
X20835952Y-52125714D01*
X21407380Y-52697142D01*
X21407380Y-52078095D01*
G04 #@! TO.C,D1*
X26566904Y-60777380D02*
X26566904Y-59777380D01*
X26805000Y-59777380D01*
X26947857Y-59825000D01*
X27043095Y-59920238D01*
X27090714Y-60015476D01*
X27138333Y-60205952D01*
X27138333Y-60348809D01*
X27090714Y-60539285D01*
X27043095Y-60634523D01*
X26947857Y-60729761D01*
X26805000Y-60777380D01*
X26566904Y-60777380D01*
X28090714Y-60777380D02*
X27519285Y-60777380D01*
X27805000Y-60777380D02*
X27805000Y-59777380D01*
X27709761Y-59920238D01*
X27614523Y-60015476D01*
X27519285Y-60063095D01*
G04 #@! TO.C,R3*
X43648333Y-26741380D02*
X43315000Y-26265190D01*
X43076904Y-26741380D02*
X43076904Y-25741380D01*
X43457857Y-25741380D01*
X43553095Y-25789000D01*
X43600714Y-25836619D01*
X43648333Y-25931857D01*
X43648333Y-26074714D01*
X43600714Y-26169952D01*
X43553095Y-26217571D01*
X43457857Y-26265190D01*
X43076904Y-26265190D01*
X43981666Y-25741380D02*
X44600714Y-25741380D01*
X44267380Y-26122333D01*
X44410238Y-26122333D01*
X44505476Y-26169952D01*
X44553095Y-26217571D01*
X44600714Y-26312809D01*
X44600714Y-26550904D01*
X44553095Y-26646142D01*
X44505476Y-26693761D01*
X44410238Y-26741380D01*
X44124523Y-26741380D01*
X44029285Y-26693761D01*
X43981666Y-26646142D01*
G04 #@! TO.C,U1*
X46863095Y-55122380D02*
X46863095Y-55931904D01*
X46910714Y-56027142D01*
X46958333Y-56074761D01*
X47053571Y-56122380D01*
X47244047Y-56122380D01*
X47339285Y-56074761D01*
X47386904Y-56027142D01*
X47434523Y-55931904D01*
X47434523Y-55122380D01*
X48434523Y-56122380D02*
X47863095Y-56122380D01*
X48148809Y-56122380D02*
X48148809Y-55122380D01*
X48053571Y-55265238D01*
X47958333Y-55360476D01*
X47863095Y-55408095D01*
G04 #@! TO.C,C2*
X36663333Y-55094142D02*
X36615714Y-55141761D01*
X36472857Y-55189380D01*
X36377619Y-55189380D01*
X36234761Y-55141761D01*
X36139523Y-55046523D01*
X36091904Y-54951285D01*
X36044285Y-54760809D01*
X36044285Y-54617952D01*
X36091904Y-54427476D01*
X36139523Y-54332238D01*
X36234761Y-54237000D01*
X36377619Y-54189380D01*
X36472857Y-54189380D01*
X36615714Y-54237000D01*
X36663333Y-54284619D01*
X37044285Y-54284619D02*
X37091904Y-54237000D01*
X37187142Y-54189380D01*
X37425238Y-54189380D01*
X37520476Y-54237000D01*
X37568095Y-54284619D01*
X37615714Y-54379857D01*
X37615714Y-54475095D01*
X37568095Y-54617952D01*
X36996666Y-55189380D01*
X37615714Y-55189380D01*
G04 #@! TO.C,C1*
X36663333Y-35790142D02*
X36615714Y-35837761D01*
X36472857Y-35885380D01*
X36377619Y-35885380D01*
X36234761Y-35837761D01*
X36139523Y-35742523D01*
X36091904Y-35647285D01*
X36044285Y-35456809D01*
X36044285Y-35313952D01*
X36091904Y-35123476D01*
X36139523Y-35028238D01*
X36234761Y-34933000D01*
X36377619Y-34885380D01*
X36472857Y-34885380D01*
X36615714Y-34933000D01*
X36663333Y-34980619D01*
X37615714Y-35885380D02*
X37044285Y-35885380D01*
X37330000Y-35885380D02*
X37330000Y-34885380D01*
X37234761Y-35028238D01*
X37139523Y-35123476D01*
X37044285Y-35171095D01*
G04 #@! TO.C,PP1*
X72421904Y-43632380D02*
X72421904Y-42632380D01*
X72802857Y-42632380D01*
X72898095Y-42680000D01*
X72945714Y-42727619D01*
X72993333Y-42822857D01*
X72993333Y-42965714D01*
X72945714Y-43060952D01*
X72898095Y-43108571D01*
X72802857Y-43156190D01*
X72421904Y-43156190D01*
X73421904Y-43632380D02*
X73421904Y-42632380D01*
X73802857Y-42632380D01*
X73898095Y-42680000D01*
X73945714Y-42727619D01*
X73993333Y-42822857D01*
X73993333Y-42965714D01*
X73945714Y-43060952D01*
X73898095Y-43108571D01*
X73802857Y-43156190D01*
X73421904Y-43156190D01*
X74945714Y-43632380D02*
X74374285Y-43632380D01*
X74660000Y-43632380D02*
X74660000Y-42632380D01*
X74564761Y-42775238D01*
X74469523Y-42870476D01*
X74374285Y-42918095D01*
G04 #@! TO.C,R8*
X59523333Y-41727380D02*
X59190000Y-41251190D01*
X58951904Y-41727380D02*
X58951904Y-40727380D01*
X59332857Y-40727380D01*
X59428095Y-40775000D01*
X59475714Y-40822619D01*
X59523333Y-40917857D01*
X59523333Y-41060714D01*
X59475714Y-41155952D01*
X59428095Y-41203571D01*
X59332857Y-41251190D01*
X58951904Y-41251190D01*
X60094761Y-41155952D02*
X59999523Y-41108333D01*
X59951904Y-41060714D01*
X59904285Y-40965476D01*
X59904285Y-40917857D01*
X59951904Y-40822619D01*
X59999523Y-40775000D01*
X60094761Y-40727380D01*
X60285238Y-40727380D01*
X60380476Y-40775000D01*
X60428095Y-40822619D01*
X60475714Y-40917857D01*
X60475714Y-40965476D01*
X60428095Y-41060714D01*
X60380476Y-41108333D01*
X60285238Y-41155952D01*
X60094761Y-41155952D01*
X59999523Y-41203571D01*
X59951904Y-41251190D01*
X59904285Y-41346428D01*
X59904285Y-41536904D01*
X59951904Y-41632142D01*
X59999523Y-41679761D01*
X60094761Y-41727380D01*
X60285238Y-41727380D01*
X60380476Y-41679761D01*
X60428095Y-41632142D01*
X60475714Y-41536904D01*
X60475714Y-41346428D01*
X60428095Y-41251190D01*
X60380476Y-41203571D01*
X60285238Y-41155952D01*
G04 #@! TO.C,D2*
X32916904Y-60777380D02*
X32916904Y-59777380D01*
X33155000Y-59777380D01*
X33297857Y-59825000D01*
X33393095Y-59920238D01*
X33440714Y-60015476D01*
X33488333Y-60205952D01*
X33488333Y-60348809D01*
X33440714Y-60539285D01*
X33393095Y-60634523D01*
X33297857Y-60729761D01*
X33155000Y-60777380D01*
X32916904Y-60777380D01*
X33869285Y-59872619D02*
X33916904Y-59825000D01*
X34012142Y-59777380D01*
X34250238Y-59777380D01*
X34345476Y-59825000D01*
X34393095Y-59872619D01*
X34440714Y-59967857D01*
X34440714Y-60063095D01*
X34393095Y-60205952D01*
X33821666Y-60777380D01*
X34440714Y-60777380D01*
G04 #@! TO.C,J1*
X33321666Y-33742380D02*
X33321666Y-34456666D01*
X33274047Y-34599523D01*
X33178809Y-34694761D01*
X33035952Y-34742380D01*
X32940714Y-34742380D01*
X34321666Y-34742380D02*
X33750238Y-34742380D01*
X34035952Y-34742380D02*
X34035952Y-33742380D01*
X33940714Y-33885238D01*
X33845476Y-33980476D01*
X33750238Y-34028095D01*
G04 #@! TO.C,J2*
X73326666Y-51522380D02*
X73326666Y-52236666D01*
X73279047Y-52379523D01*
X73183809Y-52474761D01*
X73040952Y-52522380D01*
X72945714Y-52522380D01*
X73755238Y-51617619D02*
X73802857Y-51570000D01*
X73898095Y-51522380D01*
X74136190Y-51522380D01*
X74231428Y-51570000D01*
X74279047Y-51617619D01*
X74326666Y-51712857D01*
X74326666Y-51808095D01*
X74279047Y-51950952D01*
X73707619Y-52522380D01*
X74326666Y-52522380D01*
G04 #@! TO.C,R1*
X37171333Y-32583380D02*
X36838000Y-32107190D01*
X36599904Y-32583380D02*
X36599904Y-31583380D01*
X36980857Y-31583380D01*
X37076095Y-31631000D01*
X37123714Y-31678619D01*
X37171333Y-31773857D01*
X37171333Y-31916714D01*
X37123714Y-32011952D01*
X37076095Y-32059571D01*
X36980857Y-32107190D01*
X36599904Y-32107190D01*
X38123714Y-32583380D02*
X37552285Y-32583380D01*
X37838000Y-32583380D02*
X37838000Y-31583380D01*
X37742761Y-31726238D01*
X37647523Y-31821476D01*
X37552285Y-31869095D01*
G04 #@! TO.C,R2*
X59523333Y-36817380D02*
X59190000Y-36341190D01*
X58951904Y-36817380D02*
X58951904Y-35817380D01*
X59332857Y-35817380D01*
X59428095Y-35865000D01*
X59475714Y-35912619D01*
X59523333Y-36007857D01*
X59523333Y-36150714D01*
X59475714Y-36245952D01*
X59428095Y-36293571D01*
X59332857Y-36341190D01*
X58951904Y-36341190D01*
X59904285Y-35912619D02*
X59951904Y-35865000D01*
X60047142Y-35817380D01*
X60285238Y-35817380D01*
X60380476Y-35865000D01*
X60428095Y-35912619D01*
X60475714Y-36007857D01*
X60475714Y-36103095D01*
X60428095Y-36245952D01*
X59856666Y-36817380D01*
X60475714Y-36817380D01*
G04 #@! TO.C,R4*
X59523333Y-26487380D02*
X59190000Y-26011190D01*
X58951904Y-26487380D02*
X58951904Y-25487380D01*
X59332857Y-25487380D01*
X59428095Y-25535000D01*
X59475714Y-25582619D01*
X59523333Y-25677857D01*
X59523333Y-25820714D01*
X59475714Y-25915952D01*
X59428095Y-25963571D01*
X59332857Y-26011190D01*
X58951904Y-26011190D01*
X60380476Y-25820714D02*
X60380476Y-26487380D01*
X60142380Y-25439761D02*
X59904285Y-26154047D01*
X60523333Y-26154047D01*
G04 #@! TO.C,R5*
X59523333Y-31737380D02*
X59190000Y-31261190D01*
X58951904Y-31737380D02*
X58951904Y-30737380D01*
X59332857Y-30737380D01*
X59428095Y-30785000D01*
X59475714Y-30832619D01*
X59523333Y-30927857D01*
X59523333Y-31070714D01*
X59475714Y-31165952D01*
X59428095Y-31213571D01*
X59332857Y-31261190D01*
X58951904Y-31261190D01*
X60428095Y-30737380D02*
X59951904Y-30737380D01*
X59904285Y-31213571D01*
X59951904Y-31165952D01*
X60047142Y-31118333D01*
X60285238Y-31118333D01*
X60380476Y-31165952D01*
X60428095Y-31213571D01*
X60475714Y-31308809D01*
X60475714Y-31546904D01*
X60428095Y-31642142D01*
X60380476Y-31689761D01*
X60285238Y-31737380D01*
X60047142Y-31737380D01*
X59951904Y-31689761D01*
X59904285Y-31642142D01*
G04 #@! TO.C,R6*
X59523333Y-46977380D02*
X59190000Y-46501190D01*
X58951904Y-46977380D02*
X58951904Y-45977380D01*
X59332857Y-45977380D01*
X59428095Y-46025000D01*
X59475714Y-46072619D01*
X59523333Y-46167857D01*
X59523333Y-46310714D01*
X59475714Y-46405952D01*
X59428095Y-46453571D01*
X59332857Y-46501190D01*
X58951904Y-46501190D01*
X60380476Y-45977380D02*
X60190000Y-45977380D01*
X60094761Y-46025000D01*
X60047142Y-46072619D01*
X59951904Y-46215476D01*
X59904285Y-46405952D01*
X59904285Y-46786904D01*
X59951904Y-46882142D01*
X59999523Y-46929761D01*
X60094761Y-46977380D01*
X60285238Y-46977380D01*
X60380476Y-46929761D01*
X60428095Y-46882142D01*
X60475714Y-46786904D01*
X60475714Y-46548809D01*
X60428095Y-46453571D01*
X60380476Y-46405952D01*
X60285238Y-46358333D01*
X60094761Y-46358333D01*
X59999523Y-46405952D01*
X59951904Y-46453571D01*
X59904285Y-46548809D01*
G04 #@! TO.C,R7*
X59523333Y-57221380D02*
X59190000Y-56745190D01*
X58951904Y-57221380D02*
X58951904Y-56221380D01*
X59332857Y-56221380D01*
X59428095Y-56269000D01*
X59475714Y-56316619D01*
X59523333Y-56411857D01*
X59523333Y-56554714D01*
X59475714Y-56649952D01*
X59428095Y-56697571D01*
X59332857Y-56745190D01*
X58951904Y-56745190D01*
X59856666Y-56221380D02*
X60523333Y-56221380D01*
X60094761Y-57221380D01*
G04 #@! TO.C,R9*
X59523333Y-52141380D02*
X59190000Y-51665190D01*
X58951904Y-52141380D02*
X58951904Y-51141380D01*
X59332857Y-51141380D01*
X59428095Y-51189000D01*
X59475714Y-51236619D01*
X59523333Y-51331857D01*
X59523333Y-51474714D01*
X59475714Y-51569952D01*
X59428095Y-51617571D01*
X59332857Y-51665190D01*
X58951904Y-51665190D01*
X59999523Y-52141380D02*
X60190000Y-52141380D01*
X60285238Y-52093761D01*
X60332857Y-52046142D01*
X60428095Y-51903285D01*
X60475714Y-51712809D01*
X60475714Y-51331857D01*
X60428095Y-51236619D01*
X60380476Y-51189000D01*
X60285238Y-51141380D01*
X60094761Y-51141380D01*
X59999523Y-51189000D01*
X59951904Y-51236619D01*
X59904285Y-51331857D01*
X59904285Y-51569952D01*
X59951904Y-51665190D01*
X59999523Y-51712809D01*
X60094761Y-51760428D01*
X60285238Y-51760428D01*
X60380476Y-51712809D01*
X60428095Y-51665190D01*
X60475714Y-51569952D01*
G04 #@! TO.C,R10*
X36187142Y-58872380D02*
X35853809Y-58396190D01*
X35615714Y-58872380D02*
X35615714Y-57872380D01*
X35996666Y-57872380D01*
X36091904Y-57920000D01*
X36139523Y-57967619D01*
X36187142Y-58062857D01*
X36187142Y-58205714D01*
X36139523Y-58300952D01*
X36091904Y-58348571D01*
X35996666Y-58396190D01*
X35615714Y-58396190D01*
X37139523Y-58872380D02*
X36568095Y-58872380D01*
X36853809Y-58872380D02*
X36853809Y-57872380D01*
X36758571Y-58015238D01*
X36663333Y-58110476D01*
X36568095Y-58158095D01*
X37758571Y-57872380D02*
X37853809Y-57872380D01*
X37949047Y-57920000D01*
X37996666Y-57967619D01*
X38044285Y-58062857D01*
X38091904Y-58253333D01*
X38091904Y-58491428D01*
X38044285Y-58681904D01*
X37996666Y-58777142D01*
X37949047Y-58824761D01*
X37853809Y-58872380D01*
X37758571Y-58872380D01*
X37663333Y-58824761D01*
X37615714Y-58777142D01*
X37568095Y-58681904D01*
X37520476Y-58491428D01*
X37520476Y-58253333D01*
X37568095Y-58062857D01*
X37615714Y-57967619D01*
X37663333Y-57920000D01*
X37758571Y-57872380D01*
G04 #@! TO.C,R11*
X21407380Y-50172857D02*
X20931190Y-50506190D01*
X21407380Y-50744285D02*
X20407380Y-50744285D01*
X20407380Y-50363333D01*
X20455000Y-50268095D01*
X20502619Y-50220476D01*
X20597857Y-50172857D01*
X20740714Y-50172857D01*
X20835952Y-50220476D01*
X20883571Y-50268095D01*
X20931190Y-50363333D01*
X20931190Y-50744285D01*
X21407380Y-49220476D02*
X21407380Y-49791904D01*
X21407380Y-49506190D02*
X20407380Y-49506190D01*
X20550238Y-49601428D01*
X20645476Y-49696666D01*
X20693095Y-49791904D01*
X21407380Y-48268095D02*
X21407380Y-48839523D01*
X21407380Y-48553809D02*
X20407380Y-48553809D01*
X20550238Y-48649047D01*
X20645476Y-48744285D01*
X20693095Y-48839523D01*
G04 #@! TD*
M02*
