%FSLAX45Y45*%
G04 Gerber Fmt 4.5, Leading zero omitted, Abs format (unit mm)*
G04 Created by KiCad (PCBNEW 5.1.12-84ad8e8a86~92~ubuntu20.04.1) date 2022-02-13 23:15:47*
%MOMM*%
%LPD*%
G01*
G04 APERTURE LIST*
%TA.AperFunction,Profile*%
%ADD10C,0.100000*%
%TD*%
%ADD11C,0.200000*%
%ADD12C,0.300000*%
G04 APERTURE END LIST*
D10*
X10350500Y-12446000D02*
G75*
G02*
X10160000Y-12255500I0J190500D01*
G01*
X15240000Y-12255500D02*
G75*
G02*
X15049500Y-12446000I-190500J0D01*
G01*
X15049500Y-8636000D02*
G75*
G02*
X15240000Y-8826500I0J-190500D01*
G01*
X10160000Y-8826500D02*
G75*
G02*
X10350500Y-8636000I190500J0D01*
G01*
X15049500Y-8636000D02*
X10350500Y-8636000D01*
X15240000Y-12255500D02*
X15240000Y-8826500D01*
X10350500Y-12446000D02*
X15049500Y-12446000D01*
X10160000Y-8826500D02*
X10160000Y-12255500D01*
D11*
D12*
X10441428Y-12916714D02*
X10441428Y-12616714D01*
X10512857Y-12616714D01*
X10555714Y-12631000D01*
X10584286Y-12659571D01*
X10598571Y-12688143D01*
X10612857Y-12745286D01*
X10612857Y-12788143D01*
X10598571Y-12845286D01*
X10584286Y-12873857D01*
X10555714Y-12902429D01*
X10512857Y-12916714D01*
X10441428Y-12916714D01*
X10741428Y-12916714D02*
X10741428Y-12716714D01*
X10741428Y-12773857D02*
X10755714Y-12745286D01*
X10770000Y-12731000D01*
X10798571Y-12716714D01*
X10827143Y-12716714D01*
X10927143Y-12916714D02*
X10927143Y-12716714D01*
X10927143Y-12616714D02*
X10912857Y-12631000D01*
X10927143Y-12645286D01*
X10941428Y-12631000D01*
X10927143Y-12616714D01*
X10927143Y-12645286D01*
X11112857Y-12916714D02*
X11084286Y-12902429D01*
X11070000Y-12873857D01*
X11070000Y-12616714D01*
X11270000Y-12916714D02*
X11241428Y-12902429D01*
X11227143Y-12873857D01*
X11227143Y-12616714D01*
X11612857Y-12916714D02*
X11612857Y-12616714D01*
X11712857Y-12831000D01*
X11812857Y-12616714D01*
X11812857Y-12916714D01*
X12084286Y-12916714D02*
X12084286Y-12759571D01*
X12070000Y-12731000D01*
X12041428Y-12716714D01*
X11984286Y-12716714D01*
X11955714Y-12731000D01*
X12084286Y-12902429D02*
X12055714Y-12916714D01*
X11984286Y-12916714D01*
X11955714Y-12902429D01*
X11941428Y-12873857D01*
X11941428Y-12845286D01*
X11955714Y-12816714D01*
X11984286Y-12802429D01*
X12055714Y-12802429D01*
X12084286Y-12788143D01*
X12227143Y-12716714D02*
X12227143Y-13016714D01*
X12227143Y-12731000D02*
X12255714Y-12716714D01*
X12312857Y-12716714D01*
X12341428Y-12731000D01*
X12355714Y-12745286D01*
X12370000Y-12773857D01*
X12370000Y-12859571D01*
X12355714Y-12888143D01*
X12341428Y-12902429D01*
X12312857Y-12916714D01*
X12255714Y-12916714D01*
X12227143Y-12902429D01*
X12498571Y-12888143D02*
X12512857Y-12902429D01*
X12498571Y-12916714D01*
X12484286Y-12902429D01*
X12498571Y-12888143D01*
X12498571Y-12916714D01*
X12498571Y-12731000D02*
X12512857Y-12745286D01*
X12498571Y-12759571D01*
X12484286Y-12745286D01*
X12498571Y-12731000D01*
X12498571Y-12759571D01*
M02*
