%FSLAX45Y45*%
G04 Gerber Fmt 4.5, Leading zero omitted, Abs format (unit mm)*
G04 Created by KiCad (PCBNEW 5.1.12-84ad8e8a86~92~ubuntu20.04.1) date 2022-02-09 01:19:51*
%MOMM*%
%LPD*%
G01*
G04 APERTURE LIST*
%TA.AperFunction,Profile*%
%ADD10C,0.100000*%
%TD*%
%TA.AperFunction,Profile*%
%ADD11C,0.150000*%
%TD*%
%ADD12C,0.200000*%
%ADD13C,0.300000*%
G04 APERTURE END LIST*
D10*
X10350500Y-12446000D02*
G75*
G02*
X10160000Y-12255500I0J190500D01*
G01*
X15240000Y-12255500D02*
G75*
G02*
X15049500Y-12446000I-190500J0D01*
G01*
X15049500Y-8636000D02*
G75*
G02*
X15240000Y-8826500I0J-190500D01*
G01*
D11*
X10160000Y-8826500D02*
G75*
G02*
X10350500Y-8636000I190500J0D01*
G01*
D10*
X15049500Y-8636000D02*
X10350500Y-8636000D01*
X15240000Y-12255500D02*
X15240000Y-8826500D01*
X10350500Y-12446000D02*
X15049500Y-12446000D01*
X10160000Y-8826500D02*
X10160000Y-12255500D01*
D12*
X11009000Y-8977000D02*
X11089000Y-9057000D01*
X11089000Y-8977000D02*
X11009000Y-9057000D01*
X12025000Y-8977000D02*
X12105000Y-9057000D01*
X12105000Y-8977000D02*
X12025000Y-9057000D01*
X12279000Y-9739000D02*
X12359000Y-9819000D01*
X12359000Y-9739000D02*
X12279000Y-9819000D01*
X12533000Y-9104000D02*
X12613000Y-9184000D01*
X12613000Y-9104000D02*
X12533000Y-9184000D01*
X12660000Y-8977000D02*
X12740000Y-9057000D01*
X12740000Y-8977000D02*
X12660000Y-9057000D01*
X12787000Y-9104000D02*
X12867000Y-9184000D01*
X12867000Y-9104000D02*
X12787000Y-9184000D01*
X13041000Y-9739000D02*
X13121000Y-9819000D01*
X13121000Y-9739000D02*
X13041000Y-9819000D01*
X13422000Y-8977000D02*
X13502000Y-9057000D01*
X13502000Y-8977000D02*
X13422000Y-9057000D01*
X13422000Y-9739000D02*
X13502000Y-9819000D01*
X13502000Y-9739000D02*
X13422000Y-9819000D01*
X14438000Y-8977000D02*
X14518000Y-9057000D01*
X14518000Y-8977000D02*
X14438000Y-9057000D01*
X14438000Y-9739000D02*
X14518000Y-9819000D01*
X14518000Y-9739000D02*
X14438000Y-9819000D01*
X14438000Y-10247000D02*
X14518000Y-10327000D01*
X14518000Y-10247000D02*
X14438000Y-10327000D01*
X14438000Y-10501000D02*
X14518000Y-10581000D01*
X14518000Y-10501000D02*
X14438000Y-10581000D01*
X10606000Y-9017000D02*
G75*
G03*
X10606000Y-9017000I-65000J0D01*
G01*
X10987000Y-9779000D02*
G75*
G03*
X10987000Y-9779000I-65000J0D01*
G01*
X10987000Y-10279000D02*
G75*
G03*
X10987000Y-10279000I-65000J0D01*
G01*
X10987000Y-11303000D02*
G75*
G03*
X10987000Y-11303000I-65000J0D01*
G01*
X10987000Y-11803000D02*
G75*
G03*
X10987000Y-11803000I-65000J0D01*
G01*
X12160000Y-10482000D02*
G75*
G03*
X12160000Y-10482000I-65000J0D01*
G01*
X12160000Y-11702000D02*
G75*
G03*
X12160000Y-11702000I-65000J0D01*
G01*
X12765000Y-10287000D02*
G75*
G03*
X12765000Y-10287000I-65000J0D01*
G01*
X13360000Y-10482000D02*
G75*
G03*
X13360000Y-10482000I-65000J0D01*
G01*
X13365000Y-11707000D02*
G75*
G03*
X13365000Y-11707000I-65000J0D01*
G01*
X14543000Y-11311000D02*
G75*
G03*
X14543000Y-11311000I-65000J0D01*
G01*
X14543000Y-11811000D02*
G75*
G03*
X14543000Y-11811000I-65000J0D01*
G01*
D13*
X10438928Y-12916714D02*
X10438928Y-12616714D01*
X10510357Y-12616714D01*
X10553214Y-12631000D01*
X10581786Y-12659571D01*
X10596071Y-12688143D01*
X10610357Y-12745286D01*
X10610357Y-12788143D01*
X10596071Y-12845286D01*
X10581786Y-12873857D01*
X10553214Y-12902429D01*
X10510357Y-12916714D01*
X10438928Y-12916714D01*
X10738928Y-12916714D02*
X10738928Y-12716714D01*
X10738928Y-12773857D02*
X10753214Y-12745286D01*
X10767500Y-12731000D01*
X10796071Y-12716714D01*
X10824643Y-12716714D01*
X10924643Y-12916714D02*
X10924643Y-12716714D01*
X10924643Y-12616714D02*
X10910357Y-12631000D01*
X10924643Y-12645286D01*
X10938928Y-12631000D01*
X10924643Y-12616714D01*
X10924643Y-12645286D01*
X11110357Y-12916714D02*
X11081786Y-12902429D01*
X11067500Y-12873857D01*
X11067500Y-12616714D01*
X11267500Y-12916714D02*
X11238928Y-12902429D01*
X11224643Y-12873857D01*
X11224643Y-12616714D01*
X11610357Y-12916714D02*
X11610357Y-12616714D01*
X11710357Y-12831000D01*
X11810357Y-12616714D01*
X11810357Y-12916714D01*
X12081786Y-12916714D02*
X12081786Y-12759571D01*
X12067500Y-12731000D01*
X12038928Y-12716714D01*
X11981786Y-12716714D01*
X11953214Y-12731000D01*
X12081786Y-12902429D02*
X12053214Y-12916714D01*
X11981786Y-12916714D01*
X11953214Y-12902429D01*
X11938928Y-12873857D01*
X11938928Y-12845286D01*
X11953214Y-12816714D01*
X11981786Y-12802429D01*
X12053214Y-12802429D01*
X12081786Y-12788143D01*
X12224643Y-12716714D02*
X12224643Y-13016714D01*
X12224643Y-12731000D02*
X12253214Y-12716714D01*
X12310357Y-12716714D01*
X12338928Y-12731000D01*
X12353214Y-12745286D01*
X12367500Y-12773857D01*
X12367500Y-12859571D01*
X12353214Y-12888143D01*
X12338928Y-12902429D01*
X12310357Y-12916714D01*
X12253214Y-12916714D01*
X12224643Y-12902429D01*
X12496071Y-12888143D02*
X12510357Y-12902429D01*
X12496071Y-12916714D01*
X12481786Y-12902429D01*
X12496071Y-12888143D01*
X12496071Y-12916714D01*
X12496071Y-12731000D02*
X12510357Y-12745286D01*
X12496071Y-12759571D01*
X12481786Y-12745286D01*
X12496071Y-12731000D01*
X12496071Y-12759571D01*
X10072500Y-13371000D02*
X10152500Y-13451000D01*
X10152500Y-13371000D02*
X10072500Y-13451000D01*
X10496071Y-13246714D02*
X10524643Y-13246714D01*
X10553214Y-13261000D01*
X10567500Y-13275286D01*
X10581786Y-13303857D01*
X10596071Y-13361000D01*
X10596071Y-13432429D01*
X10581786Y-13489571D01*
X10567500Y-13518143D01*
X10553214Y-13532429D01*
X10524643Y-13546714D01*
X10496071Y-13546714D01*
X10467500Y-13532429D01*
X10453214Y-13518143D01*
X10438928Y-13489571D01*
X10424643Y-13432429D01*
X10424643Y-13361000D01*
X10438928Y-13303857D01*
X10453214Y-13275286D01*
X10467500Y-13261000D01*
X10496071Y-13246714D01*
X10724643Y-13518143D02*
X10738928Y-13532429D01*
X10724643Y-13546714D01*
X10710357Y-13532429D01*
X10724643Y-13518143D01*
X10724643Y-13546714D01*
X10910357Y-13375286D02*
X10881786Y-13361000D01*
X10867500Y-13346714D01*
X10853214Y-13318143D01*
X10853214Y-13303857D01*
X10867500Y-13275286D01*
X10881786Y-13261000D01*
X10910357Y-13246714D01*
X10967500Y-13246714D01*
X10996071Y-13261000D01*
X11010357Y-13275286D01*
X11024643Y-13303857D01*
X11024643Y-13318143D01*
X11010357Y-13346714D01*
X10996071Y-13361000D01*
X10967500Y-13375286D01*
X10910357Y-13375286D01*
X10881786Y-13389571D01*
X10867500Y-13403857D01*
X10853214Y-13432429D01*
X10853214Y-13489571D01*
X10867500Y-13518143D01*
X10881786Y-13532429D01*
X10910357Y-13546714D01*
X10967500Y-13546714D01*
X10996071Y-13532429D01*
X11010357Y-13518143D01*
X11024643Y-13489571D01*
X11024643Y-13432429D01*
X11010357Y-13403857D01*
X10996071Y-13389571D01*
X10967500Y-13375286D01*
X11210357Y-13246714D02*
X11238928Y-13246714D01*
X11267500Y-13261000D01*
X11281786Y-13275286D01*
X11296071Y-13303857D01*
X11310357Y-13361000D01*
X11310357Y-13432429D01*
X11296071Y-13489571D01*
X11281786Y-13518143D01*
X11267500Y-13532429D01*
X11238928Y-13546714D01*
X11210357Y-13546714D01*
X11181786Y-13532429D01*
X11167500Y-13518143D01*
X11153214Y-13489571D01*
X11138928Y-13432429D01*
X11138928Y-13361000D01*
X11153214Y-13303857D01*
X11167500Y-13275286D01*
X11181786Y-13261000D01*
X11210357Y-13246714D01*
X11496071Y-13246714D02*
X11524643Y-13246714D01*
X11553214Y-13261000D01*
X11567500Y-13275286D01*
X11581786Y-13303857D01*
X11596071Y-13361000D01*
X11596071Y-13432429D01*
X11581786Y-13489571D01*
X11567500Y-13518143D01*
X11553214Y-13532429D01*
X11524643Y-13546714D01*
X11496071Y-13546714D01*
X11467500Y-13532429D01*
X11453214Y-13518143D01*
X11438928Y-13489571D01*
X11424643Y-13432429D01*
X11424643Y-13361000D01*
X11438928Y-13303857D01*
X11453214Y-13275286D01*
X11467500Y-13261000D01*
X11496071Y-13246714D01*
X11724643Y-13546714D02*
X11724643Y-13346714D01*
X11724643Y-13375286D02*
X11738928Y-13361000D01*
X11767500Y-13346714D01*
X11810357Y-13346714D01*
X11838928Y-13361000D01*
X11853214Y-13389571D01*
X11853214Y-13546714D01*
X11853214Y-13389571D02*
X11867500Y-13361000D01*
X11896071Y-13346714D01*
X11938928Y-13346714D01*
X11967500Y-13361000D01*
X11981786Y-13389571D01*
X11981786Y-13546714D01*
X12124643Y-13546714D02*
X12124643Y-13346714D01*
X12124643Y-13375286D02*
X12138928Y-13361000D01*
X12167500Y-13346714D01*
X12210357Y-13346714D01*
X12238928Y-13361000D01*
X12253214Y-13389571D01*
X12253214Y-13546714D01*
X12253214Y-13389571D02*
X12267500Y-13361000D01*
X12296071Y-13346714D01*
X12338928Y-13346714D01*
X12367500Y-13361000D01*
X12381786Y-13389571D01*
X12381786Y-13546714D01*
X12967500Y-13232429D02*
X12710357Y-13618143D01*
X13353214Y-13246714D02*
X13381786Y-13246714D01*
X13410357Y-13261000D01*
X13424643Y-13275286D01*
X13438928Y-13303857D01*
X13453214Y-13361000D01*
X13453214Y-13432429D01*
X13438928Y-13489571D01*
X13424643Y-13518143D01*
X13410357Y-13532429D01*
X13381786Y-13546714D01*
X13353214Y-13546714D01*
X13324643Y-13532429D01*
X13310357Y-13518143D01*
X13296071Y-13489571D01*
X13281786Y-13432429D01*
X13281786Y-13361000D01*
X13296071Y-13303857D01*
X13310357Y-13275286D01*
X13324643Y-13261000D01*
X13353214Y-13246714D01*
X13581786Y-13518143D02*
X13596071Y-13532429D01*
X13581786Y-13546714D01*
X13567500Y-13532429D01*
X13581786Y-13518143D01*
X13581786Y-13546714D01*
X13781786Y-13246714D02*
X13810357Y-13246714D01*
X13838928Y-13261000D01*
X13853214Y-13275286D01*
X13867500Y-13303857D01*
X13881786Y-13361000D01*
X13881786Y-13432429D01*
X13867500Y-13489571D01*
X13853214Y-13518143D01*
X13838928Y-13532429D01*
X13810357Y-13546714D01*
X13781786Y-13546714D01*
X13753214Y-13532429D01*
X13738928Y-13518143D01*
X13724643Y-13489571D01*
X13710357Y-13432429D01*
X13710357Y-13361000D01*
X13724643Y-13303857D01*
X13738928Y-13275286D01*
X13753214Y-13261000D01*
X13781786Y-13246714D01*
X13981786Y-13246714D02*
X14167500Y-13246714D01*
X14067500Y-13361000D01*
X14110357Y-13361000D01*
X14138928Y-13375286D01*
X14153214Y-13389571D01*
X14167500Y-13418143D01*
X14167500Y-13489571D01*
X14153214Y-13518143D01*
X14138928Y-13532429D01*
X14110357Y-13546714D01*
X14024643Y-13546714D01*
X13996071Y-13532429D01*
X13981786Y-13518143D01*
X14453214Y-13546714D02*
X14281786Y-13546714D01*
X14367500Y-13546714D02*
X14367500Y-13246714D01*
X14338928Y-13289571D01*
X14310357Y-13318143D01*
X14281786Y-13332429D01*
X14724643Y-13246714D02*
X14581786Y-13246714D01*
X14567500Y-13389571D01*
X14581786Y-13375286D01*
X14610357Y-13361000D01*
X14681786Y-13361000D01*
X14710357Y-13375286D01*
X14724643Y-13389571D01*
X14738928Y-13418143D01*
X14738928Y-13489571D01*
X14724643Y-13518143D01*
X14710357Y-13532429D01*
X14681786Y-13546714D01*
X14610357Y-13546714D01*
X14581786Y-13532429D01*
X14567500Y-13518143D01*
X14853214Y-13246714D02*
X14853214Y-13303857D01*
X14967500Y-13246714D02*
X14967500Y-13303857D01*
X15410357Y-13661000D02*
X15396071Y-13646714D01*
X15367500Y-13603857D01*
X15353214Y-13575286D01*
X15338928Y-13532429D01*
X15324643Y-13461000D01*
X15324643Y-13403857D01*
X15338928Y-13332429D01*
X15353214Y-13289571D01*
X15367500Y-13261000D01*
X15396071Y-13218143D01*
X15410357Y-13203857D01*
X15681786Y-13546714D02*
X15510357Y-13546714D01*
X15596071Y-13546714D02*
X15596071Y-13246714D01*
X15567500Y-13289571D01*
X15538928Y-13318143D01*
X15510357Y-13332429D01*
X15781786Y-13246714D02*
X15967500Y-13246714D01*
X15867500Y-13361000D01*
X15910357Y-13361000D01*
X15938928Y-13375286D01*
X15953214Y-13389571D01*
X15967500Y-13418143D01*
X15967500Y-13489571D01*
X15953214Y-13518143D01*
X15938928Y-13532429D01*
X15910357Y-13546714D01*
X15824643Y-13546714D01*
X15796071Y-13532429D01*
X15781786Y-13518143D01*
X16324643Y-13546714D02*
X16324643Y-13246714D01*
X16453214Y-13546714D02*
X16453214Y-13389571D01*
X16438928Y-13361000D01*
X16410357Y-13346714D01*
X16367500Y-13346714D01*
X16338928Y-13361000D01*
X16324643Y-13375286D01*
X16638928Y-13546714D02*
X16610357Y-13532429D01*
X16596071Y-13518143D01*
X16581786Y-13489571D01*
X16581786Y-13403857D01*
X16596071Y-13375286D01*
X16610357Y-13361000D01*
X16638928Y-13346714D01*
X16681786Y-13346714D01*
X16710357Y-13361000D01*
X16724643Y-13375286D01*
X16738928Y-13403857D01*
X16738928Y-13489571D01*
X16724643Y-13518143D01*
X16710357Y-13532429D01*
X16681786Y-13546714D01*
X16638928Y-13546714D01*
X16910357Y-13546714D02*
X16881786Y-13532429D01*
X16867500Y-13503857D01*
X16867500Y-13246714D01*
X17138928Y-13532429D02*
X17110357Y-13546714D01*
X17053214Y-13546714D01*
X17024643Y-13532429D01*
X17010357Y-13503857D01*
X17010357Y-13389571D01*
X17024643Y-13361000D01*
X17053214Y-13346714D01*
X17110357Y-13346714D01*
X17138928Y-13361000D01*
X17153214Y-13389571D01*
X17153214Y-13418143D01*
X17010357Y-13446714D01*
X17267500Y-13532429D02*
X17296071Y-13546714D01*
X17353214Y-13546714D01*
X17381786Y-13532429D01*
X17396071Y-13503857D01*
X17396071Y-13489571D01*
X17381786Y-13461000D01*
X17353214Y-13446714D01*
X17310357Y-13446714D01*
X17281786Y-13432429D01*
X17267500Y-13403857D01*
X17267500Y-13389571D01*
X17281786Y-13361000D01*
X17310357Y-13346714D01*
X17353214Y-13346714D01*
X17381786Y-13361000D01*
X17496071Y-13661000D02*
X17510357Y-13646714D01*
X17538928Y-13603857D01*
X17553214Y-13575286D01*
X17567500Y-13532429D01*
X17581786Y-13461000D01*
X17581786Y-13403857D01*
X17567500Y-13332429D01*
X17553214Y-13289571D01*
X17538928Y-13261000D01*
X17510357Y-13218143D01*
X17496071Y-13203857D01*
X10152500Y-13807000D02*
G75*
G03*
X10152500Y-13807000I-65000J0D01*
G01*
X10596071Y-13942714D02*
X10424643Y-13942714D01*
X10510357Y-13942714D02*
X10510357Y-13642714D01*
X10481786Y-13685571D01*
X10453214Y-13714143D01*
X10424643Y-13728429D01*
X10724643Y-13914143D02*
X10738928Y-13928429D01*
X10724643Y-13942714D01*
X10710357Y-13928429D01*
X10724643Y-13914143D01*
X10724643Y-13942714D01*
X10838928Y-13642714D02*
X11024643Y-13642714D01*
X10924643Y-13757000D01*
X10967500Y-13757000D01*
X10996071Y-13771286D01*
X11010357Y-13785571D01*
X11024643Y-13814143D01*
X11024643Y-13885571D01*
X11010357Y-13914143D01*
X10996071Y-13928429D01*
X10967500Y-13942714D01*
X10881786Y-13942714D01*
X10853214Y-13928429D01*
X10838928Y-13914143D01*
X11210357Y-13642714D02*
X11238928Y-13642714D01*
X11267500Y-13657000D01*
X11281786Y-13671286D01*
X11296071Y-13699857D01*
X11310357Y-13757000D01*
X11310357Y-13828429D01*
X11296071Y-13885571D01*
X11281786Y-13914143D01*
X11267500Y-13928429D01*
X11238928Y-13942714D01*
X11210357Y-13942714D01*
X11181786Y-13928429D01*
X11167500Y-13914143D01*
X11153214Y-13885571D01*
X11138928Y-13828429D01*
X11138928Y-13757000D01*
X11153214Y-13699857D01*
X11167500Y-13671286D01*
X11181786Y-13657000D01*
X11210357Y-13642714D01*
X11496071Y-13642714D02*
X11524643Y-13642714D01*
X11553214Y-13657000D01*
X11567500Y-13671286D01*
X11581786Y-13699857D01*
X11596071Y-13757000D01*
X11596071Y-13828429D01*
X11581786Y-13885571D01*
X11567500Y-13914143D01*
X11553214Y-13928429D01*
X11524643Y-13942714D01*
X11496071Y-13942714D01*
X11467500Y-13928429D01*
X11453214Y-13914143D01*
X11438928Y-13885571D01*
X11424643Y-13828429D01*
X11424643Y-13757000D01*
X11438928Y-13699857D01*
X11453214Y-13671286D01*
X11467500Y-13657000D01*
X11496071Y-13642714D01*
X11724643Y-13942714D02*
X11724643Y-13742714D01*
X11724643Y-13771286D02*
X11738928Y-13757000D01*
X11767500Y-13742714D01*
X11810357Y-13742714D01*
X11838928Y-13757000D01*
X11853214Y-13785571D01*
X11853214Y-13942714D01*
X11853214Y-13785571D02*
X11867500Y-13757000D01*
X11896071Y-13742714D01*
X11938928Y-13742714D01*
X11967500Y-13757000D01*
X11981786Y-13785571D01*
X11981786Y-13942714D01*
X12124643Y-13942714D02*
X12124643Y-13742714D01*
X12124643Y-13771286D02*
X12138928Y-13757000D01*
X12167500Y-13742714D01*
X12210357Y-13742714D01*
X12238928Y-13757000D01*
X12253214Y-13785571D01*
X12253214Y-13942714D01*
X12253214Y-13785571D02*
X12267500Y-13757000D01*
X12296071Y-13742714D01*
X12338928Y-13742714D01*
X12367500Y-13757000D01*
X12381786Y-13785571D01*
X12381786Y-13942714D01*
X12967500Y-13628429D02*
X12710357Y-14014143D01*
X13353214Y-13642714D02*
X13381786Y-13642714D01*
X13410357Y-13657000D01*
X13424643Y-13671286D01*
X13438928Y-13699857D01*
X13453214Y-13757000D01*
X13453214Y-13828429D01*
X13438928Y-13885571D01*
X13424643Y-13914143D01*
X13410357Y-13928429D01*
X13381786Y-13942714D01*
X13353214Y-13942714D01*
X13324643Y-13928429D01*
X13310357Y-13914143D01*
X13296071Y-13885571D01*
X13281786Y-13828429D01*
X13281786Y-13757000D01*
X13296071Y-13699857D01*
X13310357Y-13671286D01*
X13324643Y-13657000D01*
X13353214Y-13642714D01*
X13581786Y-13914143D02*
X13596071Y-13928429D01*
X13581786Y-13942714D01*
X13567500Y-13928429D01*
X13581786Y-13914143D01*
X13581786Y-13942714D01*
X13781786Y-13642714D02*
X13810357Y-13642714D01*
X13838928Y-13657000D01*
X13853214Y-13671286D01*
X13867500Y-13699857D01*
X13881786Y-13757000D01*
X13881786Y-13828429D01*
X13867500Y-13885571D01*
X13853214Y-13914143D01*
X13838928Y-13928429D01*
X13810357Y-13942714D01*
X13781786Y-13942714D01*
X13753214Y-13928429D01*
X13738928Y-13914143D01*
X13724643Y-13885571D01*
X13710357Y-13828429D01*
X13710357Y-13757000D01*
X13724643Y-13699857D01*
X13738928Y-13671286D01*
X13753214Y-13657000D01*
X13781786Y-13642714D01*
X14153214Y-13642714D02*
X14010357Y-13642714D01*
X13996071Y-13785571D01*
X14010357Y-13771286D01*
X14038928Y-13757000D01*
X14110357Y-13757000D01*
X14138928Y-13771286D01*
X14153214Y-13785571D01*
X14167500Y-13814143D01*
X14167500Y-13885571D01*
X14153214Y-13914143D01*
X14138928Y-13928429D01*
X14110357Y-13942714D01*
X14038928Y-13942714D01*
X14010357Y-13928429D01*
X13996071Y-13914143D01*
X14453214Y-13942714D02*
X14281786Y-13942714D01*
X14367500Y-13942714D02*
X14367500Y-13642714D01*
X14338928Y-13685571D01*
X14310357Y-13714143D01*
X14281786Y-13728429D01*
X14567500Y-13671286D02*
X14581786Y-13657000D01*
X14610357Y-13642714D01*
X14681786Y-13642714D01*
X14710357Y-13657000D01*
X14724643Y-13671286D01*
X14738928Y-13699857D01*
X14738928Y-13728429D01*
X14724643Y-13771286D01*
X14553214Y-13942714D01*
X14738928Y-13942714D01*
X14853214Y-13642714D02*
X14853214Y-13699857D01*
X14967500Y-13642714D02*
X14967500Y-13699857D01*
X15410357Y-14057000D02*
X15396071Y-14042714D01*
X15367500Y-13999857D01*
X15353214Y-13971286D01*
X15338928Y-13928429D01*
X15324643Y-13857000D01*
X15324643Y-13799857D01*
X15338928Y-13728429D01*
X15353214Y-13685571D01*
X15367500Y-13657000D01*
X15396071Y-13614143D01*
X15410357Y-13599857D01*
X15681786Y-13942714D02*
X15510357Y-13942714D01*
X15596071Y-13942714D02*
X15596071Y-13642714D01*
X15567500Y-13685571D01*
X15538928Y-13714143D01*
X15510357Y-13728429D01*
X15796071Y-13671286D02*
X15810357Y-13657000D01*
X15838928Y-13642714D01*
X15910357Y-13642714D01*
X15938928Y-13657000D01*
X15953214Y-13671286D01*
X15967500Y-13699857D01*
X15967500Y-13728429D01*
X15953214Y-13771286D01*
X15781786Y-13942714D01*
X15967500Y-13942714D01*
X16324643Y-13942714D02*
X16324643Y-13642714D01*
X16453214Y-13942714D02*
X16453214Y-13785571D01*
X16438928Y-13757000D01*
X16410357Y-13742714D01*
X16367500Y-13742714D01*
X16338928Y-13757000D01*
X16324643Y-13771286D01*
X16638928Y-13942714D02*
X16610357Y-13928429D01*
X16596071Y-13914143D01*
X16581786Y-13885571D01*
X16581786Y-13799857D01*
X16596071Y-13771286D01*
X16610357Y-13757000D01*
X16638928Y-13742714D01*
X16681786Y-13742714D01*
X16710357Y-13757000D01*
X16724643Y-13771286D01*
X16738928Y-13799857D01*
X16738928Y-13885571D01*
X16724643Y-13914143D01*
X16710357Y-13928429D01*
X16681786Y-13942714D01*
X16638928Y-13942714D01*
X16910357Y-13942714D02*
X16881786Y-13928429D01*
X16867500Y-13899857D01*
X16867500Y-13642714D01*
X17138928Y-13928429D02*
X17110357Y-13942714D01*
X17053214Y-13942714D01*
X17024643Y-13928429D01*
X17010357Y-13899857D01*
X17010357Y-13785571D01*
X17024643Y-13757000D01*
X17053214Y-13742714D01*
X17110357Y-13742714D01*
X17138928Y-13757000D01*
X17153214Y-13785571D01*
X17153214Y-13814143D01*
X17010357Y-13842714D01*
X17267500Y-13928429D02*
X17296071Y-13942714D01*
X17353214Y-13942714D01*
X17381786Y-13928429D01*
X17396071Y-13899857D01*
X17396071Y-13885571D01*
X17381786Y-13857000D01*
X17353214Y-13842714D01*
X17310357Y-13842714D01*
X17281786Y-13828429D01*
X17267500Y-13799857D01*
X17267500Y-13785571D01*
X17281786Y-13757000D01*
X17310357Y-13742714D01*
X17353214Y-13742714D01*
X17381786Y-13757000D01*
X17496071Y-14057000D02*
X17510357Y-14042714D01*
X17538928Y-13999857D01*
X17553214Y-13971286D01*
X17567500Y-13928429D01*
X17581786Y-13857000D01*
X17581786Y-13799857D01*
X17567500Y-13728429D01*
X17553214Y-13685571D01*
X17538928Y-13657000D01*
X17510357Y-13614143D01*
X17496071Y-13599857D01*
M02*
