%FSLAX45Y45*%
G04 Gerber Fmt 4.5, Leading zero omitted, Abs format (unit mm)*
G04 Created by KiCad (PCBNEW 5.1.12-84ad8e8a86~92~ubuntu20.04.1) date 2022-02-09 01:19:51*
%MOMM*%
%LPD*%
G01*
G04 APERTURE LIST*
%TA.AperFunction,Profile*%
%ADD10C,0.100000*%
%TD*%
%TA.AperFunction,Profile*%
%ADD11C,0.150000*%
%TD*%
%ADD12C,0.200000*%
%ADD13C,0.300000*%
G04 APERTURE END LIST*
D10*
X10350500Y-12446000D02*
G75*
G02*
X10160000Y-12255500I0J190500D01*
G01*
X15240000Y-12255500D02*
G75*
G02*
X15049500Y-12446000I-190500J0D01*
G01*
X15049500Y-8636000D02*
G75*
G02*
X15240000Y-8826500I0J-190500D01*
G01*
D11*
X10160000Y-8826500D02*
G75*
G02*
X10350500Y-8636000I190500J0D01*
G01*
D10*
X15049500Y-8636000D02*
X10350500Y-8636000D01*
X15240000Y-12255500D02*
X15240000Y-8826500D01*
X10350500Y-12446000D02*
X15049500Y-12446000D01*
X10160000Y-8826500D02*
X10160000Y-12255500D01*
D12*
D13*
X10438928Y-12916714D02*
X10438928Y-12616714D01*
X10510357Y-12616714D01*
X10553214Y-12631000D01*
X10581786Y-12659571D01*
X10596071Y-12688143D01*
X10610357Y-12745286D01*
X10610357Y-12788143D01*
X10596071Y-12845286D01*
X10581786Y-12873857D01*
X10553214Y-12902429D01*
X10510357Y-12916714D01*
X10438928Y-12916714D01*
X10738928Y-12916714D02*
X10738928Y-12716714D01*
X10738928Y-12773857D02*
X10753214Y-12745286D01*
X10767500Y-12731000D01*
X10796071Y-12716714D01*
X10824643Y-12716714D01*
X10924643Y-12916714D02*
X10924643Y-12716714D01*
X10924643Y-12616714D02*
X10910357Y-12631000D01*
X10924643Y-12645286D01*
X10938928Y-12631000D01*
X10924643Y-12616714D01*
X10924643Y-12645286D01*
X11110357Y-12916714D02*
X11081786Y-12902429D01*
X11067500Y-12873857D01*
X11067500Y-12616714D01*
X11267500Y-12916714D02*
X11238928Y-12902429D01*
X11224643Y-12873857D01*
X11224643Y-12616714D01*
X11610357Y-12916714D02*
X11610357Y-12616714D01*
X11710357Y-12831000D01*
X11810357Y-12616714D01*
X11810357Y-12916714D01*
X12081786Y-12916714D02*
X12081786Y-12759571D01*
X12067500Y-12731000D01*
X12038928Y-12716714D01*
X11981786Y-12716714D01*
X11953214Y-12731000D01*
X12081786Y-12902429D02*
X12053214Y-12916714D01*
X11981786Y-12916714D01*
X11953214Y-12902429D01*
X11938928Y-12873857D01*
X11938928Y-12845286D01*
X11953214Y-12816714D01*
X11981786Y-12802429D01*
X12053214Y-12802429D01*
X12081786Y-12788143D01*
X12224643Y-12716714D02*
X12224643Y-13016714D01*
X12224643Y-12731000D02*
X12253214Y-12716714D01*
X12310357Y-12716714D01*
X12338928Y-12731000D01*
X12353214Y-12745286D01*
X12367500Y-12773857D01*
X12367500Y-12859571D01*
X12353214Y-12888143D01*
X12338928Y-12902429D01*
X12310357Y-12916714D01*
X12253214Y-12916714D01*
X12224643Y-12902429D01*
X12496071Y-12888143D02*
X12510357Y-12902429D01*
X12496071Y-12916714D01*
X12481786Y-12902429D01*
X12496071Y-12888143D01*
X12496071Y-12916714D01*
X12496071Y-12731000D02*
X12510357Y-12745286D01*
X12496071Y-12759571D01*
X12481786Y-12745286D01*
X12496071Y-12731000D01*
X12496071Y-12759571D01*
M02*
