<?xml version="1.0" standalone="no"?>
 <!DOCTYPE svg PUBLIC "-//W3C//DTD SVG 1.1//EN" 
 "http://www.w3.org/Graphics/SVG/1.1/DTD/svg11.dtd"> 
<svg
  xmlns:svg="http://www.w3.org/2000/svg"
  xmlns="http://www.w3.org/2000/svg"
  xmlns:xlink="http://www.w3.org/1999/xlink"
  version="1.1"
  width="29.700220cm" height="21.000720cm" viewBox="0 0 116930 82680">
<title>SVG Picture created as questao-03-04.svg date 2020/11/19 23:40:19 </title>
  <desc>Picture generated by Eeschema-SVG </desc>
<g style="fill:#000000; fill-opacity:1;stroke:#000000; stroke-opacity:1;
stroke-linecap:round; stroke-linejoin:round;"
 transform="translate(0 0) scale(1 1)">
</g>
<g style="fill:#000000; fill-opacity:0.0; 
stroke:#000000; stroke-width:0; stroke-opacity:1; 
stroke-linecap:round; stroke-linejoin:round;">
<g >
</g>
<g style="fill:#840000; fill-opacity:0.0; 
stroke:#840000; stroke-width:0; stroke-opacity:1; 
stroke-linecap:round; stroke-linejoin:round;">
</g>
<g style="fill:#840000; fill-opacity:0.0; 
stroke:#840000; stroke-width:60; stroke-opacity:1; 
stroke-linecap:round; stroke-linejoin:round;">
<path style="fill:#840000; fill-opacity:0.0; 
stroke:#840000; stroke-width:60; stroke-opacity:1; 
stroke-linecap:round; stroke-linejoin:round;fill:none"
d="M 58500,27850
58500,27750
" /> 
<path style="fill:#840000; fill-opacity:0.0; 
stroke:#840000; stroke-width:60; stroke-opacity:1; 
stroke-linecap:round; stroke-linejoin:round;fill:none"
d="M 58500,29650
58500,29750
" /> 
<path style="fill:#840000; fill-opacity:0.0; 
stroke:#840000; stroke-width:60; stroke-opacity:1; 
stroke-linecap:round; stroke-linejoin:round;fill:none"
d="M 58500,28450
58100,28300
58500,28150
58900,28000
58500,27850
" /> 
<path style="fill:#840000; fill-opacity:0.0; 
stroke:#840000; stroke-width:60; stroke-opacity:1; 
stroke-linecap:round; stroke-linejoin:round;fill:none"
d="M 58500,29050
58100,28900
58500,28750
58900,28600
58500,28450
" /> 
<path style="fill:#840000; fill-opacity:0.0; 
stroke:#840000; stroke-width:60; stroke-opacity:1; 
stroke-linecap:round; stroke-linejoin:round;fill:none"
d="M 58500,29650
58100,29500
58500,29350
58900,29200
58500,29050
" /> 
<path d="M58500 29750
L58500 30250
" />
<path d="M58500 27750
L58500 27250
" />
</g>
<g style="fill:#008484; fill-opacity:0.0; 
stroke:#008484; stroke-width:60; stroke-opacity:1; 
stroke-linecap:round; stroke-linejoin:round;">
<text x="59700" y="28510"
textLength="990" font-size="660" lengthAdjust="spacingAndGlyphs"
text-anchor="middle" opacity="0">R2</text>
<path d="M59610 28480
L59450 28240
" />
<path d="M59330 28480
L59330 27980
L59520 27980
L59560 28010
L59590 28030
L59610 28080
L59610 28150
L59590 28200
L59560 28220
L59520 28240
L59330 28240
" />
<path d="M59800 28030
L59830 28010
L59870 27980
L59990 27980
L60040 28010
L60060 28030
L60090 28080
L60090 28120
L60060 28200
L59780 28480
L60090 28480
" />
<text x="60170" y="29420"
textLength="1990" font-size="660" lengthAdjust="spacingAndGlyphs"
text-anchor="middle" opacity="0">2k2Ω</text>
<path d="M59300 28940
L59320 28920
L59370 28890
L59490 28890
L59530 28920
L59560 28940
L59580 28990
L59580 29030
L59560 29110
L59270 29390
L59580 29390
" />
<path d="M59800 29390
L59800 28890
" />
<path d="M59840 29200
L59990 29390
" />
<path d="M59990 29060
L59800 29250
" />
<path d="M60180 28940
L60200 28920
L60250 28890
L60370 28890
L60420 28920
L60440 28940
L60460 28990
L60460 29030
L60440 29110
L60150 29390
L60460 29390
" />
<path d="M60650 29390
L60770 29390
L60770 29300
L60720 29270
L60680 29220
L60650 29150
L60650 29030
L60680 28960
L60720 28920
L60800 28890
L60890 28890
L60960 28920
L61010 28960
L61030 29030
L61030 29150
L61010 29220
L60960 29270
L60920 29300
L60920 29390
L61030 29390
" />
</g>
</g>
<g style="fill:#008484; fill-opacity:0.0; 
stroke:#008484; stroke-width:0; stroke-opacity:1; 
stroke-linecap:round; stroke-linejoin:round;">
<g >
</g>
<g style="fill:#840000; fill-opacity:0.0; 
stroke:#840000; stroke-width:0; stroke-opacity:1; 
stroke-linecap:round; stroke-linejoin:round;">
</g>
<g style="fill:#840000; fill-opacity:0.0; 
stroke:#840000; stroke-width:60; stroke-opacity:1; 
stroke-linecap:round; stroke-linejoin:round;">
<path d="M58000.9 42000.9 A2120 2120 0.0 0 0 58000.9 44999.1" />
</g>
<g style="fill:#840000; fill-opacity:1.0; 
stroke:#840000; stroke-width:60; stroke-opacity:1; 
stroke-linecap:round; stroke-linejoin:round;">
<path style="fill:#840000; fill-opacity:1.0; 
stroke:#840000; stroke-width:60; stroke-opacity:1; 
stroke-linecap:round; stroke-linejoin:round;fill-rule:evenodd;"
d="M 58000,45000
57600,44800
57900,44600
Z" /> 
</g>
<g style="fill:#008484; fill-opacity:0.0; 
stroke:#008484; stroke-width:60; stroke-opacity:1; 
stroke-linecap:round; stroke-linejoin:round;">
<text x="56650" y="43720"
textLength="890" font-size="660" lengthAdjust="spacingAndGlyphs"
text-anchor="middle" opacity="0">Vx</text>
<path d="M56280 43190
L56440 43690
L56610 43190
" />
<path d="M56730 43690
L56990 43360
" />
<path d="M56730 43360
L56990 43690
" />
</g>
</g>
<g style="fill:#008484; fill-opacity:0.0; 
stroke:#008484; stroke-width:0; stroke-opacity:1; 
stroke-linecap:round; stroke-linejoin:round;">
<g >
</g>
<g style="fill:#840000; fill-opacity:0.0; 
stroke:#840000; stroke-width:0; stroke-opacity:1; 
stroke-linecap:round; stroke-linejoin:round;">
</g>
<g style="fill:#840000; fill-opacity:1.0; 
stroke:#840000; stroke-width:60; stroke-opacity:1; 
stroke-linecap:round; stroke-linejoin:round;">
<rect x="65600" y="46800" width="1800" height="100" rx="0" />
<rect x="65880" y="47030" width="1200" height="200" rx="0" />
</g>
<g style="fill:#840000; fill-opacity:0.0; 
stroke:#840000; stroke-width:60; stroke-opacity:1; 
stroke-linecap:round; stroke-linejoin:round;">
<path style="fill:#840000; fill-opacity:0.0; 
stroke:#840000; stroke-width:60; stroke-opacity:1; 
stroke-linecap:round; stroke-linejoin:round;fill:none"
d="M 66500,47200
66500,47500
" /> 
<path style="fill:#840000; fill-opacity:0.0; 
stroke:#840000; stroke-width:60; stroke-opacity:1; 
stroke-linecap:round; stroke-linejoin:round;fill:none"
d="M 66500,46800
66500,46500
" /> 
</g>
<g style="fill:#840000; fill-opacity:0.0; 
stroke:#840000; stroke-width:100; stroke-opacity:1; 
stroke-linecap:round; stroke-linejoin:round;">
<path style="fill:#840000; fill-opacity:0.0; 
stroke:#840000; stroke-width:100; stroke-opacity:1; 
stroke-linecap:round; stroke-linejoin:round;fill:none"
d="M 66700,46150
67100,46150
" /> 
<path style="fill:#840000; fill-opacity:0.0; 
stroke:#840000; stroke-width:100; stroke-opacity:1; 
stroke-linecap:round; stroke-linejoin:round;fill:none"
d="M 66900,45950
66900,46350
" /> 
</g>
<g style="fill:#840000; fill-opacity:0.0; 
stroke:#840000; stroke-width:60; stroke-opacity:1; 
stroke-linecap:round; stroke-linejoin:round;">
<path d="M66500 46500
L66500 45500
" />
<path d="M66500 47500
L66500 48500
" />
</g>
<g style="fill:#008484; fill-opacity:0.0; 
stroke:#008484; stroke-width:60; stroke-opacity:1; 
stroke-linecap:round; stroke-linejoin:round;">
<text x="68160" y="46810"
textLength="960" font-size="660" lengthAdjust="spacingAndGlyphs"
text-anchor="middle" opacity="0">V3</text>
<path d="M67750 46280
L67920 46780
L68080 46280
" />
<path d="M68200 46280
L68510 46280
L68350 46470
L68420 46470
L68460 46500
L68490 46520
L68510 46570
L68510 46690
L68490 46730
L68460 46760
L68420 46780
L68270 46780
L68230 46760
L68200 46730
" />
<text x="68520" y="47720"
textLength="1680" font-size="660" lengthAdjust="spacingAndGlyphs"
text-anchor="middle" opacity="0">2,5V</text>
<path d="M67800 47240
L67820 47220
L67870 47190
L67990 47190
L68040 47220
L68060 47240
L68090 47290
L68090 47330
L68060 47410
L67780 47690
L68090 47690
" />
<path d="M68320 47670
L68320 47690
L68300 47740
L68280 47760
" />
<path d="M68780 47190
L68540 47190
L68520 47430
L68540 47410
L68590 47380
L68710 47380
L68750 47410
L68780 47430
L68800 47480
L68800 47600
L68780 47640
L68750 47670
L68710 47690
L68590 47690
L68540 47670
L68520 47640
" />
<path d="M68940 47190
L69110 47690
L69280 47190
" />
</g>
</g>
<g style="fill:#008484; fill-opacity:0.0; 
stroke:#008484; stroke-width:0; stroke-opacity:1; 
stroke-linecap:round; stroke-linejoin:round;">
<g >
</g>
<g style="fill:#840000; fill-opacity:0.0; 
stroke:#840000; stroke-width:0; stroke-opacity:1; 
stroke-linecap:round; stroke-linejoin:round;">
</g>
<g style="fill:#840000; fill-opacity:1.0; 
stroke:#840000; stroke-width:60; stroke-opacity:1; 
stroke-linecap:round; stroke-linejoin:round;">
<rect x="51600" y="32050" width="1800" height="100" rx="0" />
<rect x="51880" y="32280" width="1200" height="200" rx="0" />
</g>
<g style="fill:#840000; fill-opacity:0.0; 
stroke:#840000; stroke-width:60; stroke-opacity:1; 
stroke-linecap:round; stroke-linejoin:round;">
<path style="fill:#840000; fill-opacity:0.0; 
stroke:#840000; stroke-width:60; stroke-opacity:1; 
stroke-linecap:round; stroke-linejoin:round;fill:none"
d="M 52500,32450
52500,32750
" /> 
<path style="fill:#840000; fill-opacity:0.0; 
stroke:#840000; stroke-width:60; stroke-opacity:1; 
stroke-linecap:round; stroke-linejoin:round;fill:none"
d="M 52500,32050
52500,31750
" /> 
</g>
<g style="fill:#840000; fill-opacity:0.0; 
stroke:#840000; stroke-width:100; stroke-opacity:1; 
stroke-linecap:round; stroke-linejoin:round;">
<path style="fill:#840000; fill-opacity:0.0; 
stroke:#840000; stroke-width:100; stroke-opacity:1; 
stroke-linecap:round; stroke-linejoin:round;fill:none"
d="M 52700,31400
53100,31400
" /> 
<path style="fill:#840000; fill-opacity:0.0; 
stroke:#840000; stroke-width:100; stroke-opacity:1; 
stroke-linecap:round; stroke-linejoin:round;fill:none"
d="M 52900,31200
52900,31600
" /> 
</g>
<g style="fill:#840000; fill-opacity:0.0; 
stroke:#840000; stroke-width:60; stroke-opacity:1; 
stroke-linecap:round; stroke-linejoin:round;">
<path d="M52500 31750
L52500 30750
" />
<path d="M52500 32750
L52500 33750
" />
</g>
<g style="fill:#008484; fill-opacity:0.0; 
stroke:#008484; stroke-width:60; stroke-opacity:1; 
stroke-linecap:round; stroke-linejoin:round;">
<text x="54160" y="32060"
textLength="960" font-size="660" lengthAdjust="spacingAndGlyphs"
text-anchor="middle" opacity="0">V1</text>
<path d="M53750 31530
L53920 32030
L54080 31530
" />
<path d="M54510 32030
L54230 32030
" />
<path d="M54370 32030
L54370 31530
L54320 31600
L54270 31650
L54230 31670
" />
<text x="54400" y="32970"
textLength="1440" font-size="660" lengthAdjust="spacingAndGlyphs"
text-anchor="middle" opacity="0">10V</text>
<path d="M54090 32940
L53800 32940
" />
<path d="M53940 32940
L53940 32440
L53900 32510
L53850 32560
L53800 32580
" />
<path d="M54400 32440
L54440 32440
L54490 32470
L54510 32490
L54540 32540
L54560 32630
L54560 32750
L54540 32850
L54510 32890
L54490 32920
L54440 32940
L54400 32940
L54350 32920
L54320 32890
L54300 32850
L54280 32750
L54280 32630
L54300 32540
L54320 32490
L54350 32470
L54400 32440
" />
<path d="M54700 32440
L54870 32940
L55040 32440
" />
</g>
</g>
<g style="fill:#008484; fill-opacity:0.0; 
stroke:#008484; stroke-width:0; stroke-opacity:1; 
stroke-linecap:round; stroke-linejoin:round;">
<g >
</g>
<g style="fill:#840000; fill-opacity:0.0; 
stroke:#840000; stroke-width:0; stroke-opacity:1; 
stroke-linecap:round; stroke-linejoin:round;">
</g>
<g style="fill:#840000; fill-opacity:0.0; 
stroke:#840000; stroke-width:60; stroke-opacity:1; 
stroke-linecap:round; stroke-linejoin:round;">
<path style="fill:#840000; fill-opacity:0.0; 
stroke:#840000; stroke-width:60; stroke-opacity:1; 
stroke-linecap:round; stroke-linejoin:round;fill:none"
d="M 66500,42600
66500,42500
" /> 
<path style="fill:#840000; fill-opacity:0.0; 
stroke:#840000; stroke-width:60; stroke-opacity:1; 
stroke-linecap:round; stroke-linejoin:round;fill:none"
d="M 66500,44400
66500,44500
" /> 
<path style="fill:#840000; fill-opacity:0.0; 
stroke:#840000; stroke-width:60; stroke-opacity:1; 
stroke-linecap:round; stroke-linejoin:round;fill:none"
d="M 66500,43200
66100,43050
66500,42900
66900,42750
66500,42600
" /> 
<path style="fill:#840000; fill-opacity:0.0; 
stroke:#840000; stroke-width:60; stroke-opacity:1; 
stroke-linecap:round; stroke-linejoin:round;fill:none"
d="M 66500,43800
66100,43650
66500,43500
66900,43350
66500,43200
" /> 
<path style="fill:#840000; fill-opacity:0.0; 
stroke:#840000; stroke-width:60; stroke-opacity:1; 
stroke-linecap:round; stroke-linejoin:round;fill:none"
d="M 66500,44400
66100,44250
66500,44100
66900,43950
66500,43800
" /> 
<path d="M66500 44500
L66500 45000
" />
<path d="M66500 42500
L66500 42000
" />
</g>
<g style="fill:#008484; fill-opacity:0.0; 
stroke:#008484; stroke-width:60; stroke-opacity:1; 
stroke-linecap:round; stroke-linejoin:round;">
<text x="67700" y="43260"
textLength="1040" font-size="660" lengthAdjust="spacingAndGlyphs"
text-anchor="middle" opacity="0">R3</text>
<path d="M67610 43230
L67450 42990
" />
<path d="M67330 43230
L67330 42730
L67520 42730
L67560 42760
L67590 42780
L67610 42830
L67610 42900
L67590 42950
L67560 42970
L67520 42990
L67330 42990
" />
<path d="M67780 42730
L68090 42730
L67920 42920
L67990 42920
L68040 42950
L68060 42970
L68090 43020
L68090 43140
L68060 43180
L68040 43210
L67990 43230
L67850 43230
L67800 43210
L67780 43180
" />
<text x="68170" y="44170"
textLength="1990" font-size="660" lengthAdjust="spacingAndGlyphs"
text-anchor="middle" opacity="0">4k7Ω</text>
<path d="M67530 43810
L67530 44140
" />
<path d="M67420 43620
L67300 43970
L67610 43970
" />
<path d="M67800 44140
L67800 43640
" />
<path d="M67840 43950
L67990 44140
" />
<path d="M67990 43810
L67800 44000
" />
<path d="M68150 43640
L68490 43640
L68270 44140
" />
<path d="M68650 44140
L68770 44140
L68770 44050
L68720 44020
L68680 43970
L68650 43900
L68650 43780
L68680 43710
L68720 43670
L68800 43640
L68890 43640
L68960 43670
L69010 43710
L69030 43780
L69030 43900
L69010 43970
L68960 44020
L68920 44050
L68920 44140
L69030 44140
" />
</g>
</g>
<g style="fill:#008484; fill-opacity:0.0; 
stroke:#008484; stroke-width:0; stroke-opacity:1; 
stroke-linecap:round; stroke-linejoin:round;">
<g >
</g>
<g style="fill:#840000; fill-opacity:0.0; 
stroke:#840000; stroke-width:0; stroke-opacity:1; 
stroke-linecap:round; stroke-linejoin:round;">
</g>
<g style="fill:#840000; fill-opacity:1.0; 
stroke:#840000; stroke-width:60; stroke-opacity:1; 
stroke-linecap:round; stroke-linejoin:round;">
<rect x="57600" y="46800" width="1800" height="100" rx="0" />
<rect x="57880" y="47030" width="1200" height="200" rx="0" />
</g>
<g style="fill:#840000; fill-opacity:0.0; 
stroke:#840000; stroke-width:60; stroke-opacity:1; 
stroke-linecap:round; stroke-linejoin:round;">
<path style="fill:#840000; fill-opacity:0.0; 
stroke:#840000; stroke-width:60; stroke-opacity:1; 
stroke-linecap:round; stroke-linejoin:round;fill:none"
d="M 58500,47200
58500,47500
" /> 
<path style="fill:#840000; fill-opacity:0.0; 
stroke:#840000; stroke-width:60; stroke-opacity:1; 
stroke-linecap:round; stroke-linejoin:round;fill:none"
d="M 58500,46800
58500,46500
" /> 
</g>
<g style="fill:#840000; fill-opacity:0.0; 
stroke:#840000; stroke-width:100; stroke-opacity:1; 
stroke-linecap:round; stroke-linejoin:round;">
<path style="fill:#840000; fill-opacity:0.0; 
stroke:#840000; stroke-width:100; stroke-opacity:1; 
stroke-linecap:round; stroke-linejoin:round;fill:none"
d="M 58700,46150
59100,46150
" /> 
<path style="fill:#840000; fill-opacity:0.0; 
stroke:#840000; stroke-width:100; stroke-opacity:1; 
stroke-linecap:round; stroke-linejoin:round;fill:none"
d="M 58900,45950
58900,46350
" /> 
</g>
<g style="fill:#840000; fill-opacity:0.0; 
stroke:#840000; stroke-width:60; stroke-opacity:1; 
stroke-linecap:round; stroke-linejoin:round;">
<path d="M58500 46500
L58500 45500
" />
<path d="M58500 47500
L58500 48500
" />
</g>
<g style="fill:#008484; fill-opacity:0.0; 
stroke:#008484; stroke-width:60; stroke-opacity:1; 
stroke-linecap:round; stroke-linejoin:round;">
<text x="60160" y="46810"
textLength="960" font-size="660" lengthAdjust="spacingAndGlyphs"
text-anchor="middle" opacity="0">V2</text>
<path d="M59750 46280
L59920 46780
L60080 46280
" />
<path d="M60230 46330
L60250 46310
L60300 46280
L60420 46280
L60460 46310
L60490 46330
L60510 46380
L60510 46420
L60490 46500
L60200 46780
L60510 46780
" />
<text x="60160" y="47720"
textLength="960" font-size="660" lengthAdjust="spacingAndGlyphs"
text-anchor="middle" opacity="0">5V</text>
<path d="M60060 47190
L59820 47190
L59800 47430
L59820 47410
L59870 47380
L59990 47380
L60040 47410
L60060 47430
L60080 47480
L60080 47600
L60060 47640
L60040 47670
L59990 47690
L59870 47690
L59820 47670
L59800 47640
" />
<path d="M60230 47190
L60390 47690
L60560 47190
" />
</g>
</g>
<g style="fill:#008484; fill-opacity:0.0; 
stroke:#008484; stroke-width:0; stroke-opacity:1; 
stroke-linecap:round; stroke-linejoin:round;">
<g >
</g>
<g style="fill:#840000; fill-opacity:0.0; 
stroke:#840000; stroke-width:0; stroke-opacity:1; 
stroke-linecap:round; stroke-linejoin:round;">
</g>
<g style="fill:#840000; fill-opacity:0.0; 
stroke:#840000; stroke-width:60; stroke-opacity:1; 
stroke-linecap:round; stroke-linejoin:round;">
<path style="fill:#840000; fill-opacity:0.0; 
stroke:#840000; stroke-width:60; stroke-opacity:1; 
stroke-linecap:round; stroke-linejoin:round;fill:none"
d="M 50500,42600
50500,42500
" /> 
<path style="fill:#840000; fill-opacity:0.0; 
stroke:#840000; stroke-width:60; stroke-opacity:1; 
stroke-linecap:round; stroke-linejoin:round;fill:none"
d="M 50500,44400
50500,44500
" /> 
<path style="fill:#840000; fill-opacity:0.0; 
stroke:#840000; stroke-width:60; stroke-opacity:1; 
stroke-linecap:round; stroke-linejoin:round;fill:none"
d="M 50500,43200
50100,43050
50500,42900
50900,42750
50500,42600
" /> 
<path style="fill:#840000; fill-opacity:0.0; 
stroke:#840000; stroke-width:60; stroke-opacity:1; 
stroke-linecap:round; stroke-linejoin:round;fill:none"
d="M 50500,43800
50100,43650
50500,43500
50900,43350
50500,43200
" /> 
<path style="fill:#840000; fill-opacity:0.0; 
stroke:#840000; stroke-width:60; stroke-opacity:1; 
stroke-linecap:round; stroke-linejoin:round;fill:none"
d="M 50500,44400
50100,44250
50500,44100
50900,43950
50500,43800
" /> 
<path d="M50500 44500
L50500 45000
" />
<path d="M50500 42500
L50500 42000
" />
</g>
<g style="fill:#008484; fill-opacity:0.0; 
stroke:#008484; stroke-width:60; stroke-opacity:1; 
stroke-linecap:round; stroke-linejoin:round;">
<text x="51700" y="43260"
textLength="1040" font-size="660" lengthAdjust="spacingAndGlyphs"
text-anchor="middle" opacity="0">R1</text>
<path d="M51610 43230
L51450 42990
" />
<path d="M51330 43230
L51330 42730
L51520 42730
L51560 42760
L51590 42780
L51610 42830
L51610 42900
L51590 42950
L51560 42970
L51520 42990
L51330 42990
" />
<path d="M52090 43230
L51800 43230
" />
<path d="M51950 43230
L51950 42730
L51900 42800
L51850 42850
L51800 42870
" />
<text x="51930" y="44170"
textLength="1510" font-size="660" lengthAdjust="spacingAndGlyphs"
text-anchor="middle" opacity="0">1kΩ</text>
<path d="M51580 44140
L51290 44140
" />
<path d="M51440 44140
L51440 43640
L51390 43710
L51340 43760
L51290 43780
" />
<path d="M51790 44140
L51790 43640
" />
<path d="M51840 43950
L51980 44140
" />
<path d="M51980 43810
L51790 44000
" />
<path d="M52180 44140
L52290 44140
L52290 44050
L52250 44020
L52200 43970
L52180 43900
L52180 43780
L52200 43710
L52250 43670
L52320 43640
L52410 43640
L52480 43670
L52530 43710
L52560 43780
L52560 43900
L52530 43970
L52480 44020
L52440 44050
L52440 44140
L52560 44140
" />
</g>
</g>
<g style="fill:#008484; fill-opacity:0.0; 
stroke:#008484; stroke-width:0; stroke-opacity:1; 
stroke-linecap:round; stroke-linejoin:round;">
<g >
</g>
<g style="fill:#840000; fill-opacity:0.0; 
stroke:#840000; stroke-width:0; stroke-opacity:1; 
stroke-linecap:round; stroke-linejoin:round;">
</g>
<g style="fill:#840000; fill-opacity:0.0; 
stroke:#840000; stroke-width:60; stroke-opacity:1; 
stroke-linecap:round; stroke-linejoin:round;">
<path style="fill:#840000; fill-opacity:0.0; 
stroke:#840000; stroke-width:60; stroke-opacity:1; 
stroke-linecap:round; stroke-linejoin:round;fill:none"
d="M 58500,42600
58500,42500
" /> 
<path style="fill:#840000; fill-opacity:0.0; 
stroke:#840000; stroke-width:60; stroke-opacity:1; 
stroke-linecap:round; stroke-linejoin:round;fill:none"
d="M 58500,44400
58500,44500
" /> 
<path style="fill:#840000; fill-opacity:0.0; 
stroke:#840000; stroke-width:60; stroke-opacity:1; 
stroke-linecap:round; stroke-linejoin:round;fill:none"
d="M 58500,43200
58100,43050
58500,42900
58900,42750
58500,42600
" /> 
<path style="fill:#840000; fill-opacity:0.0; 
stroke:#840000; stroke-width:60; stroke-opacity:1; 
stroke-linecap:round; stroke-linejoin:round;fill:none"
d="M 58500,43800
58100,43650
58500,43500
58900,43350
58500,43200
" /> 
<path style="fill:#840000; fill-opacity:0.0; 
stroke:#840000; stroke-width:60; stroke-opacity:1; 
stroke-linecap:round; stroke-linejoin:round;fill:none"
d="M 58500,44400
58100,44250
58500,44100
58900,43950
58500,43800
" /> 
<path d="M58500 44500
L58500 45000
" />
<path d="M58500 42500
L58500 42000
" />
</g>
<g style="fill:#008484; fill-opacity:0.0; 
stroke:#008484; stroke-width:60; stroke-opacity:1; 
stroke-linecap:round; stroke-linejoin:round;">
<text x="59700" y="43260"
textLength="1040" font-size="660" lengthAdjust="spacingAndGlyphs"
text-anchor="middle" opacity="0">R2</text>
<path d="M59610 43230
L59450 42990
" />
<path d="M59330 43230
L59330 42730
L59520 42730
L59560 42760
L59590 42780
L59610 42830
L59610 42900
L59590 42950
L59560 42970
L59520 42990
L59330 42990
" />
<path d="M59800 42780
L59830 42760
L59870 42730
L59990 42730
L60040 42760
L60060 42780
L60090 42830
L60090 42870
L60060 42950
L59780 43230
L60090 43230
" />
<text x="60170" y="44170"
textLength="1990" font-size="660" lengthAdjust="spacingAndGlyphs"
text-anchor="middle" opacity="0">2k2Ω</text>
<path d="M59300 43690
L59320 43670
L59370 43640
L59490 43640
L59530 43670
L59560 43690
L59580 43740
L59580 43780
L59560 43860
L59270 44140
L59580 44140
" />
<path d="M59800 44140
L59800 43640
" />
<path d="M59840 43950
L59990 44140
" />
<path d="M59990 43810
L59800 44000
" />
<path d="M60180 43690
L60200 43670
L60250 43640
L60370 43640
L60420 43670
L60440 43690
L60460 43740
L60460 43780
L60440 43860
L60150 44140
L60460 44140
" />
<path d="M60650 44140
L60770 44140
L60770 44050
L60720 44020
L60680 43970
L60650 43900
L60650 43780
L60680 43710
L60720 43670
L60800 43640
L60890 43640
L60960 43670
L61010 43710
L61030 43780
L61030 43900
L61010 43970
L60960 44020
L60920 44050
L60920 44140
L61030 44140
" />
</g>
</g>
<g style="fill:#008484; fill-opacity:0.0; 
stroke:#008484; stroke-width:0; stroke-opacity:1; 
stroke-linecap:round; stroke-linejoin:round;">
<g >
</g>
<g style="fill:#840000; fill-opacity:0.0; 
stroke:#840000; stroke-width:0; stroke-opacity:1; 
stroke-linecap:round; stroke-linejoin:round;">
</g>
<g style="fill:#840000; fill-opacity:1.0; 
stroke:#840000; stroke-width:60; stroke-opacity:1; 
stroke-linecap:round; stroke-linejoin:round;">
<rect x="49600" y="46800" width="1800" height="100" rx="0" />
<rect x="49880" y="47030" width="1200" height="200" rx="0" />
</g>
<g style="fill:#840000; fill-opacity:0.0; 
stroke:#840000; stroke-width:60; stroke-opacity:1; 
stroke-linecap:round; stroke-linejoin:round;">
<path style="fill:#840000; fill-opacity:0.0; 
stroke:#840000; stroke-width:60; stroke-opacity:1; 
stroke-linecap:round; stroke-linejoin:round;fill:none"
d="M 50500,47200
50500,47500
" /> 
<path style="fill:#840000; fill-opacity:0.0; 
stroke:#840000; stroke-width:60; stroke-opacity:1; 
stroke-linecap:round; stroke-linejoin:round;fill:none"
d="M 50500,46800
50500,46500
" /> 
</g>
<g style="fill:#840000; fill-opacity:0.0; 
stroke:#840000; stroke-width:100; stroke-opacity:1; 
stroke-linecap:round; stroke-linejoin:round;">
<path style="fill:#840000; fill-opacity:0.0; 
stroke:#840000; stroke-width:100; stroke-opacity:1; 
stroke-linecap:round; stroke-linejoin:round;fill:none"
d="M 50700,46150
51100,46150
" /> 
<path style="fill:#840000; fill-opacity:0.0; 
stroke:#840000; stroke-width:100; stroke-opacity:1; 
stroke-linecap:round; stroke-linejoin:round;fill:none"
d="M 50900,45950
50900,46350
" /> 
</g>
<g style="fill:#840000; fill-opacity:0.0; 
stroke:#840000; stroke-width:60; stroke-opacity:1; 
stroke-linecap:round; stroke-linejoin:round;">
<path d="M50500 46500
L50500 45500
" />
<path d="M50500 47500
L50500 48500
" />
</g>
<g style="fill:#008484; fill-opacity:0.0; 
stroke:#008484; stroke-width:60; stroke-opacity:1; 
stroke-linecap:round; stroke-linejoin:round;">
<text x="52160" y="46810"
textLength="960" font-size="660" lengthAdjust="spacingAndGlyphs"
text-anchor="middle" opacity="0">V1</text>
<path d="M51750 46280
L51920 46780
L52080 46280
" />
<path d="M52510 46780
L52230 46780
" />
<path d="M52370 46780
L52370 46280
L52320 46350
L52270 46400
L52230 46420
" />
<text x="52400" y="47720"
textLength="1440" font-size="660" lengthAdjust="spacingAndGlyphs"
text-anchor="middle" opacity="0">10V</text>
<path d="M52090 47690
L51800 47690
" />
<path d="M51940 47690
L51940 47190
L51900 47260
L51850 47310
L51800 47330
" />
<path d="M52400 47190
L52440 47190
L52490 47220
L52510 47240
L52540 47290
L52560 47380
L52560 47500
L52540 47600
L52510 47640
L52490 47670
L52440 47690
L52400 47690
L52350 47670
L52320 47640
L52300 47600
L52280 47500
L52280 47380
L52300 47290
L52320 47240
L52350 47220
L52400 47190
" />
<path d="M52700 47190
L52870 47690
L53040 47190
" />
</g>
</g>
<g style="fill:#008484; fill-opacity:0.0; 
stroke:#008484; stroke-width:0; stroke-opacity:1; 
stroke-linecap:round; stroke-linejoin:round;">
<g >
</g>
<g style="fill:#840000; fill-opacity:0.0; 
stroke:#840000; stroke-width:0; stroke-opacity:1; 
stroke-linecap:round; stroke-linejoin:round;">
</g>
<g style="fill:#840000; fill-opacity:1.0; 
stroke:#840000; stroke-width:60; stroke-opacity:1; 
stroke-linecap:round; stroke-linejoin:round;">
<rect x="63600" y="32050" width="1800" height="100" rx="0" />
<rect x="63880" y="32280" width="1200" height="200" rx="0" />
</g>
<g style="fill:#840000; fill-opacity:0.0; 
stroke:#840000; stroke-width:60; stroke-opacity:1; 
stroke-linecap:round; stroke-linejoin:round;">
<path style="fill:#840000; fill-opacity:0.0; 
stroke:#840000; stroke-width:60; stroke-opacity:1; 
stroke-linecap:round; stroke-linejoin:round;fill:none"
d="M 64500,32450
64500,32750
" /> 
<path style="fill:#840000; fill-opacity:0.0; 
stroke:#840000; stroke-width:60; stroke-opacity:1; 
stroke-linecap:round; stroke-linejoin:round;fill:none"
d="M 64500,32050
64500,31750
" /> 
</g>
<g style="fill:#840000; fill-opacity:0.0; 
stroke:#840000; stroke-width:100; stroke-opacity:1; 
stroke-linecap:round; stroke-linejoin:round;">
<path style="fill:#840000; fill-opacity:0.0; 
stroke:#840000; stroke-width:100; stroke-opacity:1; 
stroke-linecap:round; stroke-linejoin:round;fill:none"
d="M 64700,31400
65100,31400
" /> 
<path style="fill:#840000; fill-opacity:0.0; 
stroke:#840000; stroke-width:100; stroke-opacity:1; 
stroke-linecap:round; stroke-linejoin:round;fill:none"
d="M 64900,31200
64900,31600
" /> 
</g>
<g style="fill:#840000; fill-opacity:0.0; 
stroke:#840000; stroke-width:60; stroke-opacity:1; 
stroke-linecap:round; stroke-linejoin:round;">
<path d="M64500 31750
L64500 30750
" />
<path d="M64500 32750
L64500 33750
" />
</g>
<g style="fill:#008484; fill-opacity:0.0; 
stroke:#008484; stroke-width:60; stroke-opacity:1; 
stroke-linecap:round; stroke-linejoin:round;">
<text x="66160" y="32060"
textLength="960" font-size="660" lengthAdjust="spacingAndGlyphs"
text-anchor="middle" opacity="0">V3</text>
<path d="M65750 31530
L65920 32030
L66080 31530
" />
<path d="M66200 31530
L66510 31530
L66350 31720
L66420 31720
L66460 31750
L66490 31770
L66510 31820
L66510 31940
L66490 31980
L66460 32010
L66420 32030
L66270 32030
L66230 32010
L66200 31980
" />
<text x="66520" y="32970"
textLength="1680" font-size="660" lengthAdjust="spacingAndGlyphs"
text-anchor="middle" opacity="0">2,5V</text>
<path d="M65800 32490
L65820 32470
L65870 32440
L65990 32440
L66040 32470
L66060 32490
L66090 32540
L66090 32580
L66060 32660
L65780 32940
L66090 32940
" />
<path d="M66320 32920
L66320 32940
L66300 32990
L66280 33010
" />
<path d="M66780 32440
L66540 32440
L66520 32680
L66540 32660
L66590 32630
L66710 32630
L66750 32660
L66780 32680
L66800 32730
L66800 32850
L66780 32890
L66750 32920
L66710 32940
L66590 32940
L66540 32920
L66520 32890
" />
<path d="M66940 32440
L67110 32940
L67280 32440
" />
</g>
</g>
<g style="fill:#008484; fill-opacity:0.0; 
stroke:#008484; stroke-width:0; stroke-opacity:1; 
stroke-linecap:round; stroke-linejoin:round;">
<g >
</g>
<g style="fill:#840000; fill-opacity:0.0; 
stroke:#840000; stroke-width:0; stroke-opacity:1; 
stroke-linecap:round; stroke-linejoin:round;">
</g>
<g style="fill:#840000; fill-opacity:0.0; 
stroke:#840000; stroke-width:60; stroke-opacity:1; 
stroke-linecap:round; stroke-linejoin:round;">
<path d="M58000.9 27250.9 A2120 2120 0.0 0 0 58000.9 30249.1" />
</g>
<g style="fill:#840000; fill-opacity:1.0; 
stroke:#840000; stroke-width:60; stroke-opacity:1; 
stroke-linecap:round; stroke-linejoin:round;">
<path style="fill:#840000; fill-opacity:1.0; 
stroke:#840000; stroke-width:60; stroke-opacity:1; 
stroke-linecap:round; stroke-linejoin:round;fill-rule:evenodd;"
d="M 58000,30250
57600,30050
57900,29850
Z" /> 
</g>
<g style="fill:#008484; fill-opacity:0.0; 
stroke:#008484; stroke-width:60; stroke-opacity:1; 
stroke-linecap:round; stroke-linejoin:round;">
<text x="56650" y="28970"
textLength="890" font-size="660" lengthAdjust="spacingAndGlyphs"
text-anchor="middle" opacity="0">Vx</text>
<path d="M56280 28440
L56440 28940
L56610 28440
" />
<path d="M56730 28940
L56990 28610
" />
<path d="M56730 28610
L56990 28940
" />
</g>
</g>
<g style="fill:#008484; fill-opacity:0.0; 
stroke:#008484; stroke-width:0; stroke-opacity:1; 
stroke-linecap:round; stroke-linejoin:round;">
<g >
</g>
<g style="fill:#840000; fill-opacity:0.0; 
stroke:#840000; stroke-width:0; stroke-opacity:1; 
stroke-linecap:round; stroke-linejoin:round;">
</g>
<g style="fill:#840000; fill-opacity:0.0; 
stroke:#840000; stroke-width:60; stroke-opacity:1; 
stroke-linecap:round; stroke-linejoin:round;">
<path style="fill:#840000; fill-opacity:0.0; 
stroke:#840000; stroke-width:60; stroke-opacity:1; 
stroke-linecap:round; stroke-linejoin:round;fill:none"
d="M 52500,27850
52500,27750
" /> 
<path style="fill:#840000; fill-opacity:0.0; 
stroke:#840000; stroke-width:60; stroke-opacity:1; 
stroke-linecap:round; stroke-linejoin:round;fill:none"
d="M 52500,29650
52500,29750
" /> 
<path style="fill:#840000; fill-opacity:0.0; 
stroke:#840000; stroke-width:60; stroke-opacity:1; 
stroke-linecap:round; stroke-linejoin:round;fill:none"
d="M 52500,28450
52100,28300
52500,28150
52900,28000
52500,27850
" /> 
<path style="fill:#840000; fill-opacity:0.0; 
stroke:#840000; stroke-width:60; stroke-opacity:1; 
stroke-linecap:round; stroke-linejoin:round;fill:none"
d="M 52500,29050
52100,28900
52500,28750
52900,28600
52500,28450
" /> 
<path style="fill:#840000; fill-opacity:0.0; 
stroke:#840000; stroke-width:60; stroke-opacity:1; 
stroke-linecap:round; stroke-linejoin:round;fill:none"
d="M 52500,29650
52100,29500
52500,29350
52900,29200
52500,29050
" /> 
<path d="M52500 29750
L52500 30250
" />
<path d="M52500 27750
L52500 27250
" />
</g>
<g style="fill:#008484; fill-opacity:0.0; 
stroke:#008484; stroke-width:60; stroke-opacity:1; 
stroke-linecap:round; stroke-linejoin:round;">
<text x="53700" y="28510"
textLength="1040" font-size="660" lengthAdjust="spacingAndGlyphs"
text-anchor="middle" opacity="0">R1</text>
<path d="M53610 28480
L53450 28240
" />
<path d="M53330 28480
L53330 27980
L53520 27980
L53560 28010
L53590 28030
L53610 28080
L53610 28150
L53590 28200
L53560 28220
L53520 28240
L53330 28240
" />
<path d="M54090 28480
L53800 28480
" />
<path d="M53950 28480
L53950 27980
L53900 28050
L53850 28100
L53800 28120
" />
<text x="53930" y="29420"
textLength="1510" font-size="660" lengthAdjust="spacingAndGlyphs"
text-anchor="middle" opacity="0">1kΩ</text>
<path d="M53580 29390
L53290 29390
" />
<path d="M53440 29390
L53440 28890
L53390 28960
L53340 29010
L53290 29030
" />
<path d="M53790 29390
L53790 28890
" />
<path d="M53840 29200
L53980 29390
" />
<path d="M53980 29060
L53790 29250
" />
<path d="M54180 29390
L54290 29390
L54290 29300
L54250 29270
L54200 29220
L54180 29150
L54180 29030
L54200 28960
L54250 28920
L54320 28890
L54410 28890
L54480 28920
L54530 28960
L54560 29030
L54560 29150
L54530 29220
L54480 29270
L54440 29300
L54440 29390
L54560 29390
" />
</g>
</g>
<g style="fill:#008484; fill-opacity:0.0; 
stroke:#008484; stroke-width:0; stroke-opacity:1; 
stroke-linecap:round; stroke-linejoin:round;">
<g >
</g>
<g style="fill:#840000; fill-opacity:0.0; 
stroke:#840000; stroke-width:0; stroke-opacity:1; 
stroke-linecap:round; stroke-linejoin:round;">
</g>
<g style="fill:#840000; fill-opacity:1.0; 
stroke:#840000; stroke-width:60; stroke-opacity:1; 
stroke-linecap:round; stroke-linejoin:round;">
<rect x="57600" y="32050" width="1800" height="100" rx="0" />
<rect x="57880" y="32280" width="1200" height="200" rx="0" />
</g>
<g style="fill:#840000; fill-opacity:0.0; 
stroke:#840000; stroke-width:60; stroke-opacity:1; 
stroke-linecap:round; stroke-linejoin:round;">
<path style="fill:#840000; fill-opacity:0.0; 
stroke:#840000; stroke-width:60; stroke-opacity:1; 
stroke-linecap:round; stroke-linejoin:round;fill:none"
d="M 58500,32450
58500,32750
" /> 
<path style="fill:#840000; fill-opacity:0.0; 
stroke:#840000; stroke-width:60; stroke-opacity:1; 
stroke-linecap:round; stroke-linejoin:round;fill:none"
d="M 58500,32050
58500,31750
" /> 
</g>
<g style="fill:#840000; fill-opacity:0.0; 
stroke:#840000; stroke-width:100; stroke-opacity:1; 
stroke-linecap:round; stroke-linejoin:round;">
<path style="fill:#840000; fill-opacity:0.0; 
stroke:#840000; stroke-width:100; stroke-opacity:1; 
stroke-linecap:round; stroke-linejoin:round;fill:none"
d="M 58700,31400
59100,31400
" /> 
<path style="fill:#840000; fill-opacity:0.0; 
stroke:#840000; stroke-width:100; stroke-opacity:1; 
stroke-linecap:round; stroke-linejoin:round;fill:none"
d="M 58900,31200
58900,31600
" /> 
</g>
<g style="fill:#840000; fill-opacity:0.0; 
stroke:#840000; stroke-width:60; stroke-opacity:1; 
stroke-linecap:round; stroke-linejoin:round;">
<path d="M58500 31750
L58500 30750
" />
<path d="M58500 32750
L58500 33750
" />
</g>
<g style="fill:#008484; fill-opacity:0.0; 
stroke:#008484; stroke-width:60; stroke-opacity:1; 
stroke-linecap:round; stroke-linejoin:round;">
<text x="60160" y="32060"
textLength="960" font-size="660" lengthAdjust="spacingAndGlyphs"
text-anchor="middle" opacity="0">V2</text>
<path d="M59750 31530
L59920 32030
L60080 31530
" />
<path d="M60230 31580
L60250 31560
L60300 31530
L60420 31530
L60460 31560
L60490 31580
L60510 31630
L60510 31670
L60490 31750
L60200 32030
L60510 32030
" />
<text x="60160" y="32970"
textLength="960" font-size="660" lengthAdjust="spacingAndGlyphs"
text-anchor="middle" opacity="0">5V</text>
<path d="M60060 32440
L59820 32440
L59800 32680
L59820 32660
L59870 32630
L59990 32630
L60040 32660
L60060 32680
L60080 32730
L60080 32850
L60060 32890
L60040 32920
L59990 32940
L59870 32940
L59820 32920
L59800 32890
" />
<path d="M60230 32440
L60390 32940
L60560 32440
" />
</g>
</g>
<g style="fill:#008484; fill-opacity:0.0; 
stroke:#008484; stroke-width:0; stroke-opacity:1; 
stroke-linecap:round; stroke-linejoin:round;">
<g >
</g>
<g style="fill:#840000; fill-opacity:0.0; 
stroke:#840000; stroke-width:0; stroke-opacity:1; 
stroke-linecap:round; stroke-linejoin:round;">
</g>
<g style="fill:#840000; fill-opacity:0.0; 
stroke:#840000; stroke-width:60; stroke-opacity:1; 
stroke-linecap:round; stroke-linejoin:round;">
<path style="fill:#840000; fill-opacity:0.0; 
stroke:#840000; stroke-width:60; stroke-opacity:1; 
stroke-linecap:round; stroke-linejoin:round;fill:none"
d="M 64500,27850
64500,27750
" /> 
<path style="fill:#840000; fill-opacity:0.0; 
stroke:#840000; stroke-width:60; stroke-opacity:1; 
stroke-linecap:round; stroke-linejoin:round;fill:none"
d="M 64500,29650
64500,29750
" /> 
<path style="fill:#840000; fill-opacity:0.0; 
stroke:#840000; stroke-width:60; stroke-opacity:1; 
stroke-linecap:round; stroke-linejoin:round;fill:none"
d="M 64500,28450
64100,28300
64500,28150
64900,28000
64500,27850
" /> 
<path style="fill:#840000; fill-opacity:0.0; 
stroke:#840000; stroke-width:60; stroke-opacity:1; 
stroke-linecap:round; stroke-linejoin:round;fill:none"
d="M 64500,29050
64100,28900
64500,28750
64900,28600
64500,28450
" /> 
<path style="fill:#840000; fill-opacity:0.0; 
stroke:#840000; stroke-width:60; stroke-opacity:1; 
stroke-linecap:round; stroke-linejoin:round;fill:none"
d="M 64500,29650
64100,29500
64500,29350
64900,29200
64500,29050
" /> 
<path d="M64500 29750
L64500 30250
" />
<path d="M64500 27750
L64500 27250
" />
</g>
<g style="fill:#008484; fill-opacity:0.0; 
stroke:#008484; stroke-width:60; stroke-opacity:1; 
stroke-linecap:round; stroke-linejoin:round;">
<text x="65700" y="28510"
textLength="1040" font-size="660" lengthAdjust="spacingAndGlyphs"
text-anchor="middle" opacity="0">R3</text>
<path d="M65610 28480
L65450 28240
" />
<path d="M65330 28480
L65330 27980
L65520 27980
L65560 28010
L65590 28030
L65610 28080
L65610 28150
L65590 28200
L65560 28220
L65520 28240
L65330 28240
" />
<path d="M65780 27980
L66090 27980
L65920 28170
L65990 28170
L66040 28200
L66060 28220
L66090 28270
L66090 28390
L66060 28430
L66040 28460
L65990 28480
L65850 28480
L65800 28460
L65780 28430
" />
<text x="66170" y="29420"
textLength="1990" font-size="660" lengthAdjust="spacingAndGlyphs"
text-anchor="middle" opacity="0">4k7Ω</text>
<path d="M65530 29060
L65530 29390
" />
<path d="M65420 28870
L65300 29220
L65610 29220
" />
<path d="M65800 29390
L65800 28890
" />
<path d="M65840 29200
L65990 29390
" />
<path d="M65990 29060
L65800 29250
" />
<path d="M66150 28890
L66490 28890
L66270 29390
" />
<path d="M66650 29390
L66770 29390
L66770 29300
L66720 29270
L66680 29220
L66650 29150
L66650 29030
L66680 28960
L66720 28920
L66800 28890
L66890 28890
L66960 28920
L67010 28960
L67030 29030
L67030 29150
L67010 29220
L66960 29270
L66920 29300
L66920 29390
L67030 29390
" />
</g>
</g>
<g style="fill:#008484; fill-opacity:0.0; 
stroke:#008484; stroke-width:60; stroke-opacity:1; 
stroke-linecap:round; stroke-linejoin:round;">
</g>
<g style="fill:#0000C2; fill-opacity:0.0; 
stroke:#0000C2; stroke-width:60; stroke-opacity:1; 
stroke-linecap:round; stroke-linejoin:round;">
</g>
<g style="fill:#0000C2; fill-opacity:0.0; 
stroke:#0000C2; stroke-width:60; stroke-opacity:1; 
stroke-linecap:round; stroke-linejoin:round;stroke-dasharray:150,150;">
<path d="M61750 48250
L61750 42250
" />
</g>
<g style="fill:#0000C2; fill-opacity:0.0; 
stroke:#0000C2; stroke-width:60; stroke-opacity:1; 
stroke-linecap:round; stroke-linejoin:round;">
</g>
<g style="fill:#0000C2; fill-opacity:0.0; 
stroke:#0000C2; stroke-width:60; stroke-opacity:1; 
stroke-linecap:round; stroke-linejoin:round;stroke-dasharray:150,150;">
<path d="M64250 45250
L64000 44750
" />
</g>
<g style="fill:#0000C2; fill-opacity:0.0; 
stroke:#0000C2; stroke-width:60; stroke-opacity:1; 
stroke-linecap:round; stroke-linejoin:round;">
</g>
<g style="fill:#0000C2; fill-opacity:0.0; 
stroke:#0000C2; stroke-width:60; stroke-opacity:1; 
stroke-linecap:round; stroke-linejoin:round;stroke-dasharray:150,150;">
<path d="M64250 45250
L64500 44750
" />
</g>
<g style="fill:#0000C2; fill-opacity:0.0; 
stroke:#0000C2; stroke-width:60; stroke-opacity:1; 
stroke-linecap:round; stroke-linejoin:round;">
</g>
<g style="fill:#0000C2; fill-opacity:0.0; 
stroke:#0000C2; stroke-width:60; stroke-opacity:1; 
stroke-linecap:round; stroke-linejoin:round;stroke-dasharray:150,150;">
<path d="M61750 44750
L61500 45250
" />
</g>
<g style="fill:#0000C2; fill-opacity:0.0; 
stroke:#0000C2; stroke-width:60; stroke-opacity:1; 
stroke-linecap:round; stroke-linejoin:round;">
</g>
<g style="fill:#0000C2; fill-opacity:0.0; 
stroke:#0000C2; stroke-width:60; stroke-opacity:1; 
stroke-linecap:round; stroke-linejoin:round;stroke-dasharray:150,150;">
<path d="M53500 48250
L53500 42250
" />
</g>
<g style="fill:#0000C2; fill-opacity:0.0; 
stroke:#0000C2; stroke-width:60; stroke-opacity:1; 
stroke-linecap:round; stroke-linejoin:round;">
</g>
<g style="fill:#0000C2; fill-opacity:0.0; 
stroke:#0000C2; stroke-width:60; stroke-opacity:1; 
stroke-linecap:round; stroke-linejoin:round;stroke-dasharray:150,150;">
<path d="M61750 44750
L62000 45250
" />
</g>
<g style="fill:#0000C2; fill-opacity:0.0; 
stroke:#0000C2; stroke-width:60; stroke-opacity:1; 
stroke-linecap:round; stroke-linejoin:round;">
</g>
<g style="fill:#0000C2; fill-opacity:0.0; 
stroke:#0000C2; stroke-width:60; stroke-opacity:1; 
stroke-linecap:round; stroke-linejoin:round;stroke-dasharray:150,150;">
<path d="M53500 42250
L56000 42250
" />
</g>
<g style="fill:#0000C2; fill-opacity:0.0; 
stroke:#0000C2; stroke-width:60; stroke-opacity:1; 
stroke-linecap:round; stroke-linejoin:round;">
</g>
<g style="fill:#0000C2; fill-opacity:0.0; 
stroke:#0000C2; stroke-width:60; stroke-opacity:1; 
stroke-linecap:round; stroke-linejoin:round;stroke-dasharray:150,150;">
<path d="M56000 42250
L56000 48250
" />
</g>
<g style="fill:#0000C2; fill-opacity:0.0; 
stroke:#0000C2; stroke-width:60; stroke-opacity:1; 
stroke-linecap:round; stroke-linejoin:round;">
</g>
<g style="fill:#0000C2; fill-opacity:0.0; 
stroke:#0000C2; stroke-width:60; stroke-opacity:1; 
stroke-linecap:round; stroke-linejoin:round;stroke-dasharray:150,150;">
<path d="M56000 48250
L53500 48250
" />
</g>
<g style="fill:#0000C2; fill-opacity:0.0; 
stroke:#0000C2; stroke-width:60; stroke-opacity:1; 
stroke-linecap:round; stroke-linejoin:round;">
</g>
<g style="fill:#0000C2; fill-opacity:0.0; 
stroke:#0000C2; stroke-width:60; stroke-opacity:1; 
stroke-linecap:round; stroke-linejoin:round;stroke-dasharray:150,150;">
<path d="M53500 44750
L53750 45250
" />
</g>
<g style="fill:#0000C2; fill-opacity:0.0; 
stroke:#0000C2; stroke-width:60; stroke-opacity:1; 
stroke-linecap:round; stroke-linejoin:round;">
</g>
<g style="fill:#0000C2; fill-opacity:0.0; 
stroke:#0000C2; stroke-width:60; stroke-opacity:1; 
stroke-linecap:round; stroke-linejoin:round;stroke-dasharray:150,150;">
<path d="M53500 44750
L53250 45250
" />
</g>
<g style="fill:#0000C2; fill-opacity:0.0; 
stroke:#0000C2; stroke-width:60; stroke-opacity:1; 
stroke-linecap:round; stroke-linejoin:round;">
</g>
<g style="fill:#0000C2; fill-opacity:0.0; 
stroke:#0000C2; stroke-width:60; stroke-opacity:1; 
stroke-linecap:round; stroke-linejoin:round;stroke-dasharray:150,150;">
<path d="M56000 45250
L56250 44750
" />
</g>
<g style="fill:#0000C2; fill-opacity:0.0; 
stroke:#0000C2; stroke-width:60; stroke-opacity:1; 
stroke-linecap:round; stroke-linejoin:round;">
</g>
<g style="fill:#0000C2; fill-opacity:0.0; 
stroke:#0000C2; stroke-width:60; stroke-opacity:1; 
stroke-linecap:round; stroke-linejoin:round;stroke-dasharray:150,150;">
<path d="M64250 48250
L61750 48250
" />
</g>
<g style="fill:#0000C2; fill-opacity:0.0; 
stroke:#0000C2; stroke-width:60; stroke-opacity:1; 
stroke-linecap:round; stroke-linejoin:round;">
</g>
<g style="fill:#0000C2; fill-opacity:0.0; 
stroke:#0000C2; stroke-width:60; stroke-opacity:1; 
stroke-linecap:round; stroke-linejoin:round;stroke-dasharray:150,150;">
<path d="M64250 42250
L64250 48250
" />
</g>
<g style="fill:#0000C2; fill-opacity:0.0; 
stroke:#0000C2; stroke-width:60; stroke-opacity:1; 
stroke-linecap:round; stroke-linejoin:round;">
</g>
<g style="fill:#0000C2; fill-opacity:0.0; 
stroke:#0000C2; stroke-width:60; stroke-opacity:1; 
stroke-linecap:round; stroke-linejoin:round;stroke-dasharray:150,150;">
<path d="M56000 45250
L55750 44750
" />
</g>
<g style="fill:#0000C2; fill-opacity:0.0; 
stroke:#0000C2; stroke-width:60; stroke-opacity:1; 
stroke-linecap:round; stroke-linejoin:round;">
</g>
<g style="fill:#0000C2; fill-opacity:0.0; 
stroke:#0000C2; stroke-width:60; stroke-opacity:1; 
stroke-linecap:round; stroke-linejoin:round;stroke-dasharray:150,150;">
<path d="M61750 42250
L64250 42250
" />
</g>
<g style="fill:#0000C2; fill-opacity:0.0; 
stroke:#0000C2; stroke-width:60; stroke-opacity:1; 
stroke-linecap:round; stroke-linejoin:round;">
</g>
<g style="fill:#008400; fill-opacity:0.0; 
stroke:#008400; stroke-width:60; stroke-opacity:1; 
stroke-linecap:round; stroke-linejoin:round;">
<path d="M66500 49000
L58500 49000
" />
<path d="M66500 48500
L66500 49000
" />
<path d="M66500 45500
L66500 45000
" />
<path d="M50500 41500
L58500 41500
" />
<path d="M50500 45000
L50500 45500
" />
<path d="M58500 49000
L58500 48500
" />
<path d="M66500 41500
L66500 42000
" />
<path d="M52500 26750
L52500 27250
" />
<path d="M58500 26750
L58500 27250
" />
<path d="M58500 30750
L58500 30250
" />
<path d="M52500 34250
L58500 34250
" />
<path d="M58500 34250
L58500 33750
" />
<path d="M52500 33750
L52500 34250
" />
<path d="M58500 26750
L64500 26750
" />
<path d="M64500 26750
L64500 27250
" />
<path d="M52500 30250
L52500 30750
" />
<path d="M52500 26750
L58500 26750
" />
<path d="M64500 30750
L64500 30250
" />
<path d="M64500 33750
L64500 34250
" />
<path d="M64500 34250
L58500 34250
" />
<path d="M50500 41500
L50500 42000
" />
<path d="M58500 41500
L58500 42000
" />
<path d="M58500 45500
L58500 45000
" />
<path d="M50500 49000
L58500 49000
" />
<path d="M50500 48500
L50500 49000
" />
<path d="M58500 41500
L66500 41500
" />
</g>
<g style="fill:#0000C2; fill-opacity:0.0; 
stroke:#0000C2; stroke-width:60; stroke-opacity:1; 
stroke-linecap:round; stroke-linejoin:round;">
<text x="54250" y="45400"
textLength="950" font-size="800" lengthAdjust="spacingAndGlyphs"
text-anchor="start" opacity="0">Iα</text>
<path d="M54420 45370
L54420 44770
" />
<path d="M55050 44970
L54960 45250
L54930 45310
L54900 45340
L54850 45370
L54790 45370
L54730 45340
L54700 45310
L54680 45220
L54680 45110
L54700 45020
L54730 45000
L54790 44970
L54850 44970
L54900 45000
L54930 45020
L54960 45080
L54990 45280
L55020 45340
L55080 45370
" />
<text x="62500" y="45400"
textLength="890" font-size="800" lengthAdjust="spacingAndGlyphs"
text-anchor="start" opacity="0">Iβ</text>
<path d="M62670 45370
L62670 44770
" />
<path d="M63130 45020
L63180 45050
L63210 45080
L63240 45140
L63240 45250
L63210 45310
L63180 45340
L63130 45370
L63040 45370
L62980 45340
L62950 45310
" />
<path d="M62900 45570
L62930 45540
L62950 45480
L62950 44850
L62980 44800
L63040 44770
L63130 44770
L63180 44800
L63210 44850
L63210 44940
L63180 45000
L63130 45020
L63070 45020
" />
</g>
<g style="fill:#0000C2; fill-opacity:0.0; 
stroke:#0000C2; stroke-width:0; stroke-opacity:1; 
stroke-linecap:round; stroke-linejoin:round;">
</g>
<g style="fill:#008400; fill-opacity:0.0; 
stroke:#008400; stroke-width:0; stroke-opacity:1; 
stroke-linecap:round; stroke-linejoin:round;">
</g>
<g style="fill:#008400; fill-opacity:1.0; 
stroke:#008400; stroke-width:100; stroke-opacity:1; 
stroke-linecap:round; stroke-linejoin:round;">
<circle cx="58500" cy="34250" r="200" /> 
</g>
<g style="fill:#008400; fill-opacity:1.0; 
stroke:#008400; stroke-width:0; stroke-opacity:1; 
stroke-linecap:round; stroke-linejoin:round;">
</g>
<g style="fill:#008400; fill-opacity:1.0; 
stroke:#008400; stroke-width:100; stroke-opacity:1; 
stroke-linecap:round; stroke-linejoin:round;">
<circle cx="58500" cy="26750" r="200" /> 
</g>
<g style="fill:#008400; fill-opacity:1.0; 
stroke:#008400; stroke-width:0; stroke-opacity:1; 
stroke-linecap:round; stroke-linejoin:round;">
</g>
<g style="fill:#008400; fill-opacity:1.0; 
stroke:#008400; stroke-width:100; stroke-opacity:1; 
stroke-linecap:round; stroke-linejoin:round;">
<circle cx="58500" cy="49000" r="200" /> 
</g>
<g style="fill:#008400; fill-opacity:1.0; 
stroke:#008400; stroke-width:0; stroke-opacity:1; 
stroke-linecap:round; stroke-linejoin:round;">
</g>
<g style="fill:#008400; fill-opacity:1.0; 
stroke:#008400; stroke-width:100; stroke-opacity:1; 
stroke-linecap:round; stroke-linejoin:round;">
<circle cx="58500" cy="41500" r="200" /> 
</g> 
</svg>
