%FSLAX45Y45*%
G04 Gerber Fmt 4.5, Leading zero omitted, Abs format (unit mm)*
G04 Created by KiCad (PCBNEW 5.1.6-c6e7f7d~87~ubuntu20.04.1) date 2020-09-28 16:53:08*
%MOMM*%
%LPD*%
G01*
G04 APERTURE LIST*
%TA.AperFunction,Profile*%
%ADD10C,0.050000*%
%TD*%
%ADD11C,0.200000*%
%ADD12C,0.300000*%
G04 APERTURE END LIST*
D10*
X8509000Y-3937000D02*
X5969000Y-3937000D01*
X8509000Y-5969000D02*
X8509000Y-3937000D01*
X5969000Y-5969000D02*
X8509000Y-5969000D01*
X5969000Y-3937000D02*
X5969000Y-5969000D01*
D11*
D12*
X6252928Y-6437214D02*
X6252928Y-6137214D01*
X6324357Y-6137214D01*
X6367214Y-6151500D01*
X6395786Y-6180071D01*
X6410071Y-6208643D01*
X6424357Y-6265786D01*
X6424357Y-6308643D01*
X6410071Y-6365786D01*
X6395786Y-6394357D01*
X6367214Y-6422929D01*
X6324357Y-6437214D01*
X6252928Y-6437214D01*
X6552928Y-6437214D02*
X6552928Y-6237214D01*
X6552928Y-6294357D02*
X6567214Y-6265786D01*
X6581500Y-6251500D01*
X6610071Y-6237214D01*
X6638643Y-6237214D01*
X6738643Y-6437214D02*
X6738643Y-6237214D01*
X6738643Y-6137214D02*
X6724357Y-6151500D01*
X6738643Y-6165786D01*
X6752928Y-6151500D01*
X6738643Y-6137214D01*
X6738643Y-6165786D01*
X6924357Y-6437214D02*
X6895786Y-6422929D01*
X6881500Y-6394357D01*
X6881500Y-6137214D01*
X7081500Y-6437214D02*
X7052928Y-6422929D01*
X7038643Y-6394357D01*
X7038643Y-6137214D01*
X7424357Y-6437214D02*
X7424357Y-6137214D01*
X7524357Y-6351500D01*
X7624357Y-6137214D01*
X7624357Y-6437214D01*
X7895786Y-6437214D02*
X7895786Y-6280071D01*
X7881500Y-6251500D01*
X7852928Y-6237214D01*
X7795786Y-6237214D01*
X7767214Y-6251500D01*
X7895786Y-6422929D02*
X7867214Y-6437214D01*
X7795786Y-6437214D01*
X7767214Y-6422929D01*
X7752928Y-6394357D01*
X7752928Y-6365786D01*
X7767214Y-6337214D01*
X7795786Y-6322929D01*
X7867214Y-6322929D01*
X7895786Y-6308643D01*
X8038643Y-6237214D02*
X8038643Y-6537214D01*
X8038643Y-6251500D02*
X8067214Y-6237214D01*
X8124357Y-6237214D01*
X8152928Y-6251500D01*
X8167214Y-6265786D01*
X8181500Y-6294357D01*
X8181500Y-6380071D01*
X8167214Y-6408643D01*
X8152928Y-6422929D01*
X8124357Y-6437214D01*
X8067214Y-6437214D01*
X8038643Y-6422929D01*
X8310071Y-6408643D02*
X8324357Y-6422929D01*
X8310071Y-6437214D01*
X8295786Y-6422929D01*
X8310071Y-6408643D01*
X8310071Y-6437214D01*
X8310071Y-6251500D02*
X8324357Y-6265786D01*
X8310071Y-6280071D01*
X8295786Y-6265786D01*
X8310071Y-6251500D01*
X8310071Y-6280071D01*
M02*
