%TF.GenerationSoftware,KiCad,Pcbnew,5.1.6-c6e7f7d~87~ubuntu20.04.1*%
%TF.CreationDate,2020-09-28T16:47:58-03:00*%
%TF.ProjectId,2-leds,322d6c65-6473-42e6-9b69-6361645f7063,rev?*%
%TF.SameCoordinates,Original*%
%TF.FileFunction,Legend,Top*%
%TF.FilePolarity,Positive*%
%FSLAX46Y46*%
G04 Gerber Fmt 4.6, Leading zero omitted, Abs format (unit mm)*
G04 Created by KiCad (PCBNEW 5.1.6-c6e7f7d~87~ubuntu20.04.1) date 2020-09-28 16:47:58*
%MOMM*%
%LPD*%
G01*
G04 APERTURE LIST*
%ADD10C,0.120000*%
%ADD11C,0.150000*%
G04 APERTURE END LIST*
D10*
%TO.C,D1*%
X77195000Y-47010000D02*
X80285000Y-47010000D01*
X81240000Y-44450000D02*
G75*
G03*
X81240000Y-44450000I-2500000J0D01*
G01*
X78740462Y-41460000D02*
G75*
G03*
X77195170Y-47010000I-462J-2990000D01*
G01*
X78739538Y-41460000D02*
G75*
G02*
X80284830Y-47010000I462J-2990000D01*
G01*
%TO.C,D2*%
X78740462Y-56330000D02*
G75*
G02*
X77195170Y-50780000I-462J2990000D01*
G01*
X78739538Y-56330000D02*
G75*
G03*
X80284830Y-50780000I462J2990000D01*
G01*
X81240000Y-53340000D02*
G75*
G03*
X81240000Y-53340000I-2500000J0D01*
G01*
X80285000Y-50780000D02*
X77195000Y-50780000D01*
%TO.C,R1*%
X71350000Y-54610000D02*
X70580000Y-54610000D01*
X63270000Y-54610000D02*
X64040000Y-54610000D01*
X70580000Y-53240000D02*
X64040000Y-53240000D01*
X70580000Y-55980000D02*
X70580000Y-53240000D01*
X64040000Y-55980000D02*
X70580000Y-55980000D01*
X64040000Y-53240000D02*
X64040000Y-55980000D01*
%TO.C,V1*%
X62410000Y-41610000D02*
X62410000Y-42110000D01*
X63150000Y-41610000D02*
X62410000Y-41610000D01*
X66287000Y-48303000D02*
X66241000Y-48256000D01*
X68585000Y-50600000D02*
X68549000Y-50565000D01*
X66071000Y-48496000D02*
X66036000Y-48461000D01*
X68379000Y-50805000D02*
X68333000Y-50758000D01*
X72571000Y-52130000D02*
X62650000Y-52130000D01*
X72571000Y-41850000D02*
X62650000Y-41850000D01*
X62650000Y-41850000D02*
X62650000Y-52130000D01*
X72571000Y-41850000D02*
X72571000Y-52130000D01*
X69611000Y-41850000D02*
X69611000Y-52130000D01*
X64710000Y-41850000D02*
X64710000Y-52130000D01*
X63210000Y-41850000D02*
X63210000Y-52130000D01*
X68990000Y-49530000D02*
G75*
G03*
X68990000Y-49530000I-1680000J0D01*
G01*
X65775244Y-45133318D02*
G75*
G02*
X65630000Y-44450000I1534756J683318D01*
G01*
X67993042Y-45985426D02*
G75*
G02*
X66626000Y-45985000I-683042J1535426D01*
G01*
X68845426Y-43766958D02*
G75*
G02*
X68845000Y-45134000I-1535426J-683042D01*
G01*
X66626958Y-42914574D02*
G75*
G02*
X67994000Y-42915000I683042J-1535426D01*
G01*
X65629747Y-44478805D02*
G75*
G02*
X65775000Y-43766000I1680253J28805D01*
G01*
%TO.C,D1*%
D11*
X83002380Y-45188095D02*
X82002380Y-45188095D01*
X82002380Y-44950000D01*
X82050000Y-44807142D01*
X82145238Y-44711904D01*
X82240476Y-44664285D01*
X82430952Y-44616666D01*
X82573809Y-44616666D01*
X82764285Y-44664285D01*
X82859523Y-44711904D01*
X82954761Y-44807142D01*
X83002380Y-44950000D01*
X83002380Y-45188095D01*
X83002380Y-43664285D02*
X83002380Y-44235714D01*
X83002380Y-43950000D02*
X82002380Y-43950000D01*
X82145238Y-44045238D01*
X82240476Y-44140476D01*
X82288095Y-44235714D01*
%TO.C,D2*%
X83152380Y-54078095D02*
X82152380Y-54078095D01*
X82152380Y-53840000D01*
X82200000Y-53697142D01*
X82295238Y-53601904D01*
X82390476Y-53554285D01*
X82580952Y-53506666D01*
X82723809Y-53506666D01*
X82914285Y-53554285D01*
X83009523Y-53601904D01*
X83104761Y-53697142D01*
X83152380Y-53840000D01*
X83152380Y-54078095D01*
X82247619Y-53125714D02*
X82200000Y-53078095D01*
X82152380Y-52982857D01*
X82152380Y-52744761D01*
X82200000Y-52649523D01*
X82247619Y-52601904D01*
X82342857Y-52554285D01*
X82438095Y-52554285D01*
X82580952Y-52601904D01*
X83152380Y-53173333D01*
X83152380Y-52554285D01*
%TO.C,R1*%
X67143333Y-57602380D02*
X66810000Y-57126190D01*
X66571904Y-57602380D02*
X66571904Y-56602380D01*
X66952857Y-56602380D01*
X67048095Y-56650000D01*
X67095714Y-56697619D01*
X67143333Y-56792857D01*
X67143333Y-56935714D01*
X67095714Y-57030952D01*
X67048095Y-57078571D01*
X66952857Y-57126190D01*
X66571904Y-57126190D01*
X68095714Y-57602380D02*
X67524285Y-57602380D01*
X67810000Y-57602380D02*
X67810000Y-56602380D01*
X67714761Y-56745238D01*
X67619523Y-56840476D01*
X67524285Y-56888095D01*
%TO.C,V1*%
X73022380Y-47799523D02*
X74022380Y-47466190D01*
X73022380Y-47132857D01*
X74022380Y-46275714D02*
X74022380Y-46847142D01*
X74022380Y-46561428D02*
X73022380Y-46561428D01*
X73165238Y-46656666D01*
X73260476Y-46751904D01*
X73308095Y-46847142D01*
%TD*%
M02*
