<?xml version="1.0" standalone="no"?>
 <!DOCTYPE svg PUBLIC "-//W3C//DTD SVG 1.1//EN" 
 "http://www.w3.org/Graphics/SVG/1.1/DTD/svg11.dtd"> 
<svg xmlns="http://www.w3.org/2000/svg" version="1.1" 
    width="29.7002cm" height="21.0007cm" viewBox="0 0 116930 82680 ">
<title>SVG Picture created as circuito-01-com-defeito-trilhas-0.5mm-F.SilkS.svg date 2019/11/21 19:06:05 </title>
  <desc>Picture generated by PCBNEW </desc>
<g style="fill:#000000; fill-opacity:1;stroke:#000000; stroke-opacity:1;
stroke-linecap:round; stroke-linejoin:round; "
 transform="translate(0 0) scale(1 1)">
</g>
<g style="fill:#000000; fill-opacity:0.0; 
stroke:#000000; stroke-width:-0.000393701; stroke-opacity:1; 
stroke-linecap:round; stroke-linejoin:round;">
</g>
<g style="fill:#000000; fill-opacity:0.0; 
stroke:#000000; stroke-width:78.7402; stroke-opacity:1; 
stroke-linecap:round; stroke-linejoin:round;">
<path d="M49500 34000
L49500 30000
" />
<path d="M60000 29250
L56000 29250
" />
<path d="M60000 34500
L60000 30500
" />
<path d="M62000 39850
L69500 39850
" />
<path d="M60750 38000
L65500 38000
" />
<path d="M70500 37950
L70500 33750
" />
<path d="M71250 35500
L71250 39000
" />
<path d="M52000 42750
L58000 42750
" />
<path d="M58000 41750
L52000 41750
" />
<path d="M52000 40750
L58000 40750
" />
<path d="M52000 39750
L58000 39750
" />
<path d="M52000 38750
L58000 38750
" />
</g>
<g style="fill:#000000; fill-opacity:0.0; 
stroke:#000000; stroke-width:59.0551; stroke-opacity:1; 
stroke-linecap:round; stroke-linejoin:round;">
<path d="M54484 42034
L54484 42315
L54465 42371
L54428 42409
L54371 42428
L54334 42428
" />
<path d="M54671 42428
L54671 42034
L54821 42034
L54859 42053
L54878 42071
L54896 42109
L54896 42165
L54878 42203
L54859 42221
L54821 42240
L54671 42240
" />
<path d="M55271 42428
L55046 42428
" />
<path d="M55159 42428
L55159 42034
L55121 42090
L55084 42128
L55046 42146
" />
<path d="M55421 42071
L55440 42053
L55478 42034
L55571 42034
L55609 42053
L55628 42071
L55646 42109
L55646 42146
L55628 42203
L55403 42428
L55646 42428
" />
<path d="M63400 28565
L63381 28584
L63325 28603
L63287 28603
L63231 28584
L63193 28547
L63175 28509
L63156 28434
L63156 28378
L63175 28303
L63193 28265
L63231 28228
L63287 28209
L63325 28209
L63381 28228
L63400 28247
" />
<path d="M63568 28603
L63568 28340
" />
<path d="M63568 28209
L63550 28228
L63568 28247
L63587 28228
L63568 28209
L63568 28247
" />
<path d="M63756 28603
L63756 28340
" />
<path d="M63756 28415
L63775 28378
L63793 28359
L63831 28340
L63868 28340
" />
<path d="M64168 28584
L64131 28603
L64056 28603
L64018 28584
L64000 28565
L63981 28528
L63981 28415
L64000 28378
L64018 28359
L64056 28340
L64131 28340
L64168 28359
" />
<path d="M64506 28340
L64506 28603
" />
<path d="M64337 28340
L64337 28547
L64356 28584
L64393 28603
L64450 28603
L64487 28584
L64506 28565
" />
<path d="M64693 28603
L64693 28340
" />
<path d="M64693 28209
L64675 28228
L64693 28247
L64712 28228
L64693 28209
L64693 28247
" />
<path d="M64824 28340
L64974 28340
" />
<path d="M64881 28209
L64881 28547
L64899 28584
L64937 28603
L64974 28603
" />
<path d="M65162 28603
L65124 28584
L65106 28565
L65087 28528
L65087 28415
L65106 28378
L65124 28359
L65162 28340
L65218 28340
L65256 28359
L65274 28378
L65293 28415
L65293 28528
L65274 28565
L65256 28584
L65218 28603
L65162 28603
" />
<path d="M65837 28209
L65874 28209
L65912 28228
L65931 28247
L65949 28284
L65968 28359
L65968 28453
L65949 28528
L65931 28565
L65912 28584
L65874 28603
L65837 28603
L65799 28584
L65781 28565
L65762 28528
L65743 28453
L65743 28359
L65762 28284
L65781 28247
L65799 28228
L65837 28209
" />
<path d="M66343 28603
L66118 28603
" />
<path d="M66231 28603
L66231 28209
L66193 28265
L66156 28303
L66118 28322
" />
<path d="M62922 29402
L62903 29384
L62865 29327
L62847 29290
L62828 29234
L62809 29140
L62809 29065
L62828 28971
L62847 28915
L62865 28877
L62903 28821
L62922 28802
" />
<path d="M63240 29234
L63203 29252
L63128 29252
L63090 29234
L63072 29215
L63053 29177
L63053 29065
L63072 29027
L63090 29009
L63128 28990
L63203 28990
L63240 29009
" />
<path d="M63465 29252
L63428 29234
L63409 29215
L63390 29177
L63390 29065
L63409 29027
L63428 29009
L63465 28990
L63522 28990
L63559 29009
L63578 29027
L63597 29065
L63597 29177
L63578 29215
L63559 29234
L63522 29252
L63465 29252
" />
<path d="M63765 29252
L63765 28990
" />
<path d="M63765 29027
L63784 29009
L63821 28990
L63878 28990
L63915 29009
L63934 29046
L63934 29252
" />
<path d="M63934 29046
L63953 29009
L63990 28990
L64046 28990
L64084 29009
L64103 29046
L64103 29252
" />
<path d="M64759 29252
L64759 28859
" />
<path d="M64759 29234
L64721 29252
L64646 29252
L64609 29234
L64590 29215
L64571 29177
L64571 29065
L64590 29027
L64609 29009
L64646 28990
L64721 28990
L64759 29009
" />
<path d="M65096 29234
L65059 29252
L64984 29252
L64946 29234
L64928 29196
L64928 29046
L64946 29009
L64984 28990
L65059 28990
L65096 29009
L65115 29046
L65115 29084
L64928 29121
" />
<path d="M65228 28990
L65378 28990
" />
<path d="M65284 29252
L65284 28915
L65303 28877
L65340 28859
L65378 28859
" />
<path d="M65659 29234
L65621 29252
L65546 29252
L65509 29234
L65490 29196
L65490 29046
L65509 29009
L65546 28990
L65621 28990
L65659 29009
L65678 29046
L65678 29084
L65490 29121
" />
<path d="M65846 29252
L65846 28990
" />
<path d="M65846 28859
L65827 28877
L65846 28896
L65865 28877
L65846 28859
L65846 28896
" />
<path d="M65977 28990
L66127 28990
" />
<path d="M66034 28859
L66034 29196
L66052 29234
L66090 29252
L66127 29252
" />
<path d="M66315 29252
L66277 29234
L66259 29215
L66240 29177
L66240 29065
L66259 29027
L66277 29009
L66315 28990
L66371 28990
L66409 29009
L66427 29027
L66446 29065
L66446 29177
L66427 29215
L66409 29234
L66371 29252
L66315 29252
" />
<path d="M66577 29402
L66596 29384
L66634 29327
L66652 29290
L66671 29234
L66690 29140
L66690 29065
L66671 28971
L66652 28915
L66634 28877
L66596 28821
L66577 28802
" />
<path d="M43565 39593
L43565 39406
" />
<path d="M43678 39631
L43284 39500
L43678 39368
" />
<path d="M43471 38471
L43490 38415
L43509 38396
L43546 38378
L43603 38378
L43640 38396
L43659 38415
L43678 38453
L43678 38603
L43284 38603
L43284 38471
L43303 38434
L43321 38415
L43359 38396
L43396 38396
L43434 38415
L43453 38434
L43471 38471
L43471 38603
" />
<path d="M43640 37378
L43659 37396
L43678 37453
L43678 37490
L43659 37546
L43621 37584
L43584 37603
L43509 37621
L43453 37621
L43378 37603
L43340 37584
L43303 37546
L43284 37490
L43284 37453
L43303 37396
L43321 37378
" />
<path d="M43678 36603
L43284 36603
L43284 36509
L43303 36453
L43340 36415
L43378 36396
L43453 36378
L43509 36378
L43584 36396
L43621 36415
L43659 36453
L43678 36509
L43678 36603
" />
<path d="M71534 37578
L71815 37578
L71871 37596
L71909 37634
L71928 37690
L71928 37728
" />
<path d="M71928 37390
L71534 37390
L71534 37240
L71553 37203
L71571 37184
L71609 37165
L71665 37165
L71703 37184
L71721 37203
L71740 37240
L71740 37390
" />
<path d="M71534 37034
L71534 36771
L71928 36940
" />
<path d="M70684 37128
L70965 37128
L71021 37146
L71059 37184
L71078 37240
L71078 37278
" />
<path d="M71078 36940
L70684 36940
L70684 36790
L70703 36753
L70721 36734
L70759 36715
L70815 36715
L70853 36734
L70871 36753
L70890 36790
L70890 36940
" />
<path d="M70684 36378
L70684 36453
L70703 36490
L70721 36509
L70778 36546
L70853 36565
L71003 36565
L71040 36546
L71059 36528
L71078 36490
L71078 36415
L71059 36378
L71040 36359
L71003 36340
L70909 36340
L70871 36359
L70853 36378
L70834 36415
L70834 36490
L70853 36528
L70871 36546
L70909 36565
" />
<path d="M65421 39034
L65421 39315
L65403 39371
L65365 39409
L65309 39428
L65271 39428
" />
<path d="M65609 39428
L65609 39034
L65759 39034
L65796 39053
L65815 39071
L65834 39109
L65834 39165
L65815 39203
L65796 39221
L65759 39240
L65609 39240
" />
<path d="M66190 39034
L66003 39034
L65984 39221
L66003 39203
L66040 39184
L66134 39184
L66171 39203
L66190 39221
L66209 39259
L66209 39353
L66190 39390
L66171 39409
L66134 39428
L66040 39428
L66003 39409
L65984 39390
" />
<path d="M62921 38284
L62921 38565
L62903 38621
L62865 38659
L62809 38678
L62771 38678
" />
<path d="M63109 38678
L63109 38284
L63259 38284
L63296 38303
L63315 38321
L63334 38359
L63334 38415
L63315 38453
L63296 38471
L63259 38490
L63109 38490
" />
<path d="M63671 38415
L63671 38678
" />
<path d="M63578 38265
L63484 38546
L63728 38546
" />
<path d="M54484 41034
L54484 41315
L54465 41371
L54428 41409
L54371 41428
L54334 41428
" />
<path d="M54671 41428
L54671 41034
L54821 41034
L54859 41053
L54878 41071
L54896 41109
L54896 41165
L54878 41203
L54859 41221
L54821 41240
L54671 41240
" />
<path d="M55271 41428
L55046 41428
" />
<path d="M55159 41428
L55159 41034
L55121 41090
L55084 41128
L55046 41146
" />
<path d="M55646 41428
L55421 41428
" />
<path d="M55534 41428
L55534 41034
L55496 41090
L55459 41128
L55421 41146
" />
<path d="M54484 40034
L54484 40315
L54465 40371
L54428 40409
L54371 40428
L54334 40428
" />
<path d="M54671 40428
L54671 40034
L54821 40034
L54859 40053
L54878 40071
L54896 40109
L54896 40165
L54878 40203
L54859 40221
L54821 40240
L54671 40240
" />
<path d="M55271 40428
L55046 40428
" />
<path d="M55159 40428
L55159 40034
L55121 40090
L55084 40128
L55046 40146
" />
<path d="M55515 40034
L55553 40034
L55590 40053
L55609 40071
L55628 40109
L55646 40184
L55646 40278
L55628 40353
L55609 40390
L55590 40409
L55553 40428
L55515 40428
L55478 40409
L55459 40390
L55440 40353
L55421 40278
L55421 40184
L55440 40109
L55459 40071
L55478 40053
L55515 40034
" />
<path d="M54671 39034
L54671 39315
L54653 39371
L54615 39409
L54559 39428
L54521 39428
" />
<path d="M54859 39428
L54859 39034
L55009 39034
L55046 39053
L55065 39071
L55084 39109
L55084 39165
L55065 39203
L55046 39221
L55009 39240
L54859 39240
" />
<path d="M55271 39428
L55346 39428
L55384 39409
L55403 39390
L55440 39334
L55459 39259
L55459 39109
L55440 39071
L55421 39053
L55384 39034
L55309 39034
L55271 39053
L55253 39071
L55234 39109
L55234 39203
L55253 39240
L55271 39259
L55309 39278
L55384 39278
L55421 39259
L55440 39240
L55459 39203
" />
<path d="M54671 38034
L54671 38315
L54653 38371
L54615 38409
L54559 38428
L54521 38428
" />
<path d="M54859 38428
L54859 38034
L55009 38034
L55046 38053
L55065 38071
L55084 38109
L55084 38165
L55065 38203
L55046 38221
L55009 38240
L54859 38240
" />
<path d="M55309 38203
L55271 38184
L55253 38165
L55234 38128
L55234 38109
L55253 38071
L55271 38053
L55309 38034
L55384 38034
L55421 38053
L55440 38071
L55459 38109
L55459 38128
L55440 38165
L55421 38184
L55384 38203
L55309 38203
L55271 38221
L55253 38240
L55234 38278
L55234 38353
L55253 38390
L55271 38409
L55309 38428
L55384 38428
L55421 38409
L55440 38390
L55459 38353
L55459 38278
L55440 38240
L55421 38221
L55384 38203
" />
<path d="M60421 31284
L60421 31565
L60403 31621
L60365 31659
L60309 31678
L60271 31678
" />
<path d="M60609 31678
L60609 31284
L60759 31284
L60796 31303
L60815 31321
L60834 31359
L60834 31415
L60815 31453
L60796 31471
L60759 31490
L60609 31490
" />
<path d="M60965 31284
L61209 31284
L61078 31434
L61134 31434
L61171 31453
L61190 31471
L61209 31509
L61209 31603
L61190 31640
L61171 31659
L61134 31678
L61021 31678
L60984 31659
L60965 31640
" />
<path d="M57671 28534
L57671 28815
L57653 28871
L57615 28909
L57559 28928
L57521 28928
" />
<path d="M57859 28928
L57859 28534
L58009 28534
L58046 28553
L58065 28571
L58084 28609
L58084 28665
L58065 28703
L58046 28721
L58009 28740
L57859 28740
" />
<path d="M58234 28571
L58253 28553
L58290 28534
L58384 28534
L58421 28553
L58440 28571
L58459 28609
L58459 28646
L58440 28703
L58215 28928
L58459 28928
" />
<path d="M49921 30534
L49921 30815
L49903 30871
L49865 30909
L49809 30928
L49771 30928
" />
<path d="M50109 30928
L50109 30534
L50259 30534
L50296 30553
L50315 30571
L50334 30609
L50334 30665
L50315 30703
L50296 30721
L50259 30740
L50109 30740
" />
<path d="M50709 30928
L50484 30928
" />
<path d="M50596 30928
L50596 30534
L50559 30590
L50521 30628
L50484 30646
" />
</g>
<g style="fill:#000000; fill-opacity:0.0; 
stroke:#000000; stroke-width:78.7402; stroke-opacity:1; 
stroke-linecap:round; stroke-linejoin:round;">
<path d="M43204 33449
L43176 33506
L43176 33590
L43204 33674
L43260 33731
L43317 33759
L43429 33787
L43514 33787
L43626 33759
L43682 33731
L43739 33674
L43767 33590
L43767 33534
L43739 33449
L43710 33421
L43514 33421
L43514 33534
" />
<path d="M43767 33168
L43176 33168
L43767 32831
L43176 32831
" />
<path d="M43767 32550
L43176 32550
L43176 32409
L43204 32325
L43260 32268
L43317 32240
L43429 32212
L43514 32212
L43626 32240
L43682 32268
L43739 32325
L43767 32409
L43767 32550
" />
<path d="M43542 31759
L43542 31309
" />
<path d="M43767 31534
L43317 31534
" />
<path d="M43176 30746
L43176 31028
L43457 31056
L43429 31028
L43401 30971
L43401 30831
L43429 30775
L43457 30746
L43514 30718
L43654 30718
L43710 30746
L43739 30775
L43767 30831
L43767 30971
L43739 31028
L43710 31056
" />
<path d="M43176 30550
L43767 30353
L43176 30156
" />
</g>
<g style="fill:#000000; fill-opacity:0.0; 
stroke:#000000; stroke-width:47.2441; stroke-opacity:1; 
stroke-linecap:round; stroke-linejoin:round;">
<path d="M45322.8 45749.8 A1177.17 1177.17 0.0 0 0 47507.9 46358.2 " />
<path d="M47507.9 45141.8 A1177.17 1177.17 0.0 0 0 45322.8 45750.2 " />
<circle cx="46500" cy="45750" r="984.252" /> 
<path d="M47507 46358
L47507 45141
" />
<path d="M52000 38226
L52523 38226
" />
<path d="M52523 38226
L52523 38750
" />
<path d="M52523 39250
L52523 43273
" />
<path d="M51476 43273
L52523 43273
" />
<path d="M51476 39250
L51476 43273
" />
<path d="M51476 39250
L52523 39250
" />
<path d="M58000 38226
L58523 38226
" />
<path d="M58523 38226
L58523 38750
" />
<path d="M58523 39250
L58523 43273
" />
<path d="M57476 43273
L58523 43273
" />
<path d="M57476 39250
L57476 43273
" />
<path d="M57476 39250
L58523 39250
" />
<path d="M61584 34547
L61460 34547
" />
<path d="M62539 34547
L62415 34547
" />
<path d="M61584 32484
L61460 32484
" />
<path d="M62539 32484
L62415 32484
" />
<path d="M61460 32484
L61460 34547
" />
<path d="M62539 32484
L62539 34547
" />
<path d="M51476 37023
L51476 36500
" />
<path d="M52000 37023
L51476 37023
" />
<path d="M52500 37023
L52500 35976
" />
<path d="M52500 35976
L58523 35976
" />
<path d="M52500 37023
L58523 37023
" />
<path d="M58523 37023
L58523 35976
" />
<path d="M51476 29976
L51476 31023
" />
<path d="M57500 29976
L51476 29976
" />
<path d="M57500 31023
L51476 31023
" />
<path d="M57500 29976
L57500 31023
" />
<path d="M58000 29976
L58523 29976
" />
<path d="M58523 29976
L58523 30500
" />
<path d="M62976 37023
L62976 36500
" />
<path d="M63500 37023
L62976 37023
" />
<path d="M64000 37023
L64000 35976
" />
<path d="M64000 35976
L70023 35976
" />
<path d="M64000 37023
L70023 37023
" />
<path d="M70023 37023
L70023 35976
" />
<path d="M62976 29976
L62976 31023
" />
<path d="M69000 29976
L62976 29976
" />
<path d="M69000 31023
L62976 31023
" />
<path d="M69000 29976
L69000 31023
" />
<path d="M69500 29976
L70023 29976
" />
<path d="M70023 29976
L70023 30500
" />
<path d="M62976 47523
L62976 47000
" />
<path d="M63500 47523
L62976 47523
" />
<path d="M64000 47523
L64000 46476
" />
<path d="M64000 46476
L70023 46476
" />
<path d="M64000 47523
L70023 47523
" />
<path d="M70023 47523
L70023 46476
" />
<path d="M62976 40476
L62976 41523
" />
<path d="M69000 40476
L62976 40476
" />
<path d="M69000 41523
L62976 41523
" />
<path d="M69000 40476
L69000 41523
" />
<path d="M69500 40476
L70023 40476
" />
<path d="M70023 40476
L70023 41000
" />
<path d="M45122 34181
L43940 34181
" />
<path d="M43940 34181
L43940 33000
" />
<path d="M44090 34031
L44090 30000
" />
<path d="M44090 30000
L49106 30000
" />
<path d="M49106 34031
L49106 30000
" />
<path d="M44090 34031
L49106 34031
" />
<path d="M44090 34031
L44090 30000
" />
<path d="M44090 30000
L49106 30000
" />
<path d="M49106 34031
L49106 30000
" />
<path d="M44090 34031
L49106 34031
" />
<path d="M47787 42927
L47787 41848
" />
<path d="M47787 41848
L45212 41848
" />
<path d="M45212 41848
L45212 42927
" />
<path d="M45212 42927
L47787 42927
" />
<path d="M48090 42387
L47787 42387
" />
<path d="M44909 42387
L45212 42387
" />
<path d="M56409 45000
L56712 45000
" />
<path d="M59590 45000
L59287 45000
" />
<path d="M56712 45539
L59287 45539
" />
<path d="M56712 44460
L56712 45539
" />
<path d="M59287 44460
L56712 44460
" />
<path d="M59287 45539
L59287 44460
" />
<path d="M59287 47039
L59287 45960
" />
<path d="M59287 45960
L56712 45960
" />
<path d="M56712 45960
L56712 47039
" />
<path d="M56712 47039
L59287 47039
" />
<path d="M59590 46500
L59287 46500
" />
<path d="M56409 46500
L56712 46500
" />
<path d="M53590 45000
L53287 45000
" />
<path d="M50409 45000
L50712 45000
" />
<path d="M53287 44460
L50712 44460
" />
<path d="M53287 45539
L53287 44460
" />
<path d="M50712 45539
L53287 45539
" />
<path d="M50712 44460
L50712 45539
" />
<path d="M50712 45960
L50712 47039
" />
<path d="M50712 47039
L53287 47039
" />
<path d="M53287 47039
L53287 45960
" />
<path d="M53287 45960
L50712 45960
" />
<path d="M50409 46500
L50712 46500
" />
<path d="M53590 46500
L53287 46500
" />
<path d="M44551 35547
L48448 35547
" />
<path d="M44551 40452
L48448 40452
" />
<path d="M44551 35547
L44551 40452
" />
<path d="M48448 35547
L48448 40452
" />
<path d="M44456 35452
L45001 35452
" />
<path d="M44456 35452
L44456 35997
" />
<path d="M45700 36250
L45700 36750
" />
<path d="M45700 36750
L47299 36750
" />
<path d="M47299 36750
L47299 36250
" />
<path d="M47299 36250
L45700 36250
" />
<path d="M45700 36297
L46233 36297
" />
<path d="M45700 36344
L46233 36344
" />
<path d="M45700 36391
L46233 36391
" />
<path d="M45700 36438
L46233 36438
" />
<path d="M45700 36486
L46233 36486
" />
<path d="M45700 36533
L46233 36533
" />
<path d="M45700 36580
L46233 36580
" />
<path d="M45700 36627
L46233 36627
" />
<path d="M45700 36675
L46233 36675
" />
<path d="M45700 36722
L46233 36722
" />
<path d="M46233 36250
L46233 36750
" />
<path d="M45700 37250
L45700 37750
" />
<path d="M45700 37750
L47299 37750
" />
<path d="M47299 37750
L47299 37250
" />
<path d="M47299 37250
L45700 37250
" />
<path d="M45700 37297
L46233 37297
" />
<path d="M45700 37344
L46233 37344
" />
<path d="M45700 37391
L46233 37391
" />
<path d="M45700 37438
L46233 37438
" />
<path d="M45700 37486
L46233 37486
" />
<path d="M45700 37533
L46233 37533
" />
<path d="M45700 37580
L46233 37580
" />
<path d="M45700 37627
L46233 37627
" />
<path d="M45700 37675
L46233 37675
" />
<path d="M45700 37722
L46233 37722
" />
<path d="M46233 37250
L46233 37750
" />
<path d="M45700 38250
L45700 38750
" />
<path d="M45700 38750
L47299 38750
" />
<path d="M47299 38750
L47299 38250
" />
<path d="M47299 38250
L45700 38250
" />
<path d="M45700 38297
L46233 38297
" />
<path d="M45700 38344
L46233 38344
" />
<path d="M45700 38391
L46233 38391
" />
<path d="M45700 38438
L46233 38438
" />
<path d="M45700 38486
L46233 38486
" />
<path d="M45700 38533
L46233 38533
" />
<path d="M45700 38580
L46233 38580
" />
<path d="M45700 38627
L46233 38627
" />
<path d="M45700 38675
L46233 38675
" />
<path d="M45700 38722
L46233 38722
" />
<path d="M46233 38250
L46233 38750
" />
<path d="M45700 39250
L45700 39750
" />
<path d="M45700 39750
L47299 39750
" />
<path d="M47299 39750
L47299 39250
" />
<path d="M47299 39250
L45700 39250
" />
<path d="M45700 39297
L46233 39297
" />
<path d="M45700 39344
L46233 39344
" />
<path d="M45700 39391
L46233 39391
" />
<path d="M45700 39438
L46233 39438
" />
<path d="M45700 39486
L46233 39486
" />
<path d="M45700 39533
L46233 39533
" />
<path d="M45700 39580
L46233 39580
" />
<path d="M45700 39627
L46233 39627
" />
<path d="M45700 39675
L46233 39675
" />
<path d="M45700 39722
L46233 39722
" />
<path d="M46233 39250
L46233 39750
" />
<path d="M51476.4 33893.7 A393.701 393.701 0.0 0 0 51476.4 33106.3 " />
<path d="M51476 33893
L51476 34385
" />
<path d="M51476 34385
L58523 34385
" />
<path d="M58523 34385
L58523 32614
" />
<path d="M58523 32614
L51476 32614
" />
<path d="M51476 32614
L51476 33106
" />
<path d="M51452 35566
L58547 35566
" />
<path d="M58547 35566
L58547 31433
" />
<path d="M58547 31433
L51452 31433
" />
<path d="M51452 31433
L51452 35566
" />
<path d="M62976.4 33893.7 A393.701 393.701 0.0 0 0 62976.4 33106.3 " />
<path d="M62976 33893
L62976 34385
" />
<path d="M62976 34385
L70023 34385
" />
<path d="M70023 34385
L70023 32614
" />
<path d="M70023 32614
L62976 32614
" />
<path d="M62976 32614
L62976 33106
" />
<path d="M62952 35566
L70047 35566
" />
<path d="M70047 35566
L70047 31433
" />
<path d="M70047 31433
L62952 31433
" />
<path d="M62952 31433
L62952 35566
" />
<path d="M62952 41933
L62952 46066
" />
<path d="M70047 41933
L62952 41933
" />
<path d="M70047 46066
L70047 41933
" />
<path d="M62952 46066
L70047 46066
" />
<path d="M62976 43114
L62976 43606
" />
<path d="M70023 43114
L62976 43114
" />
<path d="M70023 44885
L70023 43114
" />
<path d="M62976 44885
L70023 44885
" />
<path d="M62976 44393
L62976 44885
" />
<path d="M62976.4 44393.7 A393.701 393.701 0.0 0 0 62976.4 43606.3 " />
<path d="M51039 32484
L51039 34547
" />
<path d="M49960 32484
L49960 34547
" />
<path d="M51039 32484
L50915 32484
" />
<path d="M50084 32484
L49960 32484
" />
<path d="M51039 34547
L50915 34547
" />
<path d="M50084 34547
L49960 34547
" />
<path d="M62539 42952
L62539 45015
" />
<path d="M61460 42952
L61460 45015
" />
<path d="M62539 42952
L62415 42952
" />
<path d="M61584 42952
L61460 42952
" />
<path d="M62539 45015
L62415 45015
" />
<path d="M61584 45015
L61460 45015
" />
</g>
<g style="fill:#000000; fill-opacity:0.0; 
stroke:#000000; stroke-width:59.0551; stroke-opacity:1; 
stroke-linecap:round; stroke-linejoin:round;">
<path d="M44659 28928
L44659 28534
L44809 28534
L44846 28553
L44865 28571
L44884 28609
L44884 28665
L44865 28703
L44846 28721
L44809 28740
L44659 28740
" />
<path d="M45221 28928
L45221 28721
L45203 28684
L45165 28665
L45090 28665
L45053 28684
" />
<path d="M45221 28909
L45184 28928
L45090 28928
L45053 28909
L45034 28871
L45034 28834
L45053 28796
L45090 28778
L45184 28778
L45221 28759
" />
<path d="M45409 28928
L45409 28665
" />
<path d="M45409 28740
L45428 28703
L45446 28684
L45484 28665
L45521 28665
" />
<path d="M45859 28928
L45634 28928
" />
<path d="M45746 28928
L45746 28534
L45709 28590
L45671 28628
L45634 28646
" />
<path d="M44659 48178
L44659 47784
L44809 47784
L44846 47803
L44865 47821
L44884 47859
L44884 47915
L44865 47953
L44846 47971
L44809 47990
L44659 47990
" />
<path d="M45221 48178
L45221 47971
L45203 47934
L45165 47915
L45090 47915
L45053 47934
" />
<path d="M45221 48159
L45184 48178
L45090 48178
L45053 48159
L45034 48121
L45034 48084
L45053 48046
L45090 48028
L45184 48028
L45221 48009
" />
<path d="M45409 48178
L45409 47915
" />
<path d="M45409 47990
L45428 47953
L45446 47934
L45484 47915
L45521 47915
" />
<path d="M45821 47915
L45821 48178
" />
<path d="M45728 47765
L45634 48046
L45878 48046
" />
<path d="M69159 48178
L69159 47784
L69309 47784
L69346 47803
L69365 47821
L69384 47859
L69384 47915
L69365 47953
L69346 47971
L69309 47990
L69159 47990
" />
<path d="M69721 48178
L69721 47971
L69703 47934
L69665 47915
L69590 47915
L69553 47934
" />
<path d="M69721 48159
L69684 48178
L69590 48178
L69553 48159
L69534 48121
L69534 48084
L69553 48046
L69590 48028
L69684 48028
L69721 48009
" />
<path d="M69909 48178
L69909 47915
" />
<path d="M69909 47990
L69928 47953
L69946 47934
L69984 47915
L70021 47915
" />
<path d="M70115 47784
L70359 47784
L70228 47934
L70284 47934
L70321 47953
L70340 47971
L70359 48009
L70359 48103
L70340 48140
L70321 48159
L70284 48178
L70171 48178
L70134 48159
L70115 48140
" />
<path d="M46209 47487
L46209 47093
L46303 47093
L46359 47112
L46396 47149
L46415 47187
L46434 47262
L46434 47318
L46415 47393
L46396 47430
L46359 47468
L46303 47487
L46209 47487
" />
<path d="M46809 47487
L46584 47487
" />
<path d="M46696 47487
L46696 47093
L46659 47149
L46621 47187
L46584 47205
" />
<path d="M50618 38534
L50618 38815
L50600 38871
L50562 38909
L50506 38928
L50468 38928
" />
<path d="M50862 38703
L50824 38684
L50806 38665
L50787 38628
L50787 38609
L50806 38571
L50824 38553
L50862 38534
L50937 38534
L50974 38553
L50993 38571
L51012 38609
L51012 38628
L50993 38665
L50974 38684
L50937 38703
L50862 38703
L50824 38721
L50806 38740
L50787 38778
L50787 38853
L50806 38890
L50824 38909
L50862 38928
L50937 38928
L50974 38909
L50993 38890
L51012 38853
L51012 38778
L50993 38740
L50974 38721
L50937 38703
" />
<path d="M59118 38534
L59118 38815
L59100 38871
L59062 38909
L59006 38928
L58968 38928
" />
<path d="M59268 38534
L59531 38534
L59362 38928
" />
<path d="M61184 35140
L61165 35159
L61109 35178
L61071 35178
L61015 35159
L60978 35121
L60959 35084
L60940 35009
L60940 34953
L60959 34878
L60978 34840
L61015 34803
L61071 34784
L61109 34784
L61165 34803
L61184 34821
" />
<path d="M61334 34821
L61353 34803
L61390 34784
L61484 34784
L61521 34803
L61540 34821
L61559 34859
L61559 34896
L61540 34953
L61315 35178
L61559 35178
" />
<path d="M58868 36284
L58868 36565
L58850 36621
L58812 36659
L58756 36678
L58718 36678
" />
<path d="M59262 36678
L59037 36678
" />
<path d="M59149 36678
L59149 36284
L59112 36340
L59074 36378
L59037 36396
" />
<path d="M58786 30284
L58786 30565
L58767 30621
L58729 30659
L58673 30678
L58636 30678
" />
<path d="M58954 30321
L58973 30303
L59011 30284
L59104 30284
L59142 30303
L59161 30321
L59179 30359
L59179 30396
L59161 30453
L58936 30678
L59179 30678
" />
<path d="M62368 36284
L62368 36565
L62350 36621
L62312 36659
L62256 36678
L62218 36678
" />
<path d="M62518 36284
L62762 36284
L62631 36434
L62687 36434
L62724 36453
L62743 36471
L62762 36509
L62762 36603
L62743 36640
L62724 36659
L62687 36678
L62574 36678
L62537 36659
L62518 36640
" />
<path d="M70368 30284
L70368 30565
L70350 30621
L70312 30659
L70256 30678
L70218 30678
" />
<path d="M70724 30415
L70724 30678
" />
<path d="M70631 30265
L70537 30546
L70781 30546
" />
<path d="M70368 46534
L70368 46815
L70350 46871
L70312 46909
L70256 46928
L70218 46928
" />
<path d="M70743 46534
L70556 46534
L70537 46721
L70556 46703
L70593 46684
L70687 46684
L70724 46703
L70743 46721
L70762 46759
L70762 46853
L70743 46890
L70724 46909
L70687 46928
L70593 46928
L70556 46909
L70537 46890
" />
<path d="M70286 40784
L70286 41065
L70267 41121
L70229 41159
L70173 41178
L70136 41178
" />
<path d="M70642 40784
L70567 40784
L70529 40803
L70511 40821
L70473 40878
L70454 40953
L70454 41103
L70473 41140
L70492 41159
L70529 41178
L70604 41178
L70642 41159
L70661 41140
L70679 41103
L70679 41009
L70661 40971
L70642 40953
L70604 40934
L70529 40934
L70492 40953
L70473 40971
L70454 41009
" />
<path d="M46459 29678
L46459 29284
L46609 29284
L46646 29303
L46665 29321
L46684 29359
L46684 29415
L46665 29453
L46646 29471
L46609 29490
L46459 29490
" />
<path d="M47059 29678
L46834 29678
" />
<path d="M46946 29678
L46946 29284
L46909 29340
L46871 29378
L46834 29396
" />
<path d="M46434 43498
L46303 43311
" />
<path d="M46209 43498
L46209 43105
L46359 43105
L46396 43124
L46415 43142
L46434 43180
L46434 43236
L46415 43273
L46396 43292
L46359 43311
L46209 43311
" />
<path d="M46809 43498
L46584 43498
" />
<path d="M46696 43498
L46696 43105
L46659 43161
L46621 43199
L46584 43217
" />
<path d="M57934 44178
L57803 43990
" />
<path d="M57709 44178
L57709 43784
L57859 43784
L57896 43803
L57915 43821
L57934 43859
L57934 43915
L57915 43953
L57896 43971
L57859 43990
L57709 43990
" />
<path d="M58084 43821
L58103 43803
L58140 43784
L58234 43784
L58271 43803
L58290 43821
L58309 43859
L58309 43896
L58290 43953
L58065 44178
L58309 44178
" />
<path d="M57934 47678
L57803 47490
" />
<path d="M57709 47678
L57709 47284
L57859 47284
L57896 47303
L57915 47321
L57934 47359
L57934 47415
L57915 47453
L57896 47471
L57859 47490
L57709 47490
" />
<path d="M58065 47284
L58309 47284
L58178 47434
L58234 47434
L58271 47453
L58290 47471
L58309 47509
L58309 47603
L58290 47640
L58271 47659
L58234 47678
L58121 47678
L58084 47659
L58065 47640
" />
<path d="M51934 44178
L51803 43990
" />
<path d="M51709 44178
L51709 43784
L51859 43784
L51896 43803
L51915 43821
L51934 43859
L51934 43915
L51915 43953
L51896 43971
L51859 43990
L51709 43990
" />
<path d="M52271 43915
L52271 44178
" />
<path d="M52178 43765
L52084 44046
L52328 44046
" />
<path d="M51934 47678
L51803 47490
" />
<path d="M51709 47678
L51709 47284
L51859 47284
L51896 47303
L51915 47321
L51934 47359
L51934 47415
L51915 47453
L51896 47471
L51859 47490
L51709 47490
" />
<path d="M52290 47284
L52103 47284
L52084 47471
L52103 47453
L52140 47434
L52234 47434
L52271 47453
L52290 47471
L52309 47509
L52309 47603
L52290 47640
L52271 47659
L52234 47678
L52140 47678
L52103 47659
L52084 47640
" />
<path d="M45975 35312
L46031 35331
L46125 35331
L46162 35312
L46181 35294
L46200 35256
L46200 35219
L46181 35181
L46162 35162
L46125 35144
L46050 35125
L46012 35106
L45993 35087
L45975 35050
L45975 35012
L45993 34975
L46012 34956
L46050 34937
L46143 34937
L46200 34956
" />
<path d="M46331 34937
L46425 35331
L46500 35050
L46574 35331
L46668 34937
" />
<path d="M47024 35331
L46799 35331
" />
<path d="M46912 35331
L46912 34937
L46874 34994
L46837 35031
L46799 35050
" />
<path d="M50700 31284
L50700 31603
L50718 31640
L50737 31659
L50775 31678
L50850 31678
L50887 31659
L50906 31640
L50925 31603
L50925 31284
" />
<path d="M51318 31678
L51093 31678
" />
<path d="M51206 31678
L51206 31284
L51168 31340
L51131 31378
L51093 31396
" />
<path d="M62200 31284
L62200 31603
L62218 31640
L62237 31659
L62275 31678
L62350 31678
L62387 31659
L62406 31640
L62425 31603
L62425 31284
" />
<path d="M62593 31321
L62612 31303
L62649 31284
L62743 31284
L62781 31303
L62799 31321
L62818 31359
L62818 31396
L62799 31453
L62574 31678
L62818 31678
" />
<path d="M62200 41784
L62200 42103
L62218 42140
L62237 42159
L62275 42178
L62350 42178
L62387 42159
L62406 42140
L62425 42103
L62425 41784
" />
<path d="M62574 41784
L62818 41784
L62687 41934
L62743 41934
L62781 41953
L62799 41971
L62818 42009
L62818 42103
L62799 42140
L62781 42159
L62743 42178
L62631 42178
L62593 42159
L62574 42140
" />
<path d="M49684 35140
L49665 35159
L49609 35178
L49571 35178
L49515 35159
L49478 35121
L49459 35084
L49440 35009
L49440 34953
L49459 34878
L49478 34840
L49515 34803
L49571 34784
L49609 34784
L49665 34803
L49684 34821
" />
<path d="M50059 35178
L49834 35178
" />
<path d="M49946 35178
L49946 34784
L49909 34840
L49871 34878
L49834 34896
" />
<path d="M61184 45890
L61165 45909
L61109 45928
L61071 45928
L61015 45909
L60978 45871
L60959 45834
L60940 45759
L60940 45703
L60959 45628
L60978 45590
L61015 45553
L61071 45534
L61109 45534
L61165 45553
L61184 45571
" />
<path d="M61315 45534
L61559 45534
L61428 45684
L61484 45684
L61521 45703
L61540 45721
L61559 45759
L61559 45853
L61540 45890
L61521 45909
L61484 45928
L61371 45928
L61334 45909
L61315 45890
" />
<path d="M69159 28928
L69159 28534
L69309 28534
L69346 28553
L69365 28571
L69384 28609
L69384 28665
L69365 28703
L69346 28721
L69309 28740
L69159 28740
" />
<path d="M69721 28928
L69721 28721
L69703 28684
L69665 28665
L69590 28665
L69553 28684
" />
<path d="M69721 28909
L69684 28928
L69590 28928
L69553 28909
L69534 28871
L69534 28834
L69553 28796
L69590 28778
L69684 28778
L69721 28759
" />
<path d="M69909 28928
L69909 28665
" />
<path d="M69909 28740
L69928 28703
L69946 28684
L69984 28665
L70021 28665
" />
<path d="M70134 28571
L70153 28553
L70190 28534
L70284 28534
L70321 28553
L70340 28571
L70359 28609
L70359 28646
L70340 28703
L70115 28928
L70359 28928
" />
</g> 
</svg>
