<?xml version="1.0" standalone="no"?>
 <!DOCTYPE svg PUBLIC "-//W3C//DTD SVG 1.1//EN" 
 "http://www.w3.org/Graphics/SVG/1.1/DTD/svg11.dtd"> 
<svg xmlns="http://www.w3.org/2000/svg" version="1.1" 
    width="29.7002cm" height="21.0007cm" viewBox="0 0 116930 82680 ">
<title>SVG Picture created as circuito-01-com-defeito-trilhas-0.5mm-B.Cu.svg date 2019/11/21 19:06:05 </title>
  <desc>Picture generated by PCBNEW </desc>
<g style="fill:#000000; fill-opacity:1;stroke:#000000; stroke-opacity:1;
stroke-linecap:round; stroke-linejoin:round; "
 transform="translate(0 0) scale(1 1)">
</g>
<g style="fill:#000000; fill-opacity:0.0; 
stroke:#000000; stroke-width:-0.000393701; stroke-opacity:1; 
stroke-linecap:round; stroke-linejoin:round;">
</g>
<g style="fill:#000000; fill-opacity:0.0; 
stroke:#000000; stroke-width:78.7402; stroke-opacity:1; 
stroke-linecap:round; stroke-linejoin:round;">
<path d="M47315 29678
L47446 29490
" />
<path d="M47540 29678
L47540 29284
L47390 29284
L47353 29303
L47334 29321
L47315 29359
L47315 29415
L47334 29453
L47353 29471
L47390 29490
L47540 29490
" />
<path d="M46996 29659
L47034 29678
L47109 29678
L47146 29659
L47165 29621
L47165 29471
L47146 29434
L47109 29415
L47034 29415
L46996 29434
L46978 29471
L46978 29509
L47165 29546
" />
<path d="M46846 29415
L46753 29678
L46659 29415
" />
<path d="M46509 29640
L46490 29659
L46509 29678
L46528 29659
L46509 29640
L46509 29678
" />
<path d="M45946 29284
L45909 29284
L45871 29303
L45853 29321
L45834 29359
L45815 29434
L45815 29528
L45834 29603
L45853 29640
L45871 29659
L45909 29678
L45946 29678
L45984 29659
L46003 29640
L46021 29603
L46040 29528
L46040 29434
L46021 29359
L46003 29321
L45984 29303
L45946 29284
" />
<path d="M45684 29284
L45440 29284
L45571 29434
L45515 29434
L45478 29453
L45459 29471
L45440 29509
L45440 29603
L45459 29640
L45478 29659
L45515 29678
L45628 29678
L45665 29659
L45684 29640
" />
<path d="M47474 28471
L47343 28471
" />
<path d="M47287 28678
L47474 28678
L47474 28284
L47287 28284
" />
<path d="M47174 28284
L46949 28284
" />
<path d="M47062 28678
L47062 28284
" />
<path d="M46818 28471
L46687 28471
" />
<path d="M46631 28678
L46818 28678
L46818 28284
L46631 28284
" />
<path d="M46256 28678
L46481 28678
" />
<path d="M46368 28678
L46368 28284
L46406 28340
L46443 28378
L46481 28396
" />
<path d="M46012 28284
L45975 28284
L45937 28303
L45918 28321
L45900 28359
L45881 28434
L45881 28528
L45900 28603
L45918 28640
L45937 28659
L45975 28678
L46012 28678
L46050 28659
L46068 28640
L46087 28603
L46106 28528
L46106 28434
L46087 28359
L46068 28321
L46050 28303
L46012 28284
" />
<path d="M45731 28321
L45712 28303
L45675 28284
L45581 28284
L45543 28303
L45525 28321
L45506 28359
L45506 28396
L45525 28453
L45750 28678
L45506 28678
" />
</g>
<g style="fill:#000000; fill-opacity:1.0; 
stroke:#000000; stroke-width:0; stroke-opacity:1; 
stroke-linecap:round; stroke-linejoin:round;">
<circle cx="43750" cy="28750" r="748.031" /> 
</g>
<g style="fill:#000000; fill-opacity:1.0; 
stroke:#000000; stroke-width:39.3701; stroke-opacity:1; 
stroke-linecap:round; stroke-linejoin:round;">
</g>
<g style="fill:#000000; fill-opacity:1.0; 
stroke:#000000; stroke-width:0; stroke-opacity:1; 
stroke-linecap:round; stroke-linejoin:round;">
<circle cx="43750" cy="47750" r="748.031" /> 
</g>
<g style="fill:#000000; fill-opacity:1.0; 
stroke:#000000; stroke-width:39.3701; stroke-opacity:1; 
stroke-linecap:round; stroke-linejoin:round;">
</g>
<g style="fill:#000000; fill-opacity:1.0; 
stroke:#000000; stroke-width:0; stroke-opacity:1; 
stroke-linecap:round; stroke-linejoin:round;">
<circle cx="71250" cy="47750" r="748.031" /> 
</g>
<g style="fill:#000000; fill-opacity:1.0; 
stroke:#000000; stroke-width:39.3701; stroke-opacity:1; 
stroke-linecap:round; stroke-linejoin:round;">
</g>
<g style="fill:#000000; fill-opacity:1.0; 
stroke:#000000; stroke-width:0; stroke-opacity:1; 
stroke-linecap:round; stroke-linejoin:round;">
<polyline style="fill-rule:evenodd;"
points="47393,45159
47393,46340
46606,46340
46606,45159
47393,45159
" /> 
</g>
<g style="fill:#000000; fill-opacity:1.0; 
stroke:#000000; stroke-width:787.402; stroke-opacity:1; 
stroke-linecap:round; stroke-linejoin:round;">
</g>
<g style="fill:#000000; fill-opacity:0.0; 
stroke:#000000; stroke-width:787.402; stroke-opacity:1; 
stroke-linecap:round; stroke-linejoin:round;">
<path d="M46000 45946
L46000 45553
" />
<path d="M51803 42750
L52196 42750
" />
<path d="M51803 41750
L52196 41750
" />
<path d="M51803 40750
L52196 40750
" />
<path d="M51803 39750
L52196 39750
" />
</g>
<g style="fill:#000000; fill-opacity:0.0; 
stroke:#000000; stroke-width:0; stroke-opacity:1; 
stroke-linecap:round; stroke-linejoin:round;">
</g>
<g style="fill:#000000; fill-opacity:1.0; 
stroke:#000000; stroke-width:0; stroke-opacity:1; 
stroke-linecap:round; stroke-linejoin:round;">
<polyline style="fill-rule:evenodd;"
points="51409,39143
51409,38356
52590,38356
52590,39143
51409,39143
" /> 
</g>
<g style="fill:#000000; fill-opacity:1.0; 
stroke:#000000; stroke-width:787.402; stroke-opacity:1; 
stroke-linecap:round; stroke-linejoin:round;">
</g>
<g style="fill:#000000; fill-opacity:0.0; 
stroke:#000000; stroke-width:787.402; stroke-opacity:1; 
stroke-linecap:round; stroke-linejoin:round;">
<path d="M57803 42750
L58196 42750
" />
<path d="M57803 41750
L58196 41750
" />
<path d="M57803 40750
L58196 40750
" />
<path d="M57803 39750
L58196 39750
" />
</g>
<g style="fill:#000000; fill-opacity:0.0; 
stroke:#000000; stroke-width:0; stroke-opacity:1; 
stroke-linecap:round; stroke-linejoin:round;">
</g>
<g style="fill:#000000; fill-opacity:1.0; 
stroke:#000000; stroke-width:0; stroke-opacity:1; 
stroke-linecap:round; stroke-linejoin:round;">
<polyline style="fill-rule:evenodd;"
points="57409,39143
57409,38356
58590,38356
58590,39143
57409,39143
" /> 
</g>
<g style="fill:#000000; fill-opacity:1.0; 
stroke:#000000; stroke-width:787.402; stroke-opacity:1; 
stroke-linecap:round; stroke-linejoin:round;">
</g>
<g style="fill:#000000; fill-opacity:0.0; 
stroke:#000000; stroke-width:787.402; stroke-opacity:1; 
stroke-linecap:round; stroke-linejoin:round;">
<path d="M62000 34303
L62000 34696
" />
<path d="M62000 32334
L62000 32728
" />
<path d="M58000 36696
L58000 36303
" />
<path d="M57000 36696
L57000 36303
" />
<path d="M56000 36696
L56000 36303
" />
<path d="M55000 36696
L55000 36303
" />
<path d="M54000 36696
L54000 36303
" />
<path d="M53000 36696
L53000 36303
" />
</g>
<g style="fill:#000000; fill-opacity:0.0; 
stroke:#000000; stroke-width:0; stroke-opacity:1; 
stroke-linecap:round; stroke-linejoin:round;">
</g>
<g style="fill:#000000; fill-opacity:1.0; 
stroke:#000000; stroke-width:0; stroke-opacity:1; 
stroke-linecap:round; stroke-linejoin:round;">
<polyline style="fill-rule:evenodd;"
points="52393,37090
51606,37090
51606,35909
52393,35909
52393,37090
" /> 
<polyline style="fill-rule:evenodd;"
points="57606,29909
58393,29909
58393,31090
57606,31090
57606,29909
" /> 
</g>
<g style="fill:#000000; fill-opacity:1.0; 
stroke:#000000; stroke-width:787.402; stroke-opacity:1; 
stroke-linecap:round; stroke-linejoin:round;">
</g>
<g style="fill:#000000; fill-opacity:0.0; 
stroke:#000000; stroke-width:787.402; stroke-opacity:1; 
stroke-linecap:round; stroke-linejoin:round;">
<path d="M57000 30303
L57000 30696
" />
<path d="M56000 30303
L56000 30696
" />
<path d="M55000 30303
L55000 30696
" />
<path d="M54000 30303
L54000 30696
" />
<path d="M53000 30303
L53000 30696
" />
<path d="M52000 30303
L52000 30696
" />
<path d="M69500 36696
L69500 36303
" />
<path d="M68500 36696
L68500 36303
" />
<path d="M67500 36696
L67500 36303
" />
<path d="M66500 36696
L66500 36303
" />
<path d="M65500 36696
L65500 36303
" />
<path d="M64500 36696
L64500 36303
" />
</g>
<g style="fill:#000000; fill-opacity:0.0; 
stroke:#000000; stroke-width:0; stroke-opacity:1; 
stroke-linecap:round; stroke-linejoin:round;">
</g>
<g style="fill:#000000; fill-opacity:1.0; 
stroke:#000000; stroke-width:0; stroke-opacity:1; 
stroke-linecap:round; stroke-linejoin:round;">
<polyline style="fill-rule:evenodd;"
points="63893,37090
63106,37090
63106,35909
63893,35909
63893,37090
" /> 
<polyline style="fill-rule:evenodd;"
points="69106,29909
69893,29909
69893,31090
69106,31090
69106,29909
" /> 
</g>
<g style="fill:#000000; fill-opacity:1.0; 
stroke:#000000; stroke-width:787.402; stroke-opacity:1; 
stroke-linecap:round; stroke-linejoin:round;">
</g>
<g style="fill:#000000; fill-opacity:0.0; 
stroke:#000000; stroke-width:787.402; stroke-opacity:1; 
stroke-linecap:round; stroke-linejoin:round;">
<path d="M68500 30303
L68500 30696
" />
<path d="M67500 30303
L67500 30696
" />
<path d="M66500 30303
L66500 30696
" />
<path d="M65500 30303
L65500 30696
" />
<path d="M64500 30303
L64500 30696
" />
<path d="M63500 30303
L63500 30696
" />
<path d="M69500 47196
L69500 46803
" />
<path d="M68500 47196
L68500 46803
" />
<path d="M67500 47196
L67500 46803
" />
<path d="M66500 47196
L66500 46803
" />
<path d="M65500 47196
L65500 46803
" />
<path d="M64500 47196
L64500 46803
" />
</g>
<g style="fill:#000000; fill-opacity:0.0; 
stroke:#000000; stroke-width:0; stroke-opacity:1; 
stroke-linecap:round; stroke-linejoin:round;">
</g>
<g style="fill:#000000; fill-opacity:1.0; 
stroke:#000000; stroke-width:0; stroke-opacity:1; 
stroke-linecap:round; stroke-linejoin:round;">
<polyline style="fill-rule:evenodd;"
points="63893,47590
63106,47590
63106,46409
63893,46409
63893,47590
" /> 
<polyline style="fill-rule:evenodd;"
points="69106,40409
69893,40409
69893,41590
69106,41590
69106,40409
" /> 
</g>
<g style="fill:#000000; fill-opacity:1.0; 
stroke:#000000; stroke-width:787.402; stroke-opacity:1; 
stroke-linecap:round; stroke-linejoin:round;">
</g>
<g style="fill:#000000; fill-opacity:0.0; 
stroke:#000000; stroke-width:787.402; stroke-opacity:1; 
stroke-linecap:round; stroke-linejoin:round;">
<path d="M68500 40803
L68500 41196
" />
<path d="M67500 40803
L67500 41196
" />
<path d="M66500 40803
L66500 41196
" />
<path d="M65500 40803
L65500 41196
" />
<path d="M64500 40803
L64500 41196
" />
<path d="M63500 40803
L63500 41196
" />
</g>
<g style="fill:#000000; fill-opacity:0.0; 
stroke:#000000; stroke-width:0; stroke-opacity:1; 
stroke-linecap:round; stroke-linejoin:round;">
</g>
<g style="fill:#000000; fill-opacity:1.0; 
stroke:#000000; stroke-width:0; stroke-opacity:1; 
stroke-linecap:round; stroke-linejoin:round;">
<polyline style="fill-rule:evenodd;"
points="47090,33590
45909,33590
45909,32409
47090,32409
47090,33590
" /> 
<circle cx="46500" cy="31031.5" r="590.551" /> 
</g>
<g style="fill:#000000; fill-opacity:1.0; 
stroke:#000000; stroke-width:39.3701; stroke-opacity:1; 
stroke-linecap:round; stroke-linejoin:round;">
</g>
<g style="fill:#000000; fill-opacity:1.0; 
stroke:#000000; stroke-width:787.402; stroke-opacity:1; 
stroke-linecap:round; stroke-linejoin:round;">
</g>
<g style="fill:#000000; fill-opacity:0.0; 
stroke:#000000; stroke-width:787.402; stroke-opacity:1; 
stroke-linecap:round; stroke-linejoin:round;">
<path d="M48696 42387
L48303 42387
" />
<path d="M44696 42387
L44303 42387
" />
<path d="M56196 45000
L55803 45000
" />
<path d="M60196 45000
L59803 45000
" />
<path d="M60196 46500
L59803 46500
" />
<path d="M56196 46500
L55803 46500
" />
<path d="M53803 45000
L54196 45000
" />
<path d="M49803 45000
L50196 45000
" />
<path d="M49803 46500
L50196 46500
" />
<path d="M53803 46500
L54196 46500
" />
</g>
<g style="fill:#000000; fill-opacity:0.0; 
stroke:#000000; stroke-width:0; stroke-opacity:1; 
stroke-linecap:round; stroke-linejoin:round;">
</g>
<g style="fill:#000000; fill-opacity:1.0; 
stroke:#000000; stroke-width:0; stroke-opacity:1; 
stroke-linecap:round; stroke-linejoin:round;">
<polyline style="fill-rule:evenodd;"
points="44409,36893
44409,36106
45590,36106
45590,36893
44409,36893
" /> 
</g>
<g style="fill:#000000; fill-opacity:1.0; 
stroke:#000000; stroke-width:787.402; stroke-opacity:1; 
stroke-linecap:round; stroke-linejoin:round;">
</g>
<g style="fill:#000000; fill-opacity:0.0; 
stroke:#000000; stroke-width:787.402; stroke-opacity:1; 
stroke-linecap:round; stroke-linejoin:round;">
<path d="M47803 39500
L48196 39500
" />
<path d="M44803 37500
L45196 37500
" />
<path d="M47803 38500
L48196 38500
" />
<path d="M44803 38500
L45196 38500
" />
<path d="M47803 37500
L48196 37500
" />
<path d="M44803 39500
L45196 39500
" />
<path d="M47803 36500
L48196 36500
" />
</g>
<g style="fill:#000000; fill-opacity:0.0; 
stroke:#000000; stroke-width:0; stroke-opacity:1; 
stroke-linecap:round; stroke-linejoin:round;">
</g>
<g style="fill:#000000; fill-opacity:1.0; 
stroke:#000000; stroke-width:0; stroke-opacity:1; 
stroke-linecap:round; stroke-linejoin:round;">
<polyline style="fill-rule:evenodd;"
points="52393,35590
51606,35590
51606,34409
52393,34409
52393,35590
" /> 
</g>
<g style="fill:#000000; fill-opacity:1.0; 
stroke:#000000; stroke-width:787.402; stroke-opacity:1; 
stroke-linecap:round; stroke-linejoin:round;">
</g>
<g style="fill:#000000; fill-opacity:0.0; 
stroke:#000000; stroke-width:787.402; stroke-opacity:1; 
stroke-linecap:round; stroke-linejoin:round;">
<path d="M58000 32196
L58000 31803
" />
<path d="M53000 35196
L53000 34803
" />
<path d="M57000 32196
L57000 31803
" />
<path d="M54000 35196
L54000 34803
" />
<path d="M56000 32196
L56000 31803
" />
<path d="M55000 35196
L55000 34803
" />
<path d="M55000 32196
L55000 31803
" />
<path d="M56000 35196
L56000 34803
" />
<path d="M54000 32196
L54000 31803
" />
<path d="M57000 35196
L57000 34803
" />
<path d="M53000 32196
L53000 31803
" />
<path d="M58000 35196
L58000 34803
" />
<path d="M52000 32196
L52000 31803
" />
</g>
<g style="fill:#000000; fill-opacity:0.0; 
stroke:#000000; stroke-width:0; stroke-opacity:1; 
stroke-linecap:round; stroke-linejoin:round;">
</g>
<g style="fill:#000000; fill-opacity:1.0; 
stroke:#000000; stroke-width:0; stroke-opacity:1; 
stroke-linecap:round; stroke-linejoin:round;">
<polyline style="fill-rule:evenodd;"
points="63893,35590
63106,35590
63106,34409
63893,34409
63893,35590
" /> 
</g>
<g style="fill:#000000; fill-opacity:1.0; 
stroke:#000000; stroke-width:787.402; stroke-opacity:1; 
stroke-linecap:round; stroke-linejoin:round;">
</g>
<g style="fill:#000000; fill-opacity:0.0; 
stroke:#000000; stroke-width:787.402; stroke-opacity:1; 
stroke-linecap:round; stroke-linejoin:round;">
<path d="M69500 32196
L69500 31803
" />
<path d="M64500 35196
L64500 34803
" />
<path d="M68500 32196
L68500 31803
" />
<path d="M65500 35196
L65500 34803
" />
<path d="M67500 32196
L67500 31803
" />
<path d="M66500 35196
L66500 34803
" />
<path d="M66500 32196
L66500 31803
" />
<path d="M67500 35196
L67500 34803
" />
<path d="M65500 32196
L65500 31803
" />
<path d="M68500 35196
L68500 34803
" />
<path d="M64500 32196
L64500 31803
" />
<path d="M69500 35196
L69500 34803
" />
<path d="M63500 32196
L63500 31803
" />
<path d="M63500 42696
L63500 42303
" />
<path d="M69500 45696
L69500 45303
" />
<path d="M64500 42696
L64500 42303
" />
<path d="M68500 45696
L68500 45303
" />
<path d="M65500 42696
L65500 42303
" />
<path d="M67500 45696
L67500 45303
" />
<path d="M66500 42696
L66500 42303
" />
<path d="M66500 45696
L66500 45303
" />
<path d="M67500 42696
L67500 42303
" />
<path d="M65500 45696
L65500 45303
" />
<path d="M68500 42696
L68500 42303
" />
<path d="M64500 45696
L64500 45303
" />
<path d="M69500 42696
L69500 42303
" />
</g>
<g style="fill:#000000; fill-opacity:0.0; 
stroke:#000000; stroke-width:0; stroke-opacity:1; 
stroke-linecap:round; stroke-linejoin:round;">
</g>
<g style="fill:#000000; fill-opacity:1.0; 
stroke:#000000; stroke-width:0; stroke-opacity:1; 
stroke-linecap:round; stroke-linejoin:round;">
<polyline style="fill-rule:evenodd;"
points="63893,46090
63106,46090
63106,44909
63893,44909
63893,46090
" /> 
</g>
<g style="fill:#000000; fill-opacity:1.0; 
stroke:#000000; stroke-width:787.402; stroke-opacity:1; 
stroke-linecap:round; stroke-linejoin:round;">
</g>
<g style="fill:#000000; fill-opacity:0.0; 
stroke:#000000; stroke-width:787.402; stroke-opacity:1; 
stroke-linecap:round; stroke-linejoin:round;">
<path d="M50500 32334
L50500 32728
" />
<path d="M50500 34303
L50500 34696
" />
<path d="M62000 42803
L62000 43196
" />
<path d="M62000 44771
L62000 45165
" />
</g>
<g style="fill:#000000; fill-opacity:1.0; 
stroke:#000000; stroke-width:0; stroke-opacity:1; 
stroke-linecap:round; stroke-linejoin:round;">
<circle cx="71250" cy="28750" r="748.031" /> 
</g>
<g style="fill:#000000; fill-opacity:1.0; 
stroke:#000000; stroke-width:39.3701; stroke-opacity:1; 
stroke-linecap:round; stroke-linejoin:round;">
</g>
<g style="fill:#000000; fill-opacity:1.0; 
stroke:#000000; stroke-width:0; stroke-opacity:1; 
stroke-linecap:round; stroke-linejoin:round;">
<circle cx="70500" cy="33750" r="393.701" /> 
</g>
<g style="fill:#000000; fill-opacity:1.0; 
stroke:#000000; stroke-width:39.3701; stroke-opacity:1; 
stroke-linecap:round; stroke-linejoin:round;">
</g>
<g style="fill:#000000; fill-opacity:1.0; 
stroke:#000000; stroke-width:0; stroke-opacity:1; 
stroke-linecap:round; stroke-linejoin:round;">
<circle cx="70500" cy="38000" r="393.701" /> 
</g>
<g style="fill:#000000; fill-opacity:1.0; 
stroke:#000000; stroke-width:39.3701; stroke-opacity:1; 
stroke-linecap:round; stroke-linejoin:round;">
</g>
<g style="fill:#000000; fill-opacity:1.0; 
stroke:#000000; stroke-width:0; stroke-opacity:1; 
stroke-linecap:round; stroke-linejoin:round;">
<circle cx="71250" cy="39000" r="393.701" /> 
</g>
<g style="fill:#000000; fill-opacity:1.0; 
stroke:#000000; stroke-width:39.3701; stroke-opacity:1; 
stroke-linecap:round; stroke-linejoin:round;">
</g>
<g style="fill:#000000; fill-opacity:1.0; 
stroke:#000000; stroke-width:0; stroke-opacity:1; 
stroke-linecap:round; stroke-linejoin:round;">
<circle cx="71250" cy="35500" r="393.701" /> 
</g>
<g style="fill:#000000; fill-opacity:1.0; 
stroke:#000000; stroke-width:39.3701; stroke-opacity:1; 
stroke-linecap:round; stroke-linejoin:round;">
</g>
<g style="fill:#000000; fill-opacity:1.0; 
stroke:#000000; stroke-width:0; stroke-opacity:1; 
stroke-linecap:round; stroke-linejoin:round;">
<circle cx="49500" cy="30000" r="393.701" /> 
</g>
<g style="fill:#000000; fill-opacity:1.0; 
stroke:#000000; stroke-width:39.3701; stroke-opacity:1; 
stroke-linecap:round; stroke-linejoin:round;">
</g>
<g style="fill:#000000; fill-opacity:1.0; 
stroke:#000000; stroke-width:0; stroke-opacity:1; 
stroke-linecap:round; stroke-linejoin:round;">
<circle cx="49500" cy="34000" r="393.701" /> 
</g>
<g style="fill:#000000; fill-opacity:1.0; 
stroke:#000000; stroke-width:39.3701; stroke-opacity:1; 
stroke-linecap:round; stroke-linejoin:round;">
</g>
<g style="fill:#000000; fill-opacity:1.0; 
stroke:#000000; stroke-width:0; stroke-opacity:1; 
stroke-linecap:round; stroke-linejoin:round;">
<circle cx="60000" cy="34500" r="393.701" /> 
</g>
<g style="fill:#000000; fill-opacity:1.0; 
stroke:#000000; stroke-width:39.3701; stroke-opacity:1; 
stroke-linecap:round; stroke-linejoin:round;">
</g>
<g style="fill:#000000; fill-opacity:1.0; 
stroke:#000000; stroke-width:0; stroke-opacity:1; 
stroke-linecap:round; stroke-linejoin:round;">
<circle cx="60000" cy="30500" r="393.701" /> 
</g>
<g style="fill:#000000; fill-opacity:1.0; 
stroke:#000000; stroke-width:39.3701; stroke-opacity:1; 
stroke-linecap:round; stroke-linejoin:round;">
</g>
<g style="fill:#000000; fill-opacity:1.0; 
stroke:#000000; stroke-width:0; stroke-opacity:1; 
stroke-linecap:round; stroke-linejoin:round;">
<circle cx="60000" cy="29250" r="393.701" /> 
</g>
<g style="fill:#000000; fill-opacity:1.0; 
stroke:#000000; stroke-width:39.3701; stroke-opacity:1; 
stroke-linecap:round; stroke-linejoin:round;">
</g>
<g style="fill:#000000; fill-opacity:1.0; 
stroke:#000000; stroke-width:0; stroke-opacity:1; 
stroke-linecap:round; stroke-linejoin:round;">
<circle cx="56000" cy="29250" r="393.701" /> 
</g>
<g style="fill:#000000; fill-opacity:1.0; 
stroke:#000000; stroke-width:39.3701; stroke-opacity:1; 
stroke-linecap:round; stroke-linejoin:round;">
</g>
<g style="fill:#000000; fill-opacity:1.0; 
stroke:#000000; stroke-width:0; stroke-opacity:1; 
stroke-linecap:round; stroke-linejoin:round;">
<circle cx="60750" cy="38000" r="393.701" /> 
</g>
<g style="fill:#000000; fill-opacity:1.0; 
stroke:#000000; stroke-width:39.3701; stroke-opacity:1; 
stroke-linecap:round; stroke-linejoin:round;">
</g>
<g style="fill:#000000; fill-opacity:1.0; 
stroke:#000000; stroke-width:0; stroke-opacity:1; 
stroke-linecap:round; stroke-linejoin:round;">
<circle cx="65500" cy="38000" r="393.701" /> 
</g>
<g style="fill:#000000; fill-opacity:1.0; 
stroke:#000000; stroke-width:39.3701; stroke-opacity:1; 
stroke-linecap:round; stroke-linejoin:round;">
</g>
<g style="fill:#000000; fill-opacity:1.0; 
stroke:#000000; stroke-width:0; stroke-opacity:1; 
stroke-linecap:round; stroke-linejoin:round;">
<circle cx="62000" cy="39850" r="393.701" /> 
</g>
<g style="fill:#000000; fill-opacity:1.0; 
stroke:#000000; stroke-width:39.3701; stroke-opacity:1; 
stroke-linecap:round; stroke-linejoin:round;">
</g>
<g style="fill:#000000; fill-opacity:1.0; 
stroke:#000000; stroke-width:0; stroke-opacity:1; 
stroke-linecap:round; stroke-linejoin:round;">
<circle cx="69500" cy="39850" r="393.701" /> 
</g>
<g style="fill:#000000; fill-opacity:1.0; 
stroke:#000000; stroke-width:39.3701; stroke-opacity:1; 
stroke-linecap:round; stroke-linejoin:round;">
</g>
<g style="fill:#000000; fill-opacity:1.0; 
stroke:#000000; stroke-width:196.85; stroke-opacity:1; 
stroke-linecap:round; stroke-linejoin:round;">
</g>
<g style="fill:#000000; fill-opacity:0.0; 
stroke:#000000; stroke-width:196.85; stroke-opacity:1; 
stroke-linecap:round; stroke-linejoin:round;">
<path d="M45000 45750
L46000 45750
" />
<path d="M44500 42387
L44500 45250
" />
<path d="M44500 45250
L45000 45750
" />
<path d="M51468 32531
L52000 32000
" />
<path d="M50500 32531
L51468 32531
" />
<path d="M52000 32000
L52000 30500
" />
<path d="M63500 32000
L63500 30500
" />
<path d="M62000 43000
L63000 43000
" />
<path d="M50500 32334
L50500 32531
" />
<path d="M49196 31031
L50500 32334
" />
<path d="M49196 31031
L46000 31031
" />
<path d="M60000 46500
L60000 45000
" />
<path d="M50000 45000
L50000 46500
" />
<path d="M50000 46500
L50000 47090
" />
<path d="M50000 46090
L50000 47500
" />
<path d="M50000 47500
L49500 48000
" />
<path d="M60500 43000
L62000 43000
" />
<path d="M60000 45000
L60000 43500
" />
<path d="M60000 43500
L60500 43000
" />
<path d="M61409 32531
L62000 32531
" />
<path d="M61051 32888
L61409 32531
" />
<path d="M52692 32888
L61051 32888
" />
<path d="M52000 32196
L52692 32888
" />
<path d="M52000 32000
L52000 32196
" />
<path d="M62968 32531
L63500 32000
" />
<path d="M62000 32531
L62968 32531
" />
<path d="M59000 46500
L60000 46500
" />
<path d="M57500 48000
L59000 46500
" />
<path d="M46250 48000
L57500 48000
" />
<path d="M45664 31031
L43611 33085
" />
<path d="M46500 31031
L45664 31031
" />
<path d="M43611 33085
L43611 44922
" />
<path d="M43611 44922
L45750 47061
" />
<path d="M45750 47061
L45750 47500
" />
<path d="M45750 47500
L46250 48000
" />
<path d="M63000 43000
L63500 42500
" />
<path d="M63500 42500
L63500 41000
" />
<path d="M63500 35000
L63500 36500
" />
<path d="M52000 36500
L52000 35000
" />
<path d="M48000 36500
L52000 36500
" />
<path d="M52000 38750
L52000 36500
" />
<path d="M57803 38750
L58000 38750
" />
<path d="M56000 40553
L57803 38750
" />
<path d="M56000 45000
L56000 40553
" />
<path d="M63500 36696
L63500 36500
" />
<path d="M61446 38750
L63500 36696
" />
<path d="M58000 38750
L61446 38750
" />
<path d="M58000 30500
L58000 32000
" />
<path d="M64500 32000
L64500 30500
" />
<path d="M66500 36500
L66500 35000
" />
<path d="M64500 32803
L64500 32000
" />
<path d="M66500 34803
L64500 32803
" />
<path d="M66500 35000
L66500 34803
" />
<path d="M60000 32000
L58000 32000
" />
<path d="M63000 29000
L60000 32000
" />
<path d="M64000 29000
L63000 29000
" />
<path d="M64500 30500
L64500 29500
" />
<path d="M64500 29500
L64000 29000
" />
<path d="M69500 30500
L69500 32000
" />
<path d="M70250 32000
L69500 32000
" />
<path d="M70500 33250
L70500 32250
" />
<path d="M70500 32250
L70250 32000
" />
<path d="M70500 33250
L70500 33750
" />
<path d="M68500 47000
L68500 45500
" />
<path d="M67500 45500
L67500 47000
" />
<path d="M66500 47000
L66500 45500
" />
<path d="M65500 45500
L65500 47000
" />
<path d="M66500 32000
L66500 30500
" />
<path d="M68500 42500
L68500 41000
" />
<path d="M66500 30303
L66500 30500
" />
<path d="M70192 29670
L70132 29611
" />
<path d="M70192 30000
L70192 29670
" />
<path d="M71250 31057
L70192 30000
" />
<path d="M71250 35500
L71250 31057
" />
<path d="M70132 29611
L67192 29611
" />
<path d="M67192 29611
L66500 30303
" />
<path d="M69000 39000
L71250 39000
" />
<path d="M68500 41000
L68500 39500
" />
<path d="M68500 39500
L69000 39000
" />
<path d="M67500 42500
L67500 41000
" />
<path d="M66500 42500
L66500 41000
" />
<path d="M65500 41000
L65500 42500
" />
<path d="M64500 42500
L64500 41000
" />
<path d="M53000 35000
L53000 36500
" />
<path d="M55000 36500
L55000 35000
" />
<path d="M53803 37500
L54000 37500
" />
<path d="M53000 36696
L53803 37500
" />
<path d="M53000 36500
L53000 36696
" />
<path d="M54175 37500
L54000 37500
" />
<path d="M54692 36983
L54175 37500
" />
<path d="M55000 36500
L54692 36807
" />
<path d="M54692 36807
L54692 36983
" />
<path d="M51212 39750
L52000 39750
" />
<path d="M50446 39750
L51212 39750
" />
<path d="M48196 37500
L50446 39750
" />
<path d="M48000 37500
L48196 37500
" />
<path d="M53750 39750
L54000 39500
" />
<path d="M52000 39750
L53750 39750
" />
<path d="M54000 37500
L54000 39500
" />
<path d="M54000 39500
L54000 45000
" />
<path d="M64500 36500
L64500 35000
" />
<path d="M51212 40750
L52000 40750
" />
<path d="M50446 40750
L51212 40750
" />
<path d="M48196 38500
L50446 40750
" />
<path d="M48000 38500
L48196 38500
" />
<path d="M58000 40750
L58196 40750
" />
<path d="M57803 40750
L58000 40750
" />
<path d="M57000 46500
L57750 45750
" />
<path d="M56000 46500
L57000 46500
" />
<path d="M57750 45750
L57750 44500
" />
<path d="M57750 44500
L57111 43861
" />
<path d="M57111 43861
L57111 41442
" />
<path d="M57111 41442
L57803 40750
" />
<path d="M64500 37287
L64500 36500
" />
<path d="M64398 37388
L64500 37287
" />
<path d="M63369 37388
L64398 37388
" />
<path d="M58000 40750
L60008 40750
" />
<path d="M60008 40750
L63369 37388
" />
<path d="M52787 42750
L52000 42750
" />
<path d="M53250 42287
L52787 42750
" />
<path d="M53250 41212
L53250 42287
" />
<path d="M52787 40750
L53250 41212
" />
<path d="M52000 40750
L52787 40750
" />
<path d="M56000 35000
L56000 36500
" />
<path d="M53803 46500
L54000 46500
" />
<path d="M47803 39500
L48000 39500
" />
<path d="M47000 40303
L47803 39500
" />
<path d="M47000 42500
L47000 40303
" />
<path d="M53212 46500
L53000 46287
" />
<path d="M54000 46500
L53212 46500
" />
<path d="M53000 46287
L53000 44000
" />
<path d="M53000 44000
L52500 43500
" />
<path d="M52500 43500
L48000 43500
" />
<path d="M48000 43500
L47000 42500
" />
<path d="M54888 45807
L54888 38638
" />
<path d="M54000 46500
L54196 46500
" />
<path d="M54196 46500
L54888 45807
" />
<path d="M56000 37527
L56000 36500
" />
<path d="M54888 38638
L56000 37527
" />
<path d="M57000 32000
L57000 30500
" />
<path d="M65500 30500
L65500 32000
" />
<path d="M54000 36500
L54000 35000
" />
<path d="M65500 30324
L65500 30500
" />
<path d="M57000 30500
L57000 29712
" />
<path d="M49500 35000
L50000 35500
" />
<path d="M49500 34000
L49500 35000
" />
<path d="M51307 35081
L51307 34170
" />
<path d="M50888 35500
L51307 35081
" />
<path d="M50000 35500
L50888 35500
" />
<path d="M51307 34170
L51367 34111
" />
<path d="M51367 34111
L53307 34111
" />
<path d="M53307 34111
L54000 34803
" />
<path d="M54000 34803
L54000 35000
" />
<path d="M65500 30303
L65500 30500
" />
<path d="M56500 28500
L57000 29000
" />
<path d="M49500 30000
L51000 28500
" />
<path d="M51000 28500
L56500 28500
" />
<path d="M57000 30500
L57000 29000
" />
<path d="M65500 29000
L65500 30500
" />
<path d="M65000 28500
L65500 29000
" />
<path d="M57000 29000
L57500 28500
" />
<path d="M57500 28500
L65000 28500
" />
<path d="M56000 30500
L56000 32000
" />
<path d="M65500 35000
L65500 36500
" />
<path d="M60888 35388
L60000 34500
" />
<path d="M62286 35388
L60888 35388
" />
<path d="M65500 34803
L64807 34111
" />
<path d="M65500 35000
L65500 34803
" />
<path d="M64807 34111
L62867 34111
" />
<path d="M62867 34111
L62807 34170
" />
<path d="M62807 34170
L62807 34867
" />
<path d="M62807 34867
L62286 35388
" />
<path d="M56000 29250
L56000 30500
" />
<path d="M60000 30500
L60000 29250
" />
<path d="M55000 32000
L55000 30500
" />
<path d="M54000 30500
L54000 32000
" />
<path d="M57000 36500
L57000 35000
" />
<path d="M57000 36696
L57000 36500
" />
<path d="M67500 35000
L67500 36500
" />
<path d="M58303 38000
L60750 38000
" />
<path d="M57000 36696
L58303 38000
" />
<path d="M67500 36696
L67500 36500
" />
<path d="M66196 38000
L67500 36696
" />
<path d="M65500 38000
L66196 38000
" />
<path d="M53000 32000
L53000 30500
" />
<path d="M67500 30500
L67500 32000
" />
<path d="M68500 32000
L68500 30500
" />
<path d="M68500 32000
L67500 32000
" />
<path d="M68500 36500
L68500 35000
" />
<path d="M68500 32000
L68500 35000
" />
<path d="M64500 47000
L64500 45500
" />
<path d="M63500 45500
L63500 47000
" />
<path d="M51212 41750
L52000 41750
" />
<path d="M49925 41750
L51212 41750
" />
<path d="M49287 42387
L49925 41750
" />
<path d="M48500 42387
L49287 42387
" />
<path d="M69500 42500
L69500 41000
" />
<path d="M69500 41000
L69500 39750
" />
<path d="M60100 41750
L62000 39850
" />
<path d="M58000 41750
L60100 41750
" />
</g>
<g style="fill:#000000; fill-opacity:1.0; 
stroke:#000000; stroke-width:118.11; stroke-opacity:1; 
stroke-linecap:round; stroke-linejoin:round;">
<polyline style="fill-rule:evenodd;"
points="70679,27896
70396,28179
70242,28549
70242,28950
70396,29320
70679,29603
71049,29757
71450,29757
71820,29603
72103,29320
72221,29036
72221,47463
72103,47179
71820,46896
71450,46742
71049,46742
70679,46896
70396,47179
70242,47549
70242,47950
70396,48320
70679,48603
70963,48721
44036,48721
44320,48603
44603,48320
44757,47950
44757,47549
44603,47179
44320,46896
43950,46742
43549,46742
43179,46896
42896,47179
42778,47463
42778,33085
43246,33085
43253,33120
43253,44887
43246,44922
43274,45061
43333,45150
43353,45179
43383,45199
45392,47209
45392,47464
45385,47500
45413,47639
45445,47687
45492,47757
45522,47777
45972,48227
45992,48257
46110,48336
46214,48357
46214,48357
46249,48364
46285,48357
49464,48357
49500,48364
49535,48357
57464,48357
57500,48364
57535,48357
57639,48336
57757,48257
57777,48227
59148,46857
59256,46857
59332,46970
59548,47114
59738,47152
60261,47152
60451,47114
60667,46970
60811,46754
60862,46500
60811,46245
60667,46029
60451,45885
60357,45866
60357,45633
60451,45614
60667,45470
60811,45254
60860,45009
61347,45009
61347,45206
61412,45452
61567,45655
61788,45784
61857,45802
61959,45751
61959,45009
62040,45009
62040,45751
62142,45802
62211,45784
62432,45655
62587,45452
62652,45206
62652,45009
62040,45009
61959,45009
61347,45009
60860,45009
60862,45000
60811,44745
60801,44730
61347,44730
61347,44927
61959,44927
61959,44185
62040,44185
62040,44927
62652,44927
62652,44909
62842,44909
62842,46090
62862,46191
62901,46250
62862,46308
62842,46409
62842,47590
62862,47691
62919,47777
63005,47834
63106,47854
63893,47854
63994,47834
64080,47777
64115,47724
64245,47811
64500,47862
64754,47811
64970,47667
65000,47623
65029,47667
65245,47811
65500,47862
65754,47811
65970,47667
66000,47623
66029,47667
66245,47811
66500,47862
66754,47811
66970,47667
67000,47623
67029,47667
67245,47811
67500,47862
67754,47811
67970,47667
68000,47623
68029,47667
68245,47811
68500,47862
68754,47811
68970,47667
69008,47610
69067,47687
69288,47815
69357,47833
69459,47783
69459,47040
69540,47040
69540,47783
69642,47833
69711,47815
69932,47687
70087,47484
70152,47237
70152,47040
69540,47040
69459,47040
69451,47040
69451,46959
69459,46959
69459,45540
69540,45540
69540,46959
70152,46959
70152,46762
70087,46515
69932,46312
69824,46250
69932,46187
70087,45984
70152,45737
70152,45540
69540,45540
69459,45540
69451,45540
69451,45459
69459,45459
69459,44716
69540,44716
69540,45459
70152,45459
70152,45262
70087,45015
69932,44812
69711,44684
69642,44666
69540,44716
69459,44716
69357,44666
69288,44684
69067,44812
69008,44889
68970,44832
68754,44688
68500,44637
68245,44688
68029,44832
68000,44876
67970,44832
67754,44688
67500,44637
67245,44688
67029,44832
67000,44876
66970,44832
66754,44688
66500,44637
66245,44688
66029,44832
66000,44876
65970,44832
65754,44688
65500,44637
65245,44688
65029,44832
65000,44876
64970,44832
64754,44688
64500,44637
64245,44688
64115,44775
64080,44722
63994,44665
63893,44645
63106,44645
63005,44665
62919,44722
62862,44808
62842,44909
62652,44909
62652,44730
62587,44484
62432,44281
62211,44152
62142,44134
62040,44185
61959,44185
61857,44134
61788,44152
61567,44281
61412,44484
61347,44730
60801,44730
60667,44529
60451,44385
60357,44366
60357,43648
60648,43357
61366,43357
61385,43451
61529,43667
61745,43811
62000,43862
62254,43811
62470,43667
62614,43451
62633,43357
62964,43357
63000,43364
63035,43357
63139,43336
63211,43288
63245,43311
63500,43362
63754,43311
63970,43167
64000,43123
64029,43167
64245,43311
64500,43362
64754,43311
64970,43167
65000,43123
65029,43167
65245,43311
65500,43362
65754,43311
65970,43167
66000,43123
66029,43167
66245,43311
66500,43362
66754,43311
66970,43167
67000,43123
67029,43167
67245,43311
67500,43362
67754,43311
67970,43167
68000,43123
68029,43167
68245,43311
68500,43362
68754,43311
68970,43167
69000,43123
69029,43167
69245,43311
69500,43362
69754,43311
69970,43167
70114,42951
70152,42761
70152,42238
70114,42048
69974,41838
69994,41834
70080,41777
70137,41691
70157,41590
70157,40409
70137,40308
70080,40222
70058,40207
70152,39979
70152,39720
70053,39480
69930,39357
70691,39357
70696,39369
70880,39553
71120,39652
71379,39652
71619,39553
71803,39369
71902,39129
71902,38870
71803,38630
71619,38446
71379,38347
71120,38347
71044,38378
71053,38369
71152,38129
71152,37870
71053,37630
70869,37446
70629,37347
70370,37347
70130,37446
69946,37630
69847,37870
69847,38129
69946,38369
70130,38553
70345,38642
69035,38642
68999,38635
68964,38642
68964,38642
68860,38663
68742,38742
68722,38772
68272,39222
68242,39242
68222,39272
68222,39272
68163,39360
68135,39500
68142,39535
68142,40256
68029,40332
68000,40376
67970,40332
67754,40188
67500,40137
67245,40188
67029,40332
67000,40376
66970,40332
66754,40188
66500,40137
66245,40188
66029,40332
66000,40376
65970,40332
65754,40188
65500,40137
65245,40188
65029,40332
65000,40376
64970,40332
64754,40188
64500,40137
64245,40188
64029,40332
64000,40376
63970,40332
63754,40188
63500,40137
63245,40188
63029,40332
62885,40548
62847,40738
62847,41261
62885,41451
63029,41667
63142,41743
63142,41756
63029,41832
62885,42048
62847,42238
62847,42642
62633,42642
62614,42548
62470,42332
62254,42188
62000,42137
61745,42188
61529,42332
61385,42548
61366,42642
60535,42642
60499,42635
60464,42642
60464,42642
60360,42663
60242,42742
60222,42772
59772,43222
59742,43242
59722,43272
59722,43272
59663,43360
59635,43500
59642,43535
59642,44366
59548,44385
59332,44529
59188,44745
59137,45000
59188,45254
59332,45470
59548,45614
59642,45633
59642,45866
59548,45885
59332,46029
59256,46142
59035,46142
59000,46135
58964,46142
58860,46163
58742,46242
58722,46272
57351,47642
50334,47642
50336,47639
50357,47535
50357,47535
50364,47500
50357,47464
50357,47133
50451,47114
50667,46970
50811,46754
50862,46500
50811,46245
50667,46029
50451,45885
50357,45866
50357,45633
50451,45614
50667,45470
50811,45254
50862,45000
50811,44745
50667,44529
50451,44385
50261,44347
49738,44347
49548,44385
49332,44529
49188,44745
49137,45000
49188,45254
49332,45470
49548,45614
49642,45633
49642,45866
49548,45885
49332,46029
49188,46245
49137,46500
49188,46754
49332,46970
49548,47114
49642,47133
49642,47351
49351,47642
46398,47642
46107,47351
46107,47096
46114,47061
46107,47026
46107,47026
46086,46921
46007,46803
45977,46783
45758,46564
46000,46612
46254,46561
46382,46476
46386,46487
46459,46560
46554,46599
46894,46599
46959,46534
46959,45790
47040,45790
47040,46534
47105,46599
47445,46599
47540,46560
47613,46487
47652,46392
47652,45855
47587,45790
47040,45790
46959,45790
46951,45790
46951,45709
46959,45709
46959,44965
47040,44965
47040,45709
47587,45709
47652,45644
47652,45107
47613,45012
47540,44939
47445,44900
47105,44900
47040,44965
46959,44965
46894,44900
46554,44900
46459,44939
46386,45012
46382,45023
46254,44938
46000,44887
45745,44938
45529,45082
45385,45298
45366,45392
45148,45392
44857,45101
44857,43021
44951,43002
45167,42858
45311,42642
45362,42387
45311,42133
45167,41917
44951,41772
44761,41735
44238,41735
44048,41772
43968,41826
43968,39642
44166,39642
44184,39711
44312,39932
44515,40087
44762,40152
44959,40152
44959,39540
45040,39540
45040,40152
45237,40152
45484,40087
45687,39932
45815,39711
45833,39642
45783,39540
45040,39540
44959,39540
44216,39540
44166,39642
43968,39642
43968,38642
44166,38642
44184,38711
44312,38932
44400,39000
44312,39067
44184,39288
44166,39357
44216,39459
44959,39459
44959,38540
45040,38540
45040,39459
45783,39459
45833,39357
45815,39288
45687,39067
45599,39000
45687,38932
45815,38711
45833,38642
45783,38540
45040,38540
44959,38540
44216,38540
44166,38642
43968,38642
43968,37642
44166,37642
44184,37711
44312,37932
44400,38000
44312,38067
44184,38288
44166,38357
44216,38459
44959,38459
44959,37540
45040,37540
45040,38459
45783,38459
45833,38357
45815,38288
45687,38067
45599,38000
45687,37932
45815,37711
45833,37642
45783,37540
45040,37540
44959,37540
44216,37540
44166,37642
43968,37642
43968,36605
44150,36605
44150,36945
44189,37040
44262,37113
44281,37121
44184,37288
44166,37357
44216,37459
44959,37459
44959,36540
45040,36540
45040,37459
45783,37459
45833,37357
45815,37288
45718,37121
45737,37113
45810,37040
45849,36945
45849,36605
45784,36540
45040,36540
44959,36540
44215,36540
44150,36605
43968,36605
43968,36054
44150,36054
44150,36394
44215,36459
44959,36459
44959,35912
45040,35912
45040,36459
45784,36459
45849,36394
45849,36054
45810,35959
45737,35886
45642,35847
45105,35847
45040,35912
44959,35912
44894,35847
44357,35847
44262,35886
44189,35959
44150,36054
43968,36054
43968,33233
44096,33105
45650,33105
45650,33642
45689,33737
45762,33810
45857,33849
46394,33849
46459,33784
46459,33040
46540,33040
46540,33784
46605,33849
47142,33849
47237,33810
47310,33737
47349,33642
47349,33105
47284,33040
46540,33040
46459,33040
45715,33040
45650,33105
44096,33105
44843,32357
45650,32357
45650,32894
45715,32959
46459,32959
46459,32215
46540,32215
46540,32959
47284,32959
47349,32894
47349,32357
47310,32262
47237,32189
47142,32150
46605,32150
46540,32215
46459,32215
46394,32150
45857,32150
45762,32189
45689,32262
45650,32357
44843,32357
45753,31448
45779,31512
46018,31751
46331,31881
46668,31881
46981,31751
47220,31512
47271,31388
49048,31388
49861,32201
49847,32270
49847,32792
49885,32983
50029,33198
50245,33343
50500,33393
50754,33343
50970,33198
51114,32983
51133,32888
51433,32888
51468,32895
51503,32888
51607,32868
51718,32794
51745,32811
52000,32862
52133,32835
52414,33116
52434,33146
52464,33166
52552,33225
52692,33253
52727,33246
61016,33246
61051,33253
61087,33246
61191,33225
61309,33146
61329,33116
61416,33030
61529,33198
61745,33343
62000,33393
62254,33343
62470,33198
62614,32983
62633,32888
62933,32888
62968,32895
63003,32888
63107,32868
63218,32794
63245,32811
63500,32862
63754,32811
63970,32667
64000,32623
64029,32667
64142,32743
64142,32767
64135,32803
64151,32885
64163,32942
64242,33060
64272,33080
65002,33810
64947,33774
64843,33753
64807,33746
64772,33753
62902,33753
62867,33746
62832,33753
62728,33774
62609,33853
62589,33883
62579,33893
62550,33912
62531,33941
62432,33812
62211,33684
62142,33666
62040,33716
62040,34459
62048,34459
62048,34540
62040,34540
62040,34548
61959,34548
61959,34540
61347,34540
61347,34737
61412,34984
61448,35031
61037,35031
60647,34642
60652,34629
60652,34370
60608,34262
61347,34262
61347,34459
61959,34459
61959,33716
61857,33666
61788,33684
61567,33812
61412,34015
61347,34262
60608,34262
60553,34130
60369,33946
60129,33847
59870,33847
59630,33946
59446,34130
59347,34370
59347,34629
59446,34869
59630,35053
59870,35152
60129,35152
60142,35147
60611,35616
60631,35646
60749,35725
60853,35746
60853,35746
60888,35753
60924,35746
62251,35746
62286,35753
62321,35746
62426,35725
62544,35646
62564,35616
62842,35339
62842,35590
62862,35691
62901,35750
62862,35808
62842,35909
62842,36849
61298,38392
61280,38392
61303,38369
61402,38129
61402,37870
61303,37630
61119,37446
60879,37347
60620,37347
60380,37446
60196,37630
60191,37642
58451,37642
58142,37333
58211,37315
58432,37187
58587,36984
58652,36737
58652,36540
58040,36540
58040,36548
57959,36548
57959,36540
57951,36540
57951,36459
57959,36459
57959,35040
58040,35040
58040,36459
58652,36459
58652,36262
58587,36015
58432,35812
58324,35750
58432,35687
58587,35484
58652,35237
58652,35040
58040,35040
57959,35040
57951,35040
57951,34959
57959,34959
57959,34216
58040,34216
58040,34959
58652,34959
58652,34762
58587,34515
58432,34312
58211,34184
58142,34166
58040,34216
57959,34216
57857,34166
57788,34184
57567,34312
57508,34389
57470,34332
57254,34188
57000,34137
56745,34188
56529,34332
56500,34376
56470,34332
56254,34188
56000,34137
55745,34188
55529,34332
55500,34376
55470,34332
55254,34188
55000,34137
54745,34188
54529,34332
54500,34376
54470,34332
54254,34188
54000,34137
53866,34164
53585,33883
53565,33853
53447,33774
53343,33753
53307,33746
53272,33753
51402,33753
51367,33746
51332,33753
51228,33774
51109,33853
51089,33883
51079,33893
51050,33912
51031,33941
50932,33812
50711,33684
50642,33666
50540,33716
50540,34459
50548,34459
50548,34540
50540,34540
50540,34548
50459,34548
50459,34540
50451,34540
50451,34459
50459,34459
50459,33716
50357,33666
50288,33684
50116,33783
50053,33630
49869,33446
49629,33347
49370,33347
49130,33446
48946,33630
48847,33870
48847,34129
48946,34369
49130,34553
49142,34558
49142,34964
49135,35000
49163,35139
49222,35227
49242,35257
49272,35277
49722,35727
49742,35757
49860,35836
49964,35857
49964,35857
49999,35864
50035,35857
50853,35857
50888,35864
50924,35857
51028,35836
51146,35757
51166,35727
51342,35552
51342,35590
51362,35691
51401,35750
51362,35808
51342,35909
51342,36142
48743,36142
48667,36029
48451,35885
48261,35847
47738,35847
47548,35885
47332,36029
47188,36245
47137,36500
47188,36754
47332,36970
47376,37000
47332,37029
47188,37245
47137,37500
47188,37754
47332,37970
47376,38000
47332,38029
47188,38245
47137,38500
47188,38754
47332,38970
47376,39000
47332,39029
47188,39245
47137,39500
47164,39633
46772,40025
46742,40045
46722,40075
46722,40075
46663,40163
46635,40303
46642,40338
46642,42464
46635,42500
46645,42548
46663,42639
46742,42757
46772,42777
47722,43727
47742,43757
47860,43836
47964,43857
47964,43857
47999,43864
48035,43857
52351,43857
52642,44148
52642,46252
52635,46287
52642,46322
52663,46426
52742,46545
52772,46565
52934,46727
52954,46757
53073,46836
53177,46857
53177,46857
53212,46864
53247,46857
53256,46857
53332,46970
53548,47114
53738,47152
54261,47152
54451,47114
54667,46970
54811,46754
54862,46500
54835,46366
55116,46085
55146,46065
55225,45947
55246,45843
55246,45843
55253,45807
55246,45772
55246,45341
55332,45470
55548,45614
55738,45652
56261,45652
56451,45614
56667,45470
56811,45254
56862,45000
56811,44745
56667,44529
56451,44385
56357,44366
56357,40701
57165,39892
57188,40004
57332,40220
57376,40250
57332,40279
57188,40495
57137,40750
57164,40883
56883,41164
56853,41184
56833,41214
56833,41214
56774,41302
56746,41442
56753,41477
56753,43825
56746,43861
56753,43896
56774,44000
56853,44118
56883,44138
57392,44648
57392,45601
56851,46142
56743,46142
56667,46029
56451,45885
56261,45847
55738,45847
55548,45885
55332,46029
55188,46245
55137,46500
55188,46754
55332,46970
55548,47114
55738,47152
56261,47152
56451,47114
56667,46970
56743,46857
56964,46857
57000,46864
57035,46857
57139,46836
57257,46757
57277,46727
57977,46027
58007,46007
58086,45889
58107,45785
58107,45785
58114,45750
58107,45714
58107,44535
58114,44500
58086,44360
58027,44272
58007,44242
57977,44222
57468,43712
57468,43301
57515,43337
57762,43402
57959,43402
57959,42790
58040,42790
58040,43402
58237,43402
58484,43337
58687,43182
58815,42961
58833,42892
58783,42790
58040,42790
57959,42790
57951,42790
57951,42709
57959,42709
57959,42701
58040,42701
58040,42709
58783,42709
58833,42607
58815,42538
58687,42317
58610,42258
58667,42220
58743,42107
60064,42107
60100,42114
60135,42107
60239,42086
60357,42007
60377,41977
61857,40497
61870,40502
62129,40502
62369,40403
62553,40219
62652,39979
62652,39720
62553,39480
62369,39296
62129,39197
62066,39197
63517,37746
64363,37746
64398,37753
64433,37746
64537,37725
64656,37646
64676,37616
64727,37565
64757,37545
64836,37426
64857,37322
64857,37322
64864,37287
64857,37252
64857,37243
64970,37167
65000,37123
65029,37167
65245,37311
65423,37347
65370,37347
65130,37446
64946,37630
64847,37870
64847,38129
64946,38369
65130,38553
65370,38652
65629,38652
65869,38553
66053,38369
66058,38357
66161,38357
66196,38364
66232,38357
66336,38336
66454,38257
66474,38227
67366,37335
67500,37362
67754,37311
67970,37167
68000,37123
68029,37167
68245,37311
68500,37362
68754,37311
68970,37167
69008,37110
69067,37187
69288,37315
69357,37333
69459,37283
69459,36540
69540,36540
69540,37283
69642,37333
69711,37315
69932,37187
70087,36984
70152,36737
70152,36540
69540,36540
69459,36540
69451,36540
69451,36459
69459,36459
69459,35040
69540,35040
69540,36459
70152,36459
70152,36262
70087,36015
69932,35812
69824,35750
69932,35687
70087,35484
70152,35237
70152,35040
69540,35040
69459,35040
69451,35040
69451,34959
69459,34959
69459,34216
69540,34216
69540,34959
70152,34959
70152,34762
70087,34515
69932,34312
69711,34184
69642,34166
69540,34216
69459,34216
69357,34166
69288,34184
69067,34312
69008,34389
68970,34332
68857,34256
68857,32743
68970,32667
69000,32623
69029,32667
69245,32811
69500,32862
69754,32811
69970,32667
70114,32451
70128,32383
70142,32398
70142,33191
70130,33196
69946,33380
69847,33620
69847,33879
69946,34119
70130,34303
70370,34402
70629,34402
70869,34303
70892,34280
70892,34941
70880,34946
70696,35130
70597,35370
70597,35629
70696,35869
70880,36053
71120,36152
71379,36152
71619,36053
71803,35869
71902,35629
71902,35370
71803,35130
71619,34946
71607,34941
71607,31093
71614,31057
71607,31022
71607,31022
71586,30918
71507,30800
71477,30780
70549,29851
70549,29705
70556,29670
70528,29531
70528,29531
70449,29412
70420,29393
70410,29383
70390,29353
70271,29274
70167,29253
70132,29246
70097,29253
67227,29253
67192,29246
67156,29253
67052,29274
66934,29353
66914,29383
66633,29664
66500,29637
66245,29688
66029,29832
66000,29876
65970,29832
65857,29756
65857,29035
65864,28999
65857,28964
65857,28964
65836,28860
65757,28742
65727,28722
65277,28272
65257,28242
65139,28163
65035,28142
65000,28135
64964,28142
57535,28142
57499,28135
57464,28142
57464,28142
57360,28163
57242,28242
57222,28272
57000,28494
56777,28272
56757,28242
56639,28163
56535,28142
56500,28135
56464,28142
51035,28142
51000,28135
50964,28142
50860,28163
50742,28242
50722,28272
49642,29352
49629,29347
49370,29347
49130,29446
48946,29630
48847,29870
48847,30129
48946,30369
49130,30553
49370,30652
49629,30652
49869,30553
50053,30369
50152,30129
50152,29870
50147,29857
51148,28857
55469,28857
55446,28880
55347,29120
55347,29379
55446,29619
55607,29780
55529,29832
55500,29876
55470,29832
55254,29688
55000,29637
54745,29688
54529,29832
54500,29876
54470,29832
54254,29688
54000,29637
53745,29688
53529,29832
53500,29876
53470,29832
53254,29688
53000,29637
52745,29688
52529,29832
52500,29876
52470,29832
52254,29688
52000,29637
51745,29688
51529,29832
51385,30048
51347,30238
51347,30761
51385,30951
51529,31167
51642,31243
51642,31256
51529,31332
51385,31548
51347,31738
51347,32147
51320,32174
51133,32174
51114,32079
50970,31864
50754,31719
50500,31669
50366,31695
49474,30803
49454,30773
49336,30694
49232,30674
49196,30667
49161,30674
47271,30674
47220,30550
46981,30311
46668,30181
46331,30181
46018,30311
45779,30550
45728,30674
45700,30674
45664,30667
45629,30674
45525,30694
45407,30773
45387,30803
43383,32807
43353,32827
43276,32942
43274,32945
43246,33085
42778,33085
42778,29036
42896,29320
43179,29603
43549,29757
43950,29757
44320,29603
44603,29320
44757,28950
44757,28937
45067,28937
45067,30125
47932,30125
47932,28937
47867,28937
47867,27937
45132,27937
45132,28937
45067,28937
44757,28937
44757,28549
44603,28179
44320,27896
44036,27778
70963,27778
70679,27896
" /> 
</g> 
</svg>
