%FSLAX45Y45*%
G04 Gerber Fmt 4.5, Leading zero omitted, Abs format (unit mm)*
G04 Created by KiCad (PCBNEW 5.0.2-bee76a0~70~ubuntu16.04.1) date Seg 25 Nov 2019 00:16:14 -03*
%MOMM*%
%LPD*%
G01*
G04 APERTURE LIST*
%ADD10C,0.100000*%
%ADD11C,0.200000*%
%ADD12C,0.300000*%
G04 APERTURE END LIST*
D10*
X18415000Y-12192000D02*
G75*
G02X18161000Y-12446000I-254000J0D01*
G01*
X18161000Y-6985000D02*
G75*
G02X18415000Y-7239000I0J-254000D01*
G01*
X10795000Y-7239000D02*
G75*
G02X11049000Y-6985000I254000J0D01*
G01*
X11049000Y-12446000D02*
G75*
G02X10795000Y-12192000I0J254000D01*
G01*
X10795000Y-12192000D02*
X10795000Y-7239000D01*
X18161000Y-12446000D02*
X11049000Y-12446000D01*
X18415000Y-7239000D02*
X18415000Y-12192000D01*
X11049000Y-6985000D02*
X18161000Y-6985000D01*
D11*
D12*
X11076428Y-12916714D02*
X11076428Y-12616714D01*
X11147857Y-12616714D01*
X11190714Y-12631000D01*
X11219286Y-12659571D01*
X11233571Y-12688143D01*
X11247857Y-12745286D01*
X11247857Y-12788143D01*
X11233571Y-12845286D01*
X11219286Y-12873857D01*
X11190714Y-12902429D01*
X11147857Y-12916714D01*
X11076428Y-12916714D01*
X11376428Y-12916714D02*
X11376428Y-12716714D01*
X11376428Y-12773857D02*
X11390714Y-12745286D01*
X11405000Y-12731000D01*
X11433571Y-12716714D01*
X11462143Y-12716714D01*
X11562143Y-12916714D02*
X11562143Y-12716714D01*
X11562143Y-12616714D02*
X11547857Y-12631000D01*
X11562143Y-12645286D01*
X11576428Y-12631000D01*
X11562143Y-12616714D01*
X11562143Y-12645286D01*
X11747857Y-12916714D02*
X11719286Y-12902429D01*
X11705000Y-12873857D01*
X11705000Y-12616714D01*
X11905000Y-12916714D02*
X11876428Y-12902429D01*
X11862143Y-12873857D01*
X11862143Y-12616714D01*
X12247857Y-12916714D02*
X12247857Y-12616714D01*
X12347857Y-12831000D01*
X12447857Y-12616714D01*
X12447857Y-12916714D01*
X12719286Y-12916714D02*
X12719286Y-12759571D01*
X12705000Y-12731000D01*
X12676428Y-12716714D01*
X12619286Y-12716714D01*
X12590714Y-12731000D01*
X12719286Y-12902429D02*
X12690714Y-12916714D01*
X12619286Y-12916714D01*
X12590714Y-12902429D01*
X12576428Y-12873857D01*
X12576428Y-12845286D01*
X12590714Y-12816714D01*
X12619286Y-12802429D01*
X12690714Y-12802429D01*
X12719286Y-12788143D01*
X12862143Y-12716714D02*
X12862143Y-13016714D01*
X12862143Y-12731000D02*
X12890714Y-12716714D01*
X12947857Y-12716714D01*
X12976428Y-12731000D01*
X12990714Y-12745286D01*
X13005000Y-12773857D01*
X13005000Y-12859571D01*
X12990714Y-12888143D01*
X12976428Y-12902429D01*
X12947857Y-12916714D01*
X12890714Y-12916714D01*
X12862143Y-12902429D01*
X13133571Y-12888143D02*
X13147857Y-12902429D01*
X13133571Y-12916714D01*
X13119286Y-12902429D01*
X13133571Y-12888143D01*
X13133571Y-12916714D01*
X13133571Y-12731000D02*
X13147857Y-12745286D01*
X13133571Y-12759571D01*
X13119286Y-12745286D01*
X13133571Y-12731000D01*
X13133571Y-12759571D01*
M02*
