G04 #@! TF.GenerationSoftware,KiCad,Pcbnew,(5.0.2)-1*
G04 #@! TF.CreationDate,2019-10-17T13:34:40-03:00*
G04 #@! TF.ProjectId,circuito-01-com-defeito-trilhas-0.5mm,63697263-7569-4746-9f2d-30312d636f6d,02*
G04 #@! TF.SameCoordinates,Original*
G04 #@! TF.FileFunction,Soldermask,Bot*
G04 #@! TF.FilePolarity,Negative*
%FSLAX46Y46*%
G04 Gerber Fmt 4.6, Leading zero omitted, Abs format (unit mm)*
G04 Created by KiCad (PCBNEW (5.0.2)-1) date 17-10-2019 13:34:40*
%MOMM*%
%LPD*%
G01*
G04 APERTURE LIST*
%ADD10C,0.100000*%
G04 APERTURE END LIST*
D10*
G36*
X181529209Y-119458016D02*
X181874986Y-119601241D01*
X182186182Y-119809176D01*
X182450824Y-120073818D01*
X182658759Y-120385014D01*
X182801984Y-120730791D01*
X182875000Y-121097865D01*
X182875000Y-121472135D01*
X182801984Y-121839209D01*
X182658759Y-122184986D01*
X182450824Y-122496182D01*
X182186182Y-122760824D01*
X181874986Y-122968759D01*
X181529209Y-123111984D01*
X181162135Y-123185000D01*
X180787865Y-123185000D01*
X180420791Y-123111984D01*
X180075014Y-122968759D01*
X179763818Y-122760824D01*
X179499176Y-122496182D01*
X179291241Y-122184986D01*
X179148016Y-121839209D01*
X179075000Y-121472135D01*
X179075000Y-121097865D01*
X179148016Y-120730791D01*
X179291241Y-120385014D01*
X179499176Y-120073818D01*
X179763818Y-119809176D01*
X180075014Y-119601241D01*
X180420791Y-119458016D01*
X180787865Y-119385000D01*
X181162135Y-119385000D01*
X181529209Y-119458016D01*
X181529209Y-119458016D01*
G37*
G36*
X111679209Y-119458016D02*
X112024986Y-119601241D01*
X112336182Y-119809176D01*
X112600824Y-120073818D01*
X112808759Y-120385014D01*
X112951984Y-120730791D01*
X113025000Y-121097865D01*
X113025000Y-121472135D01*
X112951984Y-121839209D01*
X112808759Y-122184986D01*
X112600824Y-122496182D01*
X112336182Y-122760824D01*
X112024986Y-122968759D01*
X111679209Y-123111984D01*
X111312135Y-123185000D01*
X110937865Y-123185000D01*
X110570791Y-123111984D01*
X110225014Y-122968759D01*
X109913818Y-122760824D01*
X109649176Y-122496182D01*
X109441241Y-122184986D01*
X109298016Y-121839209D01*
X109225000Y-121472135D01*
X109225000Y-121097865D01*
X109298016Y-120730791D01*
X109441241Y-120385014D01*
X109649176Y-120073818D01*
X109913818Y-119809176D01*
X110225014Y-119601241D01*
X110570791Y-119458016D01*
X110937865Y-119385000D01*
X111312135Y-119385000D01*
X111679209Y-119458016D01*
X111679209Y-119458016D01*
G37*
G36*
X171646029Y-117894469D02*
X171646032Y-117894470D01*
X171646033Y-117894470D01*
X171834534Y-117951651D01*
X171834536Y-117951652D01*
X171834539Y-117951653D01*
X172008258Y-118044507D01*
X172160528Y-118169472D01*
X172285491Y-118321740D01*
X172285492Y-118321742D01*
X172378349Y-118495465D01*
X172435530Y-118683966D01*
X172435531Y-118683970D01*
X172450000Y-118830876D01*
X172450000Y-119929124D01*
X172435531Y-120076030D01*
X172435530Y-120076033D01*
X172435530Y-120076034D01*
X172378350Y-120264533D01*
X172378348Y-120264537D01*
X172285491Y-120438260D01*
X172160528Y-120590528D01*
X172008260Y-120715491D01*
X172008258Y-120715492D01*
X171834535Y-120808349D01*
X171646034Y-120865530D01*
X171646033Y-120865530D01*
X171646030Y-120865531D01*
X171450000Y-120884838D01*
X171253971Y-120865531D01*
X171253968Y-120865530D01*
X171253967Y-120865530D01*
X171065466Y-120808349D01*
X170891743Y-120715492D01*
X170891741Y-120715491D01*
X170739473Y-120590528D01*
X170614510Y-120438260D01*
X170521651Y-120264533D01*
X170464469Y-120076035D01*
X170450000Y-119929124D01*
X170450000Y-118830877D01*
X170464469Y-118683971D01*
X170464470Y-118683967D01*
X170521651Y-118495466D01*
X170521652Y-118495464D01*
X170521653Y-118495461D01*
X170614507Y-118321742D01*
X170739472Y-118169472D01*
X170891740Y-118044509D01*
X171065463Y-117951652D01*
X171065465Y-117951651D01*
X171253966Y-117894470D01*
X171253967Y-117894470D01*
X171253970Y-117894469D01*
X171450000Y-117875162D01*
X171646029Y-117894469D01*
X171646029Y-117894469D01*
G37*
G36*
X166566029Y-117894469D02*
X166566032Y-117894470D01*
X166566033Y-117894470D01*
X166754534Y-117951651D01*
X166754536Y-117951652D01*
X166754539Y-117951653D01*
X166928258Y-118044507D01*
X167080528Y-118169472D01*
X167205491Y-118321740D01*
X167205492Y-118321742D01*
X167298349Y-118495465D01*
X167355530Y-118683966D01*
X167355531Y-118683970D01*
X167370000Y-118830876D01*
X167370000Y-119929124D01*
X167355531Y-120076030D01*
X167355530Y-120076033D01*
X167355530Y-120076034D01*
X167298350Y-120264533D01*
X167298348Y-120264537D01*
X167205491Y-120438260D01*
X167080528Y-120590528D01*
X166928260Y-120715491D01*
X166928258Y-120715492D01*
X166754535Y-120808349D01*
X166566034Y-120865530D01*
X166566033Y-120865530D01*
X166566030Y-120865531D01*
X166370000Y-120884838D01*
X166173971Y-120865531D01*
X166173968Y-120865530D01*
X166173967Y-120865530D01*
X165985466Y-120808349D01*
X165811743Y-120715492D01*
X165811741Y-120715491D01*
X165659473Y-120590528D01*
X165534510Y-120438260D01*
X165441651Y-120264533D01*
X165384469Y-120076035D01*
X165370000Y-119929124D01*
X165370000Y-118830877D01*
X165384469Y-118683971D01*
X165384470Y-118683967D01*
X165441651Y-118495466D01*
X165441652Y-118495464D01*
X165441653Y-118495461D01*
X165534507Y-118321742D01*
X165659472Y-118169472D01*
X165811740Y-118044509D01*
X165985463Y-117951652D01*
X165985465Y-117951651D01*
X166173966Y-117894470D01*
X166173967Y-117894470D01*
X166173970Y-117894469D01*
X166370000Y-117875162D01*
X166566029Y-117894469D01*
X166566029Y-117894469D01*
G37*
G36*
X169106029Y-117894469D02*
X169106032Y-117894470D01*
X169106033Y-117894470D01*
X169294534Y-117951651D01*
X169294536Y-117951652D01*
X169294539Y-117951653D01*
X169468258Y-118044507D01*
X169620528Y-118169472D01*
X169745491Y-118321740D01*
X169745492Y-118321742D01*
X169838349Y-118495465D01*
X169895530Y-118683966D01*
X169895531Y-118683970D01*
X169910000Y-118830876D01*
X169910000Y-119929124D01*
X169895531Y-120076030D01*
X169895530Y-120076033D01*
X169895530Y-120076034D01*
X169838350Y-120264533D01*
X169838348Y-120264537D01*
X169745491Y-120438260D01*
X169620528Y-120590528D01*
X169468260Y-120715491D01*
X169468258Y-120715492D01*
X169294535Y-120808349D01*
X169106034Y-120865530D01*
X169106033Y-120865530D01*
X169106030Y-120865531D01*
X168910000Y-120884838D01*
X168713971Y-120865531D01*
X168713968Y-120865530D01*
X168713967Y-120865530D01*
X168525466Y-120808349D01*
X168351743Y-120715492D01*
X168351741Y-120715491D01*
X168199473Y-120590528D01*
X168074510Y-120438260D01*
X167981651Y-120264533D01*
X167924469Y-120076035D01*
X167910000Y-119929124D01*
X167910000Y-118830877D01*
X167924469Y-118683971D01*
X167924470Y-118683967D01*
X167981651Y-118495466D01*
X167981652Y-118495464D01*
X167981653Y-118495461D01*
X168074507Y-118321742D01*
X168199472Y-118169472D01*
X168351740Y-118044509D01*
X168525463Y-117951652D01*
X168525465Y-117951651D01*
X168713966Y-117894470D01*
X168713967Y-117894470D01*
X168713970Y-117894469D01*
X168910000Y-117875162D01*
X169106029Y-117894469D01*
X169106029Y-117894469D01*
G37*
G36*
X164026029Y-117894469D02*
X164026032Y-117894470D01*
X164026033Y-117894470D01*
X164214534Y-117951651D01*
X164214536Y-117951652D01*
X164214539Y-117951653D01*
X164388258Y-118044507D01*
X164540528Y-118169472D01*
X164665491Y-118321740D01*
X164665492Y-118321742D01*
X164758349Y-118495465D01*
X164815530Y-118683966D01*
X164815531Y-118683970D01*
X164830000Y-118830876D01*
X164830000Y-119929124D01*
X164815531Y-120076030D01*
X164815530Y-120076033D01*
X164815530Y-120076034D01*
X164758350Y-120264533D01*
X164758348Y-120264537D01*
X164665491Y-120438260D01*
X164540528Y-120590528D01*
X164388260Y-120715491D01*
X164388258Y-120715492D01*
X164214535Y-120808349D01*
X164026034Y-120865530D01*
X164026033Y-120865530D01*
X164026030Y-120865531D01*
X163830000Y-120884838D01*
X163633971Y-120865531D01*
X163633968Y-120865530D01*
X163633967Y-120865530D01*
X163445466Y-120808349D01*
X163271743Y-120715492D01*
X163271741Y-120715491D01*
X163119473Y-120590528D01*
X162994510Y-120438260D01*
X162901651Y-120264533D01*
X162844469Y-120076035D01*
X162830000Y-119929124D01*
X162830000Y-118830877D01*
X162844469Y-118683971D01*
X162844470Y-118683967D01*
X162901651Y-118495466D01*
X162901652Y-118495464D01*
X162901653Y-118495461D01*
X162994507Y-118321742D01*
X163119472Y-118169472D01*
X163271740Y-118044509D01*
X163445463Y-117951652D01*
X163445465Y-117951651D01*
X163633966Y-117894470D01*
X163633967Y-117894470D01*
X163633970Y-117894469D01*
X163830000Y-117875162D01*
X164026029Y-117894469D01*
X164026029Y-117894469D01*
G37*
G36*
X176726029Y-117894469D02*
X176726032Y-117894470D01*
X176726033Y-117894470D01*
X176914534Y-117951651D01*
X176914536Y-117951652D01*
X176914539Y-117951653D01*
X177088258Y-118044507D01*
X177240528Y-118169472D01*
X177365491Y-118321740D01*
X177365492Y-118321742D01*
X177458349Y-118495465D01*
X177515530Y-118683966D01*
X177515531Y-118683970D01*
X177530000Y-118830876D01*
X177530000Y-119929124D01*
X177515531Y-120076030D01*
X177515530Y-120076033D01*
X177515530Y-120076034D01*
X177458350Y-120264533D01*
X177458348Y-120264537D01*
X177365491Y-120438260D01*
X177240528Y-120590528D01*
X177088260Y-120715491D01*
X177088258Y-120715492D01*
X176914535Y-120808349D01*
X176726034Y-120865530D01*
X176726033Y-120865530D01*
X176726030Y-120865531D01*
X176530000Y-120884838D01*
X176333971Y-120865531D01*
X176333968Y-120865530D01*
X176333967Y-120865530D01*
X176145466Y-120808349D01*
X175971743Y-120715492D01*
X175971741Y-120715491D01*
X175819473Y-120590528D01*
X175694510Y-120438260D01*
X175601651Y-120264533D01*
X175544469Y-120076035D01*
X175530000Y-119929124D01*
X175530000Y-118830877D01*
X175544469Y-118683971D01*
X175544470Y-118683967D01*
X175601651Y-118495466D01*
X175601652Y-118495464D01*
X175601653Y-118495461D01*
X175694507Y-118321742D01*
X175819472Y-118169472D01*
X175971740Y-118044509D01*
X176145463Y-117951652D01*
X176145465Y-117951651D01*
X176333966Y-117894470D01*
X176333967Y-117894470D01*
X176333970Y-117894469D01*
X176530000Y-117875162D01*
X176726029Y-117894469D01*
X176726029Y-117894469D01*
G37*
G36*
X174186029Y-117894469D02*
X174186032Y-117894470D01*
X174186033Y-117894470D01*
X174374534Y-117951651D01*
X174374536Y-117951652D01*
X174374539Y-117951653D01*
X174548258Y-118044507D01*
X174700528Y-118169472D01*
X174825491Y-118321740D01*
X174825492Y-118321742D01*
X174918349Y-118495465D01*
X174975530Y-118683966D01*
X174975531Y-118683970D01*
X174990000Y-118830876D01*
X174990000Y-119929124D01*
X174975531Y-120076030D01*
X174975530Y-120076033D01*
X174975530Y-120076034D01*
X174918350Y-120264533D01*
X174918348Y-120264537D01*
X174825491Y-120438260D01*
X174700528Y-120590528D01*
X174548260Y-120715491D01*
X174548258Y-120715492D01*
X174374535Y-120808349D01*
X174186034Y-120865530D01*
X174186033Y-120865530D01*
X174186030Y-120865531D01*
X173990000Y-120884838D01*
X173793971Y-120865531D01*
X173793968Y-120865530D01*
X173793967Y-120865530D01*
X173605466Y-120808349D01*
X173431743Y-120715492D01*
X173431741Y-120715491D01*
X173279473Y-120590528D01*
X173154510Y-120438260D01*
X173061651Y-120264533D01*
X173004469Y-120076035D01*
X172990000Y-119929124D01*
X172990000Y-118830877D01*
X173004469Y-118683971D01*
X173004470Y-118683967D01*
X173061651Y-118495466D01*
X173061652Y-118495464D01*
X173061653Y-118495461D01*
X173154507Y-118321742D01*
X173279472Y-118169472D01*
X173431740Y-118044509D01*
X173605463Y-117951652D01*
X173605465Y-117951651D01*
X173793966Y-117894470D01*
X173793967Y-117894470D01*
X173793970Y-117894469D01*
X173990000Y-117875162D01*
X174186029Y-117894469D01*
X174186029Y-117894469D01*
G37*
G36*
X162290000Y-120880000D02*
X160290000Y-120880000D01*
X160290000Y-117880000D01*
X162290000Y-117880000D01*
X162290000Y-120880000D01*
X162290000Y-120880000D01*
G37*
G36*
X137856030Y-117124469D02*
X137856033Y-117124470D01*
X137856034Y-117124470D01*
X138044535Y-117181651D01*
X138044537Y-117181652D01*
X138218260Y-117274509D01*
X138370528Y-117399472D01*
X138495491Y-117551740D01*
X138495492Y-117551742D01*
X138588349Y-117725465D01*
X138639616Y-117894470D01*
X138645531Y-117913970D01*
X138664838Y-118110000D01*
X138645531Y-118306030D01*
X138645530Y-118306033D01*
X138645530Y-118306034D01*
X138640766Y-118321740D01*
X138588348Y-118494537D01*
X138495491Y-118668260D01*
X138370528Y-118820528D01*
X138218260Y-118945491D01*
X138218258Y-118945492D01*
X138044535Y-119038349D01*
X137856034Y-119095530D01*
X137856033Y-119095530D01*
X137856030Y-119095531D01*
X137709124Y-119110000D01*
X136610876Y-119110000D01*
X136463970Y-119095531D01*
X136463967Y-119095530D01*
X136463966Y-119095530D01*
X136275465Y-119038349D01*
X136101742Y-118945492D01*
X136101740Y-118945491D01*
X135949472Y-118820528D01*
X135824509Y-118668260D01*
X135731652Y-118494537D01*
X135679235Y-118321740D01*
X135674470Y-118306034D01*
X135674470Y-118306033D01*
X135674469Y-118306030D01*
X135655162Y-118110000D01*
X135674469Y-117913970D01*
X135680384Y-117894470D01*
X135731651Y-117725465D01*
X135824508Y-117551742D01*
X135824509Y-117551740D01*
X135949472Y-117399472D01*
X136101740Y-117274509D01*
X136275463Y-117181652D01*
X136275465Y-117181651D01*
X136463966Y-117124470D01*
X136463967Y-117124470D01*
X136463970Y-117124469D01*
X136610876Y-117110000D01*
X137709124Y-117110000D01*
X137856030Y-117124469D01*
X137856030Y-117124469D01*
G37*
G36*
X142936030Y-117124469D02*
X142936033Y-117124470D01*
X142936034Y-117124470D01*
X143124535Y-117181651D01*
X143124537Y-117181652D01*
X143298260Y-117274509D01*
X143450528Y-117399472D01*
X143575491Y-117551740D01*
X143575492Y-117551742D01*
X143668349Y-117725465D01*
X143719616Y-117894470D01*
X143725531Y-117913970D01*
X143744838Y-118110000D01*
X143725531Y-118306030D01*
X143725530Y-118306033D01*
X143725530Y-118306034D01*
X143720766Y-118321740D01*
X143668348Y-118494537D01*
X143575491Y-118668260D01*
X143450528Y-118820528D01*
X143298260Y-118945491D01*
X143298258Y-118945492D01*
X143124535Y-119038349D01*
X142936034Y-119095530D01*
X142936033Y-119095530D01*
X142936030Y-119095531D01*
X142789124Y-119110000D01*
X141690876Y-119110000D01*
X141543970Y-119095531D01*
X141543967Y-119095530D01*
X141543966Y-119095530D01*
X141355465Y-119038349D01*
X141181742Y-118945492D01*
X141181740Y-118945491D01*
X141029472Y-118820528D01*
X140904509Y-118668260D01*
X140811652Y-118494537D01*
X140759235Y-118321740D01*
X140754470Y-118306034D01*
X140754470Y-118306033D01*
X140754469Y-118306030D01*
X140735162Y-118110000D01*
X140754469Y-117913970D01*
X140760384Y-117894470D01*
X140811651Y-117725465D01*
X140904508Y-117551742D01*
X140904509Y-117551740D01*
X141029472Y-117399472D01*
X141181740Y-117274509D01*
X141355463Y-117181652D01*
X141355465Y-117181651D01*
X141543966Y-117124470D01*
X141543967Y-117124470D01*
X141543970Y-117124469D01*
X141690876Y-117110000D01*
X142789124Y-117110000D01*
X142936030Y-117124469D01*
X142936030Y-117124469D01*
G37*
G36*
X153096030Y-117124469D02*
X153096033Y-117124470D01*
X153096034Y-117124470D01*
X153284535Y-117181651D01*
X153284537Y-117181652D01*
X153458260Y-117274509D01*
X153610528Y-117399472D01*
X153735491Y-117551740D01*
X153735492Y-117551742D01*
X153828349Y-117725465D01*
X153879616Y-117894470D01*
X153885531Y-117913970D01*
X153904838Y-118110000D01*
X153885531Y-118306030D01*
X153885530Y-118306033D01*
X153885530Y-118306034D01*
X153880766Y-118321740D01*
X153828348Y-118494537D01*
X153735491Y-118668260D01*
X153610528Y-118820528D01*
X153458260Y-118945491D01*
X153458258Y-118945492D01*
X153284535Y-119038349D01*
X153096034Y-119095530D01*
X153096033Y-119095530D01*
X153096030Y-119095531D01*
X152949124Y-119110000D01*
X151850876Y-119110000D01*
X151703970Y-119095531D01*
X151703967Y-119095530D01*
X151703966Y-119095530D01*
X151515465Y-119038349D01*
X151341742Y-118945492D01*
X151341740Y-118945491D01*
X151189472Y-118820528D01*
X151064509Y-118668260D01*
X150971652Y-118494537D01*
X150919235Y-118321740D01*
X150914470Y-118306034D01*
X150914470Y-118306033D01*
X150914469Y-118306030D01*
X150895162Y-118110000D01*
X150914469Y-117913970D01*
X150920384Y-117894470D01*
X150971651Y-117725465D01*
X151064508Y-117551742D01*
X151064509Y-117551740D01*
X151189472Y-117399472D01*
X151341740Y-117274509D01*
X151515463Y-117181652D01*
X151515465Y-117181651D01*
X151703966Y-117124470D01*
X151703967Y-117124470D01*
X151703970Y-117124469D01*
X151850876Y-117110000D01*
X152949124Y-117110000D01*
X153096030Y-117124469D01*
X153096030Y-117124469D01*
G37*
G36*
X127696030Y-117124469D02*
X127696033Y-117124470D01*
X127696034Y-117124470D01*
X127884535Y-117181651D01*
X127884537Y-117181652D01*
X128058260Y-117274509D01*
X128210528Y-117399472D01*
X128335491Y-117551740D01*
X128335492Y-117551742D01*
X128428349Y-117725465D01*
X128479616Y-117894470D01*
X128485531Y-117913970D01*
X128504838Y-118110000D01*
X128485531Y-118306030D01*
X128485530Y-118306033D01*
X128485530Y-118306034D01*
X128480766Y-118321740D01*
X128428348Y-118494537D01*
X128335491Y-118668260D01*
X128210528Y-118820528D01*
X128058260Y-118945491D01*
X128058258Y-118945492D01*
X127884535Y-119038349D01*
X127696034Y-119095530D01*
X127696033Y-119095530D01*
X127696030Y-119095531D01*
X127549124Y-119110000D01*
X126450876Y-119110000D01*
X126303970Y-119095531D01*
X126303967Y-119095530D01*
X126303966Y-119095530D01*
X126115465Y-119038349D01*
X125941742Y-118945492D01*
X125941740Y-118945491D01*
X125789472Y-118820528D01*
X125664509Y-118668260D01*
X125571652Y-118494537D01*
X125519235Y-118321740D01*
X125514470Y-118306034D01*
X125514470Y-118306033D01*
X125514469Y-118306030D01*
X125495162Y-118110000D01*
X125514469Y-117913970D01*
X125520384Y-117894470D01*
X125571651Y-117725465D01*
X125664508Y-117551742D01*
X125664509Y-117551740D01*
X125789472Y-117399472D01*
X125941740Y-117274509D01*
X126115463Y-117181652D01*
X126115465Y-117181651D01*
X126303966Y-117124470D01*
X126303967Y-117124470D01*
X126303970Y-117124469D01*
X126450876Y-117110000D01*
X127549124Y-117110000D01*
X127696030Y-117124469D01*
X127696030Y-117124469D01*
G37*
G36*
X117036030Y-114719469D02*
X117036033Y-114719470D01*
X117036034Y-114719470D01*
X117224535Y-114776651D01*
X117224537Y-114776652D01*
X117398260Y-114869509D01*
X117550528Y-114994472D01*
X117675491Y-115146740D01*
X117675492Y-115146742D01*
X117768349Y-115320465D01*
X117825530Y-115508966D01*
X117825531Y-115508970D01*
X117840000Y-115655876D01*
X117840000Y-116754124D01*
X117825531Y-116901030D01*
X117825530Y-116901033D01*
X117825530Y-116901034D01*
X117774275Y-117070000D01*
X117768348Y-117089537D01*
X117675491Y-117263260D01*
X117550528Y-117415528D01*
X117398258Y-117540493D01*
X117224539Y-117633347D01*
X117224536Y-117633348D01*
X117224534Y-117633349D01*
X117036033Y-117690530D01*
X117036032Y-117690530D01*
X117036029Y-117690531D01*
X116840000Y-117709838D01*
X116643970Y-117690531D01*
X116643967Y-117690530D01*
X116643966Y-117690530D01*
X116455465Y-117633349D01*
X116302789Y-117551742D01*
X116281740Y-117540491D01*
X116129472Y-117415528D01*
X116004507Y-117263258D01*
X115911653Y-117089539D01*
X115905726Y-117070000D01*
X115854470Y-116901033D01*
X115854470Y-116901032D01*
X115854469Y-116901029D01*
X115840000Y-116754123D01*
X115840000Y-115655876D01*
X115854469Y-115508965D01*
X115911651Y-115320467D01*
X116004510Y-115146740D01*
X116129473Y-114994472D01*
X116281741Y-114869509D01*
X116455464Y-114776652D01*
X116455466Y-114776651D01*
X116643967Y-114719470D01*
X116643968Y-114719470D01*
X116643971Y-114719469D01*
X116840000Y-114700162D01*
X117036030Y-114719469D01*
X117036030Y-114719469D01*
G37*
G36*
X120380000Y-117705000D02*
X118380000Y-117705000D01*
X118380000Y-114705000D01*
X120380000Y-114705000D01*
X120380000Y-117705000D01*
X120380000Y-117705000D01*
G37*
G36*
X171646029Y-114084469D02*
X171646032Y-114084470D01*
X171646033Y-114084470D01*
X171834534Y-114141651D01*
X171834536Y-114141652D01*
X171834539Y-114141653D01*
X172008258Y-114234507D01*
X172160528Y-114359472D01*
X172285491Y-114511740D01*
X172285492Y-114511742D01*
X172378349Y-114685465D01*
X172434178Y-114869509D01*
X172435531Y-114873970D01*
X172450000Y-115020876D01*
X172450000Y-116119124D01*
X172435531Y-116266030D01*
X172435530Y-116266033D01*
X172435530Y-116266034D01*
X172378350Y-116454533D01*
X172378348Y-116454537D01*
X172285491Y-116628260D01*
X172160528Y-116780528D01*
X172008260Y-116905491D01*
X172008258Y-116905492D01*
X171834535Y-116998349D01*
X171646034Y-117055530D01*
X171646033Y-117055530D01*
X171646030Y-117055531D01*
X171450000Y-117074838D01*
X171253971Y-117055531D01*
X171253968Y-117055530D01*
X171253967Y-117055530D01*
X171065466Y-116998349D01*
X170891743Y-116905492D01*
X170891741Y-116905491D01*
X170739473Y-116780528D01*
X170614510Y-116628260D01*
X170521651Y-116454533D01*
X170464469Y-116266035D01*
X170450000Y-116119124D01*
X170450000Y-115020877D01*
X170464469Y-114873971D01*
X170464470Y-114873967D01*
X170521651Y-114685466D01*
X170521652Y-114685464D01*
X170521653Y-114685461D01*
X170614507Y-114511742D01*
X170739472Y-114359472D01*
X170891740Y-114234509D01*
X171065463Y-114141652D01*
X171065465Y-114141651D01*
X171253966Y-114084470D01*
X171253967Y-114084470D01*
X171253970Y-114084469D01*
X171450000Y-114065162D01*
X171646029Y-114084469D01*
X171646029Y-114084469D01*
G37*
G36*
X174186029Y-114084469D02*
X174186032Y-114084470D01*
X174186033Y-114084470D01*
X174374534Y-114141651D01*
X174374536Y-114141652D01*
X174374539Y-114141653D01*
X174548258Y-114234507D01*
X174700528Y-114359472D01*
X174825491Y-114511740D01*
X174825492Y-114511742D01*
X174918349Y-114685465D01*
X174974178Y-114869509D01*
X174975531Y-114873970D01*
X174990000Y-115020876D01*
X174990000Y-116119124D01*
X174975531Y-116266030D01*
X174975530Y-116266033D01*
X174975530Y-116266034D01*
X174918350Y-116454533D01*
X174918348Y-116454537D01*
X174825491Y-116628260D01*
X174700528Y-116780528D01*
X174548260Y-116905491D01*
X174548258Y-116905492D01*
X174374535Y-116998349D01*
X174186034Y-117055530D01*
X174186033Y-117055530D01*
X174186030Y-117055531D01*
X173990000Y-117074838D01*
X173793971Y-117055531D01*
X173793968Y-117055530D01*
X173793967Y-117055530D01*
X173605466Y-116998349D01*
X173431743Y-116905492D01*
X173431741Y-116905491D01*
X173279473Y-116780528D01*
X173154510Y-116628260D01*
X173061651Y-116454533D01*
X173004469Y-116266035D01*
X172990000Y-116119124D01*
X172990000Y-115020877D01*
X173004469Y-114873971D01*
X173004470Y-114873967D01*
X173061651Y-114685466D01*
X173061652Y-114685464D01*
X173061653Y-114685461D01*
X173154507Y-114511742D01*
X173279472Y-114359472D01*
X173431740Y-114234509D01*
X173605463Y-114141652D01*
X173605465Y-114141651D01*
X173793966Y-114084470D01*
X173793967Y-114084470D01*
X173793970Y-114084469D01*
X173990000Y-114065162D01*
X174186029Y-114084469D01*
X174186029Y-114084469D01*
G37*
G36*
X166566029Y-114084469D02*
X166566032Y-114084470D01*
X166566033Y-114084470D01*
X166754534Y-114141651D01*
X166754536Y-114141652D01*
X166754539Y-114141653D01*
X166928258Y-114234507D01*
X167080528Y-114359472D01*
X167205491Y-114511740D01*
X167205492Y-114511742D01*
X167298349Y-114685465D01*
X167354178Y-114869509D01*
X167355531Y-114873970D01*
X167370000Y-115020876D01*
X167370000Y-116119124D01*
X167355531Y-116266030D01*
X167355530Y-116266033D01*
X167355530Y-116266034D01*
X167298350Y-116454533D01*
X167298348Y-116454537D01*
X167205491Y-116628260D01*
X167080528Y-116780528D01*
X166928260Y-116905491D01*
X166928258Y-116905492D01*
X166754535Y-116998349D01*
X166566034Y-117055530D01*
X166566033Y-117055530D01*
X166566030Y-117055531D01*
X166370000Y-117074838D01*
X166173971Y-117055531D01*
X166173968Y-117055530D01*
X166173967Y-117055530D01*
X165985466Y-116998349D01*
X165811743Y-116905492D01*
X165811741Y-116905491D01*
X165659473Y-116780528D01*
X165534510Y-116628260D01*
X165441651Y-116454533D01*
X165384469Y-116266035D01*
X165370000Y-116119124D01*
X165370000Y-115020877D01*
X165384469Y-114873971D01*
X165384470Y-114873967D01*
X165441651Y-114685466D01*
X165441652Y-114685464D01*
X165441653Y-114685461D01*
X165534507Y-114511742D01*
X165659472Y-114359472D01*
X165811740Y-114234509D01*
X165985463Y-114141652D01*
X165985465Y-114141651D01*
X166173966Y-114084470D01*
X166173967Y-114084470D01*
X166173970Y-114084469D01*
X166370000Y-114065162D01*
X166566029Y-114084469D01*
X166566029Y-114084469D01*
G37*
G36*
X169106029Y-114084469D02*
X169106032Y-114084470D01*
X169106033Y-114084470D01*
X169294534Y-114141651D01*
X169294536Y-114141652D01*
X169294539Y-114141653D01*
X169468258Y-114234507D01*
X169620528Y-114359472D01*
X169745491Y-114511740D01*
X169745492Y-114511742D01*
X169838349Y-114685465D01*
X169894178Y-114869509D01*
X169895531Y-114873970D01*
X169910000Y-115020876D01*
X169910000Y-116119124D01*
X169895531Y-116266030D01*
X169895530Y-116266033D01*
X169895530Y-116266034D01*
X169838350Y-116454533D01*
X169838348Y-116454537D01*
X169745491Y-116628260D01*
X169620528Y-116780528D01*
X169468260Y-116905491D01*
X169468258Y-116905492D01*
X169294535Y-116998349D01*
X169106034Y-117055530D01*
X169106033Y-117055530D01*
X169106030Y-117055531D01*
X168910000Y-117074838D01*
X168713971Y-117055531D01*
X168713968Y-117055530D01*
X168713967Y-117055530D01*
X168525466Y-116998349D01*
X168351743Y-116905492D01*
X168351741Y-116905491D01*
X168199473Y-116780528D01*
X168074510Y-116628260D01*
X167981651Y-116454533D01*
X167924469Y-116266035D01*
X167910000Y-116119124D01*
X167910000Y-115020877D01*
X167924469Y-114873971D01*
X167924470Y-114873967D01*
X167981651Y-114685466D01*
X167981652Y-114685464D01*
X167981653Y-114685461D01*
X168074507Y-114511742D01*
X168199472Y-114359472D01*
X168351740Y-114234509D01*
X168525463Y-114141652D01*
X168525465Y-114141651D01*
X168713966Y-114084470D01*
X168713967Y-114084470D01*
X168713970Y-114084469D01*
X168910000Y-114065162D01*
X169106029Y-114084469D01*
X169106029Y-114084469D01*
G37*
G36*
X176726029Y-114084469D02*
X176726032Y-114084470D01*
X176726033Y-114084470D01*
X176914534Y-114141651D01*
X176914536Y-114141652D01*
X176914539Y-114141653D01*
X177088258Y-114234507D01*
X177240528Y-114359472D01*
X177365491Y-114511740D01*
X177365492Y-114511742D01*
X177458349Y-114685465D01*
X177514178Y-114869509D01*
X177515531Y-114873970D01*
X177530000Y-115020876D01*
X177530000Y-116119124D01*
X177515531Y-116266030D01*
X177515530Y-116266033D01*
X177515530Y-116266034D01*
X177458350Y-116454533D01*
X177458348Y-116454537D01*
X177365491Y-116628260D01*
X177240528Y-116780528D01*
X177088260Y-116905491D01*
X177088258Y-116905492D01*
X176914535Y-116998349D01*
X176726034Y-117055530D01*
X176726033Y-117055530D01*
X176726030Y-117055531D01*
X176530000Y-117074838D01*
X176333971Y-117055531D01*
X176333968Y-117055530D01*
X176333967Y-117055530D01*
X176145466Y-116998349D01*
X175971743Y-116905492D01*
X175971741Y-116905491D01*
X175819473Y-116780528D01*
X175694510Y-116628260D01*
X175601651Y-116454533D01*
X175544469Y-116266035D01*
X175530000Y-116119124D01*
X175530000Y-115020877D01*
X175544469Y-114873971D01*
X175544470Y-114873967D01*
X175601651Y-114685466D01*
X175601652Y-114685464D01*
X175601653Y-114685461D01*
X175694507Y-114511742D01*
X175819472Y-114359472D01*
X175971740Y-114234509D01*
X176145463Y-114141652D01*
X176145465Y-114141651D01*
X176333966Y-114084470D01*
X176333967Y-114084470D01*
X176333970Y-114084469D01*
X176530000Y-114065162D01*
X176726029Y-114084469D01*
X176726029Y-114084469D01*
G37*
G36*
X164026029Y-114084469D02*
X164026032Y-114084470D01*
X164026033Y-114084470D01*
X164214534Y-114141651D01*
X164214536Y-114141652D01*
X164214539Y-114141653D01*
X164388258Y-114234507D01*
X164540528Y-114359472D01*
X164665491Y-114511740D01*
X164665492Y-114511742D01*
X164758349Y-114685465D01*
X164814178Y-114869509D01*
X164815531Y-114873970D01*
X164830000Y-115020876D01*
X164830000Y-116119124D01*
X164815531Y-116266030D01*
X164815530Y-116266033D01*
X164815530Y-116266034D01*
X164758350Y-116454533D01*
X164758348Y-116454537D01*
X164665491Y-116628260D01*
X164540528Y-116780528D01*
X164388260Y-116905491D01*
X164388258Y-116905492D01*
X164214535Y-116998349D01*
X164026034Y-117055530D01*
X164026033Y-117055530D01*
X164026030Y-117055531D01*
X163830000Y-117074838D01*
X163633971Y-117055531D01*
X163633968Y-117055530D01*
X163633967Y-117055530D01*
X163445466Y-116998349D01*
X163271743Y-116905492D01*
X163271741Y-116905491D01*
X163119473Y-116780528D01*
X162994510Y-116628260D01*
X162901651Y-116454533D01*
X162844469Y-116266035D01*
X162830000Y-116119124D01*
X162830000Y-115020877D01*
X162844469Y-114873971D01*
X162844470Y-114873967D01*
X162901651Y-114685466D01*
X162901652Y-114685464D01*
X162901653Y-114685461D01*
X162994507Y-114511742D01*
X163119472Y-114359472D01*
X163271740Y-114234509D01*
X163445463Y-114141652D01*
X163445465Y-114141651D01*
X163633966Y-114084470D01*
X163633967Y-114084470D01*
X163633970Y-114084469D01*
X163830000Y-114065162D01*
X164026029Y-114084469D01*
X164026029Y-114084469D01*
G37*
G36*
X162290000Y-117070000D02*
X160290000Y-117070000D01*
X160290000Y-114070000D01*
X162290000Y-114070000D01*
X162290000Y-117070000D01*
X162290000Y-117070000D01*
G37*
G36*
X157676030Y-112734469D02*
X157676033Y-112734470D01*
X157676034Y-112734470D01*
X157864535Y-112791651D01*
X157864537Y-112791652D01*
X158038260Y-112884509D01*
X158190528Y-113009472D01*
X158315491Y-113161740D01*
X158315492Y-113161742D01*
X158408349Y-113335465D01*
X158465530Y-113523966D01*
X158465531Y-113523970D01*
X158480000Y-113670876D01*
X158480000Y-114769124D01*
X158465531Y-114916030D01*
X158465530Y-114916033D01*
X158465530Y-114916034D01*
X158433727Y-115020876D01*
X158408348Y-115104537D01*
X158315491Y-115278260D01*
X158190528Y-115430528D01*
X158038258Y-115555493D01*
X157864539Y-115648347D01*
X157864536Y-115648348D01*
X157864534Y-115648349D01*
X157676033Y-115705530D01*
X157676032Y-115705530D01*
X157676029Y-115705531D01*
X157480000Y-115724838D01*
X157283970Y-115705531D01*
X157283967Y-115705530D01*
X157283966Y-115705530D01*
X157095465Y-115648349D01*
X156921742Y-115555492D01*
X156921740Y-115555491D01*
X156769472Y-115430528D01*
X156644507Y-115278258D01*
X156551653Y-115104539D01*
X156526276Y-115020881D01*
X156494470Y-114916033D01*
X156494470Y-114916032D01*
X156494469Y-114916029D01*
X156480000Y-114769123D01*
X156480000Y-113670876D01*
X156494469Y-113523965D01*
X156551651Y-113335467D01*
X156570609Y-113300000D01*
X156644509Y-113161742D01*
X156644510Y-113161740D01*
X156769473Y-113009472D01*
X156921741Y-112884509D01*
X157095464Y-112791652D01*
X157095466Y-112791651D01*
X157283967Y-112734470D01*
X157283968Y-112734470D01*
X157283971Y-112734469D01*
X157480000Y-112715162D01*
X157676030Y-112734469D01*
X157676030Y-112734469D01*
G37*
G36*
X137856030Y-113314469D02*
X137856033Y-113314470D01*
X137856034Y-113314470D01*
X138044535Y-113371651D01*
X138044537Y-113371652D01*
X138218260Y-113464509D01*
X138370528Y-113589472D01*
X138495491Y-113741740D01*
X138495492Y-113741742D01*
X138588349Y-113915465D01*
X138639616Y-114084470D01*
X138645531Y-114103970D01*
X138664838Y-114300000D01*
X138645531Y-114496030D01*
X138645530Y-114496033D01*
X138645530Y-114496034D01*
X138640766Y-114511740D01*
X138588348Y-114684537D01*
X138495491Y-114858260D01*
X138370528Y-115010528D01*
X138218260Y-115135491D01*
X138197211Y-115146742D01*
X138044535Y-115228349D01*
X137856034Y-115285530D01*
X137856033Y-115285530D01*
X137856030Y-115285531D01*
X137709124Y-115300000D01*
X136610876Y-115300000D01*
X136463970Y-115285531D01*
X136463967Y-115285530D01*
X136463966Y-115285530D01*
X136275465Y-115228349D01*
X136122789Y-115146742D01*
X136101740Y-115135491D01*
X135949472Y-115010528D01*
X135824509Y-114858260D01*
X135731652Y-114684537D01*
X135679235Y-114511740D01*
X135674470Y-114496034D01*
X135674470Y-114496033D01*
X135674469Y-114496030D01*
X135655162Y-114300000D01*
X135674469Y-114103970D01*
X135680384Y-114084470D01*
X135731651Y-113915465D01*
X135824508Y-113741742D01*
X135824509Y-113741740D01*
X135949472Y-113589472D01*
X136101740Y-113464509D01*
X136275463Y-113371652D01*
X136275465Y-113371651D01*
X136463966Y-113314470D01*
X136463967Y-113314470D01*
X136463970Y-113314469D01*
X136610876Y-113300000D01*
X137709124Y-113300000D01*
X137856030Y-113314469D01*
X137856030Y-113314469D01*
G37*
G36*
X153096030Y-113314469D02*
X153096033Y-113314470D01*
X153096034Y-113314470D01*
X153284535Y-113371651D01*
X153284537Y-113371652D01*
X153458260Y-113464509D01*
X153610528Y-113589472D01*
X153735491Y-113741740D01*
X153735492Y-113741742D01*
X153828349Y-113915465D01*
X153879616Y-114084470D01*
X153885531Y-114103970D01*
X153904838Y-114300000D01*
X153885531Y-114496030D01*
X153885530Y-114496033D01*
X153885530Y-114496034D01*
X153880766Y-114511740D01*
X153828348Y-114684537D01*
X153735491Y-114858260D01*
X153610528Y-115010528D01*
X153458260Y-115135491D01*
X153437211Y-115146742D01*
X153284535Y-115228349D01*
X153096034Y-115285530D01*
X153096033Y-115285530D01*
X153096030Y-115285531D01*
X152949124Y-115300000D01*
X151850876Y-115300000D01*
X151703970Y-115285531D01*
X151703967Y-115285530D01*
X151703966Y-115285530D01*
X151515465Y-115228349D01*
X151362789Y-115146742D01*
X151341740Y-115135491D01*
X151189472Y-115010528D01*
X151064509Y-114858260D01*
X150971652Y-114684537D01*
X150919235Y-114511740D01*
X150914470Y-114496034D01*
X150914470Y-114496033D01*
X150914469Y-114496030D01*
X150895162Y-114300000D01*
X150914469Y-114103970D01*
X150920384Y-114084470D01*
X150971651Y-113915465D01*
X151064508Y-113741742D01*
X151064509Y-113741740D01*
X151189472Y-113589472D01*
X151341740Y-113464509D01*
X151515463Y-113371652D01*
X151515465Y-113371651D01*
X151703966Y-113314470D01*
X151703967Y-113314470D01*
X151703970Y-113314469D01*
X151850876Y-113300000D01*
X152949124Y-113300000D01*
X153096030Y-113314469D01*
X153096030Y-113314469D01*
G37*
G36*
X142936030Y-113314469D02*
X142936033Y-113314470D01*
X142936034Y-113314470D01*
X143124535Y-113371651D01*
X143124537Y-113371652D01*
X143298260Y-113464509D01*
X143450528Y-113589472D01*
X143575491Y-113741740D01*
X143575492Y-113741742D01*
X143668349Y-113915465D01*
X143719616Y-114084470D01*
X143725531Y-114103970D01*
X143744838Y-114300000D01*
X143725531Y-114496030D01*
X143725530Y-114496033D01*
X143725530Y-114496034D01*
X143720766Y-114511740D01*
X143668348Y-114684537D01*
X143575491Y-114858260D01*
X143450528Y-115010528D01*
X143298260Y-115135491D01*
X143277211Y-115146742D01*
X143124535Y-115228349D01*
X142936034Y-115285530D01*
X142936033Y-115285530D01*
X142936030Y-115285531D01*
X142789124Y-115300000D01*
X141690876Y-115300000D01*
X141543970Y-115285531D01*
X141543967Y-115285530D01*
X141543966Y-115285530D01*
X141355465Y-115228349D01*
X141202789Y-115146742D01*
X141181740Y-115135491D01*
X141029472Y-115010528D01*
X140904509Y-114858260D01*
X140811652Y-114684537D01*
X140759235Y-114511740D01*
X140754470Y-114496034D01*
X140754470Y-114496033D01*
X140754469Y-114496030D01*
X140735162Y-114300000D01*
X140754469Y-114103970D01*
X140760384Y-114084470D01*
X140811651Y-113915465D01*
X140904508Y-113741742D01*
X140904509Y-113741740D01*
X141029472Y-113589472D01*
X141181740Y-113464509D01*
X141355463Y-113371652D01*
X141355465Y-113371651D01*
X141543966Y-113314470D01*
X141543967Y-113314470D01*
X141543970Y-113314469D01*
X141690876Y-113300000D01*
X142789124Y-113300000D01*
X142936030Y-113314469D01*
X142936030Y-113314469D01*
G37*
G36*
X127696030Y-113314469D02*
X127696033Y-113314470D01*
X127696034Y-113314470D01*
X127884535Y-113371651D01*
X127884537Y-113371652D01*
X128058260Y-113464509D01*
X128210528Y-113589472D01*
X128335491Y-113741740D01*
X128335492Y-113741742D01*
X128428349Y-113915465D01*
X128479616Y-114084470D01*
X128485531Y-114103970D01*
X128504838Y-114300000D01*
X128485531Y-114496030D01*
X128485530Y-114496033D01*
X128485530Y-114496034D01*
X128480766Y-114511740D01*
X128428348Y-114684537D01*
X128335491Y-114858260D01*
X128210528Y-115010528D01*
X128058260Y-115135491D01*
X128037211Y-115146742D01*
X127884535Y-115228349D01*
X127696034Y-115285530D01*
X127696033Y-115285530D01*
X127696030Y-115285531D01*
X127549124Y-115300000D01*
X126450876Y-115300000D01*
X126303970Y-115285531D01*
X126303967Y-115285530D01*
X126303966Y-115285530D01*
X126115465Y-115228349D01*
X125962789Y-115146742D01*
X125941740Y-115135491D01*
X125789472Y-115010528D01*
X125664509Y-114858260D01*
X125571652Y-114684537D01*
X125519235Y-114511740D01*
X125514470Y-114496034D01*
X125514470Y-114496033D01*
X125514469Y-114496030D01*
X125495162Y-114300000D01*
X125514469Y-114103970D01*
X125520384Y-114084470D01*
X125571651Y-113915465D01*
X125664508Y-113741742D01*
X125664509Y-113741740D01*
X125789472Y-113589472D01*
X125941740Y-113464509D01*
X126115463Y-113371652D01*
X126115465Y-113371651D01*
X126303966Y-113314470D01*
X126303967Y-113314470D01*
X126303970Y-113314469D01*
X126450876Y-113300000D01*
X127549124Y-113300000D01*
X127696030Y-113314469D01*
X127696030Y-113314469D01*
G37*
G36*
X157676030Y-107734469D02*
X157676033Y-107734470D01*
X157676034Y-107734470D01*
X157864535Y-107791651D01*
X157864537Y-107791652D01*
X158038260Y-107884509D01*
X158190528Y-108009472D01*
X158315491Y-108161740D01*
X158315492Y-108161742D01*
X158408349Y-108335465D01*
X158465530Y-108523966D01*
X158465531Y-108523970D01*
X158480000Y-108670876D01*
X158480000Y-109769124D01*
X158465531Y-109916030D01*
X158408348Y-110104537D01*
X158315491Y-110278260D01*
X158190528Y-110430528D01*
X158038258Y-110555493D01*
X157864539Y-110648347D01*
X157864536Y-110648348D01*
X157864534Y-110648349D01*
X157676033Y-110705530D01*
X157676032Y-110705530D01*
X157676029Y-110705531D01*
X157480000Y-110724838D01*
X157283970Y-110705531D01*
X157283967Y-110705530D01*
X157283966Y-110705530D01*
X157095465Y-110648349D01*
X156921742Y-110555492D01*
X156921740Y-110555491D01*
X156769472Y-110430528D01*
X156644507Y-110278258D01*
X156551653Y-110104539D01*
X156494471Y-109916034D01*
X156494470Y-109916033D01*
X156494470Y-109916032D01*
X156494469Y-109916029D01*
X156480000Y-109769123D01*
X156480000Y-108670876D01*
X156494469Y-108523965D01*
X156551651Y-108335467D01*
X156644510Y-108161740D01*
X156769473Y-108009472D01*
X156921741Y-107884509D01*
X157095464Y-107791652D01*
X157095466Y-107791651D01*
X157283967Y-107734470D01*
X157283968Y-107734470D01*
X157283971Y-107734469D01*
X157480000Y-107715162D01*
X157676030Y-107734469D01*
X157676030Y-107734469D01*
G37*
G36*
X132776030Y-107599469D02*
X132776033Y-107599470D01*
X132776034Y-107599470D01*
X132964535Y-107656651D01*
X132964537Y-107656652D01*
X133138260Y-107749509D01*
X133290528Y-107874472D01*
X133415491Y-108026740D01*
X133415492Y-108026742D01*
X133508349Y-108200465D01*
X133565530Y-108388966D01*
X133565531Y-108388970D01*
X133584838Y-108585000D01*
X133565531Y-108781030D01*
X133565530Y-108781033D01*
X133565530Y-108781034D01*
X133549301Y-108834535D01*
X133508348Y-108969537D01*
X133415491Y-109143260D01*
X133290528Y-109295528D01*
X133138260Y-109420491D01*
X133138258Y-109420492D01*
X132964535Y-109513349D01*
X132776034Y-109570530D01*
X132776033Y-109570530D01*
X132776030Y-109570531D01*
X132629124Y-109585000D01*
X131530876Y-109585000D01*
X131383970Y-109570531D01*
X131383967Y-109570530D01*
X131383966Y-109570530D01*
X131195465Y-109513349D01*
X131021742Y-109420492D01*
X131021740Y-109420491D01*
X130869472Y-109295528D01*
X130744509Y-109143260D01*
X130651652Y-108969537D01*
X130610700Y-108834535D01*
X130594470Y-108781034D01*
X130594470Y-108781033D01*
X130594469Y-108781030D01*
X130575162Y-108585000D01*
X130594469Y-108388970D01*
X130594470Y-108388966D01*
X130651651Y-108200465D01*
X130744508Y-108026742D01*
X130744509Y-108026740D01*
X130869472Y-107874472D01*
X131021740Y-107749509D01*
X131195463Y-107656652D01*
X131195465Y-107656651D01*
X131383966Y-107599470D01*
X131383967Y-107599470D01*
X131383970Y-107599469D01*
X131530876Y-107585000D01*
X132629124Y-107585000D01*
X132776030Y-107599469D01*
X132776030Y-107599469D01*
G37*
G36*
X148016030Y-107599469D02*
X148016033Y-107599470D01*
X148016034Y-107599470D01*
X148204535Y-107656651D01*
X148204537Y-107656652D01*
X148378260Y-107749509D01*
X148530528Y-107874472D01*
X148655491Y-108026740D01*
X148655492Y-108026742D01*
X148748349Y-108200465D01*
X148805530Y-108388966D01*
X148805531Y-108388970D01*
X148824838Y-108585000D01*
X148805531Y-108781030D01*
X148805530Y-108781033D01*
X148805530Y-108781034D01*
X148789301Y-108834535D01*
X148748348Y-108969537D01*
X148655491Y-109143260D01*
X148530528Y-109295528D01*
X148378260Y-109420491D01*
X148378258Y-109420492D01*
X148204535Y-109513349D01*
X148016034Y-109570530D01*
X148016033Y-109570530D01*
X148016030Y-109570531D01*
X147869124Y-109585000D01*
X146770876Y-109585000D01*
X146623970Y-109570531D01*
X146623967Y-109570530D01*
X146623966Y-109570530D01*
X146435465Y-109513349D01*
X146261742Y-109420492D01*
X146261740Y-109420491D01*
X146109472Y-109295528D01*
X145984509Y-109143260D01*
X145891652Y-108969537D01*
X145850700Y-108834535D01*
X145834470Y-108781034D01*
X145834470Y-108781033D01*
X145834469Y-108781030D01*
X145815162Y-108585000D01*
X145834469Y-108388970D01*
X145834470Y-108388966D01*
X145891651Y-108200465D01*
X145984508Y-108026742D01*
X145984509Y-108026740D01*
X146109472Y-107874472D01*
X146261740Y-107749509D01*
X146435463Y-107656652D01*
X146435465Y-107656651D01*
X146623966Y-107599470D01*
X146623967Y-107599470D01*
X146623970Y-107599469D01*
X146770876Y-107585000D01*
X147869124Y-107585000D01*
X148016030Y-107599469D01*
X148016030Y-107599469D01*
G37*
G36*
X161486029Y-106464469D02*
X161486032Y-106464470D01*
X161486033Y-106464470D01*
X161674534Y-106521651D01*
X161674536Y-106521652D01*
X161674539Y-106521653D01*
X161848258Y-106614507D01*
X162000528Y-106739472D01*
X162125491Y-106891740D01*
X162125492Y-106891742D01*
X162218349Y-107065465D01*
X162230870Y-107106742D01*
X162275531Y-107253970D01*
X162290000Y-107400876D01*
X162290000Y-108499124D01*
X162275531Y-108646030D01*
X162275530Y-108646033D01*
X162275530Y-108646034D01*
X162218350Y-108834533D01*
X162218348Y-108834537D01*
X162125491Y-109008260D01*
X162000528Y-109160528D01*
X161848260Y-109285491D01*
X161848258Y-109285492D01*
X161674535Y-109378349D01*
X161486034Y-109435530D01*
X161486033Y-109435530D01*
X161486030Y-109435531D01*
X161290000Y-109454838D01*
X161093971Y-109435531D01*
X161093968Y-109435530D01*
X161093967Y-109435530D01*
X160905466Y-109378349D01*
X160731743Y-109285492D01*
X160731741Y-109285491D01*
X160579473Y-109160528D01*
X160454510Y-109008260D01*
X160361651Y-108834533D01*
X160304469Y-108646035D01*
X160290000Y-108499124D01*
X160290000Y-107400877D01*
X160304469Y-107253971D01*
X160304470Y-107253967D01*
X160361651Y-107065466D01*
X160361652Y-107065464D01*
X160361653Y-107065461D01*
X160454507Y-106891742D01*
X160579472Y-106739472D01*
X160731740Y-106614509D01*
X160905463Y-106521652D01*
X160905465Y-106521651D01*
X161093966Y-106464470D01*
X161093967Y-106464470D01*
X161093970Y-106464469D01*
X161290000Y-106445162D01*
X161486029Y-106464469D01*
X161486029Y-106464469D01*
G37*
G36*
X166566029Y-106464469D02*
X166566032Y-106464470D01*
X166566033Y-106464470D01*
X166754534Y-106521651D01*
X166754536Y-106521652D01*
X166754539Y-106521653D01*
X166928258Y-106614507D01*
X167080528Y-106739472D01*
X167205491Y-106891740D01*
X167205492Y-106891742D01*
X167298349Y-107065465D01*
X167310870Y-107106742D01*
X167355531Y-107253970D01*
X167370000Y-107400876D01*
X167370000Y-108499124D01*
X167355531Y-108646030D01*
X167355530Y-108646033D01*
X167355530Y-108646034D01*
X167298350Y-108834533D01*
X167298348Y-108834537D01*
X167205491Y-109008260D01*
X167080528Y-109160528D01*
X166928260Y-109285491D01*
X166928258Y-109285492D01*
X166754535Y-109378349D01*
X166566034Y-109435530D01*
X166566033Y-109435530D01*
X166566030Y-109435531D01*
X166370000Y-109454838D01*
X166173971Y-109435531D01*
X166173968Y-109435530D01*
X166173967Y-109435530D01*
X165985466Y-109378349D01*
X165811743Y-109285492D01*
X165811741Y-109285491D01*
X165659473Y-109160528D01*
X165534510Y-109008260D01*
X165441651Y-108834533D01*
X165384469Y-108646035D01*
X165370000Y-108499124D01*
X165370000Y-107400877D01*
X165384469Y-107253971D01*
X165384470Y-107253967D01*
X165441651Y-107065466D01*
X165441652Y-107065464D01*
X165441653Y-107065461D01*
X165534507Y-106891742D01*
X165659472Y-106739472D01*
X165811740Y-106614509D01*
X165985463Y-106521652D01*
X165985465Y-106521651D01*
X166173966Y-106464470D01*
X166173967Y-106464470D01*
X166173970Y-106464469D01*
X166370000Y-106445162D01*
X166566029Y-106464469D01*
X166566029Y-106464469D01*
G37*
G36*
X164026029Y-106464469D02*
X164026032Y-106464470D01*
X164026033Y-106464470D01*
X164214534Y-106521651D01*
X164214536Y-106521652D01*
X164214539Y-106521653D01*
X164388258Y-106614507D01*
X164540528Y-106739472D01*
X164665491Y-106891740D01*
X164665492Y-106891742D01*
X164758349Y-107065465D01*
X164770870Y-107106742D01*
X164815531Y-107253970D01*
X164830000Y-107400876D01*
X164830000Y-108499124D01*
X164815531Y-108646030D01*
X164815530Y-108646033D01*
X164815530Y-108646034D01*
X164758350Y-108834533D01*
X164758348Y-108834537D01*
X164665491Y-109008260D01*
X164540528Y-109160528D01*
X164388260Y-109285491D01*
X164388258Y-109285492D01*
X164214535Y-109378349D01*
X164026034Y-109435530D01*
X164026033Y-109435530D01*
X164026030Y-109435531D01*
X163830000Y-109454838D01*
X163633971Y-109435531D01*
X163633968Y-109435530D01*
X163633967Y-109435530D01*
X163445466Y-109378349D01*
X163271743Y-109285492D01*
X163271741Y-109285491D01*
X163119473Y-109160528D01*
X162994510Y-109008260D01*
X162901651Y-108834533D01*
X162844469Y-108646035D01*
X162830000Y-108499124D01*
X162830000Y-107400877D01*
X162844469Y-107253971D01*
X162844470Y-107253967D01*
X162901651Y-107065466D01*
X162901652Y-107065464D01*
X162901653Y-107065461D01*
X162994507Y-106891742D01*
X163119472Y-106739472D01*
X163271740Y-106614509D01*
X163445463Y-106521652D01*
X163445465Y-106521651D01*
X163633966Y-106464470D01*
X163633967Y-106464470D01*
X163633970Y-106464469D01*
X163830000Y-106445162D01*
X164026029Y-106464469D01*
X164026029Y-106464469D01*
G37*
G36*
X169106029Y-106464469D02*
X169106032Y-106464470D01*
X169106033Y-106464470D01*
X169294534Y-106521651D01*
X169294536Y-106521652D01*
X169294539Y-106521653D01*
X169468258Y-106614507D01*
X169620528Y-106739472D01*
X169745491Y-106891740D01*
X169745492Y-106891742D01*
X169838349Y-107065465D01*
X169850870Y-107106742D01*
X169895531Y-107253970D01*
X169910000Y-107400876D01*
X169910000Y-108499124D01*
X169895531Y-108646030D01*
X169895530Y-108646033D01*
X169895530Y-108646034D01*
X169838350Y-108834533D01*
X169838348Y-108834537D01*
X169745491Y-109008260D01*
X169620528Y-109160528D01*
X169468260Y-109285491D01*
X169468258Y-109285492D01*
X169294535Y-109378349D01*
X169106034Y-109435530D01*
X169106033Y-109435530D01*
X169106030Y-109435531D01*
X168910000Y-109454838D01*
X168713971Y-109435531D01*
X168713968Y-109435530D01*
X168713967Y-109435530D01*
X168525466Y-109378349D01*
X168351743Y-109285492D01*
X168351741Y-109285491D01*
X168199473Y-109160528D01*
X168074510Y-109008260D01*
X167981651Y-108834533D01*
X167924469Y-108646035D01*
X167910000Y-108499124D01*
X167910000Y-107400877D01*
X167924469Y-107253971D01*
X167924470Y-107253967D01*
X167981651Y-107065466D01*
X167981652Y-107065464D01*
X167981653Y-107065461D01*
X168074507Y-106891742D01*
X168199472Y-106739472D01*
X168351740Y-106614509D01*
X168525463Y-106521652D01*
X168525465Y-106521651D01*
X168713966Y-106464470D01*
X168713967Y-106464470D01*
X168713970Y-106464469D01*
X168910000Y-106445162D01*
X169106029Y-106464469D01*
X169106029Y-106464469D01*
G37*
G36*
X174186029Y-106464469D02*
X174186032Y-106464470D01*
X174186033Y-106464470D01*
X174374534Y-106521651D01*
X174374536Y-106521652D01*
X174374539Y-106521653D01*
X174548258Y-106614507D01*
X174700528Y-106739472D01*
X174825491Y-106891740D01*
X174825492Y-106891742D01*
X174918349Y-107065465D01*
X174930870Y-107106742D01*
X174975531Y-107253970D01*
X174990000Y-107400876D01*
X174990000Y-108499124D01*
X174975531Y-108646030D01*
X174975530Y-108646033D01*
X174975530Y-108646034D01*
X174918350Y-108834533D01*
X174918348Y-108834537D01*
X174825491Y-109008260D01*
X174700528Y-109160528D01*
X174548260Y-109285491D01*
X174548258Y-109285492D01*
X174374535Y-109378349D01*
X174186034Y-109435530D01*
X174186033Y-109435530D01*
X174186030Y-109435531D01*
X173990000Y-109454838D01*
X173793971Y-109435531D01*
X173793968Y-109435530D01*
X173793967Y-109435530D01*
X173605466Y-109378349D01*
X173431743Y-109285492D01*
X173431741Y-109285491D01*
X173279473Y-109160528D01*
X173154510Y-109008260D01*
X173061651Y-108834533D01*
X173004469Y-108646035D01*
X172990000Y-108499124D01*
X172990000Y-107400877D01*
X173004469Y-107253971D01*
X173004470Y-107253967D01*
X173061651Y-107065466D01*
X173061652Y-107065464D01*
X173061653Y-107065461D01*
X173154507Y-106891742D01*
X173279472Y-106739472D01*
X173431740Y-106614509D01*
X173605463Y-106521652D01*
X173605465Y-106521651D01*
X173793966Y-106464470D01*
X173793967Y-106464470D01*
X173793970Y-106464469D01*
X173990000Y-106445162D01*
X174186029Y-106464469D01*
X174186029Y-106464469D01*
G37*
G36*
X176726029Y-106464469D02*
X176726032Y-106464470D01*
X176726033Y-106464470D01*
X176914534Y-106521651D01*
X176914536Y-106521652D01*
X176914539Y-106521653D01*
X177088258Y-106614507D01*
X177240528Y-106739472D01*
X177365491Y-106891740D01*
X177365492Y-106891742D01*
X177458349Y-107065465D01*
X177470870Y-107106742D01*
X177515531Y-107253970D01*
X177530000Y-107400876D01*
X177530000Y-108499124D01*
X177515531Y-108646030D01*
X177515530Y-108646033D01*
X177515530Y-108646034D01*
X177458350Y-108834533D01*
X177458348Y-108834537D01*
X177365491Y-109008260D01*
X177240528Y-109160528D01*
X177088260Y-109285491D01*
X177088258Y-109285492D01*
X176914535Y-109378349D01*
X176726034Y-109435530D01*
X176726033Y-109435530D01*
X176726030Y-109435531D01*
X176530000Y-109454838D01*
X176333971Y-109435531D01*
X176333968Y-109435530D01*
X176333967Y-109435530D01*
X176145466Y-109378349D01*
X175971743Y-109285492D01*
X175971741Y-109285491D01*
X175819473Y-109160528D01*
X175694510Y-109008260D01*
X175601651Y-108834533D01*
X175544469Y-108646035D01*
X175530000Y-108499124D01*
X175530000Y-107400877D01*
X175544469Y-107253971D01*
X175544470Y-107253967D01*
X175601651Y-107065466D01*
X175601652Y-107065464D01*
X175601653Y-107065461D01*
X175694507Y-106891742D01*
X175819472Y-106739472D01*
X175971740Y-106614509D01*
X176145463Y-106521652D01*
X176145465Y-106521651D01*
X176333966Y-106464470D01*
X176333967Y-106464470D01*
X176333970Y-106464469D01*
X176530000Y-106445162D01*
X176726029Y-106464469D01*
X176726029Y-106464469D01*
G37*
G36*
X171646029Y-106464469D02*
X171646032Y-106464470D01*
X171646033Y-106464470D01*
X171834534Y-106521651D01*
X171834536Y-106521652D01*
X171834539Y-106521653D01*
X172008258Y-106614507D01*
X172160528Y-106739472D01*
X172285491Y-106891740D01*
X172285492Y-106891742D01*
X172378349Y-107065465D01*
X172390870Y-107106742D01*
X172435531Y-107253970D01*
X172450000Y-107400876D01*
X172450000Y-108499124D01*
X172435531Y-108646030D01*
X172435530Y-108646033D01*
X172435530Y-108646034D01*
X172378350Y-108834533D01*
X172378348Y-108834537D01*
X172285491Y-109008260D01*
X172160528Y-109160528D01*
X172008260Y-109285491D01*
X172008258Y-109285492D01*
X171834535Y-109378349D01*
X171646034Y-109435530D01*
X171646033Y-109435530D01*
X171646030Y-109435531D01*
X171450000Y-109454838D01*
X171253971Y-109435531D01*
X171253968Y-109435530D01*
X171253967Y-109435530D01*
X171065466Y-109378349D01*
X170891743Y-109285492D01*
X170891741Y-109285491D01*
X170739473Y-109160528D01*
X170614510Y-109008260D01*
X170521651Y-108834533D01*
X170464469Y-108646035D01*
X170450000Y-108499124D01*
X170450000Y-107400877D01*
X170464469Y-107253971D01*
X170464470Y-107253967D01*
X170521651Y-107065466D01*
X170521652Y-107065464D01*
X170521653Y-107065461D01*
X170614507Y-106891742D01*
X170739472Y-106739472D01*
X170891740Y-106614509D01*
X171065463Y-106521652D01*
X171065465Y-106521651D01*
X171253966Y-106464470D01*
X171253967Y-106464470D01*
X171253970Y-106464469D01*
X171450000Y-106445162D01*
X171646029Y-106464469D01*
X171646029Y-106464469D01*
G37*
G36*
X123886030Y-106679469D02*
X123886033Y-106679470D01*
X123886034Y-106679470D01*
X124074535Y-106736651D01*
X124074537Y-106736652D01*
X124248260Y-106829509D01*
X124400528Y-106954472D01*
X124525491Y-107106740D01*
X124525492Y-107106742D01*
X124618349Y-107280465D01*
X124675530Y-107468966D01*
X124675531Y-107468970D01*
X124694838Y-107665000D01*
X124675531Y-107861030D01*
X124675530Y-107861033D01*
X124675530Y-107861034D01*
X124625264Y-108026740D01*
X124618348Y-108049537D01*
X124525491Y-108223260D01*
X124400528Y-108375528D01*
X124248260Y-108500491D01*
X124248258Y-108500492D01*
X124074535Y-108593349D01*
X123886034Y-108650530D01*
X123886033Y-108650530D01*
X123886030Y-108650531D01*
X123739124Y-108665000D01*
X122640876Y-108665000D01*
X122493970Y-108650531D01*
X122493967Y-108650530D01*
X122493966Y-108650530D01*
X122305465Y-108593349D01*
X122131742Y-108500492D01*
X122131740Y-108500491D01*
X121979472Y-108375528D01*
X121854509Y-108223260D01*
X121761652Y-108049537D01*
X121754737Y-108026740D01*
X121704470Y-107861034D01*
X121704470Y-107861033D01*
X121704469Y-107861030D01*
X121685162Y-107665000D01*
X121704469Y-107468970D01*
X121704470Y-107468966D01*
X121761651Y-107280465D01*
X121854508Y-107106742D01*
X121854509Y-107106740D01*
X121979472Y-106954472D01*
X122131740Y-106829509D01*
X122305463Y-106736652D01*
X122305465Y-106736651D01*
X122493966Y-106679470D01*
X122493967Y-106679470D01*
X122493970Y-106679469D01*
X122640876Y-106665000D01*
X123739124Y-106665000D01*
X123886030Y-106679469D01*
X123886030Y-106679469D01*
G37*
G36*
X113726030Y-106679469D02*
X113726033Y-106679470D01*
X113726034Y-106679470D01*
X113914535Y-106736651D01*
X113914537Y-106736652D01*
X114088260Y-106829509D01*
X114240528Y-106954472D01*
X114365491Y-107106740D01*
X114365492Y-107106742D01*
X114458349Y-107280465D01*
X114515530Y-107468966D01*
X114515531Y-107468970D01*
X114534838Y-107665000D01*
X114515531Y-107861030D01*
X114515530Y-107861033D01*
X114515530Y-107861034D01*
X114465264Y-108026740D01*
X114458348Y-108049537D01*
X114365491Y-108223260D01*
X114240528Y-108375528D01*
X114088260Y-108500491D01*
X114088258Y-108500492D01*
X113914535Y-108593349D01*
X113726034Y-108650530D01*
X113726033Y-108650530D01*
X113726030Y-108650531D01*
X113579124Y-108665000D01*
X112480876Y-108665000D01*
X112333970Y-108650531D01*
X112333967Y-108650530D01*
X112333966Y-108650530D01*
X112145465Y-108593349D01*
X111971742Y-108500492D01*
X111971740Y-108500491D01*
X111819472Y-108375528D01*
X111694509Y-108223260D01*
X111601652Y-108049537D01*
X111594737Y-108026740D01*
X111544470Y-107861034D01*
X111544470Y-107861033D01*
X111544469Y-107861030D01*
X111525162Y-107665000D01*
X111544469Y-107468970D01*
X111544470Y-107468966D01*
X111601651Y-107280465D01*
X111694508Y-107106742D01*
X111694509Y-107106740D01*
X111819472Y-106954472D01*
X111971740Y-106829509D01*
X112145463Y-106736652D01*
X112145465Y-106736651D01*
X112333966Y-106679470D01*
X112333967Y-106679470D01*
X112333970Y-106679469D01*
X112480876Y-106665000D01*
X113579124Y-106665000D01*
X113726030Y-106679469D01*
X113726030Y-106679469D01*
G37*
G36*
X148016030Y-105059469D02*
X148016033Y-105059470D01*
X148016034Y-105059470D01*
X148204535Y-105116651D01*
X148204537Y-105116652D01*
X148378260Y-105209509D01*
X148530528Y-105334472D01*
X148655491Y-105486740D01*
X148748348Y-105660463D01*
X148805531Y-105848970D01*
X148824838Y-106045000D01*
X148805531Y-106241030D01*
X148748348Y-106429537D01*
X148655491Y-106603260D01*
X148530528Y-106755528D01*
X148378260Y-106880491D01*
X148357211Y-106891742D01*
X148204535Y-106973349D01*
X148016034Y-107030530D01*
X148016033Y-107030530D01*
X148016030Y-107030531D01*
X147869124Y-107045000D01*
X146770876Y-107045000D01*
X146623970Y-107030531D01*
X146623967Y-107030530D01*
X146623966Y-107030530D01*
X146435465Y-106973349D01*
X146282789Y-106891742D01*
X146261740Y-106880491D01*
X146109472Y-106755528D01*
X145984509Y-106603260D01*
X145891652Y-106429537D01*
X145834469Y-106241030D01*
X145815162Y-106045000D01*
X145834469Y-105848970D01*
X145891652Y-105660463D01*
X145984509Y-105486740D01*
X146109472Y-105334472D01*
X146261740Y-105209509D01*
X146435463Y-105116652D01*
X146435465Y-105116651D01*
X146623966Y-105059470D01*
X146623967Y-105059470D01*
X146623970Y-105059469D01*
X146770876Y-105045000D01*
X147869124Y-105045000D01*
X148016030Y-105059469D01*
X148016030Y-105059469D01*
G37*
G36*
X132776030Y-105059469D02*
X132776033Y-105059470D01*
X132776034Y-105059470D01*
X132964535Y-105116651D01*
X132964537Y-105116652D01*
X133138260Y-105209509D01*
X133290528Y-105334472D01*
X133415491Y-105486740D01*
X133508348Y-105660463D01*
X133565531Y-105848970D01*
X133584838Y-106045000D01*
X133565531Y-106241030D01*
X133508348Y-106429537D01*
X133415491Y-106603260D01*
X133290528Y-106755528D01*
X133138260Y-106880491D01*
X133117211Y-106891742D01*
X132964535Y-106973349D01*
X132776034Y-107030530D01*
X132776033Y-107030530D01*
X132776030Y-107030531D01*
X132629124Y-107045000D01*
X131530876Y-107045000D01*
X131383970Y-107030531D01*
X131383967Y-107030530D01*
X131383966Y-107030530D01*
X131195465Y-106973349D01*
X131042789Y-106891742D01*
X131021740Y-106880491D01*
X130869472Y-106755528D01*
X130744509Y-106603260D01*
X130651652Y-106429537D01*
X130594469Y-106241030D01*
X130575162Y-106045000D01*
X130594469Y-105848970D01*
X130651652Y-105660463D01*
X130744509Y-105486740D01*
X130869472Y-105334472D01*
X131021740Y-105209509D01*
X131195463Y-105116652D01*
X131195465Y-105116651D01*
X131383966Y-105059470D01*
X131383967Y-105059470D01*
X131383970Y-105059469D01*
X131530876Y-105045000D01*
X132629124Y-105045000D01*
X132776030Y-105059469D01*
X132776030Y-105059469D01*
G37*
G36*
X171646030Y-102654469D02*
X171646033Y-102654470D01*
X171646034Y-102654470D01*
X171834535Y-102711651D01*
X171834537Y-102711652D01*
X172008260Y-102804509D01*
X172160528Y-102929472D01*
X172285491Y-103081740D01*
X172285492Y-103081742D01*
X172378349Y-103255465D01*
X172435530Y-103443966D01*
X172435531Y-103443970D01*
X172450000Y-103590876D01*
X172450000Y-104689124D01*
X172435531Y-104836030D01*
X172378348Y-105024537D01*
X172285491Y-105198260D01*
X172160528Y-105350528D01*
X172008258Y-105475493D01*
X171834539Y-105568347D01*
X171834536Y-105568348D01*
X171834534Y-105568349D01*
X171646033Y-105625530D01*
X171646032Y-105625530D01*
X171646029Y-105625531D01*
X171450000Y-105644838D01*
X171253970Y-105625531D01*
X171253967Y-105625530D01*
X171253966Y-105625530D01*
X171065465Y-105568349D01*
X170912789Y-105486742D01*
X170891740Y-105475491D01*
X170739472Y-105350528D01*
X170614507Y-105198258D01*
X170521653Y-105024539D01*
X170464471Y-104836034D01*
X170464470Y-104836033D01*
X170464470Y-104836032D01*
X170464469Y-104836029D01*
X170450000Y-104689123D01*
X170450000Y-103590876D01*
X170464469Y-103443965D01*
X170521651Y-103255467D01*
X170614510Y-103081740D01*
X170739473Y-102929472D01*
X170891741Y-102804509D01*
X171065464Y-102711652D01*
X171065466Y-102711651D01*
X171253967Y-102654470D01*
X171253968Y-102654470D01*
X171253971Y-102654469D01*
X171450000Y-102635162D01*
X171646030Y-102654469D01*
X171646030Y-102654469D01*
G37*
G36*
X164026030Y-102654469D02*
X164026033Y-102654470D01*
X164026034Y-102654470D01*
X164214535Y-102711651D01*
X164214537Y-102711652D01*
X164388260Y-102804509D01*
X164540528Y-102929472D01*
X164665491Y-103081740D01*
X164665492Y-103081742D01*
X164758349Y-103255465D01*
X164815530Y-103443966D01*
X164815531Y-103443970D01*
X164830000Y-103590876D01*
X164830000Y-104689124D01*
X164815531Y-104836030D01*
X164758348Y-105024537D01*
X164665491Y-105198260D01*
X164540528Y-105350528D01*
X164388258Y-105475493D01*
X164214539Y-105568347D01*
X164214536Y-105568348D01*
X164214534Y-105568349D01*
X164026033Y-105625530D01*
X164026032Y-105625530D01*
X164026029Y-105625531D01*
X163830000Y-105644838D01*
X163633970Y-105625531D01*
X163633967Y-105625530D01*
X163633966Y-105625530D01*
X163445465Y-105568349D01*
X163292789Y-105486742D01*
X163271740Y-105475491D01*
X163119472Y-105350528D01*
X162994507Y-105198258D01*
X162901653Y-105024539D01*
X162844471Y-104836034D01*
X162844470Y-104836033D01*
X162844470Y-104836032D01*
X162844469Y-104836029D01*
X162830000Y-104689123D01*
X162830000Y-103590876D01*
X162844469Y-103443965D01*
X162901651Y-103255467D01*
X162994510Y-103081740D01*
X163119473Y-102929472D01*
X163271741Y-102804509D01*
X163445464Y-102711652D01*
X163445466Y-102711651D01*
X163633967Y-102654470D01*
X163633968Y-102654470D01*
X163633971Y-102654469D01*
X163830000Y-102635162D01*
X164026030Y-102654469D01*
X164026030Y-102654469D01*
G37*
G36*
X166566030Y-102654469D02*
X166566033Y-102654470D01*
X166566034Y-102654470D01*
X166754535Y-102711651D01*
X166754537Y-102711652D01*
X166928260Y-102804509D01*
X167080528Y-102929472D01*
X167205491Y-103081740D01*
X167205492Y-103081742D01*
X167298349Y-103255465D01*
X167355530Y-103443966D01*
X167355531Y-103443970D01*
X167370000Y-103590876D01*
X167370000Y-104689124D01*
X167355531Y-104836030D01*
X167298348Y-105024537D01*
X167205491Y-105198260D01*
X167080528Y-105350528D01*
X166928258Y-105475493D01*
X166754539Y-105568347D01*
X166754536Y-105568348D01*
X166754534Y-105568349D01*
X166566033Y-105625530D01*
X166566032Y-105625530D01*
X166566029Y-105625531D01*
X166370000Y-105644838D01*
X166173970Y-105625531D01*
X166173967Y-105625530D01*
X166173966Y-105625530D01*
X165985465Y-105568349D01*
X165832789Y-105486742D01*
X165811740Y-105475491D01*
X165659472Y-105350528D01*
X165534507Y-105198258D01*
X165441653Y-105024539D01*
X165384471Y-104836034D01*
X165384470Y-104836033D01*
X165384470Y-104836032D01*
X165384469Y-104836029D01*
X165370000Y-104689123D01*
X165370000Y-103590876D01*
X165384469Y-103443965D01*
X165441651Y-103255467D01*
X165534510Y-103081740D01*
X165659473Y-102929472D01*
X165811741Y-102804509D01*
X165985464Y-102711652D01*
X165985466Y-102711651D01*
X166173967Y-102654470D01*
X166173968Y-102654470D01*
X166173971Y-102654469D01*
X166370000Y-102635162D01*
X166566030Y-102654469D01*
X166566030Y-102654469D01*
G37*
G36*
X169106030Y-102654469D02*
X169106033Y-102654470D01*
X169106034Y-102654470D01*
X169294535Y-102711651D01*
X169294537Y-102711652D01*
X169468260Y-102804509D01*
X169620528Y-102929472D01*
X169745491Y-103081740D01*
X169745492Y-103081742D01*
X169838349Y-103255465D01*
X169895530Y-103443966D01*
X169895531Y-103443970D01*
X169910000Y-103590876D01*
X169910000Y-104689124D01*
X169895531Y-104836030D01*
X169838348Y-105024537D01*
X169745491Y-105198260D01*
X169620528Y-105350528D01*
X169468258Y-105475493D01*
X169294539Y-105568347D01*
X169294536Y-105568348D01*
X169294534Y-105568349D01*
X169106033Y-105625530D01*
X169106032Y-105625530D01*
X169106029Y-105625531D01*
X168910000Y-105644838D01*
X168713970Y-105625531D01*
X168713967Y-105625530D01*
X168713966Y-105625530D01*
X168525465Y-105568349D01*
X168372789Y-105486742D01*
X168351740Y-105475491D01*
X168199472Y-105350528D01*
X168074507Y-105198258D01*
X167981653Y-105024539D01*
X167924471Y-104836034D01*
X167924470Y-104836033D01*
X167924470Y-104836032D01*
X167924469Y-104836029D01*
X167910000Y-104689123D01*
X167910000Y-103590876D01*
X167924469Y-103443965D01*
X167981651Y-103255467D01*
X168074510Y-103081740D01*
X168199473Y-102929472D01*
X168351741Y-102804509D01*
X168525464Y-102711652D01*
X168525466Y-102711651D01*
X168713967Y-102654470D01*
X168713968Y-102654470D01*
X168713971Y-102654469D01*
X168910000Y-102635162D01*
X169106030Y-102654469D01*
X169106030Y-102654469D01*
G37*
G36*
X174186030Y-102654469D02*
X174186033Y-102654470D01*
X174186034Y-102654470D01*
X174374535Y-102711651D01*
X174374537Y-102711652D01*
X174548260Y-102804509D01*
X174700528Y-102929472D01*
X174825491Y-103081740D01*
X174825492Y-103081742D01*
X174918349Y-103255465D01*
X174975530Y-103443966D01*
X174975531Y-103443970D01*
X174990000Y-103590876D01*
X174990000Y-104689124D01*
X174975531Y-104836030D01*
X174918348Y-105024537D01*
X174825491Y-105198260D01*
X174700528Y-105350528D01*
X174548258Y-105475493D01*
X174374539Y-105568347D01*
X174374536Y-105568348D01*
X174374534Y-105568349D01*
X174186033Y-105625530D01*
X174186032Y-105625530D01*
X174186029Y-105625531D01*
X173990000Y-105644838D01*
X173793970Y-105625531D01*
X173793967Y-105625530D01*
X173793966Y-105625530D01*
X173605465Y-105568349D01*
X173452789Y-105486742D01*
X173431740Y-105475491D01*
X173279472Y-105350528D01*
X173154507Y-105198258D01*
X173061653Y-105024539D01*
X173004471Y-104836034D01*
X173004470Y-104836033D01*
X173004470Y-104836032D01*
X173004469Y-104836029D01*
X172990000Y-104689123D01*
X172990000Y-103590876D01*
X173004469Y-103443965D01*
X173061651Y-103255467D01*
X173154510Y-103081740D01*
X173279473Y-102929472D01*
X173431741Y-102804509D01*
X173605464Y-102711652D01*
X173605466Y-102711651D01*
X173793967Y-102654470D01*
X173793968Y-102654470D01*
X173793971Y-102654469D01*
X173990000Y-102635162D01*
X174186030Y-102654469D01*
X174186030Y-102654469D01*
G37*
G36*
X161486030Y-102654469D02*
X161486033Y-102654470D01*
X161486034Y-102654470D01*
X161674535Y-102711651D01*
X161674537Y-102711652D01*
X161848260Y-102804509D01*
X162000528Y-102929472D01*
X162125491Y-103081740D01*
X162125492Y-103081742D01*
X162218349Y-103255465D01*
X162275530Y-103443966D01*
X162275531Y-103443970D01*
X162290000Y-103590876D01*
X162290000Y-104689124D01*
X162275531Y-104836030D01*
X162218348Y-105024537D01*
X162125491Y-105198260D01*
X162000528Y-105350528D01*
X161848258Y-105475493D01*
X161674539Y-105568347D01*
X161674536Y-105568348D01*
X161674534Y-105568349D01*
X161486033Y-105625530D01*
X161486032Y-105625530D01*
X161486029Y-105625531D01*
X161290000Y-105644838D01*
X161093970Y-105625531D01*
X161093967Y-105625530D01*
X161093966Y-105625530D01*
X160905465Y-105568349D01*
X160752789Y-105486742D01*
X160731740Y-105475491D01*
X160579472Y-105350528D01*
X160454507Y-105198258D01*
X160361653Y-105024539D01*
X160304471Y-104836034D01*
X160304470Y-104836033D01*
X160304470Y-104836032D01*
X160304469Y-104836029D01*
X160290000Y-104689123D01*
X160290000Y-103590876D01*
X160304469Y-103443965D01*
X160361651Y-103255467D01*
X160454510Y-103081740D01*
X160579473Y-102929472D01*
X160731741Y-102804509D01*
X160905464Y-102711652D01*
X160905466Y-102711651D01*
X161093967Y-102654470D01*
X161093968Y-102654470D01*
X161093971Y-102654469D01*
X161290000Y-102635162D01*
X161486030Y-102654469D01*
X161486030Y-102654469D01*
G37*
G36*
X177530000Y-105640000D02*
X175530000Y-105640000D01*
X175530000Y-102640000D01*
X177530000Y-102640000D01*
X177530000Y-105640000D01*
X177530000Y-105640000D01*
G37*
G36*
X148016030Y-102519469D02*
X148016033Y-102519470D01*
X148016034Y-102519470D01*
X148204535Y-102576651D01*
X148204537Y-102576652D01*
X148378260Y-102669509D01*
X148530528Y-102794472D01*
X148655491Y-102946740D01*
X148655492Y-102946742D01*
X148748349Y-103120465D01*
X148789301Y-103255467D01*
X148805531Y-103308970D01*
X148824838Y-103505000D01*
X148805531Y-103701030D01*
X148748348Y-103889537D01*
X148655491Y-104063260D01*
X148530528Y-104215528D01*
X148378260Y-104340491D01*
X148378258Y-104340492D01*
X148204535Y-104433349D01*
X148016034Y-104490530D01*
X148016033Y-104490530D01*
X148016030Y-104490531D01*
X147869124Y-104505000D01*
X146770876Y-104505000D01*
X146623970Y-104490531D01*
X146623967Y-104490530D01*
X146623966Y-104490530D01*
X146435465Y-104433349D01*
X146261742Y-104340492D01*
X146261740Y-104340491D01*
X146109472Y-104215528D01*
X145984509Y-104063260D01*
X145891652Y-103889537D01*
X145834469Y-103701030D01*
X145815162Y-103505000D01*
X145834469Y-103308970D01*
X145850699Y-103255467D01*
X145891651Y-103120465D01*
X145984508Y-102946742D01*
X145984509Y-102946740D01*
X146109472Y-102794472D01*
X146261740Y-102669509D01*
X146435463Y-102576652D01*
X146435465Y-102576651D01*
X146623966Y-102519470D01*
X146623967Y-102519470D01*
X146623970Y-102519469D01*
X146770876Y-102505000D01*
X147869124Y-102505000D01*
X148016030Y-102519469D01*
X148016030Y-102519469D01*
G37*
G36*
X132776030Y-102519469D02*
X132776033Y-102519470D01*
X132776034Y-102519470D01*
X132964535Y-102576651D01*
X132964537Y-102576652D01*
X133138260Y-102669509D01*
X133290528Y-102794472D01*
X133415491Y-102946740D01*
X133415492Y-102946742D01*
X133508349Y-103120465D01*
X133549301Y-103255467D01*
X133565531Y-103308970D01*
X133584838Y-103505000D01*
X133565531Y-103701030D01*
X133508348Y-103889537D01*
X133415491Y-104063260D01*
X133290528Y-104215528D01*
X133138260Y-104340491D01*
X133138258Y-104340492D01*
X132964535Y-104433349D01*
X132776034Y-104490530D01*
X132776033Y-104490530D01*
X132776030Y-104490531D01*
X132629124Y-104505000D01*
X131530876Y-104505000D01*
X131383970Y-104490531D01*
X131383967Y-104490530D01*
X131383966Y-104490530D01*
X131195465Y-104433349D01*
X131021742Y-104340492D01*
X131021740Y-104340491D01*
X130869472Y-104215528D01*
X130744509Y-104063260D01*
X130651652Y-103889537D01*
X130594469Y-103701030D01*
X130575162Y-103505000D01*
X130594469Y-103308970D01*
X130610699Y-103255467D01*
X130651651Y-103120465D01*
X130744508Y-102946742D01*
X130744509Y-102946740D01*
X130869472Y-102794472D01*
X131021740Y-102669509D01*
X131195463Y-102576652D01*
X131195465Y-102576651D01*
X131383966Y-102519470D01*
X131383967Y-102519470D01*
X131383970Y-102519469D01*
X131530876Y-102505000D01*
X132629124Y-102505000D01*
X132776030Y-102519469D01*
X132776030Y-102519469D01*
G37*
G36*
X148016030Y-99979469D02*
X148016033Y-99979470D01*
X148016034Y-99979470D01*
X148204535Y-100036651D01*
X148204537Y-100036652D01*
X148378260Y-100129509D01*
X148530528Y-100254472D01*
X148655491Y-100406740D01*
X148655492Y-100406742D01*
X148748349Y-100580465D01*
X148789019Y-100714537D01*
X148805531Y-100768970D01*
X148824838Y-100965000D01*
X148805531Y-101161030D01*
X148805530Y-101161033D01*
X148805530Y-101161034D01*
X148754275Y-101330000D01*
X148748348Y-101349537D01*
X148655491Y-101523260D01*
X148530528Y-101675528D01*
X148378260Y-101800491D01*
X148378258Y-101800492D01*
X148204535Y-101893349D01*
X148016034Y-101950530D01*
X148016033Y-101950530D01*
X148016030Y-101950531D01*
X147869124Y-101965000D01*
X146770876Y-101965000D01*
X146623970Y-101950531D01*
X146623967Y-101950530D01*
X146623966Y-101950530D01*
X146435465Y-101893349D01*
X146261742Y-101800492D01*
X146261740Y-101800491D01*
X146109472Y-101675528D01*
X145984509Y-101523260D01*
X145891652Y-101349537D01*
X145885726Y-101330000D01*
X145834470Y-101161034D01*
X145834470Y-101161033D01*
X145834469Y-101161030D01*
X145815162Y-100965000D01*
X145834469Y-100768970D01*
X145850981Y-100714537D01*
X145891651Y-100580465D01*
X145984508Y-100406742D01*
X145984509Y-100406740D01*
X146109472Y-100254472D01*
X146261740Y-100129509D01*
X146435463Y-100036652D01*
X146435465Y-100036651D01*
X146623966Y-99979470D01*
X146623967Y-99979470D01*
X146623970Y-99979469D01*
X146770876Y-99965000D01*
X147869124Y-99965000D01*
X148016030Y-99979469D01*
X148016030Y-99979469D01*
G37*
G36*
X132776030Y-99979469D02*
X132776033Y-99979470D01*
X132776034Y-99979470D01*
X132964535Y-100036651D01*
X132964537Y-100036652D01*
X133138260Y-100129509D01*
X133290528Y-100254472D01*
X133415491Y-100406740D01*
X133415492Y-100406742D01*
X133508349Y-100580465D01*
X133549019Y-100714537D01*
X133565531Y-100768970D01*
X133584838Y-100965000D01*
X133565531Y-101161030D01*
X133565530Y-101161033D01*
X133565530Y-101161034D01*
X133514275Y-101330000D01*
X133508348Y-101349537D01*
X133415491Y-101523260D01*
X133290528Y-101675528D01*
X133138260Y-101800491D01*
X133138258Y-101800492D01*
X132964535Y-101893349D01*
X132776034Y-101950530D01*
X132776033Y-101950530D01*
X132776030Y-101950531D01*
X132629124Y-101965000D01*
X131530876Y-101965000D01*
X131383970Y-101950531D01*
X131383967Y-101950530D01*
X131383966Y-101950530D01*
X131195465Y-101893349D01*
X131021742Y-101800492D01*
X131021740Y-101800491D01*
X130869472Y-101675528D01*
X130744509Y-101523260D01*
X130651652Y-101349537D01*
X130645726Y-101330000D01*
X130594470Y-101161034D01*
X130594470Y-101161033D01*
X130594469Y-101161030D01*
X130575162Y-100965000D01*
X130594469Y-100768970D01*
X130610981Y-100714537D01*
X130651651Y-100580465D01*
X130744508Y-100406742D01*
X130744509Y-100406740D01*
X130869472Y-100254472D01*
X131021740Y-100129509D01*
X131195463Y-100036652D01*
X131195465Y-100036651D01*
X131383966Y-99979470D01*
X131383967Y-99979470D01*
X131383970Y-99979469D01*
X131530876Y-99965000D01*
X132629124Y-99965000D01*
X132776030Y-99979469D01*
X132776030Y-99979469D01*
G37*
G36*
X122616030Y-99344469D02*
X122616033Y-99344470D01*
X122616034Y-99344470D01*
X122804535Y-99401651D01*
X122804537Y-99401652D01*
X122978260Y-99494509D01*
X123130528Y-99619472D01*
X123255491Y-99771740D01*
X123255492Y-99771742D01*
X123348349Y-99945465D01*
X123404178Y-100129509D01*
X123405531Y-100133970D01*
X123424838Y-100330000D01*
X123405531Y-100526030D01*
X123405530Y-100526033D01*
X123405530Y-100526034D01*
X123389019Y-100580465D01*
X123348348Y-100714537D01*
X123255491Y-100888260D01*
X123130528Y-101040528D01*
X122978260Y-101165491D01*
X122978258Y-101165492D01*
X122804535Y-101258349D01*
X122616034Y-101315530D01*
X122616033Y-101315530D01*
X122616030Y-101315531D01*
X122469124Y-101330000D01*
X121370876Y-101330000D01*
X121223970Y-101315531D01*
X121223967Y-101315530D01*
X121223966Y-101315530D01*
X121035465Y-101258349D01*
X120861742Y-101165492D01*
X120861740Y-101165491D01*
X120709472Y-101040528D01*
X120584509Y-100888260D01*
X120491652Y-100714537D01*
X120450982Y-100580465D01*
X120434470Y-100526034D01*
X120434470Y-100526033D01*
X120434469Y-100526030D01*
X120415162Y-100330000D01*
X120434469Y-100133970D01*
X120435822Y-100129509D01*
X120491651Y-99945465D01*
X120584508Y-99771742D01*
X120584509Y-99771740D01*
X120709472Y-99619472D01*
X120861740Y-99494509D01*
X121035463Y-99401652D01*
X121035465Y-99401651D01*
X121223966Y-99344470D01*
X121223967Y-99344470D01*
X121223970Y-99344469D01*
X121370876Y-99330000D01*
X122469124Y-99330000D01*
X122616030Y-99344469D01*
X122616030Y-99344469D01*
G37*
G36*
X114996030Y-99344469D02*
X114996033Y-99344470D01*
X114996034Y-99344470D01*
X115184535Y-99401651D01*
X115184537Y-99401652D01*
X115358260Y-99494509D01*
X115510528Y-99619472D01*
X115635491Y-99771740D01*
X115635492Y-99771742D01*
X115728349Y-99945465D01*
X115784178Y-100129509D01*
X115785531Y-100133970D01*
X115804838Y-100330000D01*
X115785531Y-100526030D01*
X115785530Y-100526033D01*
X115785530Y-100526034D01*
X115769019Y-100580465D01*
X115728348Y-100714537D01*
X115635491Y-100888260D01*
X115510528Y-101040528D01*
X115358260Y-101165491D01*
X115358258Y-101165492D01*
X115184535Y-101258349D01*
X114996034Y-101315530D01*
X114996033Y-101315530D01*
X114996030Y-101315531D01*
X114849124Y-101330000D01*
X113750876Y-101330000D01*
X113603970Y-101315531D01*
X113603967Y-101315530D01*
X113603966Y-101315530D01*
X113415465Y-101258349D01*
X113241742Y-101165492D01*
X113241740Y-101165491D01*
X113089472Y-101040528D01*
X112964509Y-100888260D01*
X112871652Y-100714537D01*
X112830982Y-100580465D01*
X112814470Y-100526034D01*
X112814470Y-100526033D01*
X112814469Y-100526030D01*
X112795162Y-100330000D01*
X112814469Y-100133970D01*
X112815822Y-100129509D01*
X112871651Y-99945465D01*
X112964508Y-99771742D01*
X112964509Y-99771740D01*
X113089472Y-99619472D01*
X113241740Y-99494509D01*
X113415463Y-99401652D01*
X113415465Y-99401651D01*
X113603966Y-99344470D01*
X113603967Y-99344470D01*
X113603970Y-99344469D01*
X113750876Y-99330000D01*
X114849124Y-99330000D01*
X114996030Y-99344469D01*
X114996030Y-99344469D01*
G37*
G36*
X133580000Y-99425000D02*
X130580000Y-99425000D01*
X130580000Y-97425000D01*
X133580000Y-97425000D01*
X133580000Y-99425000D01*
X133580000Y-99425000D01*
G37*
G36*
X148820000Y-99425000D02*
X145820000Y-99425000D01*
X145820000Y-97425000D01*
X148820000Y-97425000D01*
X148820000Y-99425000D01*
X148820000Y-99425000D01*
G37*
G36*
X122616030Y-96804469D02*
X122616033Y-96804470D01*
X122616034Y-96804470D01*
X122804535Y-96861651D01*
X122804537Y-96861652D01*
X122978260Y-96954509D01*
X123130528Y-97079472D01*
X123255491Y-97231740D01*
X123255492Y-97231742D01*
X123348349Y-97405465D01*
X123405530Y-97593966D01*
X123405531Y-97593970D01*
X123424838Y-97790000D01*
X123405531Y-97986030D01*
X123348348Y-98174537D01*
X123255491Y-98348260D01*
X123130528Y-98500528D01*
X122978260Y-98625491D01*
X122978258Y-98625492D01*
X122804535Y-98718349D01*
X122616034Y-98775530D01*
X122616033Y-98775530D01*
X122616030Y-98775531D01*
X122469124Y-98790000D01*
X121370876Y-98790000D01*
X121223970Y-98775531D01*
X121223967Y-98775530D01*
X121223966Y-98775530D01*
X121035465Y-98718349D01*
X120861742Y-98625492D01*
X120861740Y-98625491D01*
X120709472Y-98500528D01*
X120584509Y-98348260D01*
X120491652Y-98174537D01*
X120434469Y-97986030D01*
X120415162Y-97790000D01*
X120434469Y-97593970D01*
X120434470Y-97593966D01*
X120491651Y-97405465D01*
X120584508Y-97231742D01*
X120584509Y-97231740D01*
X120709472Y-97079472D01*
X120861740Y-96954509D01*
X121035463Y-96861652D01*
X121035465Y-96861651D01*
X121223966Y-96804470D01*
X121223967Y-96804470D01*
X121223970Y-96804469D01*
X121370876Y-96790000D01*
X122469124Y-96790000D01*
X122616030Y-96804469D01*
X122616030Y-96804469D01*
G37*
G36*
X114996030Y-96804469D02*
X114996033Y-96804470D01*
X114996034Y-96804470D01*
X115184535Y-96861651D01*
X115184537Y-96861652D01*
X115358260Y-96954509D01*
X115510528Y-97079472D01*
X115635491Y-97231740D01*
X115635492Y-97231742D01*
X115728349Y-97405465D01*
X115785530Y-97593966D01*
X115785531Y-97593970D01*
X115804838Y-97790000D01*
X115785531Y-97986030D01*
X115728348Y-98174537D01*
X115635491Y-98348260D01*
X115510528Y-98500528D01*
X115358260Y-98625491D01*
X115358258Y-98625492D01*
X115184535Y-98718349D01*
X114996034Y-98775530D01*
X114996033Y-98775530D01*
X114996030Y-98775531D01*
X114849124Y-98790000D01*
X113750876Y-98790000D01*
X113603970Y-98775531D01*
X113603967Y-98775530D01*
X113603966Y-98775530D01*
X113415465Y-98718349D01*
X113241742Y-98625492D01*
X113241740Y-98625491D01*
X113089472Y-98500528D01*
X112964509Y-98348260D01*
X112871652Y-98174537D01*
X112814469Y-97986030D01*
X112795162Y-97790000D01*
X112814469Y-97593970D01*
X112814470Y-97593966D01*
X112871651Y-97405465D01*
X112964508Y-97231742D01*
X112964509Y-97231740D01*
X113089472Y-97079472D01*
X113241740Y-96954509D01*
X113415463Y-96861652D01*
X113415465Y-96861651D01*
X113603966Y-96804470D01*
X113603967Y-96804470D01*
X113603970Y-96804469D01*
X113750876Y-96790000D01*
X114849124Y-96790000D01*
X114996030Y-96804469D01*
X114996030Y-96804469D01*
G37*
G36*
X122616030Y-94264469D02*
X122616033Y-94264470D01*
X122616034Y-94264470D01*
X122804535Y-94321651D01*
X122804537Y-94321652D01*
X122978260Y-94414509D01*
X123130528Y-94539472D01*
X123255491Y-94691740D01*
X123348348Y-94865463D01*
X123405531Y-95053970D01*
X123424838Y-95250000D01*
X123405531Y-95446030D01*
X123348348Y-95634537D01*
X123255491Y-95808260D01*
X123130528Y-95960528D01*
X122978260Y-96085491D01*
X122978258Y-96085492D01*
X122804535Y-96178349D01*
X122616034Y-96235530D01*
X122616033Y-96235530D01*
X122616030Y-96235531D01*
X122469124Y-96250000D01*
X121370876Y-96250000D01*
X121223970Y-96235531D01*
X121223967Y-96235530D01*
X121223966Y-96235530D01*
X121035465Y-96178349D01*
X120861742Y-96085492D01*
X120861740Y-96085491D01*
X120709472Y-95960528D01*
X120584509Y-95808260D01*
X120491652Y-95634537D01*
X120434469Y-95446030D01*
X120415162Y-95250000D01*
X120434469Y-95053970D01*
X120491652Y-94865463D01*
X120584509Y-94691740D01*
X120709472Y-94539472D01*
X120861740Y-94414509D01*
X121035463Y-94321652D01*
X121035465Y-94321651D01*
X121223966Y-94264470D01*
X121223967Y-94264470D01*
X121223970Y-94264469D01*
X121370876Y-94250000D01*
X122469124Y-94250000D01*
X122616030Y-94264469D01*
X122616030Y-94264469D01*
G37*
G36*
X114996030Y-94264469D02*
X114996033Y-94264470D01*
X114996034Y-94264470D01*
X115184535Y-94321651D01*
X115184537Y-94321652D01*
X115358260Y-94414509D01*
X115510528Y-94539472D01*
X115635491Y-94691740D01*
X115728348Y-94865463D01*
X115785531Y-95053970D01*
X115804838Y-95250000D01*
X115785531Y-95446030D01*
X115728348Y-95634537D01*
X115635491Y-95808260D01*
X115510528Y-95960528D01*
X115358260Y-96085491D01*
X115358258Y-96085492D01*
X115184535Y-96178349D01*
X114996034Y-96235530D01*
X114996033Y-96235530D01*
X114996030Y-96235531D01*
X114849124Y-96250000D01*
X113750876Y-96250000D01*
X113603970Y-96235531D01*
X113603967Y-96235530D01*
X113603966Y-96235530D01*
X113415465Y-96178349D01*
X113241742Y-96085492D01*
X113241740Y-96085491D01*
X113089472Y-95960528D01*
X112964509Y-95808260D01*
X112871652Y-95634537D01*
X112814469Y-95446030D01*
X112795162Y-95250000D01*
X112814469Y-95053970D01*
X112871652Y-94865463D01*
X112964509Y-94691740D01*
X113089472Y-94539472D01*
X113241740Y-94414509D01*
X113415463Y-94321652D01*
X113415465Y-94321651D01*
X113603966Y-94264470D01*
X113603967Y-94264470D01*
X113603970Y-94264469D01*
X113750876Y-94250000D01*
X114849124Y-94250000D01*
X114996030Y-94264469D01*
X114996030Y-94264469D01*
G37*
G36*
X142436029Y-91224469D02*
X142436032Y-91224470D01*
X142436033Y-91224470D01*
X142624534Y-91281651D01*
X142624536Y-91281652D01*
X142624539Y-91281653D01*
X142798258Y-91374507D01*
X142950528Y-91499472D01*
X143075491Y-91651740D01*
X143168348Y-91825463D01*
X143225531Y-92013970D01*
X143240000Y-92160876D01*
X143240000Y-93259124D01*
X143225531Y-93406030D01*
X143225530Y-93406033D01*
X143225530Y-93406034D01*
X143168350Y-93594533D01*
X143168348Y-93594537D01*
X143075491Y-93768260D01*
X142950528Y-93920528D01*
X142798260Y-94045491D01*
X142798258Y-94045492D01*
X142624535Y-94138349D01*
X142436034Y-94195530D01*
X142436033Y-94195530D01*
X142436030Y-94195531D01*
X142240000Y-94214838D01*
X142043971Y-94195531D01*
X142043968Y-94195530D01*
X142043967Y-94195530D01*
X141855466Y-94138349D01*
X141681743Y-94045492D01*
X141681741Y-94045491D01*
X141529473Y-93920528D01*
X141404510Y-93768260D01*
X141311651Y-93594533D01*
X141254469Y-93406035D01*
X141240000Y-93259124D01*
X141240000Y-92160877D01*
X141254469Y-92013971D01*
X141254470Y-92013967D01*
X141311651Y-91825466D01*
X141311652Y-91825464D01*
X141311653Y-91825461D01*
X141404507Y-91651742D01*
X141529472Y-91499472D01*
X141681740Y-91374509D01*
X141855463Y-91281652D01*
X141855465Y-91281651D01*
X142043966Y-91224470D01*
X142043967Y-91224470D01*
X142043970Y-91224469D01*
X142240000Y-91205162D01*
X142436029Y-91224469D01*
X142436029Y-91224469D01*
G37*
G36*
X144976029Y-91224469D02*
X144976032Y-91224470D01*
X144976033Y-91224470D01*
X145164534Y-91281651D01*
X145164536Y-91281652D01*
X145164539Y-91281653D01*
X145338258Y-91374507D01*
X145490528Y-91499472D01*
X145615491Y-91651740D01*
X145708348Y-91825463D01*
X145765531Y-92013970D01*
X145780000Y-92160876D01*
X145780000Y-93259124D01*
X145765531Y-93406030D01*
X145765530Y-93406033D01*
X145765530Y-93406034D01*
X145708350Y-93594533D01*
X145708348Y-93594537D01*
X145615491Y-93768260D01*
X145490528Y-93920528D01*
X145338260Y-94045491D01*
X145338258Y-94045492D01*
X145164535Y-94138349D01*
X144976034Y-94195530D01*
X144976033Y-94195530D01*
X144976030Y-94195531D01*
X144780000Y-94214838D01*
X144583971Y-94195531D01*
X144583968Y-94195530D01*
X144583967Y-94195530D01*
X144395466Y-94138349D01*
X144221743Y-94045492D01*
X144221741Y-94045491D01*
X144069473Y-93920528D01*
X143944510Y-93768260D01*
X143851651Y-93594533D01*
X143794469Y-93406035D01*
X143780000Y-93259124D01*
X143780000Y-92160877D01*
X143794469Y-92013971D01*
X143794470Y-92013967D01*
X143851651Y-91825466D01*
X143851652Y-91825464D01*
X143851653Y-91825461D01*
X143944507Y-91651742D01*
X144069472Y-91499472D01*
X144221740Y-91374509D01*
X144395463Y-91281652D01*
X144395465Y-91281651D01*
X144583966Y-91224470D01*
X144583967Y-91224470D01*
X144583970Y-91224469D01*
X144780000Y-91205162D01*
X144976029Y-91224469D01*
X144976029Y-91224469D01*
G37*
G36*
X147516029Y-91224469D02*
X147516032Y-91224470D01*
X147516033Y-91224470D01*
X147704534Y-91281651D01*
X147704536Y-91281652D01*
X147704539Y-91281653D01*
X147878258Y-91374507D01*
X148030528Y-91499472D01*
X148155491Y-91651740D01*
X148248348Y-91825463D01*
X148305531Y-92013970D01*
X148320000Y-92160876D01*
X148320000Y-93259124D01*
X148305531Y-93406030D01*
X148305530Y-93406033D01*
X148305530Y-93406034D01*
X148248350Y-93594533D01*
X148248348Y-93594537D01*
X148155491Y-93768260D01*
X148030528Y-93920528D01*
X147878260Y-94045491D01*
X147878258Y-94045492D01*
X147704535Y-94138349D01*
X147516034Y-94195530D01*
X147516033Y-94195530D01*
X147516030Y-94195531D01*
X147320000Y-94214838D01*
X147123971Y-94195531D01*
X147123968Y-94195530D01*
X147123967Y-94195530D01*
X146935466Y-94138349D01*
X146761743Y-94045492D01*
X146761741Y-94045491D01*
X146609473Y-93920528D01*
X146484510Y-93768260D01*
X146391651Y-93594533D01*
X146334469Y-93406035D01*
X146320000Y-93259124D01*
X146320000Y-92160877D01*
X146334469Y-92013971D01*
X146334470Y-92013967D01*
X146391651Y-91825466D01*
X146391652Y-91825464D01*
X146391653Y-91825461D01*
X146484507Y-91651742D01*
X146609472Y-91499472D01*
X146761740Y-91374509D01*
X146935463Y-91281652D01*
X146935465Y-91281651D01*
X147123966Y-91224470D01*
X147123967Y-91224470D01*
X147123970Y-91224469D01*
X147320000Y-91205162D01*
X147516029Y-91224469D01*
X147516029Y-91224469D01*
G37*
G36*
X164026029Y-91224469D02*
X164026032Y-91224470D01*
X164026033Y-91224470D01*
X164214534Y-91281651D01*
X164214536Y-91281652D01*
X164214539Y-91281653D01*
X164388258Y-91374507D01*
X164540528Y-91499472D01*
X164665491Y-91651740D01*
X164758348Y-91825463D01*
X164815531Y-92013970D01*
X164830000Y-92160876D01*
X164830000Y-93259124D01*
X164815531Y-93406030D01*
X164815530Y-93406033D01*
X164815530Y-93406034D01*
X164758350Y-93594533D01*
X164758348Y-93594537D01*
X164665491Y-93768260D01*
X164540528Y-93920528D01*
X164388260Y-94045491D01*
X164388258Y-94045492D01*
X164214535Y-94138349D01*
X164026034Y-94195530D01*
X164026033Y-94195530D01*
X164026030Y-94195531D01*
X163830000Y-94214838D01*
X163633971Y-94195531D01*
X163633968Y-94195530D01*
X163633967Y-94195530D01*
X163445466Y-94138349D01*
X163271743Y-94045492D01*
X163271741Y-94045491D01*
X163119473Y-93920528D01*
X162994510Y-93768260D01*
X162901651Y-93594533D01*
X162844469Y-93406035D01*
X162830000Y-93259124D01*
X162830000Y-92160877D01*
X162844469Y-92013971D01*
X162844470Y-92013967D01*
X162901651Y-91825466D01*
X162901652Y-91825464D01*
X162901653Y-91825461D01*
X162994507Y-91651742D01*
X163119472Y-91499472D01*
X163271740Y-91374509D01*
X163445463Y-91281652D01*
X163445465Y-91281651D01*
X163633966Y-91224470D01*
X163633967Y-91224470D01*
X163633970Y-91224469D01*
X163830000Y-91205162D01*
X164026029Y-91224469D01*
X164026029Y-91224469D01*
G37*
G36*
X137356029Y-91224469D02*
X137356032Y-91224470D01*
X137356033Y-91224470D01*
X137544534Y-91281651D01*
X137544536Y-91281652D01*
X137544539Y-91281653D01*
X137718258Y-91374507D01*
X137870528Y-91499472D01*
X137995491Y-91651740D01*
X138088348Y-91825463D01*
X138145531Y-92013970D01*
X138160000Y-92160876D01*
X138160000Y-93259124D01*
X138145531Y-93406030D01*
X138145530Y-93406033D01*
X138145530Y-93406034D01*
X138088350Y-93594533D01*
X138088348Y-93594537D01*
X137995491Y-93768260D01*
X137870528Y-93920528D01*
X137718260Y-94045491D01*
X137718258Y-94045492D01*
X137544535Y-94138349D01*
X137356034Y-94195530D01*
X137356033Y-94195530D01*
X137356030Y-94195531D01*
X137160000Y-94214838D01*
X136963971Y-94195531D01*
X136963968Y-94195530D01*
X136963967Y-94195530D01*
X136775466Y-94138349D01*
X136601743Y-94045492D01*
X136601741Y-94045491D01*
X136449473Y-93920528D01*
X136324510Y-93768260D01*
X136231651Y-93594533D01*
X136174469Y-93406035D01*
X136160000Y-93259124D01*
X136160000Y-92160877D01*
X136174469Y-92013971D01*
X136174470Y-92013967D01*
X136231651Y-91825466D01*
X136231652Y-91825464D01*
X136231653Y-91825461D01*
X136324507Y-91651742D01*
X136449472Y-91499472D01*
X136601740Y-91374509D01*
X136775463Y-91281652D01*
X136775465Y-91281651D01*
X136963966Y-91224470D01*
X136963967Y-91224470D01*
X136963970Y-91224469D01*
X137160000Y-91205162D01*
X137356029Y-91224469D01*
X137356029Y-91224469D01*
G37*
G36*
X174186029Y-91224469D02*
X174186032Y-91224470D01*
X174186033Y-91224470D01*
X174374534Y-91281651D01*
X174374536Y-91281652D01*
X174374539Y-91281653D01*
X174548258Y-91374507D01*
X174700528Y-91499472D01*
X174825491Y-91651740D01*
X174918348Y-91825463D01*
X174975531Y-92013970D01*
X174990000Y-92160876D01*
X174990000Y-93259124D01*
X174975531Y-93406030D01*
X174975530Y-93406033D01*
X174975530Y-93406034D01*
X174918350Y-93594533D01*
X174918348Y-93594537D01*
X174825491Y-93768260D01*
X174700528Y-93920528D01*
X174548260Y-94045491D01*
X174548258Y-94045492D01*
X174374535Y-94138349D01*
X174186034Y-94195530D01*
X174186033Y-94195530D01*
X174186030Y-94195531D01*
X173990000Y-94214838D01*
X173793971Y-94195531D01*
X173793968Y-94195530D01*
X173793967Y-94195530D01*
X173605466Y-94138349D01*
X173431743Y-94045492D01*
X173431741Y-94045491D01*
X173279473Y-93920528D01*
X173154510Y-93768260D01*
X173061651Y-93594533D01*
X173004469Y-93406035D01*
X172990000Y-93259124D01*
X172990000Y-92160877D01*
X173004469Y-92013971D01*
X173004470Y-92013967D01*
X173061651Y-91825466D01*
X173061652Y-91825464D01*
X173061653Y-91825461D01*
X173154507Y-91651742D01*
X173279472Y-91499472D01*
X173431740Y-91374509D01*
X173605463Y-91281652D01*
X173605465Y-91281651D01*
X173793966Y-91224470D01*
X173793967Y-91224470D01*
X173793970Y-91224469D01*
X173990000Y-91205162D01*
X174186029Y-91224469D01*
X174186029Y-91224469D01*
G37*
G36*
X169106029Y-91224469D02*
X169106032Y-91224470D01*
X169106033Y-91224470D01*
X169294534Y-91281651D01*
X169294536Y-91281652D01*
X169294539Y-91281653D01*
X169468258Y-91374507D01*
X169620528Y-91499472D01*
X169745491Y-91651740D01*
X169838348Y-91825463D01*
X169895531Y-92013970D01*
X169910000Y-92160876D01*
X169910000Y-93259124D01*
X169895531Y-93406030D01*
X169895530Y-93406033D01*
X169895530Y-93406034D01*
X169838350Y-93594533D01*
X169838348Y-93594537D01*
X169745491Y-93768260D01*
X169620528Y-93920528D01*
X169468260Y-94045491D01*
X169468258Y-94045492D01*
X169294535Y-94138349D01*
X169106034Y-94195530D01*
X169106033Y-94195530D01*
X169106030Y-94195531D01*
X168910000Y-94214838D01*
X168713971Y-94195531D01*
X168713968Y-94195530D01*
X168713967Y-94195530D01*
X168525466Y-94138349D01*
X168351743Y-94045492D01*
X168351741Y-94045491D01*
X168199473Y-93920528D01*
X168074510Y-93768260D01*
X167981651Y-93594533D01*
X167924469Y-93406035D01*
X167910000Y-93259124D01*
X167910000Y-92160877D01*
X167924469Y-92013971D01*
X167924470Y-92013967D01*
X167981651Y-91825466D01*
X167981652Y-91825464D01*
X167981653Y-91825461D01*
X168074507Y-91651742D01*
X168199472Y-91499472D01*
X168351740Y-91374509D01*
X168525463Y-91281652D01*
X168525465Y-91281651D01*
X168713966Y-91224470D01*
X168713967Y-91224470D01*
X168713970Y-91224469D01*
X168910000Y-91205162D01*
X169106029Y-91224469D01*
X169106029Y-91224469D01*
G37*
G36*
X166566029Y-91224469D02*
X166566032Y-91224470D01*
X166566033Y-91224470D01*
X166754534Y-91281651D01*
X166754536Y-91281652D01*
X166754539Y-91281653D01*
X166928258Y-91374507D01*
X167080528Y-91499472D01*
X167205491Y-91651740D01*
X167298348Y-91825463D01*
X167355531Y-92013970D01*
X167370000Y-92160876D01*
X167370000Y-93259124D01*
X167355531Y-93406030D01*
X167355530Y-93406033D01*
X167355530Y-93406034D01*
X167298350Y-93594533D01*
X167298348Y-93594537D01*
X167205491Y-93768260D01*
X167080528Y-93920528D01*
X166928260Y-94045491D01*
X166928258Y-94045492D01*
X166754535Y-94138349D01*
X166566034Y-94195530D01*
X166566033Y-94195530D01*
X166566030Y-94195531D01*
X166370000Y-94214838D01*
X166173971Y-94195531D01*
X166173968Y-94195530D01*
X166173967Y-94195530D01*
X165985466Y-94138349D01*
X165811743Y-94045492D01*
X165811741Y-94045491D01*
X165659473Y-93920528D01*
X165534510Y-93768260D01*
X165441651Y-93594533D01*
X165384469Y-93406035D01*
X165370000Y-93259124D01*
X165370000Y-92160877D01*
X165384469Y-92013971D01*
X165384470Y-92013967D01*
X165441651Y-91825466D01*
X165441652Y-91825464D01*
X165441653Y-91825461D01*
X165534507Y-91651742D01*
X165659472Y-91499472D01*
X165811740Y-91374509D01*
X165985463Y-91281652D01*
X165985465Y-91281651D01*
X166173966Y-91224470D01*
X166173967Y-91224470D01*
X166173970Y-91224469D01*
X166370000Y-91205162D01*
X166566029Y-91224469D01*
X166566029Y-91224469D01*
G37*
G36*
X134816029Y-91224469D02*
X134816032Y-91224470D01*
X134816033Y-91224470D01*
X135004534Y-91281651D01*
X135004536Y-91281652D01*
X135004539Y-91281653D01*
X135178258Y-91374507D01*
X135330528Y-91499472D01*
X135455491Y-91651740D01*
X135548348Y-91825463D01*
X135605531Y-92013970D01*
X135620000Y-92160876D01*
X135620000Y-93259124D01*
X135605531Y-93406030D01*
X135605530Y-93406033D01*
X135605530Y-93406034D01*
X135548350Y-93594533D01*
X135548348Y-93594537D01*
X135455491Y-93768260D01*
X135330528Y-93920528D01*
X135178260Y-94045491D01*
X135178258Y-94045492D01*
X135004535Y-94138349D01*
X134816034Y-94195530D01*
X134816033Y-94195530D01*
X134816030Y-94195531D01*
X134620000Y-94214838D01*
X134423971Y-94195531D01*
X134423968Y-94195530D01*
X134423967Y-94195530D01*
X134235466Y-94138349D01*
X134061743Y-94045492D01*
X134061741Y-94045491D01*
X133909473Y-93920528D01*
X133784510Y-93768260D01*
X133691651Y-93594533D01*
X133634469Y-93406035D01*
X133620000Y-93259124D01*
X133620000Y-92160877D01*
X133634469Y-92013971D01*
X133634470Y-92013967D01*
X133691651Y-91825466D01*
X133691652Y-91825464D01*
X133691653Y-91825461D01*
X133784507Y-91651742D01*
X133909472Y-91499472D01*
X134061740Y-91374509D01*
X134235463Y-91281652D01*
X134235465Y-91281651D01*
X134423966Y-91224470D01*
X134423967Y-91224470D01*
X134423970Y-91224469D01*
X134620000Y-91205162D01*
X134816029Y-91224469D01*
X134816029Y-91224469D01*
G37*
G36*
X139896029Y-91224469D02*
X139896032Y-91224470D01*
X139896033Y-91224470D01*
X140084534Y-91281651D01*
X140084536Y-91281652D01*
X140084539Y-91281653D01*
X140258258Y-91374507D01*
X140410528Y-91499472D01*
X140535491Y-91651740D01*
X140628348Y-91825463D01*
X140685531Y-92013970D01*
X140700000Y-92160876D01*
X140700000Y-93259124D01*
X140685531Y-93406030D01*
X140685530Y-93406033D01*
X140685530Y-93406034D01*
X140628350Y-93594533D01*
X140628348Y-93594537D01*
X140535491Y-93768260D01*
X140410528Y-93920528D01*
X140258260Y-94045491D01*
X140258258Y-94045492D01*
X140084535Y-94138349D01*
X139896034Y-94195530D01*
X139896033Y-94195530D01*
X139896030Y-94195531D01*
X139700000Y-94214838D01*
X139503971Y-94195531D01*
X139503968Y-94195530D01*
X139503967Y-94195530D01*
X139315466Y-94138349D01*
X139141743Y-94045492D01*
X139141741Y-94045491D01*
X138989473Y-93920528D01*
X138864510Y-93768260D01*
X138771651Y-93594533D01*
X138714469Y-93406035D01*
X138700000Y-93259124D01*
X138700000Y-92160877D01*
X138714469Y-92013971D01*
X138714470Y-92013967D01*
X138771651Y-91825466D01*
X138771652Y-91825464D01*
X138771653Y-91825461D01*
X138864507Y-91651742D01*
X138989472Y-91499472D01*
X139141740Y-91374509D01*
X139315463Y-91281652D01*
X139315465Y-91281651D01*
X139503966Y-91224470D01*
X139503967Y-91224470D01*
X139503970Y-91224469D01*
X139700000Y-91205162D01*
X139896029Y-91224469D01*
X139896029Y-91224469D01*
G37*
G36*
X176726029Y-91224469D02*
X176726032Y-91224470D01*
X176726033Y-91224470D01*
X176914534Y-91281651D01*
X176914536Y-91281652D01*
X176914539Y-91281653D01*
X177088258Y-91374507D01*
X177240528Y-91499472D01*
X177365491Y-91651740D01*
X177458348Y-91825463D01*
X177515531Y-92013970D01*
X177530000Y-92160876D01*
X177530000Y-93259124D01*
X177515531Y-93406030D01*
X177515530Y-93406033D01*
X177515530Y-93406034D01*
X177458350Y-93594533D01*
X177458348Y-93594537D01*
X177365491Y-93768260D01*
X177240528Y-93920528D01*
X177088260Y-94045491D01*
X177088258Y-94045492D01*
X176914535Y-94138349D01*
X176726034Y-94195530D01*
X176726033Y-94195530D01*
X176726030Y-94195531D01*
X176530000Y-94214838D01*
X176333971Y-94195531D01*
X176333968Y-94195530D01*
X176333967Y-94195530D01*
X176145466Y-94138349D01*
X175971743Y-94045492D01*
X175971741Y-94045491D01*
X175819473Y-93920528D01*
X175694510Y-93768260D01*
X175601651Y-93594533D01*
X175544469Y-93406035D01*
X175530000Y-93259124D01*
X175530000Y-92160877D01*
X175544469Y-92013971D01*
X175544470Y-92013967D01*
X175601651Y-91825466D01*
X175601652Y-91825464D01*
X175601653Y-91825461D01*
X175694507Y-91651742D01*
X175819472Y-91499472D01*
X175971740Y-91374509D01*
X176145463Y-91281652D01*
X176145465Y-91281651D01*
X176333966Y-91224470D01*
X176333967Y-91224470D01*
X176333970Y-91224469D01*
X176530000Y-91205162D01*
X176726029Y-91224469D01*
X176726029Y-91224469D01*
G37*
G36*
X171646029Y-91224469D02*
X171646032Y-91224470D01*
X171646033Y-91224470D01*
X171834534Y-91281651D01*
X171834536Y-91281652D01*
X171834539Y-91281653D01*
X172008258Y-91374507D01*
X172160528Y-91499472D01*
X172285491Y-91651740D01*
X172378348Y-91825463D01*
X172435531Y-92013970D01*
X172450000Y-92160876D01*
X172450000Y-93259124D01*
X172435531Y-93406030D01*
X172435530Y-93406033D01*
X172435530Y-93406034D01*
X172378350Y-93594533D01*
X172378348Y-93594537D01*
X172285491Y-93768260D01*
X172160528Y-93920528D01*
X172008260Y-94045491D01*
X172008258Y-94045492D01*
X171834535Y-94138349D01*
X171646034Y-94195530D01*
X171646033Y-94195530D01*
X171646030Y-94195531D01*
X171450000Y-94214838D01*
X171253971Y-94195531D01*
X171253968Y-94195530D01*
X171253967Y-94195530D01*
X171065466Y-94138349D01*
X170891743Y-94045492D01*
X170891741Y-94045491D01*
X170739473Y-93920528D01*
X170614510Y-93768260D01*
X170521651Y-93594533D01*
X170464469Y-93406035D01*
X170450000Y-93259124D01*
X170450000Y-92160877D01*
X170464469Y-92013971D01*
X170464470Y-92013967D01*
X170521651Y-91825466D01*
X170521652Y-91825464D01*
X170521653Y-91825461D01*
X170614507Y-91651742D01*
X170739472Y-91499472D01*
X170891740Y-91374509D01*
X171065463Y-91281652D01*
X171065465Y-91281651D01*
X171253966Y-91224470D01*
X171253967Y-91224470D01*
X171253970Y-91224469D01*
X171450000Y-91205162D01*
X171646029Y-91224469D01*
X171646029Y-91224469D01*
G37*
G36*
X133080000Y-94210000D02*
X131080000Y-94210000D01*
X131080000Y-91210000D01*
X133080000Y-91210000D01*
X133080000Y-94210000D01*
X133080000Y-94210000D01*
G37*
G36*
X162290000Y-94210000D02*
X160290000Y-94210000D01*
X160290000Y-91210000D01*
X162290000Y-91210000D01*
X162290000Y-94210000D01*
X162290000Y-94210000D01*
G37*
G36*
X115800000Y-93710000D02*
X112800000Y-93710000D01*
X112800000Y-91710000D01*
X115800000Y-91710000D01*
X115800000Y-93710000D01*
X115800000Y-93710000D01*
G37*
G36*
X122616030Y-91724469D02*
X122616033Y-91724470D01*
X122616034Y-91724470D01*
X122804535Y-91781651D01*
X122804537Y-91781652D01*
X122978260Y-91874509D01*
X123130528Y-91999472D01*
X123255491Y-92151740D01*
X123348348Y-92325463D01*
X123405531Y-92513970D01*
X123424838Y-92710000D01*
X123405531Y-92906030D01*
X123348348Y-93094537D01*
X123255491Y-93268260D01*
X123130528Y-93420528D01*
X122978260Y-93545491D01*
X122804537Y-93638348D01*
X122804535Y-93638349D01*
X122616034Y-93695530D01*
X122616033Y-93695530D01*
X122616030Y-93695531D01*
X122469124Y-93710000D01*
X121370876Y-93710000D01*
X121223970Y-93695531D01*
X121223967Y-93695530D01*
X121223966Y-93695530D01*
X121035465Y-93638349D01*
X121035463Y-93638348D01*
X120861740Y-93545491D01*
X120709472Y-93420528D01*
X120584509Y-93268260D01*
X120491652Y-93094537D01*
X120434469Y-92906030D01*
X120415162Y-92710000D01*
X120434469Y-92513970D01*
X120491652Y-92325463D01*
X120584509Y-92151740D01*
X120709472Y-91999472D01*
X120861740Y-91874509D01*
X121035463Y-91781652D01*
X121035465Y-91781651D01*
X121223966Y-91724470D01*
X121223967Y-91724470D01*
X121223970Y-91724469D01*
X121370876Y-91710000D01*
X122469124Y-91710000D01*
X122616030Y-91724469D01*
X122616030Y-91724469D01*
G37*
G36*
X169106029Y-87414469D02*
X169106032Y-87414470D01*
X169106033Y-87414470D01*
X169294534Y-87471651D01*
X169294536Y-87471652D01*
X169294539Y-87471653D01*
X169468258Y-87564507D01*
X169620528Y-87689472D01*
X169745491Y-87841740D01*
X169838348Y-88015463D01*
X169895531Y-88203970D01*
X169910000Y-88350876D01*
X169910000Y-89449124D01*
X169895531Y-89596030D01*
X169895530Y-89596033D01*
X169895530Y-89596034D01*
X169838350Y-89784533D01*
X169838348Y-89784537D01*
X169745491Y-89958260D01*
X169620528Y-90110528D01*
X169468260Y-90235491D01*
X169468258Y-90235492D01*
X169294535Y-90328349D01*
X169106034Y-90385530D01*
X169106033Y-90385530D01*
X169106030Y-90385531D01*
X168910000Y-90404838D01*
X168713971Y-90385531D01*
X168713968Y-90385530D01*
X168713967Y-90385530D01*
X168525466Y-90328349D01*
X168351743Y-90235492D01*
X168351741Y-90235491D01*
X168199473Y-90110528D01*
X168074510Y-89958260D01*
X167981651Y-89784533D01*
X167924469Y-89596035D01*
X167910000Y-89449124D01*
X167910000Y-88350877D01*
X167924469Y-88203971D01*
X167924470Y-88203967D01*
X167981651Y-88015466D01*
X167981652Y-88015464D01*
X167981653Y-88015461D01*
X168074507Y-87841742D01*
X168199472Y-87689472D01*
X168351740Y-87564509D01*
X168525463Y-87471652D01*
X168525465Y-87471651D01*
X168713966Y-87414470D01*
X168713967Y-87414470D01*
X168713970Y-87414469D01*
X168910000Y-87395162D01*
X169106029Y-87414469D01*
X169106029Y-87414469D01*
G37*
G36*
X176726029Y-87414469D02*
X176726032Y-87414470D01*
X176726033Y-87414470D01*
X176914534Y-87471651D01*
X176914536Y-87471652D01*
X176914539Y-87471653D01*
X177088258Y-87564507D01*
X177240528Y-87689472D01*
X177365491Y-87841740D01*
X177458348Y-88015463D01*
X177515531Y-88203970D01*
X177530000Y-88350876D01*
X177530000Y-89449124D01*
X177515531Y-89596030D01*
X177515530Y-89596033D01*
X177515530Y-89596034D01*
X177458350Y-89784533D01*
X177458348Y-89784537D01*
X177365491Y-89958260D01*
X177240528Y-90110528D01*
X177088260Y-90235491D01*
X177088258Y-90235492D01*
X176914535Y-90328349D01*
X176726034Y-90385530D01*
X176726033Y-90385530D01*
X176726030Y-90385531D01*
X176530000Y-90404838D01*
X176333971Y-90385531D01*
X176333968Y-90385530D01*
X176333967Y-90385530D01*
X176145466Y-90328349D01*
X175971743Y-90235492D01*
X175971741Y-90235491D01*
X175819473Y-90110528D01*
X175694510Y-89958260D01*
X175601651Y-89784533D01*
X175544469Y-89596035D01*
X175530000Y-89449124D01*
X175530000Y-88350877D01*
X175544469Y-88203971D01*
X175544470Y-88203967D01*
X175601651Y-88015466D01*
X175601652Y-88015464D01*
X175601653Y-88015461D01*
X175694507Y-87841742D01*
X175819472Y-87689472D01*
X175971740Y-87564509D01*
X176145463Y-87471652D01*
X176145465Y-87471651D01*
X176333966Y-87414470D01*
X176333967Y-87414470D01*
X176333970Y-87414469D01*
X176530000Y-87395162D01*
X176726029Y-87414469D01*
X176726029Y-87414469D01*
G37*
G36*
X174186029Y-87414469D02*
X174186032Y-87414470D01*
X174186033Y-87414470D01*
X174374534Y-87471651D01*
X174374536Y-87471652D01*
X174374539Y-87471653D01*
X174548258Y-87564507D01*
X174700528Y-87689472D01*
X174825491Y-87841740D01*
X174918348Y-88015463D01*
X174975531Y-88203970D01*
X174990000Y-88350876D01*
X174990000Y-89449124D01*
X174975531Y-89596030D01*
X174975530Y-89596033D01*
X174975530Y-89596034D01*
X174918350Y-89784533D01*
X174918348Y-89784537D01*
X174825491Y-89958260D01*
X174700528Y-90110528D01*
X174548260Y-90235491D01*
X174548258Y-90235492D01*
X174374535Y-90328349D01*
X174186034Y-90385530D01*
X174186033Y-90385530D01*
X174186030Y-90385531D01*
X173990000Y-90404838D01*
X173793971Y-90385531D01*
X173793968Y-90385530D01*
X173793967Y-90385530D01*
X173605466Y-90328349D01*
X173431743Y-90235492D01*
X173431741Y-90235491D01*
X173279473Y-90110528D01*
X173154510Y-89958260D01*
X173061651Y-89784533D01*
X173004469Y-89596035D01*
X172990000Y-89449124D01*
X172990000Y-88350877D01*
X173004469Y-88203971D01*
X173004470Y-88203967D01*
X173061651Y-88015466D01*
X173061652Y-88015464D01*
X173061653Y-88015461D01*
X173154507Y-87841742D01*
X173279472Y-87689472D01*
X173431740Y-87564509D01*
X173605463Y-87471652D01*
X173605465Y-87471651D01*
X173793966Y-87414470D01*
X173793967Y-87414470D01*
X173793970Y-87414469D01*
X173990000Y-87395162D01*
X174186029Y-87414469D01*
X174186029Y-87414469D01*
G37*
G36*
X171646029Y-87414469D02*
X171646032Y-87414470D01*
X171646033Y-87414470D01*
X171834534Y-87471651D01*
X171834536Y-87471652D01*
X171834539Y-87471653D01*
X172008258Y-87564507D01*
X172160528Y-87689472D01*
X172285491Y-87841740D01*
X172378348Y-88015463D01*
X172435531Y-88203970D01*
X172450000Y-88350876D01*
X172450000Y-89449124D01*
X172435531Y-89596030D01*
X172435530Y-89596033D01*
X172435530Y-89596034D01*
X172378350Y-89784533D01*
X172378348Y-89784537D01*
X172285491Y-89958260D01*
X172160528Y-90110528D01*
X172008260Y-90235491D01*
X172008258Y-90235492D01*
X171834535Y-90328349D01*
X171646034Y-90385530D01*
X171646033Y-90385530D01*
X171646030Y-90385531D01*
X171450000Y-90404838D01*
X171253971Y-90385531D01*
X171253968Y-90385530D01*
X171253967Y-90385530D01*
X171065466Y-90328349D01*
X170891743Y-90235492D01*
X170891741Y-90235491D01*
X170739473Y-90110528D01*
X170614510Y-89958260D01*
X170521651Y-89784533D01*
X170464469Y-89596035D01*
X170450000Y-89449124D01*
X170450000Y-88350877D01*
X170464469Y-88203971D01*
X170464470Y-88203967D01*
X170521651Y-88015466D01*
X170521652Y-88015464D01*
X170521653Y-88015461D01*
X170614507Y-87841742D01*
X170739472Y-87689472D01*
X170891740Y-87564509D01*
X171065463Y-87471652D01*
X171065465Y-87471651D01*
X171253966Y-87414470D01*
X171253967Y-87414470D01*
X171253970Y-87414469D01*
X171450000Y-87395162D01*
X171646029Y-87414469D01*
X171646029Y-87414469D01*
G37*
G36*
X166566029Y-87414469D02*
X166566032Y-87414470D01*
X166566033Y-87414470D01*
X166754534Y-87471651D01*
X166754536Y-87471652D01*
X166754539Y-87471653D01*
X166928258Y-87564507D01*
X167080528Y-87689472D01*
X167205491Y-87841740D01*
X167298348Y-88015463D01*
X167355531Y-88203970D01*
X167370000Y-88350876D01*
X167370000Y-89449124D01*
X167355531Y-89596030D01*
X167355530Y-89596033D01*
X167355530Y-89596034D01*
X167298350Y-89784533D01*
X167298348Y-89784537D01*
X167205491Y-89958260D01*
X167080528Y-90110528D01*
X166928260Y-90235491D01*
X166928258Y-90235492D01*
X166754535Y-90328349D01*
X166566034Y-90385530D01*
X166566033Y-90385530D01*
X166566030Y-90385531D01*
X166370000Y-90404838D01*
X166173971Y-90385531D01*
X166173968Y-90385530D01*
X166173967Y-90385530D01*
X165985466Y-90328349D01*
X165811743Y-90235492D01*
X165811741Y-90235491D01*
X165659473Y-90110528D01*
X165534510Y-89958260D01*
X165441651Y-89784533D01*
X165384469Y-89596035D01*
X165370000Y-89449124D01*
X165370000Y-88350877D01*
X165384469Y-88203971D01*
X165384470Y-88203967D01*
X165441651Y-88015466D01*
X165441652Y-88015464D01*
X165441653Y-88015461D01*
X165534507Y-87841742D01*
X165659472Y-87689472D01*
X165811740Y-87564509D01*
X165985463Y-87471652D01*
X165985465Y-87471651D01*
X166173966Y-87414470D01*
X166173967Y-87414470D01*
X166173970Y-87414469D01*
X166370000Y-87395162D01*
X166566029Y-87414469D01*
X166566029Y-87414469D01*
G37*
G36*
X164026029Y-87414469D02*
X164026032Y-87414470D01*
X164026033Y-87414470D01*
X164214534Y-87471651D01*
X164214536Y-87471652D01*
X164214539Y-87471653D01*
X164388258Y-87564507D01*
X164540528Y-87689472D01*
X164665491Y-87841740D01*
X164758348Y-88015463D01*
X164815531Y-88203970D01*
X164830000Y-88350876D01*
X164830000Y-89449124D01*
X164815531Y-89596030D01*
X164815530Y-89596033D01*
X164815530Y-89596034D01*
X164758350Y-89784533D01*
X164758348Y-89784537D01*
X164665491Y-89958260D01*
X164540528Y-90110528D01*
X164388260Y-90235491D01*
X164388258Y-90235492D01*
X164214535Y-90328349D01*
X164026034Y-90385530D01*
X164026033Y-90385530D01*
X164026030Y-90385531D01*
X163830000Y-90404838D01*
X163633971Y-90385531D01*
X163633968Y-90385530D01*
X163633967Y-90385530D01*
X163445466Y-90328349D01*
X163271743Y-90235492D01*
X163271741Y-90235491D01*
X163119473Y-90110528D01*
X162994510Y-89958260D01*
X162901651Y-89784533D01*
X162844469Y-89596035D01*
X162830000Y-89449124D01*
X162830000Y-88350877D01*
X162844469Y-88203971D01*
X162844470Y-88203967D01*
X162901651Y-88015466D01*
X162901652Y-88015464D01*
X162901653Y-88015461D01*
X162994507Y-87841742D01*
X163119472Y-87689472D01*
X163271740Y-87564509D01*
X163445463Y-87471652D01*
X163445465Y-87471651D01*
X163633966Y-87414470D01*
X163633967Y-87414470D01*
X163633970Y-87414469D01*
X163830000Y-87395162D01*
X164026029Y-87414469D01*
X164026029Y-87414469D01*
G37*
G36*
X144976029Y-87414469D02*
X144976032Y-87414470D01*
X144976033Y-87414470D01*
X145164534Y-87471651D01*
X145164536Y-87471652D01*
X145164539Y-87471653D01*
X145338258Y-87564507D01*
X145490528Y-87689472D01*
X145615491Y-87841740D01*
X145708348Y-88015463D01*
X145765531Y-88203970D01*
X145780000Y-88350876D01*
X145780000Y-89449124D01*
X145765531Y-89596030D01*
X145765530Y-89596033D01*
X145765530Y-89596034D01*
X145708350Y-89784533D01*
X145708348Y-89784537D01*
X145615491Y-89958260D01*
X145490528Y-90110528D01*
X145338260Y-90235491D01*
X145338258Y-90235492D01*
X145164535Y-90328349D01*
X144976034Y-90385530D01*
X144976033Y-90385530D01*
X144976030Y-90385531D01*
X144780000Y-90404838D01*
X144583971Y-90385531D01*
X144583968Y-90385530D01*
X144583967Y-90385530D01*
X144395466Y-90328349D01*
X144221743Y-90235492D01*
X144221741Y-90235491D01*
X144069473Y-90110528D01*
X143944510Y-89958260D01*
X143851651Y-89784533D01*
X143794469Y-89596035D01*
X143780000Y-89449124D01*
X143780000Y-88350877D01*
X143794469Y-88203971D01*
X143794470Y-88203967D01*
X143851651Y-88015466D01*
X143851652Y-88015464D01*
X143851653Y-88015461D01*
X143944507Y-87841742D01*
X144069472Y-87689472D01*
X144221740Y-87564509D01*
X144395463Y-87471652D01*
X144395465Y-87471651D01*
X144583966Y-87414470D01*
X144583967Y-87414470D01*
X144583970Y-87414469D01*
X144780000Y-87395162D01*
X144976029Y-87414469D01*
X144976029Y-87414469D01*
G37*
G36*
X137356029Y-87414469D02*
X137356032Y-87414470D01*
X137356033Y-87414470D01*
X137544534Y-87471651D01*
X137544536Y-87471652D01*
X137544539Y-87471653D01*
X137718258Y-87564507D01*
X137870528Y-87689472D01*
X137995491Y-87841740D01*
X138088348Y-88015463D01*
X138145531Y-88203970D01*
X138160000Y-88350876D01*
X138160000Y-89449124D01*
X138145531Y-89596030D01*
X138145530Y-89596033D01*
X138145530Y-89596034D01*
X138088350Y-89784533D01*
X138088348Y-89784537D01*
X137995491Y-89958260D01*
X137870528Y-90110528D01*
X137718260Y-90235491D01*
X137718258Y-90235492D01*
X137544535Y-90328349D01*
X137356034Y-90385530D01*
X137356033Y-90385530D01*
X137356030Y-90385531D01*
X137160000Y-90404838D01*
X136963971Y-90385531D01*
X136963968Y-90385530D01*
X136963967Y-90385530D01*
X136775466Y-90328349D01*
X136601743Y-90235492D01*
X136601741Y-90235491D01*
X136449473Y-90110528D01*
X136324510Y-89958260D01*
X136231651Y-89784533D01*
X136174469Y-89596035D01*
X136160000Y-89449124D01*
X136160000Y-88350877D01*
X136174469Y-88203971D01*
X136174470Y-88203967D01*
X136231651Y-88015466D01*
X136231652Y-88015464D01*
X136231653Y-88015461D01*
X136324507Y-87841742D01*
X136449472Y-87689472D01*
X136601740Y-87564509D01*
X136775463Y-87471652D01*
X136775465Y-87471651D01*
X136963966Y-87414470D01*
X136963967Y-87414470D01*
X136963970Y-87414469D01*
X137160000Y-87395162D01*
X137356029Y-87414469D01*
X137356029Y-87414469D01*
G37*
G36*
X142436029Y-87414469D02*
X142436032Y-87414470D01*
X142436033Y-87414470D01*
X142624534Y-87471651D01*
X142624536Y-87471652D01*
X142624539Y-87471653D01*
X142798258Y-87564507D01*
X142950528Y-87689472D01*
X143075491Y-87841740D01*
X143168348Y-88015463D01*
X143225531Y-88203970D01*
X143240000Y-88350876D01*
X143240000Y-89449124D01*
X143225531Y-89596030D01*
X143225530Y-89596033D01*
X143225530Y-89596034D01*
X143168350Y-89784533D01*
X143168348Y-89784537D01*
X143075491Y-89958260D01*
X142950528Y-90110528D01*
X142798260Y-90235491D01*
X142798258Y-90235492D01*
X142624535Y-90328349D01*
X142436034Y-90385530D01*
X142436033Y-90385530D01*
X142436030Y-90385531D01*
X142240000Y-90404838D01*
X142043971Y-90385531D01*
X142043968Y-90385530D01*
X142043967Y-90385530D01*
X141855466Y-90328349D01*
X141681743Y-90235492D01*
X141681741Y-90235491D01*
X141529473Y-90110528D01*
X141404510Y-89958260D01*
X141311651Y-89784533D01*
X141254469Y-89596035D01*
X141240000Y-89449124D01*
X141240000Y-88350877D01*
X141254469Y-88203971D01*
X141254470Y-88203967D01*
X141311651Y-88015466D01*
X141311652Y-88015464D01*
X141311653Y-88015461D01*
X141404507Y-87841742D01*
X141529472Y-87689472D01*
X141681740Y-87564509D01*
X141855463Y-87471652D01*
X141855465Y-87471651D01*
X142043966Y-87414470D01*
X142043967Y-87414470D01*
X142043970Y-87414469D01*
X142240000Y-87395162D01*
X142436029Y-87414469D01*
X142436029Y-87414469D01*
G37*
G36*
X134816029Y-87414469D02*
X134816032Y-87414470D01*
X134816033Y-87414470D01*
X135004534Y-87471651D01*
X135004536Y-87471652D01*
X135004539Y-87471653D01*
X135178258Y-87564507D01*
X135330528Y-87689472D01*
X135455491Y-87841740D01*
X135548348Y-88015463D01*
X135605531Y-88203970D01*
X135620000Y-88350876D01*
X135620000Y-89449124D01*
X135605531Y-89596030D01*
X135605530Y-89596033D01*
X135605530Y-89596034D01*
X135548350Y-89784533D01*
X135548348Y-89784537D01*
X135455491Y-89958260D01*
X135330528Y-90110528D01*
X135178260Y-90235491D01*
X135178258Y-90235492D01*
X135004535Y-90328349D01*
X134816034Y-90385530D01*
X134816033Y-90385530D01*
X134816030Y-90385531D01*
X134620000Y-90404838D01*
X134423971Y-90385531D01*
X134423968Y-90385530D01*
X134423967Y-90385530D01*
X134235466Y-90328349D01*
X134061743Y-90235492D01*
X134061741Y-90235491D01*
X133909473Y-90110528D01*
X133784510Y-89958260D01*
X133691651Y-89784533D01*
X133634469Y-89596035D01*
X133620000Y-89449124D01*
X133620000Y-88350877D01*
X133634469Y-88203971D01*
X133634470Y-88203967D01*
X133691651Y-88015466D01*
X133691652Y-88015464D01*
X133691653Y-88015461D01*
X133784507Y-87841742D01*
X133909472Y-87689472D01*
X134061740Y-87564509D01*
X134235463Y-87471652D01*
X134235465Y-87471651D01*
X134423966Y-87414470D01*
X134423967Y-87414470D01*
X134423970Y-87414469D01*
X134620000Y-87395162D01*
X134816029Y-87414469D01*
X134816029Y-87414469D01*
G37*
G36*
X139896029Y-87414469D02*
X139896032Y-87414470D01*
X139896033Y-87414470D01*
X140084534Y-87471651D01*
X140084536Y-87471652D01*
X140084539Y-87471653D01*
X140258258Y-87564507D01*
X140410528Y-87689472D01*
X140535491Y-87841740D01*
X140628348Y-88015463D01*
X140685531Y-88203970D01*
X140700000Y-88350876D01*
X140700000Y-89449124D01*
X140685531Y-89596030D01*
X140685530Y-89596033D01*
X140685530Y-89596034D01*
X140628350Y-89784533D01*
X140628348Y-89784537D01*
X140535491Y-89958260D01*
X140410528Y-90110528D01*
X140258260Y-90235491D01*
X140258258Y-90235492D01*
X140084535Y-90328349D01*
X139896034Y-90385530D01*
X139896033Y-90385530D01*
X139896030Y-90385531D01*
X139700000Y-90404838D01*
X139503971Y-90385531D01*
X139503968Y-90385530D01*
X139503967Y-90385530D01*
X139315466Y-90328349D01*
X139141743Y-90235492D01*
X139141741Y-90235491D01*
X138989473Y-90110528D01*
X138864510Y-89958260D01*
X138771651Y-89784533D01*
X138714469Y-89596035D01*
X138700000Y-89449124D01*
X138700000Y-88350877D01*
X138714469Y-88203971D01*
X138714470Y-88203967D01*
X138771651Y-88015466D01*
X138771652Y-88015464D01*
X138771653Y-88015461D01*
X138864507Y-87841742D01*
X138989472Y-87689472D01*
X139141740Y-87564509D01*
X139315463Y-87471652D01*
X139315465Y-87471651D01*
X139503966Y-87414470D01*
X139503967Y-87414470D01*
X139503970Y-87414469D01*
X139700000Y-87395162D01*
X139896029Y-87414469D01*
X139896029Y-87414469D01*
G37*
G36*
X147516029Y-87414469D02*
X147516032Y-87414470D01*
X147516033Y-87414470D01*
X147704534Y-87471651D01*
X147704536Y-87471652D01*
X147704539Y-87471653D01*
X147878258Y-87564507D01*
X148030528Y-87689472D01*
X148155491Y-87841740D01*
X148248348Y-88015463D01*
X148305531Y-88203970D01*
X148320000Y-88350876D01*
X148320000Y-89449124D01*
X148305531Y-89596030D01*
X148305530Y-89596033D01*
X148305530Y-89596034D01*
X148248350Y-89784533D01*
X148248348Y-89784537D01*
X148155491Y-89958260D01*
X148030528Y-90110528D01*
X147878260Y-90235491D01*
X147878258Y-90235492D01*
X147704535Y-90328349D01*
X147516034Y-90385530D01*
X147516033Y-90385530D01*
X147516030Y-90385531D01*
X147320000Y-90404838D01*
X147123971Y-90385531D01*
X147123968Y-90385530D01*
X147123967Y-90385530D01*
X146935466Y-90328349D01*
X146761743Y-90235492D01*
X146761741Y-90235491D01*
X146609473Y-90110528D01*
X146484510Y-89958260D01*
X146391651Y-89784533D01*
X146334469Y-89596035D01*
X146320000Y-89449124D01*
X146320000Y-88350877D01*
X146334469Y-88203971D01*
X146334470Y-88203967D01*
X146391651Y-88015466D01*
X146391652Y-88015464D01*
X146391653Y-88015461D01*
X146484507Y-87841742D01*
X146609472Y-87689472D01*
X146761740Y-87564509D01*
X146935463Y-87471652D01*
X146935465Y-87471651D01*
X147123966Y-87414470D01*
X147123967Y-87414470D01*
X147123970Y-87414469D01*
X147320000Y-87395162D01*
X147516029Y-87414469D01*
X147516029Y-87414469D01*
G37*
G36*
X162290000Y-90400000D02*
X160290000Y-90400000D01*
X160290000Y-87400000D01*
X162290000Y-87400000D01*
X162290000Y-90400000D01*
X162290000Y-90400000D01*
G37*
G36*
X133080000Y-90400000D02*
X131080000Y-90400000D01*
X131080000Y-87400000D01*
X133080000Y-87400000D01*
X133080000Y-90400000D01*
X133080000Y-90400000D01*
G37*
G36*
X128466030Y-86144469D02*
X128466033Y-86144470D01*
X128466034Y-86144470D01*
X128654535Y-86201651D01*
X128654537Y-86201652D01*
X128828260Y-86294509D01*
X128980528Y-86419472D01*
X129105491Y-86571740D01*
X129105492Y-86571742D01*
X129198349Y-86745465D01*
X129255530Y-86933966D01*
X129255531Y-86933970D01*
X129270000Y-87080876D01*
X129270000Y-88179124D01*
X129255531Y-88326030D01*
X129198348Y-88514537D01*
X129105491Y-88688260D01*
X128980528Y-88840528D01*
X128828258Y-88965493D01*
X128654539Y-89058347D01*
X128654536Y-89058348D01*
X128654534Y-89058349D01*
X128466033Y-89115530D01*
X128466032Y-89115530D01*
X128466029Y-89115531D01*
X128270000Y-89134838D01*
X128073970Y-89115531D01*
X128073967Y-89115530D01*
X128073966Y-89115530D01*
X127885465Y-89058349D01*
X127711742Y-88965492D01*
X127711740Y-88965491D01*
X127559472Y-88840528D01*
X127434507Y-88688258D01*
X127341653Y-88514539D01*
X127292007Y-88350877D01*
X127284470Y-88326033D01*
X127284470Y-88326032D01*
X127284469Y-88326029D01*
X127270000Y-88179123D01*
X127270000Y-87080876D01*
X127284469Y-86933965D01*
X127341651Y-86745467D01*
X127434510Y-86571740D01*
X127559473Y-86419472D01*
X127711741Y-86294509D01*
X127885464Y-86201652D01*
X127885466Y-86201651D01*
X128073967Y-86144470D01*
X128073968Y-86144470D01*
X128073971Y-86144469D01*
X128270000Y-86125162D01*
X128466030Y-86144469D01*
X128466030Y-86144469D01*
G37*
G36*
X157676030Y-86144469D02*
X157676033Y-86144470D01*
X157676034Y-86144470D01*
X157864535Y-86201651D01*
X157864537Y-86201652D01*
X158038260Y-86294509D01*
X158190528Y-86419472D01*
X158315491Y-86571740D01*
X158315492Y-86571742D01*
X158408349Y-86745465D01*
X158465530Y-86933966D01*
X158465531Y-86933970D01*
X158480000Y-87080876D01*
X158480000Y-88179124D01*
X158465531Y-88326030D01*
X158408348Y-88514537D01*
X158315491Y-88688260D01*
X158190528Y-88840528D01*
X158038258Y-88965493D01*
X157864539Y-89058347D01*
X157864536Y-89058348D01*
X157864534Y-89058349D01*
X157676033Y-89115530D01*
X157676032Y-89115530D01*
X157676029Y-89115531D01*
X157480000Y-89134838D01*
X157283970Y-89115531D01*
X157283967Y-89115530D01*
X157283966Y-89115530D01*
X157095465Y-89058349D01*
X156921742Y-88965492D01*
X156921740Y-88965491D01*
X156769472Y-88840528D01*
X156644507Y-88688258D01*
X156551653Y-88514539D01*
X156502007Y-88350877D01*
X156494470Y-88326033D01*
X156494470Y-88326032D01*
X156494469Y-88326029D01*
X156480000Y-88179123D01*
X156480000Y-87080876D01*
X156494469Y-86933965D01*
X156551651Y-86745467D01*
X156644510Y-86571740D01*
X156769473Y-86419472D01*
X156921741Y-86294509D01*
X157095464Y-86201652D01*
X157095466Y-86201651D01*
X157283967Y-86144470D01*
X157283968Y-86144470D01*
X157283971Y-86144469D01*
X157480000Y-86125162D01*
X157676030Y-86144469D01*
X157676030Y-86144469D01*
G37*
G36*
X119610000Y-85320000D02*
X116610000Y-85320000D01*
X116610000Y-82320000D01*
X119610000Y-82320000D01*
X119610000Y-85320000D01*
X119610000Y-85320000D01*
G37*
G36*
X128466030Y-81144469D02*
X128466033Y-81144470D01*
X128466034Y-81144470D01*
X128654535Y-81201651D01*
X128654537Y-81201652D01*
X128828260Y-81294509D01*
X128980528Y-81419472D01*
X129105491Y-81571740D01*
X129105492Y-81571742D01*
X129198349Y-81745465D01*
X129255530Y-81933966D01*
X129255531Y-81933970D01*
X129270000Y-82080876D01*
X129270000Y-83179124D01*
X129255531Y-83326030D01*
X129198348Y-83514537D01*
X129105491Y-83688260D01*
X128980528Y-83840528D01*
X128828258Y-83965493D01*
X128654539Y-84058347D01*
X128654536Y-84058348D01*
X128654534Y-84058349D01*
X128466033Y-84115530D01*
X128466032Y-84115530D01*
X128466029Y-84115531D01*
X128270000Y-84134838D01*
X128073970Y-84115531D01*
X128073967Y-84115530D01*
X128073966Y-84115530D01*
X127885465Y-84058349D01*
X127711742Y-83965492D01*
X127711740Y-83965491D01*
X127559472Y-83840528D01*
X127434507Y-83688258D01*
X127341653Y-83514539D01*
X127284471Y-83326034D01*
X127284470Y-83326033D01*
X127284470Y-83326032D01*
X127284469Y-83326029D01*
X127270000Y-83179123D01*
X127270000Y-82080876D01*
X127284469Y-81933965D01*
X127341651Y-81745467D01*
X127434510Y-81571740D01*
X127559473Y-81419472D01*
X127711741Y-81294509D01*
X127885464Y-81201652D01*
X127885466Y-81201651D01*
X128073967Y-81144470D01*
X128073968Y-81144470D01*
X128073971Y-81144469D01*
X128270000Y-81125162D01*
X128466030Y-81144469D01*
X128466030Y-81144469D01*
G37*
G36*
X157676030Y-81144469D02*
X157676033Y-81144470D01*
X157676034Y-81144470D01*
X157864535Y-81201651D01*
X157864537Y-81201652D01*
X158038260Y-81294509D01*
X158190528Y-81419472D01*
X158315491Y-81571740D01*
X158315492Y-81571742D01*
X158408349Y-81745465D01*
X158465530Y-81933966D01*
X158465531Y-81933970D01*
X158480000Y-82080876D01*
X158480000Y-83179124D01*
X158465531Y-83326030D01*
X158408348Y-83514537D01*
X158315491Y-83688260D01*
X158190528Y-83840528D01*
X158038258Y-83965493D01*
X157864539Y-84058347D01*
X157864536Y-84058348D01*
X157864534Y-84058349D01*
X157676033Y-84115530D01*
X157676032Y-84115530D01*
X157676029Y-84115531D01*
X157480000Y-84134838D01*
X157283970Y-84115531D01*
X157283967Y-84115530D01*
X157283966Y-84115530D01*
X157095465Y-84058349D01*
X156921742Y-83965492D01*
X156921740Y-83965491D01*
X156769472Y-83840528D01*
X156644507Y-83688258D01*
X156551653Y-83514539D01*
X156494471Y-83326034D01*
X156494470Y-83326033D01*
X156494470Y-83326032D01*
X156494469Y-83326029D01*
X156480000Y-83179123D01*
X156480000Y-82080876D01*
X156494469Y-81933965D01*
X156551651Y-81745467D01*
X156644510Y-81571740D01*
X156769473Y-81419472D01*
X156921741Y-81294509D01*
X157095464Y-81201652D01*
X157095466Y-81201651D01*
X157283967Y-81144470D01*
X157283968Y-81144470D01*
X157283971Y-81144469D01*
X157480000Y-81125162D01*
X157676030Y-81144469D01*
X157676030Y-81144469D01*
G37*
G36*
X161486029Y-79794469D02*
X161486032Y-79794470D01*
X161486033Y-79794470D01*
X161674534Y-79851651D01*
X161674536Y-79851652D01*
X161674539Y-79851653D01*
X161848258Y-79944507D01*
X162000528Y-80069472D01*
X162125491Y-80221740D01*
X162218348Y-80395463D01*
X162275531Y-80583970D01*
X162290000Y-80730876D01*
X162290000Y-81829124D01*
X162275531Y-81976030D01*
X162275530Y-81976033D01*
X162275530Y-81976034D01*
X162218350Y-82164533D01*
X162218348Y-82164537D01*
X162125491Y-82338260D01*
X162000528Y-82490528D01*
X161848260Y-82615491D01*
X161848258Y-82615492D01*
X161674535Y-82708349D01*
X161486034Y-82765530D01*
X161486033Y-82765530D01*
X161486030Y-82765531D01*
X161290000Y-82784838D01*
X161093971Y-82765531D01*
X161093968Y-82765530D01*
X161093967Y-82765530D01*
X160905466Y-82708349D01*
X160731743Y-82615492D01*
X160731741Y-82615491D01*
X160579473Y-82490528D01*
X160454510Y-82338260D01*
X160361651Y-82164533D01*
X160304469Y-81976035D01*
X160290000Y-81829124D01*
X160290000Y-80730877D01*
X160304469Y-80583971D01*
X160304470Y-80583967D01*
X160361651Y-80395466D01*
X160361652Y-80395464D01*
X160361653Y-80395461D01*
X160454507Y-80221742D01*
X160579472Y-80069472D01*
X160731740Y-79944509D01*
X160905463Y-79851652D01*
X160905465Y-79851651D01*
X161093966Y-79794470D01*
X161093967Y-79794470D01*
X161093970Y-79794469D01*
X161290000Y-79775162D01*
X161486029Y-79794469D01*
X161486029Y-79794469D01*
G37*
G36*
X176726029Y-79794469D02*
X176726032Y-79794470D01*
X176726033Y-79794470D01*
X176914534Y-79851651D01*
X176914536Y-79851652D01*
X176914539Y-79851653D01*
X177088258Y-79944507D01*
X177240528Y-80069472D01*
X177365491Y-80221740D01*
X177458348Y-80395463D01*
X177515531Y-80583970D01*
X177530000Y-80730876D01*
X177530000Y-81829124D01*
X177515531Y-81976030D01*
X177515530Y-81976033D01*
X177515530Y-81976034D01*
X177458350Y-82164533D01*
X177458348Y-82164537D01*
X177365491Y-82338260D01*
X177240528Y-82490528D01*
X177088260Y-82615491D01*
X177088258Y-82615492D01*
X176914535Y-82708349D01*
X176726034Y-82765530D01*
X176726033Y-82765530D01*
X176726030Y-82765531D01*
X176530000Y-82784838D01*
X176333971Y-82765531D01*
X176333968Y-82765530D01*
X176333967Y-82765530D01*
X176145466Y-82708349D01*
X175971743Y-82615492D01*
X175971741Y-82615491D01*
X175819473Y-82490528D01*
X175694510Y-82338260D01*
X175601651Y-82164533D01*
X175544469Y-81976035D01*
X175530000Y-81829124D01*
X175530000Y-80730877D01*
X175544469Y-80583971D01*
X175544470Y-80583967D01*
X175601651Y-80395466D01*
X175601652Y-80395464D01*
X175601653Y-80395461D01*
X175694507Y-80221742D01*
X175819472Y-80069472D01*
X175971740Y-79944509D01*
X176145463Y-79851652D01*
X176145465Y-79851651D01*
X176333966Y-79794470D01*
X176333967Y-79794470D01*
X176333970Y-79794469D01*
X176530000Y-79775162D01*
X176726029Y-79794469D01*
X176726029Y-79794469D01*
G37*
G36*
X164026029Y-79794469D02*
X164026032Y-79794470D01*
X164026033Y-79794470D01*
X164214534Y-79851651D01*
X164214536Y-79851652D01*
X164214539Y-79851653D01*
X164388258Y-79944507D01*
X164540528Y-80069472D01*
X164665491Y-80221740D01*
X164758348Y-80395463D01*
X164815531Y-80583970D01*
X164830000Y-80730876D01*
X164830000Y-81829124D01*
X164815531Y-81976030D01*
X164815530Y-81976033D01*
X164815530Y-81976034D01*
X164758350Y-82164533D01*
X164758348Y-82164537D01*
X164665491Y-82338260D01*
X164540528Y-82490528D01*
X164388260Y-82615491D01*
X164388258Y-82615492D01*
X164214535Y-82708349D01*
X164026034Y-82765530D01*
X164026033Y-82765530D01*
X164026030Y-82765531D01*
X163830000Y-82784838D01*
X163633971Y-82765531D01*
X163633968Y-82765530D01*
X163633967Y-82765530D01*
X163445466Y-82708349D01*
X163271743Y-82615492D01*
X163271741Y-82615491D01*
X163119473Y-82490528D01*
X162994510Y-82338260D01*
X162901651Y-82164533D01*
X162844469Y-81976035D01*
X162830000Y-81829124D01*
X162830000Y-80730877D01*
X162844469Y-80583971D01*
X162844470Y-80583967D01*
X162901651Y-80395466D01*
X162901652Y-80395464D01*
X162901653Y-80395461D01*
X162994507Y-80221742D01*
X163119472Y-80069472D01*
X163271740Y-79944509D01*
X163445463Y-79851652D01*
X163445465Y-79851651D01*
X163633966Y-79794470D01*
X163633967Y-79794470D01*
X163633970Y-79794469D01*
X163830000Y-79775162D01*
X164026029Y-79794469D01*
X164026029Y-79794469D01*
G37*
G36*
X132276029Y-79794469D02*
X132276032Y-79794470D01*
X132276033Y-79794470D01*
X132464534Y-79851651D01*
X132464536Y-79851652D01*
X132464539Y-79851653D01*
X132638258Y-79944507D01*
X132790528Y-80069472D01*
X132915491Y-80221740D01*
X133008348Y-80395463D01*
X133065531Y-80583970D01*
X133080000Y-80730876D01*
X133080000Y-81829124D01*
X133065531Y-81976030D01*
X133065530Y-81976033D01*
X133065530Y-81976034D01*
X133008350Y-82164533D01*
X133008348Y-82164537D01*
X132915491Y-82338260D01*
X132790528Y-82490528D01*
X132638260Y-82615491D01*
X132638258Y-82615492D01*
X132464535Y-82708349D01*
X132276034Y-82765530D01*
X132276033Y-82765530D01*
X132276030Y-82765531D01*
X132080000Y-82784838D01*
X131883971Y-82765531D01*
X131883968Y-82765530D01*
X131883967Y-82765530D01*
X131695466Y-82708349D01*
X131521743Y-82615492D01*
X131521741Y-82615491D01*
X131369473Y-82490528D01*
X131244510Y-82338260D01*
X131151651Y-82164533D01*
X131094469Y-81976035D01*
X131080000Y-81829124D01*
X131080000Y-80730877D01*
X131094469Y-80583971D01*
X131094470Y-80583967D01*
X131151651Y-80395466D01*
X131151652Y-80395464D01*
X131151653Y-80395461D01*
X131244507Y-80221742D01*
X131369472Y-80069472D01*
X131521740Y-79944509D01*
X131695463Y-79851652D01*
X131695465Y-79851651D01*
X131883966Y-79794470D01*
X131883967Y-79794470D01*
X131883970Y-79794469D01*
X132080000Y-79775162D01*
X132276029Y-79794469D01*
X132276029Y-79794469D01*
G37*
G36*
X134816029Y-79794469D02*
X134816032Y-79794470D01*
X134816033Y-79794470D01*
X135004534Y-79851651D01*
X135004536Y-79851652D01*
X135004539Y-79851653D01*
X135178258Y-79944507D01*
X135330528Y-80069472D01*
X135455491Y-80221740D01*
X135548348Y-80395463D01*
X135605531Y-80583970D01*
X135620000Y-80730876D01*
X135620000Y-81829124D01*
X135605531Y-81976030D01*
X135605530Y-81976033D01*
X135605530Y-81976034D01*
X135548350Y-82164533D01*
X135548348Y-82164537D01*
X135455491Y-82338260D01*
X135330528Y-82490528D01*
X135178260Y-82615491D01*
X135178258Y-82615492D01*
X135004535Y-82708349D01*
X134816034Y-82765530D01*
X134816033Y-82765530D01*
X134816030Y-82765531D01*
X134620000Y-82784838D01*
X134423971Y-82765531D01*
X134423968Y-82765530D01*
X134423967Y-82765530D01*
X134235466Y-82708349D01*
X134061743Y-82615492D01*
X134061741Y-82615491D01*
X133909473Y-82490528D01*
X133784510Y-82338260D01*
X133691651Y-82164533D01*
X133634469Y-81976035D01*
X133620000Y-81829124D01*
X133620000Y-80730877D01*
X133634469Y-80583971D01*
X133634470Y-80583967D01*
X133691651Y-80395466D01*
X133691652Y-80395464D01*
X133691653Y-80395461D01*
X133784507Y-80221742D01*
X133909472Y-80069472D01*
X134061740Y-79944509D01*
X134235463Y-79851652D01*
X134235465Y-79851651D01*
X134423966Y-79794470D01*
X134423967Y-79794470D01*
X134423970Y-79794469D01*
X134620000Y-79775162D01*
X134816029Y-79794469D01*
X134816029Y-79794469D01*
G37*
G36*
X137356029Y-79794469D02*
X137356032Y-79794470D01*
X137356033Y-79794470D01*
X137544534Y-79851651D01*
X137544536Y-79851652D01*
X137544539Y-79851653D01*
X137718258Y-79944507D01*
X137870528Y-80069472D01*
X137995491Y-80221740D01*
X138088348Y-80395463D01*
X138145531Y-80583970D01*
X138160000Y-80730876D01*
X138160000Y-81829124D01*
X138145531Y-81976030D01*
X138145530Y-81976033D01*
X138145530Y-81976034D01*
X138088350Y-82164533D01*
X138088348Y-82164537D01*
X137995491Y-82338260D01*
X137870528Y-82490528D01*
X137718260Y-82615491D01*
X137718258Y-82615492D01*
X137544535Y-82708349D01*
X137356034Y-82765530D01*
X137356033Y-82765530D01*
X137356030Y-82765531D01*
X137160000Y-82784838D01*
X136963971Y-82765531D01*
X136963968Y-82765530D01*
X136963967Y-82765530D01*
X136775466Y-82708349D01*
X136601743Y-82615492D01*
X136601741Y-82615491D01*
X136449473Y-82490528D01*
X136324510Y-82338260D01*
X136231651Y-82164533D01*
X136174469Y-81976035D01*
X136160000Y-81829124D01*
X136160000Y-80730877D01*
X136174469Y-80583971D01*
X136174470Y-80583967D01*
X136231651Y-80395466D01*
X136231652Y-80395464D01*
X136231653Y-80395461D01*
X136324507Y-80221742D01*
X136449472Y-80069472D01*
X136601740Y-79944509D01*
X136775463Y-79851652D01*
X136775465Y-79851651D01*
X136963966Y-79794470D01*
X136963967Y-79794470D01*
X136963970Y-79794469D01*
X137160000Y-79775162D01*
X137356029Y-79794469D01*
X137356029Y-79794469D01*
G37*
G36*
X139896029Y-79794469D02*
X139896032Y-79794470D01*
X139896033Y-79794470D01*
X140084534Y-79851651D01*
X140084536Y-79851652D01*
X140084539Y-79851653D01*
X140258258Y-79944507D01*
X140410528Y-80069472D01*
X140535491Y-80221740D01*
X140628348Y-80395463D01*
X140685531Y-80583970D01*
X140700000Y-80730876D01*
X140700000Y-81829124D01*
X140685531Y-81976030D01*
X140685530Y-81976033D01*
X140685530Y-81976034D01*
X140628350Y-82164533D01*
X140628348Y-82164537D01*
X140535491Y-82338260D01*
X140410528Y-82490528D01*
X140258260Y-82615491D01*
X140258258Y-82615492D01*
X140084535Y-82708349D01*
X139896034Y-82765530D01*
X139896033Y-82765530D01*
X139896030Y-82765531D01*
X139700000Y-82784838D01*
X139503971Y-82765531D01*
X139503968Y-82765530D01*
X139503967Y-82765530D01*
X139315466Y-82708349D01*
X139141743Y-82615492D01*
X139141741Y-82615491D01*
X138989473Y-82490528D01*
X138864510Y-82338260D01*
X138771651Y-82164533D01*
X138714469Y-81976035D01*
X138700000Y-81829124D01*
X138700000Y-80730877D01*
X138714469Y-80583971D01*
X138714470Y-80583967D01*
X138771651Y-80395466D01*
X138771652Y-80395464D01*
X138771653Y-80395461D01*
X138864507Y-80221742D01*
X138989472Y-80069472D01*
X139141740Y-79944509D01*
X139315463Y-79851652D01*
X139315465Y-79851651D01*
X139503966Y-79794470D01*
X139503967Y-79794470D01*
X139503970Y-79794469D01*
X139700000Y-79775162D01*
X139896029Y-79794469D01*
X139896029Y-79794469D01*
G37*
G36*
X142436029Y-79794469D02*
X142436032Y-79794470D01*
X142436033Y-79794470D01*
X142624534Y-79851651D01*
X142624536Y-79851652D01*
X142624539Y-79851653D01*
X142798258Y-79944507D01*
X142950528Y-80069472D01*
X143075491Y-80221740D01*
X143168348Y-80395463D01*
X143225531Y-80583970D01*
X143240000Y-80730876D01*
X143240000Y-81829124D01*
X143225531Y-81976030D01*
X143225530Y-81976033D01*
X143225530Y-81976034D01*
X143168350Y-82164533D01*
X143168348Y-82164537D01*
X143075491Y-82338260D01*
X142950528Y-82490528D01*
X142798260Y-82615491D01*
X142798258Y-82615492D01*
X142624535Y-82708349D01*
X142436034Y-82765530D01*
X142436033Y-82765530D01*
X142436030Y-82765531D01*
X142240000Y-82784838D01*
X142043971Y-82765531D01*
X142043968Y-82765530D01*
X142043967Y-82765530D01*
X141855466Y-82708349D01*
X141681743Y-82615492D01*
X141681741Y-82615491D01*
X141529473Y-82490528D01*
X141404510Y-82338260D01*
X141311651Y-82164533D01*
X141254469Y-81976035D01*
X141240000Y-81829124D01*
X141240000Y-80730877D01*
X141254469Y-80583971D01*
X141254470Y-80583967D01*
X141311651Y-80395466D01*
X141311652Y-80395464D01*
X141311653Y-80395461D01*
X141404507Y-80221742D01*
X141529472Y-80069472D01*
X141681740Y-79944509D01*
X141855463Y-79851652D01*
X141855465Y-79851651D01*
X142043966Y-79794470D01*
X142043967Y-79794470D01*
X142043970Y-79794469D01*
X142240000Y-79775162D01*
X142436029Y-79794469D01*
X142436029Y-79794469D01*
G37*
G36*
X174186029Y-79794469D02*
X174186032Y-79794470D01*
X174186033Y-79794470D01*
X174374534Y-79851651D01*
X174374536Y-79851652D01*
X174374539Y-79851653D01*
X174548258Y-79944507D01*
X174700528Y-80069472D01*
X174825491Y-80221740D01*
X174918348Y-80395463D01*
X174975531Y-80583970D01*
X174990000Y-80730876D01*
X174990000Y-81829124D01*
X174975531Y-81976030D01*
X174975530Y-81976033D01*
X174975530Y-81976034D01*
X174918350Y-82164533D01*
X174918348Y-82164537D01*
X174825491Y-82338260D01*
X174700528Y-82490528D01*
X174548260Y-82615491D01*
X174548258Y-82615492D01*
X174374535Y-82708349D01*
X174186034Y-82765530D01*
X174186033Y-82765530D01*
X174186030Y-82765531D01*
X173990000Y-82784838D01*
X173793971Y-82765531D01*
X173793968Y-82765530D01*
X173793967Y-82765530D01*
X173605466Y-82708349D01*
X173431743Y-82615492D01*
X173431741Y-82615491D01*
X173279473Y-82490528D01*
X173154510Y-82338260D01*
X173061651Y-82164533D01*
X173004469Y-81976035D01*
X172990000Y-81829124D01*
X172990000Y-80730877D01*
X173004469Y-80583971D01*
X173004470Y-80583967D01*
X173061651Y-80395466D01*
X173061652Y-80395464D01*
X173061653Y-80395461D01*
X173154507Y-80221742D01*
X173279472Y-80069472D01*
X173431740Y-79944509D01*
X173605463Y-79851652D01*
X173605465Y-79851651D01*
X173793966Y-79794470D01*
X173793967Y-79794470D01*
X173793970Y-79794469D01*
X173990000Y-79775162D01*
X174186029Y-79794469D01*
X174186029Y-79794469D01*
G37*
G36*
X144976029Y-79794469D02*
X144976032Y-79794470D01*
X144976033Y-79794470D01*
X145164534Y-79851651D01*
X145164536Y-79851652D01*
X145164539Y-79851653D01*
X145338258Y-79944507D01*
X145490528Y-80069472D01*
X145615491Y-80221740D01*
X145708348Y-80395463D01*
X145765531Y-80583970D01*
X145780000Y-80730876D01*
X145780000Y-81829124D01*
X145765531Y-81976030D01*
X145765530Y-81976033D01*
X145765530Y-81976034D01*
X145708350Y-82164533D01*
X145708348Y-82164537D01*
X145615491Y-82338260D01*
X145490528Y-82490528D01*
X145338260Y-82615491D01*
X145338258Y-82615492D01*
X145164535Y-82708349D01*
X144976034Y-82765530D01*
X144976033Y-82765530D01*
X144976030Y-82765531D01*
X144780000Y-82784838D01*
X144583971Y-82765531D01*
X144583968Y-82765530D01*
X144583967Y-82765530D01*
X144395466Y-82708349D01*
X144221743Y-82615492D01*
X144221741Y-82615491D01*
X144069473Y-82490528D01*
X143944510Y-82338260D01*
X143851651Y-82164533D01*
X143794469Y-81976035D01*
X143780000Y-81829124D01*
X143780000Y-80730877D01*
X143794469Y-80583971D01*
X143794470Y-80583967D01*
X143851651Y-80395466D01*
X143851652Y-80395464D01*
X143851653Y-80395461D01*
X143944507Y-80221742D01*
X144069472Y-80069472D01*
X144221740Y-79944509D01*
X144395463Y-79851652D01*
X144395465Y-79851651D01*
X144583966Y-79794470D01*
X144583967Y-79794470D01*
X144583970Y-79794469D01*
X144780000Y-79775162D01*
X144976029Y-79794469D01*
X144976029Y-79794469D01*
G37*
G36*
X166566029Y-79794469D02*
X166566032Y-79794470D01*
X166566033Y-79794470D01*
X166754534Y-79851651D01*
X166754536Y-79851652D01*
X166754539Y-79851653D01*
X166928258Y-79944507D01*
X167080528Y-80069472D01*
X167205491Y-80221740D01*
X167298348Y-80395463D01*
X167355531Y-80583970D01*
X167370000Y-80730876D01*
X167370000Y-81829124D01*
X167355531Y-81976030D01*
X167355530Y-81976033D01*
X167355530Y-81976034D01*
X167298350Y-82164533D01*
X167298348Y-82164537D01*
X167205491Y-82338260D01*
X167080528Y-82490528D01*
X166928260Y-82615491D01*
X166928258Y-82615492D01*
X166754535Y-82708349D01*
X166566034Y-82765530D01*
X166566033Y-82765530D01*
X166566030Y-82765531D01*
X166370000Y-82784838D01*
X166173971Y-82765531D01*
X166173968Y-82765530D01*
X166173967Y-82765530D01*
X165985466Y-82708349D01*
X165811743Y-82615492D01*
X165811741Y-82615491D01*
X165659473Y-82490528D01*
X165534510Y-82338260D01*
X165441651Y-82164533D01*
X165384469Y-81976035D01*
X165370000Y-81829124D01*
X165370000Y-80730877D01*
X165384469Y-80583971D01*
X165384470Y-80583967D01*
X165441651Y-80395466D01*
X165441652Y-80395464D01*
X165441653Y-80395461D01*
X165534507Y-80221742D01*
X165659472Y-80069472D01*
X165811740Y-79944509D01*
X165985463Y-79851652D01*
X165985465Y-79851651D01*
X166173966Y-79794470D01*
X166173967Y-79794470D01*
X166173970Y-79794469D01*
X166370000Y-79775162D01*
X166566029Y-79794469D01*
X166566029Y-79794469D01*
G37*
G36*
X147516029Y-79794469D02*
X147516032Y-79794470D01*
X147516033Y-79794470D01*
X147704534Y-79851651D01*
X147704536Y-79851652D01*
X147704539Y-79851653D01*
X147878258Y-79944507D01*
X148030528Y-80069472D01*
X148155491Y-80221740D01*
X148248348Y-80395463D01*
X148305531Y-80583970D01*
X148320000Y-80730876D01*
X148320000Y-81829124D01*
X148305531Y-81976030D01*
X148305530Y-81976033D01*
X148305530Y-81976034D01*
X148248350Y-82164533D01*
X148248348Y-82164537D01*
X148155491Y-82338260D01*
X148030528Y-82490528D01*
X147878260Y-82615491D01*
X147878258Y-82615492D01*
X147704535Y-82708349D01*
X147516034Y-82765530D01*
X147516033Y-82765530D01*
X147516030Y-82765531D01*
X147320000Y-82784838D01*
X147123971Y-82765531D01*
X147123968Y-82765530D01*
X147123967Y-82765530D01*
X146935466Y-82708349D01*
X146761743Y-82615492D01*
X146761741Y-82615491D01*
X146609473Y-82490528D01*
X146484510Y-82338260D01*
X146391651Y-82164533D01*
X146334469Y-81976035D01*
X146320000Y-81829124D01*
X146320000Y-80730877D01*
X146334469Y-80583971D01*
X146334470Y-80583967D01*
X146391651Y-80395466D01*
X146391652Y-80395464D01*
X146391653Y-80395461D01*
X146484507Y-80221742D01*
X146609472Y-80069472D01*
X146761740Y-79944509D01*
X146935463Y-79851652D01*
X146935465Y-79851651D01*
X147123966Y-79794470D01*
X147123967Y-79794470D01*
X147123970Y-79794469D01*
X147320000Y-79775162D01*
X147516029Y-79794469D01*
X147516029Y-79794469D01*
G37*
G36*
X171646029Y-79794469D02*
X171646032Y-79794470D01*
X171646033Y-79794470D01*
X171834534Y-79851651D01*
X171834536Y-79851652D01*
X171834539Y-79851653D01*
X172008258Y-79944507D01*
X172160528Y-80069472D01*
X172285491Y-80221740D01*
X172378348Y-80395463D01*
X172435531Y-80583970D01*
X172450000Y-80730876D01*
X172450000Y-81829124D01*
X172435531Y-81976030D01*
X172435530Y-81976033D01*
X172435530Y-81976034D01*
X172378350Y-82164533D01*
X172378348Y-82164537D01*
X172285491Y-82338260D01*
X172160528Y-82490528D01*
X172008260Y-82615491D01*
X172008258Y-82615492D01*
X171834535Y-82708349D01*
X171646034Y-82765530D01*
X171646033Y-82765530D01*
X171646030Y-82765531D01*
X171450000Y-82784838D01*
X171253971Y-82765531D01*
X171253968Y-82765530D01*
X171253967Y-82765530D01*
X171065466Y-82708349D01*
X170891743Y-82615492D01*
X170891741Y-82615491D01*
X170739473Y-82490528D01*
X170614510Y-82338260D01*
X170521651Y-82164533D01*
X170464469Y-81976035D01*
X170450000Y-81829124D01*
X170450000Y-80730877D01*
X170464469Y-80583971D01*
X170464470Y-80583967D01*
X170521651Y-80395466D01*
X170521652Y-80395464D01*
X170521653Y-80395461D01*
X170614507Y-80221742D01*
X170739472Y-80069472D01*
X170891740Y-79944509D01*
X171065463Y-79851652D01*
X171065465Y-79851651D01*
X171253966Y-79794470D01*
X171253967Y-79794470D01*
X171253970Y-79794469D01*
X171450000Y-79775162D01*
X171646029Y-79794469D01*
X171646029Y-79794469D01*
G37*
G36*
X169106029Y-79794469D02*
X169106032Y-79794470D01*
X169106033Y-79794470D01*
X169294534Y-79851651D01*
X169294536Y-79851652D01*
X169294539Y-79851653D01*
X169468258Y-79944507D01*
X169620528Y-80069472D01*
X169745491Y-80221740D01*
X169838348Y-80395463D01*
X169895531Y-80583970D01*
X169910000Y-80730876D01*
X169910000Y-81829124D01*
X169895531Y-81976030D01*
X169895530Y-81976033D01*
X169895530Y-81976034D01*
X169838350Y-82164533D01*
X169838348Y-82164537D01*
X169745491Y-82338260D01*
X169620528Y-82490528D01*
X169468260Y-82615491D01*
X169468258Y-82615492D01*
X169294535Y-82708349D01*
X169106034Y-82765530D01*
X169106033Y-82765530D01*
X169106030Y-82765531D01*
X168910000Y-82784838D01*
X168713971Y-82765531D01*
X168713968Y-82765530D01*
X168713967Y-82765530D01*
X168525466Y-82708349D01*
X168351743Y-82615492D01*
X168351741Y-82615491D01*
X168199473Y-82490528D01*
X168074510Y-82338260D01*
X167981651Y-82164533D01*
X167924469Y-81976035D01*
X167910000Y-81829124D01*
X167910000Y-80730877D01*
X167924469Y-80583971D01*
X167924470Y-80583967D01*
X167981651Y-80395466D01*
X167981652Y-80395464D01*
X167981653Y-80395461D01*
X168074507Y-80221742D01*
X168199472Y-80069472D01*
X168351740Y-79944509D01*
X168525463Y-79851652D01*
X168525465Y-79851651D01*
X168713966Y-79794470D01*
X168713967Y-79794470D01*
X168713970Y-79794469D01*
X168910000Y-79775162D01*
X169106029Y-79794469D01*
X169106029Y-79794469D01*
G37*
G36*
X118450935Y-77358429D02*
X118547534Y-77377644D01*
X118820517Y-77490717D01*
X119062920Y-77652687D01*
X119066197Y-77654876D01*
X119275124Y-77863803D01*
X119439284Y-78109485D01*
X119462707Y-78166033D01*
X119540787Y-78354535D01*
X119552356Y-78382467D01*
X119610000Y-78672261D01*
X119610000Y-78967739D01*
X119552356Y-79257533D01*
X119439284Y-79530515D01*
X119275124Y-79776197D01*
X119066197Y-79985124D01*
X119066194Y-79985126D01*
X118820517Y-80149283D01*
X118547534Y-80262356D01*
X118450935Y-80281571D01*
X118257739Y-80320000D01*
X117962261Y-80320000D01*
X117769065Y-80281571D01*
X117672466Y-80262356D01*
X117399483Y-80149283D01*
X117153806Y-79985126D01*
X117153803Y-79985124D01*
X116944876Y-79776197D01*
X116780716Y-79530515D01*
X116667644Y-79257533D01*
X116610000Y-78967739D01*
X116610000Y-78672261D01*
X116667644Y-78382467D01*
X116679214Y-78354535D01*
X116757293Y-78166033D01*
X116780716Y-78109485D01*
X116944876Y-77863803D01*
X117153803Y-77654876D01*
X117157080Y-77652687D01*
X117399483Y-77490717D01*
X117672466Y-77377644D01*
X117769065Y-77358429D01*
X117962261Y-77320000D01*
X118257739Y-77320000D01*
X118450935Y-77358429D01*
X118450935Y-77358429D01*
G37*
G36*
X169106030Y-75984469D02*
X169106033Y-75984470D01*
X169106034Y-75984470D01*
X169294535Y-76041651D01*
X169294537Y-76041652D01*
X169468260Y-76134509D01*
X169620528Y-76259472D01*
X169745491Y-76411740D01*
X169745492Y-76411742D01*
X169838349Y-76585465D01*
X169895530Y-76773966D01*
X169895531Y-76773970D01*
X169910000Y-76920876D01*
X169910000Y-78019124D01*
X169895531Y-78166030D01*
X169838348Y-78354537D01*
X169745491Y-78528260D01*
X169620528Y-78680528D01*
X169468258Y-78805493D01*
X169294539Y-78898347D01*
X169294536Y-78898348D01*
X169294534Y-78898349D01*
X169106033Y-78955530D01*
X169106032Y-78955530D01*
X169106029Y-78955531D01*
X168910000Y-78974838D01*
X168713970Y-78955531D01*
X168713967Y-78955530D01*
X168713966Y-78955530D01*
X168525465Y-78898349D01*
X168351742Y-78805492D01*
X168351740Y-78805491D01*
X168199472Y-78680528D01*
X168074507Y-78528258D01*
X167981653Y-78354539D01*
X167924471Y-78166034D01*
X167924470Y-78166033D01*
X167924470Y-78166032D01*
X167924469Y-78166029D01*
X167910000Y-78019123D01*
X167910000Y-76920876D01*
X167924469Y-76773965D01*
X167981651Y-76585467D01*
X168074510Y-76411740D01*
X168199473Y-76259472D01*
X168351741Y-76134509D01*
X168525464Y-76041652D01*
X168525466Y-76041651D01*
X168713967Y-75984470D01*
X168713968Y-75984470D01*
X168713971Y-75984469D01*
X168910000Y-75965162D01*
X169106030Y-75984469D01*
X169106030Y-75984469D01*
G37*
G36*
X161486030Y-75984469D02*
X161486033Y-75984470D01*
X161486034Y-75984470D01*
X161674535Y-76041651D01*
X161674537Y-76041652D01*
X161848260Y-76134509D01*
X162000528Y-76259472D01*
X162125491Y-76411740D01*
X162125492Y-76411742D01*
X162218349Y-76585465D01*
X162275530Y-76773966D01*
X162275531Y-76773970D01*
X162290000Y-76920876D01*
X162290000Y-78019124D01*
X162275531Y-78166030D01*
X162218348Y-78354537D01*
X162125491Y-78528260D01*
X162000528Y-78680528D01*
X161848258Y-78805493D01*
X161674539Y-78898347D01*
X161674536Y-78898348D01*
X161674534Y-78898349D01*
X161486033Y-78955530D01*
X161486032Y-78955530D01*
X161486029Y-78955531D01*
X161290000Y-78974838D01*
X161093970Y-78955531D01*
X161093967Y-78955530D01*
X161093966Y-78955530D01*
X160905465Y-78898349D01*
X160731742Y-78805492D01*
X160731740Y-78805491D01*
X160579472Y-78680528D01*
X160454507Y-78528258D01*
X160361653Y-78354539D01*
X160304471Y-78166034D01*
X160304470Y-78166033D01*
X160304470Y-78166032D01*
X160304469Y-78166029D01*
X160290000Y-78019123D01*
X160290000Y-76920876D01*
X160304469Y-76773965D01*
X160361651Y-76585467D01*
X160454510Y-76411740D01*
X160579473Y-76259472D01*
X160731741Y-76134509D01*
X160905464Y-76041652D01*
X160905466Y-76041651D01*
X161093967Y-75984470D01*
X161093968Y-75984470D01*
X161093971Y-75984469D01*
X161290000Y-75965162D01*
X161486030Y-75984469D01*
X161486030Y-75984469D01*
G37*
G36*
X144976030Y-75984469D02*
X144976033Y-75984470D01*
X144976034Y-75984470D01*
X145164535Y-76041651D01*
X145164537Y-76041652D01*
X145338260Y-76134509D01*
X145490528Y-76259472D01*
X145615491Y-76411740D01*
X145615492Y-76411742D01*
X145708349Y-76585465D01*
X145765530Y-76773966D01*
X145765531Y-76773970D01*
X145780000Y-76920876D01*
X145780000Y-78019124D01*
X145765531Y-78166030D01*
X145708348Y-78354537D01*
X145615491Y-78528260D01*
X145490528Y-78680528D01*
X145338258Y-78805493D01*
X145164539Y-78898347D01*
X145164536Y-78898348D01*
X145164534Y-78898349D01*
X144976033Y-78955530D01*
X144976032Y-78955530D01*
X144976029Y-78955531D01*
X144780000Y-78974838D01*
X144583970Y-78955531D01*
X144583967Y-78955530D01*
X144583966Y-78955530D01*
X144395465Y-78898349D01*
X144221742Y-78805492D01*
X144221740Y-78805491D01*
X144069472Y-78680528D01*
X143944507Y-78528258D01*
X143851653Y-78354539D01*
X143794471Y-78166034D01*
X143794470Y-78166033D01*
X143794470Y-78166032D01*
X143794469Y-78166029D01*
X143780000Y-78019123D01*
X143780000Y-76920876D01*
X143794469Y-76773965D01*
X143851651Y-76585467D01*
X143944510Y-76411740D01*
X144069473Y-76259472D01*
X144221741Y-76134509D01*
X144395464Y-76041652D01*
X144395466Y-76041651D01*
X144583967Y-75984470D01*
X144583968Y-75984470D01*
X144583971Y-75984469D01*
X144780000Y-75965162D01*
X144976030Y-75984469D01*
X144976030Y-75984469D01*
G37*
G36*
X142436030Y-75984469D02*
X142436033Y-75984470D01*
X142436034Y-75984470D01*
X142624535Y-76041651D01*
X142624537Y-76041652D01*
X142798260Y-76134509D01*
X142950528Y-76259472D01*
X143075491Y-76411740D01*
X143075492Y-76411742D01*
X143168349Y-76585465D01*
X143225530Y-76773966D01*
X143225531Y-76773970D01*
X143240000Y-76920876D01*
X143240000Y-78019124D01*
X143225531Y-78166030D01*
X143168348Y-78354537D01*
X143075491Y-78528260D01*
X142950528Y-78680528D01*
X142798258Y-78805493D01*
X142624539Y-78898347D01*
X142624536Y-78898348D01*
X142624534Y-78898349D01*
X142436033Y-78955530D01*
X142436032Y-78955530D01*
X142436029Y-78955531D01*
X142240000Y-78974838D01*
X142043970Y-78955531D01*
X142043967Y-78955530D01*
X142043966Y-78955530D01*
X141855465Y-78898349D01*
X141681742Y-78805492D01*
X141681740Y-78805491D01*
X141529472Y-78680528D01*
X141404507Y-78528258D01*
X141311653Y-78354539D01*
X141254471Y-78166034D01*
X141254470Y-78166033D01*
X141254470Y-78166032D01*
X141254469Y-78166029D01*
X141240000Y-78019123D01*
X141240000Y-76920876D01*
X141254469Y-76773965D01*
X141311651Y-76585467D01*
X141404510Y-76411740D01*
X141529473Y-76259472D01*
X141681741Y-76134509D01*
X141855464Y-76041652D01*
X141855466Y-76041651D01*
X142043967Y-75984470D01*
X142043968Y-75984470D01*
X142043971Y-75984469D01*
X142240000Y-75965162D01*
X142436030Y-75984469D01*
X142436030Y-75984469D01*
G37*
G36*
X137356030Y-75984469D02*
X137356033Y-75984470D01*
X137356034Y-75984470D01*
X137544535Y-76041651D01*
X137544537Y-76041652D01*
X137718260Y-76134509D01*
X137870528Y-76259472D01*
X137995491Y-76411740D01*
X137995492Y-76411742D01*
X138088349Y-76585465D01*
X138145530Y-76773966D01*
X138145531Y-76773970D01*
X138160000Y-76920876D01*
X138160000Y-78019124D01*
X138145531Y-78166030D01*
X138088348Y-78354537D01*
X137995491Y-78528260D01*
X137870528Y-78680528D01*
X137718258Y-78805493D01*
X137544539Y-78898347D01*
X137544536Y-78898348D01*
X137544534Y-78898349D01*
X137356033Y-78955530D01*
X137356032Y-78955530D01*
X137356029Y-78955531D01*
X137160000Y-78974838D01*
X136963970Y-78955531D01*
X136963967Y-78955530D01*
X136963966Y-78955530D01*
X136775465Y-78898349D01*
X136601742Y-78805492D01*
X136601740Y-78805491D01*
X136449472Y-78680528D01*
X136324507Y-78528258D01*
X136231653Y-78354539D01*
X136174471Y-78166034D01*
X136174470Y-78166033D01*
X136174470Y-78166032D01*
X136174469Y-78166029D01*
X136160000Y-78019123D01*
X136160000Y-76920876D01*
X136174469Y-76773965D01*
X136231651Y-76585467D01*
X136324510Y-76411740D01*
X136449473Y-76259472D01*
X136601741Y-76134509D01*
X136775464Y-76041652D01*
X136775466Y-76041651D01*
X136963967Y-75984470D01*
X136963968Y-75984470D01*
X136963971Y-75984469D01*
X137160000Y-75965162D01*
X137356030Y-75984469D01*
X137356030Y-75984469D01*
G37*
G36*
X132276030Y-75984469D02*
X132276033Y-75984470D01*
X132276034Y-75984470D01*
X132464535Y-76041651D01*
X132464537Y-76041652D01*
X132638260Y-76134509D01*
X132790528Y-76259472D01*
X132915491Y-76411740D01*
X132915492Y-76411742D01*
X133008349Y-76585465D01*
X133065530Y-76773966D01*
X133065531Y-76773970D01*
X133080000Y-76920876D01*
X133080000Y-78019124D01*
X133065531Y-78166030D01*
X133008348Y-78354537D01*
X132915491Y-78528260D01*
X132790528Y-78680528D01*
X132638258Y-78805493D01*
X132464539Y-78898347D01*
X132464536Y-78898348D01*
X132464534Y-78898349D01*
X132276033Y-78955530D01*
X132276032Y-78955530D01*
X132276029Y-78955531D01*
X132080000Y-78974838D01*
X131883970Y-78955531D01*
X131883967Y-78955530D01*
X131883966Y-78955530D01*
X131695465Y-78898349D01*
X131521742Y-78805492D01*
X131521740Y-78805491D01*
X131369472Y-78680528D01*
X131244507Y-78528258D01*
X131151653Y-78354539D01*
X131094471Y-78166034D01*
X131094470Y-78166033D01*
X131094470Y-78166032D01*
X131094469Y-78166029D01*
X131080000Y-78019123D01*
X131080000Y-76920876D01*
X131094469Y-76773965D01*
X131151651Y-76585467D01*
X131244510Y-76411740D01*
X131369473Y-76259472D01*
X131521741Y-76134509D01*
X131695464Y-76041652D01*
X131695466Y-76041651D01*
X131883967Y-75984470D01*
X131883968Y-75984470D01*
X131883971Y-75984469D01*
X132080000Y-75965162D01*
X132276030Y-75984469D01*
X132276030Y-75984469D01*
G37*
G36*
X174186030Y-75984469D02*
X174186033Y-75984470D01*
X174186034Y-75984470D01*
X174374535Y-76041651D01*
X174374537Y-76041652D01*
X174548260Y-76134509D01*
X174700528Y-76259472D01*
X174825491Y-76411740D01*
X174825492Y-76411742D01*
X174918349Y-76585465D01*
X174975530Y-76773966D01*
X174975531Y-76773970D01*
X174990000Y-76920876D01*
X174990000Y-78019124D01*
X174975531Y-78166030D01*
X174918348Y-78354537D01*
X174825491Y-78528260D01*
X174700528Y-78680528D01*
X174548258Y-78805493D01*
X174374539Y-78898347D01*
X174374536Y-78898348D01*
X174374534Y-78898349D01*
X174186033Y-78955530D01*
X174186032Y-78955530D01*
X174186029Y-78955531D01*
X173990000Y-78974838D01*
X173793970Y-78955531D01*
X173793967Y-78955530D01*
X173793966Y-78955530D01*
X173605465Y-78898349D01*
X173431742Y-78805492D01*
X173431740Y-78805491D01*
X173279472Y-78680528D01*
X173154507Y-78528258D01*
X173061653Y-78354539D01*
X173004471Y-78166034D01*
X173004470Y-78166033D01*
X173004470Y-78166032D01*
X173004469Y-78166029D01*
X172990000Y-78019123D01*
X172990000Y-76920876D01*
X173004469Y-76773965D01*
X173061651Y-76585467D01*
X173154510Y-76411740D01*
X173279473Y-76259472D01*
X173431741Y-76134509D01*
X173605464Y-76041652D01*
X173605466Y-76041651D01*
X173793967Y-75984470D01*
X173793968Y-75984470D01*
X173793971Y-75984469D01*
X173990000Y-75965162D01*
X174186030Y-75984469D01*
X174186030Y-75984469D01*
G37*
G36*
X171646030Y-75984469D02*
X171646033Y-75984470D01*
X171646034Y-75984470D01*
X171834535Y-76041651D01*
X171834537Y-76041652D01*
X172008260Y-76134509D01*
X172160528Y-76259472D01*
X172285491Y-76411740D01*
X172285492Y-76411742D01*
X172378349Y-76585465D01*
X172435530Y-76773966D01*
X172435531Y-76773970D01*
X172450000Y-76920876D01*
X172450000Y-78019124D01*
X172435531Y-78166030D01*
X172378348Y-78354537D01*
X172285491Y-78528260D01*
X172160528Y-78680528D01*
X172008258Y-78805493D01*
X171834539Y-78898347D01*
X171834536Y-78898348D01*
X171834534Y-78898349D01*
X171646033Y-78955530D01*
X171646032Y-78955530D01*
X171646029Y-78955531D01*
X171450000Y-78974838D01*
X171253970Y-78955531D01*
X171253967Y-78955530D01*
X171253966Y-78955530D01*
X171065465Y-78898349D01*
X170891742Y-78805492D01*
X170891740Y-78805491D01*
X170739472Y-78680528D01*
X170614507Y-78528258D01*
X170521653Y-78354539D01*
X170464471Y-78166034D01*
X170464470Y-78166033D01*
X170464470Y-78166032D01*
X170464469Y-78166029D01*
X170450000Y-78019123D01*
X170450000Y-76920876D01*
X170464469Y-76773965D01*
X170521651Y-76585467D01*
X170614510Y-76411740D01*
X170739473Y-76259472D01*
X170891741Y-76134509D01*
X171065464Y-76041652D01*
X171065466Y-76041651D01*
X171253967Y-75984470D01*
X171253968Y-75984470D01*
X171253971Y-75984469D01*
X171450000Y-75965162D01*
X171646030Y-75984469D01*
X171646030Y-75984469D01*
G37*
G36*
X166566030Y-75984469D02*
X166566033Y-75984470D01*
X166566034Y-75984470D01*
X166754535Y-76041651D01*
X166754537Y-76041652D01*
X166928260Y-76134509D01*
X167080528Y-76259472D01*
X167205491Y-76411740D01*
X167205492Y-76411742D01*
X167298349Y-76585465D01*
X167355530Y-76773966D01*
X167355531Y-76773970D01*
X167370000Y-76920876D01*
X167370000Y-78019124D01*
X167355531Y-78166030D01*
X167298348Y-78354537D01*
X167205491Y-78528260D01*
X167080528Y-78680528D01*
X166928258Y-78805493D01*
X166754539Y-78898347D01*
X166754536Y-78898348D01*
X166754534Y-78898349D01*
X166566033Y-78955530D01*
X166566032Y-78955530D01*
X166566029Y-78955531D01*
X166370000Y-78974838D01*
X166173970Y-78955531D01*
X166173967Y-78955530D01*
X166173966Y-78955530D01*
X165985465Y-78898349D01*
X165811742Y-78805492D01*
X165811740Y-78805491D01*
X165659472Y-78680528D01*
X165534507Y-78528258D01*
X165441653Y-78354539D01*
X165384471Y-78166034D01*
X165384470Y-78166033D01*
X165384470Y-78166032D01*
X165384469Y-78166029D01*
X165370000Y-78019123D01*
X165370000Y-76920876D01*
X165384469Y-76773965D01*
X165441651Y-76585467D01*
X165534510Y-76411740D01*
X165659473Y-76259472D01*
X165811741Y-76134509D01*
X165985464Y-76041652D01*
X165985466Y-76041651D01*
X166173967Y-75984470D01*
X166173968Y-75984470D01*
X166173971Y-75984469D01*
X166370000Y-75965162D01*
X166566030Y-75984469D01*
X166566030Y-75984469D01*
G37*
G36*
X164026030Y-75984469D02*
X164026033Y-75984470D01*
X164026034Y-75984470D01*
X164214535Y-76041651D01*
X164214537Y-76041652D01*
X164388260Y-76134509D01*
X164540528Y-76259472D01*
X164665491Y-76411740D01*
X164665492Y-76411742D01*
X164758349Y-76585465D01*
X164815530Y-76773966D01*
X164815531Y-76773970D01*
X164830000Y-76920876D01*
X164830000Y-78019124D01*
X164815531Y-78166030D01*
X164758348Y-78354537D01*
X164665491Y-78528260D01*
X164540528Y-78680528D01*
X164388258Y-78805493D01*
X164214539Y-78898347D01*
X164214536Y-78898348D01*
X164214534Y-78898349D01*
X164026033Y-78955530D01*
X164026032Y-78955530D01*
X164026029Y-78955531D01*
X163830000Y-78974838D01*
X163633970Y-78955531D01*
X163633967Y-78955530D01*
X163633966Y-78955530D01*
X163445465Y-78898349D01*
X163271742Y-78805492D01*
X163271740Y-78805491D01*
X163119472Y-78680528D01*
X162994507Y-78528258D01*
X162901653Y-78354539D01*
X162844471Y-78166034D01*
X162844470Y-78166033D01*
X162844470Y-78166032D01*
X162844469Y-78166029D01*
X162830000Y-78019123D01*
X162830000Y-76920876D01*
X162844469Y-76773965D01*
X162901651Y-76585467D01*
X162994510Y-76411740D01*
X163119473Y-76259472D01*
X163271741Y-76134509D01*
X163445464Y-76041652D01*
X163445466Y-76041651D01*
X163633967Y-75984470D01*
X163633968Y-75984470D01*
X163633971Y-75984469D01*
X163830000Y-75965162D01*
X164026030Y-75984469D01*
X164026030Y-75984469D01*
G37*
G36*
X134816030Y-75984469D02*
X134816033Y-75984470D01*
X134816034Y-75984470D01*
X135004535Y-76041651D01*
X135004537Y-76041652D01*
X135178260Y-76134509D01*
X135330528Y-76259472D01*
X135455491Y-76411740D01*
X135455492Y-76411742D01*
X135548349Y-76585465D01*
X135605530Y-76773966D01*
X135605531Y-76773970D01*
X135620000Y-76920876D01*
X135620000Y-78019124D01*
X135605531Y-78166030D01*
X135548348Y-78354537D01*
X135455491Y-78528260D01*
X135330528Y-78680528D01*
X135178258Y-78805493D01*
X135004539Y-78898347D01*
X135004536Y-78898348D01*
X135004534Y-78898349D01*
X134816033Y-78955530D01*
X134816032Y-78955530D01*
X134816029Y-78955531D01*
X134620000Y-78974838D01*
X134423970Y-78955531D01*
X134423967Y-78955530D01*
X134423966Y-78955530D01*
X134235465Y-78898349D01*
X134061742Y-78805492D01*
X134061740Y-78805491D01*
X133909472Y-78680528D01*
X133784507Y-78528258D01*
X133691653Y-78354539D01*
X133634471Y-78166034D01*
X133634470Y-78166033D01*
X133634470Y-78166032D01*
X133634469Y-78166029D01*
X133620000Y-78019123D01*
X133620000Y-76920876D01*
X133634469Y-76773965D01*
X133691651Y-76585467D01*
X133784510Y-76411740D01*
X133909473Y-76259472D01*
X134061741Y-76134509D01*
X134235464Y-76041652D01*
X134235466Y-76041651D01*
X134423967Y-75984470D01*
X134423968Y-75984470D01*
X134423971Y-75984469D01*
X134620000Y-75965162D01*
X134816030Y-75984469D01*
X134816030Y-75984469D01*
G37*
G36*
X139896030Y-75984469D02*
X139896033Y-75984470D01*
X139896034Y-75984470D01*
X140084535Y-76041651D01*
X140084537Y-76041652D01*
X140258260Y-76134509D01*
X140410528Y-76259472D01*
X140535491Y-76411740D01*
X140535492Y-76411742D01*
X140628349Y-76585465D01*
X140685530Y-76773966D01*
X140685531Y-76773970D01*
X140700000Y-76920876D01*
X140700000Y-78019124D01*
X140685531Y-78166030D01*
X140628348Y-78354537D01*
X140535491Y-78528260D01*
X140410528Y-78680528D01*
X140258258Y-78805493D01*
X140084539Y-78898347D01*
X140084536Y-78898348D01*
X140084534Y-78898349D01*
X139896033Y-78955530D01*
X139896032Y-78955530D01*
X139896029Y-78955531D01*
X139700000Y-78974838D01*
X139503970Y-78955531D01*
X139503967Y-78955530D01*
X139503966Y-78955530D01*
X139315465Y-78898349D01*
X139141742Y-78805492D01*
X139141740Y-78805491D01*
X138989472Y-78680528D01*
X138864507Y-78528258D01*
X138771653Y-78354539D01*
X138714471Y-78166034D01*
X138714470Y-78166033D01*
X138714470Y-78166032D01*
X138714469Y-78166029D01*
X138700000Y-78019123D01*
X138700000Y-76920876D01*
X138714469Y-76773965D01*
X138771651Y-76585467D01*
X138864510Y-76411740D01*
X138989473Y-76259472D01*
X139141741Y-76134509D01*
X139315464Y-76041652D01*
X139315466Y-76041651D01*
X139503967Y-75984470D01*
X139503968Y-75984470D01*
X139503971Y-75984469D01*
X139700000Y-75965162D01*
X139896030Y-75984469D01*
X139896030Y-75984469D01*
G37*
G36*
X177530000Y-78970000D02*
X175530000Y-78970000D01*
X175530000Y-75970000D01*
X177530000Y-75970000D01*
X177530000Y-78970000D01*
X177530000Y-78970000D01*
G37*
G36*
X148320000Y-78970000D02*
X146320000Y-78970000D01*
X146320000Y-75970000D01*
X148320000Y-75970000D01*
X148320000Y-78970000D01*
X148320000Y-78970000D01*
G37*
G36*
X181529209Y-71198016D02*
X181874986Y-71341241D01*
X182186182Y-71549176D01*
X182450824Y-71813818D01*
X182658759Y-72125014D01*
X182801984Y-72470791D01*
X182875000Y-72837865D01*
X182875000Y-73212135D01*
X182801984Y-73579209D01*
X182658759Y-73924986D01*
X182450824Y-74236182D01*
X182186182Y-74500824D01*
X181874986Y-74708759D01*
X181529209Y-74851984D01*
X181162135Y-74925000D01*
X180787865Y-74925000D01*
X180420791Y-74851984D01*
X180075014Y-74708759D01*
X179763818Y-74500824D01*
X179499176Y-74236182D01*
X179291241Y-73924986D01*
X179148016Y-73579209D01*
X179075000Y-73212135D01*
X179075000Y-72837865D01*
X179148016Y-72470791D01*
X179291241Y-72125014D01*
X179499176Y-71813818D01*
X179763818Y-71549176D01*
X180075014Y-71341241D01*
X180420791Y-71198016D01*
X180787865Y-71125000D01*
X181162135Y-71125000D01*
X181529209Y-71198016D01*
X181529209Y-71198016D01*
G37*
G36*
X111679209Y-71198016D02*
X112024986Y-71341241D01*
X112336182Y-71549176D01*
X112600824Y-71813818D01*
X112808759Y-72125014D01*
X112951984Y-72470791D01*
X113025000Y-72837865D01*
X113025000Y-73212135D01*
X112951984Y-73579209D01*
X112808759Y-73924986D01*
X112600824Y-74236182D01*
X112336182Y-74500824D01*
X112024986Y-74708759D01*
X111679209Y-74851984D01*
X111312135Y-74925000D01*
X110937865Y-74925000D01*
X110570791Y-74851984D01*
X110225014Y-74708759D01*
X109913818Y-74500824D01*
X109649176Y-74236182D01*
X109441241Y-73924986D01*
X109298016Y-73579209D01*
X109225000Y-73212135D01*
X109225000Y-72837865D01*
X109298016Y-72470791D01*
X109441241Y-72125014D01*
X109649176Y-71813818D01*
X109913818Y-71549176D01*
X110225014Y-71341241D01*
X110570791Y-71198016D01*
X110937865Y-71125000D01*
X111312135Y-71125000D01*
X111679209Y-71198016D01*
X111679209Y-71198016D01*
G37*
M02*
