M48
;DRILL file {KiCad (5.0.2)-1} date 14-11-2019 13:25:39
;FORMAT={-:-/ absolute / metric / decimal}
FMAT,2
METRIC,TZ
T1C0.900
T2C1.000
T3C1.500
T4C2.200
%
G90
G05
T1
X125.73Y-76.2
X125.73Y-86.36
X142.24Y-74.295
X152.4Y-74.295
X152.4Y-77.47
X152.4Y-87.63
X154.305Y-96.52
X157.48Y-101.219
X166.37Y-96.52
X176.53Y-101.219
X179.07Y-85.725
X179.07Y-96.52
X180.975Y-90.17
X180.975Y-99.06
X113.03Y-107.665
X123.19Y-107.665
X161.29Y-107.95
X161.29Y-115.57
X163.83Y-107.95
X163.83Y-115.57
X166.37Y-107.95
X166.37Y-115.57
X168.91Y-107.95
X168.91Y-115.57
X171.45Y-107.95
X171.45Y-115.57
X173.99Y-107.95
X173.99Y-115.57
X176.53Y-107.95
X176.53Y-115.57
X142.24Y-118.11
X152.4Y-118.11
X157.48Y-109.22
X157.48Y-114.22
X127.Y-118.11
X137.16Y-118.11
X157.48Y-82.63
X157.48Y-87.63
X161.29Y-81.28
X161.29Y-88.9
X163.83Y-81.28
X163.83Y-88.9
X166.37Y-81.28
X166.37Y-88.9
X168.91Y-81.28
X168.91Y-88.9
X171.45Y-81.28
X171.45Y-88.9
X173.99Y-81.28
X173.99Y-88.9
X176.53Y-81.28
X176.53Y-88.9
X142.24Y-114.3
X152.4Y-114.3
X128.27Y-82.63
X128.27Y-87.63
X127.Y-114.3
X137.16Y-114.3
X116.84Y-116.205
X119.38Y-116.205
X114.3Y-92.71
X114.3Y-95.25
X114.3Y-97.79
X114.3Y-100.33
X121.92Y-92.71
X121.92Y-95.25
X121.92Y-97.79
X121.92Y-100.33
X132.08Y-81.28
X132.08Y-88.9
X134.62Y-81.28
X134.62Y-88.9
X137.16Y-81.28
X137.16Y-88.9
X139.7Y-81.28
X139.7Y-88.9
X142.24Y-81.28
X142.24Y-88.9
X144.78Y-81.28
X144.78Y-88.9
X147.32Y-81.28
X147.32Y-88.9
T2
X132.08Y-77.47
X134.62Y-77.47
X137.16Y-77.47
X139.7Y-77.47
X142.24Y-77.47
X144.78Y-77.47
X147.32Y-77.47
X161.29Y-77.47
X163.83Y-77.47
X166.37Y-77.47
X168.91Y-77.47
X171.45Y-77.47
X173.99Y-77.47
X176.53Y-77.47
X161.29Y-104.14
X163.83Y-104.14
X166.37Y-104.14
X168.91Y-104.14
X171.45Y-104.14
X173.99Y-104.14
X176.53Y-104.14
X147.32Y-98.425
X147.32Y-100.965
X147.32Y-103.505
X147.32Y-106.045
X147.32Y-108.585
X132.08Y-92.71
X134.62Y-92.71
X137.16Y-92.71
X139.7Y-92.71
X142.24Y-92.71
X144.78Y-92.71
X147.32Y-92.71
X161.29Y-92.71
X163.83Y-92.71
X166.37Y-92.71
X168.91Y-92.71
X171.45Y-92.71
X173.99Y-92.71
X176.53Y-92.71
X161.29Y-119.38
X163.83Y-119.38
X166.37Y-119.38
X168.91Y-119.38
X171.45Y-119.38
X173.99Y-119.38
X176.53Y-119.38
X132.08Y-98.425
X132.08Y-100.965
X132.08Y-103.505
X132.08Y-106.045
X132.08Y-108.585
T3
X118.11Y-78.82
X118.11Y-83.82
T4
X180.975Y-73.025
X111.125Y-121.285
X180.975Y-121.285
X111.125Y-73.025
T0
M30
