M48
;DRILL file {KiCad 5.0.2-bee76a0~70~ubuntu16.04.1} date Seg 25 Nov 2019 00:16:11 -03
;FORMAT={-:-/ absolute / inch / decimal}
FMAT,2
INCH,TZ
T1C0.0354
T2C0.0394
T3C0.0591
T4C0.0866
%
G90
G05
T1
X4.95Y-3.
X4.95Y-3.4
X5.6Y-2.925
X6.Y-2.925
X6.Y-3.05
X6.Y-3.45
X6.075Y-3.8
X6.2Y-3.985
X6.55Y-3.8
X6.95Y-3.985
X7.05Y-3.375
X7.05Y-3.8
X7.125Y-3.55
X7.125Y-3.9
X5.05Y-3.2531
X5.05Y-3.45
X5.6Y-4.5
X6.Y-4.5
X6.2Y-3.2531
X6.2Y-3.45
X4.45Y-4.2388
X4.85Y-4.2388
X6.2Y-4.3
X6.2Y-4.4969
X4.5Y-3.65
X4.5Y-3.75
X4.5Y-3.85
X4.5Y-3.95
X4.8Y-3.65
X4.8Y-3.75
X4.8Y-3.85
X4.8Y-3.95
X5.Y-4.5
X5.4Y-4.5
X5.Y-4.65
X5.4Y-4.65
X5.6Y-4.65
X6.Y-4.65
X6.35Y-4.25
X6.35Y-4.55
X6.45Y-4.25
X6.45Y-4.55
X6.55Y-4.25
X6.55Y-4.55
X6.65Y-4.25
X6.65Y-4.55
X6.75Y-4.25
X6.75Y-4.55
X6.85Y-4.25
X6.85Y-4.55
X6.95Y-4.25
X6.95Y-4.55
X6.35Y-3.2
X6.35Y-3.5
X6.45Y-3.2
X6.45Y-3.5
X6.55Y-3.2
X6.55Y-3.5
X6.65Y-3.2
X6.65Y-3.5
X6.75Y-3.2
X6.75Y-3.5
X6.85Y-3.2
X6.85Y-3.5
X6.95Y-3.2
X6.95Y-3.5
X4.6Y-4.575
X4.7Y-4.575
X5.2Y-3.2
X5.2Y-3.5
X5.3Y-3.2
X5.3Y-3.5
X5.4Y-3.2
X5.4Y-3.5
X5.5Y-3.2
X5.5Y-3.5
X5.6Y-3.2
X5.6Y-3.5
X5.7Y-3.2
X5.7Y-3.5
X5.8Y-3.2
X5.8Y-3.5
T2
X6.35Y-3.05
X6.45Y-3.05
X6.55Y-3.05
X6.65Y-3.05
X6.75Y-3.05
X6.85Y-3.05
X6.95Y-3.05
X6.35Y-3.65
X6.45Y-3.65
X6.55Y-3.65
X6.65Y-3.65
X6.75Y-3.65
X6.85Y-3.65
X6.95Y-3.65
X5.2Y-3.65
X5.3Y-3.65
X5.4Y-3.65
X5.5Y-3.65
X5.6Y-3.65
X5.7Y-3.65
X5.8Y-3.65
X6.35Y-4.7
X6.45Y-4.7
X6.55Y-4.7
X6.65Y-4.7
X6.75Y-4.7
X6.85Y-4.7
X6.95Y-4.7
X6.35Y-4.1
X6.45Y-4.1
X6.55Y-4.1
X6.65Y-4.1
X6.75Y-4.1
X6.85Y-4.1
X6.95Y-4.1
X5.2Y-3.05
X5.3Y-3.05
X5.4Y-3.05
X5.5Y-3.05
X5.6Y-3.05
X5.7Y-3.05
X5.8Y-3.05
X5.2Y-3.875
X5.2Y-3.975
X5.2Y-4.075
X5.2Y-4.175
X5.2Y-4.275
X5.8Y-3.875
X5.8Y-3.975
X5.8Y-4.075
X5.8Y-4.175
X5.8Y-4.275
T3
X4.65Y-3.1031
X4.65Y-3.3
T4
X7.125Y-4.775
X4.375Y-2.875
X4.375Y-4.775
X7.125Y-2.875
T0
M30
