G04 #@! TF.GenerationSoftware,KiCad,Pcbnew,(5.0.2)-1*
G04 #@! TF.CreationDate,2019-09-27T20:29:56-03:00*
G04 #@! TF.ProjectId,circuito-01-com-defeito,63697263-7569-4746-9f2d-30312d636f6d,02*
G04 #@! TF.SameCoordinates,Original*
G04 #@! TF.FileFunction,Copper,L1,Top*
G04 #@! TF.FilePolarity,Positive*
%FSLAX46Y46*%
G04 Gerber Fmt 4.6, Leading zero omitted, Abs format (unit mm)*
G04 Created by KiCad (PCBNEW (5.0.2)-1) date 27-09-2019 20:29:56*
%MOMM*%
%LPD*%
G01*
G04 APERTURE LIST*
G04 #@! TA.AperFunction,ComponentPad*
%ADD10C,3.800000*%
G04 #@! TD*
G04 #@! TA.AperFunction,ComponentPad*
%ADD11R,2.000000X3.000000*%
G04 #@! TD*
G04 #@! TA.AperFunction,ComponentPad*
%ADD12O,2.000000X3.000000*%
G04 #@! TD*
G04 #@! TA.AperFunction,ComponentPad*
%ADD13O,3.000000X2.000000*%
G04 #@! TD*
G04 #@! TA.AperFunction,ComponentPad*
%ADD14R,3.000000X2.000000*%
G04 #@! TD*
G04 #@! TA.AperFunction,ComponentPad*
%ADD15R,3.000000X3.000000*%
G04 #@! TD*
G04 #@! TA.AperFunction,ComponentPad*
%ADD16C,3.000000*%
G04 #@! TD*
G04 #@! TA.AperFunction,ViaPad*
%ADD17C,2.000000*%
G04 #@! TD*
G04 #@! TA.AperFunction,Conductor*
%ADD18C,0.500000*%
G04 #@! TD*
G04 APERTURE END LIST*
D10*
G04 #@! TO.P,Par1,1*
G04 #@! TO.N,N/C*
X111125000Y-73025000D03*
G04 #@! TD*
G04 #@! TO.P,Par4,1*
G04 #@! TO.N,N/C*
X111125000Y-121285000D03*
G04 #@! TD*
G04 #@! TO.P,Par3,1*
G04 #@! TO.N,N/C*
X180975000Y-121285000D03*
G04 #@! TD*
D11*
G04 #@! TO.P,D1,1*
G04 #@! TO.N,GND*
X119380000Y-116205000D03*
D12*
G04 #@! TO.P,D1,2*
G04 #@! TO.N,Net-(D1-Pad2)*
X116840000Y-116205000D03*
G04 #@! TD*
D13*
G04 #@! TO.P,J8,5*
G04 #@! TO.N,/U2-02*
X132080000Y-108585000D03*
G04 #@! TO.P,J8,4*
G04 #@! TO.N,/U3-10*
X132080000Y-106045000D03*
G04 #@! TO.P,J8,3*
G04 #@! TO.N,/U2-02*
X132080000Y-103505000D03*
G04 #@! TO.P,J8,2*
G04 #@! TO.N,/U1-02*
X132080000Y-100965000D03*
D14*
G04 #@! TO.P,J8,1*
G04 #@! TO.N,/U1-01*
X132080000Y-98425000D03*
G04 #@! TD*
D13*
G04 #@! TO.P,J7,5*
G04 #@! TO.N,GND*
X147320000Y-108585000D03*
G04 #@! TO.P,J7,4*
G04 #@! TO.N,/U3-10*
X147320000Y-106045000D03*
G04 #@! TO.P,J7,3*
G04 #@! TO.N,/U2-02*
X147320000Y-103505000D03*
G04 #@! TO.P,J7,2*
G04 #@! TO.N,/U1-02*
X147320000Y-100965000D03*
D14*
G04 #@! TO.P,J7,1*
G04 #@! TO.N,/U1-01*
X147320000Y-98425000D03*
G04 #@! TD*
D12*
G04 #@! TO.P,C2,2*
G04 #@! TO.N,GND*
X157480000Y-87630000D03*
G04 #@! TO.P,C2,1*
G04 #@! TO.N,VCC*
X157480000Y-82630000D03*
G04 #@! TD*
G04 #@! TO.P,J1,7*
G04 #@! TO.N,GND*
X147320000Y-92710000D03*
G04 #@! TO.P,J1,6*
G04 #@! TO.N,/U1-06*
X144780000Y-92710000D03*
G04 #@! TO.P,J1,5*
G04 #@! TO.N,/U1-05*
X142240000Y-92710000D03*
G04 #@! TO.P,J1,4*
G04 #@! TO.N,/U1-02*
X139700000Y-92710000D03*
G04 #@! TO.P,J1,3*
G04 #@! TO.N,/U1-03*
X137160000Y-92710000D03*
G04 #@! TO.P,J1,2*
G04 #@! TO.N,/U1-02*
X134620000Y-92710000D03*
D11*
G04 #@! TO.P,J1,1*
G04 #@! TO.N,/U1-01*
X132080000Y-92710000D03*
G04 #@! TD*
G04 #@! TO.P,J2,1*
G04 #@! TO.N,/U1-08*
X147320000Y-77470000D03*
D12*
G04 #@! TO.P,J2,2*
G04 #@! TO.N,/U1-03*
X144780000Y-77470000D03*
G04 #@! TO.P,J2,3*
G04 #@! TO.N,/U1-10*
X142240000Y-77470000D03*
G04 #@! TO.P,J2,4*
G04 #@! TO.N,/U1-11*
X139700000Y-77470000D03*
G04 #@! TO.P,J2,5*
G04 #@! TO.N,/U1-12*
X137160000Y-77470000D03*
G04 #@! TO.P,J2,6*
G04 #@! TO.N,/U1-13*
X134620000Y-77470000D03*
G04 #@! TO.P,J2,7*
G04 #@! TO.N,VCC*
X132080000Y-77470000D03*
G04 #@! TD*
G04 #@! TO.P,J3,7*
G04 #@! TO.N,GND*
X176530000Y-92710000D03*
G04 #@! TO.P,J3,6*
G04 #@! TO.N,/U2-06*
X173990000Y-92710000D03*
G04 #@! TO.P,J3,5*
G04 #@! TO.N,/U1-06*
X171450000Y-92710000D03*
G04 #@! TO.P,J3,4*
G04 #@! TO.N,/U1-08*
X168910000Y-92710000D03*
G04 #@! TO.P,J3,3*
G04 #@! TO.N,/U1-10*
X166370000Y-92710000D03*
G04 #@! TO.P,J3,2*
G04 #@! TO.N,/U2-02*
X163830000Y-92710000D03*
D11*
G04 #@! TO.P,J3,1*
G04 #@! TO.N,/U1-01*
X161290000Y-92710000D03*
G04 #@! TD*
G04 #@! TO.P,J4,1*
G04 #@! TO.N,/U2-08*
X176530000Y-77470000D03*
D12*
G04 #@! TO.P,J4,2*
G04 #@! TO.N,/U2-06*
X173990000Y-77470000D03*
G04 #@! TO.P,J4,3*
X171450000Y-77470000D03*
G04 #@! TO.P,J4,4*
G04 #@! TO.N,/U2-11*
X168910000Y-77470000D03*
G04 #@! TO.P,J4,5*
G04 #@! TO.N,/U1-03*
X166370000Y-77470000D03*
G04 #@! TO.P,J4,6*
G04 #@! TO.N,/U1-08*
X163830000Y-77470000D03*
G04 #@! TO.P,J4,7*
G04 #@! TO.N,VCC*
X161290000Y-77470000D03*
G04 #@! TD*
G04 #@! TO.P,J5,7*
G04 #@! TO.N,GND*
X176530000Y-119380000D03*
G04 #@! TO.P,J5,6*
G04 #@! TO.N,/U3-06*
X173990000Y-119380000D03*
G04 #@! TO.P,J5,5*
G04 #@! TO.N,/U3-05*
X171450000Y-119380000D03*
G04 #@! TO.P,J5,4*
G04 #@! TO.N,/U3-04*
X168910000Y-119380000D03*
G04 #@! TO.P,J5,3*
G04 #@! TO.N,/U3-03*
X166370000Y-119380000D03*
G04 #@! TO.P,J5,2*
G04 #@! TO.N,/U3-02*
X163830000Y-119380000D03*
D11*
G04 #@! TO.P,J5,1*
G04 #@! TO.N,/U3-01*
X161290000Y-119380000D03*
G04 #@! TD*
G04 #@! TO.P,J6,1*
G04 #@! TO.N,/U2-11*
X176530000Y-104140000D03*
D12*
G04 #@! TO.P,J6,2*
G04 #@! TO.N,/U3-09*
X173990000Y-104140000D03*
G04 #@! TO.P,J6,3*
G04 #@! TO.N,/U3-10*
X171450000Y-104140000D03*
G04 #@! TO.P,J6,4*
G04 #@! TO.N,/U3-11*
X168910000Y-104140000D03*
G04 #@! TO.P,J6,5*
G04 #@! TO.N,/U3-12*
X166370000Y-104140000D03*
G04 #@! TO.P,J6,6*
G04 #@! TO.N,/U3-13*
X163830000Y-104140000D03*
G04 #@! TO.P,J6,7*
G04 #@! TO.N,VCC*
X161290000Y-104140000D03*
G04 #@! TD*
D15*
G04 #@! TO.P,P1,1*
G04 #@! TO.N,GND*
X118110000Y-83820000D03*
D16*
G04 #@! TO.P,P1,2*
G04 #@! TO.N,VCC*
X118110000Y-78820000D03*
G04 #@! TD*
D13*
G04 #@! TO.P,R1,1*
G04 #@! TO.N,/U3-10*
X123190000Y-107665000D03*
G04 #@! TO.P,R1,2*
G04 #@! TO.N,Net-(D1-Pad2)*
X113030000Y-107665000D03*
G04 #@! TD*
G04 #@! TO.P,R2,2*
G04 #@! TO.N,/U1-01*
X142240000Y-114300000D03*
G04 #@! TO.P,R2,1*
G04 #@! TO.N,VCC*
X152400000Y-114300000D03*
G04 #@! TD*
G04 #@! TO.P,R3,1*
G04 #@! TO.N,VCC*
X152400000Y-118110000D03*
G04 #@! TO.P,R3,2*
G04 #@! TO.N,/U2-02*
X142240000Y-118110000D03*
G04 #@! TD*
G04 #@! TO.P,R4,2*
G04 #@! TO.N,/U1-02*
X137160000Y-114300000D03*
G04 #@! TO.P,R4,1*
G04 #@! TO.N,VCC*
X127000000Y-114300000D03*
G04 #@! TD*
G04 #@! TO.P,R5,1*
G04 #@! TO.N,VCC*
X127000000Y-118110000D03*
G04 #@! TO.P,R5,2*
G04 #@! TO.N,/U1-05*
X137160000Y-118110000D03*
G04 #@! TD*
D14*
G04 #@! TO.P,SW1,1*
G04 #@! TO.N,GND*
X114300000Y-92710000D03*
D13*
G04 #@! TO.P,SW1,5*
G04 #@! TO.N,/U1-05*
X121920000Y-100330000D03*
G04 #@! TO.P,SW1,2*
G04 #@! TO.N,GND*
X114300000Y-95250000D03*
G04 #@! TO.P,SW1,6*
G04 #@! TO.N,/U2-02*
X121920000Y-97790000D03*
G04 #@! TO.P,SW1,3*
G04 #@! TO.N,GND*
X114300000Y-97790000D03*
G04 #@! TO.P,SW1,7*
G04 #@! TO.N,/U1-02*
X121920000Y-95250000D03*
G04 #@! TO.P,SW1,4*
G04 #@! TO.N,GND*
X114300000Y-100330000D03*
G04 #@! TO.P,SW1,8*
G04 #@! TO.N,/U1-01*
X121920000Y-92710000D03*
G04 #@! TD*
D11*
G04 #@! TO.P,U1,1*
G04 #@! TO.N,/U1-01*
X132080000Y-88900000D03*
D12*
G04 #@! TO.P,U1,8*
G04 #@! TO.N,/U1-08*
X147320000Y-81280000D03*
G04 #@! TO.P,U1,2*
G04 #@! TO.N,/U1-02*
X134620000Y-88900000D03*
G04 #@! TO.P,U1,9*
G04 #@! TO.N,/U1-03*
X144780000Y-81280000D03*
G04 #@! TO.P,U1,3*
X137160000Y-88900000D03*
G04 #@! TO.P,U1,10*
G04 #@! TO.N,/U1-10*
X142240000Y-81280000D03*
G04 #@! TO.P,U1,4*
G04 #@! TO.N,/U1-02*
X139700000Y-88900000D03*
G04 #@! TO.P,U1,11*
G04 #@! TO.N,/U1-11*
X139700000Y-81280000D03*
G04 #@! TO.P,U1,5*
G04 #@! TO.N,/U1-05*
X142240000Y-88900000D03*
G04 #@! TO.P,U1,12*
G04 #@! TO.N,/U1-12*
X137160000Y-81280000D03*
G04 #@! TO.P,U1,6*
G04 #@! TO.N,/U1-06*
X144780000Y-88900000D03*
G04 #@! TO.P,U1,13*
G04 #@! TO.N,/U1-13*
X134620000Y-81280000D03*
G04 #@! TO.P,U1,7*
G04 #@! TO.N,GND*
X147320000Y-88900000D03*
G04 #@! TO.P,U1,14*
G04 #@! TO.N,VCC*
X132080000Y-81280000D03*
G04 #@! TD*
D11*
G04 #@! TO.P,U2,1*
G04 #@! TO.N,/U1-01*
X161290000Y-88900000D03*
D12*
G04 #@! TO.P,U2,8*
G04 #@! TO.N,/U2-08*
X176530000Y-81280000D03*
G04 #@! TO.P,U2,2*
G04 #@! TO.N,/U2-02*
X163830000Y-88900000D03*
G04 #@! TO.P,U2,9*
G04 #@! TO.N,/U2-06*
X173990000Y-81280000D03*
G04 #@! TO.P,U2,3*
G04 #@! TO.N,/U1-10*
X166370000Y-88900000D03*
G04 #@! TO.P,U2,10*
G04 #@! TO.N,/U2-06*
X171450000Y-81280000D03*
G04 #@! TO.P,U2,4*
G04 #@! TO.N,/U1-08*
X168910000Y-88900000D03*
G04 #@! TO.P,U2,11*
G04 #@! TO.N,/U2-11*
X168910000Y-81280000D03*
G04 #@! TO.P,U2,5*
G04 #@! TO.N,/U1-06*
X171450000Y-88900000D03*
G04 #@! TO.P,U2,12*
G04 #@! TO.N,/U1-03*
X166370000Y-81280000D03*
G04 #@! TO.P,U2,6*
G04 #@! TO.N,/U2-06*
X173990000Y-88900000D03*
G04 #@! TO.P,U2,13*
G04 #@! TO.N,/U1-08*
X163830000Y-81280000D03*
G04 #@! TO.P,U2,7*
G04 #@! TO.N,GND*
X176530000Y-88900000D03*
G04 #@! TO.P,U2,14*
G04 #@! TO.N,VCC*
X161290000Y-81280000D03*
G04 #@! TD*
G04 #@! TO.P,U3,14*
G04 #@! TO.N,VCC*
X161290000Y-107950000D03*
G04 #@! TO.P,U3,7*
G04 #@! TO.N,GND*
X176530000Y-115570000D03*
G04 #@! TO.P,U3,13*
G04 #@! TO.N,/U3-13*
X163830000Y-107950000D03*
G04 #@! TO.P,U3,6*
G04 #@! TO.N,/U3-06*
X173990000Y-115570000D03*
G04 #@! TO.P,U3,12*
G04 #@! TO.N,/U3-12*
X166370000Y-107950000D03*
G04 #@! TO.P,U3,5*
G04 #@! TO.N,/U3-05*
X171450000Y-115570000D03*
G04 #@! TO.P,U3,11*
G04 #@! TO.N,/U3-11*
X168910000Y-107950000D03*
G04 #@! TO.P,U3,4*
G04 #@! TO.N,/U3-04*
X168910000Y-115570000D03*
G04 #@! TO.P,U3,10*
G04 #@! TO.N,/U3-10*
X171450000Y-107950000D03*
G04 #@! TO.P,U3,3*
G04 #@! TO.N,/U3-03*
X166370000Y-115570000D03*
G04 #@! TO.P,U3,9*
G04 #@! TO.N,/U3-09*
X173990000Y-107950000D03*
G04 #@! TO.P,U3,2*
G04 #@! TO.N,/U3-02*
X163830000Y-115570000D03*
G04 #@! TO.P,U3,8*
G04 #@! TO.N,/U2-11*
X176530000Y-107950000D03*
D11*
G04 #@! TO.P,U3,1*
G04 #@! TO.N,/U3-01*
X161290000Y-115570000D03*
G04 #@! TD*
D12*
G04 #@! TO.P,C1,1*
G04 #@! TO.N,VCC*
X128270000Y-82630000D03*
G04 #@! TO.P,C1,2*
G04 #@! TO.N,GND*
X128270000Y-87630000D03*
G04 #@! TD*
G04 #@! TO.P,C3,1*
G04 #@! TO.N,VCC*
X157480000Y-109220000D03*
G04 #@! TO.P,C3,2*
G04 #@! TO.N,GND*
X157480000Y-114220000D03*
G04 #@! TD*
D10*
G04 #@! TO.P,Par2,1*
G04 #@! TO.N,N/C*
X180975000Y-73025000D03*
G04 #@! TD*
D17*
G04 #@! TO.N,/U2-08*
X179070000Y-95250000D03*
X179070000Y-100965000D03*
G04 #@! TO.N,/U2-11*
X180975000Y-103505000D03*
X180975000Y-97155000D03*
G04 #@! TO.N,/U3-10*
X170180000Y-100965000D03*
X157480000Y-100965000D03*
G04 #@! TO.N,/U1-03*
X125730000Y-76200000D03*
X125730000Y-86360000D03*
G04 #@! TO.N,/U1-10*
X152400000Y-87630000D03*
X152400000Y-77470000D03*
X152400000Y-74295000D03*
X142240000Y-74295000D03*
G04 #@! TO.N,/U1-06*
X154305000Y-96520000D03*
X166370000Y-96520000D03*
G04 #@! TD*
D18*
G04 #@! TO.N,/U1-01*
X147320000Y-98425000D02*
X132080000Y-98425000D01*
G04 #@! TO.N,/U2-08*
X179070000Y-95250000D02*
X179070000Y-100965000D01*
G04 #@! TO.N,/U2-11*
X180975000Y-97155000D02*
X180975000Y-103505000D01*
G04 #@! TO.N,/U3-10*
X132080000Y-106045000D02*
X147320000Y-106045000D01*
X170180000Y-100965000D02*
X157480000Y-100965000D01*
G04 #@! TO.N,/U1-02*
X132080000Y-100965000D02*
X147320000Y-100965000D01*
G04 #@! TO.N,/U2-02*
X147320000Y-103505000D02*
X132080000Y-103505000D01*
G04 #@! TO.N,GND*
X134080000Y-108585000D02*
X147320000Y-108585000D01*
X132080000Y-108585000D02*
X134080000Y-108585000D01*
G04 #@! TO.N,/U1-03*
X125730000Y-86360000D02*
X125730000Y-76200000D01*
G04 #@! TO.N,/U1-10*
X152400000Y-87630000D02*
X152400000Y-77470000D01*
X152400000Y-74295000D02*
X142240000Y-74295000D01*
G04 #@! TO.N,/U1-06*
X154305000Y-96520000D02*
X166370000Y-96520000D01*
G04 #@! TD*
M02*
