G04 #@! TF.GenerationSoftware,KiCad,Pcbnew,(5.0.2)-1*
G04 #@! TF.CreationDate,2019-09-27T20:29:56-03:00*
G04 #@! TF.ProjectId,circuito-01-com-defeito,63697263-7569-4746-9f2d-30312d636f6d,02*
G04 #@! TF.SameCoordinates,Original*
G04 #@! TF.FileFunction,Legend,Top*
G04 #@! TF.FilePolarity,Positive*
%FSLAX46Y46*%
G04 Gerber Fmt 4.6, Leading zero omitted, Abs format (unit mm)*
G04 Created by KiCad (PCBNEW (5.0.2)-1) date 27-09-2019 20:29:57*
%MOMM*%
%LPD*%
G01*
G04 APERTURE LIST*
%ADD10C,0.150000*%
%ADD11C,0.200000*%
%ADD12C,0.120000*%
G04 APERTURE END LIST*
D10*
X138390476Y-106767380D02*
X138390476Y-107481666D01*
X138342857Y-107624523D01*
X138247619Y-107719761D01*
X138104761Y-107767380D01*
X138009523Y-107767380D01*
X138866666Y-107767380D02*
X138866666Y-106767380D01*
X139247619Y-106767380D01*
X139342857Y-106815000D01*
X139390476Y-106862619D01*
X139438095Y-106957857D01*
X139438095Y-107100714D01*
X139390476Y-107195952D01*
X139342857Y-107243571D01*
X139247619Y-107291190D01*
X138866666Y-107291190D01*
X140390476Y-107767380D02*
X139819047Y-107767380D01*
X140104761Y-107767380D02*
X140104761Y-106767380D01*
X140009523Y-106910238D01*
X139914285Y-107005476D01*
X139819047Y-107053095D01*
X140771428Y-106862619D02*
X140819047Y-106815000D01*
X140914285Y-106767380D01*
X141152380Y-106767380D01*
X141247619Y-106815000D01*
X141295238Y-106862619D01*
X141342857Y-106957857D01*
X141342857Y-107053095D01*
X141295238Y-107195952D01*
X140723809Y-107767380D01*
X141342857Y-107767380D01*
X161036428Y-72557142D02*
X160988809Y-72604761D01*
X160845952Y-72652380D01*
X160750714Y-72652380D01*
X160607857Y-72604761D01*
X160512619Y-72509523D01*
X160465000Y-72414285D01*
X160417380Y-72223809D01*
X160417380Y-72080952D01*
X160465000Y-71890476D01*
X160512619Y-71795238D01*
X160607857Y-71700000D01*
X160750714Y-71652380D01*
X160845952Y-71652380D01*
X160988809Y-71700000D01*
X161036428Y-71747619D01*
X161465000Y-72652380D02*
X161465000Y-71985714D01*
X161465000Y-71652380D02*
X161417380Y-71700000D01*
X161465000Y-71747619D01*
X161512619Y-71700000D01*
X161465000Y-71652380D01*
X161465000Y-71747619D01*
X161941190Y-72652380D02*
X161941190Y-71985714D01*
X161941190Y-72176190D02*
X161988809Y-72080952D01*
X162036428Y-72033333D01*
X162131666Y-71985714D01*
X162226904Y-71985714D01*
X162988809Y-72604761D02*
X162893571Y-72652380D01*
X162703095Y-72652380D01*
X162607857Y-72604761D01*
X162560238Y-72557142D01*
X162512619Y-72461904D01*
X162512619Y-72176190D01*
X162560238Y-72080952D01*
X162607857Y-72033333D01*
X162703095Y-71985714D01*
X162893571Y-71985714D01*
X162988809Y-72033333D01*
X163845952Y-71985714D02*
X163845952Y-72652380D01*
X163417380Y-71985714D02*
X163417380Y-72509523D01*
X163465000Y-72604761D01*
X163560238Y-72652380D01*
X163703095Y-72652380D01*
X163798333Y-72604761D01*
X163845952Y-72557142D01*
X164322142Y-72652380D02*
X164322142Y-71985714D01*
X164322142Y-71652380D02*
X164274523Y-71700000D01*
X164322142Y-71747619D01*
X164369761Y-71700000D01*
X164322142Y-71652380D01*
X164322142Y-71747619D01*
X164655476Y-71985714D02*
X165036428Y-71985714D01*
X164798333Y-71652380D02*
X164798333Y-72509523D01*
X164845952Y-72604761D01*
X164941190Y-72652380D01*
X165036428Y-72652380D01*
X165512619Y-72652380D02*
X165417380Y-72604761D01*
X165369761Y-72557142D01*
X165322142Y-72461904D01*
X165322142Y-72176190D01*
X165369761Y-72080952D01*
X165417380Y-72033333D01*
X165512619Y-71985714D01*
X165655476Y-71985714D01*
X165750714Y-72033333D01*
X165798333Y-72080952D01*
X165845952Y-72176190D01*
X165845952Y-72461904D01*
X165798333Y-72557142D01*
X165750714Y-72604761D01*
X165655476Y-72652380D01*
X165512619Y-72652380D01*
X167226904Y-71652380D02*
X167322142Y-71652380D01*
X167417380Y-71700000D01*
X167465000Y-71747619D01*
X167512619Y-71842857D01*
X167560238Y-72033333D01*
X167560238Y-72271428D01*
X167512619Y-72461904D01*
X167465000Y-72557142D01*
X167417380Y-72604761D01*
X167322142Y-72652380D01*
X167226904Y-72652380D01*
X167131666Y-72604761D01*
X167084047Y-72557142D01*
X167036428Y-72461904D01*
X166988809Y-72271428D01*
X166988809Y-72033333D01*
X167036428Y-71842857D01*
X167084047Y-71747619D01*
X167131666Y-71700000D01*
X167226904Y-71652380D01*
X168512619Y-72652380D02*
X167941190Y-72652380D01*
X168226904Y-72652380D02*
X168226904Y-71652380D01*
X168131666Y-71795238D01*
X168036428Y-71890476D01*
X167941190Y-71938095D01*
X159822142Y-74683333D02*
X159774523Y-74635714D01*
X159679285Y-74492857D01*
X159631666Y-74397619D01*
X159584047Y-74254761D01*
X159536428Y-74016666D01*
X159536428Y-73826190D01*
X159584047Y-73588095D01*
X159631666Y-73445238D01*
X159679285Y-73350000D01*
X159774523Y-73207142D01*
X159822142Y-73159523D01*
X160631666Y-74254761D02*
X160536428Y-74302380D01*
X160345952Y-74302380D01*
X160250714Y-74254761D01*
X160203095Y-74207142D01*
X160155476Y-74111904D01*
X160155476Y-73826190D01*
X160203095Y-73730952D01*
X160250714Y-73683333D01*
X160345952Y-73635714D01*
X160536428Y-73635714D01*
X160631666Y-73683333D01*
X161203095Y-74302380D02*
X161107857Y-74254761D01*
X161060238Y-74207142D01*
X161012619Y-74111904D01*
X161012619Y-73826190D01*
X161060238Y-73730952D01*
X161107857Y-73683333D01*
X161203095Y-73635714D01*
X161345952Y-73635714D01*
X161441190Y-73683333D01*
X161488809Y-73730952D01*
X161536428Y-73826190D01*
X161536428Y-74111904D01*
X161488809Y-74207142D01*
X161441190Y-74254761D01*
X161345952Y-74302380D01*
X161203095Y-74302380D01*
X161965000Y-74302380D02*
X161965000Y-73635714D01*
X161965000Y-73730952D02*
X162012619Y-73683333D01*
X162107857Y-73635714D01*
X162250714Y-73635714D01*
X162345952Y-73683333D01*
X162393571Y-73778571D01*
X162393571Y-74302380D01*
X162393571Y-73778571D02*
X162441190Y-73683333D01*
X162536428Y-73635714D01*
X162679285Y-73635714D01*
X162774523Y-73683333D01*
X162822142Y-73778571D01*
X162822142Y-74302380D01*
X164488809Y-74302380D02*
X164488809Y-73302380D01*
X164488809Y-74254761D02*
X164393571Y-74302380D01*
X164203095Y-74302380D01*
X164107857Y-74254761D01*
X164060238Y-74207142D01*
X164012619Y-74111904D01*
X164012619Y-73826190D01*
X164060238Y-73730952D01*
X164107857Y-73683333D01*
X164203095Y-73635714D01*
X164393571Y-73635714D01*
X164488809Y-73683333D01*
X165345952Y-74254761D02*
X165250714Y-74302380D01*
X165060238Y-74302380D01*
X164965000Y-74254761D01*
X164917380Y-74159523D01*
X164917380Y-73778571D01*
X164965000Y-73683333D01*
X165060238Y-73635714D01*
X165250714Y-73635714D01*
X165345952Y-73683333D01*
X165393571Y-73778571D01*
X165393571Y-73873809D01*
X164917380Y-73969047D01*
X165679285Y-73635714D02*
X166060238Y-73635714D01*
X165822142Y-74302380D02*
X165822142Y-73445238D01*
X165869761Y-73350000D01*
X165965000Y-73302380D01*
X166060238Y-73302380D01*
X166774523Y-74254761D02*
X166679285Y-74302380D01*
X166488809Y-74302380D01*
X166393571Y-74254761D01*
X166345952Y-74159523D01*
X166345952Y-73778571D01*
X166393571Y-73683333D01*
X166488809Y-73635714D01*
X166679285Y-73635714D01*
X166774523Y-73683333D01*
X166822142Y-73778571D01*
X166822142Y-73873809D01*
X166345952Y-73969047D01*
X167250714Y-74302380D02*
X167250714Y-73635714D01*
X167250714Y-73302380D02*
X167203095Y-73350000D01*
X167250714Y-73397619D01*
X167298333Y-73350000D01*
X167250714Y-73302380D01*
X167250714Y-73397619D01*
X167584047Y-73635714D02*
X167965000Y-73635714D01*
X167726904Y-73302380D02*
X167726904Y-74159523D01*
X167774523Y-74254761D01*
X167869761Y-74302380D01*
X167965000Y-74302380D01*
X168441190Y-74302380D02*
X168345952Y-74254761D01*
X168298333Y-74207142D01*
X168250714Y-74111904D01*
X168250714Y-73826190D01*
X168298333Y-73730952D01*
X168345952Y-73683333D01*
X168441190Y-73635714D01*
X168584047Y-73635714D01*
X168679285Y-73683333D01*
X168726904Y-73730952D01*
X168774523Y-73826190D01*
X168774523Y-74111904D01*
X168726904Y-74207142D01*
X168679285Y-74254761D01*
X168584047Y-74302380D01*
X168441190Y-74302380D01*
X169107857Y-74683333D02*
X169155476Y-74635714D01*
X169250714Y-74492857D01*
X169298333Y-74397619D01*
X169345952Y-74254761D01*
X169393571Y-74016666D01*
X169393571Y-73826190D01*
X169345952Y-73588095D01*
X169298333Y-73445238D01*
X169250714Y-73350000D01*
X169155476Y-73207142D01*
X169107857Y-73159523D01*
X110656666Y-100568095D02*
X110656666Y-100091904D01*
X110942380Y-100663333D02*
X109942380Y-100330000D01*
X110942380Y-99996666D01*
X110418571Y-97718571D02*
X110466190Y-97575714D01*
X110513809Y-97528095D01*
X110609047Y-97480476D01*
X110751904Y-97480476D01*
X110847142Y-97528095D01*
X110894761Y-97575714D01*
X110942380Y-97670952D01*
X110942380Y-98051904D01*
X109942380Y-98051904D01*
X109942380Y-97718571D01*
X109990000Y-97623333D01*
X110037619Y-97575714D01*
X110132857Y-97528095D01*
X110228095Y-97528095D01*
X110323333Y-97575714D01*
X110370952Y-97623333D01*
X110418571Y-97718571D01*
X110418571Y-98051904D01*
X110847142Y-94940476D02*
X110894761Y-94988095D01*
X110942380Y-95130952D01*
X110942380Y-95226190D01*
X110894761Y-95369047D01*
X110799523Y-95464285D01*
X110704285Y-95511904D01*
X110513809Y-95559523D01*
X110370952Y-95559523D01*
X110180476Y-95511904D01*
X110085238Y-95464285D01*
X109990000Y-95369047D01*
X109942380Y-95226190D01*
X109942380Y-95130952D01*
X109990000Y-94988095D01*
X110037619Y-94940476D01*
X110942380Y-92971904D02*
X109942380Y-92971904D01*
X109942380Y-92733809D01*
X109990000Y-92590952D01*
X110085238Y-92495714D01*
X110180476Y-92448095D01*
X110370952Y-92400476D01*
X110513809Y-92400476D01*
X110704285Y-92448095D01*
X110799523Y-92495714D01*
X110894761Y-92590952D01*
X110942380Y-92733809D01*
X110942380Y-92971904D01*
X180141666Y-105497380D02*
X180141666Y-106211666D01*
X180094047Y-106354523D01*
X179998809Y-106449761D01*
X179855952Y-106497380D01*
X179760714Y-106497380D01*
X180617857Y-106497380D02*
X180617857Y-105497380D01*
X180998809Y-105497380D01*
X181094047Y-105545000D01*
X181141666Y-105592619D01*
X181189285Y-105687857D01*
X181189285Y-105830714D01*
X181141666Y-105925952D01*
X181094047Y-105973571D01*
X180998809Y-106021190D01*
X180617857Y-106021190D01*
X181522619Y-105497380D02*
X182189285Y-105497380D01*
X181760714Y-106497380D01*
X176331666Y-97242380D02*
X176331666Y-97956666D01*
X176284047Y-98099523D01*
X176188809Y-98194761D01*
X176045952Y-98242380D01*
X175950714Y-98242380D01*
X176807857Y-98242380D02*
X176807857Y-97242380D01*
X177188809Y-97242380D01*
X177284047Y-97290000D01*
X177331666Y-97337619D01*
X177379285Y-97432857D01*
X177379285Y-97575714D01*
X177331666Y-97670952D01*
X177284047Y-97718571D01*
X177188809Y-97766190D01*
X176807857Y-97766190D01*
X178236428Y-97242380D02*
X178045952Y-97242380D01*
X177950714Y-97290000D01*
X177903095Y-97337619D01*
X177807857Y-97480476D01*
X177760238Y-97670952D01*
X177760238Y-98051904D01*
X177807857Y-98147142D01*
X177855476Y-98194761D01*
X177950714Y-98242380D01*
X178141190Y-98242380D01*
X178236428Y-98194761D01*
X178284047Y-98147142D01*
X178331666Y-98051904D01*
X178331666Y-97813809D01*
X178284047Y-97718571D01*
X178236428Y-97670952D01*
X178141190Y-97623333D01*
X177950714Y-97623333D01*
X177855476Y-97670952D01*
X177807857Y-97718571D01*
X177760238Y-97813809D01*
X162996666Y-99147380D02*
X162996666Y-99861666D01*
X162949047Y-100004523D01*
X162853809Y-100099761D01*
X162710952Y-100147380D01*
X162615714Y-100147380D01*
X163472857Y-100147380D02*
X163472857Y-99147380D01*
X163853809Y-99147380D01*
X163949047Y-99195000D01*
X163996666Y-99242619D01*
X164044285Y-99337857D01*
X164044285Y-99480714D01*
X163996666Y-99575952D01*
X163949047Y-99623571D01*
X163853809Y-99671190D01*
X163472857Y-99671190D01*
X164949047Y-99147380D02*
X164472857Y-99147380D01*
X164425238Y-99623571D01*
X164472857Y-99575952D01*
X164568095Y-99528333D01*
X164806190Y-99528333D01*
X164901428Y-99575952D01*
X164949047Y-99623571D01*
X164996666Y-99718809D01*
X164996666Y-99956904D01*
X164949047Y-100052142D01*
X164901428Y-100099761D01*
X164806190Y-100147380D01*
X164568095Y-100147380D01*
X164472857Y-100099761D01*
X164425238Y-100052142D01*
X159821666Y-97242380D02*
X159821666Y-97956666D01*
X159774047Y-98099523D01*
X159678809Y-98194761D01*
X159535952Y-98242380D01*
X159440714Y-98242380D01*
X160297857Y-98242380D02*
X160297857Y-97242380D01*
X160678809Y-97242380D01*
X160774047Y-97290000D01*
X160821666Y-97337619D01*
X160869285Y-97432857D01*
X160869285Y-97575714D01*
X160821666Y-97670952D01*
X160774047Y-97718571D01*
X160678809Y-97766190D01*
X160297857Y-97766190D01*
X161726428Y-97575714D02*
X161726428Y-98242380D01*
X161488333Y-97194761D02*
X161250238Y-97909047D01*
X161869285Y-97909047D01*
X138390476Y-104227380D02*
X138390476Y-104941666D01*
X138342857Y-105084523D01*
X138247619Y-105179761D01*
X138104761Y-105227380D01*
X138009523Y-105227380D01*
X138866666Y-105227380D02*
X138866666Y-104227380D01*
X139247619Y-104227380D01*
X139342857Y-104275000D01*
X139390476Y-104322619D01*
X139438095Y-104417857D01*
X139438095Y-104560714D01*
X139390476Y-104655952D01*
X139342857Y-104703571D01*
X139247619Y-104751190D01*
X138866666Y-104751190D01*
X140390476Y-105227380D02*
X139819047Y-105227380D01*
X140104761Y-105227380D02*
X140104761Y-104227380D01*
X140009523Y-104370238D01*
X139914285Y-104465476D01*
X139819047Y-104513095D01*
X141342857Y-105227380D02*
X140771428Y-105227380D01*
X141057142Y-105227380D02*
X141057142Y-104227380D01*
X140961904Y-104370238D01*
X140866666Y-104465476D01*
X140771428Y-104513095D01*
X138390476Y-101687380D02*
X138390476Y-102401666D01*
X138342857Y-102544523D01*
X138247619Y-102639761D01*
X138104761Y-102687380D01*
X138009523Y-102687380D01*
X138866666Y-102687380D02*
X138866666Y-101687380D01*
X139247619Y-101687380D01*
X139342857Y-101735000D01*
X139390476Y-101782619D01*
X139438095Y-101877857D01*
X139438095Y-102020714D01*
X139390476Y-102115952D01*
X139342857Y-102163571D01*
X139247619Y-102211190D01*
X138866666Y-102211190D01*
X140390476Y-102687380D02*
X139819047Y-102687380D01*
X140104761Y-102687380D02*
X140104761Y-101687380D01*
X140009523Y-101830238D01*
X139914285Y-101925476D01*
X139819047Y-101973095D01*
X141009523Y-101687380D02*
X141104761Y-101687380D01*
X141200000Y-101735000D01*
X141247619Y-101782619D01*
X141295238Y-101877857D01*
X141342857Y-102068333D01*
X141342857Y-102306428D01*
X141295238Y-102496904D01*
X141247619Y-102592142D01*
X141200000Y-102639761D01*
X141104761Y-102687380D01*
X141009523Y-102687380D01*
X140914285Y-102639761D01*
X140866666Y-102592142D01*
X140819047Y-102496904D01*
X140771428Y-102306428D01*
X140771428Y-102068333D01*
X140819047Y-101877857D01*
X140866666Y-101782619D01*
X140914285Y-101735000D01*
X141009523Y-101687380D01*
X138866666Y-99147380D02*
X138866666Y-99861666D01*
X138819047Y-100004523D01*
X138723809Y-100099761D01*
X138580952Y-100147380D01*
X138485714Y-100147380D01*
X139342857Y-100147380D02*
X139342857Y-99147380D01*
X139723809Y-99147380D01*
X139819047Y-99195000D01*
X139866666Y-99242619D01*
X139914285Y-99337857D01*
X139914285Y-99480714D01*
X139866666Y-99575952D01*
X139819047Y-99623571D01*
X139723809Y-99671190D01*
X139342857Y-99671190D01*
X140390476Y-100147380D02*
X140580952Y-100147380D01*
X140676190Y-100099761D01*
X140723809Y-100052142D01*
X140819047Y-99909285D01*
X140866666Y-99718809D01*
X140866666Y-99337857D01*
X140819047Y-99242619D01*
X140771428Y-99195000D01*
X140676190Y-99147380D01*
X140485714Y-99147380D01*
X140390476Y-99195000D01*
X140342857Y-99242619D01*
X140295238Y-99337857D01*
X140295238Y-99575952D01*
X140342857Y-99671190D01*
X140390476Y-99718809D01*
X140485714Y-99766428D01*
X140676190Y-99766428D01*
X140771428Y-99718809D01*
X140819047Y-99671190D01*
X140866666Y-99575952D01*
X138866666Y-96607380D02*
X138866666Y-97321666D01*
X138819047Y-97464523D01*
X138723809Y-97559761D01*
X138580952Y-97607380D01*
X138485714Y-97607380D01*
X139342857Y-97607380D02*
X139342857Y-96607380D01*
X139723809Y-96607380D01*
X139819047Y-96655000D01*
X139866666Y-96702619D01*
X139914285Y-96797857D01*
X139914285Y-96940714D01*
X139866666Y-97035952D01*
X139819047Y-97083571D01*
X139723809Y-97131190D01*
X139342857Y-97131190D01*
X140485714Y-97035952D02*
X140390476Y-96988333D01*
X140342857Y-96940714D01*
X140295238Y-96845476D01*
X140295238Y-96797857D01*
X140342857Y-96702619D01*
X140390476Y-96655000D01*
X140485714Y-96607380D01*
X140676190Y-96607380D01*
X140771428Y-96655000D01*
X140819047Y-96702619D01*
X140866666Y-96797857D01*
X140866666Y-96845476D01*
X140819047Y-96940714D01*
X140771428Y-96988333D01*
X140676190Y-97035952D01*
X140485714Y-97035952D01*
X140390476Y-97083571D01*
X140342857Y-97131190D01*
X140295238Y-97226428D01*
X140295238Y-97416904D01*
X140342857Y-97512142D01*
X140390476Y-97559761D01*
X140485714Y-97607380D01*
X140676190Y-97607380D01*
X140771428Y-97559761D01*
X140819047Y-97512142D01*
X140866666Y-97416904D01*
X140866666Y-97226428D01*
X140819047Y-97131190D01*
X140771428Y-97083571D01*
X140676190Y-97035952D01*
X153471666Y-79462380D02*
X153471666Y-80176666D01*
X153424047Y-80319523D01*
X153328809Y-80414761D01*
X153185952Y-80462380D01*
X153090714Y-80462380D01*
X153947857Y-80462380D02*
X153947857Y-79462380D01*
X154328809Y-79462380D01*
X154424047Y-79510000D01*
X154471666Y-79557619D01*
X154519285Y-79652857D01*
X154519285Y-79795714D01*
X154471666Y-79890952D01*
X154424047Y-79938571D01*
X154328809Y-79986190D01*
X153947857Y-79986190D01*
X154852619Y-79462380D02*
X155471666Y-79462380D01*
X155138333Y-79843333D01*
X155281190Y-79843333D01*
X155376428Y-79890952D01*
X155424047Y-79938571D01*
X155471666Y-80033809D01*
X155471666Y-80271904D01*
X155424047Y-80367142D01*
X155376428Y-80414761D01*
X155281190Y-80462380D01*
X154995476Y-80462380D01*
X154900238Y-80414761D01*
X154852619Y-80367142D01*
X146486666Y-72477380D02*
X146486666Y-73191666D01*
X146439047Y-73334523D01*
X146343809Y-73429761D01*
X146200952Y-73477380D01*
X146105714Y-73477380D01*
X146962857Y-73477380D02*
X146962857Y-72477380D01*
X147343809Y-72477380D01*
X147439047Y-72525000D01*
X147486666Y-72572619D01*
X147534285Y-72667857D01*
X147534285Y-72810714D01*
X147486666Y-72905952D01*
X147439047Y-72953571D01*
X147343809Y-73001190D01*
X146962857Y-73001190D01*
X147915238Y-72572619D02*
X147962857Y-72525000D01*
X148058095Y-72477380D01*
X148296190Y-72477380D01*
X148391428Y-72525000D01*
X148439047Y-72572619D01*
X148486666Y-72667857D01*
X148486666Y-72763095D01*
X148439047Y-72905952D01*
X147867619Y-73477380D01*
X148486666Y-73477380D01*
X126801666Y-77557380D02*
X126801666Y-78271666D01*
X126754047Y-78414523D01*
X126658809Y-78509761D01*
X126515952Y-78557380D01*
X126420714Y-78557380D01*
X127277857Y-78557380D02*
X127277857Y-77557380D01*
X127658809Y-77557380D01*
X127754047Y-77605000D01*
X127801666Y-77652619D01*
X127849285Y-77747857D01*
X127849285Y-77890714D01*
X127801666Y-77985952D01*
X127754047Y-78033571D01*
X127658809Y-78081190D01*
X127277857Y-78081190D01*
X128801666Y-78557380D02*
X128230238Y-78557380D01*
X128515952Y-78557380D02*
X128515952Y-77557380D01*
X128420714Y-77700238D01*
X128325476Y-77795476D01*
X128230238Y-77843095D01*
D11*
X109740000Y-84962857D02*
X109668571Y-85105714D01*
X109668571Y-85320000D01*
X109740000Y-85534285D01*
X109882857Y-85677142D01*
X110025714Y-85748571D01*
X110311428Y-85820000D01*
X110525714Y-85820000D01*
X110811428Y-85748571D01*
X110954285Y-85677142D01*
X111097142Y-85534285D01*
X111168571Y-85320000D01*
X111168571Y-85177142D01*
X111097142Y-84962857D01*
X111025714Y-84891428D01*
X110525714Y-84891428D01*
X110525714Y-85177142D01*
X111168571Y-84248571D02*
X109668571Y-84248571D01*
X111168571Y-83391428D01*
X109668571Y-83391428D01*
X111168571Y-82677142D02*
X109668571Y-82677142D01*
X109668571Y-82320000D01*
X109740000Y-82105714D01*
X109882857Y-81962857D01*
X110025714Y-81891428D01*
X110311428Y-81820000D01*
X110525714Y-81820000D01*
X110811428Y-81891428D01*
X110954285Y-81962857D01*
X111097142Y-82105714D01*
X111168571Y-82320000D01*
X111168571Y-82677142D01*
X110597142Y-80668571D02*
X110597142Y-79525714D01*
X111168571Y-80097142D02*
X110025714Y-80097142D01*
X109668571Y-78097142D02*
X109668571Y-78811428D01*
X110382857Y-78882857D01*
X110311428Y-78811428D01*
X110240000Y-78668571D01*
X110240000Y-78311428D01*
X110311428Y-78168571D01*
X110382857Y-78097142D01*
X110525714Y-78025714D01*
X110882857Y-78025714D01*
X111025714Y-78097142D01*
X111097142Y-78168571D01*
X111168571Y-78311428D01*
X111168571Y-78668571D01*
X111097142Y-78811428D01*
X111025714Y-78882857D01*
X109668571Y-77597142D02*
X111168571Y-77097142D01*
X109668571Y-76597142D01*
D12*
G04 #@! TO.C,D1*
X115120000Y-116204538D02*
G75*
G03X120670000Y-117749830I2990000J-462D01*
G01*
X115120000Y-116205462D02*
G75*
G02X120670000Y-114660170I2990000J462D01*
G01*
X120610000Y-116205000D02*
G75*
G03X120610000Y-116205000I-2500000J0D01*
G01*
X120670000Y-117750000D02*
X120670000Y-114660000D01*
G04 #@! TO.C,J8*
X132080000Y-97095000D02*
X133410000Y-97095000D01*
X133410000Y-97095000D02*
X133410000Y-98425000D01*
X133410000Y-99695000D02*
X133410000Y-109915000D01*
X130750000Y-109915000D02*
X133410000Y-109915000D01*
X130750000Y-99695000D02*
X130750000Y-109915000D01*
X130750000Y-99695000D02*
X133410000Y-99695000D01*
G04 #@! TO.C,J7*
X147320000Y-97095000D02*
X148650000Y-97095000D01*
X148650000Y-97095000D02*
X148650000Y-98425000D01*
X148650000Y-99695000D02*
X148650000Y-109915000D01*
X145990000Y-109915000D02*
X148650000Y-109915000D01*
X145990000Y-99695000D02*
X145990000Y-109915000D01*
X145990000Y-99695000D02*
X148650000Y-99695000D01*
G04 #@! TO.C,C2*
X156425000Y-87750000D02*
X156110000Y-87750000D01*
X158850000Y-87750000D02*
X158535000Y-87750000D01*
X156425000Y-82510000D02*
X156110000Y-82510000D01*
X158850000Y-82510000D02*
X158535000Y-82510000D01*
X156110000Y-82510000D02*
X156110000Y-87750000D01*
X158850000Y-82510000D02*
X158850000Y-87750000D01*
G04 #@! TO.C,J1*
X130750000Y-94040000D02*
X130750000Y-92710000D01*
X132080000Y-94040000D02*
X130750000Y-94040000D01*
X133350000Y-94040000D02*
X133350000Y-91380000D01*
X133350000Y-91380000D02*
X148650000Y-91380000D01*
X133350000Y-94040000D02*
X148650000Y-94040000D01*
X148650000Y-94040000D02*
X148650000Y-91380000D01*
G04 #@! TO.C,J2*
X130750000Y-76140000D02*
X130750000Y-78800000D01*
X146050000Y-76140000D02*
X130750000Y-76140000D01*
X146050000Y-78800000D02*
X130750000Y-78800000D01*
X146050000Y-76140000D02*
X146050000Y-78800000D01*
X147320000Y-76140000D02*
X148650000Y-76140000D01*
X148650000Y-76140000D02*
X148650000Y-77470000D01*
G04 #@! TO.C,J3*
X159960000Y-94040000D02*
X159960000Y-92710000D01*
X161290000Y-94040000D02*
X159960000Y-94040000D01*
X162560000Y-94040000D02*
X162560000Y-91380000D01*
X162560000Y-91380000D02*
X177860000Y-91380000D01*
X162560000Y-94040000D02*
X177860000Y-94040000D01*
X177860000Y-94040000D02*
X177860000Y-91380000D01*
G04 #@! TO.C,J4*
X159960000Y-76140000D02*
X159960000Y-78800000D01*
X175260000Y-76140000D02*
X159960000Y-76140000D01*
X175260000Y-78800000D02*
X159960000Y-78800000D01*
X175260000Y-76140000D02*
X175260000Y-78800000D01*
X176530000Y-76140000D02*
X177860000Y-76140000D01*
X177860000Y-76140000D02*
X177860000Y-77470000D01*
G04 #@! TO.C,J5*
X159960000Y-120710000D02*
X159960000Y-119380000D01*
X161290000Y-120710000D02*
X159960000Y-120710000D01*
X162560000Y-120710000D02*
X162560000Y-118050000D01*
X162560000Y-118050000D02*
X177860000Y-118050000D01*
X162560000Y-120710000D02*
X177860000Y-120710000D01*
X177860000Y-120710000D02*
X177860000Y-118050000D01*
G04 #@! TO.C,J6*
X159960000Y-102810000D02*
X159960000Y-105470000D01*
X175260000Y-102810000D02*
X159960000Y-102810000D01*
X175260000Y-105470000D02*
X159960000Y-105470000D01*
X175260000Y-102810000D02*
X175260000Y-105470000D01*
X176530000Y-102810000D02*
X177860000Y-102810000D01*
X177860000Y-102810000D02*
X177860000Y-104140000D01*
G04 #@! TO.C,P1*
X114610000Y-86820000D02*
X111610000Y-86820000D01*
X111610000Y-86820000D02*
X111610000Y-83820000D01*
X111990000Y-86440000D02*
X111990000Y-76200000D01*
X111990000Y-76200000D02*
X124730000Y-76200000D01*
X124730000Y-86440000D02*
X124730000Y-76200000D01*
X111990000Y-86440000D02*
X124730000Y-86440000D01*
X111990000Y-86440000D02*
X111990000Y-76200000D01*
X111990000Y-76200000D02*
X124730000Y-76200000D01*
X124730000Y-86440000D02*
X124730000Y-76200000D01*
X111990000Y-86440000D02*
X124730000Y-86440000D01*
G04 #@! TO.C,R1*
X121380000Y-109035000D02*
X121380000Y-106295000D01*
X121380000Y-106295000D02*
X114840000Y-106295000D01*
X114840000Y-106295000D02*
X114840000Y-109035000D01*
X114840000Y-109035000D02*
X121380000Y-109035000D01*
X122150000Y-107665000D02*
X121380000Y-107665000D01*
X114070000Y-107665000D02*
X114840000Y-107665000D01*
G04 #@! TO.C,R2*
X143280000Y-114300000D02*
X144050000Y-114300000D01*
X151360000Y-114300000D02*
X150590000Y-114300000D01*
X144050000Y-115670000D02*
X150590000Y-115670000D01*
X144050000Y-112930000D02*
X144050000Y-115670000D01*
X150590000Y-112930000D02*
X144050000Y-112930000D01*
X150590000Y-115670000D02*
X150590000Y-112930000D01*
G04 #@! TO.C,R3*
X150590000Y-119480000D02*
X150590000Y-116740000D01*
X150590000Y-116740000D02*
X144050000Y-116740000D01*
X144050000Y-116740000D02*
X144050000Y-119480000D01*
X144050000Y-119480000D02*
X150590000Y-119480000D01*
X151360000Y-118110000D02*
X150590000Y-118110000D01*
X143280000Y-118110000D02*
X144050000Y-118110000D01*
G04 #@! TO.C,R4*
X136120000Y-114300000D02*
X135350000Y-114300000D01*
X128040000Y-114300000D02*
X128810000Y-114300000D01*
X135350000Y-112930000D02*
X128810000Y-112930000D01*
X135350000Y-115670000D02*
X135350000Y-112930000D01*
X128810000Y-115670000D02*
X135350000Y-115670000D01*
X128810000Y-112930000D02*
X128810000Y-115670000D01*
G04 #@! TO.C,R5*
X128810000Y-116740000D02*
X128810000Y-119480000D01*
X128810000Y-119480000D02*
X135350000Y-119480000D01*
X135350000Y-119480000D02*
X135350000Y-116740000D01*
X135350000Y-116740000D02*
X128810000Y-116740000D01*
X128040000Y-118110000D02*
X128810000Y-118110000D01*
X136120000Y-118110000D02*
X135350000Y-118110000D01*
G04 #@! TO.C,SW1*
X113160000Y-90290000D02*
X123060000Y-90290000D01*
X113160000Y-102750000D02*
X123060000Y-102750000D01*
X113160000Y-90290000D02*
X113160000Y-102750000D01*
X123060000Y-90290000D02*
X123060000Y-102750000D01*
X112920000Y-90050000D02*
X114304000Y-90050000D01*
X112920000Y-90050000D02*
X112920000Y-91433000D01*
X116080000Y-92075000D02*
X116080000Y-93345000D01*
X116080000Y-93345000D02*
X120140000Y-93345000D01*
X120140000Y-93345000D02*
X120140000Y-92075000D01*
X120140000Y-92075000D02*
X116080000Y-92075000D01*
X116080000Y-92195000D02*
X117433333Y-92195000D01*
X116080000Y-92315000D02*
X117433333Y-92315000D01*
X116080000Y-92435000D02*
X117433333Y-92435000D01*
X116080000Y-92555000D02*
X117433333Y-92555000D01*
X116080000Y-92675000D02*
X117433333Y-92675000D01*
X116080000Y-92795000D02*
X117433333Y-92795000D01*
X116080000Y-92915000D02*
X117433333Y-92915000D01*
X116080000Y-93035000D02*
X117433333Y-93035000D01*
X116080000Y-93155000D02*
X117433333Y-93155000D01*
X116080000Y-93275000D02*
X117433333Y-93275000D01*
X117433333Y-92075000D02*
X117433333Y-93345000D01*
X116080000Y-94615000D02*
X116080000Y-95885000D01*
X116080000Y-95885000D02*
X120140000Y-95885000D01*
X120140000Y-95885000D02*
X120140000Y-94615000D01*
X120140000Y-94615000D02*
X116080000Y-94615000D01*
X116080000Y-94735000D02*
X117433333Y-94735000D01*
X116080000Y-94855000D02*
X117433333Y-94855000D01*
X116080000Y-94975000D02*
X117433333Y-94975000D01*
X116080000Y-95095000D02*
X117433333Y-95095000D01*
X116080000Y-95215000D02*
X117433333Y-95215000D01*
X116080000Y-95335000D02*
X117433333Y-95335000D01*
X116080000Y-95455000D02*
X117433333Y-95455000D01*
X116080000Y-95575000D02*
X117433333Y-95575000D01*
X116080000Y-95695000D02*
X117433333Y-95695000D01*
X116080000Y-95815000D02*
X117433333Y-95815000D01*
X117433333Y-94615000D02*
X117433333Y-95885000D01*
X116080000Y-97155000D02*
X116080000Y-98425000D01*
X116080000Y-98425000D02*
X120140000Y-98425000D01*
X120140000Y-98425000D02*
X120140000Y-97155000D01*
X120140000Y-97155000D02*
X116080000Y-97155000D01*
X116080000Y-97275000D02*
X117433333Y-97275000D01*
X116080000Y-97395000D02*
X117433333Y-97395000D01*
X116080000Y-97515000D02*
X117433333Y-97515000D01*
X116080000Y-97635000D02*
X117433333Y-97635000D01*
X116080000Y-97755000D02*
X117433333Y-97755000D01*
X116080000Y-97875000D02*
X117433333Y-97875000D01*
X116080000Y-97995000D02*
X117433333Y-97995000D01*
X116080000Y-98115000D02*
X117433333Y-98115000D01*
X116080000Y-98235000D02*
X117433333Y-98235000D01*
X116080000Y-98355000D02*
X117433333Y-98355000D01*
X117433333Y-97155000D02*
X117433333Y-98425000D01*
X116080000Y-99695000D02*
X116080000Y-100965000D01*
X116080000Y-100965000D02*
X120140000Y-100965000D01*
X120140000Y-100965000D02*
X120140000Y-99695000D01*
X120140000Y-99695000D02*
X116080000Y-99695000D01*
X116080000Y-99815000D02*
X117433333Y-99815000D01*
X116080000Y-99935000D02*
X117433333Y-99935000D01*
X116080000Y-100055000D02*
X117433333Y-100055000D01*
X116080000Y-100175000D02*
X117433333Y-100175000D01*
X116080000Y-100295000D02*
X117433333Y-100295000D01*
X116080000Y-100415000D02*
X117433333Y-100415000D01*
X116080000Y-100535000D02*
X117433333Y-100535000D01*
X116080000Y-100655000D02*
X117433333Y-100655000D01*
X116080000Y-100775000D02*
X117433333Y-100775000D01*
X116080000Y-100895000D02*
X117433333Y-100895000D01*
X117433333Y-99695000D02*
X117433333Y-100965000D01*
G04 #@! TO.C,U1*
X130750000Y-84090000D02*
G75*
G02X130750000Y-86090000I0J-1000000D01*
G01*
X130750000Y-86090000D02*
X130750000Y-87340000D01*
X130750000Y-87340000D02*
X148650000Y-87340000D01*
X148650000Y-87340000D02*
X148650000Y-82840000D01*
X148650000Y-82840000D02*
X130750000Y-82840000D01*
X130750000Y-82840000D02*
X130750000Y-84090000D01*
X130690000Y-90340000D02*
X148710000Y-90340000D01*
X148710000Y-90340000D02*
X148710000Y-79840000D01*
X148710000Y-79840000D02*
X130690000Y-79840000D01*
X130690000Y-79840000D02*
X130690000Y-90340000D01*
G04 #@! TO.C,U2*
X159960000Y-84090000D02*
G75*
G02X159960000Y-86090000I0J-1000000D01*
G01*
X159960000Y-86090000D02*
X159960000Y-87340000D01*
X159960000Y-87340000D02*
X177860000Y-87340000D01*
X177860000Y-87340000D02*
X177860000Y-82840000D01*
X177860000Y-82840000D02*
X159960000Y-82840000D01*
X159960000Y-82840000D02*
X159960000Y-84090000D01*
X159900000Y-90340000D02*
X177920000Y-90340000D01*
X177920000Y-90340000D02*
X177920000Y-79840000D01*
X177920000Y-79840000D02*
X159900000Y-79840000D01*
X159900000Y-79840000D02*
X159900000Y-90340000D01*
G04 #@! TO.C,U3*
X159900000Y-106510000D02*
X159900000Y-117010000D01*
X177920000Y-106510000D02*
X159900000Y-106510000D01*
X177920000Y-117010000D02*
X177920000Y-106510000D01*
X159900000Y-117010000D02*
X177920000Y-117010000D01*
X159960000Y-109510000D02*
X159960000Y-110760000D01*
X177860000Y-109510000D02*
X159960000Y-109510000D01*
X177860000Y-114010000D02*
X177860000Y-109510000D01*
X159960000Y-114010000D02*
X177860000Y-114010000D01*
X159960000Y-112760000D02*
X159960000Y-114010000D01*
X159960000Y-110760000D02*
G75*
G02X159960000Y-112760000I0J-1000000D01*
G01*
G04 #@! TO.C,C1*
X129640000Y-82510000D02*
X129640000Y-87750000D01*
X126900000Y-82510000D02*
X126900000Y-87750000D01*
X129640000Y-82510000D02*
X129325000Y-82510000D01*
X127215000Y-82510000D02*
X126900000Y-82510000D01*
X129640000Y-87750000D02*
X129325000Y-87750000D01*
X127215000Y-87750000D02*
X126900000Y-87750000D01*
G04 #@! TO.C,C3*
X158850000Y-109100000D02*
X158850000Y-114340000D01*
X156110000Y-109100000D02*
X156110000Y-114340000D01*
X158850000Y-109100000D02*
X158535000Y-109100000D01*
X156425000Y-109100000D02*
X156110000Y-109100000D01*
X158850000Y-114340000D02*
X158535000Y-114340000D01*
X156425000Y-114340000D02*
X156110000Y-114340000D01*
G04 #@! TO.C,Par1*
D10*
X113435000Y-73477380D02*
X113435000Y-72477380D01*
X113815952Y-72477380D01*
X113911190Y-72525000D01*
X113958809Y-72572619D01*
X114006428Y-72667857D01*
X114006428Y-72810714D01*
X113958809Y-72905952D01*
X113911190Y-72953571D01*
X113815952Y-73001190D01*
X113435000Y-73001190D01*
X114863571Y-73477380D02*
X114863571Y-72953571D01*
X114815952Y-72858333D01*
X114720714Y-72810714D01*
X114530238Y-72810714D01*
X114435000Y-72858333D01*
X114863571Y-73429761D02*
X114768333Y-73477380D01*
X114530238Y-73477380D01*
X114435000Y-73429761D01*
X114387380Y-73334523D01*
X114387380Y-73239285D01*
X114435000Y-73144047D01*
X114530238Y-73096428D01*
X114768333Y-73096428D01*
X114863571Y-73048809D01*
X115339761Y-73477380D02*
X115339761Y-72810714D01*
X115339761Y-73001190D02*
X115387380Y-72905952D01*
X115435000Y-72858333D01*
X115530238Y-72810714D01*
X115625476Y-72810714D01*
X116482619Y-73477380D02*
X115911190Y-73477380D01*
X116196904Y-73477380D02*
X116196904Y-72477380D01*
X116101666Y-72620238D01*
X116006428Y-72715476D01*
X115911190Y-72763095D01*
G04 #@! TO.C,Par4*
X113435000Y-122372380D02*
X113435000Y-121372380D01*
X113815952Y-121372380D01*
X113911190Y-121420000D01*
X113958809Y-121467619D01*
X114006428Y-121562857D01*
X114006428Y-121705714D01*
X113958809Y-121800952D01*
X113911190Y-121848571D01*
X113815952Y-121896190D01*
X113435000Y-121896190D01*
X114863571Y-122372380D02*
X114863571Y-121848571D01*
X114815952Y-121753333D01*
X114720714Y-121705714D01*
X114530238Y-121705714D01*
X114435000Y-121753333D01*
X114863571Y-122324761D02*
X114768333Y-122372380D01*
X114530238Y-122372380D01*
X114435000Y-122324761D01*
X114387380Y-122229523D01*
X114387380Y-122134285D01*
X114435000Y-122039047D01*
X114530238Y-121991428D01*
X114768333Y-121991428D01*
X114863571Y-121943809D01*
X115339761Y-122372380D02*
X115339761Y-121705714D01*
X115339761Y-121896190D02*
X115387380Y-121800952D01*
X115435000Y-121753333D01*
X115530238Y-121705714D01*
X115625476Y-121705714D01*
X116387380Y-121705714D02*
X116387380Y-122372380D01*
X116149285Y-121324761D02*
X115911190Y-122039047D01*
X116530238Y-122039047D01*
G04 #@! TO.C,Par3*
X175665000Y-122372380D02*
X175665000Y-121372380D01*
X176045952Y-121372380D01*
X176141190Y-121420000D01*
X176188809Y-121467619D01*
X176236428Y-121562857D01*
X176236428Y-121705714D01*
X176188809Y-121800952D01*
X176141190Y-121848571D01*
X176045952Y-121896190D01*
X175665000Y-121896190D01*
X177093571Y-122372380D02*
X177093571Y-121848571D01*
X177045952Y-121753333D01*
X176950714Y-121705714D01*
X176760238Y-121705714D01*
X176665000Y-121753333D01*
X177093571Y-122324761D02*
X176998333Y-122372380D01*
X176760238Y-122372380D01*
X176665000Y-122324761D01*
X176617380Y-122229523D01*
X176617380Y-122134285D01*
X176665000Y-122039047D01*
X176760238Y-121991428D01*
X176998333Y-121991428D01*
X177093571Y-121943809D01*
X177569761Y-122372380D02*
X177569761Y-121705714D01*
X177569761Y-121896190D02*
X177617380Y-121800952D01*
X177665000Y-121753333D01*
X177760238Y-121705714D01*
X177855476Y-121705714D01*
X178093571Y-121372380D02*
X178712619Y-121372380D01*
X178379285Y-121753333D01*
X178522142Y-121753333D01*
X178617380Y-121800952D01*
X178665000Y-121848571D01*
X178712619Y-121943809D01*
X178712619Y-122181904D01*
X178665000Y-122277142D01*
X178617380Y-122324761D01*
X178522142Y-122372380D01*
X178236428Y-122372380D01*
X178141190Y-122324761D01*
X178093571Y-122277142D01*
G04 #@! TO.C,D1*
X117371904Y-120617380D02*
X117371904Y-119617380D01*
X117610000Y-119617380D01*
X117752857Y-119665000D01*
X117848095Y-119760238D01*
X117895714Y-119855476D01*
X117943333Y-120045952D01*
X117943333Y-120188809D01*
X117895714Y-120379285D01*
X117848095Y-120474523D01*
X117752857Y-120569761D01*
X117610000Y-120617380D01*
X117371904Y-120617380D01*
X118895714Y-120617380D02*
X118324285Y-120617380D01*
X118610000Y-120617380D02*
X118610000Y-119617380D01*
X118514761Y-119760238D01*
X118419523Y-119855476D01*
X118324285Y-119903095D01*
G04 #@! TO.C,J8*
X128571666Y-97877380D02*
X128571666Y-98591666D01*
X128524047Y-98734523D01*
X128428809Y-98829761D01*
X128285952Y-98877380D01*
X128190714Y-98877380D01*
X129190714Y-98305952D02*
X129095476Y-98258333D01*
X129047857Y-98210714D01*
X129000238Y-98115476D01*
X129000238Y-98067857D01*
X129047857Y-97972619D01*
X129095476Y-97925000D01*
X129190714Y-97877380D01*
X129381190Y-97877380D01*
X129476428Y-97925000D01*
X129524047Y-97972619D01*
X129571666Y-98067857D01*
X129571666Y-98115476D01*
X129524047Y-98210714D01*
X129476428Y-98258333D01*
X129381190Y-98305952D01*
X129190714Y-98305952D01*
X129095476Y-98353571D01*
X129047857Y-98401190D01*
X129000238Y-98496428D01*
X129000238Y-98686904D01*
X129047857Y-98782142D01*
X129095476Y-98829761D01*
X129190714Y-98877380D01*
X129381190Y-98877380D01*
X129476428Y-98829761D01*
X129524047Y-98782142D01*
X129571666Y-98686904D01*
X129571666Y-98496428D01*
X129524047Y-98401190D01*
X129476428Y-98353571D01*
X129381190Y-98305952D01*
G04 #@! TO.C,J7*
X150161666Y-97877380D02*
X150161666Y-98591666D01*
X150114047Y-98734523D01*
X150018809Y-98829761D01*
X149875952Y-98877380D01*
X149780714Y-98877380D01*
X150542619Y-97877380D02*
X151209285Y-97877380D01*
X150780714Y-98877380D01*
G04 #@! TO.C,C2*
X155408333Y-89257142D02*
X155360714Y-89304761D01*
X155217857Y-89352380D01*
X155122619Y-89352380D01*
X154979761Y-89304761D01*
X154884523Y-89209523D01*
X154836904Y-89114285D01*
X154789285Y-88923809D01*
X154789285Y-88780952D01*
X154836904Y-88590476D01*
X154884523Y-88495238D01*
X154979761Y-88400000D01*
X155122619Y-88352380D01*
X155217857Y-88352380D01*
X155360714Y-88400000D01*
X155408333Y-88447619D01*
X155789285Y-88447619D02*
X155836904Y-88400000D01*
X155932142Y-88352380D01*
X156170238Y-88352380D01*
X156265476Y-88400000D01*
X156313095Y-88447619D01*
X156360714Y-88542857D01*
X156360714Y-88638095D01*
X156313095Y-88780952D01*
X155741666Y-89352380D01*
X156360714Y-89352380D01*
G04 #@! TO.C,J1*
X149526666Y-92162380D02*
X149526666Y-92876666D01*
X149479047Y-93019523D01*
X149383809Y-93114761D01*
X149240952Y-93162380D01*
X149145714Y-93162380D01*
X150526666Y-93162380D02*
X149955238Y-93162380D01*
X150240952Y-93162380D02*
X150240952Y-92162380D01*
X150145714Y-92305238D01*
X150050476Y-92400476D01*
X149955238Y-92448095D01*
G04 #@! TO.C,J2*
X149316666Y-76922380D02*
X149316666Y-77636666D01*
X149269047Y-77779523D01*
X149173809Y-77874761D01*
X149030952Y-77922380D01*
X148935714Y-77922380D01*
X149745238Y-77017619D02*
X149792857Y-76970000D01*
X149888095Y-76922380D01*
X150126190Y-76922380D01*
X150221428Y-76970000D01*
X150269047Y-77017619D01*
X150316666Y-77112857D01*
X150316666Y-77208095D01*
X150269047Y-77350952D01*
X149697619Y-77922380D01*
X150316666Y-77922380D01*
G04 #@! TO.C,J3*
X178736666Y-92162380D02*
X178736666Y-92876666D01*
X178689047Y-93019523D01*
X178593809Y-93114761D01*
X178450952Y-93162380D01*
X178355714Y-93162380D01*
X179117619Y-92162380D02*
X179736666Y-92162380D01*
X179403333Y-92543333D01*
X179546190Y-92543333D01*
X179641428Y-92590952D01*
X179689047Y-92638571D01*
X179736666Y-92733809D01*
X179736666Y-92971904D01*
X179689047Y-93067142D01*
X179641428Y-93114761D01*
X179546190Y-93162380D01*
X179260476Y-93162380D01*
X179165238Y-93114761D01*
X179117619Y-93067142D01*
G04 #@! TO.C,J4*
X178736666Y-76922380D02*
X178736666Y-77636666D01*
X178689047Y-77779523D01*
X178593809Y-77874761D01*
X178450952Y-77922380D01*
X178355714Y-77922380D01*
X179641428Y-77255714D02*
X179641428Y-77922380D01*
X179403333Y-76874761D02*
X179165238Y-77589047D01*
X179784285Y-77589047D01*
G04 #@! TO.C,J5*
X178736666Y-118197380D02*
X178736666Y-118911666D01*
X178689047Y-119054523D01*
X178593809Y-119149761D01*
X178450952Y-119197380D01*
X178355714Y-119197380D01*
X179689047Y-118197380D02*
X179212857Y-118197380D01*
X179165238Y-118673571D01*
X179212857Y-118625952D01*
X179308095Y-118578333D01*
X179546190Y-118578333D01*
X179641428Y-118625952D01*
X179689047Y-118673571D01*
X179736666Y-118768809D01*
X179736666Y-119006904D01*
X179689047Y-119102142D01*
X179641428Y-119149761D01*
X179546190Y-119197380D01*
X179308095Y-119197380D01*
X179212857Y-119149761D01*
X179165238Y-119102142D01*
G04 #@! TO.C,J6*
X178526666Y-103592380D02*
X178526666Y-104306666D01*
X178479047Y-104449523D01*
X178383809Y-104544761D01*
X178240952Y-104592380D01*
X178145714Y-104592380D01*
X179431428Y-103592380D02*
X179240952Y-103592380D01*
X179145714Y-103640000D01*
X179098095Y-103687619D01*
X179002857Y-103830476D01*
X178955238Y-104020952D01*
X178955238Y-104401904D01*
X179002857Y-104497142D01*
X179050476Y-104544761D01*
X179145714Y-104592380D01*
X179336190Y-104592380D01*
X179431428Y-104544761D01*
X179479047Y-104497142D01*
X179526666Y-104401904D01*
X179526666Y-104163809D01*
X179479047Y-104068571D01*
X179431428Y-104020952D01*
X179336190Y-103973333D01*
X179145714Y-103973333D01*
X179050476Y-104020952D01*
X179002857Y-104068571D01*
X178955238Y-104163809D01*
G04 #@! TO.C,P1*
X118006904Y-75382380D02*
X118006904Y-74382380D01*
X118387857Y-74382380D01*
X118483095Y-74430000D01*
X118530714Y-74477619D01*
X118578333Y-74572857D01*
X118578333Y-74715714D01*
X118530714Y-74810952D01*
X118483095Y-74858571D01*
X118387857Y-74906190D01*
X118006904Y-74906190D01*
X119530714Y-75382380D02*
X118959285Y-75382380D01*
X119245000Y-75382380D02*
X119245000Y-74382380D01*
X119149761Y-74525238D01*
X119054523Y-74620476D01*
X118959285Y-74668095D01*
G04 #@! TO.C,R1*
X117943333Y-110487380D02*
X117610000Y-110011190D01*
X117371904Y-110487380D02*
X117371904Y-109487380D01*
X117752857Y-109487380D01*
X117848095Y-109535000D01*
X117895714Y-109582619D01*
X117943333Y-109677857D01*
X117943333Y-109820714D01*
X117895714Y-109915952D01*
X117848095Y-109963571D01*
X117752857Y-110011190D01*
X117371904Y-110011190D01*
X118895714Y-110487380D02*
X118324285Y-110487380D01*
X118610000Y-110487380D02*
X118610000Y-109487380D01*
X118514761Y-109630238D01*
X118419523Y-109725476D01*
X118324285Y-109773095D01*
G04 #@! TO.C,R2*
X147153333Y-112212380D02*
X146820000Y-111736190D01*
X146581904Y-112212380D02*
X146581904Y-111212380D01*
X146962857Y-111212380D01*
X147058095Y-111260000D01*
X147105714Y-111307619D01*
X147153333Y-111402857D01*
X147153333Y-111545714D01*
X147105714Y-111640952D01*
X147058095Y-111688571D01*
X146962857Y-111736190D01*
X146581904Y-111736190D01*
X147534285Y-111307619D02*
X147581904Y-111260000D01*
X147677142Y-111212380D01*
X147915238Y-111212380D01*
X148010476Y-111260000D01*
X148058095Y-111307619D01*
X148105714Y-111402857D01*
X148105714Y-111498095D01*
X148058095Y-111640952D01*
X147486666Y-112212380D01*
X148105714Y-112212380D01*
G04 #@! TO.C,R3*
X147153333Y-121102380D02*
X146820000Y-120626190D01*
X146581904Y-121102380D02*
X146581904Y-120102380D01*
X146962857Y-120102380D01*
X147058095Y-120150000D01*
X147105714Y-120197619D01*
X147153333Y-120292857D01*
X147153333Y-120435714D01*
X147105714Y-120530952D01*
X147058095Y-120578571D01*
X146962857Y-120626190D01*
X146581904Y-120626190D01*
X147486666Y-120102380D02*
X148105714Y-120102380D01*
X147772380Y-120483333D01*
X147915238Y-120483333D01*
X148010476Y-120530952D01*
X148058095Y-120578571D01*
X148105714Y-120673809D01*
X148105714Y-120911904D01*
X148058095Y-121007142D01*
X148010476Y-121054761D01*
X147915238Y-121102380D01*
X147629523Y-121102380D01*
X147534285Y-121054761D01*
X147486666Y-121007142D01*
G04 #@! TO.C,R4*
X131913333Y-112212380D02*
X131580000Y-111736190D01*
X131341904Y-112212380D02*
X131341904Y-111212380D01*
X131722857Y-111212380D01*
X131818095Y-111260000D01*
X131865714Y-111307619D01*
X131913333Y-111402857D01*
X131913333Y-111545714D01*
X131865714Y-111640952D01*
X131818095Y-111688571D01*
X131722857Y-111736190D01*
X131341904Y-111736190D01*
X132770476Y-111545714D02*
X132770476Y-112212380D01*
X132532380Y-111164761D02*
X132294285Y-111879047D01*
X132913333Y-111879047D01*
G04 #@! TO.C,R5*
X131913333Y-121102380D02*
X131580000Y-120626190D01*
X131341904Y-121102380D02*
X131341904Y-120102380D01*
X131722857Y-120102380D01*
X131818095Y-120150000D01*
X131865714Y-120197619D01*
X131913333Y-120292857D01*
X131913333Y-120435714D01*
X131865714Y-120530952D01*
X131818095Y-120578571D01*
X131722857Y-120626190D01*
X131341904Y-120626190D01*
X132818095Y-120102380D02*
X132341904Y-120102380D01*
X132294285Y-120578571D01*
X132341904Y-120530952D01*
X132437142Y-120483333D01*
X132675238Y-120483333D01*
X132770476Y-120530952D01*
X132818095Y-120578571D01*
X132865714Y-120673809D01*
X132865714Y-120911904D01*
X132818095Y-121007142D01*
X132770476Y-121054761D01*
X132675238Y-121102380D01*
X132437142Y-121102380D01*
X132341904Y-121054761D01*
X132294285Y-121007142D01*
G04 #@! TO.C,SW1*
X116776666Y-89694761D02*
X116919523Y-89742380D01*
X117157619Y-89742380D01*
X117252857Y-89694761D01*
X117300476Y-89647142D01*
X117348095Y-89551904D01*
X117348095Y-89456666D01*
X117300476Y-89361428D01*
X117252857Y-89313809D01*
X117157619Y-89266190D01*
X116967142Y-89218571D01*
X116871904Y-89170952D01*
X116824285Y-89123333D01*
X116776666Y-89028095D01*
X116776666Y-88932857D01*
X116824285Y-88837619D01*
X116871904Y-88790000D01*
X116967142Y-88742380D01*
X117205238Y-88742380D01*
X117348095Y-88790000D01*
X117681428Y-88742380D02*
X117919523Y-89742380D01*
X118110000Y-89028095D01*
X118300476Y-89742380D01*
X118538571Y-88742380D01*
X119443333Y-89742380D02*
X118871904Y-89742380D01*
X119157619Y-89742380D02*
X119157619Y-88742380D01*
X119062380Y-88885238D01*
X118967142Y-88980476D01*
X118871904Y-89028095D01*
G04 #@! TO.C,U1*
X128778095Y-79462380D02*
X128778095Y-80271904D01*
X128825714Y-80367142D01*
X128873333Y-80414761D01*
X128968571Y-80462380D01*
X129159047Y-80462380D01*
X129254285Y-80414761D01*
X129301904Y-80367142D01*
X129349523Y-80271904D01*
X129349523Y-79462380D01*
X130349523Y-80462380D02*
X129778095Y-80462380D01*
X130063809Y-80462380D02*
X130063809Y-79462380D01*
X129968571Y-79605238D01*
X129873333Y-79700476D01*
X129778095Y-79748095D01*
G04 #@! TO.C,U2*
X157988095Y-79462380D02*
X157988095Y-80271904D01*
X158035714Y-80367142D01*
X158083333Y-80414761D01*
X158178571Y-80462380D01*
X158369047Y-80462380D01*
X158464285Y-80414761D01*
X158511904Y-80367142D01*
X158559523Y-80271904D01*
X158559523Y-79462380D01*
X158988095Y-79557619D02*
X159035714Y-79510000D01*
X159130952Y-79462380D01*
X159369047Y-79462380D01*
X159464285Y-79510000D01*
X159511904Y-79557619D01*
X159559523Y-79652857D01*
X159559523Y-79748095D01*
X159511904Y-79890952D01*
X158940476Y-80462380D01*
X159559523Y-80462380D01*
G04 #@! TO.C,U3*
X157988095Y-106132380D02*
X157988095Y-106941904D01*
X158035714Y-107037142D01*
X158083333Y-107084761D01*
X158178571Y-107132380D01*
X158369047Y-107132380D01*
X158464285Y-107084761D01*
X158511904Y-107037142D01*
X158559523Y-106941904D01*
X158559523Y-106132380D01*
X158940476Y-106132380D02*
X159559523Y-106132380D01*
X159226190Y-106513333D01*
X159369047Y-106513333D01*
X159464285Y-106560952D01*
X159511904Y-106608571D01*
X159559523Y-106703809D01*
X159559523Y-106941904D01*
X159511904Y-107037142D01*
X159464285Y-107084761D01*
X159369047Y-107132380D01*
X159083333Y-107132380D01*
X158988095Y-107084761D01*
X158940476Y-107037142D01*
G04 #@! TO.C,C1*
X126198333Y-89257142D02*
X126150714Y-89304761D01*
X126007857Y-89352380D01*
X125912619Y-89352380D01*
X125769761Y-89304761D01*
X125674523Y-89209523D01*
X125626904Y-89114285D01*
X125579285Y-88923809D01*
X125579285Y-88780952D01*
X125626904Y-88590476D01*
X125674523Y-88495238D01*
X125769761Y-88400000D01*
X125912619Y-88352380D01*
X126007857Y-88352380D01*
X126150714Y-88400000D01*
X126198333Y-88447619D01*
X127150714Y-89352380D02*
X126579285Y-89352380D01*
X126865000Y-89352380D02*
X126865000Y-88352380D01*
X126769761Y-88495238D01*
X126674523Y-88590476D01*
X126579285Y-88638095D01*
G04 #@! TO.C,C3*
X155408333Y-116562142D02*
X155360714Y-116609761D01*
X155217857Y-116657380D01*
X155122619Y-116657380D01*
X154979761Y-116609761D01*
X154884523Y-116514523D01*
X154836904Y-116419285D01*
X154789285Y-116228809D01*
X154789285Y-116085952D01*
X154836904Y-115895476D01*
X154884523Y-115800238D01*
X154979761Y-115705000D01*
X155122619Y-115657380D01*
X155217857Y-115657380D01*
X155360714Y-115705000D01*
X155408333Y-115752619D01*
X155741666Y-115657380D02*
X156360714Y-115657380D01*
X156027380Y-116038333D01*
X156170238Y-116038333D01*
X156265476Y-116085952D01*
X156313095Y-116133571D01*
X156360714Y-116228809D01*
X156360714Y-116466904D01*
X156313095Y-116562142D01*
X156265476Y-116609761D01*
X156170238Y-116657380D01*
X155884523Y-116657380D01*
X155789285Y-116609761D01*
X155741666Y-116562142D01*
G04 #@! TO.C,Par2*
X175665000Y-73477380D02*
X175665000Y-72477380D01*
X176045952Y-72477380D01*
X176141190Y-72525000D01*
X176188809Y-72572619D01*
X176236428Y-72667857D01*
X176236428Y-72810714D01*
X176188809Y-72905952D01*
X176141190Y-72953571D01*
X176045952Y-73001190D01*
X175665000Y-73001190D01*
X177093571Y-73477380D02*
X177093571Y-72953571D01*
X177045952Y-72858333D01*
X176950714Y-72810714D01*
X176760238Y-72810714D01*
X176665000Y-72858333D01*
X177093571Y-73429761D02*
X176998333Y-73477380D01*
X176760238Y-73477380D01*
X176665000Y-73429761D01*
X176617380Y-73334523D01*
X176617380Y-73239285D01*
X176665000Y-73144047D01*
X176760238Y-73096428D01*
X176998333Y-73096428D01*
X177093571Y-73048809D01*
X177569761Y-73477380D02*
X177569761Y-72810714D01*
X177569761Y-73001190D02*
X177617380Y-72905952D01*
X177665000Y-72858333D01*
X177760238Y-72810714D01*
X177855476Y-72810714D01*
X178141190Y-72572619D02*
X178188809Y-72525000D01*
X178284047Y-72477380D01*
X178522142Y-72477380D01*
X178617380Y-72525000D01*
X178665000Y-72572619D01*
X178712619Y-72667857D01*
X178712619Y-72763095D01*
X178665000Y-72905952D01*
X178093571Y-73477380D01*
X178712619Y-73477380D01*
G04 #@! TD*
M02*
