<?xml version="1.0" standalone="no"?>
 <!DOCTYPE svg PUBLIC "-//W3C//DTD SVG 1.1//EN" 
 "http://www.w3.org/Graphics/SVG/1.1/DTD/svg11.dtd"> 
<svg
  xmlns:svg="http://www.w3.org/2000/svg"
  xmlns="http://www.w3.org/2000/svg"
  xmlns:xlink="http://www.w3.org/1999/xlink"
  version="1.1"
  width="29.700220cm" height="21.000720cm" viewBox="0 0 116930 82680">
<title>SVG Picture created as DD_CMOS-F_SilkS.svg date 2022/02/13 19:42:25 </title>
  <desc>Picture generated by PCBNEW </desc>
<g style="fill:#000000; fill-opacity:1;stroke:#000000; stroke-opacity:1;
stroke-linecap:round; stroke-linejoin:round;"
 transform="translate(0 0) scale(1 1)">
</g>
<g style="fill:#000000; fill-opacity:0.0; 
stroke:#000000; stroke-width:-0.000393701; stroke-opacity:1; 
stroke-linecap:round; stroke-linejoin:round;">
</g>
<g style="fill:#000000; fill-opacity:0.0; 
stroke:#000000; stroke-width:39.3701; stroke-opacity:1; 
stroke-linecap:round; stroke-linejoin:round;">
<path d="M40000 48250 A750 750 0.0 0 0 40750 49000" />
<path d="M59250 49000 A750 750 0.0 0 0 60000 48250" />
<path d="M60000 34750 A750 750 0.0 0 0 59250 34000" />
<path d="M40750 34000 A750 750 0.0 0 0 40000 34750" />
<g transform="rotate(-90 59500 37750)">
<text x="59500" y="37927.2"
textLength="1891.45" font-size="419.947" lengthAdjust="spacingAndGlyphs"
text-anchor="middle" opacity="0">rev. 1.0</text>
</g>
<path d="M59660 38597
L59424 38597
" />
<path d="M59491 38597
L59457 38582
L59440 38567
L59424 38537
L59424 38507
" />
<path d="M59643 38282
L59660 38312
L59660 38372
L59643 38402
L59609 38417
L59474 38417
L59440 38402
L59424 38372
L59424 38312
L59440 38282
L59474 38267
L59508 38267
L59542 38417
" />
<path d="M59424 38162
L59660 38087
L59424 38012
" />
<path d="M59626 37892
L59643 37877
L59660 37892
L59643 37907
L59626 37892
L59660 37892
" />
<path d="M59660 37337
L59660 37517
" />
<path d="M59660 37427
L59305 37427
L59356 37457
L59390 37487
L59407 37517
" />
<path d="M59626 37202
L59643 37187
L59660 37202
L59643 37217
L59626 37202
L59660 37202
" />
<path d="M59305 36992
L59305 36962
L59322 36932
L59339 36917
L59373 36902
L59440 36887
L59525 36887
L59592 36902
L59626 36917
L59643 36932
L59660 36962
L59660 36992
L59643 37022
L59626 37037
L59592 37052
L59525 37067
L59440 37067
L59373 37052
L59339 37037
L59322 37022
L59305 36992
" />
<g transform="rotate(-90 58750 37750)">
<text x="58750" y="37927.2"
textLength="6335.4" font-size="419.947" lengthAdjust="spacingAndGlyphs"
text-anchor="middle" opacity="0">Módulo "Atuador e Carga"</text>
</g>
<path d="M58910 40817
L58555 40817
L58809 40712
L58555 40607
L58910 40607
" />
<path d="M58910 40412
L58893 40442
L58876 40457
L58842 40472
L58741 40472
L58707 40457
L58690 40442
L58674 40412
L58674 40367
L58690 40337
L58707 40322
L58741 40307
L58842 40307
L58876 40322
L58893 40337
L58910 40367
L58910 40412
" />
<path d="M58539 40352
L58589 40397
" />
<path d="M58910 40037
L58555 40037
" />
<path d="M58893 40037
L58910 40067
L58910 40127
L58893 40157
L58876 40172
L58842 40187
L58741 40187
L58707 40172
L58690 40157
L58674 40127
L58674 40067
L58690 40037
" />
<path d="M58674 39752
L58910 39752
" />
<path d="M58674 39887
L58859 39887
L58893 39872
L58910 39842
L58910 39797
L58893 39767
L58876 39752
" />
<path d="M58910 39557
L58893 39587
L58859 39602
L58555 39602
" />
<path d="M58910 39392
L58893 39422
L58876 39437
L58842 39452
L58741 39452
L58707 39437
L58690 39422
L58674 39392
L58674 39347
L58690 39317
L58707 39302
L58741 39287
L58842 39287
L58876 39302
L58893 39317
L58910 39347
L58910 39392
" />
<path d="M58555 38927
L58623 38927
" />
<path d="M58555 38807
L58623 38807
" />
<path d="M58809 38687
L58809 38537
" />
<path d="M58910 38717
L58555 38612
L58910 38507
" />
<path d="M58674 38447
L58674 38327
" />
<path d="M58555 38402
L58859 38402
L58893 38387
L58910 38357
L58910 38327
" />
<path d="M58674 38087
L58910 38087
" />
<path d="M58674 38222
L58859 38222
L58893 38207
L58910 38177
L58910 38132
L58893 38102
L58876 38087
" />
<path d="M58910 37802
L58724 37802
L58690 37817
L58674 37847
L58674 37907
L58690 37937
" />
<path d="M58893 37802
L58910 37832
L58910 37907
L58893 37937
L58859 37952
L58825 37952
L58792 37937
L58775 37907
L58775 37832
L58758 37802
" />
<path d="M58910 37517
L58555 37517
" />
<path d="M58893 37517
L58910 37547
L58910 37607
L58893 37637
L58876 37652
L58842 37667
L58741 37667
L58707 37652
L58690 37637
L58674 37607
L58674 37547
L58690 37517
" />
<path d="M58910 37322
L58893 37352
L58876 37367
L58842 37382
L58741 37382
L58707 37367
L58690 37352
L58674 37322
L58674 37277
L58690 37247
L58707 37232
L58741 37217
L58842 37217
L58876 37232
L58893 37247
L58910 37277
L58910 37322
" />
<path d="M58910 37082
L58674 37082
" />
<path d="M58741 37082
L58707 37067
L58690 37052
L58674 37022
L58674 36992
" />
<path d="M58893 36527
L58910 36557
L58910 36617
L58893 36647
L58859 36662
L58724 36662
L58690 36647
L58674 36617
L58674 36557
L58690 36527
L58724 36512
L58758 36512
L58792 36662
" />
<path d="M58876 35957
L58893 35972
L58910 36017
L58910 36047
L58893 36092
L58859 36122
L58825 36137
L58758 36152
L58707 36152
L58640 36137
L58606 36122
L58572 36092
L58555 36047
L58555 36017
L58572 35972
L58589 35957
" />
<path d="M58910 35687
L58724 35687
L58690 35702
L58674 35732
L58674 35792
L58690 35822
" />
<path d="M58893 35687
L58910 35717
L58910 35792
L58893 35822
L58859 35837
L58825 35837
L58792 35822
L58775 35792
L58775 35717
L58758 35687
" />
<path d="M58910 35537
L58674 35537
" />
<path d="M58741 35537
L58707 35522
L58690 35507
L58674 35477
L58674 35447
" />
<path d="M58674 35207
L58960 35207
L58994 35222
L59011 35237
L59028 35267
L59028 35312
L59011 35342
" />
<path d="M58893 35207
L58910 35237
L58910 35297
L58893 35327
L58876 35342
L58842 35357
L58741 35357
L58707 35342
L58690 35327
L58674 35297
L58674 35237
L58690 35207
" />
<path d="M58910 34922
L58724 34922
L58690 34937
L58674 34967
L58674 35027
L58690 35057
" />
<path d="M58893 34922
L58910 34952
L58910 35027
L58893 35057
L58859 35072
L58825 35072
L58792 35057
L58775 35027
L58775 34952
L58758 34922
" />
<path d="M58555 34787
L58623 34787
" />
<path d="M58555 34667
L58623 34667
" />
<g transform="rotate(-90 58000 37750)">
<text x="58000" y="37927.2"
textLength="5435.51" font-size="419.947" lengthAdjust="spacingAndGlyphs"
text-anchor="middle" opacity="0">Dado Digital Completo</text>
</g>
<path d="M58160 40367
L57805 40367
L57805 40292
L57822 40247
L57856 40217
L57890 40202
L57957 40187
L58008 40187
L58075 40202
L58109 40217
L58143 40247
L58160 40292
L58160 40367
" />
<path d="M58160 39917
L57974 39917
L57940 39932
L57924 39962
L57924 40022
L57940 40052
" />
<path d="M58143 39917
L58160 39947
L58160 40022
L58143 40052
L58109 40067
L58075 40067
L58042 40052
L58025 40022
L58025 39947
L58008 39917
" />
<path d="M58160 39632
L57805 39632
" />
<path d="M58143 39632
L58160 39662
L58160 39722
L58143 39752
L58126 39767
L58092 39782
L57991 39782
L57957 39767
L57940 39752
L57924 39722
L57924 39662
L57940 39632
" />
<path d="M58160 39437
L58143 39467
L58126 39482
L58092 39497
L57991 39497
L57957 39482
L57940 39467
L57924 39437
L57924 39392
L57940 39362
L57957 39347
L57991 39332
L58092 39332
L58126 39347
L58143 39362
L58160 39392
L58160 39437
" />
<path d="M58160 38957
L57805 38957
L57805 38882
L57822 38837
L57856 38807
L57890 38792
L57957 38777
L58008 38777
L58075 38792
L58109 38807
L58143 38837
L58160 38882
L58160 38957
" />
<path d="M58160 38642
L57924 38642
" />
<path d="M57805 38642
L57822 38657
L57839 38642
L57822 38627
L57805 38642
L57839 38642
" />
<path d="M57924 38357
L58210 38357
L58244 38372
L58261 38387
L58278 38417
L58278 38462
L58261 38492
" />
<path d="M58143 38357
L58160 38387
L58160 38447
L58143 38477
L58126 38492
L58092 38507
L57991 38507
L57957 38492
L57940 38477
L57924 38447
L57924 38387
L57940 38357
" />
<path d="M58160 38207
L57924 38207
" />
<path d="M57805 38207
L57822 38222
L57839 38207
L57822 38192
L57805 38207
L57839 38207
" />
<path d="M57924 38102
L57924 37982
" />
<path d="M57805 38057
L58109 38057
L58143 38042
L58160 38012
L58160 37982
" />
<path d="M58160 37742
L57974 37742
L57940 37757
L57924 37787
L57924 37847
L57940 37877
" />
<path d="M58143 37742
L58160 37772
L58160 37847
L58143 37877
L58109 37892
L58075 37892
L58042 37877
L58025 37847
L58025 37772
L58008 37742
" />
<path d="M58160 37547
L58143 37577
L58109 37592
L57805 37592
" />
<path d="M58126 37007
L58143 37022
L58160 37067
L58160 37097
L58143 37142
L58109 37172
L58075 37187
L58008 37202
L57957 37202
L57890 37187
L57856 37172
L57822 37142
L57805 37097
L57805 37067
L57822 37022
L57839 37007
" />
<path d="M58160 36827
L58143 36857
L58126 36872
L58092 36887
L57991 36887
L57957 36872
L57940 36857
L57924 36827
L57924 36782
L57940 36752
L57957 36737
L57991 36722
L58092 36722
L58126 36737
L58143 36752
L58160 36782
L58160 36827
" />
<path d="M58160 36587
L57924 36587
" />
<path d="M57957 36587
L57940 36572
L57924 36542
L57924 36497
L57940 36467
L57974 36452
L58160 36452
" />
<path d="M57974 36452
L57940 36437
L57924 36407
L57924 36362
L57940 36332
L57974 36317
L58160 36317
" />
<path d="M57924 36167
L58278 36167
" />
<path d="M57940 36167
L57924 36137
L57924 36077
L57940 36047
L57957 36032
L57991 36017
L58092 36017
L58126 36032
L58143 36047
L58160 36077
L58160 36137
L58143 36167
" />
<path d="M58160 35837
L58143 35867
L58109 35882
L57805 35882
" />
<path d="M58143 35597
L58160 35627
L58160 35687
L58143 35717
L58109 35732
L57974 35732
L57940 35717
L57924 35687
L57924 35627
L57940 35597
L57974 35582
L58008 35582
L58042 35732
" />
<path d="M57924 35492
L57924 35372
" />
<path d="M57805 35447
L58109 35447
L58143 35432
L58160 35402
L58160 35372
" />
<path d="M58160 35222
L58143 35252
L58126 35267
L58092 35282
L57991 35282
L57957 35267
L57940 35252
L57924 35222
L57924 35177
L57940 35147
L57957 35132
L57991 35117
L58092 35117
L58126 35132
L58143 35147
L58160 35177
L58160 35222
" />
</g>
<g style="fill:#000000; fill-opacity:0.0; 
stroke:#000000; stroke-width:59.0551; stroke-opacity:1; 
stroke-linecap:round; stroke-linejoin:round;">
<g transform="rotate(-90 59500 46750)">
<text x="59500" y="46946.9"
textLength="2394.64" font-size="524.934" lengthAdjust="spacingAndGlyphs"
text-anchor="middle" opacity="0">V_Carga</text>
</g>
<path d="M59284 47884
L59678 47752
L59284 47621
" />
<path d="M59715 47584
L59715 47284
" />
<path d="M59640 46965
L59659 46984
L59678 47040
L59678 47078
L59659 47134
L59621 47171
L59584 47190
L59509 47209
L59453 47209
L59378 47190
L59340 47171
L59303 47134
L59284 47078
L59284 47040
L59303 46984
L59321 46965
" />
<path d="M59678 46628
L59471 46628
L59434 46646
L59415 46684
L59415 46759
L59434 46796
" />
<path d="M59659 46628
L59678 46665
L59678 46759
L59659 46796
L59621 46815
L59584 46815
L59546 46796
L59528 46759
L59528 46665
L59509 46628
" />
<path d="M59678 46440
L59415 46440
" />
<path d="M59490 46440
L59453 46421
L59434 46403
L59415 46365
L59415 46328
" />
<path d="M59415 46028
L59734 46028
L59771 46046
L59790 46065
L59809 46103
L59809 46159
L59790 46196
" />
<path d="M59659 46028
L59678 46065
L59678 46140
L59659 46178
L59640 46196
L59603 46215
L59490 46215
L59453 46196
L59434 46178
L59415 46140
L59415 46065
L59434 46028
" />
<path d="M59678 45672
L59471 45672
L59434 45690
L59415 45728
L59415 45803
L59434 45840
" />
<path d="M59659 45672
L59678 45709
L59678 45803
L59659 45840
L59621 45859
L59584 45859
L59546 45840
L59528 45803
L59528 45709
L59509 45672
" />
<g transform="rotate(-90 59500 44500)">
<text x="59500" y="44696.9"
textLength="1614.08" font-size="524.934" lengthAdjust="spacingAndGlyphs"
text-anchor="middle" opacity="0">GNDA</text>
</g>
<path d="M59303 44968
L59284 45006
L59284 45062
L59303 45118
L59340 45156
L59378 45174
L59453 45193
L59509 45193
L59584 45174
L59621 45156
L59659 45118
L59678 45062
L59678 45024
L59659 44968
L59640 44949
L59509 44949
L59509 45024
" />
<path d="M59678 44781
L59284 44781
L59678 44556
L59284 44556
" />
<path d="M59678 44368
L59284 44368
L59284 44275
L59303 44218
L59340 44181
L59378 44162
L59453 44143
L59509 44143
L59584 44162
L59621 44181
L59659 44218
L59678 44275
L59678 44368
" />
<path d="M59565 43993
L59565 43806
" />
<path d="M59678 44031
L59284 43900
L59678 43768
" />
<g transform="rotate(-270 40500 46500)">
<text x="40500" y="46696.9"
textLength="1614.08" font-size="524.934" lengthAdjust="spacingAndGlyphs"
text-anchor="middle" opacity="0">GNDA</text>
</g>
<path d="M40696 46031
L40715 45993
L40715 45937
L40696 45881
L40659 45843
L40621 45825
L40546 45806
L40490 45806
L40415 45825
L40378 45843
L40340 45881
L40321 45937
L40321 45975
L40340 46031
L40359 46050
L40490 46050
L40490 45975
" />
<path d="M40321 46218
L40715 46218
L40321 46443
L40715 46443
" />
<path d="M40321 46631
L40715 46631
L40715 46724
L40696 46781
L40659 46818
L40621 46837
L40546 46856
L40490 46856
L40415 46837
L40378 46818
L40340 46781
L40321 46724
L40321 46631
" />
<path d="M40434 47006
L40434 47193
" />
<path d="M40321 46968
L40715 47099
L40321 47231
" />
<g transform="rotate(-270 40500 44500)">
<text x="40500" y="44696.9"
textLength="1651.57" font-size="524.934" lengthAdjust="spacingAndGlyphs"
text-anchor="middle" opacity="0">+12V</text>
</g>
<path d="M40471 43806
L40471 44106
" />
<path d="M40321 43956
L40621 43956
" />
<path d="M40321 44500
L40321 44275
" />
<path d="M40321 44387
L40715 44387
L40659 44350
L40621 44312
L40603 44275
" />
<path d="M40678 44649
L40696 44668
L40715 44706
L40715 44799
L40696 44837
L40678 44856
L40640 44874
L40603 44874
L40546 44856
L40321 44631
L40321 44874
" />
<path d="M40715 44987
L40321 45118
L40715 45249
" />
<g transform="rotate(-270 40500 40500)">
<text x="40500" y="40696.9"
textLength="1276.62" font-size="524.934" lengthAdjust="spacingAndGlyphs"
text-anchor="middle" opacity="0">GND</text>
</g>
<path d="M40696 40200
L40715 40162
L40715 40106
L40696 40050
L40659 40012
L40621 39993
L40546 39975
L40490 39975
L40415 39993
L40378 40012
L40340 40050
L40321 40106
L40321 40143
L40340 40200
L40359 40218
L40490 40218
L40490 40143
" />
<path d="M40321 40387
L40715 40387
L40321 40612
L40715 40612
" />
<path d="M40321 40799
L40715 40799
L40715 40893
L40696 40949
L40659 40987
L40621 41006
L40546 41024
L40490 41024
L40415 41006
L40378 40987
L40340 40949
L40321 40893
L40321 40799
" />
<g transform="rotate(-270 40500 38500)">
<text x="40500" y="38696.9"
textLength="1276.62" font-size="524.934" lengthAdjust="spacingAndGlyphs"
text-anchor="middle" opacity="0">+5V</text>
</g>
<path d="M40471 37993
L40471 38293
" />
<path d="M40321 38143
L40621 38143
" />
<path d="M40715 38668
L40715 38481
L40528 38462
L40546 38481
L40565 38518
L40565 38612
L40546 38649
L40528 38668
L40490 38687
L40396 38687
L40359 38668
L40340 38649
L40321 38612
L40321 38518
L40340 38481
L40359 38462
" />
<path d="M40715 38799
L40321 38931
L40715 39062
" />
</g>
<g style="fill:#000000; fill-opacity:0.0; 
stroke:#000000; stroke-width:39.3701; stroke-opacity:1; 
stroke-linecap:round; stroke-linejoin:round;">
<path d="M59250 34000
L40750 34000
" />
<path d="M60000 48250
L60000 34750
" />
<path d="M40750 49000
L59250 49000
" />
<path d="M40000 34750
L40000 48250
" />
</g>
<g style="fill:#000000; fill-opacity:0.0; 
stroke:#000000; stroke-width:47.2441; stroke-opacity:1; 
stroke-linecap:round; stroke-linejoin:round;">
<path d="M49291 36728
L50708 36728
" />
<path d="M50712 36719.6 A1012.27 1012.27 0.0 0 0 50307.1 35035.4" />
<path d="M49677.2 35035.4 A1017.16 1017.16 0.0 0 0 49286.7 36725.1" />
<path d="M56287 36039
L56287 34960
" />
<path d="M56287 34960
L53712 34960
" />
<path d="M53712 34960
L53712 36039
" />
<path d="M53712 36039
L56287 36039
" />
<path d="M56590 35500
L56287 35500
" />
<path d="M53409 35500
L53712 35500
" />
<path d="M41226 35769
L41773 35769
" />
<path d="M41226 35769
L41226 35720
" />
<path d="M41773 35769
L41773 35720
" />
<path d="M41226 35769
L41260 35769
" />
<path d="M41739 35769
L41773 35769
" />
<path d="M41226 35500
L41226 35230
" />
<path d="M41226 35230
L41500 35230
" />
<path d="M49527 39948
L46929 39948
" />
<path d="M53070 39948
L50472 39948
" />
<path d="M53070 39948
L53070 47744
" />
<path d="M53070 47744
L46929 47744
" />
<path d="M46929 47744
L46929 39948
" />
<path d="M48346 46070
L49311 46070
" />
<path d="M51653 46070
L50669 46070
" />
<path d="M47618 41897
L47618 42881
" />
<path d="M49980 41543
L49980 41228
" />
<path d="M52342 42881
L52342 41897
" />
<path d="M49980 44220
L49980 44811
" />
<path d="M49980 44811
L50964 46622
" />
<path d="M48562 44220
L48562 41543
" />
<path d="M49980 44220
L48562 44220
" />
<path d="M49980 41543
L48562 41543
" />
<path d="M52342 42881
L50688 42881
" />
<path d="M49271 42881
L47618 42881
" />
<path d="M49271 43669
L50688 42094
" />
<path d="M49271 42094
L50688 42094
" />
<path d="M50688 42094
L50688 43669
" />
<path d="M50688 43669
L49271 43669
" />
<path d="M49271 43669
L49271 42094
" />
<path d="M56590 38500
L56287 38500
" />
<path d="M53409 38500
L53712 38500
" />
<path d="M56287 37960
L53712 37960
" />
<path d="M56287 39039
L56287 37960
" />
<path d="M53712 39039
L56287 39039
" />
<path d="M53712 37960
L53712 39039
" />
<path d="M47090 35500
L46787 35500
" />
<path d="M43909 35500
L44212 35500
" />
<path d="M46787 34960
L44212 34960
" />
<path d="M46787 36039
L46787 34960
" />
<path d="M44212 36039
L46787 36039
" />
<path d="M44212 34960
L44212 36039
" />
<circle cx="57000" cy="44531.5" r="661.417" /> 
<path d="M58614 47507
L58614 43523
" />
<path d="M58023 47507
L58023 43523
" />
<path d="M56094 47507
L56094 43523
" />
<path d="M54928 47507
L54928 43523
" />
<path d="M58834 47507
L58834 43523
" />
<path d="M54928 47507
L58834 47507
" />
<path d="M54928 43523
L58834 43523
" />
<path d="M56579 44029
L56597 44048
" />
<path d="M57487 44938
L57501 44952
" />
<path d="M56498 44110
L56512 44124
" />
<path d="M57402 45014
L57420 45033
" />
<path d="M58637 47602
L58929 47602
" />
<path d="M58929 47602
L58929 47405
" />
<path d="M57661.4 46500 A661.417 661.417 0.0 0 0 57604.2 46231" />
<path d="M57269.3 45895.7 A661.614 661.614 0.0 0 0 56731.1 45895.5" />
<path d="M56395.7 46230.7 A661.614 661.614 0.0 0 0 56395.5 46768.9" />
<path d="M56730.7 47104.3 A661.614 661.614 0.0 0 0 57268.9 47104.5" />
<path d="M57604.3 46769.3 A661.614 661.614 0.0 0 0 57661.5 46488.7" />
<path d="M41070 43397
L41070 43594
" />
<path d="M41362 43397
L41070 43397
" />
<path d="M42597 45985
L42579 45966
" />
<path d="M43501 46889
L43487 46875
" />
<path d="M42512 46061
L42498 46047
" />
<path d="M43420 46970
L43402 46951
" />
<path d="M45071 47476
L41165 47476
" />
<path d="M45071 43492
L41165 43492
" />
<path d="M41165 43492
L41165 47476
" />
<path d="M45071 43492
L45071 47476
" />
<path d="M43905 43492
L43905 47476
" />
<path d="M41976 43492
L41976 47476
" />
<path d="M41385 43492
L41385 47476
" />
<circle cx="43000" cy="46468.5" r="661.417" /> 
<path d="M42395.7 44230.7 A661.614 661.614 0.0 0 0 42338.5 44511.3" />
<path d="M43269.3 43895.7 A661.614 661.614 0.0 0 0 42731.1 43895.5" />
<path d="M43604.3 44769.3 A661.614 661.614 0.0 0 0 43604.5 44231.1" />
<path d="M42730.7 45104.3 A661.614 661.614 0.0 0 0 43268.9 45104.5" />
<path d="M42338.6 44500 A661.417 661.417 0.0 0 0 42395.8 44769" />
<path d="M41070 37397
L41070 37594
" />
<path d="M41362 37397
L41070 37397
" />
<path d="M42597 39985
L42579 39966
" />
<path d="M43501 40889
L43487 40875
" />
<path d="M42512 40061
L42498 40047
" />
<path d="M43420 40970
L43402 40951
" />
<path d="M45071 41476
L41165 41476
" />
<path d="M45071 37492
L41165 37492
" />
<path d="M41165 37492
L41165 41476
" />
<path d="M45071 37492
L45071 41476
" />
<path d="M43905 37492
L43905 41476
" />
<path d="M41976 37492
L41976 41476
" />
<path d="M41385 37492
L41385 41476
" />
<circle cx="43000" cy="40468.5" r="661.417" /> 
<path d="M42395.7 38230.7 A661.614 661.614 0.0 0 0 42338.5 38511.3" />
<path d="M43269.3 37895.7 A661.614 661.614 0.0 0 0 42731.1 37895.5" />
<path d="M43604.3 38769.3 A661.614 661.614 0.0 0 0 43604.5 38231.1" />
<path d="M42730.7 39104.3 A661.614 661.614 0.0 0 0 43268.9 39104.5" />
<path d="M42338.6 38500 A661.417 661.417 0.0 0 0 42395.8 38769" />
<path d="M57425 41614
L57486 41614
" />
<path d="M56513 41614
L56574 41614
" />
<path d="M57425.2 41409.8 A590.551 590.551 0.0 0 0 57425.1 40590.1" />
<path d="M56574.9 40590.1 A590.551 590.551 0.0 0 0 56574.8 41409.8" />
<path d="M57486.4 41614.2 A783.465 783.465 0.0 0 0 57424.6 40341.6" />
<path d="M56575.4 40341.6 A783.465 783.465 0.0 0 0 56513.6 41614.2" />
<path d="M50466 38862
L50466 38137
" />
<path d="M50371 38862
L50371 38137
" />
<path d="M50418 38862
L50418 38137
" />
<path d="M48889 38500
L49354 38500
" />
<path d="M51110 38500
L50645 38500
" />
<path d="M49354 38862
L50645 38862
" />
<path d="M49354 38137
L49354 38862
" />
<path d="M50645 38137
L49354 38137
" />
<path d="M50645 38862
L50645 38137
" />
<g >
</g>
<g >
</g>
<g >
</g>
<g >
</g>
<g >
</g>
<g >
</g>
<g >
</g>
<g >
</g>
<g >
</g>
<g >
</g>
<g >
</g>
</g>
<g style="fill:#000000; fill-opacity:0.0; 
stroke:#000000; stroke-width:47.2441; stroke-opacity:1; 
stroke-linecap:round; stroke-linejoin:round;">
</g>
<g style="fill:#000000; fill-opacity:0.0; 
stroke:#000000; stroke-width:59.0551; stroke-opacity:1; 
stroke-linecap:round; stroke-linejoin:round;">
<text x="50000" y="37446.9"
textLength="864.173" font-size="524.934" lengthAdjust="spacingAndGlyphs"
text-anchor="middle" opacity="0">Q1</text>
<path d="M49962 37465
L49925 37446
L49887 37409
L49831 37353
L49793 37334
L49756 37334
" />
<path d="M49775 37428
L49737 37409
L49700 37371
L49681 37296
L49681 37165
L49700 37090
L49737 37053
L49775 37034
L49850 37034
L49887 37053
L49925 37090
L49943 37165
L49943 37296
L49925 37371
L49887 37409
L49850 37428
L49775 37428
" />
<path d="M50318 37428
L50093 37428
" />
<path d="M50206 37428
L50206 37034
L50168 37090
L50131 37128
L50093 37146
" />
<text x="55000" y="36629.9"
textLength="1220.38" font-size="524.934" lengthAdjust="spacingAndGlyphs"
text-anchor="middle" opacity="0">R21</text>
<path d="M54746 36611
L54615 36423
" />
<path d="M54521 36611
L54521 36217
L54671 36217
L54709 36236
L54728 36254
L54746 36292
L54746 36348
L54728 36386
L54709 36404
L54671 36423
L54521 36423
" />
<path d="M54896 36254
L54915 36236
L54953 36217
L55046 36217
L55084 36236
L55103 36254
L55121 36292
L55121 36329
L55103 36386
L54878 36611
L55121 36611
" />
<path d="M55496 36611
L55271 36611
" />
<path d="M55384 36611
L55384 36217
L55346 36273
L55309 36311
L55271 36329
" />
<text x="55000" y="35696.9"
textLength="1220.38" font-size="524.934" lengthAdjust="spacingAndGlyphs"
text-anchor="middle" opacity="0">47R</text>
<path d="M54690 35415
L54690 35678
" />
<path d="M54596 35265
L54503 35546
L54746 35546
" />
<path d="M54859 35284
L55121 35284
L54953 35678
" />
<path d="M55496 35678
L55365 35490
" />
<path d="M55271 35678
L55271 35284
L55421 35284
L55459 35303
L55478 35321
L55496 35359
L55496 35415
L55478 35453
L55459 35471
L55421 35490
L55271 35490
" />
<g transform="rotate(-90 42500 35500)">
<text x="42500" y="35696.9"
textLength="751.687" font-size="524.934" lengthAdjust="spacingAndGlyphs"
text-anchor="middle" opacity="0">J4</text>
</g>
<path d="M42284 35631
L42565 35631
L42621 35649
L42659 35687
L42678 35743
L42678 35781
" />
<path d="M42415 35275
L42678 35275
" />
<path d="M42265 35368
L42546 35462
L42546 35218
" />
<g transform="rotate(-90 46378 43689)">
<text x="46378" y="43885.8"
textLength="1164.14" font-size="524.934" lengthAdjust="spacingAndGlyphs"
text-anchor="middle" opacity="0">RL1</text>
</g>
<path d="M46556 43913
L46368 44045
" />
<path d="M46556 44138
L46162 44138
L46162 43988
L46181 43951
L46199 43932
L46237 43913
L46293 43913
L46331 43932
L46349 43951
L46368 43988
L46368 44138
" />
<path d="M46556 43557
L46556 43745
L46162 43745
" />
<path d="M46556 43220
L46556 43445
" />
<path d="M46556 43332
L46162 43332
L46218 43370
L46256 43407
L46274 43445
" />
<text x="55000" y="39696.9"
textLength="1220.38" font-size="524.934" lengthAdjust="spacingAndGlyphs"
text-anchor="middle" opacity="0">R20</text>
<path d="M54746 39678
L54615 39490
" />
<path d="M54521 39678
L54521 39284
L54671 39284
L54709 39303
L54728 39321
L54746 39359
L54746 39415
L54728 39453
L54709 39471
L54671 39490
L54521 39490
" />
<path d="M54896 39321
L54915 39303
L54953 39284
L55046 39284
L55084 39303
L55103 39321
L55121 39359
L55121 39396
L55103 39453
L54878 39678
L55121 39678
" />
<path d="M55365 39284
L55403 39284
L55440 39303
L55459 39321
L55478 39359
L55496 39434
L55496 39528
L55478 39603
L55459 39640
L55440 39659
L55403 39678
L55365 39678
L55328 39659
L55309 39640
L55290 39603
L55271 39528
L55271 39434
L55290 39359
L55309 39321
L55328 39303
L55365 39284
" />
<text x="55000" y="38696.9"
textLength="770.435" font-size="524.934" lengthAdjust="spacingAndGlyphs"
text-anchor="middle" opacity="0">1k</text>
<path d="M54953 38678
L54728 38678
" />
<path d="M54840 38678
L54840 38284
L54803 38340
L54765 38378
L54728 38396
" />
<path d="M55121 38678
L55121 38284
" />
<path d="M55159 38528
L55271 38678
" />
<path d="M55271 38415
L55121 38565
" />
<text x="45500" y="36696.9"
textLength="845.426" font-size="524.934" lengthAdjust="spacingAndGlyphs"
text-anchor="middle" opacity="0">R5</text>
<path d="M45434 36678
L45303 36490
" />
<path d="M45209 36678
L45209 36284
L45359 36284
L45396 36303
L45415 36321
L45434 36359
L45434 36415
L45415 36453
L45396 36471
L45359 36490
L45209 36490
" />
<path d="M45790 36284
L45603 36284
L45584 36471
L45603 36453
L45640 36434
L45734 36434
L45771 36453
L45790 36471
L45809 36509
L45809 36603
L45790 36640
L45771 36659
L45734 36678
L45640 36678
L45603 36659
L45584 36640
" />
<text x="45500" y="35696.9"
textLength="770.435" font-size="524.934" lengthAdjust="spacingAndGlyphs"
text-anchor="middle" opacity="0">1k</text>
<path d="M45453 35678
L45228 35678
" />
<path d="M45340 35678
L45340 35284
L45303 35340
L45265 35378
L45228 35396
" />
<path d="M45621 35678
L45621 35284
" />
<path d="M45659 35528
L45771 35678
" />
<path d="M45771 35415
L45621 35565
" />
<g transform="rotate(-90 54535.4 45515.7)">
<text x="54535.4" y="45712.6"
textLength="751.687" font-size="524.934" lengthAdjust="spacingAndGlyphs"
text-anchor="middle" opacity="0">J5</text>
</g>
<path d="M54319 45646
L54601 45646
L54657 45665
L54694 45703
L54713 45759
L54713 45796
" />
<path d="M54319 45272
L54319 45459
L54507 45478
L54488 45459
L54469 45422
L54469 45328
L54488 45290
L54507 45272
L54544 45253
L54638 45253
L54676 45272
L54694 45290
L54713 45328
L54713 45422
L54694 45459
L54676 45478
" />
<g transform="rotate(-90 45464.6 45484.3)">
<text x="45464.6" y="45681.1"
textLength="751.687" font-size="524.934" lengthAdjust="spacingAndGlyphs"
text-anchor="middle" opacity="0">J2</text>
</g>
<path d="M45248 45615
L45530 45615
L45586 45634
L45623 45671
L45642 45727
L45642 45765
" />
<path d="M45286 45446
L45267 45428
L45248 45390
L45248 45296
L45267 45259
L45286 45240
L45323 45221
L45361 45221
L45417 45240
L45642 45465
L45642 45221
" />
<g transform="rotate(-90 45464.6 39484.3)">
<text x="45464.6" y="39681.1"
textLength="751.687" font-size="524.934" lengthAdjust="spacingAndGlyphs"
text-anchor="middle" opacity="0">J1</text>
</g>
<path d="M45248 39615
L45530 39615
L45586 39634
L45623 39671
L45642 39727
L45642 39765
" />
<path d="M45642 39221
L45642 39446
" />
<path d="M45642 39334
L45248 39334
L45305 39371
L45342 39409
L45361 39446
" />
<g transform="rotate(-90 55834.6 41000)">
<text x="55834.6" y="41196.9"
textLength="845.426" font-size="524.934" lengthAdjust="spacingAndGlyphs"
text-anchor="middle" opacity="0">D2</text>
</g>
<path d="M56012 41290
L55619 41290
L55619 41196
L55637 41140
L55675 41103
L55712 41084
L55787 41065
L55844 41065
L55919 41084
L55956 41103
L55994 41140
L56012 41196
L56012 41290
" />
<path d="M55656 40915
L55637 40896
L55619 40859
L55619 40765
L55637 40728
L55656 40709
L55694 40690
L55731 40690
L55787 40709
L56012 40934
L56012 40690
" />
<text x="50000" y="39452.8"
textLength="845.426" font-size="524.934" lengthAdjust="spacingAndGlyphs"
text-anchor="middle" opacity="0">D1</text>
<path d="M49709 39434
L49709 39040
L49803 39040
L49859 39059
L49896 39096
L49915 39134
L49934 39209
L49934 39265
L49915 39340
L49896 39377
L49859 39415
L49803 39434
L49709 39434
" />
<path d="M50309 39434
L50084 39434
" />
<path d="M50196 39434
L50196 39040
L50159 39096
L50121 39134
L50084 39152
" />
<text x="51500" y="39385.8"
textLength="470.472" font-size="524.934" lengthAdjust="spacingAndGlyphs"
text-anchor="middle" opacity="0">K</text>
<path d="M51396 39367
L51396 38973
" />
<path d="M51621 39367
L51453 39142
" />
<path d="M51621 38973
L51396 39198
" />
<g >
</g>
</g> 
</svg>
