<?xml version="1.0" standalone="no"?>
 <!DOCTYPE svg PUBLIC "-//W3C//DTD SVG 1.1//EN" 
 "http://www.w3.org/Graphics/SVG/1.1/DTD/svg11.dtd"> 
<svg
  xmlns:svg="http://www.w3.org/2000/svg"
  xmlns="http://www.w3.org/2000/svg"
  xmlns:xlink="http://www.w3.org/1999/xlink"
  version="1.1"
  width="29.700220cm" height="21.000720cm" viewBox="0 0 116930 82680">
<title>SVG Picture created as DD_CMOS-B_Cu.svg date 2022/02/13 19:42:25 </title>
  <desc>Picture generated by PCBNEW </desc>
<g style="fill:#000000; fill-opacity:1;stroke:#000000; stroke-opacity:1;
stroke-linecap:round; stroke-linejoin:round;"
 transform="translate(0 0) scale(1 1)">
</g>
<g style="fill:#000000; fill-opacity:0.0; 
stroke:#000000; stroke-width:-0.000393701; stroke-opacity:1; 
stroke-linecap:round; stroke-linejoin:round;">
</g>
<g style="fill:#000000; fill-opacity:0.0; 
stroke:#000000; stroke-width:39.3701; stroke-opacity:1; 
stroke-linecap:round; stroke-linejoin:round;">
<path d="M40000 48250 A750 750 0.0 0 0 40750 49000" />
<path d="M59250 49000 A750 750 0.0 0 0 60000 48250" />
<path d="M60000 34750 A750 750 0.0 0 0 59250 34000" />
<path d="M40750 34000 A750 750 0.0 0 0 40000 34750" />
<path d="M59250 34000
L40750 34000
" />
<path d="M60000 48250
L60000 34750
" />
<path d="M40750 49000
L59250 49000
" />
<path d="M40000 34750
L40000 48250
" />
<g >
</g>
<g style="fill:#000000; fill-opacity:0.0; 
stroke:#000000; stroke-width:0; stroke-opacity:1; 
stroke-linecap:round; stroke-linejoin:round;">
</g>
<g style="fill:#000000; fill-opacity:1.0; 
stroke:#000000; stroke-width:0; stroke-opacity:1; 
stroke-linecap:round; stroke-linejoin:round;">
<path style="fill:#000000; fill-opacity:1.0; 
stroke:#000000; stroke-width:0; stroke-opacity:1; 
stroke-linecap:round; stroke-linejoin:round;fill-rule:evenodd;"
d="M 49598.1,35725.4
49617.2,35728.2
49635.9,35732.9
49654.1,35739.4
49671.6,35747.6
49688.1,35757.6
49703.6,35769.1
49718,35782
49730.9,35796.4
49742.4,35811.9
49752.4,35828.4
49760.6,35845.9
49767.1,35864.1
49771.8,35882.8
49774.6,35901.9
49775.6,35921.2
49775.6,36315
49774.6,36334.3
49771.8,36353.4
49767.1,36372.2
49760.6,36390.3
49752.4,36407.8
49742.4,36424.4
49730.9,36439.9
49718,36454.2
49703.6,36467.1
49688.1,36478.6
49671.6,36488.6
49654.1,36496.8
49635.9,36503.3
49617.2,36508
49598.1,36510.9
49578.8,36511.8
49421.2,36511.8
49401.9,36510.9
49382.8,36508
49364.1,36503.3
49345.9,36496.8
49328.4,36488.6
49311.9,36478.6
49296.4,36467.1
49282,36454.2
49269.1,36439.9
49257.6,36424.4
49247.6,36407.8
49239.4,36390.3
49232.9,36372.2
49228.2,36353.4
49225.4,36334.3
49224.4,36315
49224.4,35921.2
49225.4,35901.9
49228.2,35882.8
49232.9,35864.1
49239.4,35845.9
49247.6,35828.4
49257.6,35811.9
49269.1,35796.4
49282,35782
49296.4,35769.1
49311.9,35757.6
49328.4,35747.6
49345.9,35739.4
49364.1,35732.9
49382.8,35728.2
49401.9,35725.4
49421.2,35724.4
49578.8,35724.4
Z" /> 
</g>
<g style="fill:#000000; fill-opacity:1.0; 
stroke:#000000; stroke-width:551.181; stroke-opacity:1; 
stroke-linecap:round; stroke-linejoin:round;">
</g>
<g style="fill:#000000; fill-opacity:0.0; 
stroke:#000000; stroke-width:551.181; stroke-opacity:1; 
stroke-linecap:round; stroke-linejoin:round;">
<path d="M50500 36000
L50500 36236
" />
<path d="M50000 35263
L50000 35500
" />
</g>
<g >
</g>
<g style="fill:#000000; fill-opacity:0.0; 
stroke:#000000; stroke-width:551.181; stroke-opacity:1; 
stroke-linecap:round; stroke-linejoin:round;">
</g>
<g style="fill:#000000; fill-opacity:0.0; 
stroke:#000000; stroke-width:629.921; stroke-opacity:1; 
stroke-linecap:round; stroke-linejoin:round;">
<path d="M53000 35618
L53000 35381
" />
<path d="M57000 35618
L57000 35381
" />
</g>
<g >
</g>
<g style="fill:#000000; fill-opacity:0.0; 
stroke:#000000; stroke-width:629.921; stroke-opacity:1; 
stroke-linecap:round; stroke-linejoin:round;">
</g>
<g style="fill:#000000; fill-opacity:0.0; 
stroke:#000000; stroke-width:0; stroke-opacity:1; 
stroke-linecap:round; stroke-linejoin:round;">
</g>
<g style="fill:#000000; fill-opacity:1.0; 
stroke:#000000; stroke-width:0; stroke-opacity:1; 
stroke-linecap:round; stroke-linejoin:round;">
<path style="fill:#000000; fill-opacity:1.0; 
stroke:#000000; stroke-width:0; stroke-opacity:1; 
stroke-linecap:round; stroke-linejoin:round;fill-rule:evenodd;"
d="M 40988.2,36011.8
40988.2,34988.2
42011.8,34988.2
42011.8,36011.8
Z" /> 
</g>
<g >
</g>
<g style="fill:#000000; fill-opacity:1.0; 
stroke:#000000; stroke-width:0; stroke-opacity:1; 
stroke-linecap:round; stroke-linejoin:round;">
<circle cx="47618.1" cy="41267.7" r="590.551" /> 
</g>
<g style="fill:#000000; fill-opacity:1.0; 
stroke:#000000; stroke-width:39.3701; stroke-opacity:1; 
stroke-linecap:round; stroke-linejoin:round;">
</g>
<g style="fill:#000000; fill-opacity:1.0; 
stroke:#000000; stroke-width:0; stroke-opacity:1; 
stroke-linecap:round; stroke-linejoin:round;">
<circle cx="47618.1" cy="46070.9" r="590.551" /> 
</g>
<g style="fill:#000000; fill-opacity:1.0; 
stroke:#000000; stroke-width:39.3701; stroke-opacity:1; 
stroke-linecap:round; stroke-linejoin:round;">
</g>
<g style="fill:#000000; fill-opacity:1.0; 
stroke:#000000; stroke-width:0; stroke-opacity:1; 
stroke-linecap:round; stroke-linejoin:round;">
<circle cx="52362.2" cy="46090.6" r="590.551" /> 
</g>
<g style="fill:#000000; fill-opacity:1.0; 
stroke:#000000; stroke-width:39.3701; stroke-opacity:1; 
stroke-linecap:round; stroke-linejoin:round;">
</g>
<g style="fill:#000000; fill-opacity:1.0; 
stroke:#000000; stroke-width:0; stroke-opacity:1; 
stroke-linecap:round; stroke-linejoin:round;">
<circle cx="52342.5" cy="41267.7" r="590.551" /> 
</g>
<g style="fill:#000000; fill-opacity:1.0; 
stroke:#000000; stroke-width:39.3701; stroke-opacity:1; 
stroke-linecap:round; stroke-linejoin:round;">
</g>
<g style="fill:#000000; fill-opacity:1.0; 
stroke:#000000; stroke-width:0; stroke-opacity:1; 
stroke-linecap:round; stroke-linejoin:round;">
<circle cx="50000" cy="40500" r="590.551" /> 
</g>
<g style="fill:#000000; fill-opacity:1.0; 
stroke:#000000; stroke-width:39.3701; stroke-opacity:1; 
stroke-linecap:round; stroke-linejoin:round;">
</g>
<g >
</g>
<g style="fill:#000000; fill-opacity:1.0; 
stroke:#000000; stroke-width:39.3701; stroke-opacity:1; 
stroke-linecap:round; stroke-linejoin:round;">
</g>
<g style="fill:#000000; fill-opacity:1.0; 
stroke:#000000; stroke-width:629.921; stroke-opacity:1; 
stroke-linecap:round; stroke-linejoin:round;">
</g>
<g style="fill:#000000; fill-opacity:0.0; 
stroke:#000000; stroke-width:629.921; stroke-opacity:1; 
stroke-linecap:round; stroke-linejoin:round;">
<path d="M57000 38381
L57000 38618
" />
<path d="M53000 38381
L53000 38618
" />
</g>
<g >
</g>
<g style="fill:#000000; fill-opacity:0.0; 
stroke:#000000; stroke-width:629.921; stroke-opacity:1; 
stroke-linecap:round; stroke-linejoin:round;">
<path d="M47500 35381
L47500 35618
" />
<path d="M43500 35381
L43500 35618
" />
</g>
<g >
</g>
<g style="fill:#000000; fill-opacity:0.0; 
stroke:#000000; stroke-width:629.921; stroke-opacity:1; 
stroke-linecap:round; stroke-linejoin:round;">
</g>
<g style="fill:#000000; fill-opacity:0.0; 
stroke:#000000; stroke-width:0; stroke-opacity:1; 
stroke-linecap:round; stroke-linejoin:round;">
</g>
<g style="fill:#000000; fill-opacity:1.0; 
stroke:#000000; stroke-width:0; stroke-opacity:1; 
stroke-linecap:round; stroke-linejoin:round;">
<path style="fill:#000000; fill-opacity:1.0; 
stroke:#000000; stroke-width:0; stroke-opacity:1; 
stroke-linecap:round; stroke-linejoin:round;fill-rule:evenodd;"
d="M 57511.8,47011.8
56488.2,47011.8
56488.2,45988.2
57511.8,45988.2
Z" /> 
<circle cx="57000" cy="44531.5" r="511.811" /> 
</g>
<g style="fill:#000000; fill-opacity:1.0; 
stroke:#000000; stroke-width:39.3701; stroke-opacity:1; 
stroke-linecap:round; stroke-linejoin:round;">
</g>
<g >
</g>
<g style="fill:#000000; fill-opacity:1.0; 
stroke:#000000; stroke-width:39.3701; stroke-opacity:1; 
stroke-linecap:round; stroke-linejoin:round;">
</g>
<g style="fill:#000000; fill-opacity:1.0; 
stroke:#000000; stroke-width:0; stroke-opacity:1; 
stroke-linecap:round; stroke-linejoin:round;">
<circle cx="43000" cy="46468.5" r="511.811" /> 
</g>
<g style="fill:#000000; fill-opacity:1.0; 
stroke:#000000; stroke-width:39.3701; stroke-opacity:1; 
stroke-linecap:round; stroke-linejoin:round;">
</g>
<g style="fill:#000000; fill-opacity:1.0; 
stroke:#000000; stroke-width:0; stroke-opacity:1; 
stroke-linecap:round; stroke-linejoin:round;">
<path style="fill:#000000; fill-opacity:1.0; 
stroke:#000000; stroke-width:0; stroke-opacity:1; 
stroke-linecap:round; stroke-linejoin:round;fill-rule:evenodd;"
d="M 42488.2,43988.2
43511.8,43988.2
43511.8,45011.8
42488.2,45011.8
Z" /> 
</g>
<g >
</g>
<g style="fill:#000000; fill-opacity:1.0; 
stroke:#000000; stroke-width:0; stroke-opacity:1; 
stroke-linecap:round; stroke-linejoin:round;">
<circle cx="43000" cy="40468.5" r="511.811" /> 
</g>
<g style="fill:#000000; fill-opacity:1.0; 
stroke:#000000; stroke-width:39.3701; stroke-opacity:1; 
stroke-linecap:round; stroke-linejoin:round;">
</g>
<g style="fill:#000000; fill-opacity:1.0; 
stroke:#000000; stroke-width:0; stroke-opacity:1; 
stroke-linecap:round; stroke-linejoin:round;">
<path style="fill:#000000; fill-opacity:1.0; 
stroke:#000000; stroke-width:0; stroke-opacity:1; 
stroke-linecap:round; stroke-linejoin:round;fill-rule:evenodd;"
d="M 42488.2,37988.2
43511.8,37988.2
43511.8,39011.8
42488.2,39011.8
Z" /> 
</g>
<g >
</g>
<g style="fill:#000000; fill-opacity:1.0; 
stroke:#000000; stroke-width:0; stroke-opacity:1; 
stroke-linecap:round; stroke-linejoin:round;">
</g>
<g style="fill:#000000; fill-opacity:1.0; 
stroke:#000000; stroke-width:629.921; stroke-opacity:1; 
stroke-linecap:round; stroke-linejoin:round;">
</g>
<g style="fill:#000000; fill-opacity:0.0; 
stroke:#000000; stroke-width:629.921; stroke-opacity:1; 
stroke-linecap:round; stroke-linejoin:round;">
<path d="M56881 40500
L57118 40500
" />
</g>
<g style="fill:#000000; fill-opacity:0.0; 
stroke:#000000; stroke-width:0; stroke-opacity:1; 
stroke-linecap:round; stroke-linejoin:round;">
</g>
<g style="fill:#000000; fill-opacity:1.0; 
stroke:#000000; stroke-width:0; stroke-opacity:1; 
stroke-linecap:round; stroke-linejoin:round;">
<path style="fill:#000000; fill-opacity:1.0; 
stroke:#000000; stroke-width:0; stroke-opacity:1; 
stroke-linecap:round; stroke-linejoin:round;fill-rule:evenodd;"
d="M 57433.1,41815
56566.9,41815
56566.9,41185
57433.1,41185
Z" /> 
</g>
<g >
</g>
<g style="fill:#000000; fill-opacity:1.0; 
stroke:#000000; stroke-width:0; stroke-opacity:1; 
stroke-linecap:round; stroke-linejoin:round;">
</g>
<g style="fill:#000000; fill-opacity:1.0; 
stroke:#000000; stroke-width:629.921; stroke-opacity:1; 
stroke-linecap:round; stroke-linejoin:round;">
</g>
<g style="fill:#000000; fill-opacity:0.0; 
stroke:#000000; stroke-width:629.921; stroke-opacity:1; 
stroke-linecap:round; stroke-linejoin:round;">
<path d="M48500 38618
L48500 38381
" />
</g>
<g style="fill:#000000; fill-opacity:0.0; 
stroke:#000000; stroke-width:0; stroke-opacity:1; 
stroke-linecap:round; stroke-linejoin:round;">
</g>
<g style="fill:#000000; fill-opacity:1.0; 
stroke:#000000; stroke-width:0; stroke-opacity:1; 
stroke-linecap:round; stroke-linejoin:round;">
<path style="fill:#000000; fill-opacity:1.0; 
stroke:#000000; stroke-width:0; stroke-opacity:1; 
stroke-linecap:round; stroke-linejoin:round;fill-rule:evenodd;"
d="M 51815,38066.9
51815,38933.1
51185,38933.1
51185,38066.9
Z" /> 
</g>
<g >
</g>
<g >
</g>
<g style="fill:#000000; fill-opacity:1.0; 
stroke:#000000; stroke-width:0; stroke-opacity:1; 
stroke-linecap:round; stroke-linejoin:round;">
</g>
<g style="fill:#000000; fill-opacity:1.0; 
stroke:#000000; stroke-width:196.85; stroke-opacity:1; 
stroke-linecap:round; stroke-linejoin:round;">
</g>
<g style="fill:#000000; fill-opacity:0.0; 
stroke:#000000; stroke-width:196.85; stroke-opacity:1; 
stroke-linecap:round; stroke-linejoin:round;">
<path d="M50500 36000
L50500 36250
" />
<path d="M48500 40805
L49612 39692
" />
<path d="M48005 42074
L48500 41580
" />
<path d="M48500 41580
L48500 40805
" />
<path d="M47074 42074
L48005 42074
" />
<path d="M49612 39692
L51192 39692
" />
<path d="M43500 38500
L47074 42074
" />
<path d="M43000 38500
L43500 38500
" />
<path d="M55130 35500
L52342 38287
" />
<path d="M57000 35500
L55130 35500
" />
<path d="M52342 38795
L52342 38287
" />
<path d="M51444 39692
L52342 38795
" />
<path d="M51192 39692
L51444 39692
" />
<path d="M52342 40590
L52342 41267
" />
<path d="M51444 39692
L52342 40590
" />
<path d="M49500 37500
L48500 38500
" />
<path d="M49500 36000
L49500 37500
" />
<path d="M48500 38500
L47618 39381
" />
<path d="M47618 39381
L47618 41267
" />
<path d="M57000 38500
L57000 40500
" />
</g>
<g style="fill:#000000; fill-opacity:0.0; 
stroke:#000000; stroke-width:1181.1; stroke-opacity:1; 
stroke-linecap:round; stroke-linejoin:round;">
<path d="M46047 44500
L47618 46070
" />
<path d="M43000 44500
L46047 44500
" />
<path d="M43000 46468
L44031 47500
" />
<path d="M56000 47500
L57000 46500
" />
<path d="M44031 47500
L56000 47500
" />
</g>
<g style="fill:#000000; fill-opacity:0.0; 
stroke:#000000; stroke-width:196.85; stroke-opacity:1; 
stroke-linecap:round; stroke-linejoin:round;">
<path d="M58000 42500
L57000 41500
" />
<path d="M58000 45500
L58000 42500
" />
<path d="M57000 46500
L58000 45500
" />
<path d="M47500 35500
L50000 35500
" />
<path d="M41500 35500
L43500 35500
" />
<path d="M51500 37000
L53000 35500
" />
<path d="M51500 38500
L51500 37000
" />
</g>
<g style="fill:#000000; fill-opacity:0.0; 
stroke:#000000; stroke-width:1181.1; stroke-opacity:1; 
stroke-linecap:round; stroke-linejoin:round;">
<path d="M53196 44531
L57000 44531
" />
<path d="M50000 40500
L50000 41335
" />
</g>
<g style="fill:#000000; fill-opacity:0.0; 
stroke:#000000; stroke-width:196.85; stroke-opacity:1; 
stroke-linecap:round; stroke-linejoin:round;">
<path d="M53000 38500
L53149 38649
" />
<path d="M51887 42917
L51582 42917
" />
<path d="M53149 41655
L51887 42917
" />
</g>
<g style="fill:#000000; fill-opacity:0.0; 
stroke:#000000; stroke-width:1181.1; stroke-opacity:1; 
stroke-linecap:round; stroke-linejoin:round;">
<path d="M51582 42917
L53196 44531
" />
</g>
<g style="fill:#000000; fill-opacity:0.0; 
stroke:#000000; stroke-width:196.85; stroke-opacity:1; 
stroke-linecap:round; stroke-linejoin:round;">
<path d="M53149 38649
L53149 41655
" />
</g>
<g style="fill:#000000; fill-opacity:0.0; 
stroke:#000000; stroke-width:1181.1; stroke-opacity:1; 
stroke-linecap:round; stroke-linejoin:round;">
<path d="M50000 41335
L51582 42917
" />
</g>
<g >
</g>
<g style="fill:#000000; fill-opacity:0.0; 
stroke:#000000; stroke-width:1181.1; stroke-opacity:1; 
stroke-linecap:round; stroke-linejoin:round;">
<g >
</g>
<g style="fill:#000000; fill-opacity:1.0; 
stroke:#000000; stroke-width:118.11; stroke-opacity:1; 
stroke-linecap:round; stroke-linejoin:round;">
<path style="fill:#000000; fill-opacity:1.0; 
stroke:#000000; stroke-width:118.11; stroke-opacity:1; 
stroke-linecap:round; stroke-linejoin:round;fill-rule:evenodd;"
d="M 59066.2,34316.6
59167.8,34338.7
59265.1,34375
59356.3,34424.8
59439.5,34487.1
59512.9,34560.5
59575.2,34643.7
59625,34734.9
59661.3,34832.2
59683.4,34933.8
59690.9,35039.5
59690.9,47960.5
59683.4,48066.2
59661.3,48167.8
59625,48265.1
59575.2,48356.3
59512.9,48439.5
59439.5,48512.9
59356.3,48575.2
59265.1,48625
59167.8,48661.3
59066.2,48683.4
58960.5,48690.9
41039.5,48690.9
40933.8,48683.4
40832.2,48661.3
40734.9,48625
40643.7,48575.2
40560.5,48512.9
40487.1,48439.5
40424.8,48356.3
40375,48265.1
40338.7,48167.8
40316.6,48066.2
40309.1,47960.5
40309.1,44500
42149.4,44500
42165.8,44665.9
42214.2,44825.5
42231,44857
42231,45011.8
42236,45062
42250.6,45110.2
42274.4,45154.7
42306.4,45193.6
42345.3,45225.6
42389.8,45249.4
42438,45264
42488.2,45269
42643,45269
42674.5,45285.8
42834.1,45334.2
42958.4,45346.5
45696.6,45346.5
46960.6,46610.5
47003.7,46653.5
44382.1,46653.5
43569.1,45840.6
43472.5,45761.3
43325.5,45682.7
43165.9,45634.3
43000,45618
42834.1,45634.3
42674.5,45682.7
42527.5,45761.3
42398.6,45867.1
42292.8,45996
42214.2,46143
42165.8,46302.6
42149.4,46468.5
42165.8,46634.4
42214.2,46794
42292.8,46941
42372.1,47037.6
43403.6,48069.1
43430.1,48101.4
43559,48207.2
43689.2,48276.8
43706,48285.8
43865.6,48334.2
44031.5,48350.6
44073.1,48346.5
55958.4,48346.5
56000,48350.6
56041.6,48346.5
56165.9,48334.2
56325.5,48285.8
56472.5,48207.2
56601.4,48101.4
56627.9,48069.1
57428.1,47269
57511.8,47269
57562,47264
57610.2,47249.4
57654.7,47225.6
57693.6,47193.6
57725.6,47154.7
57749.4,47110.2
57764,47062
57769,47011.8
57769,46857
57785.8,46825.5
57834.2,46665.9
57850.6,46500
57834.2,46334.1
57795.3,46205.8
58238.2,45762.9
58251.8,45751.8
58296,45697.8
58328.9,45636.3
58349.2,45569.5
58354.3,45517.4
58354.3,45517.4
58356,45500
58354.3,45482.6
58354.3,42517.4
58356,42500
58354.3,42482.6
58354.3,42482.6
58349.2,42430.5
58328.9,42363.7
58296,42302.2
58251.8,42248.2
58238.2,42237.1
57690.2,41689.1
57690.2,41185
57685.3,41134.9
57670.6,41086.6
57646.9,41042.2
57614.9,41003.2
57575.9,40971.2
57531.5,40947.5
57488.6,40934.5
57523.7,40905.6
57595.1,40818.7
57648.1,40719.5
57680.7,40611.9
57691.7,40500
57680.7,40388.1
57648.1,40280.5
57595.1,40181.3
57523.7,40094.4
57436.8,40023
57354.3,39979
57354.3,39065.8
57405.6,39023.7
57477,38936.8
57530,38837.6
57562.6,38730
57570.9,38646.2
57570.9,38353.8
57562.6,38270
57530,38162.4
57477,38063.2
57405.6,37976.3
57318.7,37904.9
57219.5,37851.9
57111.9,37819.3
57000,37808.3
56888.1,37819.3
56780.5,37851.9
56681.3,37904.9
56594.4,37976.3
56523,38063.2
56470,38162.4
56437.4,38270
56429.1,38353.8
56429.1,38646.2
56437.4,38730
56470,38837.6
56523,38936.8
56594.4,39023.7
56645.7,39065.8
56645.7,39979
56563.2,40023
56476.3,40094.4
56404.9,40181.3
56351.9,40280.5
56319.3,40388.1
56308.3,40500
56319.3,40611.9
56351.9,40719.5
56404.9,40818.7
56476.3,40905.6
56511.4,40934.5
56468.5,40947.5
56424.1,40971.2
56385.1,41003.2
56353.1,41042.2
56329.4,41086.6
56314.7,41134.9
56309.8,41185
56309.8,41815
56314.7,41865.1
56329.4,41913.4
56353.1,41957.8
56385.1,41996.8
56424.1,42028.8
56468.5,42052.5
56516.8,42067.2
56566.9,42072.1
57071,42072.1
57645.7,42646.8
57645.7,43984
57601.4,43930.1
57472.5,43824.3
57325.5,43745.7
57165.9,43697.3
57041.6,43685
53546.9,43685
52688.2,42826.3
52745.1,42560.7
53387.8,41918
53401.4,41906.9
53445.6,41852.9
53454.4,41836.6
53478.5,41791.4
53498.8,41724.6
53505.7,41655.1
53503.9,41637.7
53503.9,38886.3
53530,38837.6
53562.6,38730
53570.9,38646.2
53570.9,38353.8
53562.6,38270
53530,38162.4
53477,38063.2
53405.6,37976.3
53318.7,37904.9
53258.5,37872.8
55277,35854.3
56479,35854.3
56523,35936.8
56594.4,36023.7
56681.3,36095.1
56780.5,36148.1
56888.1,36180.7
57000,36191.7
57111.9,36180.7
57219.5,36148.1
57318.7,36095.1
57405.6,36023.7
57477,35936.8
57530,35837.6
57562.6,35730
57570.9,35646.2
57570.9,35353.8
57562.6,35270
57530,35162.4
57477,35063.2
57405.6,34976.3
57318.7,34904.9
57219.5,34851.9
57111.9,34819.3
57000,34808.3
56888.1,34819.3
56780.5,34851.9
56681.3,34904.9
56594.4,34976.3
56523,35063.2
56479,35145.7
55147.6,35145.7
55130.2,35144
55060.8,35150.8
54994,35171.1
54932.4,35204
54878.5,35248.2
54867.4,35261.8
52104.3,38024.9
52090.8,38036
52079.7,38049.5
52079.7,38049.5
52071.4,38059.6
52067.2,38016.8
52052.5,37968.5
52028.8,37924.1
51996.8,37885.1
51957.8,37853.1
51913.4,37829.4
51865.1,37814.7
51854.3,37813.7
51854.3,37146.8
52836.1,36165
52888.1,36180.7
53000,36191.7
53111.9,36180.7
53219.5,36148.1
53318.7,36095.1
53405.6,36023.7
53477,35936.8
53530,35837.6
53562.6,35730
53570.9,35646.2
53570.9,35353.8
53562.6,35270
53530,35162.4
53477,35063.2
53405.6,34976.3
53318.7,34904.9
53219.5,34851.9
53111.9,34819.3
53000,34808.3
52888.1,34819.3
52780.5,34851.9
52681.3,34904.9
52594.4,34976.3
52523,35063.2
52470,35162.4
52437.4,35270
52429.1,35353.8
52429.1,35569.8
51261.8,36737.1
51248.2,36748.2
51237.1,36761.8
51237.1,36761.8
51204,36802.2
51171.1,36863.7
51150.8,36930.5
51144,37000
51145.7,37017.4
51145.7,37813.7
51134.9,37814.7
51086.6,37829.4
51042.2,37853.1
51003.2,37885.1
50971.2,37924.1
50947.5,37968.5
50932.8,38016.8
50927.9,38066.9
50927.9,38933.1
50932.8,38983.2
50947.5,39031.5
50971.2,39075.9
51003.2,39114.9
51042.2,39146.9
51086.6,39170.6
51134.9,39185.3
51185,39190.2
51446.5,39190.2
51298.1,39338.6
49630,39338.6
49612.6,39336.9
49595.2,39338.6
49595.2,39338.6
49543.1,39343.7
49476.3,39364
49414.8,39396.9
49386.4,39420.2
49374.4,39430.1
49374.4,39430.1
49360.8,39441.2
49349.7,39454.7
48261.8,40542.7
48248.2,40553.7
48237.1,40567.3
48237.1,40567.3
48204,40607.7
48187,40639.5
48157.7,40610.2
48019.1,40517.6
47972.4,40498.3
47972.4,39528.7
48336.1,39165
48388.1,39180.7
48500,39191.7
48611.9,39180.7
48719.5,39148.1
48818.7,39095.1
48905.6,39023.7
48977,38936.8
49030,38837.6
49062.6,38730
49070.9,38646.2
49070.9,38430.2
49738.2,37762.9
49751.8,37751.8
49796,37697.8
49828.9,37636.3
49849.2,37569.5
49854.3,37517.4
49854.3,37517.4
49856,37500
49854.3,37482.6
49854.3,36673.3
49899.8,36636
49956.2,36567.2
49998.2,36488.7
50010.2,36449.1
50021.7,36478.6
50078.2,36567.3
50150.9,36643.2
50237,36703.5
50333.2,36745.8
50376.2,36756.3
50459.1,36704.3
50459.1,36159.1
50540.9,36159.1
50540.9,36704.3
50623.8,36756.3
50666.8,36745.8
50763,36703.5
50849.1,36643.2
50921.8,36567.3
50978.3,36478.6
51016.4,36380.7
51034.6,36277.2
51034.6,36159.1
50540.9,36159.1
50459.1,36159.1
50451.2,36159.1
50451.2,36077.2
50459.1,36077.2
50459.1,36069.3
50540.9,36069.3
50540.9,36077.2
51034.6,36077.2
51034.6,35959.1
51016.4,35855.5
50978.3,35757.6
50921.8,35668.9
50849.1,35593
50763,35532.7
50666.8,35490.4
50623.8,35479.9
50540.9,35531.9
50540.9,35465.4
50531.5,35465.4
50531.5,35237.7
50523.8,35159.6
50493.4,35059.4
50444.1,34967.1
50377.6,34886.1
50296.7,34819.7
50204.4,34770.4
50104.2,34740
50000,34729.7
49895.8,34740
49795.6,34770.4
49703.3,34819.7
49622.4,34886.1
49555.9,34967.1
49506.6,35059.4
49480.4,35145.7
48021,35145.7
47977,35063.2
47905.6,34976.3
47818.7,34904.9
47719.5,34851.9
47611.9,34819.3
47500,34808.3
47388.1,34819.3
47280.5,34851.9
47181.3,34904.9
47094.4,34976.3
47023,35063.2
46970,35162.4
46937.4,35270
46929.1,35353.8
46929.1,35646.2
46937.4,35730
46970,35837.6
47023,35936.8
47094.4,36023.7
47181.3,36095.1
47280.5,36148.1
47388.1,36180.7
47500,36191.7
47611.9,36180.7
47719.5,36148.1
47818.7,36095.1
47905.6,36023.7
47977,35936.8
48021,35854.3
48973.8,35854.3
48967.3,35921.2
48967.3,36315
48976,36403.6
49001.8,36488.7
49043.8,36567.2
49100.2,36636
49145.7,36673.3
49145.7,37353.2
48663.9,37835
48611.9,37819.3
48500,37808.3
48388.1,37819.3
48280.5,37851.9
48181.3,37904.9
48094.4,37976.3
48023,38063.2
47970,38162.4
47937.4,38270
47929.1,38353.8
47929.1,38569.8
47379.9,39119
47366.3,39130.1
47322.1,39184.1
47289.2,39245.6
47268.9,39312.4
47268.9,39312.4
47262.1,39381.9
47263.8,39399.3
47263.8,40498.3
47217.2,40517.6
47078.5,40610.2
46960.6,40728.1
46868,40866.8
46804.2,41020.8
46771.7,41184.3
46771.7,41270.6
43769,38267.9
43769,37988.2
43764,37938
43749.4,37889.8
43725.6,37845.3
43693.6,37806.4
43654.7,37774.4
43610.2,37750.6
43562,37736
43511.8,37731
42488.2,37731
42438,37736
42389.8,37750.6
42345.3,37774.4
42306.4,37806.4
42274.4,37845.3
42250.6,37889.8
42236,37938
42231,37988.2
42231,39011.8
42236,39062
42250.6,39110.2
42274.4,39154.7
42306.4,39193.6
42345.3,39225.6
42389.8,39249.4
42438,39264
42488.2,39269
43511.8,39269
43562,39264
43610.2,39249.4
43654.7,39225.6
43693,39194.1
46811.9,42313
46823,42326.6
46877,42370.8
46938.6,42403.7
47005.3,42424
47074.8,42430.8
47092.2,42429.1
47988.1,42429.1
48005.5,42430.8
48022.9,42429.1
48022.9,42429.1
48075,42424
48141.8,42403.7
48203.3,42370.8
48257.3,42326.6
48268.4,42313
48738.2,41843.2
48751.8,41832.1
48796,41778.1
48828.9,41716.6
48849.2,41649.8
48854.3,41597.7
48854.3,41597.7
48856,41580.3
48854.3,41562.9
48854.3,40952.3
49153.5,40653.1
49153.5,41293.6
49149.4,41335.2
49153.5,41376.7
49165.8,41501.1
49171.2,41518.9
49214.2,41660.7
49214.2,41660.7
49292.8,41807.7
49398.6,41936.6
49430.9,41963.1
51013.3,43545.5
51013.3,43545.5
52568.4,45100.6
52594.9,45132.9
52723.8,45238.7
52870.8,45317.3
53030.4,45365.7
53154.8,45378
53154.8,45378
53196.3,45382
53237.9,45378
57041.6,45378
57165.9,45365.7
57325.5,45317.3
57472.5,45238.7
57601.4,45132.9
57645.7,45079
57645.7,45353.2
57294.2,45704.7
57165.9,45665.8
57000,45649.4
56834.1,45665.8
56674.5,45714.2
56643,45731
56488.2,45731
56438,45736
56389.8,45750.6
56345.3,45774.4
56306.4,45806.4
56274.4,45845.3
56250.6,45889.8
56236,45938
56231,45988.2
56231,46071.9
55649.4,46653.5
52996.3,46653.5
53019.7,46630.1
53112.3,46491.5
53176.1,46337.5
53208.7,46173.9
53208.7,46007.2
53176.1,45843.6
53112.3,45689.6
53019.7,45551
52901.8,45433.1
52763.2,45340.4
52609.1,45276.6
52445.6,45244.1
52278.8,45244.1
52115.3,45276.6
51961.3,45340.4
51822.6,45433.1
51704.7,45551
51612.1,45689.6
51548.3,45843.6
51515.7,46007.2
51515.7,46173.9
51548.3,46337.5
51612.1,46491.5
51704.7,46630.1
51728.1,46653.5
48234.9,46653.5
48246,46640
48275.6,46610.5
48298.8,46575.7
48325.3,46543.4
48345,46506.6
48368.2,46471.8
48384.2,46433.2
48403.9,46396.4
48416,46356.4
48432,46317.8
48440.2,46276.8
48452.3,46236.8
48456.4,46195.2
48464.6,46154.2
48464.6,46112.4
48468.7,46070.9
48464.6,46029.3
48464.6,45987.5
48456.4,45946.5
48452.3,45904.9
48440.2,45865
48432,45824
48416,45785.4
48403.9,45745.4
48384.2,45708.5
48368.2,45669.9
48345,45635.2
48325.3,45598.3
48298.8,45566
48275.6,45531.3
48157.7,45413.4
46675.2,43930.9
46648.7,43898.6
46519.8,43792.8
46372.7,43714.2
46213.2,43665.8
46088.8,43653.5
46047.2,43649.4
46005.7,43653.5
42958.4,43653.5
42834.1,43665.8
42674.5,43714.2
42643,43731
42488.2,43731
42438,43736
42389.8,43750.6
42345.3,43774.4
42306.4,43806.4
42274.4,43845.3
42250.6,43889.8
42236,43938
42231,43988.2
42231,44143
42214.2,44174.5
42165.8,44334.1
42149.4,44500
40309.1,44500
40309.1,40998.5
42527.9,40998.5
42578.5,41118.4
42713.3,41188.1
42859.2,41230.2
43010.5,41243
43161.4,41226.1
43306.1,41180
43421.5,41118.4
43472.1,40998.5
43000,40526.4
42527.9,40998.5
40309.1,40998.5
40309.1,40479
42225.5,40479
42242.4,40629.9
42288.5,40774.6
42350.1,40890
42470,40940.6
42942.1,40468.5
43057.9,40468.5
43530,40940.6
43649.9,40890
43719.6,40755.2
43761.7,40609.3
43774.5,40458
43757.6,40307.1
43711.5,40162.4
43649.9,40047
43530,39996.4
43057.9,40468.5
42942.1,40468.5
42470,39996.4
42350.1,40047
42280.4,40181.8
42238.3,40327.7
42225.5,40479
40309.1,40479
40309.1,39938.5
42527.9,39938.5
43000,40410.6
43472.1,39938.5
43421.5,39818.7
43286.7,39748.9
43140.8,39706.8
42989.5,39694
42838.6,39710.9
42693.9,39757
42578.5,39818.7
42527.9,39938.5
40309.1,39938.5
40309.1,35039.5
40312.7,34988.2
40731,34988.2
40731,36011.8
40736,36062
40750.6,36110.2
40774.4,36154.7
40806.4,36193.6
40845.3,36225.6
40889.8,36249.4
40938,36264
40988.2,36269
42011.8,36269
42062,36264
42110.2,36249.4
42154.7,36225.6
42193.6,36193.6
42225.6,36154.7
42249.4,36110.2
42264,36062
42269,36011.8
42269,35854.3
42979,35854.3
43023,35936.8
43094.4,36023.7
43181.3,36095.1
43280.5,36148.1
43388.1,36180.7
43500,36191.7
43611.9,36180.7
43719.5,36148.1
43818.7,36095.1
43905.6,36023.7
43977,35936.8
44030,35837.6
44062.6,35730
44070.9,35646.2
44070.9,35353.8
44062.6,35270
44030,35162.4
43977,35063.2
43905.6,34976.3
43818.7,34904.9
43719.5,34851.9
43611.9,34819.3
43500,34808.3
43388.1,34819.3
43280.5,34851.9
43181.3,34904.9
43094.4,34976.3
43023,35063.2
42979,35145.7
42269,35145.7
42269,34988.2
42264,34938
42249.4,34889.8
42225.6,34845.3
42193.6,34806.4
42154.7,34774.4
42110.2,34750.6
42062,34736
42011.8,34731
40988.2,34731
40938,34736
40889.8,34750.6
40845.3,34774.4
40806.4,34806.4
40774.4,34845.3
40750.6,34889.8
40736,34938
40731,34988.2
40312.7,34988.2
40316.6,34933.8
40338.7,34832.2
40375,34734.9
40424.8,34643.7
40487.1,34560.5
40560.5,34487.1
40643.7,34424.8
40734.9,34375
40832.2,34338.7
40933.8,34316.6
41039.5,34309.1
58960.5,34309.1
Z" /> 
</g>
</g>
<g style="fill:#000000; fill-opacity:1.0; 
stroke:#000000; stroke-width:118.11; stroke-opacity:1; 
stroke-linecap:round; stroke-linejoin:round;">
<g >
<path style="fill:#000000; fill-opacity:1.0; 
stroke:#000000; stroke-width:118.11; stroke-opacity:1; 
stroke-linecap:round; stroke-linejoin:round;fill-rule:evenodd;"
d="M 52215,43531.5
51314.8,42631.3
52472.2,42331.2
Z" /> 
</g>
</g>
</g>
<g style="fill:#FFFFFF; fill-opacity:1.0; 
stroke:#FFFFFF; stroke-width:118.11; stroke-opacity:1; 
stroke-linecap:round; stroke-linejoin:round;">
</g>
<g style="fill:#FFFFFF; fill-opacity:1.0; 
stroke:#FFFFFF; stroke-width:0; stroke-opacity:1; 
stroke-linecap:round; stroke-linejoin:round;">
<circle cx="49500" cy="36000" r="157.48" /> 
</g>
<g style="fill:#FFFFFF; fill-opacity:1.0; 
stroke:#FFFFFF; stroke-width:39.3701; stroke-opacity:1; 
stroke-linecap:round; stroke-linejoin:round;">
</g>
<g style="fill:#FFFFFF; fill-opacity:1.0; 
stroke:#FFFFFF; stroke-width:0; stroke-opacity:1; 
stroke-linecap:round; stroke-linejoin:round;">
<circle cx="50500" cy="36000" r="157.48" /> 
</g>
<g style="fill:#FFFFFF; fill-opacity:1.0; 
stroke:#FFFFFF; stroke-width:39.3701; stroke-opacity:1; 
stroke-linecap:round; stroke-linejoin:round;">
</g>
<g style="fill:#FFFFFF; fill-opacity:1.0; 
stroke:#FFFFFF; stroke-width:0; stroke-opacity:1; 
stroke-linecap:round; stroke-linejoin:round;">
<circle cx="50000" cy="35500" r="157.48" /> 
</g>
<g style="fill:#FFFFFF; fill-opacity:1.0; 
stroke:#FFFFFF; stroke-width:39.3701; stroke-opacity:1; 
stroke-linecap:round; stroke-linejoin:round;">
</g>
<g style="fill:#FFFFFF; fill-opacity:1.0; 
stroke:#FFFFFF; stroke-width:0; stroke-opacity:1; 
stroke-linecap:round; stroke-linejoin:round;">
<circle cx="53000" cy="35500" r="157.48" /> 
</g>
<g style="fill:#FFFFFF; fill-opacity:1.0; 
stroke:#FFFFFF; stroke-width:39.3701; stroke-opacity:1; 
stroke-linecap:round; stroke-linejoin:round;">
</g>
<g style="fill:#FFFFFF; fill-opacity:1.0; 
stroke:#FFFFFF; stroke-width:0; stroke-opacity:1; 
stroke-linecap:round; stroke-linejoin:round;">
<circle cx="57000" cy="35500" r="157.48" /> 
</g>
<g style="fill:#FFFFFF; fill-opacity:1.0; 
stroke:#FFFFFF; stroke-width:39.3701; stroke-opacity:1; 
stroke-linecap:round; stroke-linejoin:round;">
</g>
<g style="fill:#FFFFFF; fill-opacity:1.0; 
stroke:#FFFFFF; stroke-width:0; stroke-opacity:1; 
stroke-linecap:round; stroke-linejoin:round;">
<circle cx="41500" cy="35500" r="255.906" /> 
</g>
<g style="fill:#FFFFFF; fill-opacity:1.0; 
stroke:#FFFFFF; stroke-width:39.3701; stroke-opacity:1; 
stroke-linecap:round; stroke-linejoin:round;">
</g>
<g style="fill:#FFFFFF; fill-opacity:1.0; 
stroke:#FFFFFF; stroke-width:0; stroke-opacity:1; 
stroke-linecap:round; stroke-linejoin:round;">
<circle cx="47618.1" cy="41267.7" r="255.906" /> 
</g>
<g style="fill:#FFFFFF; fill-opacity:1.0; 
stroke:#FFFFFF; stroke-width:39.3701; stroke-opacity:1; 
stroke-linecap:round; stroke-linejoin:round;">
</g>
<g style="fill:#FFFFFF; fill-opacity:1.0; 
stroke:#FFFFFF; stroke-width:0; stroke-opacity:1; 
stroke-linecap:round; stroke-linejoin:round;">
<circle cx="47618.1" cy="46070.9" r="255.906" /> 
</g>
<g style="fill:#FFFFFF; fill-opacity:1.0; 
stroke:#FFFFFF; stroke-width:39.3701; stroke-opacity:1; 
stroke-linecap:round; stroke-linejoin:round;">
</g>
<g style="fill:#FFFFFF; fill-opacity:1.0; 
stroke:#FFFFFF; stroke-width:0; stroke-opacity:1; 
stroke-linecap:round; stroke-linejoin:round;">
<circle cx="52362.2" cy="46090.6" r="255.906" /> 
</g>
<g style="fill:#FFFFFF; fill-opacity:1.0; 
stroke:#FFFFFF; stroke-width:39.3701; stroke-opacity:1; 
stroke-linecap:round; stroke-linejoin:round;">
</g>
<g style="fill:#FFFFFF; fill-opacity:1.0; 
stroke:#FFFFFF; stroke-width:0; stroke-opacity:1; 
stroke-linecap:round; stroke-linejoin:round;">
<circle cx="52342.5" cy="41267.7" r="255.906" /> 
</g>
<g style="fill:#FFFFFF; fill-opacity:1.0; 
stroke:#FFFFFF; stroke-width:39.3701; stroke-opacity:1; 
stroke-linecap:round; stroke-linejoin:round;">
</g>
<g style="fill:#FFFFFF; fill-opacity:1.0; 
stroke:#FFFFFF; stroke-width:0; stroke-opacity:1; 
stroke-linecap:round; stroke-linejoin:round;">
<circle cx="50000" cy="40500" r="255.906" /> 
</g>
<g style="fill:#FFFFFF; fill-opacity:1.0; 
stroke:#FFFFFF; stroke-width:39.3701; stroke-opacity:1; 
stroke-linecap:round; stroke-linejoin:round;">
</g>
<g style="fill:#FFFFFF; fill-opacity:1.0; 
stroke:#FFFFFF; stroke-width:0; stroke-opacity:1; 
stroke-linecap:round; stroke-linejoin:round;">
<circle cx="57000" cy="38500" r="157.48" /> 
</g>
<g style="fill:#FFFFFF; fill-opacity:1.0; 
stroke:#FFFFFF; stroke-width:39.3701; stroke-opacity:1; 
stroke-linecap:round; stroke-linejoin:round;">
</g>
<g style="fill:#FFFFFF; fill-opacity:1.0; 
stroke:#FFFFFF; stroke-width:0; stroke-opacity:1; 
stroke-linecap:round; stroke-linejoin:round;">
<circle cx="53000" cy="38500" r="157.48" /> 
</g>
<g style="fill:#FFFFFF; fill-opacity:1.0; 
stroke:#FFFFFF; stroke-width:39.3701; stroke-opacity:1; 
stroke-linecap:round; stroke-linejoin:round;">
</g>
<g style="fill:#FFFFFF; fill-opacity:1.0; 
stroke:#FFFFFF; stroke-width:0; stroke-opacity:1; 
stroke-linecap:round; stroke-linejoin:round;">
<circle cx="47500" cy="35500" r="157.48" /> 
</g>
<g style="fill:#FFFFFF; fill-opacity:1.0; 
stroke:#FFFFFF; stroke-width:39.3701; stroke-opacity:1; 
stroke-linecap:round; stroke-linejoin:round;">
</g>
<g style="fill:#FFFFFF; fill-opacity:1.0; 
stroke:#FFFFFF; stroke-width:0; stroke-opacity:1; 
stroke-linecap:round; stroke-linejoin:round;">
<circle cx="43500" cy="35500" r="157.48" /> 
</g>
<g style="fill:#FFFFFF; fill-opacity:1.0; 
stroke:#FFFFFF; stroke-width:39.3701; stroke-opacity:1; 
stroke-linecap:round; stroke-linejoin:round;">
</g>
<g style="fill:#FFFFFF; fill-opacity:1.0; 
stroke:#FFFFFF; stroke-width:0; stroke-opacity:1; 
stroke-linecap:round; stroke-linejoin:round;">
<circle cx="57000" cy="46500" r="255.906" /> 
</g>
<g style="fill:#FFFFFF; fill-opacity:1.0; 
stroke:#FFFFFF; stroke-width:39.3701; stroke-opacity:1; 
stroke-linecap:round; stroke-linejoin:round;">
</g>
<g style="fill:#FFFFFF; fill-opacity:1.0; 
stroke:#FFFFFF; stroke-width:0; stroke-opacity:1; 
stroke-linecap:round; stroke-linejoin:round;">
<circle cx="57000" cy="44531.5" r="255.906" /> 
</g>
<g style="fill:#FFFFFF; fill-opacity:1.0; 
stroke:#FFFFFF; stroke-width:39.3701; stroke-opacity:1; 
stroke-linecap:round; stroke-linejoin:round;">
</g>
<g style="fill:#FFFFFF; fill-opacity:1.0; 
stroke:#FFFFFF; stroke-width:0; stroke-opacity:1; 
stroke-linecap:round; stroke-linejoin:round;">
<circle cx="43000" cy="46468.5" r="255.906" /> 
</g>
<g style="fill:#FFFFFF; fill-opacity:1.0; 
stroke:#FFFFFF; stroke-width:39.3701; stroke-opacity:1; 
stroke-linecap:round; stroke-linejoin:round;">
</g>
<g style="fill:#FFFFFF; fill-opacity:1.0; 
stroke:#FFFFFF; stroke-width:0; stroke-opacity:1; 
stroke-linecap:round; stroke-linejoin:round;">
<circle cx="43000" cy="44500" r="255.906" /> 
</g>
<g style="fill:#FFFFFF; fill-opacity:1.0; 
stroke:#FFFFFF; stroke-width:39.3701; stroke-opacity:1; 
stroke-linecap:round; stroke-linejoin:round;">
</g>
<g style="fill:#FFFFFF; fill-opacity:1.0; 
stroke:#FFFFFF; stroke-width:0; stroke-opacity:1; 
stroke-linecap:round; stroke-linejoin:round;">
<circle cx="43000" cy="40468.5" r="255.906" /> 
</g>
<g style="fill:#FFFFFF; fill-opacity:1.0; 
stroke:#FFFFFF; stroke-width:39.3701; stroke-opacity:1; 
stroke-linecap:round; stroke-linejoin:round;">
</g>
<g style="fill:#FFFFFF; fill-opacity:1.0; 
stroke:#FFFFFF; stroke-width:0; stroke-opacity:1; 
stroke-linecap:round; stroke-linejoin:round;">
<circle cx="43000" cy="38500" r="255.906" /> 
</g>
<g style="fill:#FFFFFF; fill-opacity:1.0; 
stroke:#FFFFFF; stroke-width:39.3701; stroke-opacity:1; 
stroke-linecap:round; stroke-linejoin:round;">
</g>
<g style="fill:#FFFFFF; fill-opacity:1.0; 
stroke:#FFFFFF; stroke-width:0; stroke-opacity:1; 
stroke-linecap:round; stroke-linejoin:round;">
<circle cx="57000" cy="40500" r="157.48" /> 
</g>
<g style="fill:#FFFFFF; fill-opacity:1.0; 
stroke:#FFFFFF; stroke-width:39.3701; stroke-opacity:1; 
stroke-linecap:round; stroke-linejoin:round;">
</g>
<g style="fill:#FFFFFF; fill-opacity:1.0; 
stroke:#FFFFFF; stroke-width:0; stroke-opacity:1; 
stroke-linecap:round; stroke-linejoin:round;">
<circle cx="57000" cy="41500" r="157.48" /> 
</g>
<g style="fill:#FFFFFF; fill-opacity:1.0; 
stroke:#FFFFFF; stroke-width:39.3701; stroke-opacity:1; 
stroke-linecap:round; stroke-linejoin:round;">
</g>
<g style="fill:#FFFFFF; fill-opacity:1.0; 
stroke:#FFFFFF; stroke-width:0; stroke-opacity:1; 
stroke-linecap:round; stroke-linejoin:round;">
<circle cx="48500" cy="38500" r="157.48" /> 
</g>
<g style="fill:#FFFFFF; fill-opacity:1.0; 
stroke:#FFFFFF; stroke-width:39.3701; stroke-opacity:1; 
stroke-linecap:round; stroke-linejoin:round;">
</g>
<g style="fill:#FFFFFF; fill-opacity:1.0; 
stroke:#FFFFFF; stroke-width:0; stroke-opacity:1; 
stroke-linecap:round; stroke-linejoin:round;">
<circle cx="51500" cy="38500" r="157.48" /> 
</g>
<g style="fill:#FFFFFF; fill-opacity:1.0; 
stroke:#FFFFFF; stroke-width:39.3701; stroke-opacity:1; 
stroke-linecap:round; stroke-linejoin:round;">
</g>
<g style="fill:#000000; fill-opacity:1.0; 
stroke:#000000; stroke-width:39.3701; stroke-opacity:1; 
stroke-linecap:round; stroke-linejoin:round;">
</g> 
</svg>
