<?xml version="1.0" standalone="no"?>
 <!DOCTYPE svg PUBLIC "-//W3C//DTD SVG 1.1//EN" 
 "http://www.w3.org/Graphics/SVG/1.1/DTD/svg11.dtd"> 
<svg
  xmlns:svg="http://www.w3.org/2000/svg"
  xmlns="http://www.w3.org/2000/svg"
  xmlns:xlink="http://www.w3.org/1999/xlink"
  version="1.1"
  width="29.700220cm" height="21.000720cm" viewBox="0 0 116930 82680">
<title>SVG Picture created as DD_CMOS-F_Fab.svg date 2022/02/13 19:42:25 </title>
  <desc>Picture generated by PCBNEW </desc>
<g style="fill:#000000; fill-opacity:1;stroke:#000000; stroke-opacity:1;
stroke-linecap:round; stroke-linejoin:round;"
 transform="translate(0 0) scale(1 1)">
</g>
<g style="fill:#000000; fill-opacity:0.0; 
stroke:#000000; stroke-width:-0.000393701; stroke-opacity:1; 
stroke-linecap:round; stroke-linejoin:round;">
</g>
<g style="fill:#000000; fill-opacity:0.0; 
stroke:#000000; stroke-width:39.3701; stroke-opacity:1; 
stroke-linecap:round; stroke-linejoin:round;">
<path d="M40000 48250 A750 750 0.0 0 0 40750 49000" />
<path d="M59250 49000 A750 750 0.0 0 0 60000 48250" />
<path d="M60000 34750 A750 750 0.0 0 0 59250 34000" />
<path d="M40750 34000 A750 750 0.0 0 0 40000 34750" />
<path d="M59250 34000
L40750 34000
" />
<path d="M60000 48250
L60000 34750
" />
<path d="M40750 49000
L59250 49000
" />
<path d="M40000 34750
L40000 48250
" />
<path d="M49303 36688
L50681 36688
" />
<path d="M50000 35023.6 A976.378 976.378 0.0 0 0 49309.6 36690.4" />
<path d="M50690.4 36690.4 A976.378 976.378 0.0 0 0 50000 35023.6" />
<path d="M56240 35992
L56240 35007
" />
<path d="M56240 35007
L53759 35007
" />
<path d="M53759 35007
L53759 35992
" />
<path d="M53759 35992
L56240 35992
" />
<path d="M57000 35500
L56240 35500
" />
<path d="M53000 35500
L53759 35500
" />
<path d="M41375 35303
L41750 35303
" />
<path d="M41750 35303
L41750 35696
" />
<path d="M41750 35696
L41250 35696
" />
<path d="M41250 35696
L41250 35428
" />
<path d="M41250 35428
L41375 35303
" />
</g>
<g style="fill:#000000; fill-opacity:0.0; 
stroke:#000000; stroke-width:47.2441; stroke-opacity:1; 
stroke-linecap:round; stroke-linejoin:round;">
<path d="M53031 39988
L53031 47704
" />
<path d="M53031 47704
L46968 47704
" />
<path d="M46968 47704
L46968 39988
" />
<path d="M46968 39988
L53031 39988
" />
</g>
<g style="fill:#000000; fill-opacity:0.0; 
stroke:#000000; stroke-width:39.3701; stroke-opacity:1; 
stroke-linecap:round; stroke-linejoin:round;">
<path d="M57000 38500
L56240 38500
" />
<path d="M53000 38500
L53759 38500
" />
<path d="M56240 38007
L53759 38007
" />
<path d="M56240 38992
L56240 38007
" />
<path d="M53759 38992
L56240 38992
" />
<path d="M53759 38007
L53759 38992
" />
<path d="M47500 35500
L46740 35500
" />
<path d="M43500 35500
L44259 35500
" />
<path d="M46740 35007
L44259 35007
" />
<path d="M46740 35992
L46740 35007
" />
<path d="M44259 35992
L46740 35992
" />
<path d="M44259 35007
L44259 35992
" />
<circle cx="57000" cy="46500" r="590.551" /> 
<circle cx="57000" cy="44531.5" r="590.551" /> 
<path d="M54952 47484
L54952 43547
" />
<path d="M54952 43547
L58811 43547
" />
<path d="M58811 43547
L58811 47287
" />
<path d="M58811 47287
L58614 47484
" />
<path d="M58614 47484
L54952 47484
" />
<path d="M58614 47484
L58614 43547
" />
<path d="M58023 47484
L58023 43547
" />
<path d="M56094 47484
L56094 43547
" />
<path d="M56624 46051
L57448 46875
" />
<path d="M56551 46124
L57375 46948
" />
<path d="M56624 44083
L57448 44907
" />
<path d="M56551 44155
L57375 44979
" />
<path d="M43448 46844
L42624 46020
" />
<path d="M43375 46916
L42551 46092
" />
<path d="M43448 44875
L42624 44051
" />
<path d="M43375 44948
L42551 44124
" />
<path d="M43905 43515
L43905 47452
" />
<path d="M41976 43515
L41976 47452
" />
<path d="M41385 43515
L41385 47452
" />
<path d="M41385 43515
L45047 43515
" />
<path d="M41188 43712
L41385 43515
" />
<path d="M41188 47452
L41188 43712
" />
<path d="M45047 47452
L41188 47452
" />
<path d="M45047 43515
L45047 47452
" />
<circle cx="43000" cy="46468.5" r="590.551" /> 
<circle cx="43000" cy="44500" r="590.551" /> 
<path d="M43448 40844
L42624 40020
" />
<path d="M43375 40916
L42551 40092
" />
<path d="M43448 38875
L42624 38051
" />
<path d="M43375 38948
L42551 38124
" />
<path d="M43905 37515
L43905 41452
" />
<path d="M41976 37515
L41976 41452
" />
<path d="M41385 37515
L41385 41452
" />
<path d="M41385 37515
L45047 37515
" />
<path d="M41188 37712
L41385 37515
" />
<path d="M41188 41452
L41188 37712
" />
<path d="M45047 41452
L41188 41452
" />
<path d="M45047 37515
L45047 41452
" />
<circle cx="43000" cy="40468.5" r="590.551" /> 
<circle cx="43000" cy="38500" r="590.551" /> 
<path d="M56540 41590
L57459 41590
" />
<circle cx="57000" cy="41000" r="590.551" /> 
<path d="M57458.8 41590.8 A748.031 748.031 0.0 1 0 56540.9 41590.6" />
<path d="M50458 38814
L50458 38185
" />
<path d="M50379 38814
L50379 38185
" />
<path d="M50418 38814
L50418 38185
" />
<path d="M48500 38500
L49401 38500
" />
<path d="M51500 38500
L50598 38500
" />
<path d="M49401 38814
L50598 38814
" />
<path d="M49401 38185
L49401 38814
" />
<path d="M50598 38185
L49401 38185
" />
<path d="M50598 38814
L50598 38185
" />
<g >
</g>
<g >
</g>
<g >
</g>
<g >
</g>
<g >
</g>
<g >
</g>
<g >
</g>
<g >
</g>
<g >
</g>
<g >
</g>
<g >
</g>
</g>
<g style="fill:#000000; fill-opacity:0.0; 
stroke:#000000; stroke-width:39.3701; stroke-opacity:1; 
stroke-linecap:round; stroke-linejoin:round;">
</g>
<g style="fill:#000000; fill-opacity:0.0; 
stroke:#000000; stroke-width:59.0551; stroke-opacity:1; 
stroke-linecap:round; stroke-linejoin:round;">
<text x="48000" y="36696.9"
textLength="1989.03" font-size="524.934" lengthAdjust="spacingAndGlyphs"
text-anchor="middle" opacity="0">BC547</text>
<path d="M47268 36471
L47325 36490
L47343 36509
L47362 36546
L47362 36603
L47343 36640
L47325 36659
L47287 36678
L47137 36678
L47137 36284
L47268 36284
L47306 36303
L47325 36321
L47343 36359
L47343 36396
L47325 36434
L47306 36453
L47268 36471
L47137 36471
" />
<path d="M47756 36640
L47737 36659
L47681 36678
L47643 36678
L47587 36659
L47550 36621
L47531 36584
L47512 36509
L47512 36453
L47531 36378
L47550 36340
L47587 36303
L47643 36284
L47681 36284
L47737 36303
L47756 36321
" />
<path d="M48112 36284
L47925 36284
L47906 36471
L47925 36453
L47962 36434
L48056 36434
L48093 36453
L48112 36471
L48131 36509
L48131 36603
L48112 36640
L48093 36659
L48056 36678
L47962 36678
L47925 36659
L47906 36640
" />
<path d="M48468 36415
L48468 36678
" />
<path d="M48374 36265
L48281 36546
L48524 36546
" />
<path d="M48637 36284
L48899 36284
L48731 36678
" />
<text x="50000" y="36196.9"
textLength="864.173" font-size="524.934" lengthAdjust="spacingAndGlyphs"
text-anchor="middle" opacity="0">Q1</text>
<path d="M49962 36215
L49925 36196
L49887 36159
L49831 36103
L49793 36084
L49756 36084
" />
<path d="M49775 36178
L49737 36159
L49700 36121
L49681 36046
L49681 35915
L49700 35840
L49737 35803
L49775 35784
L49850 35784
L49887 35803
L49925 35840
L49943 35915
L49943 36046
L49925 36121
L49887 36159
L49850 36178
L49775 36178
" />
<path d="M50318 36178
L50093 36178
" />
<path d="M50206 36178
L50206 35784
L50168 35840
L50131 35878
L50093 35896
" />
<text x="55000" y="35696.9"
textLength="1220.38" font-size="524.934" lengthAdjust="spacingAndGlyphs"
text-anchor="middle" opacity="0">R21</text>
<path d="M54746 35678
L54615 35490
" />
<path d="M54521 35678
L54521 35284
L54671 35284
L54709 35303
L54728 35321
L54746 35359
L54746 35415
L54728 35453
L54709 35471
L54671 35490
L54521 35490
" />
<path d="M54896 35321
L54915 35303
L54953 35284
L55046 35284
L55084 35303
L55103 35321
L55121 35359
L55121 35396
L55103 35453
L54878 35678
L55121 35678
" />
<path d="M55496 35678
L55271 35678
" />
<path d="M55384 35678
L55384 35284
L55346 35340
L55309 35378
L55271 35396
" />
<text x="55000" y="36696.9"
textLength="1220.38" font-size="524.934" lengthAdjust="spacingAndGlyphs"
text-anchor="middle" opacity="0">47R</text>
<path d="M54690 36415
L54690 36678
" />
<path d="M54596 36265
L54503 36546
L54746 36546
" />
<path d="M54859 36284
L55121 36284
L54953 36678
" />
<path d="M55496 36678
L55365 36490
" />
<path d="M55271 36678
L55271 36284
L55421 36284
L55459 36303
L55478 36321
L55496 36359
L55496 36415
L55478 36453
L55459 36471
L55421 36490
L55271 36490
" />
<text x="42500" y="36696.9"
textLength="3657.57" font-size="524.934" lengthAdjust="spacingAndGlyphs"
text-anchor="middle" opacity="0">Conn_01x01</text>
<path d="M41028 36640
L41009 36659
L40953 36678
L40915 36678
L40859 36659
L40822 36621
L40803 36584
L40784 36509
L40784 36453
L40803 36378
L40822 36340
L40859 36303
L40915 36284
L40953 36284
L41009 36303
L41028 36321
" />
<path d="M41253 36678
L41215 36659
L41197 36640
L41178 36603
L41178 36490
L41197 36453
L41215 36434
L41253 36415
L41309 36415
L41347 36434
L41365 36453
L41384 36490
L41384 36603
L41365 36640
L41347 36659
L41309 36678
L41253 36678
" />
<path d="M41553 36415
L41553 36678
" />
<path d="M41553 36453
L41571 36434
L41609 36415
L41665 36415
L41703 36434
L41721 36471
L41721 36678
" />
<path d="M41909 36415
L41909 36678
" />
<path d="M41909 36453
L41928 36434
L41965 36415
L42021 36415
L42059 36434
L42078 36471
L42078 36678
" />
<path d="M42171 36715
L42471 36715
" />
<path d="M42640 36284
L42678 36284
L42715 36303
L42734 36321
L42753 36359
L42771 36434
L42771 36528
L42753 36603
L42734 36640
L42715 36659
L42678 36678
L42640 36678
L42603 36659
L42584 36640
L42565 36603
L42546 36528
L42546 36434
L42565 36359
L42584 36321
L42603 36303
L42640 36284
" />
<path d="M43146 36678
L42921 36678
" />
<path d="M43034 36678
L43034 36284
L42996 36340
L42959 36378
L42921 36396
" />
<path d="M43278 36678
L43484 36415
" />
<path d="M43278 36415
L43484 36678
" />
<path d="M43709 36284
L43746 36284
L43784 36303
L43802 36321
L43821 36359
L43840 36434
L43840 36528
L43821 36603
L43802 36640
L43784 36659
L43746 36678
L43709 36678
L43671 36659
L43652 36640
L43634 36603
L43615 36528
L43615 36434
L43634 36359
L43652 36321
L43671 36303
L43709 36284
" />
<path d="M44215 36678
L43990 36678
" />
<path d="M44102 36678
L44102 36284
L44065 36340
L44027 36378
L43990 36396
" />
</g>
<g style="fill:#000000; fill-opacity:0.0; 
stroke:#000000; stroke-width:44.8819; stroke-opacity:1; 
stroke-linecap:round; stroke-linejoin:round;">
<g transform="rotate(-90 42000 35500)">
<text x="42000" y="35649.6"
textLength="589.707" font-size="398.95" lengthAdjust="spacingAndGlyphs"
text-anchor="middle" opacity="0">J4</text>
</g>
<path d="M41836 35599
L42049 35599
L42092 35613
L42121 35642
L42135 35685
L42135 35713
" />
<path d="M41935 35329
L42135 35329
" />
<path d="M41821 35400
L42035 35471
L42035 35286
" />
</g>
<g style="fill:#000000; fill-opacity:0.0; 
stroke:#000000; stroke-width:59.0551; stroke-opacity:1; 
stroke-linecap:round; stroke-linejoin:round;">
<g transform="rotate(-90 53779.5 43649.6)">
<text x="53779.5" y="43846.5"
textLength="5270.19" font-size="524.934" lengthAdjust="spacingAndGlyphs"
text-anchor="middle" opacity="0">HF3FA/005-ZSTF</text>
</g>
<path d="M53957 46161
L53563 46161
" />
<path d="M53751 46161
L53751 45936
" />
<path d="M53957 45936
L53563 45936
" />
<path d="M53751 45618
L53751 45749
" />
<path d="M53957 45749
L53563 45749
L53563 45561
" />
<path d="M53563 45449
L53563 45205
L53713 45336
L53713 45280
L53732 45243
L53751 45224
L53788 45205
L53882 45205
L53920 45224
L53938 45243
L53957 45280
L53957 45393
L53938 45430
L53920 45449
" />
<path d="M53751 44905
L53751 45036
" />
<path d="M53957 45036
L53563 45036
L53563 44849
" />
<path d="M53845 44718
L53845 44530
" />
<path d="M53957 44755
L53563 44624
L53957 44493
" />
<path d="M53545 44080
L54051 44418
" />
<path d="M53563 43874
L53563 43837
L53582 43799
L53601 43780
L53638 43762
L53713 43743
L53807 43743
L53882 43762
L53920 43780
L53938 43799
L53957 43837
L53957 43874
L53938 43912
L53920 43930
L53882 43949
L53807 43968
L53713 43968
L53638 43949
L53601 43930
L53582 43912
L53563 43874
" />
<path d="M53563 43499
L53563 43462
L53582 43424
L53601 43405
L53638 43387
L53713 43368
L53807 43368
L53882 43387
L53920 43405
L53938 43424
L53957 43462
L53957 43499
L53938 43537
L53920 43555
L53882 43574
L53807 43593
L53713 43593
L53638 43574
L53601 43555
L53582 43537
L53563 43499
" />
<path d="M53563 43012
L53563 43199
L53751 43218
L53732 43199
L53713 43162
L53713 43068
L53732 43030
L53751 43012
L53788 42993
L53882 42993
L53920 43012
L53938 43030
L53957 43068
L53957 43162
L53938 43199
L53920 43218
" />
<path d="M53807 42824
L53807 42524
" />
<path d="M53563 42374
L53563 42112
L53957 42374
L53957 42112
" />
<path d="M53938 41981
L53957 41924
L53957 41831
L53938 41793
L53920 41774
L53882 41756
L53845 41756
L53807 41774
L53788 41793
L53770 41831
L53751 41906
L53732 41943
L53713 41962
L53676 41981
L53638 41981
L53601 41962
L53582 41943
L53563 41906
L53563 41812
L53582 41756
" />
<path d="M53563 41643
L53563 41418
" />
<path d="M53957 41531
L53563 41531
" />
<path d="M53751 41156
L53751 41287
" />
<path d="M53957 41287
L53563 41287
L53563 41099
" />
<g transform="rotate(-90 50905.5 40500)">
<text x="50905.5" y="40696.9"
textLength="451.725" font-size="524.934" lengthAdjust="spacingAndGlyphs"
text-anchor="middle" opacity="0">1</text>
</g>
<path d="M51083 40387
L51083 40612
" />
<path d="M51083 40500
L50689 40500
L50746 40537
L50783 40574
L50802 40612
" />
<g transform="rotate(-90 49990.2 43295.3)">
<text x="49990.2" y="43492.1"
textLength="1164.14" font-size="524.934" lengthAdjust="spacingAndGlyphs"
text-anchor="middle" opacity="0">RL1</text>
</g>
<path d="M50168 43520
L49980 43651
" />
<path d="M50168 43745
L49774 43745
L49774 43595
L49793 43557
L49812 43538
L49849 43520
L49905 43520
L49943 43538
L49962 43557
L49980 43595
L49980 43745
" />
<path d="M50168 43164
L50168 43351
L49774 43351
" />
<path d="M50168 42826
L50168 43051
" />
<path d="M50168 42939
L49774 42939
L49830 42976
L49868 43014
L49887 43051
" />
<text x="55000" y="38696.9"
textLength="1220.38" font-size="524.934" lengthAdjust="spacingAndGlyphs"
text-anchor="middle" opacity="0">R20</text>
<path d="M54746 38678
L54615 38490
" />
<path d="M54521 38678
L54521 38284
L54671 38284
L54709 38303
L54728 38321
L54746 38359
L54746 38415
L54728 38453
L54709 38471
L54671 38490
L54521 38490
" />
<path d="M54896 38321
L54915 38303
L54953 38284
L55046 38284
L55084 38303
L55103 38321
L55121 38359
L55121 38396
L55103 38453
L54878 38678
L55121 38678
" />
<path d="M55365 38284
L55403 38284
L55440 38303
L55459 38321
L55478 38359
L55496 38434
L55496 38528
L55478 38603
L55459 38640
L55440 38659
L55403 38678
L55365 38678
L55328 38659
L55309 38640
L55290 38603
L55271 38528
L55271 38434
L55290 38359
L55309 38321
L55328 38303
L55365 38284
" />
<text x="55000" y="39696.9"
textLength="770.435" font-size="524.934" lengthAdjust="spacingAndGlyphs"
text-anchor="middle" opacity="0">1k</text>
<path d="M54953 39678
L54728 39678
" />
<path d="M54840 39678
L54840 39284
L54803 39340
L54765 39378
L54728 39396
" />
<path d="M55121 39678
L55121 39284
" />
<path d="M55159 39528
L55271 39678
" />
<path d="M55271 39415
L55121 39565
" />
<text x="45500" y="35696.9"
textLength="845.426" font-size="524.934" lengthAdjust="spacingAndGlyphs"
text-anchor="middle" opacity="0">R5</text>
<path d="M45434 35678
L45303 35490
" />
<path d="M45209 35678
L45209 35284
L45359 35284
L45396 35303
L45415 35321
L45434 35359
L45434 35415
L45415 35453
L45396 35471
L45359 35490
L45209 35490
" />
<path d="M45790 35284
L45603 35284
L45584 35471
L45603 35453
L45640 35434
L45734 35434
L45771 35453
L45790 35471
L45809 35509
L45809 35603
L45790 35640
L45771 35659
L45734 35678
L45640 35678
L45603 35659
L45584 35640
" />
<text x="45500" y="36696.9"
textLength="770.435" font-size="524.934" lengthAdjust="spacingAndGlyphs"
text-anchor="middle" opacity="0">1k</text>
<path d="M45453 36678
L45228 36678
" />
<path d="M45340 36678
L45340 36284
L45303 36340
L45265 36378
L45228 36396
" />
<path d="M45621 36678
L45621 36284
" />
<path d="M45659 36528
L45771 36678
" />
<path d="M45771 36415
L45621 36565
" />
<g transform="rotate(-90 59228.3 45515.7)">
<text x="59228.3" y="45712.6"
textLength="3657.57" font-size="524.934" lengthAdjust="spacingAndGlyphs"
text-anchor="middle" opacity="0">Conn_01x02</text>
</g>
<path d="M59368 46987
L59387 47006
L59406 47062
L59406 47099
L59387 47156
L59350 47193
L59312 47212
L59237 47231
L59181 47231
L59106 47212
L59068 47193
L59031 47156
L59012 47099
L59012 47062
L59031 47006
L59050 46987
" />
<path d="M59406 46762
L59387 46799
L59368 46818
L59331 46837
L59218 46837
L59181 46818
L59162 46799
L59143 46762
L59143 46706
L59162 46668
L59181 46649
L59218 46631
L59331 46631
L59368 46649
L59387 46668
L59406 46706
L59406 46762
" />
<path d="M59143 46462
L59406 46462
" />
<path d="M59181 46462
L59162 46443
L59143 46406
L59143 46350
L59162 46312
L59200 46293
L59406 46293
" />
<path d="M59143 46106
L59406 46106
" />
<path d="M59181 46106
L59162 46087
L59143 46050
L59143 45993
L59162 45956
L59200 45937
L59406 45937
" />
<path d="M59443 45843
L59443 45543
" />
<path d="M59012 45375
L59012 45337
L59031 45300
L59050 45281
L59087 45262
L59162 45243
L59256 45243
L59331 45262
L59368 45281
L59387 45300
L59406 45337
L59406 45375
L59387 45412
L59368 45431
L59331 45450
L59256 45468
L59162 45468
L59087 45450
L59050 45431
L59031 45412
L59012 45375
" />
<path d="M59406 44868
L59406 45093
" />
<path d="M59406 44981
L59012 44981
L59068 45018
L59106 45056
L59125 45093
" />
<path d="M59406 44737
L59143 44531
" />
<path d="M59143 44737
L59406 44531
" />
<path d="M59012 44306
L59012 44269
L59031 44231
L59050 44212
L59087 44194
L59162 44175
L59256 44175
L59331 44194
L59368 44212
L59387 44231
L59406 44269
L59406 44306
L59387 44344
L59368 44362
L59331 44381
L59256 44400
L59162 44400
L59087 44381
L59050 44362
L59031 44344
L59012 44306
" />
<path d="M59050 44025
L59031 44006
L59012 43969
L59012 43875
L59031 43837
L59050 43819
L59087 43800
L59125 43800
L59181 43819
L59406 44044
L59406 43800
" />
<g transform="rotate(-90 58259.8 45515.7)">
<text x="58259.8" y="45712.6"
textLength="751.687" font-size="524.934" lengthAdjust="spacingAndGlyphs"
text-anchor="middle" opacity="0">J5</text>
</g>
<path d="M58044 45646
L58325 45646
L58381 45665
L58419 45703
L58437 45759
L58437 45796
" />
<path d="M58044 45272
L58044 45459
L58231 45478
L58212 45459
L58194 45422
L58194 45328
L58212 45290
L58231 45272
L58269 45253
L58362 45253
L58400 45272
L58419 45290
L58437 45328
L58437 45422
L58419 45459
L58400 45478
" />
<g transform="rotate(-90 40771.7 45484.3)">
<text x="40771.7" y="45681.1"
textLength="3657.57" font-size="524.934" lengthAdjust="spacingAndGlyphs"
text-anchor="middle" opacity="0">Conn_01x02</text>
</g>
<path d="M40912 46955
L40931 46974
L40949 47030
L40949 47068
L40931 47124
L40893 47162
L40856 47180
L40781 47199
L40724 47199
L40649 47180
L40612 47162
L40574 47124
L40556 47068
L40556 47030
L40574 46974
L40593 46955
" />
<path d="M40949 46730
L40931 46768
L40912 46787
L40874 46805
L40762 46805
L40724 46787
L40706 46768
L40687 46730
L40687 46674
L40706 46637
L40724 46618
L40762 46599
L40874 46599
L40912 46618
L40931 46637
L40949 46674
L40949 46730
" />
<path d="M40687 46431
L40949 46431
" />
<path d="M40724 46431
L40706 46412
L40687 46374
L40687 46318
L40706 46281
L40743 46262
L40949 46262
" />
<path d="M40687 46074
L40949 46074
" />
<path d="M40724 46074
L40706 46056
L40687 46018
L40687 45962
L40706 45924
L40743 45906
L40949 45906
" />
<path d="M40987 45812
L40987 45512
" />
<path d="M40556 45343
L40556 45306
L40574 45268
L40593 45249
L40631 45231
L40706 45212
L40799 45212
L40874 45231
L40912 45249
L40931 45268
L40949 45306
L40949 45343
L40931 45381
L40912 45399
L40874 45418
L40799 45437
L40706 45437
L40631 45418
L40593 45399
L40574 45381
L40556 45343
" />
<path d="M40949 44837
L40949 45062
" />
<path d="M40949 44949
L40556 44949
L40612 44987
L40649 45024
L40668 45062
" />
<path d="M40949 44706
L40687 44500
" />
<path d="M40687 44706
L40949 44500
" />
<path d="M40556 44275
L40556 44237
L40574 44200
L40593 44181
L40631 44162
L40706 44143
L40799 44143
L40874 44162
L40912 44181
L40931 44200
L40949 44237
L40949 44275
L40931 44312
L40912 44331
L40874 44350
L40799 44368
L40706 44368
L40631 44350
L40593 44331
L40574 44312
L40556 44275
" />
<path d="M40593 43993
L40574 43975
L40556 43937
L40556 43843
L40574 43806
L40593 43787
L40631 43768
L40668 43768
L40724 43787
L40949 44012
L40949 43768
" />
<g transform="rotate(-90 41740.2 45484.3)">
<text x="41740.2" y="45681.1"
textLength="751.687" font-size="524.934" lengthAdjust="spacingAndGlyphs"
text-anchor="middle" opacity="0">J2</text>
</g>
<path d="M41524 45615
L41805 45615
L41862 45634
L41899 45671
L41918 45727
L41918 45765
" />
<path d="M41562 45446
L41543 45428
L41524 45390
L41524 45296
L41543 45259
L41562 45240
L41599 45221
L41637 45221
L41693 45240
L41918 45465
L41918 45221
" />
<g transform="rotate(-90 40771.7 39484.3)">
<text x="40771.7" y="39681.1"
textLength="3657.57" font-size="524.934" lengthAdjust="spacingAndGlyphs"
text-anchor="middle" opacity="0">Conn_01x02</text>
</g>
<path d="M40912 40955
L40931 40974
L40949 41030
L40949 41068
L40931 41124
L40893 41162
L40856 41180
L40781 41199
L40724 41199
L40649 41180
L40612 41162
L40574 41124
L40556 41068
L40556 41030
L40574 40974
L40593 40955
" />
<path d="M40949 40730
L40931 40768
L40912 40787
L40874 40805
L40762 40805
L40724 40787
L40706 40768
L40687 40730
L40687 40674
L40706 40637
L40724 40618
L40762 40599
L40874 40599
L40912 40618
L40931 40637
L40949 40674
L40949 40730
" />
<path d="M40687 40431
L40949 40431
" />
<path d="M40724 40431
L40706 40412
L40687 40374
L40687 40318
L40706 40281
L40743 40262
L40949 40262
" />
<path d="M40687 40074
L40949 40074
" />
<path d="M40724 40074
L40706 40056
L40687 40018
L40687 39962
L40706 39924
L40743 39906
L40949 39906
" />
<path d="M40987 39812
L40987 39512
" />
<path d="M40556 39343
L40556 39306
L40574 39268
L40593 39249
L40631 39231
L40706 39212
L40799 39212
L40874 39231
L40912 39249
L40931 39268
L40949 39306
L40949 39343
L40931 39381
L40912 39399
L40874 39418
L40799 39437
L40706 39437
L40631 39418
L40593 39399
L40574 39381
L40556 39343
" />
<path d="M40949 38837
L40949 39062
" />
<path d="M40949 38949
L40556 38949
L40612 38987
L40649 39024
L40668 39062
" />
<path d="M40949 38706
L40687 38500
" />
<path d="M40687 38706
L40949 38500
" />
<path d="M40556 38275
L40556 38237
L40574 38200
L40593 38181
L40631 38162
L40706 38143
L40799 38143
L40874 38162
L40912 38181
L40931 38200
L40949 38237
L40949 38275
L40931 38312
L40912 38331
L40874 38350
L40799 38368
L40706 38368
L40631 38350
L40593 38331
L40574 38312
L40556 38275
" />
<path d="M40593 37993
L40574 37975
L40556 37937
L40556 37843
L40574 37806
L40593 37787
L40631 37768
L40668 37768
L40724 37787
L40949 38012
L40949 37768
" />
<g transform="rotate(-90 41740.2 39484.3)">
<text x="41740.2" y="39681.1"
textLength="751.687" font-size="524.934" lengthAdjust="spacingAndGlyphs"
text-anchor="middle" opacity="0">J1</text>
</g>
<path d="M41524 39615
L41805 39615
L41862 39634
L41899 39671
L41918 39727
L41918 39765
" />
<path d="M41918 39221
L41918 39446
" />
<path d="M41918 39334
L41524 39334
L41580 39371
L41618 39409
L41637 39446
" />
<g transform="rotate(-90 58165.4 41000)">
<text x="58165.4" y="41196.9"
textLength="1689.07" font-size="524.934" lengthAdjust="spacingAndGlyphs"
text-anchor="middle" opacity="0">Verde</text>
</g>
<path d="M57949 41768
L58343 41637
L57949 41506
" />
<path d="M58324 41224
L58343 41262
L58343 41337
L58324 41374
L58287 41393
L58137 41393
L58099 41374
L58080 41337
L58080 41262
L58099 41224
L58137 41206
L58174 41206
L58212 41393
" />
<path d="M58343 41037
L58080 41037
" />
<path d="M58155 41037
L58118 41018
L58099 41000
L58080 40962
L58080 40925
" />
<path d="M58343 40625
L57949 40625
" />
<path d="M58324 40625
L58343 40662
L58343 40737
L58324 40775
L58305 40793
L58268 40812
L58155 40812
L58118 40793
L58099 40775
L58080 40737
L58080 40662
L58099 40625
" />
<path d="M58324 40287
L58343 40325
L58343 40400
L58324 40437
L58287 40456
L58137 40456
L58099 40437
L58080 40400
L58080 40325
L58099 40287
L58137 40268
L58174 40268
L58212 40456
" />
<text x="50000" y="37946.9"
textLength="2363.99" font-size="524.934" lengthAdjust="spacingAndGlyphs"
text-anchor="middle" opacity="0">1N4148</text>
<path d="M49156 37928
L48931 37928
" />
<path d="M49043 37928
L49043 37534
L49006 37590
L48968 37628
L48931 37646
" />
<path d="M49325 37928
L49325 37534
L49550 37928
L49550 37534
" />
<path d="M49906 37665
L49906 37928
" />
<path d="M49812 37515
L49718 37796
L49962 37796
" />
<path d="M50318 37928
L50093 37928
" />
<path d="M50206 37928
L50206 37534
L50168 37590
L50131 37628
L50093 37646
" />
<path d="M50656 37665
L50656 37928
" />
<path d="M50562 37515
L50468 37796
L50712 37796
" />
<path d="M50918 37703
L50881 37684
L50862 37665
L50843 37628
L50843 37609
L50862 37571
L50881 37553
L50918 37534
L50993 37534
L51031 37553
L51049 37571
L51068 37609
L51068 37628
L51049 37665
L51031 37684
L50993 37703
L50918 37703
L50881 37721
L50862 37740
L50843 37778
L50843 37853
L50862 37890
L50881 37909
L50918 37928
L50993 37928
L51031 37909
L51049 37890
L51068 37853
L51068 37778
L51049 37740
L51031 37721
L50993 37703
" />
<text x="51500" y="39385.8"
textLength="470.472" font-size="524.934" lengthAdjust="spacingAndGlyphs"
text-anchor="middle" opacity="0">K</text>
<path d="M51396 39367
L51396 38973
" />
<path d="M51621 39367
L51453 39142
" />
<path d="M51621 38973
L51396 39198
" />
</g>
<g style="fill:#000000; fill-opacity:0.0; 
stroke:#000000; stroke-width:35.9055; stroke-opacity:1; 
stroke-linecap:round; stroke-linejoin:round;">
<text x="49910.2" y="38619.7"
textLength="544.113" font-size="319.16" lengthAdjust="spacingAndGlyphs"
text-anchor="middle" opacity="0">D1</text>
<path d="M49733 38608
L49733 38368
L49790 38368
L49824 38380
L49847 38403
L49858 38425
L49870 38471
L49870 38505
L49858 38551
L49847 38574
L49824 38596
L49790 38608
L49733 38608
" />
<path d="M50098 38608
L49961 38608
" />
<path d="M50029 38608
L50029 38368
L50007 38403
L49984 38425
L49961 38437
" />
<g >
</g>
</g> 
</svg>
