%FSLAX45Y45*%
G04 Gerber Fmt 4.5, Leading zero omitted, Abs format (unit mm)*
G04 Created by KiCad (PCBNEW 5.1.7-a382d34a8~87~ubuntu20.04.1) date 2020-10-16 12:12:10*
%MOMM*%
%LPD*%
G01*
G04 APERTURE LIST*
%TA.AperFunction,Profile*%
%ADD10C,0.050000*%
%TD*%
%ADD11C,0.200000*%
%ADD12C,0.300000*%
G04 APERTURE END LIST*
D10*
X24511000Y-8382000D02*
X20828000Y-11176000D01*
X16383000Y-11176000D02*
X12700000Y-8382000D01*
X12700000Y-8382000D02*
X12700000Y-2286000D01*
X20828000Y-11176000D02*
X16383000Y-11176000D01*
X24511000Y-2286000D02*
X24511000Y-8382000D01*
X12700000Y-2286000D02*
X24511000Y-2286000D01*
D11*
X12990000Y-3984000D02*
X13150000Y-4144000D01*
X13150000Y-3984000D02*
X12990000Y-4144000D01*
D12*
X12983928Y-11644214D02*
X12983928Y-11344214D01*
X13055357Y-11344214D01*
X13098214Y-11358500D01*
X13126786Y-11387071D01*
X13141071Y-11415643D01*
X13155357Y-11472786D01*
X13155357Y-11515643D01*
X13141071Y-11572786D01*
X13126786Y-11601357D01*
X13098214Y-11629929D01*
X13055357Y-11644214D01*
X12983928Y-11644214D01*
X13283928Y-11644214D02*
X13283928Y-11444214D01*
X13283928Y-11501357D02*
X13298214Y-11472786D01*
X13312500Y-11458500D01*
X13341071Y-11444214D01*
X13369643Y-11444214D01*
X13469643Y-11644214D02*
X13469643Y-11444214D01*
X13469643Y-11344214D02*
X13455357Y-11358500D01*
X13469643Y-11372786D01*
X13483928Y-11358500D01*
X13469643Y-11344214D01*
X13469643Y-11372786D01*
X13655357Y-11644214D02*
X13626786Y-11629929D01*
X13612500Y-11601357D01*
X13612500Y-11344214D01*
X13812500Y-11644214D02*
X13783928Y-11629929D01*
X13769643Y-11601357D01*
X13769643Y-11344214D01*
X14155357Y-11644214D02*
X14155357Y-11344214D01*
X14255357Y-11558500D01*
X14355357Y-11344214D01*
X14355357Y-11644214D01*
X14626786Y-11644214D02*
X14626786Y-11487071D01*
X14612500Y-11458500D01*
X14583928Y-11444214D01*
X14526786Y-11444214D01*
X14498214Y-11458500D01*
X14626786Y-11629929D02*
X14598214Y-11644214D01*
X14526786Y-11644214D01*
X14498214Y-11629929D01*
X14483928Y-11601357D01*
X14483928Y-11572786D01*
X14498214Y-11544214D01*
X14526786Y-11529929D01*
X14598214Y-11529929D01*
X14626786Y-11515643D01*
X14769643Y-11444214D02*
X14769643Y-11744214D01*
X14769643Y-11458500D02*
X14798214Y-11444214D01*
X14855357Y-11444214D01*
X14883928Y-11458500D01*
X14898214Y-11472786D01*
X14912500Y-11501357D01*
X14912500Y-11587071D01*
X14898214Y-11615643D01*
X14883928Y-11629929D01*
X14855357Y-11644214D01*
X14798214Y-11644214D01*
X14769643Y-11629929D01*
X15041071Y-11615643D02*
X15055357Y-11629929D01*
X15041071Y-11644214D01*
X15026786Y-11629929D01*
X15041071Y-11615643D01*
X15041071Y-11644214D01*
X15041071Y-11458500D02*
X15055357Y-11472786D01*
X15041071Y-11487071D01*
X15026786Y-11472786D01*
X15041071Y-11458500D01*
X15041071Y-11487071D01*
X12537500Y-12058500D02*
X12697500Y-12218500D01*
X12697500Y-12058500D02*
X12537500Y-12218500D01*
X13141071Y-12274214D02*
X12969643Y-12274214D01*
X13055357Y-12274214D02*
X13055357Y-11974214D01*
X13026786Y-12017071D01*
X12998214Y-12045643D01*
X12969643Y-12059929D01*
X13269643Y-12245643D02*
X13283928Y-12259929D01*
X13269643Y-12274214D01*
X13255357Y-12259929D01*
X13269643Y-12245643D01*
X13269643Y-12274214D01*
X13541071Y-11974214D02*
X13483928Y-11974214D01*
X13455357Y-11988500D01*
X13441071Y-12002786D01*
X13412500Y-12045643D01*
X13398214Y-12102786D01*
X13398214Y-12217071D01*
X13412500Y-12245643D01*
X13426786Y-12259929D01*
X13455357Y-12274214D01*
X13512500Y-12274214D01*
X13541071Y-12259929D01*
X13555357Y-12245643D01*
X13569643Y-12217071D01*
X13569643Y-12145643D01*
X13555357Y-12117071D01*
X13541071Y-12102786D01*
X13512500Y-12088500D01*
X13455357Y-12088500D01*
X13426786Y-12102786D01*
X13412500Y-12117071D01*
X13398214Y-12145643D01*
X13755357Y-11974214D02*
X13783928Y-11974214D01*
X13812500Y-11988500D01*
X13826786Y-12002786D01*
X13841071Y-12031357D01*
X13855357Y-12088500D01*
X13855357Y-12159929D01*
X13841071Y-12217071D01*
X13826786Y-12245643D01*
X13812500Y-12259929D01*
X13783928Y-12274214D01*
X13755357Y-12274214D01*
X13726786Y-12259929D01*
X13712500Y-12245643D01*
X13698214Y-12217071D01*
X13683928Y-12159929D01*
X13683928Y-12088500D01*
X13698214Y-12031357D01*
X13712500Y-12002786D01*
X13726786Y-11988500D01*
X13755357Y-11974214D01*
X13983928Y-12274214D02*
X13983928Y-12074214D01*
X13983928Y-12102786D02*
X13998214Y-12088500D01*
X14026786Y-12074214D01*
X14069643Y-12074214D01*
X14098214Y-12088500D01*
X14112500Y-12117071D01*
X14112500Y-12274214D01*
X14112500Y-12117071D02*
X14126786Y-12088500D01*
X14155357Y-12074214D01*
X14198214Y-12074214D01*
X14226786Y-12088500D01*
X14241071Y-12117071D01*
X14241071Y-12274214D01*
X14383928Y-12274214D02*
X14383928Y-12074214D01*
X14383928Y-12102786D02*
X14398214Y-12088500D01*
X14426786Y-12074214D01*
X14469643Y-12074214D01*
X14498214Y-12088500D01*
X14512500Y-12117071D01*
X14512500Y-12274214D01*
X14512500Y-12117071D02*
X14526786Y-12088500D01*
X14555357Y-12074214D01*
X14598214Y-12074214D01*
X14626786Y-12088500D01*
X14641071Y-12117071D01*
X14641071Y-12274214D01*
X15226786Y-11959929D02*
X14969643Y-12345643D01*
X15612500Y-11974214D02*
X15641071Y-11974214D01*
X15669643Y-11988500D01*
X15683928Y-12002786D01*
X15698214Y-12031357D01*
X15712500Y-12088500D01*
X15712500Y-12159929D01*
X15698214Y-12217071D01*
X15683928Y-12245643D01*
X15669643Y-12259929D01*
X15641071Y-12274214D01*
X15612500Y-12274214D01*
X15583928Y-12259929D01*
X15569643Y-12245643D01*
X15555357Y-12217071D01*
X15541071Y-12159929D01*
X15541071Y-12088500D01*
X15555357Y-12031357D01*
X15569643Y-12002786D01*
X15583928Y-11988500D01*
X15612500Y-11974214D01*
X15841071Y-12245643D02*
X15855357Y-12259929D01*
X15841071Y-12274214D01*
X15826786Y-12259929D01*
X15841071Y-12245643D01*
X15841071Y-12274214D01*
X16041071Y-11974214D02*
X16069643Y-11974214D01*
X16098214Y-11988500D01*
X16112500Y-12002786D01*
X16126786Y-12031357D01*
X16141071Y-12088500D01*
X16141071Y-12159929D01*
X16126786Y-12217071D01*
X16112500Y-12245643D01*
X16098214Y-12259929D01*
X16069643Y-12274214D01*
X16041071Y-12274214D01*
X16012500Y-12259929D01*
X15998214Y-12245643D01*
X15983928Y-12217071D01*
X15969643Y-12159929D01*
X15969643Y-12088500D01*
X15983928Y-12031357D01*
X15998214Y-12002786D01*
X16012500Y-11988500D01*
X16041071Y-11974214D01*
X16398214Y-11974214D02*
X16341071Y-11974214D01*
X16312500Y-11988500D01*
X16298214Y-12002786D01*
X16269643Y-12045643D01*
X16255357Y-12102786D01*
X16255357Y-12217071D01*
X16269643Y-12245643D01*
X16283928Y-12259929D01*
X16312500Y-12274214D01*
X16369643Y-12274214D01*
X16398214Y-12259929D01*
X16412500Y-12245643D01*
X16426786Y-12217071D01*
X16426786Y-12145643D01*
X16412500Y-12117071D01*
X16398214Y-12102786D01*
X16369643Y-12088500D01*
X16312500Y-12088500D01*
X16283928Y-12102786D01*
X16269643Y-12117071D01*
X16255357Y-12145643D01*
X16526786Y-11974214D02*
X16712500Y-11974214D01*
X16612500Y-12088500D01*
X16655357Y-12088500D01*
X16683928Y-12102786D01*
X16698214Y-12117071D01*
X16712500Y-12145643D01*
X16712500Y-12217071D01*
X16698214Y-12245643D01*
X16683928Y-12259929D01*
X16655357Y-12274214D01*
X16569643Y-12274214D01*
X16541071Y-12259929D01*
X16526786Y-12245643D01*
X16826786Y-11974214D02*
X16826786Y-12031357D01*
X16941071Y-11974214D02*
X16941071Y-12031357D01*
X17383928Y-12388500D02*
X17369643Y-12374214D01*
X17341071Y-12331357D01*
X17326786Y-12302786D01*
X17312500Y-12259929D01*
X17298214Y-12188500D01*
X17298214Y-12131357D01*
X17312500Y-12059929D01*
X17326786Y-12017071D01*
X17341071Y-11988500D01*
X17369643Y-11945643D01*
X17383928Y-11931357D01*
X17655357Y-12274214D02*
X17483928Y-12274214D01*
X17569643Y-12274214D02*
X17569643Y-11974214D01*
X17541071Y-12017071D01*
X17512500Y-12045643D01*
X17483928Y-12059929D01*
X18012500Y-12274214D02*
X18012500Y-11974214D01*
X18141071Y-12274214D02*
X18141071Y-12117071D01*
X18126786Y-12088500D01*
X18098214Y-12074214D01*
X18055357Y-12074214D01*
X18026786Y-12088500D01*
X18012500Y-12102786D01*
X18326786Y-12274214D02*
X18298214Y-12259929D01*
X18283928Y-12245643D01*
X18269643Y-12217071D01*
X18269643Y-12131357D01*
X18283928Y-12102786D01*
X18298214Y-12088500D01*
X18326786Y-12074214D01*
X18369643Y-12074214D01*
X18398214Y-12088500D01*
X18412500Y-12102786D01*
X18426786Y-12131357D01*
X18426786Y-12217071D01*
X18412500Y-12245643D01*
X18398214Y-12259929D01*
X18369643Y-12274214D01*
X18326786Y-12274214D01*
X18598214Y-12274214D02*
X18569643Y-12259929D01*
X18555357Y-12231357D01*
X18555357Y-11974214D01*
X18826786Y-12259929D02*
X18798214Y-12274214D01*
X18741071Y-12274214D01*
X18712500Y-12259929D01*
X18698214Y-12231357D01*
X18698214Y-12117071D01*
X18712500Y-12088500D01*
X18741071Y-12074214D01*
X18798214Y-12074214D01*
X18826786Y-12088500D01*
X18841071Y-12117071D01*
X18841071Y-12145643D01*
X18698214Y-12174214D01*
X18941071Y-12388500D02*
X18955357Y-12374214D01*
X18983928Y-12331357D01*
X18998214Y-12302786D01*
X19012500Y-12259929D01*
X19026786Y-12188500D01*
X19026786Y-12131357D01*
X19012500Y-12059929D01*
X18998214Y-12017071D01*
X18983928Y-11988500D01*
X18955357Y-11945643D01*
X18941071Y-11931357D01*
X19483928Y-12388500D02*
X19469643Y-12374214D01*
X19441071Y-12331357D01*
X19426786Y-12302786D01*
X19412500Y-12259929D01*
X19398214Y-12188500D01*
X19398214Y-12131357D01*
X19412500Y-12059929D01*
X19426786Y-12017071D01*
X19441071Y-11988500D01*
X19469643Y-11945643D01*
X19483928Y-11931357D01*
X19598214Y-12074214D02*
X19598214Y-12274214D01*
X19598214Y-12102786D02*
X19612500Y-12088500D01*
X19641071Y-12074214D01*
X19683928Y-12074214D01*
X19712500Y-12088500D01*
X19726786Y-12117071D01*
X19726786Y-12274214D01*
X19912500Y-12274214D02*
X19883928Y-12259929D01*
X19869643Y-12245643D01*
X19855357Y-12217071D01*
X19855357Y-12131357D01*
X19869643Y-12102786D01*
X19883928Y-12088500D01*
X19912500Y-12074214D01*
X19955357Y-12074214D01*
X19983928Y-12088500D01*
X19998214Y-12102786D01*
X20012500Y-12131357D01*
X20012500Y-12217071D01*
X19998214Y-12245643D01*
X19983928Y-12259929D01*
X19955357Y-12274214D01*
X19912500Y-12274214D01*
X20098214Y-12074214D02*
X20212500Y-12074214D01*
X20141071Y-11974214D02*
X20141071Y-12231357D01*
X20155357Y-12259929D01*
X20183928Y-12274214D01*
X20212500Y-12274214D01*
X20541071Y-12074214D02*
X20541071Y-12374214D01*
X20541071Y-12088500D02*
X20569643Y-12074214D01*
X20626786Y-12074214D01*
X20655357Y-12088500D01*
X20669643Y-12102786D01*
X20683928Y-12131357D01*
X20683928Y-12217071D01*
X20669643Y-12245643D01*
X20655357Y-12259929D01*
X20626786Y-12274214D01*
X20569643Y-12274214D01*
X20541071Y-12259929D01*
X20855357Y-12274214D02*
X20826786Y-12259929D01*
X20812500Y-12231357D01*
X20812500Y-11974214D01*
X21098214Y-12274214D02*
X21098214Y-12117071D01*
X21083928Y-12088500D01*
X21055357Y-12074214D01*
X20998214Y-12074214D01*
X20969643Y-12088500D01*
X21098214Y-12259929D02*
X21069643Y-12274214D01*
X20998214Y-12274214D01*
X20969643Y-12259929D01*
X20955357Y-12231357D01*
X20955357Y-12202786D01*
X20969643Y-12174214D01*
X20998214Y-12159929D01*
X21069643Y-12159929D01*
X21098214Y-12145643D01*
X21198214Y-12074214D02*
X21312500Y-12074214D01*
X21241071Y-11974214D02*
X21241071Y-12231357D01*
X21255357Y-12259929D01*
X21283928Y-12274214D01*
X21312500Y-12274214D01*
X21526786Y-12259929D02*
X21498214Y-12274214D01*
X21441071Y-12274214D01*
X21412500Y-12259929D01*
X21398214Y-12231357D01*
X21398214Y-12117071D01*
X21412500Y-12088500D01*
X21441071Y-12074214D01*
X21498214Y-12074214D01*
X21526786Y-12088500D01*
X21541071Y-12117071D01*
X21541071Y-12145643D01*
X21398214Y-12174214D01*
X21798214Y-12274214D02*
X21798214Y-11974214D01*
X21798214Y-12259929D02*
X21769643Y-12274214D01*
X21712500Y-12274214D01*
X21683928Y-12259929D01*
X21669643Y-12245643D01*
X21655357Y-12217071D01*
X21655357Y-12131357D01*
X21669643Y-12102786D01*
X21683928Y-12088500D01*
X21712500Y-12074214D01*
X21769643Y-12074214D01*
X21798214Y-12088500D01*
X21912500Y-12388500D02*
X21926786Y-12374214D01*
X21955357Y-12331357D01*
X21969643Y-12302786D01*
X21983928Y-12259929D01*
X21998214Y-12188500D01*
X21998214Y-12131357D01*
X21983928Y-12059929D01*
X21969643Y-12017071D01*
X21955357Y-11988500D01*
X21926786Y-11945643D01*
X21912500Y-11931357D01*
M02*
