%TF.GenerationSoftware,KiCad,Pcbnew,5.1.7-a382d34a8~87~ubuntu20.04.1*%
%TF.CreationDate,2020-10-16T12:11:30-03:00*%
%TF.ProjectId,cronometro-conta-para-zera,63726f6e-6f6d-4657-9472-6f2d636f6e74,rev?*%
%TF.SameCoordinates,Original*%
%TF.FileFunction,Copper,L1,Top*%
%TF.FilePolarity,Positive*%
%FSLAX46Y46*%
G04 Gerber Fmt 4.6, Leading zero omitted, Abs format (unit mm)*
G04 Created by KiCad (PCBNEW 5.1.7-a382d34a8~87~ubuntu20.04.1) date 2020-10-16 12:11:30*
%MOMM*%
%LPD*%
G01*
G04 APERTURE LIST*
%TA.AperFunction,ComponentPad*%
%ADD10O,2.400000X1.600000*%
%TD*%
%TA.AperFunction,ComponentPad*%
%ADD11R,2.400000X1.600000*%
%TD*%
%TA.AperFunction,ComponentPad*%
%ADD12C,1.600000*%
%TD*%
%TA.AperFunction,ComponentPad*%
%ADD13R,1.600000X1.600000*%
%TD*%
%TA.AperFunction,ComponentPad*%
%ADD14O,1.600000X2.400000*%
%TD*%
%TA.AperFunction,ComponentPad*%
%ADD15R,1.600000X2.400000*%
%TD*%
%TA.AperFunction,ComponentPad*%
%ADD16C,2.000000*%
%TD*%
%TA.AperFunction,ComponentPad*%
%ADD17O,1.400000X1.400000*%
%TD*%
%TA.AperFunction,ComponentPad*%
%ADD18C,1.400000*%
%TD*%
%TA.AperFunction,ComponentPad*%
%ADD19O,3.500000X2.000000*%
%TD*%
%TA.AperFunction,ComponentPad*%
%ADD20O,2.000000X3.300000*%
%TD*%
%TA.AperFunction,ComponentPad*%
%ADD21R,2.000000X4.000000*%
%TD*%
%TA.AperFunction,ViaPad*%
%ADD22C,0.800000*%
%TD*%
%TA.AperFunction,Conductor*%
%ADD23C,0.500000*%
%TD*%
%TA.AperFunction,Conductor*%
%ADD24C,0.250000*%
%TD*%
G04 APERTURE END LIST*
D10*
%TO.P,U3,16*%
%TO.N,VCC*%
X225742000Y-31750000D03*
%TO.P,U3,8*%
%TO.N,Earth*%
X218122000Y-49530000D03*
%TO.P,U3,15*%
%TO.N,MR*%
X225742000Y-34290000D03*
%TO.P,U3,7*%
%TO.N,/clr_seg*%
X218122000Y-46990000D03*
%TO.P,U3,14*%
%TO.N,/M3*%
X225742000Y-36830000D03*
%TO.P,U3,6*%
%TO.N,N/C*%
X218122000Y-44450000D03*
%TO.P,U3,13*%
%TO.N,/M2*%
X225742000Y-39370000D03*
%TO.P,U3,5*%
%TO.N,/Sd2*%
X218122000Y-41910000D03*
%TO.P,U3,12*%
%TO.N,/M1*%
X225742000Y-41910000D03*
%TO.P,U3,4*%
%TO.N,/Sd1*%
X218122000Y-39370000D03*
%TO.P,U3,11*%
%TO.N,/M0*%
X225742000Y-44450000D03*
%TO.P,U3,3*%
%TO.N,/Sd0*%
X218122000Y-36830000D03*
%TO.P,U3,10*%
%TO.N,/Sd2*%
X225742000Y-46990000D03*
%TO.P,U3,2*%
%TO.N,/Su3*%
X218122000Y-34290000D03*
%TO.P,U3,9*%
%TO.N,Earth*%
X225742000Y-49530000D03*
D11*
%TO.P,U3,1*%
X218122000Y-31750000D03*
%TD*%
D12*
%TO.P,U14,10*%
%TO.N,Net-(R28-Pad1)*%
X173355000Y-85725000D03*
%TO.P,U14,9*%
%TO.N,Net-(R29-Pad1)*%
X173355000Y-88265000D03*
%TO.P,U14,8*%
%TO.N,Net-(R30-Pad1)*%
X173355000Y-90805000D03*
%TO.P,U14,7*%
%TO.N,/driver-displays/DP*%
X173355000Y-93345000D03*
%TO.P,U14,6*%
%TO.N,Earth*%
X173355000Y-95885000D03*
%TO.P,U14,5*%
%TO.N,Net-(R31-Pad1)*%
X168275000Y-95885000D03*
%TO.P,U14,4*%
%TO.N,Net-(R32-Pad1)*%
X168275000Y-93345000D03*
%TO.P,U14,3*%
%TO.N,Net-(R34-Pad1)*%
X168275000Y-90805000D03*
%TO.P,U14,2*%
%TO.N,Net-(R33-Pad1)*%
X168275000Y-88265000D03*
D13*
%TO.P,U14,1*%
%TO.N,Earth*%
X168275000Y-85725000D03*
%TD*%
D12*
%TO.P,U13,10*%
%TO.N,Net-(R21-Pad1)*%
X181610000Y-85725000D03*
%TO.P,U13,9*%
%TO.N,Net-(R22-Pad1)*%
X181610000Y-88265000D03*
%TO.P,U13,8*%
%TO.N,Net-(R23-Pad1)*%
X181610000Y-90805000D03*
%TO.P,U13,7*%
%TO.N,Earth*%
X181610000Y-93345000D03*
%TO.P,U13,6*%
X181610000Y-95885000D03*
%TO.P,U13,5*%
%TO.N,Net-(R24-Pad1)*%
X176530000Y-95885000D03*
%TO.P,U13,4*%
%TO.N,Net-(R25-Pad1)*%
X176530000Y-93345000D03*
%TO.P,U13,3*%
%TO.N,Net-(R27-Pad1)*%
X176530000Y-90805000D03*
%TO.P,U13,2*%
%TO.N,Net-(R26-Pad1)*%
X176530000Y-88265000D03*
D13*
%TO.P,U13,1*%
%TO.N,Earth*%
X176530000Y-85725000D03*
%TD*%
D12*
%TO.P,U12,10*%
%TO.N,Net-(R14-Pad1)*%
X189865000Y-85725000D03*
%TO.P,U12,9*%
%TO.N,Net-(R15-Pad1)*%
X189865000Y-88265000D03*
%TO.P,U12,8*%
%TO.N,Net-(R16-Pad1)*%
X189865000Y-90805000D03*
%TO.P,U12,7*%
%TO.N,/driver-displays/DP*%
X189865000Y-93345000D03*
%TO.P,U12,6*%
%TO.N,Earth*%
X189865000Y-95885000D03*
%TO.P,U12,5*%
%TO.N,Net-(R17-Pad1)*%
X184785000Y-95885000D03*
%TO.P,U12,4*%
%TO.N,Net-(R18-Pad1)*%
X184785000Y-93345000D03*
%TO.P,U12,3*%
%TO.N,Net-(R20-Pad1)*%
X184785000Y-90805000D03*
%TO.P,U12,2*%
%TO.N,Net-(R19-Pad1)*%
X184785000Y-88265000D03*
D13*
%TO.P,U12,1*%
%TO.N,Earth*%
X184785000Y-85725000D03*
%TD*%
D12*
%TO.P,U11,10*%
%TO.N,Net-(R7-Pad1)*%
X198120000Y-85725000D03*
%TO.P,U11,9*%
%TO.N,Net-(R8-Pad1)*%
X198120000Y-88265000D03*
%TO.P,U11,8*%
%TO.N,Net-(R9-Pad1)*%
X198120000Y-90805000D03*
%TO.P,U11,7*%
%TO.N,Earth*%
X198120000Y-93345000D03*
%TO.P,U11,6*%
X198120000Y-95885000D03*
%TO.P,U11,5*%
%TO.N,Net-(R10-Pad1)*%
X193040000Y-95885000D03*
%TO.P,U11,4*%
%TO.N,Net-(R11-Pad1)*%
X193040000Y-93345000D03*
%TO.P,U11,3*%
%TO.N,Net-(R13-Pad1)*%
X193040000Y-90805000D03*
%TO.P,U11,2*%
%TO.N,Net-(R12-Pad1)*%
X193040000Y-88265000D03*
D13*
%TO.P,U11,1*%
%TO.N,Earth*%
X193040000Y-85725000D03*
%TD*%
D14*
%TO.P,U10,16*%
%TO.N,VCC*%
X148590000Y-66040000D03*
%TO.P,U10,8*%
%TO.N,Earth*%
X130810000Y-58420000D03*
%TO.P,U10,15*%
%TO.N,Net-(R33-Pad2)*%
X146050000Y-66040000D03*
%TO.P,U10,7*%
%TO.N,/M0*%
X133350000Y-58420000D03*
%TO.P,U10,14*%
%TO.N,Net-(R34-Pad2)*%
X143510000Y-66040000D03*
%TO.P,U10,6*%
%TO.N,/M3*%
X135890000Y-58420000D03*
%TO.P,U10,13*%
%TO.N,Net-(R28-Pad2)*%
X140970000Y-66040000D03*
%TO.P,U10,5*%
%TO.N,Earth*%
X138430000Y-58420000D03*
%TO.P,U10,12*%
%TO.N,Net-(R29-Pad2)*%
X138430000Y-66040000D03*
%TO.P,U10,4*%
%TO.N,VCC*%
X140970000Y-58420000D03*
%TO.P,U10,11*%
%TO.N,Net-(R30-Pad2)*%
X135890000Y-66040000D03*
%TO.P,U10,3*%
%TO.N,VCC*%
X143510000Y-58420000D03*
%TO.P,U10,10*%
%TO.N,Net-(R31-Pad2)*%
X133350000Y-66040000D03*
%TO.P,U10,2*%
%TO.N,/M2*%
X146050000Y-58420000D03*
%TO.P,U10,9*%
%TO.N,Net-(R32-Pad2)*%
X130810000Y-66040000D03*
D15*
%TO.P,U10,1*%
%TO.N,/M1*%
X148590000Y-58420000D03*
%TD*%
D14*
%TO.P,U9,16*%
%TO.N,VCC*%
X178435000Y-66040000D03*
%TO.P,U9,8*%
%TO.N,Earth*%
X160655000Y-58420000D03*
%TO.P,U9,15*%
%TO.N,Net-(R26-Pad2)*%
X175895000Y-66040000D03*
%TO.P,U9,7*%
%TO.N,/Sd0*%
X163195000Y-58420000D03*
%TO.P,U9,14*%
%TO.N,Net-(R27-Pad2)*%
X173355000Y-66040000D03*
%TO.P,U9,6*%
%TO.N,Earth*%
X165735000Y-58420000D03*
%TO.P,U9,13*%
%TO.N,Net-(R21-Pad2)*%
X170815000Y-66040000D03*
%TO.P,U9,5*%
%TO.N,Earth*%
X168275000Y-58420000D03*
%TO.P,U9,12*%
%TO.N,Net-(R22-Pad2)*%
X168275000Y-66040000D03*
%TO.P,U9,4*%
%TO.N,VCC*%
X170815000Y-58420000D03*
%TO.P,U9,11*%
%TO.N,Net-(R23-Pad2)*%
X165735000Y-66040000D03*
%TO.P,U9,3*%
%TO.N,VCC*%
X173355000Y-58420000D03*
%TO.P,U9,10*%
%TO.N,Net-(R24-Pad2)*%
X163195000Y-66040000D03*
%TO.P,U9,2*%
%TO.N,/Sd2*%
X175895000Y-58420000D03*
%TO.P,U9,9*%
%TO.N,Net-(R25-Pad2)*%
X160655000Y-66040000D03*
D15*
%TO.P,U9,1*%
%TO.N,/Sd1*%
X178435000Y-58420000D03*
%TD*%
D14*
%TO.P,U8,16*%
%TO.N,VCC*%
X207645000Y-66040000D03*
%TO.P,U8,8*%
%TO.N,Earth*%
X189865000Y-58420000D03*
%TO.P,U8,15*%
%TO.N,Net-(R19-Pad2)*%
X205105000Y-66040000D03*
%TO.P,U8,7*%
%TO.N,/Su0*%
X192405000Y-58420000D03*
%TO.P,U8,14*%
%TO.N,Net-(R20-Pad2)*%
X202565000Y-66040000D03*
%TO.P,U8,6*%
%TO.N,/Su3*%
X194945000Y-58420000D03*
%TO.P,U8,13*%
%TO.N,Net-(R14-Pad2)*%
X200025000Y-66040000D03*
%TO.P,U8,5*%
%TO.N,Earth*%
X197485000Y-58420000D03*
%TO.P,U8,12*%
%TO.N,Net-(R15-Pad2)*%
X197485000Y-66040000D03*
%TO.P,U8,4*%
%TO.N,VCC*%
X200025000Y-58420000D03*
%TO.P,U8,11*%
%TO.N,Net-(R16-Pad2)*%
X194945000Y-66040000D03*
%TO.P,U8,3*%
%TO.N,VCC*%
X202565000Y-58420000D03*
%TO.P,U8,10*%
%TO.N,Net-(R17-Pad2)*%
X192405000Y-66040000D03*
%TO.P,U8,2*%
%TO.N,/Su2*%
X205105000Y-58420000D03*
%TO.P,U8,9*%
%TO.N,Net-(R18-Pad2)*%
X189865000Y-66040000D03*
D15*
%TO.P,U8,1*%
%TO.N,/Su1*%
X207645000Y-58420000D03*
%TD*%
D14*
%TO.P,U7,16*%
%TO.N,VCC*%
X237490000Y-66040000D03*
%TO.P,U7,8*%
%TO.N,Earth*%
X219710000Y-58420000D03*
%TO.P,U7,15*%
%TO.N,Net-(R12-Pad2)*%
X234950000Y-66040000D03*
%TO.P,U7,7*%
%TO.N,/DS0*%
X222250000Y-58420000D03*
%TO.P,U7,14*%
%TO.N,Net-(R13-Pad2)*%
X232410000Y-66040000D03*
%TO.P,U7,6*%
%TO.N,/DS3*%
X224790000Y-58420000D03*
%TO.P,U7,13*%
%TO.N,Net-(R7-Pad2)*%
X229870000Y-66040000D03*
%TO.P,U7,5*%
%TO.N,Earth*%
X227330000Y-58420000D03*
%TO.P,U7,12*%
%TO.N,Net-(R8-Pad2)*%
X227330000Y-66040000D03*
%TO.P,U7,4*%
%TO.N,VCC*%
X229870000Y-58420000D03*
%TO.P,U7,11*%
%TO.N,Net-(R9-Pad2)*%
X224790000Y-66040000D03*
%TO.P,U7,3*%
%TO.N,VCC*%
X232410000Y-58420000D03*
%TO.P,U7,10*%
%TO.N,Net-(R10-Pad2)*%
X222250000Y-66040000D03*
%TO.P,U7,2*%
%TO.N,/DS2*%
X234950000Y-58420000D03*
%TO.P,U7,9*%
%TO.N,Net-(R11-Pad2)*%
X219710000Y-66040000D03*
D15*
%TO.P,U7,1*%
%TO.N,/DS1*%
X237490000Y-58420000D03*
%TD*%
D10*
%TO.P,U6,14*%
%TO.N,N/C*%
X210185000Y-33020000D03*
%TO.P,U6,7*%
%TO.N,VCC*%
X202565000Y-48260000D03*
%TO.P,U6,13*%
%TO.N,N/C*%
X210185000Y-35560000D03*
%TO.P,U6,6*%
%TO.N,~MR*%
X202565000Y-45720000D03*
%TO.P,U6,12*%
%TO.N,N/C*%
X210185000Y-38100000D03*
%TO.P,U6,5*%
%TO.N,Net-(U5-Pad3)*%
X202565000Y-43180000D03*
%TO.P,U6,11*%
%TO.N,Earth*%
X210185000Y-40640000D03*
%TO.P,U6,4*%
%TO.N,VCC*%
X202565000Y-40640000D03*
%TO.P,U6,10*%
X210185000Y-43180000D03*
%TO.P,U6,3*%
%TO.N,N/C*%
X202565000Y-38100000D03*
%TO.P,U6,9*%
X210185000Y-45720000D03*
%TO.P,U6,2*%
X202565000Y-35560000D03*
%TO.P,U6,8*%
%TO.N,/hab_cont*%
X210185000Y-48260000D03*
D11*
%TO.P,U6,1*%
%TO.N,N/C*%
X202565000Y-33020000D03*
%TD*%
D10*
%TO.P,U5,14*%
%TO.N,VCC*%
X194627000Y-33020000D03*
%TO.P,U5,7*%
%TO.N,Earth*%
X187007000Y-48260000D03*
%TO.P,U5,13*%
%TO.N,N/C*%
X194627000Y-35560000D03*
%TO.P,U5,6*%
X187007000Y-45720000D03*
%TO.P,U5,12*%
X194627000Y-38100000D03*
%TO.P,U5,5*%
X187007000Y-43180000D03*
%TO.P,U5,11*%
X194627000Y-40640000D03*
%TO.P,U5,4*%
X187007000Y-40640000D03*
%TO.P,U5,10*%
X194627000Y-43180000D03*
%TO.P,U5,3*%
%TO.N,Net-(U5-Pad3)*%
X187007000Y-38100000D03*
%TO.P,U5,9*%
%TO.N,N/C*%
X194627000Y-45720000D03*
%TO.P,U5,2*%
%TO.N,Net-(C3-Pad1)*%
X187007000Y-35560000D03*
%TO.P,U5,8*%
%TO.N,N/C*%
X194627000Y-48260000D03*
D11*
%TO.P,U5,1*%
%TO.N,Net-(C3-Pad1)*%
X187007000Y-33020000D03*
%TD*%
D10*
%TO.P,U4,14*%
%TO.N,VCC*%
X179070000Y-33020000D03*
%TO.P,U4,7*%
%TO.N,Earth*%
X171450000Y-48260000D03*
%TO.P,U4,13*%
%TO.N,Net-(U4-Pad13)*%
X179070000Y-35560000D03*
%TO.P,U4,6*%
%TO.N,Net-(C4-Pad1)*%
X171450000Y-45720000D03*
%TO.P,U4,12*%
%TO.N,~MR*%
X179070000Y-38100000D03*
%TO.P,U4,5*%
%TO.N,Net-(C4-Pad1)*%
X171450000Y-43180000D03*
%TO.P,U4,11*%
%TO.N,/clr_seg*%
X179070000Y-40640000D03*
%TO.P,U4,4*%
%TO.N,MR*%
X171450000Y-40640000D03*
%TO.P,U4,10*%
%TO.N,~MR*%
X179070000Y-43180000D03*
%TO.P,U4,3*%
%TO.N,Net-(U4-Pad13)*%
X171450000Y-38100000D03*
%TO.P,U4,9*%
%TO.N,MR*%
X179070000Y-45720000D03*
%TO.P,U4,2*%
%TO.N,/Sd2*%
X171450000Y-35560000D03*
%TO.P,U4,8*%
%TO.N,MR*%
X179070000Y-48260000D03*
D11*
%TO.P,U4,1*%
%TO.N,/Sd1*%
X171450000Y-33020000D03*
%TD*%
D10*
%TO.P,U2,16*%
%TO.N,VCC*%
X241300000Y-31750000D03*
%TO.P,U2,8*%
%TO.N,Earth*%
X233680000Y-49530000D03*
%TO.P,U2,15*%
%TO.N,/clr_seg*%
X241300000Y-34290000D03*
%TO.P,U2,7*%
%TO.N,MR*%
X233680000Y-46990000D03*
%TO.P,U2,14*%
%TO.N,/Su3*%
X241300000Y-36830000D03*
%TO.P,U2,6*%
%TO.N,/DS3*%
X233680000Y-44450000D03*
%TO.P,U2,13*%
%TO.N,/Su2*%
X241300000Y-39370000D03*
%TO.P,U2,5*%
%TO.N,/DS2*%
X233680000Y-41910000D03*
%TO.P,U2,12*%
%TO.N,/Su1*%
X241300000Y-41910000D03*
%TO.P,U2,4*%
%TO.N,/DS1*%
X233680000Y-39370000D03*
%TO.P,U2,11*%
%TO.N,/Su0*%
X241300000Y-44450000D03*
%TO.P,U2,3*%
%TO.N,/DS0*%
X233680000Y-36830000D03*
%TO.P,U2,10*%
%TO.N,/DS3*%
X241300000Y-46990000D03*
%TO.P,U2,2*%
%TO.N,ck*%
X233680000Y-34290000D03*
%TO.P,U2,9*%
%TO.N,Earth*%
X241300000Y-49530000D03*
D11*
%TO.P,U2,1*%
%TO.N,/hab_cont*%
X233680000Y-31750000D03*
%TD*%
D14*
%TO.P,U1,8*%
%TO.N,VCC*%
X158750000Y-43180000D03*
%TO.P,U1,4*%
X151130000Y-35560000D03*
%TO.P,U1,7*%
%TO.N,Net-(R1-Pad2)*%
X156210000Y-43180000D03*
%TO.P,U1,3*%
%TO.N,ck*%
X153670000Y-35560000D03*
%TO.P,U1,6*%
%TO.N,Net-(C2-Pad1)*%
X153670000Y-43180000D03*
%TO.P,U1,2*%
X156210000Y-35560000D03*
%TO.P,U1,5*%
%TO.N,Net-(C1-Pad1)*%
X151130000Y-43180000D03*
D15*
%TO.P,U1,1*%
%TO.N,Earth*%
X158750000Y-35560000D03*
%TD*%
D16*
%TO.P,SW2,1*%
%TO.N,Earth*%
X194460000Y-102235000D03*
%TO.P,SW2,2*%
%TO.N,Net-(C3-Pad1)*%
X194460000Y-106735000D03*
%TO.P,SW2,1*%
%TO.N,Earth*%
X187960000Y-102235000D03*
%TO.P,SW2,2*%
%TO.N,Net-(C3-Pad1)*%
X187960000Y-106735000D03*
%TD*%
%TO.P,SW1,1*%
%TO.N,Earth*%
X177950000Y-102235000D03*
%TO.P,SW1,2*%
%TO.N,Net-(C4-Pad1)*%
X177950000Y-106735000D03*
%TO.P,SW1,1*%
%TO.N,Earth*%
X171450000Y-102235000D03*
%TO.P,SW1,2*%
%TO.N,Net-(C4-Pad1)*%
X171450000Y-106735000D03*
%TD*%
D17*
%TO.P,R34,2*%
%TO.N,Net-(R34-Pad2)*%
X143510000Y-69850000D03*
D18*
%TO.P,R34,1*%
%TO.N,Net-(R34-Pad1)*%
X143510000Y-77470000D03*
%TD*%
D17*
%TO.P,R33,2*%
%TO.N,Net-(R33-Pad2)*%
X146050000Y-69850000D03*
D18*
%TO.P,R33,1*%
%TO.N,Net-(R33-Pad1)*%
X146050000Y-77470000D03*
%TD*%
D17*
%TO.P,R32,2*%
%TO.N,Net-(R32-Pad2)*%
X130810000Y-69850000D03*
D18*
%TO.P,R32,1*%
%TO.N,Net-(R32-Pad1)*%
X130810000Y-77470000D03*
%TD*%
D17*
%TO.P,R31,2*%
%TO.N,Net-(R31-Pad2)*%
X133350000Y-69850000D03*
D18*
%TO.P,R31,1*%
%TO.N,Net-(R31-Pad1)*%
X133350000Y-77470000D03*
%TD*%
D17*
%TO.P,R30,2*%
%TO.N,Net-(R30-Pad2)*%
X135890000Y-69850000D03*
D18*
%TO.P,R30,1*%
%TO.N,Net-(R30-Pad1)*%
X135890000Y-77470000D03*
%TD*%
D17*
%TO.P,R29,2*%
%TO.N,Net-(R29-Pad2)*%
X138430000Y-69850000D03*
D18*
%TO.P,R29,1*%
%TO.N,Net-(R29-Pad1)*%
X138430000Y-77470000D03*
%TD*%
D17*
%TO.P,R28,2*%
%TO.N,Net-(R28-Pad2)*%
X140970000Y-69850000D03*
D18*
%TO.P,R28,1*%
%TO.N,Net-(R28-Pad1)*%
X140970000Y-77470000D03*
%TD*%
D17*
%TO.P,R27,2*%
%TO.N,Net-(R27-Pad2)*%
X173355000Y-69850000D03*
D18*
%TO.P,R27,1*%
%TO.N,Net-(R27-Pad1)*%
X173355000Y-77470000D03*
%TD*%
D17*
%TO.P,R26,2*%
%TO.N,Net-(R26-Pad2)*%
X175895000Y-69850000D03*
D18*
%TO.P,R26,1*%
%TO.N,Net-(R26-Pad1)*%
X175895000Y-77470000D03*
%TD*%
D17*
%TO.P,R25,2*%
%TO.N,Net-(R25-Pad2)*%
X160655000Y-69850000D03*
D18*
%TO.P,R25,1*%
%TO.N,Net-(R25-Pad1)*%
X160655000Y-77470000D03*
%TD*%
D17*
%TO.P,R24,2*%
%TO.N,Net-(R24-Pad2)*%
X163195000Y-69850000D03*
D18*
%TO.P,R24,1*%
%TO.N,Net-(R24-Pad1)*%
X163195000Y-77470000D03*
%TD*%
D17*
%TO.P,R23,2*%
%TO.N,Net-(R23-Pad2)*%
X165735000Y-69850000D03*
D18*
%TO.P,R23,1*%
%TO.N,Net-(R23-Pad1)*%
X165735000Y-77470000D03*
%TD*%
D17*
%TO.P,R22,2*%
%TO.N,Net-(R22-Pad2)*%
X168275000Y-69850000D03*
D18*
%TO.P,R22,1*%
%TO.N,Net-(R22-Pad1)*%
X168275000Y-77470000D03*
%TD*%
D17*
%TO.P,R21,2*%
%TO.N,Net-(R21-Pad2)*%
X170815000Y-69850000D03*
D18*
%TO.P,R21,1*%
%TO.N,Net-(R21-Pad1)*%
X170815000Y-77470000D03*
%TD*%
D17*
%TO.P,R20,2*%
%TO.N,Net-(R20-Pad2)*%
X202565000Y-69850000D03*
D18*
%TO.P,R20,1*%
%TO.N,Net-(R20-Pad1)*%
X202565000Y-77470000D03*
%TD*%
D17*
%TO.P,R19,2*%
%TO.N,Net-(R19-Pad2)*%
X205105000Y-69850000D03*
D18*
%TO.P,R19,1*%
%TO.N,Net-(R19-Pad1)*%
X205105000Y-77470000D03*
%TD*%
D17*
%TO.P,R18,2*%
%TO.N,Net-(R18-Pad2)*%
X189865000Y-69850000D03*
D18*
%TO.P,R18,1*%
%TO.N,Net-(R18-Pad1)*%
X189865000Y-77470000D03*
%TD*%
D17*
%TO.P,R17,2*%
%TO.N,Net-(R17-Pad2)*%
X192405000Y-69850000D03*
D18*
%TO.P,R17,1*%
%TO.N,Net-(R17-Pad1)*%
X192405000Y-77470000D03*
%TD*%
D17*
%TO.P,R16,2*%
%TO.N,Net-(R16-Pad2)*%
X194945000Y-69850000D03*
D18*
%TO.P,R16,1*%
%TO.N,Net-(R16-Pad1)*%
X194945000Y-77470000D03*
%TD*%
D17*
%TO.P,R15,2*%
%TO.N,Net-(R15-Pad2)*%
X197485000Y-69850000D03*
D18*
%TO.P,R15,1*%
%TO.N,Net-(R15-Pad1)*%
X197485000Y-77470000D03*
%TD*%
D17*
%TO.P,R14,2*%
%TO.N,Net-(R14-Pad2)*%
X200025000Y-69850000D03*
D18*
%TO.P,R14,1*%
%TO.N,Net-(R14-Pad1)*%
X200025000Y-77470000D03*
%TD*%
D17*
%TO.P,R13,2*%
%TO.N,Net-(R13-Pad2)*%
X232410000Y-69850000D03*
D18*
%TO.P,R13,1*%
%TO.N,Net-(R13-Pad1)*%
X232410000Y-77470000D03*
%TD*%
D17*
%TO.P,R12,2*%
%TO.N,Net-(R12-Pad2)*%
X234950000Y-69850000D03*
D18*
%TO.P,R12,1*%
%TO.N,Net-(R12-Pad1)*%
X234950000Y-77470000D03*
%TD*%
D17*
%TO.P,R11,2*%
%TO.N,Net-(R11-Pad2)*%
X219710000Y-69850000D03*
D18*
%TO.P,R11,1*%
%TO.N,Net-(R11-Pad1)*%
X219710000Y-77470000D03*
%TD*%
D17*
%TO.P,R10,2*%
%TO.N,Net-(R10-Pad2)*%
X222250000Y-69850000D03*
D18*
%TO.P,R10,1*%
%TO.N,Net-(R10-Pad1)*%
X222250000Y-77470000D03*
%TD*%
D17*
%TO.P,R9,2*%
%TO.N,Net-(R9-Pad2)*%
X224790000Y-69850000D03*
D18*
%TO.P,R9,1*%
%TO.N,Net-(R9-Pad1)*%
X224790000Y-77470000D03*
%TD*%
D17*
%TO.P,R8,2*%
%TO.N,Net-(R8-Pad2)*%
X227330000Y-69850000D03*
D18*
%TO.P,R8,1*%
%TO.N,Net-(R8-Pad1)*%
X227330000Y-77470000D03*
%TD*%
D17*
%TO.P,R7,2*%
%TO.N,Net-(R7-Pad2)*%
X229870000Y-69850000D03*
D18*
%TO.P,R7,1*%
%TO.N,Net-(R7-Pad1)*%
X229870000Y-77470000D03*
%TD*%
D17*
%TO.P,R6,2*%
%TO.N,VCC*%
X182880000Y-69850000D03*
D18*
%TO.P,R6,1*%
%TO.N,/driver-displays/DP*%
X182880000Y-77470000D03*
%TD*%
D17*
%TO.P,R5,2*%
%TO.N,Net-(C4-Pad1)*%
X152400000Y-95595000D03*
D18*
%TO.P,R5,1*%
%TO.N,VCC*%
X152400000Y-87975000D03*
%TD*%
D17*
%TO.P,R4,2*%
%TO.N,Net-(C3-Pad1)*%
X213995000Y-95595000D03*
D18*
%TO.P,R4,1*%
%TO.N,VCC*%
X213995000Y-87975000D03*
%TD*%
D17*
%TO.P,R2,2*%
%TO.N,Net-(C2-Pad1)*%
X146685000Y-47625000D03*
D18*
%TO.P,R2,1*%
%TO.N,Net-(R1-Pad2)*%
X154305000Y-47625000D03*
%TD*%
D17*
%TO.P,R1,2*%
%TO.N,Net-(R1-Pad2)*%
X158115000Y-47625000D03*
D18*
%TO.P,R1,1*%
%TO.N,VCC*%
X165735000Y-47625000D03*
%TD*%
D19*
%TO.P,J1,MP*%
%TO.N,N/C*%
X132700000Y-45140000D03*
X132700000Y-36140000D03*
D20*
%TO.P,J1,2*%
%TO.N,Earth*%
X133700000Y-40640000D03*
D21*
%TO.P,J1,1*%
%TO.N,VCC*%
X139700000Y-40640000D03*
%TD*%
D12*
%TO.P,C15,2*%
%TO.N,Earth*%
X205145000Y-27940000D03*
%TO.P,C15,1*%
%TO.N,VCC*%
X207645000Y-27940000D03*
%TD*%
%TO.P,C14,2*%
%TO.N,Earth*%
X152400000Y-61000000D03*
%TO.P,C14,1*%
%TO.N,VCC*%
X152400000Y-63500000D03*
%TD*%
%TO.P,C13,2*%
%TO.N,Earth*%
X182245000Y-61000000D03*
%TO.P,C13,1*%
%TO.N,VCC*%
X182245000Y-63500000D03*
%TD*%
%TO.P,C12,2*%
%TO.N,Earth*%
X211455000Y-61000000D03*
%TO.P,C12,1*%
%TO.N,VCC*%
X211455000Y-63500000D03*
%TD*%
%TO.P,C11,2*%
%TO.N,Earth*%
X241300000Y-61000000D03*
%TO.P,C11,1*%
%TO.N,VCC*%
X241300000Y-63500000D03*
%TD*%
%TO.P,C10,2*%
%TO.N,Earth*%
X174030000Y-27940000D03*
%TO.P,C10,1*%
%TO.N,VCC*%
X176530000Y-27940000D03*
%TD*%
%TO.P,C9,2*%
%TO.N,Earth*%
X189588000Y-27940000D03*
%TO.P,C9,1*%
%TO.N,VCC*%
X192088000Y-27940000D03*
%TD*%
%TO.P,C8,2*%
%TO.N,Earth*%
X220702000Y-27940000D03*
%TO.P,C8,1*%
%TO.N,VCC*%
X223202000Y-27940000D03*
%TD*%
%TO.P,C7,2*%
%TO.N,Earth*%
X236260000Y-27940000D03*
%TO.P,C7,1*%
%TO.N,VCC*%
X238760000Y-27940000D03*
%TD*%
%TO.P,C6,2*%
%TO.N,Earth*%
X165060000Y-36195000D03*
D13*
%TO.P,C6,1*%
%TO.N,VCC*%
X162560000Y-36195000D03*
%TD*%
D12*
%TO.P,C5,2*%
%TO.N,Earth*%
X165060000Y-42545000D03*
D13*
%TO.P,C5,1*%
%TO.N,VCC*%
X162560000Y-42545000D03*
%TD*%
D12*
%TO.P,C4,2*%
%TO.N,Earth*%
X157480000Y-90490100D03*
D13*
%TO.P,C4,1*%
%TO.N,Net-(C4-Pad1)*%
X157480000Y-92990100D03*
%TD*%
D12*
%TO.P,C3,2*%
%TO.N,Earth*%
X208915000Y-90490100D03*
D13*
%TO.P,C3,1*%
%TO.N,Net-(C3-Pad1)*%
X208915000Y-92990100D03*
%TD*%
D12*
%TO.P,C2,2*%
%TO.N,Earth*%
X147320000Y-40680000D03*
%TO.P,C2,1*%
%TO.N,Net-(C2-Pad1)*%
X147320000Y-43180000D03*
%TD*%
%TO.P,C1,2*%
%TO.N,Earth*%
X147320000Y-34965000D03*
%TO.P,C1,1*%
%TO.N,Net-(C1-Pad1)*%
X147320000Y-37465000D03*
%TD*%
D22*
%TO.N,MR*%
X187256400Y-53011100D03*
%TO.N,/Sd2*%
X175895000Y-52362700D03*
%TO.N,/clr_seg*%
X214015100Y-45090500D03*
%TO.N,/Sd0*%
X204900300Y-53443000D03*
%TD*%
D23*
%TO.N,Earth*%
X211455000Y-61000000D02*
X218830300Y-61000000D01*
X218830300Y-61000000D02*
X219710000Y-60120300D01*
X219710000Y-58420000D02*
X219710000Y-60120300D01*
X227330000Y-58420000D02*
X227330000Y-60120300D01*
X227330000Y-60120300D02*
X219710000Y-60120300D01*
X220702000Y-27940000D02*
X222034100Y-26607900D01*
X222034100Y-26607900D02*
X234927900Y-26607900D01*
X234927900Y-26607900D02*
X236260000Y-27940000D01*
X218122000Y-31750000D02*
X216421700Y-31750000D01*
X216421700Y-31750000D02*
X215832800Y-31161100D01*
X215832800Y-31161100D02*
X208366100Y-31161100D01*
X208366100Y-31161100D02*
X205145000Y-27940000D01*
X205145000Y-27940000D02*
X203838300Y-26633300D01*
X203838300Y-26633300D02*
X190894700Y-26633300D01*
X190894700Y-26633300D02*
X189588000Y-27940000D01*
X197485000Y-58420000D02*
X197485000Y-60120300D01*
X189865000Y-58420000D02*
X189865000Y-60120300D01*
X189865000Y-60120300D02*
X197485000Y-60120300D01*
X187960000Y-97185400D02*
X188564600Y-97185400D01*
X188564600Y-97185400D02*
X189865000Y-95885000D01*
X181610000Y-95885000D02*
X182910400Y-97185400D01*
X182910400Y-97185400D02*
X187960000Y-97185400D01*
X187960000Y-97185400D02*
X187960000Y-102235000D01*
X163707500Y-37547500D02*
X159037200Y-37547500D01*
X159037200Y-37547500D02*
X158750000Y-37260300D01*
X165060000Y-36195000D02*
X163707500Y-37547500D01*
X163707500Y-37547500D02*
X165060000Y-38900000D01*
X165060000Y-38900000D02*
X165060000Y-42545000D01*
X181610000Y-93345000D02*
X183484700Y-91470300D01*
X183484700Y-91470300D02*
X183484700Y-85725000D01*
X176530000Y-85725000D02*
X177830300Y-85725000D01*
X184785000Y-85725000D02*
X183484700Y-85725000D01*
X183484700Y-85725000D02*
X182184400Y-84424700D01*
X182184400Y-84424700D02*
X179130600Y-84424700D01*
X179130600Y-84424700D02*
X177830300Y-85725000D01*
X182245000Y-61000000D02*
X170004900Y-61000000D01*
X170004900Y-61000000D02*
X168275000Y-59270100D01*
X168275000Y-59270100D02*
X167612400Y-59932700D01*
X167612400Y-59932700D02*
X165735000Y-59932700D01*
X152400000Y-61000000D02*
X159775300Y-61000000D01*
X159775300Y-61000000D02*
X160655000Y-60120300D01*
X160655000Y-58420000D02*
X160655000Y-60120300D01*
X165735000Y-59932700D02*
X165547400Y-60120300D01*
X165547400Y-60120300D02*
X160655000Y-60120300D01*
X165735000Y-58420000D02*
X165735000Y-59932700D01*
X147320900Y-39364500D02*
X146096000Y-38139600D01*
X146096000Y-38139600D02*
X134050100Y-38139600D01*
X134050100Y-38139600D02*
X133700000Y-38489700D01*
X147320000Y-40680000D02*
X147320900Y-40679100D01*
X147320900Y-40679100D02*
X147320900Y-39364500D01*
X148636300Y-37260300D02*
X148636300Y-38049100D01*
X148636300Y-38049100D02*
X147320900Y-39364500D01*
X133700000Y-40640000D02*
X133700000Y-38489700D01*
X148636300Y-37260300D02*
X158750000Y-37260300D01*
X147320000Y-34965000D02*
X148636300Y-36281300D01*
X148636300Y-36281300D02*
X148636300Y-37260300D01*
X189588000Y-27940000D02*
X188287600Y-26639600D01*
X188287600Y-26639600D02*
X175330400Y-26639600D01*
X175330400Y-26639600D02*
X174030000Y-27940000D01*
X171450000Y-48260000D02*
X173150300Y-48260000D01*
X187007000Y-48260000D02*
X185306700Y-48260000D01*
X185306700Y-48260000D02*
X184004400Y-49562300D01*
X184004400Y-49562300D02*
X174452600Y-49562300D01*
X174452600Y-49562300D02*
X173150300Y-48260000D01*
X168275000Y-58420000D02*
X168275000Y-59270100D01*
X241300000Y-49530000D02*
X233680000Y-49530000D01*
X194460000Y-102235000D02*
X187960000Y-102235000D01*
X168275000Y-85725000D02*
X166974700Y-85725000D01*
X157480000Y-90490100D02*
X162209600Y-90490100D01*
X162209600Y-90490100D02*
X166974700Y-85725000D01*
X208915000Y-90490100D02*
X200974900Y-90490100D01*
X200974900Y-90490100D02*
X198120000Y-93345000D01*
X158750000Y-35560000D02*
X158750000Y-37260300D01*
D24*
%TO.N,Net-(C2-Pad1)*%
X146685000Y-47625000D02*
X146685000Y-46549700D01*
X147320000Y-44755300D02*
X147320000Y-45914700D01*
X147320000Y-45914700D02*
X146685000Y-46549700D01*
X147320000Y-43180000D02*
X147320000Y-44755300D01*
X147320000Y-44755300D02*
X153670000Y-44755300D01*
X153670000Y-43180000D02*
X153670000Y-44755300D01*
%TO.N,Net-(C3-Pad1)*%
X213995000Y-95595000D02*
X212919700Y-95595000D01*
X208915000Y-92990100D02*
X210314800Y-92990100D01*
X210314800Y-92990100D02*
X212919700Y-95595000D01*
X187960000Y-106735000D02*
X194460000Y-106735000D01*
%TO.N,Net-(C4-Pad1)*%
X152400000Y-95595000D02*
X153475300Y-95595000D01*
X157480000Y-92990100D02*
X156080200Y-92990100D01*
X156080200Y-92990100D02*
X153475300Y-95595000D01*
X171450000Y-106735000D02*
X177950000Y-106735000D01*
D23*
%TO.N,VCC*%
X241300000Y-63500000D02*
X238329700Y-63500000D01*
X238329700Y-63500000D02*
X237490000Y-64339700D01*
X237490000Y-66040000D02*
X237490000Y-64339700D01*
X232410000Y-60120300D02*
X236629400Y-64339700D01*
X236629400Y-64339700D02*
X237490000Y-64339700D01*
X232410000Y-59932700D02*
X232410000Y-60120300D01*
X232410000Y-60120300D02*
X229870000Y-60120300D01*
X237274900Y-29425100D02*
X237084700Y-29615300D01*
X237084700Y-29615300D02*
X229577000Y-29615300D01*
X229577000Y-29615300D02*
X227442300Y-31750000D01*
X238760000Y-27940000D02*
X237274900Y-29425100D01*
X237274900Y-29425100D02*
X239599700Y-31750000D01*
X241300000Y-31750000D02*
X239599700Y-31750000D01*
X221861800Y-29280200D02*
X208985200Y-29280200D01*
X208985200Y-29280200D02*
X207645000Y-27940000D01*
X223202000Y-27940000D02*
X221861800Y-29280200D01*
X221861800Y-29280200D02*
X224041700Y-31460100D01*
X224041700Y-31460100D02*
X224041700Y-31750000D01*
X225742000Y-31750000D02*
X224041700Y-31750000D01*
X207645000Y-64339700D02*
X203425600Y-60120300D01*
X203425600Y-60120300D02*
X202565000Y-60120300D01*
X211455000Y-63500000D02*
X208484700Y-63500000D01*
X208484700Y-63500000D02*
X207645000Y-64339700D01*
X200025000Y-58420000D02*
X200025000Y-60120300D01*
X202565000Y-58420000D02*
X202565000Y-60120300D01*
X202565000Y-60120300D02*
X200025000Y-60120300D01*
X189967400Y-30060600D02*
X189777600Y-30250400D01*
X189777600Y-30250400D02*
X183539900Y-30250400D01*
X183539900Y-30250400D02*
X180770300Y-33020000D01*
X192088000Y-27940000D02*
X189967400Y-30060600D01*
X189967400Y-30060600D02*
X192926700Y-33020000D01*
X194627000Y-33020000D02*
X192926700Y-33020000D01*
X179070000Y-33020000D02*
X180770300Y-33020000D01*
X181405300Y-64339700D02*
X182245000Y-63500000D01*
X178435000Y-64339700D02*
X181405300Y-64339700D01*
X181405300Y-64339700D02*
X181405300Y-67175000D01*
X181405300Y-67175000D02*
X182880000Y-68649700D01*
X182880000Y-69850000D02*
X182880000Y-68649700D01*
X178435000Y-66040000D02*
X178435000Y-64339700D01*
X232410000Y-58420000D02*
X232410000Y-59932700D01*
X229870000Y-58420000D02*
X229870000Y-60120300D01*
X211455000Y-63500000D02*
X226490300Y-63500000D01*
X226490300Y-63500000D02*
X229870000Y-60120300D01*
X148590000Y-63997000D02*
X151903000Y-63997000D01*
X151903000Y-63997000D02*
X152400000Y-63500000D01*
X148590000Y-64339700D02*
X148590000Y-63997000D01*
X148590000Y-63997000D02*
X147386700Y-63997000D01*
X147386700Y-63997000D02*
X143510000Y-60120300D01*
X143510000Y-58420000D02*
X143510000Y-60120300D01*
X140970000Y-58420000D02*
X140970000Y-60120300D01*
X140970000Y-60120300D02*
X143510000Y-60120300D01*
X225742000Y-31750000D02*
X227442300Y-31750000D01*
X148590000Y-66040000D02*
X148590000Y-64339700D01*
X207645000Y-66040000D02*
X207645000Y-64339700D01*
X162560000Y-42545000D02*
X161259700Y-42545000D01*
X158750000Y-43180000D02*
X158750000Y-41479700D01*
X161259700Y-42545000D02*
X160194400Y-41479700D01*
X160194400Y-41479700D02*
X158750000Y-41479700D01*
D24*
%TO.N,/driver-displays/DP*%
X173355000Y-93345000D02*
X174545600Y-94535600D01*
X174545600Y-94535600D02*
X188674400Y-94535600D01*
X188674400Y-94535600D02*
X189865000Y-93345000D01*
%TO.N,Net-(R7-Pad1)*%
X229870000Y-77470000D02*
X221615000Y-85725000D01*
X221615000Y-85725000D02*
X198120000Y-85725000D01*
%TO.N,Net-(R8-Pad1)*%
X227330000Y-77470000D02*
X221033100Y-83766900D01*
X221033100Y-83766900D02*
X198356900Y-83766900D01*
X198356900Y-83766900D02*
X196906000Y-85217800D01*
X196906000Y-85217800D02*
X196906000Y-87051000D01*
X196906000Y-87051000D02*
X198120000Y-88265000D01*
%TO.N,Net-(R9-Pad1)*%
X198120000Y-90805000D02*
X196405600Y-89090600D01*
X196405600Y-89090600D02*
X196405600Y-85004300D01*
X196405600Y-85004300D02*
X198908100Y-82501800D01*
X198908100Y-82501800D02*
X219758200Y-82501800D01*
X219758200Y-82501800D02*
X224790000Y-77470000D01*
%TO.N,Net-(R11-Pad1)*%
X193040000Y-93345000D02*
X194404600Y-91980400D01*
X194404600Y-91980400D02*
X194404600Y-86276700D01*
X194404600Y-86276700D02*
X200884800Y-79796500D01*
X200884800Y-79796500D02*
X217383500Y-79796500D01*
X217383500Y-79796500D02*
X219710000Y-77470000D01*
%TO.N,Net-(R12-Pad1)*%
X193040000Y-88265000D02*
X191846000Y-87071000D01*
X191846000Y-87071000D02*
X191846000Y-84776200D01*
X191846000Y-84776200D02*
X197326000Y-79296200D01*
X197326000Y-79296200D02*
X206115800Y-79296200D01*
X206115800Y-79296200D02*
X209054000Y-76358000D01*
X209054000Y-76358000D02*
X233838000Y-76358000D01*
X233838000Y-76358000D02*
X234950000Y-77470000D01*
%TO.N,Net-(R13-Pad1)*%
X232410000Y-77470000D02*
X218065300Y-91814700D01*
X218065300Y-91814700D02*
X201500500Y-91814700D01*
X201500500Y-91814700D02*
X198751700Y-94563500D01*
X198751700Y-94563500D02*
X192596000Y-94563500D01*
X192596000Y-94563500D02*
X191848000Y-93815500D01*
X191848000Y-93815500D02*
X191848000Y-91997000D01*
X191848000Y-91997000D02*
X193040000Y-90805000D01*
%TO.N,Net-(R19-Pad1)*%
X205105000Y-77470000D02*
X204029600Y-78545400D01*
X204029600Y-78545400D02*
X194504600Y-78545400D01*
X194504600Y-78545400D02*
X184785000Y-88265000D01*
%TO.N,Net-(R20-Pad2)*%
X202565000Y-69850000D02*
X202565000Y-66040000D01*
%TO.N,Net-(R26-Pad1)*%
X175895000Y-77470000D02*
X175354600Y-78010400D01*
X175354600Y-78010400D02*
X175354600Y-87089600D01*
X175354600Y-87089600D02*
X176530000Y-88265000D01*
%TO.N,Net-(R27-Pad1)*%
X173355000Y-77470000D02*
X174530400Y-78645400D01*
X174530400Y-78645400D02*
X174530400Y-88805400D01*
X174530400Y-88805400D02*
X176530000Y-90805000D01*
%TO.N,Net-(R28-Pad1)*%
X173355000Y-85725000D02*
X167965500Y-80335500D01*
X167965500Y-80335500D02*
X143835500Y-80335500D01*
X143835500Y-80335500D02*
X140970000Y-77470000D01*
%TO.N,Net-(R29-Pad1)*%
X138430000Y-77470000D02*
X144442600Y-83482600D01*
X144442600Y-83482600D02*
X168572600Y-83482600D01*
X168572600Y-83482600D02*
X173355000Y-88265000D01*
%TO.N,Net-(R30-Pad1)*%
X135890000Y-77470000D02*
X150234700Y-91814700D01*
X150234700Y-91814700D02*
X167434500Y-91814700D01*
X167434500Y-91814700D02*
X167629700Y-92009900D01*
X167629700Y-92009900D02*
X172150100Y-92009900D01*
X172150100Y-92009900D02*
X173355000Y-90805000D01*
%TO.N,Net-(R31-Pad1)*%
X133350000Y-77470000D02*
X133350000Y-78126600D01*
X133350000Y-78126600D02*
X151917900Y-96694500D01*
X151917900Y-96694500D02*
X167465500Y-96694500D01*
X167465500Y-96694500D02*
X168275000Y-95885000D01*
%TO.N,ck*%
X233680000Y-34290000D02*
X232104700Y-34290000D01*
X153670000Y-35560000D02*
X153670000Y-33984700D01*
X153670000Y-33984700D02*
X164653000Y-33984700D01*
X164653000Y-33984700D02*
X164863600Y-34195300D01*
X164863600Y-34195300D02*
X213772100Y-34195300D01*
X213772100Y-34195300D02*
X215057300Y-35480500D01*
X215057300Y-35480500D02*
X230914200Y-35480500D01*
X230914200Y-35480500D02*
X232104700Y-34290000D01*
%TO.N,MR*%
X233680000Y-46990000D02*
X230344300Y-46990000D01*
X230344300Y-46990000D02*
X224666600Y-52667700D01*
X224666600Y-52667700D02*
X187599800Y-52667700D01*
X187599800Y-52667700D02*
X187256400Y-53011100D01*
X171450000Y-40640000D02*
X173025300Y-40640000D01*
X179070000Y-45720000D02*
X177494700Y-45720000D01*
X177494700Y-45720000D02*
X173025300Y-41250600D01*
X173025300Y-41250600D02*
X173025300Y-40640000D01*
%TO.N,/M3*%
X135890000Y-56844700D02*
X143047600Y-49687100D01*
X143047600Y-49687100D02*
X166011000Y-49687100D01*
X166011000Y-49687100D02*
X168708100Y-46990000D01*
X168708100Y-46990000D02*
X213216600Y-46990000D01*
X213216600Y-46990000D02*
X217026600Y-43180000D01*
X217026600Y-43180000D02*
X218983900Y-43180000D01*
X218983900Y-43180000D02*
X224166700Y-37997200D01*
X224166700Y-37997200D02*
X224166700Y-36830000D01*
X225742000Y-36830000D02*
X224166700Y-36830000D01*
X135890000Y-58420000D02*
X135890000Y-56844700D01*
%TO.N,/DS3*%
X233680000Y-44450000D02*
X235255300Y-44450000D01*
X241300000Y-46990000D02*
X237795300Y-46990000D01*
X237795300Y-46990000D02*
X235255300Y-44450000D01*
%TO.N,/M2*%
X224166700Y-39370000D02*
X224166700Y-40482600D01*
X224166700Y-40482600D02*
X218929300Y-45720000D01*
X218929300Y-45720000D02*
X217130400Y-45720000D01*
X217130400Y-45720000D02*
X212282000Y-50568400D01*
X212282000Y-50568400D02*
X152326300Y-50568400D01*
X152326300Y-50568400D02*
X146050000Y-56844700D01*
X146050000Y-58420000D02*
X146050000Y-56844700D01*
X225742000Y-39370000D02*
X224166700Y-39370000D01*
%TO.N,/M1*%
X148590000Y-58420000D02*
X148590000Y-56844700D01*
X148590000Y-56844700D02*
X154365900Y-51068800D01*
X154365900Y-51068800D02*
X213254800Y-51068800D01*
X213254800Y-51068800D02*
X216063600Y-48260000D01*
X216063600Y-48260000D02*
X219392000Y-48260000D01*
X219392000Y-48260000D02*
X225742000Y-41910000D01*
%TO.N,/M0*%
X133350000Y-59995300D02*
X136398400Y-59995300D01*
X136398400Y-59995300D02*
X137160000Y-59233700D01*
X137160000Y-59233700D02*
X137160000Y-57616200D01*
X137160000Y-57616200D02*
X137947500Y-56828700D01*
X137947500Y-56828700D02*
X143995000Y-56828700D01*
X143995000Y-56828700D02*
X144780000Y-57613700D01*
X144780000Y-57613700D02*
X144780000Y-59251200D01*
X144780000Y-59251200D02*
X145524200Y-59995400D01*
X145524200Y-59995400D02*
X151261400Y-59995400D01*
X151261400Y-59995400D02*
X159687600Y-51569200D01*
X159687600Y-51569200D02*
X218214700Y-51569200D01*
X218214700Y-51569200D02*
X224166700Y-45617200D01*
X224166700Y-45617200D02*
X224166700Y-44450000D01*
X225742000Y-44450000D02*
X224166700Y-44450000D01*
X133350000Y-58420000D02*
X133350000Y-59995300D01*
%TO.N,/Sd2*%
X224166700Y-46990000D02*
X219009500Y-52147200D01*
X219009500Y-52147200D02*
X176110500Y-52147200D01*
X176110500Y-52147200D02*
X175895000Y-52362700D01*
X225742000Y-46990000D02*
X224166700Y-46990000D01*
%TO.N,/clr_seg*%
X180645300Y-40640000D02*
X184385500Y-36899800D01*
X184385500Y-36899800D02*
X203470300Y-36899800D01*
X203470300Y-36899800D02*
X207395100Y-40824600D01*
X207395100Y-40824600D02*
X207395100Y-42488800D01*
X207395100Y-42488800D02*
X209356300Y-44450000D01*
X209356300Y-44450000D02*
X213374600Y-44450000D01*
X213374600Y-44450000D02*
X214015100Y-45090500D01*
X179070000Y-40640000D02*
X180645300Y-40640000D01*
X241300000Y-34290000D02*
X242875300Y-34290000D01*
X218122000Y-46990000D02*
X219697300Y-46990000D01*
X219697300Y-46990000D02*
X219697300Y-45865100D01*
X219697300Y-45865100D02*
X224922400Y-40640000D01*
X224922400Y-40640000D02*
X228244100Y-40640000D01*
X228244100Y-40640000D02*
X230717600Y-38166500D01*
X230717600Y-38166500D02*
X242086400Y-38166500D01*
X242086400Y-38166500D02*
X242875300Y-37377600D01*
X242875300Y-37377600D02*
X242875300Y-34290000D01*
%TO.N,/Su3*%
X218122000Y-34290000D02*
X219697300Y-34290000D01*
X241300000Y-36830000D02*
X239724700Y-36830000D01*
X239724700Y-36830000D02*
X235994200Y-33099500D01*
X235994200Y-33099500D02*
X220887800Y-33099500D01*
X220887800Y-33099500D02*
X219697300Y-34290000D01*
%TO.N,/Su2*%
X205105000Y-58420000D02*
X205105000Y-56844700D01*
X241300000Y-39370000D02*
X242875300Y-39370000D01*
X242875300Y-39370000D02*
X243389800Y-39884500D01*
X243389800Y-39884500D02*
X243389800Y-49524900D01*
X243389800Y-49524900D02*
X236070000Y-56844700D01*
X236070000Y-56844700D02*
X205105000Y-56844700D01*
%TO.N,/Sd0*%
X163195000Y-56844700D02*
X165669900Y-54369800D01*
X165669900Y-54369800D02*
X203973500Y-54369800D01*
X203973500Y-54369800D02*
X204900300Y-53443000D01*
X163195000Y-58420000D02*
X163195000Y-56844700D01*
%TO.N,/Su0*%
X242875300Y-44450000D02*
X242875300Y-47497400D01*
X242875300Y-47497400D02*
X242112700Y-48260000D01*
X242112700Y-48260000D02*
X230761600Y-48260000D01*
X230761600Y-48260000D02*
X224151400Y-54870200D01*
X224151400Y-54870200D02*
X194379500Y-54870200D01*
X194379500Y-54870200D02*
X192405000Y-56844700D01*
X192405000Y-58420000D02*
X192405000Y-56844700D01*
X241300000Y-44450000D02*
X242875300Y-44450000D01*
%TO.N,Net-(U4-Pad13)*%
X179070000Y-35560000D02*
X177494700Y-35560000D01*
X171450000Y-38100000D02*
X174954700Y-38100000D01*
X174954700Y-38100000D02*
X177494700Y-35560000D01*
%TO.N,~MR*%
X202565000Y-45720000D02*
X200989700Y-45720000D01*
X179070000Y-43180000D02*
X180645300Y-43180000D01*
X180645300Y-43180000D02*
X181915300Y-44450000D01*
X181915300Y-44450000D02*
X199719700Y-44450000D01*
X199719700Y-44450000D02*
X200989700Y-45720000D01*
%TO.N,Net-(U5-Pad3)*%
X202565000Y-43180000D02*
X200989700Y-43180000D01*
X187007000Y-38100000D02*
X188582300Y-38100000D01*
X188582300Y-38100000D02*
X192392300Y-41910000D01*
X192392300Y-41910000D02*
X199719700Y-41910000D01*
X199719700Y-41910000D02*
X200989700Y-43180000D01*
%TD*%
M02*
