%TF.GenerationSoftware,KiCad,Pcbnew,5.1.7-a382d34a8~87~ubuntu20.04.1*%
%TF.CreationDate,2020-10-16T12:11:30-03:00*%
%TF.ProjectId,cronometro-conta-para-zera,63726f6e-6f6d-4657-9472-6f2d636f6e74,rev?*%
%TF.SameCoordinates,Original*%
%TF.FileFunction,Copper,L2,Bot*%
%TF.FilePolarity,Positive*%
%FSLAX46Y46*%
G04 Gerber Fmt 4.6, Leading zero omitted, Abs format (unit mm)*
G04 Created by KiCad (PCBNEW 5.1.7-a382d34a8~87~ubuntu20.04.1) date 2020-10-16 12:11:30*
%MOMM*%
%LPD*%
G01*
G04 APERTURE LIST*
%TA.AperFunction,ComponentPad*%
%ADD10O,2.400000X1.600000*%
%TD*%
%TA.AperFunction,ComponentPad*%
%ADD11R,2.400000X1.600000*%
%TD*%
%TA.AperFunction,ComponentPad*%
%ADD12C,1.600000*%
%TD*%
%TA.AperFunction,ComponentPad*%
%ADD13R,1.600000X1.600000*%
%TD*%
%TA.AperFunction,ComponentPad*%
%ADD14O,1.600000X2.400000*%
%TD*%
%TA.AperFunction,ComponentPad*%
%ADD15R,1.600000X2.400000*%
%TD*%
%TA.AperFunction,ComponentPad*%
%ADD16C,2.000000*%
%TD*%
%TA.AperFunction,ComponentPad*%
%ADD17O,1.400000X1.400000*%
%TD*%
%TA.AperFunction,ComponentPad*%
%ADD18C,1.400000*%
%TD*%
%TA.AperFunction,ComponentPad*%
%ADD19O,3.500000X2.000000*%
%TD*%
%TA.AperFunction,ComponentPad*%
%ADD20O,2.000000X3.300000*%
%TD*%
%TA.AperFunction,ComponentPad*%
%ADD21R,2.000000X4.000000*%
%TD*%
%TA.AperFunction,ViaPad*%
%ADD22C,0.800000*%
%TD*%
%TA.AperFunction,Conductor*%
%ADD23C,0.500000*%
%TD*%
%TA.AperFunction,Conductor*%
%ADD24C,0.250000*%
%TD*%
G04 APERTURE END LIST*
D10*
%TO.P,U3,16*%
%TO.N,VCC*%
X225742000Y-31750000D03*
%TO.P,U3,8*%
%TO.N,Earth*%
X218122000Y-49530000D03*
%TO.P,U3,15*%
%TO.N,MR*%
X225742000Y-34290000D03*
%TO.P,U3,7*%
%TO.N,/clr_seg*%
X218122000Y-46990000D03*
%TO.P,U3,14*%
%TO.N,/M3*%
X225742000Y-36830000D03*
%TO.P,U3,6*%
%TO.N,N/C*%
X218122000Y-44450000D03*
%TO.P,U3,13*%
%TO.N,/M2*%
X225742000Y-39370000D03*
%TO.P,U3,5*%
%TO.N,/Sd2*%
X218122000Y-41910000D03*
%TO.P,U3,12*%
%TO.N,/M1*%
X225742000Y-41910000D03*
%TO.P,U3,4*%
%TO.N,/Sd1*%
X218122000Y-39370000D03*
%TO.P,U3,11*%
%TO.N,/M0*%
X225742000Y-44450000D03*
%TO.P,U3,3*%
%TO.N,/Sd0*%
X218122000Y-36830000D03*
%TO.P,U3,10*%
%TO.N,/Sd2*%
X225742000Y-46990000D03*
%TO.P,U3,2*%
%TO.N,/Su3*%
X218122000Y-34290000D03*
%TO.P,U3,9*%
%TO.N,Earth*%
X225742000Y-49530000D03*
D11*
%TO.P,U3,1*%
X218122000Y-31750000D03*
%TD*%
D12*
%TO.P,U14,10*%
%TO.N,Net-(R28-Pad1)*%
X173355000Y-85725000D03*
%TO.P,U14,9*%
%TO.N,Net-(R29-Pad1)*%
X173355000Y-88265000D03*
%TO.P,U14,8*%
%TO.N,Net-(R30-Pad1)*%
X173355000Y-90805000D03*
%TO.P,U14,7*%
%TO.N,/driver-displays/DP*%
X173355000Y-93345000D03*
%TO.P,U14,6*%
%TO.N,Earth*%
X173355000Y-95885000D03*
%TO.P,U14,5*%
%TO.N,Net-(R31-Pad1)*%
X168275000Y-95885000D03*
%TO.P,U14,4*%
%TO.N,Net-(R32-Pad1)*%
X168275000Y-93345000D03*
%TO.P,U14,3*%
%TO.N,Net-(R34-Pad1)*%
X168275000Y-90805000D03*
%TO.P,U14,2*%
%TO.N,Net-(R33-Pad1)*%
X168275000Y-88265000D03*
D13*
%TO.P,U14,1*%
%TO.N,Earth*%
X168275000Y-85725000D03*
%TD*%
D12*
%TO.P,U13,10*%
%TO.N,Net-(R21-Pad1)*%
X181610000Y-85725000D03*
%TO.P,U13,9*%
%TO.N,Net-(R22-Pad1)*%
X181610000Y-88265000D03*
%TO.P,U13,8*%
%TO.N,Net-(R23-Pad1)*%
X181610000Y-90805000D03*
%TO.P,U13,7*%
%TO.N,Earth*%
X181610000Y-93345000D03*
%TO.P,U13,6*%
X181610000Y-95885000D03*
%TO.P,U13,5*%
%TO.N,Net-(R24-Pad1)*%
X176530000Y-95885000D03*
%TO.P,U13,4*%
%TO.N,Net-(R25-Pad1)*%
X176530000Y-93345000D03*
%TO.P,U13,3*%
%TO.N,Net-(R27-Pad1)*%
X176530000Y-90805000D03*
%TO.P,U13,2*%
%TO.N,Net-(R26-Pad1)*%
X176530000Y-88265000D03*
D13*
%TO.P,U13,1*%
%TO.N,Earth*%
X176530000Y-85725000D03*
%TD*%
D12*
%TO.P,U12,10*%
%TO.N,Net-(R14-Pad1)*%
X189865000Y-85725000D03*
%TO.P,U12,9*%
%TO.N,Net-(R15-Pad1)*%
X189865000Y-88265000D03*
%TO.P,U12,8*%
%TO.N,Net-(R16-Pad1)*%
X189865000Y-90805000D03*
%TO.P,U12,7*%
%TO.N,/driver-displays/DP*%
X189865000Y-93345000D03*
%TO.P,U12,6*%
%TO.N,Earth*%
X189865000Y-95885000D03*
%TO.P,U12,5*%
%TO.N,Net-(R17-Pad1)*%
X184785000Y-95885000D03*
%TO.P,U12,4*%
%TO.N,Net-(R18-Pad1)*%
X184785000Y-93345000D03*
%TO.P,U12,3*%
%TO.N,Net-(R20-Pad1)*%
X184785000Y-90805000D03*
%TO.P,U12,2*%
%TO.N,Net-(R19-Pad1)*%
X184785000Y-88265000D03*
D13*
%TO.P,U12,1*%
%TO.N,Earth*%
X184785000Y-85725000D03*
%TD*%
D12*
%TO.P,U11,10*%
%TO.N,Net-(R7-Pad1)*%
X198120000Y-85725000D03*
%TO.P,U11,9*%
%TO.N,Net-(R8-Pad1)*%
X198120000Y-88265000D03*
%TO.P,U11,8*%
%TO.N,Net-(R9-Pad1)*%
X198120000Y-90805000D03*
%TO.P,U11,7*%
%TO.N,Earth*%
X198120000Y-93345000D03*
%TO.P,U11,6*%
X198120000Y-95885000D03*
%TO.P,U11,5*%
%TO.N,Net-(R10-Pad1)*%
X193040000Y-95885000D03*
%TO.P,U11,4*%
%TO.N,Net-(R11-Pad1)*%
X193040000Y-93345000D03*
%TO.P,U11,3*%
%TO.N,Net-(R13-Pad1)*%
X193040000Y-90805000D03*
%TO.P,U11,2*%
%TO.N,Net-(R12-Pad1)*%
X193040000Y-88265000D03*
D13*
%TO.P,U11,1*%
%TO.N,Earth*%
X193040000Y-85725000D03*
%TD*%
D14*
%TO.P,U10,16*%
%TO.N,VCC*%
X148590000Y-66040000D03*
%TO.P,U10,8*%
%TO.N,Earth*%
X130810000Y-58420000D03*
%TO.P,U10,15*%
%TO.N,Net-(R33-Pad2)*%
X146050000Y-66040000D03*
%TO.P,U10,7*%
%TO.N,/M0*%
X133350000Y-58420000D03*
%TO.P,U10,14*%
%TO.N,Net-(R34-Pad2)*%
X143510000Y-66040000D03*
%TO.P,U10,6*%
%TO.N,/M3*%
X135890000Y-58420000D03*
%TO.P,U10,13*%
%TO.N,Net-(R28-Pad2)*%
X140970000Y-66040000D03*
%TO.P,U10,5*%
%TO.N,Earth*%
X138430000Y-58420000D03*
%TO.P,U10,12*%
%TO.N,Net-(R29-Pad2)*%
X138430000Y-66040000D03*
%TO.P,U10,4*%
%TO.N,VCC*%
X140970000Y-58420000D03*
%TO.P,U10,11*%
%TO.N,Net-(R30-Pad2)*%
X135890000Y-66040000D03*
%TO.P,U10,3*%
%TO.N,VCC*%
X143510000Y-58420000D03*
%TO.P,U10,10*%
%TO.N,Net-(R31-Pad2)*%
X133350000Y-66040000D03*
%TO.P,U10,2*%
%TO.N,/M2*%
X146050000Y-58420000D03*
%TO.P,U10,9*%
%TO.N,Net-(R32-Pad2)*%
X130810000Y-66040000D03*
D15*
%TO.P,U10,1*%
%TO.N,/M1*%
X148590000Y-58420000D03*
%TD*%
D14*
%TO.P,U9,16*%
%TO.N,VCC*%
X178435000Y-66040000D03*
%TO.P,U9,8*%
%TO.N,Earth*%
X160655000Y-58420000D03*
%TO.P,U9,15*%
%TO.N,Net-(R26-Pad2)*%
X175895000Y-66040000D03*
%TO.P,U9,7*%
%TO.N,/Sd0*%
X163195000Y-58420000D03*
%TO.P,U9,14*%
%TO.N,Net-(R27-Pad2)*%
X173355000Y-66040000D03*
%TO.P,U9,6*%
%TO.N,Earth*%
X165735000Y-58420000D03*
%TO.P,U9,13*%
%TO.N,Net-(R21-Pad2)*%
X170815000Y-66040000D03*
%TO.P,U9,5*%
%TO.N,Earth*%
X168275000Y-58420000D03*
%TO.P,U9,12*%
%TO.N,Net-(R22-Pad2)*%
X168275000Y-66040000D03*
%TO.P,U9,4*%
%TO.N,VCC*%
X170815000Y-58420000D03*
%TO.P,U9,11*%
%TO.N,Net-(R23-Pad2)*%
X165735000Y-66040000D03*
%TO.P,U9,3*%
%TO.N,VCC*%
X173355000Y-58420000D03*
%TO.P,U9,10*%
%TO.N,Net-(R24-Pad2)*%
X163195000Y-66040000D03*
%TO.P,U9,2*%
%TO.N,/Sd2*%
X175895000Y-58420000D03*
%TO.P,U9,9*%
%TO.N,Net-(R25-Pad2)*%
X160655000Y-66040000D03*
D15*
%TO.P,U9,1*%
%TO.N,/Sd1*%
X178435000Y-58420000D03*
%TD*%
D14*
%TO.P,U8,16*%
%TO.N,VCC*%
X207645000Y-66040000D03*
%TO.P,U8,8*%
%TO.N,Earth*%
X189865000Y-58420000D03*
%TO.P,U8,15*%
%TO.N,Net-(R19-Pad2)*%
X205105000Y-66040000D03*
%TO.P,U8,7*%
%TO.N,/Su0*%
X192405000Y-58420000D03*
%TO.P,U8,14*%
%TO.N,Net-(R20-Pad2)*%
X202565000Y-66040000D03*
%TO.P,U8,6*%
%TO.N,/Su3*%
X194945000Y-58420000D03*
%TO.P,U8,13*%
%TO.N,Net-(R14-Pad2)*%
X200025000Y-66040000D03*
%TO.P,U8,5*%
%TO.N,Earth*%
X197485000Y-58420000D03*
%TO.P,U8,12*%
%TO.N,Net-(R15-Pad2)*%
X197485000Y-66040000D03*
%TO.P,U8,4*%
%TO.N,VCC*%
X200025000Y-58420000D03*
%TO.P,U8,11*%
%TO.N,Net-(R16-Pad2)*%
X194945000Y-66040000D03*
%TO.P,U8,3*%
%TO.N,VCC*%
X202565000Y-58420000D03*
%TO.P,U8,10*%
%TO.N,Net-(R17-Pad2)*%
X192405000Y-66040000D03*
%TO.P,U8,2*%
%TO.N,/Su2*%
X205105000Y-58420000D03*
%TO.P,U8,9*%
%TO.N,Net-(R18-Pad2)*%
X189865000Y-66040000D03*
D15*
%TO.P,U8,1*%
%TO.N,/Su1*%
X207645000Y-58420000D03*
%TD*%
D14*
%TO.P,U7,16*%
%TO.N,VCC*%
X237490000Y-66040000D03*
%TO.P,U7,8*%
%TO.N,Earth*%
X219710000Y-58420000D03*
%TO.P,U7,15*%
%TO.N,Net-(R12-Pad2)*%
X234950000Y-66040000D03*
%TO.P,U7,7*%
%TO.N,/DS0*%
X222250000Y-58420000D03*
%TO.P,U7,14*%
%TO.N,Net-(R13-Pad2)*%
X232410000Y-66040000D03*
%TO.P,U7,6*%
%TO.N,/DS3*%
X224790000Y-58420000D03*
%TO.P,U7,13*%
%TO.N,Net-(R7-Pad2)*%
X229870000Y-66040000D03*
%TO.P,U7,5*%
%TO.N,Earth*%
X227330000Y-58420000D03*
%TO.P,U7,12*%
%TO.N,Net-(R8-Pad2)*%
X227330000Y-66040000D03*
%TO.P,U7,4*%
%TO.N,VCC*%
X229870000Y-58420000D03*
%TO.P,U7,11*%
%TO.N,Net-(R9-Pad2)*%
X224790000Y-66040000D03*
%TO.P,U7,3*%
%TO.N,VCC*%
X232410000Y-58420000D03*
%TO.P,U7,10*%
%TO.N,Net-(R10-Pad2)*%
X222250000Y-66040000D03*
%TO.P,U7,2*%
%TO.N,/DS2*%
X234950000Y-58420000D03*
%TO.P,U7,9*%
%TO.N,Net-(R11-Pad2)*%
X219710000Y-66040000D03*
D15*
%TO.P,U7,1*%
%TO.N,/DS1*%
X237490000Y-58420000D03*
%TD*%
D10*
%TO.P,U6,14*%
%TO.N,N/C*%
X210185000Y-33020000D03*
%TO.P,U6,7*%
%TO.N,VCC*%
X202565000Y-48260000D03*
%TO.P,U6,13*%
%TO.N,N/C*%
X210185000Y-35560000D03*
%TO.P,U6,6*%
%TO.N,~MR*%
X202565000Y-45720000D03*
%TO.P,U6,12*%
%TO.N,N/C*%
X210185000Y-38100000D03*
%TO.P,U6,5*%
%TO.N,Net-(U5-Pad3)*%
X202565000Y-43180000D03*
%TO.P,U6,11*%
%TO.N,Earth*%
X210185000Y-40640000D03*
%TO.P,U6,4*%
%TO.N,VCC*%
X202565000Y-40640000D03*
%TO.P,U6,10*%
X210185000Y-43180000D03*
%TO.P,U6,3*%
%TO.N,N/C*%
X202565000Y-38100000D03*
%TO.P,U6,9*%
X210185000Y-45720000D03*
%TO.P,U6,2*%
X202565000Y-35560000D03*
%TO.P,U6,8*%
%TO.N,/hab_cont*%
X210185000Y-48260000D03*
D11*
%TO.P,U6,1*%
%TO.N,N/C*%
X202565000Y-33020000D03*
%TD*%
D10*
%TO.P,U5,14*%
%TO.N,VCC*%
X194627000Y-33020000D03*
%TO.P,U5,7*%
%TO.N,Earth*%
X187007000Y-48260000D03*
%TO.P,U5,13*%
%TO.N,N/C*%
X194627000Y-35560000D03*
%TO.P,U5,6*%
X187007000Y-45720000D03*
%TO.P,U5,12*%
X194627000Y-38100000D03*
%TO.P,U5,5*%
X187007000Y-43180000D03*
%TO.P,U5,11*%
X194627000Y-40640000D03*
%TO.P,U5,4*%
X187007000Y-40640000D03*
%TO.P,U5,10*%
X194627000Y-43180000D03*
%TO.P,U5,3*%
%TO.N,Net-(U5-Pad3)*%
X187007000Y-38100000D03*
%TO.P,U5,9*%
%TO.N,N/C*%
X194627000Y-45720000D03*
%TO.P,U5,2*%
%TO.N,Net-(C3-Pad1)*%
X187007000Y-35560000D03*
%TO.P,U5,8*%
%TO.N,N/C*%
X194627000Y-48260000D03*
D11*
%TO.P,U5,1*%
%TO.N,Net-(C3-Pad1)*%
X187007000Y-33020000D03*
%TD*%
D10*
%TO.P,U4,14*%
%TO.N,VCC*%
X179070000Y-33020000D03*
%TO.P,U4,7*%
%TO.N,Earth*%
X171450000Y-48260000D03*
%TO.P,U4,13*%
%TO.N,Net-(U4-Pad13)*%
X179070000Y-35560000D03*
%TO.P,U4,6*%
%TO.N,Net-(C4-Pad1)*%
X171450000Y-45720000D03*
%TO.P,U4,12*%
%TO.N,~MR*%
X179070000Y-38100000D03*
%TO.P,U4,5*%
%TO.N,Net-(C4-Pad1)*%
X171450000Y-43180000D03*
%TO.P,U4,11*%
%TO.N,/clr_seg*%
X179070000Y-40640000D03*
%TO.P,U4,4*%
%TO.N,MR*%
X171450000Y-40640000D03*
%TO.P,U4,10*%
%TO.N,~MR*%
X179070000Y-43180000D03*
%TO.P,U4,3*%
%TO.N,Net-(U4-Pad13)*%
X171450000Y-38100000D03*
%TO.P,U4,9*%
%TO.N,MR*%
X179070000Y-45720000D03*
%TO.P,U4,2*%
%TO.N,/Sd2*%
X171450000Y-35560000D03*
%TO.P,U4,8*%
%TO.N,MR*%
X179070000Y-48260000D03*
D11*
%TO.P,U4,1*%
%TO.N,/Sd1*%
X171450000Y-33020000D03*
%TD*%
D10*
%TO.P,U2,16*%
%TO.N,VCC*%
X241300000Y-31750000D03*
%TO.P,U2,8*%
%TO.N,Earth*%
X233680000Y-49530000D03*
%TO.P,U2,15*%
%TO.N,/clr_seg*%
X241300000Y-34290000D03*
%TO.P,U2,7*%
%TO.N,MR*%
X233680000Y-46990000D03*
%TO.P,U2,14*%
%TO.N,/Su3*%
X241300000Y-36830000D03*
%TO.P,U2,6*%
%TO.N,/DS3*%
X233680000Y-44450000D03*
%TO.P,U2,13*%
%TO.N,/Su2*%
X241300000Y-39370000D03*
%TO.P,U2,5*%
%TO.N,/DS2*%
X233680000Y-41910000D03*
%TO.P,U2,12*%
%TO.N,/Su1*%
X241300000Y-41910000D03*
%TO.P,U2,4*%
%TO.N,/DS1*%
X233680000Y-39370000D03*
%TO.P,U2,11*%
%TO.N,/Su0*%
X241300000Y-44450000D03*
%TO.P,U2,3*%
%TO.N,/DS0*%
X233680000Y-36830000D03*
%TO.P,U2,10*%
%TO.N,/DS3*%
X241300000Y-46990000D03*
%TO.P,U2,2*%
%TO.N,ck*%
X233680000Y-34290000D03*
%TO.P,U2,9*%
%TO.N,Earth*%
X241300000Y-49530000D03*
D11*
%TO.P,U2,1*%
%TO.N,/hab_cont*%
X233680000Y-31750000D03*
%TD*%
D14*
%TO.P,U1,8*%
%TO.N,VCC*%
X158750000Y-43180000D03*
%TO.P,U1,4*%
X151130000Y-35560000D03*
%TO.P,U1,7*%
%TO.N,Net-(R1-Pad2)*%
X156210000Y-43180000D03*
%TO.P,U1,3*%
%TO.N,ck*%
X153670000Y-35560000D03*
%TO.P,U1,6*%
%TO.N,Net-(C2-Pad1)*%
X153670000Y-43180000D03*
%TO.P,U1,2*%
X156210000Y-35560000D03*
%TO.P,U1,5*%
%TO.N,Net-(C1-Pad1)*%
X151130000Y-43180000D03*
D15*
%TO.P,U1,1*%
%TO.N,Earth*%
X158750000Y-35560000D03*
%TD*%
D16*
%TO.P,SW2,1*%
%TO.N,Earth*%
X194460000Y-102235000D03*
%TO.P,SW2,2*%
%TO.N,Net-(C3-Pad1)*%
X194460000Y-106735000D03*
%TO.P,SW2,1*%
%TO.N,Earth*%
X187960000Y-102235000D03*
%TO.P,SW2,2*%
%TO.N,Net-(C3-Pad1)*%
X187960000Y-106735000D03*
%TD*%
%TO.P,SW1,1*%
%TO.N,Earth*%
X177950000Y-102235000D03*
%TO.P,SW1,2*%
%TO.N,Net-(C4-Pad1)*%
X177950000Y-106735000D03*
%TO.P,SW1,1*%
%TO.N,Earth*%
X171450000Y-102235000D03*
%TO.P,SW1,2*%
%TO.N,Net-(C4-Pad1)*%
X171450000Y-106735000D03*
%TD*%
D17*
%TO.P,R34,2*%
%TO.N,Net-(R34-Pad2)*%
X143510000Y-69850000D03*
D18*
%TO.P,R34,1*%
%TO.N,Net-(R34-Pad1)*%
X143510000Y-77470000D03*
%TD*%
D17*
%TO.P,R33,2*%
%TO.N,Net-(R33-Pad2)*%
X146050000Y-69850000D03*
D18*
%TO.P,R33,1*%
%TO.N,Net-(R33-Pad1)*%
X146050000Y-77470000D03*
%TD*%
D17*
%TO.P,R32,2*%
%TO.N,Net-(R32-Pad2)*%
X130810000Y-69850000D03*
D18*
%TO.P,R32,1*%
%TO.N,Net-(R32-Pad1)*%
X130810000Y-77470000D03*
%TD*%
D17*
%TO.P,R31,2*%
%TO.N,Net-(R31-Pad2)*%
X133350000Y-69850000D03*
D18*
%TO.P,R31,1*%
%TO.N,Net-(R31-Pad1)*%
X133350000Y-77470000D03*
%TD*%
D17*
%TO.P,R30,2*%
%TO.N,Net-(R30-Pad2)*%
X135890000Y-69850000D03*
D18*
%TO.P,R30,1*%
%TO.N,Net-(R30-Pad1)*%
X135890000Y-77470000D03*
%TD*%
D17*
%TO.P,R29,2*%
%TO.N,Net-(R29-Pad2)*%
X138430000Y-69850000D03*
D18*
%TO.P,R29,1*%
%TO.N,Net-(R29-Pad1)*%
X138430000Y-77470000D03*
%TD*%
D17*
%TO.P,R28,2*%
%TO.N,Net-(R28-Pad2)*%
X140970000Y-69850000D03*
D18*
%TO.P,R28,1*%
%TO.N,Net-(R28-Pad1)*%
X140970000Y-77470000D03*
%TD*%
D17*
%TO.P,R27,2*%
%TO.N,Net-(R27-Pad2)*%
X173355000Y-69850000D03*
D18*
%TO.P,R27,1*%
%TO.N,Net-(R27-Pad1)*%
X173355000Y-77470000D03*
%TD*%
D17*
%TO.P,R26,2*%
%TO.N,Net-(R26-Pad2)*%
X175895000Y-69850000D03*
D18*
%TO.P,R26,1*%
%TO.N,Net-(R26-Pad1)*%
X175895000Y-77470000D03*
%TD*%
D17*
%TO.P,R25,2*%
%TO.N,Net-(R25-Pad2)*%
X160655000Y-69850000D03*
D18*
%TO.P,R25,1*%
%TO.N,Net-(R25-Pad1)*%
X160655000Y-77470000D03*
%TD*%
D17*
%TO.P,R24,2*%
%TO.N,Net-(R24-Pad2)*%
X163195000Y-69850000D03*
D18*
%TO.P,R24,1*%
%TO.N,Net-(R24-Pad1)*%
X163195000Y-77470000D03*
%TD*%
D17*
%TO.P,R23,2*%
%TO.N,Net-(R23-Pad2)*%
X165735000Y-69850000D03*
D18*
%TO.P,R23,1*%
%TO.N,Net-(R23-Pad1)*%
X165735000Y-77470000D03*
%TD*%
D17*
%TO.P,R22,2*%
%TO.N,Net-(R22-Pad2)*%
X168275000Y-69850000D03*
D18*
%TO.P,R22,1*%
%TO.N,Net-(R22-Pad1)*%
X168275000Y-77470000D03*
%TD*%
D17*
%TO.P,R21,2*%
%TO.N,Net-(R21-Pad2)*%
X170815000Y-69850000D03*
D18*
%TO.P,R21,1*%
%TO.N,Net-(R21-Pad1)*%
X170815000Y-77470000D03*
%TD*%
D17*
%TO.P,R20,2*%
%TO.N,Net-(R20-Pad2)*%
X202565000Y-69850000D03*
D18*
%TO.P,R20,1*%
%TO.N,Net-(R20-Pad1)*%
X202565000Y-77470000D03*
%TD*%
D17*
%TO.P,R19,2*%
%TO.N,Net-(R19-Pad2)*%
X205105000Y-69850000D03*
D18*
%TO.P,R19,1*%
%TO.N,Net-(R19-Pad1)*%
X205105000Y-77470000D03*
%TD*%
D17*
%TO.P,R18,2*%
%TO.N,Net-(R18-Pad2)*%
X189865000Y-69850000D03*
D18*
%TO.P,R18,1*%
%TO.N,Net-(R18-Pad1)*%
X189865000Y-77470000D03*
%TD*%
D17*
%TO.P,R17,2*%
%TO.N,Net-(R17-Pad2)*%
X192405000Y-69850000D03*
D18*
%TO.P,R17,1*%
%TO.N,Net-(R17-Pad1)*%
X192405000Y-77470000D03*
%TD*%
D17*
%TO.P,R16,2*%
%TO.N,Net-(R16-Pad2)*%
X194945000Y-69850000D03*
D18*
%TO.P,R16,1*%
%TO.N,Net-(R16-Pad1)*%
X194945000Y-77470000D03*
%TD*%
D17*
%TO.P,R15,2*%
%TO.N,Net-(R15-Pad2)*%
X197485000Y-69850000D03*
D18*
%TO.P,R15,1*%
%TO.N,Net-(R15-Pad1)*%
X197485000Y-77470000D03*
%TD*%
D17*
%TO.P,R14,2*%
%TO.N,Net-(R14-Pad2)*%
X200025000Y-69850000D03*
D18*
%TO.P,R14,1*%
%TO.N,Net-(R14-Pad1)*%
X200025000Y-77470000D03*
%TD*%
D17*
%TO.P,R13,2*%
%TO.N,Net-(R13-Pad2)*%
X232410000Y-69850000D03*
D18*
%TO.P,R13,1*%
%TO.N,Net-(R13-Pad1)*%
X232410000Y-77470000D03*
%TD*%
D17*
%TO.P,R12,2*%
%TO.N,Net-(R12-Pad2)*%
X234950000Y-69850000D03*
D18*
%TO.P,R12,1*%
%TO.N,Net-(R12-Pad1)*%
X234950000Y-77470000D03*
%TD*%
D17*
%TO.P,R11,2*%
%TO.N,Net-(R11-Pad2)*%
X219710000Y-69850000D03*
D18*
%TO.P,R11,1*%
%TO.N,Net-(R11-Pad1)*%
X219710000Y-77470000D03*
%TD*%
D17*
%TO.P,R10,2*%
%TO.N,Net-(R10-Pad2)*%
X222250000Y-69850000D03*
D18*
%TO.P,R10,1*%
%TO.N,Net-(R10-Pad1)*%
X222250000Y-77470000D03*
%TD*%
D17*
%TO.P,R9,2*%
%TO.N,Net-(R9-Pad2)*%
X224790000Y-69850000D03*
D18*
%TO.P,R9,1*%
%TO.N,Net-(R9-Pad1)*%
X224790000Y-77470000D03*
%TD*%
D17*
%TO.P,R8,2*%
%TO.N,Net-(R8-Pad2)*%
X227330000Y-69850000D03*
D18*
%TO.P,R8,1*%
%TO.N,Net-(R8-Pad1)*%
X227330000Y-77470000D03*
%TD*%
D17*
%TO.P,R7,2*%
%TO.N,Net-(R7-Pad2)*%
X229870000Y-69850000D03*
D18*
%TO.P,R7,1*%
%TO.N,Net-(R7-Pad1)*%
X229870000Y-77470000D03*
%TD*%
D17*
%TO.P,R6,2*%
%TO.N,VCC*%
X182880000Y-69850000D03*
D18*
%TO.P,R6,1*%
%TO.N,/driver-displays/DP*%
X182880000Y-77470000D03*
%TD*%
D17*
%TO.P,R5,2*%
%TO.N,Net-(C4-Pad1)*%
X152400000Y-95595000D03*
D18*
%TO.P,R5,1*%
%TO.N,VCC*%
X152400000Y-87975000D03*
%TD*%
D17*
%TO.P,R4,2*%
%TO.N,Net-(C3-Pad1)*%
X213995000Y-95595000D03*
D18*
%TO.P,R4,1*%
%TO.N,VCC*%
X213995000Y-87975000D03*
%TD*%
D17*
%TO.P,R2,2*%
%TO.N,Net-(C2-Pad1)*%
X146685000Y-47625000D03*
D18*
%TO.P,R2,1*%
%TO.N,Net-(R1-Pad2)*%
X154305000Y-47625000D03*
%TD*%
D17*
%TO.P,R1,2*%
%TO.N,Net-(R1-Pad2)*%
X158115000Y-47625000D03*
D18*
%TO.P,R1,1*%
%TO.N,VCC*%
X165735000Y-47625000D03*
%TD*%
D19*
%TO.P,J1,MP*%
%TO.N,N/C*%
X132700000Y-45140000D03*
X132700000Y-36140000D03*
D20*
%TO.P,J1,2*%
%TO.N,Earth*%
X133700000Y-40640000D03*
D21*
%TO.P,J1,1*%
%TO.N,VCC*%
X139700000Y-40640000D03*
%TD*%
D12*
%TO.P,C15,2*%
%TO.N,Earth*%
X205145000Y-27940000D03*
%TO.P,C15,1*%
%TO.N,VCC*%
X207645000Y-27940000D03*
%TD*%
%TO.P,C14,2*%
%TO.N,Earth*%
X152400000Y-61000000D03*
%TO.P,C14,1*%
%TO.N,VCC*%
X152400000Y-63500000D03*
%TD*%
%TO.P,C13,2*%
%TO.N,Earth*%
X182245000Y-61000000D03*
%TO.P,C13,1*%
%TO.N,VCC*%
X182245000Y-63500000D03*
%TD*%
%TO.P,C12,2*%
%TO.N,Earth*%
X211455000Y-61000000D03*
%TO.P,C12,1*%
%TO.N,VCC*%
X211455000Y-63500000D03*
%TD*%
%TO.P,C11,2*%
%TO.N,Earth*%
X241300000Y-61000000D03*
%TO.P,C11,1*%
%TO.N,VCC*%
X241300000Y-63500000D03*
%TD*%
%TO.P,C10,2*%
%TO.N,Earth*%
X174030000Y-27940000D03*
%TO.P,C10,1*%
%TO.N,VCC*%
X176530000Y-27940000D03*
%TD*%
%TO.P,C9,2*%
%TO.N,Earth*%
X189588000Y-27940000D03*
%TO.P,C9,1*%
%TO.N,VCC*%
X192088000Y-27940000D03*
%TD*%
%TO.P,C8,2*%
%TO.N,Earth*%
X220702000Y-27940000D03*
%TO.P,C8,1*%
%TO.N,VCC*%
X223202000Y-27940000D03*
%TD*%
%TO.P,C7,2*%
%TO.N,Earth*%
X236260000Y-27940000D03*
%TO.P,C7,1*%
%TO.N,VCC*%
X238760000Y-27940000D03*
%TD*%
%TO.P,C6,2*%
%TO.N,Earth*%
X165060000Y-36195000D03*
D13*
%TO.P,C6,1*%
%TO.N,VCC*%
X162560000Y-36195000D03*
%TD*%
D12*
%TO.P,C5,2*%
%TO.N,Earth*%
X165060000Y-42545000D03*
D13*
%TO.P,C5,1*%
%TO.N,VCC*%
X162560000Y-42545000D03*
%TD*%
D12*
%TO.P,C4,2*%
%TO.N,Earth*%
X157480000Y-90490100D03*
D13*
%TO.P,C4,1*%
%TO.N,Net-(C4-Pad1)*%
X157480000Y-92990100D03*
%TD*%
D12*
%TO.P,C3,2*%
%TO.N,Earth*%
X208915000Y-90490100D03*
D13*
%TO.P,C3,1*%
%TO.N,Net-(C3-Pad1)*%
X208915000Y-92990100D03*
%TD*%
D12*
%TO.P,C2,2*%
%TO.N,Earth*%
X147320000Y-40680000D03*
%TO.P,C2,1*%
%TO.N,Net-(C2-Pad1)*%
X147320000Y-43180000D03*
%TD*%
%TO.P,C1,2*%
%TO.N,Earth*%
X147320000Y-34965000D03*
%TO.P,C1,1*%
%TO.N,Net-(C1-Pad1)*%
X147320000Y-37465000D03*
%TD*%
D22*
%TO.N,MR*%
X187256400Y-53011100D03*
%TO.N,/Sd2*%
X175895000Y-52362700D03*
%TO.N,/clr_seg*%
X214015100Y-45090500D03*
%TO.N,/Sd0*%
X204900300Y-53443000D03*
%TD*%
D23*
%TO.N,Earth*%
X236260000Y-27940000D02*
X238592100Y-30272100D01*
X238592100Y-30272100D02*
X238592100Y-47672200D01*
X238592100Y-47672200D02*
X240449900Y-49530000D01*
X184785000Y-62649800D02*
X184785000Y-85725000D01*
X189865000Y-57569800D02*
X184785000Y-62649800D01*
X182245000Y-61000000D02*
X183894800Y-62649800D01*
X183894800Y-62649800D02*
X184785000Y-62649800D01*
X189865000Y-57569800D02*
X189865000Y-56719700D01*
X189865000Y-58420000D02*
X189865000Y-57569800D01*
X177950000Y-100405000D02*
X173430000Y-100405000D01*
X173430000Y-100405000D02*
X173355000Y-100330000D01*
X181610000Y-95885000D02*
X181610000Y-96745000D01*
X181610000Y-96745000D02*
X177950000Y-100405000D01*
X177950000Y-100405000D02*
X177950000Y-102235000D01*
X173355000Y-100330000D02*
X173355000Y-95885000D01*
X171450000Y-102235000D02*
X173355000Y-100330000D01*
X165060000Y-36195000D02*
X173315000Y-27940000D01*
X173315000Y-27940000D02*
X174030000Y-27940000D01*
X173355000Y-95885000D02*
X170216700Y-92746700D01*
X170216700Y-92746700D02*
X170216700Y-87666700D01*
X170216700Y-87666700D02*
X168275000Y-85725000D01*
X240449900Y-49530000D02*
X241300000Y-50380100D01*
X241300000Y-50380100D02*
X241300000Y-61000000D01*
X241300000Y-49530000D02*
X240449900Y-49530000D01*
X218122000Y-31750000D02*
X219822300Y-31750000D01*
X220702000Y-27940000D02*
X219822300Y-28819700D01*
X219822300Y-28819700D02*
X219822300Y-31750000D01*
X198120000Y-93345000D02*
X198120000Y-95885000D01*
X193040000Y-85725000D02*
X195580000Y-88265000D01*
X195580000Y-88265000D02*
X195580000Y-90805000D01*
X195580000Y-90805000D02*
X198120000Y-93345000D01*
X181610000Y-93345000D02*
X181610000Y-95885000D01*
X225742000Y-49530000D02*
X219822300Y-49530000D01*
X135013700Y-56719700D02*
X130810000Y-56719700D01*
X138430000Y-56719700D02*
X135013700Y-56719700D01*
X135013700Y-56719700D02*
X135013700Y-44104000D01*
X135013700Y-44104000D02*
X133700000Y-42790300D01*
X133700000Y-40640000D02*
X133700000Y-42790300D01*
X130810000Y-58420000D02*
X130810000Y-56719700D01*
X138430000Y-58420000D02*
X138430000Y-56719700D01*
X218122000Y-49530000D02*
X219822300Y-49530000D01*
X219710000Y-58420000D02*
X219710000Y-56719700D01*
X219710000Y-56719700D02*
X219822300Y-56607400D01*
X219822300Y-56607400D02*
X219822300Y-49530000D01*
X227330000Y-58420000D02*
X227330000Y-56719700D01*
X233680000Y-49530000D02*
X233680000Y-50369700D01*
X233680000Y-50369700D02*
X227330000Y-56719700D01*
X198120000Y-95885000D02*
X194460000Y-99545000D01*
X194460000Y-99545000D02*
X194460000Y-102235000D01*
X218122000Y-31750000D02*
X216421700Y-31750000D01*
X210185000Y-40640000D02*
X211885300Y-40640000D01*
X211885300Y-40640000D02*
X211885300Y-36286400D01*
X211885300Y-36286400D02*
X216421700Y-31750000D01*
X187007000Y-48260000D02*
X188707300Y-48260000D01*
X188707300Y-48260000D02*
X188707300Y-55562000D01*
X188707300Y-55562000D02*
X189865000Y-56719700D01*
X171450000Y-48260000D02*
X169749700Y-48260000D01*
X165060000Y-42545000D02*
X169749700Y-47234700D01*
X169749700Y-47234700D02*
X169749700Y-48260000D01*
D24*
%TO.N,Net-(C1-Pad1)*%
X147320000Y-37465000D02*
X151130000Y-41275000D01*
X151130000Y-41275000D02*
X151130000Y-43180000D01*
%TO.N,Net-(C2-Pad1)*%
X156210000Y-35560000D02*
X156210000Y-37135300D01*
X153670000Y-43180000D02*
X153670000Y-39675300D01*
X153670000Y-39675300D02*
X156210000Y-37135300D01*
%TO.N,Net-(C3-Pad1)*%
X188578000Y-35560000D02*
X188582300Y-35564300D01*
X188582300Y-35564300D02*
X188582300Y-44437300D01*
X188582300Y-44437300D02*
X193675000Y-49530000D01*
X193675000Y-49530000D02*
X193675000Y-59979800D01*
X193675000Y-59979800D02*
X198755000Y-65059800D01*
X198755000Y-65059800D02*
X198755000Y-71489300D01*
X198755000Y-71489300D02*
X203680900Y-76415200D01*
X203680900Y-76415200D02*
X203680900Y-88931300D01*
X203680900Y-88931300D02*
X207739700Y-92990100D01*
X188582300Y-33020000D02*
X188582300Y-35555700D01*
X188582300Y-35555700D02*
X188578000Y-35560000D01*
X188457200Y-35560000D02*
X188578000Y-35560000D01*
X207739700Y-92990100D02*
X207739700Y-93455300D01*
X207739700Y-93455300D02*
X194460000Y-106735000D01*
X187007000Y-35560000D02*
X188457200Y-35560000D01*
X187007000Y-33020000D02*
X188582300Y-33020000D01*
X208915000Y-92990100D02*
X207739700Y-92990100D01*
%TO.N,Net-(C4-Pad1)*%
X171450000Y-43180000D02*
X173025300Y-43180000D01*
X171450000Y-45720000D02*
X173025300Y-45720000D01*
X177950000Y-106735000D02*
X183609700Y-101075300D01*
X183609700Y-101075300D02*
X183609700Y-78586500D01*
X183609700Y-78586500D02*
X183970500Y-78225700D01*
X183970500Y-78225700D02*
X183970500Y-73074100D01*
X183970500Y-73074100D02*
X179965400Y-69069000D01*
X179965400Y-69069000D02*
X179965400Y-64965900D01*
X179965400Y-64965900D02*
X174625000Y-59625500D01*
X174625000Y-59625500D02*
X174625000Y-47319700D01*
X174625000Y-47319700D02*
X173025300Y-45720000D01*
X157480000Y-92990100D02*
X158655300Y-92990100D01*
X158655300Y-92990100D02*
X158655300Y-93940300D01*
X158655300Y-93940300D02*
X171450000Y-106735000D01*
X173025300Y-43180000D02*
X173025300Y-45720000D01*
D23*
%TO.N,VCC*%
X202565000Y-40640000D02*
X200864700Y-40640000D01*
X198596000Y-34238000D02*
X198596000Y-38371300D01*
X198596000Y-38371300D02*
X200864700Y-40640000D01*
X198596000Y-34238000D02*
X197545300Y-34238000D01*
X197545300Y-34238000D02*
X196327300Y-33020000D01*
X207645000Y-27940000D02*
X206042900Y-29542100D01*
X206042900Y-29542100D02*
X203291900Y-29542100D01*
X203291900Y-29542100D02*
X198596000Y-34238000D01*
X202565000Y-40640000D02*
X205944700Y-40640000D01*
X205944700Y-40640000D02*
X208484700Y-43180000D01*
X161909900Y-36195000D02*
X171484800Y-26620100D01*
X171484800Y-26620100D02*
X175210100Y-26620100D01*
X175210100Y-26620100D02*
X176530000Y-27940000D01*
X161909900Y-36195000D02*
X161259700Y-36195000D01*
X162560000Y-36195000D02*
X161909900Y-36195000D01*
X194627000Y-33020000D02*
X196327300Y-33020000D01*
X202565000Y-48260000D02*
X204265300Y-48260000D01*
X204265300Y-48260000D02*
X204265300Y-47399400D01*
X204265300Y-47399400D02*
X208484700Y-43180000D01*
X202565000Y-58420000D02*
X202565000Y-48260000D01*
X173355000Y-58420000D02*
X173355000Y-56719700D01*
X170815000Y-57569800D02*
X171665100Y-56719700D01*
X171665100Y-56719700D02*
X173355000Y-56719700D01*
X170815000Y-57569800D02*
X170815000Y-56719700D01*
X170815000Y-58420000D02*
X170815000Y-57569800D01*
X165735000Y-47625000D02*
X165735000Y-51639700D01*
X165735000Y-51639700D02*
X170815000Y-56719700D01*
X162560000Y-42545000D02*
X162560000Y-44450000D01*
X162560000Y-44450000D02*
X165735000Y-47625000D01*
X179070000Y-33020000D02*
X177369700Y-33020000D01*
X177369700Y-33020000D02*
X177369700Y-28779700D01*
X177369700Y-28779700D02*
X176530000Y-27940000D01*
X148590000Y-66040000D02*
X148590000Y-67740300D01*
X148590000Y-67740300D02*
X152400000Y-71550300D01*
X152400000Y-71550300D02*
X152400000Y-87975000D01*
X178435000Y-66040000D02*
X178435000Y-64339700D01*
X173355000Y-58420000D02*
X173355000Y-60120300D01*
X178435000Y-64339700D02*
X177574400Y-64339700D01*
X177574400Y-64339700D02*
X173355000Y-60120300D01*
X139700000Y-40640000D02*
X139700000Y-38139700D01*
X151130000Y-33859700D02*
X150934900Y-33664600D01*
X150934900Y-33664600D02*
X144175100Y-33664600D01*
X144175100Y-33664600D02*
X139700000Y-38139700D01*
X151130000Y-33949800D02*
X151130000Y-33859700D01*
X151130000Y-35560000D02*
X151130000Y-33949800D01*
X210185000Y-43180000D02*
X208484700Y-43180000D01*
X151130000Y-33859700D02*
X159818400Y-33859700D01*
X159818400Y-33859700D02*
X161259700Y-35301000D01*
X161259700Y-35301000D02*
X161259700Y-36195000D01*
X213995000Y-87975000D02*
X207645000Y-81625000D01*
X207645000Y-81625000D02*
X207645000Y-66040000D01*
X139700000Y-40640000D02*
X139700000Y-43140300D01*
X139700000Y-43140300D02*
X140970000Y-44410300D01*
X140970000Y-44410300D02*
X140970000Y-58420000D01*
X162560000Y-36195000D02*
X162560000Y-42545000D01*
D24*
%TO.N,Net-(R1-Pad2)*%
X156210000Y-45720000D02*
X154305000Y-47625000D01*
X156210000Y-44630200D02*
X156210000Y-45720000D01*
X156210000Y-43180000D02*
X156210000Y-44630200D01*
X158115000Y-47625000D02*
X156210000Y-45720000D01*
%TO.N,/driver-displays/DP*%
X182880000Y-77470000D02*
X182880000Y-91224400D01*
X182880000Y-91224400D02*
X182029400Y-92075000D01*
X182029400Y-92075000D02*
X181120500Y-92075000D01*
X181120500Y-92075000D02*
X178330300Y-94865200D01*
X178330300Y-94865200D02*
X178330300Y-95797200D01*
X178330300Y-95797200D02*
X177056500Y-97071000D01*
X177056500Y-97071000D02*
X175988900Y-97071000D01*
X175988900Y-97071000D02*
X175354600Y-96436700D01*
X175354600Y-96436700D02*
X175354600Y-96034200D01*
X175354600Y-96034200D02*
X173355000Y-94034600D01*
X173355000Y-94034600D02*
X173355000Y-93345000D01*
%TO.N,Net-(R7-Pad2)*%
X229870000Y-69850000D02*
X229870000Y-66040000D01*
%TO.N,Net-(R8-Pad2)*%
X227330000Y-69850000D02*
X227330000Y-66040000D01*
%TO.N,Net-(R9-Pad2)*%
X224790000Y-69850000D02*
X224790000Y-66040000D01*
%TO.N,Net-(R10-Pad2)*%
X222250000Y-69850000D02*
X222250000Y-66040000D01*
%TO.N,Net-(R10-Pad1)*%
X222250000Y-77470000D02*
X222250000Y-81848200D01*
X222250000Y-81848200D02*
X195977400Y-108120800D01*
X195977400Y-108120800D02*
X193887300Y-108120800D01*
X193887300Y-108120800D02*
X193040000Y-107273500D01*
X193040000Y-107273500D02*
X193040000Y-95885000D01*
%TO.N,Net-(R11-Pad2)*%
X219710000Y-69850000D02*
X219710000Y-66040000D01*
%TO.N,Net-(R12-Pad2)*%
X234950000Y-69850000D02*
X234950000Y-66040000D01*
%TO.N,Net-(R13-Pad2)*%
X232410000Y-69850000D02*
X232410000Y-66040000D01*
%TO.N,Net-(R14-Pad2)*%
X200025000Y-69850000D02*
X200025000Y-66040000D01*
%TO.N,Net-(R14-Pad1)*%
X200025000Y-77470000D02*
X192947200Y-84547800D01*
X192947200Y-84547800D02*
X191042200Y-84547800D01*
X191042200Y-84547800D02*
X189865000Y-85725000D01*
%TO.N,Net-(R15-Pad2)*%
X197485000Y-69850000D02*
X197485000Y-66040000D01*
%TO.N,Net-(R15-Pad1)*%
X197485000Y-77470000D02*
X196409600Y-78545400D01*
X196409600Y-78545400D02*
X195356400Y-78545400D01*
X195356400Y-78545400D02*
X188688000Y-85213800D01*
X188688000Y-85213800D02*
X188688000Y-87088000D01*
X188688000Y-87088000D02*
X189865000Y-88265000D01*
%TO.N,Net-(R16-Pad2)*%
X194945000Y-69850000D02*
X194945000Y-66040000D01*
%TO.N,Net-(R16-Pad1)*%
X194945000Y-77470000D02*
X188187700Y-84227300D01*
X188187700Y-84227300D02*
X188187700Y-89127700D01*
X188187700Y-89127700D02*
X189865000Y-90805000D01*
%TO.N,Net-(R17-Pad2)*%
X192405000Y-69850000D02*
X192405000Y-66040000D01*
%TO.N,Net-(R17-Pad1)*%
X184785000Y-95885000D02*
X187650400Y-93019600D01*
X187650400Y-93019600D02*
X187650400Y-82224600D01*
X187650400Y-82224600D02*
X192405000Y-77470000D01*
%TO.N,Net-(R18-Pad2)*%
X189865000Y-69850000D02*
X189865000Y-66040000D01*
%TO.N,Net-(R18-Pad1)*%
X184785000Y-93345000D02*
X186962600Y-91167400D01*
X186962600Y-91167400D02*
X186962600Y-80372400D01*
X186962600Y-80372400D02*
X189865000Y-77470000D01*
%TO.N,Net-(R19-Pad2)*%
X205105000Y-69850000D02*
X205105000Y-66040000D01*
%TO.N,Net-(R20-Pad1)*%
X202565000Y-77470000D02*
X201457600Y-76362600D01*
X201457600Y-76362600D02*
X189435500Y-76362600D01*
X189435500Y-76362600D02*
X186149600Y-79648500D01*
X186149600Y-79648500D02*
X186149600Y-89440400D01*
X186149600Y-89440400D02*
X184785000Y-90805000D01*
%TO.N,Net-(R21-Pad2)*%
X170815000Y-69850000D02*
X170815000Y-66040000D01*
%TO.N,Net-(R21-Pad1)*%
X181610000Y-85725000D02*
X177967700Y-82082700D01*
X177967700Y-82082700D02*
X175427700Y-82082700D01*
X175427700Y-82082700D02*
X170815000Y-77470000D01*
%TO.N,Net-(R22-Pad2)*%
X168275000Y-69850000D02*
X168275000Y-66040000D01*
%TO.N,Net-(R22-Pad1)*%
X181610000Y-88265000D02*
X181610000Y-87868300D01*
X181610000Y-87868300D02*
X176574700Y-82833000D01*
X176574700Y-82833000D02*
X173638000Y-82833000D01*
X173638000Y-82833000D02*
X168275000Y-77470000D01*
%TO.N,Net-(R23-Pad2)*%
X165735000Y-69850000D02*
X165735000Y-66040000D01*
%TO.N,Net-(R23-Pad1)*%
X165735000Y-77470000D02*
X172698500Y-84433500D01*
X172698500Y-84433500D02*
X177383000Y-84433500D01*
X177383000Y-84433500D02*
X180245400Y-87295900D01*
X180245400Y-87295900D02*
X180245400Y-89440400D01*
X180245400Y-89440400D02*
X181610000Y-90805000D01*
%TO.N,Net-(R24-Pad2)*%
X163195000Y-69850000D02*
X163195000Y-66040000D01*
%TO.N,Net-(R24-Pad1)*%
X163195000Y-77470000D02*
X170996800Y-85271800D01*
X170996800Y-85271800D02*
X170996800Y-90116700D01*
X170996800Y-90116700D02*
X172860500Y-91980400D01*
X172860500Y-91980400D02*
X173717600Y-91980400D01*
X173717600Y-91980400D02*
X174530400Y-92793200D01*
X174530400Y-92793200D02*
X174530400Y-93885400D01*
X174530400Y-93885400D02*
X176530000Y-95885000D01*
%TO.N,Net-(R25-Pad2)*%
X160655000Y-69850000D02*
X160655000Y-66040000D01*
%TO.N,Net-(R25-Pad1)*%
X160655000Y-77470000D02*
X161741300Y-76383700D01*
X161741300Y-76383700D02*
X163644900Y-76383700D01*
X163644900Y-76383700D02*
X164465000Y-77203800D01*
X164465000Y-77203800D02*
X164465000Y-78032300D01*
X164465000Y-78032300D02*
X171786300Y-85353600D01*
X171786300Y-85353600D02*
X171786300Y-88369100D01*
X171786300Y-88369100D02*
X172952200Y-89535000D01*
X172952200Y-89535000D02*
X173830900Y-89535000D01*
X173830900Y-89535000D02*
X175165400Y-90869500D01*
X175165400Y-90869500D02*
X175165400Y-91980400D01*
X175165400Y-91980400D02*
X176530000Y-93345000D01*
%TO.N,Net-(R26-Pad2)*%
X175895000Y-69850000D02*
X175895000Y-66040000D01*
%TO.N,Net-(R27-Pad2)*%
X173355000Y-69850000D02*
X173355000Y-66040000D01*
%TO.N,Net-(R28-Pad2)*%
X140970000Y-69850000D02*
X140970000Y-66040000D01*
%TO.N,Net-(R29-Pad2)*%
X138430000Y-69850000D02*
X138430000Y-66040000D01*
%TO.N,Net-(R30-Pad2)*%
X135890000Y-69850000D02*
X135890000Y-66040000D01*
%TO.N,Net-(R31-Pad2)*%
X133350000Y-69850000D02*
X133350000Y-66040000D01*
%TO.N,Net-(R32-Pad2)*%
X130810000Y-69850000D02*
X130810000Y-66040000D01*
%TO.N,Net-(R32-Pad1)*%
X130810000Y-77470000D02*
X145154700Y-91814700D01*
X145154700Y-91814700D02*
X166744700Y-91814700D01*
X166744700Y-91814700D02*
X168275000Y-93345000D01*
%TO.N,Net-(R33-Pad2)*%
X146050000Y-69850000D02*
X146050000Y-66040000D01*
%TO.N,Net-(R33-Pad1)*%
X146050000Y-77470000D02*
X146050000Y-83155300D01*
X146050000Y-83155300D02*
X151946400Y-89051700D01*
X151946400Y-89051700D02*
X153219300Y-89051700D01*
X153219300Y-89051700D02*
X154006000Y-88265000D01*
X154006000Y-88265000D02*
X168275000Y-88265000D01*
%TO.N,Net-(R34-Pad2)*%
X143510000Y-69850000D02*
X143510000Y-66040000D01*
%TO.N,Net-(R34-Pad1)*%
X143510000Y-77470000D02*
X143510000Y-81400900D01*
X143510000Y-81400900D02*
X151661200Y-89552100D01*
X151661200Y-89552100D02*
X154840900Y-89552100D01*
X154840900Y-89552100D02*
X155097000Y-89296000D01*
X155097000Y-89296000D02*
X166766000Y-89296000D01*
X166766000Y-89296000D02*
X168275000Y-90805000D01*
%TO.N,MR*%
X233680000Y-46990000D02*
X235255300Y-46990000D01*
X225742000Y-34290000D02*
X227317300Y-34290000D01*
X235255300Y-46990000D02*
X235255300Y-43877500D01*
X235255300Y-43877500D02*
X234557800Y-43180000D01*
X234557800Y-43180000D02*
X232871200Y-43180000D01*
X232871200Y-43180000D02*
X232072300Y-42381100D01*
X232072300Y-42381100D02*
X232072300Y-38903900D01*
X232072300Y-38903900D02*
X232876200Y-38100000D01*
X232876200Y-38100000D02*
X234511900Y-38100000D01*
X234511900Y-38100000D02*
X235255400Y-37356500D01*
X235255400Y-37356500D02*
X235255400Y-30745400D01*
X235255400Y-30745400D02*
X235057000Y-30547000D01*
X235057000Y-30547000D02*
X231060300Y-30547000D01*
X231060300Y-30547000D02*
X227317300Y-34290000D01*
X180645300Y-48260000D02*
X180645300Y-45720000D01*
X179857700Y-48260000D02*
X180645300Y-48260000D01*
X180645300Y-48260000D02*
X185396400Y-53011100D01*
X185396400Y-53011100D02*
X187256400Y-53011100D01*
X179070000Y-48260000D02*
X179857700Y-48260000D01*
X179070000Y-45720000D02*
X180645300Y-45720000D01*
%TO.N,/DS3*%
X233680000Y-44450000D02*
X232104700Y-44450000D01*
X224790000Y-58420000D02*
X224790000Y-56844700D01*
X232104700Y-44450000D02*
X232104700Y-49530000D01*
X232104700Y-49530000D02*
X224790000Y-56844700D01*
%TO.N,/DS2*%
X234950000Y-56844700D02*
X235755600Y-56039100D01*
X235755600Y-56039100D02*
X235755600Y-42410300D01*
X235755600Y-42410300D02*
X235255300Y-41910000D01*
X233680000Y-41910000D02*
X235255300Y-41910000D01*
X234950000Y-58420000D02*
X234950000Y-56844700D01*
%TO.N,/DS1*%
X237490000Y-56844700D02*
X237490000Y-41604700D01*
X237490000Y-41604700D02*
X235255300Y-39370000D01*
X237490000Y-58420000D02*
X237490000Y-56844700D01*
X233680000Y-39370000D02*
X235255300Y-39370000D01*
%TO.N,/DS0*%
X232104700Y-36830000D02*
X230978000Y-37956700D01*
X230978000Y-37956700D02*
X230978000Y-48116700D01*
X230978000Y-48116700D02*
X222250000Y-56844700D01*
X222250000Y-58420000D02*
X222250000Y-56844700D01*
X233680000Y-36830000D02*
X232104700Y-36830000D01*
%TO.N,/Sd2*%
X218122000Y-41910000D02*
X219697300Y-41910000D01*
X225742000Y-46990000D02*
X224166700Y-46990000D01*
X224166700Y-46990000D02*
X219697300Y-42520600D01*
X219697300Y-42520600D02*
X219697300Y-41910000D01*
X173025300Y-35560000D02*
X175895000Y-38429700D01*
X175895000Y-38429700D02*
X175895000Y-52362700D01*
X175895000Y-52362700D02*
X175895000Y-56844700D01*
X175895000Y-57632300D02*
X175895000Y-58420000D01*
X175895000Y-57632300D02*
X175895000Y-56844700D01*
X171450000Y-35560000D02*
X173025300Y-35560000D01*
%TO.N,/hab_cont*%
X211760300Y-48260000D02*
X226597400Y-48260000D01*
X226597400Y-48260000D02*
X229711000Y-45146400D01*
X229711000Y-45146400D02*
X229711000Y-34143700D01*
X229711000Y-34143700D02*
X232104700Y-31750000D01*
X233680000Y-31750000D02*
X232104700Y-31750000D01*
X210185000Y-48260000D02*
X211760300Y-48260000D01*
%TO.N,/clr_seg*%
X216546700Y-46990000D02*
X214647200Y-45090500D01*
X214647200Y-45090500D02*
X214015100Y-45090500D01*
X218122000Y-46990000D02*
X216546700Y-46990000D01*
%TO.N,/Su3*%
X216546700Y-34290000D02*
X216046400Y-34790300D01*
X216046400Y-34790300D02*
X216046400Y-39424100D01*
X216046400Y-39424100D02*
X211020500Y-44450000D01*
X211020500Y-44450000D02*
X209392700Y-44450000D01*
X209392700Y-44450000D02*
X203901500Y-49941200D01*
X203901500Y-49941200D02*
X203901500Y-59182200D01*
X203901500Y-59182200D02*
X203088400Y-59995300D01*
X203088400Y-59995300D02*
X194945000Y-59995300D01*
X218122000Y-34290000D02*
X216546700Y-34290000D01*
X194945000Y-58420000D02*
X194945000Y-59995300D01*
%TO.N,/Sd1*%
X218122000Y-39370000D02*
X216546700Y-39370000D01*
X176946100Y-34290000D02*
X179867900Y-34290000D01*
X179867900Y-34290000D02*
X187418700Y-26739200D01*
X187418700Y-26739200D02*
X221216700Y-26739200D01*
X221216700Y-26739200D02*
X221932000Y-27454500D01*
X221932000Y-27454500D02*
X221932000Y-32550100D01*
X221932000Y-32550100D02*
X218922100Y-35560000D01*
X218922100Y-35560000D02*
X217311000Y-35560000D01*
X217311000Y-35560000D02*
X216546700Y-36324300D01*
X216546700Y-36324300D02*
X216546700Y-39370000D01*
X173025300Y-33020000D02*
X174295300Y-34290000D01*
X174295300Y-34290000D02*
X176946100Y-34290000D01*
X176946100Y-34290000D02*
X176946100Y-55355800D01*
X176946100Y-55355800D02*
X178435000Y-56844700D01*
X178435000Y-58420000D02*
X178435000Y-56844700D01*
X171450000Y-33020000D02*
X173025300Y-33020000D01*
%TO.N,/Su1*%
X207645000Y-58420000D02*
X207645000Y-59995300D01*
X241300000Y-41910000D02*
X242875300Y-41910000D01*
X242875300Y-41910000D02*
X242875300Y-61090000D01*
X242875300Y-61090000D02*
X241735300Y-62230000D01*
X241735300Y-62230000D02*
X214579500Y-62230000D01*
X214579500Y-62230000D02*
X212147900Y-59798400D01*
X212147900Y-59798400D02*
X210769500Y-59798400D01*
X210769500Y-59798400D02*
X210572600Y-59995300D01*
X210572600Y-59995300D02*
X207645000Y-59995300D01*
%TO.N,/Sd0*%
X218122000Y-36830000D02*
X219697300Y-36830000D01*
X204900300Y-53443000D02*
X204900300Y-51477800D01*
X204900300Y-51477800D02*
X209321600Y-47056500D01*
X209321600Y-47056500D02*
X210926400Y-47056500D01*
X210926400Y-47056500D02*
X214448000Y-43534900D01*
X214448000Y-43534900D02*
X214448000Y-43447200D01*
X214448000Y-43447200D02*
X217188700Y-40706500D01*
X217188700Y-40706500D02*
X218897200Y-40706500D01*
X218897200Y-40706500D02*
X219697300Y-39906400D01*
X219697300Y-39906400D02*
X219697300Y-36830000D01*
%TO.N,~MR*%
X179070000Y-38100000D02*
X177494700Y-38100000D01*
X179070000Y-43180000D02*
X177494700Y-43180000D01*
X177494700Y-43180000D02*
X177494700Y-38100000D01*
%TD*%
M02*
