M48
; DRILL file {KiCad 5.1.7-a382d34a8~87~ubuntu20.04.1} date Fri Oct 16 12:12:17 2020
; FORMAT={-:-/ absolute / inch / decimal}
; #@! TF.CreationDate,2020-10-16T12:12:17-03:00
; #@! TF.GenerationSoftware,Kicad,Pcbnew,5.1.7-a382d34a8~87~ubuntu20.04.1
; #@! TF.FileFunction,Plated,1,2,PTH
FMAT,2
INCH
T1C0.0157
T2C0.0276
T3C0.0315
T4C0.0394
T5C0.0433
%
G90
G05
T1
X6.925Y-2.0615
X7.3723Y-2.0871
X8.0669Y-2.1041
X8.4258Y-1.7752
T2
X5.25Y-2.75
X5.25Y-3.05
X8.075Y-2.75
X8.075Y-3.05
X7.775Y-2.75
X7.775Y-3.05
X9.15Y-2.75
X9.15Y-3.05
X8.65Y-2.75
X8.65Y-3.05
X6.325Y-2.75
X6.325Y-3.05
X7.975Y-2.75
X7.975Y-3.05
X5.65Y-2.75
X5.65Y-3.05
X6.825Y-2.75
X6.825Y-3.05
X7.875Y-2.75
X7.875Y-3.05
X6.925Y-2.75
X6.925Y-3.05
X5.75Y-2.75
X5.75Y-3.05
X6.725Y-2.75
X6.725Y-3.05
X6.525Y-2.75
X6.525Y-3.05
X5.55Y-2.75
X5.55Y-3.05
X9.05Y-2.75
X9.05Y-3.05
X6.225Y-1.875
X6.525Y-1.875
X5.15Y-2.75
X5.15Y-3.05
X7.675Y-2.75
X7.675Y-3.05
X5.775Y-1.875
X6.075Y-1.875
X6.625Y-2.75
X6.625Y-3.05
X8.75Y-2.75
X8.75Y-3.05
X5.45Y-2.75
X5.45Y-3.05
X9.25Y-2.75
X9.25Y-3.05
X5.35Y-2.75
X5.35Y-3.05
X8.85Y-2.75
X8.85Y-3.05
X7.2Y-2.75
X7.2Y-3.05
X7.575Y-2.75
X7.575Y-3.05
X7.475Y-2.75
X7.475Y-3.05
X8.95Y-2.75
X8.95Y-3.05
X6.0Y-3.4636
X6.0Y-3.7636
X8.425Y-3.4636
X8.425Y-3.7636
X6.425Y-2.75
X6.425Y-3.05
T3
X7.4641Y-1.1
X7.5625Y-1.1
X7.6Y-3.375
X7.6Y-3.475
X7.6Y-3.575
X7.6Y-3.675
X7.6Y-3.775
X7.8Y-3.375
X7.8Y-3.475
X7.8Y-3.575
X7.8Y-3.675
X7.8Y-3.775
X6.75Y-1.3
X6.75Y-1.4
X6.75Y-1.5
X6.75Y-1.6
X6.75Y-1.7
X6.75Y-1.8
X6.75Y-1.9
X7.05Y-1.3
X7.05Y-1.4
X7.05Y-1.5
X7.05Y-1.6
X7.05Y-1.7
X7.05Y-1.8
X7.05Y-1.9
X6.4Y-1.425
X6.4984Y-1.425
X9.3016Y-1.1
X9.4Y-1.1
X8.6891Y-1.1
X8.7875Y-1.1
X8.225Y-3.5626
X8.225Y-3.661
X6.0Y-2.4016
X6.0Y-2.5
X6.8516Y-1.1
X6.95Y-1.1
X8.0766Y-1.1
X8.175Y-1.1
X7.175Y-2.4016
X7.175Y-2.5
X6.325Y-2.3
X6.325Y-2.6
X6.425Y-2.3
X6.425Y-2.6
X6.525Y-2.3
X6.525Y-2.6
X6.625Y-2.3
X6.625Y-2.6
X6.725Y-2.3
X6.725Y-2.6
X6.825Y-2.3
X6.825Y-2.6
X6.925Y-2.3
X6.925Y-2.6
X7.025Y-2.3
X7.025Y-2.6
X6.2Y-3.5626
X6.2Y-3.661
X7.975Y-1.3
X7.975Y-1.4
X7.975Y-1.5
X7.975Y-1.6
X7.975Y-1.7
X7.975Y-1.8
X7.975Y-1.9
X8.275Y-1.3
X8.275Y-1.4
X8.275Y-1.5
X8.275Y-1.6
X8.275Y-1.7
X8.275Y-1.8
X8.275Y-1.9
X7.3625Y-1.3
X7.3625Y-1.4
X7.3625Y-1.5
X7.3625Y-1.6
X7.3625Y-1.7
X7.3625Y-1.8
X7.3625Y-1.9
X7.6625Y-1.3
X7.6625Y-1.4
X7.6625Y-1.5
X7.6625Y-1.6
X7.6625Y-1.7
X7.6625Y-1.8
X7.6625Y-1.9
X7.475Y-2.3
X7.475Y-2.6
X7.575Y-2.3
X7.575Y-2.6
X7.675Y-2.3
X7.675Y-2.6
X7.775Y-2.3
X7.775Y-2.6
X7.875Y-2.3
X7.875Y-2.6
X7.975Y-2.3
X7.975Y-2.6
X8.075Y-2.3
X8.075Y-2.6
X8.175Y-2.3
X8.175Y-2.6
X6.95Y-3.375
X6.95Y-3.475
X6.95Y-3.575
X6.95Y-3.675
X6.95Y-3.775
X7.15Y-3.375
X7.15Y-3.475
X7.15Y-3.575
X7.15Y-3.675
X7.15Y-3.775
X5.15Y-2.3
X5.15Y-2.6
X5.25Y-2.3
X5.25Y-2.6
X5.35Y-2.3
X5.35Y-2.6
X5.45Y-2.3
X5.45Y-2.6
X5.55Y-2.3
X5.55Y-2.6
X5.65Y-2.3
X5.65Y-2.6
X5.75Y-2.3
X5.75Y-2.6
X5.85Y-2.3
X5.85Y-2.6
X7.275Y-3.375
X7.275Y-3.475
X7.275Y-3.575
X7.275Y-3.675
X7.275Y-3.775
X7.475Y-3.375
X7.475Y-3.475
X7.475Y-3.575
X7.475Y-3.675
X7.475Y-3.775
X8.325Y-2.4016
X8.325Y-2.5
X5.8Y-1.6016
X5.8Y-1.7
X9.5Y-2.4016
X9.5Y-2.5
X6.625Y-3.375
X6.625Y-3.475
X6.625Y-3.575
X6.625Y-3.675
X6.625Y-3.775
X6.825Y-3.375
X6.825Y-3.475
X6.825Y-3.575
X6.825Y-3.675
X6.825Y-3.775
X6.4Y-1.675
X6.4984Y-1.675
X8.65Y-2.3
X8.65Y-2.6
X8.75Y-2.3
X8.75Y-2.6
X8.85Y-2.3
X8.85Y-2.6
X8.95Y-2.3
X8.95Y-2.6
X9.05Y-2.3
X9.05Y-2.6
X9.15Y-2.3
X9.15Y-2.6
X9.25Y-2.3
X9.25Y-2.6
X9.35Y-2.3
X9.35Y-2.6
X5.8Y-1.3766
X5.8Y-1.475
X9.2Y-1.25
X9.2Y-1.35
X9.2Y-1.45
X9.2Y-1.55
X9.2Y-1.65
X9.2Y-1.75
X9.2Y-1.85
X9.2Y-1.95
X9.5Y-1.25
X9.5Y-1.35
X9.5Y-1.45
X9.5Y-1.55
X9.5Y-1.65
X9.5Y-1.75
X9.5Y-1.85
X9.5Y-1.95
X5.95Y-1.4
X5.95Y-1.7
X6.05Y-1.4
X6.05Y-1.7
X6.15Y-1.4
X6.15Y-1.7
X6.25Y-1.4
X6.25Y-1.7
X8.5875Y-1.25
X8.5875Y-1.35
X8.5875Y-1.45
X8.5875Y-1.55
X8.5875Y-1.65
X8.5875Y-1.75
X8.5875Y-1.85
X8.5875Y-1.95
X8.8875Y-1.25
X8.8875Y-1.35
X8.8875Y-1.45
X8.8875Y-1.55
X8.8875Y-1.65
X8.8875Y-1.75
X8.8875Y-1.85
X8.8875Y-1.95
T5
X6.75Y-4.025
X6.75Y-4.2022
X7.0059Y-4.025
X7.0059Y-4.2022
X7.4Y-4.025
X7.4Y-4.2022
X7.6559Y-4.025
X7.6559Y-4.2022
T4
G00X5.2539Y-1.4228
M15
G01X5.1949Y-1.4228
M16
G05
G00X5.2539Y-1.7772
M15
G01X5.1949Y-1.7772
M16
G05
G00X5.2638Y-1.5744
M15
G01X5.2638Y-1.6256
M16
G05
G00X5.5Y-1.5606
M15
G01X5.5Y-1.6394
M16
G05
T0
M30
