<?xml version="1.0" encoding="UTF-8" standalone="no"?>
<!-- Created with Digital by H.Neemann -->
<!-- created: Sun Apr 10 23:28:41 BRT 2022 -->

<svg
   xmlns:svg="http://www.w3.org/2000/svg"
   xmlns="http://www.w3.org/2000/svg"
   width="97.8mm"
   height="32.1mm"
   viewBox="58 3 652 214">
<g stroke-linecap="square">
<text text-anchor="end" x="133.0" y="31.0" fill="#000000" style="font-size:24px">SAF</text>
<line x1="135.0" y1="5.0" x2="708.0" y2="5.0" stroke="#000000" stroke-linecap="square" stroke-width="1.0" stroke-dasharray="4.0,4.0" />
<text text-anchor="end" x="133.0" y="66.0" fill="#000000" style="font-size:24px">SAQ</text>
<line x1="135.0" y1="40.0" x2="708.0" y2="40.0" stroke="#000000" stroke-linecap="square" stroke-width="1.0" stroke-dasharray="4.0,4.0" />
<text text-anchor="end" x="133.0" y="101.0" fill="#000000" style="font-size:24px">TAF</text>
<line x1="135.0" y1="75.0" x2="708.0" y2="75.0" stroke="#000000" stroke-linecap="square" stroke-width="1.0" stroke-dasharray="4.0,4.0" />
<text text-anchor="end" x="133.0" y="136.0" fill="#000000" style="font-size:24px">TAQ</text>
<line x1="135.0" y1="110.0" x2="708.0" y2="110.0" stroke="#000000" stroke-linecap="square" stroke-width="1.0" stroke-dasharray="4.0,4.0" />
<text text-anchor="end" x="133.0" y="171.0" fill="#000000" style="font-size:24px">VAF1</text>
<line x1="135.0" y1="145.0" x2="708.0" y2="145.0" stroke="#000000" stroke-linecap="square" stroke-width="1.0" stroke-dasharray="4.0,4.0" />
<text text-anchor="end" x="133.0" y="206.0" fill="#000000" style="font-size:24px">VAF1_</text>
<line x1="135.0" y1="180.0" x2="708.0" y2="180.0" stroke="#000000" stroke-linecap="square" stroke-width="1.0" stroke-dasharray="4.0,4.0" />
<line x1="135.0" y1="215.0" x2="708.0" y2="215.0" stroke="#000000" stroke-linecap="square" stroke-width="1.0" stroke-dasharray="4.0,4.0" />
<line x1="135.0" y1="5.0" x2="135.0" y2="215.0" stroke="#000000" stroke-linecap="square" stroke-width="1.0" stroke-dasharray="4.0,4.0" />
<line x1="135.0" y1="10.0" x2="197.0" y2="10.0" stroke="#000000" stroke-linecap="square" stroke-width="4.0" />
<line x1="135.0" y1="45.0" x2="197.0" y2="45.0" stroke="#000000" stroke-linecap="square" stroke-width="4.0" />
<line x1="135.0" y1="105.0" x2="197.0" y2="105.0" stroke="#000000" stroke-linecap="square" stroke-width="4.0" />
<line x1="135.0" y1="115.0" x2="197.0" y2="115.0" stroke="#000000" stroke-linecap="square" stroke-width="4.0" />
<line x1="135.0" y1="175.0" x2="197.0" y2="175.0" stroke="#000000" stroke-linecap="square" stroke-width="4.0" />
<line x1="135.0" y1="185.0" x2="197.0" y2="185.0" stroke="#000000" stroke-linecap="square" stroke-width="4.0" />
<line x1="197.0" y1="5.0" x2="197.0" y2="215.0" stroke="#000000" stroke-linecap="square" stroke-width="1.0" stroke-dasharray="4.0,4.0" />
<line x1="197.0" y1="10.0" x2="260.0" y2="10.0" stroke="#000000" stroke-linecap="square" stroke-width="4.0" />
<line x1="197.0" y1="45.0" x2="260.0" y2="45.0" stroke="#000000" stroke-linecap="square" stroke-width="4.0" />
<line x1="197.0" y1="105.0" x2="260.0" y2="105.0" stroke="#000000" stroke-linecap="square" stroke-width="4.0" />
<line x1="197.0" y1="140.0" x2="260.0" y2="140.0" stroke="#000000" stroke-linecap="square" stroke-width="4.0" />
<line x1="197.0" y1="115.0" x2="197.0" y2="140.0" stroke="#000000" stroke-linecap="square" stroke-width="4.0" />
<line x1="197.0" y1="175.0" x2="260.0" y2="175.0" stroke="#000000" stroke-linecap="square" stroke-width="4.0" />
<line x1="197.0" y1="210.0" x2="260.0" y2="210.0" stroke="#000000" stroke-linecap="square" stroke-width="4.0" />
<line x1="197.0" y1="185.0" x2="197.0" y2="210.0" stroke="#000000" stroke-linecap="square" stroke-width="4.0" />
<line x1="260.0" y1="5.0" x2="260.0" y2="215.0" stroke="#000000" stroke-linecap="square" stroke-width="1.0" stroke-dasharray="4.0,4.0" />
<line x1="260.0" y1="10.0" x2="323.0" y2="10.0" stroke="#000000" stroke-linecap="square" stroke-width="4.0" />
<line x1="260.0" y1="45.0" x2="323.0" y2="45.0" stroke="#000000" stroke-linecap="square" stroke-width="4.0" />
<line x1="260.0" y1="80.0" x2="323.0" y2="80.0" stroke="#000000" stroke-linecap="square" stroke-width="4.0" />
<line x1="260.0" y1="105.0" x2="260.0" y2="80.0" stroke="#000000" stroke-linecap="square" stroke-width="4.0" />
<line x1="260.0" y1="140.0" x2="323.0" y2="140.0" stroke="#000000" stroke-linecap="square" stroke-width="4.0" />
<line x1="260.0" y1="175.0" x2="323.0" y2="175.0" stroke="#000000" stroke-linecap="square" stroke-width="4.0" />
<line x1="260.0" y1="210.0" x2="323.0" y2="210.0" stroke="#000000" stroke-linecap="square" stroke-width="4.0" />
<line x1="323.0" y1="5.0" x2="323.0" y2="215.0" stroke="#000000" stroke-linecap="square" stroke-width="1.0" stroke-dasharray="4.0,4.0" />
<line x1="323.0" y1="10.0" x2="386.0" y2="10.0" stroke="#000000" stroke-linecap="square" stroke-width="4.0" />
<line x1="323.0" y1="45.0" x2="386.0" y2="45.0" stroke="#000000" stroke-linecap="square" stroke-width="4.0" />
<line x1="323.0" y1="80.0" x2="386.0" y2="80.0" stroke="#000000" stroke-linecap="square" stroke-width="4.0" />
<line x1="323.0" y1="115.0" x2="386.0" y2="115.0" stroke="#000000" stroke-linecap="square" stroke-width="4.0" />
<line x1="323.0" y1="140.0" x2="323.0" y2="115.0" stroke="#000000" stroke-linecap="square" stroke-width="4.0" />
<line x1="323.0" y1="175.0" x2="386.0" y2="175.0" stroke="#000000" stroke-linecap="square" stroke-width="4.0" />
<line x1="323.0" y1="210.0" x2="386.0" y2="210.0" stroke="#000000" stroke-linecap="square" stroke-width="4.0" />
<line x1="386.0" y1="5.0" x2="386.0" y2="215.0" stroke="#000000" stroke-linecap="square" stroke-width="1.0" stroke-dasharray="4.0,4.0" />
<line x1="386.0" y1="10.0" x2="449.0" y2="10.0" stroke="#000000" stroke-linecap="square" stroke-width="4.0" />
<line x1="386.0" y1="70.0" x2="449.0" y2="70.0" stroke="#000000" stroke-linecap="square" stroke-width="4.0" />
<line x1="386.0" y1="45.0" x2="386.0" y2="70.0" stroke="#000000" stroke-linecap="square" stroke-width="4.0" />
<line x1="386.0" y1="80.0" x2="449.0" y2="80.0" stroke="#000000" stroke-linecap="square" stroke-width="4.0" />
<line x1="386.0" y1="115.0" x2="449.0" y2="115.0" stroke="#000000" stroke-linecap="square" stroke-width="4.0" />
<line x1="386.0" y1="175.0" x2="449.0" y2="175.0" stroke="#000000" stroke-linecap="square" stroke-width="4.0" />
<line x1="386.0" y1="210.0" x2="449.0" y2="210.0" stroke="#000000" stroke-linecap="square" stroke-width="4.0" />
<line x1="449.0" y1="5.0" x2="449.0" y2="215.0" stroke="#000000" stroke-linecap="square" stroke-width="1.0" stroke-dasharray="4.0,4.0" />
<line x1="449.0" y1="10.0" x2="511.0" y2="10.0" stroke="#000000" stroke-linecap="square" stroke-width="4.0" />
<line x1="449.0" y1="70.0" x2="511.0" y2="70.0" stroke="#000000" stroke-linecap="square" stroke-width="4.0" />
<line x1="449.0" y1="105.0" x2="511.0" y2="105.0" stroke="#000000" stroke-linecap="square" stroke-width="4.0" />
<line x1="449.0" y1="80.0" x2="449.0" y2="105.0" stroke="#000000" stroke-linecap="square" stroke-width="4.0" />
<line x1="449.0" y1="115.0" x2="511.0" y2="115.0" stroke="#000000" stroke-linecap="square" stroke-width="4.0" />
<line x1="449.0" y1="175.0" x2="511.0" y2="175.0" stroke="#000000" stroke-linecap="square" stroke-width="4.0" />
<line x1="449.0" y1="185.0" x2="511.0" y2="185.0" stroke="#000000" stroke-linecap="square" stroke-width="4.0" />
<line x1="449.0" y1="210.0" x2="449.0" y2="185.0" stroke="#000000" stroke-linecap="square" stroke-width="4.0" />
<line x1="511.0" y1="5.0" x2="511.0" y2="215.0" stroke="#000000" stroke-linecap="square" stroke-width="1.0" stroke-dasharray="4.0,4.0" />
<line x1="511.0" y1="10.0" x2="574.0" y2="10.0" stroke="#000000" stroke-linecap="square" stroke-width="4.0" />
<line x1="511.0" y1="70.0" x2="574.0" y2="70.0" stroke="#000000" stroke-linecap="square" stroke-width="4.0" />
<line x1="511.0" y1="105.0" x2="574.0" y2="105.0" stroke="#000000" stroke-linecap="square" stroke-width="4.0" />
<line x1="511.0" y1="140.0" x2="574.0" y2="140.0" stroke="#000000" stroke-linecap="square" stroke-width="4.0" />
<line x1="511.0" y1="115.0" x2="511.0" y2="140.0" stroke="#000000" stroke-linecap="square" stroke-width="4.0" />
<line x1="511.0" y1="175.0" x2="574.0" y2="175.0" stroke="#000000" stroke-linecap="square" stroke-width="4.0" />
<line x1="511.0" y1="185.0" x2="574.0" y2="185.0" stroke="#000000" stroke-linecap="square" stroke-width="4.0" />
<line x1="574.0" y1="5.0" x2="574.0" y2="215.0" stroke="#000000" stroke-linecap="square" stroke-width="1.0" stroke-dasharray="4.0,4.0" />
<line x1="574.0" y1="10.0" x2="637.0" y2="10.0" stroke="#000000" stroke-linecap="square" stroke-width="4.0" />
<line x1="574.0" y1="70.0" x2="637.0" y2="70.0" stroke="#000000" stroke-linecap="square" stroke-width="4.0" />
<line x1="574.0" y1="80.0" x2="637.0" y2="80.0" stroke="#000000" stroke-linecap="square" stroke-width="4.0" />
<line x1="574.0" y1="105.0" x2="574.0" y2="80.0" stroke="#000000" stroke-linecap="square" stroke-width="4.0" />
<line x1="574.0" y1="140.0" x2="637.0" y2="140.0" stroke="#000000" stroke-linecap="square" stroke-width="4.0" />
<line x1="574.0" y1="175.0" x2="637.0" y2="175.0" stroke="#000000" stroke-linecap="square" stroke-width="4.0" />
<line x1="574.0" y1="210.0" x2="637.0" y2="210.0" stroke="#000000" stroke-linecap="square" stroke-width="4.0" />
<line x1="574.0" y1="185.0" x2="574.0" y2="210.0" stroke="#000000" stroke-linecap="square" stroke-width="4.0" />
<line x1="708.0" y1="5.0" x2="708.0" y2="215.0" stroke="#000000" stroke-linecap="square" stroke-width="1.0" stroke-dasharray="4.0,4.0" />
</g>
</svg>