{"id": "T0", "fps": {"num": 30, "den": 1}, "width": 1280, "height": 720, "sample_rate": 44100, "channels": 2, "channel_layout": 3, "settings": {}, "clips": [{"alpha": {"Points": [{"co": {"X": 1, "Y": 1}, "interpolation": 2}]}, "anchor": 0, "channel_filter": {"Points": [{"co": {"X": 1, "Y": -1}, "interpolation": 2}]}, "channel_mapping": {"Points": [{"co": {"X": 1, "Y": -1}, "interpolation": 2}]}, "crop_height": {"Points": [{"co": {"X": 1, "Y": -1}, "interpolation": 2}]}, "crop_width": {"Points": [{"co": {"X": 1, "Y": -1}, "interpolation": 2}]}, "crop_x": {"Points": [{"co": {"X": 1, "Y": 0}, "interpolation": 2}]}, "crop_y": {"Points": [{"co": {"X": 1, "Y": 0}, "interpolation": 2}]}, "display": 0, "duration": 1371.0, "effects": [], "end": 76.03333333333333, "gravity": 4, "has_audio": {"Points": [{"co": {"X": 1, "Y": -1}, "interpolation": 2}]}, "has_video": {"Points": [{"co": {"X": 1, "Y": -1}, "interpolation": 2}]}, "id": "W3XZDHJXGQ", "layer": 4, "location_x": {"Points": [{"co": {"X": 1, "Y": 0}, "interpolation": 2}]}, "location_y": {"Points": [{"co": {"X": 1, "Y": 0}, "interpolation": 2}]}, "mixing": 0, "perspective_c1_x": {"Points": [{"co": {"X": 1, "Y": -1}, "interpolation": 2}]}, "perspective_c1_y": {"Points": [{"co": {"X": 1, "Y": -1}, "interpolation": 2}]}, "perspective_c2_x": {"Points": [{"co": {"X": 1, "Y": -1}, "interpolation": 2}]}, "perspective_c2_y": {"Points": [{"co": {"X": 1, "Y": -1}, "interpolation": 2}]}, "perspective_c3_x": {"Points": [{"co": {"X": 1, "Y": -1}, "interpolation": 2}]}, "perspective_c3_y": {"Points": [{"co": {"X": 1, "Y": -1}, "interpolation": 2}]}, "perspective_c4_x": {"Points": [{"co": {"X": 1, "Y": -1}, "interpolation": 2}]}, "perspective_c4_y": {"Points": [{"co": {"X": 1, "Y": -1}, "interpolation": 2}]}, "position": 0, "reader": {"acodec": "aac", "audio_bit_rate": 0, "audio_stream_index": 1, "audio_timebase": {"den": 1000, "num": 1}, "channel_layout": 3, "channels": 2, "display_ratio": {"den": 9, "num": 16}, "duration": 1371.0, "file_size": "456740423", "fps": {"den": 1, "num": 15}, "has_audio": true, "has_single_image": false, "has_video": true, "height": 720, "interlaced_frame": false, "metadata": {"DURATION": "00:22:51.580000000", "ENCODER": "Lavf58.29.100", "title": "Track1"}, "path": "../brutos/uso-do-protoboard#bruto.mkv", "pixel_format": 0, "pixel_ratio": {"den": 1, "num": 1}, "sample_rate": 44100, "top_field_first": true, "type": "FFmpegReader", "vcodec": "h264", "video_bit_rate": 332933, "video_length": "20565", "video_stream_index": 0, "video_timebase": {"den": 1000, "num": 1}, "width": 1280}, "rotation": {"Points": [{"co": {"X": 1, "Y": 0}, "interpolation": 2}]}, "scale": 1, "scale_x": {"Points": [{"co": {"X": 1, "Y": 1}, "interpolation": 2}]}, "scale_y": {"Points": [{"co": {"X": 1, "Y": 1}, "interpolation": 2}]}, "shear_x": {"Points": [{"co": {"X": 1, "Y": 0}, "interpolation": 2}]}, "shear_y": {"Points": [{"co": {"X": 1, "Y": 0}, "interpolation": 2}]}, "start": 0, "time": {"Points": [{"co": {"X": 1, "Y": 1}, "interpolation": 2}]}, "volume": {"Points": [{"co": {"X": 1, "Y": 1}, "interpolation": 2}]}, "wave_color": {"alpha": {"Points": [{"co": {"X": 1, "Y": 255}, "handle_left": {"X": 0.5, "Y": 1}, "handle_right": {"X": 0.5, "Y": 0}, "handle_type": 0, "interpolation": 0}]}, "blue": {"Points": [{"co": {"X": 1, "Y": 255}, "handle_left": {"X": 0.5, "Y": 1}, "handle_right": {"X": 0.5, "Y": 0}, "handle_type": 0, "interpolation": 0}]}, "green": {"Points": [{"co": {"X": 1, "Y": 123}, "handle_left": {"X": 0.5, "Y": 1}, "handle_right": {"X": 0.5, "Y": 0}, "handle_type": 0, "interpolation": 0}]}, "red": {"Points": [{"co": {"X": 1, "Y": 0}, "handle_left": {"X": 0.5, "Y": 1}, "handle_right": {"X": 0.5, "Y": 0}, "handle_type": 0, "interpolation": 0}]}}, "waveform": false, "file_id": "POT0C18IYF", "title": "uso-do-protoboard#bruto.mkv", "image": "../../../../../../.openshot_qt/thumbnail/POT0C18IYF.png"}, {"alpha": {"Points": [{"co": {"X": 1, "Y": 1}, "interpolation": 2}]}, "anchor": 0, "channel_filter": {"Points": [{"co": {"X": 1, "Y": -1}, "interpolation": 2}]}, "channel_mapping": {"Points": [{"co": {"X": 1, "Y": -1}, "interpolation": 2}]}, "crop_height": {"Points": [{"co": {"X": 1, "Y": -1}, "interpolation": 2}]}, "crop_width": {"Points": [{"co": {"X": 1, "Y": -1}, "interpolation": 2}]}, "crop_x": {"Points": [{"co": {"X": 1, "Y": 0}, "interpolation": 2}]}, "crop_y": {"Points": [{"co": {"X": 1, "Y": 0}, "interpolation": 2}]}, "display": 0, "duration": 1371.0, "effects": [], "end": 124.76666666666667, "gravity": 4, "has_audio": {"Points": [{"co": {"X": 1, "Y": -1}, "interpolation": 2}]}, "has_video": {"Points": [{"co": {"X": 1, "Y": -1}, "interpolation": 2}]}, "layer": 4, "location_x": {"Points": [{"co": {"X": 1, "Y": 0}, "interpolation": 2}]}, "location_y": {"Points": [{"co": {"X": 1, "Y": 0}, "interpolation": 2}]}, "mixing": 0, "perspective_c1_x": {"Points": [{"co": {"X": 1, "Y": -1}, "interpolation": 2}]}, "perspective_c1_y": {"Points": [{"co": {"X": 1, "Y": -1}, "interpolation": 2}]}, "perspective_c2_x": {"Points": [{"co": {"X": 1, "Y": -1}, "interpolation": 2}]}, "perspective_c2_y": {"Points": [{"co": {"X": 1, "Y": -1}, "interpolation": 2}]}, "perspective_c3_x": {"Points": [{"co": {"X": 1, "Y": -1}, "interpolation": 2}]}, "perspective_c3_y": {"Points": [{"co": {"X": 1, "Y": -1}, "interpolation": 2}]}, "perspective_c4_x": {"Points": [{"co": {"X": 1, "Y": -1}, "interpolation": 2}]}, "perspective_c4_y": {"Points": [{"co": {"X": 1, "Y": -1}, "interpolation": 2}]}, "position": 76.03333333333333, "reader": {"acodec": "aac", "audio_bit_rate": 0, "audio_stream_index": 1, "audio_timebase": {"den": 1000, "num": 1}, "channel_layout": 3, "channels": 2, "display_ratio": {"den": 9, "num": 16}, "duration": 1371.0, "file_size": "456740423", "fps": {"den": 1, "num": 15}, "has_audio": true, "has_single_image": false, "has_video": true, "height": 720, "interlaced_frame": false, "metadata": {"DURATION": "00:22:51.580000000", "ENCODER": "Lavf58.29.100", "title": "Track1"}, "path": "../brutos/uso-do-protoboard#bruto.mkv", "pixel_format": 0, "pixel_ratio": {"den": 1, "num": 1}, "sample_rate": 44100, "top_field_first": true, "type": "FFmpegReader", "vcodec": "h264", "video_bit_rate": 332933, "video_length": "20565", "video_stream_index": 0, "video_timebase": {"den": 1000, "num": 1}, "width": 1280}, "rotation": {"Points": [{"co": {"X": 1, "Y": 0}, "interpolation": 2}]}, "scale": 1, "scale_x": {"Points": [{"co": {"X": 1, "Y": 1}, "interpolation": 2}]}, "scale_y": {"Points": [{"co": {"X": 1, "Y": 1}, "interpolation": 2}]}, "shear_x": {"Points": [{"co": {"X": 1, "Y": 0}, "interpolation": 2}]}, "shear_y": {"Points": [{"co": {"X": 1, "Y": 0}, "interpolation": 2}]}, "start": 76.1, "time": {"Points": [{"co": {"X": 1, "Y": 1}, "interpolation": 2}]}, "volume": {"Points": [{"co": {"X": 1, "Y": 1}, "interpolation": 2}]}, "wave_color": {"alpha": {"Points": [{"co": {"X": 1, "Y": 255}, "handle_left": {"X": 0.5, "Y": 1}, "handle_right": {"X": 0.5, "Y": 0}, "handle_type": 0, "interpolation": 0}]}, "blue": {"Points": [{"co": {"X": 1, "Y": 255}, "handle_left": {"X": 0.5, "Y": 1}, "handle_right": {"X": 0.5, "Y": 0}, "handle_type": 0, "interpolation": 0}]}, "green": {"Points": [{"co": {"X": 1, "Y": 123}, "handle_left": {"X": 0.5, "Y": 1}, "handle_right": {"X": 0.5, "Y": 0}, "handle_type": 0, "interpolation": 0}]}, "red": {"Points": [{"co": {"X": 1, "Y": 0}, "handle_left": {"X": 0.5, "Y": 1}, "handle_right": {"X": 0.5, "Y": 0}, "handle_type": 0, "interpolation": 0}]}}, "waveform": false, "file_id": "POT0C18IYF", "title": "uso-do-protoboard#bruto.mkv", "image": "../../../../../../.openshot_qt/thumbnail/BPH4G1I1FK-1143.png", "id": "BPH4G1I1FK"}, {"alpha": {"Points": [{"co": {"X": 1, "Y": 1}, "interpolation": 2}, {"co": {"X": 4962, "Y": 1}, "handle_left": {"X": 0.5, "Y": 1}, "handle_right": {"X": 0.5, "Y": 0}, "handle_type": 0, "interpolation": 0}, {"co": {"X": 4992, "Y": 0}, "handle_left": {"X": 0.5, "Y": 1}, "handle_right": {"X": 0.5, "Y": 0}, "handle_type": 0, "interpolation": 0}]}, "anchor": 0, "channel_filter": {"Points": [{"co": {"X": 1, "Y": -1}, "interpolation": 2}]}, "channel_mapping": {"Points": [{"co": {"X": 1, "Y": -1}, "interpolation": 2}]}, "crop_height": {"Points": [{"co": {"X": 1, "Y": -1}, "interpolation": 2}]}, "crop_width": {"Points": [{"co": {"X": 1, "Y": -1}, "interpolation": 2}]}, "crop_x": {"Points": [{"co": {"X": 1, "Y": 0}, "interpolation": 2}]}, "crop_y": {"Points": [{"co": {"X": 1, "Y": 0}, "interpolation": 2}]}, "display": 0, "duration": 1371.0, "effects": [], "end": 166.36666666666667, "gravity": 4, "has_audio": {"Points": [{"co": {"X": 1, "Y": -1}, "interpolation": 2}]}, "has_video": {"Points": [{"co": {"X": 1, "Y": -1}, "interpolation": 2}]}, "layer": 4, "location_x": {"Points": [{"co": {"X": 1, "Y": 0}, "interpolation": 2}]}, "location_y": {"Points": [{"co": {"X": 1, "Y": 0}, "interpolation": 2}]}, "mixing": 0, "perspective_c1_x": {"Points": [{"co": {"X": 1, "Y": -1}, "interpolation": 2}]}, "perspective_c1_y": {"Points": [{"co": {"X": 1, "Y": -1}, "interpolation": 2}]}, "perspective_c2_x": {"Points": [{"co": {"X": 1, "Y": -1}, "interpolation": 2}]}, "perspective_c2_y": {"Points": [{"co": {"X": 1, "Y": -1}, "interpolation": 2}]}, "perspective_c3_x": {"Points": [{"co": {"X": 1, "Y": -1}, "interpolation": 2}]}, "perspective_c3_y": {"Points": [{"co": {"X": 1, "Y": -1}, "interpolation": 2}]}, "perspective_c4_x": {"Points": [{"co": {"X": 1, "Y": -1}, "interpolation": 2}]}, "perspective_c4_y": {"Points": [{"co": {"X": 1, "Y": -1}, "interpolation": 2}]}, "position": 124.7, "reader": {"acodec": "aac", "audio_bit_rate": 0, "audio_stream_index": 1, "audio_timebase": {"den": 1000, "num": 1}, "channel_layout": 3, "channels": 2, "display_ratio": {"den": 9, "num": 16}, "duration": 1371.0, "file_size": "456740423", "fps": {"den": 1, "num": 15}, "has_audio": true, "has_single_image": false, "has_video": true, "height": 720, "interlaced_frame": false, "metadata": {"DURATION": "00:22:51.580000000", "ENCODER": "Lavf58.29.100", "title": "Track1"}, "path": "../brutos/uso-do-protoboard#bruto.mkv", "pixel_format": 0, "pixel_ratio": {"den": 1, "num": 1}, "sample_rate": 44100, "top_field_first": true, "type": "FFmpegReader", "vcodec": "h264", "video_bit_rate": 332933, "video_length": "20565", "video_stream_index": 0, "video_timebase": {"den": 1000, "num": 1}, "width": 1280}, "rotation": {"Points": [{"co": {"X": 1, "Y": 0}, "interpolation": 2}]}, "scale": 1, "scale_x": {"Points": [{"co": {"X": 1, "Y": 1}, "interpolation": 2}]}, "scale_y": {"Points": [{"co": {"X": 1, "Y": 1}, "interpolation": 2}]}, "shear_x": {"Points": [{"co": {"X": 1, "Y": 0}, "interpolation": 2}]}, "shear_y": {"Points": [{"co": {"X": 1, "Y": 0}, "interpolation": 2}]}, "start": 146.63333333333333, "time": {"Points": [{"co": {"X": 1, "Y": 1}, "interpolation": 2}]}, "volume": {"Points": [{"co": {"X": 1, "Y": 1}, "interpolation": 2}]}, "wave_color": {"alpha": {"Points": [{"co": {"X": 1, "Y": 255}, "handle_left": {"X": 0.5, "Y": 1}, "handle_right": {"X": 0.5, "Y": 0}, "handle_type": 0, "interpolation": 0}]}, "blue": {"Points": [{"co": {"X": 1, "Y": 255}, "handle_left": {"X": 0.5, "Y": 1}, "handle_right": {"X": 0.5, "Y": 0}, "handle_type": 0, "interpolation": 0}]}, "green": {"Points": [{"co": {"X": 1, "Y": 123}, "handle_left": {"X": 0.5, "Y": 1}, "handle_right": {"X": 0.5, "Y": 0}, "handle_type": 0, "interpolation": 0}]}, "red": {"Points": [{"co": {"X": 1, "Y": 0}, "handle_left": {"X": 0.5, "Y": 1}, "handle_right": {"X": 0.5, "Y": 0}, "handle_type": 0, "interpolation": 0}]}}, "waveform": false, "file_id": "POT0C18IYF", "title": "uso-do-protoboard#bruto.mkv", "image": "../../../../../../.openshot_qt/thumbnail/7JQQM2Y01X-2201.png", "id": "7JQQM2Y01X"}, {"alpha": {"Points": [{"co": {"X": 1, "Y": 1}, "interpolation": 2}, {"co": {"X": 5383, "Y": 0}, "handle_left": {"X": 0.5, "Y": 1}, "handle_right": {"X": 0.5, "Y": 0}, "handle_type": 0, "interpolation": 0}, {"co": {"X": 5413, "Y": 1}, "handle_left": {"X": 0.5, "Y": 1}, "handle_right": {"X": 0.5, "Y": 0}, "handle_type": 0, "interpolation": 0}]}, "anchor": 0, "channel_filter": {"Points": [{"co": {"X": 1, "Y": -1}, "interpolation": 2}]}, "channel_mapping": {"Points": [{"co": {"X": 1, "Y": -1}, "interpolation": 2}]}, "crop_height": {"Points": [{"co": {"X": 1, "Y": -1}, "interpolation": 2}]}, "crop_width": {"Points": [{"co": {"X": 1, "Y": -1}, "interpolation": 2}]}, "crop_x": {"Points": [{"co": {"X": 1, "Y": 0}, "interpolation": 2}]}, "crop_y": {"Points": [{"co": {"X": 1, "Y": 0}, "interpolation": 2}]}, "display": 0, "duration": 1371.0, "effects": [], "end": 204.86666666666667, "gravity": 4, "has_audio": {"Points": [{"co": {"X": 1, "Y": -1}, "interpolation": 2}]}, "has_video": {"Points": [{"co": {"X": 1, "Y": -1}, "interpolation": 2}]}, "layer": 4, "location_x": {"Points": [{"co": {"X": 1, "Y": 0}, "interpolation": 2}]}, "location_y": {"Points": [{"co": {"X": 1, "Y": 0}, "interpolation": 2}]}, "mixing": 0, "perspective_c1_x": {"Points": [{"co": {"X": 1, "Y": -1}, "interpolation": 2}]}, "perspective_c1_y": {"Points": [{"co": {"X": 1, "Y": -1}, "interpolation": 2}]}, "perspective_c2_x": {"Points": [{"co": {"X": 1, "Y": -1}, "interpolation": 2}]}, "perspective_c2_y": {"Points": [{"co": {"X": 1, "Y": -1}, "interpolation": 2}]}, "perspective_c3_x": {"Points": [{"co": {"X": 1, "Y": -1}, "interpolation": 2}]}, "perspective_c3_y": {"Points": [{"co": {"X": 1, "Y": -1}, "interpolation": 2}]}, "perspective_c4_x": {"Points": [{"co": {"X": 1, "Y": -1}, "interpolation": 2}]}, "perspective_c4_y": {"Points": [{"co": {"X": 1, "Y": -1}, "interpolation": 2}]}, "position": 144.43333333333334, "reader": {"acodec": "aac", "audio_bit_rate": 0, "audio_stream_index": 1, "audio_timebase": {"den": 1000, "num": 1}, "channel_layout": 3, "channels": 2, "display_ratio": {"den": 9, "num": 16}, "duration": 1371.0, "file_size": "456740423", "fps": {"den": 1, "num": 15}, "has_audio": true, "has_single_image": false, "has_video": true, "height": 720, "interlaced_frame": false, "metadata": {"DURATION": "00:22:51.580000000", "ENCODER": "Lavf58.29.100", "title": "Track1"}, "path": "../brutos/uso-do-protoboard#bruto.mkv", "pixel_format": 0, "pixel_ratio": {"den": 1, "num": 1}, "sample_rate": 44100, "top_field_first": true, "type": "FFmpegReader", "vcodec": "h264", "video_bit_rate": 332933, "video_length": "20565", "video_stream_index": 0, "video_timebase": {"den": 1000, "num": 1}, "width": 1280}, "rotation": {"Points": [{"co": {"X": 1, "Y": 0}, "interpolation": 2}]}, "scale": 1, "scale_x": {"Points": [{"co": {"X": 1, "Y": 1}, "interpolation": 2}]}, "scale_y": {"Points": [{"co": {"X": 1, "Y": 1}, "interpolation": 2}]}, "shear_x": {"Points": [{"co": {"X": 1, "Y": 0}, "interpolation": 2}]}, "shear_y": {"Points": [{"co": {"X": 1, "Y": 0}, "interpolation": 2}]}, "start": 179.4, "time": {"Points": [{"co": {"X": 1, "Y": 1}, "interpolation": 2}]}, "volume": {"Points": [{"co": {"X": 1, "Y": 1}, "interpolation": 2}]}, "wave_color": {"alpha": {"Points": [{"co": {"X": 1, "Y": 255}, "handle_left": {"X": 0.5, "Y": 1}, "handle_right": {"X": 0.5, "Y": 0}, "handle_type": 0, "interpolation": 0}]}, "blue": {"Points": [{"co": {"X": 1, "Y": 255}, "handle_left": {"X": 0.5, "Y": 1}, "handle_right": {"X": 0.5, "Y": 0}, "handle_type": 0, "interpolation": 0}]}, "green": {"Points": [{"co": {"X": 1, "Y": 123}, "handle_left": {"X": 0.5, "Y": 1}, "handle_right": {"X": 0.5, "Y": 0}, "handle_type": 0, "interpolation": 0}]}, "red": {"Points": [{"co": {"X": 1, "Y": 0}, "handle_left": {"X": 0.5, "Y": 1}, "handle_right": {"X": 0.5, "Y": 0}, "handle_type": 0, "interpolation": 0}]}}, "waveform": false, "file_id": "POT0C18IYF", "title": "uso-do-protoboard#bruto.mkv", "image": "../../../../../../.openshot_qt/thumbnail/OPVUXQ87O9-2692.png", "id": "OPVUXQ87O9"}, {"alpha": {"Points": [{"co": {"X": 1, "Y": 1}, "interpolation": 2}, {"co": {"X": 5383, "Y": 0}, "handle_left": {"X": 0.5, "Y": 1}, "handle_right": {"X": 0.5, "Y": 0}, "handle_type": 0, "interpolation": 0}, {"co": {"X": 5413, "Y": 1}, "handle_left": {"X": 0.5, "Y": 1}, "handle_right": {"X": 0.5, "Y": 0}, "handle_type": 0, "interpolation": 0}]}, "anchor": 0, "channel_filter": {"Points": [{"co": {"X": 1, "Y": -1}, "interpolation": 2}]}, "channel_mapping": {"Points": [{"co": {"X": 1, "Y": -1}, "interpolation": 2}]}, "crop_height": {"Points": [{"co": {"X": 1, "Y": -1}, "interpolation": 2}]}, "crop_width": {"Points": [{"co": {"X": 1, "Y": -1}, "interpolation": 2}]}, "crop_x": {"Points": [{"co": {"X": 1, "Y": 0}, "interpolation": 2}]}, "crop_y": {"Points": [{"co": {"X": 1, "Y": 0}, "interpolation": 2}]}, "display": 0, "duration": 1371.0, "effects": [], "end": 257.3666666666667, "gravity": 4, "has_audio": {"Points": [{"co": {"X": 1, "Y": -1}, "interpolation": 2}]}, "has_video": {"Points": [{"co": {"X": 1, "Y": -1}, "interpolation": 2}]}, "layer": 4, "location_x": {"Points": [{"co": {"X": 1, "Y": 0}, "interpolation": 2}]}, "location_y": {"Points": [{"co": {"X": 1, "Y": 0}, "interpolation": 2}]}, "mixing": 0, "perspective_c1_x": {"Points": [{"co": {"X": 1, "Y": -1}, "interpolation": 2}]}, "perspective_c1_y": {"Points": [{"co": {"X": 1, "Y": -1}, "interpolation": 2}]}, "perspective_c2_x": {"Points": [{"co": {"X": 1, "Y": -1}, "interpolation": 2}]}, "perspective_c2_y": {"Points": [{"co": {"X": 1, "Y": -1}, "interpolation": 2}]}, "perspective_c3_x": {"Points": [{"co": {"X": 1, "Y": -1}, "interpolation": 2}]}, "perspective_c3_y": {"Points": [{"co": {"X": 1, "Y": -1}, "interpolation": 2}]}, "perspective_c4_x": {"Points": [{"co": {"X": 1, "Y": -1}, "interpolation": 2}]}, "perspective_c4_y": {"Points": [{"co": {"X": 1, "Y": -1}, "interpolation": 2}]}, "position": 169.9, "reader": {"acodec": "aac", "audio_bit_rate": 0, "audio_stream_index": 1, "audio_timebase": {"den": 1000, "num": 1}, "channel_layout": 3, "channels": 2, "display_ratio": {"den": 9, "num": 16}, "duration": 1371.0, "file_size": "456740423", "fps": {"den": 1, "num": 15}, "has_audio": true, "has_single_image": false, "has_video": true, "height": 720, "interlaced_frame": false, "metadata": {"DURATION": "00:22:51.580000000", "ENCODER": "Lavf58.29.100", "title": "Track1"}, "path": "../brutos/uso-do-protoboard#bruto.mkv", "pixel_format": 0, "pixel_ratio": {"den": 1, "num": 1}, "sample_rate": 44100, "top_field_first": true, "type": "FFmpegReader", "vcodec": "h264", "video_bit_rate": 332933, "video_length": "20565", "video_stream_index": 0, "video_timebase": {"den": 1000, "num": 1}, "width": 1280}, "rotation": {"Points": [{"co": {"X": 1, "Y": 0}, "interpolation": 2}]}, "scale": 1, "scale_x": {"Points": [{"co": {"X": 1, "Y": 1}, "interpolation": 2}]}, "scale_y": {"Points": [{"co": {"X": 1, "Y": 1}, "interpolation": 2}]}, "shear_x": {"Points": [{"co": {"X": 1, "Y": 0}, "interpolation": 2}]}, "shear_y": {"Points": [{"co": {"X": 1, "Y": 0}, "interpolation": 2}]}, "start": 222.93333333333334, "time": {"Points": [{"co": {"X": 1, "Y": 1}, "interpolation": 2}]}, "volume": {"Points": [{"co": {"X": 1, "Y": 1}, "interpolation": 2}]}, "wave_color": {"alpha": {"Points": [{"co": {"X": 1, "Y": 255}, "handle_left": {"X": 0.5, "Y": 1}, "handle_right": {"X": 0.5, "Y": 0}, "handle_type": 0, "interpolation": 0}]}, "blue": {"Points": [{"co": {"X": 1, "Y": 255}, "handle_left": {"X": 0.5, "Y": 1}, "handle_right": {"X": 0.5, "Y": 0}, "handle_type": 0, "interpolation": 0}]}, "green": {"Points": [{"co": {"X": 1, "Y": 123}, "handle_left": {"X": 0.5, "Y": 1}, "handle_right": {"X": 0.5, "Y": 0}, "handle_type": 0, "interpolation": 0}]}, "red": {"Points": [{"co": {"X": 1, "Y": 0}, "handle_left": {"X": 0.5, "Y": 1}, "handle_right": {"X": 0.5, "Y": 0}, "handle_type": 0, "interpolation": 0}]}}, "waveform": false, "file_id": "POT0C18IYF", "title": "uso-do-protoboard#bruto.mkv", "image": "../../../../../../.openshot_qt/thumbnail/2FWBZ43S4E-3345.png", "id": "2FWBZ43S4E"}, {"alpha": {"Points": [{"co": {"X": 1, "Y": 1}, "interpolation": 2}, {"co": {"X": 5383, "Y": 0}, "handle_left": {"X": 0.5, "Y": 1}, "handle_right": {"X": 0.5, "Y": 0}, "handle_type": 0, "interpolation": 0}, {"co": {"X": 5413, "Y": 1}, "handle_left": {"X": 0.5, "Y": 1}, "handle_right": {"X": 0.5, "Y": 0}, "handle_type": 0, "interpolation": 0}]}, "anchor": 0, "channel_filter": {"Points": [{"co": {"X": 1, "Y": -1}, "interpolation": 2}]}, "channel_mapping": {"Points": [{"co": {"X": 1, "Y": -1}, "interpolation": 2}]}, "crop_height": {"Points": [{"co": {"X": 1, "Y": -1}, "interpolation": 2}]}, "crop_width": {"Points": [{"co": {"X": 1, "Y": -1}, "interpolation": 2}]}, "crop_x": {"Points": [{"co": {"X": 1, "Y": 0}, "interpolation": 2}]}, "crop_y": {"Points": [{"co": {"X": 1, "Y": 0}, "interpolation": 2}]}, "display": 0, "duration": 1371.0, "effects": [], "end": 406.33333333333337, "gravity": 4, "has_audio": {"Points": [{"co": {"X": 1, "Y": -1}, "interpolation": 2}]}, "has_video": {"Points": [{"co": {"X": 1, "Y": -1}, "interpolation": 2}]}, "layer": 4, "location_x": {"Points": [{"co": {"X": 1, "Y": 0}, "interpolation": 2}]}, "location_y": {"Points": [{"co": {"X": 1, "Y": 0}, "interpolation": 2}]}, "mixing": 0, "perspective_c1_x": {"Points": [{"co": {"X": 1, "Y": -1}, "interpolation": 2}]}, "perspective_c1_y": {"Points": [{"co": {"X": 1, "Y": -1}, "interpolation": 2}]}, "perspective_c2_x": {"Points": [{"co": {"X": 1, "Y": -1}, "interpolation": 2}]}, "perspective_c2_y": {"Points": [{"co": {"X": 1, "Y": -1}, "interpolation": 2}]}, "perspective_c3_x": {"Points": [{"co": {"X": 1, "Y": -1}, "interpolation": 2}]}, "perspective_c3_y": {"Points": [{"co": {"X": 1, "Y": -1}, "interpolation": 2}]}, "perspective_c4_x": {"Points": [{"co": {"X": 1, "Y": -1}, "interpolation": 2}]}, "perspective_c4_y": {"Points": [{"co": {"X": 1, "Y": -1}, "interpolation": 2}]}, "position": 204.33333333333334, "reader": {"acodec": "aac", "audio_bit_rate": 0, "audio_stream_index": 1, "audio_timebase": {"den": 1000, "num": 1}, "channel_layout": 3, "channels": 2, "display_ratio": {"den": 9, "num": 16}, "duration": 1371.0, "file_size": "456740423", "fps": {"den": 1, "num": 15}, "has_audio": true, "has_single_image": false, "has_video": true, "height": 720, "interlaced_frame": false, "metadata": {"DURATION": "00:22:51.580000000", "ENCODER": "Lavf58.29.100", "title": "Track1"}, "path": "../brutos/uso-do-protoboard#bruto.mkv", "pixel_format": 0, "pixel_ratio": {"den": 1, "num": 1}, "sample_rate": 44100, "top_field_first": true, "type": "FFmpegReader", "vcodec": "h264", "video_bit_rate": 332933, "video_length": "20565", "video_stream_index": 0, "video_timebase": {"den": 1000, "num": 1}, "width": 1280}, "rotation": {"Points": [{"co": {"X": 1, "Y": 0}, "interpolation": 2}]}, "scale": 1, "scale_x": {"Points": [{"co": {"X": 1, "Y": 1}, "interpolation": 2}]}, "scale_y": {"Points": [{"co": {"X": 1, "Y": 1}, "interpolation": 2}]}, "shear_x": {"Points": [{"co": {"X": 1, "Y": 0}, "interpolation": 2}]}, "shear_y": {"Points": [{"co": {"X": 1, "Y": 0}, "interpolation": 2}]}, "start": 262.93333333333334, "time": {"Points": [{"co": {"X": 1, "Y": 1}, "interpolation": 2}]}, "volume": {"Points": [{"co": {"X": 1, "Y": 1}, "interpolation": 2}]}, "wave_color": {"alpha": {"Points": [{"co": {"X": 1, "Y": 255}, "handle_left": {"X": 0.5, "Y": 1}, "handle_right": {"X": 0.5, "Y": 0}, "handle_type": 0, "interpolation": 0}]}, "blue": {"Points": [{"co": {"X": 1, "Y": 255}, "handle_left": {"X": 0.5, "Y": 1}, "handle_right": {"X": 0.5, "Y": 0}, "handle_type": 0, "interpolation": 0}]}, "green": {"Points": [{"co": {"X": 1, "Y": 123}, "handle_left": {"X": 0.5, "Y": 1}, "handle_right": {"X": 0.5, "Y": 0}, "handle_type": 0, "interpolation": 0}]}, "red": {"Points": [{"co": {"X": 1, "Y": 0}, "handle_left": {"X": 0.5, "Y": 1}, "handle_right": {"X": 0.5, "Y": 0}, "handle_type": 0, "interpolation": 0}]}}, "waveform": false, "file_id": "POT0C18IYF", "title": "uso-do-protoboard#bruto.mkv", "image": "../../../../../../.openshot_qt/thumbnail/S9EEXZLSN4-3945.png", "id": "S9EEXZLSN4"}, {"alpha": {"Points": [{"co": {"X": 1, "Y": 1}, "interpolation": 2}, {"co": {"X": 5383, "Y": 0}, "handle_left": {"X": 0.5, "Y": 1}, "handle_right": {"X": 0.5, "Y": 0}, "handle_type": 0, "interpolation": 0}, {"co": {"X": 5413, "Y": 1}, "handle_left": {"X": 0.5, "Y": 1}, "handle_right": {"X": 0.5, "Y": 0}, "handle_type": 0, "interpolation": 0}]}, "anchor": 0, "channel_filter": {"Points": [{"co": {"X": 1, "Y": -1}, "interpolation": 2}]}, "channel_mapping": {"Points": [{"co": {"X": 1, "Y": -1}, "interpolation": 2}]}, "crop_height": {"Points": [{"co": {"X": 1, "Y": -1}, "interpolation": 2}]}, "crop_width": {"Points": [{"co": {"X": 1, "Y": -1}, "interpolation": 2}]}, "crop_x": {"Points": [{"co": {"X": 1, "Y": 0}, "interpolation": 2}]}, "crop_y": {"Points": [{"co": {"X": 1, "Y": 0}, "interpolation": 2}]}, "display": 0, "duration": 1371.0, "effects": [], "end": 520.8666666666666, "gravity": 4, "has_audio": {"Points": [{"co": {"X": 1, "Y": -1}, "interpolation": 2}]}, "has_video": {"Points": [{"co": {"X": 1, "Y": -1}, "interpolation": 2}]}, "layer": 4, "location_x": {"Points": [{"co": {"X": 1, "Y": 0}, "interpolation": 2}]}, "location_y": {"Points": [{"co": {"X": 1, "Y": 0}, "interpolation": 2}]}, "mixing": 0, "perspective_c1_x": {"Points": [{"co": {"X": 1, "Y": -1}, "interpolation": 2}]}, "perspective_c1_y": {"Points": [{"co": {"X": 1, "Y": -1}, "interpolation": 2}]}, "perspective_c2_x": {"Points": [{"co": {"X": 1, "Y": -1}, "interpolation": 2}]}, "perspective_c2_y": {"Points": [{"co": {"X": 1, "Y": -1}, "interpolation": 2}]}, "perspective_c3_x": {"Points": [{"co": {"X": 1, "Y": -1}, "interpolation": 2}]}, "perspective_c3_y": {"Points": [{"co": {"X": 1, "Y": -1}, "interpolation": 2}]}, "perspective_c4_x": {"Points": [{"co": {"X": 1, "Y": -1}, "interpolation": 2}]}, "perspective_c4_y": {"Points": [{"co": {"X": 1, "Y": -1}, "interpolation": 2}]}, "position": 347.73333333333335, "reader": {"acodec": "aac", "audio_bit_rate": 0, "audio_stream_index": 1, "audio_timebase": {"den": 1000, "num": 1}, "channel_layout": 3, "channels": 2, "display_ratio": {"den": 9, "num": 16}, "duration": 1371.0, "file_size": "456740423", "fps": {"den": 1, "num": 15}, "has_audio": true, "has_single_image": false, "has_video": true, "height": 720, "interlaced_frame": false, "metadata": {"DURATION": "00:22:51.580000000", "ENCODER": "Lavf58.29.100", "title": "Track1"}, "path": "../brutos/uso-do-protoboard#bruto.mkv", "pixel_format": 0, "pixel_ratio": {"den": 1, "num": 1}, "sample_rate": 44100, "top_field_first": true, "type": "FFmpegReader", "vcodec": "h264", "video_bit_rate": 332933, "video_length": "20565", "video_stream_index": 0, "video_timebase": {"den": 1000, "num": 1}, "width": 1280}, "rotation": {"Points": [{"co": {"X": 1, "Y": 0}, "interpolation": 2}]}, "scale": 1, "scale_x": {"Points": [{"co": {"X": 1, "Y": 1}, "interpolation": 2}]}, "scale_y": {"Points": [{"co": {"X": 1, "Y": 1}, "interpolation": 2}]}, "shear_x": {"Points": [{"co": {"X": 1, "Y": 0}, "interpolation": 2}]}, "shear_y": {"Points": [{"co": {"X": 1, "Y": 0}, "interpolation": 2}]}, "start": 411.96666666666664, "time": {"Points": [{"co": {"X": 1, "Y": 1}, "interpolation": 2}]}, "volume": {"Points": [{"co": {"X": 1, "Y": 1}, "interpolation": 2}]}, "wave_color": {"alpha": {"Points": [{"co": {"X": 1, "Y": 255}, "handle_left": {"X": 0.5, "Y": 1}, "handle_right": {"X": 0.5, "Y": 0}, "handle_type": 0, "interpolation": 0}]}, "blue": {"Points": [{"co": {"X": 1, "Y": 255}, "handle_left": {"X": 0.5, "Y": 1}, "handle_right": {"X": 0.5, "Y": 0}, "handle_type": 0, "interpolation": 0}]}, "green": {"Points": [{"co": {"X": 1, "Y": 123}, "handle_left": {"X": 0.5, "Y": 1}, "handle_right": {"X": 0.5, "Y": 0}, "handle_type": 0, "interpolation": 0}]}, "red": {"Points": [{"co": {"X": 1, "Y": 0}, "handle_left": {"X": 0.5, "Y": 1}, "handle_right": {"X": 0.5, "Y": 0}, "handle_type": 0, "interpolation": 0}]}}, "waveform": false, "file_id": "POT0C18IYF", "title": "uso-do-protoboard#bruto.mkv", "image": "../../../../../../.openshot_qt/thumbnail/OA38WMIHJZ-6181.png", "id": "OA38WMIHJZ"}, {"alpha": {"Points": [{"co": {"X": 1, "Y": 1}, "interpolation": 2}, {"co": {"X": 5383, "Y": 0}, "handle_left": {"X": 0.5, "Y": 1}, "handle_right": {"X": 0.5, "Y": 0}, "handle_type": 0, "interpolation": 0}, {"co": {"X": 5413, "Y": 1}, "handle_left": {"X": 0.5, "Y": 1}, "handle_right": {"X": 0.5, "Y": 0}, "handle_type": 0, "interpolation": 0}]}, "anchor": 0, "channel_filter": {"Points": [{"co": {"X": 1, "Y": -1}, "interpolation": 2}]}, "channel_mapping": {"Points": [{"co": {"X": 1, "Y": -1}, "interpolation": 2}]}, "crop_height": {"Points": [{"co": {"X": 1, "Y": -1}, "interpolation": 2}]}, "crop_width": {"Points": [{"co": {"X": 1, "Y": -1}, "interpolation": 2}]}, "crop_x": {"Points": [{"co": {"X": 1, "Y": 0}, "interpolation": 2}]}, "crop_y": {"Points": [{"co": {"X": 1, "Y": 0}, "interpolation": 2}]}, "display": 0, "duration": 1371.0, "effects": [], "end": 678.9, "gravity": 4, "has_audio": {"Points": [{"co": {"X": 1, "Y": -1}, "interpolation": 2}]}, "has_video": {"Points": [{"co": {"X": 1, "Y": -1}, "interpolation": 2}]}, "layer": 4, "location_x": {"Points": [{"co": {"X": 1, "Y": 0}, "interpolation": 2}]}, "location_y": {"Points": [{"co": {"X": 1, "Y": 0}, "interpolation": 2}]}, "mixing": 0, "perspective_c1_x": {"Points": [{"co": {"X": 1, "Y": -1}, "interpolation": 2}]}, "perspective_c1_y": {"Points": [{"co": {"X": 1, "Y": -1}, "interpolation": 2}]}, "perspective_c2_x": {"Points": [{"co": {"X": 1, "Y": -1}, "interpolation": 2}]}, "perspective_c2_y": {"Points": [{"co": {"X": 1, "Y": -1}, "interpolation": 2}]}, "perspective_c3_x": {"Points": [{"co": {"X": 1, "Y": -1}, "interpolation": 2}]}, "perspective_c3_y": {"Points": [{"co": {"X": 1, "Y": -1}, "interpolation": 2}]}, "perspective_c4_x": {"Points": [{"co": {"X": 1, "Y": -1}, "interpolation": 2}]}, "perspective_c4_y": {"Points": [{"co": {"X": 1, "Y": -1}, "interpolation": 2}]}, "position": 456.6333333333333, "reader": {"acodec": "aac", "audio_bit_rate": 0, "audio_stream_index": 1, "audio_timebase": {"den": 1000, "num": 1}, "channel_layout": 3, "channels": 2, "display_ratio": {"den": 9, "num": 16}, "duration": 1371.0, "file_size": "456740423", "fps": {"den": 1, "num": 15}, "has_audio": true, "has_single_image": false, "has_video": true, "height": 720, "interlaced_frame": false, "metadata": {"DURATION": "00:22:51.580000000", "ENCODER": "Lavf58.29.100", "title": "Track1"}, "path": "../brutos/uso-do-protoboard#bruto.mkv", "pixel_format": 0, "pixel_ratio": {"den": 1, "num": 1}, "sample_rate": 44100, "top_field_first": true, "type": "FFmpegReader", "vcodec": "h264", "video_bit_rate": 332933, "video_length": "20565", "video_stream_index": 0, "video_timebase": {"den": 1000, "num": 1}, "width": 1280}, "rotation": {"Points": [{"co": {"X": 1, "Y": 0}, "interpolation": 2}]}, "scale": 1, "scale_x": {"Points": [{"co": {"X": 1, "Y": 1}, "interpolation": 2}]}, "scale_y": {"Points": [{"co": {"X": 1, "Y": 1}, "interpolation": 2}]}, "shear_x": {"Points": [{"co": {"X": 1, "Y": 0}, "interpolation": 2}]}, "shear_y": {"Points": [{"co": {"X": 1, "Y": 0}, "interpolation": 2}]}, "start": 530.3666666666667, "time": {"Points": [{"co": {"X": 1, "Y": 1}, "interpolation": 2}]}, "volume": {"Points": [{"co": {"X": 1, "Y": 1}, "interpolation": 2}]}, "wave_color": {"alpha": {"Points": [{"co": {"X": 1, "Y": 255}, "handle_left": {"X": 0.5, "Y": 1}, "handle_right": {"X": 0.5, "Y": 0}, "handle_type": 0, "interpolation": 0}]}, "blue": {"Points": [{"co": {"X": 1, "Y": 255}, "handle_left": {"X": 0.5, "Y": 1}, "handle_right": {"X": 0.5, "Y": 0}, "handle_type": 0, "interpolation": 0}]}, "green": {"Points": [{"co": {"X": 1, "Y": 123}, "handle_left": {"X": 0.5, "Y": 1}, "handle_right": {"X": 0.5, "Y": 0}, "handle_type": 0, "interpolation": 0}]}, "red": {"Points": [{"co": {"X": 1, "Y": 0}, "handle_left": {"X": 0.5, "Y": 1}, "handle_right": {"X": 0.5, "Y": 0}, "handle_type": 0, "interpolation": 0}]}}, "waveform": false, "file_id": "POT0C18IYF", "title": "uso-do-protoboard#bruto.mkv", "image": "../../../../../../.openshot_qt/thumbnail/FDX5A455D9-7957.png", "id": "FDX5A455D9"}, {"alpha": {"Points": [{"co": {"X": 1, "Y": 1}, "interpolation": 2}, {"co": {"X": 5383, "Y": 0}, "handle_left": {"X": 0.5, "Y": 1}, "handle_right": {"X": 0.5, "Y": 0}, "handle_type": 0, "interpolation": 0}, {"co": {"X": 5413, "Y": 1}, "handle_left": {"X": 0.5, "Y": 1}, "handle_right": {"X": 0.5, "Y": 0}, "handle_type": 0, "interpolation": 0}]}, "anchor": 0, "channel_filter": {"Points": [{"co": {"X": 1, "Y": -1}, "interpolation": 2}]}, "channel_mapping": {"Points": [{"co": {"X": 1, "Y": -1}, "interpolation": 2}]}, "crop_height": {"Points": [{"co": {"X": 1, "Y": -1}, "interpolation": 2}]}, "crop_width": {"Points": [{"co": {"X": 1, "Y": -1}, "interpolation": 2}]}, "crop_x": {"Points": [{"co": {"X": 1, "Y": 0}, "interpolation": 2}]}, "crop_y": {"Points": [{"co": {"X": 1, "Y": 0}, "interpolation": 2}]}, "display": 0, "duration": 1371.0, "effects": [], "end": 704.7, "gravity": 4, "has_audio": {"Points": [{"co": {"X": 1, "Y": -1}, "interpolation": 2}]}, "has_video": {"Points": [{"co": {"X": 1, "Y": -1}, "interpolation": 2}]}, "layer": 4, "location_x": {"Points": [{"co": {"X": 1, "Y": 0}, "interpolation": 2}]}, "location_y": {"Points": [{"co": {"X": 1, "Y": 0}, "interpolation": 2}]}, "mixing": 0, "perspective_c1_x": {"Points": [{"co": {"X": 1, "Y": -1}, "interpolation": 2}]}, "perspective_c1_y": {"Points": [{"co": {"X": 1, "Y": -1}, "interpolation": 2}]}, "perspective_c2_x": {"Points": [{"co": {"X": 1, "Y": -1}, "interpolation": 2}]}, "perspective_c2_y": {"Points": [{"co": {"X": 1, "Y": -1}, "interpolation": 2}]}, "perspective_c3_x": {"Points": [{"co": {"X": 1, "Y": -1}, "interpolation": 2}]}, "perspective_c3_y": {"Points": [{"co": {"X": 1, "Y": -1}, "interpolation": 2}]}, "perspective_c4_x": {"Points": [{"co": {"X": 1, "Y": -1}, "interpolation": 2}]}, "perspective_c4_y": {"Points": [{"co": {"X": 1, "Y": -1}, "interpolation": 2}]}, "position": 605.1666666666666, "reader": {"acodec": "aac", "audio_bit_rate": 0, "audio_stream_index": 1, "audio_timebase": {"den": 1000, "num": 1}, "channel_layout": 3, "channels": 2, "display_ratio": {"den": 9, "num": 16}, "duration": 1371.0, "file_size": "456740423", "fps": {"den": 1, "num": 15}, "has_audio": true, "has_single_image": false, "has_video": true, "height": 720, "interlaced_frame": false, "metadata": {"DURATION": "00:22:51.580000000", "ENCODER": "Lavf58.29.100", "title": "Track1"}, "path": "../brutos/uso-do-protoboard#bruto.mkv", "pixel_format": 0, "pixel_ratio": {"den": 1, "num": 1}, "sample_rate": 44100, "top_field_first": true, "type": "FFmpegReader", "vcodec": "h264", "video_bit_rate": 332933, "video_length": "20565", "video_stream_index": 0, "video_timebase": {"den": 1000, "num": 1}, "width": 1280}, "rotation": {"Points": [{"co": {"X": 1, "Y": 0}, "interpolation": 2}]}, "scale": 1, "scale_x": {"Points": [{"co": {"X": 1, "Y": 1}, "interpolation": 2}]}, "scale_y": {"Points": [{"co": {"X": 1, "Y": 1}, "interpolation": 2}]}, "shear_x": {"Points": [{"co": {"X": 1, "Y": 0}, "interpolation": 2}]}, "shear_y": {"Points": [{"co": {"X": 1, "Y": 0}, "interpolation": 2}]}, "start": 684, "time": {"Points": [{"co": {"X": 1, "Y": 1}, "interpolation": 2}]}, "volume": {"Points": [{"co": {"X": 1, "Y": 1}, "interpolation": 2}]}, "wave_color": {"alpha": {"Points": [{"co": {"X": 1, "Y": 255}, "handle_left": {"X": 0.5, "Y": 1}, "handle_right": {"X": 0.5, "Y": 0}, "handle_type": 0, "interpolation": 0}]}, "blue": {"Points": [{"co": {"X": 1, "Y": 255}, "handle_left": {"X": 0.5, "Y": 1}, "handle_right": {"X": 0.5, "Y": 0}, "handle_type": 0, "interpolation": 0}]}, "green": {"Points": [{"co": {"X": 1, "Y": 123}, "handle_left": {"X": 0.5, "Y": 1}, "handle_right": {"X": 0.5, "Y": 0}, "handle_type": 0, "interpolation": 0}]}, "red": {"Points": [{"co": {"X": 1, "Y": 0}, "handle_left": {"X": 0.5, "Y": 1}, "handle_right": {"X": 0.5, "Y": 0}, "handle_type": 0, "interpolation": 0}]}}, "waveform": false, "file_id": "POT0C18IYF", "title": "uso-do-protoboard#bruto.mkv", "image": "../../../../../../.openshot_qt/thumbnail/Z40YW1HB5H-10261.png", "id": "Z40YW1HB5H"}, {"alpha": {"Points": [{"co": {"X": 1, "Y": 1}, "interpolation": 2}, {"co": {"X": 5383, "Y": 0}, "handle_left": {"X": 0.5, "Y": 1}, "handle_right": {"X": 0.5, "Y": 0}, "handle_type": 0, "interpolation": 0}, {"co": {"X": 5413, "Y": 1}, "handle_left": {"X": 0.5, "Y": 1}, "handle_right": {"X": 0.5, "Y": 0}, "handle_type": 0, "interpolation": 0}]}, "anchor": 0, "channel_filter": {"Points": [{"co": {"X": 1, "Y": -1}, "interpolation": 2}]}, "channel_mapping": {"Points": [{"co": {"X": 1, "Y": -1}, "interpolation": 2}]}, "crop_height": {"Points": [{"co": {"X": 1, "Y": -1}, "interpolation": 2}]}, "crop_width": {"Points": [{"co": {"X": 1, "Y": -1}, "interpolation": 2}]}, "crop_x": {"Points": [{"co": {"X": 1, "Y": 0}, "interpolation": 2}]}, "crop_y": {"Points": [{"co": {"X": 1, "Y": 0}, "interpolation": 2}]}, "display": 0, "duration": 1371.0, "effects": [], "end": 1305.0333333333333, "gravity": 4, "has_audio": {"Points": [{"co": {"X": 1, "Y": -1}, "interpolation": 2}]}, "has_video": {"Points": [{"co": {"X": 1, "Y": -1}, "interpolation": 2}]}, "layer": 4, "location_x": {"Points": [{"co": {"X": 1, "Y": 0}, "interpolation": 2}]}, "location_y": {"Points": [{"co": {"X": 1, "Y": 0}, "interpolation": 2}]}, "mixing": 0, "perspective_c1_x": {"Points": [{"co": {"X": 1, "Y": -1}, "interpolation": 2}]}, "perspective_c1_y": {"Points": [{"co": {"X": 1, "Y": -1}, "interpolation": 2}]}, "perspective_c2_x": {"Points": [{"co": {"X": 1, "Y": -1}, "interpolation": 2}]}, "perspective_c2_y": {"Points": [{"co": {"X": 1, "Y": -1}, "interpolation": 2}]}, "perspective_c3_x": {"Points": [{"co": {"X": 1, "Y": -1}, "interpolation": 2}]}, "perspective_c3_y": {"Points": [{"co": {"X": 1, "Y": -1}, "interpolation": 2}]}, "perspective_c4_x": {"Points": [{"co": {"X": 1, "Y": -1}, "interpolation": 2}]}, "perspective_c4_y": {"Points": [{"co": {"X": 1, "Y": -1}, "interpolation": 2}]}, "position": 625.8666666666667, "reader": {"acodec": "aac", "audio_bit_rate": 0, "audio_stream_index": 1, "audio_timebase": {"den": 1000, "num": 1}, "channel_layout": 3, "channels": 2, "display_ratio": {"den": 9, "num": 16}, "duration": 1371.0, "file_size": "456740423", "fps": {"den": 1, "num": 15}, "has_audio": true, "has_single_image": false, "has_video": true, "height": 720, "interlaced_frame": false, "metadata": {"DURATION": "00:22:51.580000000", "ENCODER": "Lavf58.29.100", "title": "Track1"}, "path": "../brutos/uso-do-protoboard#bruto.mkv", "pixel_format": 0, "pixel_ratio": {"den": 1, "num": 1}, "sample_rate": 44100, "top_field_first": true, "type": "FFmpegReader", "vcodec": "h264", "video_bit_rate": 332933, "video_length": "20565", "video_stream_index": 0, "video_timebase": {"den": 1000, "num": 1}, "width": 1280}, "rotation": {"Points": [{"co": {"X": 1, "Y": 0}, "interpolation": 2}]}, "scale": 1, "scale_x": {"Points": [{"co": {"X": 1, "Y": 1}, "interpolation": 2}]}, "scale_y": {"Points": [{"co": {"X": 1, "Y": 1}, "interpolation": 2}]}, "shear_x": {"Points": [{"co": {"X": 1, "Y": 0}, "interpolation": 2}]}, "shear_y": {"Points": [{"co": {"X": 1, "Y": 0}, "interpolation": 2}]}, "start": 737.7333333333333, "time": {"Points": [{"co": {"X": 1, "Y": 1}, "interpolation": 2}]}, "volume": {"Points": [{"co": {"X": 1, "Y": 1}, "interpolation": 2}]}, "wave_color": {"alpha": {"Points": [{"co": {"X": 1, "Y": 255}, "handle_left": {"X": 0.5, "Y": 1}, "handle_right": {"X": 0.5, "Y": 0}, "handle_type": 0, "interpolation": 0}]}, "blue": {"Points": [{"co": {"X": 1, "Y": 255}, "handle_left": {"X": 0.5, "Y": 1}, "handle_right": {"X": 0.5, "Y": 0}, "handle_type": 0, "interpolation": 0}]}, "green": {"Points": [{"co": {"X": 1, "Y": 123}, "handle_left": {"X": 0.5, "Y": 1}, "handle_right": {"X": 0.5, "Y": 0}, "handle_type": 0, "interpolation": 0}]}, "red": {"Points": [{"co": {"X": 1, "Y": 0}, "handle_left": {"X": 0.5, "Y": 1}, "handle_right": {"X": 0.5, "Y": 0}, "handle_type": 0, "interpolation": 0}]}}, "waveform": false, "file_id": "POT0C18IYF", "title": "uso-do-protoboard#bruto.mkv", "image": "../../../../../../.openshot_qt/thumbnail/2TI6Y9S4O4-11067.png", "id": "2TI6Y9S4O4"}, {"alpha": {"Points": [{"co": {"X": 1, "Y": 1}, "interpolation": 2}, {"co": {"X": 5383, "Y": 0}, "handle_left": {"X": 0.5, "Y": 1}, "handle_right": {"X": 0.5, "Y": 0}, "handle_type": 0, "interpolation": 0}, {"co": {"X": 5413, "Y": 1}, "handle_left": {"X": 0.5, "Y": 1}, "handle_right": {"X": 0.5, "Y": 0}, "handle_type": 0, "interpolation": 0}]}, "anchor": 0, "channel_filter": {"Points": [{"co": {"X": 1, "Y": -1}, "interpolation": 2}]}, "channel_mapping": {"Points": [{"co": {"X": 1, "Y": -1}, "interpolation": 2}]}, "crop_height": {"Points": [{"co": {"X": 1, "Y": -1}, "interpolation": 2}]}, "crop_width": {"Points": [{"co": {"X": 1, "Y": -1}, "interpolation": 2}]}, "crop_x": {"Points": [{"co": {"X": 1, "Y": 0}, "interpolation": 2}]}, "crop_y": {"Points": [{"co": {"X": 1, "Y": 0}, "interpolation": 2}]}, "display": 0, "duration": 1371.0, "effects": [], "end": 1352.7333333333331, "gravity": 4, "has_audio": {"Points": [{"co": {"X": 1, "Y": -1}, "interpolation": 2}]}, "has_video": {"Points": [{"co": {"X": 1, "Y": -1}, "interpolation": 2}]}, "layer": 4, "location_x": {"Points": [{"co": {"X": 1, "Y": 0}, "interpolation": 2}]}, "location_y": {"Points": [{"co": {"X": 1, "Y": 0}, "interpolation": 2}]}, "mixing": 0, "perspective_c1_x": {"Points": [{"co": {"X": 1, "Y": -1}, "interpolation": 2}]}, "perspective_c1_y": {"Points": [{"co": {"X": 1, "Y": -1}, "interpolation": 2}]}, "perspective_c2_x": {"Points": [{"co": {"X": 1, "Y": -1}, "interpolation": 2}]}, "perspective_c2_y": {"Points": [{"co": {"X": 1, "Y": -1}, "interpolation": 2}]}, "perspective_c3_x": {"Points": [{"co": {"X": 1, "Y": -1}, "interpolation": 2}]}, "perspective_c3_y": {"Points": [{"co": {"X": 1, "Y": -1}, "interpolation": 2}]}, "perspective_c4_x": {"Points": [{"co": {"X": 1, "Y": -1}, "interpolation": 2}]}, "perspective_c4_y": {"Points": [{"co": {"X": 1, "Y": -1}, "interpolation": 2}]}, "position": 1193.1666666666667, "reader": {"acodec": "aac", "audio_bit_rate": 0, "audio_stream_index": 1, "audio_timebase": {"den": 1000, "num": 1}, "channel_layout": 3, "channels": 2, "display_ratio": {"den": 9, "num": 16}, "duration": 1371.0, "file_size": "456740423", "fps": {"den": 1, "num": 15}, "has_audio": true, "has_single_image": false, "has_video": true, "height": 720, "interlaced_frame": false, "metadata": {"DURATION": "00:22:51.580000000", "ENCODER": "Lavf58.29.100", "title": "Track1"}, "path": "../brutos/uso-do-protoboard#bruto.mkv", "pixel_format": 0, "pixel_ratio": {"den": 1, "num": 1}, "sample_rate": 44100, "top_field_first": true, "type": "FFmpegReader", "vcodec": "h264", "video_bit_rate": 332933, "video_length": "20565", "video_stream_index": 0, "video_timebase": {"den": 1000, "num": 1}, "width": 1280}, "rotation": {"Points": [{"co": {"X": 1, "Y": 0}, "interpolation": 2}]}, "scale": 1, "scale_x": {"Points": [{"co": {"X": 1, "Y": 1}, "interpolation": 2}]}, "scale_y": {"Points": [{"co": {"X": 1, "Y": 1}, "interpolation": 2}]}, "shear_x": {"Points": [{"co": {"X": 1, "Y": 0}, "interpolation": 2}]}, "shear_y": {"Points": [{"co": {"X": 1, "Y": 0}, "interpolation": 2}]}, "start": 1313.3333333333333, "time": {"Points": [{"co": {"X": 1, "Y": 1}, "interpolation": 2}]}, "volume": {"Points": [{"co": {"X": 1, "Y": 1}, "interpolation": 2}]}, "wave_color": {"alpha": {"Points": [{"co": {"X": 1, "Y": 255}, "handle_left": {"X": 0.5, "Y": 1}, "handle_right": {"X": 0.5, "Y": 0}, "handle_type": 0, "interpolation": 0}]}, "blue": {"Points": [{"co": {"X": 1, "Y": 255}, "handle_left": {"X": 0.5, "Y": 1}, "handle_right": {"X": 0.5, "Y": 0}, "handle_type": 0, "interpolation": 0}]}, "green": {"Points": [{"co": {"X": 1, "Y": 123}, "handle_left": {"X": 0.5, "Y": 1}, "handle_right": {"X": 0.5, "Y": 0}, "handle_type": 0, "interpolation": 0}]}, "red": {"Points": [{"co": {"X": 1, "Y": 0}, "handle_left": {"X": 0.5, "Y": 1}, "handle_right": {"X": 0.5, "Y": 0}, "handle_type": 0, "interpolation": 0}]}}, "waveform": false, "file_id": "POT0C18IYF", "title": "uso-do-protoboard#bruto.mkv", "image": "../../../../../../.openshot_qt/thumbnail/7T81YSL5SK-19701.png", "id": "7T81YSL5SK"}, {"alpha": {"Points": [{"co": {"X": 1, "Y": 1}, "interpolation": 2}, {"co": {"X": 5383, "Y": 0}, "handle_left": {"X": 0.5, "Y": 1}, "handle_right": {"X": 0.5, "Y": 0}, "handle_type": 0, "interpolation": 0}, {"co": {"X": 5413, "Y": 1}, "handle_left": {"X": 0.5, "Y": 1}, "handle_right": {"X": 0.5, "Y": 0}, "handle_type": 0, "interpolation": 0}]}, "anchor": 0, "channel_filter": {"Points": [{"co": {"X": 1, "Y": -1}, "interpolation": 2}]}, "channel_mapping": {"Points": [{"co": {"X": 1, "Y": -1}, "interpolation": 2}]}, "crop_height": {"Points": [{"co": {"X": 1, "Y": -1}, "interpolation": 2}]}, "crop_width": {"Points": [{"co": {"X": 1, "Y": -1}, "interpolation": 2}]}, "crop_x": {"Points": [{"co": {"X": 1, "Y": 0}, "interpolation": 2}]}, "crop_y": {"Points": [{"co": {"X": 1, "Y": 0}, "interpolation": 2}]}, "display": 0, "duration": 1371.0, "effects": [], "end": 1353.8, "gravity": 4, "has_audio": {"Points": [{"co": {"X": 1, "Y": -1}, "interpolation": 2}]}, "has_video": {"Points": [{"co": {"X": 1, "Y": -1}, "interpolation": 2}]}, "layer": 4, "location_x": {"Points": [{"co": {"X": 1, "Y": 0}, "interpolation": 2}]}, "location_y": {"Points": [{"co": {"X": 1, "Y": 0}, "interpolation": 2}]}, "mixing": 0, "perspective_c1_x": {"Points": [{"co": {"X": 1, "Y": -1}, "interpolation": 2}]}, "perspective_c1_y": {"Points": [{"co": {"X": 1, "Y": -1}, "interpolation": 2}]}, "perspective_c2_x": {"Points": [{"co": {"X": 1, "Y": -1}, "interpolation": 2}]}, "perspective_c2_y": {"Points": [{"co": {"X": 1, "Y": -1}, "interpolation": 2}]}, "perspective_c3_x": {"Points": [{"co": {"X": 1, "Y": -1}, "interpolation": 2}]}, "perspective_c3_y": {"Points": [{"co": {"X": 1, "Y": -1}, "interpolation": 2}]}, "perspective_c4_x": {"Points": [{"co": {"X": 1, "Y": -1}, "interpolation": 2}]}, "perspective_c4_y": {"Points": [{"co": {"X": 1, "Y": -1}, "interpolation": 2}]}, "position": 1232.6, "reader": {"acodec": "aac", "audio_bit_rate": 0, "audio_stream_index": 1, "audio_timebase": {"den": 1000, "num": 1}, "channel_layout": 3, "channels": 2, "display_ratio": {"den": 9, "num": 16}, "duration": 1371.0, "file_size": "456740423", "fps": {"den": 1, "num": 15}, "has_audio": true, "has_single_image": false, "has_video": true, "height": 720, "interlaced_frame": false, "metadata": {"DURATION": "00:22:51.580000000", "ENCODER": "Lavf58.29.100", "title": "Track1"}, "path": "../brutos/uso-do-protoboard#bruto.mkv", "pixel_format": 0, "pixel_ratio": {"den": 1, "num": 1}, "sample_rate": 44100, "top_field_first": true, "type": "FFmpegReader", "vcodec": "h264", "video_bit_rate": 332933, "video_length": "20565", "video_stream_index": 0, "video_timebase": {"den": 1000, "num": 1}, "width": 1280}, "rotation": {"Points": [{"co": {"X": 1, "Y": 0}, "interpolation": 2}]}, "scale": 1, "scale_x": {"Points": [{"co": {"X": 1, "Y": 1}, "interpolation": 2}]}, "scale_y": {"Points": [{"co": {"X": 1, "Y": 1}, "interpolation": 2}]}, "shear_x": {"Points": [{"co": {"X": 1, "Y": 0}, "interpolation": 2}]}, "shear_y": {"Points": [{"co": {"X": 1, "Y": 0}, "interpolation": 2}]}, "start": 1352.8, "time": {"Points": [{"co": {"X": 1, "Y": 1}, "interpolation": 2}]}, "volume": {"Points": [{"co": {"X": 1, "Y": 1}, "interpolation": 2}]}, "wave_color": {"alpha": {"Points": [{"co": {"X": 1, "Y": 255}, "handle_left": {"X": 0.5, "Y": 1}, "handle_right": {"X": 0.5, "Y": 0}, "handle_type": 0, "interpolation": 0}]}, "blue": {"Points": [{"co": {"X": 1, "Y": 255}, "handle_left": {"X": 0.5, "Y": 1}, "handle_right": {"X": 0.5, "Y": 0}, "handle_type": 0, "interpolation": 0}]}, "green": {"Points": [{"co": {"X": 1, "Y": 123}, "handle_left": {"X": 0.5, "Y": 1}, "handle_right": {"X": 0.5, "Y": 0}, "handle_type": 0, "interpolation": 0}]}, "red": {"Points": [{"co": {"X": 1, "Y": 0}, "handle_left": {"X": 0.5, "Y": 1}, "handle_right": {"X": 0.5, "Y": 0}, "handle_type": 0, "interpolation": 0}]}}, "waveform": false, "file_id": "POT0C18IYF", "title": "uso-do-protoboard#bruto.mkv", "image": "../../../../../../.openshot_qt/thumbnail/UJDP0TKZS7-20293.png", "id": "UJDP0TKZS7"}, {"alpha": {"Points": [{"co": {"X": 1, "Y": 1}, "interpolation": 2}, {"co": {"X": 5383, "Y": 0}, "handle_left": {"X": 0.5, "Y": 1}, "handle_right": {"X": 0.5, "Y": 0}, "handle_type": 0, "interpolation": 0}, {"co": {"X": 5413, "Y": 1}, "handle_left": {"X": 0.5, "Y": 1}, "handle_right": {"X": 0.5, "Y": 0}, "handle_type": 0, "interpolation": 0}]}, "anchor": 0, "channel_filter": {"Points": [{"co": {"X": 1, "Y": -1}, "interpolation": 2}]}, "channel_mapping": {"Points": [{"co": {"X": 1, "Y": -1}, "interpolation": 2}]}, "crop_height": {"Points": [{"co": {"X": 1, "Y": -1}, "interpolation": 2}]}, "crop_width": {"Points": [{"co": {"X": 1, "Y": -1}, "interpolation": 2}]}, "crop_x": {"Points": [{"co": {"X": 1, "Y": 0}, "interpolation": 2}]}, "crop_y": {"Points": [{"co": {"X": 1, "Y": 0}, "interpolation": 2}]}, "display": 0, "duration": 1371.0, "effects": [], "end": 1361.5333333333335, "gravity": 4, "has_audio": {"Points": [{"co": {"X": 1, "Y": -1}, "interpolation": 2}]}, "has_video": {"Points": [{"co": {"X": 1, "Y": -1}, "interpolation": 2}]}, "layer": 4, "location_x": {"Points": [{"co": {"X": 1, "Y": 0}, "interpolation": 2}]}, "location_y": {"Points": [{"co": {"X": 1, "Y": 0}, "interpolation": 2}]}, "mixing": 0, "perspective_c1_x": {"Points": [{"co": {"X": 1, "Y": -1}, "interpolation": 2}]}, "perspective_c1_y": {"Points": [{"co": {"X": 1, "Y": -1}, "interpolation": 2}]}, "perspective_c2_x": {"Points": [{"co": {"X": 1, "Y": -1}, "interpolation": 2}]}, "perspective_c2_y": {"Points": [{"co": {"X": 1, "Y": -1}, "interpolation": 2}]}, "perspective_c3_x": {"Points": [{"co": {"X": 1, "Y": -1}, "interpolation": 2}]}, "perspective_c3_y": {"Points": [{"co": {"X": 1, "Y": -1}, "interpolation": 2}]}, "perspective_c4_x": {"Points": [{"co": {"X": 1, "Y": -1}, "interpolation": 2}]}, "perspective_c4_y": {"Points": [{"co": {"X": 1, "Y": -1}, "interpolation": 2}]}, "position": 1233.6, "reader": {"acodec": "aac", "audio_bit_rate": 0, "audio_stream_index": 1, "audio_timebase": {"den": 1000, "num": 1}, "channel_layout": 3, "channels": 2, "display_ratio": {"den": 9, "num": 16}, "duration": 1371.0, "file_size": "456740423", "fps": {"den": 1, "num": 15}, "has_audio": true, "has_single_image": false, "has_video": true, "height": 720, "interlaced_frame": false, "metadata": {"DURATION": "00:22:51.580000000", "ENCODER": "Lavf58.29.100", "title": "Track1"}, "path": "../brutos/uso-do-protoboard#bruto.mkv", "pixel_format": 0, "pixel_ratio": {"den": 1, "num": 1}, "sample_rate": 44100, "top_field_first": true, "type": "FFmpegReader", "vcodec": "h264", "video_bit_rate": 332933, "video_length": "20565", "video_stream_index": 0, "video_timebase": {"den": 1000, "num": 1}, "width": 1280}, "rotation": {"Points": [{"co": {"X": 1, "Y": 0}, "interpolation": 2}]}, "scale": 1, "scale_x": {"Points": [{"co": {"X": 1, "Y": 1}, "interpolation": 2}]}, "scale_y": {"Points": [{"co": {"X": 1, "Y": 1}, "interpolation": 2}]}, "shear_x": {"Points": [{"co": {"X": 1, "Y": 0}, "interpolation": 2}]}, "shear_y": {"Points": [{"co": {"X": 1, "Y": 0}, "interpolation": 2}]}, "start": 1357.4666666666667, "time": {"Points": [{"co": {"X": 1, "Y": 1}, "interpolation": 2}]}, "volume": {"Points": [{"co": {"X": 1, "Y": 1}, "interpolation": 2}]}, "wave_color": {"alpha": {"Points": [{"co": {"X": 1, "Y": 255}, "handle_left": {"X": 0.5, "Y": 1}, "handle_right": {"X": 0.5, "Y": 0}, "handle_type": 0, "interpolation": 0}]}, "blue": {"Points": [{"co": {"X": 1, "Y": 255}, "handle_left": {"X": 0.5, "Y": 1}, "handle_right": {"X": 0.5, "Y": 0}, "handle_type": 0, "interpolation": 0}]}, "green": {"Points": [{"co": {"X": 1, "Y": 123}, "handle_left": {"X": 0.5, "Y": 1}, "handle_right": {"X": 0.5, "Y": 0}, "handle_type": 0, "interpolation": 0}]}, "red": {"Points": [{"co": {"X": 1, "Y": 0}, "handle_left": {"X": 0.5, "Y": 1}, "handle_right": {"X": 0.5, "Y": 0}, "handle_type": 0, "interpolation": 0}]}}, "waveform": false, "file_id": "POT0C18IYF", "title": "uso-do-protoboard#bruto.mkv", "image": "../../../../../../.openshot_qt/thumbnail/UJDP0TKZS7-20293.png", "id": "7HS8QQYQPG"}, {"alpha": {"Points": [{"co": {"X": 1, "Y": 1}, "interpolation": 2}, {"co": {"X": 5383, "Y": 0}, "handle_left": {"X": 0.5, "Y": 1}, "handle_right": {"X": 0.5, "Y": 0}, "handle_type": 0, "interpolation": 0}, {"co": {"X": 5413, "Y": 1}, "handle_left": {"X": 0.5, "Y": 1}, "handle_right": {"X": 0.5, "Y": 0}, "handle_type": 0, "interpolation": 0}, {"co": {"X": 41101, "Y": 1}, "handle_left": {"X": 0.5, "Y": 1}, "handle_right": {"X": 0.5, "Y": 0}, "handle_type": 0, "interpolation": 0}, {"co": {"X": 41131, "Y": 0}, "handle_left": {"X": 0.5, "Y": 1}, "handle_right": {"X": 0.5, "Y": 0}, "handle_type": 0, "interpolation": 0}]}, "anchor": 0, "channel_filter": {"Points": [{"co": {"X": 1, "Y": -1}, "interpolation": 2}]}, "channel_mapping": {"Points": [{"co": {"X": 1, "Y": -1}, "interpolation": 2}]}, "crop_height": {"Points": [{"co": {"X": 1, "Y": -1}, "interpolation": 2}]}, "crop_width": {"Points": [{"co": {"X": 1, "Y": -1}, "interpolation": 2}]}, "crop_x": {"Points": [{"co": {"X": 1, "Y": 0}, "interpolation": 2}]}, "crop_y": {"Points": [{"co": {"X": 1, "Y": 0}, "interpolation": 2}]}, "display": 0, "duration": 1371.0, "effects": [], "end": 1371, "gravity": 4, "has_audio": {"Points": [{"co": {"X": 1, "Y": -1}, "interpolation": 2}]}, "has_video": {"Points": [{"co": {"X": 1, "Y": -1}, "interpolation": 2}]}, "layer": 4, "location_x": {"Points": [{"co": {"X": 1, "Y": 0}, "interpolation": 2}]}, "location_y": {"Points": [{"co": {"X": 1, "Y": 0}, "interpolation": 2}]}, "mixing": 0, "perspective_c1_x": {"Points": [{"co": {"X": 1, "Y": -1}, "interpolation": 2}]}, "perspective_c1_y": {"Points": [{"co": {"X": 1, "Y": -1}, "interpolation": 2}]}, "perspective_c2_x": {"Points": [{"co": {"X": 1, "Y": -1}, "interpolation": 2}]}, "perspective_c2_y": {"Points": [{"co": {"X": 1, "Y": -1}, "interpolation": 2}]}, "perspective_c3_x": {"Points": [{"co": {"X": 1, "Y": -1}, "interpolation": 2}]}, "perspective_c3_y": {"Points": [{"co": {"X": 1, "Y": -1}, "interpolation": 2}]}, "perspective_c4_x": {"Points": [{"co": {"X": 1, "Y": -1}, "interpolation": 2}]}, "perspective_c4_y": {"Points": [{"co": {"X": 1, "Y": -1}, "interpolation": 2}]}, "position": 1237.6666666666667, "reader": {"acodec": "aac", "audio_bit_rate": 0, "audio_stream_index": 1, "audio_timebase": {"den": 1000, "num": 1}, "channel_layout": 3, "channels": 2, "display_ratio": {"den": 9, "num": 16}, "duration": 1371.0, "file_size": "456740423", "fps": {"den": 1, "num": 15}, "has_audio": true, "has_single_image": false, "has_video": true, "height": 720, "interlaced_frame": false, "metadata": {"DURATION": "00:22:51.580000000", "ENCODER": "Lavf58.29.100", "title": "Track1"}, "path": "../brutos/uso-do-protoboard#bruto.mkv", "pixel_format": 0, "pixel_ratio": {"den": 1, "num": 1}, "sample_rate": 44100, "top_field_first": true, "type": "FFmpegReader", "vcodec": "h264", "video_bit_rate": 332933, "video_length": "20565", "video_stream_index": 0, "video_timebase": {"den": 1000, "num": 1}, "width": 1280}, "rotation": {"Points": [{"co": {"X": 1, "Y": 0}, "interpolation": 2}]}, "scale": 1, "scale_x": {"Points": [{"co": {"X": 1, "Y": 1}, "interpolation": 2}]}, "scale_y": {"Points": [{"co": {"X": 1, "Y": 1}, "interpolation": 2}]}, "shear_x": {"Points": [{"co": {"X": 1, "Y": 0}, "interpolation": 2}]}, "shear_y": {"Points": [{"co": {"X": 1, "Y": 0}, "interpolation": 2}]}, "start": 1365.6666666666667, "time": {"Points": [{"co": {"X": 1, "Y": 1}, "interpolation": 2}]}, "volume": {"Points": [{"co": {"X": 1, "Y": 1}, "interpolation": 2}]}, "wave_color": {"alpha": {"Points": [{"co": {"X": 1, "Y": 255}, "handle_left": {"X": 0.5, "Y": 1}, "handle_right": {"X": 0.5, "Y": 0}, "handle_type": 0, "interpolation": 0}]}, "blue": {"Points": [{"co": {"X": 1, "Y": 255}, "handle_left": {"X": 0.5, "Y": 1}, "handle_right": {"X": 0.5, "Y": 0}, "handle_type": 0, "interpolation": 0}]}, "green": {"Points": [{"co": {"X": 1, "Y": 123}, "handle_left": {"X": 0.5, "Y": 1}, "handle_right": {"X": 0.5, "Y": 0}, "handle_type": 0, "interpolation": 0}]}, "red": {"Points": [{"co": {"X": 1, "Y": 0}, "handle_left": {"X": 0.5, "Y": 1}, "handle_right": {"X": 0.5, "Y": 0}, "handle_type": 0, "interpolation": 0}]}}, "waveform": false, "file_id": "POT0C18IYF", "title": "uso-do-protoboard#bruto.mkv", "image": "../../../../../../.openshot_qt/thumbnail/7UIXUBFT9L-20486.png", "id": "7UIXUBFT9L"}, {"alpha": {"Points": [{"co": {"X": 1, "Y": 1}, "interpolation": 2}, {"co": {"X": 1, "Y": 0}, "handle_left": {"X": 0.5, "Y": 1}, "handle_right": {"X": 0.5, "Y": 0}, "handle_type": 0, "interpolation": 0}, {"co": {"X": 31, "Y": 1}, "handle_left": {"X": 0.5, "Y": 1}, "handle_right": {"X": 0.5, "Y": 0}, "handle_type": 0, "interpolation": 0}, {"co": {"X": 177, "Y": 1}, "handle_left": {"X": 0.5, "Y": 1}, "handle_right": {"X": 0.5, "Y": 0}, "handle_type": 0, "interpolation": 0}, {"co": {"X": 207, "Y": 0}, "handle_left": {"X": 0.5, "Y": 1}, "handle_right": {"X": 0.5, "Y": 0}, "handle_type": 0, "interpolation": 0}, {"co": {"X": 110, "Y": 1}, "handle_left": {"X": 0.5, "Y": 1}, "handle_right": {"X": 0.5, "Y": 0}, "handle_type": 0, "interpolation": 0}, {"co": {"X": 140, "Y": 0}, "handle_left": {"X": 0.5, "Y": 1}, "handle_right": {"X": 0.5, "Y": 0}, "handle_type": 0, "interpolation": 0}]}, "anchor": 0, "channel_filter": {"Points": [{"co": {"X": 1, "Y": -1}, "interpolation": 2}]}, "channel_mapping": {"Points": [{"co": {"X": 1, "Y": -1}, "interpolation": 2}]}, "crop_height": {"Points": [{"co": {"X": 1, "Y": -1}, "interpolation": 2}]}, "crop_width": {"Points": [{"co": {"X": 1, "Y": -1}, "interpolation": 2}]}, "crop_x": {"Points": [{"co": {"X": 1, "Y": 0}, "interpolation": 2}]}, "crop_y": {"Points": [{"co": {"X": 1, "Y": 0}, "interpolation": 2}]}, "display": 0, "duration": 86400.0, "effects": [], "end": 4.633333333333334, "gravity": 4, "has_audio": {"Points": [{"co": {"X": 1, "Y": -1}, "interpolation": 2}]}, "has_video": {"Points": [{"co": {"X": 1, "Y": -1}, "interpolation": 2}]}, "id": "IXJ3JTUDTB", "layer": 3, "location_x": {"Points": [{"co": {"X": 1, "Y": 0}, "interpolation": 2}]}, "location_y": {"Points": [{"co": {"X": 1, "Y": 0}, "interpolation": 2}]}, "mixing": 0, "perspective_c1_x": {"Points": [{"co": {"X": 1, "Y": -1}, "interpolation": 2}]}, "perspective_c1_y": {"Points": [{"co": {"X": 1, "Y": -1}, "interpolation": 2}]}, "perspective_c2_x": {"Points": [{"co": {"X": 1, "Y": -1}, "interpolation": 2}]}, "perspective_c2_y": {"Points": [{"co": {"X": 1, "Y": -1}, "interpolation": 2}]}, "perspective_c3_x": {"Points": [{"co": {"X": 1, "Y": -1}, "interpolation": 2}]}, "perspective_c3_y": {"Points": [{"co": {"X": 1, "Y": -1}, "interpolation": 2}]}, "perspective_c4_x": {"Points": [{"co": {"X": 1, "Y": -1}, "interpolation": 2}]}, "perspective_c4_y": {"Points": [{"co": {"X": 1, "Y": -1}, "interpolation": 2}]}, "position": 1241.7, "reader": {"acodec": "", "audio_bit_rate": 0, "audio_stream_index": -1, "audio_timebase": {"den": 1, "num": 1}, "channel_layout": 4, "channels": 0, "display_ratio": {"den": 9, "num": 16}, "duration": 86400.0, "file_size": "3686400", "fps": {"den": 1, "num": 30}, "has_audio": false, "has_single_image": true, "has_video": true, "height": 720, "interlaced_frame": false, "metadata": {}, "path": "../fontes/capa.png", "pixel_format": -1, "pixel_ratio": {"den": 1, "num": 1}, "sample_rate": 0, "top_field_first": true, "type": "QtImageReader", "vcodec": "", "video_bit_rate": 0, "video_length": "2592000", "video_stream_index": -1, "video_timebase": {"den": 30, "num": 1}, "width": 1280}, "rotation": {"Points": [{"co": {"X": 1, "Y": 0}, "interpolation": 2}]}, "scale": 1, "scale_x": {"Points": [{"co": {"X": 1, "Y": 1}, "interpolation": 2}]}, "scale_y": {"Points": [{"co": {"X": 1, "Y": 1}, "interpolation": 2}]}, "shear_x": {"Points": [{"co": {"X": 1, "Y": 0}, "interpolation": 2}]}, "shear_y": {"Points": [{"co": {"X": 1, "Y": 0}, "interpolation": 2}]}, "start": 0, "time": {"Points": [{"co": {"X": 1, "Y": 1}, "interpolation": 2}]}, "volume": {"Points": [{"co": {"X": 1, "Y": 1}, "interpolation": 2}]}, "wave_color": {"alpha": {"Points": [{"co": {"X": 1, "Y": 255}, "handle_left": {"X": 0.5, "Y": 1}, "handle_right": {"X": 0.5, "Y": 0}, "handle_type": 0, "interpolation": 0}]}, "blue": {"Points": [{"co": {"X": 1, "Y": 255}, "handle_left": {"X": 0.5, "Y": 1}, "handle_right": {"X": 0.5, "Y": 0}, "handle_type": 0, "interpolation": 0}]}, "green": {"Points": [{"co": {"X": 1, "Y": 123}, "handle_left": {"X": 0.5, "Y": 1}, "handle_right": {"X": 0.5, "Y": 0}, "handle_type": 0, "interpolation": 0}]}, "red": {"Points": [{"co": {"X": 1, "Y": 0}, "handle_left": {"X": 0.5, "Y": 1}, "handle_right": {"X": 0.5, "Y": 0}, "handle_type": 0, "interpolation": 0}]}}, "waveform": false, "file_id": "GB9Q5MUFJH", "title": "capa.png", "image": "../../../../../../.openshot_qt/thumbnail/GB9Q5MUFJH.png"}], "effects": [], "export_path": "", "import_path": "", "files": [{"acodec": "aac", "audio_bit_rate": 0, "audio_stream_index": 1, "audio_timebase": {"den": 1000, "num": 1}, "channel_layout": 3, "channels": 2, "display_ratio": {"den": 9, "num": 16}, "duration": 1371, "file_size": "456740423", "fps": {"den": 1, "num": 15}, "has_audio": true, "has_single_image": false, "has_video": true, "height": 720, "interlaced_frame": false, "metadata": {"DURATION": "00:22:51.580000000", "ENCODER": "Lavf58.29.100", "title": "Track1"}, "path": "../brutos/uso-do-protoboard#bruto.mkv", "pixel_format": 0, "pixel_ratio": {"den": 1, "num": 1}, "sample_rate": 44100, "top_field_first": true, "type": "FFmpegReader", "vcodec": "h264", "video_bit_rate": 332933, "video_length": "20565", "video_stream_index": 0, "video_timebase": {"den": 1000, "num": 1}, "width": 1280, "media_type": "video", "id": "POT0C18IYF"}, {"acodec": "", "audio_bit_rate": 0, "audio_stream_index": -1, "audio_timebase": {"den": 1, "num": 1}, "channel_layout": 4, "channels": 0, "display_ratio": {"den": 9, "num": 16}, "duration": 86400, "file_size": "3686400", "fps": {"den": 1, "num": 30}, "has_audio": false, "has_single_image": true, "has_video": true, "height": 720, "interlaced_frame": false, "metadata": {}, "path": "../fontes/capa.png", "pixel_format": -1, "pixel_ratio": {"den": 1, "num": 1}, "sample_rate": 0, "top_field_first": true, "type": "QtImageReader", "vcodec": "", "video_bit_rate": 0, "video_length": "2592000", "video_stream_index": -1, "video_timebase": {"den": 30, "num": 1}, "width": 1280, "media_type": "image", "id": "GB9Q5MUFJH"}], "duration": 1387.4, "scale": 15, "tick_pixels": 100, "playhead_position": 0, "profile": "HD 720p 30 fps", "layers": [{"id": "L0", "label": "", "number": 0, "y": 0, "lock": false}, {"id": "L1", "label": "", "number": 1, "y": 0, "lock": false}, {"id": "L2", "label": "", "number": 2, "y": 0, "lock": false}, {"id": "L3", "label": "", "number": 3, "y": 0, "lock": false}, {"id": "L4", "label": "", "number": 4, "y": 0, "lock": false}], "markers": [{"position": 82.2, "icon": "blue.png", "id": "AAKDAI3LTA"}, {"position": 124.7, "icon": "blue.png", "id": "N04070STA8"}, {"position": 146.46666666666667, "icon": "blue.png", "id": "5OVL433EV3"}, {"position": 205.03333333333333, "icon": "blue.png", "id": "W8EUY67GCN"}, {"position": 225.73333333333332, "icon": "blue.png", "id": "1XDX9PXP3X"}, {"position": 258.03333333333336, "icon": "blue.png", "id": "KJXNJVTG6O"}, {"position": 147.36666666666667, "icon": "blue.png", "id": "5NKVPU2PI1"}, {"position": 165.2, "icon": "blue.png", "id": "H2MGBZI6I5"}, {"position": 187.86666666666667, "icon": "blue.png", "id": "1EHH7DTY2M"}, {"position": 169.9, "icon": "blue.png", "id": "9WWO9XJQMT"}, {"position": 214.16666666666666, "icon": "blue.png", "id": "ZCQLRFN2YO"}, {"position": 212.0, "icon": "blue.png", "id": "L0KQV3NLVS"}, {"position": 278.3, "icon": "blue.png", "id": "LXNEV8VY1X"}, {"position": 347.73333333333335, "icon": "blue.png", "id": "SDPQP6808T"}, {"position": 354.6333333333333, "icon": "blue.png", "id": "3XTXSRUHJD"}, {"position": 353.26666666666665, "icon": "blue.png", "id": "ORMC426V72"}, {"position": 467.6666666666667, "icon": "blue.png", "id": "8NT344WYQT"}, {"position": 456.6333333333333, "icon": "blue.png", "id": "DUSEHJ6QE3"}, {"position": 605.1666666666666, "icon": "blue.png", "id": "72ZZKHU7S6"}, {"position": 611.8666666666667, "icon": "blue.png", "id": "PR3AV5EEIT"}, {"position": 610.2, "icon": "blue.png", "id": "QTDM5ARMAG"}, {"position": 685.3333333333334, "icon": "blue.png", "id": "NQEKEN1MJ0"}, {"position": 625.8666666666667, "icon": "blue.png", "id": "DPC42P2SE5"}, {"position": 662.4666666666667, "icon": "blue.png", "id": "Y146AJRFHX"}, {"position": 660.5, "icon": "blue.png", "id": "AGS4AWXS0G"}, {"position": 658.8, "icon": "blue.png", "id": "BMTMA3HBT9"}, {"position": 655.4, "icon": "blue.png", "id": "25521DDKZ9"}, {"position": 1194.0666666666666, "icon": "blue.png", "id": "ZRP9UYK1O3"}, {"position": 1203.6666666666667, "icon": "blue.png", "id": "JS68O3KZE1"}, {"position": 1201.3666666666666, "icon": "blue.png", "id": "FAT6RXPGIP"}, {"position": 1237.6666666666667, "icon": "blue.png", "id": "JAP23WB4JI"}, {"position": 1242.9666666666667, "icon": "blue.png", "id": "0R8JUH4KQY"}, {"position": 1241.7, "icon": "blue.png", "id": "4QN8XMJ23Q"}], "progress": [], "history": {"undo": [{"type": "insert", "key": ["clips"], "value": {"alpha": {"Points": [{"co": {"X": 1, "Y": 1}, "interpolation": 2}, {"co": {"X": 5383, "Y": 0}, "handle_left": {"X": 0.5, "Y": 1}, "handle_right": {"X": 0.5, "Y": 0}, "handle_type": 0, "interpolation": 0}, {"co": {"X": 5413, "Y": 1}, "handle_left": {"X": 0.5, "Y": 1}, "handle_right": {"X": 0.5, "Y": 0}, "handle_type": 0, "interpolation": 0}, {"co": {"X": 41101, "Y": 1}, "handle_left": {"X": 0.5, "Y": 1}, "handle_right": {"X": 0.5, "Y": 0}, "handle_type": 0, "interpolation": 0}, {"co": {"X": 41131, "Y": 0}, "handle_left": {"X": 0.5, "Y": 1}, "handle_right": {"X": 0.5, "Y": 0}, "handle_type": 0, "interpolation": 0}]}, "anchor": 0, "channel_filter": {"Points": [{"co": {"X": 1, "Y": -1}, "interpolation": 2}]}, "channel_mapping": {"Points": [{"co": {"X": 1, "Y": -1}, "interpolation": 2}]}, "crop_height": {"Points": [{"co": {"X": 1, "Y": -1}, "interpolation": 2}]}, "crop_width": {"Points": [{"co": {"X": 1, "Y": -1}, "interpolation": 2}]}, "crop_x": {"Points": [{"co": {"X": 1, "Y": 0}, "interpolation": 2}]}, "crop_y": {"Points": [{"co": {"X": 1, "Y": 0}, "interpolation": 2}]}, "display": 0, "duration": 1371.0, "effects": [], "end": 1371, "gravity": 4, "has_audio": {"Points": [{"co": {"X": 1, "Y": -1}, "interpolation": 2}]}, "has_video": {"Points": [{"co": {"X": 1, "Y": -1}, "interpolation": 2}]}, "layer": 4, "location_x": {"Points": [{"co": {"X": 1, "Y": 0}, "interpolation": 2}]}, "location_y": {"Points": [{"co": {"X": 1, "Y": 0}, "interpolation": 2}]}, "mixing": 0, "perspective_c1_x": {"Points": [{"co": {"X": 1, "Y": -1}, "interpolation": 2}]}, "perspective_c1_y": {"Points": [{"co": {"X": 1, "Y": -1}, "interpolation": 2}]}, "perspective_c2_x": {"Points": [{"co": {"X": 1, "Y": -1}, "interpolation": 2}]}, "perspective_c2_y": {"Points": [{"co": {"X": 1, "Y": -1}, "interpolation": 2}]}, "perspective_c3_x": {"Points": [{"co": {"X": 1, "Y": -1}, "interpolation": 2}]}, "perspective_c3_y": {"Points": [{"co": {"X": 1, "Y": -1}, "interpolation": 2}]}, "perspective_c4_x": {"Points": [{"co": {"X": 1, "Y": -1}, "interpolation": 2}]}, "perspective_c4_y": {"Points": [{"co": {"X": 1, "Y": -1}, "interpolation": 2}]}, "position": 1237.6666666666667, "reader": {"acodec": "aac", "audio_bit_rate": 0, "audio_stream_index": 1, "audio_timebase": {"den": 1000, "num": 1}, "channel_layout": 3, "channels": 2, "display_ratio": {"den": 9, "num": 16}, "duration": 1371.0, "file_size": "456740423", "fps": {"den": 1, "num": 15}, "has_audio": true, "has_single_image": false, "has_video": true, "height": 720, "interlaced_frame": false, "metadata": {"DURATION": "00:22:51.580000000", "ENCODER": "Lavf58.29.100", "title": "Track1"}, "path": "/home/mpt/Documentos/Projetos/sisdig/3.5-videos/painel-digital-e-protoboard/brutos/uso-do-protoboard#bruto.mkv", "pixel_format": 0, "pixel_ratio": {"den": 1, "num": 1}, "sample_rate": 44100, "top_field_first": true, "type": "FFmpegReader", "vcodec": "h264", "video_bit_rate": 332933, "video_length": "20565", "video_stream_index": 0, "video_timebase": {"den": 1000, "num": 1}, "width": 1280}, "rotation": {"Points": [{"co": {"X": 1, "Y": 0}, "interpolation": 2}]}, "scale": 1, "scale_x": {"Points": [{"co": {"X": 1, "Y": 1}, "interpolation": 2}]}, "scale_y": {"Points": [{"co": {"X": 1, "Y": 1}, "interpolation": 2}]}, "shear_x": {"Points": [{"co": {"X": 1, "Y": 0}, "interpolation": 2}]}, "shear_y": {"Points": [{"co": {"X": 1, "Y": 0}, "interpolation": 2}]}, "start": 1365.6666666666667, "time": {"Points": [{"co": {"X": 1, "Y": 1}, "interpolation": 2}]}, "volume": {"Points": [{"co": {"X": 1, "Y": 1}, "interpolation": 2}]}, "wave_color": {"alpha": {"Points": [{"co": {"X": 1, "Y": 255}, "handle_left": {"X": 0.5, "Y": 1}, "handle_right": {"X": 0.5, "Y": 0}, "handle_type": 0, "interpolation": 0}]}, "blue": {"Points": [{"co": {"X": 1, "Y": 255}, "handle_left": {"X": 0.5, "Y": 1}, "handle_right": {"X": 0.5, "Y": 0}, "handle_type": 0, "interpolation": 0}]}, "green": {"Points": [{"co": {"X": 1, "Y": 123}, "handle_left": {"X": 0.5, "Y": 1}, "handle_right": {"X": 0.5, "Y": 0}, "handle_type": 0, "interpolation": 0}]}, "red": {"Points": [{"co": {"X": 1, "Y": 0}, "handle_left": {"X": 0.5, "Y": 1}, "handle_right": {"X": 0.5, "Y": 0}, "handle_type": 0, "interpolation": 0}]}}, "waveform": false, "file_id": "POT0C18IYF", "title": "uso-do-protoboard#bruto.mkv", "image": "/home/mpt/.openshot_qt/thumbnail/7UIXUBFT9L-20486.png", "id": "7UIXUBFT9L"}, "partial": false, "old_values": [{"alpha": {"Points": [{"co": {"X": 1, "Y": 1}, "interpolation": 2}]}, "anchor": 0, "channel_filter": {"Points": [{"co": {"X": 1, "Y": -1}, "interpolation": 2}]}, "channel_mapping": {"Points": [{"co": {"X": 1, "Y": -1}, "interpolation": 2}]}, "crop_height": {"Points": [{"co": {"X": 1, "Y": -1}, "interpolation": 2}]}, "crop_width": {"Points": [{"co": {"X": 1, "Y": -1}, "interpolation": 2}]}, "crop_x": {"Points": [{"co": {"X": 1, "Y": 0}, "interpolation": 2}]}, "crop_y": {"Points": [{"co": {"X": 1, "Y": 0}, "interpolation": 2}]}, "display": 0, "duration": 1371.0, "effects": [], "end": 76.03333333333333, "gravity": 4, "has_audio": {"Points": [{"co": {"X": 1, "Y": -1}, "interpolation": 2}]}, "has_video": {"Points": [{"co": {"X": 1, "Y": -1}, "interpolation": 2}]}, "id": "W3XZDHJXGQ", "layer": 4, "location_x": {"Points": [{"co": {"X": 1, "Y": 0}, "interpolation": 2}]}, "location_y": {"Points": [{"co": {"X": 1, "Y": 0}, "interpolation": 2}]}, "mixing": 0, "perspective_c1_x": {"Points": [{"co": {"X": 1, "Y": -1}, "interpolation": 2}]}, "perspective_c1_y": {"Points": [{"co": {"X": 1, "Y": -1}, "interpolation": 2}]}, "perspective_c2_x": {"Points": [{"co": {"X": 1, "Y": -1}, "interpolation": 2}]}, "perspective_c2_y": {"Points": [{"co": {"X": 1, "Y": -1}, "interpolation": 2}]}, "perspective_c3_x": {"Points": [{"co": {"X": 1, "Y": -1}, "interpolation": 2}]}, "perspective_c3_y": {"Points": [{"co": {"X": 1, "Y": -1}, "interpolation": 2}]}, "perspective_c4_x": {"Points": [{"co": {"X": 1, "Y": -1}, "interpolation": 2}]}, "perspective_c4_y": {"Points": [{"co": {"X": 1, "Y": -1}, "interpolation": 2}]}, "position": 0, "reader": {"acodec": "aac", "audio_bit_rate": 0, "audio_stream_index": 1, "audio_timebase": {"den": 1000, "num": 1}, "channel_layout": 3, "channels": 2, "display_ratio": {"den": 9, "num": 16}, "duration": 1371.0, "file_size": "456740423", "fps": {"den": 1, "num": 15}, "has_audio": true, "has_single_image": false, "has_video": true, "height": 720, "interlaced_frame": false, "metadata": {"DURATION": "00:22:51.580000000", "ENCODER": "Lavf58.29.100", "title": "Track1"}, "path": "/home/mpt/Documentos/Projetos/sisdig/3.5-videos/painel-digital-e-protoboard/brutos/uso-do-protoboard#bruto.mkv", "pixel_format": 0, "pixel_ratio": {"den": 1, "num": 1}, "sample_rate": 44100, "top_field_first": true, "type": "FFmpegReader", "vcodec": "h264", "video_bit_rate": 332933, "video_length": "20565", "video_stream_index": 0, "video_timebase": {"den": 1000, "num": 1}, "width": 1280}, "rotation": {"Points": [{"co": {"X": 1, "Y": 0}, "interpolation": 2}]}, "scale": 1, "scale_x": {"Points": [{"co": {"X": 1, "Y": 1}, "interpolation": 2}]}, "scale_y": {"Points": [{"co": {"X": 1, "Y": 1}, "interpolation": 2}]}, "shear_x": {"Points": [{"co": {"X": 1, "Y": 0}, "interpolation": 2}]}, "shear_y": {"Points": [{"co": {"X": 1, "Y": 0}, "interpolation": 2}]}, "start": 0, "time": {"Points": [{"co": {"X": 1, "Y": 1}, "interpolation": 2}]}, "volume": {"Points": [{"co": {"X": 1, "Y": 1}, "interpolation": 2}]}, "wave_color": {"alpha": {"Points": [{"co": {"X": 1, "Y": 255}, "handle_left": {"X": 0.5, "Y": 1}, "handle_right": {"X": 0.5, "Y": 0}, "handle_type": 0, "interpolation": 0}]}, "blue": {"Points": [{"co": {"X": 1, "Y": 255}, "handle_left": {"X": 0.5, "Y": 1}, "handle_right": {"X": 0.5, "Y": 0}, "handle_type": 0, "interpolation": 0}]}, "green": {"Points": [{"co": {"X": 1, "Y": 123}, "handle_left": {"X": 0.5, "Y": 1}, "handle_right": {"X": 0.5, "Y": 0}, "handle_type": 0, "interpolation": 0}]}, "red": {"Points": [{"co": {"X": 1, "Y": 0}, "handle_left": {"X": 0.5, "Y": 1}, "handle_right": {"X": 0.5, "Y": 0}, "handle_type": 0, "interpolation": 0}]}}, "waveform": false, "file_id": "POT0C18IYF", "title": "uso-do-protoboard#bruto.mkv", "image": "/home/mpt/.openshot_qt/thumbnail/POT0C18IYF.png"}, {"alpha": {"Points": [{"co": {"X": 1, "Y": 1}, "interpolation": 2}]}, "anchor": 0, "channel_filter": {"Points": [{"co": {"X": 1, "Y": -1}, "interpolation": 2}]}, "channel_mapping": {"Points": [{"co": {"X": 1, "Y": -1}, "interpolation": 2}]}, "crop_height": {"Points": [{"co": {"X": 1, "Y": -1}, "interpolation": 2}]}, "crop_width": {"Points": [{"co": {"X": 1, "Y": -1}, "interpolation": 2}]}, "crop_x": {"Points": [{"co": {"X": 1, "Y": 0}, "interpolation": 2}]}, "crop_y": {"Points": [{"co": {"X": 1, "Y": 0}, "interpolation": 2}]}, "display": 0, "duration": 1371.0, "effects": [], "end": 124.76666666666667, "gravity": 4, "has_audio": {"Points": [{"co": {"X": 1, "Y": -1}, "interpolation": 2}]}, "has_video": {"Points": [{"co": {"X": 1, "Y": -1}, "interpolation": 2}]}, "layer": 4, "location_x": {"Points": [{"co": {"X": 1, "Y": 0}, "interpolation": 2}]}, "location_y": {"Points": [{"co": {"X": 1, "Y": 0}, "interpolation": 2}]}, "mixing": 0, "perspective_c1_x": {"Points": [{"co": {"X": 1, "Y": -1}, "interpolation": 2}]}, "perspective_c1_y": {"Points": [{"co": {"X": 1, "Y": -1}, "interpolation": 2}]}, "perspective_c2_x": {"Points": [{"co": {"X": 1, "Y": -1}, "interpolation": 2}]}, "perspective_c2_y": {"Points": [{"co": {"X": 1, "Y": -1}, "interpolation": 2}]}, "perspective_c3_x": {"Points": [{"co": {"X": 1, "Y": -1}, "interpolation": 2}]}, "perspective_c3_y": {"Points": [{"co": {"X": 1, "Y": -1}, "interpolation": 2}]}, "perspective_c4_x": {"Points": [{"co": {"X": 1, "Y": -1}, "interpolation": 2}]}, "perspective_c4_y": {"Points": [{"co": {"X": 1, "Y": -1}, "interpolation": 2}]}, "position": 76.03333333333333, "reader": {"acodec": "aac", "audio_bit_rate": 0, "audio_stream_index": 1, "audio_timebase": {"den": 1000, "num": 1}, "channel_layout": 3, "channels": 2, "display_ratio": {"den": 9, "num": 16}, "duration": 1371.0, "file_size": "456740423", "fps": {"den": 1, "num": 15}, "has_audio": true, "has_single_image": false, "has_video": true, "height": 720, "interlaced_frame": false, "metadata": {"DURATION": "00:22:51.580000000", "ENCODER": "Lavf58.29.100", "title": "Track1"}, "path": "/home/mpt/Documentos/Projetos/sisdig/3.5-videos/painel-digital-e-protoboard/brutos/uso-do-protoboard#bruto.mkv", "pixel_format": 0, "pixel_ratio": {"den": 1, "num": 1}, "sample_rate": 44100, "top_field_first": true, "type": "FFmpegReader", "vcodec": "h264", "video_bit_rate": 332933, "video_length": "20565", "video_stream_index": 0, "video_timebase": {"den": 1000, "num": 1}, "width": 1280}, "rotation": {"Points": [{"co": {"X": 1, "Y": 0}, "interpolation": 2}]}, "scale": 1, "scale_x": {"Points": [{"co": {"X": 1, "Y": 1}, "interpolation": 2}]}, "scale_y": {"Points": [{"co": {"X": 1, "Y": 1}, "interpolation": 2}]}, "shear_x": {"Points": [{"co": {"X": 1, "Y": 0}, "interpolation": 2}]}, "shear_y": {"Points": [{"co": {"X": 1, "Y": 0}, "interpolation": 2}]}, "start": 76.1, "time": {"Points": [{"co": {"X": 1, "Y": 1}, "interpolation": 2}]}, "volume": {"Points": [{"co": {"X": 1, "Y": 1}, "interpolation": 2}]}, "wave_color": {"alpha": {"Points": [{"co": {"X": 1, "Y": 255}, "handle_left": {"X": 0.5, "Y": 1}, "handle_right": {"X": 0.5, "Y": 0}, "handle_type": 0, "interpolation": 0}]}, "blue": {"Points": [{"co": {"X": 1, "Y": 255}, "handle_left": {"X": 0.5, "Y": 1}, "handle_right": {"X": 0.5, "Y": 0}, "handle_type": 0, "interpolation": 0}]}, "green": {"Points": [{"co": {"X": 1, "Y": 123}, "handle_left": {"X": 0.5, "Y": 1}, "handle_right": {"X": 0.5, "Y": 0}, "handle_type": 0, "interpolation": 0}]}, "red": {"Points": [{"co": {"X": 1, "Y": 0}, "handle_left": {"X": 0.5, "Y": 1}, "handle_right": {"X": 0.5, "Y": 0}, "handle_type": 0, "interpolation": 0}]}}, "waveform": false, "file_id": "POT0C18IYF", "title": "uso-do-protoboard#bruto.mkv", "image": "/home/mpt/.openshot_qt/thumbnail/BPH4G1I1FK-1143.png", "id": "BPH4G1I1FK"}, {"alpha": {"Points": [{"co": {"X": 1, "Y": 1}, "interpolation": 2}, {"co": {"X": 4962, "Y": 1}, "handle_left": {"X": 0.5, "Y": 1}, "handle_right": {"X": 0.5, "Y": 0}, "handle_type": 0, "interpolation": 0}, {"co": {"X": 4992, "Y": 0}, "handle_left": {"X": 0.5, "Y": 1}, "handle_right": {"X": 0.5, "Y": 0}, "handle_type": 0, "interpolation": 0}]}, "anchor": 0, "channel_filter": {"Points": [{"co": {"X": 1, "Y": -1}, "interpolation": 2}]}, "channel_mapping": {"Points": [{"co": {"X": 1, "Y": -1}, "interpolation": 2}]}, "crop_height": {"Points": [{"co": {"X": 1, "Y": -1}, "interpolation": 2}]}, "crop_width": {"Points": [{"co": {"X": 1, "Y": -1}, "interpolation": 2}]}, "crop_x": {"Points": [{"co": {"X": 1, "Y": 0}, "interpolation": 2}]}, "crop_y": {"Points": [{"co": {"X": 1, "Y": 0}, "interpolation": 2}]}, "display": 0, "duration": 1371.0, "effects": [], "end": 166.36666666666667, "gravity": 4, "has_audio": {"Points": [{"co": {"X": 1, "Y": -1}, "interpolation": 2}]}, "has_video": {"Points": [{"co": {"X": 1, "Y": -1}, "interpolation": 2}]}, "layer": 4, "location_x": {"Points": [{"co": {"X": 1, "Y": 0}, "interpolation": 2}]}, "location_y": {"Points": [{"co": {"X": 1, "Y": 0}, "interpolation": 2}]}, "mixing": 0, "perspective_c1_x": {"Points": [{"co": {"X": 1, "Y": -1}, "interpolation": 2}]}, "perspective_c1_y": {"Points": [{"co": {"X": 1, "Y": -1}, "interpolation": 2}]}, "perspective_c2_x": {"Points": [{"co": {"X": 1, "Y": -1}, "interpolation": 2}]}, "perspective_c2_y": {"Points": [{"co": {"X": 1, "Y": -1}, "interpolation": 2}]}, "perspective_c3_x": {"Points": [{"co": {"X": 1, "Y": -1}, "interpolation": 2}]}, "perspective_c3_y": {"Points": [{"co": {"X": 1, "Y": -1}, "interpolation": 2}]}, "perspective_c4_x": {"Points": [{"co": {"X": 1, "Y": -1}, "interpolation": 2}]}, "perspective_c4_y": {"Points": [{"co": {"X": 1, "Y": -1}, "interpolation": 2}]}, "position": 124.7, "reader": {"acodec": "aac", "audio_bit_rate": 0, "audio_stream_index": 1, "audio_timebase": {"den": 1000, "num": 1}, "channel_layout": 3, "channels": 2, "display_ratio": {"den": 9, "num": 16}, "duration": 1371.0, "file_size": "456740423", "fps": {"den": 1, "num": 15}, "has_audio": true, "has_single_image": false, "has_video": true, "height": 720, "interlaced_frame": false, "metadata": {"DURATION": "00:22:51.580000000", "ENCODER": "Lavf58.29.100", "title": "Track1"}, "path": "/home/mpt/Documentos/Projetos/sisdig/3.5-videos/painel-digital-e-protoboard/brutos/uso-do-protoboard#bruto.mkv", "pixel_format": 0, "pixel_ratio": {"den": 1, "num": 1}, "sample_rate": 44100, "top_field_first": true, "type": "FFmpegReader", "vcodec": "h264", "video_bit_rate": 332933, "video_length": "20565", "video_stream_index": 0, "video_timebase": {"den": 1000, "num": 1}, "width": 1280}, "rotation": {"Points": [{"co": {"X": 1, "Y": 0}, "interpolation": 2}]}, "scale": 1, "scale_x": {"Points": [{"co": {"X": 1, "Y": 1}, "interpolation": 2}]}, "scale_y": {"Points": [{"co": {"X": 1, "Y": 1}, "interpolation": 2}]}, "shear_x": {"Points": [{"co": {"X": 1, "Y": 0}, "interpolation": 2}]}, "shear_y": {"Points": [{"co": {"X": 1, "Y": 0}, "interpolation": 2}]}, "start": 146.63333333333333, "time": {"Points": [{"co": {"X": 1, "Y": 1}, "interpolation": 2}]}, "volume": {"Points": [{"co": {"X": 1, "Y": 1}, "interpolation": 2}]}, "wave_color": {"alpha": {"Points": [{"co": {"X": 1, "Y": 255}, "handle_left": {"X": 0.5, "Y": 1}, "handle_right": {"X": 0.5, "Y": 0}, "handle_type": 0, "interpolation": 0}]}, "blue": {"Points": [{"co": {"X": 1, "Y": 255}, "handle_left": {"X": 0.5, "Y": 1}, "handle_right": {"X": 0.5, "Y": 0}, "handle_type": 0, "interpolation": 0}]}, "green": {"Points": [{"co": {"X": 1, "Y": 123}, "handle_left": {"X": 0.5, "Y": 1}, "handle_right": {"X": 0.5, "Y": 0}, "handle_type": 0, "interpolation": 0}]}, "red": {"Points": [{"co": {"X": 1, "Y": 0}, "handle_left": {"X": 0.5, "Y": 1}, "handle_right": {"X": 0.5, "Y": 0}, "handle_type": 0, "interpolation": 0}]}}, "waveform": false, "file_id": "POT0C18IYF", "title": "uso-do-protoboard#bruto.mkv", "image": "/home/mpt/.openshot_qt/thumbnail/7JQQM2Y01X-2201.png", "id": "7JQQM2Y01X"}, {"alpha": {"Points": [{"co": {"X": 1, "Y": 1}, "interpolation": 2}, {"co": {"X": 5383, "Y": 0}, "handle_left": {"X": 0.5, "Y": 1}, "handle_right": {"X": 0.5, "Y": 0}, "handle_type": 0, "interpolation": 0}, {"co": {"X": 5413, "Y": 1}, "handle_left": {"X": 0.5, "Y": 1}, "handle_right": {"X": 0.5, "Y": 0}, "handle_type": 0, "interpolation": 0}]}, "anchor": 0, "channel_filter": {"Points": [{"co": {"X": 1, "Y": -1}, "interpolation": 2}]}, "channel_mapping": {"Points": [{"co": {"X": 1, "Y": -1}, "interpolation": 2}]}, "crop_height": {"Points": [{"co": {"X": 1, "Y": -1}, "interpolation": 2}]}, "crop_width": {"Points": [{"co": {"X": 1, "Y": -1}, "interpolation": 2}]}, "crop_x": {"Points": [{"co": {"X": 1, "Y": 0}, "interpolation": 2}]}, "crop_y": {"Points": [{"co": {"X": 1, "Y": 0}, "interpolation": 2}]}, "display": 0, "duration": 1371.0, "effects": [], "end": 204.86666666666667, "gravity": 4, "has_audio": {"Points": [{"co": {"X": 1, "Y": -1}, "interpolation": 2}]}, "has_video": {"Points": [{"co": {"X": 1, "Y": -1}, "interpolation": 2}]}, "layer": 4, "location_x": {"Points": [{"co": {"X": 1, "Y": 0}, "interpolation": 2}]}, "location_y": {"Points": [{"co": {"X": 1, "Y": 0}, "interpolation": 2}]}, "mixing": 0, "perspective_c1_x": {"Points": [{"co": {"X": 1, "Y": -1}, "interpolation": 2}]}, "perspective_c1_y": {"Points": [{"co": {"X": 1, "Y": -1}, "interpolation": 2}]}, "perspective_c2_x": {"Points": [{"co": {"X": 1, "Y": -1}, "interpolation": 2}]}, "perspective_c2_y": {"Points": [{"co": {"X": 1, "Y": -1}, "interpolation": 2}]}, "perspective_c3_x": {"Points": [{"co": {"X": 1, "Y": -1}, "interpolation": 2}]}, "perspective_c3_y": {"Points": [{"co": {"X": 1, "Y": -1}, "interpolation": 2}]}, "perspective_c4_x": {"Points": [{"co": {"X": 1, "Y": -1}, "interpolation": 2}]}, "perspective_c4_y": {"Points": [{"co": {"X": 1, "Y": -1}, "interpolation": 2}]}, "position": 144.43333333333334, "reader": {"acodec": "aac", "audio_bit_rate": 0, "audio_stream_index": 1, "audio_timebase": {"den": 1000, "num": 1}, "channel_layout": 3, "channels": 2, "display_ratio": {"den": 9, "num": 16}, "duration": 1371.0, "file_size": "456740423", "fps": {"den": 1, "num": 15}, "has_audio": true, "has_single_image": false, "has_video": true, "height": 720, "interlaced_frame": false, "metadata": {"DURATION": "00:22:51.580000000", "ENCODER": "Lavf58.29.100", "title": "Track1"}, "path": "/home/mpt/Documentos/Projetos/sisdig/3.5-videos/painel-digital-e-protoboard/brutos/uso-do-protoboard#bruto.mkv", "pixel_format": 0, "pixel_ratio": {"den": 1, "num": 1}, "sample_rate": 44100, "top_field_first": true, "type": "FFmpegReader", "vcodec": "h264", "video_bit_rate": 332933, "video_length": "20565", "video_stream_index": 0, "video_timebase": {"den": 1000, "num": 1}, "width": 1280}, "rotation": {"Points": [{"co": {"X": 1, "Y": 0}, "interpolation": 2}]}, "scale": 1, "scale_x": {"Points": [{"co": {"X": 1, "Y": 1}, "interpolation": 2}]}, "scale_y": {"Points": [{"co": {"X": 1, "Y": 1}, "interpolation": 2}]}, "shear_x": {"Points": [{"co": {"X": 1, "Y": 0}, "interpolation": 2}]}, "shear_y": {"Points": [{"co": {"X": 1, "Y": 0}, "interpolation": 2}]}, "start": 179.4, "time": {"Points": [{"co": {"X": 1, "Y": 1}, "interpolation": 2}]}, "volume": {"Points": [{"co": {"X": 1, "Y": 1}, "interpolation": 2}]}, "wave_color": {"alpha": {"Points": [{"co": {"X": 1, "Y": 255}, "handle_left": {"X": 0.5, "Y": 1}, "handle_right": {"X": 0.5, "Y": 0}, "handle_type": 0, "interpolation": 0}]}, "blue": {"Points": [{"co": {"X": 1, "Y": 255}, "handle_left": {"X": 0.5, "Y": 1}, "handle_right": {"X": 0.5, "Y": 0}, "handle_type": 0, "interpolation": 0}]}, "green": {"Points": [{"co": {"X": 1, "Y": 123}, "handle_left": {"X": 0.5, "Y": 1}, "handle_right": {"X": 0.5, "Y": 0}, "handle_type": 0, "interpolation": 0}]}, "red": {"Points": [{"co": {"X": 1, "Y": 0}, "handle_left": {"X": 0.5, "Y": 1}, "handle_right": {"X": 0.5, "Y": 0}, "handle_type": 0, "interpolation": 0}]}}, "waveform": false, "file_id": "POT0C18IYF", "title": "uso-do-protoboard#bruto.mkv", "image": "/home/mpt/.openshot_qt/thumbnail/OPVUXQ87O9-2692.png", "id": "OPVUXQ87O9"}, {"alpha": {"Points": [{"co": {"X": 1, "Y": 1}, "interpolation": 2}, {"co": {"X": 5383, "Y": 0}, "handle_left": {"X": 0.5, "Y": 1}, "handle_right": {"X": 0.5, "Y": 0}, "handle_type": 0, "interpolation": 0}, {"co": {"X": 5413, "Y": 1}, "handle_left": {"X": 0.5, "Y": 1}, "handle_right": {"X": 0.5, "Y": 0}, "handle_type": 0, "interpolation": 0}]}, "anchor": 0, "channel_filter": {"Points": [{"co": {"X": 1, "Y": -1}, "interpolation": 2}]}, "channel_mapping": {"Points": [{"co": {"X": 1, "Y": -1}, "interpolation": 2}]}, "crop_height": {"Points": [{"co": {"X": 1, "Y": -1}, "interpolation": 2}]}, "crop_width": {"Points": [{"co": {"X": 1, "Y": -1}, "interpolation": 2}]}, "crop_x": {"Points": [{"co": {"X": 1, "Y": 0}, "interpolation": 2}]}, "crop_y": {"Points": [{"co": {"X": 1, "Y": 0}, "interpolation": 2}]}, "display": 0, "duration": 1371.0, "effects": [], "end": 257.3666666666667, "gravity": 4, "has_audio": {"Points": [{"co": {"X": 1, "Y": -1}, "interpolation": 2}]}, "has_video": {"Points": [{"co": {"X": 1, "Y": -1}, "interpolation": 2}]}, "layer": 4, "location_x": {"Points": [{"co": {"X": 1, "Y": 0}, "interpolation": 2}]}, "location_y": {"Points": [{"co": {"X": 1, "Y": 0}, "interpolation": 2}]}, "mixing": 0, "perspective_c1_x": {"Points": [{"co": {"X": 1, "Y": -1}, "interpolation": 2}]}, "perspective_c1_y": {"Points": [{"co": {"X": 1, "Y": -1}, "interpolation": 2}]}, "perspective_c2_x": {"Points": [{"co": {"X": 1, "Y": -1}, "interpolation": 2}]}, "perspective_c2_y": {"Points": [{"co": {"X": 1, "Y": -1}, "interpolation": 2}]}, "perspective_c3_x": {"Points": [{"co": {"X": 1, "Y": -1}, "interpolation": 2}]}, "perspective_c3_y": {"Points": [{"co": {"X": 1, "Y": -1}, "interpolation": 2}]}, "perspective_c4_x": {"Points": [{"co": {"X": 1, "Y": -1}, "interpolation": 2}]}, "perspective_c4_y": {"Points": [{"co": {"X": 1, "Y": -1}, "interpolation": 2}]}, "position": 169.9, "reader": {"acodec": "aac", "audio_bit_rate": 0, "audio_stream_index": 1, "audio_timebase": {"den": 1000, "num": 1}, "channel_layout": 3, "channels": 2, "display_ratio": {"den": 9, "num": 16}, "duration": 1371.0, "file_size": "456740423", "fps": {"den": 1, "num": 15}, "has_audio": true, "has_single_image": false, "has_video": true, "height": 720, "interlaced_frame": false, "metadata": {"DURATION": "00:22:51.580000000", "ENCODER": "Lavf58.29.100", "title": "Track1"}, "path": "/home/mpt/Documentos/Projetos/sisdig/3.5-videos/painel-digital-e-protoboard/brutos/uso-do-protoboard#bruto.mkv", "pixel_format": 0, "pixel_ratio": {"den": 1, "num": 1}, "sample_rate": 44100, "top_field_first": true, "type": "FFmpegReader", "vcodec": "h264", "video_bit_rate": 332933, "video_length": "20565", "video_stream_index": 0, "video_timebase": {"den": 1000, "num": 1}, "width": 1280}, "rotation": {"Points": [{"co": {"X": 1, "Y": 0}, "interpolation": 2}]}, "scale": 1, "scale_x": {"Points": [{"co": {"X": 1, "Y": 1}, "interpolation": 2}]}, "scale_y": {"Points": [{"co": {"X": 1, "Y": 1}, "interpolation": 2}]}, "shear_x": {"Points": [{"co": {"X": 1, "Y": 0}, "interpolation": 2}]}, "shear_y": {"Points": [{"co": {"X": 1, "Y": 0}, "interpolation": 2}]}, "start": 222.93333333333334, "time": {"Points": [{"co": {"X": 1, "Y": 1}, "interpolation": 2}]}, "volume": {"Points": [{"co": {"X": 1, "Y": 1}, "interpolation": 2}]}, "wave_color": {"alpha": {"Points": [{"co": {"X": 1, "Y": 255}, "handle_left": {"X": 0.5, "Y": 1}, "handle_right": {"X": 0.5, "Y": 0}, "handle_type": 0, "interpolation": 0}]}, "blue": {"Points": [{"co": {"X": 1, "Y": 255}, "handle_left": {"X": 0.5, "Y": 1}, "handle_right": {"X": 0.5, "Y": 0}, "handle_type": 0, "interpolation": 0}]}, "green": {"Points": [{"co": {"X": 1, "Y": 123}, "handle_left": {"X": 0.5, "Y": 1}, "handle_right": {"X": 0.5, "Y": 0}, "handle_type": 0, "interpolation": 0}]}, "red": {"Points": [{"co": {"X": 1, "Y": 0}, "handle_left": {"X": 0.5, "Y": 1}, "handle_right": {"X": 0.5, "Y": 0}, "handle_type": 0, "interpolation": 0}]}}, "waveform": false, "file_id": "POT0C18IYF", "title": "uso-do-protoboard#bruto.mkv", "image": "/home/mpt/.openshot_qt/thumbnail/2FWBZ43S4E-3345.png", "id": "2FWBZ43S4E"}, {"alpha": {"Points": [{"co": {"X": 1, "Y": 1}, "interpolation": 2}, {"co": {"X": 5383, "Y": 0}, "handle_left": {"X": 0.5, "Y": 1}, "handle_right": {"X": 0.5, "Y": 0}, "handle_type": 0, "interpolation": 0}, {"co": {"X": 5413, "Y": 1}, "handle_left": {"X": 0.5, "Y": 1}, "handle_right": {"X": 0.5, "Y": 0}, "handle_type": 0, "interpolation": 0}]}, "anchor": 0, "channel_filter": {"Points": [{"co": {"X": 1, "Y": -1}, "interpolation": 2}]}, "channel_mapping": {"Points": [{"co": {"X": 1, "Y": -1}, "interpolation": 2}]}, "crop_height": {"Points": [{"co": {"X": 1, "Y": -1}, "interpolation": 2}]}, "crop_width": {"Points": [{"co": {"X": 1, "Y": -1}, "interpolation": 2}]}, "crop_x": {"Points": [{"co": {"X": 1, "Y": 0}, "interpolation": 2}]}, "crop_y": {"Points": [{"co": {"X": 1, "Y": 0}, "interpolation": 2}]}, "display": 0, "duration": 1371.0, "effects": [], "end": 406.33333333333337, "gravity": 4, "has_audio": {"Points": [{"co": {"X": 1, "Y": -1}, "interpolation": 2}]}, "has_video": {"Points": [{"co": {"X": 1, "Y": -1}, "interpolation": 2}]}, "layer": 4, "location_x": {"Points": [{"co": {"X": 1, "Y": 0}, "interpolation": 2}]}, "location_y": {"Points": [{"co": {"X": 1, "Y": 0}, "interpolation": 2}]}, "mixing": 0, "perspective_c1_x": {"Points": [{"co": {"X": 1, "Y": -1}, "interpolation": 2}]}, "perspective_c1_y": {"Points": [{"co": {"X": 1, "Y": -1}, "interpolation": 2}]}, "perspective_c2_x": {"Points": [{"co": {"X": 1, "Y": -1}, "interpolation": 2}]}, "perspective_c2_y": {"Points": [{"co": {"X": 1, "Y": -1}, "interpolation": 2}]}, "perspective_c3_x": {"Points": [{"co": {"X": 1, "Y": -1}, "interpolation": 2}]}, "perspective_c3_y": {"Points": [{"co": {"X": 1, "Y": -1}, "interpolation": 2}]}, "perspective_c4_x": {"Points": [{"co": {"X": 1, "Y": -1}, "interpolation": 2}]}, "perspective_c4_y": {"Points": [{"co": {"X": 1, "Y": -1}, "interpolation": 2}]}, "position": 204.33333333333334, "reader": {"acodec": "aac", "audio_bit_rate": 0, "audio_stream_index": 1, "audio_timebase": {"den": 1000, "num": 1}, "channel_layout": 3, "channels": 2, "display_ratio": {"den": 9, "num": 16}, "duration": 1371.0, "file_size": "456740423", "fps": {"den": 1, "num": 15}, "has_audio": true, "has_single_image": false, "has_video": true, "height": 720, "interlaced_frame": false, "metadata": {"DURATION": "00:22:51.580000000", "ENCODER": "Lavf58.29.100", "title": "Track1"}, "path": "/home/mpt/Documentos/Projetos/sisdig/3.5-videos/painel-digital-e-protoboard/brutos/uso-do-protoboard#bruto.mkv", "pixel_format": 0, "pixel_ratio": {"den": 1, "num": 1}, "sample_rate": 44100, "top_field_first": true, "type": "FFmpegReader", "vcodec": "h264", "video_bit_rate": 332933, "video_length": "20565", "video_stream_index": 0, "video_timebase": {"den": 1000, "num": 1}, "width": 1280}, "rotation": {"Points": [{"co": {"X": 1, "Y": 0}, "interpolation": 2}]}, "scale": 1, "scale_x": {"Points": [{"co": {"X": 1, "Y": 1}, "interpolation": 2}]}, "scale_y": {"Points": [{"co": {"X": 1, "Y": 1}, "interpolation": 2}]}, "shear_x": {"Points": [{"co": {"X": 1, "Y": 0}, "interpolation": 2}]}, "shear_y": {"Points": [{"co": {"X": 1, "Y": 0}, "interpolation": 2}]}, "start": 262.93333333333334, "time": {"Points": [{"co": {"X": 1, "Y": 1}, "interpolation": 2}]}, "volume": {"Points": [{"co": {"X": 1, "Y": 1}, "interpolation": 2}]}, "wave_color": {"alpha": {"Points": [{"co": {"X": 1, "Y": 255}, "handle_left": {"X": 0.5, "Y": 1}, "handle_right": {"X": 0.5, "Y": 0}, "handle_type": 0, "interpolation": 0}]}, "blue": {"Points": [{"co": {"X": 1, "Y": 255}, "handle_left": {"X": 0.5, "Y": 1}, "handle_right": {"X": 0.5, "Y": 0}, "handle_type": 0, "interpolation": 0}]}, "green": {"Points": [{"co": {"X": 1, "Y": 123}, "handle_left": {"X": 0.5, "Y": 1}, "handle_right": {"X": 0.5, "Y": 0}, "handle_type": 0, "interpolation": 0}]}, "red": {"Points": [{"co": {"X": 1, "Y": 0}, "handle_left": {"X": 0.5, "Y": 1}, "handle_right": {"X": 0.5, "Y": 0}, "handle_type": 0, "interpolation": 0}]}}, "waveform": false, "file_id": "POT0C18IYF", "title": "uso-do-protoboard#bruto.mkv", "image": "/home/mpt/.openshot_qt/thumbnail/S9EEXZLSN4-3945.png", "id": "S9EEXZLSN4"}, {"alpha": {"Points": [{"co": {"X": 1, "Y": 1}, "interpolation": 2}, {"co": {"X": 5383, "Y": 0}, "handle_left": {"X": 0.5, "Y": 1}, "handle_right": {"X": 0.5, "Y": 0}, "handle_type": 0, "interpolation": 0}, {"co": {"X": 5413, "Y": 1}, "handle_left": {"X": 0.5, "Y": 1}, "handle_right": {"X": 0.5, "Y": 0}, "handle_type": 0, "interpolation": 0}]}, "anchor": 0, "channel_filter": {"Points": [{"co": {"X": 1, "Y": -1}, "interpolation": 2}]}, "channel_mapping": {"Points": [{"co": {"X": 1, "Y": -1}, "interpolation": 2}]}, "crop_height": {"Points": [{"co": {"X": 1, "Y": -1}, "interpolation": 2}]}, "crop_width": {"Points": [{"co": {"X": 1, "Y": -1}, "interpolation": 2}]}, "crop_x": {"Points": [{"co": {"X": 1, "Y": 0}, "interpolation": 2}]}, "crop_y": {"Points": [{"co": {"X": 1, "Y": 0}, "interpolation": 2}]}, "display": 0, "duration": 1371.0, "effects": [], "end": 520.8666666666666, "gravity": 4, "has_audio": {"Points": [{"co": {"X": 1, "Y": -1}, "interpolation": 2}]}, "has_video": {"Points": [{"co": {"X": 1, "Y": -1}, "interpolation": 2}]}, "layer": 4, "location_x": {"Points": [{"co": {"X": 1, "Y": 0}, "interpolation": 2}]}, "location_y": {"Points": [{"co": {"X": 1, "Y": 0}, "interpolation": 2}]}, "mixing": 0, "perspective_c1_x": {"Points": [{"co": {"X": 1, "Y": -1}, "interpolation": 2}]}, "perspective_c1_y": {"Points": [{"co": {"X": 1, "Y": -1}, "interpolation": 2}]}, "perspective_c2_x": {"Points": [{"co": {"X": 1, "Y": -1}, "interpolation": 2}]}, "perspective_c2_y": {"Points": [{"co": {"X": 1, "Y": -1}, "interpolation": 2}]}, "perspective_c3_x": {"Points": [{"co": {"X": 1, "Y": -1}, "interpolation": 2}]}, "perspective_c3_y": {"Points": [{"co": {"X": 1, "Y": -1}, "interpolation": 2}]}, "perspective_c4_x": {"Points": [{"co": {"X": 1, "Y": -1}, "interpolation": 2}]}, "perspective_c4_y": {"Points": [{"co": {"X": 1, "Y": -1}, "interpolation": 2}]}, "position": 347.73333333333335, "reader": {"acodec": "aac", "audio_bit_rate": 0, "audio_stream_index": 1, "audio_timebase": {"den": 1000, "num": 1}, "channel_layout": 3, "channels": 2, "display_ratio": {"den": 9, "num": 16}, "duration": 1371.0, "file_size": "456740423", "fps": {"den": 1, "num": 15}, "has_audio": true, "has_single_image": false, "has_video": true, "height": 720, "interlaced_frame": false, "metadata": {"DURATION": "00:22:51.580000000", "ENCODER": "Lavf58.29.100", "title": "Track1"}, "path": "/home/mpt/Documentos/Projetos/sisdig/3.5-videos/painel-digital-e-protoboard/brutos/uso-do-protoboard#bruto.mkv", "pixel_format": 0, "pixel_ratio": {"den": 1, "num": 1}, "sample_rate": 44100, "top_field_first": true, "type": "FFmpegReader", "vcodec": "h264", "video_bit_rate": 332933, "video_length": "20565", "video_stream_index": 0, "video_timebase": {"den": 1000, "num": 1}, "width": 1280}, "rotation": {"Points": [{"co": {"X": 1, "Y": 0}, "interpolation": 2}]}, "scale": 1, "scale_x": {"Points": [{"co": {"X": 1, "Y": 1}, "interpolation": 2}]}, "scale_y": {"Points": [{"co": {"X": 1, "Y": 1}, "interpolation": 2}]}, "shear_x": {"Points": [{"co": {"X": 1, "Y": 0}, "interpolation": 2}]}, "shear_y": {"Points": [{"co": {"X": 1, "Y": 0}, "interpolation": 2}]}, "start": 411.96666666666664, "time": {"Points": [{"co": {"X": 1, "Y": 1}, "interpolation": 2}]}, "volume": {"Points": [{"co": {"X": 1, "Y": 1}, "interpolation": 2}]}, "wave_color": {"alpha": {"Points": [{"co": {"X": 1, "Y": 255}, "handle_left": {"X": 0.5, "Y": 1}, "handle_right": {"X": 0.5, "Y": 0}, "handle_type": 0, "interpolation": 0}]}, "blue": {"Points": [{"co": {"X": 1, "Y": 255}, "handle_left": {"X": 0.5, "Y": 1}, "handle_right": {"X": 0.5, "Y": 0}, "handle_type": 0, "interpolation": 0}]}, "green": {"Points": [{"co": {"X": 1, "Y": 123}, "handle_left": {"X": 0.5, "Y": 1}, "handle_right": {"X": 0.5, "Y": 0}, "handle_type": 0, "interpolation": 0}]}, "red": {"Points": [{"co": {"X": 1, "Y": 0}, "handle_left": {"X": 0.5, "Y": 1}, "handle_right": {"X": 0.5, "Y": 0}, "handle_type": 0, "interpolation": 0}]}}, "waveform": false, "file_id": "POT0C18IYF", "title": "uso-do-protoboard#bruto.mkv", "image": "/home/mpt/.openshot_qt/thumbnail/OA38WMIHJZ-6181.png", "id": "OA38WMIHJZ"}, {"alpha": {"Points": [{"co": {"X": 1, "Y": 1}, "interpolation": 2}, {"co": {"X": 5383, "Y": 0}, "handle_left": {"X": 0.5, "Y": 1}, "handle_right": {"X": 0.5, "Y": 0}, "handle_type": 0, "interpolation": 0}, {"co": {"X": 5413, "Y": 1}, "handle_left": {"X": 0.5, "Y": 1}, "handle_right": {"X": 0.5, "Y": 0}, "handle_type": 0, "interpolation": 0}]}, "anchor": 0, "channel_filter": {"Points": [{"co": {"X": 1, "Y": -1}, "interpolation": 2}]}, "channel_mapping": {"Points": [{"co": {"X": 1, "Y": -1}, "interpolation": 2}]}, "crop_height": {"Points": [{"co": {"X": 1, "Y": -1}, "interpolation": 2}]}, "crop_width": {"Points": [{"co": {"X": 1, "Y": -1}, "interpolation": 2}]}, "crop_x": {"Points": [{"co": {"X": 1, "Y": 0}, "interpolation": 2}]}, "crop_y": {"Points": [{"co": {"X": 1, "Y": 0}, "interpolation": 2}]}, "display": 0, "duration": 1371.0, "effects": [], "end": 678.9, "gravity": 4, "has_audio": {"Points": [{"co": {"X": 1, "Y": -1}, "interpolation": 2}]}, "has_video": {"Points": [{"co": {"X": 1, "Y": -1}, "interpolation": 2}]}, "layer": 4, "location_x": {"Points": [{"co": {"X": 1, "Y": 0}, "interpolation": 2}]}, "location_y": {"Points": [{"co": {"X": 1, "Y": 0}, "interpolation": 2}]}, "mixing": 0, "perspective_c1_x": {"Points": [{"co": {"X": 1, "Y": -1}, "interpolation": 2}]}, "perspective_c1_y": {"Points": [{"co": {"X": 1, "Y": -1}, "interpolation": 2}]}, "perspective_c2_x": {"Points": [{"co": {"X": 1, "Y": -1}, "interpolation": 2}]}, "perspective_c2_y": {"Points": [{"co": {"X": 1, "Y": -1}, "interpolation": 2}]}, "perspective_c3_x": {"Points": [{"co": {"X": 1, "Y": -1}, "interpolation": 2}]}, "perspective_c3_y": {"Points": [{"co": {"X": 1, "Y": -1}, "interpolation": 2}]}, "perspective_c4_x": {"Points": [{"co": {"X": 1, "Y": -1}, "interpolation": 2}]}, "perspective_c4_y": {"Points": [{"co": {"X": 1, "Y": -1}, "interpolation": 2}]}, "position": 456.6333333333333, "reader": {"acodec": "aac", "audio_bit_rate": 0, "audio_stream_index": 1, "audio_timebase": {"den": 1000, "num": 1}, "channel_layout": 3, "channels": 2, "display_ratio": {"den": 9, "num": 16}, "duration": 1371.0, "file_size": "456740423", "fps": {"den": 1, "num": 15}, "has_audio": true, "has_single_image": false, "has_video": true, "height": 720, "interlaced_frame": false, "metadata": {"DURATION": "00:22:51.580000000", "ENCODER": "Lavf58.29.100", "title": "Track1"}, "path": "/home/mpt/Documentos/Projetos/sisdig/3.5-videos/painel-digital-e-protoboard/brutos/uso-do-protoboard#bruto.mkv", "pixel_format": 0, "pixel_ratio": {"den": 1, "num": 1}, "sample_rate": 44100, "top_field_first": true, "type": "FFmpegReader", "vcodec": "h264", "video_bit_rate": 332933, "video_length": "20565", "video_stream_index": 0, "video_timebase": {"den": 1000, "num": 1}, "width": 1280}, "rotation": {"Points": [{"co": {"X": 1, "Y": 0}, "interpolation": 2}]}, "scale": 1, "scale_x": {"Points": [{"co": {"X": 1, "Y": 1}, "interpolation": 2}]}, "scale_y": {"Points": [{"co": {"X": 1, "Y": 1}, "interpolation": 2}]}, "shear_x": {"Points": [{"co": {"X": 1, "Y": 0}, "interpolation": 2}]}, "shear_y": {"Points": [{"co": {"X": 1, "Y": 0}, "interpolation": 2}]}, "start": 530.3666666666667, "time": {"Points": [{"co": {"X": 1, "Y": 1}, "interpolation": 2}]}, "volume": {"Points": [{"co": {"X": 1, "Y": 1}, "interpolation": 2}]}, "wave_color": {"alpha": {"Points": [{"co": {"X": 1, "Y": 255}, "handle_left": {"X": 0.5, "Y": 1}, "handle_right": {"X": 0.5, "Y": 0}, "handle_type": 0, "interpolation": 0}]}, "blue": {"Points": [{"co": {"X": 1, "Y": 255}, "handle_left": {"X": 0.5, "Y": 1}, "handle_right": {"X": 0.5, "Y": 0}, "handle_type": 0, "interpolation": 0}]}, "green": {"Points": [{"co": {"X": 1, "Y": 123}, "handle_left": {"X": 0.5, "Y": 1}, "handle_right": {"X": 0.5, "Y": 0}, "handle_type": 0, "interpolation": 0}]}, "red": {"Points": [{"co": {"X": 1, "Y": 0}, "handle_left": {"X": 0.5, "Y": 1}, "handle_right": {"X": 0.5, "Y": 0}, "handle_type": 0, "interpolation": 0}]}}, "waveform": false, "file_id": "POT0C18IYF", "title": "uso-do-protoboard#bruto.mkv", "image": "/home/mpt/.openshot_qt/thumbnail/FDX5A455D9-7957.png", "id": "FDX5A455D9"}, {"alpha": {"Points": [{"co": {"X": 1, "Y": 1}, "interpolation": 2}, {"co": {"X": 5383, "Y": 0}, "handle_left": {"X": 0.5, "Y": 1}, "handle_right": {"X": 0.5, "Y": 0}, "handle_type": 0, "interpolation": 0}, {"co": {"X": 5413, "Y": 1}, "handle_left": {"X": 0.5, "Y": 1}, "handle_right": {"X": 0.5, "Y": 0}, "handle_type": 0, "interpolation": 0}]}, "anchor": 0, "channel_filter": {"Points": [{"co": {"X": 1, "Y": -1}, "interpolation": 2}]}, "channel_mapping": {"Points": [{"co": {"X": 1, "Y": -1}, "interpolation": 2}]}, "crop_height": {"Points": [{"co": {"X": 1, "Y": -1}, "interpolation": 2}]}, "crop_width": {"Points": [{"co": {"X": 1, "Y": -1}, "interpolation": 2}]}, "crop_x": {"Points": [{"co": {"X": 1, "Y": 0}, "interpolation": 2}]}, "crop_y": {"Points": [{"co": {"X": 1, "Y": 0}, "interpolation": 2}]}, "display": 0, "duration": 1371.0, "effects": [], "end": 704.7, "gravity": 4, "has_audio": {"Points": [{"co": {"X": 1, "Y": -1}, "interpolation": 2}]}, "has_video": {"Points": [{"co": {"X": 1, "Y": -1}, "interpolation": 2}]}, "layer": 4, "location_x": {"Points": [{"co": {"X": 1, "Y": 0}, "interpolation": 2}]}, "location_y": {"Points": [{"co": {"X": 1, "Y": 0}, "interpolation": 2}]}, "mixing": 0, "perspective_c1_x": {"Points": [{"co": {"X": 1, "Y": -1}, "interpolation": 2}]}, "perspective_c1_y": {"Points": [{"co": {"X": 1, "Y": -1}, "interpolation": 2}]}, "perspective_c2_x": {"Points": [{"co": {"X": 1, "Y": -1}, "interpolation": 2}]}, "perspective_c2_y": {"Points": [{"co": {"X": 1, "Y": -1}, "interpolation": 2}]}, "perspective_c3_x": {"Points": [{"co": {"X": 1, "Y": -1}, "interpolation": 2}]}, "perspective_c3_y": {"Points": [{"co": {"X": 1, "Y": -1}, "interpolation": 2}]}, "perspective_c4_x": {"Points": [{"co": {"X": 1, "Y": -1}, "interpolation": 2}]}, "perspective_c4_y": {"Points": [{"co": {"X": 1, "Y": -1}, "interpolation": 2}]}, "position": 605.1666666666666, "reader": {"acodec": "aac", "audio_bit_rate": 0, "audio_stream_index": 1, "audio_timebase": {"den": 1000, "num": 1}, "channel_layout": 3, "channels": 2, "display_ratio": {"den": 9, "num": 16}, "duration": 1371.0, "file_size": "456740423", "fps": {"den": 1, "num": 15}, "has_audio": true, "has_single_image": false, "has_video": true, "height": 720, "interlaced_frame": false, "metadata": {"DURATION": "00:22:51.580000000", "ENCODER": "Lavf58.29.100", "title": "Track1"}, "path": "/home/mpt/Documentos/Projetos/sisdig/3.5-videos/painel-digital-e-protoboard/brutos/uso-do-protoboard#bruto.mkv", "pixel_format": 0, "pixel_ratio": {"den": 1, "num": 1}, "sample_rate": 44100, "top_field_first": true, "type": "FFmpegReader", "vcodec": "h264", "video_bit_rate": 332933, "video_length": "20565", "video_stream_index": 0, "video_timebase": {"den": 1000, "num": 1}, "width": 1280}, "rotation": {"Points": [{"co": {"X": 1, "Y": 0}, "interpolation": 2}]}, "scale": 1, "scale_x": {"Points": [{"co": {"X": 1, "Y": 1}, "interpolation": 2}]}, "scale_y": {"Points": [{"co": {"X": 1, "Y": 1}, "interpolation": 2}]}, "shear_x": {"Points": [{"co": {"X": 1, "Y": 0}, "interpolation": 2}]}, "shear_y": {"Points": [{"co": {"X": 1, "Y": 0}, "interpolation": 2}]}, "start": 684, "time": {"Points": [{"co": {"X": 1, "Y": 1}, "interpolation": 2}]}, "volume": {"Points": [{"co": {"X": 1, "Y": 1}, "interpolation": 2}]}, "wave_color": {"alpha": {"Points": [{"co": {"X": 1, "Y": 255}, "handle_left": {"X": 0.5, "Y": 1}, "handle_right": {"X": 0.5, "Y": 0}, "handle_type": 0, "interpolation": 0}]}, "blue": {"Points": [{"co": {"X": 1, "Y": 255}, "handle_left": {"X": 0.5, "Y": 1}, "handle_right": {"X": 0.5, "Y": 0}, "handle_type": 0, "interpolation": 0}]}, "green": {"Points": [{"co": {"X": 1, "Y": 123}, "handle_left": {"X": 0.5, "Y": 1}, "handle_right": {"X": 0.5, "Y": 0}, "handle_type": 0, "interpolation": 0}]}, "red": {"Points": [{"co": {"X": 1, "Y": 0}, "handle_left": {"X": 0.5, "Y": 1}, "handle_right": {"X": 0.5, "Y": 0}, "handle_type": 0, "interpolation": 0}]}}, "waveform": false, "file_id": "POT0C18IYF", "title": "uso-do-protoboard#bruto.mkv", "image": "/home/mpt/.openshot_qt/thumbnail/Z40YW1HB5H-10261.png", "id": "Z40YW1HB5H"}, {"alpha": {"Points": [{"co": {"X": 1, "Y": 1}, "interpolation": 2}, {"co": {"X": 5383, "Y": 0}, "handle_left": {"X": 0.5, "Y": 1}, "handle_right": {"X": 0.5, "Y": 0}, "handle_type": 0, "interpolation": 0}, {"co": {"X": 5413, "Y": 1}, "handle_left": {"X": 0.5, "Y": 1}, "handle_right": {"X": 0.5, "Y": 0}, "handle_type": 0, "interpolation": 0}]}, "anchor": 0, "channel_filter": {"Points": [{"co": {"X": 1, "Y": -1}, "interpolation": 2}]}, "channel_mapping": {"Points": [{"co": {"X": 1, "Y": -1}, "interpolation": 2}]}, "crop_height": {"Points": [{"co": {"X": 1, "Y": -1}, "interpolation": 2}]}, "crop_width": {"Points": [{"co": {"X": 1, "Y": -1}, "interpolation": 2}]}, "crop_x": {"Points": [{"co": {"X": 1, "Y": 0}, "interpolation": 2}]}, "crop_y": {"Points": [{"co": {"X": 1, "Y": 0}, "interpolation": 2}]}, "display": 0, "duration": 1371.0, "effects": [], "end": 1305.0333333333333, "gravity": 4, "has_audio": {"Points": [{"co": {"X": 1, "Y": -1}, "interpolation": 2}]}, "has_video": {"Points": [{"co": {"X": 1, "Y": -1}, "interpolation": 2}]}, "layer": 4, "location_x": {"Points": [{"co": {"X": 1, "Y": 0}, "interpolation": 2}]}, "location_y": {"Points": [{"co": {"X": 1, "Y": 0}, "interpolation": 2}]}, "mixing": 0, "perspective_c1_x": {"Points": [{"co": {"X": 1, "Y": -1}, "interpolation": 2}]}, "perspective_c1_y": {"Points": [{"co": {"X": 1, "Y": -1}, "interpolation": 2}]}, "perspective_c2_x": {"Points": [{"co": {"X": 1, "Y": -1}, "interpolation": 2}]}, "perspective_c2_y": {"Points": [{"co": {"X": 1, "Y": -1}, "interpolation": 2}]}, "perspective_c3_x": {"Points": [{"co": {"X": 1, "Y": -1}, "interpolation": 2}]}, "perspective_c3_y": {"Points": [{"co": {"X": 1, "Y": -1}, "interpolation": 2}]}, "perspective_c4_x": {"Points": [{"co": {"X": 1, "Y": -1}, "interpolation": 2}]}, "perspective_c4_y": {"Points": [{"co": {"X": 1, "Y": -1}, "interpolation": 2}]}, "position": 625.8666666666667, "reader": {"acodec": "aac", "audio_bit_rate": 0, "audio_stream_index": 1, "audio_timebase": {"den": 1000, "num": 1}, "channel_layout": 3, "channels": 2, "display_ratio": {"den": 9, "num": 16}, "duration": 1371.0, "file_size": "456740423", "fps": {"den": 1, "num": 15}, "has_audio": true, "has_single_image": false, "has_video": true, "height": 720, "interlaced_frame": false, "metadata": {"DURATION": "00:22:51.580000000", "ENCODER": "Lavf58.29.100", "title": "Track1"}, "path": "/home/mpt/Documentos/Projetos/sisdig/3.5-videos/painel-digital-e-protoboard/brutos/uso-do-protoboard#bruto.mkv", "pixel_format": 0, "pixel_ratio": {"den": 1, "num": 1}, "sample_rate": 44100, "top_field_first": true, "type": "FFmpegReader", "vcodec": "h264", "video_bit_rate": 332933, "video_length": "20565", "video_stream_index": 0, "video_timebase": {"den": 1000, "num": 1}, "width": 1280}, "rotation": {"Points": [{"co": {"X": 1, "Y": 0}, "interpolation": 2}]}, "scale": 1, "scale_x": {"Points": [{"co": {"X": 1, "Y": 1}, "interpolation": 2}]}, "scale_y": {"Points": [{"co": {"X": 1, "Y": 1}, "interpolation": 2}]}, "shear_x": {"Points": [{"co": {"X": 1, "Y": 0}, "interpolation": 2}]}, "shear_y": {"Points": [{"co": {"X": 1, "Y": 0}, "interpolation": 2}]}, "start": 737.7333333333333, "time": {"Points": [{"co": {"X": 1, "Y": 1}, "interpolation": 2}]}, "volume": {"Points": [{"co": {"X": 1, "Y": 1}, "interpolation": 2}]}, "wave_color": {"alpha": {"Points": [{"co": {"X": 1, "Y": 255}, "handle_left": {"X": 0.5, "Y": 1}, "handle_right": {"X": 0.5, "Y": 0}, "handle_type": 0, "interpolation": 0}]}, "blue": {"Points": [{"co": {"X": 1, "Y": 255}, "handle_left": {"X": 0.5, "Y": 1}, "handle_right": {"X": 0.5, "Y": 0}, "handle_type": 0, "interpolation": 0}]}, "green": {"Points": [{"co": {"X": 1, "Y": 123}, "handle_left": {"X": 0.5, "Y": 1}, "handle_right": {"X": 0.5, "Y": 0}, "handle_type": 0, "interpolation": 0}]}, "red": {"Points": [{"co": {"X": 1, "Y": 0}, "handle_left": {"X": 0.5, "Y": 1}, "handle_right": {"X": 0.5, "Y": 0}, "handle_type": 0, "interpolation": 0}]}}, "waveform": false, "file_id": "POT0C18IYF", "title": "uso-do-protoboard#bruto.mkv", "image": "/home/mpt/.openshot_qt/thumbnail/2TI6Y9S4O4-11067.png", "id": "2TI6Y9S4O4"}, {"alpha": {"Points": [{"co": {"X": 1, "Y": 1}, "interpolation": 2}, {"co": {"X": 5383, "Y": 0}, "handle_left": {"X": 0.5, "Y": 1}, "handle_right": {"X": 0.5, "Y": 0}, "handle_type": 0, "interpolation": 0}, {"co": {"X": 5413, "Y": 1}, "handle_left": {"X": 0.5, "Y": 1}, "handle_right": {"X": 0.5, "Y": 0}, "handle_type": 0, "interpolation": 0}]}, "anchor": 0, "channel_filter": {"Points": [{"co": {"X": 1, "Y": -1}, "interpolation": 2}]}, "channel_mapping": {"Points": [{"co": {"X": 1, "Y": -1}, "interpolation": 2}]}, "crop_height": {"Points": [{"co": {"X": 1, "Y": -1}, "interpolation": 2}]}, "crop_width": {"Points": [{"co": {"X": 1, "Y": -1}, "interpolation": 2}]}, "crop_x": {"Points": [{"co": {"X": 1, "Y": 0}, "interpolation": 2}]}, "crop_y": {"Points": [{"co": {"X": 1, "Y": 0}, "interpolation": 2}]}, "display": 0, "duration": 1371.0, "effects": [], "end": 1313.2666666666664, "gravity": 4, "has_audio": {"Points": [{"co": {"X": 1, "Y": -1}, "interpolation": 2}]}, "has_video": {"Points": [{"co": {"X": 1, "Y": -1}, "interpolation": 2}]}, "layer": 3, "location_x": {"Points": [{"co": {"X": 1, "Y": 0}, "interpolation": 2}]}, "location_y": {"Points": [{"co": {"X": 1, "Y": 0}, "interpolation": 2}]}, "mixing": 0, "perspective_c1_x": {"Points": [{"co": {"X": 1, "Y": -1}, "interpolation": 2}]}, "perspective_c1_y": {"Points": [{"co": {"X": 1, "Y": -1}, "interpolation": 2}]}, "perspective_c2_x": {"Points": [{"co": {"X": 1, "Y": -1}, "interpolation": 2}]}, "perspective_c2_y": {"Points": [{"co": {"X": 1, "Y": -1}, "interpolation": 2}]}, "perspective_c3_x": {"Points": [{"co": {"X": 1, "Y": -1}, "interpolation": 2}]}, "perspective_c3_y": {"Points": [{"co": {"X": 1, "Y": -1}, "interpolation": 2}]}, "perspective_c4_x": {"Points": [{"co": {"X": 1, "Y": -1}, "interpolation": 2}]}, "perspective_c4_y": {"Points": [{"co": {"X": 1, "Y": -1}, "interpolation": 2}]}, "position": 1178.8, "reader": {"acodec": "aac", "audio_bit_rate": 0, "audio_stream_index": 1, "audio_timebase": {"den": 1000, "num": 1}, "channel_layout": 3, "channels": 2, "display_ratio": {"den": 9, "num": 16}, "duration": 1371.0, "file_size": "456740423", "fps": {"den": 1, "num": 15}, "has_audio": true, "has_single_image": false, "has_video": true, "height": 720, "interlaced_frame": false, "metadata": {"DURATION": "00:22:51.580000000", "ENCODER": "Lavf58.29.100", "title": "Track1"}, "path": "/home/mpt/Documentos/Projetos/sisdig/3.5-videos/painel-digital-e-protoboard/brutos/uso-do-protoboard#bruto.mkv", "pixel_format": 0, "pixel_ratio": {"den": 1, "num": 1}, "sample_rate": 44100, "top_field_first": true, "type": "FFmpegReader", "vcodec": "h264", "video_bit_rate": 332933, "video_length": "20565", "video_stream_index": 0, "video_timebase": {"den": 1000, "num": 1}, "width": 1280}, "rotation": {"Points": [{"co": {"X": 1, "Y": 0}, "interpolation": 2}]}, "scale": 1, "scale_x": {"Points": [{"co": {"X": 1, "Y": 1}, "interpolation": 2}]}, "scale_y": {"Points": [{"co": {"X": 1, "Y": 1}, "interpolation": 2}]}, "shear_x": {"Points": [{"co": {"X": 1, "Y": 0}, "interpolation": 2}]}, "shear_y": {"Points": [{"co": {"X": 1, "Y": 0}, "interpolation": 2}]}, "start": 1305.1, "time": {"Points": [{"co": {"X": 1, "Y": 1}, "interpolation": 2}]}, "volume": {"Points": [{"co": {"X": 1, "Y": 1}, "interpolation": 2}]}, "wave_color": {"alpha": {"Points": [{"co": {"X": 1, "Y": 255}, "handle_left": {"X": 0.5, "Y": 1}, "handle_right": {"X": 0.5, "Y": 0}, "handle_type": 0, "interpolation": 0}]}, "blue": {"Points": [{"co": {"X": 1, "Y": 255}, "handle_left": {"X": 0.5, "Y": 1}, "handle_right": {"X": 0.5, "Y": 0}, "handle_type": 0, "interpolation": 0}]}, "green": {"Points": [{"co": {"X": 1, "Y": 123}, "handle_left": {"X": 0.5, "Y": 1}, "handle_right": {"X": 0.5, "Y": 0}, "handle_type": 0, "interpolation": 0}]}, "red": {"Points": [{"co": {"X": 1, "Y": 0}, "handle_left": {"X": 0.5, "Y": 1}, "handle_right": {"X": 0.5, "Y": 0}, "handle_type": 0, "interpolation": 0}]}}, "waveform": false, "file_id": "POT0C18IYF", "title": "uso-do-protoboard#bruto.mkv", "image": "/home/mpt/.openshot_qt/thumbnail/ANODET5KAG-19577.png", "id": "ANODET5KAG"}, {"alpha": {"Points": [{"co": {"X": 1, "Y": 1}, "interpolation": 2}, {"co": {"X": 5383, "Y": 0}, "handle_left": {"X": 0.5, "Y": 1}, "handle_right": {"X": 0.5, "Y": 0}, "handle_type": 0, "interpolation": 0}, {"co": {"X": 5413, "Y": 1}, "handle_left": {"X": 0.5, "Y": 1}, "handle_right": {"X": 0.5, "Y": 0}, "handle_type": 0, "interpolation": 0}]}, "anchor": 0, "channel_filter": {"Points": [{"co": {"X": 1, "Y": -1}, "interpolation": 2}]}, "channel_mapping": {"Points": [{"co": {"X": 1, "Y": -1}, "interpolation": 2}]}, "crop_height": {"Points": [{"co": {"X": 1, "Y": -1}, "interpolation": 2}]}, "crop_width": {"Points": [{"co": {"X": 1, "Y": -1}, "interpolation": 2}]}, "crop_x": {"Points": [{"co": {"X": 1, "Y": 0}, "interpolation": 2}]}, "crop_y": {"Points": [{"co": {"X": 1, "Y": 0}, "interpolation": 2}]}, "display": 0, "duration": 1371.0, "effects": [], "end": 1352.7333333333331, "gravity": 4, "has_audio": {"Points": [{"co": {"X": 1, "Y": -1}, "interpolation": 2}]}, "has_video": {"Points": [{"co": {"X": 1, "Y": -1}, "interpolation": 2}]}, "layer": 4, "location_x": {"Points": [{"co": {"X": 1, "Y": 0}, "interpolation": 2}]}, "location_y": {"Points": [{"co": {"X": 1, "Y": 0}, "interpolation": 2}]}, "mixing": 0, "perspective_c1_x": {"Points": [{"co": {"X": 1, "Y": -1}, "interpolation": 2}]}, "perspective_c1_y": {"Points": [{"co": {"X": 1, "Y": -1}, "interpolation": 2}]}, "perspective_c2_x": {"Points": [{"co": {"X": 1, "Y": -1}, "interpolation": 2}]}, "perspective_c2_y": {"Points": [{"co": {"X": 1, "Y": -1}, "interpolation": 2}]}, "perspective_c3_x": {"Points": [{"co": {"X": 1, "Y": -1}, "interpolation": 2}]}, "perspective_c3_y": {"Points": [{"co": {"X": 1, "Y": -1}, "interpolation": 2}]}, "perspective_c4_x": {"Points": [{"co": {"X": 1, "Y": -1}, "interpolation": 2}]}, "perspective_c4_y": {"Points": [{"co": {"X": 1, "Y": -1}, "interpolation": 2}]}, "position": 1193.1666666666667, "reader": {"acodec": "aac", "audio_bit_rate": 0, "audio_stream_index": 1, "audio_timebase": {"den": 1000, "num": 1}, "channel_layout": 3, "channels": 2, "display_ratio": {"den": 9, "num": 16}, "duration": 1371.0, "file_size": "456740423", "fps": {"den": 1, "num": 15}, "has_audio": true, "has_single_image": false, "has_video": true, "height": 720, "interlaced_frame": false, "metadata": {"DURATION": "00:22:51.580000000", "ENCODER": "Lavf58.29.100", "title": "Track1"}, "path": "/home/mpt/Documentos/Projetos/sisdig/3.5-videos/painel-digital-e-protoboard/brutos/uso-do-protoboard#bruto.mkv", "pixel_format": 0, "pixel_ratio": {"den": 1, "num": 1}, "sample_rate": 44100, "top_field_first": true, "type": "FFmpegReader", "vcodec": "h264", "video_bit_rate": 332933, "video_length": "20565", "video_stream_index": 0, "video_timebase": {"den": 1000, "num": 1}, "width": 1280}, "rotation": {"Points": [{"co": {"X": 1, "Y": 0}, "interpolation": 2}]}, "scale": 1, "scale_x": {"Points": [{"co": {"X": 1, "Y": 1}, "interpolation": 2}]}, "scale_y": {"Points": [{"co": {"X": 1, "Y": 1}, "interpolation": 2}]}, "shear_x": {"Points": [{"co": {"X": 1, "Y": 0}, "interpolation": 2}]}, "shear_y": {"Points": [{"co": {"X": 1, "Y": 0}, "interpolation": 2}]}, "start": 1313.3333333333333, "time": {"Points": [{"co": {"X": 1, "Y": 1}, "interpolation": 2}]}, "volume": {"Points": [{"co": {"X": 1, "Y": 1}, "interpolation": 2}]}, "wave_color": {"alpha": {"Points": [{"co": {"X": 1, "Y": 255}, "handle_left": {"X": 0.5, "Y": 1}, "handle_right": {"X": 0.5, "Y": 0}, "handle_type": 0, "interpolation": 0}]}, "blue": {"Points": [{"co": {"X": 1, "Y": 255}, "handle_left": {"X": 0.5, "Y": 1}, "handle_right": {"X": 0.5, "Y": 0}, "handle_type": 0, "interpolation": 0}]}, "green": {"Points": [{"co": {"X": 1, "Y": 123}, "handle_left": {"X": 0.5, "Y": 1}, "handle_right": {"X": 0.5, "Y": 0}, "handle_type": 0, "interpolation": 0}]}, "red": {"Points": [{"co": {"X": 1, "Y": 0}, "handle_left": {"X": 0.5, "Y": 1}, "handle_right": {"X": 0.5, "Y": 0}, "handle_type": 0, "interpolation": 0}]}}, "waveform": false, "file_id": "POT0C18IYF", "title": "uso-do-protoboard#bruto.mkv", "image": "/home/mpt/.openshot_qt/thumbnail/7T81YSL5SK-19701.png", "id": "7T81YSL5SK"}, {"alpha": {"Points": [{"co": {"X": 1, "Y": 1}, "interpolation": 2}, {"co": {"X": 5383, "Y": 0}, "handle_left": {"X": 0.5, "Y": 1}, "handle_right": {"X": 0.5, "Y": 0}, "handle_type": 0, "interpolation": 0}, {"co": {"X": 5413, "Y": 1}, "handle_left": {"X": 0.5, "Y": 1}, "handle_right": {"X": 0.5, "Y": 0}, "handle_type": 0, "interpolation": 0}]}, "anchor": 0, "channel_filter": {"Points": [{"co": {"X": 1, "Y": -1}, "interpolation": 2}]}, "channel_mapping": {"Points": [{"co": {"X": 1, "Y": -1}, "interpolation": 2}]}, "crop_height": {"Points": [{"co": {"X": 1, "Y": -1}, "interpolation": 2}]}, "crop_width": {"Points": [{"co": {"X": 1, "Y": -1}, "interpolation": 2}]}, "crop_x": {"Points": [{"co": {"X": 1, "Y": 0}, "interpolation": 2}]}, "crop_y": {"Points": [{"co": {"X": 1, "Y": 0}, "interpolation": 2}]}, "display": 0, "duration": 1371.0, "effects": [], "end": 1353.8, "gravity": 4, "has_audio": {"Points": [{"co": {"X": 1, "Y": -1}, "interpolation": 2}]}, "has_video": {"Points": [{"co": {"X": 1, "Y": -1}, "interpolation": 2}]}, "layer": 4, "location_x": {"Points": [{"co": {"X": 1, "Y": 0}, "interpolation": 2}]}, "location_y": {"Points": [{"co": {"X": 1, "Y": 0}, "interpolation": 2}]}, "mixing": 0, "perspective_c1_x": {"Points": [{"co": {"X": 1, "Y": -1}, "interpolation": 2}]}, "perspective_c1_y": {"Points": [{"co": {"X": 1, "Y": -1}, "interpolation": 2}]}, "perspective_c2_x": {"Points": [{"co": {"X": 1, "Y": -1}, "interpolation": 2}]}, "perspective_c2_y": {"Points": [{"co": {"X": 1, "Y": -1}, "interpolation": 2}]}, "perspective_c3_x": {"Points": [{"co": {"X": 1, "Y": -1}, "interpolation": 2}]}, "perspective_c3_y": {"Points": [{"co": {"X": 1, "Y": -1}, "interpolation": 2}]}, "perspective_c4_x": {"Points": [{"co": {"X": 1, "Y": -1}, "interpolation": 2}]}, "perspective_c4_y": {"Points": [{"co": {"X": 1, "Y": -1}, "interpolation": 2}]}, "position": 1232.6, "reader": {"acodec": "aac", "audio_bit_rate": 0, "audio_stream_index": 1, "audio_timebase": {"den": 1000, "num": 1}, "channel_layout": 3, "channels": 2, "display_ratio": {"den": 9, "num": 16}, "duration": 1371.0, "file_size": "456740423", "fps": {"den": 1, "num": 15}, "has_audio": true, "has_single_image": false, "has_video": true, "height": 720, "interlaced_frame": false, "metadata": {"DURATION": "00:22:51.580000000", "ENCODER": "Lavf58.29.100", "title": "Track1"}, "path": "/home/mpt/Documentos/Projetos/sisdig/3.5-videos/painel-digital-e-protoboard/brutos/uso-do-protoboard#bruto.mkv", "pixel_format": 0, "pixel_ratio": {"den": 1, "num": 1}, "sample_rate": 44100, "top_field_first": true, "type": "FFmpegReader", "vcodec": "h264", "video_bit_rate": 332933, "video_length": "20565", "video_stream_index": 0, "video_timebase": {"den": 1000, "num": 1}, "width": 1280}, "rotation": {"Points": [{"co": {"X": 1, "Y": 0}, "interpolation": 2}]}, "scale": 1, "scale_x": {"Points": [{"co": {"X": 1, "Y": 1}, "interpolation": 2}]}, "scale_y": {"Points": [{"co": {"X": 1, "Y": 1}, "interpolation": 2}]}, "shear_x": {"Points": [{"co": {"X": 1, "Y": 0}, "interpolation": 2}]}, "shear_y": {"Points": [{"co": {"X": 1, "Y": 0}, "interpolation": 2}]}, "start": 1352.8, "time": {"Points": [{"co": {"X": 1, "Y": 1}, "interpolation": 2}]}, "volume": {"Points": [{"co": {"X": 1, "Y": 1}, "interpolation": 2}]}, "wave_color": {"alpha": {"Points": [{"co": {"X": 1, "Y": 255}, "handle_left": {"X": 0.5, "Y": 1}, "handle_right": {"X": 0.5, "Y": 0}, "handle_type": 0, "interpolation": 0}]}, "blue": {"Points": [{"co": {"X": 1, "Y": 255}, "handle_left": {"X": 0.5, "Y": 1}, "handle_right": {"X": 0.5, "Y": 0}, "handle_type": 0, "interpolation": 0}]}, "green": {"Points": [{"co": {"X": 1, "Y": 123}, "handle_left": {"X": 0.5, "Y": 1}, "handle_right": {"X": 0.5, "Y": 0}, "handle_type": 0, "interpolation": 0}]}, "red": {"Points": [{"co": {"X": 1, "Y": 0}, "handle_left": {"X": 0.5, "Y": 1}, "handle_right": {"X": 0.5, "Y": 0}, "handle_type": 0, "interpolation": 0}]}}, "waveform": false, "file_id": "POT0C18IYF", "title": "uso-do-protoboard#bruto.mkv", "image": "/home/mpt/.openshot_qt/thumbnail/UJDP0TKZS7-20293.png", "id": "UJDP0TKZS7"}, {"alpha": {"Points": [{"co": {"X": 1, "Y": 1}, "interpolation": 2}, {"co": {"X": 5383, "Y": 0}, "handle_left": {"X": 0.5, "Y": 1}, "handle_right": {"X": 0.5, "Y": 0}, "handle_type": 0, "interpolation": 0}, {"co": {"X": 5413, "Y": 1}, "handle_left": {"X": 0.5, "Y": 1}, "handle_right": {"X": 0.5, "Y": 0}, "handle_type": 0, "interpolation": 0}]}, "anchor": 0, "channel_filter": {"Points": [{"co": {"X": 1, "Y": -1}, "interpolation": 2}]}, "channel_mapping": {"Points": [{"co": {"X": 1, "Y": -1}, "interpolation": 2}]}, "crop_height": {"Points": [{"co": {"X": 1, "Y": -1}, "interpolation": 2}]}, "crop_width": {"Points": [{"co": {"X": 1, "Y": -1}, "interpolation": 2}]}, "crop_x": {"Points": [{"co": {"X": 1, "Y": 0}, "interpolation": 2}]}, "crop_y": {"Points": [{"co": {"X": 1, "Y": 0}, "interpolation": 2}]}, "display": 0, "duration": 1371.0, "effects": [], "end": 1361.5333333333335, "gravity": 4, "has_audio": {"Points": [{"co": {"X": 1, "Y": -1}, "interpolation": 2}]}, "has_video": {"Points": [{"co": {"X": 1, "Y": -1}, "interpolation": 2}]}, "layer": 4, "location_x": {"Points": [{"co": {"X": 1, "Y": 0}, "interpolation": 2}]}, "location_y": {"Points": [{"co": {"X": 1, "Y": 0}, "interpolation": 2}]}, "mixing": 0, "perspective_c1_x": {"Points": [{"co": {"X": 1, "Y": -1}, "interpolation": 2}]}, "perspective_c1_y": {"Points": [{"co": {"X": 1, "Y": -1}, "interpolation": 2}]}, "perspective_c2_x": {"Points": [{"co": {"X": 1, "Y": -1}, "interpolation": 2}]}, "perspective_c2_y": {"Points": [{"co": {"X": 1, "Y": -1}, "interpolation": 2}]}, "perspective_c3_x": {"Points": [{"co": {"X": 1, "Y": -1}, "interpolation": 2}]}, "perspective_c3_y": {"Points": [{"co": {"X": 1, "Y": -1}, "interpolation": 2}]}, "perspective_c4_x": {"Points": [{"co": {"X": 1, "Y": -1}, "interpolation": 2}]}, "perspective_c4_y": {"Points": [{"co": {"X": 1, "Y": -1}, "interpolation": 2}]}, "position": 1233.6, "reader": {"acodec": "aac", "audio_bit_rate": 0, "audio_stream_index": 1, "audio_timebase": {"den": 1000, "num": 1}, "channel_layout": 3, "channels": 2, "display_ratio": {"den": 9, "num": 16}, "duration": 1371.0, "file_size": "456740423", "fps": {"den": 1, "num": 15}, "has_audio": true, "has_single_image": false, "has_video": true, "height": 720, "interlaced_frame": false, "metadata": {"DURATION": "00:22:51.580000000", "ENCODER": "Lavf58.29.100", "title": "Track1"}, "path": "/home/mpt/Documentos/Projetos/sisdig/3.5-videos/painel-digital-e-protoboard/brutos/uso-do-protoboard#bruto.mkv", "pixel_format": 0, "pixel_ratio": {"den": 1, "num": 1}, "sample_rate": 44100, "top_field_first": true, "type": "FFmpegReader", "vcodec": "h264", "video_bit_rate": 332933, "video_length": "20565", "video_stream_index": 0, "video_timebase": {"den": 1000, "num": 1}, "width": 1280}, "rotation": {"Points": [{"co": {"X": 1, "Y": 0}, "interpolation": 2}]}, "scale": 1, "scale_x": {"Points": [{"co": {"X": 1, "Y": 1}, "interpolation": 2}]}, "scale_y": {"Points": [{"co": {"X": 1, "Y": 1}, "interpolation": 2}]}, "shear_x": {"Points": [{"co": {"X": 1, "Y": 0}, "interpolation": 2}]}, "shear_y": {"Points": [{"co": {"X": 1, "Y": 0}, "interpolation": 2}]}, "start": 1357.4666666666667, "time": {"Points": [{"co": {"X": 1, "Y": 1}, "interpolation": 2}]}, "volume": {"Points": [{"co": {"X": 1, "Y": 1}, "interpolation": 2}]}, "wave_color": {"alpha": {"Points": [{"co": {"X": 1, "Y": 255}, "handle_left": {"X": 0.5, "Y": 1}, "handle_right": {"X": 0.5, "Y": 0}, "handle_type": 0, "interpolation": 0}]}, "blue": {"Points": [{"co": {"X": 1, "Y": 255}, "handle_left": {"X": 0.5, "Y": 1}, "handle_right": {"X": 0.5, "Y": 0}, "handle_type": 0, "interpolation": 0}]}, "green": {"Points": [{"co": {"X": 1, "Y": 123}, "handle_left": {"X": 0.5, "Y": 1}, "handle_right": {"X": 0.5, "Y": 0}, "handle_type": 0, "interpolation": 0}]}, "red": {"Points": [{"co": {"X": 1, "Y": 0}, "handle_left": {"X": 0.5, "Y": 1}, "handle_right": {"X": 0.5, "Y": 0}, "handle_type": 0, "interpolation": 0}]}}, "waveform": false, "file_id": "POT0C18IYF", "title": "uso-do-protoboard#bruto.mkv", "image": "/home/mpt/.openshot_qt/thumbnail/UJDP0TKZS7-20293.png", "id": "7HS8QQYQPG"}, {"alpha": {"Points": [{"co": {"X": 1, "Y": 1}, "interpolation": 2}, {"co": {"X": 5383, "Y": 0}, "handle_left": {"X": 0.5, "Y": 1}, "handle_right": {"X": 0.5, "Y": 0}, "handle_type": 0, "interpolation": 0}, {"co": {"X": 5413, "Y": 1}, "handle_left": {"X": 0.5, "Y": 1}, "handle_right": {"X": 0.5, "Y": 0}, "handle_type": 0, "interpolation": 0}]}, "anchor": 0, "channel_filter": {"Points": [{"co": {"X": 1, "Y": -1}, "interpolation": 2}]}, "channel_mapping": {"Points": [{"co": {"X": 1, "Y": -1}, "interpolation": 2}]}, "crop_height": {"Points": [{"co": {"X": 1, "Y": -1}, "interpolation": 2}]}, "crop_width": {"Points": [{"co": {"X": 1, "Y": -1}, "interpolation": 2}]}, "crop_x": {"Points": [{"co": {"X": 1, "Y": 0}, "interpolation": 2}]}, "crop_y": {"Points": [{"co": {"X": 1, "Y": 0}, "interpolation": 2}]}, "display": 0, "duration": 1371.0, "effects": [], "end": 1371, "gravity": 4, "has_audio": {"Points": [{"co": {"X": 1, "Y": -1}, "interpolation": 2}]}, "has_video": {"Points": [{"co": {"X": 1, "Y": -1}, "interpolation": 2}]}, "layer": 3, "location_x": {"Points": [{"co": {"X": 1, "Y": 0}, "interpolation": 2}]}, "location_y": {"Points": [{"co": {"X": 1, "Y": 0}, "interpolation": 2}]}, "mixing": 0, "perspective_c1_x": {"Points": [{"co": {"X": 1, "Y": -1}, "interpolation": 2}]}, "perspective_c1_y": {"Points": [{"co": {"X": 1, "Y": -1}, "interpolation": 2}]}, "perspective_c2_x": {"Points": [{"co": {"X": 1, "Y": -1}, "interpolation": 2}]}, "perspective_c2_y": {"Points": [{"co": {"X": 1, "Y": -1}, "interpolation": 2}]}, "perspective_c3_x": {"Points": [{"co": {"X": 1, "Y": -1}, "interpolation": 2}]}, "perspective_c3_y": {"Points": [{"co": {"X": 1, "Y": -1}, "interpolation": 2}]}, "perspective_c4_x": {"Points": [{"co": {"X": 1, "Y": -1}, "interpolation": 2}]}, "perspective_c4_y": {"Points": [{"co": {"X": 1, "Y": -1}, "interpolation": 2}]}, "position": 1248.9, "reader": {"acodec": "aac", "audio_bit_rate": 0, "audio_stream_index": 1, "audio_timebase": {"den": 1000, "num": 1}, "channel_layout": 3, "channels": 2, "display_ratio": {"den": 9, "num": 16}, "duration": 1371.0, "file_size": "456740423", "fps": {"den": 1, "num": 15}, "has_audio": true, "has_single_image": false, "has_video": true, "height": 720, "interlaced_frame": false, "metadata": {"DURATION": "00:22:51.580000000", "ENCODER": "Lavf58.29.100", "title": "Track1"}, "path": "/home/mpt/Documentos/Projetos/sisdig/3.5-videos/painel-digital-e-protoboard/brutos/uso-do-protoboard#bruto.mkv", "pixel_format": 0, "pixel_ratio": {"den": 1, "num": 1}, "sample_rate": 44100, "top_field_first": true, "type": "FFmpegReader", "vcodec": "h264", "video_bit_rate": 332933, "video_length": "20565", "video_stream_index": 0, "video_timebase": {"den": 1000, "num": 1}, "width": 1280}, "rotation": {"Points": [{"co": {"X": 1, "Y": 0}, "interpolation": 2}]}, "scale": 1, "scale_x": {"Points": [{"co": {"X": 1, "Y": 1}, "interpolation": 2}]}, "scale_y": {"Points": [{"co": {"X": 1, "Y": 1}, "interpolation": 2}]}, "shear_x": {"Points": [{"co": {"X": 1, "Y": 0}, "interpolation": 2}]}, "shear_y": {"Points": [{"co": {"X": 1, "Y": 0}, "interpolation": 2}]}, "start": 1353.8666666666666, "time": {"Points": [{"co": {"X": 1, "Y": 1}, "interpolation": 2}]}, "volume": {"Points": [{"co": {"X": 1, "Y": 1}, "interpolation": 2}]}, "wave_color": {"alpha": {"Points": [{"co": {"X": 1, "Y": 255}, "handle_left": {"X": 0.5, "Y": 1}, "handle_right": {"X": 0.5, "Y": 0}, "handle_type": 0, "interpolation": 0}]}, "blue": {"Points": [{"co": {"X": 1, "Y": 255}, "handle_left": {"X": 0.5, "Y": 1}, "handle_right": {"X": 0.5, "Y": 0}, "handle_type": 0, "interpolation": 0}]}, "green": {"Points": [{"co": {"X": 1, "Y": 123}, "handle_left": {"X": 0.5, "Y": 1}, "handle_right": {"X": 0.5, "Y": 0}, "handle_type": 0, "interpolation": 0}]}, "red": {"Points": [{"co": {"X": 1, "Y": 0}, "handle_left": {"X": 0.5, "Y": 1}, "handle_right": {"X": 0.5, "Y": 0}, "handle_type": 0, "interpolation": 0}]}}, "waveform": false, "file_id": "POT0C18IYF", "title": "uso-do-protoboard#bruto.mkv", "image": "/home/mpt/.openshot_qt/thumbnail/D30JJL22LN-20309.png", "id": "D30JJL22LN"}, {"alpha": {"Points": [{"co": {"X": 1, "Y": 1}, "interpolation": 2}, {"co": {"X": 5383, "Y": 0}, "handle_left": {"X": 0.5, "Y": 1}, "handle_right": {"X": 0.5, "Y": 0}, "handle_type": 0, "interpolation": 0}, {"co": {"X": 5413, "Y": 1}, "handle_left": {"X": 0.5, "Y": 1}, "handle_right": {"X": 0.5, "Y": 0}, "handle_type": 0, "interpolation": 0}]}, "anchor": 0, "channel_filter": {"Points": [{"co": {"X": 1, "Y": -1}, "interpolation": 2}]}, "channel_mapping": {"Points": [{"co": {"X": 1, "Y": -1}, "interpolation": 2}]}, "crop_height": {"Points": [{"co": {"X": 1, "Y": -1}, "interpolation": 2}]}, "crop_width": {"Points": [{"co": {"X": 1, "Y": -1}, "interpolation": 2}]}, "crop_x": {"Points": [{"co": {"X": 1, "Y": 0}, "interpolation": 2}]}, "crop_y": {"Points": [{"co": {"X": 1, "Y": 0}, "interpolation": 2}]}, "display": 0, "duration": 1371.0, "effects": [], "end": 1371, "gravity": 4, "has_audio": {"Points": [{"co": {"X": 1, "Y": -1}, "interpolation": 2}]}, "has_video": {"Points": [{"co": {"X": 1, "Y": -1}, "interpolation": 2}]}, "layer": 4, "location_x": {"Points": [{"co": {"X": 1, "Y": 0}, "interpolation": 2}]}, "location_y": {"Points": [{"co": {"X": 1, "Y": 0}, "interpolation": 2}]}, "mixing": 0, "perspective_c1_x": {"Points": [{"co": {"X": 1, "Y": -1}, "interpolation": 2}]}, "perspective_c1_y": {"Points": [{"co": {"X": 1, "Y": -1}, "interpolation": 2}]}, "perspective_c2_x": {"Points": [{"co": {"X": 1, "Y": -1}, "interpolation": 2}]}, "perspective_c2_y": {"Points": [{"co": {"X": 1, "Y": -1}, "interpolation": 2}]}, "perspective_c3_x": {"Points": [{"co": {"X": 1, "Y": -1}, "interpolation": 2}]}, "perspective_c3_y": {"Points": [{"co": {"X": 1, "Y": -1}, "interpolation": 2}]}, "perspective_c4_x": {"Points": [{"co": {"X": 1, "Y": -1}, "interpolation": 2}]}, "perspective_c4_y": {"Points": [{"co": {"X": 1, "Y": -1}, "interpolation": 2}]}, "position": 1237.7, "reader": {"acodec": "aac", "audio_bit_rate": 0, "audio_stream_index": 1, "audio_timebase": {"den": 1000, "num": 1}, "channel_layout": 3, "channels": 2, "display_ratio": {"den": 9, "num": 16}, "duration": 1371.0, "file_size": "456740423", "fps": {"den": 1, "num": 15}, "has_audio": true, "has_single_image": false, "has_video": true, "height": 720, "interlaced_frame": false, "metadata": {"DURATION": "00:22:51.580000000", "ENCODER": "Lavf58.29.100", "title": "Track1"}, "path": "/home/mpt/Documentos/Projetos/sisdig/3.5-videos/painel-digital-e-protoboard/brutos/uso-do-protoboard#bruto.mkv", "pixel_format": 0, "pixel_ratio": {"den": 1, "num": 1}, "sample_rate": 44100, "top_field_first": true, "type": "FFmpegReader", "vcodec": "h264", "video_bit_rate": 332933, "video_length": "20565", "video_stream_index": 0, "video_timebase": {"den": 1000, "num": 1}, "width": 1280}, "rotation": {"Points": [{"co": {"X": 1, "Y": 0}, "interpolation": 2}]}, "scale": 1, "scale_x": {"Points": [{"co": {"X": 1, "Y": 1}, "interpolation": 2}]}, "scale_y": {"Points": [{"co": {"X": 1, "Y": 1}, "interpolation": 2}]}, "shear_x": {"Points": [{"co": {"X": 1, "Y": 0}, "interpolation": 2}]}, "shear_y": {"Points": [{"co": {"X": 1, "Y": 0}, "interpolation": 2}]}, "start": 1361.6, "time": {"Points": [{"co": {"X": 1, "Y": 1}, "interpolation": 2}]}, "volume": {"Points": [{"co": {"X": 1, "Y": 1}, "interpolation": 2}]}, "wave_color": {"alpha": {"Points": [{"co": {"X": 1, "Y": 255}, "handle_left": {"X": 0.5, "Y": 1}, "handle_right": {"X": 0.5, "Y": 0}, "handle_type": 0, "interpolation": 0}]}, "blue": {"Points": [{"co": {"X": 1, "Y": 255}, "handle_left": {"X": 0.5, "Y": 1}, "handle_right": {"X": 0.5, "Y": 0}, "handle_type": 0, "interpolation": 0}]}, "green": {"Points": [{"co": {"X": 1, "Y": 123}, "handle_left": {"X": 0.5, "Y": 1}, "handle_right": {"X": 0.5, "Y": 0}, "handle_type": 0, "interpolation": 0}]}, "red": {"Points": [{"co": {"X": 1, "Y": 0}, "handle_left": {"X": 0.5, "Y": 1}, "handle_right": {"X": 0.5, "Y": 0}, "handle_type": 0, "interpolation": 0}]}}, "waveform": false, "file_id": "POT0C18IYF", "title": "uso-do-protoboard#bruto.mkv", "image": "/home/mpt/.openshot_qt/thumbnail/7D2VGIREIK-20425.png", "id": "7D2VGIREIK"}]}, {"type": "update", "key": ["clips", {"id": "7UIXUBFT9L"}], "value": {"alpha": {"Points": [{"co": {"X": 1, "Y": 1}, "interpolation": 2}, {"co": {"X": 5383, "Y": 0}, "handle_left": {"X": 0.5, "Y": 1}, "handle_right": {"X": 0.5, "Y": 0}, "handle_type": 0, "interpolation": 0}, {"co": {"X": 5413, "Y": 1}, "handle_left": {"X": 0.5, "Y": 1}, "handle_right": {"X": 0.5, "Y": 0}, "handle_type": 0, "interpolation": 0}]}, "anchor": 0, "channel_filter": {"Points": [{"co": {"X": 1, "Y": -1}, "interpolation": 2}]}, "channel_mapping": {"Points": [{"co": {"X": 1, "Y": -1}, "interpolation": 2}]}, "crop_height": {"Points": [{"co": {"X": 1, "Y": -1}, "interpolation": 2}]}, "crop_width": {"Points": [{"co": {"X": 1, "Y": -1}, "interpolation": 2}]}, "crop_x": {"Points": [{"co": {"X": 1, "Y": 0}, "interpolation": 2}]}, "crop_y": {"Points": [{"co": {"X": 1, "Y": 0}, "interpolation": 2}]}, "display": 0, "duration": 1371.0, "effects": [], "end": 1371, "gravity": 4, "has_audio": {"Points": [{"co": {"X": 1, "Y": -1}, "interpolation": 2}]}, "has_video": {"Points": [{"co": {"X": 1, "Y": -1}, "interpolation": 2}]}, "layer": 4, "location_x": {"Points": [{"co": {"X": 1, "Y": 0}, "interpolation": 2}]}, "location_y": {"Points": [{"co": {"X": 1, "Y": 0}, "interpolation": 2}]}, "mixing": 0, "perspective_c1_x": {"Points": [{"co": {"X": 1, "Y": -1}, "interpolation": 2}]}, "perspective_c1_y": {"Points": [{"co": {"X": 1, "Y": -1}, "interpolation": 2}]}, "perspective_c2_x": {"Points": [{"co": {"X": 1, "Y": -1}, "interpolation": 2}]}, "perspective_c2_y": {"Points": [{"co": {"X": 1, "Y": -1}, "interpolation": 2}]}, "perspective_c3_x": {"Points": [{"co": {"X": 1, "Y": -1}, "interpolation": 2}]}, "perspective_c3_y": {"Points": [{"co": {"X": 1, "Y": -1}, "interpolation": 2}]}, "perspective_c4_x": {"Points": [{"co": {"X": 1, "Y": -1}, "interpolation": 2}]}, "perspective_c4_y": {"Points": [{"co": {"X": 1, "Y": -1}, "interpolation": 2}]}, "position": 1241.7333333333333, "rotation": {"Points": [{"co": {"X": 1, "Y": 0}, "interpolation": 2}]}, "scale": 1, "scale_x": {"Points": [{"co": {"X": 1, "Y": 1}, "interpolation": 2}]}, "scale_y": {"Points": [{"co": {"X": 1, "Y": 1}, "interpolation": 2}]}, "shear_x": {"Points": [{"co": {"X": 1, "Y": 0}, "interpolation": 2}]}, "shear_y": {"Points": [{"co": {"X": 1, "Y": 0}, "interpolation": 2}]}, "start": 1365.6666666666667, "time": {"Points": [{"co": {"X": 1, "Y": 1}, "interpolation": 2}]}, "volume": {"Points": [{"co": {"X": 1, "Y": 1}, "interpolation": 2}]}, "wave_color": {"alpha": {"Points": [{"co": {"X": 1, "Y": 255}, "handle_left": {"X": 0.5, "Y": 1}, "handle_right": {"X": 0.5, "Y": 0}, "handle_type": 0, "interpolation": 0}]}, "blue": {"Points": [{"co": {"X": 1, "Y": 255}, "handle_left": {"X": 0.5, "Y": 1}, "handle_right": {"X": 0.5, "Y": 0}, "handle_type": 0, "interpolation": 0}]}, "green": {"Points": [{"co": {"X": 1, "Y": 123}, "handle_left": {"X": 0.5, "Y": 1}, "handle_right": {"X": 0.5, "Y": 0}, "handle_type": 0, "interpolation": 0}]}, "red": {"Points": [{"co": {"X": 1, "Y": 0}, "handle_left": {"X": 0.5, "Y": 1}, "handle_right": {"X": 0.5, "Y": 0}, "handle_type": 0, "interpolation": 0}]}}, "waveform": false, "file_id": "POT0C18IYF", "title": "uso-do-protoboard#bruto.mkv", "image": "/home/mpt/.openshot_qt/thumbnail/7UIXUBFT9L-20486.png", "id": "7UIXUBFT9L"}, "partial": false, "old_values": {"alpha": {"Points": [{"co": {"X": 1, "Y": 1}, "interpolation": 2}, {"co": {"X": 5383, "Y": 0}, "handle_left": {"X": 0.5, "Y": 1}, "handle_right": {"X": 0.5, "Y": 0}, "handle_type": 0, "interpolation": 0}, {"co": {"X": 5413, "Y": 1}, "handle_left": {"X": 0.5, "Y": 1}, "handle_right": {"X": 0.5, "Y": 0}, "handle_type": 0, "interpolation": 0}]}, "anchor": 0, "channel_filter": {"Points": [{"co": {"X": 1, "Y": -1}, "interpolation": 2}]}, "channel_mapping": {"Points": [{"co": {"X": 1, "Y": -1}, "interpolation": 2}]}, "crop_height": {"Points": [{"co": {"X": 1, "Y": -1}, "interpolation": 2}]}, "crop_width": {"Points": [{"co": {"X": 1, "Y": -1}, "interpolation": 2}]}, "crop_x": {"Points": [{"co": {"X": 1, "Y": 0}, "interpolation": 2}]}, "crop_y": {"Points": [{"co": {"X": 1, "Y": 0}, "interpolation": 2}]}, "display": 0, "duration": 1371.0, "effects": [], "end": 1371, "gravity": 4, "has_audio": {"Points": [{"co": {"X": 1, "Y": -1}, "interpolation": 2}]}, "has_video": {"Points": [{"co": {"X": 1, "Y": -1}, "interpolation": 2}]}, "layer": 4, "location_x": {"Points": [{"co": {"X": 1, "Y": 0}, "interpolation": 2}]}, "location_y": {"Points": [{"co": {"X": 1, "Y": 0}, "interpolation": 2}]}, "mixing": 0, "perspective_c1_x": {"Points": [{"co": {"X": 1, "Y": -1}, "interpolation": 2}]}, "perspective_c1_y": {"Points": [{"co": {"X": 1, "Y": -1}, "interpolation": 2}]}, "perspective_c2_x": {"Points": [{"co": {"X": 1, "Y": -1}, "interpolation": 2}]}, "perspective_c2_y": {"Points": [{"co": {"X": 1, "Y": -1}, "interpolation": 2}]}, "perspective_c3_x": {"Points": [{"co": {"X": 1, "Y": -1}, "interpolation": 2}]}, "perspective_c3_y": {"Points": [{"co": {"X": 1, "Y": -1}, "interpolation": 2}]}, "perspective_c4_x": {"Points": [{"co": {"X": 1, "Y": -1}, "interpolation": 2}]}, "perspective_c4_y": {"Points": [{"co": {"X": 1, "Y": -1}, "interpolation": 2}]}, "position": 1241.7333333333333, "reader": {"acodec": "aac", "audio_bit_rate": 0, "audio_stream_index": 1, "audio_timebase": {"den": 1000, "num": 1}, "channel_layout": 3, "channels": 2, "display_ratio": {"den": 9, "num": 16}, "duration": 1371.0, "file_size": "456740423", "fps": {"den": 1, "num": 15}, "has_audio": true, "has_single_image": false, "has_video": true, "height": 720, "interlaced_frame": false, "metadata": {"DURATION": "00:22:51.580000000", "ENCODER": "Lavf58.29.100", "title": "Track1"}, "path": "/home/mpt/Documentos/Projetos/sisdig/3.5-videos/painel-digital-e-protoboard/brutos/uso-do-protoboard#bruto.mkv", "pixel_format": 0, "pixel_ratio": {"den": 1, "num": 1}, "sample_rate": 44100, "top_field_first": true, "type": "FFmpegReader", "vcodec": "h264", "video_bit_rate": 332933, "video_length": "20565", "video_stream_index": 0, "video_timebase": {"den": 1000, "num": 1}, "width": 1280}, "rotation": {"Points": [{"co": {"X": 1, "Y": 0}, "interpolation": 2}]}, "scale": 1, "scale_x": {"Points": [{"co": {"X": 1, "Y": 1}, "interpolation": 2}]}, "scale_y": {"Points": [{"co": {"X": 1, "Y": 1}, "interpolation": 2}]}, "shear_x": {"Points": [{"co": {"X": 1, "Y": 0}, "interpolation": 2}]}, "shear_y": {"Points": [{"co": {"X": 1, "Y": 0}, "interpolation": 2}]}, "start": 1365.6666666666667, "time": {"Points": [{"co": {"X": 1, "Y": 1}, "interpolation": 2}]}, "volume": {"Points": [{"co": {"X": 1, "Y": 1}, "interpolation": 2}]}, "wave_color": {"alpha": {"Points": [{"co": {"X": 1, "Y": 255}, "handle_left": {"X": 0.5, "Y": 1}, "handle_right": {"X": 0.5, "Y": 0}, "handle_type": 0, "interpolation": 0}]}, "blue": {"Points": [{"co": {"X": 1, "Y": 255}, "handle_left": {"X": 0.5, "Y": 1}, "handle_right": {"X": 0.5, "Y": 0}, "handle_type": 0, "interpolation": 0}]}, "green": {"Points": [{"co": {"X": 1, "Y": 123}, "handle_left": {"X": 0.5, "Y": 1}, "handle_right": {"X": 0.5, "Y": 0}, "handle_type": 0, "interpolation": 0}]}, "red": {"Points": [{"co": {"X": 1, "Y": 0}, "handle_left": {"X": 0.5, "Y": 1}, "handle_right": {"X": 0.5, "Y": 0}, "handle_type": 0, "interpolation": 0}]}}, "waveform": false, "file_id": "POT0C18IYF", "title": "uso-do-protoboard#bruto.mkv", "image": "/home/mpt/.openshot_qt/thumbnail/7D2VGIREIK-20425.png", "id": "7UIXUBFT9L"}}, {"type": "update", "key": ["clips", {"id": "7D2VGIREIK"}], "value": {"alpha": {"Points": [{"co": {"X": 1, "Y": 1}, "interpolation": 2}, {"co": {"X": 5383, "Y": 0}, "handle_left": {"X": 0.5, "Y": 1}, "handle_right": {"X": 0.5, "Y": 0}, "handle_type": 0, "interpolation": 0}, {"co": {"X": 5413, "Y": 1}, "handle_left": {"X": 0.5, "Y": 1}, "handle_right": {"X": 0.5, "Y": 0}, "handle_type": 0, "interpolation": 0}]}, "anchor": 0, "channel_filter": {"Points": [{"co": {"X": 1, "Y": -1}, "interpolation": 2}]}, "channel_mapping": {"Points": [{"co": {"X": 1, "Y": -1}, "interpolation": 2}]}, "crop_height": {"Points": [{"co": {"X": 1, "Y": -1}, "interpolation": 2}]}, "crop_width": {"Points": [{"co": {"X": 1, "Y": -1}, "interpolation": 2}]}, "crop_x": {"Points": [{"co": {"X": 1, "Y": 0}, "interpolation": 2}]}, "crop_y": {"Points": [{"co": {"X": 1, "Y": 0}, "interpolation": 2}]}, "display": 0, "duration": 1371.0, "effects": [], "end": 1365.6, "gravity": 4, "has_audio": {"Points": [{"co": {"X": 1, "Y": -1}, "interpolation": 2}]}, "has_video": {"Points": [{"co": {"X": 1, "Y": -1}, "interpolation": 2}]}, "layer": 4, "location_x": {"Points": [{"co": {"X": 1, "Y": 0}, "interpolation": 2}]}, "location_y": {"Points": [{"co": {"X": 1, "Y": 0}, "interpolation": 2}]}, "mixing": 0, "perspective_c1_x": {"Points": [{"co": {"X": 1, "Y": -1}, "interpolation": 2}]}, "perspective_c1_y": {"Points": [{"co": {"X": 1, "Y": -1}, "interpolation": 2}]}, "perspective_c2_x": {"Points": [{"co": {"X": 1, "Y": -1}, "interpolation": 2}]}, "perspective_c2_y": {"Points": [{"co": {"X": 1, "Y": -1}, "interpolation": 2}]}, "perspective_c3_x": {"Points": [{"co": {"X": 1, "Y": -1}, "interpolation": 2}]}, "perspective_c3_y": {"Points": [{"co": {"X": 1, "Y": -1}, "interpolation": 2}]}, "perspective_c4_x": {"Points": [{"co": {"X": 1, "Y": -1}, "interpolation": 2}]}, "perspective_c4_y": {"Points": [{"co": {"X": 1, "Y": -1}, "interpolation": 2}]}, "position": 1237.7, "rotation": {"Points": [{"co": {"X": 1, "Y": 0}, "interpolation": 2}]}, "scale": 1, "scale_x": {"Points": [{"co": {"X": 1, "Y": 1}, "interpolation": 2}]}, "scale_y": {"Points": [{"co": {"X": 1, "Y": 1}, "interpolation": 2}]}, "shear_x": {"Points": [{"co": {"X": 1, "Y": 0}, "interpolation": 2}]}, "shear_y": {"Points": [{"co": {"X": 1, "Y": 0}, "interpolation": 2}]}, "start": 1361.6, "time": {"Points": [{"co": {"X": 1, "Y": 1}, "interpolation": 2}]}, "volume": {"Points": [{"co": {"X": 1, "Y": 1}, "interpolation": 2}]}, "wave_color": {"alpha": {"Points": [{"co": {"X": 1, "Y": 255}, "handle_left": {"X": 0.5, "Y": 1}, "handle_right": {"X": 0.5, "Y": 0}, "handle_type": 0, "interpolation": 0}]}, "blue": {"Points": [{"co": {"X": 1, "Y": 255}, "handle_left": {"X": 0.5, "Y": 1}, "handle_right": {"X": 0.5, "Y": 0}, "handle_type": 0, "interpolation": 0}]}, "green": {"Points": [{"co": {"X": 1, "Y": 123}, "handle_left": {"X": 0.5, "Y": 1}, "handle_right": {"X": 0.5, "Y": 0}, "handle_type": 0, "interpolation": 0}]}, "red": {"Points": [{"co": {"X": 1, "Y": 0}, "handle_left": {"X": 0.5, "Y": 1}, "handle_right": {"X": 0.5, "Y": 0}, "handle_type": 0, "interpolation": 0}]}}, "waveform": false, "file_id": "POT0C18IYF", "title": "uso-do-protoboard#bruto.mkv", "image": "/home/mpt/.openshot_qt/thumbnail/7D2VGIREIK-20425.png", "id": "7D2VGIREIK"}, "partial": false, "old_values": {"alpha": {"Points": [{"co": {"X": 1, "Y": 1}, "interpolation": 2}, {"co": {"X": 5383, "Y": 0}, "handle_left": {"X": 0.5, "Y": 1}, "handle_right": {"X": 0.5, "Y": 0}, "handle_type": 0, "interpolation": 0}, {"co": {"X": 5413, "Y": 1}, "handle_left": {"X": 0.5, "Y": 1}, "handle_right": {"X": 0.5, "Y": 0}, "handle_type": 0, "interpolation": 0}]}, "anchor": 0, "channel_filter": {"Points": [{"co": {"X": 1, "Y": -1}, "interpolation": 2}]}, "channel_mapping": {"Points": [{"co": {"X": 1, "Y": -1}, "interpolation": 2}]}, "crop_height": {"Points": [{"co": {"X": 1, "Y": -1}, "interpolation": 2}]}, "crop_width": {"Points": [{"co": {"X": 1, "Y": -1}, "interpolation": 2}]}, "crop_x": {"Points": [{"co": {"X": 1, "Y": 0}, "interpolation": 2}]}, "crop_y": {"Points": [{"co": {"X": 1, "Y": 0}, "interpolation": 2}]}, "display": 0, "duration": 1371.0, "effects": [], "end": 1371, "gravity": 4, "has_audio": {"Points": [{"co": {"X": 1, "Y": -1}, "interpolation": 2}]}, "has_video": {"Points": [{"co": {"X": 1, "Y": -1}, "interpolation": 2}]}, "layer": 4, "location_x": {"Points": [{"co": {"X": 1, "Y": 0}, "interpolation": 2}]}, "location_y": {"Points": [{"co": {"X": 1, "Y": 0}, "interpolation": 2}]}, "mixing": 0, "perspective_c1_x": {"Points": [{"co": {"X": 1, "Y": -1}, "interpolation": 2}]}, "perspective_c1_y": {"Points": [{"co": {"X": 1, "Y": -1}, "interpolation": 2}]}, "perspective_c2_x": {"Points": [{"co": {"X": 1, "Y": -1}, "interpolation": 2}]}, "perspective_c2_y": {"Points": [{"co": {"X": 1, "Y": -1}, "interpolation": 2}]}, "perspective_c3_x": {"Points": [{"co": {"X": 1, "Y": -1}, "interpolation": 2}]}, "perspective_c3_y": {"Points": [{"co": {"X": 1, "Y": -1}, "interpolation": 2}]}, "perspective_c4_x": {"Points": [{"co": {"X": 1, "Y": -1}, "interpolation": 2}]}, "perspective_c4_y": {"Points": [{"co": {"X": 1, "Y": -1}, "interpolation": 2}]}, "position": 1237.7, "reader": {"acodec": "aac", "audio_bit_rate": 0, "audio_stream_index": 1, "audio_timebase": {"den": 1000, "num": 1}, "channel_layout": 3, "channels": 2, "display_ratio": {"den": 9, "num": 16}, "duration": 1371.0, "file_size": "456740423", "fps": {"den": 1, "num": 15}, "has_audio": true, "has_single_image": false, "has_video": true, "height": 720, "interlaced_frame": false, "metadata": {"DURATION": "00:22:51.580000000", "ENCODER": "Lavf58.29.100", "title": "Track1"}, "path": "/home/mpt/Documentos/Projetos/sisdig/3.5-videos/painel-digital-e-protoboard/brutos/uso-do-protoboard#bruto.mkv", "pixel_format": 0, "pixel_ratio": {"den": 1, "num": 1}, "sample_rate": 44100, "top_field_first": true, "type": "FFmpegReader", "vcodec": "h264", "video_bit_rate": 332933, "video_length": "20565", "video_stream_index": 0, "video_timebase": {"den": 1000, "num": 1}, "width": 1280}, "rotation": {"Points": [{"co": {"X": 1, "Y": 0}, "interpolation": 2}]}, "scale": 1, "scale_x": {"Points": [{"co": {"X": 1, "Y": 1}, "interpolation": 2}]}, "scale_y": {"Points": [{"co": {"X": 1, "Y": 1}, "interpolation": 2}]}, "shear_x": {"Points": [{"co": {"X": 1, "Y": 0}, "interpolation": 2}]}, "shear_y": {"Points": [{"co": {"X": 1, "Y": 0}, "interpolation": 2}]}, "start": 1361.6, "time": {"Points": [{"co": {"X": 1, "Y": 1}, "interpolation": 2}]}, "volume": {"Points": [{"co": {"X": 1, "Y": 1}, "interpolation": 2}]}, "wave_color": {"alpha": {"Points": [{"co": {"X": 1, "Y": 255}, "handle_left": {"X": 0.5, "Y": 1}, "handle_right": {"X": 0.5, "Y": 0}, "handle_type": 0, "interpolation": 0}]}, "blue": {"Points": [{"co": {"X": 1, "Y": 255}, "handle_left": {"X": 0.5, "Y": 1}, "handle_right": {"X": 0.5, "Y": 0}, "handle_type": 0, "interpolation": 0}]}, "green": {"Points": [{"co": {"X": 1, "Y": 123}, "handle_left": {"X": 0.5, "Y": 1}, "handle_right": {"X": 0.5, "Y": 0}, "handle_type": 0, "interpolation": 0}]}, "red": {"Points": [{"co": {"X": 1, "Y": 0}, "handle_left": {"X": 0.5, "Y": 1}, "handle_right": {"X": 0.5, "Y": 0}, "handle_type": 0, "interpolation": 0}]}}, "waveform": false, "file_id": "POT0C18IYF", "title": "uso-do-protoboard#bruto.mkv", "image": "/home/mpt/.openshot_qt/thumbnail/7D2VGIREIK-20425.png", "id": "7D2VGIREIK"}}, {"type": "update", "key": ["clips", {"id": "7D2VGIREIK"}], "value": {"id": "7D2VGIREIK", "layer": 3, "position": 1203.6666666666667, "image": "/home/mpt/.openshot_qt/thumbnail/7D2VGIREIK-20425.png", "start": 1361.6, "end": 1365.6}, "partial": false, "old_values": {"alpha": {"Points": [{"co": {"X": 1, "Y": 1}, "interpolation": 2}, {"co": {"X": 5383, "Y": 0}, "handle_left": {"X": 0.5, "Y": 1}, "handle_right": {"X": 0.5, "Y": 0}, "handle_type": 0, "interpolation": 0}, {"co": {"X": 5413, "Y": 1}, "handle_left": {"X": 0.5, "Y": 1}, "handle_right": {"X": 0.5, "Y": 0}, "handle_type": 0, "interpolation": 0}]}, "anchor": 0, "channel_filter": {"Points": [{"co": {"X": 1, "Y": -1}, "interpolation": 2}]}, "channel_mapping": {"Points": [{"co": {"X": 1, "Y": -1}, "interpolation": 2}]}, "crop_height": {"Points": [{"co": {"X": 1, "Y": -1}, "interpolation": 2}]}, "crop_width": {"Points": [{"co": {"X": 1, "Y": -1}, "interpolation": 2}]}, "crop_x": {"Points": [{"co": {"X": 1, "Y": 0}, "interpolation": 2}]}, "crop_y": {"Points": [{"co": {"X": 1, "Y": 0}, "interpolation": 2}]}, "display": 0, "duration": 1371.0, "effects": [], "end": 1365.6, "gravity": 4, "has_audio": {"Points": [{"co": {"X": 1, "Y": -1}, "interpolation": 2}]}, "has_video": {"Points": [{"co": {"X": 1, "Y": -1}, "interpolation": 2}]}, "layer": 4, "location_x": {"Points": [{"co": {"X": 1, "Y": 0}, "interpolation": 2}]}, "location_y": {"Points": [{"co": {"X": 1, "Y": 0}, "interpolation": 2}]}, "mixing": 0, "perspective_c1_x": {"Points": [{"co": {"X": 1, "Y": -1}, "interpolation": 2}]}, "perspective_c1_y": {"Points": [{"co": {"X": 1, "Y": -1}, "interpolation": 2}]}, "perspective_c2_x": {"Points": [{"co": {"X": 1, "Y": -1}, "interpolation": 2}]}, "perspective_c2_y": {"Points": [{"co": {"X": 1, "Y": -1}, "interpolation": 2}]}, "perspective_c3_x": {"Points": [{"co": {"X": 1, "Y": -1}, "interpolation": 2}]}, "perspective_c3_y": {"Points": [{"co": {"X": 1, "Y": -1}, "interpolation": 2}]}, "perspective_c4_x": {"Points": [{"co": {"X": 1, "Y": -1}, "interpolation": 2}]}, "perspective_c4_y": {"Points": [{"co": {"X": 1, "Y": -1}, "interpolation": 2}]}, "position": 1237.7, "reader": {"acodec": "aac", "audio_bit_rate": 0, "audio_stream_index": 1, "audio_timebase": {"den": 1000, "num": 1}, "channel_layout": 3, "channels": 2, "display_ratio": {"den": 9, "num": 16}, "duration": 1371.0, "file_size": "456740423", "fps": {"den": 1, "num": 15}, "has_audio": true, "has_single_image": false, "has_video": true, "height": 720, "interlaced_frame": false, "metadata": {"DURATION": "00:22:51.580000000", "ENCODER": "Lavf58.29.100", "title": "Track1"}, "path": "/home/mpt/Documentos/Projetos/sisdig/3.5-videos/painel-digital-e-protoboard/brutos/uso-do-protoboard#bruto.mkv", "pixel_format": 0, "pixel_ratio": {"den": 1, "num": 1}, "sample_rate": 44100, "top_field_first": true, "type": "FFmpegReader", "vcodec": "h264", "video_bit_rate": 332933, "video_length": "20565", "video_stream_index": 0, "video_timebase": {"den": 1000, "num": 1}, "width": 1280}, "rotation": {"Points": [{"co": {"X": 1, "Y": 0}, "interpolation": 2}]}, "scale": 1, "scale_x": {"Points": [{"co": {"X": 1, "Y": 1}, "interpolation": 2}]}, "scale_y": {"Points": [{"co": {"X": 1, "Y": 1}, "interpolation": 2}]}, "shear_x": {"Points": [{"co": {"X": 1, "Y": 0}, "interpolation": 2}]}, "shear_y": {"Points": [{"co": {"X": 1, "Y": 0}, "interpolation": 2}]}, "start": 1361.6, "time": {"Points": [{"co": {"X": 1, "Y": 1}, "interpolation": 2}]}, "volume": {"Points": [{"co": {"X": 1, "Y": 1}, "interpolation": 2}]}, "wave_color": {"alpha": {"Points": [{"co": {"X": 1, "Y": 255}, "handle_left": {"X": 0.5, "Y": 1}, "handle_right": {"X": 0.5, "Y": 0}, "handle_type": 0, "interpolation": 0}]}, "blue": {"Points": [{"co": {"X": 1, "Y": 255}, "handle_left": {"X": 0.5, "Y": 1}, "handle_right": {"X": 0.5, "Y": 0}, "handle_type": 0, "interpolation": 0}]}, "green": {"Points": [{"co": {"X": 1, "Y": 123}, "handle_left": {"X": 0.5, "Y": 1}, "handle_right": {"X": 0.5, "Y": 0}, "handle_type": 0, "interpolation": 0}]}, "red": {"Points": [{"co": {"X": 1, "Y": 0}, "handle_left": {"X": 0.5, "Y": 1}, "handle_right": {"X": 0.5, "Y": 0}, "handle_type": 0, "interpolation": 0}]}}, "waveform": false, "file_id": "POT0C18IYF", "title": "uso-do-protoboard#bruto.mkv", "image": "/home/mpt/.openshot_qt/thumbnail/7D2VGIREIK-20425.png", "id": "7D2VGIREIK"}}, {"type": "update", "key": ["clips", {"id": "7UIXUBFT9L"}], "value": {"id": "7UIXUBFT9L", "layer": 4, "position": 1237.8, "image": "/home/mpt/.openshot_qt/thumbnail/7UIXUBFT9L-20486.png", "start": 1365.6666666666667, "end": 1371}, "partial": false, "old_values": {"alpha": {"Points": [{"co": {"X": 1, "Y": 1}, "interpolation": 2}, {"co": {"X": 5383, "Y": 0}, "handle_left": {"X": 0.5, "Y": 1}, "handle_right": {"X": 0.5, "Y": 0}, "handle_type": 0, "interpolation": 0}, {"co": {"X": 5413, "Y": 1}, "handle_left": {"X": 0.5, "Y": 1}, "handle_right": {"X": 0.5, "Y": 0}, "handle_type": 0, "interpolation": 0}]}, "anchor": 0, "channel_filter": {"Points": [{"co": {"X": 1, "Y": -1}, "interpolation": 2}]}, "channel_mapping": {"Points": [{"co": {"X": 1, "Y": -1}, "interpolation": 2}]}, "crop_height": {"Points": [{"co": {"X": 1, "Y": -1}, "interpolation": 2}]}, "crop_width": {"Points": [{"co": {"X": 1, "Y": -1}, "interpolation": 2}]}, "crop_x": {"Points": [{"co": {"X": 1, "Y": 0}, "interpolation": 2}]}, "crop_y": {"Points": [{"co": {"X": 1, "Y": 0}, "interpolation": 2}]}, "display": 0, "duration": 1371.0, "effects": [], "end": 1371, "gravity": 4, "has_audio": {"Points": [{"co": {"X": 1, "Y": -1}, "interpolation": 2}]}, "has_video": {"Points": [{"co": {"X": 1, "Y": -1}, "interpolation": 2}]}, "layer": 4, "location_x": {"Points": [{"co": {"X": 1, "Y": 0}, "interpolation": 2}]}, "location_y": {"Points": [{"co": {"X": 1, "Y": 0}, "interpolation": 2}]}, "mixing": 0, "perspective_c1_x": {"Points": [{"co": {"X": 1, "Y": -1}, "interpolation": 2}]}, "perspective_c1_y": {"Points": [{"co": {"X": 1, "Y": -1}, "interpolation": 2}]}, "perspective_c2_x": {"Points": [{"co": {"X": 1, "Y": -1}, "interpolation": 2}]}, "perspective_c2_y": {"Points": [{"co": {"X": 1, "Y": -1}, "interpolation": 2}]}, "perspective_c3_x": {"Points": [{"co": {"X": 1, "Y": -1}, "interpolation": 2}]}, "perspective_c3_y": {"Points": [{"co": {"X": 1, "Y": -1}, "interpolation": 2}]}, "perspective_c4_x": {"Points": [{"co": {"X": 1, "Y": -1}, "interpolation": 2}]}, "perspective_c4_y": {"Points": [{"co": {"X": 1, "Y": -1}, "interpolation": 2}]}, "position": 1241.7333333333333, "reader": {"acodec": "aac", "audio_bit_rate": 0, "audio_stream_index": 1, "audio_timebase": {"den": 1000, "num": 1}, "channel_layout": 3, "channels": 2, "display_ratio": {"den": 9, "num": 16}, "duration": 1371.0, "file_size": "456740423", "fps": {"den": 1, "num": 15}, "has_audio": true, "has_single_image": false, "has_video": true, "height": 720, "interlaced_frame": false, "metadata": {"DURATION": "00:22:51.580000000", "ENCODER": "Lavf58.29.100", "title": "Track1"}, "path": "/home/mpt/Documentos/Projetos/sisdig/3.5-videos/painel-digital-e-protoboard/brutos/uso-do-protoboard#bruto.mkv", "pixel_format": 0, "pixel_ratio": {"den": 1, "num": 1}, "sample_rate": 44100, "top_field_first": true, "type": "FFmpegReader", "vcodec": "h264", "video_bit_rate": 332933, "video_length": "20565", "video_stream_index": 0, "video_timebase": {"den": 1000, "num": 1}, "width": 1280}, "rotation": {"Points": [{"co": {"X": 1, "Y": 0}, "interpolation": 2}]}, "scale": 1, "scale_x": {"Points": [{"co": {"X": 1, "Y": 1}, "interpolation": 2}]}, "scale_y": {"Points": [{"co": {"X": 1, "Y": 1}, "interpolation": 2}]}, "shear_x": {"Points": [{"co": {"X": 1, "Y": 0}, "interpolation": 2}]}, "shear_y": {"Points": [{"co": {"X": 1, "Y": 0}, "interpolation": 2}]}, "start": 1365.6666666666667, "time": {"Points": [{"co": {"X": 1, "Y": 1}, "interpolation": 2}]}, "volume": {"Points": [{"co": {"X": 1, "Y": 1}, "interpolation": 2}]}, "wave_color": {"alpha": {"Points": [{"co": {"X": 1, "Y": 255}, "handle_left": {"X": 0.5, "Y": 1}, "handle_right": {"X": 0.5, "Y": 0}, "handle_type": 0, "interpolation": 0}]}, "blue": {"Points": [{"co": {"X": 1, "Y": 255}, "handle_left": {"X": 0.5, "Y": 1}, "handle_right": {"X": 0.5, "Y": 0}, "handle_type": 0, "interpolation": 0}]}, "green": {"Points": [{"co": {"X": 1, "Y": 123}, "handle_left": {"X": 0.5, "Y": 1}, "handle_right": {"X": 0.5, "Y": 0}, "handle_type": 0, "interpolation": 0}]}, "red": {"Points": [{"co": {"X": 1, "Y": 0}, "handle_left": {"X": 0.5, "Y": 1}, "handle_right": {"X": 0.5, "Y": 0}, "handle_type": 0, "interpolation": 0}]}}, "waveform": false, "file_id": "POT0C18IYF", "title": "uso-do-protoboard#bruto.mkv", "image": "/home/mpt/.openshot_qt/thumbnail/7UIXUBFT9L-20486.png", "id": "7UIXUBFT9L"}}, {"type": "update", "key": ["clips", {"id": "7UIXUBFT9L"}], "value": {"id": "7UIXUBFT9L", "layer": 4, "position": 1237.6666666666667, "image": "/home/mpt/.openshot_qt/thumbnail/7UIXUBFT9L-20486.png", "start": 1365.6666666666667, "end": 1371}, "partial": false, "old_values": {"alpha": {"Points": [{"co": {"X": 1, "Y": 1}, "interpolation": 2}, {"co": {"X": 5383, "Y": 0}, "handle_left": {"X": 0.5, "Y": 1}, "handle_right": {"X": 0.5, "Y": 0}, "handle_type": 0, "interpolation": 0}, {"co": {"X": 5413, "Y": 1}, "handle_left": {"X": 0.5, "Y": 1}, "handle_right": {"X": 0.5, "Y": 0}, "handle_type": 0, "interpolation": 0}]}, "anchor": 0, "channel_filter": {"Points": [{"co": {"X": 1, "Y": -1}, "interpolation": 2}]}, "channel_mapping": {"Points": [{"co": {"X": 1, "Y": -1}, "interpolation": 2}]}, "crop_height": {"Points": [{"co": {"X": 1, "Y": -1}, "interpolation": 2}]}, "crop_width": {"Points": [{"co": {"X": 1, "Y": -1}, "interpolation": 2}]}, "crop_x": {"Points": [{"co": {"X": 1, "Y": 0}, "interpolation": 2}]}, "crop_y": {"Points": [{"co": {"X": 1, "Y": 0}, "interpolation": 2}]}, "display": 0, "duration": 1371.0, "effects": [], "end": 1371, "gravity": 4, "has_audio": {"Points": [{"co": {"X": 1, "Y": -1}, "interpolation": 2}]}, "has_video": {"Points": [{"co": {"X": 1, "Y": -1}, "interpolation": 2}]}, "layer": 4, "location_x": {"Points": [{"co": {"X": 1, "Y": 0}, "interpolation": 2}]}, "location_y": {"Points": [{"co": {"X": 1, "Y": 0}, "interpolation": 2}]}, "mixing": 0, "perspective_c1_x": {"Points": [{"co": {"X": 1, "Y": -1}, "interpolation": 2}]}, "perspective_c1_y": {"Points": [{"co": {"X": 1, "Y": -1}, "interpolation": 2}]}, "perspective_c2_x": {"Points": [{"co": {"X": 1, "Y": -1}, "interpolation": 2}]}, "perspective_c2_y": {"Points": [{"co": {"X": 1, "Y": -1}, "interpolation": 2}]}, "perspective_c3_x": {"Points": [{"co": {"X": 1, "Y": -1}, "interpolation": 2}]}, "perspective_c3_y": {"Points": [{"co": {"X": 1, "Y": -1}, "interpolation": 2}]}, "perspective_c4_x": {"Points": [{"co": {"X": 1, "Y": -1}, "interpolation": 2}]}, "perspective_c4_y": {"Points": [{"co": {"X": 1, "Y": -1}, "interpolation": 2}]}, "position": 1237.8, "reader": {"acodec": "aac", "audio_bit_rate": 0, "audio_stream_index": 1, "audio_timebase": {"den": 1000, "num": 1}, "channel_layout": 3, "channels": 2, "display_ratio": {"den": 9, "num": 16}, "duration": 1371.0, "file_size": "456740423", "fps": {"den": 1, "num": 15}, "has_audio": true, "has_single_image": false, "has_video": true, "height": 720, "interlaced_frame": false, "metadata": {"DURATION": "00:22:51.580000000", "ENCODER": "Lavf58.29.100", "title": "Track1"}, "path": "/home/mpt/Documentos/Projetos/sisdig/3.5-videos/painel-digital-e-protoboard/brutos/uso-do-protoboard#bruto.mkv", "pixel_format": 0, "pixel_ratio": {"den": 1, "num": 1}, "sample_rate": 44100, "top_field_first": true, "type": "FFmpegReader", "vcodec": "h264", "video_bit_rate": 332933, "video_length": "20565", "video_stream_index": 0, "video_timebase": {"den": 1000, "num": 1}, "width": 1280}, "rotation": {"Points": [{"co": {"X": 1, "Y": 0}, "interpolation": 2}]}, "scale": 1, "scale_x": {"Points": [{"co": {"X": 1, "Y": 1}, "interpolation": 2}]}, "scale_y": {"Points": [{"co": {"X": 1, "Y": 1}, "interpolation": 2}]}, "shear_x": {"Points": [{"co": {"X": 1, "Y": 0}, "interpolation": 2}]}, "shear_y": {"Points": [{"co": {"X": 1, "Y": 0}, "interpolation": 2}]}, "start": 1365.6666666666667, "time": {"Points": [{"co": {"X": 1, "Y": 1}, "interpolation": 2}]}, "volume": {"Points": [{"co": {"X": 1, "Y": 1}, "interpolation": 2}]}, "wave_color": {"alpha": {"Points": [{"co": {"X": 1, "Y": 255}, "handle_left": {"X": 0.5, "Y": 1}, "handle_right": {"X": 0.5, "Y": 0}, "handle_type": 0, "interpolation": 0}]}, "blue": {"Points": [{"co": {"X": 1, "Y": 255}, "handle_left": {"X": 0.5, "Y": 1}, "handle_right": {"X": 0.5, "Y": 0}, "handle_type": 0, "interpolation": 0}]}, "green": {"Points": [{"co": {"X": 1, "Y": 123}, "handle_left": {"X": 0.5, "Y": 1}, "handle_right": {"X": 0.5, "Y": 0}, "handle_type": 0, "interpolation": 0}]}, "red": {"Points": [{"co": {"X": 1, "Y": 0}, "handle_left": {"X": 0.5, "Y": 1}, "handle_right": {"X": 0.5, "Y": 0}, "handle_type": 0, "interpolation": 0}]}}, "waveform": false, "file_id": "POT0C18IYF", "title": "uso-do-protoboard#bruto.mkv", "image": "/home/mpt/.openshot_qt/thumbnail/7UIXUBFT9L-20486.png", "id": "7UIXUBFT9L"}}, {"type": "delete", "key": ["clips", {"id": "D30JJL22LN"}], "value": null, "partial": false, "old_values": {"alpha": {"Points": [{"co": {"X": 1, "Y": 1}, "interpolation": 2}, {"co": {"X": 5383, "Y": 0}, "handle_left": {"X": 0.5, "Y": 1}, "handle_right": {"X": 0.5, "Y": 0}, "handle_type": 0, "interpolation": 0}, {"co": {"X": 5413, "Y": 1}, "handle_left": {"X": 0.5, "Y": 1}, "handle_right": {"X": 0.5, "Y": 0}, "handle_type": 0, "interpolation": 0}]}, "anchor": 0, "channel_filter": {"Points": [{"co": {"X": 1, "Y": -1}, "interpolation": 2}]}, "channel_mapping": {"Points": [{"co": {"X": 1, "Y": -1}, "interpolation": 2}]}, "crop_height": {"Points": [{"co": {"X": 1, "Y": -1}, "interpolation": 2}]}, "crop_width": {"Points": [{"co": {"X": 1, "Y": -1}, "interpolation": 2}]}, "crop_x": {"Points": [{"co": {"X": 1, "Y": 0}, "interpolation": 2}]}, "crop_y": {"Points": [{"co": {"X": 1, "Y": 0}, "interpolation": 2}]}, "display": 0, "duration": 1371.0, "effects": [], "end": 1371, "gravity": 4, "has_audio": {"Points": [{"co": {"X": 1, "Y": -1}, "interpolation": 2}]}, "has_video": {"Points": [{"co": {"X": 1, "Y": -1}, "interpolation": 2}]}, "layer": 3, "location_x": {"Points": [{"co": {"X": 1, "Y": 0}, "interpolation": 2}]}, "location_y": {"Points": [{"co": {"X": 1, "Y": 0}, "interpolation": 2}]}, "mixing": 0, "perspective_c1_x": {"Points": [{"co": {"X": 1, "Y": -1}, "interpolation": 2}]}, "perspective_c1_y": {"Points": [{"co": {"X": 1, "Y": -1}, "interpolation": 2}]}, "perspective_c2_x": {"Points": [{"co": {"X": 1, "Y": -1}, "interpolation": 2}]}, "perspective_c2_y": {"Points": [{"co": {"X": 1, "Y": -1}, "interpolation": 2}]}, "perspective_c3_x": {"Points": [{"co": {"X": 1, "Y": -1}, "interpolation": 2}]}, "perspective_c3_y": {"Points": [{"co": {"X": 1, "Y": -1}, "interpolation": 2}]}, "perspective_c4_x": {"Points": [{"co": {"X": 1, "Y": -1}, "interpolation": 2}]}, "perspective_c4_y": {"Points": [{"co": {"X": 1, "Y": -1}, "interpolation": 2}]}, "position": 1248.9, "reader": {"acodec": "aac", "audio_bit_rate": 0, "audio_stream_index": 1, "audio_timebase": {"den": 1000, "num": 1}, "channel_layout": 3, "channels": 2, "display_ratio": {"den": 9, "num": 16}, "duration": 1371.0, "file_size": "456740423", "fps": {"den": 1, "num": 15}, "has_audio": true, "has_single_image": false, "has_video": true, "height": 720, "interlaced_frame": false, "metadata": {"DURATION": "00:22:51.580000000", "ENCODER": "Lavf58.29.100", "title": "Track1"}, "path": "/home/mpt/Documentos/Projetos/sisdig/3.5-videos/painel-digital-e-protoboard/brutos/uso-do-protoboard#bruto.mkv", "pixel_format": 0, "pixel_ratio": {"den": 1, "num": 1}, "sample_rate": 44100, "top_field_first": true, "type": "FFmpegReader", "vcodec": "h264", "video_bit_rate": 332933, "video_length": "20565", "video_stream_index": 0, "video_timebase": {"den": 1000, "num": 1}, "width": 1280}, "rotation": {"Points": [{"co": {"X": 1, "Y": 0}, "interpolation": 2}]}, "scale": 1, "scale_x": {"Points": [{"co": {"X": 1, "Y": 1}, "interpolation": 2}]}, "scale_y": {"Points": [{"co": {"X": 1, "Y": 1}, "interpolation": 2}]}, "shear_x": {"Points": [{"co": {"X": 1, "Y": 0}, "interpolation": 2}]}, "shear_y": {"Points": [{"co": {"X": 1, "Y": 0}, "interpolation": 2}]}, "start": 1353.8666666666666, "time": {"Points": [{"co": {"X": 1, "Y": 1}, "interpolation": 2}]}, "volume": {"Points": [{"co": {"X": 1, "Y": 1}, "interpolation": 2}]}, "wave_color": {"alpha": {"Points": [{"co": {"X": 1, "Y": 255}, "handle_left": {"X": 0.5, "Y": 1}, "handle_right": {"X": 0.5, "Y": 0}, "handle_type": 0, "interpolation": 0}]}, "blue": {"Points": [{"co": {"X": 1, "Y": 255}, "handle_left": {"X": 0.5, "Y": 1}, "handle_right": {"X": 0.5, "Y": 0}, "handle_type": 0, "interpolation": 0}]}, "green": {"Points": [{"co": {"X": 1, "Y": 123}, "handle_left": {"X": 0.5, "Y": 1}, "handle_right": {"X": 0.5, "Y": 0}, "handle_type": 0, "interpolation": 0}]}, "red": {"Points": [{"co": {"X": 1, "Y": 0}, "handle_left": {"X": 0.5, "Y": 1}, "handle_right": {"X": 0.5, "Y": 0}, "handle_type": 0, "interpolation": 0}]}}, "waveform": false, "file_id": "POT0C18IYF", "title": "uso-do-protoboard#bruto.mkv", "image": "/home/mpt/.openshot_qt/thumbnail/D30JJL22LN-20309.png", "id": "D30JJL22LN"}}, {"type": "delete", "key": ["clips", {"id": "7D2VGIREIK"}], "value": null, "partial": false, "old_values": {"alpha": {"Points": [{"co": {"X": 1, "Y": 1}, "interpolation": 2}, {"co": {"X": 5383, "Y": 0}, "handle_left": {"X": 0.5, "Y": 1}, "handle_right": {"X": 0.5, "Y": 0}, "handle_type": 0, "interpolation": 0}, {"co": {"X": 5413, "Y": 1}, "handle_left": {"X": 0.5, "Y": 1}, "handle_right": {"X": 0.5, "Y": 0}, "handle_type": 0, "interpolation": 0}]}, "anchor": 0, "channel_filter": {"Points": [{"co": {"X": 1, "Y": -1}, "interpolation": 2}]}, "channel_mapping": {"Points": [{"co": {"X": 1, "Y": -1}, "interpolation": 2}]}, "crop_height": {"Points": [{"co": {"X": 1, "Y": -1}, "interpolation": 2}]}, "crop_width": {"Points": [{"co": {"X": 1, "Y": -1}, "interpolation": 2}]}, "crop_x": {"Points": [{"co": {"X": 1, "Y": 0}, "interpolation": 2}]}, "crop_y": {"Points": [{"co": {"X": 1, "Y": 0}, "interpolation": 2}]}, "display": 0, "duration": 1371.0, "effects": [], "end": 1365.6, "gravity": 4, "has_audio": {"Points": [{"co": {"X": 1, "Y": -1}, "interpolation": 2}]}, "has_video": {"Points": [{"co": {"X": 1, "Y": -1}, "interpolation": 2}]}, "layer": 3, "location_x": {"Points": [{"co": {"X": 1, "Y": 0}, "interpolation": 2}]}, "location_y": {"Points": [{"co": {"X": 1, "Y": 0}, "interpolation": 2}]}, "mixing": 0, "perspective_c1_x": {"Points": [{"co": {"X": 1, "Y": -1}, "interpolation": 2}]}, "perspective_c1_y": {"Points": [{"co": {"X": 1, "Y": -1}, "interpolation": 2}]}, "perspective_c2_x": {"Points": [{"co": {"X": 1, "Y": -1}, "interpolation": 2}]}, "perspective_c2_y": {"Points": [{"co": {"X": 1, "Y": -1}, "interpolation": 2}]}, "perspective_c3_x": {"Points": [{"co": {"X": 1, "Y": -1}, "interpolation": 2}]}, "perspective_c3_y": {"Points": [{"co": {"X": 1, "Y": -1}, "interpolation": 2}]}, "perspective_c4_x": {"Points": [{"co": {"X": 1, "Y": -1}, "interpolation": 2}]}, "perspective_c4_y": {"Points": [{"co": {"X": 1, "Y": -1}, "interpolation": 2}]}, "position": 1203.6666666666667, "reader": {"acodec": "aac", "audio_bit_rate": 0, "audio_stream_index": 1, "audio_timebase": {"den": 1000, "num": 1}, "channel_layout": 3, "channels": 2, "display_ratio": {"den": 9, "num": 16}, "duration": 1371.0, "file_size": "456740423", "fps": {"den": 1, "num": 15}, "has_audio": true, "has_single_image": false, "has_video": true, "height": 720, "interlaced_frame": false, "metadata": {"DURATION": "00:22:51.580000000", "ENCODER": "Lavf58.29.100", "title": "Track1"}, "path": "/home/mpt/Documentos/Projetos/sisdig/3.5-videos/painel-digital-e-protoboard/brutos/uso-do-protoboard#bruto.mkv", "pixel_format": 0, "pixel_ratio": {"den": 1, "num": 1}, "sample_rate": 44100, "top_field_first": true, "type": "FFmpegReader", "vcodec": "h264", "video_bit_rate": 332933, "video_length": "20565", "video_stream_index": 0, "video_timebase": {"den": 1000, "num": 1}, "width": 1280}, "rotation": {"Points": [{"co": {"X": 1, "Y": 0}, "interpolation": 2}]}, "scale": 1, "scale_x": {"Points": [{"co": {"X": 1, "Y": 1}, "interpolation": 2}]}, "scale_y": {"Points": [{"co": {"X": 1, "Y": 1}, "interpolation": 2}]}, "shear_x": {"Points": [{"co": {"X": 1, "Y": 0}, "interpolation": 2}]}, "shear_y": {"Points": [{"co": {"X": 1, "Y": 0}, "interpolation": 2}]}, "start": 1361.6, "time": {"Points": [{"co": {"X": 1, "Y": 1}, "interpolation": 2}]}, "volume": {"Points": [{"co": {"X": 1, "Y": 1}, "interpolation": 2}]}, "wave_color": {"alpha": {"Points": [{"co": {"X": 1, "Y": 255}, "handle_left": {"X": 0.5, "Y": 1}, "handle_right": {"X": 0.5, "Y": 0}, "handle_type": 0, "interpolation": 0}]}, "blue": {"Points": [{"co": {"X": 1, "Y": 255}, "handle_left": {"X": 0.5, "Y": 1}, "handle_right": {"X": 0.5, "Y": 0}, "handle_type": 0, "interpolation": 0}]}, "green": {"Points": [{"co": {"X": 1, "Y": 123}, "handle_left": {"X": 0.5, "Y": 1}, "handle_right": {"X": 0.5, "Y": 0}, "handle_type": 0, "interpolation": 0}]}, "red": {"Points": [{"co": {"X": 1, "Y": 0}, "handle_left": {"X": 0.5, "Y": 1}, "handle_right": {"X": 0.5, "Y": 0}, "handle_type": 0, "interpolation": 0}]}}, "waveform": false, "file_id": "POT0C18IYF", "title": "uso-do-protoboard#bruto.mkv", "image": "/home/mpt/.openshot_qt/thumbnail/7D2VGIREIK-20425.png", "id": "7D2VGIREIK"}}, {"type": "delete", "key": ["clips", {"id": "ANODET5KAG"}], "value": null, "partial": false, "old_values": {"alpha": {"Points": [{"co": {"X": 1, "Y": 1}, "interpolation": 2}, {"co": {"X": 5383, "Y": 0}, "handle_left": {"X": 0.5, "Y": 1}, "handle_right": {"X": 0.5, "Y": 0}, "handle_type": 0, "interpolation": 0}, {"co": {"X": 5413, "Y": 1}, "handle_left": {"X": 0.5, "Y": 1}, "handle_right": {"X": 0.5, "Y": 0}, "handle_type": 0, "interpolation": 0}]}, "anchor": 0, "channel_filter": {"Points": [{"co": {"X": 1, "Y": -1}, "interpolation": 2}]}, "channel_mapping": {"Points": [{"co": {"X": 1, "Y": -1}, "interpolation": 2}]}, "crop_height": {"Points": [{"co": {"X": 1, "Y": -1}, "interpolation": 2}]}, "crop_width": {"Points": [{"co": {"X": 1, "Y": -1}, "interpolation": 2}]}, "crop_x": {"Points": [{"co": {"X": 1, "Y": 0}, "interpolation": 2}]}, "crop_y": {"Points": [{"co": {"X": 1, "Y": 0}, "interpolation": 2}]}, "display": 0, "duration": 1371.0, "effects": [], "end": 1313.2666666666664, "gravity": 4, "has_audio": {"Points": [{"co": {"X": 1, "Y": -1}, "interpolation": 2}]}, "has_video": {"Points": [{"co": {"X": 1, "Y": -1}, "interpolation": 2}]}, "layer": 3, "location_x": {"Points": [{"co": {"X": 1, "Y": 0}, "interpolation": 2}]}, "location_y": {"Points": [{"co": {"X": 1, "Y": 0}, "interpolation": 2}]}, "mixing": 0, "perspective_c1_x": {"Points": [{"co": {"X": 1, "Y": -1}, "interpolation": 2}]}, "perspective_c1_y": {"Points": [{"co": {"X": 1, "Y": -1}, "interpolation": 2}]}, "perspective_c2_x": {"Points": [{"co": {"X": 1, "Y": -1}, "interpolation": 2}]}, "perspective_c2_y": {"Points": [{"co": {"X": 1, "Y": -1}, "interpolation": 2}]}, "perspective_c3_x": {"Points": [{"co": {"X": 1, "Y": -1}, "interpolation": 2}]}, "perspective_c3_y": {"Points": [{"co": {"X": 1, "Y": -1}, "interpolation": 2}]}, "perspective_c4_x": {"Points": [{"co": {"X": 1, "Y": -1}, "interpolation": 2}]}, "perspective_c4_y": {"Points": [{"co": {"X": 1, "Y": -1}, "interpolation": 2}]}, "position": 1178.8, "reader": {"acodec": "aac", "audio_bit_rate": 0, "audio_stream_index": 1, "audio_timebase": {"den": 1000, "num": 1}, "channel_layout": 3, "channels": 2, "display_ratio": {"den": 9, "num": 16}, "duration": 1371.0, "file_size": "456740423", "fps": {"den": 1, "num": 15}, "has_audio": true, "has_single_image": false, "has_video": true, "height": 720, "interlaced_frame": false, "metadata": {"DURATION": "00:22:51.580000000", "ENCODER": "Lavf58.29.100", "title": "Track1"}, "path": "/home/mpt/Documentos/Projetos/sisdig/3.5-videos/painel-digital-e-protoboard/brutos/uso-do-protoboard#bruto.mkv", "pixel_format": 0, "pixel_ratio": {"den": 1, "num": 1}, "sample_rate": 44100, "top_field_first": true, "type": "FFmpegReader", "vcodec": "h264", "video_bit_rate": 332933, "video_length": "20565", "video_stream_index": 0, "video_timebase": {"den": 1000, "num": 1}, "width": 1280}, "rotation": {"Points": [{"co": {"X": 1, "Y": 0}, "interpolation": 2}]}, "scale": 1, "scale_x": {"Points": [{"co": {"X": 1, "Y": 1}, "interpolation": 2}]}, "scale_y": {"Points": [{"co": {"X": 1, "Y": 1}, "interpolation": 2}]}, "shear_x": {"Points": [{"co": {"X": 1, "Y": 0}, "interpolation": 2}]}, "shear_y": {"Points": [{"co": {"X": 1, "Y": 0}, "interpolation": 2}]}, "start": 1305.1, "time": {"Points": [{"co": {"X": 1, "Y": 1}, "interpolation": 2}]}, "volume": {"Points": [{"co": {"X": 1, "Y": 1}, "interpolation": 2}]}, "wave_color": {"alpha": {"Points": [{"co": {"X": 1, "Y": 255}, "handle_left": {"X": 0.5, "Y": 1}, "handle_right": {"X": 0.5, "Y": 0}, "handle_type": 0, "interpolation": 0}]}, "blue": {"Points": [{"co": {"X": 1, "Y": 255}, "handle_left": {"X": 0.5, "Y": 1}, "handle_right": {"X": 0.5, "Y": 0}, "handle_type": 0, "interpolation": 0}]}, "green": {"Points": [{"co": {"X": 1, "Y": 123}, "handle_left": {"X": 0.5, "Y": 1}, "handle_right": {"X": 0.5, "Y": 0}, "handle_type": 0, "interpolation": 0}]}, "red": {"Points": [{"co": {"X": 1, "Y": 0}, "handle_left": {"X": 0.5, "Y": 1}, "handle_right": {"X": 0.5, "Y": 0}, "handle_type": 0, "interpolation": 0}]}}, "waveform": false, "file_id": "POT0C18IYF", "title": "uso-do-protoboard#bruto.mkv", "image": "/home/mpt/.openshot_qt/thumbnail/ANODET5KAG-19577.png", "id": "ANODET5KAG"}}, {"type": "insert", "key": ["files"], "value": {"acodec": "", "audio_bit_rate": 0, "audio_stream_index": -1, "audio_timebase": {"den": 1, "num": 1}, "channel_layout": 4, "channels": 0, "display_ratio": {"den": 9, "num": 16}, "duration": 86400, "file_size": "3686400", "fps": {"den": 1, "num": 30}, "has_audio": false, "has_single_image": true, "has_video": true, "height": 720, "interlaced_frame": false, "metadata": {}, "path": "/home/mpt/Documentos/Projetos/sisdig/3.5-videos/painel-digital-e-protoboard/fontes/capa.png", "pixel_format": -1, "pixel_ratio": {"den": 1, "num": 1}, "sample_rate": 0, "top_field_first": true, "type": "QtImageReader", "vcodec": "", "video_bit_rate": 0, "video_length": "2592000", "video_stream_index": -1, "video_timebase": {"den": 30, "num": 1}, "width": 1280, "media_type": "image", "id": "GB9Q5MUFJH"}, "partial": false, "old_values": [{"acodec": "aac", "audio_bit_rate": 0, "audio_stream_index": 1, "audio_timebase": {"den": 1000, "num": 1}, "channel_layout": 3, "channels": 2, "display_ratio": {"den": 9, "num": 16}, "duration": 1371, "file_size": "456740423", "fps": {"den": 1, "num": 15}, "has_audio": true, "has_single_image": false, "has_video": true, "height": 720, "interlaced_frame": false, "metadata": {"DURATION": "00:22:51.580000000", "ENCODER": "Lavf58.29.100", "title": "Track1"}, "path": "/home/mpt/Documentos/Projetos/sisdig/3.5-videos/painel-digital-e-protoboard/brutos/uso-do-protoboard#bruto.mkv", "pixel_format": 0, "pixel_ratio": {"den": 1, "num": 1}, "sample_rate": 44100, "top_field_first": true, "type": "FFmpegReader", "vcodec": "h264", "video_bit_rate": 332933, "video_length": "20565", "video_stream_index": 0, "video_timebase": {"den": 1000, "num": 1}, "width": 1280, "media_type": "video", "id": "POT0C18IYF"}]}, {"type": "insert", "key": ["clips"], "value": {"alpha": {"Points": [{"co": {"X": 1, "Y": 1}, "interpolation": 2}, {"co": {"X": 1, "Y": 0}, "handle_left": {"X": 0.5, "Y": 1}, "handle_right": {"X": 0.5, "Y": 0}, "handle_type": 0, "interpolation": 0}, {"co": {"X": 31, "Y": 1}, "handle_left": {"X": 0.5, "Y": 1}, "handle_right": {"X": 0.5, "Y": 0}, "handle_type": 0, "interpolation": 0}, {"co": {"X": 177, "Y": 1}, "handle_left": {"X": 0.5, "Y": 1}, "handle_right": {"X": 0.5, "Y": 0}, "handle_type": 0, "interpolation": 0}, {"co": {"X": 207, "Y": 0}, "handle_left": {"X": 0.5, "Y": 1}, "handle_right": {"X": 0.5, "Y": 0}, "handle_type": 0, "interpolation": 0}, {"co": {"X": 110, "Y": 1}, "handle_left": {"X": 0.5, "Y": 1}, "handle_right": {"X": 0.5, "Y": 0}, "handle_type": 0, "interpolation": 0}, {"co": {"X": 140, "Y": 0}, "handle_left": {"X": 0.5, "Y": 1}, "handle_right": {"X": 0.5, "Y": 0}, "handle_type": 0, "interpolation": 0}]}, "anchor": 0, "channel_filter": {"Points": [{"co": {"X": 1, "Y": -1}, "interpolation": 2}]}, "channel_mapping": {"Points": [{"co": {"X": 1, "Y": -1}, "interpolation": 2}]}, "crop_height": {"Points": [{"co": {"X": 1, "Y": -1}, "interpolation": 2}]}, "crop_width": {"Points": [{"co": {"X": 1, "Y": -1}, "interpolation": 2}]}, "crop_x": {"Points": [{"co": {"X": 1, "Y": 0}, "interpolation": 2}]}, "crop_y": {"Points": [{"co": {"X": 1, "Y": 0}, "interpolation": 2}]}, "display": 0, "duration": 86400.0, "effects": [], "end": 4.633333333333334, "gravity": 4, "has_audio": {"Points": [{"co": {"X": 1, "Y": -1}, "interpolation": 2}]}, "has_video": {"Points": [{"co": {"X": 1, "Y": -1}, "interpolation": 2}]}, "id": "IXJ3JTUDTB", "layer": 3, "location_x": {"Points": [{"co": {"X": 1, "Y": 0}, "interpolation": 2}]}, "location_y": {"Points": [{"co": {"X": 1, "Y": 0}, "interpolation": 2}]}, "mixing": 0, "perspective_c1_x": {"Points": [{"co": {"X": 1, "Y": -1}, "interpolation": 2}]}, "perspective_c1_y": {"Points": [{"co": {"X": 1, "Y": -1}, "interpolation": 2}]}, "perspective_c2_x": {"Points": [{"co": {"X": 1, "Y": -1}, "interpolation": 2}]}, "perspective_c2_y": {"Points": [{"co": {"X": 1, "Y": -1}, "interpolation": 2}]}, "perspective_c3_x": {"Points": [{"co": {"X": 1, "Y": -1}, "interpolation": 2}]}, "perspective_c3_y": {"Points": [{"co": {"X": 1, "Y": -1}, "interpolation": 2}]}, "perspective_c4_x": {"Points": [{"co": {"X": 1, "Y": -1}, "interpolation": 2}]}, "perspective_c4_y": {"Points": [{"co": {"X": 1, "Y": -1}, "interpolation": 2}]}, "position": 1241.7, "reader": {"acodec": "", "audio_bit_rate": 0, "audio_stream_index": -1, "audio_timebase": {"den": 1, "num": 1}, "channel_layout": 4, "channels": 0, "display_ratio": {"den": 9, "num": 16}, "duration": 86400.0, "file_size": "3686400", "fps": {"den": 1, "num": 30}, "has_audio": false, "has_single_image": true, "has_video": true, "height": 720, "interlaced_frame": false, "metadata": {}, "path": "/home/mpt/Documentos/Projetos/sisdig/3.5-videos/painel-digital-e-protoboard/fontes/capa.png", "pixel_format": -1, "pixel_ratio": {"den": 1, "num": 1}, "sample_rate": 0, "top_field_first": true, "type": "QtImageReader", "vcodec": "", "video_bit_rate": 0, "video_length": "2592000", "video_stream_index": -1, "video_timebase": {"den": 30, "num": 1}, "width": 1280}, "rotation": {"Points": [{"co": {"X": 1, "Y": 0}, "interpolation": 2}]}, "scale": 1, "scale_x": {"Points": [{"co": {"X": 1, "Y": 1}, "interpolation": 2}]}, "scale_y": {"Points": [{"co": {"X": 1, "Y": 1}, "interpolation": 2}]}, "shear_x": {"Points": [{"co": {"X": 1, "Y": 0}, "interpolation": 2}]}, "shear_y": {"Points": [{"co": {"X": 1, "Y": 0}, "interpolation": 2}]}, "start": 0, "time": {"Points": [{"co": {"X": 1, "Y": 1}, "interpolation": 2}]}, "volume": {"Points": [{"co": {"X": 1, "Y": 1}, "interpolation": 2}]}, "wave_color": {"alpha": {"Points": [{"co": {"X": 1, "Y": 255}, "handle_left": {"X": 0.5, "Y": 1}, "handle_right": {"X": 0.5, "Y": 0}, "handle_type": 0, "interpolation": 0}]}, "blue": {"Points": [{"co": {"X": 1, "Y": 255}, "handle_left": {"X": 0.5, "Y": 1}, "handle_right": {"X": 0.5, "Y": 0}, "handle_type": 0, "interpolation": 0}]}, "green": {"Points": [{"co": {"X": 1, "Y": 123}, "handle_left": {"X": 0.5, "Y": 1}, "handle_right": {"X": 0.5, "Y": 0}, "handle_type": 0, "interpolation": 0}]}, "red": {"Points": [{"co": {"X": 1, "Y": 0}, "handle_left": {"X": 0.5, "Y": 1}, "handle_right": {"X": 0.5, "Y": 0}, "handle_type": 0, "interpolation": 0}]}}, "waveform": false, "file_id": "GB9Q5MUFJH", "title": "capa.png", "image": "/home/mpt/.openshot_qt/thumbnail/GB9Q5MUFJH.png"}, "partial": false, "old_values": [{"alpha": {"Points": [{"co": {"X": 1, "Y": 1}, "interpolation": 2}]}, "anchor": 0, "channel_filter": {"Points": [{"co": {"X": 1, "Y": -1}, "interpolation": 2}]}, "channel_mapping": {"Points": [{"co": {"X": 1, "Y": -1}, "interpolation": 2}]}, "crop_height": {"Points": [{"co": {"X": 1, "Y": -1}, "interpolation": 2}]}, "crop_width": {"Points": [{"co": {"X": 1, "Y": -1}, "interpolation": 2}]}, "crop_x": {"Points": [{"co": {"X": 1, "Y": 0}, "interpolation": 2}]}, "crop_y": {"Points": [{"co": {"X": 1, "Y": 0}, "interpolation": 2}]}, "display": 0, "duration": 1371.0, "effects": [], "end": 76.03333333333333, "gravity": 4, "has_audio": {"Points": [{"co": {"X": 1, "Y": -1}, "interpolation": 2}]}, "has_video": {"Points": [{"co": {"X": 1, "Y": -1}, "interpolation": 2}]}, "id": "W3XZDHJXGQ", "layer": 4, "location_x": {"Points": [{"co": {"X": 1, "Y": 0}, "interpolation": 2}]}, "location_y": {"Points": [{"co": {"X": 1, "Y": 0}, "interpolation": 2}]}, "mixing": 0, "perspective_c1_x": {"Points": [{"co": {"X": 1, "Y": -1}, "interpolation": 2}]}, "perspective_c1_y": {"Points": [{"co": {"X": 1, "Y": -1}, "interpolation": 2}]}, "perspective_c2_x": {"Points": [{"co": {"X": 1, "Y": -1}, "interpolation": 2}]}, "perspective_c2_y": {"Points": [{"co": {"X": 1, "Y": -1}, "interpolation": 2}]}, "perspective_c3_x": {"Points": [{"co": {"X": 1, "Y": -1}, "interpolation": 2}]}, "perspective_c3_y": {"Points": [{"co": {"X": 1, "Y": -1}, "interpolation": 2}]}, "perspective_c4_x": {"Points": [{"co": {"X": 1, "Y": -1}, "interpolation": 2}]}, "perspective_c4_y": {"Points": [{"co": {"X": 1, "Y": -1}, "interpolation": 2}]}, "position": 0, "reader": {"acodec": "aac", "audio_bit_rate": 0, "audio_stream_index": 1, "audio_timebase": {"den": 1000, "num": 1}, "channel_layout": 3, "channels": 2, "display_ratio": {"den": 9, "num": 16}, "duration": 1371.0, "file_size": "456740423", "fps": {"den": 1, "num": 15}, "has_audio": true, "has_single_image": false, "has_video": true, "height": 720, "interlaced_frame": false, "metadata": {"DURATION": "00:22:51.580000000", "ENCODER": "Lavf58.29.100", "title": "Track1"}, "path": "/home/mpt/Documentos/Projetos/sisdig/3.5-videos/painel-digital-e-protoboard/brutos/uso-do-protoboard#bruto.mkv", "pixel_format": 0, "pixel_ratio": {"den": 1, "num": 1}, "sample_rate": 44100, "top_field_first": true, "type": "FFmpegReader", "vcodec": "h264", "video_bit_rate": 332933, "video_length": "20565", "video_stream_index": 0, "video_timebase": {"den": 1000, "num": 1}, "width": 1280}, "rotation": {"Points": [{"co": {"X": 1, "Y": 0}, "interpolation": 2}]}, "scale": 1, "scale_x": {"Points": [{"co": {"X": 1, "Y": 1}, "interpolation": 2}]}, "scale_y": {"Points": [{"co": {"X": 1, "Y": 1}, "interpolation": 2}]}, "shear_x": {"Points": [{"co": {"X": 1, "Y": 0}, "interpolation": 2}]}, "shear_y": {"Points": [{"co": {"X": 1, "Y": 0}, "interpolation": 2}]}, "start": 0, "time": {"Points": [{"co": {"X": 1, "Y": 1}, "interpolation": 2}]}, "volume": {"Points": [{"co": {"X": 1, "Y": 1}, "interpolation": 2}]}, "wave_color": {"alpha": {"Points": [{"co": {"X": 1, "Y": 255}, "handle_left": {"X": 0.5, "Y": 1}, "handle_right": {"X": 0.5, "Y": 0}, "handle_type": 0, "interpolation": 0}]}, "blue": {"Points": [{"co": {"X": 1, "Y": 255}, "handle_left": {"X": 0.5, "Y": 1}, "handle_right": {"X": 0.5, "Y": 0}, "handle_type": 0, "interpolation": 0}]}, "green": {"Points": [{"co": {"X": 1, "Y": 123}, "handle_left": {"X": 0.5, "Y": 1}, "handle_right": {"X": 0.5, "Y": 0}, "handle_type": 0, "interpolation": 0}]}, "red": {"Points": [{"co": {"X": 1, "Y": 0}, "handle_left": {"X": 0.5, "Y": 1}, "handle_right": {"X": 0.5, "Y": 0}, "handle_type": 0, "interpolation": 0}]}}, "waveform": false, "file_id": "POT0C18IYF", "title": "uso-do-protoboard#bruto.mkv", "image": "/home/mpt/.openshot_qt/thumbnail/POT0C18IYF.png"}, {"alpha": {"Points": [{"co": {"X": 1, "Y": 1}, "interpolation": 2}]}, "anchor": 0, "channel_filter": {"Points": [{"co": {"X": 1, "Y": -1}, "interpolation": 2}]}, "channel_mapping": {"Points": [{"co": {"X": 1, "Y": -1}, "interpolation": 2}]}, "crop_height": {"Points": [{"co": {"X": 1, "Y": -1}, "interpolation": 2}]}, "crop_width": {"Points": [{"co": {"X": 1, "Y": -1}, "interpolation": 2}]}, "crop_x": {"Points": [{"co": {"X": 1, "Y": 0}, "interpolation": 2}]}, "crop_y": {"Points": [{"co": {"X": 1, "Y": 0}, "interpolation": 2}]}, "display": 0, "duration": 1371.0, "effects": [], "end": 124.76666666666667, "gravity": 4, "has_audio": {"Points": [{"co": {"X": 1, "Y": -1}, "interpolation": 2}]}, "has_video": {"Points": [{"co": {"X": 1, "Y": -1}, "interpolation": 2}]}, "layer": 4, "location_x": {"Points": [{"co": {"X": 1, "Y": 0}, "interpolation": 2}]}, "location_y": {"Points": [{"co": {"X": 1, "Y": 0}, "interpolation": 2}]}, "mixing": 0, "perspective_c1_x": {"Points": [{"co": {"X": 1, "Y": -1}, "interpolation": 2}]}, "perspective_c1_y": {"Points": [{"co": {"X": 1, "Y": -1}, "interpolation": 2}]}, "perspective_c2_x": {"Points": [{"co": {"X": 1, "Y": -1}, "interpolation": 2}]}, "perspective_c2_y": {"Points": [{"co": {"X": 1, "Y": -1}, "interpolation": 2}]}, "perspective_c3_x": {"Points": [{"co": {"X": 1, "Y": -1}, "interpolation": 2}]}, "perspective_c3_y": {"Points": [{"co": {"X": 1, "Y": -1}, "interpolation": 2}]}, "perspective_c4_x": {"Points": [{"co": {"X": 1, "Y": -1}, "interpolation": 2}]}, "perspective_c4_y": {"Points": [{"co": {"X": 1, "Y": -1}, "interpolation": 2}]}, "position": 76.03333333333333, "reader": {"acodec": "aac", "audio_bit_rate": 0, "audio_stream_index": 1, "audio_timebase": {"den": 1000, "num": 1}, "channel_layout": 3, "channels": 2, "display_ratio": {"den": 9, "num": 16}, "duration": 1371.0, "file_size": "456740423", "fps": {"den": 1, "num": 15}, "has_audio": true, "has_single_image": false, "has_video": true, "height": 720, "interlaced_frame": false, "metadata": {"DURATION": "00:22:51.580000000", "ENCODER": "Lavf58.29.100", "title": "Track1"}, "path": "/home/mpt/Documentos/Projetos/sisdig/3.5-videos/painel-digital-e-protoboard/brutos/uso-do-protoboard#bruto.mkv", "pixel_format": 0, "pixel_ratio": {"den": 1, "num": 1}, "sample_rate": 44100, "top_field_first": true, "type": "FFmpegReader", "vcodec": "h264", "video_bit_rate": 332933, "video_length": "20565", "video_stream_index": 0, "video_timebase": {"den": 1000, "num": 1}, "width": 1280}, "rotation": {"Points": [{"co": {"X": 1, "Y": 0}, "interpolation": 2}]}, "scale": 1, "scale_x": {"Points": [{"co": {"X": 1, "Y": 1}, "interpolation": 2}]}, "scale_y": {"Points": [{"co": {"X": 1, "Y": 1}, "interpolation": 2}]}, "shear_x": {"Points": [{"co": {"X": 1, "Y": 0}, "interpolation": 2}]}, "shear_y": {"Points": [{"co": {"X": 1, "Y": 0}, "interpolation": 2}]}, "start": 76.1, "time": {"Points": [{"co": {"X": 1, "Y": 1}, "interpolation": 2}]}, "volume": {"Points": [{"co": {"X": 1, "Y": 1}, "interpolation": 2}]}, "wave_color": {"alpha": {"Points": [{"co": {"X": 1, "Y": 255}, "handle_left": {"X": 0.5, "Y": 1}, "handle_right": {"X": 0.5, "Y": 0}, "handle_type": 0, "interpolation": 0}]}, "blue": {"Points": [{"co": {"X": 1, "Y": 255}, "handle_left": {"X": 0.5, "Y": 1}, "handle_right": {"X": 0.5, "Y": 0}, "handle_type": 0, "interpolation": 0}]}, "green": {"Points": [{"co": {"X": 1, "Y": 123}, "handle_left": {"X": 0.5, "Y": 1}, "handle_right": {"X": 0.5, "Y": 0}, "handle_type": 0, "interpolation": 0}]}, "red": {"Points": [{"co": {"X": 1, "Y": 0}, "handle_left": {"X": 0.5, "Y": 1}, "handle_right": {"X": 0.5, "Y": 0}, "handle_type": 0, "interpolation": 0}]}}, "waveform": false, "file_id": "POT0C18IYF", "title": "uso-do-protoboard#bruto.mkv", "image": "/home/mpt/.openshot_qt/thumbnail/BPH4G1I1FK-1143.png", "id": "BPH4G1I1FK"}, {"alpha": {"Points": [{"co": {"X": 1, "Y": 1}, "interpolation": 2}, {"co": {"X": 4962, "Y": 1}, "handle_left": {"X": 0.5, "Y": 1}, "handle_right": {"X": 0.5, "Y": 0}, "handle_type": 0, "interpolation": 0}, {"co": {"X": 4992, "Y": 0}, "handle_left": {"X": 0.5, "Y": 1}, "handle_right": {"X": 0.5, "Y": 0}, "handle_type": 0, "interpolation": 0}]}, "anchor": 0, "channel_filter": {"Points": [{"co": {"X": 1, "Y": -1}, "interpolation": 2}]}, "channel_mapping": {"Points": [{"co": {"X": 1, "Y": -1}, "interpolation": 2}]}, "crop_height": {"Points": [{"co": {"X": 1, "Y": -1}, "interpolation": 2}]}, "crop_width": {"Points": [{"co": {"X": 1, "Y": -1}, "interpolation": 2}]}, "crop_x": {"Points": [{"co": {"X": 1, "Y": 0}, "interpolation": 2}]}, "crop_y": {"Points": [{"co": {"X": 1, "Y": 0}, "interpolation": 2}]}, "display": 0, "duration": 1371.0, "effects": [], "end": 166.36666666666667, "gravity": 4, "has_audio": {"Points": [{"co": {"X": 1, "Y": -1}, "interpolation": 2}]}, "has_video": {"Points": [{"co": {"X": 1, "Y": -1}, "interpolation": 2}]}, "layer": 4, "location_x": {"Points": [{"co": {"X": 1, "Y": 0}, "interpolation": 2}]}, "location_y": {"Points": [{"co": {"X": 1, "Y": 0}, "interpolation": 2}]}, "mixing": 0, "perspective_c1_x": {"Points": [{"co": {"X": 1, "Y": -1}, "interpolation": 2}]}, "perspective_c1_y": {"Points": [{"co": {"X": 1, "Y": -1}, "interpolation": 2}]}, "perspective_c2_x": {"Points": [{"co": {"X": 1, "Y": -1}, "interpolation": 2}]}, "perspective_c2_y": {"Points": [{"co": {"X": 1, "Y": -1}, "interpolation": 2}]}, "perspective_c3_x": {"Points": [{"co": {"X": 1, "Y": -1}, "interpolation": 2}]}, "perspective_c3_y": {"Points": [{"co": {"X": 1, "Y": -1}, "interpolation": 2}]}, "perspective_c4_x": {"Points": [{"co": {"X": 1, "Y": -1}, "interpolation": 2}]}, "perspective_c4_y": {"Points": [{"co": {"X": 1, "Y": -1}, "interpolation": 2}]}, "position": 124.7, "reader": {"acodec": "aac", "audio_bit_rate": 0, "audio_stream_index": 1, "audio_timebase": {"den": 1000, "num": 1}, "channel_layout": 3, "channels": 2, "display_ratio": {"den": 9, "num": 16}, "duration": 1371.0, "file_size": "456740423", "fps": {"den": 1, "num": 15}, "has_audio": true, "has_single_image": false, "has_video": true, "height": 720, "interlaced_frame": false, "metadata": {"DURATION": "00:22:51.580000000", "ENCODER": "Lavf58.29.100", "title": "Track1"}, "path": "/home/mpt/Documentos/Projetos/sisdig/3.5-videos/painel-digital-e-protoboard/brutos/uso-do-protoboard#bruto.mkv", "pixel_format": 0, "pixel_ratio": {"den": 1, "num": 1}, "sample_rate": 44100, "top_field_first": true, "type": "FFmpegReader", "vcodec": "h264", "video_bit_rate": 332933, "video_length": "20565", "video_stream_index": 0, "video_timebase": {"den": 1000, "num": 1}, "width": 1280}, "rotation": {"Points": [{"co": {"X": 1, "Y": 0}, "interpolation": 2}]}, "scale": 1, "scale_x": {"Points": [{"co": {"X": 1, "Y": 1}, "interpolation": 2}]}, "scale_y": {"Points": [{"co": {"X": 1, "Y": 1}, "interpolation": 2}]}, "shear_x": {"Points": [{"co": {"X": 1, "Y": 0}, "interpolation": 2}]}, "shear_y": {"Points": [{"co": {"X": 1, "Y": 0}, "interpolation": 2}]}, "start": 146.63333333333333, "time": {"Points": [{"co": {"X": 1, "Y": 1}, "interpolation": 2}]}, "volume": {"Points": [{"co": {"X": 1, "Y": 1}, "interpolation": 2}]}, "wave_color": {"alpha": {"Points": [{"co": {"X": 1, "Y": 255}, "handle_left": {"X": 0.5, "Y": 1}, "handle_right": {"X": 0.5, "Y": 0}, "handle_type": 0, "interpolation": 0}]}, "blue": {"Points": [{"co": {"X": 1, "Y": 255}, "handle_left": {"X": 0.5, "Y": 1}, "handle_right": {"X": 0.5, "Y": 0}, "handle_type": 0, "interpolation": 0}]}, "green": {"Points": [{"co": {"X": 1, "Y": 123}, "handle_left": {"X": 0.5, "Y": 1}, "handle_right": {"X": 0.5, "Y": 0}, "handle_type": 0, "interpolation": 0}]}, "red": {"Points": [{"co": {"X": 1, "Y": 0}, "handle_left": {"X": 0.5, "Y": 1}, "handle_right": {"X": 0.5, "Y": 0}, "handle_type": 0, "interpolation": 0}]}}, "waveform": false, "file_id": "POT0C18IYF", "title": "uso-do-protoboard#bruto.mkv", "image": "/home/mpt/.openshot_qt/thumbnail/7JQQM2Y01X-2201.png", "id": "7JQQM2Y01X"}, {"alpha": {"Points": [{"co": {"X": 1, "Y": 1}, "interpolation": 2}, {"co": {"X": 5383, "Y": 0}, "handle_left": {"X": 0.5, "Y": 1}, "handle_right": {"X": 0.5, "Y": 0}, "handle_type": 0, "interpolation": 0}, {"co": {"X": 5413, "Y": 1}, "handle_left": {"X": 0.5, "Y": 1}, "handle_right": {"X": 0.5, "Y": 0}, "handle_type": 0, "interpolation": 0}]}, "anchor": 0, "channel_filter": {"Points": [{"co": {"X": 1, "Y": -1}, "interpolation": 2}]}, "channel_mapping": {"Points": [{"co": {"X": 1, "Y": -1}, "interpolation": 2}]}, "crop_height": {"Points": [{"co": {"X": 1, "Y": -1}, "interpolation": 2}]}, "crop_width": {"Points": [{"co": {"X": 1, "Y": -1}, "interpolation": 2}]}, "crop_x": {"Points": [{"co": {"X": 1, "Y": 0}, "interpolation": 2}]}, "crop_y": {"Points": [{"co": {"X": 1, "Y": 0}, "interpolation": 2}]}, "display": 0, "duration": 1371.0, "effects": [], "end": 204.86666666666667, "gravity": 4, "has_audio": {"Points": [{"co": {"X": 1, "Y": -1}, "interpolation": 2}]}, "has_video": {"Points": [{"co": {"X": 1, "Y": -1}, "interpolation": 2}]}, "layer": 4, "location_x": {"Points": [{"co": {"X": 1, "Y": 0}, "interpolation": 2}]}, "location_y": {"Points": [{"co": {"X": 1, "Y": 0}, "interpolation": 2}]}, "mixing": 0, "perspective_c1_x": {"Points": [{"co": {"X": 1, "Y": -1}, "interpolation": 2}]}, "perspective_c1_y": {"Points": [{"co": {"X": 1, "Y": -1}, "interpolation": 2}]}, "perspective_c2_x": {"Points": [{"co": {"X": 1, "Y": -1}, "interpolation": 2}]}, "perspective_c2_y": {"Points": [{"co": {"X": 1, "Y": -1}, "interpolation": 2}]}, "perspective_c3_x": {"Points": [{"co": {"X": 1, "Y": -1}, "interpolation": 2}]}, "perspective_c3_y": {"Points": [{"co": {"X": 1, "Y": -1}, "interpolation": 2}]}, "perspective_c4_x": {"Points": [{"co": {"X": 1, "Y": -1}, "interpolation": 2}]}, "perspective_c4_y": {"Points": [{"co": {"X": 1, "Y": -1}, "interpolation": 2}]}, "position": 144.43333333333334, "reader": {"acodec": "aac", "audio_bit_rate": 0, "audio_stream_index": 1, "audio_timebase": {"den": 1000, "num": 1}, "channel_layout": 3, "channels": 2, "display_ratio": {"den": 9, "num": 16}, "duration": 1371.0, "file_size": "456740423", "fps": {"den": 1, "num": 15}, "has_audio": true, "has_single_image": false, "has_video": true, "height": 720, "interlaced_frame": false, "metadata": {"DURATION": "00:22:51.580000000", "ENCODER": "Lavf58.29.100", "title": "Track1"}, "path": "/home/mpt/Documentos/Projetos/sisdig/3.5-videos/painel-digital-e-protoboard/brutos/uso-do-protoboard#bruto.mkv", "pixel_format": 0, "pixel_ratio": {"den": 1, "num": 1}, "sample_rate": 44100, "top_field_first": true, "type": "FFmpegReader", "vcodec": "h264", "video_bit_rate": 332933, "video_length": "20565", "video_stream_index": 0, "video_timebase": {"den": 1000, "num": 1}, "width": 1280}, "rotation": {"Points": [{"co": {"X": 1, "Y": 0}, "interpolation": 2}]}, "scale": 1, "scale_x": {"Points": [{"co": {"X": 1, "Y": 1}, "interpolation": 2}]}, "scale_y": {"Points": [{"co": {"X": 1, "Y": 1}, "interpolation": 2}]}, "shear_x": {"Points": [{"co": {"X": 1, "Y": 0}, "interpolation": 2}]}, "shear_y": {"Points": [{"co": {"X": 1, "Y": 0}, "interpolation": 2}]}, "start": 179.4, "time": {"Points": [{"co": {"X": 1, "Y": 1}, "interpolation": 2}]}, "volume": {"Points": [{"co": {"X": 1, "Y": 1}, "interpolation": 2}]}, "wave_color": {"alpha": {"Points": [{"co": {"X": 1, "Y": 255}, "handle_left": {"X": 0.5, "Y": 1}, "handle_right": {"X": 0.5, "Y": 0}, "handle_type": 0, "interpolation": 0}]}, "blue": {"Points": [{"co": {"X": 1, "Y": 255}, "handle_left": {"X": 0.5, "Y": 1}, "handle_right": {"X": 0.5, "Y": 0}, "handle_type": 0, "interpolation": 0}]}, "green": {"Points": [{"co": {"X": 1, "Y": 123}, "handle_left": {"X": 0.5, "Y": 1}, "handle_right": {"X": 0.5, "Y": 0}, "handle_type": 0, "interpolation": 0}]}, "red": {"Points": [{"co": {"X": 1, "Y": 0}, "handle_left": {"X": 0.5, "Y": 1}, "handle_right": {"X": 0.5, "Y": 0}, "handle_type": 0, "interpolation": 0}]}}, "waveform": false, "file_id": "POT0C18IYF", "title": "uso-do-protoboard#bruto.mkv", "image": "/home/mpt/.openshot_qt/thumbnail/OPVUXQ87O9-2692.png", "id": "OPVUXQ87O9"}, {"alpha": {"Points": [{"co": {"X": 1, "Y": 1}, "interpolation": 2}, {"co": {"X": 5383, "Y": 0}, "handle_left": {"X": 0.5, "Y": 1}, "handle_right": {"X": 0.5, "Y": 0}, "handle_type": 0, "interpolation": 0}, {"co": {"X": 5413, "Y": 1}, "handle_left": {"X": 0.5, "Y": 1}, "handle_right": {"X": 0.5, "Y": 0}, "handle_type": 0, "interpolation": 0}]}, "anchor": 0, "channel_filter": {"Points": [{"co": {"X": 1, "Y": -1}, "interpolation": 2}]}, "channel_mapping": {"Points": [{"co": {"X": 1, "Y": -1}, "interpolation": 2}]}, "crop_height": {"Points": [{"co": {"X": 1, "Y": -1}, "interpolation": 2}]}, "crop_width": {"Points": [{"co": {"X": 1, "Y": -1}, "interpolation": 2}]}, "crop_x": {"Points": [{"co": {"X": 1, "Y": 0}, "interpolation": 2}]}, "crop_y": {"Points": [{"co": {"X": 1, "Y": 0}, "interpolation": 2}]}, "display": 0, "duration": 1371.0, "effects": [], "end": 257.3666666666667, "gravity": 4, "has_audio": {"Points": [{"co": {"X": 1, "Y": -1}, "interpolation": 2}]}, "has_video": {"Points": [{"co": {"X": 1, "Y": -1}, "interpolation": 2}]}, "layer": 4, "location_x": {"Points": [{"co": {"X": 1, "Y": 0}, "interpolation": 2}]}, "location_y": {"Points": [{"co": {"X": 1, "Y": 0}, "interpolation": 2}]}, "mixing": 0, "perspective_c1_x": {"Points": [{"co": {"X": 1, "Y": -1}, "interpolation": 2}]}, "perspective_c1_y": {"Points": [{"co": {"X": 1, "Y": -1}, "interpolation": 2}]}, "perspective_c2_x": {"Points": [{"co": {"X": 1, "Y": -1}, "interpolation": 2}]}, "perspective_c2_y": {"Points": [{"co": {"X": 1, "Y": -1}, "interpolation": 2}]}, "perspective_c3_x": {"Points": [{"co": {"X": 1, "Y": -1}, "interpolation": 2}]}, "perspective_c3_y": {"Points": [{"co": {"X": 1, "Y": -1}, "interpolation": 2}]}, "perspective_c4_x": {"Points": [{"co": {"X": 1, "Y": -1}, "interpolation": 2}]}, "perspective_c4_y": {"Points": [{"co": {"X": 1, "Y": -1}, "interpolation": 2}]}, "position": 169.9, "reader": {"acodec": "aac", "audio_bit_rate": 0, "audio_stream_index": 1, "audio_timebase": {"den": 1000, "num": 1}, "channel_layout": 3, "channels": 2, "display_ratio": {"den": 9, "num": 16}, "duration": 1371.0, "file_size": "456740423", "fps": {"den": 1, "num": 15}, "has_audio": true, "has_single_image": false, "has_video": true, "height": 720, "interlaced_frame": false, "metadata": {"DURATION": "00:22:51.580000000", "ENCODER": "Lavf58.29.100", "title": "Track1"}, "path": "/home/mpt/Documentos/Projetos/sisdig/3.5-videos/painel-digital-e-protoboard/brutos/uso-do-protoboard#bruto.mkv", "pixel_format": 0, "pixel_ratio": {"den": 1, "num": 1}, "sample_rate": 44100, "top_field_first": true, "type": "FFmpegReader", "vcodec": "h264", "video_bit_rate": 332933, "video_length": "20565", "video_stream_index": 0, "video_timebase": {"den": 1000, "num": 1}, "width": 1280}, "rotation": {"Points": [{"co": {"X": 1, "Y": 0}, "interpolation": 2}]}, "scale": 1, "scale_x": {"Points": [{"co": {"X": 1, "Y": 1}, "interpolation": 2}]}, "scale_y": {"Points": [{"co": {"X": 1, "Y": 1}, "interpolation": 2}]}, "shear_x": {"Points": [{"co": {"X": 1, "Y": 0}, "interpolation": 2}]}, "shear_y": {"Points": [{"co": {"X": 1, "Y": 0}, "interpolation": 2}]}, "start": 222.93333333333334, "time": {"Points": [{"co": {"X": 1, "Y": 1}, "interpolation": 2}]}, "volume": {"Points": [{"co": {"X": 1, "Y": 1}, "interpolation": 2}]}, "wave_color": {"alpha": {"Points": [{"co": {"X": 1, "Y": 255}, "handle_left": {"X": 0.5, "Y": 1}, "handle_right": {"X": 0.5, "Y": 0}, "handle_type": 0, "interpolation": 0}]}, "blue": {"Points": [{"co": {"X": 1, "Y": 255}, "handle_left": {"X": 0.5, "Y": 1}, "handle_right": {"X": 0.5, "Y": 0}, "handle_type": 0, "interpolation": 0}]}, "green": {"Points": [{"co": {"X": 1, "Y": 123}, "handle_left": {"X": 0.5, "Y": 1}, "handle_right": {"X": 0.5, "Y": 0}, "handle_type": 0, "interpolation": 0}]}, "red": {"Points": [{"co": {"X": 1, "Y": 0}, "handle_left": {"X": 0.5, "Y": 1}, "handle_right": {"X": 0.5, "Y": 0}, "handle_type": 0, "interpolation": 0}]}}, "waveform": false, "file_id": "POT0C18IYF", "title": "uso-do-protoboard#bruto.mkv", "image": "/home/mpt/.openshot_qt/thumbnail/2FWBZ43S4E-3345.png", "id": "2FWBZ43S4E"}, {"alpha": {"Points": [{"co": {"X": 1, "Y": 1}, "interpolation": 2}, {"co": {"X": 5383, "Y": 0}, "handle_left": {"X": 0.5, "Y": 1}, "handle_right": {"X": 0.5, "Y": 0}, "handle_type": 0, "interpolation": 0}, {"co": {"X": 5413, "Y": 1}, "handle_left": {"X": 0.5, "Y": 1}, "handle_right": {"X": 0.5, "Y": 0}, "handle_type": 0, "interpolation": 0}]}, "anchor": 0, "channel_filter": {"Points": [{"co": {"X": 1, "Y": -1}, "interpolation": 2}]}, "channel_mapping": {"Points": [{"co": {"X": 1, "Y": -1}, "interpolation": 2}]}, "crop_height": {"Points": [{"co": {"X": 1, "Y": -1}, "interpolation": 2}]}, "crop_width": {"Points": [{"co": {"X": 1, "Y": -1}, "interpolation": 2}]}, "crop_x": {"Points": [{"co": {"X": 1, "Y": 0}, "interpolation": 2}]}, "crop_y": {"Points": [{"co": {"X": 1, "Y": 0}, "interpolation": 2}]}, "display": 0, "duration": 1371.0, "effects": [], "end": 406.33333333333337, "gravity": 4, "has_audio": {"Points": [{"co": {"X": 1, "Y": -1}, "interpolation": 2}]}, "has_video": {"Points": [{"co": {"X": 1, "Y": -1}, "interpolation": 2}]}, "layer": 4, "location_x": {"Points": [{"co": {"X": 1, "Y": 0}, "interpolation": 2}]}, "location_y": {"Points": [{"co": {"X": 1, "Y": 0}, "interpolation": 2}]}, "mixing": 0, "perspective_c1_x": {"Points": [{"co": {"X": 1, "Y": -1}, "interpolation": 2}]}, "perspective_c1_y": {"Points": [{"co": {"X": 1, "Y": -1}, "interpolation": 2}]}, "perspective_c2_x": {"Points": [{"co": {"X": 1, "Y": -1}, "interpolation": 2}]}, "perspective_c2_y": {"Points": [{"co": {"X": 1, "Y": -1}, "interpolation": 2}]}, "perspective_c3_x": {"Points": [{"co": {"X": 1, "Y": -1}, "interpolation": 2}]}, "perspective_c3_y": {"Points": [{"co": {"X": 1, "Y": -1}, "interpolation": 2}]}, "perspective_c4_x": {"Points": [{"co": {"X": 1, "Y": -1}, "interpolation": 2}]}, "perspective_c4_y": {"Points": [{"co": {"X": 1, "Y": -1}, "interpolation": 2}]}, "position": 204.33333333333334, "reader": {"acodec": "aac", "audio_bit_rate": 0, "audio_stream_index": 1, "audio_timebase": {"den": 1000, "num": 1}, "channel_layout": 3, "channels": 2, "display_ratio": {"den": 9, "num": 16}, "duration": 1371.0, "file_size": "456740423", "fps": {"den": 1, "num": 15}, "has_audio": true, "has_single_image": false, "has_video": true, "height": 720, "interlaced_frame": false, "metadata": {"DURATION": "00:22:51.580000000", "ENCODER": "Lavf58.29.100", "title": "Track1"}, "path": "/home/mpt/Documentos/Projetos/sisdig/3.5-videos/painel-digital-e-protoboard/brutos/uso-do-protoboard#bruto.mkv", "pixel_format": 0, "pixel_ratio": {"den": 1, "num": 1}, "sample_rate": 44100, "top_field_first": true, "type": "FFmpegReader", "vcodec": "h264", "video_bit_rate": 332933, "video_length": "20565", "video_stream_index": 0, "video_timebase": {"den": 1000, "num": 1}, "width": 1280}, "rotation": {"Points": [{"co": {"X": 1, "Y": 0}, "interpolation": 2}]}, "scale": 1, "scale_x": {"Points": [{"co": {"X": 1, "Y": 1}, "interpolation": 2}]}, "scale_y": {"Points": [{"co": {"X": 1, "Y": 1}, "interpolation": 2}]}, "shear_x": {"Points": [{"co": {"X": 1, "Y": 0}, "interpolation": 2}]}, "shear_y": {"Points": [{"co": {"X": 1, "Y": 0}, "interpolation": 2}]}, "start": 262.93333333333334, "time": {"Points": [{"co": {"X": 1, "Y": 1}, "interpolation": 2}]}, "volume": {"Points": [{"co": {"X": 1, "Y": 1}, "interpolation": 2}]}, "wave_color": {"alpha": {"Points": [{"co": {"X": 1, "Y": 255}, "handle_left": {"X": 0.5, "Y": 1}, "handle_right": {"X": 0.5, "Y": 0}, "handle_type": 0, "interpolation": 0}]}, "blue": {"Points": [{"co": {"X": 1, "Y": 255}, "handle_left": {"X": 0.5, "Y": 1}, "handle_right": {"X": 0.5, "Y": 0}, "handle_type": 0, "interpolation": 0}]}, "green": {"Points": [{"co": {"X": 1, "Y": 123}, "handle_left": {"X": 0.5, "Y": 1}, "handle_right": {"X": 0.5, "Y": 0}, "handle_type": 0, "interpolation": 0}]}, "red": {"Points": [{"co": {"X": 1, "Y": 0}, "handle_left": {"X": 0.5, "Y": 1}, "handle_right": {"X": 0.5, "Y": 0}, "handle_type": 0, "interpolation": 0}]}}, "waveform": false, "file_id": "POT0C18IYF", "title": "uso-do-protoboard#bruto.mkv", "image": "/home/mpt/.openshot_qt/thumbnail/S9EEXZLSN4-3945.png", "id": "S9EEXZLSN4"}, {"alpha": {"Points": [{"co": {"X": 1, "Y": 1}, "interpolation": 2}, {"co": {"X": 5383, "Y": 0}, "handle_left": {"X": 0.5, "Y": 1}, "handle_right": {"X": 0.5, "Y": 0}, "handle_type": 0, "interpolation": 0}, {"co": {"X": 5413, "Y": 1}, "handle_left": {"X": 0.5, "Y": 1}, "handle_right": {"X": 0.5, "Y": 0}, "handle_type": 0, "interpolation": 0}]}, "anchor": 0, "channel_filter": {"Points": [{"co": {"X": 1, "Y": -1}, "interpolation": 2}]}, "channel_mapping": {"Points": [{"co": {"X": 1, "Y": -1}, "interpolation": 2}]}, "crop_height": {"Points": [{"co": {"X": 1, "Y": -1}, "interpolation": 2}]}, "crop_width": {"Points": [{"co": {"X": 1, "Y": -1}, "interpolation": 2}]}, "crop_x": {"Points": [{"co": {"X": 1, "Y": 0}, "interpolation": 2}]}, "crop_y": {"Points": [{"co": {"X": 1, "Y": 0}, "interpolation": 2}]}, "display": 0, "duration": 1371.0, "effects": [], "end": 520.8666666666666, "gravity": 4, "has_audio": {"Points": [{"co": {"X": 1, "Y": -1}, "interpolation": 2}]}, "has_video": {"Points": [{"co": {"X": 1, "Y": -1}, "interpolation": 2}]}, "layer": 4, "location_x": {"Points": [{"co": {"X": 1, "Y": 0}, "interpolation": 2}]}, "location_y": {"Points": [{"co": {"X": 1, "Y": 0}, "interpolation": 2}]}, "mixing": 0, "perspective_c1_x": {"Points": [{"co": {"X": 1, "Y": -1}, "interpolation": 2}]}, "perspective_c1_y": {"Points": [{"co": {"X": 1, "Y": -1}, "interpolation": 2}]}, "perspective_c2_x": {"Points": [{"co": {"X": 1, "Y": -1}, "interpolation": 2}]}, "perspective_c2_y": {"Points": [{"co": {"X": 1, "Y": -1}, "interpolation": 2}]}, "perspective_c3_x": {"Points": [{"co": {"X": 1, "Y": -1}, "interpolation": 2}]}, "perspective_c3_y": {"Points": [{"co": {"X": 1, "Y": -1}, "interpolation": 2}]}, "perspective_c4_x": {"Points": [{"co": {"X": 1, "Y": -1}, "interpolation": 2}]}, "perspective_c4_y": {"Points": [{"co": {"X": 1, "Y": -1}, "interpolation": 2}]}, "position": 347.73333333333335, "reader": {"acodec": "aac", "audio_bit_rate": 0, "audio_stream_index": 1, "audio_timebase": {"den": 1000, "num": 1}, "channel_layout": 3, "channels": 2, "display_ratio": {"den": 9, "num": 16}, "duration": 1371.0, "file_size": "456740423", "fps": {"den": 1, "num": 15}, "has_audio": true, "has_single_image": false, "has_video": true, "height": 720, "interlaced_frame": false, "metadata": {"DURATION": "00:22:51.580000000", "ENCODER": "Lavf58.29.100", "title": "Track1"}, "path": "/home/mpt/Documentos/Projetos/sisdig/3.5-videos/painel-digital-e-protoboard/brutos/uso-do-protoboard#bruto.mkv", "pixel_format": 0, "pixel_ratio": {"den": 1, "num": 1}, "sample_rate": 44100, "top_field_first": true, "type": "FFmpegReader", "vcodec": "h264", "video_bit_rate": 332933, "video_length": "20565", "video_stream_index": 0, "video_timebase": {"den": 1000, "num": 1}, "width": 1280}, "rotation": {"Points": [{"co": {"X": 1, "Y": 0}, "interpolation": 2}]}, "scale": 1, "scale_x": {"Points": [{"co": {"X": 1, "Y": 1}, "interpolation": 2}]}, "scale_y": {"Points": [{"co": {"X": 1, "Y": 1}, "interpolation": 2}]}, "shear_x": {"Points": [{"co": {"X": 1, "Y": 0}, "interpolation": 2}]}, "shear_y": {"Points": [{"co": {"X": 1, "Y": 0}, "interpolation": 2}]}, "start": 411.96666666666664, "time": {"Points": [{"co": {"X": 1, "Y": 1}, "interpolation": 2}]}, "volume": {"Points": [{"co": {"X": 1, "Y": 1}, "interpolation": 2}]}, "wave_color": {"alpha": {"Points": [{"co": {"X": 1, "Y": 255}, "handle_left": {"X": 0.5, "Y": 1}, "handle_right": {"X": 0.5, "Y": 0}, "handle_type": 0, "interpolation": 0}]}, "blue": {"Points": [{"co": {"X": 1, "Y": 255}, "handle_left": {"X": 0.5, "Y": 1}, "handle_right": {"X": 0.5, "Y": 0}, "handle_type": 0, "interpolation": 0}]}, "green": {"Points": [{"co": {"X": 1, "Y": 123}, "handle_left": {"X": 0.5, "Y": 1}, "handle_right": {"X": 0.5, "Y": 0}, "handle_type": 0, "interpolation": 0}]}, "red": {"Points": [{"co": {"X": 1, "Y": 0}, "handle_left": {"X": 0.5, "Y": 1}, "handle_right": {"X": 0.5, "Y": 0}, "handle_type": 0, "interpolation": 0}]}}, "waveform": false, "file_id": "POT0C18IYF", "title": "uso-do-protoboard#bruto.mkv", "image": "/home/mpt/.openshot_qt/thumbnail/OA38WMIHJZ-6181.png", "id": "OA38WMIHJZ"}, {"alpha": {"Points": [{"co": {"X": 1, "Y": 1}, "interpolation": 2}, {"co": {"X": 5383, "Y": 0}, "handle_left": {"X": 0.5, "Y": 1}, "handle_right": {"X": 0.5, "Y": 0}, "handle_type": 0, "interpolation": 0}, {"co": {"X": 5413, "Y": 1}, "handle_left": {"X": 0.5, "Y": 1}, "handle_right": {"X": 0.5, "Y": 0}, "handle_type": 0, "interpolation": 0}]}, "anchor": 0, "channel_filter": {"Points": [{"co": {"X": 1, "Y": -1}, "interpolation": 2}]}, "channel_mapping": {"Points": [{"co": {"X": 1, "Y": -1}, "interpolation": 2}]}, "crop_height": {"Points": [{"co": {"X": 1, "Y": -1}, "interpolation": 2}]}, "crop_width": {"Points": [{"co": {"X": 1, "Y": -1}, "interpolation": 2}]}, "crop_x": {"Points": [{"co": {"X": 1, "Y": 0}, "interpolation": 2}]}, "crop_y": {"Points": [{"co": {"X": 1, "Y": 0}, "interpolation": 2}]}, "display": 0, "duration": 1371.0, "effects": [], "end": 678.9, "gravity": 4, "has_audio": {"Points": [{"co": {"X": 1, "Y": -1}, "interpolation": 2}]}, "has_video": {"Points": [{"co": {"X": 1, "Y": -1}, "interpolation": 2}]}, "layer": 4, "location_x": {"Points": [{"co": {"X": 1, "Y": 0}, "interpolation": 2}]}, "location_y": {"Points": [{"co": {"X": 1, "Y": 0}, "interpolation": 2}]}, "mixing": 0, "perspective_c1_x": {"Points": [{"co": {"X": 1, "Y": -1}, "interpolation": 2}]}, "perspective_c1_y": {"Points": [{"co": {"X": 1, "Y": -1}, "interpolation": 2}]}, "perspective_c2_x": {"Points": [{"co": {"X": 1, "Y": -1}, "interpolation": 2}]}, "perspective_c2_y": {"Points": [{"co": {"X": 1, "Y": -1}, "interpolation": 2}]}, "perspective_c3_x": {"Points": [{"co": {"X": 1, "Y": -1}, "interpolation": 2}]}, "perspective_c3_y": {"Points": [{"co": {"X": 1, "Y": -1}, "interpolation": 2}]}, "perspective_c4_x": {"Points": [{"co": {"X": 1, "Y": -1}, "interpolation": 2}]}, "perspective_c4_y": {"Points": [{"co": {"X": 1, "Y": -1}, "interpolation": 2}]}, "position": 456.6333333333333, "reader": {"acodec": "aac", "audio_bit_rate": 0, "audio_stream_index": 1, "audio_timebase": {"den": 1000, "num": 1}, "channel_layout": 3, "channels": 2, "display_ratio": {"den": 9, "num": 16}, "duration": 1371.0, "file_size": "456740423", "fps": {"den": 1, "num": 15}, "has_audio": true, "has_single_image": false, "has_video": true, "height": 720, "interlaced_frame": false, "metadata": {"DURATION": "00:22:51.580000000", "ENCODER": "Lavf58.29.100", "title": "Track1"}, "path": "/home/mpt/Documentos/Projetos/sisdig/3.5-videos/painel-digital-e-protoboard/brutos/uso-do-protoboard#bruto.mkv", "pixel_format": 0, "pixel_ratio": {"den": 1, "num": 1}, "sample_rate": 44100, "top_field_first": true, "type": "FFmpegReader", "vcodec": "h264", "video_bit_rate": 332933, "video_length": "20565", "video_stream_index": 0, "video_timebase": {"den": 1000, "num": 1}, "width": 1280}, "rotation": {"Points": [{"co": {"X": 1, "Y": 0}, "interpolation": 2}]}, "scale": 1, "scale_x": {"Points": [{"co": {"X": 1, "Y": 1}, "interpolation": 2}]}, "scale_y": {"Points": [{"co": {"X": 1, "Y": 1}, "interpolation": 2}]}, "shear_x": {"Points": [{"co": {"X": 1, "Y": 0}, "interpolation": 2}]}, "shear_y": {"Points": [{"co": {"X": 1, "Y": 0}, "interpolation": 2}]}, "start": 530.3666666666667, "time": {"Points": [{"co": {"X": 1, "Y": 1}, "interpolation": 2}]}, "volume": {"Points": [{"co": {"X": 1, "Y": 1}, "interpolation": 2}]}, "wave_color": {"alpha": {"Points": [{"co": {"X": 1, "Y": 255}, "handle_left": {"X": 0.5, "Y": 1}, "handle_right": {"X": 0.5, "Y": 0}, "handle_type": 0, "interpolation": 0}]}, "blue": {"Points": [{"co": {"X": 1, "Y": 255}, "handle_left": {"X": 0.5, "Y": 1}, "handle_right": {"X": 0.5, "Y": 0}, "handle_type": 0, "interpolation": 0}]}, "green": {"Points": [{"co": {"X": 1, "Y": 123}, "handle_left": {"X": 0.5, "Y": 1}, "handle_right": {"X": 0.5, "Y": 0}, "handle_type": 0, "interpolation": 0}]}, "red": {"Points": [{"co": {"X": 1, "Y": 0}, "handle_left": {"X": 0.5, "Y": 1}, "handle_right": {"X": 0.5, "Y": 0}, "handle_type": 0, "interpolation": 0}]}}, "waveform": false, "file_id": "POT0C18IYF", "title": "uso-do-protoboard#bruto.mkv", "image": "/home/mpt/.openshot_qt/thumbnail/FDX5A455D9-7957.png", "id": "FDX5A455D9"}, {"alpha": {"Points": [{"co": {"X": 1, "Y": 1}, "interpolation": 2}, {"co": {"X": 5383, "Y": 0}, "handle_left": {"X": 0.5, "Y": 1}, "handle_right": {"X": 0.5, "Y": 0}, "handle_type": 0, "interpolation": 0}, {"co": {"X": 5413, "Y": 1}, "handle_left": {"X": 0.5, "Y": 1}, "handle_right": {"X": 0.5, "Y": 0}, "handle_type": 0, "interpolation": 0}]}, "anchor": 0, "channel_filter": {"Points": [{"co": {"X": 1, "Y": -1}, "interpolation": 2}]}, "channel_mapping": {"Points": [{"co": {"X": 1, "Y": -1}, "interpolation": 2}]}, "crop_height": {"Points": [{"co": {"X": 1, "Y": -1}, "interpolation": 2}]}, "crop_width": {"Points": [{"co": {"X": 1, "Y": -1}, "interpolation": 2}]}, "crop_x": {"Points": [{"co": {"X": 1, "Y": 0}, "interpolation": 2}]}, "crop_y": {"Points": [{"co": {"X": 1, "Y": 0}, "interpolation": 2}]}, "display": 0, "duration": 1371.0, "effects": [], "end": 704.7, "gravity": 4, "has_audio": {"Points": [{"co": {"X": 1, "Y": -1}, "interpolation": 2}]}, "has_video": {"Points": [{"co": {"X": 1, "Y": -1}, "interpolation": 2}]}, "layer": 4, "location_x": {"Points": [{"co": {"X": 1, "Y": 0}, "interpolation": 2}]}, "location_y": {"Points": [{"co": {"X": 1, "Y": 0}, "interpolation": 2}]}, "mixing": 0, "perspective_c1_x": {"Points": [{"co": {"X": 1, "Y": -1}, "interpolation": 2}]}, "perspective_c1_y": {"Points": [{"co": {"X": 1, "Y": -1}, "interpolation": 2}]}, "perspective_c2_x": {"Points": [{"co": {"X": 1, "Y": -1}, "interpolation": 2}]}, "perspective_c2_y": {"Points": [{"co": {"X": 1, "Y": -1}, "interpolation": 2}]}, "perspective_c3_x": {"Points": [{"co": {"X": 1, "Y": -1}, "interpolation": 2}]}, "perspective_c3_y": {"Points": [{"co": {"X": 1, "Y": -1}, "interpolation": 2}]}, "perspective_c4_x": {"Points": [{"co": {"X": 1, "Y": -1}, "interpolation": 2}]}, "perspective_c4_y": {"Points": [{"co": {"X": 1, "Y": -1}, "interpolation": 2}]}, "position": 605.1666666666666, "reader": {"acodec": "aac", "audio_bit_rate": 0, "audio_stream_index": 1, "audio_timebase": {"den": 1000, "num": 1}, "channel_layout": 3, "channels": 2, "display_ratio": {"den": 9, "num": 16}, "duration": 1371.0, "file_size": "456740423", "fps": {"den": 1, "num": 15}, "has_audio": true, "has_single_image": false, "has_video": true, "height": 720, "interlaced_frame": false, "metadata": {"DURATION": "00:22:51.580000000", "ENCODER": "Lavf58.29.100", "title": "Track1"}, "path": "/home/mpt/Documentos/Projetos/sisdig/3.5-videos/painel-digital-e-protoboard/brutos/uso-do-protoboard#bruto.mkv", "pixel_format": 0, "pixel_ratio": {"den": 1, "num": 1}, "sample_rate": 44100, "top_field_first": true, "type": "FFmpegReader", "vcodec": "h264", "video_bit_rate": 332933, "video_length": "20565", "video_stream_index": 0, "video_timebase": {"den": 1000, "num": 1}, "width": 1280}, "rotation": {"Points": [{"co": {"X": 1, "Y": 0}, "interpolation": 2}]}, "scale": 1, "scale_x": {"Points": [{"co": {"X": 1, "Y": 1}, "interpolation": 2}]}, "scale_y": {"Points": [{"co": {"X": 1, "Y": 1}, "interpolation": 2}]}, "shear_x": {"Points": [{"co": {"X": 1, "Y": 0}, "interpolation": 2}]}, "shear_y": {"Points": [{"co": {"X": 1, "Y": 0}, "interpolation": 2}]}, "start": 684, "time": {"Points": [{"co": {"X": 1, "Y": 1}, "interpolation": 2}]}, "volume": {"Points": [{"co": {"X": 1, "Y": 1}, "interpolation": 2}]}, "wave_color": {"alpha": {"Points": [{"co": {"X": 1, "Y": 255}, "handle_left": {"X": 0.5, "Y": 1}, "handle_right": {"X": 0.5, "Y": 0}, "handle_type": 0, "interpolation": 0}]}, "blue": {"Points": [{"co": {"X": 1, "Y": 255}, "handle_left": {"X": 0.5, "Y": 1}, "handle_right": {"X": 0.5, "Y": 0}, "handle_type": 0, "interpolation": 0}]}, "green": {"Points": [{"co": {"X": 1, "Y": 123}, "handle_left": {"X": 0.5, "Y": 1}, "handle_right": {"X": 0.5, "Y": 0}, "handle_type": 0, "interpolation": 0}]}, "red": {"Points": [{"co": {"X": 1, "Y": 0}, "handle_left": {"X": 0.5, "Y": 1}, "handle_right": {"X": 0.5, "Y": 0}, "handle_type": 0, "interpolation": 0}]}}, "waveform": false, "file_id": "POT0C18IYF", "title": "uso-do-protoboard#bruto.mkv", "image": "/home/mpt/.openshot_qt/thumbnail/Z40YW1HB5H-10261.png", "id": "Z40YW1HB5H"}, {"alpha": {"Points": [{"co": {"X": 1, "Y": 1}, "interpolation": 2}, {"co": {"X": 5383, "Y": 0}, "handle_left": {"X": 0.5, "Y": 1}, "handle_right": {"X": 0.5, "Y": 0}, "handle_type": 0, "interpolation": 0}, {"co": {"X": 5413, "Y": 1}, "handle_left": {"X": 0.5, "Y": 1}, "handle_right": {"X": 0.5, "Y": 0}, "handle_type": 0, "interpolation": 0}]}, "anchor": 0, "channel_filter": {"Points": [{"co": {"X": 1, "Y": -1}, "interpolation": 2}]}, "channel_mapping": {"Points": [{"co": {"X": 1, "Y": -1}, "interpolation": 2}]}, "crop_height": {"Points": [{"co": {"X": 1, "Y": -1}, "interpolation": 2}]}, "crop_width": {"Points": [{"co": {"X": 1, "Y": -1}, "interpolation": 2}]}, "crop_x": {"Points": [{"co": {"X": 1, "Y": 0}, "interpolation": 2}]}, "crop_y": {"Points": [{"co": {"X": 1, "Y": 0}, "interpolation": 2}]}, "display": 0, "duration": 1371.0, "effects": [], "end": 1305.0333333333333, "gravity": 4, "has_audio": {"Points": [{"co": {"X": 1, "Y": -1}, "interpolation": 2}]}, "has_video": {"Points": [{"co": {"X": 1, "Y": -1}, "interpolation": 2}]}, "layer": 4, "location_x": {"Points": [{"co": {"X": 1, "Y": 0}, "interpolation": 2}]}, "location_y": {"Points": [{"co": {"X": 1, "Y": 0}, "interpolation": 2}]}, "mixing": 0, "perspective_c1_x": {"Points": [{"co": {"X": 1, "Y": -1}, "interpolation": 2}]}, "perspective_c1_y": {"Points": [{"co": {"X": 1, "Y": -1}, "interpolation": 2}]}, "perspective_c2_x": {"Points": [{"co": {"X": 1, "Y": -1}, "interpolation": 2}]}, "perspective_c2_y": {"Points": [{"co": {"X": 1, "Y": -1}, "interpolation": 2}]}, "perspective_c3_x": {"Points": [{"co": {"X": 1, "Y": -1}, "interpolation": 2}]}, "perspective_c3_y": {"Points": [{"co": {"X": 1, "Y": -1}, "interpolation": 2}]}, "perspective_c4_x": {"Points": [{"co": {"X": 1, "Y": -1}, "interpolation": 2}]}, "perspective_c4_y": {"Points": [{"co": {"X": 1, "Y": -1}, "interpolation": 2}]}, "position": 625.8666666666667, "reader": {"acodec": "aac", "audio_bit_rate": 0, "audio_stream_index": 1, "audio_timebase": {"den": 1000, "num": 1}, "channel_layout": 3, "channels": 2, "display_ratio": {"den": 9, "num": 16}, "duration": 1371.0, "file_size": "456740423", "fps": {"den": 1, "num": 15}, "has_audio": true, "has_single_image": false, "has_video": true, "height": 720, "interlaced_frame": false, "metadata": {"DURATION": "00:22:51.580000000", "ENCODER": "Lavf58.29.100", "title": "Track1"}, "path": "/home/mpt/Documentos/Projetos/sisdig/3.5-videos/painel-digital-e-protoboard/brutos/uso-do-protoboard#bruto.mkv", "pixel_format": 0, "pixel_ratio": {"den": 1, "num": 1}, "sample_rate": 44100, "top_field_first": true, "type": "FFmpegReader", "vcodec": "h264", "video_bit_rate": 332933, "video_length": "20565", "video_stream_index": 0, "video_timebase": {"den": 1000, "num": 1}, "width": 1280}, "rotation": {"Points": [{"co": {"X": 1, "Y": 0}, "interpolation": 2}]}, "scale": 1, "scale_x": {"Points": [{"co": {"X": 1, "Y": 1}, "interpolation": 2}]}, "scale_y": {"Points": [{"co": {"X": 1, "Y": 1}, "interpolation": 2}]}, "shear_x": {"Points": [{"co": {"X": 1, "Y": 0}, "interpolation": 2}]}, "shear_y": {"Points": [{"co": {"X": 1, "Y": 0}, "interpolation": 2}]}, "start": 737.7333333333333, "time": {"Points": [{"co": {"X": 1, "Y": 1}, "interpolation": 2}]}, "volume": {"Points": [{"co": {"X": 1, "Y": 1}, "interpolation": 2}]}, "wave_color": {"alpha": {"Points": [{"co": {"X": 1, "Y": 255}, "handle_left": {"X": 0.5, "Y": 1}, "handle_right": {"X": 0.5, "Y": 0}, "handle_type": 0, "interpolation": 0}]}, "blue": {"Points": [{"co": {"X": 1, "Y": 255}, "handle_left": {"X": 0.5, "Y": 1}, "handle_right": {"X": 0.5, "Y": 0}, "handle_type": 0, "interpolation": 0}]}, "green": {"Points": [{"co": {"X": 1, "Y": 123}, "handle_left": {"X": 0.5, "Y": 1}, "handle_right": {"X": 0.5, "Y": 0}, "handle_type": 0, "interpolation": 0}]}, "red": {"Points": [{"co": {"X": 1, "Y": 0}, "handle_left": {"X": 0.5, "Y": 1}, "handle_right": {"X": 0.5, "Y": 0}, "handle_type": 0, "interpolation": 0}]}}, "waveform": false, "file_id": "POT0C18IYF", "title": "uso-do-protoboard#bruto.mkv", "image": "/home/mpt/.openshot_qt/thumbnail/2TI6Y9S4O4-11067.png", "id": "2TI6Y9S4O4"}, {"alpha": {"Points": [{"co": {"X": 1, "Y": 1}, "interpolation": 2}, {"co": {"X": 5383, "Y": 0}, "handle_left": {"X": 0.5, "Y": 1}, "handle_right": {"X": 0.5, "Y": 0}, "handle_type": 0, "interpolation": 0}, {"co": {"X": 5413, "Y": 1}, "handle_left": {"X": 0.5, "Y": 1}, "handle_right": {"X": 0.5, "Y": 0}, "handle_type": 0, "interpolation": 0}]}, "anchor": 0, "channel_filter": {"Points": [{"co": {"X": 1, "Y": -1}, "interpolation": 2}]}, "channel_mapping": {"Points": [{"co": {"X": 1, "Y": -1}, "interpolation": 2}]}, "crop_height": {"Points": [{"co": {"X": 1, "Y": -1}, "interpolation": 2}]}, "crop_width": {"Points": [{"co": {"X": 1, "Y": -1}, "interpolation": 2}]}, "crop_x": {"Points": [{"co": {"X": 1, "Y": 0}, "interpolation": 2}]}, "crop_y": {"Points": [{"co": {"X": 1, "Y": 0}, "interpolation": 2}]}, "display": 0, "duration": 1371.0, "effects": [], "end": 1352.7333333333331, "gravity": 4, "has_audio": {"Points": [{"co": {"X": 1, "Y": -1}, "interpolation": 2}]}, "has_video": {"Points": [{"co": {"X": 1, "Y": -1}, "interpolation": 2}]}, "layer": 4, "location_x": {"Points": [{"co": {"X": 1, "Y": 0}, "interpolation": 2}]}, "location_y": {"Points": [{"co": {"X": 1, "Y": 0}, "interpolation": 2}]}, "mixing": 0, "perspective_c1_x": {"Points": [{"co": {"X": 1, "Y": -1}, "interpolation": 2}]}, "perspective_c1_y": {"Points": [{"co": {"X": 1, "Y": -1}, "interpolation": 2}]}, "perspective_c2_x": {"Points": [{"co": {"X": 1, "Y": -1}, "interpolation": 2}]}, "perspective_c2_y": {"Points": [{"co": {"X": 1, "Y": -1}, "interpolation": 2}]}, "perspective_c3_x": {"Points": [{"co": {"X": 1, "Y": -1}, "interpolation": 2}]}, "perspective_c3_y": {"Points": [{"co": {"X": 1, "Y": -1}, "interpolation": 2}]}, "perspective_c4_x": {"Points": [{"co": {"X": 1, "Y": -1}, "interpolation": 2}]}, "perspective_c4_y": {"Points": [{"co": {"X": 1, "Y": -1}, "interpolation": 2}]}, "position": 1193.1666666666667, "reader": {"acodec": "aac", "audio_bit_rate": 0, "audio_stream_index": 1, "audio_timebase": {"den": 1000, "num": 1}, "channel_layout": 3, "channels": 2, "display_ratio": {"den": 9, "num": 16}, "duration": 1371.0, "file_size": "456740423", "fps": {"den": 1, "num": 15}, "has_audio": true, "has_single_image": false, "has_video": true, "height": 720, "interlaced_frame": false, "metadata": {"DURATION": "00:22:51.580000000", "ENCODER": "Lavf58.29.100", "title": "Track1"}, "path": "/home/mpt/Documentos/Projetos/sisdig/3.5-videos/painel-digital-e-protoboard/brutos/uso-do-protoboard#bruto.mkv", "pixel_format": 0, "pixel_ratio": {"den": 1, "num": 1}, "sample_rate": 44100, "top_field_first": true, "type": "FFmpegReader", "vcodec": "h264", "video_bit_rate": 332933, "video_length": "20565", "video_stream_index": 0, "video_timebase": {"den": 1000, "num": 1}, "width": 1280}, "rotation": {"Points": [{"co": {"X": 1, "Y": 0}, "interpolation": 2}]}, "scale": 1, "scale_x": {"Points": [{"co": {"X": 1, "Y": 1}, "interpolation": 2}]}, "scale_y": {"Points": [{"co": {"X": 1, "Y": 1}, "interpolation": 2}]}, "shear_x": {"Points": [{"co": {"X": 1, "Y": 0}, "interpolation": 2}]}, "shear_y": {"Points": [{"co": {"X": 1, "Y": 0}, "interpolation": 2}]}, "start": 1313.3333333333333, "time": {"Points": [{"co": {"X": 1, "Y": 1}, "interpolation": 2}]}, "volume": {"Points": [{"co": {"X": 1, "Y": 1}, "interpolation": 2}]}, "wave_color": {"alpha": {"Points": [{"co": {"X": 1, "Y": 255}, "handle_left": {"X": 0.5, "Y": 1}, "handle_right": {"X": 0.5, "Y": 0}, "handle_type": 0, "interpolation": 0}]}, "blue": {"Points": [{"co": {"X": 1, "Y": 255}, "handle_left": {"X": 0.5, "Y": 1}, "handle_right": {"X": 0.5, "Y": 0}, "handle_type": 0, "interpolation": 0}]}, "green": {"Points": [{"co": {"X": 1, "Y": 123}, "handle_left": {"X": 0.5, "Y": 1}, "handle_right": {"X": 0.5, "Y": 0}, "handle_type": 0, "interpolation": 0}]}, "red": {"Points": [{"co": {"X": 1, "Y": 0}, "handle_left": {"X": 0.5, "Y": 1}, "handle_right": {"X": 0.5, "Y": 0}, "handle_type": 0, "interpolation": 0}]}}, "waveform": false, "file_id": "POT0C18IYF", "title": "uso-do-protoboard#bruto.mkv", "image": "/home/mpt/.openshot_qt/thumbnail/7T81YSL5SK-19701.png", "id": "7T81YSL5SK"}, {"alpha": {"Points": [{"co": {"X": 1, "Y": 1}, "interpolation": 2}, {"co": {"X": 5383, "Y": 0}, "handle_left": {"X": 0.5, "Y": 1}, "handle_right": {"X": 0.5, "Y": 0}, "handle_type": 0, "interpolation": 0}, {"co": {"X": 5413, "Y": 1}, "handle_left": {"X": 0.5, "Y": 1}, "handle_right": {"X": 0.5, "Y": 0}, "handle_type": 0, "interpolation": 0}]}, "anchor": 0, "channel_filter": {"Points": [{"co": {"X": 1, "Y": -1}, "interpolation": 2}]}, "channel_mapping": {"Points": [{"co": {"X": 1, "Y": -1}, "interpolation": 2}]}, "crop_height": {"Points": [{"co": {"X": 1, "Y": -1}, "interpolation": 2}]}, "crop_width": {"Points": [{"co": {"X": 1, "Y": -1}, "interpolation": 2}]}, "crop_x": {"Points": [{"co": {"X": 1, "Y": 0}, "interpolation": 2}]}, "crop_y": {"Points": [{"co": {"X": 1, "Y": 0}, "interpolation": 2}]}, "display": 0, "duration": 1371.0, "effects": [], "end": 1353.8, "gravity": 4, "has_audio": {"Points": [{"co": {"X": 1, "Y": -1}, "interpolation": 2}]}, "has_video": {"Points": [{"co": {"X": 1, "Y": -1}, "interpolation": 2}]}, "layer": 4, "location_x": {"Points": [{"co": {"X": 1, "Y": 0}, "interpolation": 2}]}, "location_y": {"Points": [{"co": {"X": 1, "Y": 0}, "interpolation": 2}]}, "mixing": 0, "perspective_c1_x": {"Points": [{"co": {"X": 1, "Y": -1}, "interpolation": 2}]}, "perspective_c1_y": {"Points": [{"co": {"X": 1, "Y": -1}, "interpolation": 2}]}, "perspective_c2_x": {"Points": [{"co": {"X": 1, "Y": -1}, "interpolation": 2}]}, "perspective_c2_y": {"Points": [{"co": {"X": 1, "Y": -1}, "interpolation": 2}]}, "perspective_c3_x": {"Points": [{"co": {"X": 1, "Y": -1}, "interpolation": 2}]}, "perspective_c3_y": {"Points": [{"co": {"X": 1, "Y": -1}, "interpolation": 2}]}, "perspective_c4_x": {"Points": [{"co": {"X": 1, "Y": -1}, "interpolation": 2}]}, "perspective_c4_y": {"Points": [{"co": {"X": 1, "Y": -1}, "interpolation": 2}]}, "position": 1232.6, "reader": {"acodec": "aac", "audio_bit_rate": 0, "audio_stream_index": 1, "audio_timebase": {"den": 1000, "num": 1}, "channel_layout": 3, "channels": 2, "display_ratio": {"den": 9, "num": 16}, "duration": 1371.0, "file_size": "456740423", "fps": {"den": 1, "num": 15}, "has_audio": true, "has_single_image": false, "has_video": true, "height": 720, "interlaced_frame": false, "metadata": {"DURATION": "00:22:51.580000000", "ENCODER": "Lavf58.29.100", "title": "Track1"}, "path": "/home/mpt/Documentos/Projetos/sisdig/3.5-videos/painel-digital-e-protoboard/brutos/uso-do-protoboard#bruto.mkv", "pixel_format": 0, "pixel_ratio": {"den": 1, "num": 1}, "sample_rate": 44100, "top_field_first": true, "type": "FFmpegReader", "vcodec": "h264", "video_bit_rate": 332933, "video_length": "20565", "video_stream_index": 0, "video_timebase": {"den": 1000, "num": 1}, "width": 1280}, "rotation": {"Points": [{"co": {"X": 1, "Y": 0}, "interpolation": 2}]}, "scale": 1, "scale_x": {"Points": [{"co": {"X": 1, "Y": 1}, "interpolation": 2}]}, "scale_y": {"Points": [{"co": {"X": 1, "Y": 1}, "interpolation": 2}]}, "shear_x": {"Points": [{"co": {"X": 1, "Y": 0}, "interpolation": 2}]}, "shear_y": {"Points": [{"co": {"X": 1, "Y": 0}, "interpolation": 2}]}, "start": 1352.8, "time": {"Points": [{"co": {"X": 1, "Y": 1}, "interpolation": 2}]}, "volume": {"Points": [{"co": {"X": 1, "Y": 1}, "interpolation": 2}]}, "wave_color": {"alpha": {"Points": [{"co": {"X": 1, "Y": 255}, "handle_left": {"X": 0.5, "Y": 1}, "handle_right": {"X": 0.5, "Y": 0}, "handle_type": 0, "interpolation": 0}]}, "blue": {"Points": [{"co": {"X": 1, "Y": 255}, "handle_left": {"X": 0.5, "Y": 1}, "handle_right": {"X": 0.5, "Y": 0}, "handle_type": 0, "interpolation": 0}]}, "green": {"Points": [{"co": {"X": 1, "Y": 123}, "handle_left": {"X": 0.5, "Y": 1}, "handle_right": {"X": 0.5, "Y": 0}, "handle_type": 0, "interpolation": 0}]}, "red": {"Points": [{"co": {"X": 1, "Y": 0}, "handle_left": {"X": 0.5, "Y": 1}, "handle_right": {"X": 0.5, "Y": 0}, "handle_type": 0, "interpolation": 0}]}}, "waveform": false, "file_id": "POT0C18IYF", "title": "uso-do-protoboard#bruto.mkv", "image": "/home/mpt/.openshot_qt/thumbnail/UJDP0TKZS7-20293.png", "id": "UJDP0TKZS7"}, {"alpha": {"Points": [{"co": {"X": 1, "Y": 1}, "interpolation": 2}, {"co": {"X": 5383, "Y": 0}, "handle_left": {"X": 0.5, "Y": 1}, "handle_right": {"X": 0.5, "Y": 0}, "handle_type": 0, "interpolation": 0}, {"co": {"X": 5413, "Y": 1}, "handle_left": {"X": 0.5, "Y": 1}, "handle_right": {"X": 0.5, "Y": 0}, "handle_type": 0, "interpolation": 0}]}, "anchor": 0, "channel_filter": {"Points": [{"co": {"X": 1, "Y": -1}, "interpolation": 2}]}, "channel_mapping": {"Points": [{"co": {"X": 1, "Y": -1}, "interpolation": 2}]}, "crop_height": {"Points": [{"co": {"X": 1, "Y": -1}, "interpolation": 2}]}, "crop_width": {"Points": [{"co": {"X": 1, "Y": -1}, "interpolation": 2}]}, "crop_x": {"Points": [{"co": {"X": 1, "Y": 0}, "interpolation": 2}]}, "crop_y": {"Points": [{"co": {"X": 1, "Y": 0}, "interpolation": 2}]}, "display": 0, "duration": 1371.0, "effects": [], "end": 1361.5333333333335, "gravity": 4, "has_audio": {"Points": [{"co": {"X": 1, "Y": -1}, "interpolation": 2}]}, "has_video": {"Points": [{"co": {"X": 1, "Y": -1}, "interpolation": 2}]}, "layer": 4, "location_x": {"Points": [{"co": {"X": 1, "Y": 0}, "interpolation": 2}]}, "location_y": {"Points": [{"co": {"X": 1, "Y": 0}, "interpolation": 2}]}, "mixing": 0, "perspective_c1_x": {"Points": [{"co": {"X": 1, "Y": -1}, "interpolation": 2}]}, "perspective_c1_y": {"Points": [{"co": {"X": 1, "Y": -1}, "interpolation": 2}]}, "perspective_c2_x": {"Points": [{"co": {"X": 1, "Y": -1}, "interpolation": 2}]}, "perspective_c2_y": {"Points": [{"co": {"X": 1, "Y": -1}, "interpolation": 2}]}, "perspective_c3_x": {"Points": [{"co": {"X": 1, "Y": -1}, "interpolation": 2}]}, "perspective_c3_y": {"Points": [{"co": {"X": 1, "Y": -1}, "interpolation": 2}]}, "perspective_c4_x": {"Points": [{"co": {"X": 1, "Y": -1}, "interpolation": 2}]}, "perspective_c4_y": {"Points": [{"co": {"X": 1, "Y": -1}, "interpolation": 2}]}, "position": 1233.6, "reader": {"acodec": "aac", "audio_bit_rate": 0, "audio_stream_index": 1, "audio_timebase": {"den": 1000, "num": 1}, "channel_layout": 3, "channels": 2, "display_ratio": {"den": 9, "num": 16}, "duration": 1371.0, "file_size": "456740423", "fps": {"den": 1, "num": 15}, "has_audio": true, "has_single_image": false, "has_video": true, "height": 720, "interlaced_frame": false, "metadata": {"DURATION": "00:22:51.580000000", "ENCODER": "Lavf58.29.100", "title": "Track1"}, "path": "/home/mpt/Documentos/Projetos/sisdig/3.5-videos/painel-digital-e-protoboard/brutos/uso-do-protoboard#bruto.mkv", "pixel_format": 0, "pixel_ratio": {"den": 1, "num": 1}, "sample_rate": 44100, "top_field_first": true, "type": "FFmpegReader", "vcodec": "h264", "video_bit_rate": 332933, "video_length": "20565", "video_stream_index": 0, "video_timebase": {"den": 1000, "num": 1}, "width": 1280}, "rotation": {"Points": [{"co": {"X": 1, "Y": 0}, "interpolation": 2}]}, "scale": 1, "scale_x": {"Points": [{"co": {"X": 1, "Y": 1}, "interpolation": 2}]}, "scale_y": {"Points": [{"co": {"X": 1, "Y": 1}, "interpolation": 2}]}, "shear_x": {"Points": [{"co": {"X": 1, "Y": 0}, "interpolation": 2}]}, "shear_y": {"Points": [{"co": {"X": 1, "Y": 0}, "interpolation": 2}]}, "start": 1357.4666666666667, "time": {"Points": [{"co": {"X": 1, "Y": 1}, "interpolation": 2}]}, "volume": {"Points": [{"co": {"X": 1, "Y": 1}, "interpolation": 2}]}, "wave_color": {"alpha": {"Points": [{"co": {"X": 1, "Y": 255}, "handle_left": {"X": 0.5, "Y": 1}, "handle_right": {"X": 0.5, "Y": 0}, "handle_type": 0, "interpolation": 0}]}, "blue": {"Points": [{"co": {"X": 1, "Y": 255}, "handle_left": {"X": 0.5, "Y": 1}, "handle_right": {"X": 0.5, "Y": 0}, "handle_type": 0, "interpolation": 0}]}, "green": {"Points": [{"co": {"X": 1, "Y": 123}, "handle_left": {"X": 0.5, "Y": 1}, "handle_right": {"X": 0.5, "Y": 0}, "handle_type": 0, "interpolation": 0}]}, "red": {"Points": [{"co": {"X": 1, "Y": 0}, "handle_left": {"X": 0.5, "Y": 1}, "handle_right": {"X": 0.5, "Y": 0}, "handle_type": 0, "interpolation": 0}]}}, "waveform": false, "file_id": "POT0C18IYF", "title": "uso-do-protoboard#bruto.mkv", "image": "/home/mpt/.openshot_qt/thumbnail/UJDP0TKZS7-20293.png", "id": "7HS8QQYQPG"}, {"alpha": {"Points": [{"co": {"X": 1, "Y": 1}, "interpolation": 2}, {"co": {"X": 5383, "Y": 0}, "handle_left": {"X": 0.5, "Y": 1}, "handle_right": {"X": 0.5, "Y": 0}, "handle_type": 0, "interpolation": 0}, {"co": {"X": 5413, "Y": 1}, "handle_left": {"X": 0.5, "Y": 1}, "handle_right": {"X": 0.5, "Y": 0}, "handle_type": 0, "interpolation": 0}]}, "anchor": 0, "channel_filter": {"Points": [{"co": {"X": 1, "Y": -1}, "interpolation": 2}]}, "channel_mapping": {"Points": [{"co": {"X": 1, "Y": -1}, "interpolation": 2}]}, "crop_height": {"Points": [{"co": {"X": 1, "Y": -1}, "interpolation": 2}]}, "crop_width": {"Points": [{"co": {"X": 1, "Y": -1}, "interpolation": 2}]}, "crop_x": {"Points": [{"co": {"X": 1, "Y": 0}, "interpolation": 2}]}, "crop_y": {"Points": [{"co": {"X": 1, "Y": 0}, "interpolation": 2}]}, "display": 0, "duration": 1371.0, "effects": [], "end": 1371, "gravity": 4, "has_audio": {"Points": [{"co": {"X": 1, "Y": -1}, "interpolation": 2}]}, "has_video": {"Points": [{"co": {"X": 1, "Y": -1}, "interpolation": 2}]}, "layer": 4, "location_x": {"Points": [{"co": {"X": 1, "Y": 0}, "interpolation": 2}]}, "location_y": {"Points": [{"co": {"X": 1, "Y": 0}, "interpolation": 2}]}, "mixing": 0, "perspective_c1_x": {"Points": [{"co": {"X": 1, "Y": -1}, "interpolation": 2}]}, "perspective_c1_y": {"Points": [{"co": {"X": 1, "Y": -1}, "interpolation": 2}]}, "perspective_c2_x": {"Points": [{"co": {"X": 1, "Y": -1}, "interpolation": 2}]}, "perspective_c2_y": {"Points": [{"co": {"X": 1, "Y": -1}, "interpolation": 2}]}, "perspective_c3_x": {"Points": [{"co": {"X": 1, "Y": -1}, "interpolation": 2}]}, "perspective_c3_y": {"Points": [{"co": {"X": 1, "Y": -1}, "interpolation": 2}]}, "perspective_c4_x": {"Points": [{"co": {"X": 1, "Y": -1}, "interpolation": 2}]}, "perspective_c4_y": {"Points": [{"co": {"X": 1, "Y": -1}, "interpolation": 2}]}, "position": 1237.6666666666667, "reader": {"acodec": "aac", "audio_bit_rate": 0, "audio_stream_index": 1, "audio_timebase": {"den": 1000, "num": 1}, "channel_layout": 3, "channels": 2, "display_ratio": {"den": 9, "num": 16}, "duration": 1371.0, "file_size": "456740423", "fps": {"den": 1, "num": 15}, "has_audio": true, "has_single_image": false, "has_video": true, "height": 720, "interlaced_frame": false, "metadata": {"DURATION": "00:22:51.580000000", "ENCODER": "Lavf58.29.100", "title": "Track1"}, "path": "/home/mpt/Documentos/Projetos/sisdig/3.5-videos/painel-digital-e-protoboard/brutos/uso-do-protoboard#bruto.mkv", "pixel_format": 0, "pixel_ratio": {"den": 1, "num": 1}, "sample_rate": 44100, "top_field_first": true, "type": "FFmpegReader", "vcodec": "h264", "video_bit_rate": 332933, "video_length": "20565", "video_stream_index": 0, "video_timebase": {"den": 1000, "num": 1}, "width": 1280}, "rotation": {"Points": [{"co": {"X": 1, "Y": 0}, "interpolation": 2}]}, "scale": 1, "scale_x": {"Points": [{"co": {"X": 1, "Y": 1}, "interpolation": 2}]}, "scale_y": {"Points": [{"co": {"X": 1, "Y": 1}, "interpolation": 2}]}, "shear_x": {"Points": [{"co": {"X": 1, "Y": 0}, "interpolation": 2}]}, "shear_y": {"Points": [{"co": {"X": 1, "Y": 0}, "interpolation": 2}]}, "start": 1365.6666666666667, "time": {"Points": [{"co": {"X": 1, "Y": 1}, "interpolation": 2}]}, "volume": {"Points": [{"co": {"X": 1, "Y": 1}, "interpolation": 2}]}, "wave_color": {"alpha": {"Points": [{"co": {"X": 1, "Y": 255}, "handle_left": {"X": 0.5, "Y": 1}, "handle_right": {"X": 0.5, "Y": 0}, "handle_type": 0, "interpolation": 0}]}, "blue": {"Points": [{"co": {"X": 1, "Y": 255}, "handle_left": {"X": 0.5, "Y": 1}, "handle_right": {"X": 0.5, "Y": 0}, "handle_type": 0, "interpolation": 0}]}, "green": {"Points": [{"co": {"X": 1, "Y": 123}, "handle_left": {"X": 0.5, "Y": 1}, "handle_right": {"X": 0.5, "Y": 0}, "handle_type": 0, "interpolation": 0}]}, "red": {"Points": [{"co": {"X": 1, "Y": 0}, "handle_left": {"X": 0.5, "Y": 1}, "handle_right": {"X": 0.5, "Y": 0}, "handle_type": 0, "interpolation": 0}]}}, "waveform": false, "file_id": "POT0C18IYF", "title": "uso-do-protoboard#bruto.mkv", "image": "/home/mpt/.openshot_qt/thumbnail/7UIXUBFT9L-20486.png", "id": "7UIXUBFT9L"}]}, {"type": "update", "key": ["clips", {"id": "IXJ3JTUDTB"}], "value": {"id": "IXJ3JTUDTB", "layer": 4, "position": 1243.0000000000002, "image": "/home/mpt/.openshot_qt/thumbnail/GB9Q5MUFJH.png", "start": 0, "end": 10}, "partial": false, "old_values": {"alpha": {"Points": [{"co": {"X": 1, "Y": 1}, "interpolation": 2}]}, "anchor": 0, "channel_filter": {"Points": [{"co": {"X": 1, "Y": -1}, "interpolation": 2}]}, "channel_mapping": {"Points": [{"co": {"X": 1, "Y": -1}, "interpolation": 2}]}, "crop_height": {"Points": [{"co": {"X": 1, "Y": -1}, "interpolation": 2}]}, "crop_width": {"Points": [{"co": {"X": 1, "Y": -1}, "interpolation": 2}]}, "crop_x": {"Points": [{"co": {"X": 1, "Y": 0}, "interpolation": 2}]}, "crop_y": {"Points": [{"co": {"X": 1, "Y": 0}, "interpolation": 2}]}, "display": 0, "duration": 86400.0, "effects": [], "end": 10.0, "gravity": 4, "has_audio": {"Points": [{"co": {"X": 1, "Y": -1}, "interpolation": 2}]}, "has_video": {"Points": [{"co": {"X": 1, "Y": -1}, "interpolation": 2}]}, "id": "IXJ3JTUDTB", "layer": 4, "location_x": {"Points": [{"co": {"X": 1, "Y": 0}, "interpolation": 2}]}, "location_y": {"Points": [{"co": {"X": 1, "Y": 0}, "interpolation": 2}]}, "mixing": 0, "perspective_c1_x": {"Points": [{"co": {"X": 1, "Y": -1}, "interpolation": 2}]}, "perspective_c1_y": {"Points": [{"co": {"X": 1, "Y": -1}, "interpolation": 2}]}, "perspective_c2_x": {"Points": [{"co": {"X": 1, "Y": -1}, "interpolation": 2}]}, "perspective_c2_y": {"Points": [{"co": {"X": 1, "Y": -1}, "interpolation": 2}]}, "perspective_c3_x": {"Points": [{"co": {"X": 1, "Y": -1}, "interpolation": 2}]}, "perspective_c3_y": {"Points": [{"co": {"X": 1, "Y": -1}, "interpolation": 2}]}, "perspective_c4_x": {"Points": [{"co": {"X": 1, "Y": -1}, "interpolation": 2}]}, "perspective_c4_y": {"Points": [{"co": {"X": 1, "Y": -1}, "interpolation": 2}]}, "position": 1170.6, "reader": {"acodec": "", "audio_bit_rate": 0, "audio_stream_index": -1, "audio_timebase": {"den": 1, "num": 1}, "channel_layout": 4, "channels": 0, "display_ratio": {"den": 9, "num": 16}, "duration": 86400.0, "file_size": "3686400", "fps": {"den": 1, "num": 30}, "has_audio": false, "has_single_image": true, "has_video": true, "height": 720, "interlaced_frame": false, "metadata": {}, "path": "/home/mpt/Documentos/Projetos/sisdig/3.5-videos/painel-digital-e-protoboard/fontes/capa.png", "pixel_format": -1, "pixel_ratio": {"den": 1, "num": 1}, "sample_rate": 0, "top_field_first": true, "type": "QtImageReader", "vcodec": "", "video_bit_rate": 0, "video_length": "2592000", "video_stream_index": -1, "video_timebase": {"den": 30, "num": 1}, "width": 1280}, "rotation": {"Points": [{"co": {"X": 1, "Y": 0}, "interpolation": 2}]}, "scale": 1, "scale_x": {"Points": [{"co": {"X": 1, "Y": 1}, "interpolation": 2}]}, "scale_y": {"Points": [{"co": {"X": 1, "Y": 1}, "interpolation": 2}]}, "shear_x": {"Points": [{"co": {"X": 1, "Y": 0}, "interpolation": 2}]}, "shear_y": {"Points": [{"co": {"X": 1, "Y": 0}, "interpolation": 2}]}, "start": 0, "time": {"Points": [{"co": {"X": 1, "Y": 1}, "interpolation": 2}]}, "volume": {"Points": [{"co": {"X": 1, "Y": 1}, "interpolation": 2}]}, "wave_color": {"alpha": {"Points": [{"co": {"X": 1, "Y": 255}, "handle_left": {"X": 0.5, "Y": 1}, "handle_right": {"X": 0.5, "Y": 0}, "handle_type": 0, "interpolation": 0}]}, "blue": {"Points": [{"co": {"X": 1, "Y": 255}, "handle_left": {"X": 0.5, "Y": 1}, "handle_right": {"X": 0.5, "Y": 0}, "handle_type": 0, "interpolation": 0}]}, "green": {"Points": [{"co": {"X": 1, "Y": 123}, "handle_left": {"X": 0.5, "Y": 1}, "handle_right": {"X": 0.5, "Y": 0}, "handle_type": 0, "interpolation": 0}]}, "red": {"Points": [{"co": {"X": 1, "Y": 0}, "handle_left": {"X": 0.5, "Y": 1}, "handle_right": {"X": 0.5, "Y": 0}, "handle_type": 0, "interpolation": 0}]}}, "waveform": false, "file_id": "GB9Q5MUFJH", "title": "capa.png", "image": "/home/mpt/.openshot_qt/thumbnail/GB9Q5MUFJH.png"}}, {"type": "update", "key": ["clips", {"id": "IXJ3JTUDTB"}], "value": {"id": "IXJ3JTUDTB", "layer": 4, "position": 1243.0000000000002, "image": "/home/mpt/.openshot_qt/thumbnail/GB9Q5MUFJH.png", "start": 0, "end": 5.366666666666666}, "partial": false, "old_values": {"alpha": {"Points": [{"co": {"X": 1, "Y": 1}, "interpolation": 2}]}, "anchor": 0, "channel_filter": {"Points": [{"co": {"X": 1, "Y": -1}, "interpolation": 2}]}, "channel_mapping": {"Points": [{"co": {"X": 1, "Y": -1}, "interpolation": 2}]}, "crop_height": {"Points": [{"co": {"X": 1, "Y": -1}, "interpolation": 2}]}, "crop_width": {"Points": [{"co": {"X": 1, "Y": -1}, "interpolation": 2}]}, "crop_x": {"Points": [{"co": {"X": 1, "Y": 0}, "interpolation": 2}]}, "crop_y": {"Points": [{"co": {"X": 1, "Y": 0}, "interpolation": 2}]}, "display": 0, "duration": 86400.0, "effects": [], "end": 10, "gravity": 4, "has_audio": {"Points": [{"co": {"X": 1, "Y": -1}, "interpolation": 2}]}, "has_video": {"Points": [{"co": {"X": 1, "Y": -1}, "interpolation": 2}]}, "id": "IXJ3JTUDTB", "layer": 4, "location_x": {"Points": [{"co": {"X": 1, "Y": 0}, "interpolation": 2}]}, "location_y": {"Points": [{"co": {"X": 1, "Y": 0}, "interpolation": 2}]}, "mixing": 0, "perspective_c1_x": {"Points": [{"co": {"X": 1, "Y": -1}, "interpolation": 2}]}, "perspective_c1_y": {"Points": [{"co": {"X": 1, "Y": -1}, "interpolation": 2}]}, "perspective_c2_x": {"Points": [{"co": {"X": 1, "Y": -1}, "interpolation": 2}]}, "perspective_c2_y": {"Points": [{"co": {"X": 1, "Y": -1}, "interpolation": 2}]}, "perspective_c3_x": {"Points": [{"co": {"X": 1, "Y": -1}, "interpolation": 2}]}, "perspective_c3_y": {"Points": [{"co": {"X": 1, "Y": -1}, "interpolation": 2}]}, "perspective_c4_x": {"Points": [{"co": {"X": 1, "Y": -1}, "interpolation": 2}]}, "perspective_c4_y": {"Points": [{"co": {"X": 1, "Y": -1}, "interpolation": 2}]}, "position": 1243.0000000000002, "reader": {"acodec": "", "audio_bit_rate": 0, "audio_stream_index": -1, "audio_timebase": {"den": 1, "num": 1}, "channel_layout": 4, "channels": 0, "display_ratio": {"den": 9, "num": 16}, "duration": 86400.0, "file_size": "3686400", "fps": {"den": 1, "num": 30}, "has_audio": false, "has_single_image": true, "has_video": true, "height": 720, "interlaced_frame": false, "metadata": {}, "path": "/home/mpt/Documentos/Projetos/sisdig/3.5-videos/painel-digital-e-protoboard/fontes/capa.png", "pixel_format": -1, "pixel_ratio": {"den": 1, "num": 1}, "sample_rate": 0, "top_field_first": true, "type": "QtImageReader", "vcodec": "", "video_bit_rate": 0, "video_length": "2592000", "video_stream_index": -1, "video_timebase": {"den": 30, "num": 1}, "width": 1280}, "rotation": {"Points": [{"co": {"X": 1, "Y": 0}, "interpolation": 2}]}, "scale": 1, "scale_x": {"Points": [{"co": {"X": 1, "Y": 1}, "interpolation": 2}]}, "scale_y": {"Points": [{"co": {"X": 1, "Y": 1}, "interpolation": 2}]}, "shear_x": {"Points": [{"co": {"X": 1, "Y": 0}, "interpolation": 2}]}, "shear_y": {"Points": [{"co": {"X": 1, "Y": 0}, "interpolation": 2}]}, "start": 0, "time": {"Points": [{"co": {"X": 1, "Y": 1}, "interpolation": 2}]}, "volume": {"Points": [{"co": {"X": 1, "Y": 1}, "interpolation": 2}]}, "wave_color": {"alpha": {"Points": [{"co": {"X": 1, "Y": 255}, "handle_left": {"X": 0.5, "Y": 1}, "handle_right": {"X": 0.5, "Y": 0}, "handle_type": 0, "interpolation": 0}]}, "blue": {"Points": [{"co": {"X": 1, "Y": 255}, "handle_left": {"X": 0.5, "Y": 1}, "handle_right": {"X": 0.5, "Y": 0}, "handle_type": 0, "interpolation": 0}]}, "green": {"Points": [{"co": {"X": 1, "Y": 123}, "handle_left": {"X": 0.5, "Y": 1}, "handle_right": {"X": 0.5, "Y": 0}, "handle_type": 0, "interpolation": 0}]}, "red": {"Points": [{"co": {"X": 1, "Y": 0}, "handle_left": {"X": 0.5, "Y": 1}, "handle_right": {"X": 0.5, "Y": 0}, "handle_type": 0, "interpolation": 0}]}}, "waveform": false, "file_id": "GB9Q5MUFJH", "title": "capa.png", "image": "/home/mpt/.openshot_qt/thumbnail/GB9Q5MUFJH.png"}}, {"type": "update", "key": ["clips", {"id": "7UIXUBFT9L"}], "value": {"alpha": {"Points": [{"co": {"X": 1, "Y": 1}, "interpolation": 2}, {"co": {"X": 5383, "Y": 0}, "handle_left": {"X": 0.5, "Y": 1}, "handle_right": {"X": 0.5, "Y": 0}, "handle_type": 0, "interpolation": 0}, {"co": {"X": 5413, "Y": 1}, "handle_left": {"X": 0.5, "Y": 1}, "handle_right": {"X": 0.5, "Y": 0}, "handle_type": 0, "interpolation": 0}, {"co": {"X": 41101, "Y": 1}, "handle_left": {"X": 0.5, "Y": 1}, "handle_right": {"X": 0.5, "Y": 0}, "handle_type": 0, "interpolation": 0}, {"co": {"X": 41131, "Y": 0}, "handle_left": {"X": 0.5, "Y": 1}, "handle_right": {"X": 0.5, "Y": 0}, "handle_type": 0, "interpolation": 0}]}, "anchor": 0, "channel_filter": {"Points": [{"co": {"X": 1, "Y": -1}, "interpolation": 2}]}, "channel_mapping": {"Points": [{"co": {"X": 1, "Y": -1}, "interpolation": 2}]}, "crop_height": {"Points": [{"co": {"X": 1, "Y": -1}, "interpolation": 2}]}, "crop_width": {"Points": [{"co": {"X": 1, "Y": -1}, "interpolation": 2}]}, "crop_x": {"Points": [{"co": {"X": 1, "Y": 0}, "interpolation": 2}]}, "crop_y": {"Points": [{"co": {"X": 1, "Y": 0}, "interpolation": 2}]}, "display": 0, "duration": 1371.0, "effects": [], "end": 1371, "gravity": 4, "has_audio": {"Points": [{"co": {"X": 1, "Y": -1}, "interpolation": 2}]}, "has_video": {"Points": [{"co": {"X": 1, "Y": -1}, "interpolation": 2}]}, "layer": 4, "location_x": {"Points": [{"co": {"X": 1, "Y": 0}, "interpolation": 2}]}, "location_y": {"Points": [{"co": {"X": 1, "Y": 0}, "interpolation": 2}]}, "mixing": 0, "perspective_c1_x": {"Points": [{"co": {"X": 1, "Y": -1}, "interpolation": 2}]}, "perspective_c1_y": {"Points": [{"co": {"X": 1, "Y": -1}, "interpolation": 2}]}, "perspective_c2_x": {"Points": [{"co": {"X": 1, "Y": -1}, "interpolation": 2}]}, "perspective_c2_y": {"Points": [{"co": {"X": 1, "Y": -1}, "interpolation": 2}]}, "perspective_c3_x": {"Points": [{"co": {"X": 1, "Y": -1}, "interpolation": 2}]}, "perspective_c3_y": {"Points": [{"co": {"X": 1, "Y": -1}, "interpolation": 2}]}, "perspective_c4_x": {"Points": [{"co": {"X": 1, "Y": -1}, "interpolation": 2}]}, "perspective_c4_y": {"Points": [{"co": {"X": 1, "Y": -1}, "interpolation": 2}]}, "position": 1237.6666666666667, "rotation": {"Points": [{"co": {"X": 1, "Y": 0}, "interpolation": 2}]}, "scale": 1, "scale_x": {"Points": [{"co": {"X": 1, "Y": 1}, "interpolation": 2}]}, "scale_y": {"Points": [{"co": {"X": 1, "Y": 1}, "interpolation": 2}]}, "shear_x": {"Points": [{"co": {"X": 1, "Y": 0}, "interpolation": 2}]}, "shear_y": {"Points": [{"co": {"X": 1, "Y": 0}, "interpolation": 2}]}, "start": 1365.6666666666667, "time": {"Points": [{"co": {"X": 1, "Y": 1}, "interpolation": 2}]}, "volume": {"Points": [{"co": {"X": 1, "Y": 1}, "interpolation": 2}]}, "wave_color": {"alpha": {"Points": [{"co": {"X": 1, "Y": 255}, "handle_left": {"X": 0.5, "Y": 1}, "handle_right": {"X": 0.5, "Y": 0}, "handle_type": 0, "interpolation": 0}]}, "blue": {"Points": [{"co": {"X": 1, "Y": 255}, "handle_left": {"X": 0.5, "Y": 1}, "handle_right": {"X": 0.5, "Y": 0}, "handle_type": 0, "interpolation": 0}]}, "green": {"Points": [{"co": {"X": 1, "Y": 123}, "handle_left": {"X": 0.5, "Y": 1}, "handle_right": {"X": 0.5, "Y": 0}, "handle_type": 0, "interpolation": 0}]}, "red": {"Points": [{"co": {"X": 1, "Y": 0}, "handle_left": {"X": 0.5, "Y": 1}, "handle_right": {"X": 0.5, "Y": 0}, "handle_type": 0, "interpolation": 0}]}}, "waveform": false, "file_id": "POT0C18IYF", "title": "uso-do-protoboard#bruto.mkv", "image": "/home/mpt/.openshot_qt/thumbnail/7UIXUBFT9L-20486.png", "id": "7UIXUBFT9L"}, "partial": false, "old_values": {"alpha": {"Points": [{"co": {"X": 1, "Y": 1}, "interpolation": 2}, {"co": {"X": 5383, "Y": 0}, "handle_left": {"X": 0.5, "Y": 1}, "handle_right": {"X": 0.5, "Y": 0}, "handle_type": 0, "interpolation": 0}, {"co": {"X": 5413, "Y": 1}, "handle_left": {"X": 0.5, "Y": 1}, "handle_right": {"X": 0.5, "Y": 0}, "handle_type": 0, "interpolation": 0}]}, "anchor": 0, "channel_filter": {"Points": [{"co": {"X": 1, "Y": -1}, "interpolation": 2}]}, "channel_mapping": {"Points": [{"co": {"X": 1, "Y": -1}, "interpolation": 2}]}, "crop_height": {"Points": [{"co": {"X": 1, "Y": -1}, "interpolation": 2}]}, "crop_width": {"Points": [{"co": {"X": 1, "Y": -1}, "interpolation": 2}]}, "crop_x": {"Points": [{"co": {"X": 1, "Y": 0}, "interpolation": 2}]}, "crop_y": {"Points": [{"co": {"X": 1, "Y": 0}, "interpolation": 2}]}, "display": 0, "duration": 1371.0, "effects": [], "end": 1371, "gravity": 4, "has_audio": {"Points": [{"co": {"X": 1, "Y": -1}, "interpolation": 2}]}, "has_video": {"Points": [{"co": {"X": 1, "Y": -1}, "interpolation": 2}]}, "layer": 4, "location_x": {"Points": [{"co": {"X": 1, "Y": 0}, "interpolation": 2}]}, "location_y": {"Points": [{"co": {"X": 1, "Y": 0}, "interpolation": 2}]}, "mixing": 0, "perspective_c1_x": {"Points": [{"co": {"X": 1, "Y": -1}, "interpolation": 2}]}, "perspective_c1_y": {"Points": [{"co": {"X": 1, "Y": -1}, "interpolation": 2}]}, "perspective_c2_x": {"Points": [{"co": {"X": 1, "Y": -1}, "interpolation": 2}]}, "perspective_c2_y": {"Points": [{"co": {"X": 1, "Y": -1}, "interpolation": 2}]}, "perspective_c3_x": {"Points": [{"co": {"X": 1, "Y": -1}, "interpolation": 2}]}, "perspective_c3_y": {"Points": [{"co": {"X": 1, "Y": -1}, "interpolation": 2}]}, "perspective_c4_x": {"Points": [{"co": {"X": 1, "Y": -1}, "interpolation": 2}]}, "perspective_c4_y": {"Points": [{"co": {"X": 1, "Y": -1}, "interpolation": 2}]}, "position": 1237.6666666666667, "reader": {"acodec": "aac", "audio_bit_rate": 0, "audio_stream_index": 1, "audio_timebase": {"den": 1000, "num": 1}, "channel_layout": 3, "channels": 2, "display_ratio": {"den": 9, "num": 16}, "duration": 1371.0, "file_size": "456740423", "fps": {"den": 1, "num": 15}, "has_audio": true, "has_single_image": false, "has_video": true, "height": 720, "interlaced_frame": false, "metadata": {"DURATION": "00:22:51.580000000", "ENCODER": "Lavf58.29.100", "title": "Track1"}, "path": "/home/mpt/Documentos/Projetos/sisdig/3.5-videos/painel-digital-e-protoboard/brutos/uso-do-protoboard#bruto.mkv", "pixel_format": 0, "pixel_ratio": {"den": 1, "num": 1}, "sample_rate": 44100, "top_field_first": true, "type": "FFmpegReader", "vcodec": "h264", "video_bit_rate": 332933, "video_length": "20565", "video_stream_index": 0, "video_timebase": {"den": 1000, "num": 1}, "width": 1280}, "rotation": {"Points": [{"co": {"X": 1, "Y": 0}, "interpolation": 2}]}, "scale": 1, "scale_x": {"Points": [{"co": {"X": 1, "Y": 1}, "interpolation": 2}]}, "scale_y": {"Points": [{"co": {"X": 1, "Y": 1}, "interpolation": 2}]}, "shear_x": {"Points": [{"co": {"X": 1, "Y": 0}, "interpolation": 2}]}, "shear_y": {"Points": [{"co": {"X": 1, "Y": 0}, "interpolation": 2}]}, "start": 1365.6666666666667, "time": {"Points": [{"co": {"X": 1, "Y": 1}, "interpolation": 2}]}, "volume": {"Points": [{"co": {"X": 1, "Y": 1}, "interpolation": 2}]}, "wave_color": {"alpha": {"Points": [{"co": {"X": 1, "Y": 255}, "handle_left": {"X": 0.5, "Y": 1}, "handle_right": {"X": 0.5, "Y": 0}, "handle_type": 0, "interpolation": 0}]}, "blue": {"Points": [{"co": {"X": 1, "Y": 255}, "handle_left": {"X": 0.5, "Y": 1}, "handle_right": {"X": 0.5, "Y": 0}, "handle_type": 0, "interpolation": 0}]}, "green": {"Points": [{"co": {"X": 1, "Y": 123}, "handle_left": {"X": 0.5, "Y": 1}, "handle_right": {"X": 0.5, "Y": 0}, "handle_type": 0, "interpolation": 0}]}, "red": {"Points": [{"co": {"X": 1, "Y": 0}, "handle_left": {"X": 0.5, "Y": 1}, "handle_right": {"X": 0.5, "Y": 0}, "handle_type": 0, "interpolation": 0}]}}, "waveform": false, "file_id": "POT0C18IYF", "title": "uso-do-protoboard#bruto.mkv", "image": "/home/mpt/.openshot_qt/thumbnail/7UIXUBFT9L-20486.png", "id": "7UIXUBFT9L"}}, {"type": "update", "key": ["clips", {"id": "IXJ3JTUDTB"}], "value": {"id": "IXJ3JTUDTB", "layer": 3, "position": 1241.7, "image": "/home/mpt/.openshot_qt/thumbnail/GB9Q5MUFJH.png", "start": 0, "end": 5.366666666666666}, "partial": false, "old_values": {"alpha": {"Points": [{"co": {"X": 1, "Y": 1}, "interpolation": 2}]}, "anchor": 0, "channel_filter": {"Points": [{"co": {"X": 1, "Y": -1}, "interpolation": 2}]}, "channel_mapping": {"Points": [{"co": {"X": 1, "Y": -1}, "interpolation": 2}]}, "crop_height": {"Points": [{"co": {"X": 1, "Y": -1}, "interpolation": 2}]}, "crop_width": {"Points": [{"co": {"X": 1, "Y": -1}, "interpolation": 2}]}, "crop_x": {"Points": [{"co": {"X": 1, "Y": 0}, "interpolation": 2}]}, "crop_y": {"Points": [{"co": {"X": 1, "Y": 0}, "interpolation": 2}]}, "display": 0, "duration": 86400.0, "effects": [], "end": 5.366666666666666, "gravity": 4, "has_audio": {"Points": [{"co": {"X": 1, "Y": -1}, "interpolation": 2}]}, "has_video": {"Points": [{"co": {"X": 1, "Y": -1}, "interpolation": 2}]}, "id": "IXJ3JTUDTB", "layer": 4, "location_x": {"Points": [{"co": {"X": 1, "Y": 0}, "interpolation": 2}]}, "location_y": {"Points": [{"co": {"X": 1, "Y": 0}, "interpolation": 2}]}, "mixing": 0, "perspective_c1_x": {"Points": [{"co": {"X": 1, "Y": -1}, "interpolation": 2}]}, "perspective_c1_y": {"Points": [{"co": {"X": 1, "Y": -1}, "interpolation": 2}]}, "perspective_c2_x": {"Points": [{"co": {"X": 1, "Y": -1}, "interpolation": 2}]}, "perspective_c2_y": {"Points": [{"co": {"X": 1, "Y": -1}, "interpolation": 2}]}, "perspective_c3_x": {"Points": [{"co": {"X": 1, "Y": -1}, "interpolation": 2}]}, "perspective_c3_y": {"Points": [{"co": {"X": 1, "Y": -1}, "interpolation": 2}]}, "perspective_c4_x": {"Points": [{"co": {"X": 1, "Y": -1}, "interpolation": 2}]}, "perspective_c4_y": {"Points": [{"co": {"X": 1, "Y": -1}, "interpolation": 2}]}, "position": 1243.0000000000002, "reader": {"acodec": "", "audio_bit_rate": 0, "audio_stream_index": -1, "audio_timebase": {"den": 1, "num": 1}, "channel_layout": 4, "channels": 0, "display_ratio": {"den": 9, "num": 16}, "duration": 86400.0, "file_size": "3686400", "fps": {"den": 1, "num": 30}, "has_audio": false, "has_single_image": true, "has_video": true, "height": 720, "interlaced_frame": false, "metadata": {}, "path": "/home/mpt/Documentos/Projetos/sisdig/3.5-videos/painel-digital-e-protoboard/fontes/capa.png", "pixel_format": -1, "pixel_ratio": {"den": 1, "num": 1}, "sample_rate": 0, "top_field_first": true, "type": "QtImageReader", "vcodec": "", "video_bit_rate": 0, "video_length": "2592000", "video_stream_index": -1, "video_timebase": {"den": 30, "num": 1}, "width": 1280}, "rotation": {"Points": [{"co": {"X": 1, "Y": 0}, "interpolation": 2}]}, "scale": 1, "scale_x": {"Points": [{"co": {"X": 1, "Y": 1}, "interpolation": 2}]}, "scale_y": {"Points": [{"co": {"X": 1, "Y": 1}, "interpolation": 2}]}, "shear_x": {"Points": [{"co": {"X": 1, "Y": 0}, "interpolation": 2}]}, "shear_y": {"Points": [{"co": {"X": 1, "Y": 0}, "interpolation": 2}]}, "start": 0, "time": {"Points": [{"co": {"X": 1, "Y": 1}, "interpolation": 2}]}, "volume": {"Points": [{"co": {"X": 1, "Y": 1}, "interpolation": 2}]}, "wave_color": {"alpha": {"Points": [{"co": {"X": 1, "Y": 255}, "handle_left": {"X": 0.5, "Y": 1}, "handle_right": {"X": 0.5, "Y": 0}, "handle_type": 0, "interpolation": 0}]}, "blue": {"Points": [{"co": {"X": 1, "Y": 255}, "handle_left": {"X": 0.5, "Y": 1}, "handle_right": {"X": 0.5, "Y": 0}, "handle_type": 0, "interpolation": 0}]}, "green": {"Points": [{"co": {"X": 1, "Y": 123}, "handle_left": {"X": 0.5, "Y": 1}, "handle_right": {"X": 0.5, "Y": 0}, "handle_type": 0, "interpolation": 0}]}, "red": {"Points": [{"co": {"X": 1, "Y": 0}, "handle_left": {"X": 0.5, "Y": 1}, "handle_right": {"X": 0.5, "Y": 0}, "handle_type": 0, "interpolation": 0}]}}, "waveform": false, "file_id": "GB9Q5MUFJH", "title": "capa.png", "image": "/home/mpt/.openshot_qt/thumbnail/GB9Q5MUFJH.png"}}, {"type": "update", "key": ["clips", {"id": "IXJ3JTUDTB"}], "value": {"id": "IXJ3JTUDTB", "layer": 3, "position": 1241.7, "image": "/home/mpt/.openshot_qt/thumbnail/GB9Q5MUFJH.png", "start": 0, "end": 6.866666666666666}, "partial": false, "old_values": {"alpha": {"Points": [{"co": {"X": 1, "Y": 1}, "interpolation": 2}]}, "anchor": 0, "channel_filter": {"Points": [{"co": {"X": 1, "Y": -1}, "interpolation": 2}]}, "channel_mapping": {"Points": [{"co": {"X": 1, "Y": -1}, "interpolation": 2}]}, "crop_height": {"Points": [{"co": {"X": 1, "Y": -1}, "interpolation": 2}]}, "crop_width": {"Points": [{"co": {"X": 1, "Y": -1}, "interpolation": 2}]}, "crop_x": {"Points": [{"co": {"X": 1, "Y": 0}, "interpolation": 2}]}, "crop_y": {"Points": [{"co": {"X": 1, "Y": 0}, "interpolation": 2}]}, "display": 0, "duration": 86400.0, "effects": [], "end": 5.366666666666666, "gravity": 4, "has_audio": {"Points": [{"co": {"X": 1, "Y": -1}, "interpolation": 2}]}, "has_video": {"Points": [{"co": {"X": 1, "Y": -1}, "interpolation": 2}]}, "id": "IXJ3JTUDTB", "layer": 3, "location_x": {"Points": [{"co": {"X": 1, "Y": 0}, "interpolation": 2}]}, "location_y": {"Points": [{"co": {"X": 1, "Y": 0}, "interpolation": 2}]}, "mixing": 0, "perspective_c1_x": {"Points": [{"co": {"X": 1, "Y": -1}, "interpolation": 2}]}, "perspective_c1_y": {"Points": [{"co": {"X": 1, "Y": -1}, "interpolation": 2}]}, "perspective_c2_x": {"Points": [{"co": {"X": 1, "Y": -1}, "interpolation": 2}]}, "perspective_c2_y": {"Points": [{"co": {"X": 1, "Y": -1}, "interpolation": 2}]}, "perspective_c3_x": {"Points": [{"co": {"X": 1, "Y": -1}, "interpolation": 2}]}, "perspective_c3_y": {"Points": [{"co": {"X": 1, "Y": -1}, "interpolation": 2}]}, "perspective_c4_x": {"Points": [{"co": {"X": 1, "Y": -1}, "interpolation": 2}]}, "perspective_c4_y": {"Points": [{"co": {"X": 1, "Y": -1}, "interpolation": 2}]}, "position": 1241.7, "reader": {"acodec": "", "audio_bit_rate": 0, "audio_stream_index": -1, "audio_timebase": {"den": 1, "num": 1}, "channel_layout": 4, "channels": 0, "display_ratio": {"den": 9, "num": 16}, "duration": 86400.0, "file_size": "3686400", "fps": {"den": 1, "num": 30}, "has_audio": false, "has_single_image": true, "has_video": true, "height": 720, "interlaced_frame": false, "metadata": {}, "path": "/home/mpt/Documentos/Projetos/sisdig/3.5-videos/painel-digital-e-protoboard/fontes/capa.png", "pixel_format": -1, "pixel_ratio": {"den": 1, "num": 1}, "sample_rate": 0, "top_field_first": true, "type": "QtImageReader", "vcodec": "", "video_bit_rate": 0, "video_length": "2592000", "video_stream_index": -1, "video_timebase": {"den": 30, "num": 1}, "width": 1280}, "rotation": {"Points": [{"co": {"X": 1, "Y": 0}, "interpolation": 2}]}, "scale": 1, "scale_x": {"Points": [{"co": {"X": 1, "Y": 1}, "interpolation": 2}]}, "scale_y": {"Points": [{"co": {"X": 1, "Y": 1}, "interpolation": 2}]}, "shear_x": {"Points": [{"co": {"X": 1, "Y": 0}, "interpolation": 2}]}, "shear_y": {"Points": [{"co": {"X": 1, "Y": 0}, "interpolation": 2}]}, "start": 0, "time": {"Points": [{"co": {"X": 1, "Y": 1}, "interpolation": 2}]}, "volume": {"Points": [{"co": {"X": 1, "Y": 1}, "interpolation": 2}]}, "wave_color": {"alpha": {"Points": [{"co": {"X": 1, "Y": 255}, "handle_left": {"X": 0.5, "Y": 1}, "handle_right": {"X": 0.5, "Y": 0}, "handle_type": 0, "interpolation": 0}]}, "blue": {"Points": [{"co": {"X": 1, "Y": 255}, "handle_left": {"X": 0.5, "Y": 1}, "handle_right": {"X": 0.5, "Y": 0}, "handle_type": 0, "interpolation": 0}]}, "green": {"Points": [{"co": {"X": 1, "Y": 123}, "handle_left": {"X": 0.5, "Y": 1}, "handle_right": {"X": 0.5, "Y": 0}, "handle_type": 0, "interpolation": 0}]}, "red": {"Points": [{"co": {"X": 1, "Y": 0}, "handle_left": {"X": 0.5, "Y": 1}, "handle_right": {"X": 0.5, "Y": 0}, "handle_type": 0, "interpolation": 0}]}}, "waveform": false, "file_id": "GB9Q5MUFJH", "title": "capa.png", "image": "/home/mpt/.openshot_qt/thumbnail/GB9Q5MUFJH.png"}}, {"type": "update", "key": ["clips", {"id": "IXJ3JTUDTB"}], "value": {"alpha": {"Points": [{"co": {"X": 1, "Y": 1}, "interpolation": 2}, {"co": {"X": 1, "Y": 0}, "handle_left": {"X": 0.5, "Y": 1}, "handle_right": {"X": 0.5, "Y": 0}, "handle_type": 0, "interpolation": 0}, {"co": {"X": 31, "Y": 1}, "handle_left": {"X": 0.5, "Y": 1}, "handle_right": {"X": 0.5, "Y": 0}, "handle_type": 0, "interpolation": 0}]}, "anchor": 0, "channel_filter": {"Points": [{"co": {"X": 1, "Y": -1}, "interpolation": 2}]}, "channel_mapping": {"Points": [{"co": {"X": 1, "Y": -1}, "interpolation": 2}]}, "crop_height": {"Points": [{"co": {"X": 1, "Y": -1}, "interpolation": 2}]}, "crop_width": {"Points": [{"co": {"X": 1, "Y": -1}, "interpolation": 2}]}, "crop_x": {"Points": [{"co": {"X": 1, "Y": 0}, "interpolation": 2}]}, "crop_y": {"Points": [{"co": {"X": 1, "Y": 0}, "interpolation": 2}]}, "display": 0, "duration": 86400.0, "effects": [], "end": 6.866666666666666, "gravity": 4, "has_audio": {"Points": [{"co": {"X": 1, "Y": -1}, "interpolation": 2}]}, "has_video": {"Points": [{"co": {"X": 1, "Y": -1}, "interpolation": 2}]}, "id": "IXJ3JTUDTB", "layer": 3, "location_x": {"Points": [{"co": {"X": 1, "Y": 0}, "interpolation": 2}]}, "location_y": {"Points": [{"co": {"X": 1, "Y": 0}, "interpolation": 2}]}, "mixing": 0, "perspective_c1_x": {"Points": [{"co": {"X": 1, "Y": -1}, "interpolation": 2}]}, "perspective_c1_y": {"Points": [{"co": {"X": 1, "Y": -1}, "interpolation": 2}]}, "perspective_c2_x": {"Points": [{"co": {"X": 1, "Y": -1}, "interpolation": 2}]}, "perspective_c2_y": {"Points": [{"co": {"X": 1, "Y": -1}, "interpolation": 2}]}, "perspective_c3_x": {"Points": [{"co": {"X": 1, "Y": -1}, "interpolation": 2}]}, "perspective_c3_y": {"Points": [{"co": {"X": 1, "Y": -1}, "interpolation": 2}]}, "perspective_c4_x": {"Points": [{"co": {"X": 1, "Y": -1}, "interpolation": 2}]}, "perspective_c4_y": {"Points": [{"co": {"X": 1, "Y": -1}, "interpolation": 2}]}, "position": 1241.7, "rotation": {"Points": [{"co": {"X": 1, "Y": 0}, "interpolation": 2}]}, "scale": 1, "scale_x": {"Points": [{"co": {"X": 1, "Y": 1}, "interpolation": 2}]}, "scale_y": {"Points": [{"co": {"X": 1, "Y": 1}, "interpolation": 2}]}, "shear_x": {"Points": [{"co": {"X": 1, "Y": 0}, "interpolation": 2}]}, "shear_y": {"Points": [{"co": {"X": 1, "Y": 0}, "interpolation": 2}]}, "start": 0, "time": {"Points": [{"co": {"X": 1, "Y": 1}, "interpolation": 2}]}, "volume": {"Points": [{"co": {"X": 1, "Y": 1}, "interpolation": 2}]}, "wave_color": {"alpha": {"Points": [{"co": {"X": 1, "Y": 255}, "handle_left": {"X": 0.5, "Y": 1}, "handle_right": {"X": 0.5, "Y": 0}, "handle_type": 0, "interpolation": 0}]}, "blue": {"Points": [{"co": {"X": 1, "Y": 255}, "handle_left": {"X": 0.5, "Y": 1}, "handle_right": {"X": 0.5, "Y": 0}, "handle_type": 0, "interpolation": 0}]}, "green": {"Points": [{"co": {"X": 1, "Y": 123}, "handle_left": {"X": 0.5, "Y": 1}, "handle_right": {"X": 0.5, "Y": 0}, "handle_type": 0, "interpolation": 0}]}, "red": {"Points": [{"co": {"X": 1, "Y": 0}, "handle_left": {"X": 0.5, "Y": 1}, "handle_right": {"X": 0.5, "Y": 0}, "handle_type": 0, "interpolation": 0}]}}, "waveform": false, "file_id": "GB9Q5MUFJH", "title": "capa.png", "image": "/home/mpt/.openshot_qt/thumbnail/GB9Q5MUFJH.png"}, "partial": false, "old_values": {"alpha": {"Points": [{"co": {"X": 1, "Y": 1}, "interpolation": 2}]}, "anchor": 0, "channel_filter": {"Points": [{"co": {"X": 1, "Y": -1}, "interpolation": 2}]}, "channel_mapping": {"Points": [{"co": {"X": 1, "Y": -1}, "interpolation": 2}]}, "crop_height": {"Points": [{"co": {"X": 1, "Y": -1}, "interpolation": 2}]}, "crop_width": {"Points": [{"co": {"X": 1, "Y": -1}, "interpolation": 2}]}, "crop_x": {"Points": [{"co": {"X": 1, "Y": 0}, "interpolation": 2}]}, "crop_y": {"Points": [{"co": {"X": 1, "Y": 0}, "interpolation": 2}]}, "display": 0, "duration": 86400.0, "effects": [], "end": 6.866666666666666, "gravity": 4, "has_audio": {"Points": [{"co": {"X": 1, "Y": -1}, "interpolation": 2}]}, "has_video": {"Points": [{"co": {"X": 1, "Y": -1}, "interpolation": 2}]}, "id": "IXJ3JTUDTB", "layer": 3, "location_x": {"Points": [{"co": {"X": 1, "Y": 0}, "interpolation": 2}]}, "location_y": {"Points": [{"co": {"X": 1, "Y": 0}, "interpolation": 2}]}, "mixing": 0, "perspective_c1_x": {"Points": [{"co": {"X": 1, "Y": -1}, "interpolation": 2}]}, "perspective_c1_y": {"Points": [{"co": {"X": 1, "Y": -1}, "interpolation": 2}]}, "perspective_c2_x": {"Points": [{"co": {"X": 1, "Y": -1}, "interpolation": 2}]}, "perspective_c2_y": {"Points": [{"co": {"X": 1, "Y": -1}, "interpolation": 2}]}, "perspective_c3_x": {"Points": [{"co": {"X": 1, "Y": -1}, "interpolation": 2}]}, "perspective_c3_y": {"Points": [{"co": {"X": 1, "Y": -1}, "interpolation": 2}]}, "perspective_c4_x": {"Points": [{"co": {"X": 1, "Y": -1}, "interpolation": 2}]}, "perspective_c4_y": {"Points": [{"co": {"X": 1, "Y": -1}, "interpolation": 2}]}, "position": 1241.7, "reader": {"acodec": "", "audio_bit_rate": 0, "audio_stream_index": -1, "audio_timebase": {"den": 1, "num": 1}, "channel_layout": 4, "channels": 0, "display_ratio": {"den": 9, "num": 16}, "duration": 86400.0, "file_size": "3686400", "fps": {"den": 1, "num": 30}, "has_audio": false, "has_single_image": true, "has_video": true, "height": 720, "interlaced_frame": false, "metadata": {}, "path": "/home/mpt/Documentos/Projetos/sisdig/3.5-videos/painel-digital-e-protoboard/fontes/capa.png", "pixel_format": -1, "pixel_ratio": {"den": 1, "num": 1}, "sample_rate": 0, "top_field_first": true, "type": "QtImageReader", "vcodec": "", "video_bit_rate": 0, "video_length": "2592000", "video_stream_index": -1, "video_timebase": {"den": 30, "num": 1}, "width": 1280}, "rotation": {"Points": [{"co": {"X": 1, "Y": 0}, "interpolation": 2}]}, "scale": 1, "scale_x": {"Points": [{"co": {"X": 1, "Y": 1}, "interpolation": 2}]}, "scale_y": {"Points": [{"co": {"X": 1, "Y": 1}, "interpolation": 2}]}, "shear_x": {"Points": [{"co": {"X": 1, "Y": 0}, "interpolation": 2}]}, "shear_y": {"Points": [{"co": {"X": 1, "Y": 0}, "interpolation": 2}]}, "start": 0, "time": {"Points": [{"co": {"X": 1, "Y": 1}, "interpolation": 2}]}, "volume": {"Points": [{"co": {"X": 1, "Y": 1}, "interpolation": 2}]}, "wave_color": {"alpha": {"Points": [{"co": {"X": 1, "Y": 255}, "handle_left": {"X": 0.5, "Y": 1}, "handle_right": {"X": 0.5, "Y": 0}, "handle_type": 0, "interpolation": 0}]}, "blue": {"Points": [{"co": {"X": 1, "Y": 255}, "handle_left": {"X": 0.5, "Y": 1}, "handle_right": {"X": 0.5, "Y": 0}, "handle_type": 0, "interpolation": 0}]}, "green": {"Points": [{"co": {"X": 1, "Y": 123}, "handle_left": {"X": 0.5, "Y": 1}, "handle_right": {"X": 0.5, "Y": 0}, "handle_type": 0, "interpolation": 0}]}, "red": {"Points": [{"co": {"X": 1, "Y": 0}, "handle_left": {"X": 0.5, "Y": 1}, "handle_right": {"X": 0.5, "Y": 0}, "handle_type": 0, "interpolation": 0}]}}, "waveform": false, "file_id": "GB9Q5MUFJH", "title": "capa.png", "image": "/home/mpt/.openshot_qt/thumbnail/GB9Q5MUFJH.png"}}, {"type": "update", "key": ["clips", {"id": "IXJ3JTUDTB"}], "value": {"alpha": {"Points": [{"co": {"X": 1, "Y": 1}, "interpolation": 2}, {"co": {"X": 1, "Y": 0}, "handle_left": {"X": 0.5, "Y": 1}, "handle_right": {"X": 0.5, "Y": 0}, "handle_type": 0, "interpolation": 0}, {"co": {"X": 31, "Y": 1}, "handle_left": {"X": 0.5, "Y": 1}, "handle_right": {"X": 0.5, "Y": 0}, "handle_type": 0, "interpolation": 0}, {"co": {"X": 177, "Y": 1}, "handle_left": {"X": 0.5, "Y": 1}, "handle_right": {"X": 0.5, "Y": 0}, "handle_type": 0, "interpolation": 0}, {"co": {"X": 207, "Y": 0}, "handle_left": {"X": 0.5, "Y": 1}, "handle_right": {"X": 0.5, "Y": 0}, "handle_type": 0, "interpolation": 0}]}, "anchor": 0, "channel_filter": {"Points": [{"co": {"X": 1, "Y": -1}, "interpolation": 2}]}, "channel_mapping": {"Points": [{"co": {"X": 1, "Y": -1}, "interpolation": 2}]}, "crop_height": {"Points": [{"co": {"X": 1, "Y": -1}, "interpolation": 2}]}, "crop_width": {"Points": [{"co": {"X": 1, "Y": -1}, "interpolation": 2}]}, "crop_x": {"Points": [{"co": {"X": 1, "Y": 0}, "interpolation": 2}]}, "crop_y": {"Points": [{"co": {"X": 1, "Y": 0}, "interpolation": 2}]}, "display": 0, "duration": 86400.0, "effects": [], "end": 6.866666666666666, "gravity": 4, "has_audio": {"Points": [{"co": {"X": 1, "Y": -1}, "interpolation": 2}]}, "has_video": {"Points": [{"co": {"X": 1, "Y": -1}, "interpolation": 2}]}, "id": "IXJ3JTUDTB", "layer": 3, "location_x": {"Points": [{"co": {"X": 1, "Y": 0}, "interpolation": 2}]}, "location_y": {"Points": [{"co": {"X": 1, "Y": 0}, "interpolation": 2}]}, "mixing": 0, "perspective_c1_x": {"Points": [{"co": {"X": 1, "Y": -1}, "interpolation": 2}]}, "perspective_c1_y": {"Points": [{"co": {"X": 1, "Y": -1}, "interpolation": 2}]}, "perspective_c2_x": {"Points": [{"co": {"X": 1, "Y": -1}, "interpolation": 2}]}, "perspective_c2_y": {"Points": [{"co": {"X": 1, "Y": -1}, "interpolation": 2}]}, "perspective_c3_x": {"Points": [{"co": {"X": 1, "Y": -1}, "interpolation": 2}]}, "perspective_c3_y": {"Points": [{"co": {"X": 1, "Y": -1}, "interpolation": 2}]}, "perspective_c4_x": {"Points": [{"co": {"X": 1, "Y": -1}, "interpolation": 2}]}, "perspective_c4_y": {"Points": [{"co": {"X": 1, "Y": -1}, "interpolation": 2}]}, "position": 1241.7, "rotation": {"Points": [{"co": {"X": 1, "Y": 0}, "interpolation": 2}]}, "scale": 1, "scale_x": {"Points": [{"co": {"X": 1, "Y": 1}, "interpolation": 2}]}, "scale_y": {"Points": [{"co": {"X": 1, "Y": 1}, "interpolation": 2}]}, "shear_x": {"Points": [{"co": {"X": 1, "Y": 0}, "interpolation": 2}]}, "shear_y": {"Points": [{"co": {"X": 1, "Y": 0}, "interpolation": 2}]}, "start": 0, "time": {"Points": [{"co": {"X": 1, "Y": 1}, "interpolation": 2}]}, "volume": {"Points": [{"co": {"X": 1, "Y": 1}, "interpolation": 2}]}, "wave_color": {"alpha": {"Points": [{"co": {"X": 1, "Y": 255}, "handle_left": {"X": 0.5, "Y": 1}, "handle_right": {"X": 0.5, "Y": 0}, "handle_type": 0, "interpolation": 0}]}, "blue": {"Points": [{"co": {"X": 1, "Y": 255}, "handle_left": {"X": 0.5, "Y": 1}, "handle_right": {"X": 0.5, "Y": 0}, "handle_type": 0, "interpolation": 0}]}, "green": {"Points": [{"co": {"X": 1, "Y": 123}, "handle_left": {"X": 0.5, "Y": 1}, "handle_right": {"X": 0.5, "Y": 0}, "handle_type": 0, "interpolation": 0}]}, "red": {"Points": [{"co": {"X": 1, "Y": 0}, "handle_left": {"X": 0.5, "Y": 1}, "handle_right": {"X": 0.5, "Y": 0}, "handle_type": 0, "interpolation": 0}]}}, "waveform": false, "file_id": "GB9Q5MUFJH", "title": "capa.png", "image": "/home/mpt/.openshot_qt/thumbnail/GB9Q5MUFJH.png"}, "partial": false, "old_values": {"alpha": {"Points": [{"co": {"X": 1, "Y": 1}, "interpolation": 2}, {"co": {"X": 1, "Y": 0}, "handle_left": {"X": 0.5, "Y": 1}, "handle_right": {"X": 0.5, "Y": 0}, "handle_type": 0, "interpolation": 0}, {"co": {"X": 31, "Y": 1}, "handle_left": {"X": 0.5, "Y": 1}, "handle_right": {"X": 0.5, "Y": 0}, "handle_type": 0, "interpolation": 0}]}, "anchor": 0, "channel_filter": {"Points": [{"co": {"X": 1, "Y": -1}, "interpolation": 2}]}, "channel_mapping": {"Points": [{"co": {"X": 1, "Y": -1}, "interpolation": 2}]}, "crop_height": {"Points": [{"co": {"X": 1, "Y": -1}, "interpolation": 2}]}, "crop_width": {"Points": [{"co": {"X": 1, "Y": -1}, "interpolation": 2}]}, "crop_x": {"Points": [{"co": {"X": 1, "Y": 0}, "interpolation": 2}]}, "crop_y": {"Points": [{"co": {"X": 1, "Y": 0}, "interpolation": 2}]}, "display": 0, "duration": 86400.0, "effects": [], "end": 6.866666666666666, "gravity": 4, "has_audio": {"Points": [{"co": {"X": 1, "Y": -1}, "interpolation": 2}]}, "has_video": {"Points": [{"co": {"X": 1, "Y": -1}, "interpolation": 2}]}, "id": "IXJ3JTUDTB", "layer": 3, "location_x": {"Points": [{"co": {"X": 1, "Y": 0}, "interpolation": 2}]}, "location_y": {"Points": [{"co": {"X": 1, "Y": 0}, "interpolation": 2}]}, "mixing": 0, "perspective_c1_x": {"Points": [{"co": {"X": 1, "Y": -1}, "interpolation": 2}]}, "perspective_c1_y": {"Points": [{"co": {"X": 1, "Y": -1}, "interpolation": 2}]}, "perspective_c2_x": {"Points": [{"co": {"X": 1, "Y": -1}, "interpolation": 2}]}, "perspective_c2_y": {"Points": [{"co": {"X": 1, "Y": -1}, "interpolation": 2}]}, "perspective_c3_x": {"Points": [{"co": {"X": 1, "Y": -1}, "interpolation": 2}]}, "perspective_c3_y": {"Points": [{"co": {"X": 1, "Y": -1}, "interpolation": 2}]}, "perspective_c4_x": {"Points": [{"co": {"X": 1, "Y": -1}, "interpolation": 2}]}, "perspective_c4_y": {"Points": [{"co": {"X": 1, "Y": -1}, "interpolation": 2}]}, "position": 1241.7, "reader": {"acodec": "", "audio_bit_rate": 0, "audio_stream_index": -1, "audio_timebase": {"den": 1, "num": 1}, "channel_layout": 4, "channels": 0, "display_ratio": {"den": 9, "num": 16}, "duration": 86400.0, "file_size": "3686400", "fps": {"den": 1, "num": 30}, "has_audio": false, "has_single_image": true, "has_video": true, "height": 720, "interlaced_frame": false, "metadata": {}, "path": "/home/mpt/Documentos/Projetos/sisdig/3.5-videos/painel-digital-e-protoboard/fontes/capa.png", "pixel_format": -1, "pixel_ratio": {"den": 1, "num": 1}, "sample_rate": 0, "top_field_first": true, "type": "QtImageReader", "vcodec": "", "video_bit_rate": 0, "video_length": "2592000", "video_stream_index": -1, "video_timebase": {"den": 30, "num": 1}, "width": 1280}, "rotation": {"Points": [{"co": {"X": 1, "Y": 0}, "interpolation": 2}]}, "scale": 1, "scale_x": {"Points": [{"co": {"X": 1, "Y": 1}, "interpolation": 2}]}, "scale_y": {"Points": [{"co": {"X": 1, "Y": 1}, "interpolation": 2}]}, "shear_x": {"Points": [{"co": {"X": 1, "Y": 0}, "interpolation": 2}]}, "shear_y": {"Points": [{"co": {"X": 1, "Y": 0}, "interpolation": 2}]}, "start": 0, "time": {"Points": [{"co": {"X": 1, "Y": 1}, "interpolation": 2}]}, "volume": {"Points": [{"co": {"X": 1, "Y": 1}, "interpolation": 2}]}, "wave_color": {"alpha": {"Points": [{"co": {"X": 1, "Y": 255}, "handle_left": {"X": 0.5, "Y": 1}, "handle_right": {"X": 0.5, "Y": 0}, "handle_type": 0, "interpolation": 0}]}, "blue": {"Points": [{"co": {"X": 1, "Y": 255}, "handle_left": {"X": 0.5, "Y": 1}, "handle_right": {"X": 0.5, "Y": 0}, "handle_type": 0, "interpolation": 0}]}, "green": {"Points": [{"co": {"X": 1, "Y": 123}, "handle_left": {"X": 0.5, "Y": 1}, "handle_right": {"X": 0.5, "Y": 0}, "handle_type": 0, "interpolation": 0}]}, "red": {"Points": [{"co": {"X": 1, "Y": 0}, "handle_left": {"X": 0.5, "Y": 1}, "handle_right": {"X": 0.5, "Y": 0}, "handle_type": 0, "interpolation": 0}]}}, "waveform": false, "file_id": "GB9Q5MUFJH", "title": "capa.png", "image": "/home/mpt/.openshot_qt/thumbnail/GB9Q5MUFJH.png"}}, {"type": "update", "key": ["clips", {"id": "IXJ3JTUDTB"}], "value": {"id": "IXJ3JTUDTB", "layer": 3, "position": 1241.7, "image": "/home/mpt/.openshot_qt/thumbnail/GB9Q5MUFJH.png", "start": 0, "end": 4.633333333333334}, "partial": false, "old_values": {"alpha": {"Points": [{"co": {"X": 1, "Y": 1}, "interpolation": 2}, {"co": {"X": 1, "Y": 0}, "handle_left": {"X": 0.5, "Y": 1}, "handle_right": {"X": 0.5, "Y": 0}, "handle_type": 0, "interpolation": 0}, {"co": {"X": 31, "Y": 1}, "handle_left": {"X": 0.5, "Y": 1}, "handle_right": {"X": 0.5, "Y": 0}, "handle_type": 0, "interpolation": 0}, {"co": {"X": 177, "Y": 1}, "handle_left": {"X": 0.5, "Y": 1}, "handle_right": {"X": 0.5, "Y": 0}, "handle_type": 0, "interpolation": 0}, {"co": {"X": 207, "Y": 0}, "handle_left": {"X": 0.5, "Y": 1}, "handle_right": {"X": 0.5, "Y": 0}, "handle_type": 0, "interpolation": 0}]}, "anchor": 0, "channel_filter": {"Points": [{"co": {"X": 1, "Y": -1}, "interpolation": 2}]}, "channel_mapping": {"Points": [{"co": {"X": 1, "Y": -1}, "interpolation": 2}]}, "crop_height": {"Points": [{"co": {"X": 1, "Y": -1}, "interpolation": 2}]}, "crop_width": {"Points": [{"co": {"X": 1, "Y": -1}, "interpolation": 2}]}, "crop_x": {"Points": [{"co": {"X": 1, "Y": 0}, "interpolation": 2}]}, "crop_y": {"Points": [{"co": {"X": 1, "Y": 0}, "interpolation": 2}]}, "display": 0, "duration": 86400.0, "effects": [], "end": 6.866666666666666, "gravity": 4, "has_audio": {"Points": [{"co": {"X": 1, "Y": -1}, "interpolation": 2}]}, "has_video": {"Points": [{"co": {"X": 1, "Y": -1}, "interpolation": 2}]}, "id": "IXJ3JTUDTB", "layer": 3, "location_x": {"Points": [{"co": {"X": 1, "Y": 0}, "interpolation": 2}]}, "location_y": {"Points": [{"co": {"X": 1, "Y": 0}, "interpolation": 2}]}, "mixing": 0, "perspective_c1_x": {"Points": [{"co": {"X": 1, "Y": -1}, "interpolation": 2}]}, "perspective_c1_y": {"Points": [{"co": {"X": 1, "Y": -1}, "interpolation": 2}]}, "perspective_c2_x": {"Points": [{"co": {"X": 1, "Y": -1}, "interpolation": 2}]}, "perspective_c2_y": {"Points": [{"co": {"X": 1, "Y": -1}, "interpolation": 2}]}, "perspective_c3_x": {"Points": [{"co": {"X": 1, "Y": -1}, "interpolation": 2}]}, "perspective_c3_y": {"Points": [{"co": {"X": 1, "Y": -1}, "interpolation": 2}]}, "perspective_c4_x": {"Points": [{"co": {"X": 1, "Y": -1}, "interpolation": 2}]}, "perspective_c4_y": {"Points": [{"co": {"X": 1, "Y": -1}, "interpolation": 2}]}, "position": 1241.7, "reader": {"acodec": "", "audio_bit_rate": 0, "audio_stream_index": -1, "audio_timebase": {"den": 1, "num": 1}, "channel_layout": 4, "channels": 0, "display_ratio": {"den": 9, "num": 16}, "duration": 86400.0, "file_size": "3686400", "fps": {"den": 1, "num": 30}, "has_audio": false, "has_single_image": true, "has_video": true, "height": 720, "interlaced_frame": false, "metadata": {}, "path": "/home/mpt/Documentos/Projetos/sisdig/3.5-videos/painel-digital-e-protoboard/fontes/capa.png", "pixel_format": -1, "pixel_ratio": {"den": 1, "num": 1}, "sample_rate": 0, "top_field_first": true, "type": "QtImageReader", "vcodec": "", "video_bit_rate": 0, "video_length": "2592000", "video_stream_index": -1, "video_timebase": {"den": 30, "num": 1}, "width": 1280}, "rotation": {"Points": [{"co": {"X": 1, "Y": 0}, "interpolation": 2}]}, "scale": 1, "scale_x": {"Points": [{"co": {"X": 1, "Y": 1}, "interpolation": 2}]}, "scale_y": {"Points": [{"co": {"X": 1, "Y": 1}, "interpolation": 2}]}, "shear_x": {"Points": [{"co": {"X": 1, "Y": 0}, "interpolation": 2}]}, "shear_y": {"Points": [{"co": {"X": 1, "Y": 0}, "interpolation": 2}]}, "start": 0, "time": {"Points": [{"co": {"X": 1, "Y": 1}, "interpolation": 2}]}, "volume": {"Points": [{"co": {"X": 1, "Y": 1}, "interpolation": 2}]}, "wave_color": {"alpha": {"Points": [{"co": {"X": 1, "Y": 255}, "handle_left": {"X": 0.5, "Y": 1}, "handle_right": {"X": 0.5, "Y": 0}, "handle_type": 0, "interpolation": 0}]}, "blue": {"Points": [{"co": {"X": 1, "Y": 255}, "handle_left": {"X": 0.5, "Y": 1}, "handle_right": {"X": 0.5, "Y": 0}, "handle_type": 0, "interpolation": 0}]}, "green": {"Points": [{"co": {"X": 1, "Y": 123}, "handle_left": {"X": 0.5, "Y": 1}, "handle_right": {"X": 0.5, "Y": 0}, "handle_type": 0, "interpolation": 0}]}, "red": {"Points": [{"co": {"X": 1, "Y": 0}, "handle_left": {"X": 0.5, "Y": 1}, "handle_right": {"X": 0.5, "Y": 0}, "handle_type": 0, "interpolation": 0}]}}, "waveform": false, "file_id": "GB9Q5MUFJH", "title": "capa.png", "image": "/home/mpt/.openshot_qt/thumbnail/GB9Q5MUFJH.png"}}, {"type": "update", "key": ["clips", {"id": "IXJ3JTUDTB"}], "value": {"alpha": {"Points": [{"co": {"X": 1, "Y": 1}, "interpolation": 2}, {"co": {"X": 1, "Y": 0}, "handle_left": {"X": 0.5, "Y": 1}, "handle_right": {"X": 0.5, "Y": 0}, "handle_type": 0, "interpolation": 0}, {"co": {"X": 31, "Y": 1}, "handle_left": {"X": 0.5, "Y": 1}, "handle_right": {"X": 0.5, "Y": 0}, "handle_type": 0, "interpolation": 0}, {"co": {"X": 177, "Y": 1}, "handle_left": {"X": 0.5, "Y": 1}, "handle_right": {"X": 0.5, "Y": 0}, "handle_type": 0, "interpolation": 0}, {"co": {"X": 207, "Y": 0}, "handle_left": {"X": 0.5, "Y": 1}, "handle_right": {"X": 0.5, "Y": 0}, "handle_type": 0, "interpolation": 0}, {"co": {"X": 110, "Y": 1}, "handle_left": {"X": 0.5, "Y": 1}, "handle_right": {"X": 0.5, "Y": 0}, "handle_type": 0, "interpolation": 0}, {"co": {"X": 140, "Y": 0}, "handle_left": {"X": 0.5, "Y": 1}, "handle_right": {"X": 0.5, "Y": 0}, "handle_type": 0, "interpolation": 0}]}, "anchor": 0, "channel_filter": {"Points": [{"co": {"X": 1, "Y": -1}, "interpolation": 2}]}, "channel_mapping": {"Points": [{"co": {"X": 1, "Y": -1}, "interpolation": 2}]}, "crop_height": {"Points": [{"co": {"X": 1, "Y": -1}, "interpolation": 2}]}, "crop_width": {"Points": [{"co": {"X": 1, "Y": -1}, "interpolation": 2}]}, "crop_x": {"Points": [{"co": {"X": 1, "Y": 0}, "interpolation": 2}]}, "crop_y": {"Points": [{"co": {"X": 1, "Y": 0}, "interpolation": 2}]}, "display": 0, "duration": 86400.0, "effects": [], "end": 4.633333333333334, "gravity": 4, "has_audio": {"Points": [{"co": {"X": 1, "Y": -1}, "interpolation": 2}]}, "has_video": {"Points": [{"co": {"X": 1, "Y": -1}, "interpolation": 2}]}, "id": "IXJ3JTUDTB", "layer": 3, "location_x": {"Points": [{"co": {"X": 1, "Y": 0}, "interpolation": 2}]}, "location_y": {"Points": [{"co": {"X": 1, "Y": 0}, "interpolation": 2}]}, "mixing": 0, "perspective_c1_x": {"Points": [{"co": {"X": 1, "Y": -1}, "interpolation": 2}]}, "perspective_c1_y": {"Points": [{"co": {"X": 1, "Y": -1}, "interpolation": 2}]}, "perspective_c2_x": {"Points": [{"co": {"X": 1, "Y": -1}, "interpolation": 2}]}, "perspective_c2_y": {"Points": [{"co": {"X": 1, "Y": -1}, "interpolation": 2}]}, "perspective_c3_x": {"Points": [{"co": {"X": 1, "Y": -1}, "interpolation": 2}]}, "perspective_c3_y": {"Points": [{"co": {"X": 1, "Y": -1}, "interpolation": 2}]}, "perspective_c4_x": {"Points": [{"co": {"X": 1, "Y": -1}, "interpolation": 2}]}, "perspective_c4_y": {"Points": [{"co": {"X": 1, "Y": -1}, "interpolation": 2}]}, "position": 1241.7, "rotation": {"Points": [{"co": {"X": 1, "Y": 0}, "interpolation": 2}]}, "scale": 1, "scale_x": {"Points": [{"co": {"X": 1, "Y": 1}, "interpolation": 2}]}, "scale_y": {"Points": [{"co": {"X": 1, "Y": 1}, "interpolation": 2}]}, "shear_x": {"Points": [{"co": {"X": 1, "Y": 0}, "interpolation": 2}]}, "shear_y": {"Points": [{"co": {"X": 1, "Y": 0}, "interpolation": 2}]}, "start": 0, "time": {"Points": [{"co": {"X": 1, "Y": 1}, "interpolation": 2}]}, "volume": {"Points": [{"co": {"X": 1, "Y": 1}, "interpolation": 2}]}, "wave_color": {"alpha": {"Points": [{"co": {"X": 1, "Y": 255}, "handle_left": {"X": 0.5, "Y": 1}, "handle_right": {"X": 0.5, "Y": 0}, "handle_type": 0, "interpolation": 0}]}, "blue": {"Points": [{"co": {"X": 1, "Y": 255}, "handle_left": {"X": 0.5, "Y": 1}, "handle_right": {"X": 0.5, "Y": 0}, "handle_type": 0, "interpolation": 0}]}, "green": {"Points": [{"co": {"X": 1, "Y": 123}, "handle_left": {"X": 0.5, "Y": 1}, "handle_right": {"X": 0.5, "Y": 0}, "handle_type": 0, "interpolation": 0}]}, "red": {"Points": [{"co": {"X": 1, "Y": 0}, "handle_left": {"X": 0.5, "Y": 1}, "handle_right": {"X": 0.5, "Y": 0}, "handle_type": 0, "interpolation": 0}]}}, "waveform": false, "file_id": "GB9Q5MUFJH", "title": "capa.png", "image": "/home/mpt/.openshot_qt/thumbnail/GB9Q5MUFJH.png"}, "partial": false, "old_values": {"alpha": {"Points": [{"co": {"X": 1, "Y": 1}, "interpolation": 2}, {"co": {"X": 1, "Y": 0}, "handle_left": {"X": 0.5, "Y": 1}, "handle_right": {"X": 0.5, "Y": 0}, "handle_type": 0, "interpolation": 0}, {"co": {"X": 31, "Y": 1}, "handle_left": {"X": 0.5, "Y": 1}, "handle_right": {"X": 0.5, "Y": 0}, "handle_type": 0, "interpolation": 0}, {"co": {"X": 177, "Y": 1}, "handle_left": {"X": 0.5, "Y": 1}, "handle_right": {"X": 0.5, "Y": 0}, "handle_type": 0, "interpolation": 0}, {"co": {"X": 207, "Y": 0}, "handle_left": {"X": 0.5, "Y": 1}, "handle_right": {"X": 0.5, "Y": 0}, "handle_type": 0, "interpolation": 0}]}, "anchor": 0, "channel_filter": {"Points": [{"co": {"X": 1, "Y": -1}, "interpolation": 2}]}, "channel_mapping": {"Points": [{"co": {"X": 1, "Y": -1}, "interpolation": 2}]}, "crop_height": {"Points": [{"co": {"X": 1, "Y": -1}, "interpolation": 2}]}, "crop_width": {"Points": [{"co": {"X": 1, "Y": -1}, "interpolation": 2}]}, "crop_x": {"Points": [{"co": {"X": 1, "Y": 0}, "interpolation": 2}]}, "crop_y": {"Points": [{"co": {"X": 1, "Y": 0}, "interpolation": 2}]}, "display": 0, "duration": 86400.0, "effects": [], "end": 4.633333333333334, "gravity": 4, "has_audio": {"Points": [{"co": {"X": 1, "Y": -1}, "interpolation": 2}]}, "has_video": {"Points": [{"co": {"X": 1, "Y": -1}, "interpolation": 2}]}, "id": "IXJ3JTUDTB", "layer": 3, "location_x": {"Points": [{"co": {"X": 1, "Y": 0}, "interpolation": 2}]}, "location_y": {"Points": [{"co": {"X": 1, "Y": 0}, "interpolation": 2}]}, "mixing": 0, "perspective_c1_x": {"Points": [{"co": {"X": 1, "Y": -1}, "interpolation": 2}]}, "perspective_c1_y": {"Points": [{"co": {"X": 1, "Y": -1}, "interpolation": 2}]}, "perspective_c2_x": {"Points": [{"co": {"X": 1, "Y": -1}, "interpolation": 2}]}, "perspective_c2_y": {"Points": [{"co": {"X": 1, "Y": -1}, "interpolation": 2}]}, "perspective_c3_x": {"Points": [{"co": {"X": 1, "Y": -1}, "interpolation": 2}]}, "perspective_c3_y": {"Points": [{"co": {"X": 1, "Y": -1}, "interpolation": 2}]}, "perspective_c4_x": {"Points": [{"co": {"X": 1, "Y": -1}, "interpolation": 2}]}, "perspective_c4_y": {"Points": [{"co": {"X": 1, "Y": -1}, "interpolation": 2}]}, "position": 1241.7, "reader": {"acodec": "", "audio_bit_rate": 0, "audio_stream_index": -1, "audio_timebase": {"den": 1, "num": 1}, "channel_layout": 4, "channels": 0, "display_ratio": {"den": 9, "num": 16}, "duration": 86400.0, "file_size": "3686400", "fps": {"den": 1, "num": 30}, "has_audio": false, "has_single_image": true, "has_video": true, "height": 720, "interlaced_frame": false, "metadata": {}, "path": "/home/mpt/Documentos/Projetos/sisdig/3.5-videos/painel-digital-e-protoboard/fontes/capa.png", "pixel_format": -1, "pixel_ratio": {"den": 1, "num": 1}, "sample_rate": 0, "top_field_first": true, "type": "QtImageReader", "vcodec": "", "video_bit_rate": 0, "video_length": "2592000", "video_stream_index": -1, "video_timebase": {"den": 30, "num": 1}, "width": 1280}, "rotation": {"Points": [{"co": {"X": 1, "Y": 0}, "interpolation": 2}]}, "scale": 1, "scale_x": {"Points": [{"co": {"X": 1, "Y": 1}, "interpolation": 2}]}, "scale_y": {"Points": [{"co": {"X": 1, "Y": 1}, "interpolation": 2}]}, "shear_x": {"Points": [{"co": {"X": 1, "Y": 0}, "interpolation": 2}]}, "shear_y": {"Points": [{"co": {"X": 1, "Y": 0}, "interpolation": 2}]}, "start": 0, "time": {"Points": [{"co": {"X": 1, "Y": 1}, "interpolation": 2}]}, "volume": {"Points": [{"co": {"X": 1, "Y": 1}, "interpolation": 2}]}, "wave_color": {"alpha": {"Points": [{"co": {"X": 1, "Y": 255}, "handle_left": {"X": 0.5, "Y": 1}, "handle_right": {"X": 0.5, "Y": 0}, "handle_type": 0, "interpolation": 0}]}, "blue": {"Points": [{"co": {"X": 1, "Y": 255}, "handle_left": {"X": 0.5, "Y": 1}, "handle_right": {"X": 0.5, "Y": 0}, "handle_type": 0, "interpolation": 0}]}, "green": {"Points": [{"co": {"X": 1, "Y": 123}, "handle_left": {"X": 0.5, "Y": 1}, "handle_right": {"X": 0.5, "Y": 0}, "handle_type": 0, "interpolation": 0}]}, "red": {"Points": [{"co": {"X": 1, "Y": 0}, "handle_left": {"X": 0.5, "Y": 1}, "handle_right": {"X": 0.5, "Y": 0}, "handle_type": 0, "interpolation": 0}]}}, "waveform": false, "file_id": "GB9Q5MUFJH", "title": "capa.png", "image": "/home/mpt/.openshot_qt/thumbnail/GB9Q5MUFJH.png"}}], "redo": []}, "version": {"openshot-qt": "2.4.3", "libopenshot": "0.2.2"}}