<?xml version="1.0" standalone="no"?>
 <!DOCTYPE svg PUBLIC "-//W3C//DTD SVG 1.1//EN" 
 "http://www.w3.org/Graphics/SVG/1.1/DTD/svg11.dtd"> 
<svg
  xmlns:svg="http://www.w3.org/2000/svg"
  xmlns="http://www.w3.org/2000/svg"
  xmlns:xlink="http://www.w3.org/1999/xlink"
  version="1.1"
  width="29.700220cm" height="21.000720cm" viewBox="0 0 116930 82680">
<title>SVG Picture created as contador-4518.svg date 2022/05/08 17:59:23 </title>
  <desc>Picture generated by Eeschema-SVG </desc>
<g style="fill:#000000; fill-opacity:1;stroke:#000000; stroke-opacity:1;
stroke-linecap:round; stroke-linejoin:round;"
 transform="translate(0 0) scale(1 1)">
</g>
<g style="fill:#000000; fill-opacity:0.0; 
stroke:#000000; stroke-width:0; stroke-opacity:1; 
stroke-linecap:round; stroke-linejoin:round;">
<g >
</g>
<g style="fill:#840000; fill-opacity:0.0; 
stroke:#840000; stroke-width:0; stroke-opacity:1; 
stroke-linecap:round; stroke-linejoin:round;">
</g>
<g style="fill:#FFFFC2; fill-opacity:0.0; 
stroke:#FFFFC2; stroke-width:0; stroke-opacity:1; 
stroke-linecap:round; stroke-linejoin:round;">
</g>
<g style="fill:#FFFFC2; fill-opacity:0.6; 
stroke:#FFFFC2; stroke-width:0; stroke-opacity:1; 
stroke-linecap:round; stroke-linejoin:round;">
<path style="fill:#FFFFC2; fill-opacity:0.6; 
stroke:#FFFFC2; stroke-width:0; stroke-opacity:1; 
stroke-linecap:round; stroke-linejoin:round;fill-rule:evenodd;"
d="M 47750,28000
47750,30000
50250,30000
50250,28000
Z" /> 
</g>
<g style="fill:#840000; fill-opacity:0.6; 
stroke:#840000; stroke-width:0; stroke-opacity:1; 
stroke-linecap:round; stroke-linejoin:round;">
</g>
<g style="fill:#840000; fill-opacity:0.0; 
stroke:#840000; stroke-width:60; stroke-opacity:1; 
stroke-linecap:round; stroke-linejoin:round;">
<path style="fill:#840000; fill-opacity:0.0; 
stroke:#840000; stroke-width:60; stroke-opacity:1; 
stroke-linecap:round; stroke-linejoin:round;fill:none"
d="M 47750,28000
47750,30000
50250,30000
50250,28000
Z" /> 
<path style="fill:#840000; fill-opacity:0.0; 
stroke:#840000; stroke-width:60; stroke-opacity:1; 
stroke-linecap:round; stroke-linejoin:round;fill:none"
d="M 48250,29250
48750,29250
49250,28750
49750,28750
" /> 
<path style="fill:#840000; fill-opacity:0.0; 
stroke:#840000; stroke-width:60; stroke-opacity:1; 
stroke-linecap:round; stroke-linejoin:round;fill:none"
d="M 47750,28000
47750,30000
50250,30000
50250,28000
Z" /> 
<path d="M50250 29000
L51000 29000
" />
<text x="50620" y="28900"
textLength="540" font-size="660" lengthAdjust="spacingAndGlyphs"
text-anchor="middle" opacity="0">S</text>
<path d="M50470 28850
L50540 28870
L50660 28870
L50710 28850
L50730 28820
L50760 28780
L50760 28730
L50730 28680
L50710 28660
L50660 28630
L50570 28610
L50520 28590
L50500 28560
L50470 28510
L50470 28470
L50500 28420
L50520 28400
L50570 28370
L50690 28370
L50760 28400
" />
</g>
<g style="fill:#008484; fill-opacity:0.0; 
stroke:#008484; stroke-width:60; stroke-opacity:1; 
stroke-linecap:round; stroke-linejoin:round;">
<text x="49000" y="27770"
textLength="1040" font-size="660" lengthAdjust="spacingAndGlyphs"
text-anchor="middle" opacity="0">B2</text>
<path d="M48790 27480
L48860 27500
L48890 27530
L48910 27570
L48910 27650
L48890 27690
L48860 27720
L48820 27740
L48630 27740
L48630 27240
L48790 27240
L48840 27270
L48860 27290
L48890 27340
L48890 27380
L48860 27430
L48840 27460
L48790 27480
L48630 27480
" />
<path d="M49100 27290
L49130 27270
L49170 27240
L49290 27240
L49340 27270
L49360 27290
L49390 27340
L49390 27380
L49360 27460
L49080 27740
L49390 27740
" />
</g>
</g>
<g style="fill:#008484; fill-opacity:0.0; 
stroke:#008484; stroke-width:0; stroke-opacity:1; 
stroke-linecap:round; stroke-linejoin:round;">
<g >
</g>
<g style="fill:#840000; fill-opacity:0.0; 
stroke:#840000; stroke-width:0; stroke-opacity:1; 
stroke-linecap:round; stroke-linejoin:round;">
</g>
<g style="fill:#840000; fill-opacity:0.0; 
stroke:#840000; stroke-width:60; stroke-opacity:1; 
stroke-linecap:round; stroke-linejoin:round;">
<path style="fill:#840000; fill-opacity:0.0; 
stroke:#840000; stroke-width:60; stroke-opacity:1; 
stroke-linecap:round; stroke-linejoin:round;fill:none"
d="M 66750,52250
67250,52250
" /> 
<path style="fill:#840000; fill-opacity:0.0; 
stroke:#840000; stroke-width:60; stroke-opacity:1; 
stroke-linecap:round; stroke-linejoin:round;fill:none"
d="M 66950,52500
67050,52500
" /> 
<path style="fill:#840000; fill-opacity:0.0; 
stroke:#840000; stroke-width:60; stroke-opacity:1; 
stroke-linecap:round; stroke-linejoin:round;fill:none"
d="M 67000,52000
67000,51500
" /> 
<path style="fill:#840000; fill-opacity:0.0; 
stroke:#840000; stroke-width:60; stroke-opacity:1; 
stroke-linecap:round; stroke-linejoin:round;fill:none"
d="M 67500,52000
66500,52000
" /> 
</g>
</g>
<g style="fill:#840000; fill-opacity:0.0; 
stroke:#840000; stroke-width:0; stroke-opacity:1; 
stroke-linecap:round; stroke-linejoin:round;">
<g >
</g>
<g style="fill:#840000; fill-opacity:0.0; 
stroke:#840000; stroke-width:60; stroke-opacity:1; 
stroke-linecap:round; stroke-linejoin:round;">
<path style="fill:#840000; fill-opacity:0.0; 
stroke:#840000; stroke-width:60; stroke-opacity:1; 
stroke-linecap:round; stroke-linejoin:round;fill:none"
d="M 66700,39000
67000,38500
" /> 
<path style="fill:#840000; fill-opacity:0.0; 
stroke:#840000; stroke-width:60; stroke-opacity:1; 
stroke-linecap:round; stroke-linejoin:round;fill:none"
d="M 67000,39500
67000,38500
" /> 
<path style="fill:#840000; fill-opacity:0.0; 
stroke:#840000; stroke-width:60; stroke-opacity:1; 
stroke-linecap:round; stroke-linejoin:round;fill:none"
d="M 67000,38500
67300,39000
" /> 
</g>
<g style="fill:#008484; fill-opacity:0.0; 
stroke:#008484; stroke-width:60; stroke-opacity:1; 
stroke-linecap:round; stroke-linejoin:round;">
<text x="67150" y="38040"
textLength="1490" font-size="660" lengthAdjust="spacingAndGlyphs"
text-anchor="middle" opacity="0">VCC</text>
<path d="M66480 37510
L66650 38010
L66810 37510
" />
<path d="M67260 37960
L67240 37990
L67170 38010
L67120 38010
L67050 37990
L67000 37940
L66980 37890
L66950 37800
L66950 37730
L66980 37630
L67000 37580
L67050 37540
L67120 37510
L67170 37510
L67240 37540
L67260 37560
" />
<path d="M67760 37960
L67740 37990
L67670 38010
L67620 38010
L67550 37990
L67500 37940
L67480 37890
L67450 37800
L67450 37730
L67480 37630
L67500 37580
L67550 37540
L67620 37510
L67670 37510
L67740 37540
L67760 37560
" />
</g>
</g>
<g style="fill:#008484; fill-opacity:0.0; 
stroke:#008484; stroke-width:0; stroke-opacity:1; 
stroke-linecap:round; stroke-linejoin:round;">
<g >
</g>
<g style="fill:#840000; fill-opacity:0.0; 
stroke:#840000; stroke-width:0; stroke-opacity:1; 
stroke-linecap:round; stroke-linejoin:round;">
</g>
<g style="fill:#840000; fill-opacity:0.0; 
stroke:#840000; stroke-width:60; stroke-opacity:1; 
stroke-linecap:round; stroke-linejoin:round;">
<path style="fill:#840000; fill-opacity:0.0; 
stroke:#840000; stroke-width:60; stroke-opacity:1; 
stroke-linecap:round; stroke-linejoin:round;fill:none"
d="M 47750,48750
48250,48750
" /> 
<path style="fill:#840000; fill-opacity:0.0; 
stroke:#840000; stroke-width:60; stroke-opacity:1; 
stroke-linecap:round; stroke-linejoin:round;fill:none"
d="M 47950,49000
48050,49000
" /> 
<path style="fill:#840000; fill-opacity:0.0; 
stroke:#840000; stroke-width:60; stroke-opacity:1; 
stroke-linecap:round; stroke-linejoin:round;fill:none"
d="M 48000,48500
48000,48000
" /> 
<path style="fill:#840000; fill-opacity:0.0; 
stroke:#840000; stroke-width:60; stroke-opacity:1; 
stroke-linecap:round; stroke-linejoin:round;fill:none"
d="M 48500,48500
47500,48500
" /> 
</g>
</g>
<g style="fill:#840000; fill-opacity:0.0; 
stroke:#840000; stroke-width:0; stroke-opacity:1; 
stroke-linecap:round; stroke-linejoin:round;">
<g >
</g>
<g style="fill:#FFFFC2; fill-opacity:0.0; 
stroke:#FFFFC2; stroke-width:0; stroke-opacity:1; 
stroke-linecap:round; stroke-linejoin:round;">
</g>
<g style="fill:#FFFFC2; fill-opacity:0.6; 
stroke:#FFFFC2; stroke-width:0; stroke-opacity:1; 
stroke-linecap:round; stroke-linejoin:round;">
<rect x="65000" y="42500" width="4000" height="6000" rx="0" />
</g>
<g style="fill:#840000; fill-opacity:0.6; 
stroke:#840000; stroke-width:0; stroke-opacity:1; 
stroke-linecap:round; stroke-linejoin:round;">
</g>
<g style="fill:#840000; fill-opacity:0.0; 
stroke:#840000; stroke-width:100; stroke-opacity:1; 
stroke-linecap:round; stroke-linejoin:round;">
<rect x="65000" y="42500" width="4000" height="6000" rx="0" />
<rect x="65000" y="42500" width="4000" height="6000" rx="0" />
</g>
<g style="fill:#840000; fill-opacity:0.0; 
stroke:#840000; stroke-width:60; stroke-opacity:1; 
stroke-linecap:round; stroke-linejoin:round;">
<path d="M67000 48500
L67000 50500
" />
</g>
<g style="fill:#008484; fill-opacity:0.0; 
stroke:#008484; stroke-width:60; stroke-opacity:1; 
stroke-linecap:round; stroke-linejoin:round;">
<g transform="rotate(-90 67000 48100)">
<text x="67000" y="48350"
textLength="1490" font-size="660" lengthAdjust="spacingAndGlyphs"
text-anchor="start" opacity="0">VDD</text>
</g>
<path d="M66720 48020
L67220 47850
L66720 47680
" />
<path d="M67220 47520
L66720 47520
L66720 47400
L66750 47330
L66790 47280
L66840 47260
L66940 47230
L67010 47230
L67100 47260
L67150 47280
L67200 47330
L67220 47400
L67220 47520
" />
<path d="M67220 47020
L66720 47020
L66720 46900
L66750 46830
L66790 46780
L66840 46760
L66940 46730
L67010 46730
L67100 46760
L67150 46780
L67200 46830
L67220 46900
L67220 47020
" />
</g>
<g style="fill:#840000; fill-opacity:0.0; 
stroke:#840000; stroke-width:60; stroke-opacity:1; 
stroke-linecap:round; stroke-linejoin:round;">
<g transform="rotate(-90 66900 49500)">
<text x="66900" y="49500"
textLength="1010" font-size="660" lengthAdjust="spacingAndGlyphs"
text-anchor="middle" opacity="0">16</text>
</g>
<path d="M66870 49590
L66870 49880
" />
<path d="M66870 49730
L66370 49730
L66440 49780
L66490 49830
L66510 49880
" />
<path d="M66370 49160
L66370 49260
L66400 49300
L66420 49330
L66490 49380
L66590 49400
L66780 49400
L66820 49380
L66850 49350
L66870 49300
L66870 49210
L66850 49160
L66820 49140
L66780 49110
L66660 49110
L66610 49140
L66590 49160
L66560 49210
L66560 49300
L66590 49350
L66610 49380
L66660 49400
" />
<path d="M67000 42500
L67000 40500
" />
</g>
<g style="fill:#008484; fill-opacity:0.0; 
stroke:#008484; stroke-width:60; stroke-opacity:1; 
stroke-linecap:round; stroke-linejoin:round;">
<g transform="rotate(-90 67000 42900)">
<text x="67000" y="43150"
textLength="1440" font-size="660" lengthAdjust="spacingAndGlyphs"
text-anchor="end" opacity="0">VSS</text>
</g>
<path d="M66720 44260
L67220 44090
L66720 43930
" />
<path d="M67200 43780
L67220 43710
L67220 43590
L67200 43540
L67170 43520
L67130 43500
L67080 43500
L67030 43520
L67010 43540
L66980 43590
L66960 43690
L66940 43730
L66910 43760
L66860 43780
L66820 43780
L66770 43760
L66750 43730
L66720 43690
L66720 43570
L66750 43500
" />
<path d="M67200 43310
L67220 43230
L67220 43120
L67200 43070
L67170 43040
L67130 43020
L67080 43020
L67030 43040
L67010 43070
L66980 43120
L66960 43210
L66940 43260
L66910 43280
L66860 43310
L66820 43310
L66770 43280
L66750 43260
L66720 43210
L66720 43090
L66750 43020
" />
</g>
<g style="fill:#840000; fill-opacity:0.0; 
stroke:#840000; stroke-width:60; stroke-opacity:1; 
stroke-linecap:round; stroke-linejoin:round;">
<g transform="rotate(-90 66900 41500)">
<text x="66900" y="41500"
textLength="540" font-size="660" lengthAdjust="spacingAndGlyphs"
text-anchor="middle" opacity="0">8</text>
</g>
<path d="M66590 41540
L66560 41590
L66540 41610
L66490 41640
L66470 41640
L66420 41610
L66400 41590
L66370 41540
L66370 41450
L66400 41400
L66420 41380
L66470 41350
L66490 41350
L66540 41380
L66560 41400
L66590 41450
L66590 41540
L66610 41590
L66630 41610
L66680 41640
L66780 41640
L66820 41610
L66850 41590
L66870 41540
L66870 41450
L66850 41400
L66820 41380
L66780 41350
L66680 41350
L66630 41380
L66610 41400
L66590 41450
" />
</g>
<g style="fill:#008484; fill-opacity:0.0; 
stroke:#008484; stroke-width:60; stroke-opacity:1; 
stroke-linecap:round; stroke-linejoin:round;">
<text x="63920" y="45260"
textLength="1560" font-size="660" lengthAdjust="spacingAndGlyphs"
text-anchor="middle" opacity="0">U1C</text>
<path d="M63280 44730
L63280 45140
L63310 45180
L63330 45210
L63380 45230
L63470 45230
L63520 45210
L63550 45180
L63570 45140
L63570 44730
" />
<path d="M64070 45230
L63780 45230
" />
<path d="M63930 45230
L63930 44730
L63880 44800
L63830 44850
L63780 44870
" />
<path d="M64570 45180
L64550 45210
L64470 45230
L64430 45230
L64360 45210
L64310 45160
L64280 45110
L64260 45020
L64260 44950
L64280 44850
L64310 44800
L64360 44760
L64430 44730
L64470 44730
L64550 44760
L64570 44780
" />
<text x="63720" y="46170"
textLength="1960" font-size="660" lengthAdjust="spacingAndGlyphs"
text-anchor="middle" opacity="0">4518</text>
<path d="M63100 45810
L63100 46140
" />
<path d="M62980 45620
L62860 45970
L63170 45970
" />
<path d="M63600 45640
L63360 45640
L63330 45880
L63360 45860
L63410 45830
L63520 45830
L63570 45860
L63600 45880
L63620 45930
L63620 46050
L63600 46090
L63570 46120
L63520 46140
L63410 46140
L63360 46120
L63330 46090
" />
<path d="M64100 46140
L63810 46140
" />
<path d="M63950 46140
L63950 45640
L63910 45710
L63860 45760
L63810 45780
" />
<path d="M64380 45860
L64330 45830
L64310 45810
L64290 45760
L64290 45740
L64310 45690
L64330 45670
L64380 45640
L64480 45640
L64520 45670
L64550 45690
L64570 45740
L64570 45760
L64550 45810
L64520 45830
L64480 45860
L64380 45860
L64330 45880
L64310 45900
L64290 45950
L64290 46050
L64310 46090
L64330 46120
L64380 46140
L64480 46140
L64520 46120
L64550 46090
L64570 46050
L64570 45950
L64550 45900
L64520 45880
L64480 45860
" />
</g>
</g>
<g style="fill:#008484; fill-opacity:0.0; 
stroke:#008484; stroke-width:0; stroke-opacity:1; 
stroke-linecap:round; stroke-linejoin:round;">
<g >
</g>
<g style="fill:#840000; fill-opacity:0.0; 
stroke:#840000; stroke-width:0; stroke-opacity:1; 
stroke-linecap:round; stroke-linejoin:round;">
</g>
<g style="fill:#FFFFC2; fill-opacity:0.0; 
stroke:#FFFFC2; stroke-width:0; stroke-opacity:1; 
stroke-linecap:round; stroke-linejoin:round;">
</g>
<g style="fill:#FFFFC2; fill-opacity:0.6; 
stroke:#FFFFC2; stroke-width:0; stroke-opacity:1; 
stroke-linecap:round; stroke-linejoin:round;">
<rect x="51000" y="43000" width="6000" height="5000" rx="0" />
</g>
<g style="fill:#840000; fill-opacity:0.6; 
stroke:#840000; stroke-width:0; stroke-opacity:1; 
stroke-linecap:round; stroke-linejoin:round;">
</g>
<g style="fill:#840000; fill-opacity:0.0; 
stroke:#840000; stroke-width:100; stroke-opacity:1; 
stroke-linecap:round; stroke-linejoin:round;">
<rect x="51000" y="43000" width="6000" height="5000" rx="0" />
<rect x="51000" y="43000" width="6000" height="5000" rx="0" />
</g>
<g style="fill:#840000; fill-opacity:0.0; 
stroke:#840000; stroke-width:60; stroke-opacity:1; 
stroke-linecap:round; stroke-linejoin:round;">
<path d="M51000 44000
L49000 44000
" />
</g>
<g style="fill:#008484; fill-opacity:0.0; 
stroke:#008484; stroke-width:60; stroke-opacity:1; 
stroke-linecap:round; stroke-linejoin:round;">
<text x="51400" y="44250"
textLength="2560" font-size="660" lengthAdjust="spacingAndGlyphs"
text-anchor="start" opacity="0">Enable</text>
<path d="M51540 43960
L51710 43960
" />
<path d="M51780 44220
L51540 44220
L51540 43720
L51780 43720
" />
<path d="M52000 43890
L52000 44220
" />
<path d="M52000 43940
L52020 43910
L52070 43890
L52140 43890
L52190 43910
L52210 43960
L52210 44220
" />
<path d="M52660 44220
L52660 43960
L52640 43910
L52590 43890
L52500 43890
L52450 43910
" />
<path d="M52660 44200
L52620 44220
L52500 44220
L52450 44200
L52430 44150
L52430 44100
L52450 44050
L52500 44030
L52620 44030
L52660 44010
" />
<path d="M52900 44220
L52900 43720
" />
<path d="M52900 43910
L52950 43890
L53040 43890
L53090 43910
L53120 43940
L53140 43980
L53140 44130
L53120 44170
L53090 44200
L53040 44220
L52950 44220
L52900 44200
" />
<path d="M53430 44220
L53380 44200
L53350 44150
L53350 43720
" />
<path d="M53810 44200
L53760 44220
L53660 44220
L53620 44200
L53590 44150
L53590 43960
L53620 43910
L53660 43890
L53760 43890
L53810 43910
L53830 43960
L53830 44010
L53590 44050
" />
</g>
<g style="fill:#840000; fill-opacity:0.0; 
stroke:#840000; stroke-width:60; stroke-opacity:1; 
stroke-linecap:round; stroke-linejoin:round;">
<text x="50000" y="43900"
textLength="1010" font-size="660" lengthAdjust="spacingAndGlyphs"
text-anchor="middle" opacity="0">10</text>
<path d="M49900 43870
L49610 43870
" />
<path d="M49760 43870
L49760 43370
L49710 43440
L49660 43490
L49610 43510
" />
<path d="M50210 43370
L50260 43370
L50300 43400
L50330 43420
L50350 43470
L50380 43560
L50380 43680
L50350 43780
L50330 43820
L50300 43850
L50260 43870
L50210 43870
L50160 43850
L50140 43820
L50110 43780
L50090 43680
L50090 43560
L50110 43470
L50140 43420
L50160 43400
L50210 43370
" />
<path d="M57000 47000
L59000 47000
" />
</g>
<g style="fill:#008484; fill-opacity:0.0; 
stroke:#008484; stroke-width:60; stroke-opacity:1; 
stroke-linecap:round; stroke-linejoin:round;">
<text x="56600" y="47250"
textLength="1060" font-size="660" lengthAdjust="spacingAndGlyphs"
text-anchor="end" opacity="0">Q1</text>
<path d="M56020 47270
L55970 47250
L55920 47200
L55850 47130
L55800 47100
L55760 47100
" />
<path d="M55780 47220
L55730 47200
L55680 47150
L55660 47050
L55660 46890
L55680 46790
L55730 46750
L55780 46720
L55870 46720
L55920 46750
L55970 46790
L55990 46890
L55990 47050
L55970 47150
L55920 47200
L55870 47220
L55780 47220
" />
<path d="M56470 47220
L56180 47220
" />
<path d="M56330 47220
L56330 46720
L56280 46790
L56230 46840
L56180 46860
" />
</g>
<g style="fill:#840000; fill-opacity:0.0; 
stroke:#840000; stroke-width:60; stroke-opacity:1; 
stroke-linecap:round; stroke-linejoin:round;">
<text x="58000" y="46900"
textLength="1010" font-size="660" lengthAdjust="spacingAndGlyphs"
text-anchor="middle" opacity="0">11</text>
<path d="M57900 46870
L57610 46870
" />
<path d="M57760 46870
L57760 46370
L57710 46440
L57660 46490
L57610 46510
" />
<path d="M58380 46870
L58090 46870
" />
<path d="M58230 46870
L58230 46370
L58190 46440
L58140 46490
L58090 46510
" />
<path d="M57000 46000
L59000 46000
" />
</g>
<g style="fill:#008484; fill-opacity:0.0; 
stroke:#008484; stroke-width:60; stroke-opacity:1; 
stroke-linecap:round; stroke-linejoin:round;">
<text x="56600" y="46250"
textLength="1060" font-size="660" lengthAdjust="spacingAndGlyphs"
text-anchor="end" opacity="0">Q2</text>
<path d="M56020 46270
L55970 46250
L55920 46200
L55850 46130
L55800 46100
L55760 46100
" />
<path d="M55780 46220
L55730 46200
L55680 46150
L55660 46050
L55660 45890
L55680 45790
L55730 45750
L55780 45720
L55870 45720
L55920 45750
L55970 45790
L55990 45890
L55990 46050
L55970 46150
L55920 46200
L55870 46220
L55780 46220
" />
<path d="M56180 45770
L56210 45750
L56260 45720
L56370 45720
L56420 45750
L56450 45770
L56470 45820
L56470 45860
L56450 45940
L56160 46220
L56470 46220
" />
</g>
<g style="fill:#840000; fill-opacity:0.0; 
stroke:#840000; stroke-width:60; stroke-opacity:1; 
stroke-linecap:round; stroke-linejoin:round;">
<text x="58000" y="45900"
textLength="1010" font-size="660" lengthAdjust="spacingAndGlyphs"
text-anchor="middle" opacity="0">12</text>
<path d="M57900 45870
L57610 45870
" />
<path d="M57760 45870
L57760 45370
L57710 45440
L57660 45490
L57610 45510
" />
<path d="M58090 45420
L58110 45400
L58160 45370
L58280 45370
L58330 45400
L58350 45420
L58380 45470
L58380 45510
L58350 45590
L58070 45870
L58380 45870
" />
<path d="M57000 45000
L59000 45000
" />
</g>
<g style="fill:#008484; fill-opacity:0.0; 
stroke:#008484; stroke-width:60; stroke-opacity:1; 
stroke-linecap:round; stroke-linejoin:round;">
<text x="56600" y="45250"
textLength="1060" font-size="660" lengthAdjust="spacingAndGlyphs"
text-anchor="end" opacity="0">Q3</text>
<path d="M56020 45270
L55970 45250
L55920 45200
L55850 45130
L55800 45100
L55760 45100
" />
<path d="M55780 45220
L55730 45200
L55680 45150
L55660 45050
L55660 44890
L55680 44790
L55730 44750
L55780 44720
L55870 44720
L55920 44750
L55970 44790
L55990 44890
L55990 45050
L55970 45150
L55920 45200
L55870 45220
L55780 45220
" />
<path d="M56160 44720
L56470 44720
L56300 44910
L56370 44910
L56420 44940
L56450 44960
L56470 45010
L56470 45130
L56450 45170
L56420 45200
L56370 45220
L56230 45220
L56180 45200
L56160 45170
" />
</g>
<g style="fill:#840000; fill-opacity:0.0; 
stroke:#840000; stroke-width:60; stroke-opacity:1; 
stroke-linecap:round; stroke-linejoin:round;">
<text x="58000" y="44900"
textLength="1010" font-size="660" lengthAdjust="spacingAndGlyphs"
text-anchor="middle" opacity="0">13</text>
<path d="M57900 44870
L57610 44870
" />
<path d="M57760 44870
L57760 44370
L57710 44440
L57660 44490
L57610 44510
" />
<path d="M58070 44370
L58380 44370
L58210 44560
L58280 44560
L58330 44590
L58350 44610
L58380 44660
L58380 44780
L58350 44820
L58330 44850
L58280 44870
L58140 44870
L58090 44850
L58070 44820
" />
<path d="M57000 44000
L59000 44000
" />
</g>
<g style="fill:#008484; fill-opacity:0.0; 
stroke:#008484; stroke-width:60; stroke-opacity:1; 
stroke-linecap:round; stroke-linejoin:round;">
<text x="56600" y="44250"
textLength="1060" font-size="660" lengthAdjust="spacingAndGlyphs"
text-anchor="end" opacity="0">Q4</text>
<path d="M56020 44270
L55970 44250
L55920 44200
L55850 44130
L55800 44100
L55760 44100
" />
<path d="M55780 44220
L55730 44200
L55680 44150
L55660 44050
L55660 43890
L55680 43790
L55730 43750
L55780 43720
L55870 43720
L55920 43750
L55970 43790
L55990 43890
L55990 44050
L55970 44150
L55920 44200
L55870 44220
L55780 44220
" />
<path d="M56420 43890
L56420 44220
" />
<path d="M56300 43700
L56180 44050
L56490 44050
" />
</g>
<g style="fill:#840000; fill-opacity:0.0; 
stroke:#840000; stroke-width:60; stroke-opacity:1; 
stroke-linecap:round; stroke-linejoin:round;">
<text x="58000" y="43900"
textLength="1010" font-size="660" lengthAdjust="spacingAndGlyphs"
text-anchor="middle" opacity="0">14</text>
<path d="M57900 43870
L57610 43870
" />
<path d="M57760 43870
L57760 43370
L57710 43440
L57660 43490
L57610 43510
" />
<path d="M58330 43540
L58330 43870
" />
<path d="M58210 43350
L58090 43700
L58400 43700
" />
<path d="M51000 45000
L49000 45000
" />
</g>
<g style="fill:#008484; fill-opacity:0.0; 
stroke:#008484; stroke-width:60; stroke-opacity:1; 
stroke-linecap:round; stroke-linejoin:round;">
<text x="51400" y="45250"
textLength="2110" font-size="660" lengthAdjust="spacingAndGlyphs"
text-anchor="start" opacity="0">Reset</text>
<path d="M51830 45220
L51660 44980
" />
<path d="M51540 45220
L51540 44720
L51730 44720
L51780 44750
L51810 44770
L51830 44820
L51830 44890
L51810 44940
L51780 44960
L51730 44980
L51540 44980
" />
<path d="M52230 45200
L52190 45220
L52090 45220
L52040 45200
L52020 45150
L52020 44960
L52040 44910
L52090 44890
L52190 44890
L52230 44910
L52260 44960
L52260 45010
L52020 45050
" />
<path d="M52450 45200
L52500 45220
L52590 45220
L52640 45200
L52660 45150
L52660 45130
L52640 45080
L52590 45050
L52520 45050
L52470 45030
L52450 44980
L52450 44960
L52470 44910
L52520 44890
L52590 44890
L52640 44910
" />
<path d="M53070 45200
L53020 45220
L52930 45220
L52880 45200
L52850 45150
L52850 44960
L52880 44910
L52930 44890
L53020 44890
L53070 44910
L53090 44960
L53090 45010
L52850 45050
" />
<path d="M53230 44890
L53430 44890
" />
<path d="M53310 44720
L53310 45150
L53330 45200
L53380 45220
L53430 45220
" />
</g>
<g style="fill:#840000; fill-opacity:0.0; 
stroke:#840000; stroke-width:60; stroke-opacity:1; 
stroke-linecap:round; stroke-linejoin:round;">
<text x="50000" y="44900"
textLength="1010" font-size="660" lengthAdjust="spacingAndGlyphs"
text-anchor="middle" opacity="0">15</text>
<path d="M49900 44870
L49610 44870
" />
<path d="M49760 44870
L49760 44370
L49710 44440
L49660 44490
L49610 44510
" />
<path d="M50350 44370
L50110 44370
L50090 44610
L50110 44590
L50160 44560
L50280 44560
L50330 44590
L50350 44610
L50380 44660
L50380 44780
L50350 44820
L50330 44850
L50280 44870
L50160 44870
L50110 44850
L50090 44820
" />
<path d="M51000 46000
L49000 46000
" />
<path d="M51000 46250
L51500 46000
L51000 45750
" />
</g>
<g style="fill:#008484; fill-opacity:0.0; 
stroke:#008484; stroke-width:60; stroke-opacity:1; 
stroke-linecap:round; stroke-linejoin:round;">
<text x="51400" y="46250"
textLength="1060" font-size="660" lengthAdjust="spacingAndGlyphs"
text-anchor="start" opacity="0">CK</text>
<path d="M51830 46170
L51810 46200
L51730 46220
L51690 46220
L51620 46200
L51570 46150
L51540 46100
L51520 46010
L51520 45940
L51540 45840
L51570 45790
L51620 45750
L51690 45720
L51730 45720
L51810 45750
L51830 45770
" />
<path d="M52040 46220
L52040 45720
" />
<path d="M52330 46220
L52120 45940
" />
<path d="M52330 45720
L52040 46010
" />
</g>
<g style="fill:#840000; fill-opacity:0.0; 
stroke:#840000; stroke-width:60; stroke-opacity:1; 
stroke-linecap:round; stroke-linejoin:round;">
<text x="50000" y="45900"
textLength="540" font-size="660" lengthAdjust="spacingAndGlyphs"
text-anchor="middle" opacity="0">9</text>
<path d="M49900 45870
L50000 45870
L50040 45850
L50070 45820
L50110 45750
L50140 45660
L50140 45470
L50110 45420
L50090 45400
L50040 45370
L49950 45370
L49900 45400
L49880 45420
L49850 45470
L49850 45590
L49880 45630
L49900 45660
L49950 45680
L50040 45680
L50090 45660
L50110 45630
L50140 45590
" />
</g>
<g style="fill:#008484; fill-opacity:0.0; 
stroke:#008484; stroke-width:60; stroke-opacity:1; 
stroke-linecap:round; stroke-linejoin:round;">
<text x="54000" y="41550"
textLength="1560" font-size="660" lengthAdjust="spacingAndGlyphs"
text-anchor="middle" opacity="0">U1B</text>
<path d="M53360 41020
L53360 41430
L53390 41470
L53410 41500
L53460 41520
L53550 41520
L53600 41500
L53630 41470
L53650 41430
L53650 41020
" />
<path d="M54150 41520
L53860 41520
" />
<path d="M54010 41520
L54010 41020
L53960 41090
L53910 41140
L53860 41160
" />
<path d="M54530 41260
L54600 41280
L54630 41310
L54650 41350
L54650 41430
L54630 41470
L54600 41500
L54550 41520
L54360 41520
L54360 41020
L54530 41020
L54580 41050
L54600 41070
L54630 41120
L54630 41160
L54600 41210
L54580 41240
L54530 41260
L54360 41260
" />
<text x="54000" y="42460"
textLength="1960" font-size="660" lengthAdjust="spacingAndGlyphs"
text-anchor="middle" opacity="0">4518</text>
<path d="M53380 42100
L53380 42430
" />
<path d="M53260 41910
L53140 42260
L53450 42260
" />
<path d="M53880 41930
L53640 41930
L53610 42170
L53640 42150
L53690 42120
L53800 42120
L53850 42150
L53880 42170
L53900 42220
L53900 42340
L53880 42380
L53850 42410
L53800 42430
L53690 42430
L53640 42410
L53610 42380
" />
<path d="M54380 42430
L54090 42430
" />
<path d="M54230 42430
L54230 41930
L54190 42000
L54140 42050
L54090 42070
" />
<path d="M54660 42150
L54610 42120
L54590 42100
L54570 42050
L54570 42030
L54590 41980
L54610 41960
L54660 41930
L54760 41930
L54800 41960
L54830 41980
L54850 42030
L54850 42050
L54830 42100
L54800 42120
L54760 42150
L54660 42150
L54610 42170
L54590 42190
L54570 42240
L54570 42340
L54590 42380
L54610 42410
L54660 42430
L54760 42430
L54800 42410
L54830 42380
L54850 42340
L54850 42240
L54830 42190
L54800 42170
L54760 42150
" />
</g>
</g>
<g style="fill:#008484; fill-opacity:0.0; 
stroke:#008484; stroke-width:0; stroke-opacity:1; 
stroke-linecap:round; stroke-linejoin:round;">
<g >
</g>
<g style="fill:#840000; fill-opacity:0.0; 
stroke:#840000; stroke-width:0; stroke-opacity:1; 
stroke-linecap:round; stroke-linejoin:round;">
</g>
<g style="fill:#FFFFC2; fill-opacity:0.0; 
stroke:#FFFFC2; stroke-width:0; stroke-opacity:1; 
stroke-linecap:round; stroke-linejoin:round;">
</g>
<g style="fill:#FFFFC2; fill-opacity:0.6; 
stroke:#FFFFC2; stroke-width:0; stroke-opacity:1; 
stroke-linecap:round; stroke-linejoin:round;">
<rect x="54500" y="31000" width="6000" height="5000" rx="0" />
</g>
<g style="fill:#840000; fill-opacity:0.6; 
stroke:#840000; stroke-width:0; stroke-opacity:1; 
stroke-linecap:round; stroke-linejoin:round;">
</g>
<g style="fill:#840000; fill-opacity:0.0; 
stroke:#840000; stroke-width:100; stroke-opacity:1; 
stroke-linecap:round; stroke-linejoin:round;">
<rect x="54500" y="31000" width="6000" height="5000" rx="0" />
<rect x="54500" y="31000" width="6000" height="5000" rx="0" />
</g>
<g style="fill:#840000; fill-opacity:0.0; 
stroke:#840000; stroke-width:60; stroke-opacity:1; 
stroke-linecap:round; stroke-linejoin:round;">
<path d="M54500 34000
L52500 34000
" />
<path d="M54500 34250
L55000 34000
L54500 33750
" />
</g>
<g style="fill:#008484; fill-opacity:0.0; 
stroke:#008484; stroke-width:60; stroke-opacity:1; 
stroke-linecap:round; stroke-linejoin:round;">
<text x="54900" y="34250"
textLength="1060" font-size="660" lengthAdjust="spacingAndGlyphs"
text-anchor="start" opacity="0">CK</text>
<path d="M55330 34170
L55310 34200
L55230 34220
L55190 34220
L55120 34200
L55070 34150
L55040 34100
L55020 34010
L55020 33940
L55040 33840
L55070 33790
L55120 33750
L55190 33720
L55230 33720
L55310 33750
L55330 33770
" />
<path d="M55540 34220
L55540 33720
" />
<path d="M55830 34220
L55620 33940
" />
<path d="M55830 33720
L55540 34010
" />
</g>
<g style="fill:#840000; fill-opacity:0.0; 
stroke:#840000; stroke-width:60; stroke-opacity:1; 
stroke-linecap:round; stroke-linejoin:round;">
<text x="53500" y="33900"
textLength="540" font-size="660" lengthAdjust="spacingAndGlyphs"
text-anchor="middle" opacity="0">1</text>
<path d="M53640 33870
L53350 33870
" />
<path d="M53500 33870
L53500 33370
L53450 33440
L53400 33490
L53350 33510
" />
<path d="M54500 32000
L52500 32000
" />
</g>
<g style="fill:#008484; fill-opacity:0.0; 
stroke:#008484; stroke-width:60; stroke-opacity:1; 
stroke-linecap:round; stroke-linejoin:round;">
<text x="54900" y="32250"
textLength="2560" font-size="660" lengthAdjust="spacingAndGlyphs"
text-anchor="start" opacity="0">Enable</text>
<path d="M55040 31960
L55210 31960
" />
<path d="M55280 32220
L55040 32220
L55040 31720
L55280 31720
" />
<path d="M55500 31890
L55500 32220
" />
<path d="M55500 31940
L55520 31910
L55570 31890
L55640 31890
L55690 31910
L55710 31960
L55710 32220
" />
<path d="M56160 32220
L56160 31960
L56140 31910
L56090 31890
L56000 31890
L55950 31910
" />
<path d="M56160 32200
L56120 32220
L56000 32220
L55950 32200
L55930 32150
L55930 32100
L55950 32050
L56000 32030
L56120 32030
L56160 32010
" />
<path d="M56400 32220
L56400 31720
" />
<path d="M56400 31910
L56450 31890
L56540 31890
L56590 31910
L56620 31940
L56640 31980
L56640 32130
L56620 32170
L56590 32200
L56540 32220
L56450 32220
L56400 32200
" />
<path d="M56930 32220
L56880 32200
L56850 32150
L56850 31720
" />
<path d="M57310 32200
L57260 32220
L57160 32220
L57120 32200
L57090 32150
L57090 31960
L57120 31910
L57160 31890
L57260 31890
L57310 31910
L57330 31960
L57330 32010
L57090 32050
" />
</g>
<g style="fill:#840000; fill-opacity:0.0; 
stroke:#840000; stroke-width:60; stroke-opacity:1; 
stroke-linecap:round; stroke-linejoin:round;">
<text x="53500" y="31900"
textLength="540" font-size="660" lengthAdjust="spacingAndGlyphs"
text-anchor="middle" opacity="0">2</text>
<path d="M53350 31420
L53380 31400
L53420 31370
L53540 31370
L53590 31400
L53610 31420
L53640 31470
L53640 31510
L53610 31590
L53330 31870
L53640 31870
" />
<path d="M60500 35000
L62500 35000
" />
</g>
<g style="fill:#008484; fill-opacity:0.0; 
stroke:#008484; stroke-width:60; stroke-opacity:1; 
stroke-linecap:round; stroke-linejoin:round;">
<text x="60100" y="35250"
textLength="1060" font-size="660" lengthAdjust="spacingAndGlyphs"
text-anchor="end" opacity="0">Q1</text>
<path d="M59520 35270
L59470 35250
L59420 35200
L59350 35130
L59300 35100
L59260 35100
" />
<path d="M59280 35220
L59230 35200
L59180 35150
L59160 35050
L59160 34890
L59180 34790
L59230 34750
L59280 34720
L59370 34720
L59420 34750
L59470 34790
L59490 34890
L59490 35050
L59470 35150
L59420 35200
L59370 35220
L59280 35220
" />
<path d="M59970 35220
L59680 35220
" />
<path d="M59830 35220
L59830 34720
L59780 34790
L59730 34840
L59680 34860
" />
</g>
<g style="fill:#840000; fill-opacity:0.0; 
stroke:#840000; stroke-width:60; stroke-opacity:1; 
stroke-linecap:round; stroke-linejoin:round;">
<text x="61500" y="34900"
textLength="540" font-size="660" lengthAdjust="spacingAndGlyphs"
text-anchor="middle" opacity="0">3</text>
<path d="M61330 34370
L61640 34370
L61470 34560
L61540 34560
L61590 34590
L61610 34610
L61640 34660
L61640 34780
L61610 34820
L61590 34850
L61540 34870
L61400 34870
L61350 34850
L61330 34820
" />
<path d="M60500 34000
L62500 34000
" />
</g>
<g style="fill:#008484; fill-opacity:0.0; 
stroke:#008484; stroke-width:60; stroke-opacity:1; 
stroke-linecap:round; stroke-linejoin:round;">
<text x="60100" y="34250"
textLength="1060" font-size="660" lengthAdjust="spacingAndGlyphs"
text-anchor="end" opacity="0">Q2</text>
<path d="M59520 34270
L59470 34250
L59420 34200
L59350 34130
L59300 34100
L59260 34100
" />
<path d="M59280 34220
L59230 34200
L59180 34150
L59160 34050
L59160 33890
L59180 33790
L59230 33750
L59280 33720
L59370 33720
L59420 33750
L59470 33790
L59490 33890
L59490 34050
L59470 34150
L59420 34200
L59370 34220
L59280 34220
" />
<path d="M59680 33770
L59710 33750
L59760 33720
L59870 33720
L59920 33750
L59950 33770
L59970 33820
L59970 33860
L59950 33940
L59660 34220
L59970 34220
" />
</g>
<g style="fill:#840000; fill-opacity:0.0; 
stroke:#840000; stroke-width:60; stroke-opacity:1; 
stroke-linecap:round; stroke-linejoin:round;">
<text x="61500" y="33900"
textLength="540" font-size="660" lengthAdjust="spacingAndGlyphs"
text-anchor="middle" opacity="0">4</text>
<path d="M61590 33540
L61590 33870
" />
<path d="M61470 33350
L61350 33700
L61660 33700
" />
<path d="M60500 33000
L62500 33000
" />
</g>
<g style="fill:#008484; fill-opacity:0.0; 
stroke:#008484; stroke-width:60; stroke-opacity:1; 
stroke-linecap:round; stroke-linejoin:round;">
<text x="60100" y="33250"
textLength="1060" font-size="660" lengthAdjust="spacingAndGlyphs"
text-anchor="end" opacity="0">Q3</text>
<path d="M59520 33270
L59470 33250
L59420 33200
L59350 33130
L59300 33100
L59260 33100
" />
<path d="M59280 33220
L59230 33200
L59180 33150
L59160 33050
L59160 32890
L59180 32790
L59230 32750
L59280 32720
L59370 32720
L59420 32750
L59470 32790
L59490 32890
L59490 33050
L59470 33150
L59420 33200
L59370 33220
L59280 33220
" />
<path d="M59660 32720
L59970 32720
L59800 32910
L59870 32910
L59920 32940
L59950 32960
L59970 33010
L59970 33130
L59950 33170
L59920 33200
L59870 33220
L59730 33220
L59680 33200
L59660 33170
" />
</g>
<g style="fill:#840000; fill-opacity:0.0; 
stroke:#840000; stroke-width:60; stroke-opacity:1; 
stroke-linecap:round; stroke-linejoin:round;">
<text x="61500" y="32900"
textLength="540" font-size="660" lengthAdjust="spacingAndGlyphs"
text-anchor="middle" opacity="0">5</text>
<path d="M61610 32370
L61380 32370
L61350 32610
L61380 32590
L61420 32560
L61540 32560
L61590 32590
L61610 32610
L61640 32660
L61640 32780
L61610 32820
L61590 32850
L61540 32870
L61420 32870
L61380 32850
L61350 32820
" />
<path d="M60500 32000
L62500 32000
" />
</g>
<g style="fill:#008484; fill-opacity:0.0; 
stroke:#008484; stroke-width:60; stroke-opacity:1; 
stroke-linecap:round; stroke-linejoin:round;">
<text x="60100" y="32250"
textLength="1060" font-size="660" lengthAdjust="spacingAndGlyphs"
text-anchor="end" opacity="0">Q4</text>
<path d="M59520 32270
L59470 32250
L59420 32200
L59350 32130
L59300 32100
L59260 32100
" />
<path d="M59280 32220
L59230 32200
L59180 32150
L59160 32050
L59160 31890
L59180 31790
L59230 31750
L59280 31720
L59370 31720
L59420 31750
L59470 31790
L59490 31890
L59490 32050
L59470 32150
L59420 32200
L59370 32220
L59280 32220
" />
<path d="M59920 31890
L59920 32220
" />
<path d="M59800 31700
L59680 32050
L59990 32050
" />
</g>
<g style="fill:#840000; fill-opacity:0.0; 
stroke:#840000; stroke-width:60; stroke-opacity:1; 
stroke-linecap:round; stroke-linejoin:round;">
<text x="61500" y="31900"
textLength="540" font-size="660" lengthAdjust="spacingAndGlyphs"
text-anchor="middle" opacity="0">6</text>
<path d="M61590 31370
L61500 31370
L61450 31400
L61420 31420
L61380 31490
L61350 31590
L61350 31780
L61380 31820
L61400 31850
L61450 31870
L61540 31870
L61590 31850
L61610 31820
L61640 31780
L61640 31660
L61610 31610
L61590 31590
L61540 31560
L61450 31560
L61400 31590
L61380 31610
L61350 31660
" />
<path d="M54500 33000
L52500 33000
" />
</g>
<g style="fill:#008484; fill-opacity:0.0; 
stroke:#008484; stroke-width:60; stroke-opacity:1; 
stroke-linecap:round; stroke-linejoin:round;">
<text x="54900" y="33250"
textLength="2110" font-size="660" lengthAdjust="spacingAndGlyphs"
text-anchor="start" opacity="0">Reset</text>
<path d="M55330 33220
L55160 32980
" />
<path d="M55040 33220
L55040 32720
L55230 32720
L55280 32750
L55310 32770
L55330 32820
L55330 32890
L55310 32940
L55280 32960
L55230 32980
L55040 32980
" />
<path d="M55730 33200
L55690 33220
L55590 33220
L55540 33200
L55520 33150
L55520 32960
L55540 32910
L55590 32890
L55690 32890
L55730 32910
L55760 32960
L55760 33010
L55520 33050
" />
<path d="M55950 33200
L56000 33220
L56090 33220
L56140 33200
L56160 33150
L56160 33130
L56140 33080
L56090 33050
L56020 33050
L55970 33030
L55950 32980
L55950 32960
L55970 32910
L56020 32890
L56090 32890
L56140 32910
" />
<path d="M56570 33200
L56520 33220
L56430 33220
L56380 33200
L56350 33150
L56350 32960
L56380 32910
L56430 32890
L56520 32890
L56570 32910
L56590 32960
L56590 33010
L56350 33050
" />
<path d="M56730 32890
L56930 32890
" />
<path d="M56810 32720
L56810 33150
L56830 33200
L56880 33220
L56930 33220
" />
</g>
<g style="fill:#840000; fill-opacity:0.0; 
stroke:#840000; stroke-width:60; stroke-opacity:1; 
stroke-linecap:round; stroke-linejoin:round;">
<text x="53500" y="32900"
textLength="540" font-size="660" lengthAdjust="spacingAndGlyphs"
text-anchor="middle" opacity="0">7</text>
<path d="M53330 32370
L53660 32370
L53450 32870
" />
</g>
<g style="fill:#008484; fill-opacity:0.0; 
stroke:#008484; stroke-width:60; stroke-opacity:1; 
stroke-linecap:round; stroke-linejoin:round;">
<text x="57500" y="29550"
textLength="1490" font-size="660" lengthAdjust="spacingAndGlyphs"
text-anchor="middle" opacity="0">U1A</text>
<path d="M56900 29020
L56900 29430
L56920 29470
L56950 29500
L57000 29520
L57090 29520
L57140 29500
L57160 29470
L57190 29430
L57190 29020
" />
<path d="M57690 29520
L57400 29520
" />
<path d="M57540 29520
L57540 29020
L57500 29090
L57450 29140
L57400 29160
" />
<path d="M57880 29380
L58110 29380
" />
<path d="M57830 29520
L58000 29020
L58160 29520
" />
<text x="57500" y="30460"
textLength="1960" font-size="660" lengthAdjust="spacingAndGlyphs"
text-anchor="middle" opacity="0">4518</text>
<path d="M56880 30100
L56880 30430
" />
<path d="M56760 29910
L56640 30260
L56950 30260
" />
<path d="M57380 29930
L57140 29930
L57110 30170
L57140 30150
L57190 30120
L57300 30120
L57350 30150
L57380 30170
L57400 30220
L57400 30340
L57380 30380
L57350 30410
L57300 30430
L57190 30430
L57140 30410
L57110 30380
" />
<path d="M57880 30430
L57590 30430
" />
<path d="M57730 30430
L57730 29930
L57690 30000
L57640 30050
L57590 30070
" />
<path d="M58160 30150
L58110 30120
L58090 30100
L58070 30050
L58070 30030
L58090 29980
L58110 29960
L58160 29930
L58260 29930
L58300 29960
L58330 29980
L58350 30030
L58350 30050
L58330 30100
L58300 30120
L58260 30150
L58160 30150
L58110 30170
L58090 30190
L58070 30240
L58070 30340
L58090 30380
L58110 30410
L58160 30430
L58260 30430
L58300 30410
L58330 30380
L58350 30340
L58350 30240
L58330 30190
L58300 30170
L58260 30150
" />
</g>
</g>
<g style="fill:#008484; fill-opacity:0.0; 
stroke:#008484; stroke-width:0; stroke-opacity:1; 
stroke-linecap:round; stroke-linejoin:round;">
<g >
</g>
<g style="fill:#840000; fill-opacity:0.0; 
stroke:#840000; stroke-width:0; stroke-opacity:1; 
stroke-linecap:round; stroke-linejoin:round;">
</g>
<g style="fill:#FFFFC2; fill-opacity:0.0; 
stroke:#FFFFC2; stroke-width:0; stroke-opacity:1; 
stroke-linecap:round; stroke-linejoin:round;">
</g>
<g style="fill:#FFFFC2; fill-opacity:0.6; 
stroke:#FFFFC2; stroke-width:0; stroke-opacity:1; 
stroke-linecap:round; stroke-linejoin:round;">
<path style="fill:#FFFFC2; fill-opacity:0.6; 
stroke:#FFFFC2; stroke-width:0; stroke-opacity:1; 
stroke-linecap:round; stroke-linejoin:round;fill-rule:evenodd;"
d="M 47750,36000
47750,38000
50250,38000
50250,36000
Z" /> 
</g>
<g style="fill:#840000; fill-opacity:0.6; 
stroke:#840000; stroke-width:0; stroke-opacity:1; 
stroke-linecap:round; stroke-linejoin:round;">
</g>
<g style="fill:#840000; fill-opacity:0.0; 
stroke:#840000; stroke-width:60; stroke-opacity:1; 
stroke-linecap:round; stroke-linejoin:round;">
<path style="fill:#840000; fill-opacity:0.0; 
stroke:#840000; stroke-width:60; stroke-opacity:1; 
stroke-linecap:round; stroke-linejoin:round;fill:none"
d="M 47750,36000
47750,38000
50250,38000
50250,36000
Z" /> 
<path style="fill:#840000; fill-opacity:0.0; 
stroke:#840000; stroke-width:60; stroke-opacity:1; 
stroke-linecap:round; stroke-linejoin:round;fill:none"
d="M 49750,37250
49250,37250
48750,36750
48250,36750
" /> 
<path style="fill:#840000; fill-opacity:0.0; 
stroke:#840000; stroke-width:60; stroke-opacity:1; 
stroke-linecap:round; stroke-linejoin:round;fill:none"
d="M 47750,36000
47750,38000
50250,38000
50250,36000
Z" /> 
<path d="M50250 37000
L51000 37000
" />
<text x="50620" y="36900"
textLength="540" font-size="660" lengthAdjust="spacingAndGlyphs"
text-anchor="middle" opacity="0">S</text>
<path d="M50470 36850
L50540 36870
L50660 36870
L50710 36850
L50730 36820
L50760 36780
L50760 36730
L50730 36680
L50710 36660
L50660 36630
L50570 36610
L50520 36590
L50500 36560
L50470 36510
L50470 36470
L50500 36420
L50520 36400
L50570 36370
L50690 36370
L50760 36400
" />
</g>
<g style="fill:#008484; fill-opacity:0.0; 
stroke:#008484; stroke-width:60; stroke-opacity:1; 
stroke-linecap:round; stroke-linejoin:round;">
<text x="49000" y="35770"
textLength="1040" font-size="660" lengthAdjust="spacingAndGlyphs"
text-anchor="middle" opacity="0">B1</text>
<path d="M48790 35480
L48860 35500
L48890 35530
L48910 35570
L48910 35650
L48890 35690
L48860 35720
L48820 35740
L48630 35740
L48630 35240
L48790 35240
L48840 35270
L48860 35290
L48890 35340
L48890 35380
L48860 35430
L48840 35460
L48790 35480
L48630 35480
" />
<path d="M49390 35740
L49100 35740
" />
<path d="M49250 35740
L49250 35240
L49200 35310
L49150 35360
L49100 35380
" />
</g>
</g>
<g style="fill:#008484; fill-opacity:0.0; 
stroke:#008484; stroke-width:0; stroke-opacity:1; 
stroke-linecap:round; stroke-linejoin:round;">
<g >
</g>
<g style="fill:#840000; fill-opacity:0.0; 
stroke:#840000; stroke-width:0; stroke-opacity:1; 
stroke-linecap:round; stroke-linejoin:round;">
</g>
<g style="fill:#FFFFC2; fill-opacity:0.0; 
stroke:#FFFFC2; stroke-width:0; stroke-opacity:1; 
stroke-linecap:round; stroke-linejoin:round;">
</g>
<g style="fill:#FFFFC2; fill-opacity:0.6; 
stroke:#FFFFC2; stroke-width:0; stroke-opacity:1; 
stroke-linecap:round; stroke-linejoin:round;">
<rect x="64500" y="25250" width="5000" height="4250" rx="0" />
</g>
<g style="fill:#840000; fill-opacity:0.6; 
stroke:#840000; stroke-width:0; stroke-opacity:1; 
stroke-linecap:round; stroke-linejoin:round;">
</g>
<g style="fill:#840000; fill-opacity:0.0; 
stroke:#840000; stroke-width:60; stroke-opacity:1; 
stroke-linecap:round; stroke-linejoin:round;">
<rect x="64500" y="25250" width="5000" height="4250" rx="0" />
<text x="68000" y="28280"
textLength="540" font-size="1330" lengthAdjust="spacingAndGlyphs"
text-anchor="middle" opacity="0">.</text>
<path d="M68000 28130
L68040 28180
L68000 28230
L67950 28180
L68000 28130
L68000 28230
" />
<text x="67000" y="29270"
textLength="2560" font-size="660" lengthAdjust="spacingAndGlyphs"
text-anchor="middle" opacity="0">Decod.</text>
<path d="M65860 29240
L65860 28740
L65980 28740
L66050 28770
L66100 28810
L66130 28860
L66150 28960
L66150 29030
L66130 29120
L66100 29170
L66050 29220
L65980 29240
L65860 29240
" />
<path d="M66550 29220
L66510 29240
L66410 29240
L66360 29220
L66340 29170
L66340 28980
L66360 28930
L66410 28910
L66510 28910
L66550 28930
L66580 28980
L66580 29030
L66340 29070
" />
<path d="M67010 29220
L66960 29240
L66860 29240
L66820 29220
L66790 29190
L66770 29150
L66770 29000
L66790 28960
L66820 28930
L66860 28910
L66960 28910
L67010 28930
" />
<path d="M67290 29240
L67250 29220
L67220 29190
L67200 29150
L67200 29000
L67220 28960
L67250 28930
L67290 28910
L67360 28910
L67410 28930
L67440 28960
L67460 29000
L67460 29150
L67440 29190
L67410 29220
L67360 29240
L67290 29240
" />
<path d="M67890 29240
L67890 28740
" />
<path d="M67890 29220
L67840 29240
L67750 29240
L67700 29220
L67670 29190
L67650 29150
L67650 29000
L67670 28960
L67700 28930
L67750 28910
L67840 28910
L67890 28930
" />
<path d="M68130 29190
L68150 29220
L68130 29240
L68100 29220
L68130 29190
L68130 29240
" />
</g>
<g style="fill:#840000; fill-opacity:0.0; 
stroke:#840000; stroke-width:30; stroke-opacity:1; 
stroke-linecap:round; stroke-linejoin:round;">
<text x="67100" y="26160"
textLength="230" font-size="260" lengthAdjust="spacingAndGlyphs"
text-anchor="middle" opacity="0">A</text>
<path d="M67050 26090
L67140 26090
" />
<path d="M67030 26150
L67100 25950
L67160 26150
" />
<text x="68000" y="26460"
textLength="230" font-size="260" lengthAdjust="spacingAndGlyphs"
text-anchor="middle" opacity="0">B</text>
<path d="M68010 26340
L68040 26350
L68050 26360
L68060 26380
L68060 26410
L68050 26430
L68040 26440
L68020 26450
L67940 26450
L67940 26250
L68010 26250
L68030 26260
L68040 26260
L68050 26280
L68050 26300
L68040 26320
L68030 26330
L68010 26340
L67940 26340
" />
<text x="67900" y="27660"
textLength="230" font-size="260" lengthAdjust="spacingAndGlyphs"
text-anchor="middle" opacity="0">C</text>
<path d="M67960 27630
L67950 27640
L67920 27650
L67900 27650
L67870 27640
L67850 27620
L67840 27600
L67830 27560
L67830 27530
L67840 27490
L67850 27470
L67870 27460
L67900 27450
L67920 27450
L67950 27460
L67960 27460
" />
<text x="66900" y="27960"
textLength="230" font-size="260" lengthAdjust="spacingAndGlyphs"
text-anchor="middle" opacity="0">D</text>
<path d="M66840 27950
L66840 27750
L66890 27750
L66920 27760
L66940 27770
L66950 27790
L66960 27830
L66960 27860
L66950 27900
L66940 27920
L66920 27940
L66890 27950
L66840 27950
" />
<text x="68400" y="28260"
textLength="430" font-size="260" lengthAdjust="spacingAndGlyphs"
text-anchor="middle" opacity="0">DP</text>
<path d="M68240 28250
L68240 28050
L68290 28050
L68320 28060
L68340 28070
L68350 28090
L68360 28130
L68360 28160
L68350 28200
L68340 28220
L68320 28240
L68290 28250
L68240 28250
" />
<path d="M68440 28250
L68440 28050
L68520 28050
L68540 28060
L68550 28060
L68560 28080
L68560 28110
L68550 28130
L68540 28140
L68520 28150
L68440 28150
" />
<text x="66000" y="27660"
textLength="210" font-size="260" lengthAdjust="spacingAndGlyphs"
text-anchor="middle" opacity="0">E</text>
<path d="M65950 27540
L66020 27540
" />
<path d="M66050 27650
L65950 27650
L65950 27450
L66050 27450
" />
<text x="66100" y="26460"
textLength="200" font-size="260" lengthAdjust="spacingAndGlyphs"
text-anchor="middle" opacity="0">F</text>
<path d="M66120 26340
L66060 26340
" />
<path d="M66060 26450
L66060 26250
L66150 26250
" />
<text x="67000" y="26760"
textLength="230" font-size="260" lengthAdjust="spacingAndGlyphs"
text-anchor="middle" opacity="0">G</text>
<path d="M67050 26560
L67030 26550
L67000 26550
L66970 26560
L66950 26570
L66940 26590
L66930 26630
L66930 26660
L66940 26700
L66950 26720
L66970 26740
L67000 26750
L67020 26750
L67050 26740
L67060 26730
L67060 26660
L67020 26660
" />
</g>
<g style="fill:#840000; fill-opacity:0.0; 
stroke:#840000; stroke-width:60; stroke-opacity:1; 
stroke-linecap:round; stroke-linejoin:round;">
<rect x="64500" y="25250" width="5000" height="4250" rx="0" />
<path style="fill:#840000; fill-opacity:0.0; 
stroke:#840000; stroke-width:60; stroke-opacity:1; 
stroke-linecap:round; stroke-linejoin:round;fill:none"
d="M 69000,29500
69000,28500
65000,28500
65000,29500
" /> 
</g>
<g style="fill:#840000; fill-opacity:0.0; 
stroke:#840000; stroke-width:200; stroke-opacity:1; 
stroke-linecap:round; stroke-linejoin:round;">
<path style="fill:#840000; fill-opacity:0.0; 
stroke:#840000; stroke-width:200; stroke-opacity:1; 
stroke-linecap:round; stroke-linejoin:round;fill:none"
d="M 66400,27150
66300,27950
" /> 
<path style="fill:#840000; fill-opacity:0.0; 
stroke:#840000; stroke-width:200; stroke-opacity:1; 
stroke-linecap:round; stroke-linejoin:round;fill:none"
d="M 66500,28150
67300,28150
" /> 
<path style="fill:#840000; fill-opacity:0.0; 
stroke:#840000; stroke-width:200; stroke-opacity:1; 
stroke-linecap:round; stroke-linejoin:round;fill:none"
d="M 66500,25950
66400,26750
" /> 
<path style="fill:#840000; fill-opacity:0.0; 
stroke:#840000; stroke-width:200; stroke-opacity:1; 
stroke-linecap:round; stroke-linejoin:round;fill:none"
d="M 66600,26950
67400,26950
" /> 
<path style="fill:#840000; fill-opacity:0.0; 
stroke:#840000; stroke-width:200; stroke-opacity:1; 
stroke-linecap:round; stroke-linejoin:round;fill:none"
d="M 66700,25750
67500,25750
" /> 
<path style="fill:#840000; fill-opacity:0.0; 
stroke:#840000; stroke-width:200; stroke-opacity:1; 
stroke-linecap:round; stroke-linejoin:round;fill:none"
d="M 67600,27150
67500,27950
" /> 
<path style="fill:#840000; fill-opacity:0.0; 
stroke:#840000; stroke-width:200; stroke-opacity:1; 
stroke-linecap:round; stroke-linejoin:round;fill:none"
d="M 67700,25950
67600,26750
" /> 
<path style="fill:#840000; fill-opacity:0.0; 
stroke:#840000; stroke-width:200; stroke-opacity:1; 
stroke-linecap:round; stroke-linejoin:round;fill:none"
d="M 68000,28150
Z" /> 
</g>
<g style="fill:#840000; fill-opacity:0.0; 
stroke:#840000; stroke-width:60; stroke-opacity:1; 
stroke-linecap:round; stroke-linejoin:round;">
<path d="M68500 29500
L68500 30500
" />
<g transform="rotate(-90 68400 30000)">
<text x="68400" y="30000"
textLength="460" font-size="660" lengthAdjust="spacingAndGlyphs"
text-anchor="middle" opacity="0">A</text>
</g>
<path d="M68230 30110
L68230 29880
" />
<path d="M68370 30160
L67870 30000
L68370 29830
" />
<path d="M67500 29500
L67500 30500
" />
<g transform="rotate(-90 67400 30000)">
<text x="67400" y="30000"
textLength="560" font-size="660" lengthAdjust="spacingAndGlyphs"
text-anchor="middle" opacity="0">B</text>
</g>
<path d="M67110 29960
L67130 29890
L67160 29860
L67200 29840
L67280 29840
L67320 29860
L67350 29890
L67370 29940
L67370 30130
L66870 30130
L66870 29960
L66900 29910
L66920 29890
L66970 29860
L67010 29860
L67060 29890
L67090 29910
L67110 29960
L67110 30130
" />
<path d="M66500 29500
L66500 30500
" />
<g transform="rotate(-90 66400 30000)">
<text x="66400" y="30000"
textLength="560" font-size="660" lengthAdjust="spacingAndGlyphs"
text-anchor="middle" opacity="0">C</text>
</g>
<path d="M66320 29840
L66350 29860
L66370 29940
L66370 29980
L66350 30050
L66300 30100
L66250 30130
L66160 30150
L66090 30150
L65990 30130
L65940 30100
L65900 30050
L65870 29980
L65870 29940
L65900 29860
L65920 29840
" />
<path d="M65500 29500
L65500 30500
" />
<g transform="rotate(-90 65400 30000)">
<text x="65400" y="30000"
textLength="560" font-size="660" lengthAdjust="spacingAndGlyphs"
text-anchor="middle" opacity="0">D</text>
</g>
<path d="M65370 30130
L64870 30130
L64870 30010
L64900 29940
L64940 29890
L64990 29860
L65090 29840
L65160 29840
L65250 29860
L65300 29890
L65350 29940
L65370 30010
L65370 30130
" />
</g>
<g style="fill:#008484; fill-opacity:0.0; 
stroke:#008484; stroke-width:60; stroke-opacity:1; 
stroke-linecap:round; stroke-linejoin:round;">
<text x="67270" y="24770"
textLength="1540" font-size="660" lengthAdjust="spacingAndGlyphs"
text-anchor="middle" opacity="0">DD1</text>
<path d="M66650 24740
L66650 24240
L66770 24240
L66840 24270
L66880 24310
L66910 24360
L66930 24460
L66930 24530
L66910 24620
L66880 24670
L66840 24720
L66770 24740
L66650 24740
" />
<path d="M67150 24740
L67150 24240
L67270 24240
L67340 24270
L67380 24310
L67410 24360
L67430 24460
L67430 24530
L67410 24620
L67380 24670
L67340 24720
L67270 24740
L67150 24740
" />
<path d="M67910 24740
L67620 24740
" />
<path d="M67770 24740
L67770 24240
L67720 24310
L67670 24360
L67620 24380
" />
</g>
</g>
<g style="fill:#008484; fill-opacity:0.0; 
stroke:#008484; stroke-width:0; stroke-opacity:1; 
stroke-linecap:round; stroke-linejoin:round;">
<g >
</g>
<g style="fill:#840000; fill-opacity:0.0; 
stroke:#840000; stroke-width:0; stroke-opacity:1; 
stroke-linecap:round; stroke-linejoin:round;">
</g>
<g style="fill:#FFFFC2; fill-opacity:0.0; 
stroke:#FFFFC2; stroke-width:0; stroke-opacity:1; 
stroke-linecap:round; stroke-linejoin:round;">
</g>
<g style="fill:#FFFFC2; fill-opacity:0.6; 
stroke:#FFFFC2; stroke-width:0; stroke-opacity:1; 
stroke-linecap:round; stroke-linejoin:round;">
<path style="fill:#FFFFC2; fill-opacity:0.6; 
stroke:#FFFFC2; stroke-width:0; stroke-opacity:1; 
stroke-linecap:round; stroke-linejoin:round;fill-rule:evenodd;"
d="M 47750,32000
47750,34000
50250,34000
50250,32000
Z" /> 
</g>
<g style="fill:#840000; fill-opacity:0.6; 
stroke:#840000; stroke-width:0; stroke-opacity:1; 
stroke-linecap:round; stroke-linejoin:round;">
</g>
<g style="fill:#840000; fill-opacity:0.0; 
stroke:#840000; stroke-width:60; stroke-opacity:1; 
stroke-linecap:round; stroke-linejoin:round;">
<path style="fill:#840000; fill-opacity:0.0; 
stroke:#840000; stroke-width:60; stroke-opacity:1; 
stroke-linecap:round; stroke-linejoin:round;fill:none"
d="M 47750,32000
47750,34000
50250,34000
50250,32000
Z" /> 
<circle cx="48700" cy="32500" r="100" /> 
<circle cx="48700" cy="33400" r="100" /> 
<circle cx="49700" cy="33000" r="100" /> 
<text x="48200" y="32770"
textLength="540" font-size="660" lengthAdjust="spacingAndGlyphs"
text-anchor="middle" opacity="0">0</text>
<path d="M48170 32240
L48220 32240
L48270 32270
L48290 32290
L48310 32340
L48340 32430
L48340 32550
L48310 32650
L48290 32690
L48270 32720
L48220 32740
L48170 32740
L48120 32720
L48100 32690
L48080 32650
L48050 32550
L48050 32430
L48080 32340
L48100 32290
L48120 32270
L48170 32240
" />
<text x="48200" y="33670"
textLength="540" font-size="660" lengthAdjust="spacingAndGlyphs"
text-anchor="middle" opacity="0">1</text>
<path d="M48340 33640
L48050 33640
" />
<path d="M48200 33640
L48200 33140
L48150 33210
L48100 33260
L48050 33280
" />
<path style="fill:#840000; fill-opacity:0.0; 
stroke:#840000; stroke-width:60; stroke-opacity:1; 
stroke-linecap:round; stroke-linejoin:round;fill:none"
d="M 47750,32000
47750,34000
50250,34000
50250,32000
Z" /> 
<path style="fill:#840000; fill-opacity:0.0; 
stroke:#840000; stroke-width:60; stroke-opacity:1; 
stroke-linecap:round; stroke-linejoin:round;fill:none"
d="M 49600,33000
48700,32700
" /> 
<path style="fill:#840000; fill-opacity:0.0; 
stroke:#840000; stroke-width:60; stroke-opacity:1; 
stroke-linecap:round; stroke-linejoin:round;fill:none"
d="M 49800,33000
50300,33000
" /> 
<path d="M50250 33000
L51000 33000
" />
<text x="50620" y="32900"
textLength="540" font-size="660" lengthAdjust="spacingAndGlyphs"
text-anchor="middle" opacity="0">S</text>
<path d="M50470 32850
L50540 32870
L50660 32870
L50710 32850
L50730 32820
L50760 32780
L50760 32730
L50730 32680
L50710 32660
L50660 32630
L50570 32610
L50520 32590
L50500 32560
L50470 32510
L50470 32470
L50500 32420
L50520 32400
L50570 32370
L50690 32370
L50760 32400
" />
</g>
<g style="fill:#008484; fill-opacity:0.0; 
stroke:#008484; stroke-width:60; stroke-opacity:1; 
stroke-linecap:round; stroke-linejoin:round;">
<text x="49000" y="31770"
textLength="1040" font-size="660" lengthAdjust="spacingAndGlyphs"
text-anchor="middle" opacity="0">C1</text>
<path d="M48910 31690
L48890 31720
L48820 31740
L48770 31740
L48700 31720
L48650 31670
L48630 31620
L48600 31530
L48600 31460
L48630 31360
L48650 31310
L48700 31270
L48770 31240
L48820 31240
L48890 31270
L48910 31290
" />
<path d="M49390 31740
L49100 31740
" />
<path d="M49250 31740
L49250 31240
L49200 31310
L49150 31360
L49100 31380
" />
</g>
</g>
<g style="fill:#008484; fill-opacity:0.0; 
stroke:#008484; stroke-width:60; stroke-opacity:1; 
stroke-linecap:round; stroke-linejoin:round;">
</g>
<g style="fill:#008400; fill-opacity:0.0; 
stroke:#008400; stroke-width:60; stroke-opacity:1; 
stroke-linecap:round; stroke-linejoin:round;">
<path d="M59000 45000
L60000 45000
" />
<path d="M67000 51500
L67000 50500
" />
<path d="M67000 39500
L67000 40500
" />
<path d="M48000 45000
L48000 46000
" />
<path d="M48000 45000
L49000 45000
" />
<path d="M48000 46000
L48000 48000
" />
<path d="M49000 46000
L48000 46000
" />
<path d="M48000 44000
L48000 45000
" />
<path d="M49000 44000
L48000 44000
" />
<path d="M59000 47000
L60000 47000
" />
<path d="M51000 29000
L51500 29000
" />
<path d="M59000 46000
L60000 46000
" />
<path d="M66500 33000
L62500 33000
" />
<path d="M51500 29000
L51500 32000
" />
<path d="M51500 32000
L52500 32000
" />
<path d="M51000 37000
L51500 37000
" />
<path d="M51500 37000
L51500 34000
" />
<path d="M51500 34000
L52500 34000
" />
<path d="M62500 32000
L65500 32000
" />
<path d="M65500 32000
L65500 30500
" />
<path d="M66500 30500
L66500 33000
" />
<path d="M59000 44000
L60000 44000
" />
<path d="M62500 34000
L67500 34000
" />
<path d="M67500 34000
L67500 30500
" />
<path d="M68500 30500
L68500 35000
" />
<path d="M68500 35000
L62500 35000
" />
<path d="M51000 33000
L52500 33000
" />
</g>
<g style="fill:#008400; fill-opacity:0.0; 
stroke:#008400; stroke-width:0; stroke-opacity:1; 
stroke-linecap:round; stroke-linejoin:round;">
</g>
<g style="fill:#008400; fill-opacity:1.0; 
stroke:#008400; stroke-width:100; stroke-opacity:1; 
stroke-linecap:round; stroke-linejoin:round;">
<circle cx="48000" cy="46000" r="200" /> 
</g>
<g style="fill:#008400; fill-opacity:1.0; 
stroke:#008400; stroke-width:0; stroke-opacity:1; 
stroke-linecap:round; stroke-linejoin:round;">
</g>
<g style="fill:#008400; fill-opacity:1.0; 
stroke:#008400; stroke-width:100; stroke-opacity:1; 
stroke-linecap:round; stroke-linejoin:round;">
<circle cx="48000" cy="45000" r="200" /> 
</g>
<g style="fill:#008400; fill-opacity:1.0; 
stroke:#008400; stroke-width:60; stroke-opacity:1; 
stroke-linecap:round; stroke-linejoin:round;">
</g>
<g style="fill:#000084; fill-opacity:1.0; 
stroke:#000084; stroke-width:60; stroke-opacity:1; 
stroke-linecap:round; stroke-linejoin:round;">
</g>
<g style="fill:#000084; fill-opacity:0.0; 
stroke:#000084; stroke-width:60; stroke-opacity:1; 
stroke-linecap:round; stroke-linejoin:round;">
<path d="M59760 46760
L60240 47240
" />
<path d="M60240 46760
L59760 47240
" />
<path d="M59760 45760
L60240 46240
" />
<path d="M60240 45760
L59760 46240
" />
<path d="M59760 44760
L60240 45240
" />
<path d="M60240 44760
L59760 45240
" />
<path d="M59760 43760
L60240 44240
" />
<path d="M60240 43760
L59760 44240
" />
</g> 
</svg>
