%TF.GenerationSoftware,KiCad,Pcbnew,5.1.7-a382d34a8~87~ubuntu20.04.1*%
%TF.CreationDate,2020-10-18T23:33:31-03:00*%
%TF.ProjectId,cronometro-conta-para-zera,63726f6e-6f6d-4657-9472-6f2d636f6e74,rev?*%
%TF.SameCoordinates,Original*%
%TF.FileFunction,Copper,L1,Top*%
%TF.FilePolarity,Positive*%
%FSLAX46Y46*%
G04 Gerber Fmt 4.6, Leading zero omitted, Abs format (unit mm)*
G04 Created by KiCad (PCBNEW 5.1.7-a382d34a8~87~ubuntu20.04.1) date 2020-10-18 23:33:31*
%MOMM*%
%LPD*%
G01*
G04 APERTURE LIST*
%TA.AperFunction,ComponentPad*%
%ADD10C,3.800000*%
%TD*%
%TA.AperFunction,ComponentPad*%
%ADD11O,2.400000X1.600000*%
%TD*%
%TA.AperFunction,ComponentPad*%
%ADD12R,2.400000X1.600000*%
%TD*%
%TA.AperFunction,ComponentPad*%
%ADD13C,1.600000*%
%TD*%
%TA.AperFunction,ComponentPad*%
%ADD14R,1.600000X1.600000*%
%TD*%
%TA.AperFunction,ComponentPad*%
%ADD15O,1.600000X2.400000*%
%TD*%
%TA.AperFunction,ComponentPad*%
%ADD16R,1.600000X2.400000*%
%TD*%
%TA.AperFunction,ComponentPad*%
%ADD17C,2.000000*%
%TD*%
%TA.AperFunction,ComponentPad*%
%ADD18O,1.400000X1.400000*%
%TD*%
%TA.AperFunction,ComponentPad*%
%ADD19C,1.400000*%
%TD*%
%TA.AperFunction,ComponentPad*%
%ADD20O,3.500000X2.000000*%
%TD*%
%TA.AperFunction,ComponentPad*%
%ADD21O,2.000000X3.300000*%
%TD*%
%TA.AperFunction,ComponentPad*%
%ADD22R,2.000000X4.000000*%
%TD*%
%TA.AperFunction,ViaPad*%
%ADD23C,0.800000*%
%TD*%
%TA.AperFunction,Conductor*%
%ADD24C,0.250000*%
%TD*%
G04 APERTURE END LIST*
D10*
%TO.P,Par4,1*%
%TO.N,N/C*%
X147320000Y-27940000D03*
%TD*%
%TO.P,Par3,1*%
%TO.N,N/C*%
X233680000Y-53975000D03*
%TD*%
%TO.P,Par2,1*%
%TO.N,N/C*%
X207010000Y-105410000D03*
%TD*%
%TO.P,Par1,1*%
%TO.N,N/C*%
X165354000Y-105410000D03*
%TD*%
D11*
%TO.P,U3,16*%
%TO.N,VCC*%
X225742000Y-31750000D03*
%TO.P,U3,8*%
%TO.N,Earth*%
X218122000Y-49530000D03*
%TO.P,U3,15*%
%TO.N,MR*%
X225742000Y-34290000D03*
%TO.P,U3,7*%
%TO.N,/clr_seg*%
X218122000Y-46990000D03*
%TO.P,U3,14*%
%TO.N,/M3*%
X225742000Y-36830000D03*
%TO.P,U3,6*%
%TO.N,N/C*%
X218122000Y-44450000D03*
%TO.P,U3,13*%
%TO.N,/M2*%
X225742000Y-39370000D03*
%TO.P,U3,5*%
%TO.N,/Sd2*%
X218122000Y-41910000D03*
%TO.P,U3,12*%
%TO.N,/M1*%
X225742000Y-41910000D03*
%TO.P,U3,4*%
%TO.N,/Sd1*%
X218122000Y-39370000D03*
%TO.P,U3,11*%
%TO.N,/M0*%
X225742000Y-44450000D03*
%TO.P,U3,3*%
%TO.N,/Sd0*%
X218122000Y-36830000D03*
%TO.P,U3,10*%
%TO.N,/Sd2*%
X225742000Y-46990000D03*
%TO.P,U3,2*%
%TO.N,/Su3*%
X218122000Y-34290000D03*
%TO.P,U3,9*%
%TO.N,Earth*%
X225742000Y-49530000D03*
D12*
%TO.P,U3,1*%
X218122000Y-31750000D03*
%TD*%
D13*
%TO.P,U14,10*%
%TO.N,Net-(R28-Pad1)*%
X177165000Y-85725000D03*
%TO.P,U14,9*%
%TO.N,Net-(R29-Pad1)*%
X177165000Y-88265000D03*
%TO.P,U14,8*%
%TO.N,Net-(R30-Pad1)*%
X177165000Y-90805000D03*
%TO.P,U14,7*%
%TO.N,/driver-displays/DP*%
X177165000Y-93345000D03*
%TO.P,U14,6*%
%TO.N,Earth*%
X177165000Y-95885000D03*
%TO.P,U14,5*%
%TO.N,Net-(R31-Pad1)*%
X172085000Y-95885000D03*
%TO.P,U14,4*%
%TO.N,Net-(R32-Pad1)*%
X172085000Y-93345000D03*
%TO.P,U14,3*%
%TO.N,Net-(R34-Pad1)*%
X172085000Y-90805000D03*
%TO.P,U14,2*%
%TO.N,Net-(R33-Pad1)*%
X172085000Y-88265000D03*
D14*
%TO.P,U14,1*%
%TO.N,Earth*%
X172085000Y-85725000D03*
%TD*%
D13*
%TO.P,U13,10*%
%TO.N,Net-(R21-Pad1)*%
X185420000Y-85725000D03*
%TO.P,U13,9*%
%TO.N,Net-(R22-Pad1)*%
X185420000Y-88265000D03*
%TO.P,U13,8*%
%TO.N,Net-(R23-Pad1)*%
X185420000Y-90805000D03*
%TO.P,U13,7*%
%TO.N,Earth*%
X185420000Y-93345000D03*
%TO.P,U13,6*%
X185420000Y-95885000D03*
%TO.P,U13,5*%
%TO.N,Net-(R24-Pad1)*%
X180340000Y-95885000D03*
%TO.P,U13,4*%
%TO.N,Net-(R25-Pad1)*%
X180340000Y-93345000D03*
%TO.P,U13,3*%
%TO.N,Net-(R27-Pad1)*%
X180340000Y-90805000D03*
%TO.P,U13,2*%
%TO.N,Net-(R26-Pad1)*%
X180340000Y-88265000D03*
D14*
%TO.P,U13,1*%
%TO.N,Earth*%
X180340000Y-85725000D03*
%TD*%
D13*
%TO.P,U12,10*%
%TO.N,Net-(R14-Pad1)*%
X193675000Y-85725000D03*
%TO.P,U12,9*%
%TO.N,Net-(R15-Pad1)*%
X193675000Y-88265000D03*
%TO.P,U12,8*%
%TO.N,Net-(R16-Pad1)*%
X193675000Y-90805000D03*
%TO.P,U12,7*%
%TO.N,/driver-displays/DP*%
X193675000Y-93345000D03*
%TO.P,U12,6*%
%TO.N,Earth*%
X193675000Y-95885000D03*
%TO.P,U12,5*%
%TO.N,Net-(R17-Pad1)*%
X188595000Y-95885000D03*
%TO.P,U12,4*%
%TO.N,Net-(R18-Pad1)*%
X188595000Y-93345000D03*
%TO.P,U12,3*%
%TO.N,Net-(R20-Pad1)*%
X188595000Y-90805000D03*
%TO.P,U12,2*%
%TO.N,Net-(R19-Pad1)*%
X188595000Y-88265000D03*
D14*
%TO.P,U12,1*%
%TO.N,Earth*%
X188595000Y-85725000D03*
%TD*%
D13*
%TO.P,U11,10*%
%TO.N,Net-(R7-Pad1)*%
X201930000Y-85725000D03*
%TO.P,U11,9*%
%TO.N,Net-(R8-Pad1)*%
X201930000Y-88265000D03*
%TO.P,U11,8*%
%TO.N,Net-(R9-Pad1)*%
X201930000Y-90805000D03*
%TO.P,U11,7*%
%TO.N,Earth*%
X201930000Y-93345000D03*
%TO.P,U11,6*%
X201930000Y-95885000D03*
%TO.P,U11,5*%
%TO.N,Net-(R10-Pad1)*%
X196850000Y-95885000D03*
%TO.P,U11,4*%
%TO.N,Net-(R11-Pad1)*%
X196850000Y-93345000D03*
%TO.P,U11,3*%
%TO.N,Net-(R13-Pad1)*%
X196850000Y-90805000D03*
%TO.P,U11,2*%
%TO.N,Net-(R12-Pad1)*%
X196850000Y-88265000D03*
D14*
%TO.P,U11,1*%
%TO.N,Earth*%
X196850000Y-85725000D03*
%TD*%
D15*
%TO.P,U10,16*%
%TO.N,VCC*%
X148590000Y-66040000D03*
%TO.P,U10,8*%
%TO.N,Earth*%
X130810000Y-58420000D03*
%TO.P,U10,15*%
%TO.N,Net-(R33-Pad2)*%
X146050000Y-66040000D03*
%TO.P,U10,7*%
%TO.N,/M0*%
X133350000Y-58420000D03*
%TO.P,U10,14*%
%TO.N,Net-(R34-Pad2)*%
X143510000Y-66040000D03*
%TO.P,U10,6*%
%TO.N,/M3*%
X135890000Y-58420000D03*
%TO.P,U10,13*%
%TO.N,Net-(R28-Pad2)*%
X140970000Y-66040000D03*
%TO.P,U10,5*%
%TO.N,Earth*%
X138430000Y-58420000D03*
%TO.P,U10,12*%
%TO.N,Net-(R29-Pad2)*%
X138430000Y-66040000D03*
%TO.P,U10,4*%
%TO.N,VCC*%
X140970000Y-58420000D03*
%TO.P,U10,11*%
%TO.N,Net-(R30-Pad2)*%
X135890000Y-66040000D03*
%TO.P,U10,3*%
%TO.N,VCC*%
X143510000Y-58420000D03*
%TO.P,U10,10*%
%TO.N,Net-(R31-Pad2)*%
X133350000Y-66040000D03*
%TO.P,U10,2*%
%TO.N,/M2*%
X146050000Y-58420000D03*
%TO.P,U10,9*%
%TO.N,Net-(R32-Pad2)*%
X130810000Y-66040000D03*
D16*
%TO.P,U10,1*%
%TO.N,/M1*%
X148590000Y-58420000D03*
%TD*%
D15*
%TO.P,U9,16*%
%TO.N,VCC*%
X178435000Y-66040000D03*
%TO.P,U9,8*%
%TO.N,Earth*%
X160655000Y-58420000D03*
%TO.P,U9,15*%
%TO.N,Net-(R26-Pad2)*%
X175895000Y-66040000D03*
%TO.P,U9,7*%
%TO.N,/Sd0*%
X163195000Y-58420000D03*
%TO.P,U9,14*%
%TO.N,Net-(R27-Pad2)*%
X173355000Y-66040000D03*
%TO.P,U9,6*%
%TO.N,Earth*%
X165735000Y-58420000D03*
%TO.P,U9,13*%
%TO.N,Net-(R21-Pad2)*%
X170815000Y-66040000D03*
%TO.P,U9,5*%
%TO.N,Earth*%
X168275000Y-58420000D03*
%TO.P,U9,12*%
%TO.N,Net-(R22-Pad2)*%
X168275000Y-66040000D03*
%TO.P,U9,4*%
%TO.N,VCC*%
X170815000Y-58420000D03*
%TO.P,U9,11*%
%TO.N,Net-(R23-Pad2)*%
X165735000Y-66040000D03*
%TO.P,U9,3*%
%TO.N,VCC*%
X173355000Y-58420000D03*
%TO.P,U9,10*%
%TO.N,Net-(R24-Pad2)*%
X163195000Y-66040000D03*
%TO.P,U9,2*%
%TO.N,/Sd2*%
X175895000Y-58420000D03*
%TO.P,U9,9*%
%TO.N,Net-(R25-Pad2)*%
X160655000Y-66040000D03*
D16*
%TO.P,U9,1*%
%TO.N,/Sd1*%
X178435000Y-58420000D03*
%TD*%
D15*
%TO.P,U8,16*%
%TO.N,VCC*%
X207645000Y-66040000D03*
%TO.P,U8,8*%
%TO.N,Earth*%
X189865000Y-58420000D03*
%TO.P,U8,15*%
%TO.N,Net-(R19-Pad2)*%
X205105000Y-66040000D03*
%TO.P,U8,7*%
%TO.N,/Su0*%
X192405000Y-58420000D03*
%TO.P,U8,14*%
%TO.N,Net-(R20-Pad2)*%
X202565000Y-66040000D03*
%TO.P,U8,6*%
%TO.N,/Su3*%
X194945000Y-58420000D03*
%TO.P,U8,13*%
%TO.N,Net-(R14-Pad2)*%
X200025000Y-66040000D03*
%TO.P,U8,5*%
%TO.N,Earth*%
X197485000Y-58420000D03*
%TO.P,U8,12*%
%TO.N,Net-(R15-Pad2)*%
X197485000Y-66040000D03*
%TO.P,U8,4*%
%TO.N,VCC*%
X200025000Y-58420000D03*
%TO.P,U8,11*%
%TO.N,Net-(R16-Pad2)*%
X194945000Y-66040000D03*
%TO.P,U8,3*%
%TO.N,VCC*%
X202565000Y-58420000D03*
%TO.P,U8,10*%
%TO.N,Net-(R17-Pad2)*%
X192405000Y-66040000D03*
%TO.P,U8,2*%
%TO.N,/Su2*%
X205105000Y-58420000D03*
%TO.P,U8,9*%
%TO.N,Net-(R18-Pad2)*%
X189865000Y-66040000D03*
D16*
%TO.P,U8,1*%
%TO.N,/Su1*%
X207645000Y-58420000D03*
%TD*%
D15*
%TO.P,U7,16*%
%TO.N,VCC*%
X237490000Y-66040000D03*
%TO.P,U7,8*%
%TO.N,Earth*%
X219710000Y-58420000D03*
%TO.P,U7,15*%
%TO.N,Net-(R12-Pad2)*%
X234950000Y-66040000D03*
%TO.P,U7,7*%
%TO.N,/DS0*%
X222250000Y-58420000D03*
%TO.P,U7,14*%
%TO.N,Net-(R13-Pad2)*%
X232410000Y-66040000D03*
%TO.P,U7,6*%
%TO.N,/DS3*%
X224790000Y-58420000D03*
%TO.P,U7,13*%
%TO.N,Net-(R7-Pad2)*%
X229870000Y-66040000D03*
%TO.P,U7,5*%
%TO.N,Earth*%
X227330000Y-58420000D03*
%TO.P,U7,12*%
%TO.N,Net-(R8-Pad2)*%
X227330000Y-66040000D03*
%TO.P,U7,4*%
%TO.N,VCC*%
X229870000Y-58420000D03*
%TO.P,U7,11*%
%TO.N,Net-(R9-Pad2)*%
X224790000Y-66040000D03*
%TO.P,U7,3*%
%TO.N,VCC*%
X232410000Y-58420000D03*
%TO.P,U7,10*%
%TO.N,Net-(R10-Pad2)*%
X222250000Y-66040000D03*
%TO.P,U7,2*%
%TO.N,/DS2*%
X234950000Y-58420000D03*
%TO.P,U7,9*%
%TO.N,Net-(R11-Pad2)*%
X219710000Y-66040000D03*
D16*
%TO.P,U7,1*%
%TO.N,/DS1*%
X237490000Y-58420000D03*
%TD*%
D11*
%TO.P,U6,14*%
%TO.N,N/C*%
X210185000Y-33020000D03*
%TO.P,U6,7*%
%TO.N,VCC*%
X202565000Y-48260000D03*
%TO.P,U6,13*%
%TO.N,N/C*%
X210185000Y-35560000D03*
%TO.P,U6,6*%
%TO.N,~MR*%
X202565000Y-45720000D03*
%TO.P,U6,12*%
%TO.N,N/C*%
X210185000Y-38100000D03*
%TO.P,U6,5*%
%TO.N,Net-(U5-Pad3)*%
X202565000Y-43180000D03*
%TO.P,U6,11*%
%TO.N,Earth*%
X210185000Y-40640000D03*
%TO.P,U6,4*%
%TO.N,VCC*%
X202565000Y-40640000D03*
%TO.P,U6,10*%
X210185000Y-43180000D03*
%TO.P,U6,3*%
%TO.N,N/C*%
X202565000Y-38100000D03*
%TO.P,U6,9*%
X210185000Y-45720000D03*
%TO.P,U6,2*%
X202565000Y-35560000D03*
%TO.P,U6,8*%
%TO.N,/hab_cont*%
X210185000Y-48260000D03*
D12*
%TO.P,U6,1*%
%TO.N,N/C*%
X202565000Y-33020000D03*
%TD*%
D11*
%TO.P,U5,14*%
%TO.N,VCC*%
X194627000Y-33020000D03*
%TO.P,U5,7*%
%TO.N,Earth*%
X187007000Y-48260000D03*
%TO.P,U5,13*%
%TO.N,N/C*%
X194627000Y-35560000D03*
%TO.P,U5,6*%
X187007000Y-45720000D03*
%TO.P,U5,12*%
X194627000Y-38100000D03*
%TO.P,U5,5*%
X187007000Y-43180000D03*
%TO.P,U5,11*%
X194627000Y-40640000D03*
%TO.P,U5,4*%
X187007000Y-40640000D03*
%TO.P,U5,10*%
X194627000Y-43180000D03*
%TO.P,U5,3*%
%TO.N,Net-(U5-Pad3)*%
X187007000Y-38100000D03*
%TO.P,U5,9*%
%TO.N,N/C*%
X194627000Y-45720000D03*
%TO.P,U5,2*%
%TO.N,Net-(C3-Pad1)*%
X187007000Y-35560000D03*
%TO.P,U5,8*%
%TO.N,N/C*%
X194627000Y-48260000D03*
D12*
%TO.P,U5,1*%
%TO.N,Net-(C3-Pad1)*%
X187007000Y-33020000D03*
%TD*%
D11*
%TO.P,U4,14*%
%TO.N,VCC*%
X179070000Y-33020000D03*
%TO.P,U4,7*%
%TO.N,Earth*%
X171450000Y-48260000D03*
%TO.P,U4,13*%
%TO.N,Net-(U4-Pad13)*%
X179070000Y-35560000D03*
%TO.P,U4,6*%
%TO.N,Net-(C4-Pad1)*%
X171450000Y-45720000D03*
%TO.P,U4,12*%
%TO.N,~MR*%
X179070000Y-38100000D03*
%TO.P,U4,5*%
%TO.N,Net-(C4-Pad1)*%
X171450000Y-43180000D03*
%TO.P,U4,11*%
%TO.N,/clr_seg*%
X179070000Y-40640000D03*
%TO.P,U4,4*%
%TO.N,MR*%
X171450000Y-40640000D03*
%TO.P,U4,10*%
%TO.N,~MR*%
X179070000Y-43180000D03*
%TO.P,U4,3*%
%TO.N,Net-(U4-Pad13)*%
X171450000Y-38100000D03*
%TO.P,U4,9*%
%TO.N,MR*%
X179070000Y-45720000D03*
%TO.P,U4,2*%
%TO.N,/Sd2*%
X171450000Y-35560000D03*
%TO.P,U4,8*%
%TO.N,MR*%
X179070000Y-48260000D03*
D12*
%TO.P,U4,1*%
%TO.N,/Sd1*%
X171450000Y-33020000D03*
%TD*%
D11*
%TO.P,U2,16*%
%TO.N,VCC*%
X241300000Y-31750000D03*
%TO.P,U2,8*%
%TO.N,Earth*%
X233680000Y-49530000D03*
%TO.P,U2,15*%
%TO.N,/clr_seg*%
X241300000Y-34290000D03*
%TO.P,U2,7*%
%TO.N,MR*%
X233680000Y-46990000D03*
%TO.P,U2,14*%
%TO.N,/Su3*%
X241300000Y-36830000D03*
%TO.P,U2,6*%
%TO.N,/DS3*%
X233680000Y-44450000D03*
%TO.P,U2,13*%
%TO.N,/Su2*%
X241300000Y-39370000D03*
%TO.P,U2,5*%
%TO.N,/DS2*%
X233680000Y-41910000D03*
%TO.P,U2,12*%
%TO.N,/Su1*%
X241300000Y-41910000D03*
%TO.P,U2,4*%
%TO.N,/DS1*%
X233680000Y-39370000D03*
%TO.P,U2,11*%
%TO.N,/Su0*%
X241300000Y-44450000D03*
%TO.P,U2,3*%
%TO.N,/DS0*%
X233680000Y-36830000D03*
%TO.P,U2,10*%
%TO.N,/DS3*%
X241300000Y-46990000D03*
%TO.P,U2,2*%
%TO.N,ck*%
X233680000Y-34290000D03*
%TO.P,U2,9*%
%TO.N,Earth*%
X241300000Y-49530000D03*
D12*
%TO.P,U2,1*%
%TO.N,/hab_cont*%
X233680000Y-31750000D03*
%TD*%
D11*
%TO.P,U1,8*%
%TO.N,VCC*%
X160020000Y-36830000D03*
%TO.P,U1,4*%
X152400000Y-44450000D03*
%TO.P,U1,7*%
%TO.N,Net-(R1-Pad2)*%
X160020000Y-39370000D03*
%TO.P,U1,3*%
%TO.N,ck*%
X152400000Y-41910000D03*
%TO.P,U1,6*%
%TO.N,Net-(C2-Pad1)*%
X160020000Y-41910000D03*
%TO.P,U1,2*%
X152400000Y-39370000D03*
%TO.P,U1,5*%
%TO.N,Net-(C1-Pad1)*%
X160020000Y-44450000D03*
D12*
%TO.P,U1,1*%
%TO.N,Earth*%
X152400000Y-36830000D03*
%TD*%
D17*
%TO.P,SW2,1*%
%TO.N,Earth*%
X198270000Y-102235000D03*
%TO.P,SW2,2*%
%TO.N,Net-(C3-Pad1)*%
X198270000Y-106735000D03*
%TO.P,SW2,1*%
%TO.N,Earth*%
X191770000Y-102235000D03*
%TO.P,SW2,2*%
%TO.N,Net-(C3-Pad1)*%
X191770000Y-106735000D03*
%TD*%
%TO.P,SW1,1*%
%TO.N,Earth*%
X181760000Y-102235000D03*
%TO.P,SW1,2*%
%TO.N,Net-(C4-Pad1)*%
X181760000Y-106735000D03*
%TO.P,SW1,1*%
%TO.N,Earth*%
X175260000Y-102235000D03*
%TO.P,SW1,2*%
%TO.N,Net-(C4-Pad1)*%
X175260000Y-106735000D03*
%TD*%
D18*
%TO.P,R34,2*%
%TO.N,Net-(R34-Pad2)*%
X143510000Y-69850000D03*
D19*
%TO.P,R34,1*%
%TO.N,Net-(R34-Pad1)*%
X143510000Y-77470000D03*
%TD*%
D18*
%TO.P,R33,2*%
%TO.N,Net-(R33-Pad2)*%
X146050000Y-69850000D03*
D19*
%TO.P,R33,1*%
%TO.N,Net-(R33-Pad1)*%
X146050000Y-77470000D03*
%TD*%
D18*
%TO.P,R32,2*%
%TO.N,Net-(R32-Pad2)*%
X130810000Y-69850000D03*
D19*
%TO.P,R32,1*%
%TO.N,Net-(R32-Pad1)*%
X130810000Y-77470000D03*
%TD*%
D18*
%TO.P,R31,2*%
%TO.N,Net-(R31-Pad2)*%
X133350000Y-69850000D03*
D19*
%TO.P,R31,1*%
%TO.N,Net-(R31-Pad1)*%
X133350000Y-77470000D03*
%TD*%
D18*
%TO.P,R30,2*%
%TO.N,Net-(R30-Pad2)*%
X135890000Y-69850000D03*
D19*
%TO.P,R30,1*%
%TO.N,Net-(R30-Pad1)*%
X135890000Y-77470000D03*
%TD*%
D18*
%TO.P,R29,2*%
%TO.N,Net-(R29-Pad2)*%
X138430000Y-69850000D03*
D19*
%TO.P,R29,1*%
%TO.N,Net-(R29-Pad1)*%
X138430000Y-77470000D03*
%TD*%
D18*
%TO.P,R28,2*%
%TO.N,Net-(R28-Pad2)*%
X140970000Y-69850000D03*
D19*
%TO.P,R28,1*%
%TO.N,Net-(R28-Pad1)*%
X140970000Y-77470000D03*
%TD*%
D18*
%TO.P,R27,2*%
%TO.N,Net-(R27-Pad2)*%
X173355000Y-69850000D03*
D19*
%TO.P,R27,1*%
%TO.N,Net-(R27-Pad1)*%
X173355000Y-77470000D03*
%TD*%
D18*
%TO.P,R26,2*%
%TO.N,Net-(R26-Pad2)*%
X175895000Y-69850000D03*
D19*
%TO.P,R26,1*%
%TO.N,Net-(R26-Pad1)*%
X175895000Y-77470000D03*
%TD*%
D18*
%TO.P,R25,2*%
%TO.N,Net-(R25-Pad2)*%
X160655000Y-69850000D03*
D19*
%TO.P,R25,1*%
%TO.N,Net-(R25-Pad1)*%
X160655000Y-77470000D03*
%TD*%
D18*
%TO.P,R24,2*%
%TO.N,Net-(R24-Pad2)*%
X163195000Y-69850000D03*
D19*
%TO.P,R24,1*%
%TO.N,Net-(R24-Pad1)*%
X163195000Y-77470000D03*
%TD*%
D18*
%TO.P,R23,2*%
%TO.N,Net-(R23-Pad2)*%
X165735000Y-69850000D03*
D19*
%TO.P,R23,1*%
%TO.N,Net-(R23-Pad1)*%
X165735000Y-77470000D03*
%TD*%
D18*
%TO.P,R22,2*%
%TO.N,Net-(R22-Pad2)*%
X168275000Y-69850000D03*
D19*
%TO.P,R22,1*%
%TO.N,Net-(R22-Pad1)*%
X168275000Y-77470000D03*
%TD*%
D18*
%TO.P,R21,2*%
%TO.N,Net-(R21-Pad2)*%
X170815000Y-69850000D03*
D19*
%TO.P,R21,1*%
%TO.N,Net-(R21-Pad1)*%
X170815000Y-77470000D03*
%TD*%
D18*
%TO.P,R20,2*%
%TO.N,Net-(R20-Pad2)*%
X202565000Y-69850000D03*
D19*
%TO.P,R20,1*%
%TO.N,Net-(R20-Pad1)*%
X202565000Y-77470000D03*
%TD*%
D18*
%TO.P,R19,2*%
%TO.N,Net-(R19-Pad2)*%
X205105000Y-69850000D03*
D19*
%TO.P,R19,1*%
%TO.N,Net-(R19-Pad1)*%
X205105000Y-77470000D03*
%TD*%
D18*
%TO.P,R18,2*%
%TO.N,Net-(R18-Pad2)*%
X189865000Y-69850000D03*
D19*
%TO.P,R18,1*%
%TO.N,Net-(R18-Pad1)*%
X189865000Y-77470000D03*
%TD*%
D18*
%TO.P,R17,2*%
%TO.N,Net-(R17-Pad2)*%
X192405000Y-69850000D03*
D19*
%TO.P,R17,1*%
%TO.N,Net-(R17-Pad1)*%
X192405000Y-77470000D03*
%TD*%
D18*
%TO.P,R16,2*%
%TO.N,Net-(R16-Pad2)*%
X194945000Y-69850000D03*
D19*
%TO.P,R16,1*%
%TO.N,Net-(R16-Pad1)*%
X194945000Y-77470000D03*
%TD*%
D18*
%TO.P,R15,2*%
%TO.N,Net-(R15-Pad2)*%
X197485000Y-69850000D03*
D19*
%TO.P,R15,1*%
%TO.N,Net-(R15-Pad1)*%
X197485000Y-77470000D03*
%TD*%
D18*
%TO.P,R14,2*%
%TO.N,Net-(R14-Pad2)*%
X200025000Y-69850000D03*
D19*
%TO.P,R14,1*%
%TO.N,Net-(R14-Pad1)*%
X200025000Y-77470000D03*
%TD*%
D18*
%TO.P,R13,2*%
%TO.N,Net-(R13-Pad2)*%
X232410000Y-69850000D03*
D19*
%TO.P,R13,1*%
%TO.N,Net-(R13-Pad1)*%
X232410000Y-77470000D03*
%TD*%
D18*
%TO.P,R12,2*%
%TO.N,Net-(R12-Pad2)*%
X234950000Y-69850000D03*
D19*
%TO.P,R12,1*%
%TO.N,Net-(R12-Pad1)*%
X234950000Y-77470000D03*
%TD*%
D18*
%TO.P,R11,2*%
%TO.N,Net-(R11-Pad2)*%
X219710000Y-69850000D03*
D19*
%TO.P,R11,1*%
%TO.N,Net-(R11-Pad1)*%
X219710000Y-77470000D03*
%TD*%
D18*
%TO.P,R10,2*%
%TO.N,Net-(R10-Pad2)*%
X222250000Y-69850000D03*
D19*
%TO.P,R10,1*%
%TO.N,Net-(R10-Pad1)*%
X222250000Y-77470000D03*
%TD*%
D18*
%TO.P,R9,2*%
%TO.N,Net-(R9-Pad2)*%
X224790000Y-69850000D03*
D19*
%TO.P,R9,1*%
%TO.N,Net-(R9-Pad1)*%
X224790000Y-77470000D03*
%TD*%
D18*
%TO.P,R8,2*%
%TO.N,Net-(R8-Pad2)*%
X227330000Y-69850000D03*
D19*
%TO.P,R8,1*%
%TO.N,Net-(R8-Pad1)*%
X227330000Y-77470000D03*
%TD*%
D18*
%TO.P,R7,2*%
%TO.N,Net-(R7-Pad2)*%
X229870000Y-69850000D03*
D19*
%TO.P,R7,1*%
%TO.N,Net-(R7-Pad1)*%
X229870000Y-77470000D03*
%TD*%
D18*
%TO.P,R6,2*%
%TO.N,VCC*%
X182245000Y-69850000D03*
D19*
%TO.P,R6,1*%
%TO.N,/driver-displays/DP*%
X182245000Y-77470000D03*
%TD*%
D18*
%TO.P,R5,2*%
%TO.N,Net-(C4-Pad1)*%
X156210000Y-95595000D03*
D19*
%TO.P,R5,1*%
%TO.N,VCC*%
X156210000Y-87975000D03*
%TD*%
D18*
%TO.P,R4,2*%
%TO.N,Net-(C3-Pad1)*%
X217805000Y-95595000D03*
D19*
%TO.P,R4,1*%
%TO.N,VCC*%
X217805000Y-87975000D03*
%TD*%
D18*
%TO.P,R2,2*%
%TO.N,Net-(C2-Pad1)*%
X164465000Y-48895000D03*
D19*
%TO.P,R2,1*%
%TO.N,Net-(R1-Pad2)*%
X164465000Y-41275000D03*
%TD*%
D18*
%TO.P,R1,2*%
%TO.N,Net-(R1-Pad2)*%
X164465000Y-37465000D03*
D19*
%TO.P,R1,1*%
%TO.N,VCC*%
X164465000Y-29845000D03*
%TD*%
D20*
%TO.P,J1,MP*%
%TO.N,N/C*%
X132700000Y-45140000D03*
X132700000Y-36140000D03*
D21*
%TO.P,J1,2*%
%TO.N,Earth*%
X133700000Y-40640000D03*
D22*
%TO.P,J1,1*%
%TO.N,VCC*%
X139700000Y-40640000D03*
%TD*%
D13*
%TO.P,C15,2*%
%TO.N,Earth*%
X205145000Y-27940000D03*
%TO.P,C15,1*%
%TO.N,VCC*%
X207645000Y-27940000D03*
%TD*%
%TO.P,C14,2*%
%TO.N,Earth*%
X152400000Y-61000000D03*
%TO.P,C14,1*%
%TO.N,VCC*%
X152400000Y-63500000D03*
%TD*%
%TO.P,C13,2*%
%TO.N,Earth*%
X182245000Y-61000000D03*
%TO.P,C13,1*%
%TO.N,VCC*%
X182245000Y-63500000D03*
%TD*%
%TO.P,C12,2*%
%TO.N,Earth*%
X211455000Y-61000000D03*
%TO.P,C12,1*%
%TO.N,VCC*%
X211455000Y-63500000D03*
%TD*%
%TO.P,C11,2*%
%TO.N,Earth*%
X241300000Y-61000000D03*
%TO.P,C11,1*%
%TO.N,VCC*%
X241300000Y-63500000D03*
%TD*%
%TO.P,C10,2*%
%TO.N,Earth*%
X174030000Y-27940000D03*
%TO.P,C10,1*%
%TO.N,VCC*%
X176530000Y-27940000D03*
%TD*%
%TO.P,C9,2*%
%TO.N,Earth*%
X189588000Y-27940000D03*
%TO.P,C9,1*%
%TO.N,VCC*%
X192088000Y-27940000D03*
%TD*%
%TO.P,C8,2*%
%TO.N,Earth*%
X220702000Y-27940000D03*
%TO.P,C8,1*%
%TO.N,VCC*%
X223202000Y-27940000D03*
%TD*%
%TO.P,C7,2*%
%TO.N,Earth*%
X236260000Y-27940000D03*
%TO.P,C7,1*%
%TO.N,VCC*%
X238760000Y-27940000D03*
%TD*%
%TO.P,C6,2*%
%TO.N,Earth*%
X153035000Y-30520000D03*
D14*
%TO.P,C6,1*%
%TO.N,VCC*%
X153035000Y-33020000D03*
%TD*%
D13*
%TO.P,C5,2*%
%TO.N,Earth*%
X159385000Y-30520000D03*
D14*
%TO.P,C5,1*%
%TO.N,VCC*%
X159385000Y-33020000D03*
%TD*%
D13*
%TO.P,C4,2*%
%TO.N,Earth*%
X161290000Y-90490100D03*
D14*
%TO.P,C4,1*%
%TO.N,Net-(C4-Pad1)*%
X161290000Y-92990100D03*
%TD*%
D13*
%TO.P,C3,2*%
%TO.N,Earth*%
X212725000Y-90490100D03*
D14*
%TO.P,C3,1*%
%TO.N,Net-(C3-Pad1)*%
X212725000Y-92990100D03*
%TD*%
D13*
%TO.P,C2,2*%
%TO.N,Earth*%
X157520000Y-48260000D03*
%TO.P,C2,1*%
%TO.N,Net-(C2-Pad1)*%
X160020000Y-48260000D03*
%TD*%
%TO.P,C1,2*%
%TO.N,Earth*%
X151805000Y-48260000D03*
%TO.P,C1,1*%
%TO.N,Net-(C1-Pad1)*%
X154305000Y-48260000D03*
%TD*%
D23*
%TO.N,Net-(C3-Pad1)*%
X185587000Y-57339200D03*
%TO.N,Net-(C4-Pad1)*%
X169237400Y-53631600D03*
%TO.N,/hab_cont*%
X213475900Y-45844500D03*
%TO.N,/clr_seg*%
X183574800Y-50867700D03*
%TO.N,/Su3*%
X228145600Y-32397200D03*
%TO.N,/Sd0*%
X215918800Y-48251300D03*
%TD*%
D24*
%TO.N,Net-(C2-Pad1)*%
X160020000Y-41910000D02*
X158444700Y-41910000D01*
X152400000Y-39370000D02*
X155904700Y-39370000D01*
X155904700Y-39370000D02*
X158444700Y-41910000D01*
X161595300Y-48260000D02*
X162754700Y-48260000D01*
X162754700Y-48260000D02*
X163389700Y-48895000D01*
X160020000Y-48260000D02*
X161595300Y-48260000D01*
X161595300Y-48260000D02*
X161595300Y-41910000D01*
X160020000Y-41910000D02*
X161595300Y-41910000D01*
X164465000Y-48895000D02*
X163389700Y-48895000D01*
%TO.N,Net-(C3-Pad1)*%
X185587000Y-57339200D02*
X187292900Y-59045100D01*
X187292900Y-59045100D02*
X187292900Y-88675000D01*
X187292900Y-88675000D02*
X188058300Y-89440400D01*
X188058300Y-89440400D02*
X190478100Y-89440400D01*
X190478100Y-89440400D02*
X193149900Y-92112200D01*
X193149900Y-92112200D02*
X194156300Y-92112200D01*
X194156300Y-92112200D02*
X195155600Y-93111500D01*
X195155600Y-93111500D02*
X195155600Y-95864200D01*
X195155600Y-95864200D02*
X198909000Y-99617600D01*
X198909000Y-99617600D02*
X199662100Y-99617600D01*
X199662100Y-99617600D02*
X204922200Y-99617600D01*
X204922200Y-99617600D02*
X211549700Y-92990100D01*
X199662100Y-99617600D02*
X199662100Y-105342900D01*
X199662100Y-105342900D02*
X198270000Y-106735000D01*
X212725000Y-92990100D02*
X211549700Y-92990100D01*
X216729700Y-95595000D02*
X214124800Y-92990100D01*
X214124800Y-92990100D02*
X212725000Y-92990100D01*
X191770000Y-106735000D02*
X198270000Y-106735000D01*
X217805000Y-95595000D02*
X216729700Y-95595000D01*
%TO.N,Net-(C4-Pad1)*%
X171450000Y-45720000D02*
X169874700Y-45720000D01*
X169237400Y-53631600D02*
X169237400Y-46357300D01*
X169237400Y-46357300D02*
X169874700Y-45720000D01*
X161290000Y-92990100D02*
X162465300Y-92990100D01*
X162465300Y-92990100D02*
X162465300Y-93940300D01*
X162465300Y-93940300D02*
X175260000Y-106735000D01*
X161290000Y-92990100D02*
X159890200Y-92990100D01*
X159890200Y-92990100D02*
X157285300Y-95595000D01*
X175260000Y-106735000D02*
X181760000Y-106735000D01*
X156210000Y-95595000D02*
X157285300Y-95595000D01*
%TO.N,Net-(R1-Pad2)*%
X164465000Y-39370000D02*
X164465000Y-41275000D01*
X164465000Y-37465000D02*
X164465000Y-39370000D01*
X164465000Y-39370000D02*
X161595300Y-39370000D01*
X160020000Y-39370000D02*
X161595300Y-39370000D01*
%TO.N,/driver-displays/DP*%
X186996200Y-90916400D02*
X188060200Y-91980400D01*
X188060200Y-91980400D02*
X192310400Y-91980400D01*
X192310400Y-91980400D02*
X193675000Y-93345000D01*
X182245000Y-77470000D02*
X186628800Y-81853800D01*
X186628800Y-81853800D02*
X186628800Y-90549000D01*
X186628800Y-90549000D02*
X186996200Y-90916400D01*
X186996200Y-90916400D02*
X185837600Y-92075000D01*
X185837600Y-92075000D02*
X184971500Y-92075000D01*
X184971500Y-92075000D02*
X182510900Y-94535600D01*
X182510900Y-94535600D02*
X178355600Y-94535600D01*
X178355600Y-94535600D02*
X177165000Y-93345000D01*
%TO.N,Net-(R7-Pad1)*%
X229870000Y-77470000D02*
X221615000Y-85725000D01*
X221615000Y-85725000D02*
X201930000Y-85725000D01*
%TO.N,Net-(R8-Pad1)*%
X227330000Y-77470000D02*
X220311000Y-84489000D01*
X220311000Y-84489000D02*
X201460000Y-84489000D01*
X201460000Y-84489000D02*
X200733100Y-85215900D01*
X200733100Y-85215900D02*
X200733100Y-87068100D01*
X200733100Y-87068100D02*
X201930000Y-88265000D01*
%TO.N,Net-(R10-Pad1)*%
X222250000Y-77470000D02*
X217394400Y-82325600D01*
X217394400Y-82325600D02*
X198118600Y-82325600D01*
X198118600Y-82325600D02*
X195656000Y-84788200D01*
X195656000Y-84788200D02*
X195656000Y-94691000D01*
X195656000Y-94691000D02*
X196850000Y-95885000D01*
%TO.N,Net-(R12-Pad1)*%
X234950000Y-77470000D02*
X233844600Y-76364600D01*
X233844600Y-76364600D02*
X226908500Y-76364600D01*
X226908500Y-76364600D02*
X226060000Y-77213100D01*
X226060000Y-77213100D02*
X226060000Y-77735000D01*
X226060000Y-77735000D02*
X219806400Y-83988600D01*
X219806400Y-83988600D02*
X201126300Y-83988600D01*
X201126300Y-83988600D02*
X201126300Y-83988700D01*
X201126300Y-83988700D02*
X196850000Y-88265000D01*
%TO.N,Net-(R13-Pad1)*%
X232410000Y-77470000D02*
X220596200Y-89283800D01*
X220596200Y-89283800D02*
X207671600Y-89283800D01*
X207671600Y-89283800D02*
X207420400Y-89535000D01*
X207420400Y-89535000D02*
X198120000Y-89535000D01*
X198120000Y-89535000D02*
X196850000Y-90805000D01*
%TO.N,Net-(R18-Pad2)*%
X189865000Y-69850000D02*
X189865000Y-66040000D01*
%TO.N,Net-(R19-Pad1)*%
X205105000Y-77470000D02*
X201770200Y-80804800D01*
X201770200Y-80804800D02*
X196055200Y-80804800D01*
X196055200Y-80804800D02*
X188595000Y-88265000D01*
%TO.N,Net-(R21-Pad2)*%
X170815000Y-69850000D02*
X170815000Y-66040000D01*
%TO.N,Net-(R21-Pad1)*%
X170815000Y-77470000D02*
X172452700Y-79107700D01*
X172452700Y-79107700D02*
X178802700Y-79107700D01*
X178802700Y-79107700D02*
X185420000Y-85725000D01*
%TO.N,Net-(R22-Pad1)*%
X185420000Y-88265000D02*
X178762600Y-81607600D01*
X178762600Y-81607600D02*
X172412600Y-81607600D01*
X172412600Y-81607600D02*
X168275000Y-77470000D01*
%TO.N,Net-(R23-Pad1)*%
X185420000Y-90805000D02*
X181515400Y-86900400D01*
X181515400Y-86900400D02*
X179349500Y-86900400D01*
X179349500Y-86900400D02*
X179015900Y-86566800D01*
X179015900Y-86566800D02*
X179015900Y-85853000D01*
X179015900Y-85853000D02*
X176645700Y-83482800D01*
X176645700Y-83482800D02*
X171747800Y-83482800D01*
X171747800Y-83482800D02*
X165735000Y-77470000D01*
%TO.N,Net-(R25-Pad1)*%
X160655000Y-77470000D02*
X167668600Y-84483600D01*
X167668600Y-84483600D02*
X174073400Y-84483600D01*
X174073400Y-84483600D02*
X176584800Y-86995000D01*
X176584800Y-86995000D02*
X177597100Y-86995000D01*
X177597100Y-86995000D02*
X178975400Y-88373300D01*
X178975400Y-88373300D02*
X178975400Y-91980400D01*
X178975400Y-91980400D02*
X180340000Y-93345000D01*
%TO.N,Net-(R28-Pad1)*%
X177165000Y-85725000D02*
X175423200Y-83983200D01*
X175423200Y-83983200D02*
X168130700Y-83983200D01*
X168130700Y-83983200D02*
X161925000Y-77777500D01*
X161925000Y-77777500D02*
X161925000Y-77180400D01*
X161925000Y-77180400D02*
X160632500Y-75887900D01*
X160632500Y-75887900D02*
X142552100Y-75887900D01*
X142552100Y-75887900D02*
X140970000Y-77470000D01*
%TO.N,Net-(R29-Pad1)*%
X138430000Y-77470000D02*
X139514400Y-78554400D01*
X139514400Y-78554400D02*
X141446400Y-78554400D01*
X141446400Y-78554400D02*
X142240000Y-77760800D01*
X142240000Y-77760800D02*
X142240000Y-77201000D01*
X142240000Y-77201000D02*
X143052700Y-76388300D01*
X143052700Y-76388300D02*
X156092800Y-76388300D01*
X156092800Y-76388300D02*
X158922500Y-79218000D01*
X158922500Y-79218000D02*
X161631000Y-79218000D01*
X161631000Y-79218000D02*
X169313400Y-86900400D01*
X169313400Y-86900400D02*
X172665400Y-86900400D01*
X172665400Y-86900400D02*
X174030000Y-88265000D01*
X174030000Y-88265000D02*
X177165000Y-88265000D01*
%TO.N,Net-(R30-Pad1)*%
X135890000Y-77470000D02*
X147704900Y-89284900D01*
X147704900Y-89284900D02*
X166266200Y-89284900D01*
X166266200Y-89284900D02*
X171504400Y-94523100D01*
X171504400Y-94523100D02*
X173446900Y-94523100D01*
X173446900Y-94523100D02*
X177165000Y-90805000D01*
%TO.N,Net-(R31-Pad1)*%
X133350000Y-77470000D02*
X147694700Y-91814700D01*
X147694700Y-91814700D02*
X168014700Y-91814700D01*
X168014700Y-91814700D02*
X172085000Y-95885000D01*
%TO.N,Net-(R32-Pad1)*%
X130810000Y-77470000D02*
X131891800Y-76388200D01*
X131891800Y-76388200D02*
X136367800Y-76388200D01*
X136367800Y-76388200D02*
X137160000Y-77180400D01*
X137160000Y-77180400D02*
X137160000Y-77720800D01*
X137160000Y-77720800D02*
X144684200Y-85245000D01*
X144684200Y-85245000D02*
X163114100Y-85245000D01*
X163114100Y-85245000D02*
X171214100Y-93345000D01*
X171214100Y-93345000D02*
X172085000Y-93345000D01*
%TO.N,Net-(R33-Pad1)*%
X146050000Y-77470000D02*
X148548300Y-79968300D01*
X148548300Y-79968300D02*
X161673600Y-79968300D01*
X161673600Y-79968300D02*
X169970300Y-88265000D01*
X169970300Y-88265000D02*
X172085000Y-88265000D01*
%TO.N,Net-(R34-Pad1)*%
X143510000Y-77470000D02*
X146508700Y-80468700D01*
X146508700Y-80468700D02*
X159864600Y-80468700D01*
X159864600Y-80468700D02*
X170200900Y-90805000D01*
X170200900Y-90805000D02*
X172085000Y-90805000D01*
%TO.N,ck*%
X150824700Y-41910000D02*
X150824700Y-38836500D01*
X150824700Y-38836500D02*
X151655800Y-38005400D01*
X151655800Y-38005400D02*
X156603800Y-38005400D01*
X156603800Y-38005400D02*
X159517800Y-35091400D01*
X159517800Y-35091400D02*
X161271500Y-35091400D01*
X161271500Y-35091400D02*
X165549900Y-30813000D01*
X165549900Y-30813000D02*
X213558300Y-30813000D01*
X213558300Y-30813000D02*
X215828200Y-33082900D01*
X215828200Y-33082900D02*
X227734900Y-33082900D01*
X227734900Y-33082900D02*
X228942000Y-34290000D01*
X228942000Y-34290000D02*
X232104700Y-34290000D01*
X233680000Y-34290000D02*
X232104700Y-34290000D01*
X152400000Y-41910000D02*
X150824700Y-41910000D01*
%TO.N,MR*%
X171450000Y-40640000D02*
X173025300Y-40640000D01*
X179070000Y-45720000D02*
X177494700Y-45720000D01*
X177494700Y-45720000D02*
X173025300Y-41250600D01*
X173025300Y-41250600D02*
X173025300Y-40640000D01*
X225742000Y-34290000D02*
X227317300Y-34290000D01*
X171450000Y-40640000D02*
X169874700Y-40640000D01*
X169874700Y-40640000D02*
X169340300Y-40105600D01*
X169340300Y-40105600D02*
X169340300Y-32574800D01*
X169340300Y-32574800D02*
X170091900Y-31823200D01*
X170091900Y-31823200D02*
X211065500Y-31823200D01*
X211065500Y-31823200D02*
X216222800Y-36980500D01*
X216222800Y-36980500D02*
X216222800Y-37120600D01*
X216222800Y-37120600D02*
X217147300Y-38045100D01*
X217147300Y-38045100D02*
X226631600Y-38045100D01*
X226631600Y-38045100D02*
X227317300Y-37359400D01*
X227317300Y-37359400D02*
X227317300Y-34290000D01*
%TO.N,/M3*%
X224166700Y-36830000D02*
X222896700Y-35560000D01*
X222896700Y-35560000D02*
X215954700Y-35560000D01*
X215954700Y-35560000D02*
X211717600Y-31322900D01*
X211717600Y-31322900D02*
X169884600Y-31322900D01*
X169884600Y-31322900D02*
X168809300Y-32398200D01*
X168809300Y-32398200D02*
X168809300Y-46077700D01*
X168809300Y-46077700D02*
X164909500Y-49977500D01*
X164909500Y-49977500D02*
X142757200Y-49977500D01*
X142757200Y-49977500D02*
X135890000Y-56844700D01*
X225742000Y-36830000D02*
X224166700Y-36830000D01*
X135890000Y-58420000D02*
X135890000Y-56844700D01*
%TO.N,/DS3*%
X241300000Y-46990000D02*
X239724700Y-46990000D01*
X239724700Y-46990000D02*
X237184700Y-44450000D01*
X237184700Y-44450000D02*
X233680000Y-44450000D01*
%TO.N,/M2*%
X224166700Y-39370000D02*
X220262100Y-43274600D01*
X220262100Y-43274600D02*
X214949500Y-43274600D01*
X214949500Y-43274600D02*
X211234100Y-46990000D01*
X211234100Y-46990000D02*
X184690600Y-46990000D01*
X184690600Y-46990000D02*
X176322600Y-55358000D01*
X176322600Y-55358000D02*
X147536700Y-55358000D01*
X147536700Y-55358000D02*
X146050000Y-56844700D01*
X225742000Y-39370000D02*
X224166700Y-39370000D01*
X146050000Y-58420000D02*
X146050000Y-56844700D01*
%TO.N,/DS2*%
X234950000Y-58420000D02*
X234950000Y-56844700D01*
X233680000Y-41910000D02*
X238204400Y-41910000D01*
X238204400Y-41910000D02*
X239535600Y-43241200D01*
X239535600Y-43241200D02*
X242166100Y-43241200D01*
X242166100Y-43241200D02*
X242877600Y-43952700D01*
X242877600Y-43952700D02*
X242877600Y-50020000D01*
X242877600Y-50020000D02*
X239662400Y-53235200D01*
X239662400Y-53235200D02*
X238559500Y-53235200D01*
X238559500Y-53235200D02*
X234950000Y-56844700D01*
%TO.N,/M1*%
X225742000Y-41910000D02*
X223507400Y-41910000D01*
X223507400Y-41910000D02*
X219697400Y-45720000D01*
X219697400Y-45720000D02*
X216165000Y-45720000D01*
X216165000Y-45720000D02*
X211931800Y-49953200D01*
X211931800Y-49953200D02*
X182788800Y-49953200D01*
X182788800Y-49953200D02*
X176397700Y-56344300D01*
X176397700Y-56344300D02*
X149090400Y-56344300D01*
X149090400Y-56344300D02*
X148590000Y-56844700D01*
X148590000Y-58420000D02*
X148590000Y-56844700D01*
%TO.N,/DS1*%
X237490000Y-56844700D02*
X237541600Y-56844700D01*
X237541600Y-56844700D02*
X243878200Y-50508100D01*
X243878200Y-50508100D02*
X243878200Y-39814100D01*
X243878200Y-39814100D02*
X242226400Y-38162300D01*
X242226400Y-38162300D02*
X236463000Y-38162300D01*
X236463000Y-38162300D02*
X235255300Y-39370000D01*
X237490000Y-58420000D02*
X237490000Y-56844700D01*
X233680000Y-39370000D02*
X235255300Y-39370000D01*
%TO.N,/M0*%
X224166700Y-44450000D02*
X220356700Y-48260000D01*
X220356700Y-48260000D02*
X217010500Y-48260000D01*
X217010500Y-48260000D02*
X209130900Y-56139600D01*
X209130900Y-56139600D02*
X184841700Y-56139600D01*
X184841700Y-56139600D02*
X180985900Y-59995400D01*
X180985900Y-59995400D02*
X153575400Y-59995400D01*
X153575400Y-59995400D02*
X153373700Y-59793700D01*
X153373700Y-59793700D02*
X151626900Y-59793700D01*
X151626900Y-59793700D02*
X151425300Y-59995300D01*
X151425300Y-59995300D02*
X133350000Y-59995300D01*
X225742000Y-44450000D02*
X224166700Y-44450000D01*
X133350000Y-58420000D02*
X133350000Y-59995300D01*
%TO.N,/Sd2*%
X218122000Y-41910000D02*
X216546700Y-41910000D01*
X171450000Y-35560000D02*
X173025300Y-35560000D01*
X173025300Y-35560000D02*
X174278900Y-36813600D01*
X174278900Y-36813600D02*
X211450300Y-36813600D01*
X211450300Y-36813600D02*
X216546700Y-41910000D01*
%TO.N,/hab_cont*%
X210185000Y-48260000D02*
X211760300Y-48260000D01*
X211760300Y-48260000D02*
X211760300Y-47560100D01*
X211760300Y-47560100D02*
X213475900Y-45844500D01*
%TO.N,/clr_seg*%
X216546700Y-46990000D02*
X216076300Y-46990000D01*
X216076300Y-46990000D02*
X212198600Y-50867700D01*
X212198600Y-50867700D02*
X183574800Y-50867700D01*
X219697300Y-46990000D02*
X223446700Y-43240600D01*
X223446700Y-43240600D02*
X226488300Y-43240600D01*
X226488300Y-43240600D02*
X231131500Y-38597400D01*
X231131500Y-38597400D02*
X231131500Y-37268400D01*
X231131500Y-37268400D02*
X232839900Y-35560000D01*
X232839900Y-35560000D02*
X238454700Y-35560000D01*
X238454700Y-35560000D02*
X239724700Y-34290000D01*
X218122000Y-46990000D02*
X216546700Y-46990000D01*
X218122000Y-46990000D02*
X219697300Y-46990000D01*
X241300000Y-34290000D02*
X239724700Y-34290000D01*
%TO.N,/Su3*%
X242875300Y-36830000D02*
X242875300Y-33755700D01*
X242875300Y-33755700D02*
X242234200Y-33114600D01*
X242234200Y-33114600D02*
X228863000Y-33114600D01*
X228863000Y-33114600D02*
X228145600Y-32397200D01*
X194945000Y-59995300D02*
X197179700Y-62230000D01*
X197179700Y-62230000D02*
X236211400Y-62230000D01*
X236211400Y-62230000D02*
X244378500Y-54062900D01*
X244378500Y-54062900D02*
X244378500Y-38333200D01*
X244378500Y-38333200D02*
X242875300Y-36830000D01*
X194945000Y-58420000D02*
X194945000Y-59995300D01*
X241300000Y-36830000D02*
X242875300Y-36830000D01*
%TO.N,/Su2*%
X205105000Y-59995300D02*
X205605300Y-60495600D01*
X205605300Y-60495600D02*
X208856900Y-60495600D01*
X208856900Y-60495600D02*
X209527900Y-59824600D01*
X209527900Y-59824600D02*
X218534600Y-59824600D01*
X218534600Y-59824600D02*
X218757300Y-60047300D01*
X218757300Y-60047300D02*
X235428000Y-60047300D01*
X235428000Y-60047300D02*
X236314600Y-59160700D01*
X236314600Y-59160700D02*
X236314600Y-57010300D01*
X236314600Y-57010300D02*
X239412400Y-53912500D01*
X239412400Y-53912500D02*
X239766200Y-53912500D01*
X239766200Y-53912500D02*
X243377900Y-50300800D01*
X243377900Y-50300800D02*
X243377900Y-41447900D01*
X243377900Y-41447900D02*
X241300000Y-39370000D01*
X205105000Y-58420000D02*
X205105000Y-59995300D01*
%TO.N,/Sd1*%
X218122000Y-39370000D02*
X216546700Y-39370000D01*
X171450000Y-33020000D02*
X176571200Y-33020000D01*
X176571200Y-33020000D02*
X177841200Y-34290000D01*
X177841200Y-34290000D02*
X211466700Y-34290000D01*
X211466700Y-34290000D02*
X216546700Y-39370000D01*
%TO.N,/Su1*%
X239724700Y-41910000D02*
X238534100Y-40719400D01*
X238534100Y-40719400D02*
X232801000Y-40719400D01*
X232801000Y-40719400D02*
X227895000Y-45625400D01*
X227895000Y-45625400D02*
X224980400Y-45625400D01*
X224980400Y-45625400D02*
X213761100Y-56844700D01*
X213761100Y-56844700D02*
X207645000Y-56844700D01*
X207645000Y-58420000D02*
X207645000Y-56844700D01*
X241300000Y-41910000D02*
X239724700Y-41910000D01*
%TO.N,/Sd0*%
X163195000Y-58420000D02*
X163195000Y-56844700D01*
X163195000Y-56844700D02*
X178694400Y-56844700D01*
X178694400Y-56844700D02*
X179899900Y-55639200D01*
X179899900Y-55639200D02*
X208530900Y-55639200D01*
X208530900Y-55639200D02*
X215918800Y-48251300D01*
%TO.N,/Su0*%
X241300000Y-44450000D02*
X239724700Y-44450000D01*
X192405000Y-58420000D02*
X192405000Y-56844700D01*
X192405000Y-56844700D02*
X205602600Y-56844700D01*
X205602600Y-56844700D02*
X206375000Y-57617100D01*
X206375000Y-57617100D02*
X206375000Y-59711000D01*
X206375000Y-59711000D02*
X206659300Y-59995300D01*
X206659300Y-59995300D02*
X208649600Y-59995300D01*
X208649600Y-59995300D02*
X209320700Y-59324200D01*
X209320700Y-59324200D02*
X212687100Y-59324200D01*
X212687100Y-59324200D02*
X223751300Y-48260000D01*
X223751300Y-48260000D02*
X227683700Y-48260000D01*
X227683700Y-48260000D02*
X232687600Y-43256100D01*
X232687600Y-43256100D02*
X238530800Y-43256100D01*
X238530800Y-43256100D02*
X239724700Y-44450000D01*
%TO.N,Net-(U4-Pad13)*%
X179070000Y-35560000D02*
X177494700Y-35560000D01*
X171450000Y-38100000D02*
X169874700Y-38100000D01*
X169874700Y-38100000D02*
X169874700Y-35069200D01*
X169874700Y-35069200D02*
X170560800Y-34383100D01*
X170560800Y-34383100D02*
X176317800Y-34383100D01*
X176317800Y-34383100D02*
X177494700Y-35560000D01*
%TO.N,~MR*%
X202565000Y-45720000D02*
X200989700Y-45720000D01*
X180645300Y-43180000D02*
X181915300Y-44450000D01*
X181915300Y-44450000D02*
X199719700Y-44450000D01*
X199719700Y-44450000D02*
X200989700Y-45720000D01*
X179857700Y-43180000D02*
X180645300Y-43180000D01*
X179070000Y-43180000D02*
X179857700Y-43180000D01*
X179070000Y-38100000D02*
X180645300Y-38100000D01*
X180645300Y-43180000D02*
X180645300Y-38100000D01*
%TO.N,Net-(U5-Pad3)*%
X202565000Y-43180000D02*
X200989700Y-43180000D01*
X187007000Y-38100000D02*
X188582300Y-38100000D01*
X188582300Y-38100000D02*
X192297700Y-41815400D01*
X192297700Y-41815400D02*
X199625100Y-41815400D01*
X199625100Y-41815400D02*
X200989700Y-43180000D01*
%TD*%
M02*
