%FSLAX45Y45*%
G04 Gerber Fmt 4.5, Leading zero omitted, Abs format (unit mm)*
G04 Created by KiCad (PCBNEW 5.1.7-a382d34a8~87~ubuntu20.04.1) date 2020-10-18 23:33:40*
%MOMM*%
%LPD*%
G01*
G04 APERTURE LIST*
%TA.AperFunction,Profile*%
%ADD10C,0.050000*%
%TD*%
%ADD11C,0.200000*%
%ADD12C,0.300000*%
G04 APERTURE END LIST*
D10*
X16313752Y-10874873D02*
G75*
G03*
X16497300Y-10922000I183548J333873D01*
G01*
X20897173Y-10874821D02*
G75*
G02*
X20713642Y-10921939I-183531J333882D01*
G01*
X24406860Y-8453120D02*
G75*
G03*
X24511035Y-8191340I-276825J261780D01*
G01*
X12804078Y-8453178D02*
G75*
G02*
X12700000Y-8191500I276922J261678D01*
G01*
X24384000Y-2413000D02*
G75*
G02*
X24511000Y-2540000I0J-127000D01*
G01*
X12700000Y-2540000D02*
G75*
G02*
X12827000Y-2413000I127000J0D01*
G01*
X24406860Y-8453120D02*
X20897173Y-10874821D01*
X16313752Y-10874873D02*
X12804078Y-8453178D01*
X12700000Y-8191500D02*
X12700000Y-2540000D01*
X20713642Y-10921939D02*
X16497300Y-10922000D01*
X24511000Y-2540000D02*
X24511035Y-8191340D01*
X12827000Y-2413000D02*
X24384000Y-2413000D01*
D11*
X12990000Y-3984000D02*
X13150000Y-4144000D01*
X13150000Y-3984000D02*
X12990000Y-4144000D01*
D12*
X12983928Y-11390214D02*
X12983928Y-11090214D01*
X13055357Y-11090214D01*
X13098214Y-11104500D01*
X13126786Y-11133072D01*
X13141071Y-11161643D01*
X13155357Y-11218786D01*
X13155357Y-11261643D01*
X13141071Y-11318786D01*
X13126786Y-11347357D01*
X13098214Y-11375929D01*
X13055357Y-11390214D01*
X12983928Y-11390214D01*
X13283928Y-11390214D02*
X13283928Y-11190214D01*
X13283928Y-11247357D02*
X13298214Y-11218786D01*
X13312500Y-11204500D01*
X13341071Y-11190214D01*
X13369643Y-11190214D01*
X13469643Y-11390214D02*
X13469643Y-11190214D01*
X13469643Y-11090214D02*
X13455357Y-11104500D01*
X13469643Y-11118786D01*
X13483928Y-11104500D01*
X13469643Y-11090214D01*
X13469643Y-11118786D01*
X13655357Y-11390214D02*
X13626786Y-11375929D01*
X13612500Y-11347357D01*
X13612500Y-11090214D01*
X13812500Y-11390214D02*
X13783928Y-11375929D01*
X13769643Y-11347357D01*
X13769643Y-11090214D01*
X14155357Y-11390214D02*
X14155357Y-11090214D01*
X14255357Y-11304500D01*
X14355357Y-11090214D01*
X14355357Y-11390214D01*
X14626786Y-11390214D02*
X14626786Y-11233071D01*
X14612500Y-11204500D01*
X14583928Y-11190214D01*
X14526786Y-11190214D01*
X14498214Y-11204500D01*
X14626786Y-11375929D02*
X14598214Y-11390214D01*
X14526786Y-11390214D01*
X14498214Y-11375929D01*
X14483928Y-11347357D01*
X14483928Y-11318786D01*
X14498214Y-11290214D01*
X14526786Y-11275929D01*
X14598214Y-11275929D01*
X14626786Y-11261643D01*
X14769643Y-11190214D02*
X14769643Y-11490214D01*
X14769643Y-11204500D02*
X14798214Y-11190214D01*
X14855357Y-11190214D01*
X14883928Y-11204500D01*
X14898214Y-11218786D01*
X14912500Y-11247357D01*
X14912500Y-11333071D01*
X14898214Y-11361643D01*
X14883928Y-11375929D01*
X14855357Y-11390214D01*
X14798214Y-11390214D01*
X14769643Y-11375929D01*
X15041071Y-11361643D02*
X15055357Y-11375929D01*
X15041071Y-11390214D01*
X15026786Y-11375929D01*
X15041071Y-11361643D01*
X15041071Y-11390214D01*
X15041071Y-11204500D02*
X15055357Y-11218786D01*
X15041071Y-11233071D01*
X15026786Y-11218786D01*
X15041071Y-11204500D01*
X15041071Y-11233071D01*
X12537500Y-11804500D02*
X12697500Y-11964500D01*
X12697500Y-11804500D02*
X12537500Y-11964500D01*
X13141071Y-12020214D02*
X12969643Y-12020214D01*
X13055357Y-12020214D02*
X13055357Y-11720214D01*
X13026786Y-11763071D01*
X12998214Y-11791643D01*
X12969643Y-11805929D01*
X13269643Y-11991643D02*
X13283928Y-12005929D01*
X13269643Y-12020214D01*
X13255357Y-12005929D01*
X13269643Y-11991643D01*
X13269643Y-12020214D01*
X13541071Y-11720214D02*
X13483928Y-11720214D01*
X13455357Y-11734500D01*
X13441071Y-11748786D01*
X13412500Y-11791643D01*
X13398214Y-11848786D01*
X13398214Y-11963071D01*
X13412500Y-11991643D01*
X13426786Y-12005929D01*
X13455357Y-12020214D01*
X13512500Y-12020214D01*
X13541071Y-12005929D01*
X13555357Y-11991643D01*
X13569643Y-11963071D01*
X13569643Y-11891643D01*
X13555357Y-11863071D01*
X13541071Y-11848786D01*
X13512500Y-11834500D01*
X13455357Y-11834500D01*
X13426786Y-11848786D01*
X13412500Y-11863071D01*
X13398214Y-11891643D01*
X13755357Y-11720214D02*
X13783928Y-11720214D01*
X13812500Y-11734500D01*
X13826786Y-11748786D01*
X13841071Y-11777357D01*
X13855357Y-11834500D01*
X13855357Y-11905929D01*
X13841071Y-11963071D01*
X13826786Y-11991643D01*
X13812500Y-12005929D01*
X13783928Y-12020214D01*
X13755357Y-12020214D01*
X13726786Y-12005929D01*
X13712500Y-11991643D01*
X13698214Y-11963071D01*
X13683928Y-11905929D01*
X13683928Y-11834500D01*
X13698214Y-11777357D01*
X13712500Y-11748786D01*
X13726786Y-11734500D01*
X13755357Y-11720214D01*
X13983928Y-12020214D02*
X13983928Y-11820214D01*
X13983928Y-11848786D02*
X13998214Y-11834500D01*
X14026786Y-11820214D01*
X14069643Y-11820214D01*
X14098214Y-11834500D01*
X14112500Y-11863071D01*
X14112500Y-12020214D01*
X14112500Y-11863071D02*
X14126786Y-11834500D01*
X14155357Y-11820214D01*
X14198214Y-11820214D01*
X14226786Y-11834500D01*
X14241071Y-11863071D01*
X14241071Y-12020214D01*
X14383928Y-12020214D02*
X14383928Y-11820214D01*
X14383928Y-11848786D02*
X14398214Y-11834500D01*
X14426786Y-11820214D01*
X14469643Y-11820214D01*
X14498214Y-11834500D01*
X14512500Y-11863071D01*
X14512500Y-12020214D01*
X14512500Y-11863071D02*
X14526786Y-11834500D01*
X14555357Y-11820214D01*
X14598214Y-11820214D01*
X14626786Y-11834500D01*
X14641071Y-11863071D01*
X14641071Y-12020214D01*
X15226786Y-11705929D02*
X14969643Y-12091643D01*
X15612500Y-11720214D02*
X15641071Y-11720214D01*
X15669643Y-11734500D01*
X15683928Y-11748786D01*
X15698214Y-11777357D01*
X15712500Y-11834500D01*
X15712500Y-11905929D01*
X15698214Y-11963071D01*
X15683928Y-11991643D01*
X15669643Y-12005929D01*
X15641071Y-12020214D01*
X15612500Y-12020214D01*
X15583928Y-12005929D01*
X15569643Y-11991643D01*
X15555357Y-11963071D01*
X15541071Y-11905929D01*
X15541071Y-11834500D01*
X15555357Y-11777357D01*
X15569643Y-11748786D01*
X15583928Y-11734500D01*
X15612500Y-11720214D01*
X15841071Y-11991643D02*
X15855357Y-12005929D01*
X15841071Y-12020214D01*
X15826786Y-12005929D01*
X15841071Y-11991643D01*
X15841071Y-12020214D01*
X16041071Y-11720214D02*
X16069643Y-11720214D01*
X16098214Y-11734500D01*
X16112500Y-11748786D01*
X16126786Y-11777357D01*
X16141071Y-11834500D01*
X16141071Y-11905929D01*
X16126786Y-11963071D01*
X16112500Y-11991643D01*
X16098214Y-12005929D01*
X16069643Y-12020214D01*
X16041071Y-12020214D01*
X16012500Y-12005929D01*
X15998214Y-11991643D01*
X15983928Y-11963071D01*
X15969643Y-11905929D01*
X15969643Y-11834500D01*
X15983928Y-11777357D01*
X15998214Y-11748786D01*
X16012500Y-11734500D01*
X16041071Y-11720214D01*
X16398214Y-11720214D02*
X16341071Y-11720214D01*
X16312500Y-11734500D01*
X16298214Y-11748786D01*
X16269643Y-11791643D01*
X16255357Y-11848786D01*
X16255357Y-11963071D01*
X16269643Y-11991643D01*
X16283928Y-12005929D01*
X16312500Y-12020214D01*
X16369643Y-12020214D01*
X16398214Y-12005929D01*
X16412500Y-11991643D01*
X16426786Y-11963071D01*
X16426786Y-11891643D01*
X16412500Y-11863071D01*
X16398214Y-11848786D01*
X16369643Y-11834500D01*
X16312500Y-11834500D01*
X16283928Y-11848786D01*
X16269643Y-11863071D01*
X16255357Y-11891643D01*
X16526786Y-11720214D02*
X16712500Y-11720214D01*
X16612500Y-11834500D01*
X16655357Y-11834500D01*
X16683928Y-11848786D01*
X16698214Y-11863071D01*
X16712500Y-11891643D01*
X16712500Y-11963071D01*
X16698214Y-11991643D01*
X16683928Y-12005929D01*
X16655357Y-12020214D01*
X16569643Y-12020214D01*
X16541071Y-12005929D01*
X16526786Y-11991643D01*
X16826786Y-11720214D02*
X16826786Y-11777357D01*
X16941071Y-11720214D02*
X16941071Y-11777357D01*
X17383928Y-12134500D02*
X17369643Y-12120214D01*
X17341071Y-12077357D01*
X17326786Y-12048786D01*
X17312500Y-12005929D01*
X17298214Y-11934500D01*
X17298214Y-11877357D01*
X17312500Y-11805929D01*
X17326786Y-11763071D01*
X17341071Y-11734500D01*
X17369643Y-11691643D01*
X17383928Y-11677357D01*
X17655357Y-12020214D02*
X17483928Y-12020214D01*
X17569643Y-12020214D02*
X17569643Y-11720214D01*
X17541071Y-11763071D01*
X17512500Y-11791643D01*
X17483928Y-11805929D01*
X18012500Y-12020214D02*
X18012500Y-11720214D01*
X18141071Y-12020214D02*
X18141071Y-11863071D01*
X18126786Y-11834500D01*
X18098214Y-11820214D01*
X18055357Y-11820214D01*
X18026786Y-11834500D01*
X18012500Y-11848786D01*
X18326786Y-12020214D02*
X18298214Y-12005929D01*
X18283928Y-11991643D01*
X18269643Y-11963071D01*
X18269643Y-11877357D01*
X18283928Y-11848786D01*
X18298214Y-11834500D01*
X18326786Y-11820214D01*
X18369643Y-11820214D01*
X18398214Y-11834500D01*
X18412500Y-11848786D01*
X18426786Y-11877357D01*
X18426786Y-11963071D01*
X18412500Y-11991643D01*
X18398214Y-12005929D01*
X18369643Y-12020214D01*
X18326786Y-12020214D01*
X18598214Y-12020214D02*
X18569643Y-12005929D01*
X18555357Y-11977357D01*
X18555357Y-11720214D01*
X18826786Y-12005929D02*
X18798214Y-12020214D01*
X18741071Y-12020214D01*
X18712500Y-12005929D01*
X18698214Y-11977357D01*
X18698214Y-11863071D01*
X18712500Y-11834500D01*
X18741071Y-11820214D01*
X18798214Y-11820214D01*
X18826786Y-11834500D01*
X18841071Y-11863071D01*
X18841071Y-11891643D01*
X18698214Y-11920214D01*
X18941071Y-12134500D02*
X18955357Y-12120214D01*
X18983928Y-12077357D01*
X18998214Y-12048786D01*
X19012500Y-12005929D01*
X19026786Y-11934500D01*
X19026786Y-11877357D01*
X19012500Y-11805929D01*
X18998214Y-11763071D01*
X18983928Y-11734500D01*
X18955357Y-11691643D01*
X18941071Y-11677357D01*
X19483928Y-12134500D02*
X19469643Y-12120214D01*
X19441071Y-12077357D01*
X19426786Y-12048786D01*
X19412500Y-12005929D01*
X19398214Y-11934500D01*
X19398214Y-11877357D01*
X19412500Y-11805929D01*
X19426786Y-11763071D01*
X19441071Y-11734500D01*
X19469643Y-11691643D01*
X19483928Y-11677357D01*
X19598214Y-11820214D02*
X19598214Y-12020214D01*
X19598214Y-11848786D02*
X19612500Y-11834500D01*
X19641071Y-11820214D01*
X19683928Y-11820214D01*
X19712500Y-11834500D01*
X19726786Y-11863071D01*
X19726786Y-12020214D01*
X19912500Y-12020214D02*
X19883928Y-12005929D01*
X19869643Y-11991643D01*
X19855357Y-11963071D01*
X19855357Y-11877357D01*
X19869643Y-11848786D01*
X19883928Y-11834500D01*
X19912500Y-11820214D01*
X19955357Y-11820214D01*
X19983928Y-11834500D01*
X19998214Y-11848786D01*
X20012500Y-11877357D01*
X20012500Y-11963071D01*
X19998214Y-11991643D01*
X19983928Y-12005929D01*
X19955357Y-12020214D01*
X19912500Y-12020214D01*
X20098214Y-11820214D02*
X20212500Y-11820214D01*
X20141071Y-11720214D02*
X20141071Y-11977357D01*
X20155357Y-12005929D01*
X20183928Y-12020214D01*
X20212500Y-12020214D01*
X20541071Y-11820214D02*
X20541071Y-12120214D01*
X20541071Y-11834500D02*
X20569643Y-11820214D01*
X20626786Y-11820214D01*
X20655357Y-11834500D01*
X20669643Y-11848786D01*
X20683928Y-11877357D01*
X20683928Y-11963071D01*
X20669643Y-11991643D01*
X20655357Y-12005929D01*
X20626786Y-12020214D01*
X20569643Y-12020214D01*
X20541071Y-12005929D01*
X20855357Y-12020214D02*
X20826786Y-12005929D01*
X20812500Y-11977357D01*
X20812500Y-11720214D01*
X21098214Y-12020214D02*
X21098214Y-11863071D01*
X21083928Y-11834500D01*
X21055357Y-11820214D01*
X20998214Y-11820214D01*
X20969643Y-11834500D01*
X21098214Y-12005929D02*
X21069643Y-12020214D01*
X20998214Y-12020214D01*
X20969643Y-12005929D01*
X20955357Y-11977357D01*
X20955357Y-11948786D01*
X20969643Y-11920214D01*
X20998214Y-11905929D01*
X21069643Y-11905929D01*
X21098214Y-11891643D01*
X21198214Y-11820214D02*
X21312500Y-11820214D01*
X21241071Y-11720214D02*
X21241071Y-11977357D01*
X21255357Y-12005929D01*
X21283928Y-12020214D01*
X21312500Y-12020214D01*
X21526786Y-12005929D02*
X21498214Y-12020214D01*
X21441071Y-12020214D01*
X21412500Y-12005929D01*
X21398214Y-11977357D01*
X21398214Y-11863071D01*
X21412500Y-11834500D01*
X21441071Y-11820214D01*
X21498214Y-11820214D01*
X21526786Y-11834500D01*
X21541071Y-11863071D01*
X21541071Y-11891643D01*
X21398214Y-11920214D01*
X21798214Y-12020214D02*
X21798214Y-11720214D01*
X21798214Y-12005929D02*
X21769643Y-12020214D01*
X21712500Y-12020214D01*
X21683928Y-12005929D01*
X21669643Y-11991643D01*
X21655357Y-11963071D01*
X21655357Y-11877357D01*
X21669643Y-11848786D01*
X21683928Y-11834500D01*
X21712500Y-11820214D01*
X21769643Y-11820214D01*
X21798214Y-11834500D01*
X21912500Y-12134500D02*
X21926786Y-12120214D01*
X21955357Y-12077357D01*
X21969643Y-12048786D01*
X21983928Y-12005929D01*
X21998214Y-11934500D01*
X21998214Y-11877357D01*
X21983928Y-11805929D01*
X21969643Y-11763071D01*
X21955357Y-11734500D01*
X21926786Y-11691643D01*
X21912500Y-11677357D01*
M02*
