%TF.GenerationSoftware,KiCad,Pcbnew,5.1.7-a382d34a8~87~ubuntu20.04.1*%
%TF.CreationDate,2020-10-18T23:33:31-03:00*%
%TF.ProjectId,cronometro-conta-para-zera,63726f6e-6f6d-4657-9472-6f2d636f6e74,rev?*%
%TF.SameCoordinates,Original*%
%TF.FileFunction,Soldermask,Bot*%
%TF.FilePolarity,Negative*%
%FSLAX46Y46*%
G04 Gerber Fmt 4.6, Leading zero omitted, Abs format (unit mm)*
G04 Created by KiCad (PCBNEW 5.1.7-a382d34a8~87~ubuntu20.04.1) date 2020-10-18 23:33:31*
%MOMM*%
%LPD*%
G01*
G04 APERTURE LIST*
%ADD10C,3.800000*%
%ADD11O,2.400000X1.600000*%
%ADD12R,2.400000X1.600000*%
%ADD13C,1.600000*%
%ADD14R,1.600000X1.600000*%
%ADD15O,1.600000X2.400000*%
%ADD16R,1.600000X2.400000*%
%ADD17C,2.000000*%
%ADD18O,1.400000X1.400000*%
%ADD19C,1.400000*%
%ADD20O,3.500000X2.000000*%
%ADD21O,2.000000X3.300000*%
%ADD22R,2.000000X4.000000*%
G04 APERTURE END LIST*
D10*
%TO.C,Par4*%
X147320000Y-27940000D03*
%TD*%
%TO.C,Par3*%
X233680000Y-53975000D03*
%TD*%
%TO.C,Par2*%
X207010000Y-105410000D03*
%TD*%
%TO.C,Par1*%
X165354000Y-105410000D03*
%TD*%
D11*
%TO.C,U3*%
X225742000Y-31750000D03*
X218122000Y-49530000D03*
X225742000Y-34290000D03*
X218122000Y-46990000D03*
X225742000Y-36830000D03*
X218122000Y-44450000D03*
X225742000Y-39370000D03*
X218122000Y-41910000D03*
X225742000Y-41910000D03*
X218122000Y-39370000D03*
X225742000Y-44450000D03*
X218122000Y-36830000D03*
X225742000Y-46990000D03*
X218122000Y-34290000D03*
X225742000Y-49530000D03*
D12*
X218122000Y-31750000D03*
%TD*%
D13*
%TO.C,U14*%
X177165000Y-85725000D03*
X177165000Y-88265000D03*
X177165000Y-90805000D03*
X177165000Y-93345000D03*
X177165000Y-95885000D03*
X172085000Y-95885000D03*
X172085000Y-93345000D03*
X172085000Y-90805000D03*
X172085000Y-88265000D03*
D14*
X172085000Y-85725000D03*
%TD*%
D13*
%TO.C,U13*%
X185420000Y-85725000D03*
X185420000Y-88265000D03*
X185420000Y-90805000D03*
X185420000Y-93345000D03*
X185420000Y-95885000D03*
X180340000Y-95885000D03*
X180340000Y-93345000D03*
X180340000Y-90805000D03*
X180340000Y-88265000D03*
D14*
X180340000Y-85725000D03*
%TD*%
D13*
%TO.C,U12*%
X193675000Y-85725000D03*
X193675000Y-88265000D03*
X193675000Y-90805000D03*
X193675000Y-93345000D03*
X193675000Y-95885000D03*
X188595000Y-95885000D03*
X188595000Y-93345000D03*
X188595000Y-90805000D03*
X188595000Y-88265000D03*
D14*
X188595000Y-85725000D03*
%TD*%
D13*
%TO.C,U11*%
X201930000Y-85725000D03*
X201930000Y-88265000D03*
X201930000Y-90805000D03*
X201930000Y-93345000D03*
X201930000Y-95885000D03*
X196850000Y-95885000D03*
X196850000Y-93345000D03*
X196850000Y-90805000D03*
X196850000Y-88265000D03*
D14*
X196850000Y-85725000D03*
%TD*%
D15*
%TO.C,U10*%
X148590000Y-66040000D03*
X130810000Y-58420000D03*
X146050000Y-66040000D03*
X133350000Y-58420000D03*
X143510000Y-66040000D03*
X135890000Y-58420000D03*
X140970000Y-66040000D03*
X138430000Y-58420000D03*
X138430000Y-66040000D03*
X140970000Y-58420000D03*
X135890000Y-66040000D03*
X143510000Y-58420000D03*
X133350000Y-66040000D03*
X146050000Y-58420000D03*
X130810000Y-66040000D03*
D16*
X148590000Y-58420000D03*
%TD*%
D15*
%TO.C,U9*%
X178435000Y-66040000D03*
X160655000Y-58420000D03*
X175895000Y-66040000D03*
X163195000Y-58420000D03*
X173355000Y-66040000D03*
X165735000Y-58420000D03*
X170815000Y-66040000D03*
X168275000Y-58420000D03*
X168275000Y-66040000D03*
X170815000Y-58420000D03*
X165735000Y-66040000D03*
X173355000Y-58420000D03*
X163195000Y-66040000D03*
X175895000Y-58420000D03*
X160655000Y-66040000D03*
D16*
X178435000Y-58420000D03*
%TD*%
D15*
%TO.C,U8*%
X207645000Y-66040000D03*
X189865000Y-58420000D03*
X205105000Y-66040000D03*
X192405000Y-58420000D03*
X202565000Y-66040000D03*
X194945000Y-58420000D03*
X200025000Y-66040000D03*
X197485000Y-58420000D03*
X197485000Y-66040000D03*
X200025000Y-58420000D03*
X194945000Y-66040000D03*
X202565000Y-58420000D03*
X192405000Y-66040000D03*
X205105000Y-58420000D03*
X189865000Y-66040000D03*
D16*
X207645000Y-58420000D03*
%TD*%
D15*
%TO.C,U7*%
X237490000Y-66040000D03*
X219710000Y-58420000D03*
X234950000Y-66040000D03*
X222250000Y-58420000D03*
X232410000Y-66040000D03*
X224790000Y-58420000D03*
X229870000Y-66040000D03*
X227330000Y-58420000D03*
X227330000Y-66040000D03*
X229870000Y-58420000D03*
X224790000Y-66040000D03*
X232410000Y-58420000D03*
X222250000Y-66040000D03*
X234950000Y-58420000D03*
X219710000Y-66040000D03*
D16*
X237490000Y-58420000D03*
%TD*%
D11*
%TO.C,U6*%
X210185000Y-33020000D03*
X202565000Y-48260000D03*
X210185000Y-35560000D03*
X202565000Y-45720000D03*
X210185000Y-38100000D03*
X202565000Y-43180000D03*
X210185000Y-40640000D03*
X202565000Y-40640000D03*
X210185000Y-43180000D03*
X202565000Y-38100000D03*
X210185000Y-45720000D03*
X202565000Y-35560000D03*
X210185000Y-48260000D03*
D12*
X202565000Y-33020000D03*
%TD*%
D11*
%TO.C,U5*%
X194627000Y-33020000D03*
X187007000Y-48260000D03*
X194627000Y-35560000D03*
X187007000Y-45720000D03*
X194627000Y-38100000D03*
X187007000Y-43180000D03*
X194627000Y-40640000D03*
X187007000Y-40640000D03*
X194627000Y-43180000D03*
X187007000Y-38100000D03*
X194627000Y-45720000D03*
X187007000Y-35560000D03*
X194627000Y-48260000D03*
D12*
X187007000Y-33020000D03*
%TD*%
D11*
%TO.C,U4*%
X179070000Y-33020000D03*
X171450000Y-48260000D03*
X179070000Y-35560000D03*
X171450000Y-45720000D03*
X179070000Y-38100000D03*
X171450000Y-43180000D03*
X179070000Y-40640000D03*
X171450000Y-40640000D03*
X179070000Y-43180000D03*
X171450000Y-38100000D03*
X179070000Y-45720000D03*
X171450000Y-35560000D03*
X179070000Y-48260000D03*
D12*
X171450000Y-33020000D03*
%TD*%
D11*
%TO.C,U2*%
X241300000Y-31750000D03*
X233680000Y-49530000D03*
X241300000Y-34290000D03*
X233680000Y-46990000D03*
X241300000Y-36830000D03*
X233680000Y-44450000D03*
X241300000Y-39370000D03*
X233680000Y-41910000D03*
X241300000Y-41910000D03*
X233680000Y-39370000D03*
X241300000Y-44450000D03*
X233680000Y-36830000D03*
X241300000Y-46990000D03*
X233680000Y-34290000D03*
X241300000Y-49530000D03*
D12*
X233680000Y-31750000D03*
%TD*%
D11*
%TO.C,U1*%
X160020000Y-36830000D03*
X152400000Y-44450000D03*
X160020000Y-39370000D03*
X152400000Y-41910000D03*
X160020000Y-41910000D03*
X152400000Y-39370000D03*
X160020000Y-44450000D03*
D12*
X152400000Y-36830000D03*
%TD*%
D17*
%TO.C,SW2*%
X198270000Y-102235000D03*
X198270000Y-106735000D03*
X191770000Y-102235000D03*
X191770000Y-106735000D03*
%TD*%
%TO.C,SW1*%
X181760000Y-102235000D03*
X181760000Y-106735000D03*
X175260000Y-102235000D03*
X175260000Y-106735000D03*
%TD*%
D18*
%TO.C,R34*%
X143510000Y-69850000D03*
D19*
X143510000Y-77470000D03*
%TD*%
D18*
%TO.C,R33*%
X146050000Y-69850000D03*
D19*
X146050000Y-77470000D03*
%TD*%
D18*
%TO.C,R32*%
X130810000Y-69850000D03*
D19*
X130810000Y-77470000D03*
%TD*%
D18*
%TO.C,R31*%
X133350000Y-69850000D03*
D19*
X133350000Y-77470000D03*
%TD*%
D18*
%TO.C,R30*%
X135890000Y-69850000D03*
D19*
X135890000Y-77470000D03*
%TD*%
D18*
%TO.C,R29*%
X138430000Y-69850000D03*
D19*
X138430000Y-77470000D03*
%TD*%
D18*
%TO.C,R28*%
X140970000Y-69850000D03*
D19*
X140970000Y-77470000D03*
%TD*%
D18*
%TO.C,R27*%
X173355000Y-69850000D03*
D19*
X173355000Y-77470000D03*
%TD*%
D18*
%TO.C,R26*%
X175895000Y-69850000D03*
D19*
X175895000Y-77470000D03*
%TD*%
D18*
%TO.C,R25*%
X160655000Y-69850000D03*
D19*
X160655000Y-77470000D03*
%TD*%
D18*
%TO.C,R24*%
X163195000Y-69850000D03*
D19*
X163195000Y-77470000D03*
%TD*%
D18*
%TO.C,R23*%
X165735000Y-69850000D03*
D19*
X165735000Y-77470000D03*
%TD*%
D18*
%TO.C,R22*%
X168275000Y-69850000D03*
D19*
X168275000Y-77470000D03*
%TD*%
D18*
%TO.C,R21*%
X170815000Y-69850000D03*
D19*
X170815000Y-77470000D03*
%TD*%
D18*
%TO.C,R20*%
X202565000Y-69850000D03*
D19*
X202565000Y-77470000D03*
%TD*%
D18*
%TO.C,R19*%
X205105000Y-69850000D03*
D19*
X205105000Y-77470000D03*
%TD*%
D18*
%TO.C,R18*%
X189865000Y-69850000D03*
D19*
X189865000Y-77470000D03*
%TD*%
D18*
%TO.C,R17*%
X192405000Y-69850000D03*
D19*
X192405000Y-77470000D03*
%TD*%
D18*
%TO.C,R16*%
X194945000Y-69850000D03*
D19*
X194945000Y-77470000D03*
%TD*%
D18*
%TO.C,R15*%
X197485000Y-69850000D03*
D19*
X197485000Y-77470000D03*
%TD*%
D18*
%TO.C,R14*%
X200025000Y-69850000D03*
D19*
X200025000Y-77470000D03*
%TD*%
D18*
%TO.C,R13*%
X232410000Y-69850000D03*
D19*
X232410000Y-77470000D03*
%TD*%
D18*
%TO.C,R12*%
X234950000Y-69850000D03*
D19*
X234950000Y-77470000D03*
%TD*%
D18*
%TO.C,R11*%
X219710000Y-69850000D03*
D19*
X219710000Y-77470000D03*
%TD*%
D18*
%TO.C,R10*%
X222250000Y-69850000D03*
D19*
X222250000Y-77470000D03*
%TD*%
D18*
%TO.C,R9*%
X224790000Y-69850000D03*
D19*
X224790000Y-77470000D03*
%TD*%
D18*
%TO.C,R8*%
X227330000Y-69850000D03*
D19*
X227330000Y-77470000D03*
%TD*%
D18*
%TO.C,R7*%
X229870000Y-69850000D03*
D19*
X229870000Y-77470000D03*
%TD*%
D18*
%TO.C,R6*%
X182245000Y-69850000D03*
D19*
X182245000Y-77470000D03*
%TD*%
D18*
%TO.C,R5*%
X156210000Y-95595000D03*
D19*
X156210000Y-87975000D03*
%TD*%
D18*
%TO.C,R4*%
X217805000Y-95595000D03*
D19*
X217805000Y-87975000D03*
%TD*%
D18*
%TO.C,R2*%
X164465000Y-48895000D03*
D19*
X164465000Y-41275000D03*
%TD*%
D18*
%TO.C,R1*%
X164465000Y-37465000D03*
D19*
X164465000Y-29845000D03*
%TD*%
D13*
%TO.C,J1*%
X130700000Y-40640000D03*
D20*
X132700000Y-45140000D03*
X132700000Y-36140000D03*
D21*
X133700000Y-40640000D03*
D22*
X139700000Y-40640000D03*
%TD*%
D13*
%TO.C,C15*%
X205145000Y-27940000D03*
X207645000Y-27940000D03*
%TD*%
%TO.C,C14*%
X152400000Y-61000000D03*
X152400000Y-63500000D03*
%TD*%
%TO.C,C13*%
X182245000Y-61000000D03*
X182245000Y-63500000D03*
%TD*%
%TO.C,C12*%
X211455000Y-61000000D03*
X211455000Y-63500000D03*
%TD*%
%TO.C,C11*%
X241300000Y-61000000D03*
X241300000Y-63500000D03*
%TD*%
%TO.C,C10*%
X174030000Y-27940000D03*
X176530000Y-27940000D03*
%TD*%
%TO.C,C9*%
X189588000Y-27940000D03*
X192088000Y-27940000D03*
%TD*%
%TO.C,C8*%
X220702000Y-27940000D03*
X223202000Y-27940000D03*
%TD*%
%TO.C,C7*%
X236260000Y-27940000D03*
X238760000Y-27940000D03*
%TD*%
%TO.C,C6*%
X153035000Y-30520000D03*
D14*
X153035000Y-33020000D03*
%TD*%
D13*
%TO.C,C5*%
X159385000Y-30520000D03*
D14*
X159385000Y-33020000D03*
%TD*%
D13*
%TO.C,C4*%
X161290000Y-90490100D03*
D14*
X161290000Y-92990100D03*
%TD*%
D13*
%TO.C,C3*%
X212725000Y-90490100D03*
D14*
X212725000Y-92990100D03*
%TD*%
D13*
%TO.C,C2*%
X157520000Y-48260000D03*
X160020000Y-48260000D03*
%TD*%
%TO.C,C1*%
X151805000Y-48260000D03*
X154305000Y-48260000D03*
%TD*%
M02*
