%FSLAX45Y45*%
G04 Gerber Fmt 4.5, Leading zero omitted, Abs format (unit mm)*
G04 Created by KiCad (PCBNEW 5.1.7-a382d34a8~87~ubuntu20.04.1) date 2020-10-18 23:33:40*
%MOMM*%
%LPD*%
G01*
G04 APERTURE LIST*
%TA.AperFunction,Profile*%
%ADD10C,0.050000*%
%TD*%
%ADD11C,0.200000*%
%ADD12C,0.300000*%
G04 APERTURE END LIST*
D10*
X16313752Y-10874873D02*
G75*
G03*
X16497300Y-10922000I183548J333873D01*
G01*
X20897173Y-10874821D02*
G75*
G02*
X20713642Y-10921939I-183531J333882D01*
G01*
X24406860Y-8453120D02*
G75*
G03*
X24511035Y-8191340I-276825J261780D01*
G01*
X12804078Y-8453178D02*
G75*
G02*
X12700000Y-8191500I276922J261678D01*
G01*
X24384000Y-2413000D02*
G75*
G02*
X24511000Y-2540000I0J-127000D01*
G01*
X12700000Y-2540000D02*
G75*
G02*
X12827000Y-2413000I127000J0D01*
G01*
X24406860Y-8453120D02*
X20897173Y-10874821D01*
X16313752Y-10874873D02*
X12804078Y-8453178D01*
X12700000Y-8191500D02*
X12700000Y-2540000D01*
X20713642Y-10921939D02*
X16497300Y-10922000D01*
X24511000Y-2540000D02*
X24511035Y-8191340D01*
X12827000Y-2413000D02*
X24384000Y-2413000D01*
D11*
X16903740Y-5343160D02*
X16943740Y-5383160D01*
X16943740Y-5343160D02*
X16903740Y-5383160D01*
X18337480Y-5066770D02*
X18377480Y-5106770D01*
X18377480Y-5066770D02*
X18337480Y-5106770D01*
X18538700Y-5713920D02*
X18578700Y-5753920D01*
X18578700Y-5713920D02*
X18538700Y-5753920D01*
X21327590Y-4564450D02*
X21367590Y-4604450D01*
X21367590Y-4564450D02*
X21327590Y-4604450D01*
X21571880Y-4805130D02*
X21611880Y-4845130D01*
X21611880Y-4805130D02*
X21571880Y-4845130D01*
X22794560Y-3219720D02*
X22834560Y-3259720D01*
X22834560Y-3219720D02*
X22794560Y-3259720D01*
X23022000Y-6985000D02*
G75*
G03*
X23022000Y-6985000I-35000J0D01*
G01*
X23022000Y-7747000D02*
G75*
G03*
X23022000Y-7747000I-35000J0D01*
G01*
X17116500Y-6985000D02*
G75*
G03*
X17116500Y-6985000I-35000J0D01*
G01*
X17116500Y-7747000D02*
G75*
G03*
X17116500Y-7747000I-35000J0D01*
G01*
X19783500Y-6985000D02*
G75*
G03*
X19783500Y-6985000I-35000J0D01*
G01*
X19783500Y-7747000D02*
G75*
G03*
X19783500Y-7747000I-35000J0D01*
G01*
X13624000Y-6985000D02*
G75*
G03*
X13624000Y-6985000I-35000J0D01*
G01*
X13624000Y-7747000D02*
G75*
G03*
X13624000Y-7747000I-35000J0D01*
G01*
X14640000Y-6985000D02*
G75*
G03*
X14640000Y-6985000I-35000J0D01*
G01*
X14640000Y-7747000D02*
G75*
G03*
X14640000Y-7747000I-35000J0D01*
G01*
X16481500Y-4127500D02*
G75*
G03*
X16481500Y-4127500I-35000J0D01*
G01*
X16481500Y-4889500D02*
G75*
G03*
X16481500Y-4889500I-35000J0D01*
G01*
X22768000Y-6985000D02*
G75*
G03*
X22768000Y-6985000I-35000J0D01*
G01*
X22768000Y-7747000D02*
G75*
G03*
X22768000Y-7747000I-35000J0D01*
G01*
X15656000Y-8797500D02*
G75*
G03*
X15656000Y-8797500I-35000J0D01*
G01*
X15656000Y-9559500D02*
G75*
G03*
X15656000Y-9559500I-35000J0D01*
G01*
X16481500Y-2984500D02*
G75*
G03*
X16481500Y-2984500I-35000J0D01*
G01*
X16481500Y-3746500D02*
G75*
G03*
X16481500Y-3746500I-35000J0D01*
G01*
X23276000Y-6985000D02*
G75*
G03*
X23276000Y-6985000I-35000J0D01*
G01*
X23276000Y-7747000D02*
G75*
G03*
X23276000Y-7747000I-35000J0D01*
G01*
X13878000Y-6985000D02*
G75*
G03*
X13878000Y-6985000I-35000J0D01*
G01*
X13878000Y-7747000D02*
G75*
G03*
X13878000Y-7747000I-35000J0D01*
G01*
X16608500Y-6985000D02*
G75*
G03*
X16608500Y-6985000I-35000J0D01*
G01*
X16608500Y-7747000D02*
G75*
G03*
X16608500Y-7747000I-35000J0D01*
G01*
X17370500Y-6985000D02*
G75*
G03*
X17370500Y-6985000I-35000J0D01*
G01*
X17370500Y-7747000D02*
G75*
G03*
X17370500Y-7747000I-35000J0D01*
G01*
X19275500Y-6985000D02*
G75*
G03*
X19275500Y-6985000I-35000J0D01*
G01*
X19275500Y-7747000D02*
G75*
G03*
X19275500Y-7747000I-35000J0D01*
G01*
X20037500Y-6985000D02*
G75*
G03*
X20037500Y-6985000I-35000J0D01*
G01*
X20037500Y-7747000D02*
G75*
G03*
X20037500Y-7747000I-35000J0D01*
G01*
X22006000Y-6985000D02*
G75*
G03*
X22006000Y-6985000I-35000J0D01*
G01*
X22006000Y-7747000D02*
G75*
G03*
X22006000Y-7747000I-35000J0D01*
G01*
X14386000Y-6985000D02*
G75*
G03*
X14386000Y-6985000I-35000J0D01*
G01*
X14386000Y-7747000D02*
G75*
G03*
X14386000Y-7747000I-35000J0D01*
G01*
X19021500Y-6985000D02*
G75*
G03*
X19021500Y-6985000I-35000J0D01*
G01*
X19021500Y-7747000D02*
G75*
G03*
X19021500Y-7747000I-35000J0D01*
G01*
X16354500Y-6985000D02*
G75*
G03*
X16354500Y-6985000I-35000J0D01*
G01*
X16354500Y-7747000D02*
G75*
G03*
X16354500Y-7747000I-35000J0D01*
G01*
X14132000Y-6985000D02*
G75*
G03*
X14132000Y-6985000I-35000J0D01*
G01*
X14132000Y-7747000D02*
G75*
G03*
X14132000Y-7747000I-35000J0D01*
G01*
X23530000Y-6985000D02*
G75*
G03*
X23530000Y-6985000I-35000J0D01*
G01*
X23530000Y-7747000D02*
G75*
G03*
X23530000Y-7747000I-35000J0D01*
G01*
X22514000Y-6985000D02*
G75*
G03*
X22514000Y-6985000I-35000J0D01*
G01*
X22514000Y-7747000D02*
G75*
G03*
X22514000Y-7747000I-35000J0D01*
G01*
X16100500Y-6985000D02*
G75*
G03*
X16100500Y-6985000I-35000J0D01*
G01*
X16100500Y-7747000D02*
G75*
G03*
X16100500Y-7747000I-35000J0D01*
G01*
X19529500Y-6985000D02*
G75*
G03*
X19529500Y-6985000I-35000J0D01*
G01*
X19529500Y-7747000D02*
G75*
G03*
X19529500Y-7747000I-35000J0D01*
G01*
X13116000Y-6985000D02*
G75*
G03*
X13116000Y-6985000I-35000J0D01*
G01*
X13116000Y-7747000D02*
G75*
G03*
X13116000Y-7747000I-35000J0D01*
G01*
X17624500Y-6985000D02*
G75*
G03*
X17624500Y-6985000I-35000J0D01*
G01*
X17624500Y-7747000D02*
G75*
G03*
X17624500Y-7747000I-35000J0D01*
G01*
X16862500Y-6985000D02*
G75*
G03*
X16862500Y-6985000I-35000J0D01*
G01*
X16862500Y-7747000D02*
G75*
G03*
X16862500Y-7747000I-35000J0D01*
G01*
X20291500Y-6985000D02*
G75*
G03*
X20291500Y-6985000I-35000J0D01*
G01*
X20291500Y-7747000D02*
G75*
G03*
X20291500Y-7747000I-35000J0D01*
G01*
X21815500Y-8797500D02*
G75*
G03*
X21815500Y-8797500I-35000J0D01*
G01*
X21815500Y-9559500D02*
G75*
G03*
X21815500Y-9559500I-35000J0D01*
G01*
X20545500Y-6985000D02*
G75*
G03*
X20545500Y-6985000I-35000J0D01*
G01*
X20545500Y-7747000D02*
G75*
G03*
X20545500Y-7747000I-35000J0D01*
G01*
X13370000Y-6985000D02*
G75*
G03*
X13370000Y-6985000I-35000J0D01*
G01*
X13370000Y-7747000D02*
G75*
G03*
X13370000Y-7747000I-35000J0D01*
G01*
X18259500Y-6985000D02*
G75*
G03*
X18259500Y-6985000I-35000J0D01*
G01*
X18259500Y-7747000D02*
G75*
G03*
X18259500Y-7747000I-35000J0D01*
G01*
X22260000Y-6985000D02*
G75*
G03*
X22260000Y-6985000I-35000J0D01*
G01*
X22260000Y-7747000D02*
G75*
G03*
X22260000Y-7747000I-35000J0D01*
G01*
X22070200Y-2754000D02*
X22070200Y-2834000D01*
X22030200Y-2794000D02*
X22110200Y-2794000D01*
X22320200Y-2754000D02*
X22320200Y-2834000D01*
X22280200Y-2794000D02*
X22360200Y-2794000D01*
X15303500Y-3012000D02*
X15303500Y-3092000D01*
X15263500Y-3052000D02*
X15343500Y-3052000D01*
X15303500Y-3262000D02*
X15303500Y-3342000D01*
X15263500Y-3302000D02*
X15343500Y-3302000D01*
X20514500Y-2754000D02*
X20514500Y-2834000D01*
X20474500Y-2794000D02*
X20554500Y-2794000D01*
X20764500Y-2754000D02*
X20764500Y-2834000D01*
X20724500Y-2794000D02*
X20804500Y-2794000D01*
X18958800Y-2754000D02*
X18958800Y-2834000D01*
X18918800Y-2794000D02*
X18998800Y-2794000D01*
X19208800Y-2754000D02*
X19208800Y-2834000D01*
X19168800Y-2794000D02*
X19248800Y-2794000D01*
X23368000Y-3135000D02*
X23368000Y-3215000D01*
X23328000Y-3175000D02*
X23408000Y-3175000D01*
X23368000Y-3389000D02*
X23368000Y-3469000D01*
X23328000Y-3429000D02*
X23408000Y-3429000D01*
X23368000Y-3643000D02*
X23368000Y-3723000D01*
X23328000Y-3683000D02*
X23408000Y-3683000D01*
X23368000Y-3897000D02*
X23368000Y-3977000D01*
X23328000Y-3937000D02*
X23408000Y-3937000D01*
X23368000Y-4151000D02*
X23368000Y-4231000D01*
X23328000Y-4191000D02*
X23408000Y-4191000D01*
X23368000Y-4405000D02*
X23368000Y-4485000D01*
X23328000Y-4445000D02*
X23408000Y-4445000D01*
X23368000Y-4659000D02*
X23368000Y-4739000D01*
X23328000Y-4699000D02*
X23408000Y-4699000D01*
X23368000Y-4913000D02*
X23368000Y-4993000D01*
X23328000Y-4953000D02*
X23408000Y-4953000D01*
X24130000Y-3135000D02*
X24130000Y-3215000D01*
X24090000Y-3175000D02*
X24170000Y-3175000D01*
X24130000Y-3389000D02*
X24130000Y-3469000D01*
X24090000Y-3429000D02*
X24170000Y-3429000D01*
X24130000Y-3643000D02*
X24130000Y-3723000D01*
X24090000Y-3683000D02*
X24170000Y-3683000D01*
X24130000Y-3897000D02*
X24130000Y-3977000D01*
X24090000Y-3937000D02*
X24170000Y-3937000D01*
X24130000Y-4151000D02*
X24130000Y-4231000D01*
X24090000Y-4191000D02*
X24170000Y-4191000D01*
X24130000Y-4405000D02*
X24130000Y-4485000D01*
X24090000Y-4445000D02*
X24170000Y-4445000D01*
X24130000Y-4659000D02*
X24130000Y-4739000D01*
X24090000Y-4699000D02*
X24170000Y-4699000D01*
X24130000Y-4913000D02*
X24130000Y-4993000D01*
X24090000Y-4953000D02*
X24170000Y-4953000D01*
X23626000Y-2754000D02*
X23626000Y-2834000D01*
X23586000Y-2794000D02*
X23666000Y-2794000D01*
X23876000Y-2754000D02*
X23876000Y-2834000D01*
X23836000Y-2794000D02*
X23916000Y-2794000D01*
X18859500Y-8532500D02*
X18859500Y-8612500D01*
X18819500Y-8572500D02*
X18899500Y-8572500D01*
X18859500Y-8786500D02*
X18859500Y-8866500D01*
X18819500Y-8826500D02*
X18899500Y-8826500D01*
X18859500Y-9040500D02*
X18859500Y-9120500D01*
X18819500Y-9080500D02*
X18899500Y-9080500D01*
X18859500Y-9294500D02*
X18859500Y-9374500D01*
X18819500Y-9334500D02*
X18899500Y-9334500D01*
X18859500Y-9548500D02*
X18859500Y-9628500D01*
X18819500Y-9588500D02*
X18899500Y-9588500D01*
X19367500Y-8532500D02*
X19367500Y-8612500D01*
X19327500Y-8572500D02*
X19407500Y-8572500D01*
X19367500Y-8786500D02*
X19367500Y-8866500D01*
X19327500Y-8826500D02*
X19407500Y-8826500D01*
X19367500Y-9040500D02*
X19367500Y-9120500D01*
X19327500Y-9080500D02*
X19407500Y-9080500D01*
X19367500Y-9294500D02*
X19367500Y-9374500D01*
X19327500Y-9334500D02*
X19407500Y-9334500D01*
X19367500Y-9548500D02*
X19367500Y-9628500D01*
X19327500Y-9588500D02*
X19407500Y-9588500D01*
X20256500Y-3262000D02*
X20256500Y-3342000D01*
X20216500Y-3302000D02*
X20296500Y-3302000D01*
X20256500Y-3516000D02*
X20256500Y-3596000D01*
X20216500Y-3556000D02*
X20296500Y-3556000D01*
X20256500Y-3770000D02*
X20256500Y-3850000D01*
X20216500Y-3810000D02*
X20296500Y-3810000D01*
X20256500Y-4024000D02*
X20256500Y-4104000D01*
X20216500Y-4064000D02*
X20296500Y-4064000D01*
X20256500Y-4278000D02*
X20256500Y-4358000D01*
X20216500Y-4318000D02*
X20296500Y-4318000D01*
X20256500Y-4532000D02*
X20256500Y-4612000D01*
X20216500Y-4572000D02*
X20296500Y-4572000D01*
X20256500Y-4786000D02*
X20256500Y-4866000D01*
X20216500Y-4826000D02*
X20296500Y-4826000D01*
X21018500Y-3262000D02*
X21018500Y-3342000D01*
X20978500Y-3302000D02*
X21058500Y-3302000D01*
X21018500Y-3516000D02*
X21018500Y-3596000D01*
X20978500Y-3556000D02*
X21058500Y-3556000D01*
X21018500Y-3770000D02*
X21018500Y-3850000D01*
X20978500Y-3810000D02*
X21058500Y-3810000D01*
X21018500Y-4024000D02*
X21018500Y-4104000D01*
X20978500Y-4064000D02*
X21058500Y-4064000D01*
X21018500Y-4278000D02*
X21018500Y-4358000D01*
X20978500Y-4318000D02*
X21058500Y-4318000D01*
X21018500Y-4532000D02*
X21018500Y-4612000D01*
X20978500Y-4572000D02*
X21058500Y-4572000D01*
X21018500Y-4786000D02*
X21018500Y-4866000D01*
X20978500Y-4826000D02*
X21058500Y-4826000D01*
X13081000Y-5802000D02*
X13081000Y-5882000D01*
X13041000Y-5842000D02*
X13121000Y-5842000D01*
X13081000Y-6564000D02*
X13081000Y-6644000D01*
X13041000Y-6604000D02*
X13121000Y-6604000D01*
X13335000Y-5802000D02*
X13335000Y-5882000D01*
X13295000Y-5842000D02*
X13375000Y-5842000D01*
X13335000Y-6564000D02*
X13335000Y-6644000D01*
X13295000Y-6604000D02*
X13375000Y-6604000D01*
X13589000Y-5802000D02*
X13589000Y-5882000D01*
X13549000Y-5842000D02*
X13629000Y-5842000D01*
X13589000Y-6564000D02*
X13589000Y-6644000D01*
X13549000Y-6604000D02*
X13629000Y-6604000D01*
X13843000Y-5802000D02*
X13843000Y-5882000D01*
X13803000Y-5842000D02*
X13883000Y-5842000D01*
X13843000Y-6564000D02*
X13843000Y-6644000D01*
X13803000Y-6604000D02*
X13883000Y-6604000D01*
X14097000Y-5802000D02*
X14097000Y-5882000D01*
X14057000Y-5842000D02*
X14137000Y-5842000D01*
X14097000Y-6564000D02*
X14097000Y-6644000D01*
X14057000Y-6604000D02*
X14137000Y-6604000D01*
X14351000Y-5802000D02*
X14351000Y-5882000D01*
X14311000Y-5842000D02*
X14391000Y-5842000D01*
X14351000Y-6564000D02*
X14351000Y-6644000D01*
X14311000Y-6604000D02*
X14391000Y-6604000D01*
X14605000Y-5802000D02*
X14605000Y-5882000D01*
X14565000Y-5842000D02*
X14645000Y-5842000D01*
X14605000Y-6564000D02*
X14605000Y-6644000D01*
X14565000Y-6604000D02*
X14645000Y-6604000D01*
X14859000Y-5802000D02*
X14859000Y-5882000D01*
X14819000Y-5842000D02*
X14899000Y-5842000D01*
X14859000Y-6564000D02*
X14859000Y-6644000D01*
X14819000Y-6604000D02*
X14899000Y-6604000D01*
X18986500Y-5802000D02*
X18986500Y-5882000D01*
X18946500Y-5842000D02*
X19026500Y-5842000D01*
X18986500Y-6564000D02*
X18986500Y-6644000D01*
X18946500Y-6604000D02*
X19026500Y-6604000D01*
X19240500Y-5802000D02*
X19240500Y-5882000D01*
X19200500Y-5842000D02*
X19280500Y-5842000D01*
X19240500Y-6564000D02*
X19240500Y-6644000D01*
X19200500Y-6604000D02*
X19280500Y-6604000D01*
X19494500Y-5802000D02*
X19494500Y-5882000D01*
X19454500Y-5842000D02*
X19534500Y-5842000D01*
X19494500Y-6564000D02*
X19494500Y-6644000D01*
X19454500Y-6604000D02*
X19534500Y-6604000D01*
X19748500Y-5802000D02*
X19748500Y-5882000D01*
X19708500Y-5842000D02*
X19788500Y-5842000D01*
X19748500Y-6564000D02*
X19748500Y-6644000D01*
X19708500Y-6604000D02*
X19788500Y-6604000D01*
X20002500Y-5802000D02*
X20002500Y-5882000D01*
X19962500Y-5842000D02*
X20042500Y-5842000D01*
X20002500Y-6564000D02*
X20002500Y-6644000D01*
X19962500Y-6604000D02*
X20042500Y-6604000D01*
X20256500Y-5802000D02*
X20256500Y-5882000D01*
X20216500Y-5842000D02*
X20296500Y-5842000D01*
X20256500Y-6564000D02*
X20256500Y-6644000D01*
X20216500Y-6604000D02*
X20296500Y-6604000D01*
X20510500Y-5802000D02*
X20510500Y-5882000D01*
X20470500Y-5842000D02*
X20550500Y-5842000D01*
X20510500Y-6564000D02*
X20510500Y-6644000D01*
X20470500Y-6604000D02*
X20550500Y-6604000D01*
X20764500Y-5802000D02*
X20764500Y-5882000D01*
X20724500Y-5842000D02*
X20804500Y-5842000D01*
X20764500Y-6564000D02*
X20764500Y-6644000D01*
X20724500Y-6604000D02*
X20804500Y-6604000D01*
X19685000Y-8532500D02*
X19685000Y-8612500D01*
X19645000Y-8572500D02*
X19725000Y-8572500D01*
X19685000Y-8786500D02*
X19685000Y-8866500D01*
X19645000Y-8826500D02*
X19725000Y-8826500D01*
X19685000Y-9040500D02*
X19685000Y-9120500D01*
X19645000Y-9080500D02*
X19725000Y-9080500D01*
X19685000Y-9294500D02*
X19685000Y-9374500D01*
X19645000Y-9334500D02*
X19725000Y-9334500D01*
X19685000Y-9548500D02*
X19685000Y-9628500D01*
X19645000Y-9588500D02*
X19725000Y-9588500D01*
X20193000Y-8532500D02*
X20193000Y-8612500D01*
X20153000Y-8572500D02*
X20233000Y-8572500D01*
X20193000Y-8786500D02*
X20193000Y-8866500D01*
X20153000Y-8826500D02*
X20233000Y-8826500D01*
X20193000Y-9040500D02*
X20193000Y-9120500D01*
X20153000Y-9080500D02*
X20233000Y-9080500D01*
X20193000Y-9294500D02*
X20193000Y-9374500D01*
X20153000Y-9334500D02*
X20233000Y-9334500D01*
X20193000Y-9548500D02*
X20193000Y-9628500D01*
X20153000Y-9588500D02*
X20233000Y-9588500D01*
X16065500Y-5802000D02*
X16065500Y-5882000D01*
X16025500Y-5842000D02*
X16105500Y-5842000D01*
X16065500Y-6564000D02*
X16065500Y-6644000D01*
X16025500Y-6604000D02*
X16105500Y-6604000D01*
X16319500Y-5802000D02*
X16319500Y-5882000D01*
X16279500Y-5842000D02*
X16359500Y-5842000D01*
X16319500Y-6564000D02*
X16319500Y-6644000D01*
X16279500Y-6604000D02*
X16359500Y-6604000D01*
X16573500Y-5802000D02*
X16573500Y-5882000D01*
X16533500Y-5842000D02*
X16613500Y-5842000D01*
X16573500Y-6564000D02*
X16573500Y-6644000D01*
X16533500Y-6604000D02*
X16613500Y-6604000D01*
X16827500Y-5802000D02*
X16827500Y-5882000D01*
X16787500Y-5842000D02*
X16867500Y-5842000D01*
X16827500Y-6564000D02*
X16827500Y-6644000D01*
X16787500Y-6604000D02*
X16867500Y-6604000D01*
X17081500Y-5802000D02*
X17081500Y-5882000D01*
X17041500Y-5842000D02*
X17121500Y-5842000D01*
X17081500Y-6564000D02*
X17081500Y-6644000D01*
X17041500Y-6604000D02*
X17121500Y-6604000D01*
X17335500Y-5802000D02*
X17335500Y-5882000D01*
X17295500Y-5842000D02*
X17375500Y-5842000D01*
X17335500Y-6564000D02*
X17335500Y-6644000D01*
X17295500Y-6604000D02*
X17375500Y-6604000D01*
X17589500Y-5802000D02*
X17589500Y-5882000D01*
X17549500Y-5842000D02*
X17629500Y-5842000D01*
X17589500Y-6564000D02*
X17589500Y-6644000D01*
X17549500Y-6604000D02*
X17629500Y-6604000D01*
X17843500Y-5802000D02*
X17843500Y-5882000D01*
X17803500Y-5842000D02*
X17883500Y-5842000D01*
X17843500Y-6564000D02*
X17843500Y-6644000D01*
X17803500Y-6604000D02*
X17883500Y-6604000D01*
X15240000Y-6060000D02*
X15240000Y-6140000D01*
X15200000Y-6100000D02*
X15280000Y-6100000D01*
X15240000Y-6310000D02*
X15240000Y-6390000D01*
X15200000Y-6350000D02*
X15280000Y-6350000D01*
X18700700Y-3262000D02*
X18700700Y-3342000D01*
X18660700Y-3302000D02*
X18740700Y-3302000D01*
X18700700Y-3516000D02*
X18700700Y-3596000D01*
X18660700Y-3556000D02*
X18740700Y-3556000D01*
X18700700Y-3770000D02*
X18700700Y-3850000D01*
X18660700Y-3810000D02*
X18740700Y-3810000D01*
X18700700Y-4024000D02*
X18700700Y-4104000D01*
X18660700Y-4064000D02*
X18740700Y-4064000D01*
X18700700Y-4278000D02*
X18700700Y-4358000D01*
X18660700Y-4318000D02*
X18740700Y-4318000D01*
X18700700Y-4532000D02*
X18700700Y-4612000D01*
X18660700Y-4572000D02*
X18740700Y-4572000D01*
X18700700Y-4786000D02*
X18700700Y-4866000D01*
X18660700Y-4826000D02*
X18740700Y-4826000D01*
X19462700Y-3262000D02*
X19462700Y-3342000D01*
X19422700Y-3302000D02*
X19502700Y-3302000D01*
X19462700Y-3516000D02*
X19462700Y-3596000D01*
X19422700Y-3556000D02*
X19502700Y-3556000D01*
X19462700Y-3770000D02*
X19462700Y-3850000D01*
X19422700Y-3810000D02*
X19502700Y-3810000D01*
X19462700Y-4024000D02*
X19462700Y-4104000D01*
X19422700Y-4064000D02*
X19502700Y-4064000D01*
X19462700Y-4278000D02*
X19462700Y-4358000D01*
X19422700Y-4318000D02*
X19502700Y-4318000D01*
X19462700Y-4532000D02*
X19462700Y-4612000D01*
X19422700Y-4572000D02*
X19502700Y-4572000D01*
X19462700Y-4786000D02*
X19462700Y-4866000D01*
X19422700Y-4826000D02*
X19502700Y-4826000D01*
X17145000Y-3262000D02*
X17145000Y-3342000D01*
X17105000Y-3302000D02*
X17185000Y-3302000D01*
X17145000Y-3516000D02*
X17145000Y-3596000D01*
X17105000Y-3556000D02*
X17185000Y-3556000D01*
X17145000Y-3770000D02*
X17145000Y-3850000D01*
X17105000Y-3810000D02*
X17185000Y-3810000D01*
X17145000Y-4024000D02*
X17145000Y-4104000D01*
X17105000Y-4064000D02*
X17185000Y-4064000D01*
X17145000Y-4278000D02*
X17145000Y-4358000D01*
X17105000Y-4318000D02*
X17185000Y-4318000D01*
X17145000Y-4532000D02*
X17145000Y-4612000D01*
X17105000Y-4572000D02*
X17185000Y-4572000D01*
X17145000Y-4786000D02*
X17145000Y-4866000D01*
X17105000Y-4826000D02*
X17185000Y-4826000D01*
X17907000Y-3262000D02*
X17907000Y-3342000D01*
X17867000Y-3302000D02*
X17947000Y-3302000D01*
X17907000Y-3516000D02*
X17907000Y-3596000D01*
X17867000Y-3556000D02*
X17947000Y-3556000D01*
X17907000Y-3770000D02*
X17907000Y-3850000D01*
X17867000Y-3810000D02*
X17947000Y-3810000D01*
X17907000Y-4024000D02*
X17907000Y-4104000D01*
X17867000Y-4064000D02*
X17947000Y-4064000D01*
X17907000Y-4278000D02*
X17907000Y-4358000D01*
X17867000Y-4318000D02*
X17947000Y-4318000D01*
X17907000Y-4532000D02*
X17907000Y-4612000D01*
X17867000Y-4572000D02*
X17947000Y-4572000D01*
X17907000Y-4786000D02*
X17907000Y-4866000D01*
X17867000Y-4826000D02*
X17947000Y-4826000D01*
X17208500Y-8532500D02*
X17208500Y-8612500D01*
X17168500Y-8572500D02*
X17248500Y-8572500D01*
X17208500Y-8786500D02*
X17208500Y-8866500D01*
X17168500Y-8826500D02*
X17248500Y-8826500D01*
X17208500Y-9040500D02*
X17208500Y-9120500D01*
X17168500Y-9080500D02*
X17248500Y-9080500D01*
X17208500Y-9294500D02*
X17208500Y-9374500D01*
X17168500Y-9334500D02*
X17248500Y-9334500D01*
X17208500Y-9548500D02*
X17208500Y-9628500D01*
X17168500Y-9588500D02*
X17248500Y-9588500D01*
X17716500Y-8532500D02*
X17716500Y-8612500D01*
X17676500Y-8572500D02*
X17756500Y-8572500D01*
X17716500Y-8786500D02*
X17716500Y-8866500D01*
X17676500Y-8826500D02*
X17756500Y-8826500D01*
X17716500Y-9040500D02*
X17716500Y-9120500D01*
X17676500Y-9080500D02*
X17756500Y-9080500D01*
X17716500Y-9294500D02*
X17716500Y-9374500D01*
X17676500Y-9334500D02*
X17756500Y-9334500D01*
X17716500Y-9548500D02*
X17716500Y-9628500D01*
X17676500Y-9588500D02*
X17756500Y-9588500D01*
X18034000Y-8532500D02*
X18034000Y-8612500D01*
X17994000Y-8572500D02*
X18074000Y-8572500D01*
X18034000Y-8786500D02*
X18034000Y-8866500D01*
X17994000Y-8826500D02*
X18074000Y-8826500D01*
X18034000Y-9040500D02*
X18034000Y-9120500D01*
X17994000Y-9080500D02*
X18074000Y-9080500D01*
X18034000Y-9294500D02*
X18034000Y-9374500D01*
X17994000Y-9334500D02*
X18074000Y-9334500D01*
X18034000Y-9548500D02*
X18034000Y-9628500D01*
X17994000Y-9588500D02*
X18074000Y-9588500D01*
X18542000Y-8532500D02*
X18542000Y-8612500D01*
X18502000Y-8572500D02*
X18582000Y-8572500D01*
X18542000Y-8786500D02*
X18542000Y-8866500D01*
X18502000Y-8826500D02*
X18582000Y-8826500D01*
X18542000Y-9040500D02*
X18542000Y-9120500D01*
X18502000Y-9080500D02*
X18582000Y-9080500D01*
X18542000Y-9294500D02*
X18542000Y-9374500D01*
X18502000Y-9334500D02*
X18582000Y-9334500D01*
X18542000Y-9548500D02*
X18542000Y-9628500D01*
X18502000Y-9588500D02*
X18582000Y-9588500D01*
X17403000Y-2754000D02*
X17403000Y-2834000D01*
X17363000Y-2794000D02*
X17443000Y-2794000D01*
X17653000Y-2754000D02*
X17653000Y-2834000D01*
X17613000Y-2794000D02*
X17693000Y-2794000D01*
X21272500Y-9009010D02*
X21272500Y-9089010D01*
X21232500Y-9049010D02*
X21312500Y-9049010D01*
X21272500Y-9259010D02*
X21272500Y-9339010D01*
X21232500Y-9299010D02*
X21312500Y-9299010D01*
X15240000Y-3643000D02*
X15240000Y-3723000D01*
X15200000Y-3683000D02*
X15280000Y-3683000D01*
X15240000Y-3897000D02*
X15240000Y-3977000D01*
X15200000Y-3937000D02*
X15280000Y-3937000D01*
X15240000Y-4151000D02*
X15240000Y-4231000D01*
X15200000Y-4191000D02*
X15280000Y-4191000D01*
X15240000Y-4405000D02*
X15240000Y-4485000D01*
X15200000Y-4445000D02*
X15280000Y-4445000D01*
X16002000Y-3643000D02*
X16002000Y-3723000D01*
X15962000Y-3683000D02*
X16042000Y-3683000D01*
X16002000Y-3897000D02*
X16002000Y-3977000D01*
X15962000Y-3937000D02*
X16042000Y-3937000D01*
X16002000Y-4151000D02*
X16002000Y-4231000D01*
X15962000Y-4191000D02*
X16042000Y-4191000D01*
X16002000Y-4405000D02*
X16002000Y-4485000D01*
X15962000Y-4445000D02*
X16042000Y-4445000D01*
X18224500Y-6060000D02*
X18224500Y-6140000D01*
X18184500Y-6100000D02*
X18264500Y-6100000D01*
X18224500Y-6310000D02*
X18224500Y-6390000D01*
X18184500Y-6350000D02*
X18264500Y-6350000D01*
X21971000Y-5802000D02*
X21971000Y-5882000D01*
X21931000Y-5842000D02*
X22011000Y-5842000D01*
X21971000Y-6564000D02*
X21971000Y-6644000D01*
X21931000Y-6604000D02*
X22011000Y-6604000D01*
X22225000Y-5802000D02*
X22225000Y-5882000D01*
X22185000Y-5842000D02*
X22265000Y-5842000D01*
X22225000Y-6564000D02*
X22225000Y-6644000D01*
X22185000Y-6604000D02*
X22265000Y-6604000D01*
X22479000Y-5802000D02*
X22479000Y-5882000D01*
X22439000Y-5842000D02*
X22519000Y-5842000D01*
X22479000Y-6564000D02*
X22479000Y-6644000D01*
X22439000Y-6604000D02*
X22519000Y-6604000D01*
X22733000Y-5802000D02*
X22733000Y-5882000D01*
X22693000Y-5842000D02*
X22773000Y-5842000D01*
X22733000Y-6564000D02*
X22733000Y-6644000D01*
X22693000Y-6604000D02*
X22773000Y-6604000D01*
X22987000Y-5802000D02*
X22987000Y-5882000D01*
X22947000Y-5842000D02*
X23027000Y-5842000D01*
X22987000Y-6564000D02*
X22987000Y-6644000D01*
X22947000Y-6604000D02*
X23027000Y-6604000D01*
X23241000Y-5802000D02*
X23241000Y-5882000D01*
X23201000Y-5842000D02*
X23281000Y-5842000D01*
X23241000Y-6564000D02*
X23241000Y-6644000D01*
X23201000Y-6604000D02*
X23281000Y-6604000D01*
X23495000Y-5802000D02*
X23495000Y-5882000D01*
X23455000Y-5842000D02*
X23535000Y-5842000D01*
X23495000Y-6564000D02*
X23495000Y-6644000D01*
X23455000Y-6604000D02*
X23535000Y-6604000D01*
X23749000Y-5802000D02*
X23749000Y-5882000D01*
X23709000Y-5842000D02*
X23789000Y-5842000D01*
X23749000Y-6564000D02*
X23749000Y-6644000D01*
X23709000Y-6604000D02*
X23789000Y-6604000D01*
X21145500Y-6060000D02*
X21145500Y-6140000D01*
X21105500Y-6100000D02*
X21185500Y-6100000D01*
X21145500Y-6310000D02*
X21145500Y-6390000D01*
X21105500Y-6350000D02*
X21185500Y-6350000D01*
X16129000Y-9009010D02*
X16129000Y-9089010D01*
X16089000Y-9049010D02*
X16169000Y-9049010D01*
X16129000Y-9259010D02*
X16129000Y-9339010D01*
X16089000Y-9299010D02*
X16169000Y-9299010D01*
X15752000Y-4786000D02*
X15752000Y-4866000D01*
X15712000Y-4826000D02*
X15792000Y-4826000D01*
X16002000Y-4786000D02*
X16002000Y-4866000D01*
X15962000Y-4826000D02*
X16042000Y-4826000D01*
X21812200Y-3135000D02*
X21812200Y-3215000D01*
X21772200Y-3175000D02*
X21852200Y-3175000D01*
X21812200Y-3389000D02*
X21812200Y-3469000D01*
X21772200Y-3429000D02*
X21852200Y-3429000D01*
X21812200Y-3643000D02*
X21812200Y-3723000D01*
X21772200Y-3683000D02*
X21852200Y-3683000D01*
X21812200Y-3897000D02*
X21812200Y-3977000D01*
X21772200Y-3937000D02*
X21852200Y-3937000D01*
X21812200Y-4151000D02*
X21812200Y-4231000D01*
X21772200Y-4191000D02*
X21852200Y-4191000D01*
X21812200Y-4405000D02*
X21812200Y-4485000D01*
X21772200Y-4445000D02*
X21852200Y-4445000D01*
X21812200Y-4659000D02*
X21812200Y-4739000D01*
X21772200Y-4699000D02*
X21852200Y-4699000D01*
X21812200Y-4913000D02*
X21812200Y-4993000D01*
X21772200Y-4953000D02*
X21852200Y-4953000D01*
X22574200Y-3135000D02*
X22574200Y-3215000D01*
X22534200Y-3175000D02*
X22614200Y-3175000D01*
X22574200Y-3389000D02*
X22574200Y-3469000D01*
X22534200Y-3429000D02*
X22614200Y-3429000D01*
X22574200Y-3643000D02*
X22574200Y-3723000D01*
X22534200Y-3683000D02*
X22614200Y-3683000D01*
X22574200Y-3897000D02*
X22574200Y-3977000D01*
X22534200Y-3937000D02*
X22614200Y-3937000D01*
X22574200Y-4151000D02*
X22574200Y-4231000D01*
X22534200Y-4191000D02*
X22614200Y-4191000D01*
X22574200Y-4405000D02*
X22574200Y-4485000D01*
X22534200Y-4445000D02*
X22614200Y-4445000D01*
X22574200Y-4659000D02*
X22574200Y-4739000D01*
X22534200Y-4699000D02*
X22614200Y-4699000D01*
X22574200Y-4913000D02*
X22574200Y-4993000D01*
X22534200Y-4953000D02*
X22614200Y-4953000D01*
X24130000Y-6060000D02*
X24130000Y-6140000D01*
X24090000Y-6100000D02*
X24170000Y-6100000D01*
X24130000Y-6310000D02*
X24130000Y-6390000D01*
X24090000Y-6350000D02*
X24170000Y-6350000D01*
X15938500Y-3012000D02*
X15938500Y-3092000D01*
X15898500Y-3052000D02*
X15978500Y-3052000D01*
X15938500Y-3262000D02*
X15938500Y-3342000D01*
X15898500Y-3302000D02*
X15978500Y-3302000D01*
X15180500Y-4786000D02*
X15180500Y-4866000D01*
X15140500Y-4826000D02*
X15220500Y-4826000D01*
X15430500Y-4786000D02*
X15430500Y-4866000D01*
X15390500Y-4826000D02*
X15470500Y-4826000D01*
X13305356Y-3649356D02*
X13305356Y-3578644D01*
X13234644Y-3578644D01*
X13234644Y-3649356D01*
X13305356Y-3649356D01*
X13345000Y-3574000D02*
X13195000Y-3574000D01*
X13345000Y-3654000D02*
X13195000Y-3654000D01*
X13195000Y-3574000D02*
G75*
G03*
X13195000Y-3654000I0J-40000D01*
G01*
X13345000Y-3654000D02*
G75*
G03*
X13345000Y-3574000I0J40000D01*
G01*
X13305356Y-4549356D02*
X13305356Y-4478644D01*
X13234644Y-4478644D01*
X13234644Y-4549356D01*
X13305356Y-4549356D01*
X13345000Y-4474000D02*
X13195000Y-4474000D01*
X13345000Y-4554000D02*
X13195000Y-4554000D01*
X13195000Y-4474000D02*
G75*
G03*
X13195000Y-4554000I0J-40000D01*
G01*
X13345000Y-4554000D02*
G75*
G03*
X13345000Y-4474000I0J40000D01*
G01*
X13405356Y-4099356D02*
X13405356Y-4028644D01*
X13334644Y-4028644D01*
X13334644Y-4099356D01*
X13405356Y-4099356D01*
X13330000Y-3999000D02*
X13330000Y-4129000D01*
X13410000Y-3999000D02*
X13410000Y-4129000D01*
X13330000Y-4129000D02*
G75*
G03*
X13410000Y-4129000I40000J0D01*
G01*
X13410000Y-3999000D02*
G75*
G03*
X13330000Y-3999000I-40000J0D01*
G01*
X14005356Y-4099356D02*
X14005356Y-4028644D01*
X13934644Y-4028644D01*
X13934644Y-4099356D01*
X14005356Y-4099356D01*
X13930000Y-3964000D02*
X13930000Y-4164000D01*
X14010000Y-3964000D02*
X14010000Y-4164000D01*
X13930000Y-4164000D02*
G75*
G03*
X14010000Y-4164000I40000J0D01*
G01*
X14010000Y-3964000D02*
G75*
G03*
X13930000Y-3964000I-40000J0D01*
G01*
X19177000Y-10278500D02*
X19232000Y-10223500D01*
X19177000Y-10168500D01*
X19122000Y-10223500D01*
X19177000Y-10278500D01*
X19177000Y-10728500D02*
X19232000Y-10673500D01*
X19177000Y-10618500D01*
X19122000Y-10673500D01*
X19177000Y-10728500D01*
X19827000Y-10278500D02*
X19882000Y-10223500D01*
X19827000Y-10168500D01*
X19772000Y-10223500D01*
X19827000Y-10278500D01*
X19827000Y-10728500D02*
X19882000Y-10673500D01*
X19827000Y-10618500D01*
X19772000Y-10673500D01*
X19827000Y-10728500D01*
X17526000Y-10278500D02*
X17581000Y-10223500D01*
X17526000Y-10168500D01*
X17471000Y-10223500D01*
X17526000Y-10278500D01*
X17526000Y-10728500D02*
X17581000Y-10673500D01*
X17526000Y-10618500D01*
X17471000Y-10673500D01*
X17526000Y-10728500D01*
X18176000Y-10278500D02*
X18231000Y-10223500D01*
X18176000Y-10168500D01*
X18121000Y-10223500D01*
X18176000Y-10278500D01*
X18176000Y-10728500D02*
X18231000Y-10673500D01*
X18176000Y-10618500D01*
X18121000Y-10673500D01*
X18176000Y-10728500D01*
X16425400Y-10431000D02*
X16645400Y-10651000D01*
X16645400Y-10431000D02*
X16425400Y-10651000D01*
X16645400Y-10541000D02*
G75*
G03*
X16645400Y-10541000I-110000J0D01*
G01*
X14622000Y-2684000D02*
X14842000Y-2904000D01*
X14842000Y-2684000D02*
X14622000Y-2904000D01*
X14842000Y-2794000D02*
G75*
G03*
X14842000Y-2794000I-110000J0D01*
G01*
X20591000Y-10431000D02*
X20811000Y-10651000D01*
X20811000Y-10431000D02*
X20591000Y-10651000D01*
X20811000Y-10541000D02*
G75*
G03*
X20811000Y-10541000I-110000J0D01*
G01*
X23258000Y-5287500D02*
X23478000Y-5507500D01*
X23478000Y-5287500D02*
X23258000Y-5507500D01*
X23478000Y-5397500D02*
G75*
G03*
X23478000Y-5397500I-110000J0D01*
G01*
D12*
X12983928Y-11390214D02*
X12983928Y-11090214D01*
X13055357Y-11090214D01*
X13098214Y-11104500D01*
X13126786Y-11133072D01*
X13141071Y-11161643D01*
X13155357Y-11218786D01*
X13155357Y-11261643D01*
X13141071Y-11318786D01*
X13126786Y-11347357D01*
X13098214Y-11375929D01*
X13055357Y-11390214D01*
X12983928Y-11390214D01*
X13283928Y-11390214D02*
X13283928Y-11190214D01*
X13283928Y-11247357D02*
X13298214Y-11218786D01*
X13312500Y-11204500D01*
X13341071Y-11190214D01*
X13369643Y-11190214D01*
X13469643Y-11390214D02*
X13469643Y-11190214D01*
X13469643Y-11090214D02*
X13455357Y-11104500D01*
X13469643Y-11118786D01*
X13483928Y-11104500D01*
X13469643Y-11090214D01*
X13469643Y-11118786D01*
X13655357Y-11390214D02*
X13626786Y-11375929D01*
X13612500Y-11347357D01*
X13612500Y-11090214D01*
X13812500Y-11390214D02*
X13783928Y-11375929D01*
X13769643Y-11347357D01*
X13769643Y-11090214D01*
X14155357Y-11390214D02*
X14155357Y-11090214D01*
X14255357Y-11304500D01*
X14355357Y-11090214D01*
X14355357Y-11390214D01*
X14626786Y-11390214D02*
X14626786Y-11233071D01*
X14612500Y-11204500D01*
X14583928Y-11190214D01*
X14526786Y-11190214D01*
X14498214Y-11204500D01*
X14626786Y-11375929D02*
X14598214Y-11390214D01*
X14526786Y-11390214D01*
X14498214Y-11375929D01*
X14483928Y-11347357D01*
X14483928Y-11318786D01*
X14498214Y-11290214D01*
X14526786Y-11275929D01*
X14598214Y-11275929D01*
X14626786Y-11261643D01*
X14769643Y-11190214D02*
X14769643Y-11490214D01*
X14769643Y-11204500D02*
X14798214Y-11190214D01*
X14855357Y-11190214D01*
X14883928Y-11204500D01*
X14898214Y-11218786D01*
X14912500Y-11247357D01*
X14912500Y-11333071D01*
X14898214Y-11361643D01*
X14883928Y-11375929D01*
X14855357Y-11390214D01*
X14798214Y-11390214D01*
X14769643Y-11375929D01*
X15041071Y-11361643D02*
X15055357Y-11375929D01*
X15041071Y-11390214D01*
X15026786Y-11375929D01*
X15041071Y-11361643D01*
X15041071Y-11390214D01*
X15041071Y-11204500D02*
X15055357Y-11218786D01*
X15041071Y-11233071D01*
X15026786Y-11218786D01*
X15041071Y-11204500D01*
X15041071Y-11233071D01*
X12657500Y-11864500D02*
X12697500Y-11904500D01*
X12697500Y-11864500D02*
X12657500Y-11904500D01*
X13041071Y-11720214D02*
X13069643Y-11720214D01*
X13098214Y-11734500D01*
X13112500Y-11748786D01*
X13126786Y-11777357D01*
X13141071Y-11834500D01*
X13141071Y-11905929D01*
X13126786Y-11963071D01*
X13112500Y-11991643D01*
X13098214Y-12005929D01*
X13069643Y-12020214D01*
X13041071Y-12020214D01*
X13012500Y-12005929D01*
X12998214Y-11991643D01*
X12983928Y-11963071D01*
X12969643Y-11905929D01*
X12969643Y-11834500D01*
X12983928Y-11777357D01*
X12998214Y-11748786D01*
X13012500Y-11734500D01*
X13041071Y-11720214D01*
X13269643Y-11991643D02*
X13283928Y-12005929D01*
X13269643Y-12020214D01*
X13255357Y-12005929D01*
X13269643Y-11991643D01*
X13269643Y-12020214D01*
X13541071Y-11820214D02*
X13541071Y-12020214D01*
X13469643Y-11705929D02*
X13398214Y-11920214D01*
X13583928Y-11920214D01*
X13755357Y-11720214D02*
X13783928Y-11720214D01*
X13812500Y-11734500D01*
X13826786Y-11748786D01*
X13841071Y-11777357D01*
X13855357Y-11834500D01*
X13855357Y-11905929D01*
X13841071Y-11963071D01*
X13826786Y-11991643D01*
X13812500Y-12005929D01*
X13783928Y-12020214D01*
X13755357Y-12020214D01*
X13726786Y-12005929D01*
X13712500Y-11991643D01*
X13698214Y-11963071D01*
X13683928Y-11905929D01*
X13683928Y-11834500D01*
X13698214Y-11777357D01*
X13712500Y-11748786D01*
X13726786Y-11734500D01*
X13755357Y-11720214D01*
X13983928Y-12020214D02*
X13983928Y-11820214D01*
X13983928Y-11848786D02*
X13998214Y-11834500D01*
X14026786Y-11820214D01*
X14069643Y-11820214D01*
X14098214Y-11834500D01*
X14112500Y-11863071D01*
X14112500Y-12020214D01*
X14112500Y-11863071D02*
X14126786Y-11834500D01*
X14155357Y-11820214D01*
X14198214Y-11820214D01*
X14226786Y-11834500D01*
X14241071Y-11863071D01*
X14241071Y-12020214D01*
X14383928Y-12020214D02*
X14383928Y-11820214D01*
X14383928Y-11848786D02*
X14398214Y-11834500D01*
X14426786Y-11820214D01*
X14469643Y-11820214D01*
X14498214Y-11834500D01*
X14512500Y-11863071D01*
X14512500Y-12020214D01*
X14512500Y-11863071D02*
X14526786Y-11834500D01*
X14555357Y-11820214D01*
X14598214Y-11820214D01*
X14626786Y-11834500D01*
X14641071Y-11863071D01*
X14641071Y-12020214D01*
X15226786Y-11705929D02*
X14969643Y-12091643D01*
X15612500Y-11720214D02*
X15641071Y-11720214D01*
X15669643Y-11734500D01*
X15683928Y-11748786D01*
X15698214Y-11777357D01*
X15712500Y-11834500D01*
X15712500Y-11905929D01*
X15698214Y-11963071D01*
X15683928Y-11991643D01*
X15669643Y-12005929D01*
X15641071Y-12020214D01*
X15612500Y-12020214D01*
X15583928Y-12005929D01*
X15569643Y-11991643D01*
X15555357Y-11963071D01*
X15541071Y-11905929D01*
X15541071Y-11834500D01*
X15555357Y-11777357D01*
X15569643Y-11748786D01*
X15583928Y-11734500D01*
X15612500Y-11720214D01*
X15841071Y-11991643D02*
X15855357Y-12005929D01*
X15841071Y-12020214D01*
X15826786Y-12005929D01*
X15841071Y-11991643D01*
X15841071Y-12020214D01*
X16041071Y-11720214D02*
X16069643Y-11720214D01*
X16098214Y-11734500D01*
X16112500Y-11748786D01*
X16126786Y-11777357D01*
X16141071Y-11834500D01*
X16141071Y-11905929D01*
X16126786Y-11963071D01*
X16112500Y-11991643D01*
X16098214Y-12005929D01*
X16069643Y-12020214D01*
X16041071Y-12020214D01*
X16012500Y-12005929D01*
X15998214Y-11991643D01*
X15983928Y-11963071D01*
X15969643Y-11905929D01*
X15969643Y-11834500D01*
X15983928Y-11777357D01*
X15998214Y-11748786D01*
X16012500Y-11734500D01*
X16041071Y-11720214D01*
X16426786Y-12020214D02*
X16255357Y-12020214D01*
X16341071Y-12020214D02*
X16341071Y-11720214D01*
X16312500Y-11763071D01*
X16283928Y-11791643D01*
X16255357Y-11805929D01*
X16683928Y-11720214D02*
X16626786Y-11720214D01*
X16598214Y-11734500D01*
X16583928Y-11748786D01*
X16555357Y-11791643D01*
X16541071Y-11848786D01*
X16541071Y-11963071D01*
X16555357Y-11991643D01*
X16569643Y-12005929D01*
X16598214Y-12020214D01*
X16655357Y-12020214D01*
X16683928Y-12005929D01*
X16698214Y-11991643D01*
X16712500Y-11963071D01*
X16712500Y-11891643D01*
X16698214Y-11863071D01*
X16683928Y-11848786D01*
X16655357Y-11834500D01*
X16598214Y-11834500D01*
X16569643Y-11848786D01*
X16555357Y-11863071D01*
X16541071Y-11891643D01*
X16826786Y-11720214D02*
X16826786Y-11777357D01*
X16941071Y-11720214D02*
X16941071Y-11777357D01*
X17383928Y-12134500D02*
X17369643Y-12120214D01*
X17341071Y-12077357D01*
X17326786Y-12048786D01*
X17312500Y-12005929D01*
X17298214Y-11934500D01*
X17298214Y-11877357D01*
X17312500Y-11805929D01*
X17326786Y-11763071D01*
X17341071Y-11734500D01*
X17369643Y-11691643D01*
X17383928Y-11677357D01*
X17626786Y-11720214D02*
X17569643Y-11720214D01*
X17541071Y-11734500D01*
X17526786Y-11748786D01*
X17498214Y-11791643D01*
X17483928Y-11848786D01*
X17483928Y-11963071D01*
X17498214Y-11991643D01*
X17512500Y-12005929D01*
X17541071Y-12020214D01*
X17598214Y-12020214D01*
X17626786Y-12005929D01*
X17641071Y-11991643D01*
X17655357Y-11963071D01*
X17655357Y-11891643D01*
X17641071Y-11863071D01*
X17626786Y-11848786D01*
X17598214Y-11834500D01*
X17541071Y-11834500D01*
X17512500Y-11848786D01*
X17498214Y-11863071D01*
X17483928Y-11891643D01*
X18012500Y-12020214D02*
X18012500Y-11720214D01*
X18141071Y-12020214D02*
X18141071Y-11863071D01*
X18126786Y-11834500D01*
X18098214Y-11820214D01*
X18055357Y-11820214D01*
X18026786Y-11834500D01*
X18012500Y-11848786D01*
X18326786Y-12020214D02*
X18298214Y-12005929D01*
X18283928Y-11991643D01*
X18269643Y-11963071D01*
X18269643Y-11877357D01*
X18283928Y-11848786D01*
X18298214Y-11834500D01*
X18326786Y-11820214D01*
X18369643Y-11820214D01*
X18398214Y-11834500D01*
X18412500Y-11848786D01*
X18426786Y-11877357D01*
X18426786Y-11963071D01*
X18412500Y-11991643D01*
X18398214Y-12005929D01*
X18369643Y-12020214D01*
X18326786Y-12020214D01*
X18598214Y-12020214D02*
X18569643Y-12005929D01*
X18555357Y-11977357D01*
X18555357Y-11720214D01*
X18826786Y-12005929D02*
X18798214Y-12020214D01*
X18741071Y-12020214D01*
X18712500Y-12005929D01*
X18698214Y-11977357D01*
X18698214Y-11863071D01*
X18712500Y-11834500D01*
X18741071Y-11820214D01*
X18798214Y-11820214D01*
X18826786Y-11834500D01*
X18841071Y-11863071D01*
X18841071Y-11891643D01*
X18698214Y-11920214D01*
X18955357Y-12005929D02*
X18983928Y-12020214D01*
X19041071Y-12020214D01*
X19069643Y-12005929D01*
X19083928Y-11977357D01*
X19083928Y-11963071D01*
X19069643Y-11934500D01*
X19041071Y-11920214D01*
X18998214Y-11920214D01*
X18969643Y-11905929D01*
X18955357Y-11877357D01*
X18955357Y-11863071D01*
X18969643Y-11834500D01*
X18998214Y-11820214D01*
X19041071Y-11820214D01*
X19069643Y-11834500D01*
X19183928Y-12134500D02*
X19198214Y-12120214D01*
X19226786Y-12077357D01*
X19241071Y-12048786D01*
X19255357Y-12005929D01*
X19269643Y-11934500D01*
X19269643Y-11877357D01*
X19255357Y-11805929D01*
X19241071Y-11763071D01*
X19226786Y-11734500D01*
X19198214Y-11691643D01*
X19183928Y-11677357D01*
X12697500Y-12280500D02*
G75*
G03*
X12697500Y-12280500I-35000J0D01*
G01*
X13041071Y-12116214D02*
X13069643Y-12116214D01*
X13098214Y-12130500D01*
X13112500Y-12144786D01*
X13126786Y-12173357D01*
X13141071Y-12230500D01*
X13141071Y-12301929D01*
X13126786Y-12359071D01*
X13112500Y-12387643D01*
X13098214Y-12401929D01*
X13069643Y-12416214D01*
X13041071Y-12416214D01*
X13012500Y-12401929D01*
X12998214Y-12387643D01*
X12983928Y-12359071D01*
X12969643Y-12301929D01*
X12969643Y-12230500D01*
X12983928Y-12173357D01*
X12998214Y-12144786D01*
X13012500Y-12130500D01*
X13041071Y-12116214D01*
X13269643Y-12387643D02*
X13283928Y-12401929D01*
X13269643Y-12416214D01*
X13255357Y-12401929D01*
X13269643Y-12387643D01*
X13269643Y-12416214D01*
X13383928Y-12116214D02*
X13583928Y-12116214D01*
X13455357Y-12416214D01*
X13755357Y-12116214D02*
X13783928Y-12116214D01*
X13812500Y-12130500D01*
X13826786Y-12144786D01*
X13841071Y-12173357D01*
X13855357Y-12230500D01*
X13855357Y-12301929D01*
X13841071Y-12359071D01*
X13826786Y-12387643D01*
X13812500Y-12401929D01*
X13783928Y-12416214D01*
X13755357Y-12416214D01*
X13726786Y-12401929D01*
X13712500Y-12387643D01*
X13698214Y-12359071D01*
X13683928Y-12301929D01*
X13683928Y-12230500D01*
X13698214Y-12173357D01*
X13712500Y-12144786D01*
X13726786Y-12130500D01*
X13755357Y-12116214D01*
X13983928Y-12416214D02*
X13983928Y-12216214D01*
X13983928Y-12244786D02*
X13998214Y-12230500D01*
X14026786Y-12216214D01*
X14069643Y-12216214D01*
X14098214Y-12230500D01*
X14112500Y-12259071D01*
X14112500Y-12416214D01*
X14112500Y-12259071D02*
X14126786Y-12230500D01*
X14155357Y-12216214D01*
X14198214Y-12216214D01*
X14226786Y-12230500D01*
X14241071Y-12259071D01*
X14241071Y-12416214D01*
X14383928Y-12416214D02*
X14383928Y-12216214D01*
X14383928Y-12244786D02*
X14398214Y-12230500D01*
X14426786Y-12216214D01*
X14469643Y-12216214D01*
X14498214Y-12230500D01*
X14512500Y-12259071D01*
X14512500Y-12416214D01*
X14512500Y-12259071D02*
X14526786Y-12230500D01*
X14555357Y-12216214D01*
X14598214Y-12216214D01*
X14626786Y-12230500D01*
X14641071Y-12259071D01*
X14641071Y-12416214D01*
X15226786Y-12101929D02*
X14969643Y-12487643D01*
X15612500Y-12116214D02*
X15641071Y-12116214D01*
X15669643Y-12130500D01*
X15683928Y-12144786D01*
X15698214Y-12173357D01*
X15712500Y-12230500D01*
X15712500Y-12301929D01*
X15698214Y-12359071D01*
X15683928Y-12387643D01*
X15669643Y-12401929D01*
X15641071Y-12416214D01*
X15612500Y-12416214D01*
X15583928Y-12401929D01*
X15569643Y-12387643D01*
X15555357Y-12359071D01*
X15541071Y-12301929D01*
X15541071Y-12230500D01*
X15555357Y-12173357D01*
X15569643Y-12144786D01*
X15583928Y-12130500D01*
X15612500Y-12116214D01*
X15841071Y-12387643D02*
X15855357Y-12401929D01*
X15841071Y-12416214D01*
X15826786Y-12401929D01*
X15841071Y-12387643D01*
X15841071Y-12416214D01*
X16041071Y-12116214D02*
X16069643Y-12116214D01*
X16098214Y-12130500D01*
X16112500Y-12144786D01*
X16126786Y-12173357D01*
X16141071Y-12230500D01*
X16141071Y-12301929D01*
X16126786Y-12359071D01*
X16112500Y-12387643D01*
X16098214Y-12401929D01*
X16069643Y-12416214D01*
X16041071Y-12416214D01*
X16012500Y-12401929D01*
X15998214Y-12387643D01*
X15983928Y-12359071D01*
X15969643Y-12301929D01*
X15969643Y-12230500D01*
X15983928Y-12173357D01*
X15998214Y-12144786D01*
X16012500Y-12130500D01*
X16041071Y-12116214D01*
X16255357Y-12144786D02*
X16269643Y-12130500D01*
X16298214Y-12116214D01*
X16369643Y-12116214D01*
X16398214Y-12130500D01*
X16412500Y-12144786D01*
X16426786Y-12173357D01*
X16426786Y-12201929D01*
X16412500Y-12244786D01*
X16241071Y-12416214D01*
X16426786Y-12416214D01*
X16598214Y-12244786D02*
X16569643Y-12230500D01*
X16555357Y-12216214D01*
X16541071Y-12187643D01*
X16541071Y-12173357D01*
X16555357Y-12144786D01*
X16569643Y-12130500D01*
X16598214Y-12116214D01*
X16655357Y-12116214D01*
X16683928Y-12130500D01*
X16698214Y-12144786D01*
X16712500Y-12173357D01*
X16712500Y-12187643D01*
X16698214Y-12216214D01*
X16683928Y-12230500D01*
X16655357Y-12244786D01*
X16598214Y-12244786D01*
X16569643Y-12259071D01*
X16555357Y-12273357D01*
X16541071Y-12301929D01*
X16541071Y-12359071D01*
X16555357Y-12387643D01*
X16569643Y-12401929D01*
X16598214Y-12416214D01*
X16655357Y-12416214D01*
X16683928Y-12401929D01*
X16698214Y-12387643D01*
X16712500Y-12359071D01*
X16712500Y-12301929D01*
X16698214Y-12273357D01*
X16683928Y-12259071D01*
X16655357Y-12244786D01*
X16826786Y-12116214D02*
X16826786Y-12173357D01*
X16941071Y-12116214D02*
X16941071Y-12173357D01*
X17383928Y-12530500D02*
X17369643Y-12516214D01*
X17341071Y-12473357D01*
X17326786Y-12444786D01*
X17312500Y-12401929D01*
X17298214Y-12330500D01*
X17298214Y-12273357D01*
X17312500Y-12201929D01*
X17326786Y-12159071D01*
X17341071Y-12130500D01*
X17369643Y-12087643D01*
X17383928Y-12073357D01*
X17626786Y-12116214D02*
X17569643Y-12116214D01*
X17541071Y-12130500D01*
X17526786Y-12144786D01*
X17498214Y-12187643D01*
X17483928Y-12244786D01*
X17483928Y-12359071D01*
X17498214Y-12387643D01*
X17512500Y-12401929D01*
X17541071Y-12416214D01*
X17598214Y-12416214D01*
X17626786Y-12401929D01*
X17641071Y-12387643D01*
X17655357Y-12359071D01*
X17655357Y-12287643D01*
X17641071Y-12259071D01*
X17626786Y-12244786D01*
X17598214Y-12230500D01*
X17541071Y-12230500D01*
X17512500Y-12244786D01*
X17498214Y-12259071D01*
X17483928Y-12287643D01*
X17912500Y-12116214D02*
X17855357Y-12116214D01*
X17826786Y-12130500D01*
X17812500Y-12144786D01*
X17783928Y-12187643D01*
X17769643Y-12244786D01*
X17769643Y-12359071D01*
X17783928Y-12387643D01*
X17798214Y-12401929D01*
X17826786Y-12416214D01*
X17883928Y-12416214D01*
X17912500Y-12401929D01*
X17926786Y-12387643D01*
X17941071Y-12359071D01*
X17941071Y-12287643D01*
X17926786Y-12259071D01*
X17912500Y-12244786D01*
X17883928Y-12230500D01*
X17826786Y-12230500D01*
X17798214Y-12244786D01*
X17783928Y-12259071D01*
X17769643Y-12287643D01*
X18298214Y-12416214D02*
X18298214Y-12116214D01*
X18426786Y-12416214D02*
X18426786Y-12259071D01*
X18412500Y-12230500D01*
X18383928Y-12216214D01*
X18341071Y-12216214D01*
X18312500Y-12230500D01*
X18298214Y-12244786D01*
X18612500Y-12416214D02*
X18583928Y-12401929D01*
X18569643Y-12387643D01*
X18555357Y-12359071D01*
X18555357Y-12273357D01*
X18569643Y-12244786D01*
X18583928Y-12230500D01*
X18612500Y-12216214D01*
X18655357Y-12216214D01*
X18683928Y-12230500D01*
X18698214Y-12244786D01*
X18712500Y-12273357D01*
X18712500Y-12359071D01*
X18698214Y-12387643D01*
X18683928Y-12401929D01*
X18655357Y-12416214D01*
X18612500Y-12416214D01*
X18883928Y-12416214D02*
X18855357Y-12401929D01*
X18841071Y-12373357D01*
X18841071Y-12116214D01*
X19112500Y-12401929D02*
X19083928Y-12416214D01*
X19026786Y-12416214D01*
X18998214Y-12401929D01*
X18983928Y-12373357D01*
X18983928Y-12259071D01*
X18998214Y-12230500D01*
X19026786Y-12216214D01*
X19083928Y-12216214D01*
X19112500Y-12230500D01*
X19126786Y-12259071D01*
X19126786Y-12287643D01*
X18983928Y-12316214D01*
X19241071Y-12401929D02*
X19269643Y-12416214D01*
X19326786Y-12416214D01*
X19355357Y-12401929D01*
X19369643Y-12373357D01*
X19369643Y-12359071D01*
X19355357Y-12330500D01*
X19326786Y-12316214D01*
X19283928Y-12316214D01*
X19255357Y-12301929D01*
X19241071Y-12273357D01*
X19241071Y-12259071D01*
X19255357Y-12230500D01*
X19283928Y-12216214D01*
X19326786Y-12216214D01*
X19355357Y-12230500D01*
X19469643Y-12530500D02*
X19483928Y-12516214D01*
X19512500Y-12473357D01*
X19526786Y-12444786D01*
X19541071Y-12401929D01*
X19555357Y-12330500D01*
X19555357Y-12273357D01*
X19541071Y-12201929D01*
X19526786Y-12159071D01*
X19512500Y-12130500D01*
X19483928Y-12087643D01*
X19469643Y-12073357D01*
X12657500Y-12636500D02*
X12657500Y-12716500D01*
X12617500Y-12676500D02*
X12697500Y-12676500D01*
X13041071Y-12512214D02*
X13069643Y-12512214D01*
X13098214Y-12526500D01*
X13112500Y-12540786D01*
X13126786Y-12569357D01*
X13141071Y-12626500D01*
X13141071Y-12697929D01*
X13126786Y-12755071D01*
X13112500Y-12783643D01*
X13098214Y-12797929D01*
X13069643Y-12812214D01*
X13041071Y-12812214D01*
X13012500Y-12797929D01*
X12998214Y-12783643D01*
X12983928Y-12755071D01*
X12969643Y-12697929D01*
X12969643Y-12626500D01*
X12983928Y-12569357D01*
X12998214Y-12540786D01*
X13012500Y-12526500D01*
X13041071Y-12512214D01*
X13269643Y-12783643D02*
X13283928Y-12797929D01*
X13269643Y-12812214D01*
X13255357Y-12797929D01*
X13269643Y-12783643D01*
X13269643Y-12812214D01*
X13455357Y-12640786D02*
X13426786Y-12626500D01*
X13412500Y-12612214D01*
X13398214Y-12583643D01*
X13398214Y-12569357D01*
X13412500Y-12540786D01*
X13426786Y-12526500D01*
X13455357Y-12512214D01*
X13512500Y-12512214D01*
X13541071Y-12526500D01*
X13555357Y-12540786D01*
X13569643Y-12569357D01*
X13569643Y-12583643D01*
X13555357Y-12612214D01*
X13541071Y-12626500D01*
X13512500Y-12640786D01*
X13455357Y-12640786D01*
X13426786Y-12655071D01*
X13412500Y-12669357D01*
X13398214Y-12697929D01*
X13398214Y-12755071D01*
X13412500Y-12783643D01*
X13426786Y-12797929D01*
X13455357Y-12812214D01*
X13512500Y-12812214D01*
X13541071Y-12797929D01*
X13555357Y-12783643D01*
X13569643Y-12755071D01*
X13569643Y-12697929D01*
X13555357Y-12669357D01*
X13541071Y-12655071D01*
X13512500Y-12640786D01*
X13755357Y-12512214D02*
X13783928Y-12512214D01*
X13812500Y-12526500D01*
X13826786Y-12540786D01*
X13841071Y-12569357D01*
X13855357Y-12626500D01*
X13855357Y-12697929D01*
X13841071Y-12755071D01*
X13826786Y-12783643D01*
X13812500Y-12797929D01*
X13783928Y-12812214D01*
X13755357Y-12812214D01*
X13726786Y-12797929D01*
X13712500Y-12783643D01*
X13698214Y-12755071D01*
X13683928Y-12697929D01*
X13683928Y-12626500D01*
X13698214Y-12569357D01*
X13712500Y-12540786D01*
X13726786Y-12526500D01*
X13755357Y-12512214D01*
X13983928Y-12812214D02*
X13983928Y-12612214D01*
X13983928Y-12640786D02*
X13998214Y-12626500D01*
X14026786Y-12612214D01*
X14069643Y-12612214D01*
X14098214Y-12626500D01*
X14112500Y-12655071D01*
X14112500Y-12812214D01*
X14112500Y-12655071D02*
X14126786Y-12626500D01*
X14155357Y-12612214D01*
X14198214Y-12612214D01*
X14226786Y-12626500D01*
X14241071Y-12655071D01*
X14241071Y-12812214D01*
X14383928Y-12812214D02*
X14383928Y-12612214D01*
X14383928Y-12640786D02*
X14398214Y-12626500D01*
X14426786Y-12612214D01*
X14469643Y-12612214D01*
X14498214Y-12626500D01*
X14512500Y-12655071D01*
X14512500Y-12812214D01*
X14512500Y-12655071D02*
X14526786Y-12626500D01*
X14555357Y-12612214D01*
X14598214Y-12612214D01*
X14626786Y-12626500D01*
X14641071Y-12655071D01*
X14641071Y-12812214D01*
X15226786Y-12497929D02*
X14969643Y-12883643D01*
X15612500Y-12512214D02*
X15641071Y-12512214D01*
X15669643Y-12526500D01*
X15683928Y-12540786D01*
X15698214Y-12569357D01*
X15712500Y-12626500D01*
X15712500Y-12697929D01*
X15698214Y-12755071D01*
X15683928Y-12783643D01*
X15669643Y-12797929D01*
X15641071Y-12812214D01*
X15612500Y-12812214D01*
X15583928Y-12797929D01*
X15569643Y-12783643D01*
X15555357Y-12755071D01*
X15541071Y-12697929D01*
X15541071Y-12626500D01*
X15555357Y-12569357D01*
X15569643Y-12540786D01*
X15583928Y-12526500D01*
X15612500Y-12512214D01*
X15841071Y-12783643D02*
X15855357Y-12797929D01*
X15841071Y-12812214D01*
X15826786Y-12797929D01*
X15841071Y-12783643D01*
X15841071Y-12812214D01*
X16041071Y-12512214D02*
X16069643Y-12512214D01*
X16098214Y-12526500D01*
X16112500Y-12540786D01*
X16126786Y-12569357D01*
X16141071Y-12626500D01*
X16141071Y-12697929D01*
X16126786Y-12755071D01*
X16112500Y-12783643D01*
X16098214Y-12797929D01*
X16069643Y-12812214D01*
X16041071Y-12812214D01*
X16012500Y-12797929D01*
X15998214Y-12783643D01*
X15983928Y-12755071D01*
X15969643Y-12697929D01*
X15969643Y-12626500D01*
X15983928Y-12569357D01*
X15998214Y-12540786D01*
X16012500Y-12526500D01*
X16041071Y-12512214D01*
X16241071Y-12512214D02*
X16426786Y-12512214D01*
X16326786Y-12626500D01*
X16369643Y-12626500D01*
X16398214Y-12640786D01*
X16412500Y-12655071D01*
X16426786Y-12683643D01*
X16426786Y-12755071D01*
X16412500Y-12783643D01*
X16398214Y-12797929D01*
X16369643Y-12812214D01*
X16283928Y-12812214D01*
X16255357Y-12797929D01*
X16241071Y-12783643D01*
X16712500Y-12812214D02*
X16541071Y-12812214D01*
X16626786Y-12812214D02*
X16626786Y-12512214D01*
X16598214Y-12555071D01*
X16569643Y-12583643D01*
X16541071Y-12597929D01*
X16826786Y-12512214D02*
X16826786Y-12569357D01*
X16941071Y-12512214D02*
X16941071Y-12569357D01*
X17383928Y-12926500D02*
X17369643Y-12912214D01*
X17341071Y-12869357D01*
X17326786Y-12840786D01*
X17312500Y-12797929D01*
X17298214Y-12726500D01*
X17298214Y-12669357D01*
X17312500Y-12597929D01*
X17326786Y-12555071D01*
X17341071Y-12526500D01*
X17369643Y-12483643D01*
X17383928Y-12469357D01*
X17483928Y-12540786D02*
X17498214Y-12526500D01*
X17526786Y-12512214D01*
X17598214Y-12512214D01*
X17626786Y-12526500D01*
X17641071Y-12540786D01*
X17655357Y-12569357D01*
X17655357Y-12597929D01*
X17641071Y-12640786D01*
X17469643Y-12812214D01*
X17655357Y-12812214D01*
X17941071Y-12812214D02*
X17769643Y-12812214D01*
X17855357Y-12812214D02*
X17855357Y-12512214D01*
X17826786Y-12555071D01*
X17798214Y-12583643D01*
X17769643Y-12597929D01*
X18198214Y-12512214D02*
X18141071Y-12512214D01*
X18112500Y-12526500D01*
X18098214Y-12540786D01*
X18069643Y-12583643D01*
X18055357Y-12640786D01*
X18055357Y-12755071D01*
X18069643Y-12783643D01*
X18083928Y-12797929D01*
X18112500Y-12812214D01*
X18169643Y-12812214D01*
X18198214Y-12797929D01*
X18212500Y-12783643D01*
X18226786Y-12755071D01*
X18226786Y-12683643D01*
X18212500Y-12655071D01*
X18198214Y-12640786D01*
X18169643Y-12626500D01*
X18112500Y-12626500D01*
X18083928Y-12640786D01*
X18069643Y-12655071D01*
X18055357Y-12683643D01*
X18583928Y-12812214D02*
X18583928Y-12512214D01*
X18712500Y-12812214D02*
X18712500Y-12655071D01*
X18698214Y-12626500D01*
X18669643Y-12612214D01*
X18626786Y-12612214D01*
X18598214Y-12626500D01*
X18583928Y-12640786D01*
X18898214Y-12812214D02*
X18869643Y-12797929D01*
X18855357Y-12783643D01*
X18841071Y-12755071D01*
X18841071Y-12669357D01*
X18855357Y-12640786D01*
X18869643Y-12626500D01*
X18898214Y-12612214D01*
X18941071Y-12612214D01*
X18969643Y-12626500D01*
X18983928Y-12640786D01*
X18998214Y-12669357D01*
X18998214Y-12755071D01*
X18983928Y-12783643D01*
X18969643Y-12797929D01*
X18941071Y-12812214D01*
X18898214Y-12812214D01*
X19169643Y-12812214D02*
X19141071Y-12797929D01*
X19126786Y-12769357D01*
X19126786Y-12512214D01*
X19398214Y-12797929D02*
X19369643Y-12812214D01*
X19312500Y-12812214D01*
X19283928Y-12797929D01*
X19269643Y-12769357D01*
X19269643Y-12655071D01*
X19283928Y-12626500D01*
X19312500Y-12612214D01*
X19369643Y-12612214D01*
X19398214Y-12626500D01*
X19412500Y-12655071D01*
X19412500Y-12683643D01*
X19269643Y-12712214D01*
X19526786Y-12797929D02*
X19555357Y-12812214D01*
X19612500Y-12812214D01*
X19641071Y-12797929D01*
X19655357Y-12769357D01*
X19655357Y-12755071D01*
X19641071Y-12726500D01*
X19612500Y-12712214D01*
X19569643Y-12712214D01*
X19541071Y-12697929D01*
X19526786Y-12669357D01*
X19526786Y-12655071D01*
X19541071Y-12626500D01*
X19569643Y-12612214D01*
X19612500Y-12612214D01*
X19641071Y-12626500D01*
X19755357Y-12926500D02*
X19769643Y-12912214D01*
X19798214Y-12869357D01*
X19812500Y-12840786D01*
X19826786Y-12797929D01*
X19841071Y-12726500D01*
X19841071Y-12669357D01*
X19826786Y-12597929D01*
X19812500Y-12555071D01*
X19798214Y-12526500D01*
X19769643Y-12483643D01*
X19755357Y-12469357D01*
X12682856Y-13107856D02*
X12682856Y-13037144D01*
X12612144Y-13037144D01*
X12612144Y-13107856D01*
X12682856Y-13107856D01*
X13141071Y-13208214D02*
X12969643Y-13208214D01*
X13055357Y-13208214D02*
X13055357Y-12908214D01*
X13026786Y-12951071D01*
X12998214Y-12979643D01*
X12969643Y-12993929D01*
X13269643Y-13179643D02*
X13283928Y-13193929D01*
X13269643Y-13208214D01*
X13255357Y-13193929D01*
X13269643Y-13179643D01*
X13269643Y-13208214D01*
X13469643Y-12908214D02*
X13498214Y-12908214D01*
X13526786Y-12922500D01*
X13541071Y-12936786D01*
X13555357Y-12965357D01*
X13569643Y-13022500D01*
X13569643Y-13093929D01*
X13555357Y-13151071D01*
X13541071Y-13179643D01*
X13526786Y-13193929D01*
X13498214Y-13208214D01*
X13469643Y-13208214D01*
X13441071Y-13193929D01*
X13426786Y-13179643D01*
X13412500Y-13151071D01*
X13398214Y-13093929D01*
X13398214Y-13022500D01*
X13412500Y-12965357D01*
X13426786Y-12936786D01*
X13441071Y-12922500D01*
X13469643Y-12908214D01*
X13755357Y-12908214D02*
X13783928Y-12908214D01*
X13812500Y-12922500D01*
X13826786Y-12936786D01*
X13841071Y-12965357D01*
X13855357Y-13022500D01*
X13855357Y-13093929D01*
X13841071Y-13151071D01*
X13826786Y-13179643D01*
X13812500Y-13193929D01*
X13783928Y-13208214D01*
X13755357Y-13208214D01*
X13726786Y-13193929D01*
X13712500Y-13179643D01*
X13698214Y-13151071D01*
X13683928Y-13093929D01*
X13683928Y-13022500D01*
X13698214Y-12965357D01*
X13712500Y-12936786D01*
X13726786Y-12922500D01*
X13755357Y-12908214D01*
X13983928Y-13208214D02*
X13983928Y-13008214D01*
X13983928Y-13036786D02*
X13998214Y-13022500D01*
X14026786Y-13008214D01*
X14069643Y-13008214D01*
X14098214Y-13022500D01*
X14112500Y-13051071D01*
X14112500Y-13208214D01*
X14112500Y-13051071D02*
X14126786Y-13022500D01*
X14155357Y-13008214D01*
X14198214Y-13008214D01*
X14226786Y-13022500D01*
X14241071Y-13051071D01*
X14241071Y-13208214D01*
X14383928Y-13208214D02*
X14383928Y-13008214D01*
X14383928Y-13036786D02*
X14398214Y-13022500D01*
X14426786Y-13008214D01*
X14469643Y-13008214D01*
X14498214Y-13022500D01*
X14512500Y-13051071D01*
X14512500Y-13208214D01*
X14512500Y-13051071D02*
X14526786Y-13022500D01*
X14555357Y-13008214D01*
X14598214Y-13008214D01*
X14626786Y-13022500D01*
X14641071Y-13051071D01*
X14641071Y-13208214D01*
X15226786Y-12893929D02*
X14969643Y-13279643D01*
X15612500Y-12908214D02*
X15641071Y-12908214D01*
X15669643Y-12922500D01*
X15683928Y-12936786D01*
X15698214Y-12965357D01*
X15712500Y-13022500D01*
X15712500Y-13093929D01*
X15698214Y-13151071D01*
X15683928Y-13179643D01*
X15669643Y-13193929D01*
X15641071Y-13208214D01*
X15612500Y-13208214D01*
X15583928Y-13193929D01*
X15569643Y-13179643D01*
X15555357Y-13151071D01*
X15541071Y-13093929D01*
X15541071Y-13022500D01*
X15555357Y-12965357D01*
X15569643Y-12936786D01*
X15583928Y-12922500D01*
X15612500Y-12908214D01*
X15841071Y-13179643D02*
X15855357Y-13193929D01*
X15841071Y-13208214D01*
X15826786Y-13193929D01*
X15841071Y-13179643D01*
X15841071Y-13208214D01*
X16041071Y-12908214D02*
X16069643Y-12908214D01*
X16098214Y-12922500D01*
X16112500Y-12936786D01*
X16126786Y-12965357D01*
X16141071Y-13022500D01*
X16141071Y-13093929D01*
X16126786Y-13151071D01*
X16112500Y-13179643D01*
X16098214Y-13193929D01*
X16069643Y-13208214D01*
X16041071Y-13208214D01*
X16012500Y-13193929D01*
X15998214Y-13179643D01*
X15983928Y-13151071D01*
X15969643Y-13093929D01*
X15969643Y-13022500D01*
X15983928Y-12965357D01*
X15998214Y-12936786D01*
X16012500Y-12922500D01*
X16041071Y-12908214D01*
X16241071Y-12908214D02*
X16426786Y-12908214D01*
X16326786Y-13022500D01*
X16369643Y-13022500D01*
X16398214Y-13036786D01*
X16412500Y-13051071D01*
X16426786Y-13079643D01*
X16426786Y-13151071D01*
X16412500Y-13179643D01*
X16398214Y-13193929D01*
X16369643Y-13208214D01*
X16283928Y-13208214D01*
X16255357Y-13193929D01*
X16241071Y-13179643D01*
X16569643Y-13208214D02*
X16626786Y-13208214D01*
X16655357Y-13193929D01*
X16669643Y-13179643D01*
X16698214Y-13136786D01*
X16712500Y-13079643D01*
X16712500Y-12965357D01*
X16698214Y-12936786D01*
X16683928Y-12922500D01*
X16655357Y-12908214D01*
X16598214Y-12908214D01*
X16569643Y-12922500D01*
X16555357Y-12936786D01*
X16541071Y-12965357D01*
X16541071Y-13036786D01*
X16555357Y-13065357D01*
X16569643Y-13079643D01*
X16598214Y-13093929D01*
X16655357Y-13093929D01*
X16683928Y-13079643D01*
X16698214Y-13065357D01*
X16712500Y-13036786D01*
X16826786Y-12908214D02*
X16826786Y-12965357D01*
X16941071Y-12908214D02*
X16941071Y-12965357D01*
X17383928Y-13322500D02*
X17369643Y-13308214D01*
X17341071Y-13265357D01*
X17326786Y-13236786D01*
X17312500Y-13193929D01*
X17298214Y-13122500D01*
X17298214Y-13065357D01*
X17312500Y-12993929D01*
X17326786Y-12951071D01*
X17341071Y-12922500D01*
X17369643Y-12879643D01*
X17383928Y-12865357D01*
X17555357Y-12908214D02*
X17583928Y-12908214D01*
X17612500Y-12922500D01*
X17626786Y-12936786D01*
X17641071Y-12965357D01*
X17655357Y-13022500D01*
X17655357Y-13093929D01*
X17641071Y-13151071D01*
X17626786Y-13179643D01*
X17612500Y-13193929D01*
X17583928Y-13208214D01*
X17555357Y-13208214D01*
X17526786Y-13193929D01*
X17512500Y-13179643D01*
X17498214Y-13151071D01*
X17483928Y-13093929D01*
X17483928Y-13022500D01*
X17498214Y-12965357D01*
X17512500Y-12936786D01*
X17526786Y-12922500D01*
X17555357Y-12908214D01*
X18012500Y-13208214D02*
X18012500Y-12908214D01*
X18141071Y-13208214D02*
X18141071Y-13051071D01*
X18126786Y-13022500D01*
X18098214Y-13008214D01*
X18055357Y-13008214D01*
X18026786Y-13022500D01*
X18012500Y-13036786D01*
X18326786Y-13208214D02*
X18298214Y-13193929D01*
X18283928Y-13179643D01*
X18269643Y-13151071D01*
X18269643Y-13065357D01*
X18283928Y-13036786D01*
X18298214Y-13022500D01*
X18326786Y-13008214D01*
X18369643Y-13008214D01*
X18398214Y-13022500D01*
X18412500Y-13036786D01*
X18426786Y-13065357D01*
X18426786Y-13151071D01*
X18412500Y-13179643D01*
X18398214Y-13193929D01*
X18369643Y-13208214D01*
X18326786Y-13208214D01*
X18598214Y-13208214D02*
X18569643Y-13193929D01*
X18555357Y-13165357D01*
X18555357Y-12908214D01*
X18826786Y-13193929D02*
X18798214Y-13208214D01*
X18741071Y-13208214D01*
X18712500Y-13193929D01*
X18698214Y-13165357D01*
X18698214Y-13051071D01*
X18712500Y-13022500D01*
X18741071Y-13008214D01*
X18798214Y-13008214D01*
X18826786Y-13022500D01*
X18841071Y-13051071D01*
X18841071Y-13079643D01*
X18698214Y-13108214D01*
X18955357Y-13193929D02*
X18983928Y-13208214D01*
X19041071Y-13208214D01*
X19069643Y-13193929D01*
X19083928Y-13165357D01*
X19083928Y-13151071D01*
X19069643Y-13122500D01*
X19041071Y-13108214D01*
X18998214Y-13108214D01*
X18969643Y-13093929D01*
X18955357Y-13065357D01*
X18955357Y-13051071D01*
X18969643Y-13022500D01*
X18998214Y-13008214D01*
X19041071Y-13008214D01*
X19069643Y-13022500D01*
X19441071Y-13093929D02*
X19669643Y-13093929D01*
X19555357Y-13208214D02*
X19555357Y-12979643D01*
X20169643Y-13008214D02*
X20169643Y-13208214D01*
X20098214Y-12893929D02*
X20026786Y-13108214D01*
X20212500Y-13108214D01*
X20541071Y-13193929D02*
X20569643Y-13208214D01*
X20626786Y-13208214D01*
X20655357Y-13193929D01*
X20669643Y-13165357D01*
X20669643Y-13151071D01*
X20655357Y-13122500D01*
X20626786Y-13108214D01*
X20583928Y-13108214D01*
X20555357Y-13093929D01*
X20541071Y-13065357D01*
X20541071Y-13051071D01*
X20555357Y-13022500D01*
X20583928Y-13008214D01*
X20626786Y-13008214D01*
X20655357Y-13022500D01*
X20841071Y-13208214D02*
X20812500Y-13193929D01*
X20798214Y-13165357D01*
X20798214Y-12908214D01*
X20998214Y-13208214D02*
X20969643Y-13193929D01*
X20955357Y-13179643D01*
X20941071Y-13151071D01*
X20941071Y-13065357D01*
X20955357Y-13036786D01*
X20969643Y-13022500D01*
X20998214Y-13008214D01*
X21041071Y-13008214D01*
X21069643Y-13022500D01*
X21083928Y-13036786D01*
X21098214Y-13065357D01*
X21098214Y-13151071D01*
X21083928Y-13179643D01*
X21069643Y-13193929D01*
X21041071Y-13208214D01*
X20998214Y-13208214D01*
X21183928Y-13008214D02*
X21298214Y-13008214D01*
X21226786Y-12908214D02*
X21226786Y-13165357D01*
X21241071Y-13193929D01*
X21269643Y-13208214D01*
X21298214Y-13208214D01*
X21383928Y-13193929D02*
X21412500Y-13208214D01*
X21469643Y-13208214D01*
X21498214Y-13193929D01*
X21512500Y-13165357D01*
X21512500Y-13151071D01*
X21498214Y-13122500D01*
X21469643Y-13108214D01*
X21426786Y-13108214D01*
X21398214Y-13093929D01*
X21383928Y-13065357D01*
X21383928Y-13051071D01*
X21398214Y-13022500D01*
X21426786Y-13008214D01*
X21469643Y-13008214D01*
X21498214Y-13022500D01*
X21612500Y-13322500D02*
X21626786Y-13308214D01*
X21655357Y-13265357D01*
X21669643Y-13236786D01*
X21683928Y-13193929D01*
X21698214Y-13122500D01*
X21698214Y-13065357D01*
X21683928Y-12993929D01*
X21669643Y-12951071D01*
X21655357Y-12922500D01*
X21626786Y-12879643D01*
X21612500Y-12865357D01*
X12642500Y-13523500D02*
X12697500Y-13468500D01*
X12642500Y-13413500D01*
X12587500Y-13468500D01*
X12642500Y-13523500D01*
X13141071Y-13604214D02*
X12969643Y-13604214D01*
X13055357Y-13604214D02*
X13055357Y-13304214D01*
X13026786Y-13347071D01*
X12998214Y-13375643D01*
X12969643Y-13389929D01*
X13269643Y-13575643D02*
X13283928Y-13589929D01*
X13269643Y-13604214D01*
X13255357Y-13589929D01*
X13269643Y-13575643D01*
X13269643Y-13604214D01*
X13569643Y-13604214D02*
X13398214Y-13604214D01*
X13483928Y-13604214D02*
X13483928Y-13304214D01*
X13455357Y-13347071D01*
X13426786Y-13375643D01*
X13398214Y-13389929D01*
X13755357Y-13304214D02*
X13783928Y-13304214D01*
X13812500Y-13318500D01*
X13826786Y-13332786D01*
X13841071Y-13361357D01*
X13855357Y-13418500D01*
X13855357Y-13489929D01*
X13841071Y-13547071D01*
X13826786Y-13575643D01*
X13812500Y-13589929D01*
X13783928Y-13604214D01*
X13755357Y-13604214D01*
X13726786Y-13589929D01*
X13712500Y-13575643D01*
X13698214Y-13547071D01*
X13683928Y-13489929D01*
X13683928Y-13418500D01*
X13698214Y-13361357D01*
X13712500Y-13332786D01*
X13726786Y-13318500D01*
X13755357Y-13304214D01*
X13983928Y-13604214D02*
X13983928Y-13404214D01*
X13983928Y-13432786D02*
X13998214Y-13418500D01*
X14026786Y-13404214D01*
X14069643Y-13404214D01*
X14098214Y-13418500D01*
X14112500Y-13447071D01*
X14112500Y-13604214D01*
X14112500Y-13447071D02*
X14126786Y-13418500D01*
X14155357Y-13404214D01*
X14198214Y-13404214D01*
X14226786Y-13418500D01*
X14241071Y-13447071D01*
X14241071Y-13604214D01*
X14383928Y-13604214D02*
X14383928Y-13404214D01*
X14383928Y-13432786D02*
X14398214Y-13418500D01*
X14426786Y-13404214D01*
X14469643Y-13404214D01*
X14498214Y-13418500D01*
X14512500Y-13447071D01*
X14512500Y-13604214D01*
X14512500Y-13447071D02*
X14526786Y-13418500D01*
X14555357Y-13404214D01*
X14598214Y-13404214D01*
X14626786Y-13418500D01*
X14641071Y-13447071D01*
X14641071Y-13604214D01*
X15226786Y-13289929D02*
X14969643Y-13675643D01*
X15612500Y-13304214D02*
X15641071Y-13304214D01*
X15669643Y-13318500D01*
X15683928Y-13332786D01*
X15698214Y-13361357D01*
X15712500Y-13418500D01*
X15712500Y-13489929D01*
X15698214Y-13547071D01*
X15683928Y-13575643D01*
X15669643Y-13589929D01*
X15641071Y-13604214D01*
X15612500Y-13604214D01*
X15583928Y-13589929D01*
X15569643Y-13575643D01*
X15555357Y-13547071D01*
X15541071Y-13489929D01*
X15541071Y-13418500D01*
X15555357Y-13361357D01*
X15569643Y-13332786D01*
X15583928Y-13318500D01*
X15612500Y-13304214D01*
X15841071Y-13575643D02*
X15855357Y-13589929D01*
X15841071Y-13604214D01*
X15826786Y-13589929D01*
X15841071Y-13575643D01*
X15841071Y-13604214D01*
X16041071Y-13304214D02*
X16069643Y-13304214D01*
X16098214Y-13318500D01*
X16112500Y-13332786D01*
X16126786Y-13361357D01*
X16141071Y-13418500D01*
X16141071Y-13489929D01*
X16126786Y-13547071D01*
X16112500Y-13575643D01*
X16098214Y-13589929D01*
X16069643Y-13604214D01*
X16041071Y-13604214D01*
X16012500Y-13589929D01*
X15998214Y-13575643D01*
X15983928Y-13547071D01*
X15969643Y-13489929D01*
X15969643Y-13418500D01*
X15983928Y-13361357D01*
X15998214Y-13332786D01*
X16012500Y-13318500D01*
X16041071Y-13304214D01*
X16398214Y-13404214D02*
X16398214Y-13604214D01*
X16326786Y-13289929D02*
X16255357Y-13504214D01*
X16441071Y-13504214D01*
X16526786Y-13304214D02*
X16712500Y-13304214D01*
X16612500Y-13418500D01*
X16655357Y-13418500D01*
X16683928Y-13432786D01*
X16698214Y-13447071D01*
X16712500Y-13475643D01*
X16712500Y-13547071D01*
X16698214Y-13575643D01*
X16683928Y-13589929D01*
X16655357Y-13604214D01*
X16569643Y-13604214D01*
X16541071Y-13589929D01*
X16526786Y-13575643D01*
X16826786Y-13304214D02*
X16826786Y-13361357D01*
X16941071Y-13304214D02*
X16941071Y-13361357D01*
X17383928Y-13718500D02*
X17369643Y-13704214D01*
X17341071Y-13661357D01*
X17326786Y-13632786D01*
X17312500Y-13589929D01*
X17298214Y-13518500D01*
X17298214Y-13461357D01*
X17312500Y-13389929D01*
X17326786Y-13347071D01*
X17341071Y-13318500D01*
X17369643Y-13275643D01*
X17383928Y-13261357D01*
X17541071Y-13432786D02*
X17512500Y-13418500D01*
X17498214Y-13404214D01*
X17483928Y-13375643D01*
X17483928Y-13361357D01*
X17498214Y-13332786D01*
X17512500Y-13318500D01*
X17541071Y-13304214D01*
X17598214Y-13304214D01*
X17626786Y-13318500D01*
X17641071Y-13332786D01*
X17655357Y-13361357D01*
X17655357Y-13375643D01*
X17641071Y-13404214D01*
X17626786Y-13418500D01*
X17598214Y-13432786D01*
X17541071Y-13432786D01*
X17512500Y-13447071D01*
X17498214Y-13461357D01*
X17483928Y-13489929D01*
X17483928Y-13547071D01*
X17498214Y-13575643D01*
X17512500Y-13589929D01*
X17541071Y-13604214D01*
X17598214Y-13604214D01*
X17626786Y-13589929D01*
X17641071Y-13575643D01*
X17655357Y-13547071D01*
X17655357Y-13489929D01*
X17641071Y-13461357D01*
X17626786Y-13447071D01*
X17598214Y-13432786D01*
X18012500Y-13604214D02*
X18012500Y-13304214D01*
X18141071Y-13604214D02*
X18141071Y-13447071D01*
X18126786Y-13418500D01*
X18098214Y-13404214D01*
X18055357Y-13404214D01*
X18026786Y-13418500D01*
X18012500Y-13432786D01*
X18326786Y-13604214D02*
X18298214Y-13589929D01*
X18283928Y-13575643D01*
X18269643Y-13547071D01*
X18269643Y-13461357D01*
X18283928Y-13432786D01*
X18298214Y-13418500D01*
X18326786Y-13404214D01*
X18369643Y-13404214D01*
X18398214Y-13418500D01*
X18412500Y-13432786D01*
X18426786Y-13461357D01*
X18426786Y-13547071D01*
X18412500Y-13575643D01*
X18398214Y-13589929D01*
X18369643Y-13604214D01*
X18326786Y-13604214D01*
X18598214Y-13604214D02*
X18569643Y-13589929D01*
X18555357Y-13561357D01*
X18555357Y-13304214D01*
X18826786Y-13589929D02*
X18798214Y-13604214D01*
X18741071Y-13604214D01*
X18712500Y-13589929D01*
X18698214Y-13561357D01*
X18698214Y-13447071D01*
X18712500Y-13418500D01*
X18741071Y-13404214D01*
X18798214Y-13404214D01*
X18826786Y-13418500D01*
X18841071Y-13447071D01*
X18841071Y-13475643D01*
X18698214Y-13504214D01*
X18955357Y-13589929D02*
X18983928Y-13604214D01*
X19041071Y-13604214D01*
X19069643Y-13589929D01*
X19083928Y-13561357D01*
X19083928Y-13547071D01*
X19069643Y-13518500D01*
X19041071Y-13504214D01*
X18998214Y-13504214D01*
X18969643Y-13489929D01*
X18955357Y-13461357D01*
X18955357Y-13447071D01*
X18969643Y-13418500D01*
X18998214Y-13404214D01*
X19041071Y-13404214D01*
X19069643Y-13418500D01*
X19183928Y-13718500D02*
X19198214Y-13704214D01*
X19226786Y-13661357D01*
X19241071Y-13632786D01*
X19255357Y-13589929D01*
X19269643Y-13518500D01*
X19269643Y-13461357D01*
X19255357Y-13389929D01*
X19241071Y-13347071D01*
X19226786Y-13318500D01*
X19198214Y-13275643D01*
X19183928Y-13261357D01*
X12477500Y-13754500D02*
X12697500Y-13974500D01*
X12697500Y-13754500D02*
X12477500Y-13974500D01*
X12697500Y-13864500D02*
G75*
G03*
X12697500Y-13864500I-110000J0D01*
G01*
X12969643Y-13728786D02*
X12983928Y-13714500D01*
X13012500Y-13700214D01*
X13083928Y-13700214D01*
X13112500Y-13714500D01*
X13126786Y-13728786D01*
X13141071Y-13757357D01*
X13141071Y-13785929D01*
X13126786Y-13828786D01*
X12955357Y-14000214D01*
X13141071Y-14000214D01*
X13269643Y-13971643D02*
X13283928Y-13985929D01*
X13269643Y-14000214D01*
X13255357Y-13985929D01*
X13269643Y-13971643D01*
X13269643Y-14000214D01*
X13398214Y-13728786D02*
X13412500Y-13714500D01*
X13441071Y-13700214D01*
X13512500Y-13700214D01*
X13541071Y-13714500D01*
X13555357Y-13728786D01*
X13569643Y-13757357D01*
X13569643Y-13785929D01*
X13555357Y-13828786D01*
X13383928Y-14000214D01*
X13569643Y-14000214D01*
X13755357Y-13700214D02*
X13783928Y-13700214D01*
X13812500Y-13714500D01*
X13826786Y-13728786D01*
X13841071Y-13757357D01*
X13855357Y-13814500D01*
X13855357Y-13885929D01*
X13841071Y-13943071D01*
X13826786Y-13971643D01*
X13812500Y-13985929D01*
X13783928Y-14000214D01*
X13755357Y-14000214D01*
X13726786Y-13985929D01*
X13712500Y-13971643D01*
X13698214Y-13943071D01*
X13683928Y-13885929D01*
X13683928Y-13814500D01*
X13698214Y-13757357D01*
X13712500Y-13728786D01*
X13726786Y-13714500D01*
X13755357Y-13700214D01*
X13983928Y-14000214D02*
X13983928Y-13800214D01*
X13983928Y-13828786D02*
X13998214Y-13814500D01*
X14026786Y-13800214D01*
X14069643Y-13800214D01*
X14098214Y-13814500D01*
X14112500Y-13843071D01*
X14112500Y-14000214D01*
X14112500Y-13843071D02*
X14126786Y-13814500D01*
X14155357Y-13800214D01*
X14198214Y-13800214D01*
X14226786Y-13814500D01*
X14241071Y-13843071D01*
X14241071Y-14000214D01*
X14383928Y-14000214D02*
X14383928Y-13800214D01*
X14383928Y-13828786D02*
X14398214Y-13814500D01*
X14426786Y-13800214D01*
X14469643Y-13800214D01*
X14498214Y-13814500D01*
X14512500Y-13843071D01*
X14512500Y-14000214D01*
X14512500Y-13843071D02*
X14526786Y-13814500D01*
X14555357Y-13800214D01*
X14598214Y-13800214D01*
X14626786Y-13814500D01*
X14641071Y-13843071D01*
X14641071Y-14000214D01*
X15226786Y-13685929D02*
X14969643Y-14071643D01*
X15612500Y-13700214D02*
X15641071Y-13700214D01*
X15669643Y-13714500D01*
X15683928Y-13728786D01*
X15698214Y-13757357D01*
X15712500Y-13814500D01*
X15712500Y-13885929D01*
X15698214Y-13943071D01*
X15683928Y-13971643D01*
X15669643Y-13985929D01*
X15641071Y-14000214D01*
X15612500Y-14000214D01*
X15583928Y-13985929D01*
X15569643Y-13971643D01*
X15555357Y-13943071D01*
X15541071Y-13885929D01*
X15541071Y-13814500D01*
X15555357Y-13757357D01*
X15569643Y-13728786D01*
X15583928Y-13714500D01*
X15612500Y-13700214D01*
X15841071Y-13971643D02*
X15855357Y-13985929D01*
X15841071Y-14000214D01*
X15826786Y-13985929D01*
X15841071Y-13971643D01*
X15841071Y-14000214D01*
X16041071Y-13700214D02*
X16069643Y-13700214D01*
X16098214Y-13714500D01*
X16112500Y-13728786D01*
X16126786Y-13757357D01*
X16141071Y-13814500D01*
X16141071Y-13885929D01*
X16126786Y-13943071D01*
X16112500Y-13971643D01*
X16098214Y-13985929D01*
X16069643Y-14000214D01*
X16041071Y-14000214D01*
X16012500Y-13985929D01*
X15998214Y-13971643D01*
X15983928Y-13943071D01*
X15969643Y-13885929D01*
X15969643Y-13814500D01*
X15983928Y-13757357D01*
X15998214Y-13728786D01*
X16012500Y-13714500D01*
X16041071Y-13700214D01*
X16312500Y-13828786D02*
X16283928Y-13814500D01*
X16269643Y-13800214D01*
X16255357Y-13771643D01*
X16255357Y-13757357D01*
X16269643Y-13728786D01*
X16283928Y-13714500D01*
X16312500Y-13700214D01*
X16369643Y-13700214D01*
X16398214Y-13714500D01*
X16412500Y-13728786D01*
X16426786Y-13757357D01*
X16426786Y-13771643D01*
X16412500Y-13800214D01*
X16398214Y-13814500D01*
X16369643Y-13828786D01*
X16312500Y-13828786D01*
X16283928Y-13843071D01*
X16269643Y-13857357D01*
X16255357Y-13885929D01*
X16255357Y-13943071D01*
X16269643Y-13971643D01*
X16283928Y-13985929D01*
X16312500Y-14000214D01*
X16369643Y-14000214D01*
X16398214Y-13985929D01*
X16412500Y-13971643D01*
X16426786Y-13943071D01*
X16426786Y-13885929D01*
X16412500Y-13857357D01*
X16398214Y-13843071D01*
X16369643Y-13828786D01*
X16526786Y-13700214D02*
X16726786Y-13700214D01*
X16598214Y-14000214D01*
X16826786Y-13700214D02*
X16826786Y-13757357D01*
X16941071Y-13700214D02*
X16941071Y-13757357D01*
X17383928Y-14114500D02*
X17369643Y-14100214D01*
X17341071Y-14057357D01*
X17326786Y-14028786D01*
X17312500Y-13985929D01*
X17298214Y-13914500D01*
X17298214Y-13857357D01*
X17312500Y-13785929D01*
X17326786Y-13743071D01*
X17341071Y-13714500D01*
X17369643Y-13671643D01*
X17383928Y-13657357D01*
X17626786Y-13800214D02*
X17626786Y-14000214D01*
X17555357Y-13685929D02*
X17483928Y-13900214D01*
X17669643Y-13900214D01*
X18012500Y-14000214D02*
X18012500Y-13700214D01*
X18141071Y-14000214D02*
X18141071Y-13843071D01*
X18126786Y-13814500D01*
X18098214Y-13800214D01*
X18055357Y-13800214D01*
X18026786Y-13814500D01*
X18012500Y-13828786D01*
X18326786Y-14000214D02*
X18298214Y-13985929D01*
X18283928Y-13971643D01*
X18269643Y-13943071D01*
X18269643Y-13857357D01*
X18283928Y-13828786D01*
X18298214Y-13814500D01*
X18326786Y-13800214D01*
X18369643Y-13800214D01*
X18398214Y-13814500D01*
X18412500Y-13828786D01*
X18426786Y-13857357D01*
X18426786Y-13943071D01*
X18412500Y-13971643D01*
X18398214Y-13985929D01*
X18369643Y-14000214D01*
X18326786Y-14000214D01*
X18598214Y-14000214D02*
X18569643Y-13985929D01*
X18555357Y-13957357D01*
X18555357Y-13700214D01*
X18826786Y-13985929D02*
X18798214Y-14000214D01*
X18741071Y-14000214D01*
X18712500Y-13985929D01*
X18698214Y-13957357D01*
X18698214Y-13843071D01*
X18712500Y-13814500D01*
X18741071Y-13800214D01*
X18798214Y-13800214D01*
X18826786Y-13814500D01*
X18841071Y-13843071D01*
X18841071Y-13871643D01*
X18698214Y-13900214D01*
X18955357Y-13985929D02*
X18983928Y-14000214D01*
X19041071Y-14000214D01*
X19069643Y-13985929D01*
X19083928Y-13957357D01*
X19083928Y-13943071D01*
X19069643Y-13914500D01*
X19041071Y-13900214D01*
X18998214Y-13900214D01*
X18969643Y-13885929D01*
X18955357Y-13857357D01*
X18955357Y-13843071D01*
X18969643Y-13814500D01*
X18998214Y-13800214D01*
X19041071Y-13800214D01*
X19069643Y-13814500D01*
X19183928Y-14114500D02*
X19198214Y-14100214D01*
X19226786Y-14057357D01*
X19241071Y-14028786D01*
X19255357Y-13985929D01*
X19269643Y-13914500D01*
X19269643Y-13857357D01*
X19255357Y-13785929D01*
X19241071Y-13743071D01*
X19226786Y-13714500D01*
X19198214Y-13671643D01*
X19183928Y-13657357D01*
M02*
