<?xml version="1.0" encoding="UTF-8" standalone="no"?>
<!-- Created with Digital by H.Neemann -->
<!-- created: Wed Apr 22 17:10:15 BRT 2020 -->

<svg
   xmlns:svg="http://www.w3.org/2000/svg"
   xmlns="http://www.w3.org/2000/svg"
   width="52.2mm"
   height="21.6mm"
   viewBox="11 3 348 144">
<g stroke-linecap="square">
<text text-anchor="end" x="30.0" y="31.0" fill="#000000" style="font-size:24px">S</text>
<line x1="32.0" y1="5.0" x2="357.0" y2="5.0" stroke="#000000" stroke-linecap="square" stroke-width="1.0" stroke-dasharray="4.0,4.0" />
<text text-anchor="end" x="30.0" y="66.0" fill="#000000" style="font-size:24px">C</text>
<line x1="32.0" y1="40.0" x2="357.0" y2="40.0" stroke="#000000" stroke-linecap="square" stroke-width="1.0" stroke-dasharray="4.0,4.0" />
<text text-anchor="end" x="30.0" y="101.0" fill="#000000" style="font-size:24px">Y</text>
<line x1="32.0" y1="75.0" x2="357.0" y2="75.0" stroke="#000000" stroke-linecap="square" stroke-width="1.0" stroke-dasharray="4.0,4.0" />
<text text-anchor="end" x="30.0" y="136.0" fill="#000000" style="font-size:24px">Z</text>
<line x1="32.0" y1="110.0" x2="357.0" y2="110.0" stroke="#000000" stroke-linecap="square" stroke-width="1.0" stroke-dasharray="4.0,4.0" />
<line x1="32.0" y1="145.0" x2="357.0" y2="145.0" stroke="#000000" stroke-linecap="square" stroke-width="1.0" stroke-dasharray="4.0,4.0" />
<line x1="32.0" y1="5.0" x2="32.0" y2="145.0" stroke="#000000" stroke-linecap="square" stroke-width="1.0" stroke-dasharray="4.0,4.0" />
<line x1="32.0" y1="35.0" x2="57.0" y2="35.0" stroke="#000000" stroke-linecap="square" stroke-width="4.0" />
<line x1="32.0" y1="70.0" x2="57.0" y2="70.0" stroke="#000000" stroke-linecap="square" stroke-width="4.0" />
<line x1="32.0" y1="105.0" x2="57.0" y2="105.0" stroke="#00ff00" stroke-linecap="square" stroke-width="4.0" />
<line x1="32.0" y1="140.0" x2="57.0" y2="140.0" stroke="#00ff00" stroke-linecap="square" stroke-width="4.0" />
<line x1="57.0" y1="5.0" x2="57.0" y2="145.0" stroke="#000000" stroke-linecap="square" stroke-width="1.0" stroke-dasharray="4.0,4.0" />
<line x1="57.0" y1="10.0" x2="82.0" y2="10.0" stroke="#000000" stroke-linecap="square" stroke-width="4.0" />
<line x1="57.0" y1="35.0" x2="57.0" y2="10.0" stroke="#000000" stroke-linecap="square" stroke-width="4.0" />
<line x1="57.0" y1="70.0" x2="82.0" y2="70.0" stroke="#000000" stroke-linecap="square" stroke-width="4.0" />
<line x1="57.0" y1="105.0" x2="82.0" y2="105.0" stroke="#00ff00" stroke-linecap="square" stroke-width="4.0" />
<line x1="57.0" y1="140.0" x2="82.0" y2="140.0" stroke="#00ff00" stroke-linecap="square" stroke-width="4.0" />
<line x1="82.0" y1="5.0" x2="82.0" y2="145.0" stroke="#000000" stroke-linecap="square" stroke-width="1.0" stroke-dasharray="4.0,4.0" />
<line x1="82.0" y1="35.0" x2="107.0" y2="35.0" stroke="#000000" stroke-linecap="square" stroke-width="4.0" />
<line x1="82.0" y1="10.0" x2="82.0" y2="35.0" stroke="#000000" stroke-linecap="square" stroke-width="4.0" />
<line x1="82.0" y1="45.0" x2="107.0" y2="45.0" stroke="#000000" stroke-linecap="square" stroke-width="4.0" />
<line x1="82.0" y1="70.0" x2="82.0" y2="45.0" stroke="#000000" stroke-linecap="square" stroke-width="4.0" />
<line x1="82.0" y1="105.0" x2="107.0" y2="105.0" stroke="#00ff00" stroke-linecap="square" stroke-width="4.0" />
<line x1="82.0" y1="140.0" x2="107.0" y2="140.0" stroke="#00ff00" stroke-linecap="square" stroke-width="4.0" />
<line x1="107.0" y1="5.0" x2="107.0" y2="145.0" stroke="#000000" stroke-linecap="square" stroke-width="1.0" stroke-dasharray="4.0,4.0" />
<line x1="107.0" y1="10.0" x2="132.0" y2="10.0" stroke="#000000" stroke-linecap="square" stroke-width="4.0" />
<line x1="107.0" y1="35.0" x2="107.0" y2="10.0" stroke="#000000" stroke-linecap="square" stroke-width="4.0" />
<line x1="107.0" y1="45.0" x2="132.0" y2="45.0" stroke="#000000" stroke-linecap="square" stroke-width="4.0" />
<line x1="107.0" y1="105.0" x2="132.0" y2="105.0" stroke="#00ff00" stroke-linecap="square" stroke-width="4.0" />
<line x1="107.0" y1="140.0" x2="132.0" y2="140.0" stroke="#00ff00" stroke-linecap="square" stroke-width="4.0" />
<line x1="132.0" y1="5.0" x2="132.0" y2="145.0" stroke="#000000" stroke-linecap="square" stroke-width="1.0" stroke-dasharray="4.0,4.0" />
<line x1="132.0" y1="35.0" x2="157.0" y2="35.0" stroke="#000000" stroke-linecap="square" stroke-width="4.0" />
<line x1="132.0" y1="10.0" x2="132.0" y2="35.0" stroke="#000000" stroke-linecap="square" stroke-width="4.0" />
<line x1="132.0" y1="45.0" x2="157.0" y2="45.0" stroke="#000000" stroke-linecap="square" stroke-width="4.0" />
<line x1="132.0" y1="105.0" x2="157.0" y2="105.0" stroke="#00ff00" stroke-linecap="square" stroke-width="4.0" />
<line x1="132.0" y1="140.0" x2="157.0" y2="140.0" stroke="#00ff00" stroke-linecap="square" stroke-width="4.0" />
<line x1="157.0" y1="5.0" x2="157.0" y2="145.0" stroke="#000000" stroke-linecap="square" stroke-width="1.0" stroke-dasharray="4.0,4.0" />
<line x1="157.0" y1="35.0" x2="182.0" y2="35.0" stroke="#000000" stroke-linecap="square" stroke-width="4.0" />
<line x1="157.0" y1="45.0" x2="182.0" y2="45.0" stroke="#000000" stroke-linecap="square" stroke-width="4.0" />
<line x1="157.0" y1="105.0" x2="182.0" y2="105.0" stroke="#00ff00" stroke-linecap="square" stroke-width="4.0" />
<line x1="157.0" y1="140.0" x2="182.0" y2="140.0" stroke="#00ff00" stroke-linecap="square" stroke-width="4.0" />
<line x1="182.0" y1="5.0" x2="182.0" y2="145.0" stroke="#000000" stroke-linecap="square" stroke-width="1.0" stroke-dasharray="4.0,4.0" />
<line x1="182.0" y1="35.0" x2="207.0" y2="35.0" stroke="#000000" stroke-linecap="square" stroke-width="4.0" />
<line x1="182.0" y1="45.0" x2="207.0" y2="45.0" stroke="#000000" stroke-linecap="square" stroke-width="4.0" />
<line x1="182.0" y1="105.0" x2="207.0" y2="105.0" stroke="#00ff00" stroke-linecap="square" stroke-width="4.0" />
<line x1="182.0" y1="140.0" x2="207.0" y2="140.0" stroke="#00ff00" stroke-linecap="square" stroke-width="4.0" />
<line x1="207.0" y1="5.0" x2="207.0" y2="145.0" stroke="#000000" stroke-linecap="square" stroke-width="1.0" stroke-dasharray="4.0,4.0" />
<line x1="207.0" y1="10.0" x2="232.0" y2="10.0" stroke="#000000" stroke-linecap="square" stroke-width="4.0" />
<line x1="207.0" y1="35.0" x2="207.0" y2="10.0" stroke="#000000" stroke-linecap="square" stroke-width="4.0" />
<line x1="207.0" y1="45.0" x2="232.0" y2="45.0" stroke="#000000" stroke-linecap="square" stroke-width="4.0" />
<line x1="207.0" y1="105.0" x2="232.0" y2="105.0" stroke="#00ff00" stroke-linecap="square" stroke-width="4.0" />
<line x1="207.0" y1="140.0" x2="232.0" y2="140.0" stroke="#00ff00" stroke-linecap="square" stroke-width="4.0" />
<line x1="232.0" y1="5.0" x2="232.0" y2="145.0" stroke="#000000" stroke-linecap="square" stroke-width="1.0" stroke-dasharray="4.0,4.0" />
<line x1="232.0" y1="10.0" x2="257.0" y2="10.0" stroke="#000000" stroke-linecap="square" stroke-width="4.0" />
<line x1="232.0" y1="45.0" x2="257.0" y2="45.0" stroke="#000000" stroke-linecap="square" stroke-width="4.0" />
<line x1="232.0" y1="105.0" x2="257.0" y2="105.0" stroke="#00ff00" stroke-linecap="square" stroke-width="4.0" />
<line x1="232.0" y1="140.0" x2="257.0" y2="140.0" stroke="#00ff00" stroke-linecap="square" stroke-width="4.0" />
<line x1="257.0" y1="5.0" x2="257.0" y2="145.0" stroke="#000000" stroke-linecap="square" stroke-width="1.0" stroke-dasharray="4.0,4.0" />
<line x1="257.0" y1="35.0" x2="282.0" y2="35.0" stroke="#000000" stroke-linecap="square" stroke-width="4.0" />
<line x1="257.0" y1="10.0" x2="257.0" y2="35.0" stroke="#000000" stroke-linecap="square" stroke-width="4.0" />
<line x1="257.0" y1="70.0" x2="282.0" y2="70.0" stroke="#000000" stroke-linecap="square" stroke-width="4.0" />
<line x1="257.0" y1="45.0" x2="257.0" y2="70.0" stroke="#000000" stroke-linecap="square" stroke-width="4.0" />
<line x1="257.0" y1="105.0" x2="282.0" y2="105.0" stroke="#00ff00" stroke-linecap="square" stroke-width="4.0" />
<line x1="257.0" y1="140.0" x2="282.0" y2="140.0" stroke="#00ff00" stroke-linecap="square" stroke-width="4.0" />
<line x1="282.0" y1="5.0" x2="282.0" y2="145.0" stroke="#000000" stroke-linecap="square" stroke-width="1.0" stroke-dasharray="4.0,4.0" />
<line x1="282.0" y1="10.0" x2="307.0" y2="10.0" stroke="#000000" stroke-linecap="square" stroke-width="4.0" />
<line x1="282.0" y1="35.0" x2="282.0" y2="10.0" stroke="#000000" stroke-linecap="square" stroke-width="4.0" />
<line x1="282.0" y1="70.0" x2="307.0" y2="70.0" stroke="#000000" stroke-linecap="square" stroke-width="4.0" />
<line x1="282.0" y1="105.0" x2="307.0" y2="105.0" stroke="#00ff00" stroke-linecap="square" stroke-width="4.0" />
<line x1="282.0" y1="140.0" x2="307.0" y2="140.0" stroke="#00ff00" stroke-linecap="square" stroke-width="4.0" />
<line x1="307.0" y1="5.0" x2="307.0" y2="145.0" stroke="#000000" stroke-linecap="square" stroke-width="1.0" stroke-dasharray="4.0,4.0" />
<line x1="307.0" y1="10.0" x2="332.0" y2="10.0" stroke="#000000" stroke-linecap="square" stroke-width="4.0" />
<line x1="307.0" y1="45.0" x2="332.0" y2="45.0" stroke="#000000" stroke-linecap="square" stroke-width="4.0" />
<line x1="307.0" y1="70.0" x2="307.0" y2="45.0" stroke="#000000" stroke-linecap="square" stroke-width="4.0" />
<line x1="307.0" y1="105.0" x2="332.0" y2="105.0" stroke="#00ff00" stroke-linecap="square" stroke-width="4.0" />
<line x1="307.0" y1="140.0" x2="332.0" y2="140.0" stroke="#00ff00" stroke-linecap="square" stroke-width="4.0" />
<line x1="332.0" y1="5.0" x2="332.0" y2="145.0" stroke="#000000" stroke-linecap="square" stroke-width="1.0" stroke-dasharray="4.0,4.0" />
<line x1="332.0" y1="10.0" x2="357.0" y2="10.0" stroke="#000000" stroke-linecap="square" stroke-width="4.0" />
<line x1="332.0" y1="45.0" x2="357.0" y2="45.0" stroke="#000000" stroke-linecap="square" stroke-width="4.0" />
<line x1="332.0" y1="105.0" x2="357.0" y2="105.0" stroke="#00ff00" stroke-linecap="square" stroke-width="4.0" />
<line x1="332.0" y1="140.0" x2="357.0" y2="140.0" stroke="#00ff00" stroke-linecap="square" stroke-width="4.0" />
<line x1="357.0" y1="5.0" x2="357.0" y2="145.0" stroke="#000000" stroke-linecap="square" stroke-width="1.0" stroke-dasharray="4.0,4.0" />
</g>
</svg>