<?xml version="1.0" encoding="UTF-8" standalone="no"?>
<!-- Created with Digital by H.Neemann -->
<!-- created: Wed Jul 27 18:57:31 BRT 2022 -->

<svg
   xmlns:svg="http://www.w3.org/2000/svg"
   xmlns="http://www.w3.org/2000/svg"
   width="133.8mm"
   height="37.35mm"
   viewBox="2 3 892 249">
<g stroke-linecap="square">
<text text-anchor="end" x="54.0" y="31.0" fill="#000000" style="font-size:24px">POR</text>
<line x1="56.0" y1="5.0" x2="892.0" y2="5.0" stroke="#000000" stroke-linecap="square" stroke-width="1.0" stroke-dasharray="4.0,4.0" />
<text text-anchor="end" x="54.0" y="66.0" fill="#000000" style="font-size:24px">ck</text>
<line x1="56.0" y1="40.0" x2="892.0" y2="40.0" stroke="#000000" stroke-linecap="square" stroke-width="1.0" stroke-dasharray="4.0,4.0" />
<text text-anchor="end" x="54.0" y="101.0" fill="#000000" style="font-size:24px">Q0</text>
<line x1="56.0" y1="75.0" x2="892.0" y2="75.0" stroke="#000000" stroke-linecap="square" stroke-width="1.0" stroke-dasharray="4.0,4.0" />
<text text-anchor="end" x="54.0" y="136.0" fill="#000000" style="font-size:24px">Q1</text>
<line x1="56.0" y1="110.0" x2="892.0" y2="110.0" stroke="#000000" stroke-linecap="square" stroke-width="1.0" stroke-dasharray="4.0,4.0" />
<text text-anchor="end" x="54.0" y="171.0" fill="#000000" style="font-size:24px">Q2</text>
<line x1="56.0" y1="145.0" x2="892.0" y2="145.0" stroke="#000000" stroke-linecap="square" stroke-width="1.0" stroke-dasharray="4.0,4.0" />
<text text-anchor="end" x="54.0" y="206.0" fill="#000000" style="font-size:24px">Q3</text>
<line x1="56.0" y1="180.0" x2="892.0" y2="180.0" stroke="#000000" stroke-linecap="square" stroke-width="1.0" stroke-dasharray="4.0,4.0" />
<text text-anchor="end" x="54.0" y="241.0" fill="#000000" style="font-size:24px">fs</text>
<line x1="56.0" y1="215.0" x2="892.0" y2="215.0" stroke="#000000" stroke-linecap="square" stroke-width="1.0" stroke-dasharray="4.0,4.0" />
<line x1="56.0" y1="250.0" x2="892.0" y2="250.0" stroke="#000000" stroke-linecap="square" stroke-width="1.0" stroke-dasharray="4.0,4.0" />
<line x1="56.0" y1="5.0" x2="56.0" y2="250.0" stroke="#000000" stroke-linecap="square" stroke-width="1.0" stroke-dasharray="4.0,4.0" />
<line x1="56.0" y1="35.0" x2="77.0" y2="35.0" stroke="#000000" stroke-linecap="square" stroke-width="4.0" />
<line x1="56.0" y1="70.0" x2="77.0" y2="70.0" stroke="#000000" stroke-linecap="square" stroke-width="4.0" />
<line x1="56.0" y1="80.0" x2="77.0" y2="80.0" stroke="#000000" stroke-linecap="square" stroke-width="4.0" />
<line x1="56.0" y1="115.0" x2="77.0" y2="115.0" stroke="#000000" stroke-linecap="square" stroke-width="4.0" />
<line x1="56.0" y1="175.0" x2="77.0" y2="175.0" stroke="#000000" stroke-linecap="square" stroke-width="4.0" />
<line x1="56.0" y1="210.0" x2="77.0" y2="210.0" stroke="#000000" stroke-linecap="square" stroke-width="4.0" />
<line x1="56.0" y1="245.0" x2="77.0" y2="245.0" stroke="#000000" stroke-linecap="square" stroke-width="4.0" />
<line x1="77.0" y1="5.0" x2="77.0" y2="250.0" stroke="#000000" stroke-linecap="square" stroke-width="1.0" stroke-dasharray="4.0,4.0" />
<line x1="77.0" y1="35.0" x2="101.0" y2="35.0" stroke="#000000" stroke-linecap="square" stroke-width="4.0" />
<line x1="77.0" y1="70.0" x2="101.0" y2="70.0" stroke="#000000" stroke-linecap="square" stroke-width="4.0" />
<line x1="77.0" y1="80.0" x2="101.0" y2="80.0" stroke="#000000" stroke-linecap="square" stroke-width="4.0" />
<line x1="77.0" y1="115.0" x2="101.0" y2="115.0" stroke="#000000" stroke-linecap="square" stroke-width="4.0" />
<line x1="77.0" y1="175.0" x2="101.0" y2="175.0" stroke="#000000" stroke-linecap="square" stroke-width="4.0" />
<line x1="77.0" y1="210.0" x2="101.0" y2="210.0" stroke="#000000" stroke-linecap="square" stroke-width="4.0" />
<line x1="77.0" y1="245.0" x2="101.0" y2="245.0" stroke="#000000" stroke-linecap="square" stroke-width="4.0" />
<line x1="101.0" y1="5.0" x2="101.0" y2="250.0" stroke="#000000" stroke-linecap="square" stroke-width="1.0" stroke-dasharray="4.0,4.0" />
<line x1="101.0" y1="35.0" x2="125.0" y2="35.0" stroke="#000000" stroke-linecap="square" stroke-width="4.0" />
<line x1="101.0" y1="70.0" x2="125.0" y2="70.0" stroke="#000000" stroke-linecap="square" stroke-width="4.0" />
<line x1="101.0" y1="80.0" x2="125.0" y2="80.0" stroke="#000000" stroke-linecap="square" stroke-width="4.0" />
<line x1="101.0" y1="115.0" x2="125.0" y2="115.0" stroke="#000000" stroke-linecap="square" stroke-width="4.0" />
<line x1="101.0" y1="175.0" x2="125.0" y2="175.0" stroke="#000000" stroke-linecap="square" stroke-width="4.0" />
<line x1="101.0" y1="210.0" x2="125.0" y2="210.0" stroke="#000000" stroke-linecap="square" stroke-width="4.0" />
<line x1="101.0" y1="245.0" x2="125.0" y2="245.0" stroke="#000000" stroke-linecap="square" stroke-width="4.0" />
<line x1="125.0" y1="5.0" x2="125.0" y2="250.0" stroke="#000000" stroke-linecap="square" stroke-width="1.0" stroke-dasharray="4.0,4.0" />
<line x1="125.0" y1="35.0" x2="149.0" y2="35.0" stroke="#000000" stroke-linecap="square" stroke-width="4.0" />
<line x1="125.0" y1="45.0" x2="149.0" y2="45.0" stroke="#000000" stroke-linecap="square" stroke-width="4.0" />
<line x1="125.0" y1="70.0" x2="125.0" y2="45.0" stroke="#000000" stroke-linecap="square" stroke-width="4.0" />
<line x1="125.0" y1="80.0" x2="149.0" y2="80.0" stroke="#000000" stroke-linecap="square" stroke-width="4.0" />
<line x1="125.0" y1="115.0" x2="149.0" y2="115.0" stroke="#000000" stroke-linecap="square" stroke-width="4.0" />
<line x1="125.0" y1="175.0" x2="149.0" y2="175.0" stroke="#000000" stroke-linecap="square" stroke-width="4.0" />
<line x1="125.0" y1="210.0" x2="149.0" y2="210.0" stroke="#000000" stroke-linecap="square" stroke-width="4.0" />
<line x1="125.0" y1="245.0" x2="149.0" y2="245.0" stroke="#000000" stroke-linecap="square" stroke-width="4.0" />
<line x1="149.0" y1="5.0" x2="149.0" y2="250.0" stroke="#000000" stroke-linecap="square" stroke-width="1.0" stroke-dasharray="4.0,4.0" />
<line x1="149.0" y1="35.0" x2="173.0" y2="35.0" stroke="#000000" stroke-linecap="square" stroke-width="4.0" />
<line x1="149.0" y1="45.0" x2="173.0" y2="45.0" stroke="#000000" stroke-linecap="square" stroke-width="4.0" />
<line x1="149.0" y1="80.0" x2="173.0" y2="80.0" stroke="#000000" stroke-linecap="square" stroke-width="4.0" />
<line x1="149.0" y1="115.0" x2="173.0" y2="115.0" stroke="#000000" stroke-linecap="square" stroke-width="4.0" />
<line x1="149.0" y1="175.0" x2="173.0" y2="175.0" stroke="#000000" stroke-linecap="square" stroke-width="4.0" />
<line x1="149.0" y1="210.0" x2="173.0" y2="210.0" stroke="#000000" stroke-linecap="square" stroke-width="4.0" />
<line x1="149.0" y1="245.0" x2="173.0" y2="245.0" stroke="#000000" stroke-linecap="square" stroke-width="4.0" />
<line x1="173.0" y1="5.0" x2="173.0" y2="250.0" stroke="#000000" stroke-linecap="square" stroke-width="1.0" stroke-dasharray="4.0,4.0" />
<line x1="173.0" y1="35.0" x2="197.0" y2="35.0" stroke="#000000" stroke-linecap="square" stroke-width="4.0" />
<line x1="173.0" y1="70.0" x2="197.0" y2="70.0" stroke="#000000" stroke-linecap="square" stroke-width="4.0" />
<line x1="173.0" y1="45.0" x2="173.0" y2="70.0" stroke="#000000" stroke-linecap="square" stroke-width="4.0" />
<line x1="173.0" y1="80.0" x2="197.0" y2="80.0" stroke="#000000" stroke-linecap="square" stroke-width="4.0" />
<line x1="173.0" y1="115.0" x2="197.0" y2="115.0" stroke="#000000" stroke-linecap="square" stroke-width="4.0" />
<line x1="173.0" y1="175.0" x2="197.0" y2="175.0" stroke="#000000" stroke-linecap="square" stroke-width="4.0" />
<line x1="173.0" y1="210.0" x2="197.0" y2="210.0" stroke="#000000" stroke-linecap="square" stroke-width="4.0" />
<line x1="173.0" y1="245.0" x2="197.0" y2="245.0" stroke="#000000" stroke-linecap="square" stroke-width="4.0" />
<line x1="197.0" y1="5.0" x2="197.0" y2="250.0" stroke="#000000" stroke-linecap="square" stroke-width="1.0" stroke-dasharray="4.0,4.0" />
<line x1="197.0" y1="35.0" x2="221.0" y2="35.0" stroke="#000000" stroke-linecap="square" stroke-width="4.0" />
<line x1="197.0" y1="70.0" x2="221.0" y2="70.0" stroke="#000000" stroke-linecap="square" stroke-width="4.0" />
<line x1="197.0" y1="105.0" x2="221.0" y2="105.0" stroke="#000000" stroke-linecap="square" stroke-width="4.0" />
<line x1="197.0" y1="80.0" x2="197.0" y2="105.0" stroke="#000000" stroke-linecap="square" stroke-width="4.0" />
<line x1="197.0" y1="115.0" x2="221.0" y2="115.0" stroke="#000000" stroke-linecap="square" stroke-width="4.0" />
<line x1="197.0" y1="175.0" x2="221.0" y2="175.0" stroke="#000000" stroke-linecap="square" stroke-width="4.0" />
<line x1="197.0" y1="210.0" x2="221.0" y2="210.0" stroke="#000000" stroke-linecap="square" stroke-width="4.0" />
<line x1="197.0" y1="245.0" x2="221.0" y2="245.0" stroke="#000000" stroke-linecap="square" stroke-width="4.0" />
<line x1="221.0" y1="5.0" x2="221.0" y2="250.0" stroke="#000000" stroke-linecap="square" stroke-width="1.0" stroke-dasharray="4.0,4.0" />
<line x1="221.0" y1="35.0" x2="245.0" y2="35.0" stroke="#000000" stroke-linecap="square" stroke-width="4.0" />
<line x1="221.0" y1="70.0" x2="245.0" y2="70.0" stroke="#000000" stroke-linecap="square" stroke-width="4.0" />
<line x1="221.0" y1="105.0" x2="245.0" y2="105.0" stroke="#000000" stroke-linecap="square" stroke-width="4.0" />
<line x1="221.0" y1="140.0" x2="245.0" y2="140.0" stroke="#000000" stroke-linecap="square" stroke-width="4.0" />
<line x1="221.0" y1="115.0" x2="221.0" y2="140.0" stroke="#000000" stroke-linecap="square" stroke-width="4.0" />
<line x1="221.0" y1="175.0" x2="245.0" y2="175.0" stroke="#000000" stroke-linecap="square" stroke-width="4.0" />
<line x1="221.0" y1="210.0" x2="245.0" y2="210.0" stroke="#000000" stroke-linecap="square" stroke-width="4.0" />
<line x1="221.0" y1="245.0" x2="245.0" y2="245.0" stroke="#000000" stroke-linecap="square" stroke-width="4.0" />
<line x1="245.0" y1="5.0" x2="245.0" y2="250.0" stroke="#000000" stroke-linecap="square" stroke-width="1.0" stroke-dasharray="4.0,4.0" />
<line x1="245.0" y1="35.0" x2="268.0" y2="35.0" stroke="#000000" stroke-linecap="square" stroke-width="4.0" />
<line x1="245.0" y1="70.0" x2="268.0" y2="70.0" stroke="#000000" stroke-linecap="square" stroke-width="4.0" />
<line x1="245.0" y1="105.0" x2="268.0" y2="105.0" stroke="#000000" stroke-linecap="square" stroke-width="4.0" />
<line x1="245.0" y1="140.0" x2="268.0" y2="140.0" stroke="#000000" stroke-linecap="square" stroke-width="4.0" />
<line x1="245.0" y1="150.0" x2="268.0" y2="150.0" stroke="#000000" stroke-linecap="square" stroke-width="4.0" />
<line x1="245.0" y1="175.0" x2="245.0" y2="150.0" stroke="#000000" stroke-linecap="square" stroke-width="4.0" />
<line x1="245.0" y1="210.0" x2="268.0" y2="210.0" stroke="#000000" stroke-linecap="square" stroke-width="4.0" />
<line x1="245.0" y1="245.0" x2="268.0" y2="245.0" stroke="#000000" stroke-linecap="square" stroke-width="4.0" />
<line x1="268.0" y1="5.0" x2="268.0" y2="250.0" stroke="#000000" stroke-linecap="square" stroke-width="1.0" stroke-dasharray="4.0,4.0" />
<line x1="268.0" y1="35.0" x2="292.0" y2="35.0" stroke="#000000" stroke-linecap="square" stroke-width="4.0" />
<line x1="268.0" y1="70.0" x2="292.0" y2="70.0" stroke="#000000" stroke-linecap="square" stroke-width="4.0" />
<line x1="268.0" y1="105.0" x2="292.0" y2="105.0" stroke="#000000" stroke-linecap="square" stroke-width="4.0" />
<line x1="268.0" y1="140.0" x2="292.0" y2="140.0" stroke="#000000" stroke-linecap="square" stroke-width="4.0" />
<line x1="268.0" y1="150.0" x2="292.0" y2="150.0" stroke="#000000" stroke-linecap="square" stroke-width="4.0" />
<line x1="268.0" y1="210.0" x2="292.0" y2="210.0" stroke="#000000" stroke-linecap="square" stroke-width="4.0" />
<line x1="268.0" y1="245.0" x2="292.0" y2="245.0" stroke="#000000" stroke-linecap="square" stroke-width="4.0" />
<line x1="292.0" y1="5.0" x2="292.0" y2="250.0" stroke="#000000" stroke-linecap="square" stroke-width="1.0" stroke-dasharray="4.0,4.0" />
<line x1="292.0" y1="35.0" x2="316.0" y2="35.0" stroke="#000000" stroke-linecap="square" stroke-width="4.0" />
<line x1="292.0" y1="45.0" x2="316.0" y2="45.0" stroke="#000000" stroke-linecap="square" stroke-width="4.0" />
<line x1="292.0" y1="70.0" x2="292.0" y2="45.0" stroke="#000000" stroke-linecap="square" stroke-width="4.0" />
<line x1="292.0" y1="105.0" x2="316.0" y2="105.0" stroke="#000000" stroke-linecap="square" stroke-width="4.0" />
<line x1="292.0" y1="140.0" x2="316.0" y2="140.0" stroke="#000000" stroke-linecap="square" stroke-width="4.0" />
<line x1="292.0" y1="150.0" x2="316.0" y2="150.0" stroke="#000000" stroke-linecap="square" stroke-width="4.0" />
<line x1="292.0" y1="210.0" x2="316.0" y2="210.0" stroke="#000000" stroke-linecap="square" stroke-width="4.0" />
<line x1="292.0" y1="245.0" x2="316.0" y2="245.0" stroke="#000000" stroke-linecap="square" stroke-width="4.0" />
<line x1="316.0" y1="5.0" x2="316.0" y2="250.0" stroke="#000000" stroke-linecap="square" stroke-width="1.0" stroke-dasharray="4.0,4.0" />
<line x1="316.0" y1="35.0" x2="340.0" y2="35.0" stroke="#000000" stroke-linecap="square" stroke-width="4.0" />
<line x1="316.0" y1="45.0" x2="340.0" y2="45.0" stroke="#000000" stroke-linecap="square" stroke-width="4.0" />
<line x1="316.0" y1="105.0" x2="340.0" y2="105.0" stroke="#000000" stroke-linecap="square" stroke-width="4.0" />
<line x1="316.0" y1="140.0" x2="340.0" y2="140.0" stroke="#000000" stroke-linecap="square" stroke-width="4.0" />
<line x1="316.0" y1="150.0" x2="340.0" y2="150.0" stroke="#000000" stroke-linecap="square" stroke-width="4.0" />
<line x1="316.0" y1="210.0" x2="340.0" y2="210.0" stroke="#000000" stroke-linecap="square" stroke-width="4.0" />
<line x1="316.0" y1="245.0" x2="340.0" y2="245.0" stroke="#000000" stroke-linecap="square" stroke-width="4.0" />
<line x1="340.0" y1="5.0" x2="340.0" y2="250.0" stroke="#000000" stroke-linecap="square" stroke-width="1.0" stroke-dasharray="4.0,4.0" />
<line x1="340.0" y1="35.0" x2="364.0" y2="35.0" stroke="#000000" stroke-linecap="square" stroke-width="4.0" />
<line x1="340.0" y1="70.0" x2="364.0" y2="70.0" stroke="#000000" stroke-linecap="square" stroke-width="4.0" />
<line x1="340.0" y1="45.0" x2="340.0" y2="70.0" stroke="#000000" stroke-linecap="square" stroke-width="4.0" />
<line x1="340.0" y1="105.0" x2="364.0" y2="105.0" stroke="#000000" stroke-linecap="square" stroke-width="4.0" />
<line x1="340.0" y1="140.0" x2="364.0" y2="140.0" stroke="#000000" stroke-linecap="square" stroke-width="4.0" />
<line x1="340.0" y1="150.0" x2="364.0" y2="150.0" stroke="#000000" stroke-linecap="square" stroke-width="4.0" />
<line x1="340.0" y1="210.0" x2="364.0" y2="210.0" stroke="#000000" stroke-linecap="square" stroke-width="4.0" />
<line x1="340.0" y1="245.0" x2="364.0" y2="245.0" stroke="#000000" stroke-linecap="square" stroke-width="4.0" />
<line x1="364.0" y1="5.0" x2="364.0" y2="250.0" stroke="#000000" stroke-linecap="square" stroke-width="1.0" stroke-dasharray="4.0,4.0" />
<line x1="364.0" y1="35.0" x2="388.0" y2="35.0" stroke="#000000" stroke-linecap="square" stroke-width="4.0" />
<line x1="364.0" y1="70.0" x2="388.0" y2="70.0" stroke="#000000" stroke-linecap="square" stroke-width="4.0" />
<line x1="364.0" y1="80.0" x2="388.0" y2="80.0" stroke="#000000" stroke-linecap="square" stroke-width="4.0" />
<line x1="364.0" y1="105.0" x2="364.0" y2="80.0" stroke="#000000" stroke-linecap="square" stroke-width="4.0" />
<line x1="364.0" y1="140.0" x2="388.0" y2="140.0" stroke="#000000" stroke-linecap="square" stroke-width="4.0" />
<line x1="364.0" y1="150.0" x2="388.0" y2="150.0" stroke="#000000" stroke-linecap="square" stroke-width="4.0" />
<line x1="364.0" y1="210.0" x2="388.0" y2="210.0" stroke="#000000" stroke-linecap="square" stroke-width="4.0" />
<line x1="364.0" y1="245.0" x2="388.0" y2="245.0" stroke="#000000" stroke-linecap="square" stroke-width="4.0" />
<line x1="388.0" y1="5.0" x2="388.0" y2="250.0" stroke="#000000" stroke-linecap="square" stroke-width="1.0" stroke-dasharray="4.0,4.0" />
<line x1="388.0" y1="35.0" x2="412.0" y2="35.0" stroke="#000000" stroke-linecap="square" stroke-width="4.0" />
<line x1="388.0" y1="70.0" x2="412.0" y2="70.0" stroke="#000000" stroke-linecap="square" stroke-width="4.0" />
<line x1="388.0" y1="80.0" x2="412.0" y2="80.0" stroke="#000000" stroke-linecap="square" stroke-width="4.0" />
<line x1="388.0" y1="140.0" x2="412.0" y2="140.0" stroke="#000000" stroke-linecap="square" stroke-width="4.0" />
<line x1="388.0" y1="150.0" x2="412.0" y2="150.0" stroke="#000000" stroke-linecap="square" stroke-width="4.0" />
<line x1="388.0" y1="210.0" x2="412.0" y2="210.0" stroke="#000000" stroke-linecap="square" stroke-width="4.0" />
<line x1="388.0" y1="245.0" x2="412.0" y2="245.0" stroke="#000000" stroke-linecap="square" stroke-width="4.0" />
<line x1="412.0" y1="5.0" x2="412.0" y2="250.0" stroke="#000000" stroke-linecap="square" stroke-width="1.0" stroke-dasharray="4.0,4.0" />
<line x1="412.0" y1="35.0" x2="436.0" y2="35.0" stroke="#000000" stroke-linecap="square" stroke-width="4.0" />
<line x1="412.0" y1="45.0" x2="436.0" y2="45.0" stroke="#000000" stroke-linecap="square" stroke-width="4.0" />
<line x1="412.0" y1="70.0" x2="412.0" y2="45.0" stroke="#000000" stroke-linecap="square" stroke-width="4.0" />
<line x1="412.0" y1="80.0" x2="436.0" y2="80.0" stroke="#000000" stroke-linecap="square" stroke-width="4.0" />
<line x1="412.0" y1="140.0" x2="436.0" y2="140.0" stroke="#000000" stroke-linecap="square" stroke-width="4.0" />
<line x1="412.0" y1="150.0" x2="436.0" y2="150.0" stroke="#000000" stroke-linecap="square" stroke-width="4.0" />
<line x1="412.0" y1="210.0" x2="436.0" y2="210.0" stroke="#000000" stroke-linecap="square" stroke-width="4.0" />
<line x1="412.0" y1="245.0" x2="436.0" y2="245.0" stroke="#000000" stroke-linecap="square" stroke-width="4.0" />
<line x1="436.0" y1="5.0" x2="436.0" y2="250.0" stroke="#000000" stroke-linecap="square" stroke-width="1.0" stroke-dasharray="4.0,4.0" />
<line x1="436.0" y1="35.0" x2="460.0" y2="35.0" stroke="#000000" stroke-linecap="square" stroke-width="4.0" />
<line x1="436.0" y1="45.0" x2="460.0" y2="45.0" stroke="#000000" stroke-linecap="square" stroke-width="4.0" />
<line x1="436.0" y1="80.0" x2="460.0" y2="80.0" stroke="#000000" stroke-linecap="square" stroke-width="4.0" />
<line x1="436.0" y1="140.0" x2="460.0" y2="140.0" stroke="#000000" stroke-linecap="square" stroke-width="4.0" />
<line x1="436.0" y1="150.0" x2="460.0" y2="150.0" stroke="#000000" stroke-linecap="square" stroke-width="4.0" />
<line x1="436.0" y1="210.0" x2="460.0" y2="210.0" stroke="#000000" stroke-linecap="square" stroke-width="4.0" />
<line x1="436.0" y1="245.0" x2="460.0" y2="245.0" stroke="#000000" stroke-linecap="square" stroke-width="4.0" />
<line x1="460.0" y1="5.0" x2="460.0" y2="250.0" stroke="#000000" stroke-linecap="square" stroke-width="1.0" stroke-dasharray="4.0,4.0" />
<line x1="460.0" y1="35.0" x2="483.0" y2="35.0" stroke="#000000" stroke-linecap="square" stroke-width="4.0" />
<line x1="460.0" y1="70.0" x2="483.0" y2="70.0" stroke="#000000" stroke-linecap="square" stroke-width="4.0" />
<line x1="460.0" y1="45.0" x2="460.0" y2="70.0" stroke="#000000" stroke-linecap="square" stroke-width="4.0" />
<line x1="460.0" y1="80.0" x2="483.0" y2="80.0" stroke="#000000" stroke-linecap="square" stroke-width="4.0" />
<line x1="460.0" y1="140.0" x2="483.0" y2="140.0" stroke="#000000" stroke-linecap="square" stroke-width="4.0" />
<line x1="460.0" y1="150.0" x2="483.0" y2="150.0" stroke="#000000" stroke-linecap="square" stroke-width="4.0" />
<line x1="460.0" y1="210.0" x2="483.0" y2="210.0" stroke="#000000" stroke-linecap="square" stroke-width="4.0" />
<line x1="460.0" y1="245.0" x2="483.0" y2="245.0" stroke="#000000" stroke-linecap="square" stroke-width="4.0" />
<line x1="483.0" y1="5.0" x2="483.0" y2="250.0" stroke="#000000" stroke-linecap="square" stroke-width="1.0" stroke-dasharray="4.0,4.0" />
<line x1="483.0" y1="35.0" x2="507.0" y2="35.0" stroke="#000000" stroke-linecap="square" stroke-width="4.0" />
<line x1="483.0" y1="70.0" x2="507.0" y2="70.0" stroke="#000000" stroke-linecap="square" stroke-width="4.0" />
<line x1="483.0" y1="105.0" x2="507.0" y2="105.0" stroke="#000000" stroke-linecap="square" stroke-width="4.0" />
<line x1="483.0" y1="80.0" x2="483.0" y2="105.0" stroke="#000000" stroke-linecap="square" stroke-width="4.0" />
<line x1="483.0" y1="140.0" x2="507.0" y2="140.0" stroke="#000000" stroke-linecap="square" stroke-width="4.0" />
<line x1="483.0" y1="150.0" x2="507.0" y2="150.0" stroke="#000000" stroke-linecap="square" stroke-width="4.0" />
<line x1="483.0" y1="210.0" x2="507.0" y2="210.0" stroke="#000000" stroke-linecap="square" stroke-width="4.0" />
<line x1="483.0" y1="245.0" x2="507.0" y2="245.0" stroke="#000000" stroke-linecap="square" stroke-width="4.0" />
<line x1="507.0" y1="5.0" x2="507.0" y2="250.0" stroke="#000000" stroke-linecap="square" stroke-width="1.0" stroke-dasharray="4.0,4.0" />
<line x1="507.0" y1="35.0" x2="531.0" y2="35.0" stroke="#000000" stroke-linecap="square" stroke-width="4.0" />
<line x1="507.0" y1="70.0" x2="531.0" y2="70.0" stroke="#000000" stroke-linecap="square" stroke-width="4.0" />
<line x1="507.0" y1="105.0" x2="531.0" y2="105.0" stroke="#000000" stroke-linecap="square" stroke-width="4.0" />
<line x1="507.0" y1="115.0" x2="531.0" y2="115.0" stroke="#000000" stroke-linecap="square" stroke-width="4.0" />
<line x1="507.0" y1="140.0" x2="507.0" y2="115.0" stroke="#000000" stroke-linecap="square" stroke-width="4.0" />
<line x1="507.0" y1="150.0" x2="531.0" y2="150.0" stroke="#000000" stroke-linecap="square" stroke-width="4.0" />
<line x1="507.0" y1="210.0" x2="531.0" y2="210.0" stroke="#000000" stroke-linecap="square" stroke-width="4.0" />
<line x1="507.0" y1="245.0" x2="531.0" y2="245.0" stroke="#000000" stroke-linecap="square" stroke-width="4.0" />
<line x1="531.0" y1="5.0" x2="531.0" y2="250.0" stroke="#000000" stroke-linecap="square" stroke-width="1.0" stroke-dasharray="4.0,4.0" />
<line x1="531.0" y1="35.0" x2="555.0" y2="35.0" stroke="#000000" stroke-linecap="square" stroke-width="4.0" />
<line x1="531.0" y1="70.0" x2="555.0" y2="70.0" stroke="#000000" stroke-linecap="square" stroke-width="4.0" />
<line x1="531.0" y1="105.0" x2="555.0" y2="105.0" stroke="#000000" stroke-linecap="square" stroke-width="4.0" />
<line x1="531.0" y1="115.0" x2="555.0" y2="115.0" stroke="#000000" stroke-linecap="square" stroke-width="4.0" />
<line x1="531.0" y1="150.0" x2="555.0" y2="150.0" stroke="#000000" stroke-linecap="square" stroke-width="4.0" />
<line x1="531.0" y1="210.0" x2="555.0" y2="210.0" stroke="#000000" stroke-linecap="square" stroke-width="4.0" />
<line x1="531.0" y1="245.0" x2="555.0" y2="245.0" stroke="#000000" stroke-linecap="square" stroke-width="4.0" />
<line x1="555.0" y1="5.0" x2="555.0" y2="250.0" stroke="#000000" stroke-linecap="square" stroke-width="1.0" stroke-dasharray="4.0,4.0" />
<line x1="555.0" y1="35.0" x2="579.0" y2="35.0" stroke="#000000" stroke-linecap="square" stroke-width="4.0" />
<line x1="555.0" y1="45.0" x2="579.0" y2="45.0" stroke="#000000" stroke-linecap="square" stroke-width="4.0" />
<line x1="555.0" y1="70.0" x2="555.0" y2="45.0" stroke="#000000" stroke-linecap="square" stroke-width="4.0" />
<line x1="555.0" y1="105.0" x2="579.0" y2="105.0" stroke="#000000" stroke-linecap="square" stroke-width="4.0" />
<line x1="555.0" y1="115.0" x2="579.0" y2="115.0" stroke="#000000" stroke-linecap="square" stroke-width="4.0" />
<line x1="555.0" y1="150.0" x2="579.0" y2="150.0" stroke="#000000" stroke-linecap="square" stroke-width="4.0" />
<line x1="555.0" y1="210.0" x2="579.0" y2="210.0" stroke="#000000" stroke-linecap="square" stroke-width="4.0" />
<line x1="555.0" y1="245.0" x2="579.0" y2="245.0" stroke="#000000" stroke-linecap="square" stroke-width="4.0" />
<line x1="579.0" y1="5.0" x2="579.0" y2="250.0" stroke="#000000" stroke-linecap="square" stroke-width="1.0" stroke-dasharray="4.0,4.0" />
<line x1="579.0" y1="35.0" x2="603.0" y2="35.0" stroke="#000000" stroke-linecap="square" stroke-width="4.0" />
<line x1="579.0" y1="45.0" x2="603.0" y2="45.0" stroke="#000000" stroke-linecap="square" stroke-width="4.0" />
<line x1="579.0" y1="105.0" x2="603.0" y2="105.0" stroke="#000000" stroke-linecap="square" stroke-width="4.0" />
<line x1="579.0" y1="115.0" x2="603.0" y2="115.0" stroke="#000000" stroke-linecap="square" stroke-width="4.0" />
<line x1="579.0" y1="150.0" x2="603.0" y2="150.0" stroke="#000000" stroke-linecap="square" stroke-width="4.0" />
<line x1="579.0" y1="210.0" x2="603.0" y2="210.0" stroke="#000000" stroke-linecap="square" stroke-width="4.0" />
<line x1="579.0" y1="245.0" x2="603.0" y2="245.0" stroke="#000000" stroke-linecap="square" stroke-width="4.0" />
<line x1="603.0" y1="5.0" x2="603.0" y2="250.0" stroke="#000000" stroke-linecap="square" stroke-width="1.0" stroke-dasharray="4.0,4.0" />
<line x1="603.0" y1="35.0" x2="627.0" y2="35.0" stroke="#000000" stroke-linecap="square" stroke-width="4.0" />
<line x1="603.0" y1="70.0" x2="627.0" y2="70.0" stroke="#000000" stroke-linecap="square" stroke-width="4.0" />
<line x1="603.0" y1="45.0" x2="603.0" y2="70.0" stroke="#000000" stroke-linecap="square" stroke-width="4.0" />
<line x1="603.0" y1="105.0" x2="627.0" y2="105.0" stroke="#000000" stroke-linecap="square" stroke-width="4.0" />
<line x1="603.0" y1="115.0" x2="627.0" y2="115.0" stroke="#000000" stroke-linecap="square" stroke-width="4.0" />
<line x1="603.0" y1="150.0" x2="627.0" y2="150.0" stroke="#000000" stroke-linecap="square" stroke-width="4.0" />
<line x1="603.0" y1="210.0" x2="627.0" y2="210.0" stroke="#000000" stroke-linecap="square" stroke-width="4.0" />
<line x1="603.0" y1="245.0" x2="627.0" y2="245.0" stroke="#000000" stroke-linecap="square" stroke-width="4.0" />
<line x1="627.0" y1="5.0" x2="627.0" y2="250.0" stroke="#000000" stroke-linecap="square" stroke-width="1.0" stroke-dasharray="4.0,4.0" />
<line x1="627.0" y1="35.0" x2="651.0" y2="35.0" stroke="#000000" stroke-linecap="square" stroke-width="4.0" />
<line x1="627.0" y1="70.0" x2="651.0" y2="70.0" stroke="#000000" stroke-linecap="square" stroke-width="4.0" />
<line x1="627.0" y1="80.0" x2="651.0" y2="80.0" stroke="#000000" stroke-linecap="square" stroke-width="4.0" />
<line x1="627.0" y1="105.0" x2="627.0" y2="80.0" stroke="#000000" stroke-linecap="square" stroke-width="4.0" />
<line x1="627.0" y1="115.0" x2="651.0" y2="115.0" stroke="#000000" stroke-linecap="square" stroke-width="4.0" />
<line x1="627.0" y1="150.0" x2="651.0" y2="150.0" stroke="#000000" stroke-linecap="square" stroke-width="4.0" />
<line x1="627.0" y1="210.0" x2="651.0" y2="210.0" stroke="#000000" stroke-linecap="square" stroke-width="4.0" />
<line x1="627.0" y1="245.0" x2="651.0" y2="245.0" stroke="#000000" stroke-linecap="square" stroke-width="4.0" />
<line x1="651.0" y1="5.0" x2="651.0" y2="250.0" stroke="#000000" stroke-linecap="square" stroke-width="1.0" stroke-dasharray="4.0,4.0" />
<line x1="651.0" y1="35.0" x2="675.0" y2="35.0" stroke="#000000" stroke-linecap="square" stroke-width="4.0" />
<line x1="651.0" y1="70.0" x2="675.0" y2="70.0" stroke="#000000" stroke-linecap="square" stroke-width="4.0" />
<line x1="651.0" y1="80.0" x2="675.0" y2="80.0" stroke="#000000" stroke-linecap="square" stroke-width="4.0" />
<line x1="651.0" y1="115.0" x2="675.0" y2="115.0" stroke="#000000" stroke-linecap="square" stroke-width="4.0" />
<line x1="651.0" y1="150.0" x2="675.0" y2="150.0" stroke="#000000" stroke-linecap="square" stroke-width="4.0" />
<line x1="651.0" y1="210.0" x2="675.0" y2="210.0" stroke="#000000" stroke-linecap="square" stroke-width="4.0" />
<line x1="651.0" y1="245.0" x2="675.0" y2="245.0" stroke="#000000" stroke-linecap="square" stroke-width="4.0" />
<line x1="675.0" y1="5.0" x2="675.0" y2="250.0" stroke="#000000" stroke-linecap="square" stroke-width="1.0" stroke-dasharray="4.0,4.0" />
<line x1="675.0" y1="35.0" x2="698.0" y2="35.0" stroke="#000000" stroke-linecap="square" stroke-width="4.0" />
<line x1="675.0" y1="45.0" x2="698.0" y2="45.0" stroke="#000000" stroke-linecap="square" stroke-width="4.0" />
<line x1="675.0" y1="70.0" x2="675.0" y2="45.0" stroke="#000000" stroke-linecap="square" stroke-width="4.0" />
<line x1="675.0" y1="80.0" x2="698.0" y2="80.0" stroke="#000000" stroke-linecap="square" stroke-width="4.0" />
<line x1="675.0" y1="115.0" x2="698.0" y2="115.0" stroke="#000000" stroke-linecap="square" stroke-width="4.0" />
<line x1="675.0" y1="150.0" x2="698.0" y2="150.0" stroke="#000000" stroke-linecap="square" stroke-width="4.0" />
<line x1="675.0" y1="210.0" x2="698.0" y2="210.0" stroke="#000000" stroke-linecap="square" stroke-width="4.0" />
<line x1="675.0" y1="245.0" x2="698.0" y2="245.0" stroke="#000000" stroke-linecap="square" stroke-width="4.0" />
<line x1="698.0" y1="5.0" x2="698.0" y2="250.0" stroke="#000000" stroke-linecap="square" stroke-width="1.0" stroke-dasharray="4.0,4.0" />
<line x1="698.0" y1="35.0" x2="722.0" y2="35.0" stroke="#000000" stroke-linecap="square" stroke-width="4.0" />
<line x1="698.0" y1="45.0" x2="722.0" y2="45.0" stroke="#000000" stroke-linecap="square" stroke-width="4.0" />
<line x1="698.0" y1="80.0" x2="722.0" y2="80.0" stroke="#000000" stroke-linecap="square" stroke-width="4.0" />
<line x1="698.0" y1="115.0" x2="722.0" y2="115.0" stroke="#000000" stroke-linecap="square" stroke-width="4.0" />
<line x1="698.0" y1="150.0" x2="722.0" y2="150.0" stroke="#000000" stroke-linecap="square" stroke-width="4.0" />
<line x1="698.0" y1="210.0" x2="722.0" y2="210.0" stroke="#000000" stroke-linecap="square" stroke-width="4.0" />
<line x1="698.0" y1="245.0" x2="722.0" y2="245.0" stroke="#000000" stroke-linecap="square" stroke-width="4.0" />
<line x1="722.0" y1="5.0" x2="722.0" y2="250.0" stroke="#000000" stroke-linecap="square" stroke-width="1.0" stroke-dasharray="4.0,4.0" />
<line x1="722.0" y1="35.0" x2="746.0" y2="35.0" stroke="#000000" stroke-linecap="square" stroke-width="4.0" />
<line x1="722.0" y1="70.0" x2="746.0" y2="70.0" stroke="#000000" stroke-linecap="square" stroke-width="4.0" />
<line x1="722.0" y1="45.0" x2="722.0" y2="70.0" stroke="#000000" stroke-linecap="square" stroke-width="4.0" />
<line x1="722.0" y1="80.0" x2="746.0" y2="80.0" stroke="#000000" stroke-linecap="square" stroke-width="4.0" />
<line x1="722.0" y1="115.0" x2="746.0" y2="115.0" stroke="#000000" stroke-linecap="square" stroke-width="4.0" />
<line x1="722.0" y1="150.0" x2="746.0" y2="150.0" stroke="#000000" stroke-linecap="square" stroke-width="4.0" />
<line x1="722.0" y1="210.0" x2="746.0" y2="210.0" stroke="#000000" stroke-linecap="square" stroke-width="4.0" />
<line x1="722.0" y1="245.0" x2="746.0" y2="245.0" stroke="#000000" stroke-linecap="square" stroke-width="4.0" />
<line x1="746.0" y1="5.0" x2="746.0" y2="250.0" stroke="#000000" stroke-linecap="square" stroke-width="1.0" stroke-dasharray="4.0,4.0" />
<line x1="746.0" y1="35.0" x2="770.0" y2="35.0" stroke="#000000" stroke-linecap="square" stroke-width="4.0" />
<line x1="746.0" y1="70.0" x2="770.0" y2="70.0" stroke="#000000" stroke-linecap="square" stroke-width="4.0" />
<line x1="746.0" y1="105.0" x2="770.0" y2="105.0" stroke="#000000" stroke-linecap="square" stroke-width="4.0" />
<line x1="746.0" y1="80.0" x2="746.0" y2="105.0" stroke="#000000" stroke-linecap="square" stroke-width="4.0" />
<line x1="746.0" y1="115.0" x2="770.0" y2="115.0" stroke="#000000" stroke-linecap="square" stroke-width="4.0" />
<line x1="746.0" y1="150.0" x2="770.0" y2="150.0" stroke="#000000" stroke-linecap="square" stroke-width="4.0" />
<line x1="746.0" y1="210.0" x2="770.0" y2="210.0" stroke="#000000" stroke-linecap="square" stroke-width="4.0" />
<line x1="746.0" y1="245.0" x2="770.0" y2="245.0" stroke="#000000" stroke-linecap="square" stroke-width="4.0" />
<line x1="770.0" y1="5.0" x2="770.0" y2="250.0" stroke="#000000" stroke-linecap="square" stroke-width="1.0" stroke-dasharray="4.0,4.0" />
<line x1="770.0" y1="35.0" x2="794.0" y2="35.0" stroke="#000000" stroke-linecap="square" stroke-width="4.0" />
<line x1="770.0" y1="70.0" x2="794.0" y2="70.0" stroke="#000000" stroke-linecap="square" stroke-width="4.0" />
<line x1="770.0" y1="105.0" x2="794.0" y2="105.0" stroke="#000000" stroke-linecap="square" stroke-width="4.0" />
<line x1="770.0" y1="140.0" x2="794.0" y2="140.0" stroke="#000000" stroke-linecap="square" stroke-width="4.0" />
<line x1="770.0" y1="115.0" x2="770.0" y2="140.0" stroke="#000000" stroke-linecap="square" stroke-width="4.0" />
<line x1="770.0" y1="150.0" x2="794.0" y2="150.0" stroke="#000000" stroke-linecap="square" stroke-width="4.0" />
<line x1="770.0" y1="210.0" x2="794.0" y2="210.0" stroke="#000000" stroke-linecap="square" stroke-width="4.0" />
<line x1="770.0" y1="245.0" x2="794.0" y2="245.0" stroke="#000000" stroke-linecap="square" stroke-width="4.0" />
<line x1="794.0" y1="5.0" x2="794.0" y2="250.0" stroke="#000000" stroke-linecap="square" stroke-width="1.0" stroke-dasharray="4.0,4.0" />
<line x1="794.0" y1="35.0" x2="818.0" y2="35.0" stroke="#000000" stroke-linecap="square" stroke-width="4.0" />
<line x1="794.0" y1="70.0" x2="818.0" y2="70.0" stroke="#000000" stroke-linecap="square" stroke-width="4.0" />
<line x1="794.0" y1="105.0" x2="818.0" y2="105.0" stroke="#000000" stroke-linecap="square" stroke-width="4.0" />
<line x1="794.0" y1="140.0" x2="818.0" y2="140.0" stroke="#000000" stroke-linecap="square" stroke-width="4.0" />
<line x1="794.0" y1="175.0" x2="818.0" y2="175.0" stroke="#000000" stroke-linecap="square" stroke-width="4.0" />
<line x1="794.0" y1="150.0" x2="794.0" y2="175.0" stroke="#000000" stroke-linecap="square" stroke-width="4.0" />
<line x1="794.0" y1="210.0" x2="818.0" y2="210.0" stroke="#000000" stroke-linecap="square" stroke-width="4.0" />
<line x1="794.0" y1="245.0" x2="818.0" y2="245.0" stroke="#000000" stroke-linecap="square" stroke-width="4.0" />
<line x1="818.0" y1="5.0" x2="818.0" y2="250.0" stroke="#000000" stroke-linecap="square" stroke-width="1.0" stroke-dasharray="4.0,4.0" />
<line x1="818.0" y1="35.0" x2="842.0" y2="35.0" stroke="#000000" stroke-linecap="square" stroke-width="4.0" />
<line x1="818.0" y1="70.0" x2="842.0" y2="70.0" stroke="#000000" stroke-linecap="square" stroke-width="4.0" />
<line x1="818.0" y1="105.0" x2="842.0" y2="105.0" stroke="#000000" stroke-linecap="square" stroke-width="4.0" />
<line x1="818.0" y1="140.0" x2="842.0" y2="140.0" stroke="#000000" stroke-linecap="square" stroke-width="4.0" />
<line x1="818.0" y1="175.0" x2="842.0" y2="175.0" stroke="#000000" stroke-linecap="square" stroke-width="4.0" />
<line x1="818.0" y1="185.0" x2="842.0" y2="185.0" stroke="#000000" stroke-linecap="square" stroke-width="4.0" />
<line x1="818.0" y1="210.0" x2="818.0" y2="185.0" stroke="#000000" stroke-linecap="square" stroke-width="4.0" />
<line x1="818.0" y1="220.0" x2="842.0" y2="220.0" stroke="#000000" stroke-linecap="square" stroke-width="4.0" />
<line x1="818.0" y1="245.0" x2="818.0" y2="220.0" stroke="#000000" stroke-linecap="square" stroke-width="4.0" />
<line x1="842.0" y1="5.0" x2="842.0" y2="250.0" stroke="#000000" stroke-linecap="square" stroke-width="1.0" stroke-dasharray="4.0,4.0" />
<line x1="842.0" y1="35.0" x2="866.0" y2="35.0" stroke="#000000" stroke-linecap="square" stroke-width="4.0" />
<line x1="842.0" y1="70.0" x2="866.0" y2="70.0" stroke="#000000" stroke-linecap="square" stroke-width="4.0" />
<line x1="842.0" y1="105.0" x2="866.0" y2="105.0" stroke="#000000" stroke-linecap="square" stroke-width="4.0" />
<line x1="842.0" y1="140.0" x2="866.0" y2="140.0" stroke="#000000" stroke-linecap="square" stroke-width="4.0" />
<line x1="842.0" y1="175.0" x2="866.0" y2="175.0" stroke="#000000" stroke-linecap="square" stroke-width="4.0" />
<line x1="842.0" y1="185.0" x2="866.0" y2="185.0" stroke="#000000" stroke-linecap="square" stroke-width="4.0" />
<line x1="842.0" y1="220.0" x2="866.0" y2="220.0" stroke="#000000" stroke-linecap="square" stroke-width="4.0" />
<line x1="866.0" y1="5.0" x2="866.0" y2="250.0" stroke="#000000" stroke-linecap="square" stroke-width="1.0" stroke-dasharray="4.0,4.0" />
<line x1="866.0" y1="35.0" x2="889.0" y2="35.0" stroke="#000000" stroke-linecap="square" stroke-width="4.0" />
<line x1="866.0" y1="45.0" x2="889.0" y2="45.0" stroke="#000000" stroke-linecap="square" stroke-width="4.0" />
<line x1="866.0" y1="70.0" x2="866.0" y2="45.0" stroke="#000000" stroke-linecap="square" stroke-width="4.0" />
<line x1="866.0" y1="105.0" x2="889.0" y2="105.0" stroke="#000000" stroke-linecap="square" stroke-width="4.0" />
<line x1="866.0" y1="140.0" x2="889.0" y2="140.0" stroke="#000000" stroke-linecap="square" stroke-width="4.0" />
<line x1="866.0" y1="175.0" x2="889.0" y2="175.0" stroke="#000000" stroke-linecap="square" stroke-width="4.0" />
<line x1="866.0" y1="185.0" x2="889.0" y2="185.0" stroke="#000000" stroke-linecap="square" stroke-width="4.0" />
<line x1="866.0" y1="220.0" x2="889.0" y2="220.0" stroke="#000000" stroke-linecap="square" stroke-width="4.0" />
<line x1="892.0" y1="5.0" x2="892.0" y2="250.0" stroke="#000000" stroke-linecap="square" stroke-width="1.0" stroke-dasharray="4.0,4.0" />
</g>
</svg>