<?xml version="1.0" encoding="UTF-8" standalone="no"?>
<!-- Created with Digital by H.Neemann -->
<!-- created: Wed Jun 14 18:28:51 BRT 2023 -->

<svg
   xmlns:svg="http://www.w3.org/2000/svg"
   xmlns="http://www.w3.org/2000/svg"
   width="138.0mm"
   height="26.85mm"
   viewBox="6 3 920 179">
<g stroke-linecap="square">
<text text-anchor="end" x="42.0" y="31.0" fill="#000000" style="font-size:24px">EN</text>
<line x1="44.0" y1="5.0" x2="924.0" y2="5.0" stroke="#000000" stroke-linecap="square" stroke-width="1.0" stroke-dasharray="4.0,4.0" />
<text text-anchor="end" x="42.0" y="66.0" fill="#000000" style="font-size:24px">D1</text>
<line x1="44.0" y1="40.0" x2="924.0" y2="40.0" stroke="#000000" stroke-linecap="square" stroke-width="1.0" stroke-dasharray="4.0,4.0" />
<text text-anchor="end" x="42.0" y="101.0" fill="#000000" style="font-size:24px">D0</text>
<line x1="44.0" y1="75.0" x2="924.0" y2="75.0" stroke="#000000" stroke-linecap="square" stroke-width="1.0" stroke-dasharray="4.0,4.0" />
<text text-anchor="end" x="42.0" y="136.0" fill="#000000" style="font-size:24px">Q1</text>
<line x1="44.0" y1="110.0" x2="924.0" y2="110.0" stroke="#000000" stroke-linecap="square" stroke-width="1.0" stroke-dasharray="4.0,4.0" />
<text text-anchor="end" x="42.0" y="171.0" fill="#000000" style="font-size:24px">Q0</text>
<line x1="44.0" y1="145.0" x2="924.0" y2="145.0" stroke="#000000" stroke-linecap="square" stroke-width="1.0" stroke-dasharray="4.0,4.0" />
<line x1="44.0" y1="180.0" x2="924.0" y2="180.0" stroke="#000000" stroke-linecap="square" stroke-width="1.0" stroke-dasharray="4.0,4.0" />
<line x1="44.0" y1="5.0" x2="44.0" y2="180.0" stroke="#000000" stroke-linecap="square" stroke-width="1.0" stroke-dasharray="4.0,4.0" />
<line x1="44.0" y1="35.0" x2="65.0" y2="35.0" stroke="#000000" stroke-linecap="square" stroke-width="4.0" />
<line x1="44.0" y1="70.0" x2="65.0" y2="70.0" stroke="#000000" stroke-linecap="square" stroke-width="4.0" />
<line x1="44.0" y1="105.0" x2="65.0" y2="105.0" stroke="#000000" stroke-linecap="square" stroke-width="4.0" />
<line x1="44.0" y1="140.0" x2="65.0" y2="140.0" stroke="#000000" stroke-linecap="square" stroke-width="4.0" />
<line x1="44.0" y1="175.0" x2="65.0" y2="175.0" stroke="#000000" stroke-linecap="square" stroke-width="4.0" />
<line x1="65.0" y1="5.0" x2="65.0" y2="180.0" stroke="#000000" stroke-linecap="square" stroke-width="1.0" stroke-dasharray="4.0,4.0" />
<line x1="65.0" y1="35.0" x2="90.0" y2="35.0" stroke="#000000" stroke-linecap="square" stroke-width="4.0" />
<line x1="65.0" y1="45.0" x2="90.0" y2="45.0" stroke="#000000" stroke-linecap="square" stroke-width="4.0" />
<line x1="65.0" y1="70.0" x2="65.0" y2="45.0" stroke="#000000" stroke-linecap="square" stroke-width="4.0" />
<line x1="65.0" y1="105.0" x2="90.0" y2="105.0" stroke="#000000" stroke-linecap="square" stroke-width="4.0" />
<line x1="65.0" y1="140.0" x2="90.0" y2="140.0" stroke="#000000" stroke-linecap="square" stroke-width="4.0" />
<line x1="65.0" y1="175.0" x2="90.0" y2="175.0" stroke="#000000" stroke-linecap="square" stroke-width="4.0" />
<line x1="90.0" y1="5.0" x2="90.0" y2="180.0" stroke="#000000" stroke-linecap="square" stroke-width="1.0" stroke-dasharray="4.0,4.0" />
<line x1="90.0" y1="35.0" x2="115.0" y2="35.0" stroke="#000000" stroke-linecap="square" stroke-width="4.0" />
<line x1="90.0" y1="70.0" x2="115.0" y2="70.0" stroke="#000000" stroke-linecap="square" stroke-width="4.0" />
<line x1="90.0" y1="45.0" x2="90.0" y2="70.0" stroke="#000000" stroke-linecap="square" stroke-width="4.0" />
<line x1="90.0" y1="105.0" x2="115.0" y2="105.0" stroke="#000000" stroke-linecap="square" stroke-width="4.0" />
<line x1="90.0" y1="140.0" x2="115.0" y2="140.0" stroke="#000000" stroke-linecap="square" stroke-width="4.0" />
<line x1="90.0" y1="175.0" x2="115.0" y2="175.0" stroke="#000000" stroke-linecap="square" stroke-width="4.0" />
<line x1="115.0" y1="5.0" x2="115.0" y2="180.0" stroke="#000000" stroke-linecap="square" stroke-width="1.0" stroke-dasharray="4.0,4.0" />
<line x1="115.0" y1="35.0" x2="140.0" y2="35.0" stroke="#000000" stroke-linecap="square" stroke-width="4.0" />
<line x1="115.0" y1="45.0" x2="140.0" y2="45.0" stroke="#000000" stroke-linecap="square" stroke-width="4.0" />
<line x1="115.0" y1="70.0" x2="115.0" y2="45.0" stroke="#000000" stroke-linecap="square" stroke-width="4.0" />
<line x1="115.0" y1="105.0" x2="140.0" y2="105.0" stroke="#000000" stroke-linecap="square" stroke-width="4.0" />
<line x1="115.0" y1="140.0" x2="140.0" y2="140.0" stroke="#000000" stroke-linecap="square" stroke-width="4.0" />
<line x1="115.0" y1="175.0" x2="140.0" y2="175.0" stroke="#000000" stroke-linecap="square" stroke-width="4.0" />
<line x1="140.0" y1="5.0" x2="140.0" y2="180.0" stroke="#000000" stroke-linecap="square" stroke-width="1.0" stroke-dasharray="4.0,4.0" />
<line x1="140.0" y1="35.0" x2="165.0" y2="35.0" stroke="#000000" stroke-linecap="square" stroke-width="4.0" />
<line x1="140.0" y1="70.0" x2="165.0" y2="70.0" stroke="#000000" stroke-linecap="square" stroke-width="4.0" />
<line x1="140.0" y1="45.0" x2="140.0" y2="70.0" stroke="#000000" stroke-linecap="square" stroke-width="4.0" />
<line x1="140.0" y1="105.0" x2="165.0" y2="105.0" stroke="#000000" stroke-linecap="square" stroke-width="4.0" />
<line x1="140.0" y1="140.0" x2="165.0" y2="140.0" stroke="#000000" stroke-linecap="square" stroke-width="4.0" />
<line x1="140.0" y1="175.0" x2="165.0" y2="175.0" stroke="#000000" stroke-linecap="square" stroke-width="4.0" />
<line x1="165.0" y1="5.0" x2="165.0" y2="180.0" stroke="#000000" stroke-linecap="square" stroke-width="1.0" stroke-dasharray="4.0,4.0" />
<line x1="165.0" y1="35.0" x2="190.0" y2="35.0" stroke="#000000" stroke-linecap="square" stroke-width="4.0" />
<line x1="165.0" y1="70.0" x2="190.0" y2="70.0" stroke="#000000" stroke-linecap="square" stroke-width="4.0" />
<line x1="165.0" y1="80.0" x2="190.0" y2="80.0" stroke="#000000" stroke-linecap="square" stroke-width="4.0" />
<line x1="165.0" y1="105.0" x2="165.0" y2="80.0" stroke="#000000" stroke-linecap="square" stroke-width="4.0" />
<line x1="165.0" y1="140.0" x2="190.0" y2="140.0" stroke="#000000" stroke-linecap="square" stroke-width="4.0" />
<line x1="165.0" y1="175.0" x2="190.0" y2="175.0" stroke="#000000" stroke-linecap="square" stroke-width="4.0" />
<line x1="190.0" y1="5.0" x2="190.0" y2="180.0" stroke="#000000" stroke-linecap="square" stroke-width="1.0" stroke-dasharray="4.0,4.0" />
<line x1="190.0" y1="35.0" x2="215.0" y2="35.0" stroke="#000000" stroke-linecap="square" stroke-width="4.0" />
<line x1="190.0" y1="70.0" x2="215.0" y2="70.0" stroke="#000000" stroke-linecap="square" stroke-width="4.0" />
<line x1="190.0" y1="105.0" x2="215.0" y2="105.0" stroke="#000000" stroke-linecap="square" stroke-width="4.0" />
<line x1="190.0" y1="80.0" x2="190.0" y2="105.0" stroke="#000000" stroke-linecap="square" stroke-width="4.0" />
<line x1="190.0" y1="140.0" x2="215.0" y2="140.0" stroke="#000000" stroke-linecap="square" stroke-width="4.0" />
<line x1="190.0" y1="175.0" x2="215.0" y2="175.0" stroke="#000000" stroke-linecap="square" stroke-width="4.0" />
<line x1="215.0" y1="5.0" x2="215.0" y2="180.0" stroke="#000000" stroke-linecap="square" stroke-width="1.0" stroke-dasharray="4.0,4.0" />
<line x1="215.0" y1="35.0" x2="240.0" y2="35.0" stroke="#000000" stroke-linecap="square" stroke-width="4.0" />
<line x1="215.0" y1="45.0" x2="240.0" y2="45.0" stroke="#000000" stroke-linecap="square" stroke-width="4.0" />
<line x1="215.0" y1="70.0" x2="215.0" y2="45.0" stroke="#000000" stroke-linecap="square" stroke-width="4.0" />
<line x1="215.0" y1="105.0" x2="240.0" y2="105.0" stroke="#000000" stroke-linecap="square" stroke-width="4.0" />
<line x1="215.0" y1="140.0" x2="240.0" y2="140.0" stroke="#000000" stroke-linecap="square" stroke-width="4.0" />
<line x1="215.0" y1="175.0" x2="240.0" y2="175.0" stroke="#000000" stroke-linecap="square" stroke-width="4.0" />
<line x1="240.0" y1="5.0" x2="240.0" y2="180.0" stroke="#000000" stroke-linecap="square" stroke-width="1.0" stroke-dasharray="4.0,4.0" />
<line x1="240.0" y1="35.0" x2="265.0" y2="35.0" stroke="#000000" stroke-linecap="square" stroke-width="4.0" />
<line x1="240.0" y1="45.0" x2="265.0" y2="45.0" stroke="#000000" stroke-linecap="square" stroke-width="4.0" />
<line x1="240.0" y1="80.0" x2="265.0" y2="80.0" stroke="#000000" stroke-linecap="square" stroke-width="4.0" />
<line x1="240.0" y1="105.0" x2="240.0" y2="80.0" stroke="#000000" stroke-linecap="square" stroke-width="4.0" />
<line x1="240.0" y1="140.0" x2="265.0" y2="140.0" stroke="#000000" stroke-linecap="square" stroke-width="4.0" />
<line x1="240.0" y1="175.0" x2="265.0" y2="175.0" stroke="#000000" stroke-linecap="square" stroke-width="4.0" />
<line x1="265.0" y1="5.0" x2="265.0" y2="180.0" stroke="#000000" stroke-linecap="square" stroke-width="1.0" stroke-dasharray="4.0,4.0" />
<line x1="265.0" y1="35.0" x2="290.0" y2="35.0" stroke="#000000" stroke-linecap="square" stroke-width="4.0" />
<line x1="265.0" y1="70.0" x2="290.0" y2="70.0" stroke="#000000" stroke-linecap="square" stroke-width="4.0" />
<line x1="265.0" y1="45.0" x2="265.0" y2="70.0" stroke="#000000" stroke-linecap="square" stroke-width="4.0" />
<line x1="265.0" y1="80.0" x2="290.0" y2="80.0" stroke="#000000" stroke-linecap="square" stroke-width="4.0" />
<line x1="265.0" y1="140.0" x2="290.0" y2="140.0" stroke="#000000" stroke-linecap="square" stroke-width="4.0" />
<line x1="265.0" y1="175.0" x2="290.0" y2="175.0" stroke="#000000" stroke-linecap="square" stroke-width="4.0" />
<line x1="290.0" y1="5.0" x2="290.0" y2="180.0" stroke="#000000" stroke-linecap="square" stroke-width="1.0" stroke-dasharray="4.0,4.0" />
<line x1="290.0" y1="35.0" x2="315.0" y2="35.0" stroke="#000000" stroke-linecap="square" stroke-width="4.0" />
<line x1="290.0" y1="70.0" x2="315.0" y2="70.0" stroke="#000000" stroke-linecap="square" stroke-width="4.0" />
<line x1="290.0" y1="105.0" x2="315.0" y2="105.0" stroke="#000000" stroke-linecap="square" stroke-width="4.0" />
<line x1="290.0" y1="80.0" x2="290.0" y2="105.0" stroke="#000000" stroke-linecap="square" stroke-width="4.0" />
<line x1="290.0" y1="140.0" x2="315.0" y2="140.0" stroke="#000000" stroke-linecap="square" stroke-width="4.0" />
<line x1="290.0" y1="175.0" x2="315.0" y2="175.0" stroke="#000000" stroke-linecap="square" stroke-width="4.0" />
<line x1="315.0" y1="5.0" x2="315.0" y2="180.0" stroke="#000000" stroke-linecap="square" stroke-width="1.0" stroke-dasharray="4.0,4.0" />
<line x1="315.0" y1="10.0" x2="340.0" y2="10.0" stroke="#000000" stroke-linecap="square" stroke-width="4.0" />
<line x1="315.0" y1="35.0" x2="315.0" y2="10.0" stroke="#000000" stroke-linecap="square" stroke-width="4.0" />
<line x1="315.0" y1="70.0" x2="340.0" y2="70.0" stroke="#000000" stroke-linecap="square" stroke-width="4.0" />
<line x1="315.0" y1="105.0" x2="340.0" y2="105.0" stroke="#000000" stroke-linecap="square" stroke-width="4.0" />
<line x1="315.0" y1="140.0" x2="340.0" y2="140.0" stroke="#000000" stroke-linecap="square" stroke-width="4.0" />
<line x1="315.0" y1="175.0" x2="340.0" y2="175.0" stroke="#000000" stroke-linecap="square" stroke-width="4.0" />
<line x1="340.0" y1="5.0" x2="340.0" y2="180.0" stroke="#000000" stroke-linecap="square" stroke-width="1.0" stroke-dasharray="4.0,4.0" />
<line x1="340.0" y1="10.0" x2="365.0" y2="10.0" stroke="#000000" stroke-linecap="square" stroke-width="4.0" />
<line x1="340.0" y1="45.0" x2="365.0" y2="45.0" stroke="#000000" stroke-linecap="square" stroke-width="4.0" />
<line x1="340.0" y1="70.0" x2="340.0" y2="45.0" stroke="#000000" stroke-linecap="square" stroke-width="4.0" />
<line x1="340.0" y1="105.0" x2="365.0" y2="105.0" stroke="#000000" stroke-linecap="square" stroke-width="4.0" />
<line x1="340.0" y1="115.0" x2="365.0" y2="115.0" stroke="#000000" stroke-linecap="square" stroke-width="4.0" />
<line x1="340.0" y1="140.0" x2="340.0" y2="115.0" stroke="#000000" stroke-linecap="square" stroke-width="4.0" />
<line x1="340.0" y1="175.0" x2="365.0" y2="175.0" stroke="#000000" stroke-linecap="square" stroke-width="4.0" />
<line x1="365.0" y1="5.0" x2="365.0" y2="180.0" stroke="#000000" stroke-linecap="square" stroke-width="1.0" stroke-dasharray="4.0,4.0" />
<line x1="365.0" y1="10.0" x2="390.0" y2="10.0" stroke="#000000" stroke-linecap="square" stroke-width="4.0" />
<line x1="365.0" y1="70.0" x2="390.0" y2="70.0" stroke="#000000" stroke-linecap="square" stroke-width="4.0" />
<line x1="365.0" y1="45.0" x2="365.0" y2="70.0" stroke="#000000" stroke-linecap="square" stroke-width="4.0" />
<line x1="365.0" y1="105.0" x2="390.0" y2="105.0" stroke="#000000" stroke-linecap="square" stroke-width="4.0" />
<line x1="365.0" y1="140.0" x2="390.0" y2="140.0" stroke="#000000" stroke-linecap="square" stroke-width="4.0" />
<line x1="365.0" y1="115.0" x2="365.0" y2="140.0" stroke="#000000" stroke-linecap="square" stroke-width="4.0" />
<line x1="365.0" y1="175.0" x2="390.0" y2="175.0" stroke="#000000" stroke-linecap="square" stroke-width="4.0" />
<line x1="390.0" y1="5.0" x2="390.0" y2="180.0" stroke="#000000" stroke-linecap="square" stroke-width="1.0" stroke-dasharray="4.0,4.0" />
<line x1="390.0" y1="10.0" x2="415.0" y2="10.0" stroke="#000000" stroke-linecap="square" stroke-width="4.0" />
<line x1="390.0" y1="70.0" x2="415.0" y2="70.0" stroke="#000000" stroke-linecap="square" stroke-width="4.0" />
<line x1="390.0" y1="80.0" x2="415.0" y2="80.0" stroke="#000000" stroke-linecap="square" stroke-width="4.0" />
<line x1="390.0" y1="105.0" x2="390.0" y2="80.0" stroke="#000000" stroke-linecap="square" stroke-width="4.0" />
<line x1="390.0" y1="140.0" x2="415.0" y2="140.0" stroke="#000000" stroke-linecap="square" stroke-width="4.0" />
<line x1="390.0" y1="150.0" x2="415.0" y2="150.0" stroke="#000000" stroke-linecap="square" stroke-width="4.0" />
<line x1="390.0" y1="175.0" x2="390.0" y2="150.0" stroke="#000000" stroke-linecap="square" stroke-width="4.0" />
<line x1="415.0" y1="5.0" x2="415.0" y2="180.0" stroke="#000000" stroke-linecap="square" stroke-width="1.0" stroke-dasharray="4.0,4.0" />
<line x1="415.0" y1="10.0" x2="440.0" y2="10.0" stroke="#000000" stroke-linecap="square" stroke-width="4.0" />
<line x1="415.0" y1="70.0" x2="440.0" y2="70.0" stroke="#000000" stroke-linecap="square" stroke-width="4.0" />
<line x1="415.0" y1="105.0" x2="440.0" y2="105.0" stroke="#000000" stroke-linecap="square" stroke-width="4.0" />
<line x1="415.0" y1="80.0" x2="415.0" y2="105.0" stroke="#000000" stroke-linecap="square" stroke-width="4.0" />
<line x1="415.0" y1="140.0" x2="440.0" y2="140.0" stroke="#000000" stroke-linecap="square" stroke-width="4.0" />
<line x1="415.0" y1="175.0" x2="440.0" y2="175.0" stroke="#000000" stroke-linecap="square" stroke-width="4.0" />
<line x1="415.0" y1="150.0" x2="415.0" y2="175.0" stroke="#000000" stroke-linecap="square" stroke-width="4.0" />
<line x1="440.0" y1="5.0" x2="440.0" y2="180.0" stroke="#000000" stroke-linecap="square" stroke-width="1.0" stroke-dasharray="4.0,4.0" />
<line x1="440.0" y1="10.0" x2="465.0" y2="10.0" stroke="#000000" stroke-linecap="square" stroke-width="4.0" />
<line x1="440.0" y1="70.0" x2="465.0" y2="70.0" stroke="#000000" stroke-linecap="square" stroke-width="4.0" />
<line x1="440.0" y1="80.0" x2="465.0" y2="80.0" stroke="#000000" stroke-linecap="square" stroke-width="4.0" />
<line x1="440.0" y1="105.0" x2="440.0" y2="80.0" stroke="#000000" stroke-linecap="square" stroke-width="4.0" />
<line x1="440.0" y1="140.0" x2="465.0" y2="140.0" stroke="#000000" stroke-linecap="square" stroke-width="4.0" />
<line x1="440.0" y1="150.0" x2="465.0" y2="150.0" stroke="#000000" stroke-linecap="square" stroke-width="4.0" />
<line x1="440.0" y1="175.0" x2="440.0" y2="150.0" stroke="#000000" stroke-linecap="square" stroke-width="4.0" />
<line x1="465.0" y1="5.0" x2="465.0" y2="180.0" stroke="#000000" stroke-linecap="square" stroke-width="1.0" stroke-dasharray="4.0,4.0" />
<line x1="465.0" y1="10.0" x2="490.0" y2="10.0" stroke="#000000" stroke-linecap="square" stroke-width="4.0" />
<line x1="465.0" y1="70.0" x2="490.0" y2="70.0" stroke="#000000" stroke-linecap="square" stroke-width="4.0" />
<line x1="465.0" y1="105.0" x2="490.0" y2="105.0" stroke="#000000" stroke-linecap="square" stroke-width="4.0" />
<line x1="465.0" y1="80.0" x2="465.0" y2="105.0" stroke="#000000" stroke-linecap="square" stroke-width="4.0" />
<line x1="465.0" y1="140.0" x2="490.0" y2="140.0" stroke="#000000" stroke-linecap="square" stroke-width="4.0" />
<line x1="465.0" y1="175.0" x2="490.0" y2="175.0" stroke="#000000" stroke-linecap="square" stroke-width="4.0" />
<line x1="465.0" y1="150.0" x2="465.0" y2="175.0" stroke="#000000" stroke-linecap="square" stroke-width="4.0" />
<line x1="490.0" y1="5.0" x2="490.0" y2="180.0" stroke="#000000" stroke-linecap="square" stroke-width="1.0" stroke-dasharray="4.0,4.0" />
<line x1="490.0" y1="10.0" x2="515.0" y2="10.0" stroke="#000000" stroke-linecap="square" stroke-width="4.0" />
<line x1="490.0" y1="70.0" x2="515.0" y2="70.0" stroke="#000000" stroke-linecap="square" stroke-width="4.0" />
<line x1="490.0" y1="80.0" x2="515.0" y2="80.0" stroke="#000000" stroke-linecap="square" stroke-width="4.0" />
<line x1="490.0" y1="105.0" x2="490.0" y2="80.0" stroke="#000000" stroke-linecap="square" stroke-width="4.0" />
<line x1="490.0" y1="140.0" x2="515.0" y2="140.0" stroke="#000000" stroke-linecap="square" stroke-width="4.0" />
<line x1="490.0" y1="150.0" x2="515.0" y2="150.0" stroke="#000000" stroke-linecap="square" stroke-width="4.0" />
<line x1="490.0" y1="175.0" x2="490.0" y2="150.0" stroke="#000000" stroke-linecap="square" stroke-width="4.0" />
<line x1="515.0" y1="5.0" x2="515.0" y2="180.0" stroke="#000000" stroke-linecap="square" stroke-width="1.0" stroke-dasharray="4.0,4.0" />
<line x1="515.0" y1="10.0" x2="540.0" y2="10.0" stroke="#000000" stroke-linecap="square" stroke-width="4.0" />
<line x1="515.0" y1="45.0" x2="540.0" y2="45.0" stroke="#000000" stroke-linecap="square" stroke-width="4.0" />
<line x1="515.0" y1="70.0" x2="515.0" y2="45.0" stroke="#000000" stroke-linecap="square" stroke-width="4.0" />
<line x1="515.0" y1="80.0" x2="540.0" y2="80.0" stroke="#000000" stroke-linecap="square" stroke-width="4.0" />
<line x1="515.0" y1="115.0" x2="540.0" y2="115.0" stroke="#000000" stroke-linecap="square" stroke-width="4.0" />
<line x1="515.0" y1="140.0" x2="515.0" y2="115.0" stroke="#000000" stroke-linecap="square" stroke-width="4.0" />
<line x1="515.0" y1="150.0" x2="540.0" y2="150.0" stroke="#000000" stroke-linecap="square" stroke-width="4.0" />
<line x1="540.0" y1="5.0" x2="540.0" y2="180.0" stroke="#000000" stroke-linecap="square" stroke-width="1.0" stroke-dasharray="4.0,4.0" />
<line x1="540.0" y1="10.0" x2="565.0" y2="10.0" stroke="#000000" stroke-linecap="square" stroke-width="4.0" />
<line x1="540.0" y1="45.0" x2="565.0" y2="45.0" stroke="#000000" stroke-linecap="square" stroke-width="4.0" />
<line x1="540.0" y1="105.0" x2="565.0" y2="105.0" stroke="#000000" stroke-linecap="square" stroke-width="4.0" />
<line x1="540.0" y1="80.0" x2="540.0" y2="105.0" stroke="#000000" stroke-linecap="square" stroke-width="4.0" />
<line x1="540.0" y1="115.0" x2="565.0" y2="115.0" stroke="#000000" stroke-linecap="square" stroke-width="4.0" />
<line x1="540.0" y1="175.0" x2="565.0" y2="175.0" stroke="#000000" stroke-linecap="square" stroke-width="4.0" />
<line x1="540.0" y1="150.0" x2="540.0" y2="175.0" stroke="#000000" stroke-linecap="square" stroke-width="4.0" />
<line x1="565.0" y1="5.0" x2="565.0" y2="180.0" stroke="#000000" stroke-linecap="square" stroke-width="1.0" stroke-dasharray="4.0,4.0" />
<line x1="565.0" y1="10.0" x2="590.0" y2="10.0" stroke="#000000" stroke-linecap="square" stroke-width="4.0" />
<line x1="565.0" y1="45.0" x2="590.0" y2="45.0" stroke="#000000" stroke-linecap="square" stroke-width="4.0" />
<line x1="565.0" y1="80.0" x2="590.0" y2="80.0" stroke="#000000" stroke-linecap="square" stroke-width="4.0" />
<line x1="565.0" y1="105.0" x2="565.0" y2="80.0" stroke="#000000" stroke-linecap="square" stroke-width="4.0" />
<line x1="565.0" y1="115.0" x2="590.0" y2="115.0" stroke="#000000" stroke-linecap="square" stroke-width="4.0" />
<line x1="565.0" y1="150.0" x2="590.0" y2="150.0" stroke="#000000" stroke-linecap="square" stroke-width="4.0" />
<line x1="565.0" y1="175.0" x2="565.0" y2="150.0" stroke="#000000" stroke-linecap="square" stroke-width="4.0" />
<line x1="590.0" y1="5.0" x2="590.0" y2="180.0" stroke="#000000" stroke-linecap="square" stroke-width="1.0" stroke-dasharray="4.0,4.0" />
<line x1="590.0" y1="10.0" x2="615.0" y2="10.0" stroke="#000000" stroke-linecap="square" stroke-width="4.0" />
<line x1="590.0" y1="45.0" x2="615.0" y2="45.0" stroke="#000000" stroke-linecap="square" stroke-width="4.0" />
<line x1="590.0" y1="105.0" x2="615.0" y2="105.0" stroke="#000000" stroke-linecap="square" stroke-width="4.0" />
<line x1="590.0" y1="80.0" x2="590.0" y2="105.0" stroke="#000000" stroke-linecap="square" stroke-width="4.0" />
<line x1="590.0" y1="115.0" x2="615.0" y2="115.0" stroke="#000000" stroke-linecap="square" stroke-width="4.0" />
<line x1="590.0" y1="175.0" x2="615.0" y2="175.0" stroke="#000000" stroke-linecap="square" stroke-width="4.0" />
<line x1="590.0" y1="150.0" x2="590.0" y2="175.0" stroke="#000000" stroke-linecap="square" stroke-width="4.0" />
<line x1="615.0" y1="5.0" x2="615.0" y2="180.0" stroke="#000000" stroke-linecap="square" stroke-width="1.0" stroke-dasharray="4.0,4.0" />
<line x1="615.0" y1="10.0" x2="640.0" y2="10.0" stroke="#000000" stroke-linecap="square" stroke-width="4.0" />
<line x1="615.0" y1="70.0" x2="640.0" y2="70.0" stroke="#000000" stroke-linecap="square" stroke-width="4.0" />
<line x1="615.0" y1="45.0" x2="615.0" y2="70.0" stroke="#000000" stroke-linecap="square" stroke-width="4.0" />
<line x1="615.0" y1="105.0" x2="640.0" y2="105.0" stroke="#000000" stroke-linecap="square" stroke-width="4.0" />
<line x1="615.0" y1="140.0" x2="640.0" y2="140.0" stroke="#000000" stroke-linecap="square" stroke-width="4.0" />
<line x1="615.0" y1="115.0" x2="615.0" y2="140.0" stroke="#000000" stroke-linecap="square" stroke-width="4.0" />
<line x1="615.0" y1="175.0" x2="640.0" y2="175.0" stroke="#000000" stroke-linecap="square" stroke-width="4.0" />
<line x1="640.0" y1="5.0" x2="640.0" y2="180.0" stroke="#000000" stroke-linecap="square" stroke-width="1.0" stroke-dasharray="4.0,4.0" />
<line x1="640.0" y1="10.0" x2="665.0" y2="10.0" stroke="#000000" stroke-linecap="square" stroke-width="4.0" />
<line x1="640.0" y1="45.0" x2="665.0" y2="45.0" stroke="#000000" stroke-linecap="square" stroke-width="4.0" />
<line x1="640.0" y1="70.0" x2="640.0" y2="45.0" stroke="#000000" stroke-linecap="square" stroke-width="4.0" />
<line x1="640.0" y1="105.0" x2="665.0" y2="105.0" stroke="#000000" stroke-linecap="square" stroke-width="4.0" />
<line x1="640.0" y1="115.0" x2="665.0" y2="115.0" stroke="#000000" stroke-linecap="square" stroke-width="4.0" />
<line x1="640.0" y1="140.0" x2="640.0" y2="115.0" stroke="#000000" stroke-linecap="square" stroke-width="4.0" />
<line x1="640.0" y1="175.0" x2="665.0" y2="175.0" stroke="#000000" stroke-linecap="square" stroke-width="4.0" />
<line x1="665.0" y1="5.0" x2="665.0" y2="180.0" stroke="#000000" stroke-linecap="square" stroke-width="1.0" stroke-dasharray="4.0,4.0" />
<line x1="665.0" y1="35.0" x2="690.0" y2="35.0" stroke="#000000" stroke-linecap="square" stroke-width="4.0" />
<line x1="665.0" y1="10.0" x2="665.0" y2="35.0" stroke="#000000" stroke-linecap="square" stroke-width="4.0" />
<line x1="665.0" y1="45.0" x2="690.0" y2="45.0" stroke="#000000" stroke-linecap="square" stroke-width="4.0" />
<line x1="665.0" y1="105.0" x2="690.0" y2="105.0" stroke="#000000" stroke-linecap="square" stroke-width="4.0" />
<line x1="665.0" y1="115.0" x2="690.0" y2="115.0" stroke="#000000" stroke-linecap="square" stroke-width="4.0" />
<line x1="665.0" y1="175.0" x2="690.0" y2="175.0" stroke="#000000" stroke-linecap="square" stroke-width="4.0" />
<line x1="690.0" y1="5.0" x2="690.0" y2="180.0" stroke="#000000" stroke-linecap="square" stroke-width="1.0" stroke-dasharray="4.0,4.0" />
<line x1="690.0" y1="35.0" x2="715.0" y2="35.0" stroke="#000000" stroke-linecap="square" stroke-width="4.0" />
<line x1="690.0" y1="70.0" x2="715.0" y2="70.0" stroke="#000000" stroke-linecap="square" stroke-width="4.0" />
<line x1="690.0" y1="45.0" x2="690.0" y2="70.0" stroke="#000000" stroke-linecap="square" stroke-width="4.0" />
<line x1="690.0" y1="105.0" x2="715.0" y2="105.0" stroke="#000000" stroke-linecap="square" stroke-width="4.0" />
<line x1="690.0" y1="115.0" x2="715.0" y2="115.0" stroke="#000000" stroke-linecap="square" stroke-width="4.0" />
<line x1="690.0" y1="175.0" x2="715.0" y2="175.0" stroke="#000000" stroke-linecap="square" stroke-width="4.0" />
<line x1="715.0" y1="5.0" x2="715.0" y2="180.0" stroke="#000000" stroke-linecap="square" stroke-width="1.0" stroke-dasharray="4.0,4.0" />
<line x1="715.0" y1="35.0" x2="740.0" y2="35.0" stroke="#000000" stroke-linecap="square" stroke-width="4.0" />
<line x1="715.0" y1="45.0" x2="740.0" y2="45.0" stroke="#000000" stroke-linecap="square" stroke-width="4.0" />
<line x1="715.0" y1="70.0" x2="715.0" y2="45.0" stroke="#000000" stroke-linecap="square" stroke-width="4.0" />
<line x1="715.0" y1="105.0" x2="740.0" y2="105.0" stroke="#000000" stroke-linecap="square" stroke-width="4.0" />
<line x1="715.0" y1="115.0" x2="740.0" y2="115.0" stroke="#000000" stroke-linecap="square" stroke-width="4.0" />
<line x1="715.0" y1="175.0" x2="740.0" y2="175.0" stroke="#000000" stroke-linecap="square" stroke-width="4.0" />
<line x1="740.0" y1="5.0" x2="740.0" y2="180.0" stroke="#000000" stroke-linecap="square" stroke-width="1.0" stroke-dasharray="4.0,4.0" />
<line x1="740.0" y1="35.0" x2="765.0" y2="35.0" stroke="#000000" stroke-linecap="square" stroke-width="4.0" />
<line x1="740.0" y1="70.0" x2="765.0" y2="70.0" stroke="#000000" stroke-linecap="square" stroke-width="4.0" />
<line x1="740.0" y1="45.0" x2="740.0" y2="70.0" stroke="#000000" stroke-linecap="square" stroke-width="4.0" />
<line x1="740.0" y1="105.0" x2="765.0" y2="105.0" stroke="#000000" stroke-linecap="square" stroke-width="4.0" />
<line x1="740.0" y1="115.0" x2="765.0" y2="115.0" stroke="#000000" stroke-linecap="square" stroke-width="4.0" />
<line x1="740.0" y1="175.0" x2="765.0" y2="175.0" stroke="#000000" stroke-linecap="square" stroke-width="4.0" />
<line x1="765.0" y1="5.0" x2="765.0" y2="180.0" stroke="#000000" stroke-linecap="square" stroke-width="1.0" stroke-dasharray="4.0,4.0" />
<line x1="765.0" y1="35.0" x2="790.0" y2="35.0" stroke="#000000" stroke-linecap="square" stroke-width="4.0" />
<line x1="765.0" y1="45.0" x2="790.0" y2="45.0" stroke="#000000" stroke-linecap="square" stroke-width="4.0" />
<line x1="765.0" y1="70.0" x2="765.0" y2="45.0" stroke="#000000" stroke-linecap="square" stroke-width="4.0" />
<line x1="765.0" y1="105.0" x2="790.0" y2="105.0" stroke="#000000" stroke-linecap="square" stroke-width="4.0" />
<line x1="765.0" y1="115.0" x2="790.0" y2="115.0" stroke="#000000" stroke-linecap="square" stroke-width="4.0" />
<line x1="765.0" y1="175.0" x2="790.0" y2="175.0" stroke="#000000" stroke-linecap="square" stroke-width="4.0" />
<line x1="790.0" y1="5.0" x2="790.0" y2="180.0" stroke="#000000" stroke-linecap="square" stroke-width="1.0" stroke-dasharray="4.0,4.0" />
<line x1="790.0" y1="35.0" x2="815.0" y2="35.0" stroke="#000000" stroke-linecap="square" stroke-width="4.0" />
<line x1="790.0" y1="70.0" x2="815.0" y2="70.0" stroke="#000000" stroke-linecap="square" stroke-width="4.0" />
<line x1="790.0" y1="45.0" x2="790.0" y2="70.0" stroke="#000000" stroke-linecap="square" stroke-width="4.0" />
<line x1="790.0" y1="105.0" x2="815.0" y2="105.0" stroke="#000000" stroke-linecap="square" stroke-width="4.0" />
<line x1="790.0" y1="115.0" x2="815.0" y2="115.0" stroke="#000000" stroke-linecap="square" stroke-width="4.0" />
<line x1="790.0" y1="175.0" x2="815.0" y2="175.0" stroke="#000000" stroke-linecap="square" stroke-width="4.0" />
<line x1="815.0" y1="5.0" x2="815.0" y2="180.0" stroke="#000000" stroke-linecap="square" stroke-width="1.0" stroke-dasharray="4.0,4.0" />
<line x1="815.0" y1="10.0" x2="840.0" y2="10.0" stroke="#000000" stroke-linecap="square" stroke-width="4.0" />
<line x1="815.0" y1="35.0" x2="815.0" y2="10.0" stroke="#000000" stroke-linecap="square" stroke-width="4.0" />
<line x1="815.0" y1="70.0" x2="840.0" y2="70.0" stroke="#000000" stroke-linecap="square" stroke-width="4.0" />
<line x1="815.0" y1="105.0" x2="840.0" y2="105.0" stroke="#000000" stroke-linecap="square" stroke-width="4.0" />
<line x1="815.0" y1="140.0" x2="840.0" y2="140.0" stroke="#000000" stroke-linecap="square" stroke-width="4.0" />
<line x1="815.0" y1="115.0" x2="815.0" y2="140.0" stroke="#000000" stroke-linecap="square" stroke-width="4.0" />
<line x1="815.0" y1="175.0" x2="840.0" y2="175.0" stroke="#000000" stroke-linecap="square" stroke-width="4.0" />
<line x1="840.0" y1="5.0" x2="840.0" y2="180.0" stroke="#000000" stroke-linecap="square" stroke-width="1.0" stroke-dasharray="4.0,4.0" />
<line x1="840.0" y1="10.0" x2="865.0" y2="10.0" stroke="#000000" stroke-linecap="square" stroke-width="4.0" />
<line x1="840.0" y1="70.0" x2="865.0" y2="70.0" stroke="#000000" stroke-linecap="square" stroke-width="4.0" />
<line x1="840.0" y1="80.0" x2="865.0" y2="80.0" stroke="#000000" stroke-linecap="square" stroke-width="4.0" />
<line x1="840.0" y1="105.0" x2="840.0" y2="80.0" stroke="#000000" stroke-linecap="square" stroke-width="4.0" />
<line x1="840.0" y1="140.0" x2="865.0" y2="140.0" stroke="#000000" stroke-linecap="square" stroke-width="4.0" />
<line x1="840.0" y1="150.0" x2="865.0" y2="150.0" stroke="#000000" stroke-linecap="square" stroke-width="4.0" />
<line x1="840.0" y1="175.0" x2="840.0" y2="150.0" stroke="#000000" stroke-linecap="square" stroke-width="4.0" />
<line x1="865.0" y1="5.0" x2="865.0" y2="180.0" stroke="#000000" stroke-linecap="square" stroke-width="1.0" stroke-dasharray="4.0,4.0" />
<line x1="865.0" y1="35.0" x2="890.0" y2="35.0" stroke="#000000" stroke-linecap="square" stroke-width="4.0" />
<line x1="865.0" y1="10.0" x2="865.0" y2="35.0" stroke="#000000" stroke-linecap="square" stroke-width="4.0" />
<line x1="865.0" y1="70.0" x2="890.0" y2="70.0" stroke="#000000" stroke-linecap="square" stroke-width="4.0" />
<line x1="865.0" y1="80.0" x2="890.0" y2="80.0" stroke="#000000" stroke-linecap="square" stroke-width="4.0" />
<line x1="865.0" y1="140.0" x2="890.0" y2="140.0" stroke="#000000" stroke-linecap="square" stroke-width="4.0" />
<line x1="865.0" y1="150.0" x2="890.0" y2="150.0" stroke="#000000" stroke-linecap="square" stroke-width="4.0" />
<line x1="890.0" y1="5.0" x2="890.0" y2="180.0" stroke="#000000" stroke-linecap="square" stroke-width="1.0" stroke-dasharray="4.0,4.0" />
<line x1="890.0" y1="35.0" x2="915.0" y2="35.0" stroke="#000000" stroke-linecap="square" stroke-width="4.0" />
<line x1="890.0" y1="70.0" x2="915.0" y2="70.0" stroke="#000000" stroke-linecap="square" stroke-width="4.0" />
<line x1="890.0" y1="105.0" x2="915.0" y2="105.0" stroke="#000000" stroke-linecap="square" stroke-width="4.0" />
<line x1="890.0" y1="80.0" x2="890.0" y2="105.0" stroke="#000000" stroke-linecap="square" stroke-width="4.0" />
<line x1="890.0" y1="140.0" x2="915.0" y2="140.0" stroke="#000000" stroke-linecap="square" stroke-width="4.0" />
<line x1="890.0" y1="150.0" x2="915.0" y2="150.0" stroke="#000000" stroke-linecap="square" stroke-width="4.0" />
<line x1="924.0" y1="5.0" x2="924.0" y2="180.0" stroke="#000000" stroke-linecap="square" stroke-width="1.0" stroke-dasharray="4.0,4.0" />
</g>
</svg>