%TF.GenerationSoftware,KiCad,Pcbnew,5.1.7-a382d34a8~87~ubuntu20.04.1*%
%TF.CreationDate,2020-10-16T12:11:00-03:00*%
%TF.ProjectId,cronometro-conta-para-zera,63726f6e-6f6d-4657-9472-6f2d636f6e74,rev?*%
%TF.SameCoordinates,Original*%
%TF.FileFunction,Legend,Top*%
%TF.FilePolarity,Positive*%
%FSLAX46Y46*%
G04 Gerber Fmt 4.6, Leading zero omitted, Abs format (unit mm)*
G04 Created by KiCad (PCBNEW 5.1.7-a382d34a8~87~ubuntu20.04.1) date 2020-10-16 12:11:00*
%MOMM*%
%LPD*%
G01*
G04 APERTURE LIST*
%ADD10C,0.120000*%
%ADD11C,0.150000*%
G04 APERTURE END LIST*
D10*
%TO.C,U3*%
X220932000Y-30420000D02*
X219682000Y-30420000D01*
X219682000Y-30420000D02*
X219682000Y-50860000D01*
X219682000Y-50860000D02*
X224182000Y-50860000D01*
X224182000Y-50860000D02*
X224182000Y-30420000D01*
X224182000Y-30420000D02*
X222932000Y-30420000D01*
X216682000Y-30360000D02*
X216682000Y-50920000D01*
X216682000Y-50920000D02*
X227182000Y-50920000D01*
X227182000Y-50920000D02*
X227182000Y-30360000D01*
X227182000Y-30360000D02*
X216682000Y-30360000D01*
X222932000Y-30420000D02*
G75*
G02*
X220932000Y-30420000I-1000000J0D01*
G01*
D11*
%TO.C,U14*%
X174625000Y-84455000D02*
X167005000Y-84455000D01*
X167005000Y-84455000D02*
X167005000Y-97155000D01*
X167005000Y-97155000D02*
X174625000Y-97155000D01*
X174625000Y-97155000D02*
X174625000Y-84455000D01*
D10*
X166645000Y-85725000D02*
X166645000Y-84095000D01*
X166645000Y-84095000D02*
X168275000Y-84095000D01*
D11*
%TO.C,U13*%
X182880000Y-84455000D02*
X175260000Y-84455000D01*
X175260000Y-84455000D02*
X175260000Y-97155000D01*
X175260000Y-97155000D02*
X182880000Y-97155000D01*
X182880000Y-97155000D02*
X182880000Y-84455000D01*
D10*
X174900000Y-85725000D02*
X174900000Y-84095000D01*
X174900000Y-84095000D02*
X176530000Y-84095000D01*
D11*
%TO.C,U12*%
X191135000Y-84455000D02*
X183515000Y-84455000D01*
X183515000Y-84455000D02*
X183515000Y-97155000D01*
X183515000Y-97155000D02*
X191135000Y-97155000D01*
X191135000Y-97155000D02*
X191135000Y-84455000D01*
D10*
X183155000Y-85725000D02*
X183155000Y-84095000D01*
X183155000Y-84095000D02*
X184785000Y-84095000D01*
D11*
%TO.C,U11*%
X199390000Y-84455000D02*
X191770000Y-84455000D01*
X191770000Y-84455000D02*
X191770000Y-97155000D01*
X191770000Y-97155000D02*
X199390000Y-97155000D01*
X199390000Y-97155000D02*
X199390000Y-84455000D01*
D10*
X191410000Y-85725000D02*
X191410000Y-84095000D01*
X191410000Y-84095000D02*
X193040000Y-84095000D01*
%TO.C,U10*%
X149920000Y-61230000D02*
X149920000Y-59980000D01*
X149920000Y-59980000D02*
X129480000Y-59980000D01*
X129480000Y-59980000D02*
X129480000Y-64480000D01*
X129480000Y-64480000D02*
X149920000Y-64480000D01*
X149920000Y-64480000D02*
X149920000Y-63230000D01*
X149980000Y-56980000D02*
X129420000Y-56980000D01*
X129420000Y-56980000D02*
X129420000Y-67480000D01*
X129420000Y-67480000D02*
X149980000Y-67480000D01*
X149980000Y-67480000D02*
X149980000Y-56980000D01*
X149920000Y-63230000D02*
G75*
G02*
X149920000Y-61230000I0J1000000D01*
G01*
%TO.C,U9*%
X179765000Y-61230000D02*
X179765000Y-59980000D01*
X179765000Y-59980000D02*
X159325000Y-59980000D01*
X159325000Y-59980000D02*
X159325000Y-64480000D01*
X159325000Y-64480000D02*
X179765000Y-64480000D01*
X179765000Y-64480000D02*
X179765000Y-63230000D01*
X179825000Y-56980000D02*
X159265000Y-56980000D01*
X159265000Y-56980000D02*
X159265000Y-67480000D01*
X159265000Y-67480000D02*
X179825000Y-67480000D01*
X179825000Y-67480000D02*
X179825000Y-56980000D01*
X179765000Y-63230000D02*
G75*
G02*
X179765000Y-61230000I0J1000000D01*
G01*
%TO.C,U8*%
X208975000Y-61230000D02*
X208975000Y-59980000D01*
X208975000Y-59980000D02*
X188535000Y-59980000D01*
X188535000Y-59980000D02*
X188535000Y-64480000D01*
X188535000Y-64480000D02*
X208975000Y-64480000D01*
X208975000Y-64480000D02*
X208975000Y-63230000D01*
X209035000Y-56980000D02*
X188475000Y-56980000D01*
X188475000Y-56980000D02*
X188475000Y-67480000D01*
X188475000Y-67480000D02*
X209035000Y-67480000D01*
X209035000Y-67480000D02*
X209035000Y-56980000D01*
X208975000Y-63230000D02*
G75*
G02*
X208975000Y-61230000I0J1000000D01*
G01*
%TO.C,U7*%
X238820000Y-61230000D02*
X238820000Y-59980000D01*
X238820000Y-59980000D02*
X218380000Y-59980000D01*
X218380000Y-59980000D02*
X218380000Y-64480000D01*
X218380000Y-64480000D02*
X238820000Y-64480000D01*
X238820000Y-64480000D02*
X238820000Y-63230000D01*
X238880000Y-56980000D02*
X218320000Y-56980000D01*
X218320000Y-56980000D02*
X218320000Y-67480000D01*
X218320000Y-67480000D02*
X238880000Y-67480000D01*
X238880000Y-67480000D02*
X238880000Y-56980000D01*
X238820000Y-63230000D02*
G75*
G02*
X238820000Y-61230000I0J1000000D01*
G01*
%TO.C,U6*%
X205375000Y-31690000D02*
X204125000Y-31690000D01*
X204125000Y-31690000D02*
X204125000Y-49590000D01*
X204125000Y-49590000D02*
X208625000Y-49590000D01*
X208625000Y-49590000D02*
X208625000Y-31690000D01*
X208625000Y-31690000D02*
X207375000Y-31690000D01*
X201125000Y-31630000D02*
X201125000Y-49650000D01*
X201125000Y-49650000D02*
X211625000Y-49650000D01*
X211625000Y-49650000D02*
X211625000Y-31630000D01*
X211625000Y-31630000D02*
X201125000Y-31630000D01*
X207375000Y-31690000D02*
G75*
G02*
X205375000Y-31690000I-1000000J0D01*
G01*
%TO.C,U5*%
X189817000Y-31690000D02*
X188567000Y-31690000D01*
X188567000Y-31690000D02*
X188567000Y-49590000D01*
X188567000Y-49590000D02*
X193067000Y-49590000D01*
X193067000Y-49590000D02*
X193067000Y-31690000D01*
X193067000Y-31690000D02*
X191817000Y-31690000D01*
X185567000Y-31630000D02*
X185567000Y-49650000D01*
X185567000Y-49650000D02*
X196067000Y-49650000D01*
X196067000Y-49650000D02*
X196067000Y-31630000D01*
X196067000Y-31630000D02*
X185567000Y-31630000D01*
X191817000Y-31690000D02*
G75*
G02*
X189817000Y-31690000I-1000000J0D01*
G01*
%TO.C,U4*%
X174260000Y-31690000D02*
X173010000Y-31690000D01*
X173010000Y-31690000D02*
X173010000Y-49590000D01*
X173010000Y-49590000D02*
X177510000Y-49590000D01*
X177510000Y-49590000D02*
X177510000Y-31690000D01*
X177510000Y-31690000D02*
X176260000Y-31690000D01*
X170010000Y-31630000D02*
X170010000Y-49650000D01*
X170010000Y-49650000D02*
X180510000Y-49650000D01*
X180510000Y-49650000D02*
X180510000Y-31630000D01*
X180510000Y-31630000D02*
X170010000Y-31630000D01*
X176260000Y-31690000D02*
G75*
G02*
X174260000Y-31690000I-1000000J0D01*
G01*
%TO.C,U2*%
X236490000Y-30420000D02*
X235240000Y-30420000D01*
X235240000Y-30420000D02*
X235240000Y-50860000D01*
X235240000Y-50860000D02*
X239740000Y-50860000D01*
X239740000Y-50860000D02*
X239740000Y-30420000D01*
X239740000Y-30420000D02*
X238490000Y-30420000D01*
X232240000Y-30360000D02*
X232240000Y-50920000D01*
X232240000Y-50920000D02*
X242740000Y-50920000D01*
X242740000Y-50920000D02*
X242740000Y-30360000D01*
X242740000Y-30360000D02*
X232240000Y-30360000D01*
X238490000Y-30420000D02*
G75*
G02*
X236490000Y-30420000I-1000000J0D01*
G01*
%TO.C,U1*%
X160080000Y-38370000D02*
X160080000Y-37120000D01*
X160080000Y-37120000D02*
X149800000Y-37120000D01*
X149800000Y-37120000D02*
X149800000Y-41620000D01*
X149800000Y-41620000D02*
X160080000Y-41620000D01*
X160080000Y-41620000D02*
X160080000Y-40370000D01*
X160140000Y-34120000D02*
X149740000Y-34120000D01*
X149740000Y-34120000D02*
X149740000Y-44620000D01*
X149740000Y-44620000D02*
X160140000Y-44620000D01*
X160140000Y-44620000D02*
X160140000Y-34120000D01*
X160080000Y-40370000D02*
G75*
G02*
X160080000Y-38370000I0J1000000D01*
G01*
%TO.C,SW2*%
X188960000Y-107735000D02*
X193460000Y-107735000D01*
X187710000Y-103735000D02*
X187710000Y-105235000D01*
X193460000Y-101235000D02*
X188960000Y-101235000D01*
X194710000Y-105235000D02*
X194710000Y-103735000D01*
%TO.C,SW1*%
X172450000Y-107735000D02*
X176950000Y-107735000D01*
X171200000Y-103735000D02*
X171200000Y-105235000D01*
X176950000Y-101235000D02*
X172450000Y-101235000D01*
X178200000Y-105235000D02*
X178200000Y-103735000D01*
%TO.C,R34*%
X142590000Y-75580000D02*
X144430000Y-75580000D01*
X144430000Y-75580000D02*
X144430000Y-71740000D01*
X144430000Y-71740000D02*
X142590000Y-71740000D01*
X142590000Y-71740000D02*
X142590000Y-75580000D01*
X143510000Y-76530000D02*
X143510000Y-75580000D01*
X143510000Y-70790000D02*
X143510000Y-71740000D01*
%TO.C,R33*%
X145130000Y-75580000D02*
X146970000Y-75580000D01*
X146970000Y-75580000D02*
X146970000Y-71740000D01*
X146970000Y-71740000D02*
X145130000Y-71740000D01*
X145130000Y-71740000D02*
X145130000Y-75580000D01*
X146050000Y-76530000D02*
X146050000Y-75580000D01*
X146050000Y-70790000D02*
X146050000Y-71740000D01*
%TO.C,R32*%
X129890000Y-75580000D02*
X131730000Y-75580000D01*
X131730000Y-75580000D02*
X131730000Y-71740000D01*
X131730000Y-71740000D02*
X129890000Y-71740000D01*
X129890000Y-71740000D02*
X129890000Y-75580000D01*
X130810000Y-76530000D02*
X130810000Y-75580000D01*
X130810000Y-70790000D02*
X130810000Y-71740000D01*
%TO.C,R31*%
X132430000Y-75580000D02*
X134270000Y-75580000D01*
X134270000Y-75580000D02*
X134270000Y-71740000D01*
X134270000Y-71740000D02*
X132430000Y-71740000D01*
X132430000Y-71740000D02*
X132430000Y-75580000D01*
X133350000Y-76530000D02*
X133350000Y-75580000D01*
X133350000Y-70790000D02*
X133350000Y-71740000D01*
%TO.C,R30*%
X134970000Y-75580000D02*
X136810000Y-75580000D01*
X136810000Y-75580000D02*
X136810000Y-71740000D01*
X136810000Y-71740000D02*
X134970000Y-71740000D01*
X134970000Y-71740000D02*
X134970000Y-75580000D01*
X135890000Y-76530000D02*
X135890000Y-75580000D01*
X135890000Y-70790000D02*
X135890000Y-71740000D01*
%TO.C,R29*%
X137510000Y-75580000D02*
X139350000Y-75580000D01*
X139350000Y-75580000D02*
X139350000Y-71740000D01*
X139350000Y-71740000D02*
X137510000Y-71740000D01*
X137510000Y-71740000D02*
X137510000Y-75580000D01*
X138430000Y-76530000D02*
X138430000Y-75580000D01*
X138430000Y-70790000D02*
X138430000Y-71740000D01*
%TO.C,R28*%
X140050000Y-75580000D02*
X141890000Y-75580000D01*
X141890000Y-75580000D02*
X141890000Y-71740000D01*
X141890000Y-71740000D02*
X140050000Y-71740000D01*
X140050000Y-71740000D02*
X140050000Y-75580000D01*
X140970000Y-76530000D02*
X140970000Y-75580000D01*
X140970000Y-70790000D02*
X140970000Y-71740000D01*
%TO.C,R27*%
X172435000Y-75580000D02*
X174275000Y-75580000D01*
X174275000Y-75580000D02*
X174275000Y-71740000D01*
X174275000Y-71740000D02*
X172435000Y-71740000D01*
X172435000Y-71740000D02*
X172435000Y-75580000D01*
X173355000Y-76530000D02*
X173355000Y-75580000D01*
X173355000Y-70790000D02*
X173355000Y-71740000D01*
%TO.C,R26*%
X174975000Y-75580000D02*
X176815000Y-75580000D01*
X176815000Y-75580000D02*
X176815000Y-71740000D01*
X176815000Y-71740000D02*
X174975000Y-71740000D01*
X174975000Y-71740000D02*
X174975000Y-75580000D01*
X175895000Y-76530000D02*
X175895000Y-75580000D01*
X175895000Y-70790000D02*
X175895000Y-71740000D01*
%TO.C,R25*%
X159735000Y-75580000D02*
X161575000Y-75580000D01*
X161575000Y-75580000D02*
X161575000Y-71740000D01*
X161575000Y-71740000D02*
X159735000Y-71740000D01*
X159735000Y-71740000D02*
X159735000Y-75580000D01*
X160655000Y-76530000D02*
X160655000Y-75580000D01*
X160655000Y-70790000D02*
X160655000Y-71740000D01*
%TO.C,R24*%
X162275000Y-75580000D02*
X164115000Y-75580000D01*
X164115000Y-75580000D02*
X164115000Y-71740000D01*
X164115000Y-71740000D02*
X162275000Y-71740000D01*
X162275000Y-71740000D02*
X162275000Y-75580000D01*
X163195000Y-76530000D02*
X163195000Y-75580000D01*
X163195000Y-70790000D02*
X163195000Y-71740000D01*
%TO.C,R23*%
X164815000Y-75580000D02*
X166655000Y-75580000D01*
X166655000Y-75580000D02*
X166655000Y-71740000D01*
X166655000Y-71740000D02*
X164815000Y-71740000D01*
X164815000Y-71740000D02*
X164815000Y-75580000D01*
X165735000Y-76530000D02*
X165735000Y-75580000D01*
X165735000Y-70790000D02*
X165735000Y-71740000D01*
%TO.C,R22*%
X167355000Y-75580000D02*
X169195000Y-75580000D01*
X169195000Y-75580000D02*
X169195000Y-71740000D01*
X169195000Y-71740000D02*
X167355000Y-71740000D01*
X167355000Y-71740000D02*
X167355000Y-75580000D01*
X168275000Y-76530000D02*
X168275000Y-75580000D01*
X168275000Y-70790000D02*
X168275000Y-71740000D01*
%TO.C,R21*%
X169895000Y-75580000D02*
X171735000Y-75580000D01*
X171735000Y-75580000D02*
X171735000Y-71740000D01*
X171735000Y-71740000D02*
X169895000Y-71740000D01*
X169895000Y-71740000D02*
X169895000Y-75580000D01*
X170815000Y-76530000D02*
X170815000Y-75580000D01*
X170815000Y-70790000D02*
X170815000Y-71740000D01*
%TO.C,R20*%
X201645000Y-75580000D02*
X203485000Y-75580000D01*
X203485000Y-75580000D02*
X203485000Y-71740000D01*
X203485000Y-71740000D02*
X201645000Y-71740000D01*
X201645000Y-71740000D02*
X201645000Y-75580000D01*
X202565000Y-76530000D02*
X202565000Y-75580000D01*
X202565000Y-70790000D02*
X202565000Y-71740000D01*
%TO.C,R19*%
X204185000Y-75580000D02*
X206025000Y-75580000D01*
X206025000Y-75580000D02*
X206025000Y-71740000D01*
X206025000Y-71740000D02*
X204185000Y-71740000D01*
X204185000Y-71740000D02*
X204185000Y-75580000D01*
X205105000Y-76530000D02*
X205105000Y-75580000D01*
X205105000Y-70790000D02*
X205105000Y-71740000D01*
%TO.C,R18*%
X188945000Y-75580000D02*
X190785000Y-75580000D01*
X190785000Y-75580000D02*
X190785000Y-71740000D01*
X190785000Y-71740000D02*
X188945000Y-71740000D01*
X188945000Y-71740000D02*
X188945000Y-75580000D01*
X189865000Y-76530000D02*
X189865000Y-75580000D01*
X189865000Y-70790000D02*
X189865000Y-71740000D01*
%TO.C,R17*%
X191485000Y-75580000D02*
X193325000Y-75580000D01*
X193325000Y-75580000D02*
X193325000Y-71740000D01*
X193325000Y-71740000D02*
X191485000Y-71740000D01*
X191485000Y-71740000D02*
X191485000Y-75580000D01*
X192405000Y-76530000D02*
X192405000Y-75580000D01*
X192405000Y-70790000D02*
X192405000Y-71740000D01*
%TO.C,R16*%
X194025000Y-75580000D02*
X195865000Y-75580000D01*
X195865000Y-75580000D02*
X195865000Y-71740000D01*
X195865000Y-71740000D02*
X194025000Y-71740000D01*
X194025000Y-71740000D02*
X194025000Y-75580000D01*
X194945000Y-76530000D02*
X194945000Y-75580000D01*
X194945000Y-70790000D02*
X194945000Y-71740000D01*
%TO.C,R15*%
X196565000Y-75580000D02*
X198405000Y-75580000D01*
X198405000Y-75580000D02*
X198405000Y-71740000D01*
X198405000Y-71740000D02*
X196565000Y-71740000D01*
X196565000Y-71740000D02*
X196565000Y-75580000D01*
X197485000Y-76530000D02*
X197485000Y-75580000D01*
X197485000Y-70790000D02*
X197485000Y-71740000D01*
%TO.C,R14*%
X199105000Y-75580000D02*
X200945000Y-75580000D01*
X200945000Y-75580000D02*
X200945000Y-71740000D01*
X200945000Y-71740000D02*
X199105000Y-71740000D01*
X199105000Y-71740000D02*
X199105000Y-75580000D01*
X200025000Y-76530000D02*
X200025000Y-75580000D01*
X200025000Y-70790000D02*
X200025000Y-71740000D01*
%TO.C,R13*%
X231490000Y-75580000D02*
X233330000Y-75580000D01*
X233330000Y-75580000D02*
X233330000Y-71740000D01*
X233330000Y-71740000D02*
X231490000Y-71740000D01*
X231490000Y-71740000D02*
X231490000Y-75580000D01*
X232410000Y-76530000D02*
X232410000Y-75580000D01*
X232410000Y-70790000D02*
X232410000Y-71740000D01*
%TO.C,R12*%
X234030000Y-75580000D02*
X235870000Y-75580000D01*
X235870000Y-75580000D02*
X235870000Y-71740000D01*
X235870000Y-71740000D02*
X234030000Y-71740000D01*
X234030000Y-71740000D02*
X234030000Y-75580000D01*
X234950000Y-76530000D02*
X234950000Y-75580000D01*
X234950000Y-70790000D02*
X234950000Y-71740000D01*
%TO.C,R11*%
X218790000Y-75580000D02*
X220630000Y-75580000D01*
X220630000Y-75580000D02*
X220630000Y-71740000D01*
X220630000Y-71740000D02*
X218790000Y-71740000D01*
X218790000Y-71740000D02*
X218790000Y-75580000D01*
X219710000Y-76530000D02*
X219710000Y-75580000D01*
X219710000Y-70790000D02*
X219710000Y-71740000D01*
%TO.C,R10*%
X221330000Y-75580000D02*
X223170000Y-75580000D01*
X223170000Y-75580000D02*
X223170000Y-71740000D01*
X223170000Y-71740000D02*
X221330000Y-71740000D01*
X221330000Y-71740000D02*
X221330000Y-75580000D01*
X222250000Y-76530000D02*
X222250000Y-75580000D01*
X222250000Y-70790000D02*
X222250000Y-71740000D01*
%TO.C,R9*%
X223870000Y-75580000D02*
X225710000Y-75580000D01*
X225710000Y-75580000D02*
X225710000Y-71740000D01*
X225710000Y-71740000D02*
X223870000Y-71740000D01*
X223870000Y-71740000D02*
X223870000Y-75580000D01*
X224790000Y-76530000D02*
X224790000Y-75580000D01*
X224790000Y-70790000D02*
X224790000Y-71740000D01*
%TO.C,R8*%
X226410000Y-75580000D02*
X228250000Y-75580000D01*
X228250000Y-75580000D02*
X228250000Y-71740000D01*
X228250000Y-71740000D02*
X226410000Y-71740000D01*
X226410000Y-71740000D02*
X226410000Y-75580000D01*
X227330000Y-76530000D02*
X227330000Y-75580000D01*
X227330000Y-70790000D02*
X227330000Y-71740000D01*
%TO.C,R7*%
X228950000Y-75580000D02*
X230790000Y-75580000D01*
X230790000Y-75580000D02*
X230790000Y-71740000D01*
X230790000Y-71740000D02*
X228950000Y-71740000D01*
X228950000Y-71740000D02*
X228950000Y-75580000D01*
X229870000Y-76530000D02*
X229870000Y-75580000D01*
X229870000Y-70790000D02*
X229870000Y-71740000D01*
%TO.C,R6*%
X181960000Y-75580000D02*
X183800000Y-75580000D01*
X183800000Y-75580000D02*
X183800000Y-71740000D01*
X183800000Y-71740000D02*
X181960000Y-71740000D01*
X181960000Y-71740000D02*
X181960000Y-75580000D01*
X182880000Y-76530000D02*
X182880000Y-75580000D01*
X182880000Y-70790000D02*
X182880000Y-71740000D01*
%TO.C,R5*%
X153320000Y-89865000D02*
X151480000Y-89865000D01*
X151480000Y-89865000D02*
X151480000Y-93705000D01*
X151480000Y-93705000D02*
X153320000Y-93705000D01*
X153320000Y-93705000D02*
X153320000Y-89865000D01*
X152400000Y-88915000D02*
X152400000Y-89865000D01*
X152400000Y-94655000D02*
X152400000Y-93705000D01*
%TO.C,R4*%
X214915000Y-89865000D02*
X213075000Y-89865000D01*
X213075000Y-89865000D02*
X213075000Y-93705000D01*
X213075000Y-93705000D02*
X214915000Y-93705000D01*
X214915000Y-93705000D02*
X214915000Y-89865000D01*
X213995000Y-88915000D02*
X213995000Y-89865000D01*
X213995000Y-94655000D02*
X213995000Y-93705000D01*
%TO.C,R2*%
X152415000Y-48545000D02*
X152415000Y-46705000D01*
X152415000Y-46705000D02*
X148575000Y-46705000D01*
X148575000Y-46705000D02*
X148575000Y-48545000D01*
X148575000Y-48545000D02*
X152415000Y-48545000D01*
X153365000Y-47625000D02*
X152415000Y-47625000D01*
X147625000Y-47625000D02*
X148575000Y-47625000D01*
%TO.C,R1*%
X163845000Y-48545000D02*
X163845000Y-46705000D01*
X163845000Y-46705000D02*
X160005000Y-46705000D01*
X160005000Y-46705000D02*
X160005000Y-48545000D01*
X160005000Y-48545000D02*
X163845000Y-48545000D01*
X164795000Y-47625000D02*
X163845000Y-47625000D01*
X159055000Y-47625000D02*
X160005000Y-47625000D01*
%TO.C,J1*%
X134750000Y-35530000D02*
X140810000Y-35530000D01*
X140810000Y-35530000D02*
X140810000Y-38340000D01*
X140810000Y-42940000D02*
X140810000Y-45750000D01*
X140810000Y-45750000D02*
X134750000Y-45750000D01*
X130650000Y-45750000D02*
X127590000Y-45750000D01*
X127590000Y-45750000D02*
X127590000Y-35530000D01*
X127590000Y-35530000D02*
X130650000Y-35530000D01*
X141000000Y-39640000D02*
X141000000Y-41640000D01*
%TO.C,C15*%
X208015000Y-29060000D02*
X204775000Y-29060000D01*
X208015000Y-26820000D02*
X204775000Y-26820000D01*
X208015000Y-29060000D02*
X208015000Y-28995000D01*
X208015000Y-26885000D02*
X208015000Y-26820000D01*
X204775000Y-29060000D02*
X204775000Y-28995000D01*
X204775000Y-26885000D02*
X204775000Y-26820000D01*
%TO.C,C14*%
X151280000Y-63870000D02*
X151280000Y-60630000D01*
X153520000Y-63870000D02*
X153520000Y-60630000D01*
X151280000Y-63870000D02*
X151345000Y-63870000D01*
X153455000Y-63870000D02*
X153520000Y-63870000D01*
X151280000Y-60630000D02*
X151345000Y-60630000D01*
X153455000Y-60630000D02*
X153520000Y-60630000D01*
%TO.C,C13*%
X181125000Y-63870000D02*
X181125000Y-60630000D01*
X183365000Y-63870000D02*
X183365000Y-60630000D01*
X181125000Y-63870000D02*
X181190000Y-63870000D01*
X183300000Y-63870000D02*
X183365000Y-63870000D01*
X181125000Y-60630000D02*
X181190000Y-60630000D01*
X183300000Y-60630000D02*
X183365000Y-60630000D01*
%TO.C,C12*%
X210335000Y-63870000D02*
X210335000Y-60630000D01*
X212575000Y-63870000D02*
X212575000Y-60630000D01*
X210335000Y-63870000D02*
X210400000Y-63870000D01*
X212510000Y-63870000D02*
X212575000Y-63870000D01*
X210335000Y-60630000D02*
X210400000Y-60630000D01*
X212510000Y-60630000D02*
X212575000Y-60630000D01*
%TO.C,C11*%
X240180000Y-63870000D02*
X240180000Y-60630000D01*
X242420000Y-63870000D02*
X242420000Y-60630000D01*
X240180000Y-63870000D02*
X240245000Y-63870000D01*
X242355000Y-63870000D02*
X242420000Y-63870000D01*
X240180000Y-60630000D02*
X240245000Y-60630000D01*
X242355000Y-60630000D02*
X242420000Y-60630000D01*
%TO.C,C10*%
X176900000Y-29060000D02*
X173660000Y-29060000D01*
X176900000Y-26820000D02*
X173660000Y-26820000D01*
X176900000Y-29060000D02*
X176900000Y-28995000D01*
X176900000Y-26885000D02*
X176900000Y-26820000D01*
X173660000Y-29060000D02*
X173660000Y-28995000D01*
X173660000Y-26885000D02*
X173660000Y-26820000D01*
%TO.C,C9*%
X192458000Y-29060000D02*
X189218000Y-29060000D01*
X192458000Y-26820000D02*
X189218000Y-26820000D01*
X192458000Y-29060000D02*
X192458000Y-28995000D01*
X192458000Y-26885000D02*
X192458000Y-26820000D01*
X189218000Y-29060000D02*
X189218000Y-28995000D01*
X189218000Y-26885000D02*
X189218000Y-26820000D01*
%TO.C,C8*%
X223572000Y-29060000D02*
X220332000Y-29060000D01*
X223572000Y-26820000D02*
X220332000Y-26820000D01*
X223572000Y-29060000D02*
X223572000Y-28995000D01*
X223572000Y-26885000D02*
X223572000Y-26820000D01*
X220332000Y-29060000D02*
X220332000Y-28995000D01*
X220332000Y-26885000D02*
X220332000Y-26820000D01*
%TO.C,C7*%
X239130000Y-29060000D02*
X235890000Y-29060000D01*
X239130000Y-26820000D02*
X235890000Y-26820000D01*
X239130000Y-29060000D02*
X239130000Y-28995000D01*
X239130000Y-26885000D02*
X239130000Y-26820000D01*
X235890000Y-29060000D02*
X235890000Y-28995000D01*
X235890000Y-26885000D02*
X235890000Y-26820000D01*
%TO.C,C6*%
X166430000Y-36195000D02*
G75*
G03*
X166430000Y-36195000I-2620000J0D01*
G01*
X163810000Y-33615000D02*
X163810000Y-38775000D01*
X163850000Y-33615000D02*
X163850000Y-38775000D01*
X163890000Y-33616000D02*
X163890000Y-38774000D01*
X163930000Y-33617000D02*
X163930000Y-38773000D01*
X163970000Y-33619000D02*
X163970000Y-38771000D01*
X164010000Y-33622000D02*
X164010000Y-38768000D01*
X164050000Y-33626000D02*
X164050000Y-35155000D01*
X164050000Y-37235000D02*
X164050000Y-38764000D01*
X164090000Y-33630000D02*
X164090000Y-35155000D01*
X164090000Y-37235000D02*
X164090000Y-38760000D01*
X164130000Y-33634000D02*
X164130000Y-35155000D01*
X164130000Y-37235000D02*
X164130000Y-38756000D01*
X164170000Y-33639000D02*
X164170000Y-35155000D01*
X164170000Y-37235000D02*
X164170000Y-38751000D01*
X164210000Y-33645000D02*
X164210000Y-35155000D01*
X164210000Y-37235000D02*
X164210000Y-38745000D01*
X164250000Y-33652000D02*
X164250000Y-35155000D01*
X164250000Y-37235000D02*
X164250000Y-38738000D01*
X164290000Y-33659000D02*
X164290000Y-35155000D01*
X164290000Y-37235000D02*
X164290000Y-38731000D01*
X164330000Y-33667000D02*
X164330000Y-35155000D01*
X164330000Y-37235000D02*
X164330000Y-38723000D01*
X164370000Y-33675000D02*
X164370000Y-35155000D01*
X164370000Y-37235000D02*
X164370000Y-38715000D01*
X164410000Y-33684000D02*
X164410000Y-35155000D01*
X164410000Y-37235000D02*
X164410000Y-38706000D01*
X164450000Y-33694000D02*
X164450000Y-35155000D01*
X164450000Y-37235000D02*
X164450000Y-38696000D01*
X164490000Y-33704000D02*
X164490000Y-35155000D01*
X164490000Y-37235000D02*
X164490000Y-38686000D01*
X164531000Y-33715000D02*
X164531000Y-35155000D01*
X164531000Y-37235000D02*
X164531000Y-38675000D01*
X164571000Y-33727000D02*
X164571000Y-35155000D01*
X164571000Y-37235000D02*
X164571000Y-38663000D01*
X164611000Y-33740000D02*
X164611000Y-35155000D01*
X164611000Y-37235000D02*
X164611000Y-38650000D01*
X164651000Y-33753000D02*
X164651000Y-35155000D01*
X164651000Y-37235000D02*
X164651000Y-38637000D01*
X164691000Y-33767000D02*
X164691000Y-35155000D01*
X164691000Y-37235000D02*
X164691000Y-38623000D01*
X164731000Y-33781000D02*
X164731000Y-35155000D01*
X164731000Y-37235000D02*
X164731000Y-38609000D01*
X164771000Y-33797000D02*
X164771000Y-35155000D01*
X164771000Y-37235000D02*
X164771000Y-38593000D01*
X164811000Y-33813000D02*
X164811000Y-35155000D01*
X164811000Y-37235000D02*
X164811000Y-38577000D01*
X164851000Y-33830000D02*
X164851000Y-35155000D01*
X164851000Y-37235000D02*
X164851000Y-38560000D01*
X164891000Y-33847000D02*
X164891000Y-35155000D01*
X164891000Y-37235000D02*
X164891000Y-38543000D01*
X164931000Y-33866000D02*
X164931000Y-35155000D01*
X164931000Y-37235000D02*
X164931000Y-38524000D01*
X164971000Y-33885000D02*
X164971000Y-35155000D01*
X164971000Y-37235000D02*
X164971000Y-38505000D01*
X165011000Y-33905000D02*
X165011000Y-35155000D01*
X165011000Y-37235000D02*
X165011000Y-38485000D01*
X165051000Y-33927000D02*
X165051000Y-35155000D01*
X165051000Y-37235000D02*
X165051000Y-38463000D01*
X165091000Y-33948000D02*
X165091000Y-35155000D01*
X165091000Y-37235000D02*
X165091000Y-38442000D01*
X165131000Y-33971000D02*
X165131000Y-35155000D01*
X165131000Y-37235000D02*
X165131000Y-38419000D01*
X165171000Y-33995000D02*
X165171000Y-35155000D01*
X165171000Y-37235000D02*
X165171000Y-38395000D01*
X165211000Y-34020000D02*
X165211000Y-35155000D01*
X165211000Y-37235000D02*
X165211000Y-38370000D01*
X165251000Y-34046000D02*
X165251000Y-35155000D01*
X165251000Y-37235000D02*
X165251000Y-38344000D01*
X165291000Y-34073000D02*
X165291000Y-35155000D01*
X165291000Y-37235000D02*
X165291000Y-38317000D01*
X165331000Y-34100000D02*
X165331000Y-35155000D01*
X165331000Y-37235000D02*
X165331000Y-38290000D01*
X165371000Y-34130000D02*
X165371000Y-35155000D01*
X165371000Y-37235000D02*
X165371000Y-38260000D01*
X165411000Y-34160000D02*
X165411000Y-35155000D01*
X165411000Y-37235000D02*
X165411000Y-38230000D01*
X165451000Y-34191000D02*
X165451000Y-35155000D01*
X165451000Y-37235000D02*
X165451000Y-38199000D01*
X165491000Y-34224000D02*
X165491000Y-35155000D01*
X165491000Y-37235000D02*
X165491000Y-38166000D01*
X165531000Y-34258000D02*
X165531000Y-35155000D01*
X165531000Y-37235000D02*
X165531000Y-38132000D01*
X165571000Y-34294000D02*
X165571000Y-35155000D01*
X165571000Y-37235000D02*
X165571000Y-38096000D01*
X165611000Y-34331000D02*
X165611000Y-35155000D01*
X165611000Y-37235000D02*
X165611000Y-38059000D01*
X165651000Y-34369000D02*
X165651000Y-35155000D01*
X165651000Y-37235000D02*
X165651000Y-38021000D01*
X165691000Y-34410000D02*
X165691000Y-35155000D01*
X165691000Y-37235000D02*
X165691000Y-37980000D01*
X165731000Y-34452000D02*
X165731000Y-35155000D01*
X165731000Y-37235000D02*
X165731000Y-37938000D01*
X165771000Y-34496000D02*
X165771000Y-35155000D01*
X165771000Y-37235000D02*
X165771000Y-37894000D01*
X165811000Y-34542000D02*
X165811000Y-35155000D01*
X165811000Y-37235000D02*
X165811000Y-37848000D01*
X165851000Y-34590000D02*
X165851000Y-35155000D01*
X165851000Y-37235000D02*
X165851000Y-37800000D01*
X165891000Y-34641000D02*
X165891000Y-35155000D01*
X165891000Y-37235000D02*
X165891000Y-37749000D01*
X165931000Y-34695000D02*
X165931000Y-35155000D01*
X165931000Y-37235000D02*
X165931000Y-37695000D01*
X165971000Y-34752000D02*
X165971000Y-35155000D01*
X165971000Y-37235000D02*
X165971000Y-37638000D01*
X166011000Y-34812000D02*
X166011000Y-35155000D01*
X166011000Y-37235000D02*
X166011000Y-37578000D01*
X166051000Y-34876000D02*
X166051000Y-35155000D01*
X166051000Y-37235000D02*
X166051000Y-37514000D01*
X166091000Y-34944000D02*
X166091000Y-35155000D01*
X166091000Y-37235000D02*
X166091000Y-37446000D01*
X166131000Y-35017000D02*
X166131000Y-37373000D01*
X166171000Y-35097000D02*
X166171000Y-37293000D01*
X166211000Y-35184000D02*
X166211000Y-37206000D01*
X166251000Y-35280000D02*
X166251000Y-37110000D01*
X166291000Y-35390000D02*
X166291000Y-37000000D01*
X166331000Y-35518000D02*
X166331000Y-36872000D01*
X166371000Y-35677000D02*
X166371000Y-36713000D01*
X166411000Y-35911000D02*
X166411000Y-36479000D01*
X161005225Y-34720000D02*
X161505225Y-34720000D01*
X161255225Y-34470000D02*
X161255225Y-34970000D01*
%TO.C,C5*%
X166430000Y-42545000D02*
G75*
G03*
X166430000Y-42545000I-2620000J0D01*
G01*
X163810000Y-39965000D02*
X163810000Y-45125000D01*
X163850000Y-39965000D02*
X163850000Y-45125000D01*
X163890000Y-39966000D02*
X163890000Y-45124000D01*
X163930000Y-39967000D02*
X163930000Y-45123000D01*
X163970000Y-39969000D02*
X163970000Y-45121000D01*
X164010000Y-39972000D02*
X164010000Y-45118000D01*
X164050000Y-39976000D02*
X164050000Y-41505000D01*
X164050000Y-43585000D02*
X164050000Y-45114000D01*
X164090000Y-39980000D02*
X164090000Y-41505000D01*
X164090000Y-43585000D02*
X164090000Y-45110000D01*
X164130000Y-39984000D02*
X164130000Y-41505000D01*
X164130000Y-43585000D02*
X164130000Y-45106000D01*
X164170000Y-39989000D02*
X164170000Y-41505000D01*
X164170000Y-43585000D02*
X164170000Y-45101000D01*
X164210000Y-39995000D02*
X164210000Y-41505000D01*
X164210000Y-43585000D02*
X164210000Y-45095000D01*
X164250000Y-40002000D02*
X164250000Y-41505000D01*
X164250000Y-43585000D02*
X164250000Y-45088000D01*
X164290000Y-40009000D02*
X164290000Y-41505000D01*
X164290000Y-43585000D02*
X164290000Y-45081000D01*
X164330000Y-40017000D02*
X164330000Y-41505000D01*
X164330000Y-43585000D02*
X164330000Y-45073000D01*
X164370000Y-40025000D02*
X164370000Y-41505000D01*
X164370000Y-43585000D02*
X164370000Y-45065000D01*
X164410000Y-40034000D02*
X164410000Y-41505000D01*
X164410000Y-43585000D02*
X164410000Y-45056000D01*
X164450000Y-40044000D02*
X164450000Y-41505000D01*
X164450000Y-43585000D02*
X164450000Y-45046000D01*
X164490000Y-40054000D02*
X164490000Y-41505000D01*
X164490000Y-43585000D02*
X164490000Y-45036000D01*
X164531000Y-40065000D02*
X164531000Y-41505000D01*
X164531000Y-43585000D02*
X164531000Y-45025000D01*
X164571000Y-40077000D02*
X164571000Y-41505000D01*
X164571000Y-43585000D02*
X164571000Y-45013000D01*
X164611000Y-40090000D02*
X164611000Y-41505000D01*
X164611000Y-43585000D02*
X164611000Y-45000000D01*
X164651000Y-40103000D02*
X164651000Y-41505000D01*
X164651000Y-43585000D02*
X164651000Y-44987000D01*
X164691000Y-40117000D02*
X164691000Y-41505000D01*
X164691000Y-43585000D02*
X164691000Y-44973000D01*
X164731000Y-40131000D02*
X164731000Y-41505000D01*
X164731000Y-43585000D02*
X164731000Y-44959000D01*
X164771000Y-40147000D02*
X164771000Y-41505000D01*
X164771000Y-43585000D02*
X164771000Y-44943000D01*
X164811000Y-40163000D02*
X164811000Y-41505000D01*
X164811000Y-43585000D02*
X164811000Y-44927000D01*
X164851000Y-40180000D02*
X164851000Y-41505000D01*
X164851000Y-43585000D02*
X164851000Y-44910000D01*
X164891000Y-40197000D02*
X164891000Y-41505000D01*
X164891000Y-43585000D02*
X164891000Y-44893000D01*
X164931000Y-40216000D02*
X164931000Y-41505000D01*
X164931000Y-43585000D02*
X164931000Y-44874000D01*
X164971000Y-40235000D02*
X164971000Y-41505000D01*
X164971000Y-43585000D02*
X164971000Y-44855000D01*
X165011000Y-40255000D02*
X165011000Y-41505000D01*
X165011000Y-43585000D02*
X165011000Y-44835000D01*
X165051000Y-40277000D02*
X165051000Y-41505000D01*
X165051000Y-43585000D02*
X165051000Y-44813000D01*
X165091000Y-40298000D02*
X165091000Y-41505000D01*
X165091000Y-43585000D02*
X165091000Y-44792000D01*
X165131000Y-40321000D02*
X165131000Y-41505000D01*
X165131000Y-43585000D02*
X165131000Y-44769000D01*
X165171000Y-40345000D02*
X165171000Y-41505000D01*
X165171000Y-43585000D02*
X165171000Y-44745000D01*
X165211000Y-40370000D02*
X165211000Y-41505000D01*
X165211000Y-43585000D02*
X165211000Y-44720000D01*
X165251000Y-40396000D02*
X165251000Y-41505000D01*
X165251000Y-43585000D02*
X165251000Y-44694000D01*
X165291000Y-40423000D02*
X165291000Y-41505000D01*
X165291000Y-43585000D02*
X165291000Y-44667000D01*
X165331000Y-40450000D02*
X165331000Y-41505000D01*
X165331000Y-43585000D02*
X165331000Y-44640000D01*
X165371000Y-40480000D02*
X165371000Y-41505000D01*
X165371000Y-43585000D02*
X165371000Y-44610000D01*
X165411000Y-40510000D02*
X165411000Y-41505000D01*
X165411000Y-43585000D02*
X165411000Y-44580000D01*
X165451000Y-40541000D02*
X165451000Y-41505000D01*
X165451000Y-43585000D02*
X165451000Y-44549000D01*
X165491000Y-40574000D02*
X165491000Y-41505000D01*
X165491000Y-43585000D02*
X165491000Y-44516000D01*
X165531000Y-40608000D02*
X165531000Y-41505000D01*
X165531000Y-43585000D02*
X165531000Y-44482000D01*
X165571000Y-40644000D02*
X165571000Y-41505000D01*
X165571000Y-43585000D02*
X165571000Y-44446000D01*
X165611000Y-40681000D02*
X165611000Y-41505000D01*
X165611000Y-43585000D02*
X165611000Y-44409000D01*
X165651000Y-40719000D02*
X165651000Y-41505000D01*
X165651000Y-43585000D02*
X165651000Y-44371000D01*
X165691000Y-40760000D02*
X165691000Y-41505000D01*
X165691000Y-43585000D02*
X165691000Y-44330000D01*
X165731000Y-40802000D02*
X165731000Y-41505000D01*
X165731000Y-43585000D02*
X165731000Y-44288000D01*
X165771000Y-40846000D02*
X165771000Y-41505000D01*
X165771000Y-43585000D02*
X165771000Y-44244000D01*
X165811000Y-40892000D02*
X165811000Y-41505000D01*
X165811000Y-43585000D02*
X165811000Y-44198000D01*
X165851000Y-40940000D02*
X165851000Y-41505000D01*
X165851000Y-43585000D02*
X165851000Y-44150000D01*
X165891000Y-40991000D02*
X165891000Y-41505000D01*
X165891000Y-43585000D02*
X165891000Y-44099000D01*
X165931000Y-41045000D02*
X165931000Y-41505000D01*
X165931000Y-43585000D02*
X165931000Y-44045000D01*
X165971000Y-41102000D02*
X165971000Y-41505000D01*
X165971000Y-43585000D02*
X165971000Y-43988000D01*
X166011000Y-41162000D02*
X166011000Y-41505000D01*
X166011000Y-43585000D02*
X166011000Y-43928000D01*
X166051000Y-41226000D02*
X166051000Y-41505000D01*
X166051000Y-43585000D02*
X166051000Y-43864000D01*
X166091000Y-41294000D02*
X166091000Y-41505000D01*
X166091000Y-43585000D02*
X166091000Y-43796000D01*
X166131000Y-41367000D02*
X166131000Y-43723000D01*
X166171000Y-41447000D02*
X166171000Y-43643000D01*
X166211000Y-41534000D02*
X166211000Y-43556000D01*
X166251000Y-41630000D02*
X166251000Y-43460000D01*
X166291000Y-41740000D02*
X166291000Y-43350000D01*
X166331000Y-41868000D02*
X166331000Y-43222000D01*
X166371000Y-42027000D02*
X166371000Y-43063000D01*
X166411000Y-42261000D02*
X166411000Y-42829000D01*
X161005225Y-41070000D02*
X161505225Y-41070000D01*
X161255225Y-40820000D02*
X161255225Y-41320000D01*
%TO.C,C4*%
X160100000Y-91740100D02*
G75*
G03*
X160100000Y-91740100I-2620000J0D01*
G01*
X154900000Y-91740100D02*
X160060000Y-91740100D01*
X154900000Y-91700100D02*
X160060000Y-91700100D01*
X154901000Y-91660100D02*
X160059000Y-91660100D01*
X154902000Y-91620100D02*
X160058000Y-91620100D01*
X154904000Y-91580100D02*
X160056000Y-91580100D01*
X154907000Y-91540100D02*
X160053000Y-91540100D01*
X154911000Y-91500100D02*
X156440000Y-91500100D01*
X158520000Y-91500100D02*
X160049000Y-91500100D01*
X154915000Y-91460100D02*
X156440000Y-91460100D01*
X158520000Y-91460100D02*
X160045000Y-91460100D01*
X154919000Y-91420100D02*
X156440000Y-91420100D01*
X158520000Y-91420100D02*
X160041000Y-91420100D01*
X154924000Y-91380100D02*
X156440000Y-91380100D01*
X158520000Y-91380100D02*
X160036000Y-91380100D01*
X154930000Y-91340100D02*
X156440000Y-91340100D01*
X158520000Y-91340100D02*
X160030000Y-91340100D01*
X154937000Y-91300100D02*
X156440000Y-91300100D01*
X158520000Y-91300100D02*
X160023000Y-91300100D01*
X154944000Y-91260100D02*
X156440000Y-91260100D01*
X158520000Y-91260100D02*
X160016000Y-91260100D01*
X154952000Y-91220100D02*
X156440000Y-91220100D01*
X158520000Y-91220100D02*
X160008000Y-91220100D01*
X154960000Y-91180100D02*
X156440000Y-91180100D01*
X158520000Y-91180100D02*
X160000000Y-91180100D01*
X154969000Y-91140100D02*
X156440000Y-91140100D01*
X158520000Y-91140100D02*
X159991000Y-91140100D01*
X154979000Y-91100100D02*
X156440000Y-91100100D01*
X158520000Y-91100100D02*
X159981000Y-91100100D01*
X154989000Y-91060100D02*
X156440000Y-91060100D01*
X158520000Y-91060100D02*
X159971000Y-91060100D01*
X155000000Y-91019100D02*
X156440000Y-91019100D01*
X158520000Y-91019100D02*
X159960000Y-91019100D01*
X155012000Y-90979100D02*
X156440000Y-90979100D01*
X158520000Y-90979100D02*
X159948000Y-90979100D01*
X155025000Y-90939100D02*
X156440000Y-90939100D01*
X158520000Y-90939100D02*
X159935000Y-90939100D01*
X155038000Y-90899100D02*
X156440000Y-90899100D01*
X158520000Y-90899100D02*
X159922000Y-90899100D01*
X155052000Y-90859100D02*
X156440000Y-90859100D01*
X158520000Y-90859100D02*
X159908000Y-90859100D01*
X155066000Y-90819100D02*
X156440000Y-90819100D01*
X158520000Y-90819100D02*
X159894000Y-90819100D01*
X155082000Y-90779100D02*
X156440000Y-90779100D01*
X158520000Y-90779100D02*
X159878000Y-90779100D01*
X155098000Y-90739100D02*
X156440000Y-90739100D01*
X158520000Y-90739100D02*
X159862000Y-90739100D01*
X155115000Y-90699100D02*
X156440000Y-90699100D01*
X158520000Y-90699100D02*
X159845000Y-90699100D01*
X155132000Y-90659100D02*
X156440000Y-90659100D01*
X158520000Y-90659100D02*
X159828000Y-90659100D01*
X155151000Y-90619100D02*
X156440000Y-90619100D01*
X158520000Y-90619100D02*
X159809000Y-90619100D01*
X155170000Y-90579100D02*
X156440000Y-90579100D01*
X158520000Y-90579100D02*
X159790000Y-90579100D01*
X155190000Y-90539100D02*
X156440000Y-90539100D01*
X158520000Y-90539100D02*
X159770000Y-90539100D01*
X155212000Y-90499100D02*
X156440000Y-90499100D01*
X158520000Y-90499100D02*
X159748000Y-90499100D01*
X155233000Y-90459100D02*
X156440000Y-90459100D01*
X158520000Y-90459100D02*
X159727000Y-90459100D01*
X155256000Y-90419100D02*
X156440000Y-90419100D01*
X158520000Y-90419100D02*
X159704000Y-90419100D01*
X155280000Y-90379100D02*
X156440000Y-90379100D01*
X158520000Y-90379100D02*
X159680000Y-90379100D01*
X155305000Y-90339100D02*
X156440000Y-90339100D01*
X158520000Y-90339100D02*
X159655000Y-90339100D01*
X155331000Y-90299100D02*
X156440000Y-90299100D01*
X158520000Y-90299100D02*
X159629000Y-90299100D01*
X155358000Y-90259100D02*
X156440000Y-90259100D01*
X158520000Y-90259100D02*
X159602000Y-90259100D01*
X155385000Y-90219100D02*
X156440000Y-90219100D01*
X158520000Y-90219100D02*
X159575000Y-90219100D01*
X155415000Y-90179100D02*
X156440000Y-90179100D01*
X158520000Y-90179100D02*
X159545000Y-90179100D01*
X155445000Y-90139100D02*
X156440000Y-90139100D01*
X158520000Y-90139100D02*
X159515000Y-90139100D01*
X155476000Y-90099100D02*
X156440000Y-90099100D01*
X158520000Y-90099100D02*
X159484000Y-90099100D01*
X155509000Y-90059100D02*
X156440000Y-90059100D01*
X158520000Y-90059100D02*
X159451000Y-90059100D01*
X155543000Y-90019100D02*
X156440000Y-90019100D01*
X158520000Y-90019100D02*
X159417000Y-90019100D01*
X155579000Y-89979100D02*
X156440000Y-89979100D01*
X158520000Y-89979100D02*
X159381000Y-89979100D01*
X155616000Y-89939100D02*
X156440000Y-89939100D01*
X158520000Y-89939100D02*
X159344000Y-89939100D01*
X155654000Y-89899100D02*
X156440000Y-89899100D01*
X158520000Y-89899100D02*
X159306000Y-89899100D01*
X155695000Y-89859100D02*
X156440000Y-89859100D01*
X158520000Y-89859100D02*
X159265000Y-89859100D01*
X155737000Y-89819100D02*
X156440000Y-89819100D01*
X158520000Y-89819100D02*
X159223000Y-89819100D01*
X155781000Y-89779100D02*
X156440000Y-89779100D01*
X158520000Y-89779100D02*
X159179000Y-89779100D01*
X155827000Y-89739100D02*
X156440000Y-89739100D01*
X158520000Y-89739100D02*
X159133000Y-89739100D01*
X155875000Y-89699100D02*
X156440000Y-89699100D01*
X158520000Y-89699100D02*
X159085000Y-89699100D01*
X155926000Y-89659100D02*
X156440000Y-89659100D01*
X158520000Y-89659100D02*
X159034000Y-89659100D01*
X155980000Y-89619100D02*
X156440000Y-89619100D01*
X158520000Y-89619100D02*
X158980000Y-89619100D01*
X156037000Y-89579100D02*
X156440000Y-89579100D01*
X158520000Y-89579100D02*
X158923000Y-89579100D01*
X156097000Y-89539100D02*
X156440000Y-89539100D01*
X158520000Y-89539100D02*
X158863000Y-89539100D01*
X156161000Y-89499100D02*
X156440000Y-89499100D01*
X158520000Y-89499100D02*
X158799000Y-89499100D01*
X156229000Y-89459100D02*
X156440000Y-89459100D01*
X158520000Y-89459100D02*
X158731000Y-89459100D01*
X156302000Y-89419100D02*
X158658000Y-89419100D01*
X156382000Y-89379100D02*
X158578000Y-89379100D01*
X156469000Y-89339100D02*
X158491000Y-89339100D01*
X156565000Y-89299100D02*
X158395000Y-89299100D01*
X156675000Y-89259100D02*
X158285000Y-89259100D01*
X156803000Y-89219100D02*
X158157000Y-89219100D01*
X156962000Y-89179100D02*
X157998000Y-89179100D01*
X157196000Y-89139100D02*
X157764000Y-89139100D01*
X156005000Y-94544875D02*
X156005000Y-94044875D01*
X155755000Y-94294875D02*
X156255000Y-94294875D01*
%TO.C,C3*%
X211535000Y-91740100D02*
G75*
G03*
X211535000Y-91740100I-2620000J0D01*
G01*
X206335000Y-91740100D02*
X211495000Y-91740100D01*
X206335000Y-91700100D02*
X211495000Y-91700100D01*
X206336000Y-91660100D02*
X211494000Y-91660100D01*
X206337000Y-91620100D02*
X211493000Y-91620100D01*
X206339000Y-91580100D02*
X211491000Y-91580100D01*
X206342000Y-91540100D02*
X211488000Y-91540100D01*
X206346000Y-91500100D02*
X207875000Y-91500100D01*
X209955000Y-91500100D02*
X211484000Y-91500100D01*
X206350000Y-91460100D02*
X207875000Y-91460100D01*
X209955000Y-91460100D02*
X211480000Y-91460100D01*
X206354000Y-91420100D02*
X207875000Y-91420100D01*
X209955000Y-91420100D02*
X211476000Y-91420100D01*
X206359000Y-91380100D02*
X207875000Y-91380100D01*
X209955000Y-91380100D02*
X211471000Y-91380100D01*
X206365000Y-91340100D02*
X207875000Y-91340100D01*
X209955000Y-91340100D02*
X211465000Y-91340100D01*
X206372000Y-91300100D02*
X207875000Y-91300100D01*
X209955000Y-91300100D02*
X211458000Y-91300100D01*
X206379000Y-91260100D02*
X207875000Y-91260100D01*
X209955000Y-91260100D02*
X211451000Y-91260100D01*
X206387000Y-91220100D02*
X207875000Y-91220100D01*
X209955000Y-91220100D02*
X211443000Y-91220100D01*
X206395000Y-91180100D02*
X207875000Y-91180100D01*
X209955000Y-91180100D02*
X211435000Y-91180100D01*
X206404000Y-91140100D02*
X207875000Y-91140100D01*
X209955000Y-91140100D02*
X211426000Y-91140100D01*
X206414000Y-91100100D02*
X207875000Y-91100100D01*
X209955000Y-91100100D02*
X211416000Y-91100100D01*
X206424000Y-91060100D02*
X207875000Y-91060100D01*
X209955000Y-91060100D02*
X211406000Y-91060100D01*
X206435000Y-91019100D02*
X207875000Y-91019100D01*
X209955000Y-91019100D02*
X211395000Y-91019100D01*
X206447000Y-90979100D02*
X207875000Y-90979100D01*
X209955000Y-90979100D02*
X211383000Y-90979100D01*
X206460000Y-90939100D02*
X207875000Y-90939100D01*
X209955000Y-90939100D02*
X211370000Y-90939100D01*
X206473000Y-90899100D02*
X207875000Y-90899100D01*
X209955000Y-90899100D02*
X211357000Y-90899100D01*
X206487000Y-90859100D02*
X207875000Y-90859100D01*
X209955000Y-90859100D02*
X211343000Y-90859100D01*
X206501000Y-90819100D02*
X207875000Y-90819100D01*
X209955000Y-90819100D02*
X211329000Y-90819100D01*
X206517000Y-90779100D02*
X207875000Y-90779100D01*
X209955000Y-90779100D02*
X211313000Y-90779100D01*
X206533000Y-90739100D02*
X207875000Y-90739100D01*
X209955000Y-90739100D02*
X211297000Y-90739100D01*
X206550000Y-90699100D02*
X207875000Y-90699100D01*
X209955000Y-90699100D02*
X211280000Y-90699100D01*
X206567000Y-90659100D02*
X207875000Y-90659100D01*
X209955000Y-90659100D02*
X211263000Y-90659100D01*
X206586000Y-90619100D02*
X207875000Y-90619100D01*
X209955000Y-90619100D02*
X211244000Y-90619100D01*
X206605000Y-90579100D02*
X207875000Y-90579100D01*
X209955000Y-90579100D02*
X211225000Y-90579100D01*
X206625000Y-90539100D02*
X207875000Y-90539100D01*
X209955000Y-90539100D02*
X211205000Y-90539100D01*
X206647000Y-90499100D02*
X207875000Y-90499100D01*
X209955000Y-90499100D02*
X211183000Y-90499100D01*
X206668000Y-90459100D02*
X207875000Y-90459100D01*
X209955000Y-90459100D02*
X211162000Y-90459100D01*
X206691000Y-90419100D02*
X207875000Y-90419100D01*
X209955000Y-90419100D02*
X211139000Y-90419100D01*
X206715000Y-90379100D02*
X207875000Y-90379100D01*
X209955000Y-90379100D02*
X211115000Y-90379100D01*
X206740000Y-90339100D02*
X207875000Y-90339100D01*
X209955000Y-90339100D02*
X211090000Y-90339100D01*
X206766000Y-90299100D02*
X207875000Y-90299100D01*
X209955000Y-90299100D02*
X211064000Y-90299100D01*
X206793000Y-90259100D02*
X207875000Y-90259100D01*
X209955000Y-90259100D02*
X211037000Y-90259100D01*
X206820000Y-90219100D02*
X207875000Y-90219100D01*
X209955000Y-90219100D02*
X211010000Y-90219100D01*
X206850000Y-90179100D02*
X207875000Y-90179100D01*
X209955000Y-90179100D02*
X210980000Y-90179100D01*
X206880000Y-90139100D02*
X207875000Y-90139100D01*
X209955000Y-90139100D02*
X210950000Y-90139100D01*
X206911000Y-90099100D02*
X207875000Y-90099100D01*
X209955000Y-90099100D02*
X210919000Y-90099100D01*
X206944000Y-90059100D02*
X207875000Y-90059100D01*
X209955000Y-90059100D02*
X210886000Y-90059100D01*
X206978000Y-90019100D02*
X207875000Y-90019100D01*
X209955000Y-90019100D02*
X210852000Y-90019100D01*
X207014000Y-89979100D02*
X207875000Y-89979100D01*
X209955000Y-89979100D02*
X210816000Y-89979100D01*
X207051000Y-89939100D02*
X207875000Y-89939100D01*
X209955000Y-89939100D02*
X210779000Y-89939100D01*
X207089000Y-89899100D02*
X207875000Y-89899100D01*
X209955000Y-89899100D02*
X210741000Y-89899100D01*
X207130000Y-89859100D02*
X207875000Y-89859100D01*
X209955000Y-89859100D02*
X210700000Y-89859100D01*
X207172000Y-89819100D02*
X207875000Y-89819100D01*
X209955000Y-89819100D02*
X210658000Y-89819100D01*
X207216000Y-89779100D02*
X207875000Y-89779100D01*
X209955000Y-89779100D02*
X210614000Y-89779100D01*
X207262000Y-89739100D02*
X207875000Y-89739100D01*
X209955000Y-89739100D02*
X210568000Y-89739100D01*
X207310000Y-89699100D02*
X207875000Y-89699100D01*
X209955000Y-89699100D02*
X210520000Y-89699100D01*
X207361000Y-89659100D02*
X207875000Y-89659100D01*
X209955000Y-89659100D02*
X210469000Y-89659100D01*
X207415000Y-89619100D02*
X207875000Y-89619100D01*
X209955000Y-89619100D02*
X210415000Y-89619100D01*
X207472000Y-89579100D02*
X207875000Y-89579100D01*
X209955000Y-89579100D02*
X210358000Y-89579100D01*
X207532000Y-89539100D02*
X207875000Y-89539100D01*
X209955000Y-89539100D02*
X210298000Y-89539100D01*
X207596000Y-89499100D02*
X207875000Y-89499100D01*
X209955000Y-89499100D02*
X210234000Y-89499100D01*
X207664000Y-89459100D02*
X207875000Y-89459100D01*
X209955000Y-89459100D02*
X210166000Y-89459100D01*
X207737000Y-89419100D02*
X210093000Y-89419100D01*
X207817000Y-89379100D02*
X210013000Y-89379100D01*
X207904000Y-89339100D02*
X209926000Y-89339100D01*
X208000000Y-89299100D02*
X209830000Y-89299100D01*
X208110000Y-89259100D02*
X209720000Y-89259100D01*
X208238000Y-89219100D02*
X209592000Y-89219100D01*
X208397000Y-89179100D02*
X209433000Y-89179100D01*
X208631000Y-89139100D02*
X209199000Y-89139100D01*
X207440000Y-94544875D02*
X207440000Y-94044875D01*
X207190000Y-94294875D02*
X207690000Y-94294875D01*
%TO.C,C2*%
X146400000Y-42559000D02*
X146400000Y-41301000D01*
X148240000Y-42559000D02*
X148240000Y-41301000D01*
%TO.C,C1*%
X146400000Y-36844000D02*
X146400000Y-35586000D01*
X148240000Y-36844000D02*
X148240000Y-35586000D01*
%TO.C,U3*%
D11*
X221170095Y-28872380D02*
X221170095Y-29681904D01*
X221217714Y-29777142D01*
X221265333Y-29824761D01*
X221360571Y-29872380D01*
X221551047Y-29872380D01*
X221646285Y-29824761D01*
X221693904Y-29777142D01*
X221741523Y-29681904D01*
X221741523Y-28872380D01*
X222122476Y-28872380D02*
X222741523Y-28872380D01*
X222408190Y-29253333D01*
X222551047Y-29253333D01*
X222646285Y-29300952D01*
X222693904Y-29348571D01*
X222741523Y-29443809D01*
X222741523Y-29681904D01*
X222693904Y-29777142D01*
X222646285Y-29824761D01*
X222551047Y-29872380D01*
X222265333Y-29872380D01*
X222170095Y-29824761D01*
X222122476Y-29777142D01*
%TO.C,U14*%
X169576904Y-83018380D02*
X169576904Y-83827904D01*
X169624523Y-83923142D01*
X169672142Y-83970761D01*
X169767380Y-84018380D01*
X169957857Y-84018380D01*
X170053095Y-83970761D01*
X170100714Y-83923142D01*
X170148333Y-83827904D01*
X170148333Y-83018380D01*
X171148333Y-84018380D02*
X170576904Y-84018380D01*
X170862619Y-84018380D02*
X170862619Y-83018380D01*
X170767380Y-83161238D01*
X170672142Y-83256476D01*
X170576904Y-83304095D01*
X172005476Y-83351714D02*
X172005476Y-84018380D01*
X171767380Y-82970761D02*
X171529285Y-83685047D01*
X172148333Y-83685047D01*
%TO.C,U13*%
X177831904Y-83018380D02*
X177831904Y-83827904D01*
X177879523Y-83923142D01*
X177927142Y-83970761D01*
X178022380Y-84018380D01*
X178212857Y-84018380D01*
X178308095Y-83970761D01*
X178355714Y-83923142D01*
X178403333Y-83827904D01*
X178403333Y-83018380D01*
X179403333Y-84018380D02*
X178831904Y-84018380D01*
X179117619Y-84018380D02*
X179117619Y-83018380D01*
X179022380Y-83161238D01*
X178927142Y-83256476D01*
X178831904Y-83304095D01*
X179736666Y-83018380D02*
X180355714Y-83018380D01*
X180022380Y-83399333D01*
X180165238Y-83399333D01*
X180260476Y-83446952D01*
X180308095Y-83494571D01*
X180355714Y-83589809D01*
X180355714Y-83827904D01*
X180308095Y-83923142D01*
X180260476Y-83970761D01*
X180165238Y-84018380D01*
X179879523Y-84018380D01*
X179784285Y-83970761D01*
X179736666Y-83923142D01*
%TO.C,U12*%
X186086904Y-83018380D02*
X186086904Y-83827904D01*
X186134523Y-83923142D01*
X186182142Y-83970761D01*
X186277380Y-84018380D01*
X186467857Y-84018380D01*
X186563095Y-83970761D01*
X186610714Y-83923142D01*
X186658333Y-83827904D01*
X186658333Y-83018380D01*
X187658333Y-84018380D02*
X187086904Y-84018380D01*
X187372619Y-84018380D02*
X187372619Y-83018380D01*
X187277380Y-83161238D01*
X187182142Y-83256476D01*
X187086904Y-83304095D01*
X188039285Y-83113619D02*
X188086904Y-83066000D01*
X188182142Y-83018380D01*
X188420238Y-83018380D01*
X188515476Y-83066000D01*
X188563095Y-83113619D01*
X188610714Y-83208857D01*
X188610714Y-83304095D01*
X188563095Y-83446952D01*
X187991666Y-84018380D01*
X188610714Y-84018380D01*
%TO.C,U11*%
X194341904Y-83018380D02*
X194341904Y-83827904D01*
X194389523Y-83923142D01*
X194437142Y-83970761D01*
X194532380Y-84018380D01*
X194722857Y-84018380D01*
X194818095Y-83970761D01*
X194865714Y-83923142D01*
X194913333Y-83827904D01*
X194913333Y-83018380D01*
X195913333Y-84018380D02*
X195341904Y-84018380D01*
X195627619Y-84018380D02*
X195627619Y-83018380D01*
X195532380Y-83161238D01*
X195437142Y-83256476D01*
X195341904Y-83304095D01*
X196865714Y-84018380D02*
X196294285Y-84018380D01*
X196580000Y-84018380D02*
X196580000Y-83018380D01*
X196484761Y-83161238D01*
X196389523Y-83256476D01*
X196294285Y-83304095D01*
%TO.C,U10*%
X150372380Y-63468095D02*
X151181904Y-63468095D01*
X151277142Y-63420476D01*
X151324761Y-63372857D01*
X151372380Y-63277619D01*
X151372380Y-63087142D01*
X151324761Y-62991904D01*
X151277142Y-62944285D01*
X151181904Y-62896666D01*
X150372380Y-62896666D01*
X151372380Y-61896666D02*
X151372380Y-62468095D01*
X151372380Y-62182380D02*
X150372380Y-62182380D01*
X150515238Y-62277619D01*
X150610476Y-62372857D01*
X150658095Y-62468095D01*
X150372380Y-61277619D02*
X150372380Y-61182380D01*
X150420000Y-61087142D01*
X150467619Y-61039523D01*
X150562857Y-60991904D01*
X150753333Y-60944285D01*
X150991428Y-60944285D01*
X151181904Y-60991904D01*
X151277142Y-61039523D01*
X151324761Y-61087142D01*
X151372380Y-61182380D01*
X151372380Y-61277619D01*
X151324761Y-61372857D01*
X151277142Y-61420476D01*
X151181904Y-61468095D01*
X150991428Y-61515714D01*
X150753333Y-61515714D01*
X150562857Y-61468095D01*
X150467619Y-61420476D01*
X150420000Y-61372857D01*
X150372380Y-61277619D01*
%TO.C,U9*%
X180217380Y-62991904D02*
X181026904Y-62991904D01*
X181122142Y-62944285D01*
X181169761Y-62896666D01*
X181217380Y-62801428D01*
X181217380Y-62610952D01*
X181169761Y-62515714D01*
X181122142Y-62468095D01*
X181026904Y-62420476D01*
X180217380Y-62420476D01*
X181217380Y-61896666D02*
X181217380Y-61706190D01*
X181169761Y-61610952D01*
X181122142Y-61563333D01*
X180979285Y-61468095D01*
X180788809Y-61420476D01*
X180407857Y-61420476D01*
X180312619Y-61468095D01*
X180265000Y-61515714D01*
X180217380Y-61610952D01*
X180217380Y-61801428D01*
X180265000Y-61896666D01*
X180312619Y-61944285D01*
X180407857Y-61991904D01*
X180645952Y-61991904D01*
X180741190Y-61944285D01*
X180788809Y-61896666D01*
X180836428Y-61801428D01*
X180836428Y-61610952D01*
X180788809Y-61515714D01*
X180741190Y-61468095D01*
X180645952Y-61420476D01*
%TO.C,U8*%
X209427380Y-62991904D02*
X210236904Y-62991904D01*
X210332142Y-62944285D01*
X210379761Y-62896666D01*
X210427380Y-62801428D01*
X210427380Y-62610952D01*
X210379761Y-62515714D01*
X210332142Y-62468095D01*
X210236904Y-62420476D01*
X209427380Y-62420476D01*
X209855952Y-61801428D02*
X209808333Y-61896666D01*
X209760714Y-61944285D01*
X209665476Y-61991904D01*
X209617857Y-61991904D01*
X209522619Y-61944285D01*
X209475000Y-61896666D01*
X209427380Y-61801428D01*
X209427380Y-61610952D01*
X209475000Y-61515714D01*
X209522619Y-61468095D01*
X209617857Y-61420476D01*
X209665476Y-61420476D01*
X209760714Y-61468095D01*
X209808333Y-61515714D01*
X209855952Y-61610952D01*
X209855952Y-61801428D01*
X209903571Y-61896666D01*
X209951190Y-61944285D01*
X210046428Y-61991904D01*
X210236904Y-61991904D01*
X210332142Y-61944285D01*
X210379761Y-61896666D01*
X210427380Y-61801428D01*
X210427380Y-61610952D01*
X210379761Y-61515714D01*
X210332142Y-61468095D01*
X210236904Y-61420476D01*
X210046428Y-61420476D01*
X209951190Y-61468095D01*
X209903571Y-61515714D01*
X209855952Y-61610952D01*
%TO.C,U7*%
X239272380Y-62991904D02*
X240081904Y-62991904D01*
X240177142Y-62944285D01*
X240224761Y-62896666D01*
X240272380Y-62801428D01*
X240272380Y-62610952D01*
X240224761Y-62515714D01*
X240177142Y-62468095D01*
X240081904Y-62420476D01*
X239272380Y-62420476D01*
X239272380Y-62039523D02*
X239272380Y-61372857D01*
X240272380Y-61801428D01*
%TO.C,U6*%
X205613095Y-30142380D02*
X205613095Y-30951904D01*
X205660714Y-31047142D01*
X205708333Y-31094761D01*
X205803571Y-31142380D01*
X205994047Y-31142380D01*
X206089285Y-31094761D01*
X206136904Y-31047142D01*
X206184523Y-30951904D01*
X206184523Y-30142380D01*
X207089285Y-30142380D02*
X206898809Y-30142380D01*
X206803571Y-30190000D01*
X206755952Y-30237619D01*
X206660714Y-30380476D01*
X206613095Y-30570952D01*
X206613095Y-30951904D01*
X206660714Y-31047142D01*
X206708333Y-31094761D01*
X206803571Y-31142380D01*
X206994047Y-31142380D01*
X207089285Y-31094761D01*
X207136904Y-31047142D01*
X207184523Y-30951904D01*
X207184523Y-30713809D01*
X207136904Y-30618571D01*
X207089285Y-30570952D01*
X206994047Y-30523333D01*
X206803571Y-30523333D01*
X206708333Y-30570952D01*
X206660714Y-30618571D01*
X206613095Y-30713809D01*
%TO.C,U5*%
X190055095Y-30142380D02*
X190055095Y-30951904D01*
X190102714Y-31047142D01*
X190150333Y-31094761D01*
X190245571Y-31142380D01*
X190436047Y-31142380D01*
X190531285Y-31094761D01*
X190578904Y-31047142D01*
X190626523Y-30951904D01*
X190626523Y-30142380D01*
X191578904Y-30142380D02*
X191102714Y-30142380D01*
X191055095Y-30618571D01*
X191102714Y-30570952D01*
X191197952Y-30523333D01*
X191436047Y-30523333D01*
X191531285Y-30570952D01*
X191578904Y-30618571D01*
X191626523Y-30713809D01*
X191626523Y-30951904D01*
X191578904Y-31047142D01*
X191531285Y-31094761D01*
X191436047Y-31142380D01*
X191197952Y-31142380D01*
X191102714Y-31094761D01*
X191055095Y-31047142D01*
%TO.C,U4*%
X174498095Y-30142380D02*
X174498095Y-30951904D01*
X174545714Y-31047142D01*
X174593333Y-31094761D01*
X174688571Y-31142380D01*
X174879047Y-31142380D01*
X174974285Y-31094761D01*
X175021904Y-31047142D01*
X175069523Y-30951904D01*
X175069523Y-30142380D01*
X175974285Y-30475714D02*
X175974285Y-31142380D01*
X175736190Y-30094761D02*
X175498095Y-30809047D01*
X176117142Y-30809047D01*
%TO.C,U2*%
X236728095Y-28872380D02*
X236728095Y-29681904D01*
X236775714Y-29777142D01*
X236823333Y-29824761D01*
X236918571Y-29872380D01*
X237109047Y-29872380D01*
X237204285Y-29824761D01*
X237251904Y-29777142D01*
X237299523Y-29681904D01*
X237299523Y-28872380D01*
X237728095Y-28967619D02*
X237775714Y-28920000D01*
X237870952Y-28872380D01*
X238109047Y-28872380D01*
X238204285Y-28920000D01*
X238251904Y-28967619D01*
X238299523Y-29062857D01*
X238299523Y-29158095D01*
X238251904Y-29300952D01*
X237680476Y-29872380D01*
X238299523Y-29872380D01*
%TO.C,U1*%
X160532380Y-40131904D02*
X161341904Y-40131904D01*
X161437142Y-40084285D01*
X161484761Y-40036666D01*
X161532380Y-39941428D01*
X161532380Y-39750952D01*
X161484761Y-39655714D01*
X161437142Y-39608095D01*
X161341904Y-39560476D01*
X160532380Y-39560476D01*
X161532380Y-38560476D02*
X161532380Y-39131904D01*
X161532380Y-38846190D02*
X160532380Y-38846190D01*
X160675238Y-38941428D01*
X160770476Y-39036666D01*
X160818095Y-39131904D01*
%TO.C,SW2*%
X189876666Y-100639761D02*
X190019523Y-100687380D01*
X190257619Y-100687380D01*
X190352857Y-100639761D01*
X190400476Y-100592142D01*
X190448095Y-100496904D01*
X190448095Y-100401666D01*
X190400476Y-100306428D01*
X190352857Y-100258809D01*
X190257619Y-100211190D01*
X190067142Y-100163571D01*
X189971904Y-100115952D01*
X189924285Y-100068333D01*
X189876666Y-99973095D01*
X189876666Y-99877857D01*
X189924285Y-99782619D01*
X189971904Y-99735000D01*
X190067142Y-99687380D01*
X190305238Y-99687380D01*
X190448095Y-99735000D01*
X190781428Y-99687380D02*
X191019523Y-100687380D01*
X191210000Y-99973095D01*
X191400476Y-100687380D01*
X191638571Y-99687380D01*
X191971904Y-99782619D02*
X192019523Y-99735000D01*
X192114761Y-99687380D01*
X192352857Y-99687380D01*
X192448095Y-99735000D01*
X192495714Y-99782619D01*
X192543333Y-99877857D01*
X192543333Y-99973095D01*
X192495714Y-100115952D01*
X191924285Y-100687380D01*
X192543333Y-100687380D01*
X188662380Y-109339761D02*
X188805238Y-109387380D01*
X189043333Y-109387380D01*
X189138571Y-109339761D01*
X189186190Y-109292142D01*
X189233809Y-109196904D01*
X189233809Y-109101666D01*
X189186190Y-109006428D01*
X189138571Y-108958809D01*
X189043333Y-108911190D01*
X188852857Y-108863571D01*
X188757619Y-108815952D01*
X188710000Y-108768333D01*
X188662380Y-108673095D01*
X188662380Y-108577857D01*
X188710000Y-108482619D01*
X188757619Y-108435000D01*
X188852857Y-108387380D01*
X189090952Y-108387380D01*
X189233809Y-108435000D01*
X189567142Y-108387380D02*
X189805238Y-109387380D01*
X189995714Y-108673095D01*
X190186190Y-109387380D01*
X190424285Y-108387380D01*
X190567142Y-109482619D02*
X191329047Y-109482619D01*
X191567142Y-109387380D02*
X191567142Y-108387380D01*
X191948095Y-108387380D01*
X192043333Y-108435000D01*
X192090952Y-108482619D01*
X192138571Y-108577857D01*
X192138571Y-108720714D01*
X192090952Y-108815952D01*
X192043333Y-108863571D01*
X191948095Y-108911190D01*
X191567142Y-108911190D01*
X192995714Y-108720714D02*
X192995714Y-109387380D01*
X192567142Y-108720714D02*
X192567142Y-109244523D01*
X192614761Y-109339761D01*
X192710000Y-109387380D01*
X192852857Y-109387380D01*
X192948095Y-109339761D01*
X192995714Y-109292142D01*
X193424285Y-109339761D02*
X193519523Y-109387380D01*
X193710000Y-109387380D01*
X193805238Y-109339761D01*
X193852857Y-109244523D01*
X193852857Y-109196904D01*
X193805238Y-109101666D01*
X193710000Y-109054047D01*
X193567142Y-109054047D01*
X193471904Y-109006428D01*
X193424285Y-108911190D01*
X193424285Y-108863571D01*
X193471904Y-108768333D01*
X193567142Y-108720714D01*
X193710000Y-108720714D01*
X193805238Y-108768333D01*
X194281428Y-109387380D02*
X194281428Y-108387380D01*
X194710000Y-109387380D02*
X194710000Y-108863571D01*
X194662380Y-108768333D01*
X194567142Y-108720714D01*
X194424285Y-108720714D01*
X194329047Y-108768333D01*
X194281428Y-108815952D01*
%TO.C,SW1*%
X173366666Y-100639761D02*
X173509523Y-100687380D01*
X173747619Y-100687380D01*
X173842857Y-100639761D01*
X173890476Y-100592142D01*
X173938095Y-100496904D01*
X173938095Y-100401666D01*
X173890476Y-100306428D01*
X173842857Y-100258809D01*
X173747619Y-100211190D01*
X173557142Y-100163571D01*
X173461904Y-100115952D01*
X173414285Y-100068333D01*
X173366666Y-99973095D01*
X173366666Y-99877857D01*
X173414285Y-99782619D01*
X173461904Y-99735000D01*
X173557142Y-99687380D01*
X173795238Y-99687380D01*
X173938095Y-99735000D01*
X174271428Y-99687380D02*
X174509523Y-100687380D01*
X174700000Y-99973095D01*
X174890476Y-100687380D01*
X175128571Y-99687380D01*
X176033333Y-100687380D02*
X175461904Y-100687380D01*
X175747619Y-100687380D02*
X175747619Y-99687380D01*
X175652380Y-99830238D01*
X175557142Y-99925476D01*
X175461904Y-99973095D01*
X172152380Y-109339761D02*
X172295238Y-109387380D01*
X172533333Y-109387380D01*
X172628571Y-109339761D01*
X172676190Y-109292142D01*
X172723809Y-109196904D01*
X172723809Y-109101666D01*
X172676190Y-109006428D01*
X172628571Y-108958809D01*
X172533333Y-108911190D01*
X172342857Y-108863571D01*
X172247619Y-108815952D01*
X172200000Y-108768333D01*
X172152380Y-108673095D01*
X172152380Y-108577857D01*
X172200000Y-108482619D01*
X172247619Y-108435000D01*
X172342857Y-108387380D01*
X172580952Y-108387380D01*
X172723809Y-108435000D01*
X173057142Y-108387380D02*
X173295238Y-109387380D01*
X173485714Y-108673095D01*
X173676190Y-109387380D01*
X173914285Y-108387380D01*
X174057142Y-109482619D02*
X174819047Y-109482619D01*
X175057142Y-109387380D02*
X175057142Y-108387380D01*
X175438095Y-108387380D01*
X175533333Y-108435000D01*
X175580952Y-108482619D01*
X175628571Y-108577857D01*
X175628571Y-108720714D01*
X175580952Y-108815952D01*
X175533333Y-108863571D01*
X175438095Y-108911190D01*
X175057142Y-108911190D01*
X176485714Y-108720714D02*
X176485714Y-109387380D01*
X176057142Y-108720714D02*
X176057142Y-109244523D01*
X176104761Y-109339761D01*
X176200000Y-109387380D01*
X176342857Y-109387380D01*
X176438095Y-109339761D01*
X176485714Y-109292142D01*
X176914285Y-109339761D02*
X177009523Y-109387380D01*
X177200000Y-109387380D01*
X177295238Y-109339761D01*
X177342857Y-109244523D01*
X177342857Y-109196904D01*
X177295238Y-109101666D01*
X177200000Y-109054047D01*
X177057142Y-109054047D01*
X176961904Y-109006428D01*
X176914285Y-108911190D01*
X176914285Y-108863571D01*
X176961904Y-108768333D01*
X177057142Y-108720714D01*
X177200000Y-108720714D01*
X177295238Y-108768333D01*
X177771428Y-109387380D02*
X177771428Y-108387380D01*
X178200000Y-109387380D02*
X178200000Y-108863571D01*
X178152380Y-108768333D01*
X178057142Y-108720714D01*
X177914285Y-108720714D01*
X177819047Y-108768333D01*
X177771428Y-108815952D01*
%TO.C,R34*%
X142042380Y-74302857D02*
X141566190Y-74636190D01*
X142042380Y-74874285D02*
X141042380Y-74874285D01*
X141042380Y-74493333D01*
X141090000Y-74398095D01*
X141137619Y-74350476D01*
X141232857Y-74302857D01*
X141375714Y-74302857D01*
X141470952Y-74350476D01*
X141518571Y-74398095D01*
X141566190Y-74493333D01*
X141566190Y-74874285D01*
X141042380Y-73969523D02*
X141042380Y-73350476D01*
X141423333Y-73683809D01*
X141423333Y-73540952D01*
X141470952Y-73445714D01*
X141518571Y-73398095D01*
X141613809Y-73350476D01*
X141851904Y-73350476D01*
X141947142Y-73398095D01*
X141994761Y-73445714D01*
X142042380Y-73540952D01*
X142042380Y-73826666D01*
X141994761Y-73921904D01*
X141947142Y-73969523D01*
X141375714Y-72493333D02*
X142042380Y-72493333D01*
X140994761Y-72731428D02*
X141709047Y-72969523D01*
X141709047Y-72350476D01*
%TO.C,R33*%
X144582380Y-74302857D02*
X144106190Y-74636190D01*
X144582380Y-74874285D02*
X143582380Y-74874285D01*
X143582380Y-74493333D01*
X143630000Y-74398095D01*
X143677619Y-74350476D01*
X143772857Y-74302857D01*
X143915714Y-74302857D01*
X144010952Y-74350476D01*
X144058571Y-74398095D01*
X144106190Y-74493333D01*
X144106190Y-74874285D01*
X143582380Y-73969523D02*
X143582380Y-73350476D01*
X143963333Y-73683809D01*
X143963333Y-73540952D01*
X144010952Y-73445714D01*
X144058571Y-73398095D01*
X144153809Y-73350476D01*
X144391904Y-73350476D01*
X144487142Y-73398095D01*
X144534761Y-73445714D01*
X144582380Y-73540952D01*
X144582380Y-73826666D01*
X144534761Y-73921904D01*
X144487142Y-73969523D01*
X143582380Y-73017142D02*
X143582380Y-72398095D01*
X143963333Y-72731428D01*
X143963333Y-72588571D01*
X144010952Y-72493333D01*
X144058571Y-72445714D01*
X144153809Y-72398095D01*
X144391904Y-72398095D01*
X144487142Y-72445714D01*
X144534761Y-72493333D01*
X144582380Y-72588571D01*
X144582380Y-72874285D01*
X144534761Y-72969523D01*
X144487142Y-73017142D01*
%TO.C,R32*%
X129342380Y-74302857D02*
X128866190Y-74636190D01*
X129342380Y-74874285D02*
X128342380Y-74874285D01*
X128342380Y-74493333D01*
X128390000Y-74398095D01*
X128437619Y-74350476D01*
X128532857Y-74302857D01*
X128675714Y-74302857D01*
X128770952Y-74350476D01*
X128818571Y-74398095D01*
X128866190Y-74493333D01*
X128866190Y-74874285D01*
X128342380Y-73969523D02*
X128342380Y-73350476D01*
X128723333Y-73683809D01*
X128723333Y-73540952D01*
X128770952Y-73445714D01*
X128818571Y-73398095D01*
X128913809Y-73350476D01*
X129151904Y-73350476D01*
X129247142Y-73398095D01*
X129294761Y-73445714D01*
X129342380Y-73540952D01*
X129342380Y-73826666D01*
X129294761Y-73921904D01*
X129247142Y-73969523D01*
X128437619Y-72969523D02*
X128390000Y-72921904D01*
X128342380Y-72826666D01*
X128342380Y-72588571D01*
X128390000Y-72493333D01*
X128437619Y-72445714D01*
X128532857Y-72398095D01*
X128628095Y-72398095D01*
X128770952Y-72445714D01*
X129342380Y-73017142D01*
X129342380Y-72398095D01*
%TO.C,R31*%
X131882380Y-74302857D02*
X131406190Y-74636190D01*
X131882380Y-74874285D02*
X130882380Y-74874285D01*
X130882380Y-74493333D01*
X130930000Y-74398095D01*
X130977619Y-74350476D01*
X131072857Y-74302857D01*
X131215714Y-74302857D01*
X131310952Y-74350476D01*
X131358571Y-74398095D01*
X131406190Y-74493333D01*
X131406190Y-74874285D01*
X130882380Y-73969523D02*
X130882380Y-73350476D01*
X131263333Y-73683809D01*
X131263333Y-73540952D01*
X131310952Y-73445714D01*
X131358571Y-73398095D01*
X131453809Y-73350476D01*
X131691904Y-73350476D01*
X131787142Y-73398095D01*
X131834761Y-73445714D01*
X131882380Y-73540952D01*
X131882380Y-73826666D01*
X131834761Y-73921904D01*
X131787142Y-73969523D01*
X131882380Y-72398095D02*
X131882380Y-72969523D01*
X131882380Y-72683809D02*
X130882380Y-72683809D01*
X131025238Y-72779047D01*
X131120476Y-72874285D01*
X131168095Y-72969523D01*
%TO.C,R30*%
X134422380Y-74302857D02*
X133946190Y-74636190D01*
X134422380Y-74874285D02*
X133422380Y-74874285D01*
X133422380Y-74493333D01*
X133470000Y-74398095D01*
X133517619Y-74350476D01*
X133612857Y-74302857D01*
X133755714Y-74302857D01*
X133850952Y-74350476D01*
X133898571Y-74398095D01*
X133946190Y-74493333D01*
X133946190Y-74874285D01*
X133422380Y-73969523D02*
X133422380Y-73350476D01*
X133803333Y-73683809D01*
X133803333Y-73540952D01*
X133850952Y-73445714D01*
X133898571Y-73398095D01*
X133993809Y-73350476D01*
X134231904Y-73350476D01*
X134327142Y-73398095D01*
X134374761Y-73445714D01*
X134422380Y-73540952D01*
X134422380Y-73826666D01*
X134374761Y-73921904D01*
X134327142Y-73969523D01*
X133422380Y-72731428D02*
X133422380Y-72636190D01*
X133470000Y-72540952D01*
X133517619Y-72493333D01*
X133612857Y-72445714D01*
X133803333Y-72398095D01*
X134041428Y-72398095D01*
X134231904Y-72445714D01*
X134327142Y-72493333D01*
X134374761Y-72540952D01*
X134422380Y-72636190D01*
X134422380Y-72731428D01*
X134374761Y-72826666D01*
X134327142Y-72874285D01*
X134231904Y-72921904D01*
X134041428Y-72969523D01*
X133803333Y-72969523D01*
X133612857Y-72921904D01*
X133517619Y-72874285D01*
X133470000Y-72826666D01*
X133422380Y-72731428D01*
%TO.C,R29*%
X136962380Y-74302857D02*
X136486190Y-74636190D01*
X136962380Y-74874285D02*
X135962380Y-74874285D01*
X135962380Y-74493333D01*
X136010000Y-74398095D01*
X136057619Y-74350476D01*
X136152857Y-74302857D01*
X136295714Y-74302857D01*
X136390952Y-74350476D01*
X136438571Y-74398095D01*
X136486190Y-74493333D01*
X136486190Y-74874285D01*
X136057619Y-73921904D02*
X136010000Y-73874285D01*
X135962380Y-73779047D01*
X135962380Y-73540952D01*
X136010000Y-73445714D01*
X136057619Y-73398095D01*
X136152857Y-73350476D01*
X136248095Y-73350476D01*
X136390952Y-73398095D01*
X136962380Y-73969523D01*
X136962380Y-73350476D01*
X136962380Y-72874285D02*
X136962380Y-72683809D01*
X136914761Y-72588571D01*
X136867142Y-72540952D01*
X136724285Y-72445714D01*
X136533809Y-72398095D01*
X136152857Y-72398095D01*
X136057619Y-72445714D01*
X136010000Y-72493333D01*
X135962380Y-72588571D01*
X135962380Y-72779047D01*
X136010000Y-72874285D01*
X136057619Y-72921904D01*
X136152857Y-72969523D01*
X136390952Y-72969523D01*
X136486190Y-72921904D01*
X136533809Y-72874285D01*
X136581428Y-72779047D01*
X136581428Y-72588571D01*
X136533809Y-72493333D01*
X136486190Y-72445714D01*
X136390952Y-72398095D01*
%TO.C,R28*%
X139502380Y-74302857D02*
X139026190Y-74636190D01*
X139502380Y-74874285D02*
X138502380Y-74874285D01*
X138502380Y-74493333D01*
X138550000Y-74398095D01*
X138597619Y-74350476D01*
X138692857Y-74302857D01*
X138835714Y-74302857D01*
X138930952Y-74350476D01*
X138978571Y-74398095D01*
X139026190Y-74493333D01*
X139026190Y-74874285D01*
X138597619Y-73921904D02*
X138550000Y-73874285D01*
X138502380Y-73779047D01*
X138502380Y-73540952D01*
X138550000Y-73445714D01*
X138597619Y-73398095D01*
X138692857Y-73350476D01*
X138788095Y-73350476D01*
X138930952Y-73398095D01*
X139502380Y-73969523D01*
X139502380Y-73350476D01*
X138930952Y-72779047D02*
X138883333Y-72874285D01*
X138835714Y-72921904D01*
X138740476Y-72969523D01*
X138692857Y-72969523D01*
X138597619Y-72921904D01*
X138550000Y-72874285D01*
X138502380Y-72779047D01*
X138502380Y-72588571D01*
X138550000Y-72493333D01*
X138597619Y-72445714D01*
X138692857Y-72398095D01*
X138740476Y-72398095D01*
X138835714Y-72445714D01*
X138883333Y-72493333D01*
X138930952Y-72588571D01*
X138930952Y-72779047D01*
X138978571Y-72874285D01*
X139026190Y-72921904D01*
X139121428Y-72969523D01*
X139311904Y-72969523D01*
X139407142Y-72921904D01*
X139454761Y-72874285D01*
X139502380Y-72779047D01*
X139502380Y-72588571D01*
X139454761Y-72493333D01*
X139407142Y-72445714D01*
X139311904Y-72398095D01*
X139121428Y-72398095D01*
X139026190Y-72445714D01*
X138978571Y-72493333D01*
X138930952Y-72588571D01*
%TO.C,R27*%
X171887380Y-74302857D02*
X171411190Y-74636190D01*
X171887380Y-74874285D02*
X170887380Y-74874285D01*
X170887380Y-74493333D01*
X170935000Y-74398095D01*
X170982619Y-74350476D01*
X171077857Y-74302857D01*
X171220714Y-74302857D01*
X171315952Y-74350476D01*
X171363571Y-74398095D01*
X171411190Y-74493333D01*
X171411190Y-74874285D01*
X170982619Y-73921904D02*
X170935000Y-73874285D01*
X170887380Y-73779047D01*
X170887380Y-73540952D01*
X170935000Y-73445714D01*
X170982619Y-73398095D01*
X171077857Y-73350476D01*
X171173095Y-73350476D01*
X171315952Y-73398095D01*
X171887380Y-73969523D01*
X171887380Y-73350476D01*
X170887380Y-73017142D02*
X170887380Y-72350476D01*
X171887380Y-72779047D01*
%TO.C,R26*%
X174427380Y-74302857D02*
X173951190Y-74636190D01*
X174427380Y-74874285D02*
X173427380Y-74874285D01*
X173427380Y-74493333D01*
X173475000Y-74398095D01*
X173522619Y-74350476D01*
X173617857Y-74302857D01*
X173760714Y-74302857D01*
X173855952Y-74350476D01*
X173903571Y-74398095D01*
X173951190Y-74493333D01*
X173951190Y-74874285D01*
X173522619Y-73921904D02*
X173475000Y-73874285D01*
X173427380Y-73779047D01*
X173427380Y-73540952D01*
X173475000Y-73445714D01*
X173522619Y-73398095D01*
X173617857Y-73350476D01*
X173713095Y-73350476D01*
X173855952Y-73398095D01*
X174427380Y-73969523D01*
X174427380Y-73350476D01*
X173427380Y-72493333D02*
X173427380Y-72683809D01*
X173475000Y-72779047D01*
X173522619Y-72826666D01*
X173665476Y-72921904D01*
X173855952Y-72969523D01*
X174236904Y-72969523D01*
X174332142Y-72921904D01*
X174379761Y-72874285D01*
X174427380Y-72779047D01*
X174427380Y-72588571D01*
X174379761Y-72493333D01*
X174332142Y-72445714D01*
X174236904Y-72398095D01*
X173998809Y-72398095D01*
X173903571Y-72445714D01*
X173855952Y-72493333D01*
X173808333Y-72588571D01*
X173808333Y-72779047D01*
X173855952Y-72874285D01*
X173903571Y-72921904D01*
X173998809Y-72969523D01*
%TO.C,R25*%
X159187380Y-74302857D02*
X158711190Y-74636190D01*
X159187380Y-74874285D02*
X158187380Y-74874285D01*
X158187380Y-74493333D01*
X158235000Y-74398095D01*
X158282619Y-74350476D01*
X158377857Y-74302857D01*
X158520714Y-74302857D01*
X158615952Y-74350476D01*
X158663571Y-74398095D01*
X158711190Y-74493333D01*
X158711190Y-74874285D01*
X158282619Y-73921904D02*
X158235000Y-73874285D01*
X158187380Y-73779047D01*
X158187380Y-73540952D01*
X158235000Y-73445714D01*
X158282619Y-73398095D01*
X158377857Y-73350476D01*
X158473095Y-73350476D01*
X158615952Y-73398095D01*
X159187380Y-73969523D01*
X159187380Y-73350476D01*
X158187380Y-72445714D02*
X158187380Y-72921904D01*
X158663571Y-72969523D01*
X158615952Y-72921904D01*
X158568333Y-72826666D01*
X158568333Y-72588571D01*
X158615952Y-72493333D01*
X158663571Y-72445714D01*
X158758809Y-72398095D01*
X158996904Y-72398095D01*
X159092142Y-72445714D01*
X159139761Y-72493333D01*
X159187380Y-72588571D01*
X159187380Y-72826666D01*
X159139761Y-72921904D01*
X159092142Y-72969523D01*
%TO.C,R24*%
X161727380Y-74302857D02*
X161251190Y-74636190D01*
X161727380Y-74874285D02*
X160727380Y-74874285D01*
X160727380Y-74493333D01*
X160775000Y-74398095D01*
X160822619Y-74350476D01*
X160917857Y-74302857D01*
X161060714Y-74302857D01*
X161155952Y-74350476D01*
X161203571Y-74398095D01*
X161251190Y-74493333D01*
X161251190Y-74874285D01*
X160822619Y-73921904D02*
X160775000Y-73874285D01*
X160727380Y-73779047D01*
X160727380Y-73540952D01*
X160775000Y-73445714D01*
X160822619Y-73398095D01*
X160917857Y-73350476D01*
X161013095Y-73350476D01*
X161155952Y-73398095D01*
X161727380Y-73969523D01*
X161727380Y-73350476D01*
X161060714Y-72493333D02*
X161727380Y-72493333D01*
X160679761Y-72731428D02*
X161394047Y-72969523D01*
X161394047Y-72350476D01*
%TO.C,R23*%
X164267380Y-74302857D02*
X163791190Y-74636190D01*
X164267380Y-74874285D02*
X163267380Y-74874285D01*
X163267380Y-74493333D01*
X163315000Y-74398095D01*
X163362619Y-74350476D01*
X163457857Y-74302857D01*
X163600714Y-74302857D01*
X163695952Y-74350476D01*
X163743571Y-74398095D01*
X163791190Y-74493333D01*
X163791190Y-74874285D01*
X163362619Y-73921904D02*
X163315000Y-73874285D01*
X163267380Y-73779047D01*
X163267380Y-73540952D01*
X163315000Y-73445714D01*
X163362619Y-73398095D01*
X163457857Y-73350476D01*
X163553095Y-73350476D01*
X163695952Y-73398095D01*
X164267380Y-73969523D01*
X164267380Y-73350476D01*
X163267380Y-73017142D02*
X163267380Y-72398095D01*
X163648333Y-72731428D01*
X163648333Y-72588571D01*
X163695952Y-72493333D01*
X163743571Y-72445714D01*
X163838809Y-72398095D01*
X164076904Y-72398095D01*
X164172142Y-72445714D01*
X164219761Y-72493333D01*
X164267380Y-72588571D01*
X164267380Y-72874285D01*
X164219761Y-72969523D01*
X164172142Y-73017142D01*
%TO.C,R22*%
X166807380Y-74302857D02*
X166331190Y-74636190D01*
X166807380Y-74874285D02*
X165807380Y-74874285D01*
X165807380Y-74493333D01*
X165855000Y-74398095D01*
X165902619Y-74350476D01*
X165997857Y-74302857D01*
X166140714Y-74302857D01*
X166235952Y-74350476D01*
X166283571Y-74398095D01*
X166331190Y-74493333D01*
X166331190Y-74874285D01*
X165902619Y-73921904D02*
X165855000Y-73874285D01*
X165807380Y-73779047D01*
X165807380Y-73540952D01*
X165855000Y-73445714D01*
X165902619Y-73398095D01*
X165997857Y-73350476D01*
X166093095Y-73350476D01*
X166235952Y-73398095D01*
X166807380Y-73969523D01*
X166807380Y-73350476D01*
X165902619Y-72969523D02*
X165855000Y-72921904D01*
X165807380Y-72826666D01*
X165807380Y-72588571D01*
X165855000Y-72493333D01*
X165902619Y-72445714D01*
X165997857Y-72398095D01*
X166093095Y-72398095D01*
X166235952Y-72445714D01*
X166807380Y-73017142D01*
X166807380Y-72398095D01*
%TO.C,R21*%
X169347380Y-74302857D02*
X168871190Y-74636190D01*
X169347380Y-74874285D02*
X168347380Y-74874285D01*
X168347380Y-74493333D01*
X168395000Y-74398095D01*
X168442619Y-74350476D01*
X168537857Y-74302857D01*
X168680714Y-74302857D01*
X168775952Y-74350476D01*
X168823571Y-74398095D01*
X168871190Y-74493333D01*
X168871190Y-74874285D01*
X168442619Y-73921904D02*
X168395000Y-73874285D01*
X168347380Y-73779047D01*
X168347380Y-73540952D01*
X168395000Y-73445714D01*
X168442619Y-73398095D01*
X168537857Y-73350476D01*
X168633095Y-73350476D01*
X168775952Y-73398095D01*
X169347380Y-73969523D01*
X169347380Y-73350476D01*
X169347380Y-72398095D02*
X169347380Y-72969523D01*
X169347380Y-72683809D02*
X168347380Y-72683809D01*
X168490238Y-72779047D01*
X168585476Y-72874285D01*
X168633095Y-72969523D01*
%TO.C,R20*%
X201097380Y-74302857D02*
X200621190Y-74636190D01*
X201097380Y-74874285D02*
X200097380Y-74874285D01*
X200097380Y-74493333D01*
X200145000Y-74398095D01*
X200192619Y-74350476D01*
X200287857Y-74302857D01*
X200430714Y-74302857D01*
X200525952Y-74350476D01*
X200573571Y-74398095D01*
X200621190Y-74493333D01*
X200621190Y-74874285D01*
X200192619Y-73921904D02*
X200145000Y-73874285D01*
X200097380Y-73779047D01*
X200097380Y-73540952D01*
X200145000Y-73445714D01*
X200192619Y-73398095D01*
X200287857Y-73350476D01*
X200383095Y-73350476D01*
X200525952Y-73398095D01*
X201097380Y-73969523D01*
X201097380Y-73350476D01*
X200097380Y-72731428D02*
X200097380Y-72636190D01*
X200145000Y-72540952D01*
X200192619Y-72493333D01*
X200287857Y-72445714D01*
X200478333Y-72398095D01*
X200716428Y-72398095D01*
X200906904Y-72445714D01*
X201002142Y-72493333D01*
X201049761Y-72540952D01*
X201097380Y-72636190D01*
X201097380Y-72731428D01*
X201049761Y-72826666D01*
X201002142Y-72874285D01*
X200906904Y-72921904D01*
X200716428Y-72969523D01*
X200478333Y-72969523D01*
X200287857Y-72921904D01*
X200192619Y-72874285D01*
X200145000Y-72826666D01*
X200097380Y-72731428D01*
%TO.C,R19*%
X203637380Y-74302857D02*
X203161190Y-74636190D01*
X203637380Y-74874285D02*
X202637380Y-74874285D01*
X202637380Y-74493333D01*
X202685000Y-74398095D01*
X202732619Y-74350476D01*
X202827857Y-74302857D01*
X202970714Y-74302857D01*
X203065952Y-74350476D01*
X203113571Y-74398095D01*
X203161190Y-74493333D01*
X203161190Y-74874285D01*
X203637380Y-73350476D02*
X203637380Y-73921904D01*
X203637380Y-73636190D02*
X202637380Y-73636190D01*
X202780238Y-73731428D01*
X202875476Y-73826666D01*
X202923095Y-73921904D01*
X203637380Y-72874285D02*
X203637380Y-72683809D01*
X203589761Y-72588571D01*
X203542142Y-72540952D01*
X203399285Y-72445714D01*
X203208809Y-72398095D01*
X202827857Y-72398095D01*
X202732619Y-72445714D01*
X202685000Y-72493333D01*
X202637380Y-72588571D01*
X202637380Y-72779047D01*
X202685000Y-72874285D01*
X202732619Y-72921904D01*
X202827857Y-72969523D01*
X203065952Y-72969523D01*
X203161190Y-72921904D01*
X203208809Y-72874285D01*
X203256428Y-72779047D01*
X203256428Y-72588571D01*
X203208809Y-72493333D01*
X203161190Y-72445714D01*
X203065952Y-72398095D01*
%TO.C,R18*%
X190952380Y-80652857D02*
X190476190Y-80986190D01*
X190952380Y-81224285D02*
X189952380Y-81224285D01*
X189952380Y-80843333D01*
X190000000Y-80748095D01*
X190047619Y-80700476D01*
X190142857Y-80652857D01*
X190285714Y-80652857D01*
X190380952Y-80700476D01*
X190428571Y-80748095D01*
X190476190Y-80843333D01*
X190476190Y-81224285D01*
X190952380Y-79700476D02*
X190952380Y-80271904D01*
X190952380Y-79986190D02*
X189952380Y-79986190D01*
X190095238Y-80081428D01*
X190190476Y-80176666D01*
X190238095Y-80271904D01*
X190380952Y-79129047D02*
X190333333Y-79224285D01*
X190285714Y-79271904D01*
X190190476Y-79319523D01*
X190142857Y-79319523D01*
X190047619Y-79271904D01*
X190000000Y-79224285D01*
X189952380Y-79129047D01*
X189952380Y-78938571D01*
X190000000Y-78843333D01*
X190047619Y-78795714D01*
X190142857Y-78748095D01*
X190190476Y-78748095D01*
X190285714Y-78795714D01*
X190333333Y-78843333D01*
X190380952Y-78938571D01*
X190380952Y-79129047D01*
X190428571Y-79224285D01*
X190476190Y-79271904D01*
X190571428Y-79319523D01*
X190761904Y-79319523D01*
X190857142Y-79271904D01*
X190904761Y-79224285D01*
X190952380Y-79129047D01*
X190952380Y-78938571D01*
X190904761Y-78843333D01*
X190857142Y-78795714D01*
X190761904Y-78748095D01*
X190571428Y-78748095D01*
X190476190Y-78795714D01*
X190428571Y-78843333D01*
X190380952Y-78938571D01*
%TO.C,R17*%
X192857380Y-80652857D02*
X192381190Y-80986190D01*
X192857380Y-81224285D02*
X191857380Y-81224285D01*
X191857380Y-80843333D01*
X191905000Y-80748095D01*
X191952619Y-80700476D01*
X192047857Y-80652857D01*
X192190714Y-80652857D01*
X192285952Y-80700476D01*
X192333571Y-80748095D01*
X192381190Y-80843333D01*
X192381190Y-81224285D01*
X192857380Y-79700476D02*
X192857380Y-80271904D01*
X192857380Y-79986190D02*
X191857380Y-79986190D01*
X192000238Y-80081428D01*
X192095476Y-80176666D01*
X192143095Y-80271904D01*
X191857380Y-79367142D02*
X191857380Y-78700476D01*
X192857380Y-79129047D01*
%TO.C,R16*%
X194762380Y-80652857D02*
X194286190Y-80986190D01*
X194762380Y-81224285D02*
X193762380Y-81224285D01*
X193762380Y-80843333D01*
X193810000Y-80748095D01*
X193857619Y-80700476D01*
X193952857Y-80652857D01*
X194095714Y-80652857D01*
X194190952Y-80700476D01*
X194238571Y-80748095D01*
X194286190Y-80843333D01*
X194286190Y-81224285D01*
X194762380Y-79700476D02*
X194762380Y-80271904D01*
X194762380Y-79986190D02*
X193762380Y-79986190D01*
X193905238Y-80081428D01*
X194000476Y-80176666D01*
X194048095Y-80271904D01*
X193762380Y-78843333D02*
X193762380Y-79033809D01*
X193810000Y-79129047D01*
X193857619Y-79176666D01*
X194000476Y-79271904D01*
X194190952Y-79319523D01*
X194571904Y-79319523D01*
X194667142Y-79271904D01*
X194714761Y-79224285D01*
X194762380Y-79129047D01*
X194762380Y-78938571D01*
X194714761Y-78843333D01*
X194667142Y-78795714D01*
X194571904Y-78748095D01*
X194333809Y-78748095D01*
X194238571Y-78795714D01*
X194190952Y-78843333D01*
X194143333Y-78938571D01*
X194143333Y-79129047D01*
X194190952Y-79224285D01*
X194238571Y-79271904D01*
X194333809Y-79319523D01*
%TO.C,R15*%
X196667380Y-80652857D02*
X196191190Y-80986190D01*
X196667380Y-81224285D02*
X195667380Y-81224285D01*
X195667380Y-80843333D01*
X195715000Y-80748095D01*
X195762619Y-80700476D01*
X195857857Y-80652857D01*
X196000714Y-80652857D01*
X196095952Y-80700476D01*
X196143571Y-80748095D01*
X196191190Y-80843333D01*
X196191190Y-81224285D01*
X196667380Y-79700476D02*
X196667380Y-80271904D01*
X196667380Y-79986190D02*
X195667380Y-79986190D01*
X195810238Y-80081428D01*
X195905476Y-80176666D01*
X195953095Y-80271904D01*
X195667380Y-78795714D02*
X195667380Y-79271904D01*
X196143571Y-79319523D01*
X196095952Y-79271904D01*
X196048333Y-79176666D01*
X196048333Y-78938571D01*
X196095952Y-78843333D01*
X196143571Y-78795714D01*
X196238809Y-78748095D01*
X196476904Y-78748095D01*
X196572142Y-78795714D01*
X196619761Y-78843333D01*
X196667380Y-78938571D01*
X196667380Y-79176666D01*
X196619761Y-79271904D01*
X196572142Y-79319523D01*
%TO.C,R14*%
X198557380Y-74302857D02*
X198081190Y-74636190D01*
X198557380Y-74874285D02*
X197557380Y-74874285D01*
X197557380Y-74493333D01*
X197605000Y-74398095D01*
X197652619Y-74350476D01*
X197747857Y-74302857D01*
X197890714Y-74302857D01*
X197985952Y-74350476D01*
X198033571Y-74398095D01*
X198081190Y-74493333D01*
X198081190Y-74874285D01*
X198557380Y-73350476D02*
X198557380Y-73921904D01*
X198557380Y-73636190D02*
X197557380Y-73636190D01*
X197700238Y-73731428D01*
X197795476Y-73826666D01*
X197843095Y-73921904D01*
X197890714Y-72493333D02*
X198557380Y-72493333D01*
X197509761Y-72731428D02*
X198224047Y-72969523D01*
X198224047Y-72350476D01*
%TO.C,R13*%
X230942380Y-74302857D02*
X230466190Y-74636190D01*
X230942380Y-74874285D02*
X229942380Y-74874285D01*
X229942380Y-74493333D01*
X229990000Y-74398095D01*
X230037619Y-74350476D01*
X230132857Y-74302857D01*
X230275714Y-74302857D01*
X230370952Y-74350476D01*
X230418571Y-74398095D01*
X230466190Y-74493333D01*
X230466190Y-74874285D01*
X230942380Y-73350476D02*
X230942380Y-73921904D01*
X230942380Y-73636190D02*
X229942380Y-73636190D01*
X230085238Y-73731428D01*
X230180476Y-73826666D01*
X230228095Y-73921904D01*
X229942380Y-73017142D02*
X229942380Y-72398095D01*
X230323333Y-72731428D01*
X230323333Y-72588571D01*
X230370952Y-72493333D01*
X230418571Y-72445714D01*
X230513809Y-72398095D01*
X230751904Y-72398095D01*
X230847142Y-72445714D01*
X230894761Y-72493333D01*
X230942380Y-72588571D01*
X230942380Y-72874285D01*
X230894761Y-72969523D01*
X230847142Y-73017142D01*
%TO.C,R12*%
X233482380Y-74302857D02*
X233006190Y-74636190D01*
X233482380Y-74874285D02*
X232482380Y-74874285D01*
X232482380Y-74493333D01*
X232530000Y-74398095D01*
X232577619Y-74350476D01*
X232672857Y-74302857D01*
X232815714Y-74302857D01*
X232910952Y-74350476D01*
X232958571Y-74398095D01*
X233006190Y-74493333D01*
X233006190Y-74874285D01*
X233482380Y-73350476D02*
X233482380Y-73921904D01*
X233482380Y-73636190D02*
X232482380Y-73636190D01*
X232625238Y-73731428D01*
X232720476Y-73826666D01*
X232768095Y-73921904D01*
X232577619Y-72969523D02*
X232530000Y-72921904D01*
X232482380Y-72826666D01*
X232482380Y-72588571D01*
X232530000Y-72493333D01*
X232577619Y-72445714D01*
X232672857Y-72398095D01*
X232768095Y-72398095D01*
X232910952Y-72445714D01*
X233482380Y-73017142D01*
X233482380Y-72398095D01*
%TO.C,R11*%
X218242380Y-74302857D02*
X217766190Y-74636190D01*
X218242380Y-74874285D02*
X217242380Y-74874285D01*
X217242380Y-74493333D01*
X217290000Y-74398095D01*
X217337619Y-74350476D01*
X217432857Y-74302857D01*
X217575714Y-74302857D01*
X217670952Y-74350476D01*
X217718571Y-74398095D01*
X217766190Y-74493333D01*
X217766190Y-74874285D01*
X218242380Y-73350476D02*
X218242380Y-73921904D01*
X218242380Y-73636190D02*
X217242380Y-73636190D01*
X217385238Y-73731428D01*
X217480476Y-73826666D01*
X217528095Y-73921904D01*
X218242380Y-72398095D02*
X218242380Y-72969523D01*
X218242380Y-72683809D02*
X217242380Y-72683809D01*
X217385238Y-72779047D01*
X217480476Y-72874285D01*
X217528095Y-72969523D01*
%TO.C,R10*%
X220782380Y-74302857D02*
X220306190Y-74636190D01*
X220782380Y-74874285D02*
X219782380Y-74874285D01*
X219782380Y-74493333D01*
X219830000Y-74398095D01*
X219877619Y-74350476D01*
X219972857Y-74302857D01*
X220115714Y-74302857D01*
X220210952Y-74350476D01*
X220258571Y-74398095D01*
X220306190Y-74493333D01*
X220306190Y-74874285D01*
X220782380Y-73350476D02*
X220782380Y-73921904D01*
X220782380Y-73636190D02*
X219782380Y-73636190D01*
X219925238Y-73731428D01*
X220020476Y-73826666D01*
X220068095Y-73921904D01*
X219782380Y-72731428D02*
X219782380Y-72636190D01*
X219830000Y-72540952D01*
X219877619Y-72493333D01*
X219972857Y-72445714D01*
X220163333Y-72398095D01*
X220401428Y-72398095D01*
X220591904Y-72445714D01*
X220687142Y-72493333D01*
X220734761Y-72540952D01*
X220782380Y-72636190D01*
X220782380Y-72731428D01*
X220734761Y-72826666D01*
X220687142Y-72874285D01*
X220591904Y-72921904D01*
X220401428Y-72969523D01*
X220163333Y-72969523D01*
X219972857Y-72921904D01*
X219877619Y-72874285D01*
X219830000Y-72826666D01*
X219782380Y-72731428D01*
%TO.C,R9*%
X223322380Y-73826666D02*
X222846190Y-74160000D01*
X223322380Y-74398095D02*
X222322380Y-74398095D01*
X222322380Y-74017142D01*
X222370000Y-73921904D01*
X222417619Y-73874285D01*
X222512857Y-73826666D01*
X222655714Y-73826666D01*
X222750952Y-73874285D01*
X222798571Y-73921904D01*
X222846190Y-74017142D01*
X222846190Y-74398095D01*
X223322380Y-73350476D02*
X223322380Y-73160000D01*
X223274761Y-73064761D01*
X223227142Y-73017142D01*
X223084285Y-72921904D01*
X222893809Y-72874285D01*
X222512857Y-72874285D01*
X222417619Y-72921904D01*
X222370000Y-72969523D01*
X222322380Y-73064761D01*
X222322380Y-73255238D01*
X222370000Y-73350476D01*
X222417619Y-73398095D01*
X222512857Y-73445714D01*
X222750952Y-73445714D01*
X222846190Y-73398095D01*
X222893809Y-73350476D01*
X222941428Y-73255238D01*
X222941428Y-73064761D01*
X222893809Y-72969523D01*
X222846190Y-72921904D01*
X222750952Y-72874285D01*
%TO.C,R8*%
X225862380Y-73826666D02*
X225386190Y-74160000D01*
X225862380Y-74398095D02*
X224862380Y-74398095D01*
X224862380Y-74017142D01*
X224910000Y-73921904D01*
X224957619Y-73874285D01*
X225052857Y-73826666D01*
X225195714Y-73826666D01*
X225290952Y-73874285D01*
X225338571Y-73921904D01*
X225386190Y-74017142D01*
X225386190Y-74398095D01*
X225290952Y-73255238D02*
X225243333Y-73350476D01*
X225195714Y-73398095D01*
X225100476Y-73445714D01*
X225052857Y-73445714D01*
X224957619Y-73398095D01*
X224910000Y-73350476D01*
X224862380Y-73255238D01*
X224862380Y-73064761D01*
X224910000Y-72969523D01*
X224957619Y-72921904D01*
X225052857Y-72874285D01*
X225100476Y-72874285D01*
X225195714Y-72921904D01*
X225243333Y-72969523D01*
X225290952Y-73064761D01*
X225290952Y-73255238D01*
X225338571Y-73350476D01*
X225386190Y-73398095D01*
X225481428Y-73445714D01*
X225671904Y-73445714D01*
X225767142Y-73398095D01*
X225814761Y-73350476D01*
X225862380Y-73255238D01*
X225862380Y-73064761D01*
X225814761Y-72969523D01*
X225767142Y-72921904D01*
X225671904Y-72874285D01*
X225481428Y-72874285D01*
X225386190Y-72921904D01*
X225338571Y-72969523D01*
X225290952Y-73064761D01*
%TO.C,R7*%
X228402380Y-73826666D02*
X227926190Y-74160000D01*
X228402380Y-74398095D02*
X227402380Y-74398095D01*
X227402380Y-74017142D01*
X227450000Y-73921904D01*
X227497619Y-73874285D01*
X227592857Y-73826666D01*
X227735714Y-73826666D01*
X227830952Y-73874285D01*
X227878571Y-73921904D01*
X227926190Y-74017142D01*
X227926190Y-74398095D01*
X227402380Y-73493333D02*
X227402380Y-72826666D01*
X228402380Y-73255238D01*
%TO.C,R6*%
X181412380Y-73826666D02*
X180936190Y-74160000D01*
X181412380Y-74398095D02*
X180412380Y-74398095D01*
X180412380Y-74017142D01*
X180460000Y-73921904D01*
X180507619Y-73874285D01*
X180602857Y-73826666D01*
X180745714Y-73826666D01*
X180840952Y-73874285D01*
X180888571Y-73921904D01*
X180936190Y-74017142D01*
X180936190Y-74398095D01*
X180412380Y-72969523D02*
X180412380Y-73160000D01*
X180460000Y-73255238D01*
X180507619Y-73302857D01*
X180650476Y-73398095D01*
X180840952Y-73445714D01*
X181221904Y-73445714D01*
X181317142Y-73398095D01*
X181364761Y-73350476D01*
X181412380Y-73255238D01*
X181412380Y-73064761D01*
X181364761Y-72969523D01*
X181317142Y-72921904D01*
X181221904Y-72874285D01*
X180983809Y-72874285D01*
X180888571Y-72921904D01*
X180840952Y-72969523D01*
X180793333Y-73064761D01*
X180793333Y-73255238D01*
X180840952Y-73350476D01*
X180888571Y-73398095D01*
X180983809Y-73445714D01*
%TO.C,R5*%
X154772380Y-91951666D02*
X154296190Y-92285000D01*
X154772380Y-92523095D02*
X153772380Y-92523095D01*
X153772380Y-92142142D01*
X153820000Y-92046904D01*
X153867619Y-91999285D01*
X153962857Y-91951666D01*
X154105714Y-91951666D01*
X154200952Y-91999285D01*
X154248571Y-92046904D01*
X154296190Y-92142142D01*
X154296190Y-92523095D01*
X153772380Y-91046904D02*
X153772380Y-91523095D01*
X154248571Y-91570714D01*
X154200952Y-91523095D01*
X154153333Y-91427857D01*
X154153333Y-91189761D01*
X154200952Y-91094523D01*
X154248571Y-91046904D01*
X154343809Y-90999285D01*
X154581904Y-90999285D01*
X154677142Y-91046904D01*
X154724761Y-91094523D01*
X154772380Y-91189761D01*
X154772380Y-91427857D01*
X154724761Y-91523095D01*
X154677142Y-91570714D01*
%TO.C,R4*%
X216367380Y-91951666D02*
X215891190Y-92285000D01*
X216367380Y-92523095D02*
X215367380Y-92523095D01*
X215367380Y-92142142D01*
X215415000Y-92046904D01*
X215462619Y-91999285D01*
X215557857Y-91951666D01*
X215700714Y-91951666D01*
X215795952Y-91999285D01*
X215843571Y-92046904D01*
X215891190Y-92142142D01*
X215891190Y-92523095D01*
X215700714Y-91094523D02*
X216367380Y-91094523D01*
X215319761Y-91332619D02*
X216034047Y-91570714D01*
X216034047Y-90951666D01*
%TO.C,R2*%
X150328333Y-49997380D02*
X149995000Y-49521190D01*
X149756904Y-49997380D02*
X149756904Y-48997380D01*
X150137857Y-48997380D01*
X150233095Y-49045000D01*
X150280714Y-49092619D01*
X150328333Y-49187857D01*
X150328333Y-49330714D01*
X150280714Y-49425952D01*
X150233095Y-49473571D01*
X150137857Y-49521190D01*
X149756904Y-49521190D01*
X150709285Y-49092619D02*
X150756904Y-49045000D01*
X150852142Y-48997380D01*
X151090238Y-48997380D01*
X151185476Y-49045000D01*
X151233095Y-49092619D01*
X151280714Y-49187857D01*
X151280714Y-49283095D01*
X151233095Y-49425952D01*
X150661666Y-49997380D01*
X151280714Y-49997380D01*
%TO.C,R1*%
X161758333Y-49997380D02*
X161425000Y-49521190D01*
X161186904Y-49997380D02*
X161186904Y-48997380D01*
X161567857Y-48997380D01*
X161663095Y-49045000D01*
X161710714Y-49092619D01*
X161758333Y-49187857D01*
X161758333Y-49330714D01*
X161710714Y-49425952D01*
X161663095Y-49473571D01*
X161567857Y-49521190D01*
X161186904Y-49521190D01*
X162710714Y-49997380D02*
X162139285Y-49997380D01*
X162425000Y-49997380D02*
X162425000Y-48997380D01*
X162329761Y-49140238D01*
X162234523Y-49235476D01*
X162139285Y-49283095D01*
%TO.C,J1*%
X141452380Y-40973333D02*
X142166666Y-40973333D01*
X142309523Y-41020952D01*
X142404761Y-41116190D01*
X142452380Y-41259047D01*
X142452380Y-41354285D01*
X142452380Y-39973333D02*
X142452380Y-40544761D01*
X142452380Y-40259047D02*
X141452380Y-40259047D01*
X141595238Y-40354285D01*
X141690476Y-40449523D01*
X141738095Y-40544761D01*
%TO.C,C15*%
X205752142Y-30547142D02*
X205704523Y-30594761D01*
X205561666Y-30642380D01*
X205466428Y-30642380D01*
X205323571Y-30594761D01*
X205228333Y-30499523D01*
X205180714Y-30404285D01*
X205133095Y-30213809D01*
X205133095Y-30070952D01*
X205180714Y-29880476D01*
X205228333Y-29785238D01*
X205323571Y-29690000D01*
X205466428Y-29642380D01*
X205561666Y-29642380D01*
X205704523Y-29690000D01*
X205752142Y-29737619D01*
X206704523Y-30642380D02*
X206133095Y-30642380D01*
X206418809Y-30642380D02*
X206418809Y-29642380D01*
X206323571Y-29785238D01*
X206228333Y-29880476D01*
X206133095Y-29928095D01*
X207609285Y-29642380D02*
X207133095Y-29642380D01*
X207085476Y-30118571D01*
X207133095Y-30070952D01*
X207228333Y-30023333D01*
X207466428Y-30023333D01*
X207561666Y-30070952D01*
X207609285Y-30118571D01*
X207656904Y-30213809D01*
X207656904Y-30451904D01*
X207609285Y-30547142D01*
X207561666Y-30594761D01*
X207466428Y-30642380D01*
X207228333Y-30642380D01*
X207133095Y-30594761D01*
X207085476Y-30547142D01*
%TO.C,C14*%
X150507142Y-62892857D02*
X150554761Y-62940476D01*
X150602380Y-63083333D01*
X150602380Y-63178571D01*
X150554761Y-63321428D01*
X150459523Y-63416666D01*
X150364285Y-63464285D01*
X150173809Y-63511904D01*
X150030952Y-63511904D01*
X149840476Y-63464285D01*
X149745238Y-63416666D01*
X149650000Y-63321428D01*
X149602380Y-63178571D01*
X149602380Y-63083333D01*
X149650000Y-62940476D01*
X149697619Y-62892857D01*
X150602380Y-61940476D02*
X150602380Y-62511904D01*
X150602380Y-62226190D02*
X149602380Y-62226190D01*
X149745238Y-62321428D01*
X149840476Y-62416666D01*
X149888095Y-62511904D01*
X149935714Y-61083333D02*
X150602380Y-61083333D01*
X149554761Y-61321428D02*
X150269047Y-61559523D01*
X150269047Y-60940476D01*
%TO.C,C13*%
X180352142Y-62892857D02*
X180399761Y-62940476D01*
X180447380Y-63083333D01*
X180447380Y-63178571D01*
X180399761Y-63321428D01*
X180304523Y-63416666D01*
X180209285Y-63464285D01*
X180018809Y-63511904D01*
X179875952Y-63511904D01*
X179685476Y-63464285D01*
X179590238Y-63416666D01*
X179495000Y-63321428D01*
X179447380Y-63178571D01*
X179447380Y-63083333D01*
X179495000Y-62940476D01*
X179542619Y-62892857D01*
X180447380Y-61940476D02*
X180447380Y-62511904D01*
X180447380Y-62226190D02*
X179447380Y-62226190D01*
X179590238Y-62321428D01*
X179685476Y-62416666D01*
X179733095Y-62511904D01*
X179447380Y-61607142D02*
X179447380Y-60988095D01*
X179828333Y-61321428D01*
X179828333Y-61178571D01*
X179875952Y-61083333D01*
X179923571Y-61035714D01*
X180018809Y-60988095D01*
X180256904Y-60988095D01*
X180352142Y-61035714D01*
X180399761Y-61083333D01*
X180447380Y-61178571D01*
X180447380Y-61464285D01*
X180399761Y-61559523D01*
X180352142Y-61607142D01*
%TO.C,C12*%
X209562142Y-62892857D02*
X209609761Y-62940476D01*
X209657380Y-63083333D01*
X209657380Y-63178571D01*
X209609761Y-63321428D01*
X209514523Y-63416666D01*
X209419285Y-63464285D01*
X209228809Y-63511904D01*
X209085952Y-63511904D01*
X208895476Y-63464285D01*
X208800238Y-63416666D01*
X208705000Y-63321428D01*
X208657380Y-63178571D01*
X208657380Y-63083333D01*
X208705000Y-62940476D01*
X208752619Y-62892857D01*
X209657380Y-61940476D02*
X209657380Y-62511904D01*
X209657380Y-62226190D02*
X208657380Y-62226190D01*
X208800238Y-62321428D01*
X208895476Y-62416666D01*
X208943095Y-62511904D01*
X208752619Y-61559523D02*
X208705000Y-61511904D01*
X208657380Y-61416666D01*
X208657380Y-61178571D01*
X208705000Y-61083333D01*
X208752619Y-61035714D01*
X208847857Y-60988095D01*
X208943095Y-60988095D01*
X209085952Y-61035714D01*
X209657380Y-61607142D01*
X209657380Y-60988095D01*
%TO.C,C11*%
X239407142Y-62892857D02*
X239454761Y-62940476D01*
X239502380Y-63083333D01*
X239502380Y-63178571D01*
X239454761Y-63321428D01*
X239359523Y-63416666D01*
X239264285Y-63464285D01*
X239073809Y-63511904D01*
X238930952Y-63511904D01*
X238740476Y-63464285D01*
X238645238Y-63416666D01*
X238550000Y-63321428D01*
X238502380Y-63178571D01*
X238502380Y-63083333D01*
X238550000Y-62940476D01*
X238597619Y-62892857D01*
X239502380Y-61940476D02*
X239502380Y-62511904D01*
X239502380Y-62226190D02*
X238502380Y-62226190D01*
X238645238Y-62321428D01*
X238740476Y-62416666D01*
X238788095Y-62511904D01*
X239502380Y-60988095D02*
X239502380Y-61559523D01*
X239502380Y-61273809D02*
X238502380Y-61273809D01*
X238645238Y-61369047D01*
X238740476Y-61464285D01*
X238788095Y-61559523D01*
%TO.C,C10*%
X174637142Y-30547142D02*
X174589523Y-30594761D01*
X174446666Y-30642380D01*
X174351428Y-30642380D01*
X174208571Y-30594761D01*
X174113333Y-30499523D01*
X174065714Y-30404285D01*
X174018095Y-30213809D01*
X174018095Y-30070952D01*
X174065714Y-29880476D01*
X174113333Y-29785238D01*
X174208571Y-29690000D01*
X174351428Y-29642380D01*
X174446666Y-29642380D01*
X174589523Y-29690000D01*
X174637142Y-29737619D01*
X175589523Y-30642380D02*
X175018095Y-30642380D01*
X175303809Y-30642380D02*
X175303809Y-29642380D01*
X175208571Y-29785238D01*
X175113333Y-29880476D01*
X175018095Y-29928095D01*
X176208571Y-29642380D02*
X176303809Y-29642380D01*
X176399047Y-29690000D01*
X176446666Y-29737619D01*
X176494285Y-29832857D01*
X176541904Y-30023333D01*
X176541904Y-30261428D01*
X176494285Y-30451904D01*
X176446666Y-30547142D01*
X176399047Y-30594761D01*
X176303809Y-30642380D01*
X176208571Y-30642380D01*
X176113333Y-30594761D01*
X176065714Y-30547142D01*
X176018095Y-30451904D01*
X175970476Y-30261428D01*
X175970476Y-30023333D01*
X176018095Y-29832857D01*
X176065714Y-29737619D01*
X176113333Y-29690000D01*
X176208571Y-29642380D01*
%TO.C,C9*%
X190671333Y-30547142D02*
X190623714Y-30594761D01*
X190480857Y-30642380D01*
X190385619Y-30642380D01*
X190242761Y-30594761D01*
X190147523Y-30499523D01*
X190099904Y-30404285D01*
X190052285Y-30213809D01*
X190052285Y-30070952D01*
X190099904Y-29880476D01*
X190147523Y-29785238D01*
X190242761Y-29690000D01*
X190385619Y-29642380D01*
X190480857Y-29642380D01*
X190623714Y-29690000D01*
X190671333Y-29737619D01*
X191147523Y-30642380D02*
X191338000Y-30642380D01*
X191433238Y-30594761D01*
X191480857Y-30547142D01*
X191576095Y-30404285D01*
X191623714Y-30213809D01*
X191623714Y-29832857D01*
X191576095Y-29737619D01*
X191528476Y-29690000D01*
X191433238Y-29642380D01*
X191242761Y-29642380D01*
X191147523Y-29690000D01*
X191099904Y-29737619D01*
X191052285Y-29832857D01*
X191052285Y-30070952D01*
X191099904Y-30166190D01*
X191147523Y-30213809D01*
X191242761Y-30261428D01*
X191433238Y-30261428D01*
X191528476Y-30213809D01*
X191576095Y-30166190D01*
X191623714Y-30070952D01*
%TO.C,C8*%
X221785333Y-30547142D02*
X221737714Y-30594761D01*
X221594857Y-30642380D01*
X221499619Y-30642380D01*
X221356761Y-30594761D01*
X221261523Y-30499523D01*
X221213904Y-30404285D01*
X221166285Y-30213809D01*
X221166285Y-30070952D01*
X221213904Y-29880476D01*
X221261523Y-29785238D01*
X221356761Y-29690000D01*
X221499619Y-29642380D01*
X221594857Y-29642380D01*
X221737714Y-29690000D01*
X221785333Y-29737619D01*
X222356761Y-30070952D02*
X222261523Y-30023333D01*
X222213904Y-29975714D01*
X222166285Y-29880476D01*
X222166285Y-29832857D01*
X222213904Y-29737619D01*
X222261523Y-29690000D01*
X222356761Y-29642380D01*
X222547238Y-29642380D01*
X222642476Y-29690000D01*
X222690095Y-29737619D01*
X222737714Y-29832857D01*
X222737714Y-29880476D01*
X222690095Y-29975714D01*
X222642476Y-30023333D01*
X222547238Y-30070952D01*
X222356761Y-30070952D01*
X222261523Y-30118571D01*
X222213904Y-30166190D01*
X222166285Y-30261428D01*
X222166285Y-30451904D01*
X222213904Y-30547142D01*
X222261523Y-30594761D01*
X222356761Y-30642380D01*
X222547238Y-30642380D01*
X222642476Y-30594761D01*
X222690095Y-30547142D01*
X222737714Y-30451904D01*
X222737714Y-30261428D01*
X222690095Y-30166190D01*
X222642476Y-30118571D01*
X222547238Y-30070952D01*
%TO.C,C7*%
X237343333Y-30547142D02*
X237295714Y-30594761D01*
X237152857Y-30642380D01*
X237057619Y-30642380D01*
X236914761Y-30594761D01*
X236819523Y-30499523D01*
X236771904Y-30404285D01*
X236724285Y-30213809D01*
X236724285Y-30070952D01*
X236771904Y-29880476D01*
X236819523Y-29785238D01*
X236914761Y-29690000D01*
X237057619Y-29642380D01*
X237152857Y-29642380D01*
X237295714Y-29690000D01*
X237343333Y-29737619D01*
X237676666Y-29642380D02*
X238343333Y-29642380D01*
X237914761Y-30642380D01*
%TO.C,C6*%
X163643333Y-32802142D02*
X163595714Y-32849761D01*
X163452857Y-32897380D01*
X163357619Y-32897380D01*
X163214761Y-32849761D01*
X163119523Y-32754523D01*
X163071904Y-32659285D01*
X163024285Y-32468809D01*
X163024285Y-32325952D01*
X163071904Y-32135476D01*
X163119523Y-32040238D01*
X163214761Y-31945000D01*
X163357619Y-31897380D01*
X163452857Y-31897380D01*
X163595714Y-31945000D01*
X163643333Y-31992619D01*
X164500476Y-31897380D02*
X164310000Y-31897380D01*
X164214761Y-31945000D01*
X164167142Y-31992619D01*
X164071904Y-32135476D01*
X164024285Y-32325952D01*
X164024285Y-32706904D01*
X164071904Y-32802142D01*
X164119523Y-32849761D01*
X164214761Y-32897380D01*
X164405238Y-32897380D01*
X164500476Y-32849761D01*
X164548095Y-32802142D01*
X164595714Y-32706904D01*
X164595714Y-32468809D01*
X164548095Y-32373571D01*
X164500476Y-32325952D01*
X164405238Y-32278333D01*
X164214761Y-32278333D01*
X164119523Y-32325952D01*
X164071904Y-32373571D01*
X164024285Y-32468809D01*
%TO.C,C5*%
X163643333Y-39152142D02*
X163595714Y-39199761D01*
X163452857Y-39247380D01*
X163357619Y-39247380D01*
X163214761Y-39199761D01*
X163119523Y-39104523D01*
X163071904Y-39009285D01*
X163024285Y-38818809D01*
X163024285Y-38675952D01*
X163071904Y-38485476D01*
X163119523Y-38390238D01*
X163214761Y-38295000D01*
X163357619Y-38247380D01*
X163452857Y-38247380D01*
X163595714Y-38295000D01*
X163643333Y-38342619D01*
X164548095Y-38247380D02*
X164071904Y-38247380D01*
X164024285Y-38723571D01*
X164071904Y-38675952D01*
X164167142Y-38628333D01*
X164405238Y-38628333D01*
X164500476Y-38675952D01*
X164548095Y-38723571D01*
X164595714Y-38818809D01*
X164595714Y-39056904D01*
X164548095Y-39152142D01*
X164500476Y-39199761D01*
X164405238Y-39247380D01*
X164167142Y-39247380D01*
X164071904Y-39199761D01*
X164024285Y-39152142D01*
%TO.C,C4*%
X154087142Y-91906766D02*
X154134761Y-91954385D01*
X154182380Y-92097242D01*
X154182380Y-92192480D01*
X154134761Y-92335338D01*
X154039523Y-92430576D01*
X153944285Y-92478195D01*
X153753809Y-92525814D01*
X153610952Y-92525814D01*
X153420476Y-92478195D01*
X153325238Y-92430576D01*
X153230000Y-92335338D01*
X153182380Y-92192480D01*
X153182380Y-92097242D01*
X153230000Y-91954385D01*
X153277619Y-91906766D01*
X153515714Y-91049623D02*
X154182380Y-91049623D01*
X153134761Y-91287719D02*
X153849047Y-91525814D01*
X153849047Y-90906766D01*
%TO.C,C3*%
X205522142Y-91906766D02*
X205569761Y-91954385D01*
X205617380Y-92097242D01*
X205617380Y-92192480D01*
X205569761Y-92335338D01*
X205474523Y-92430576D01*
X205379285Y-92478195D01*
X205188809Y-92525814D01*
X205045952Y-92525814D01*
X204855476Y-92478195D01*
X204760238Y-92430576D01*
X204665000Y-92335338D01*
X204617380Y-92192480D01*
X204617380Y-92097242D01*
X204665000Y-91954385D01*
X204712619Y-91906766D01*
X204617380Y-91573433D02*
X204617380Y-90954385D01*
X204998333Y-91287719D01*
X204998333Y-91144861D01*
X205045952Y-91049623D01*
X205093571Y-91002004D01*
X205188809Y-90954385D01*
X205426904Y-90954385D01*
X205522142Y-91002004D01*
X205569761Y-91049623D01*
X205617380Y-91144861D01*
X205617380Y-91430576D01*
X205569761Y-91525814D01*
X205522142Y-91573433D01*
%TO.C,C2*%
X145627142Y-42096666D02*
X145674761Y-42144285D01*
X145722380Y-42287142D01*
X145722380Y-42382380D01*
X145674761Y-42525238D01*
X145579523Y-42620476D01*
X145484285Y-42668095D01*
X145293809Y-42715714D01*
X145150952Y-42715714D01*
X144960476Y-42668095D01*
X144865238Y-42620476D01*
X144770000Y-42525238D01*
X144722380Y-42382380D01*
X144722380Y-42287142D01*
X144770000Y-42144285D01*
X144817619Y-42096666D01*
X144817619Y-41715714D02*
X144770000Y-41668095D01*
X144722380Y-41572857D01*
X144722380Y-41334761D01*
X144770000Y-41239523D01*
X144817619Y-41191904D01*
X144912857Y-41144285D01*
X145008095Y-41144285D01*
X145150952Y-41191904D01*
X145722380Y-41763333D01*
X145722380Y-41144285D01*
%TO.C,C1*%
X145627142Y-36381666D02*
X145674761Y-36429285D01*
X145722380Y-36572142D01*
X145722380Y-36667380D01*
X145674761Y-36810238D01*
X145579523Y-36905476D01*
X145484285Y-36953095D01*
X145293809Y-37000714D01*
X145150952Y-37000714D01*
X144960476Y-36953095D01*
X144865238Y-36905476D01*
X144770000Y-36810238D01*
X144722380Y-36667380D01*
X144722380Y-36572142D01*
X144770000Y-36429285D01*
X144817619Y-36381666D01*
X145722380Y-35429285D02*
X145722380Y-36000714D01*
X145722380Y-35715000D02*
X144722380Y-35715000D01*
X144865238Y-35810238D01*
X144960476Y-35905476D01*
X145008095Y-36000714D01*
%TD*%
M02*
