%TF.GenerationSoftware,KiCad,Pcbnew,5.1.7-a382d34a8~87~ubuntu20.04.1*%
%TF.CreationDate,2020-10-16T12:11:00-03:00*%
%TF.ProjectId,cronometro-conta-para-zera,63726f6e-6f6d-4657-9472-6f2d636f6e74,rev?*%
%TF.SameCoordinates,Original*%
%TF.FileFunction,Soldermask,Top*%
%TF.FilePolarity,Negative*%
%FSLAX46Y46*%
G04 Gerber Fmt 4.6, Leading zero omitted, Abs format (unit mm)*
G04 Created by KiCad (PCBNEW 5.1.7-a382d34a8~87~ubuntu20.04.1) date 2020-10-16 12:11:00*
%MOMM*%
%LPD*%
G01*
G04 APERTURE LIST*
%ADD10O,2.400000X1.600000*%
%ADD11R,2.400000X1.600000*%
%ADD12C,1.600000*%
%ADD13R,1.600000X1.600000*%
%ADD14O,1.600000X2.400000*%
%ADD15R,1.600000X2.400000*%
%ADD16C,2.000000*%
%ADD17O,1.400000X1.400000*%
%ADD18C,1.400000*%
%ADD19O,3.500000X2.000000*%
%ADD20O,2.000000X3.300000*%
%ADD21R,2.000000X4.000000*%
G04 APERTURE END LIST*
D10*
%TO.C,U3*%
X225742000Y-31750000D03*
X218122000Y-49530000D03*
X225742000Y-34290000D03*
X218122000Y-46990000D03*
X225742000Y-36830000D03*
X218122000Y-44450000D03*
X225742000Y-39370000D03*
X218122000Y-41910000D03*
X225742000Y-41910000D03*
X218122000Y-39370000D03*
X225742000Y-44450000D03*
X218122000Y-36830000D03*
X225742000Y-46990000D03*
X218122000Y-34290000D03*
X225742000Y-49530000D03*
D11*
X218122000Y-31750000D03*
%TD*%
D12*
%TO.C,U14*%
X173355000Y-85725000D03*
X173355000Y-88265000D03*
X173355000Y-90805000D03*
X173355000Y-93345000D03*
X173355000Y-95885000D03*
X168275000Y-95885000D03*
X168275000Y-93345000D03*
X168275000Y-90805000D03*
X168275000Y-88265000D03*
D13*
X168275000Y-85725000D03*
%TD*%
D12*
%TO.C,U13*%
X181610000Y-85725000D03*
X181610000Y-88265000D03*
X181610000Y-90805000D03*
X181610000Y-93345000D03*
X181610000Y-95885000D03*
X176530000Y-95885000D03*
X176530000Y-93345000D03*
X176530000Y-90805000D03*
X176530000Y-88265000D03*
D13*
X176530000Y-85725000D03*
%TD*%
D12*
%TO.C,U12*%
X189865000Y-85725000D03*
X189865000Y-88265000D03*
X189865000Y-90805000D03*
X189865000Y-93345000D03*
X189865000Y-95885000D03*
X184785000Y-95885000D03*
X184785000Y-93345000D03*
X184785000Y-90805000D03*
X184785000Y-88265000D03*
D13*
X184785000Y-85725000D03*
%TD*%
D12*
%TO.C,U11*%
X198120000Y-85725000D03*
X198120000Y-88265000D03*
X198120000Y-90805000D03*
X198120000Y-93345000D03*
X198120000Y-95885000D03*
X193040000Y-95885000D03*
X193040000Y-93345000D03*
X193040000Y-90805000D03*
X193040000Y-88265000D03*
D13*
X193040000Y-85725000D03*
%TD*%
D14*
%TO.C,U10*%
X148590000Y-66040000D03*
X130810000Y-58420000D03*
X146050000Y-66040000D03*
X133350000Y-58420000D03*
X143510000Y-66040000D03*
X135890000Y-58420000D03*
X140970000Y-66040000D03*
X138430000Y-58420000D03*
X138430000Y-66040000D03*
X140970000Y-58420000D03*
X135890000Y-66040000D03*
X143510000Y-58420000D03*
X133350000Y-66040000D03*
X146050000Y-58420000D03*
X130810000Y-66040000D03*
D15*
X148590000Y-58420000D03*
%TD*%
D14*
%TO.C,U9*%
X178435000Y-66040000D03*
X160655000Y-58420000D03*
X175895000Y-66040000D03*
X163195000Y-58420000D03*
X173355000Y-66040000D03*
X165735000Y-58420000D03*
X170815000Y-66040000D03*
X168275000Y-58420000D03*
X168275000Y-66040000D03*
X170815000Y-58420000D03*
X165735000Y-66040000D03*
X173355000Y-58420000D03*
X163195000Y-66040000D03*
X175895000Y-58420000D03*
X160655000Y-66040000D03*
D15*
X178435000Y-58420000D03*
%TD*%
D14*
%TO.C,U8*%
X207645000Y-66040000D03*
X189865000Y-58420000D03*
X205105000Y-66040000D03*
X192405000Y-58420000D03*
X202565000Y-66040000D03*
X194945000Y-58420000D03*
X200025000Y-66040000D03*
X197485000Y-58420000D03*
X197485000Y-66040000D03*
X200025000Y-58420000D03*
X194945000Y-66040000D03*
X202565000Y-58420000D03*
X192405000Y-66040000D03*
X205105000Y-58420000D03*
X189865000Y-66040000D03*
D15*
X207645000Y-58420000D03*
%TD*%
D14*
%TO.C,U7*%
X237490000Y-66040000D03*
X219710000Y-58420000D03*
X234950000Y-66040000D03*
X222250000Y-58420000D03*
X232410000Y-66040000D03*
X224790000Y-58420000D03*
X229870000Y-66040000D03*
X227330000Y-58420000D03*
X227330000Y-66040000D03*
X229870000Y-58420000D03*
X224790000Y-66040000D03*
X232410000Y-58420000D03*
X222250000Y-66040000D03*
X234950000Y-58420000D03*
X219710000Y-66040000D03*
D15*
X237490000Y-58420000D03*
%TD*%
D10*
%TO.C,U6*%
X210185000Y-33020000D03*
X202565000Y-48260000D03*
X210185000Y-35560000D03*
X202565000Y-45720000D03*
X210185000Y-38100000D03*
X202565000Y-43180000D03*
X210185000Y-40640000D03*
X202565000Y-40640000D03*
X210185000Y-43180000D03*
X202565000Y-38100000D03*
X210185000Y-45720000D03*
X202565000Y-35560000D03*
X210185000Y-48260000D03*
D11*
X202565000Y-33020000D03*
%TD*%
D10*
%TO.C,U5*%
X194627000Y-33020000D03*
X187007000Y-48260000D03*
X194627000Y-35560000D03*
X187007000Y-45720000D03*
X194627000Y-38100000D03*
X187007000Y-43180000D03*
X194627000Y-40640000D03*
X187007000Y-40640000D03*
X194627000Y-43180000D03*
X187007000Y-38100000D03*
X194627000Y-45720000D03*
X187007000Y-35560000D03*
X194627000Y-48260000D03*
D11*
X187007000Y-33020000D03*
%TD*%
D10*
%TO.C,U4*%
X179070000Y-33020000D03*
X171450000Y-48260000D03*
X179070000Y-35560000D03*
X171450000Y-45720000D03*
X179070000Y-38100000D03*
X171450000Y-43180000D03*
X179070000Y-40640000D03*
X171450000Y-40640000D03*
X179070000Y-43180000D03*
X171450000Y-38100000D03*
X179070000Y-45720000D03*
X171450000Y-35560000D03*
X179070000Y-48260000D03*
D11*
X171450000Y-33020000D03*
%TD*%
D10*
%TO.C,U2*%
X241300000Y-31750000D03*
X233680000Y-49530000D03*
X241300000Y-34290000D03*
X233680000Y-46990000D03*
X241300000Y-36830000D03*
X233680000Y-44450000D03*
X241300000Y-39370000D03*
X233680000Y-41910000D03*
X241300000Y-41910000D03*
X233680000Y-39370000D03*
X241300000Y-44450000D03*
X233680000Y-36830000D03*
X241300000Y-46990000D03*
X233680000Y-34290000D03*
X241300000Y-49530000D03*
D11*
X233680000Y-31750000D03*
%TD*%
D14*
%TO.C,U1*%
X158750000Y-43180000D03*
X151130000Y-35560000D03*
X156210000Y-43180000D03*
X153670000Y-35560000D03*
X153670000Y-43180000D03*
X156210000Y-35560000D03*
X151130000Y-43180000D03*
D15*
X158750000Y-35560000D03*
%TD*%
D16*
%TO.C,SW2*%
X194460000Y-102235000D03*
X194460000Y-106735000D03*
X187960000Y-102235000D03*
X187960000Y-106735000D03*
%TD*%
%TO.C,SW1*%
X177950000Y-102235000D03*
X177950000Y-106735000D03*
X171450000Y-102235000D03*
X171450000Y-106735000D03*
%TD*%
D17*
%TO.C,R34*%
X143510000Y-69850000D03*
D18*
X143510000Y-77470000D03*
%TD*%
D17*
%TO.C,R33*%
X146050000Y-69850000D03*
D18*
X146050000Y-77470000D03*
%TD*%
D17*
%TO.C,R32*%
X130810000Y-69850000D03*
D18*
X130810000Y-77470000D03*
%TD*%
D17*
%TO.C,R31*%
X133350000Y-69850000D03*
D18*
X133350000Y-77470000D03*
%TD*%
D17*
%TO.C,R30*%
X135890000Y-69850000D03*
D18*
X135890000Y-77470000D03*
%TD*%
D17*
%TO.C,R29*%
X138430000Y-69850000D03*
D18*
X138430000Y-77470000D03*
%TD*%
D17*
%TO.C,R28*%
X140970000Y-69850000D03*
D18*
X140970000Y-77470000D03*
%TD*%
D17*
%TO.C,R27*%
X173355000Y-69850000D03*
D18*
X173355000Y-77470000D03*
%TD*%
D17*
%TO.C,R26*%
X175895000Y-69850000D03*
D18*
X175895000Y-77470000D03*
%TD*%
D17*
%TO.C,R25*%
X160655000Y-69850000D03*
D18*
X160655000Y-77470000D03*
%TD*%
D17*
%TO.C,R24*%
X163195000Y-69850000D03*
D18*
X163195000Y-77470000D03*
%TD*%
D17*
%TO.C,R23*%
X165735000Y-69850000D03*
D18*
X165735000Y-77470000D03*
%TD*%
D17*
%TO.C,R22*%
X168275000Y-69850000D03*
D18*
X168275000Y-77470000D03*
%TD*%
D17*
%TO.C,R21*%
X170815000Y-69850000D03*
D18*
X170815000Y-77470000D03*
%TD*%
D17*
%TO.C,R20*%
X202565000Y-69850000D03*
D18*
X202565000Y-77470000D03*
%TD*%
D17*
%TO.C,R19*%
X205105000Y-69850000D03*
D18*
X205105000Y-77470000D03*
%TD*%
D17*
%TO.C,R18*%
X189865000Y-69850000D03*
D18*
X189865000Y-77470000D03*
%TD*%
D17*
%TO.C,R17*%
X192405000Y-69850000D03*
D18*
X192405000Y-77470000D03*
%TD*%
D17*
%TO.C,R16*%
X194945000Y-69850000D03*
D18*
X194945000Y-77470000D03*
%TD*%
D17*
%TO.C,R15*%
X197485000Y-69850000D03*
D18*
X197485000Y-77470000D03*
%TD*%
D17*
%TO.C,R14*%
X200025000Y-69850000D03*
D18*
X200025000Y-77470000D03*
%TD*%
D17*
%TO.C,R13*%
X232410000Y-69850000D03*
D18*
X232410000Y-77470000D03*
%TD*%
D17*
%TO.C,R12*%
X234950000Y-69850000D03*
D18*
X234950000Y-77470000D03*
%TD*%
D17*
%TO.C,R11*%
X219710000Y-69850000D03*
D18*
X219710000Y-77470000D03*
%TD*%
D17*
%TO.C,R10*%
X222250000Y-69850000D03*
D18*
X222250000Y-77470000D03*
%TD*%
D17*
%TO.C,R9*%
X224790000Y-69850000D03*
D18*
X224790000Y-77470000D03*
%TD*%
D17*
%TO.C,R8*%
X227330000Y-69850000D03*
D18*
X227330000Y-77470000D03*
%TD*%
D17*
%TO.C,R7*%
X229870000Y-69850000D03*
D18*
X229870000Y-77470000D03*
%TD*%
D17*
%TO.C,R6*%
X182880000Y-69850000D03*
D18*
X182880000Y-77470000D03*
%TD*%
D17*
%TO.C,R5*%
X152400000Y-95595000D03*
D18*
X152400000Y-87975000D03*
%TD*%
D17*
%TO.C,R4*%
X213995000Y-95595000D03*
D18*
X213995000Y-87975000D03*
%TD*%
D17*
%TO.C,R2*%
X146685000Y-47625000D03*
D18*
X154305000Y-47625000D03*
%TD*%
D17*
%TO.C,R1*%
X158115000Y-47625000D03*
D18*
X165735000Y-47625000D03*
%TD*%
D12*
%TO.C,J1*%
X130700000Y-40640000D03*
D19*
X132700000Y-45140000D03*
X132700000Y-36140000D03*
D20*
X133700000Y-40640000D03*
D21*
X139700000Y-40640000D03*
%TD*%
D12*
%TO.C,C15*%
X205145000Y-27940000D03*
X207645000Y-27940000D03*
%TD*%
%TO.C,C14*%
X152400000Y-61000000D03*
X152400000Y-63500000D03*
%TD*%
%TO.C,C13*%
X182245000Y-61000000D03*
X182245000Y-63500000D03*
%TD*%
%TO.C,C12*%
X211455000Y-61000000D03*
X211455000Y-63500000D03*
%TD*%
%TO.C,C11*%
X241300000Y-61000000D03*
X241300000Y-63500000D03*
%TD*%
%TO.C,C10*%
X174030000Y-27940000D03*
X176530000Y-27940000D03*
%TD*%
%TO.C,C9*%
X189588000Y-27940000D03*
X192088000Y-27940000D03*
%TD*%
%TO.C,C8*%
X220702000Y-27940000D03*
X223202000Y-27940000D03*
%TD*%
%TO.C,C7*%
X236260000Y-27940000D03*
X238760000Y-27940000D03*
%TD*%
%TO.C,C6*%
X165060000Y-36195000D03*
D13*
X162560000Y-36195000D03*
%TD*%
D12*
%TO.C,C5*%
X165060000Y-42545000D03*
D13*
X162560000Y-42545000D03*
%TD*%
D12*
%TO.C,C4*%
X157480000Y-90490100D03*
D13*
X157480000Y-92990100D03*
%TD*%
D12*
%TO.C,C3*%
X208915000Y-90490100D03*
D13*
X208915000Y-92990100D03*
%TD*%
D12*
%TO.C,C2*%
X147320000Y-40680000D03*
X147320000Y-43180000D03*
%TD*%
%TO.C,C1*%
X147320000Y-34965000D03*
X147320000Y-37465000D03*
%TD*%
M02*
