G04 #@! TF.GenerationSoftware,KiCad,Pcbnew,(5.0.2)-1*
G04 #@! TF.CreationDate,2019-02-28T22:41:27-03:00*
G04 #@! TF.ProjectId,ponta-de-prova-logica-simplificada,706f6e74-612d-4646-952d-70726f76612d,02*
G04 #@! TF.SameCoordinates,Original*
G04 #@! TF.FileFunction,Copper,L1,Top*
G04 #@! TF.FilePolarity,Positive*
%FSLAX46Y46*%
G04 Gerber Fmt 4.6, Leading zero omitted, Abs format (unit mm)*
G04 Created by KiCad (PCBNEW (5.0.2)-1) date 28-02-2019 22:41:27*
%MOMM*%
%LPD*%
G01*
G04 APERTURE LIST*
G04 #@! TA.AperFunction,ComponentPad*
%ADD10O,2.000000X3.000000*%
G04 #@! TD*
G04 #@! TA.AperFunction,ComponentPad*
%ADD11R,2.000000X3.000000*%
G04 #@! TD*
G04 #@! TA.AperFunction,ComponentPad*
%ADD12O,3.000000X2.000000*%
G04 #@! TD*
G04 #@! TA.AperFunction,ComponentPad*
%ADD13R,2.000000X2.000000*%
G04 #@! TD*
G04 #@! TA.AperFunction,ComponentPad*
%ADD14O,3.000000X1.600000*%
G04 #@! TD*
G04 #@! TA.AperFunction,ComponentPad*
%ADD15R,3.000000X1.600000*%
G04 #@! TD*
G04 #@! TA.AperFunction,ComponentPad*
%ADD16O,1.600000X3.000000*%
G04 #@! TD*
G04 #@! TA.AperFunction,ComponentPad*
%ADD17C,3.000000*%
G04 #@! TD*
G04 #@! TA.AperFunction,ComponentPad*
%ADD18O,3.960000X1.980000*%
G04 #@! TD*
G04 #@! TA.AperFunction,ComponentPad*
%ADD19R,3.960000X1.980000*%
G04 #@! TD*
G04 #@! TA.AperFunction,ComponentPad*
%ADD20C,1.998980*%
G04 #@! TD*
G04 #@! TA.AperFunction,ViaPad*
%ADD21C,2.000000*%
G04 #@! TD*
G04 #@! TA.AperFunction,Conductor*
%ADD22C,0.250000*%
G04 #@! TD*
G04 APERTURE END LIST*
D10*
G04 #@! TO.P,SW1,4*
G04 #@! TO.N,Net-(R4-Pad2)*
X133985000Y-83820000D03*
G04 #@! TO.P,SW1,5*
G04 #@! TO.N,Net-(R10-Pad1)*
X131445000Y-83820000D03*
G04 #@! TO.P,SW1,6*
G04 #@! TO.N,Net-(R3-Pad2)*
X128905000Y-83820000D03*
G04 #@! TO.P,SW1,3*
G04 #@! TO.N,Net-(R1-Pad2)*
X128905000Y-89535000D03*
G04 #@! TO.P,SW1,2*
G04 #@! TO.N,Net-(SW1-Pad2)*
X131445000Y-89535000D03*
D11*
G04 #@! TO.P,SW1,1*
G04 #@! TO.N,Net-(R2-Pad2)*
X133985000Y-89535000D03*
G04 #@! TD*
D12*
G04 #@! TO.P,R12,2*
G04 #@! TO.N,Net-(R12-Pad2)*
X135255000Y-109855000D03*
G04 #@! TO.P,R12,1*
G04 #@! TO.N,Net-(D2-Pad1)*
X127635000Y-109855000D03*
G04 #@! TD*
D13*
G04 #@! TO.P,D1,1*
G04 #@! TO.N,Net-(D1-Pad1)*
X128270000Y-113665000D03*
D12*
G04 #@! TO.P,D1,2*
G04 #@! TO.N,VCC*
X128270000Y-116205000D03*
G04 #@! TD*
G04 #@! TO.P,R3,1*
G04 #@! TO.N,Net-(R2-Pad2)*
X151765000Y-85090000D03*
G04 #@! TO.P,R3,2*
G04 #@! TO.N,Net-(R3-Pad2)*
X144145000Y-85090000D03*
G04 #@! TD*
D14*
G04 #@! TO.P,U1,14*
G04 #@! TO.N,GND*
X144145000Y-109855000D03*
G04 #@! TO.P,U1,7*
G04 #@! TO.N,Net-(SW1-Pad2)*
X151765000Y-94615000D03*
G04 #@! TO.P,U1,13*
G04 #@! TO.N,GND*
X144145000Y-107315000D03*
G04 #@! TO.P,U1,6*
G04 #@! TO.N,Net-(C1-Pad1)*
X151765000Y-97155000D03*
G04 #@! TO.P,U1,12*
G04 #@! TO.N,GND*
X144145000Y-104775000D03*
G04 #@! TO.P,U1,5*
G04 #@! TO.N,Net-(C1-Pad1)*
X151765000Y-99695000D03*
G04 #@! TO.P,U1,11*
G04 #@! TO.N,GND*
X144145000Y-102235000D03*
G04 #@! TO.P,U1,4*
G04 #@! TO.N,Net-(R10-Pad1)*
X151765000Y-102235000D03*
G04 #@! TO.P,U1,10*
G04 #@! TO.N,GND*
X144145000Y-99695000D03*
G04 #@! TO.P,U1,3*
G04 #@! TO.N,VCC*
X151765000Y-104775000D03*
G04 #@! TO.P,U1,9*
G04 #@! TO.N,GND*
X144145000Y-97155000D03*
G04 #@! TO.P,U1,2*
G04 #@! TO.N,Net-(R12-Pad2)*
X151765000Y-107315000D03*
G04 #@! TO.P,U1,8*
G04 #@! TO.N,GND*
X144145000Y-94615000D03*
D15*
G04 #@! TO.P,U1,1*
G04 #@! TO.N,Net-(R11-Pad2)*
X151765000Y-109855000D03*
G04 #@! TD*
D16*
G04 #@! TO.P,C2,2*
G04 #@! TO.N,GND*
X140335000Y-103585000D03*
G04 #@! TO.P,C2,1*
G04 #@! TO.N,VCC*
X140335000Y-108585000D03*
G04 #@! TD*
G04 #@! TO.P,C1,1*
G04 #@! TO.N,Net-(C1-Pad1)*
X140335000Y-94615000D03*
G04 #@! TO.P,C1,2*
G04 #@! TO.N,GND*
X140335000Y-99615000D03*
G04 #@! TD*
D17*
G04 #@! TO.P,PP1,1*
G04 #@! TO.N,N/C*
X170815000Y-109855000D03*
G04 #@! TO.P,PP1,2*
X184785000Y-109855000D03*
G04 #@! TO.P,PP1,3*
X170815000Y-89535000D03*
G04 #@! TO.P,PP1,4*
X184785000Y-89535000D03*
G04 #@! TD*
D12*
G04 #@! TO.P,R8,2*
G04 #@! TO.N,Net-(R8-Pad2)*
X165100000Y-100330000D03*
G04 #@! TO.P,R8,1*
G04 #@! TO.N,Net-(C1-Pad1)*
X157480000Y-100330000D03*
G04 #@! TD*
G04 #@! TO.P,D2,2*
G04 #@! TO.N,VCC*
X134620000Y-116205000D03*
D13*
G04 #@! TO.P,D2,1*
G04 #@! TO.N,Net-(D2-Pad1)*
X134620000Y-113665000D03*
G04 #@! TD*
D18*
G04 #@! TO.P,J1,2*
G04 #@! TO.N,GND*
X131445000Y-95330000D03*
D19*
G04 #@! TO.P,J1,1*
G04 #@! TO.N,VCC*
X131445000Y-100330000D03*
G04 #@! TD*
D20*
G04 #@! TO.P,J2,1*
G04 #@! TO.N,Net-(J2-Pad1)*
X177800000Y-111125000D03*
G04 #@! TD*
D12*
G04 #@! TO.P,R1,2*
G04 #@! TO.N,Net-(R1-Pad2)*
X151765000Y-90170000D03*
G04 #@! TO.P,R1,1*
G04 #@! TO.N,VCC*
X144145000Y-90170000D03*
G04 #@! TD*
G04 #@! TO.P,R2,2*
G04 #@! TO.N,Net-(R2-Pad2)*
X165100000Y-95250000D03*
G04 #@! TO.P,R2,1*
G04 #@! TO.N,Net-(R1-Pad2)*
X157480000Y-95250000D03*
G04 #@! TD*
G04 #@! TO.P,R4,2*
G04 #@! TO.N,Net-(R4-Pad2)*
X165100000Y-85090000D03*
G04 #@! TO.P,R4,1*
G04 #@! TO.N,Net-(R3-Pad2)*
X157480000Y-85090000D03*
G04 #@! TD*
G04 #@! TO.P,R5,1*
G04 #@! TO.N,Net-(R4-Pad2)*
X157480000Y-90170000D03*
G04 #@! TO.P,R5,2*
G04 #@! TO.N,GND*
X165100000Y-90170000D03*
G04 #@! TD*
G04 #@! TO.P,R6,1*
G04 #@! TO.N,Net-(C1-Pad1)*
X157480000Y-105410000D03*
G04 #@! TO.P,R6,2*
G04 #@! TO.N,Net-(J2-Pad1)*
X165100000Y-105410000D03*
G04 #@! TD*
G04 #@! TO.P,R7,1*
G04 #@! TO.N,VCC*
X157480000Y-115570000D03*
G04 #@! TO.P,R7,2*
G04 #@! TO.N,Net-(C1-Pad1)*
X165100000Y-115570000D03*
G04 #@! TD*
G04 #@! TO.P,R9,2*
G04 #@! TO.N,GND*
X157480000Y-110490000D03*
G04 #@! TO.P,R9,1*
G04 #@! TO.N,Net-(R8-Pad2)*
X165100000Y-110490000D03*
G04 #@! TD*
G04 #@! TO.P,R10,1*
G04 #@! TO.N,Net-(R10-Pad1)*
X151765000Y-115570000D03*
G04 #@! TO.P,R10,2*
G04 #@! TO.N,GND*
X144145000Y-115570000D03*
G04 #@! TD*
G04 #@! TO.P,R11,2*
G04 #@! TO.N,Net-(R11-Pad2)*
X135255000Y-106045000D03*
G04 #@! TO.P,R11,1*
G04 #@! TO.N,Net-(D1-Pad1)*
X127635000Y-106045000D03*
G04 #@! TD*
D21*
G04 #@! TO.N,Net-(R1-Pad2)*
X165100000Y-97790000D03*
X157480000Y-97790000D03*
X177800000Y-85090000D03*
X177800000Y-92710000D03*
G04 #@! TO.N,Net-(R10-Pad1)*
X154940000Y-113030000D03*
X154940000Y-92710000D03*
X154940000Y-101600000D03*
X154940000Y-104140000D03*
X137414000Y-87122000D03*
X154178000Y-87122000D03*
G04 #@! TO.N,Net-(R11-Pad2)*
X138430000Y-113030000D03*
X147955000Y-113030000D03*
G04 #@! TD*
D22*
G04 #@! TO.N,Net-(R1-Pad2)*
X165100000Y-97790000D02*
X157480000Y-97790000D01*
X177800000Y-85090000D02*
X177800000Y-92710000D01*
G04 #@! TO.N,Net-(R10-Pad1)*
X154940000Y-95428285D02*
X154940000Y-92710000D01*
X154940000Y-101600000D02*
X154940000Y-95428285D01*
X154178000Y-87122000D02*
X137414000Y-87122000D01*
X154940000Y-104140000D02*
X154940000Y-113030000D01*
G04 #@! TO.N,Net-(R11-Pad2)*
X147955000Y-113030000D02*
X138430000Y-113030000D01*
G04 #@! TD*
M02*
