<?xml version="1.0" standalone="no"?>
 <!DOCTYPE svg PUBLIC "-//W3C//DTD SVG 1.1//EN" 
 "http://www.w3.org/Graphics/SVG/1.1/DTD/svg11.dtd"> 
<svg xmlns="http://www.w3.org/2000/svg" version="1.1" 
    width="29.7002cm" height="21.0007cm" viewBox="0 0 116930 82680 ">
<title>SVG Picture created as ponta-de-prova-logica-simplificada-B.Mask.svg date 2019/03/24 16:50:07 </title>
  <desc>Picture generated by PCBNEW </desc>
<g style="fill:#000000; fill-opacity:1;stroke:#000000; stroke-opacity:1;
stroke-linecap:round; stroke-linejoin:round; "
 transform="translate(0 0) scale(1 1)">
</g>
<g style="fill:#000000; fill-opacity:0.0; 
stroke:#000000; stroke-width:-0.000393701; stroke-opacity:1; 
stroke-linecap:round; stroke-linejoin:round;">
</g>
<g style="fill:#000000; fill-opacity:0.0; 
stroke:#000000; stroke-width:39.3701; stroke-opacity:1; 
stroke-linecap:round; stroke-linejoin:round;">
<path d="M108930 26750 A1000 1000 0.0 0 0 109930 25750 " />
<path d="M83930 25750 A1000 1000 0.0 0 0 84930 26750 " />
<path d="M84930 7250 A1000 1000 0.0 0 0 83930 8250 " />
<path d="M109930 8250 A1000 1000 0.0 0 0 108930 7250 " />
<path d="M108930 26750
L84930 26750
" />
<path d="M109930 8250
L109930 25750
" />
<path d="M84930 7250
L108930 7250
" />
<path d="M83930 25750
L83930 8250
" />
</g>
<g style="fill:#000000; fill-opacity:1.0; 
stroke:#000000; stroke-width:0; stroke-opacity:1; 
stroke-linecap:round; stroke-linejoin:round;">
<polyline style="fill-rule:evenodd;"
points="104655,23111
104655,23111
104655,23111
104581,23134
104581,23134
104513,23171
104453,23220
104404,23280
104404,23280
104367,23348
104351,23401
104345,23422
104337,23500
104345,23577
104345,23577
104345,23577
104365,23643
104367,23651
104404,23719
104453,23779
104513,23828
104513,23828
104581,23865
104655,23888
104655,23888
104655,23888
104713,23893
105146,23893
105204,23888
105204,23888
105204,23888
105278,23865
105346,23828
105346,23828
105406,23779
105455,23719
105492,23651
105494,23643
105514,23577
105514,23577
105514,23577
105522,23500
105514,23422
105508,23401
105492,23348
105455,23280
105455,23280
105406,23220
105346,23171
105278,23134
105278,23134
105204,23111
105204,23111
105204,23111
105146,23106
104713,23106
104655,23111
" /> 
<polyline style="fill-rule:evenodd;"
points="107155,23111
107155,23111
107155,23111
107081,23134
107081,23134
107013,23171
106953,23220
106904,23280
106904,23280
106867,23348
106851,23401
106845,23422
106837,23500
106845,23577
106845,23577
106845,23577
106865,23643
106867,23651
106904,23719
106953,23779
107013,23828
107013,23828
107081,23865
107155,23888
107155,23888
107155,23888
107213,23893
107646,23893
107704,23888
107704,23888
107704,23888
107778,23865
107846,23828
107846,23828
107906,23779
107955,23719
107992,23651
107994,23643
108014,23577
108014,23577
108014,23577
108022,23500
108014,23422
108008,23401
107992,23348
107955,23280
107955,23280
107906,23220
107846,23171
107778,23134
107778,23134
107704,23111
107704,23111
107704,23111
107646,23106
107213,23106
107155,23111
" /> 
<polyline style="fill-rule:evenodd;"
points="95655,22861
95655,22861
95655,22861
95581,22884
95581,22884
95513,22921
95453,22970
95404,23030
95404,23030
95367,23098
95345,23171
95345,23172
95337,23250
95345,23327
95345,23327
95345,23327
95351,23348
95367,23401
95404,23469
95453,23529
95513,23578
95513,23578
95581,23615
95655,23638
95655,23638
95655,23638
95713,23643
96146,23643
96204,23638
96204,23638
96204,23638
96278,23615
96346,23578
96346,23578
96406,23529
96455,23469
96492,23401
96508,23348
96514,23327
96514,23327
96514,23327
96522,23250
96514,23172
96514,23171
96492,23098
96455,23030
96455,23030
96406,22970
96346,22921
96278,22884
96278,22884
96204,22861
96204,22861
96204,22861
96146,22856
95713,22856
95655,22861
" /> 
<polyline style="fill-rule:evenodd;"
points="92655,22861
92655,22861
92655,22861
92581,22884
92581,22884
92513,22921
92453,22970
92404,23030
92404,23030
92367,23098
92345,23171
92345,23172
92337,23250
92345,23327
92345,23327
92345,23327
92351,23348
92367,23401
92404,23469
92453,23529
92513,23578
92513,23578
92581,23615
92655,23638
92655,23638
92655,23638
92713,23643
93146,23643
93204,23638
93204,23638
93204,23638
93278,23615
93346,23578
93346,23578
93406,23529
93455,23469
93492,23401
93508,23348
93514,23327
93514,23327
93514,23327
93522,23250
93514,23172
93514,23171
93492,23098
93455,23030
93455,23030
93406,22970
93346,22921
93278,22884
93278,22884
93204,22861
93204,22861
93204,22861
93146,22856
92713,22856
92655,22861
" /> 
<polyline style="fill-rule:evenodd;"
points="100905,22861
100905,22861
100905,22861
100831,22884
100831,22884
100763,22921
100703,22970
100654,23030
100654,23030
100617,23098
100595,23171
100595,23172
100587,23250
100595,23327
100595,23327
100595,23327
100601,23348
100617,23401
100654,23469
100703,23529
100763,23578
100763,23578
100831,23615
100905,23638
100905,23638
100905,23638
100963,23643
101396,23643
101454,23638
101454,23638
101454,23638
101528,23615
101596,23578
101596,23578
101656,23529
101705,23469
101742,23401
101758,23348
101764,23327
101764,23327
101764,23327
101772,23250
101764,23172
101764,23171
101742,23098
101705,23030
101705,23030
101656,22970
101596,22921
101528,22884
101528,22884
101454,22861
101454,22861
101454,22861
101396,22856
100963,22856
100905,22861
" /> 
<polyline style="fill-rule:evenodd;"
points="97905,22861
97905,22861
97905,22861
97831,22884
97831,22884
97763,22921
97703,22970
97654,23030
97654,23030
97617,23098
97595,23171
97595,23172
97587,23250
97595,23327
97595,23327
97595,23327
97601,23348
97617,23401
97654,23469
97703,23529
97763,23578
97763,23578
97831,23615
97905,23638
97905,23638
97905,23638
97963,23643
98396,23643
98454,23638
98454,23638
98454,23638
98528,23615
98596,23578
98596,23578
98656,23529
98705,23469
98742,23401
98758,23348
98764,23327
98764,23327
98764,23327
98772,23250
98764,23172
98764,23171
98742,23098
98705,23030
98705,23030
98656,22970
98596,22921
98528,22884
98528,22884
98454,22861
98454,22861
98454,22861
98396,22856
97963,22856
97905,22861
" /> 
<polyline style="fill-rule:evenodd;"
points="107036,22893
107823,22893
107823,22106
107036,22106
107036,22893
" /> 
<polyline style="fill-rule:evenodd;"
points="104536,22893
105323,22893
105323,22106
104536,22106
104536,22893
" /> 
<polyline style="fill-rule:evenodd;"
points="99110,21862
99065,21871
98993,21901
98929,21944
98874,21999
98831,22063
98801,22135
98786,22211
98786,22288
98801,22364
98831,22436
98874,22500
98929,22555
98993,22598
99065,22628
99110,22637
99141,22643
99218,22643
99249,22637
99294,22628
99366,22598
99430,22555
99485,22500
99528,22436
99558,22364
99573,22288
99573,22211
99558,22135
99528,22063
99485,21999
99430,21944
99366,21901
99294,21871
99249,21862
99218,21856
99141,21856
99110,21862
" /> 
<polyline style="fill-rule:evenodd;"
points="102860,21862
102815,21871
102743,21901
102679,21944
102624,21999
102581,22063
102551,22135
102536,22211
102536,22288
102551,22364
102581,22436
102624,22500
102679,22555
102743,22598
102815,22628
102860,22637
102891,22643
102968,22643
102999,22637
103044,22628
103116,22598
103180,22555
103235,22500
103278,22436
103308,22364
103323,22288
103323,22211
103308,22135
103278,22063
103235,21999
103180,21944
103116,21901
103044,21871
102999,21862
102968,21856
102891,21856
102860,21862
" /> 
<polyline style="fill-rule:evenodd;"
points="96860,21612
96815,21621
96743,21651
96679,21694
96624,21749
96581,21813
96551,21885
96536,21961
96536,22038
96551,22114
96581,22186
96624,22250
96679,22305
96743,22348
96815,22378
96860,22387
96891,22393
96968,22393
96999,22387
97044,22378
97116,22348
97180,22305
97235,22250
97278,22186
97308,22114
97323,22038
97323,21961
97308,21885
97278,21813
97235,21749
97180,21694
97116,21651
97044,21621
96999,21612
96968,21606
96891,21606
96860,21612
" /> 
<polyline style="fill-rule:evenodd;"
points="87815,21121
87743,21151
87679,21194
87624,21249
87581,21313
87551,21385
87536,21461
87536,21538
87551,21614
87581,21686
87624,21750
87679,21805
87743,21848
87815,21878
87891,21893
87968,21893
88044,21878
88116,21848
88180,21805
88235,21750
88278,21686
88308,21614
88323,21538
88323,21461
88308,21385
88278,21313
88235,21249
88180,21194
88116,21151
88044,21121
87968,21106
87891,21106
87815,21121
" /> 
<polyline style="fill-rule:evenodd;"
points="95655,20861
95655,20861
95655,20861
95581,20884
95581,20884
95513,20921
95453,20970
95404,21030
95379,21077
95367,21098
95345,21172
95345,21172
95337,21250
95345,21327
95345,21327
95345,21327
95365,21393
95367,21401
95404,21469
95453,21529
95513,21578
95581,21615
95581,21615
95655,21638
95655,21638
95655,21638
95713,21643
96146,21643
96204,21638
96204,21638
96204,21638
96278,21615
96278,21615
96346,21578
96406,21529
96455,21469
96492,21401
96494,21393
96514,21327
96514,21327
96514,21327
96522,21250
96514,21172
96514,21172
96492,21098
96480,21077
96455,21030
96406,20970
96346,20921
96278,20884
96278,20884
96204,20861
96204,20861
96204,20861
96146,20856
95713,20856
95655,20861
" /> 
<polyline style="fill-rule:evenodd;"
points="92655,20861
92655,20861
92655,20861
92581,20884
92581,20884
92513,20921
92453,20970
92404,21030
92379,21077
92367,21098
92345,21172
92345,21172
92337,21250
92345,21327
92345,21327
92345,21327
92365,21393
92367,21401
92404,21469
92453,21529
92513,21578
92581,21615
92581,21615
92655,21638
92655,21638
92655,21638
92713,21643
93146,21643
93204,21638
93204,21638
93204,21638
93278,21615
93278,21615
93346,21578
93406,21529
93455,21469
93492,21401
93494,21393
93514,21327
93514,21327
93514,21327
93522,21250
93514,21172
93514,21172
93492,21098
93480,21077
93455,21030
93406,20970
93346,20921
93278,20884
93278,20884
93204,20861
93204,20861
93204,20861
93146,20856
92713,20856
92655,20861
" /> 
<polyline style="fill-rule:evenodd;"
points="85045,20424
85007,20432
84900,20476
84804,20540
84803,20541
84721,20623
84721,20623
84656,20720
84627,20791
84612,20827
84593,20921
84589,20941
84589,21058
84612,21172
84656,21279
84720,21375
84721,21376
84803,21458
84803,21458
84900,21523
85007,21567
85045,21575
85121,21590
85238,21590
85314,21575
85352,21567
85459,21523
85556,21458
85556,21458
85638,21376
85639,21375
85703,21279
85747,21172
85770,21058
85770,20941
85766,20921
85747,20827
85732,20791
85703,20720
85638,20623
85638,20623
85556,20541
85555,20540
85459,20476
85352,20432
85314,20424
85238,20409
85121,20409
85045,20424
" /> 
<polyline style="fill-rule:evenodd;"
points="90545,20424
90507,20432
90400,20476
90304,20540
90303,20541
90221,20623
90221,20623
90156,20720
90127,20791
90112,20827
90093,20921
90089,20941
90089,21058
90112,21172
90156,21279
90220,21375
90221,21376
90303,21458
90303,21458
90400,21523
90507,21567
90545,21575
90621,21590
90738,21590
90814,21575
90852,21567
90959,21523
91056,21458
91056,21458
91138,21376
91139,21375
91203,21279
91247,21172
91270,21058
91270,20941
91266,20921
91247,20827
91232,20791
91203,20720
91138,20623
91138,20623
91056,20541
91055,20540
90959,20476
90852,20432
90814,20424
90738,20409
90621,20409
90545,20424
" /> 
<polyline style="fill-rule:evenodd;"
points="104405,20611
104405,20611
104405,20611
104331,20634
104331,20634
104263,20671
104203,20720
104154,20780
104154,20780
104117,20848
104095,20921
104095,20922
104087,21000
104095,21077
104095,21077
104095,21077
104108,21121
104117,21151
104154,21219
104203,21279
104263,21328
104263,21328
104331,21365
104405,21388
104405,21388
104405,21388
104463,21393
104896,21393
104954,21388
104954,21388
104954,21388
105028,21365
105096,21328
105096,21328
105156,21279
105205,21219
105242,21151
105251,21121
105264,21077
105264,21077
105264,21077
105272,21000
105264,20922
105264,20921
105242,20848
105205,20780
105205,20780
105156,20720
105096,20671
105028,20634
105028,20634
104954,20611
104954,20611
104954,20611
104896,20606
104463,20606
104405,20611
" /> 
<polyline style="fill-rule:evenodd;"
points="107405,20611
107405,20611
107405,20611
107331,20634
107331,20634
107263,20671
107203,20720
107154,20780
107154,20780
107117,20848
107095,20921
107095,20922
107087,21000
107095,21077
107095,21077
107095,21077
107108,21121
107117,21151
107154,21219
107203,21279
107263,21328
107263,21328
107331,21365
107405,21388
107405,21388
107405,21388
107463,21393
107896,21393
107954,21388
107954,21388
107954,21388
108028,21365
108096,21328
108096,21328
108156,21279
108205,21219
108242,21151
108251,21121
108264,21077
108264,21077
108264,21077
108272,21000
108264,20922
108264,20921
108242,20848
108205,20780
108205,20780
108156,20720
108096,20671
108028,20634
108028,20634
107954,20611
107954,20611
107954,20611
107896,20606
107463,20606
107405,20611
" /> 
<polyline style="fill-rule:evenodd;"
points="100858,20688
100842,20689
100812,20698
100783,20707
100728,20736
100680,20776
100641,20824
100612,20878
100594,20938
100587,21000
100594,21061
100612,21121
100641,21175
100680,21223
100728,21263
100783,21292
100812,21301
100842,21310
100858,21311
100888,21314
101471,21314
101501,21311
101517,21310
101547,21301
101576,21292
101631,21263
101679,21223
101718,21175
101747,21121
101765,21061
101772,21000
101765,20938
101747,20878
101718,20824
101679,20776
101631,20736
101576,20707
101547,20698
101517,20689
101501,20688
101471,20685
100888,20685
100858,20688
" /> 
<polyline style="fill-rule:evenodd;"
points="97589,21314
98770,21314
98770,20685
97589,20685
97589,21314
" /> 
<polyline style="fill-rule:evenodd;"
points="102618,19914
102588,19923
102558,19932
102504,19961
102504,19961
102504,19961
102456,20000
102456,20000
102456,20000
102416,20048
102387,20103
102369,20162
102365,20208
102365,20791
102369,20837
102387,20896
102416,20951
102456,20999
102504,21038
102558,21067
102588,21076
102618,21085
102680,21092
102741,21085
102771,21076
102801,21067
102855,21038
102903,20999
102943,20951
102972,20896
102990,20837
102994,20791
102994,20208
102990,20162
102990,20162
102972,20103
102972,20103
102943,20048
102903,20000
102903,20000
102903,20000
102903,20000
102855,19961
102801,19932
102771,19923
102741,19914
102680,19907
102618,19914
" /> 
<polyline style="fill-rule:evenodd;"
points="97858,19688
97842,19689
97812,19698
97783,19707
97728,19736
97680,19776
97641,19824
97612,19878
97594,19938
97587,20000
97594,20061
97612,20121
97641,20175
97680,20223
97728,20263
97783,20292
97812,20301
97842,20310
97858,20311
97888,20314
98471,20314
98501,20311
98517,20310
98547,20301
98576,20292
98631,20263
98679,20223
98718,20175
98747,20121
98765,20061
98772,20000
98765,19938
98747,19878
98718,19824
98679,19776
98631,19736
98576,19707
98547,19698
98517,19689
98501,19688
98471,19685
97888,19685
97858,19688
" /> 
<polyline style="fill-rule:evenodd;"
points="100858,19688
100842,19689
100812,19698
100783,19707
100728,19736
100680,19776
100641,19824
100612,19878
100594,19938
100587,20000
100594,20061
100612,20121
100641,20175
100680,20223
100728,20263
100783,20292
100812,20301
100842,20310
100858,20311
100888,20314
101471,20314
101501,20311
101517,20310
101547,20301
101576,20292
101631,20263
101679,20223
101718,20175
101747,20121
101765,20061
101772,20000
101765,19938
101747,19878
101718,19824
101679,19776
101631,19736
101576,19707
101547,19698
101517,19689
101501,19688
101471,19685
100888,19685
100858,19688
" /> 
<polyline style="fill-rule:evenodd;"
points="107405,19111
107405,19111
107405,19111
107331,19134
107331,19134
107263,19171
107203,19220
107154,19280
107135,19314
107117,19348
107101,19401
107095,19422
107087,19500
107095,19577
107095,19577
107095,19577
107115,19643
107117,19651
107154,19719
107203,19779
107263,19828
107263,19828
107331,19865
107405,19888
107405,19888
107405,19888
107463,19893
107896,19893
107954,19888
107954,19888
107954,19888
108028,19865
108096,19828
108096,19828
108156,19779
108205,19719
108242,19651
108244,19643
108264,19577
108264,19577
108264,19577
108272,19500
108264,19422
108258,19401
108242,19348
108224,19314
108205,19280
108156,19220
108096,19171
108028,19134
108028,19134
107954,19111
107954,19111
107954,19111
107896,19106
107463,19106
107405,19111
" /> 
<polyline style="fill-rule:evenodd;"
points="104405,19111
104405,19111
104405,19111
104331,19134
104331,19134
104263,19171
104203,19220
104154,19280
104135,19314
104117,19348
104101,19401
104095,19422
104087,19500
104095,19577
104095,19577
104095,19577
104115,19643
104117,19651
104154,19719
104203,19779
104263,19828
104263,19828
104331,19865
104405,19888
104405,19888
104405,19888
104463,19893
104896,19893
104954,19888
104954,19888
104954,19888
105028,19865
105096,19828
105096,19828
105156,19779
105205,19719
105242,19651
105244,19643
105264,19577
105264,19577
105264,19577
105272,19500
105264,19422
105258,19401
105242,19348
105224,19314
105205,19280
105156,19220
105096,19171
105028,19134
105028,19134
104954,19111
104954,19111
104954,19111
104896,19106
104463,19106
104405,19111
" /> 
<polyline style="fill-rule:evenodd;"
points="95655,18861
95655,18861
95655,18861
95581,18884
95581,18884
95513,18921
95453,18970
95404,19030
95404,19030
95367,19098
95345,19171
95345,19172
95337,19250
95345,19327
95345,19327
95345,19327
95351,19348
95367,19401
95404,19469
95453,19529
95513,19578
95513,19578
95581,19615
95655,19638
95655,19638
95655,19638
95713,19643
96146,19643
96204,19638
96204,19638
96204,19638
96278,19615
96346,19578
96346,19578
96406,19529
96455,19469
96492,19401
96508,19348
96514,19327
96514,19327
96514,19327
96522,19250
96514,19172
96514,19171
96492,19098
96455,19030
96455,19030
96406,18970
96346,18921
96278,18884
96278,18884
96204,18861
96204,18861
96204,18861
96146,18856
95713,18856
95655,18861
" /> 
<polyline style="fill-rule:evenodd;"
points="92655,18861
92655,18861
92655,18861
92581,18884
92581,18884
92513,18921
92453,18970
92404,19030
92404,19030
92367,19098
92345,19171
92345,19172
92337,19250
92345,19327
92345,19327
92345,19327
92351,19348
92367,19401
92404,19469
92453,19529
92513,19578
92513,19578
92581,19615
92655,19638
92655,19638
92655,19638
92713,19643
93146,19643
93204,19638
93204,19638
93204,19638
93278,19615
93346,19578
93346,19578
93406,19529
93455,19469
93492,19401
93508,19348
93514,19327
93514,19327
93514,19327
93522,19250
93514,19172
93514,19171
93492,19098
93455,19030
93455,19030
93406,18970
93346,18921
93278,18884
93278,18884
93204,18861
93204,18861
93204,18861
93146,18856
92713,18856
92655,18861
" /> 
<polyline style="fill-rule:evenodd;"
points="100858,18688
100842,18689
100812,18698
100783,18707
100728,18736
100680,18776
100641,18824
100612,18878
100594,18938
100587,19000
100594,19061
100612,19121
100641,19175
100680,19223
100728,19263
100783,19292
100812,19301
100842,19310
100858,19311
100888,19314
101471,19314
101501,19311
101517,19310
101547,19301
101576,19292
101631,19263
101679,19223
101718,19175
101747,19121
101765,19061
101772,19000
101765,18938
101747,18878
101718,18824
101679,18776
101631,18736
101576,18707
101547,18698
101517,18689
101501,18688
101471,18685
100888,18685
100858,18688
" /> 
<polyline style="fill-rule:evenodd;"
points="97858,18688
97842,18689
97812,18698
97783,18707
97728,18736
97680,18776
97641,18824
97612,18878
97594,18938
97587,19000
97594,19061
97612,19121
97641,19175
97680,19223
97728,19263
97783,19292
97812,19301
97842,19310
97858,19311
97888,19314
98471,19314
98501,19311
98517,19310
98547,19301
98576,19292
98631,19263
98679,19223
98718,19175
98747,19121
98765,19061
98772,19000
98765,18938
98747,18878
98718,18824
98679,18776
98631,18736
98576,18707
98547,18698
98517,18689
98501,18688
98471,18685
97888,18685
97858,18688
" /> 
<polyline style="fill-rule:evenodd;"
points="102618,17945
102588,17954
102558,17963
102504,17992
102496,17999
102456,18032
102456,18032
102456,18032
102416,18080
102387,18134
102387,18135
102369,18194
102365,18240
102365,18822
102369,18868
102374,18884
102387,18928
102416,18982
102456,19030
102504,19070
102558,19099
102588,19108
102618,19117
102680,19123
102741,19117
102771,19108
102801,19099
102855,19070
102903,19030
102943,18982
102972,18928
102985,18884
102990,18868
102994,18822
102994,18240
102990,18194
102981,18164
102972,18134
102943,18080
102903,18032
102903,18032
102903,18032
102903,18032
102855,17992
102801,17963
102771,17954
102741,17945
102680,17939
102618,17945
" /> 
<polyline style="fill-rule:evenodd;"
points="96860,17862
96815,17871
96743,17901
96679,17944
96624,17999
96581,18063
96551,18135
96543,18175
96536,18211
96536,18288
96540,18310
96551,18364
96581,18436
96624,18500
96679,18555
96743,18598
96815,18628
96860,18637
96891,18643
96968,18643
96999,18637
97044,18628
97116,18598
97180,18555
97235,18500
97278,18436
97308,18364
97319,18310
97323,18288
97323,18211
97316,18175
97308,18135
97278,18063
97235,17999
97180,17944
97116,17901
97044,17871
96999,17862
96968,17856
96891,17856
96860,17862
" /> 
<polyline style="fill-rule:evenodd;"
points="97858,17688
97842,17689
97812,17698
97783,17707
97728,17736
97680,17776
97641,17824
97612,17878
97612,17878
97594,17938
97587,18000
97594,18061
97599,18080
97612,18121
97641,18175
97680,18223
97728,18263
97783,18292
97812,18301
97842,18310
97858,18311
97888,18314
98471,18314
98501,18311
98517,18310
98547,18301
98576,18292
98631,18263
98679,18223
98718,18175
98747,18121
98760,18080
98765,18061
98772,18000
98765,17938
98747,17878
98747,17878
98718,17824
98679,17776
98631,17736
98576,17707
98547,17698
98517,17689
98501,17688
98471,17685
97888,17685
97858,17688
" /> 
<polyline style="fill-rule:evenodd;"
points="100858,17688
100842,17689
100812,17698
100783,17707
100728,17736
100680,17776
100641,17824
100612,17878
100612,17878
100594,17938
100587,18000
100594,18061
100599,18080
100612,18121
100641,18175
100680,18223
100728,18263
100783,18292
100812,18301
100842,18310
100858,18311
100888,18314
101471,18314
101501,18311
101517,18310
101547,18301
101576,18292
101631,18263
101679,18223
101718,18175
101747,18121
101760,18080
101765,18061
101772,18000
101765,17938
101747,17878
101747,17878
101718,17824
101679,17776
101631,17736
101576,17707
101547,17698
101517,17689
101501,17688
101471,17685
100888,17685
100858,17688
" /> 
<polyline style="fill-rule:evenodd;"
points="92655,16861
92655,16861
92655,16861
92581,16884
92581,16884
92513,16921
92453,16970
92404,17030
92367,17098
92345,17172
92337,17250
92345,17327
92345,17327
92345,17327
92356,17365
92367,17401
92404,17469
92453,17529
92513,17578
92513,17578
92581,17615
92655,17638
92655,17638
92655,17638
92713,17643
93146,17643
93204,17638
93204,17638
93204,17638
93278,17615
93346,17578
93346,17578
93406,17529
93455,17469
93492,17401
93503,17365
93514,17327
93514,17327
93514,17327
93522,17250
93514,17172
93492,17098
93455,17030
93406,16970
93346,16921
93278,16884
93278,16884
93204,16861
93204,16861
93204,16861
93146,16856
92713,16856
92655,16861
" /> 
<polyline style="fill-rule:evenodd;"
points="95655,16861
95655,16861
95655,16861
95581,16884
95581,16884
95513,16921
95453,16970
95404,17030
95367,17098
95345,17172
95337,17250
95345,17327
95345,17327
95345,17327
95356,17365
95367,17401
95404,17469
95453,17529
95513,17578
95513,17578
95581,17615
95655,17638
95655,17638
95655,17638
95713,17643
96146,17643
96204,17638
96204,17638
96204,17638
96278,17615
96346,17578
96346,17578
96406,17529
96455,17469
96492,17401
96503,17365
96514,17327
96514,17327
96514,17327
96522,17250
96514,17172
96492,17098
96455,17030
96406,16970
96346,16921
96278,16884
96278,16884
96204,16861
96204,16861
96204,16861
96146,16856
95713,16856
95655,16861
" /> 
<polyline style="fill-rule:evenodd;"
points="105400,17639
106959,17639
106959,16860
105400,16860
105400,17639
" /> 
<polyline style="fill-rule:evenodd;"
points="102618,16382
102588,16391
102558,16400
102504,16429
102456,16469
102416,16517
102387,16571
102387,16571
102369,16631
102365,16677
102365,17259
102369,17305
102376,17327
102387,17365
102416,17419
102456,17467
102456,17467
102456,17467
102492,17497
102504,17507
102558,17536
102588,17545
102618,17554
102680,17560
102741,17554
102771,17545
102801,17536
102855,17507
102903,17467
102903,17467
102903,17467
102943,17419
102972,17365
102972,17365
102989,17310
102990,17305
102994,17259
102994,16677
102990,16631
102972,16571
102972,16571
102943,16517
102903,16469
102855,16429
102801,16400
102771,16391
102741,16382
102680,16376
102618,16382
" /> 
<polyline style="fill-rule:evenodd;"
points="97858,16688
97842,16689
97812,16698
97783,16707
97728,16736
97680,16776
97641,16824
97612,16878
97594,16938
97587,17000
97594,17061
97612,17121
97641,17175
97680,17223
97728,17263
97783,17292
97812,17301
97842,17310
97858,17311
97888,17314
98471,17314
98501,17311
98517,17310
98547,17301
98576,17292
98631,17263
98679,17223
98718,17175
98747,17121
98765,17061
98772,17000
98765,16938
98747,16878
98718,16824
98679,16776
98631,16736
98576,16707
98547,16698
98517,16689
98501,16688
98471,16685
97888,16685
97858,16688
" /> 
<polyline style="fill-rule:evenodd;"
points="100858,16688
100842,16689
100812,16698
100783,16707
100728,16736
100680,16776
100641,16824
100612,16878
100594,16938
100587,17000
100594,17061
100612,17121
100641,17175
100680,17223
100728,17263
100783,17292
100812,17301
100842,17310
100858,17311
100888,17314
101471,17314
101501,17311
101517,17310
101547,17301
101576,17292
101631,17263
101679,17223
101718,17175
101747,17121
101765,17061
101772,17000
101765,16938
101747,16878
101718,16824
101679,16776
101631,16736
101576,16707
101547,16698
101517,16689
101501,16688
101471,16685
100888,16685
100858,16688
" /> 
<polyline style="fill-rule:evenodd;"
points="96860,16112
96815,16121
96743,16151
96679,16194
96624,16249
96581,16313
96551,16385
96536,16461
96536,16538
96551,16614
96581,16686
96624,16750
96679,16805
96743,16848
96815,16878
96860,16887
96891,16893
96968,16893
96999,16887
97044,16878
97116,16848
97180,16805
97235,16750
97278,16686
97308,16614
97323,16538
97323,16461
97308,16385
97278,16313
97235,16249
97180,16194
97116,16151
97044,16121
96999,16112
96968,16106
96891,16106
96860,16112
" /> 
<polyline style="fill-rule:evenodd;"
points="97858,15688
97842,15689
97812,15698
97783,15707
97728,15736
97680,15776
97641,15824
97612,15878
97594,15938
97587,16000
97594,16061
97612,16121
97641,16175
97680,16223
97728,16263
97783,16292
97812,16301
97842,16310
97858,16311
97888,16314
98471,16314
98501,16311
98517,16310
98547,16301
98576,16292
98631,16263
98679,16223
98718,16175
98747,16121
98765,16061
98772,16000
98765,15938
98747,15878
98718,15824
98679,15776
98631,15736
98576,15707
98547,15698
98517,15689
98501,15688
98471,15685
97888,15685
97858,15688
" /> 
<polyline style="fill-rule:evenodd;"
points="100858,15688
100842,15689
100812,15698
100783,15707
100728,15736
100680,15776
100641,15824
100612,15878
100594,15938
100587,16000
100594,16061
100612,16121
100641,16175
100680,16223
100728,16263
100783,16292
100812,16301
100842,16310
100858,16311
100888,16314
101471,16314
101501,16311
101517,16310
101547,16301
101576,16292
101631,16263
101679,16223
101718,16175
101747,16121
101765,16061
101772,16000
101765,15938
101747,15878
101718,15824
101679,15776
101631,15736
101576,15707
101547,15698
101517,15689
101501,15688
101471,15685
100888,15685
100858,15688
" /> 
<polyline style="fill-rule:evenodd;"
points="105713,14897
105713,14897
105713,14897
105640,14919
105572,14955
105513,15004
105464,15063
105434,15121
105428,15131
105406,15205
105398,15281
105406,15357
105406,15357
105406,15357
105428,15431
105464,15499
105513,15558
105572,15607
105640,15643
105713,15665
105713,15665
105713,15665
105771,15671
106588,15671
106646,15665
106646,15665
106646,15665
106719,15643
106787,15607
106846,15558
106895,15499
106931,15431
106953,15357
106953,15357
106953,15357
106961,15281
106953,15205
106931,15131
106925,15121
106895,15063
106846,15004
106787,14955
106719,14919
106646,14897
106646,14897
106646,14897
106588,14891
105771,14891
105713,14897
" /> 
<polyline style="fill-rule:evenodd;"
points="95655,14861
95655,14861
95655,14861
95581,14884
95581,14884
95513,14921
95453,14970
95404,15030
95367,15098
95345,15172
95337,15250
95345,15327
95345,15327
95345,15327
95366,15396
95367,15401
95404,15469
95453,15529
95513,15578
95513,15578
95581,15615
95655,15638
95655,15638
95655,15638
95713,15643
96146,15643
96204,15638
96204,15638
96204,15638
96278,15615
96346,15578
96346,15578
96406,15529
96455,15469
96492,15401
96493,15396
96514,15327
96514,15327
96514,15327
96522,15250
96514,15172
96492,15098
96455,15030
96406,14970
96346,14921
96278,14884
96278,14884
96204,14861
96204,14861
96204,14861
96146,14856
95713,14856
95655,14861
" /> 
<polyline style="fill-rule:evenodd;"
points="92655,14861
92655,14861
92655,14861
92581,14884
92581,14884
92513,14921
92453,14970
92404,15030
92367,15098
92345,15172
92337,15250
92345,15327
92345,15327
92345,15327
92366,15396
92367,15401
92404,15469
92453,15529
92513,15578
92513,15578
92581,15615
92655,15638
92655,15638
92655,15638
92713,15643
93146,15643
93204,15638
93204,15638
93204,15638
93278,15615
93346,15578
93346,15578
93406,15529
93455,15469
93492,15401
93493,15396
93514,15327
93514,15327
93514,15327
93522,15250
93514,15172
93492,15098
93455,15030
93406,14970
93346,14921
93278,14884
93278,14884
93204,14861
93204,14861
93204,14861
93146,14856
92713,14856
92655,14861
" /> 
<polyline style="fill-rule:evenodd;"
points="102618,14414
102588,14423
102558,14432
102504,14461
102456,14500
102416,14548
102387,14603
102369,14662
102365,14708
102365,15291
102369,15337
102387,15396
102416,15451
102456,15499
102456,15499
102456,15499
102456,15499
102504,15538
102558,15567
102588,15576
102618,15585
102680,15592
102741,15585
102771,15576
102801,15567
102855,15538
102903,15499
102903,15499
102903,15499
102943,15451
102969,15401
102972,15396
102984,15357
102990,15337
102993,15310
102994,15291
102994,14708
102990,14662
102972,14603
102943,14548
102903,14500
102855,14461
102801,14432
102771,14423
102741,14414
102680,14407
102618,14414
" /> 
<polyline style="fill-rule:evenodd;"
points="97858,14688
97842,14689
97812,14698
97783,14707
97728,14736
97680,14776
97641,14824
97612,14878
97610,14884
97594,14938
97587,15000
97594,15061
97603,15091
97612,15121
97641,15175
97680,15223
97728,15263
97783,15292
97812,15301
97842,15310
97858,15311
97888,15314
98471,15314
98501,15311
98517,15310
98547,15301
98576,15292
98631,15263
98679,15223
98718,15175
98747,15121
98756,15091
98765,15061
98772,15000
98765,14938
98749,14884
98747,14878
98718,14824
98679,14776
98631,14736
98576,14707
98547,14698
98517,14689
98501,14688
98471,14685
97888,14685
97858,14688
" /> 
<polyline style="fill-rule:evenodd;"
points="100858,14688
100842,14689
100812,14698
100783,14707
100728,14736
100680,14776
100641,14824
100612,14878
100610,14884
100594,14938
100587,15000
100594,15061
100603,15091
100612,15121
100641,15175
100680,15223
100728,15263
100783,15292
100812,15301
100842,15310
100858,15311
100888,15314
101471,15314
101501,15311
101517,15310
101547,15301
101576,15292
101631,15263
101679,15223
101718,15175
101747,15121
101756,15091
101765,15061
101772,15000
101765,14938
101749,14884
101747,14878
101718,14824
101679,14776
101631,14736
101576,14707
101547,14698
101517,14689
101501,14688
101471,14685
100888,14685
100858,14688
" /> 
<polyline style="fill-rule:evenodd;"
points="87860,13862
87815,13871
87743,13901
87679,13944
87624,13999
87581,14063
87551,14135
87536,14211
87536,14288
87551,14364
87581,14436
87624,14500
87679,14555
87743,14598
87815,14628
87860,14637
87891,14643
87968,14643
87999,14637
88044,14628
88116,14598
88180,14555
88235,14500
88278,14436
88308,14364
88323,14288
88323,14211
88308,14135
88278,14063
88235,13999
88180,13944
88116,13901
88044,13871
87999,13862
87968,13856
87891,13856
87860,13862
" /> 
<polyline style="fill-rule:evenodd;"
points="96860,13462
96815,13471
96743,13501
96679,13544
96624,13599
96581,13663
96551,13735
96536,13811
96536,13888
96551,13964
96581,14036
96624,14100
96679,14155
96743,14198
96815,14228
96860,14237
96891,14243
96968,14243
96999,14237
97044,14228
97116,14198
97180,14155
97235,14100
97278,14036
97308,13964
97323,13888
97323,13811
97308,13735
97278,13663
97235,13599
97180,13544
97116,13501
97044,13471
96999,13462
96968,13456
96891,13456
96860,13462
" /> 
<polyline style="fill-rule:evenodd;"
points="100905,12861
100905,12861
100905,12861
100831,12884
100831,12884
100763,12921
100703,12970
100654,13030
100654,13030
100617,13098
100595,13172
100595,13172
100587,13250
100595,13327
100595,13327
100595,13327
100601,13348
100617,13401
100654,13469
100703,13529
100763,13578
100788,13592
100831,13615
100905,13638
100905,13638
100905,13638
100963,13643
101396,13643
101454,13638
101454,13638
101454,13638
101528,13615
101571,13592
101596,13578
101656,13529
101705,13469
101742,13401
101758,13348
101764,13327
101764,13327
101764,13327
101772,13250
101764,13172
101764,13172
101742,13098
101705,13030
101705,13030
101656,12970
101596,12921
101528,12884
101528,12884
101454,12861
101454,12861
101454,12861
101396,12856
100963,12856
100905,12861
" /> 
<polyline style="fill-rule:evenodd;"
points="97905,12861
97905,12861
97905,12861
97831,12884
97831,12884
97763,12921
97703,12970
97654,13030
97654,13030
97617,13098
97595,13172
97595,13172
97587,13250
97595,13327
97595,13327
97595,13327
97601,13348
97617,13401
97654,13469
97703,13529
97763,13578
97788,13592
97831,13615
97905,13638
97905,13638
97905,13638
97963,13643
98396,13643
98454,13638
98454,13638
98454,13638
98528,13615
98571,13592
98596,13578
98656,13529
98705,13469
98742,13401
98758,13348
98764,13327
98764,13327
98764,13327
98772,13250
98764,13172
98764,13172
98742,13098
98705,13030
98705,13030
98656,12970
98596,12921
98528,12884
98528,12884
98454,12861
98454,12861
98454,12861
98396,12856
97963,12856
97905,12861
" /> 
<polyline style="fill-rule:evenodd;"
points="95655,12861
95655,12861
95655,12861
95581,12884
95581,12884
95513,12921
95453,12970
95404,13030
95404,13030
95367,13098
95345,13172
95345,13172
95337,13250
95345,13327
95345,13327
95345,13327
95351,13348
95367,13401
95404,13469
95453,13529
95513,13578
95538,13592
95581,13615
95655,13638
95655,13638
95655,13638
95713,13643
96146,13643
96204,13638
96204,13638
96204,13638
96278,13615
96321,13592
96346,13578
96406,13529
96455,13469
96492,13401
96508,13348
96514,13327
96514,13327
96514,13327
96522,13250
96514,13172
96514,13172
96492,13098
96455,13030
96455,13030
96406,12970
96346,12921
96278,12884
96278,12884
96204,12861
96204,12861
96204,12861
96146,12856
95713,12856
95655,12861
" /> 
<polyline style="fill-rule:evenodd;"
points="92655,12861
92655,12861
92655,12861
92581,12884
92581,12884
92513,12921
92453,12970
92404,13030
92404,13030
92367,13098
92345,13172
92345,13172
92337,13250
92345,13327
92345,13327
92345,13327
92351,13348
92367,13401
92404,13469
92453,13529
92513,13578
92538,13592
92581,13615
92655,13638
92655,13638
92655,13638
92713,13643
93146,13643
93204,13638
93204,13638
93204,13638
93278,13615
93321,13592
93346,13578
93406,13529
93455,13469
93492,13401
93508,13348
93514,13327
93514,13327
93514,13327
93522,13250
93514,13172
93514,13172
93492,13098
93455,13030
93455,13030
93406,12970
93346,12921
93278,12884
93278,12884
93204,12861
93204,12861
93204,12861
93146,12856
92713,12856
92655,12861
" /> 
<polyline style="fill-rule:evenodd;"
points="106102,12415
106102,12415
106102,12415
106028,12437
106028,12437
106028,12437
105960,12474
105900,12523
105851,12583
105818,12643
105814,12651
105793,12720
105791,12725
105786,12783
105786,13216
105791,13274
105791,13274
105791,13274
105814,13348
105814,13348
105851,13416
105900,13476
105960,13525
106028,13562
106028,13562
106102,13584
106102,13584
106102,13584
106180,13592
106257,13584
106257,13584
106257,13584
106331,13562
106331,13562
106399,13525
106459,13476
106508,13416
106545,13348
106568,13274
106573,13216
106573,12783
106568,12725
106568,12725
106545,12651
106545,12651
106545,12651
106508,12583
106459,12523
106399,12474
106331,12437
106331,12437
106257,12415
106257,12415
106257,12415
106180,12407
106102,12415
" /> 
<polyline style="fill-rule:evenodd;"
points="107102,12415
107102,12415
107102,12415
107028,12437
107028,12437
107028,12437
106960,12474
106900,12523
106851,12583
106818,12643
106814,12651
106793,12720
106791,12725
106786,12783
106786,13216
106791,13274
106791,13274
106791,13274
106814,13348
106814,13348
106851,13416
106900,13476
106960,13525
107028,13562
107028,13562
107102,13584
107102,13584
107102,13584
107180,13592
107257,13584
107257,13584
107257,13584
107331,13562
107331,13562
107399,13525
107459,13476
107508,13416
107545,13348
107568,13274
107573,13216
107573,12783
107568,12725
107568,12725
107545,12651
107545,12651
107545,12651
107508,12583
107459,12523
107399,12474
107331,12437
107331,12437
107257,12415
107257,12415
107257,12415
107180,12407
107102,12415
" /> 
<polyline style="fill-rule:evenodd;"
points="85045,12424
85007,12432
84900,12476
84863,12500
84803,12541
84721,12623
84656,12720
84654,12725
84630,12783
84612,12827
84593,12921
84589,12941
84589,13058
84612,13172
84630,13216
84656,13279
84721,13376
84803,13458
84803,13458
84900,13523
85007,13567
85045,13575
85121,13590
85238,13590
85314,13575
85352,13567
85459,13523
85556,13458
85556,13458
85638,13376
85703,13279
85729,13216
85747,13172
85770,13058
85770,12941
85766,12921
85747,12827
85729,12783
85705,12725
85703,12720
85638,12623
85556,12541
85496,12500
85459,12476
85352,12432
85314,12424
85238,12409
85121,12409
85045,12424
" /> 
<polyline style="fill-rule:evenodd;"
points="104786,13590
105573,13590
105573,12409
104786,12409
104786,13590
" /> 
<polyline style="fill-rule:evenodd;"
points="90545,12424
90507,12432
90400,12476
90363,12500
90303,12541
90221,12623
90156,12720
90154,12725
90130,12783
90112,12827
90093,12921
90089,12941
90089,13058
90112,13172
90130,13216
90156,13279
90221,13376
90303,13458
90303,13458
90400,13523
90507,13567
90545,13575
90621,13590
90738,13590
90814,13575
90852,13567
90959,13523
91056,13458
91056,13458
91138,13376
91203,13279
91229,13216
91247,13172
91270,13058
91270,12941
91266,12921
91247,12827
91229,12783
91205,12725
91203,12720
91138,12623
91056,12541
90996,12500
90959,12476
90852,12432
90814,12424
90738,12409
90621,12409
90545,12424
" /> 
<polyline style="fill-rule:evenodd;"
points="94360,11862
94315,11871
94243,11901
94179,11944
94124,11999
94081,12063
94051,12135
94036,12211
94036,12288
94051,12364
94081,12436
94124,12500
94179,12555
94243,12598
94315,12628
94360,12637
94391,12643
94468,12643
94499,12637
94544,12628
94616,12598
94680,12555
94735,12500
94778,12436
94808,12364
94823,12288
94823,12211
94808,12135
94778,12063
94735,11999
94680,11944
94616,11901
94544,11871
94499,11862
94468,11856
94391,11856
94360,11862
" /> 
<polyline style="fill-rule:evenodd;"
points="98110,11862
98065,11871
97993,11901
97929,11944
97874,11999
97831,12063
97801,12135
97786,12211
97786,12288
97801,12364
97831,12436
97874,12500
97929,12555
97993,12598
98065,12628
98110,12637
98141,12643
98218,12643
98249,12637
98294,12628
98366,12598
98430,12555
98485,12500
98528,12436
98558,12364
98573,12288
98573,12211
98558,12135
98528,12063
98485,11999
98430,11944
98366,11901
98294,11871
98249,11862
98218,11856
98141,11856
98110,11862
" /> 
<polyline style="fill-rule:evenodd;"
points="99110,11862
99065,11871
98993,11901
98929,11944
98874,11999
98831,12063
98801,12135
98786,12211
98786,12288
98801,12364
98831,12436
98874,12500
98929,12555
98993,12598
99065,12628
99110,12637
99141,12643
99218,12643
99249,12637
99294,12628
99366,12598
99430,12555
99485,12500
99528,12436
99558,12364
99573,12288
99573,12211
99558,12135
99528,12063
99485,11999
99430,11944
99366,11901
99294,11871
99249,11862
99218,11856
99141,11856
99110,11862
" /> 
<polyline style="fill-rule:evenodd;"
points="103110,11862
103065,11871
102993,11901
102929,11944
102874,11999
102831,12063
102801,12135
102786,12211
102786,12288
102801,12364
102831,12436
102874,12500
102929,12555
102993,12598
103065,12628
103110,12637
103141,12643
103218,12643
103249,12637
103294,12628
103366,12598
103430,12555
103485,12500
103528,12436
103558,12364
103573,12288
103573,12211
103558,12135
103528,12063
103485,11999
103430,11944
103366,11901
103294,11871
103249,11862
103218,11856
103141,11856
103110,11862
" /> 
<polyline style="fill-rule:evenodd;"
points="92655,10861
92655,10861
92655,10861
92581,10884
92581,10884
92513,10921
92453,10970
92404,11030
92404,11030
92367,11098
92345,11172
92345,11172
92337,11250
92345,11327
92345,11327
92345,11327
92347,11334
92367,11401
92404,11469
92453,11529
92513,11578
92513,11578
92581,11615
92655,11638
92655,11638
92655,11638
92713,11643
93146,11643
93204,11638
93204,11638
93204,11638
93278,11615
93346,11578
93346,11578
93406,11529
93455,11469
93492,11401
93512,11334
93514,11327
93514,11327
93514,11327
93522,11250
93514,11172
93514,11172
93492,11098
93455,11030
93455,11030
93406,10970
93346,10921
93278,10884
93278,10884
93204,10861
93204,10861
93204,10861
93146,10856
92713,10856
92655,10861
" /> 
<polyline style="fill-rule:evenodd;"
points="95655,10861
95655,10861
95655,10861
95581,10884
95581,10884
95513,10921
95453,10970
95404,11030
95404,11030
95367,11098
95345,11172
95345,11172
95337,11250
95345,11327
95345,11327
95345,11327
95347,11334
95367,11401
95404,11469
95453,11529
95513,11578
95513,11578
95581,11615
95655,11638
95655,11638
95655,11638
95713,11643
96146,11643
96204,11638
96204,11638
96204,11638
96278,11615
96346,11578
96346,11578
96406,11529
96455,11469
96492,11401
96512,11334
96514,11327
96514,11327
96514,11327
96522,11250
96514,11172
96514,11172
96492,11098
96455,11030
96455,11030
96406,10970
96346,10921
96278,10884
96278,10884
96204,10861
96204,10861
96204,10861
96146,10856
95713,10856
95655,10861
" /> 
<polyline style="fill-rule:evenodd;"
points="87860,10862
87815,10871
87743,10901
87679,10944
87624,10999
87581,11063
87551,11135
87536,11211
87536,11288
87551,11364
87581,11436
87624,11500
87679,11555
87743,11598
87815,11628
87860,11637
87891,11643
87968,11643
87999,11637
88044,11628
88116,11598
88180,11555
88235,11500
88278,11436
88308,11364
88323,11288
88323,11211
88308,11135
88278,11063
88235,10999
88180,10944
88116,10901
88044,10871
87999,10862
87968,10856
87891,10856
87860,10862
" /> 
<polyline style="fill-rule:evenodd;"
points="97905,10861
97905,10861
97905,10861
97831,10884
97831,10884
97763,10921
97703,10970
97654,11030
97654,11030
97617,11098
97595,11172
97595,11172
97587,11250
97595,11327
97595,11327
97595,11327
97597,11334
97617,11401
97654,11469
97703,11529
97763,11578
97763,11578
97831,11615
97905,11638
97905,11638
97905,11638
97963,11643
98396,11643
98454,11638
98454,11638
98454,11638
98528,11615
98596,11578
98596,11578
98656,11529
98705,11469
98742,11401
98762,11334
98764,11327
98764,11327
98764,11327
98772,11250
98764,11172
98764,11172
98742,11098
98705,11030
98705,11030
98656,10970
98596,10921
98528,10884
98528,10884
98454,10861
98454,10861
98454,10861
98396,10856
97963,10856
97905,10861
" /> 
<polyline style="fill-rule:evenodd;"
points="100905,10861
100905,10861
100905,10861
100831,10884
100831,10884
100763,10921
100703,10970
100654,11030
100654,11030
100617,11098
100595,11172
100595,11172
100587,11250
100595,11327
100595,11327
100595,11327
100597,11334
100617,11401
100654,11469
100703,11529
100763,11578
100763,11578
100831,11615
100905,11638
100905,11638
100905,11638
100963,11643
101396,11643
101454,11638
101454,11638
101454,11638
101528,11615
101596,11578
101596,11578
101656,11529
101705,11469
101742,11401
101762,11334
101764,11327
101764,11327
101764,11327
101772,11250
101764,11172
101764,11172
101742,11098
101705,11030
101705,11030
101656,10970
101596,10921
101528,10884
101528,10884
101454,10861
101454,10861
101454,10861
101396,10856
100963,10856
100905,10861
" /> 
<polyline style="fill-rule:evenodd;"
points="105102,10165
105102,10165
105102,10165
105028,10187
105028,10187
105028,10187
104960,10224
104900,10273
104851,10333
104814,10401
104791,10475
104786,10533
104786,10966
104791,11024
104791,11024
104791,11024
104814,11098
104814,11098
104851,11166
104900,11226
104960,11275
104960,11275
105028,11312
105102,11334
105102,11334
105102,11334
105180,11342
105257,11334
105257,11334
105257,11334
105331,11312
105399,11275
105399,11275
105459,11226
105508,11166
105545,11098
105568,11024
105573,10966
105573,10533
105568,10475
105568,10475
105545,10401
105545,10401
105545,10401
105508,10333
105459,10273
105399,10224
105331,10187
105331,10187
105257,10165
105257,10165
105257,10165
105180,10157
105102,10165
" /> 
<polyline style="fill-rule:evenodd;"
points="106102,10165
106102,10165
106102,10165
106028,10187
106028,10187
106028,10187
105960,10224
105900,10273
105851,10333
105814,10401
105791,10475
105786,10533
105786,10966
105791,11024
105791,11024
105791,11024
105814,11098
105814,11098
105851,11166
105900,11226
105960,11275
105960,11275
106028,11312
106102,11334
106102,11334
106102,11334
106180,11342
106257,11334
106257,11334
106257,11334
106331,11312
106399,11275
106399,11275
106459,11226
106508,11166
106545,11098
106568,11024
106573,10966
106573,10533
106568,10475
106568,10475
106545,10401
106545,10401
106545,10401
106508,10333
106459,10273
106399,10224
106331,10187
106331,10187
106257,10165
106257,10165
106257,10165
106180,10157
106102,10165
" /> 
<polyline style="fill-rule:evenodd;"
points="107102,10165
107102,10165
107102,10165
107028,10187
107028,10187
107028,10187
106960,10224
106900,10273
106851,10333
106814,10401
106791,10475
106786,10533
106786,10966
106791,11024
106791,11024
106791,11024
106814,11098
106814,11098
106851,11166
106900,11226
106960,11275
106960,11275
107028,11312
107102,11334
107102,11334
107102,11334
107180,11342
107257,11334
107257,11334
107257,11334
107331,11312
107399,11275
107399,11275
107459,11226
107508,11166
107545,11098
107568,11024
107573,10966
107573,10533
107568,10475
107568,10475
107545,10401
107545,10401
107545,10401
107508,10333
107459,10273
107399,10224
107331,10187
107331,10187
107257,10165
107257,10165
107257,10165
107180,10157
107102,10165
" /> 
<polyline style="fill-rule:evenodd;"
points="103110,9862
103065,9871
102993,9901
102929,9944
102874,9999
102831,10063
102801,10135
102786,10211
102786,10288
102801,10364
102831,10436
102874,10500
102929,10555
102993,10598
103065,10628
103110,10637
103141,10643
103218,10643
103249,10637
103294,10628
103366,10598
103430,10555
103485,10500
103528,10436
103558,10364
103573,10288
103573,10211
103558,10135
103528,10063
103485,9999
103430,9944
103366,9901
103294,9871
103249,9862
103218,9856
103141,9856
103110,9862
" /> 
<polyline style="fill-rule:evenodd;"
points="94360,9862
94315,9871
94243,9901
94179,9944
94124,9999
94081,10063
94051,10135
94036,10211
94036,10288
94051,10364
94081,10436
94124,10500
94179,10555
94243,10598
94315,10628
94360,10637
94391,10643
94468,10643
94499,10637
94544,10628
94616,10598
94680,10555
94735,10500
94778,10436
94808,10364
94823,10288
94823,10211
94808,10135
94778,10063
94735,9999
94680,9944
94616,9901
94544,9871
94499,9862
94468,9856
94391,9856
94360,9862
" /> 
<polyline style="fill-rule:evenodd;"
points="96860,8862
96815,8871
96743,8901
96679,8944
96624,8999
96581,9063
96551,9135
96536,9211
96536,9288
96551,9364
96581,9436
96624,9500
96679,9555
96743,9598
96815,9628
96860,9637
96891,9643
96968,9643
96999,9637
97044,9628
97116,9598
97180,9555
97235,9500
97278,9436
97308,9364
97323,9288
97323,9211
97308,9135
97278,9063
97235,8999
97180,8944
97116,8901
97044,8871
96999,8862
96968,8856
96891,8856
96860,8862
" /> 
<polyline style="fill-rule:evenodd;"
points="106110,8862
106065,8871
105993,8901
105929,8944
105874,8999
105831,9063
105801,9135
105786,9211
105786,9288
105801,9364
105831,9436
105874,9500
105929,9555
105993,9598
106065,9628
106110,9637
106141,9643
106218,9643
106249,9637
106294,9628
106366,9598
106430,9555
106485,9500
106528,9436
106558,9364
106573,9288
106573,9211
106558,9135
106528,9063
106485,8999
106430,8944
106366,8901
106294,8871
106249,8862
106218,8856
106141,8856
106110,8862
" /> 
</g> 
</svg>
