M48
;DRILL file {KiCad (5.0.2)-1} date 19-03-2019 21:20:32
;FORMAT={-:-/ absolute / metric / decimal}
FMAT,2
METRIC,TZ
T1C0.900
%
G90
G05
T1
X137.414Y-87.122
X138.43Y-113.03
X147.955Y-113.03
X154.178Y-87.122
X154.94Y-92.71
X154.94Y-101.6
X154.94Y-104.14
X154.94Y-113.03
X177.8Y-85.09
X177.8Y-92.71
X157.48Y-85.09
X165.1Y-85.09
X140.335Y-94.615
X140.335Y-99.615
X170.815Y-89.535
X170.815Y-109.855
X184.785Y-89.535
X184.785Y-109.855
X128.27Y-113.665
X128.27Y-116.205
X127.635Y-109.855
X135.255Y-109.855
X157.48Y-105.41
X165.1Y-105.41
X140.335Y-103.585
X140.335Y-108.585
X134.62Y-113.665
X134.62Y-116.205
X157.48Y-110.49
X165.1Y-110.49
X177.8Y-111.125
X127.635Y-106.045
X135.255Y-106.045
X157.48Y-95.25
X165.1Y-95.25
X157.48Y-90.17
X165.1Y-90.17
X157.48Y-100.33
X165.1Y-100.33
X157.48Y-115.57
X165.1Y-115.57
X144.145Y-94.615
X144.145Y-97.155
X144.145Y-99.695
X144.145Y-102.235
X144.145Y-104.775
X144.145Y-107.315
X144.145Y-109.855
X151.765Y-94.615
X151.765Y-97.155
X151.765Y-99.695
X151.765Y-102.235
X151.765Y-104.775
X151.765Y-107.315
X151.765Y-109.855
X131.445Y-95.33
X131.445Y-100.33
X128.905Y-83.82
X128.905Y-89.535
X131.445Y-83.82
X131.445Y-89.535
X133.985Y-83.82
X133.985Y-89.535
X144.145Y-115.57
X151.765Y-115.57
X144.145Y-85.09
X151.765Y-85.09
X144.145Y-90.17
X151.765Y-90.17
T0
M30
