<?xml version="1.0" standalone="no"?>
 <!DOCTYPE svg PUBLIC "-//W3C//DTD SVG 1.1//EN" 
 "http://www.w3.org/Graphics/SVG/1.1/DTD/svg11.dtd"> 
<svg
  xmlns:svg="http://www.w3.org/2000/svg"
  xmlns="http://www.w3.org/2000/svg"
  xmlns:xlink="http://www.w3.org/1999/xlink"
  version="1.1"
  width="29.700220cm" height="21.000720cm" viewBox="0 0 116930 82680">
<title>SVG Picture created as questao-10.svg date 2020/11/19 23:16:33 </title>
  <desc>Picture generated by Eeschema-SVG </desc>
<g style="fill:#000000; fill-opacity:1;stroke:#000000; stroke-opacity:1;
stroke-linecap:round; stroke-linejoin:round;"
 transform="translate(0 0) scale(1 1)">
</g>
<g style="fill:#000000; fill-opacity:0.0; 
stroke:#000000; stroke-width:0; stroke-opacity:1; 
stroke-linecap:round; stroke-linejoin:round;">
<g >
</g>
<g style="fill:#840000; fill-opacity:0.0; 
stroke:#840000; stroke-width:0; stroke-opacity:1; 
stroke-linecap:round; stroke-linejoin:round;">
</g>
<g style="fill:#840000; fill-opacity:1.0; 
stroke:#840000; stroke-width:60; stroke-opacity:1; 
stroke-linecap:round; stroke-linejoin:round;">
<rect x="53600" y="28800" width="1800" height="100" rx="0" />
<rect x="53880" y="29030" width="1200" height="200" rx="0" />
</g>
<g style="fill:#840000; fill-opacity:0.0; 
stroke:#840000; stroke-width:60; stroke-opacity:1; 
stroke-linecap:round; stroke-linejoin:round;">
<path style="fill:#840000; fill-opacity:0.0; 
stroke:#840000; stroke-width:60; stroke-opacity:1; 
stroke-linecap:round; stroke-linejoin:round;fill:none"
d="M 54500,29200
54500,29500
" /> 
<path style="fill:#840000; fill-opacity:0.0; 
stroke:#840000; stroke-width:60; stroke-opacity:1; 
stroke-linecap:round; stroke-linejoin:round;fill:none"
d="M 54500,28800
54500,28500
" /> 
</g>
<g style="fill:#840000; fill-opacity:0.0; 
stroke:#840000; stroke-width:100; stroke-opacity:1; 
stroke-linecap:round; stroke-linejoin:round;">
<path style="fill:#840000; fill-opacity:0.0; 
stroke:#840000; stroke-width:100; stroke-opacity:1; 
stroke-linecap:round; stroke-linejoin:round;fill:none"
d="M 54700,28150
55100,28150
" /> 
<path style="fill:#840000; fill-opacity:0.0; 
stroke:#840000; stroke-width:100; stroke-opacity:1; 
stroke-linecap:round; stroke-linejoin:round;fill:none"
d="M 54900,27950
54900,28350
" /> 
</g>
<g style="fill:#840000; fill-opacity:0.0; 
stroke:#840000; stroke-width:60; stroke-opacity:1; 
stroke-linecap:round; stroke-linejoin:round;">
<path d="M54500 28500
L54500 27500
" />
<path d="M54500 29500
L54500 30500
" />
</g>
<g style="fill:#008484; fill-opacity:0.0; 
stroke:#008484; stroke-width:60; stroke-opacity:1; 
stroke-linecap:round; stroke-linejoin:round;">
<text x="56160" y="28810"
textLength="960" font-size="660" lengthAdjust="spacingAndGlyphs"
text-anchor="middle" opacity="0">V2</text>
<path d="M55750 28280
L55920 28780
L56080 28280
" />
<path d="M56230 28330
L56250 28310
L56300 28280
L56420 28280
L56460 28310
L56490 28330
L56510 28380
L56510 28420
L56490 28500
L56200 28780
L56510 28780
" />
<text x="56160" y="29720"
textLength="960" font-size="660" lengthAdjust="spacingAndGlyphs"
text-anchor="middle" opacity="0">2V</text>
<path d="M55800 29240
L55820 29220
L55870 29190
L55990 29190
L56040 29220
L56060 29240
L56080 29290
L56080 29330
L56060 29410
L55770 29690
L56080 29690
" />
<path d="M56230 29190
L56390 29690
L56560 29190
" />
</g>
</g>
<g style="fill:#008484; fill-opacity:0.0; 
stroke:#008484; stroke-width:0; stroke-opacity:1; 
stroke-linecap:round; stroke-linejoin:round;">
<g >
</g>
<g style="fill:#840000; fill-opacity:0.0; 
stroke:#840000; stroke-width:0; stroke-opacity:1; 
stroke-linecap:round; stroke-linejoin:round;">
</g>
<g style="fill:#840000; fill-opacity:0.0; 
stroke:#840000; stroke-width:60; stroke-opacity:1; 
stroke-linecap:round; stroke-linejoin:round;">
<path style="fill:#840000; fill-opacity:0.0; 
stroke:#840000; stroke-width:60; stroke-opacity:1; 
stroke-linecap:round; stroke-linejoin:round;fill:none"
d="M 50100,24500
50000,24500
" /> 
<path style="fill:#840000; fill-opacity:0.0; 
stroke:#840000; stroke-width:60; stroke-opacity:1; 
stroke-linecap:round; stroke-linejoin:round;fill:none"
d="M 51900,24500
52000,24500
" /> 
<path style="fill:#840000; fill-opacity:0.0; 
stroke:#840000; stroke-width:60; stroke-opacity:1; 
stroke-linecap:round; stroke-linejoin:round;fill:none"
d="M 50700,24500
50550,24900
50400,24500
50250,24100
50100,24500
" /> 
<path style="fill:#840000; fill-opacity:0.0; 
stroke:#840000; stroke-width:60; stroke-opacity:1; 
stroke-linecap:round; stroke-linejoin:round;fill:none"
d="M 51300,24500
51150,24900
51000,24500
50850,24100
50700,24500
" /> 
<path style="fill:#840000; fill-opacity:0.0; 
stroke:#840000; stroke-width:60; stroke-opacity:1; 
stroke-linecap:round; stroke-linejoin:round;fill:none"
d="M 51900,24500
51750,24900
51600,24500
51450,24100
51300,24500
" /> 
<path d="M52000 24500
L52500 24500
" />
<path d="M50000 24500
L49500 24500
" />
</g>
<g style="fill:#008484; fill-opacity:0.0; 
stroke:#008484; stroke-width:60; stroke-opacity:1; 
stroke-linecap:round; stroke-linejoin:round;">
<text x="51000" y="22720"
textLength="1040" font-size="660" lengthAdjust="spacingAndGlyphs"
text-anchor="middle" opacity="0">R1</text>
<path d="M50910 22690
L50750 22450
" />
<path d="M50630 22690
L50630 22190
L50820 22190
L50860 22220
L50890 22240
L50910 22290
L50910 22360
L50890 22410
L50860 22430
L50820 22450
L50630 22450
" />
<path d="M51390 22690
L51100 22690
" />
<path d="M51250 22690
L51250 22190
L51200 22260
L51150 22310
L51100 22330
" />
<text x="51000" y="23630"
textLength="1990" font-size="660" lengthAdjust="spacingAndGlyphs"
text-anchor="middle" opacity="0">5k6Ω</text>
<path d="M50390 23100
L50150 23100
L50130 23340
L50150 23320
L50200 23290
L50320 23290
L50360 23320
L50390 23340
L50410 23390
L50410 23510
L50390 23550
L50360 23580
L50320 23600
L50200 23600
L50150 23580
L50130 23550
" />
<path d="M50630 23600
L50630 23100
" />
<path d="M50670 23410
L50820 23600
" />
<path d="M50820 23270
L50630 23460
" />
<path d="M51250 23100
L51150 23100
L51100 23130
L51080 23150
L51030 23220
L51010 23320
L51010 23510
L51030 23550
L51050 23580
L51100 23600
L51200 23600
L51250 23580
L51270 23550
L51290 23510
L51290 23390
L51270 23340
L51250 23320
L51200 23290
L51100 23290
L51050 23320
L51030 23340
L51010 23390
" />
<path d="M51480 23600
L51600 23600
L51600 23510
L51550 23480
L51510 23430
L51480 23360
L51480 23240
L51510 23170
L51550 23130
L51630 23100
L51720 23100
L51790 23130
L51840 23170
L51860 23240
L51860 23360
L51840 23430
L51790 23480
L51750 23510
L51750 23600
L51860 23600
" />
</g>
</g>
<g style="fill:#008484; fill-opacity:0.0; 
stroke:#008484; stroke-width:0; stroke-opacity:1; 
stroke-linecap:round; stroke-linejoin:round;">
<g >
</g>
<g style="fill:#840000; fill-opacity:0.0; 
stroke:#840000; stroke-width:0; stroke-opacity:1; 
stroke-linecap:round; stroke-linejoin:round;">
</g>
<g style="fill:#840000; fill-opacity:0.0; 
stroke:#840000; stroke-width:60; stroke-opacity:1; 
stroke-linecap:round; stroke-linejoin:round;">
<path style="fill:#840000; fill-opacity:0.0; 
stroke:#840000; stroke-width:60; stroke-opacity:1; 
stroke-linecap:round; stroke-linejoin:round;fill:none"
d="M 58100,25500
58000,25500
" /> 
<path style="fill:#840000; fill-opacity:0.0; 
stroke:#840000; stroke-width:60; stroke-opacity:1; 
stroke-linecap:round; stroke-linejoin:round;fill:none"
d="M 59900,25500
60000,25500
" /> 
<path style="fill:#840000; fill-opacity:0.0; 
stroke:#840000; stroke-width:60; stroke-opacity:1; 
stroke-linecap:round; stroke-linejoin:round;fill:none"
d="M 58700,25500
58550,25900
58400,25500
58250,25100
58100,25500
" /> 
<path style="fill:#840000; fill-opacity:0.0; 
stroke:#840000; stroke-width:60; stroke-opacity:1; 
stroke-linecap:round; stroke-linejoin:round;fill:none"
d="M 59300,25500
59150,25900
59000,25500
58850,25100
58700,25500
" /> 
<path style="fill:#840000; fill-opacity:0.0; 
stroke:#840000; stroke-width:60; stroke-opacity:1; 
stroke-linecap:round; stroke-linejoin:round;fill:none"
d="M 59900,25500
59750,25900
59600,25500
59450,25100
59300,25500
" /> 
<path d="M60000 25500
L60500 25500
" />
<path d="M58000 25500
L57500 25500
" />
</g>
<g style="fill:#008484; fill-opacity:0.0; 
stroke:#008484; stroke-width:60; stroke-opacity:1; 
stroke-linecap:round; stroke-linejoin:round;">
<text x="59000" y="26770"
textLength="1040" font-size="660" lengthAdjust="spacingAndGlyphs"
text-anchor="middle" opacity="0">R2</text>
<path d="M58910 26740
L58750 26500
" />
<path d="M58630 26740
L58630 26240
L58820 26240
L58860 26270
L58890 26290
L58910 26340
L58910 26410
L58890 26460
L58860 26480
L58820 26500
L58630 26500
" />
<path d="M59100 26290
L59130 26270
L59170 26240
L59290 26240
L59340 26270
L59360 26290
L59390 26340
L59390 26380
L59360 26460
L59080 26740
L59390 26740
" />
<text x="59000" y="27770"
textLength="1990" font-size="660" lengthAdjust="spacingAndGlyphs"
text-anchor="middle" opacity="0">10kΩ</text>
<path d="M58410 27740
L58130 27740
" />
<path d="M58270 27740
L58270 27240
L58220 27310
L58170 27360
L58130 27380
" />
<path d="M58720 27240
L58770 27240
L58820 27270
L58840 27290
L58860 27340
L58890 27430
L58890 27550
L58860 27650
L58840 27690
L58820 27720
L58770 27740
L58720 27740
L58670 27720
L58650 27690
L58630 27650
L58600 27550
L58600 27430
L58630 27340
L58650 27290
L58670 27270
L58720 27240
" />
<path d="M59100 27740
L59100 27240
" />
<path d="M59150 27550
L59290 27740
" />
<path d="M59290 27410
L59100 27600
" />
<path d="M59480 27740
L59600 27740
L59600 27650
L59550 27620
L59510 27570
L59480 27500
L59480 27380
L59510 27310
L59550 27270
L59630 27240
L59720 27240
L59790 27270
L59840 27310
L59860 27380
L59860 27500
L59840 27570
L59790 27620
L59750 27650
L59750 27740
L59860 27740
" />
</g>
</g>
<g style="fill:#008484; fill-opacity:0.0; 
stroke:#008484; stroke-width:0; stroke-opacity:1; 
stroke-linecap:round; stroke-linejoin:round;">
<g >
</g>
<g style="fill:#840000; fill-opacity:0.0; 
stroke:#840000; stroke-width:0; stroke-opacity:1; 
stroke-linecap:round; stroke-linejoin:round;">
</g>
<g style="fill:#840000; fill-opacity:0.0; 
stroke:#840000; stroke-width:60; stroke-opacity:1; 
stroke-linecap:round; stroke-linejoin:round;">
<path style="fill:#840000; fill-opacity:0.0; 
stroke:#840000; stroke-width:60; stroke-opacity:1; 
stroke-linecap:round; stroke-linejoin:round;fill:none"
d="M 62500,28100
62500,28000
" /> 
<path style="fill:#840000; fill-opacity:0.0; 
stroke:#840000; stroke-width:60; stroke-opacity:1; 
stroke-linecap:round; stroke-linejoin:round;fill:none"
d="M 62500,29900
62500,30000
" /> 
<path style="fill:#840000; fill-opacity:0.0; 
stroke:#840000; stroke-width:60; stroke-opacity:1; 
stroke-linecap:round; stroke-linejoin:round;fill:none"
d="M 62500,28700
62100,28550
62500,28400
62900,28250
62500,28100
" /> 
<path style="fill:#840000; fill-opacity:0.0; 
stroke:#840000; stroke-width:60; stroke-opacity:1; 
stroke-linecap:round; stroke-linejoin:round;fill:none"
d="M 62500,29300
62100,29150
62500,29000
62900,28850
62500,28700
" /> 
<path style="fill:#840000; fill-opacity:0.0; 
stroke:#840000; stroke-width:60; stroke-opacity:1; 
stroke-linecap:round; stroke-linejoin:round;fill:none"
d="M 62500,29900
62100,29750
62500,29600
62900,29450
62500,29300
" /> 
<path d="M62500 30000
L62500 30500
" />
<path d="M62500 28000
L62500 27500
" />
</g>
<g style="fill:#008484; fill-opacity:0.0; 
stroke:#008484; stroke-width:60; stroke-opacity:1; 
stroke-linecap:round; stroke-linejoin:round;">
<text x="63700" y="28760"
textLength="1040" font-size="660" lengthAdjust="spacingAndGlyphs"
text-anchor="middle" opacity="0">R3</text>
<path d="M63610 28730
L63450 28490
" />
<path d="M63330 28730
L63330 28230
L63520 28230
L63560 28260
L63590 28280
L63610 28330
L63610 28400
L63590 28450
L63560 28470
L63520 28490
L63330 28490
" />
<path d="M63780 28230
L64090 28230
L63920 28420
L63990 28420
L64040 28450
L64060 28470
L64090 28520
L64090 28640
L64060 28680
L64040 28710
L63990 28730
L63850 28730
L63800 28710
L63780 28680
" />
<text x="64170" y="29670"
textLength="1990" font-size="660" lengthAdjust="spacingAndGlyphs"
text-anchor="middle" opacity="0">6k8Ω</text>
<path d="M63530 29140
L63440 29140
L63390 29170
L63370 29190
L63320 29260
L63300 29360
L63300 29550
L63320 29590
L63340 29620
L63390 29640
L63490 29640
L63530 29620
L63560 29590
L63580 29550
L63580 29430
L63560 29380
L63530 29360
L63490 29330
L63390 29330
L63340 29360
L63320 29380
L63300 29430
" />
<path d="M63800 29640
L63800 29140
" />
<path d="M63840 29450
L63990 29640
" />
<path d="M63990 29310
L63800 29500
" />
<path d="M64270 29360
L64220 29330
L64200 29310
L64180 29260
L64180 29240
L64200 29190
L64220 29170
L64270 29140
L64370 29140
L64420 29170
L64440 29190
L64460 29240
L64460 29260
L64440 29310
L64420 29330
L64370 29360
L64270 29360
L64220 29380
L64200 29400
L64180 29450
L64180 29550
L64200 29590
L64220 29620
L64270 29640
L64370 29640
L64420 29620
L64440 29590
L64460 29550
L64460 29450
L64440 29400
L64420 29380
L64370 29360
" />
<path d="M64650 29640
L64770 29640
L64770 29550
L64720 29520
L64680 29470
L64650 29400
L64650 29280
L64680 29210
L64720 29170
L64800 29140
L64890 29140
L64960 29170
L65010 29210
L65030 29280
L65030 29400
L65010 29470
L64960 29520
L64920 29550
L64920 29640
L65030 29640
" />
</g>
</g>
<g style="fill:#008484; fill-opacity:0.0; 
stroke:#008484; stroke-width:0; stroke-opacity:1; 
stroke-linecap:round; stroke-linejoin:round;">
<g >
</g>
<g style="fill:#840000; fill-opacity:0.0; 
stroke:#840000; stroke-width:0; stroke-opacity:1; 
stroke-linecap:round; stroke-linejoin:round;">
</g>
<g style="fill:#840000; fill-opacity:0.0; 
stroke:#840000; stroke-width:200; stroke-opacity:1; 
stroke-linecap:round; stroke-linejoin:round;">
<path style="fill:#840000; fill-opacity:0.0; 
stroke:#840000; stroke-width:200; stroke-opacity:1; 
stroke-linecap:round; stroke-linejoin:round;fill:none"
d="M 69700,29300
71300,29300
" /> 
<path style="fill:#840000; fill-opacity:0.0; 
stroke:#840000; stroke-width:200; stroke-opacity:1; 
stroke-linecap:round; stroke-linejoin:round;fill:none"
d="M 69700,28700
71300,28700
" /> 
</g>
<g style="fill:#840000; fill-opacity:0.0; 
stroke:#840000; stroke-width:60; stroke-opacity:1; 
stroke-linecap:round; stroke-linejoin:round;">
<path d="M70500 28600
L70500 27500
" />
<path d="M70500 29400
L70500 30500
" />
</g>
<g style="fill:#008484; fill-opacity:0.0; 
stroke:#008484; stroke-width:60; stroke-opacity:1; 
stroke-linecap:round; stroke-linejoin:round;">
<text x="72170" y="28810"
textLength="1040" font-size="660" lengthAdjust="spacingAndGlyphs"
text-anchor="middle" opacity="0">C1</text>
<path d="M72080 28730
L72060 28760
L71990 28780
L71940 28780
L71870 28760
L71820 28710
L71800 28660
L71770 28570
L71770 28500
L71800 28400
L71820 28350
L71870 28310
L71940 28280
L71990 28280
L72060 28310
L72080 28330
" />
<path d="M72560 28780
L72270 28780
" />
<path d="M72420 28780
L72420 28280
L72370 28350
L72320 28400
L72270 28420
" />
<text x="72710" y="29720"
textLength="2130" font-size="660" lengthAdjust="spacingAndGlyphs"
text-anchor="middle" opacity="0">4,7nF</text>
<path d="M72000 29360
L72000 29690
" />
<path d="M71880 29170
L71760 29520
L72070 29520
" />
<path d="M72290 29670
L72290 29690
L72260 29740
L72240 29760
" />
<path d="M72460 29190
L72790 29190
L72570 29690
" />
<path d="M72980 29360
L72980 29690
" />
<path d="M72980 29410
L73000 29380
L73050 29360
L73120 29360
L73170 29380
L73190 29430
L73190 29690
" />
<path d="M73600 29430
L73430 29430
" />
<path d="M73430 29690
L73430 29190
L73670 29190
" />
</g>
</g>
<g style="fill:#008484; fill-opacity:0.0; 
stroke:#008484; stroke-width:0; stroke-opacity:1; 
stroke-linecap:round; stroke-linejoin:round;">
<g >
</g>
<g style="fill:#840000; fill-opacity:0.0; 
stroke:#840000; stroke-width:0; stroke-opacity:1; 
stroke-linecap:round; stroke-linejoin:round;">
</g>
<g style="fill:#840000; fill-opacity:0.0; 
stroke:#840000; stroke-width:60; stroke-opacity:1; 
stroke-linecap:round; stroke-linejoin:round;">
<circle cx="67800" cy="25500" r="180" /> 
<circle cx="66200" cy="26500" r="180" /> 
<circle cx="66200" cy="25500" r="180" /> 
<circle cx="66200" cy="24500" r="180" /> 
<path style="fill:#840000; fill-opacity:0.0; 
stroke:#840000; stroke-width:60; stroke-opacity:1; 
stroke-linecap:round; stroke-linejoin:round;fill:none"
d="M 67650,25400
66350,24600
" /> 
<path d="M66000 24500
L65000 24500
" />
<text x="65500" y="25100"
textLength="540" font-size="660" lengthAdjust="spacingAndGlyphs"
text-anchor="middle" opacity="0">1</text>
<path d="M65640 25070
L65350 25070
" />
<path d="M65500 25070
L65500 24570
L65450 24640
L65400 24690
L65350 24710
" />
<path d="M66000 25500
L65000 25500
" />
<text x="65500" y="26100"
textLength="540" font-size="660" lengthAdjust="spacingAndGlyphs"
text-anchor="middle" opacity="0">2</text>
<path d="M65350 25620
L65380 25600
L65420 25570
L65540 25570
L65590 25600
L65610 25620
L65640 25670
L65640 25710
L65610 25790
L65330 26070
L65640 26070
" />
<path d="M68000 25500
L69000 25500
" />
<text x="68500" y="26100"
textLength="540" font-size="660" lengthAdjust="spacingAndGlyphs"
text-anchor="middle" opacity="0">3</text>
<path d="M68330 25570
L68640 25570
L68470 25760
L68540 25760
L68590 25790
L68610 25810
L68640 25860
L68640 25980
L68610 26020
L68590 26050
L68540 26070
L68400 26070
L68350 26050
L68330 26020
" />
<path d="M66000 26500
L65000 26500
" />
<text x="65500" y="27100"
textLength="540" font-size="660" lengthAdjust="spacingAndGlyphs"
text-anchor="middle" opacity="0">4</text>
<path d="M65590 26740
L65590 27070
" />
<path d="M65470 26550
L65350 26900
L65660 26900
" />
</g>
<g style="fill:#008484; fill-opacity:0.0; 
stroke:#008484; stroke-width:60; stroke-opacity:1; 
stroke-linecap:round; stroke-linejoin:round;">
<text x="68740" y="27020"
textLength="2010" font-size="660" lengthAdjust="spacingAndGlyphs"
text-anchor="middle" opacity="0">SW1A</text>
<path d="M67850 26970
L67930 26990
L68040 26990
L68090 26970
L68120 26940
L68140 26900
L68140 26850
L68120 26800
L68090 26780
L68040 26750
L67950 26730
L67900 26710
L67880 26680
L67850 26630
L67850 26590
L67880 26540
L67900 26520
L67950 26490
L68070 26490
L68140 26520
" />
<path d="M68310 26490
L68430 26990
L68520 26630
L68620 26990
L68740 26490
" />
<path d="M69190 26990
L68900 26990
" />
<path d="M69040 26990
L69040 26490
L69000 26560
L68950 26610
L68900 26630
" />
<path d="M69380 26850
L69620 26850
" />
<path d="M69330 26990
L69500 26490
L69660 26990
" />
</g>
</g>
<g style="fill:#008484; fill-opacity:0.0; 
stroke:#008484; stroke-width:0; stroke-opacity:1; 
stroke-linecap:round; stroke-linejoin:round;">
<g >
</g>
<g style="fill:#840000; fill-opacity:0.0; 
stroke:#840000; stroke-width:0; stroke-opacity:1; 
stroke-linecap:round; stroke-linejoin:round;">
</g>
<g style="fill:#840000; fill-opacity:0.0; 
stroke:#840000; stroke-width:60; stroke-opacity:1; 
stroke-linecap:round; stroke-linejoin:round;">
<path d="M68498.1 24495.8 A2010 2010 0.0 0 0 66754.1 26252" />
</g>
<g style="fill:#840000; fill-opacity:1.0; 
stroke:#840000; stroke-width:60; stroke-opacity:1; 
stroke-linecap:round; stroke-linejoin:round;">
<path style="fill:#840000; fill-opacity:1.0; 
stroke:#840000; stroke-width:60; stroke-opacity:1; 
stroke-linecap:round; stroke-linejoin:round;fill-rule:evenodd;"
d="M 66750,26500
66700,26150
66850,26150
Z" /> 
</g>
<g style="fill:#840084; fill-opacity:0.0; 
stroke:#840084; stroke-width:60; stroke-opacity:1; 
stroke-linecap:round; stroke-linejoin:round;">
<text x="72730" y="23770"
textLength="3540" font-size="660" lengthAdjust="spacingAndGlyphs"
text-anchor="middle" opacity="0">t0 = 0us</text>
<path d="M71030 23410
L71230 23410
" />
<path d="M71110 23240
L71110 23670
L71130 23720
L71180 23740
L71230 23740
" />
<path d="M71490 23240
L71530 23240
L71580 23270
L71610 23290
L71630 23340
L71650 23430
L71650 23550
L71630 23650
L71610 23690
L71580 23720
L71530 23740
L71490 23740
L71440 23720
L71420 23690
L71390 23650
L71370 23550
L71370 23430
L71390 23340
L71420 23290
L71440 23270
L71490 23240
" />
<path d="M72250 23480
L72630 23480
" />
<path d="M72630 23620
L72250 23620
" />
<path d="M73340 23240
L73390 23240
L73440 23270
L73460 23290
L73490 23340
L73510 23430
L73510 23550
L73490 23650
L73460 23690
L73440 23720
L73390 23740
L73340 23740
L73300 23720
L73270 23690
L73250 23650
L73230 23550
L73230 23430
L73250 23340
L73270 23290
L73300 23270
L73340 23240
" />
<path d="M73940 23410
L73940 23740
" />
<path d="M73730 23410
L73730 23670
L73750 23720
L73800 23740
L73870 23740
L73920 23720
L73940 23690
" />
<path d="M74150 23720
L74200 23740
L74300 23740
L74340 23720
L74370 23670
L74370 23650
L74340 23600
L74300 23570
L74230 23570
L74180 23550
L74150 23500
L74150 23480
L74180 23430
L74230 23410
L74300 23410
L74340 23430
" />
<text x="72990" y="24770"
textLength="4010" font-size="660" lengthAdjust="spacingAndGlyphs"
text-anchor="middle" opacity="0">t1 = 20us</text>
<path d="M71060 24410
L71250 24410
" />
<path d="M71130 24240
L71130 24670
L71150 24720
L71200 24740
L71250 24740
" />
<path d="M71680 24740
L71390 24740
" />
<path d="M71530 24740
L71530 24240
L71490 24310
L71440 24360
L71390 24380
" />
<path d="M72270 24480
L72650 24480
" />
<path d="M72650 24620
L72270 24620
" />
<path d="M73250 24290
L73270 24270
L73320 24240
L73440 24240
L73490 24270
L73510 24290
L73530 24340
L73530 24380
L73510 24460
L73220 24740
L73530 24740
" />
<path d="M73840 24240
L73890 24240
L73940 24270
L73960 24290
L73990 24340
L74010 24430
L74010 24550
L73990 24650
L73960 24690
L73940 24720
L73890 24740
L73840 24740
L73790 24720
L73770 24690
L73750 24650
L73720 24550
L73720 24430
L73750 24340
L73770 24290
L73790 24270
L73840 24240
" />
<path d="M74440 24410
L74440 24740
" />
<path d="M74220 24410
L74220 24670
L74250 24720
L74290 24740
L74370 24740
L74410 24720
L74440 24690
" />
<path d="M74650 24720
L74700 24740
L74790 24740
L74840 24720
L74870 24670
L74870 24650
L74840 24600
L74790 24570
L74720 24570
L74680 24550
L74650 24500
L74650 24480
L74680 24430
L74720 24410
L74790 24410
L74840 24430
" />
<text x="73250" y="25770"
textLength="4490" font-size="660" lengthAdjust="spacingAndGlyphs"
text-anchor="middle" opacity="0">t2 = 110us</text>
<path d="M71080 25410
L71270 25410
" />
<path d="M71150 25240
L71150 25670
L71170 25720
L71220 25740
L71270 25740
" />
<path d="M71410 25290
L71440 25270
L71480 25240
L71600 25240
L71650 25270
L71670 25290
L71700 25340
L71700 25380
L71670 25460
L71390 25740
L71700 25740
" />
<path d="M72290 25480
L72670 25480
" />
<path d="M72670 25620
L72290 25620
" />
<path d="M73550 25740
L73270 25740
" />
<path d="M73410 25740
L73410 25240
L73360 25310
L73320 25360
L73270 25380
" />
<path d="M74030 25740
L73750 25740
" />
<path d="M73890 25740
L73890 25240
L73840 25310
L73790 25360
L73750 25380
" />
<path d="M74340 25240
L74390 25240
L74440 25270
L74460 25290
L74480 25340
L74510 25430
L74510 25550
L74480 25650
L74460 25690
L74440 25720
L74390 25740
L74340 25740
L74290 25720
L74270 25690
L74250 25650
L74220 25550
L74220 25430
L74250 25340
L74270 25290
L74290 25270
L74340 25240
" />
<path d="M74940 25410
L74940 25740
" />
<path d="M74720 25410
L74720 25670
L74750 25720
L74790 25740
L74860 25740
L74910 25720
L74940 25690
" />
<path d="M75150 25720
L75200 25740
L75290 25740
L75340 25720
L75360 25670
L75360 25650
L75340 25600
L75290 25570
L75220 25570
L75170 25550
L75150 25500
L75150 25480
L75170 25430
L75220 25410
L75290 25410
L75340 25430
" />
</g>
</g>
<g style="fill:#840084; fill-opacity:0.0; 
stroke:#840084; stroke-width:0; stroke-opacity:1; 
stroke-linecap:round; stroke-linejoin:round;">
<g >
</g>
<g style="fill:#840000; fill-opacity:0.0; 
stroke:#840000; stroke-width:0; stroke-opacity:1; 
stroke-linecap:round; stroke-linejoin:round;">
</g>
<g style="fill:#840000; fill-opacity:1.0; 
stroke:#840000; stroke-width:60; stroke-opacity:1; 
stroke-linecap:round; stroke-linejoin:round;">
<rect x="45600" y="28800" width="1800" height="100" rx="0" />
<rect x="45880" y="29030" width="1200" height="200" rx="0" />
</g>
<g style="fill:#840000; fill-opacity:0.0; 
stroke:#840000; stroke-width:60; stroke-opacity:1; 
stroke-linecap:round; stroke-linejoin:round;">
<path style="fill:#840000; fill-opacity:0.0; 
stroke:#840000; stroke-width:60; stroke-opacity:1; 
stroke-linecap:round; stroke-linejoin:round;fill:none"
d="M 46500,29200
46500,29500
" /> 
<path style="fill:#840000; fill-opacity:0.0; 
stroke:#840000; stroke-width:60; stroke-opacity:1; 
stroke-linecap:round; stroke-linejoin:round;fill:none"
d="M 46500,28800
46500,28500
" /> 
</g>
<g style="fill:#840000; fill-opacity:0.0; 
stroke:#840000; stroke-width:100; stroke-opacity:1; 
stroke-linecap:round; stroke-linejoin:round;">
<path style="fill:#840000; fill-opacity:0.0; 
stroke:#840000; stroke-width:100; stroke-opacity:1; 
stroke-linecap:round; stroke-linejoin:round;fill:none"
d="M 46700,28150
47100,28150
" /> 
<path style="fill:#840000; fill-opacity:0.0; 
stroke:#840000; stroke-width:100; stroke-opacity:1; 
stroke-linecap:round; stroke-linejoin:round;fill:none"
d="M 46900,27950
46900,28350
" /> 
</g>
<g style="fill:#840000; fill-opacity:0.0; 
stroke:#840000; stroke-width:60; stroke-opacity:1; 
stroke-linecap:round; stroke-linejoin:round;">
<path d="M46500 28500
L46500 27500
" />
<path d="M46500 29500
L46500 30500
" />
</g>
<g style="fill:#008484; fill-opacity:0.0; 
stroke:#008484; stroke-width:60; stroke-opacity:1; 
stroke-linecap:round; stroke-linejoin:round;">
<text x="48160" y="28810"
textLength="960" font-size="660" lengthAdjust="spacingAndGlyphs"
text-anchor="middle" opacity="0">V1</text>
<path d="M47750 28280
L47920 28780
L48080 28280
" />
<path d="M48510 28780
L48230 28780
" />
<path d="M48370 28780
L48370 28280
L48320 28350
L48270 28400
L48230 28420
" />
<text x="48400" y="29720"
textLength="1440" font-size="660" lengthAdjust="spacingAndGlyphs"
text-anchor="middle" opacity="0">15V</text>
<path d="M48090 29690
L47800 29690
" />
<path d="M47940 29690
L47940 29190
L47900 29260
L47850 29310
L47800 29330
" />
<path d="M48540 29190
L48300 29190
L48280 29430
L48300 29410
L48350 29380
L48470 29380
L48510 29410
L48540 29430
L48560 29480
L48560 29600
L48540 29640
L48510 29670
L48470 29690
L48350 29690
L48300 29670
L48280 29640
" />
<path d="M48700 29190
L48870 29690
L49040 29190
" />
</g>
</g>
<g style="fill:#008484; fill-opacity:0.0; 
stroke:#008484; stroke-width:60; stroke-opacity:1; 
stroke-linecap:round; stroke-linejoin:round;">
</g>
<g style="fill:#008400; fill-opacity:0.0; 
stroke:#008400; stroke-width:60; stroke-opacity:1; 
stroke-linecap:round; stroke-linejoin:round;">
<path d="M54500 30500
L54500 32500
" />
<path d="M62500 26500
L65000 26500
" />
<path d="M62500 27500
L62500 26500
" />
<path d="M54500 25500
L54500 27500
" />
<path d="M57500 25500
L54500 25500
" />
<path d="M62500 32500
L70500 32500
" />
<path d="M62500 30500
L62500 32500
" />
<path d="M54500 32500
L62500 32500
" />
<path d="M65000 24500
L52500 24500
" />
<path d="M60500 25500
L65000 25500
" />
<path d="M46500 24500
L49500 24500
" />
<path d="M46500 27500
L46500 24500
" />
<path d="M70500 30500
L70500 32500
" />
<path d="M46500 32500
L54500 32500
" />
<path d="M46500 30500
L46500 32500
" />
<path d="M70500 25500
L70500 27500
" />
<path d="M69000 25500
L70500 25500
" />
</g>
<g style="fill:#008400; fill-opacity:0.0; 
stroke:#008400; stroke-width:50; stroke-opacity:1; 
stroke-linecap:round; stroke-linejoin:round;">
</g>
<g style="fill:#0000C2; fill-opacity:0.0; 
stroke:#0000C2; stroke-width:50; stroke-opacity:1; 
stroke-linecap:round; stroke-linejoin:round;">
<text x="66500" y="24410"
textLength="520" font-size="400" lengthAdjust="spacingAndGlyphs"
text-anchor="start" opacity="0">t0</text>
<path d="M66550 24190
L66660 24190
" />
<path d="M66590 24090
L66590 24350
L66610 24380
L66630 24390
L66660 24390
" />
<path d="M66820 24090
L66850 24090
L66880 24110
L66890 24120
L66910 24150
L66920 24210
L66920 24280
L66910 24330
L66890 24360
L66880 24380
L66850 24390
L66820 24390
L66790 24380
L66780 24360
L66760 24330
L66750 24280
L66750 24210
L66760 24150
L66780 24120
L66790 24110
L66820 24090
" />
<text x="66500" y="25410"
textLength="510" font-size="400" lengthAdjust="spacingAndGlyphs"
text-anchor="start" opacity="0">t1</text>
<path d="M66550 25190
L66660 25190
" />
<path d="M66590 25090
L66590 25350
L66610 25380
L66630 25390
L66660 25390
" />
<path d="M66920 25390
L66750 25390
" />
<path d="M66830 25390
L66830 25090
L66810 25130
L66780 25160
L66750 25180
" />
<text x="66500" y="27160"
textLength="510" font-size="400" lengthAdjust="spacingAndGlyphs"
text-anchor="start" opacity="0">t2</text>
<path d="M66550 26940
L66660 26940
" />
<path d="M66590 26840
L66590 27100
L66610 27130
L66630 27140
L66660 27140
" />
<path d="M66750 26870
L66760 26860
L66790 26840
L66860 26840
L66890 26860
L66910 26870
L66920 26900
L66920 26930
L66910 26970
L66730 27140
L66920 27140
" />
</g>
<g style="fill:#0000C2; fill-opacity:0.0; 
stroke:#0000C2; stroke-width:60; stroke-opacity:1; 
stroke-linecap:round; stroke-linejoin:round;">
<text x="71000" y="26900"
textLength="4950" font-size="660" lengthAdjust="spacingAndGlyphs"
text-anchor="start" opacity="0">(tf = 270us)</text>
<path d="M71290 27060
L71260 27040
L71220 26970
L71190 26920
L71170 26850
L71140 26730
L71140 26630
L71170 26510
L71190 26440
L71220 26400
L71260 26320
L71290 26300
" />
<path d="M71410 26540
L71600 26540
" />
<path d="M71480 26370
L71480 26800
L71500 26850
L71550 26870
L71600 26870
" />
<path d="M71690 26540
L71880 26540
" />
<path d="M71760 26870
L71760 26440
L71790 26400
L71830 26370
L71880 26370
" />
<path d="M72430 26610
L72810 26610
" />
<path d="M72810 26750
L72430 26750
" />
<path d="M73410 26420
L73430 26400
L73480 26370
L73600 26370
L73640 26400
L73670 26420
L73690 26470
L73690 26510
L73670 26590
L73380 26870
L73690 26870
" />
<path d="M73860 26370
L74190 26370
L73980 26870
" />
<path d="M74480 26370
L74530 26370
L74570 26400
L74600 26420
L74620 26470
L74640 26560
L74640 26680
L74620 26780
L74600 26820
L74570 26850
L74530 26870
L74480 26870
L74430 26850
L74410 26820
L74380 26780
L74360 26680
L74360 26560
L74380 26470
L74410 26420
L74430 26400
L74480 26370
" />
<path d="M75070 26540
L75070 26870
" />
<path d="M74860 26540
L74860 26800
L74880 26850
L74930 26870
L75000 26870
L75050 26850
L75070 26820
" />
<path d="M75290 26850
L75330 26870
L75430 26870
L75480 26850
L75500 26800
L75500 26780
L75480 26730
L75430 26700
L75360 26700
L75310 26680
L75290 26630
L75290 26610
L75310 26560
L75360 26540
L75430 26540
L75480 26560
" />
<path d="M75670 27060
L75690 27040
L75740 26970
L75760 26920
L75790 26850
L75810 26730
L75810 26630
L75790 26510
L75760 26440
L75740 26400
L75690 26320
L75670 26300
" />
<text x="49500" y="35480"
textLength="12820" font-size="660" lengthAdjust="spacingAndGlyphs"
text-anchor="start" opacity="0">Cálculos auxiliares (usar 4 A.S.):</text>
<path d="M49930 35400
L49910 35430
L49830 35450
L49790 35450
L49720 35430
L49670 35380
L49640 35330
L49620 35240
L49620 35170
L49640 35070
L49670 35020
L49720 34980
L49790 34950
L49830 34950
L49910 34980
L49930 35000
" />
<path d="M50360 35450
L50360 35190
L50330 35140
L50290 35120
L50190 35120
L50140 35140
" />
<path d="M50360 35430
L50310 35450
L50190 35450
L50140 35430
L50120 35380
L50120 35330
L50140 35280
L50190 35260
L50310 35260
L50360 35240
" />
<path d="M50290 34930
L50220 35000
" />
<path d="M50670 35450
L50620 35430
L50600 35380
L50600 34950
" />
<path d="M51070 35430
L51030 35450
L50930 35450
L50880 35430
L50860 35400
L50830 35360
L50830 35210
L50860 35170
L50880 35140
L50930 35120
L51030 35120
L51070 35140
" />
<path d="M51500 35120
L51500 35450
" />
<path d="M51290 35120
L51290 35380
L51310 35430
L51360 35450
L51430 35450
L51480 35430
L51500 35400
" />
<path d="M51810 35450
L51760 35430
L51740 35380
L51740 34950
" />
<path d="M52070 35450
L52030 35430
L52000 35400
L51980 35360
L51980 35210
L52000 35170
L52030 35140
L52070 35120
L52140 35120
L52190 35140
L52220 35170
L52240 35210
L52240 35360
L52220 35400
L52190 35430
L52140 35450
L52070 35450
" />
<path d="M52430 35430
L52480 35450
L52570 35450
L52620 35430
L52640 35380
L52640 35360
L52620 35310
L52570 35280
L52500 35280
L52450 35260
L52430 35210
L52430 35190
L52450 35140
L52500 35120
L52570 35120
L52620 35140
" />
<path d="M53450 35450
L53450 35190
L53430 35140
L53380 35120
L53290 35120
L53240 35140
" />
<path d="M53450 35430
L53410 35450
L53290 35450
L53240 35430
L53220 35380
L53220 35330
L53240 35280
L53290 35260
L53410 35260
L53450 35240
" />
<path d="M53910 35120
L53910 35450
" />
<path d="M53690 35120
L53690 35380
L53720 35430
L53760 35450
L53830 35450
L53880 35430
L53910 35400
" />
<path d="M54100 35450
L54360 35120
" />
<path d="M54100 35120
L54360 35450
" />
<path d="M54550 35450
L54550 35120
" />
<path d="M54550 34950
L54530 34980
L54550 35000
L54570 34980
L54550 34950
L54550 35000
" />
<path d="M54860 35450
L54810 35430
L54790 35380
L54790 34950
" />
<path d="M55050 35450
L55050 35120
" />
<path d="M55050 34950
L55030 34980
L55050 35000
L55070 34980
L55050 34950
L55050 35000
" />
<path d="M55500 35450
L55500 35190
L55480 35140
L55430 35120
L55330 35120
L55290 35140
" />
<path d="M55500 35430
L55450 35450
L55330 35450
L55290 35430
L55260 35380
L55260 35330
L55290 35280
L55330 35260
L55450 35260
L55500 35240
" />
<path d="M55740 35450
L55740 35120
" />
<path d="M55740 35210
L55760 35170
L55790 35140
L55830 35120
L55880 35120
" />
<path d="M56240 35430
L56190 35450
L56100 35450
L56050 35430
L56030 35380
L56030 35190
L56050 35140
L56100 35120
L56190 35120
L56240 35140
L56260 35190
L56260 35240
L56030 35280
" />
<path d="M56450 35430
L56500 35450
L56600 35450
L56640 35430
L56670 35380
L56670 35360
L56640 35310
L56600 35280
L56530 35280
L56480 35260
L56450 35210
L56450 35190
L56480 35140
L56530 35120
L56600 35120
L56640 35140
" />
<path d="M57410 35640
L57380 35620
L57330 35550
L57310 35500
L57290 35430
L57260 35310
L57260 35210
L57290 35090
L57310 35020
L57330 34980
L57380 34900
L57410 34880
" />
<path d="M57810 35120
L57810 35450
" />
<path d="M57600 35120
L57600 35380
L57620 35430
L57670 35450
L57740 35450
L57790 35430
L57810 35400
" />
<path d="M58030 35430
L58070 35450
L58170 35450
L58220 35430
L58240 35380
L58240 35360
L58220 35310
L58170 35280
L58100 35280
L58050 35260
L58030 35210
L58030 35190
L58050 35140
L58100 35120
L58170 35120
L58220 35140
" />
<path d="M58670 35450
L58670 35190
L58640 35140
L58600 35120
L58500 35120
L58450 35140
" />
<path d="M58670 35430
L58620 35450
L58500 35450
L58450 35430
L58430 35380
L58430 35330
L58450 35280
L58500 35260
L58620 35260
L58670 35240
" />
<path d="M58910 35450
L58910 35120
" />
<path d="M58910 35210
L58930 35170
L58950 35140
L59000 35120
L59050 35120
" />
<path d="M59810 35120
L59810 35450
" />
<path d="M59690 34930
L59570 35280
L59880 35280
" />
<path d="M60430 35310
L60670 35310
" />
<path d="M60380 35450
L60550 34950
L60720 35450
" />
<path d="M60880 35400
L60910 35430
L60880 35450
L60860 35430
L60880 35400
L60880 35450
" />
<path d="M61100 35430
L61170 35450
L61290 35450
L61330 35430
L61360 35400
L61380 35360
L61380 35310
L61360 35260
L61330 35240
L61290 35210
L61190 35190
L61140 35170
L61120 35140
L61100 35090
L61100 35050
L61120 35000
L61140 34980
L61190 34950
L61310 34950
L61380 34980
" />
<path d="M61600 35400
L61620 35430
L61600 35450
L61570 35430
L61600 35400
L61600 35450
" />
<path d="M61790 35640
L61810 35620
L61860 35550
L61880 35500
L61910 35430
L61930 35310
L61930 35210
L61910 35090
L61880 35020
L61860 34980
L61810 34900
L61790 34880
" />
<path d="M62170 35400
L62190 35430
L62170 35450
L62140 35430
L62170 35400
L62170 35450
" />
<path d="M62170 35140
L62190 35170
L62170 35190
L62140 35170
L62170 35140
L62170 35190
" />
<text x="49500" y="36290"
textLength="60" font-size="660" lengthAdjust="spacingAndGlyphs"
text-anchor="start" opacity="0"></text>
<text x="49500" y="37100"
textLength="60" font-size="660" lengthAdjust="spacingAndGlyphs"
text-anchor="start" opacity="0"></text>
<text x="49500" y="37910"
textLength="15490" font-size="660" lengthAdjust="spacingAndGlyphs"
text-anchor="start" opacity="0">τ1 =                           5 τ1 = </text>
<path d="M49620 37620
L49640 37570
L49690 37550
L49910 37550
" />
<path d="M49760 37550
L49760 37810
L49790 37860
L49830 37880
" />
<path d="M50380 37880
L50100 37880
" />
<path d="M50240 37880
L50240 37380
L50190 37450
L50140 37500
L50100 37520
" />
<path d="M50980 37620
L51360 37620
" />
<path d="M51360 37760
L50980 37760
" />
<path d="M62120 37380
L61880 37380
L61860 37620
L61880 37600
L61930 37570
L62050 37570
L62100 37600
L62120 37620
L62140 37670
L62140 37790
L62120 37830
L62100 37860
L62050 37880
L61930 37880
L61880 37860
L61860 37830
" />
<path d="M62720 37620
L62740 37570
L62790 37550
L63000 37550
" />
<path d="M62860 37550
L62860 37810
L62880 37860
L62930 37880
" />
<path d="M63480 37880
L63190 37880
" />
<path d="M63330 37880
L63330 37380
L63290 37450
L63240 37500
L63190 37520
" />
<path d="M64070 37620
L64450 37620
" />
<path d="M64450 37760
L64070 37760
" />
<text x="49500" y="38720"
textLength="60" font-size="660" lengthAdjust="spacingAndGlyphs"
text-anchor="start" opacity="0"></text>
<text x="49500" y="39530"
textLength="15490" font-size="660" lengthAdjust="spacingAndGlyphs"
text-anchor="start" opacity="0">τ2 =                           5 τ2 = </text>
<path d="M49620 39240
L49640 39190
L49690 39170
L49910 39170
" />
<path d="M49760 39170
L49760 39430
L49790 39480
L49830 39500
" />
<path d="M50100 39050
L50120 39030
L50170 39000
L50290 39000
L50330 39030
L50360 39050
L50380 39100
L50380 39140
L50360 39220
L50070 39500
L50380 39500
" />
<path d="M50980 39240
L51360 39240
" />
<path d="M51360 39380
L50980 39380
" />
<path d="M62120 39000
L61880 39000
L61860 39240
L61880 39220
L61930 39190
L62050 39190
L62100 39220
L62120 39240
L62140 39290
L62140 39410
L62120 39450
L62100 39480
L62050 39500
L61930 39500
L61880 39480
L61860 39450
" />
<path d="M62720 39240
L62740 39190
L62790 39170
L63000 39170
" />
<path d="M62860 39170
L62860 39430
L62880 39480
L62930 39500
" />
<path d="M63190 39050
L63220 39030
L63260 39000
L63380 39000
L63430 39030
L63450 39050
L63480 39100
L63480 39140
L63450 39220
L63170 39500
L63480 39500
" />
<path d="M64070 39240
L64450 39240
" />
<path d="M64450 39380
L64070 39380
" />
<text x="49500" y="40340"
textLength="60" font-size="660" lengthAdjust="spacingAndGlyphs"
text-anchor="start" opacity="0"></text>
<text x="49500" y="41150"
textLength="15490" font-size="660" lengthAdjust="spacingAndGlyphs"
text-anchor="start" opacity="0">τ3 =                           5 τ3 = </text>
<path d="M49620 40860
L49640 40810
L49690 40790
L49910 40790
" />
<path d="M49760 40790
L49760 41050
L49790 41100
L49830 41120
" />
<path d="M50070 40620
L50380 40620
L50220 40810
L50290 40810
L50330 40840
L50360 40860
L50380 40910
L50380 41030
L50360 41070
L50330 41100
L50290 41120
L50140 41120
L50100 41100
L50070 41070
" />
<path d="M50980 40860
L51360 40860
" />
<path d="M51360 41000
L50980 41000
" />
<path d="M62120 40620
L61880 40620
L61860 40860
L61880 40840
L61930 40810
L62050 40810
L62100 40840
L62120 40860
L62140 40910
L62140 41030
L62120 41070
L62100 41100
L62050 41120
L61930 41120
L61880 41100
L61860 41070
" />
<path d="M62720 40860
L62740 40810
L62790 40790
L63000 40790
" />
<path d="M62860 40790
L62860 41050
L62880 41100
L62930 41120
" />
<path d="M63170 40620
L63480 40620
L63310 40810
L63380 40810
L63430 40840
L63450 40860
L63480 40910
L63480 41030
L63450 41070
L63430 41100
L63380 41120
L63240 41120
L63190 41100
L63170 41070
" />
<path d="M64070 40860
L64450 40860
" />
<path d="M64450 41000
L64070 41000
" />
</g>
<g style="fill:#0000C2; fill-opacity:0.0; 
stroke:#0000C2; stroke-width:0; stroke-opacity:1; 
stroke-linecap:round; stroke-linejoin:round;">
</g>
<g style="fill:#008400; fill-opacity:0.0; 
stroke:#008400; stroke-width:0; stroke-opacity:1; 
stroke-linecap:round; stroke-linejoin:round;">
</g>
<g style="fill:#008400; fill-opacity:1.0; 
stroke:#008400; stroke-width:100; stroke-opacity:1; 
stroke-linecap:round; stroke-linejoin:round;">
<circle cx="54500" cy="32500" r="200" /> 
</g>
<g style="fill:#008400; fill-opacity:1.0; 
stroke:#008400; stroke-width:0; stroke-opacity:1; 
stroke-linecap:round; stroke-linejoin:round;">
</g>
<g style="fill:#008400; fill-opacity:1.0; 
stroke:#008400; stroke-width:100; stroke-opacity:1; 
stroke-linecap:round; stroke-linejoin:round;">
<circle cx="62500" cy="32500" r="200" /> 
</g> 
</svg>
