<?xml version="1.0" standalone="no"?>
 <!DOCTYPE svg PUBLIC "-//W3C//DTD SVG 1.1//EN" 
 "http://www.w3.org/Graphics/SVG/1.1/DTD/svg11.dtd"> 
<svg
  xmlns:svg="http://www.w3.org/2000/svg"
  xmlns="http://www.w3.org/2000/svg"
  xmlns:xlink="http://www.w3.org/1999/xlink"
  version="1.1"
  width="29.700220cm" height="21.000720cm" viewBox="0 0 116930 82680">
<title>SVG Picture created as questao-11.svg date 2020/11/20 01:43:04 </title>
  <desc>Picture generated by Eeschema-SVG </desc>
<g style="fill:#000000; fill-opacity:1;stroke:#000000; stroke-opacity:1;
stroke-linecap:round; stroke-linejoin:round;"
 transform="translate(0 0) scale(1 1)">
</g>
<g style="fill:#000000; fill-opacity:0.0; 
stroke:#000000; stroke-width:0; stroke-opacity:1; 
stroke-linecap:round; stroke-linejoin:round;">
<g >
</g>
<g style="fill:#840000; fill-opacity:0.0; 
stroke:#840000; stroke-width:0; stroke-opacity:1; 
stroke-linecap:round; stroke-linejoin:round;">
</g>
<g style="fill:#840000; fill-opacity:0.0; 
stroke:#840000; stroke-width:60; stroke-opacity:1; 
stroke-linecap:round; stroke-linejoin:round;">
<path style="fill:#840000; fill-opacity:0.0; 
stroke:#840000; stroke-width:60; stroke-opacity:1; 
stroke-linecap:round; stroke-linejoin:round;fill:none"
d="M 58500,43600
58500,42000
" /> 
</g>
<g style="fill:#840000; fill-opacity:1.0; 
stroke:#840000; stroke-width:60; stroke-opacity:1; 
stroke-linecap:round; stroke-linejoin:round;">
<path style="fill:#840000; fill-opacity:1.0; 
stroke:#840000; stroke-width:60; stroke-opacity:1; 
stroke-linecap:round; stroke-linejoin:round;fill-rule:evenodd;"
d="M 58500,44000
58400,43500
58600,43500
Z" /> 
</g>
<g style="fill:#008484; fill-opacity:0.0; 
stroke:#008484; stroke-width:60; stroke-opacity:1; 
stroke-linecap:round; stroke-linejoin:round;">
<text x="57500" y="43270"
textLength="1610" font-size="660" lengthAdjust="spacingAndGlyphs"
text-anchor="middle" opacity="0">ix(t)</text>
<path d="M56820 43240
L56820 42910
" />
<path d="M56820 42740
L56790 42770
L56820 42790
L56840 42770
L56820 42740
L56820 42790
" />
<path d="M57010 43240
L57270 42910
" />
<path d="M57010 42910
L57270 43240
" />
<path d="M57600 43430
L57580 43410
L57530 43340
L57510 43290
L57480 43220
L57460 43100
L57460 43000
L57480 42880
L57510 42810
L57530 42770
L57580 42690
L57600 42670
" />
<path d="M57720 42910
L57910 42910
" />
<path d="M57790 42740
L57790 43170
L57820 43220
L57860 43240
L57910 43240
" />
<path d="M58030 43430
L58050 43410
L58100 43340
L58130 43290
L58150 43220
L58170 43100
L58170 43000
L58150 42880
L58130 42810
L58100 42770
L58050 42690
L58030 42670
" />
</g>
</g>
<g style="fill:#008484; fill-opacity:0.0; 
stroke:#008484; stroke-width:0; stroke-opacity:1; 
stroke-linecap:round; stroke-linejoin:round;">
<g >
</g>
<g style="fill:#840000; fill-opacity:0.0; 
stroke:#840000; stroke-width:0; stroke-opacity:1; 
stroke-linecap:round; stroke-linejoin:round;">
</g>
<g style="fill:#840000; fill-opacity:0.0; 
stroke:#840000; stroke-width:60; stroke-opacity:1; 
stroke-linecap:round; stroke-linejoin:round;">
<path d="M54500.4 42500 A250 250 0.0 0 0 54500.4 42000" />
<path d="M54500.4 42000 A250 250 0.0 0 0 54500.4 41500" />
<path d="M54500.4 41500 A250 250 0.0 0 0 54500.4 41000" />
<path d="M54500.4 41000 A250 250 0.0 0 0 54500.4 40500" />
<path d="M54500 40500
L54500 40000
" />
<path d="M54500 42500
L54500 43000
" />
</g>
<g style="fill:#008484; fill-opacity:0.0; 
stroke:#008484; stroke-width:60; stroke-opacity:1; 
stroke-linecap:round; stroke-linejoin:round;">
<text x="55490" y="41310"
textLength="940" font-size="660" lengthAdjust="spacingAndGlyphs"
text-anchor="middle" opacity="0">L1</text>
<path d="M55400 41280
L55160 41280
L55160 40780
" />
<path d="M55830 41280
L55540 41280
" />
<path d="M55690 41280
L55690 40780
L55640 40850
L55590 40900
L55540 40920
" />
<text x="56120" y="42220"
textLength="2200" font-size="660" lengthAdjust="spacingAndGlyphs"
text-anchor="middle" opacity="0">10mH</text>
<path d="M55420 42190
L55140 42190
" />
<path d="M55280 42190
L55280 41690
L55230 41760
L55190 41810
L55140 41830
" />
<path d="M55730 41690
L55780 41690
L55830 41720
L55850 41740
L55880 41790
L55900 41880
L55900 42000
L55880 42100
L55850 42140
L55830 42170
L55780 42190
L55730 42190
L55690 42170
L55660 42140
L55640 42100
L55620 42000
L55620 41880
L55640 41790
L55660 41740
L55690 41720
L55730 41690
" />
<path d="M56120 42190
L56120 41860
" />
<path d="M56120 41910
L56140 41880
L56190 41860
L56260 41860
L56310 41880
L56330 41930
L56330 42190
" />
<path d="M56330 41930
L56350 41880
L56400 41860
L56470 41860
L56520 41880
L56540 41930
L56540 42190
" />
<path d="M56780 42190
L56780 41690
" />
<path d="M56780 41930
L57070 41930
" />
<path d="M57070 42190
L57070 41690
" />
</g>
</g>
<g style="fill:#008484; fill-opacity:0.0; 
stroke:#008484; stroke-width:0; stroke-opacity:1; 
stroke-linecap:round; stroke-linejoin:round;">
<g >
</g>
<g style="fill:#840000; fill-opacity:0.0; 
stroke:#840000; stroke-width:0; stroke-opacity:1; 
stroke-linecap:round; stroke-linejoin:round;">
</g>
<g style="fill:#840000; fill-opacity:0.0; 
stroke:#840000; stroke-width:60; stroke-opacity:1; 
stroke-linecap:round; stroke-linejoin:round;">
<path style="fill:#840000; fill-opacity:0.0; 
stroke:#840000; stroke-width:60; stroke-opacity:1; 
stroke-linecap:round; stroke-linejoin:round;fill:none"
d="M 54500,35600
54500,35500
" /> 
<path style="fill:#840000; fill-opacity:0.0; 
stroke:#840000; stroke-width:60; stroke-opacity:1; 
stroke-linecap:round; stroke-linejoin:round;fill:none"
d="M 54500,37400
54500,37500
" /> 
<path style="fill:#840000; fill-opacity:0.0; 
stroke:#840000; stroke-width:60; stroke-opacity:1; 
stroke-linecap:round; stroke-linejoin:round;fill:none"
d="M 54500,36200
54100,36050
54500,35900
54900,35750
54500,35600
" /> 
<path style="fill:#840000; fill-opacity:0.0; 
stroke:#840000; stroke-width:60; stroke-opacity:1; 
stroke-linecap:round; stroke-linejoin:round;fill:none"
d="M 54500,36800
54100,36650
54500,36500
54900,36350
54500,36200
" /> 
<path style="fill:#840000; fill-opacity:0.0; 
stroke:#840000; stroke-width:60; stroke-opacity:1; 
stroke-linecap:round; stroke-linejoin:round;fill:none"
d="M 54500,37400
54100,37250
54500,37100
54900,36950
54500,36800
" /> 
<path d="M54500 37500
L54500 38000
" />
<path d="M54500 35500
L54500 35000
" />
</g>
<g style="fill:#008484; fill-opacity:0.0; 
stroke:#008484; stroke-width:60; stroke-opacity:1; 
stroke-linecap:round; stroke-linejoin:round;">
<text x="55700" y="36260"
textLength="1040" font-size="660" lengthAdjust="spacingAndGlyphs"
text-anchor="middle" opacity="0">R2</text>
<path d="M55610 36230
L55450 35990
" />
<path d="M55330 36230
L55330 35730
L55520 35730
L55560 35760
L55590 35780
L55610 35830
L55610 35900
L55590 35950
L55560 35970
L55520 35990
L55330 35990
" />
<path d="M55800 35780
L55830 35760
L55870 35730
L55990 35730
L56040 35760
L56060 35780
L56090 35830
L56090 35870
L56060 35950
L55780 36230
L56090 36230
" />
<text x="56170" y="37170"
textLength="1990" font-size="660" lengthAdjust="spacingAndGlyphs"
text-anchor="middle" opacity="0">22kΩ</text>
<path d="M55300 36690
L55320 36670
L55370 36640
L55490 36640
L55530 36670
L55560 36690
L55580 36740
L55580 36780
L55560 36860
L55270 37140
L55580 37140
" />
<path d="M55770 36690
L55800 36670
L55840 36640
L55960 36640
L56010 36670
L56030 36690
L56060 36740
L56060 36780
L56030 36860
L55750 37140
L56060 37140
" />
<path d="M56270 37140
L56270 36640
" />
<path d="M56320 36950
L56460 37140
" />
<path d="M56460 36810
L56270 37000
" />
<path d="M56650 37140
L56770 37140
L56770 37050
L56720 37020
L56680 36970
L56650 36900
L56650 36780
L56680 36710
L56720 36670
L56800 36640
L56890 36640
L56960 36670
L57010 36710
L57030 36780
L57030 36900
L57010 36970
L56960 37020
L56920 37050
L56920 37140
L57030 37140
" />
</g>
</g>
<g style="fill:#008484; fill-opacity:0.0; 
stroke:#008484; stroke-width:0; stroke-opacity:1; 
stroke-linecap:round; stroke-linejoin:round;">
<g >
</g>
<g style="fill:#840000; fill-opacity:0.0; 
stroke:#840000; stroke-width:0; stroke-opacity:1; 
stroke-linecap:round; stroke-linejoin:round;">
</g>
<g style="fill:#840000; fill-opacity:0.0; 
stroke:#840000; stroke-width:60; stroke-opacity:1; 
stroke-linecap:round; stroke-linejoin:round;">
<path style="fill:#840000; fill-opacity:0.0; 
stroke:#840000; stroke-width:60; stroke-opacity:1; 
stroke-linecap:round; stroke-linejoin:round;fill:none"
d="M 59500,40600
59500,40500
" /> 
<path style="fill:#840000; fill-opacity:0.0; 
stroke:#840000; stroke-width:60; stroke-opacity:1; 
stroke-linecap:round; stroke-linejoin:round;fill:none"
d="M 59500,42400
59500,42500
" /> 
<path style="fill:#840000; fill-opacity:0.0; 
stroke:#840000; stroke-width:60; stroke-opacity:1; 
stroke-linecap:round; stroke-linejoin:round;fill:none"
d="M 59500,41200
59100,41050
59500,40900
59900,40750
59500,40600
" /> 
<path style="fill:#840000; fill-opacity:0.0; 
stroke:#840000; stroke-width:60; stroke-opacity:1; 
stroke-linecap:round; stroke-linejoin:round;fill:none"
d="M 59500,41800
59100,41650
59500,41500
59900,41350
59500,41200
" /> 
<path style="fill:#840000; fill-opacity:0.0; 
stroke:#840000; stroke-width:60; stroke-opacity:1; 
stroke-linecap:round; stroke-linejoin:round;fill:none"
d="M 59500,42400
59100,42250
59500,42100
59900,41950
59500,41800
" /> 
<path d="M59500 42500
L59500 43000
" />
<path d="M59500 40500
L59500 40000
" />
</g>
<g style="fill:#008484; fill-opacity:0.0; 
stroke:#008484; stroke-width:60; stroke-opacity:1; 
stroke-linecap:round; stroke-linejoin:round;">
<text x="60700" y="41260"
textLength="1040" font-size="660" lengthAdjust="spacingAndGlyphs"
text-anchor="middle" opacity="0">R3</text>
<path d="M60610 41230
L60450 40990
" />
<path d="M60330 41230
L60330 40730
L60520 40730
L60560 40760
L60590 40780
L60610 40830
L60610 40900
L60590 40950
L60560 40970
L60520 40990
L60330 40990
" />
<path d="M60780 40730
L61090 40730
L60920 40920
L60990 40920
L61040 40950
L61060 40970
L61090 41020
L61090 41140
L61060 41180
L61040 41210
L60990 41230
L60850 41230
L60800 41210
L60780 41180
" />
<text x="61170" y="42170"
textLength="1990" font-size="660" lengthAdjust="spacingAndGlyphs"
text-anchor="middle" opacity="0">10kΩ</text>
<path d="M60580 42140
L60300 42140
" />
<path d="M60440 42140
L60440 41640
L60390 41710
L60340 41760
L60300 41780
" />
<path d="M60890 41640
L60940 41640
L60990 41670
L61010 41690
L61030 41740
L61060 41830
L61060 41950
L61030 42050
L61010 42090
L60990 42120
L60940 42140
L60890 42140
L60840 42120
L60820 42090
L60800 42050
L60770 41950
L60770 41830
L60800 41740
L60820 41690
L60840 41670
L60890 41640
" />
<path d="M61270 42140
L61270 41640
" />
<path d="M61320 41950
L61460 42140
" />
<path d="M61460 41810
L61270 42000
" />
<path d="M61650 42140
L61770 42140
L61770 42050
L61720 42020
L61680 41970
L61650 41900
L61650 41780
L61680 41710
L61720 41670
L61800 41640
L61890 41640
L61960 41670
L62010 41710
L62030 41780
L62030 41900
L62010 41970
L61960 42020
L61920 42050
L61920 42140
L62030 42140
" />
</g>
</g>
<g style="fill:#008484; fill-opacity:0.0; 
stroke:#008484; stroke-width:0; stroke-opacity:1; 
stroke-linecap:round; stroke-linejoin:round;">
<g >
</g>
<g style="fill:#840000; fill-opacity:0.0; 
stroke:#840000; stroke-width:0; stroke-opacity:1; 
stroke-linecap:round; stroke-linejoin:round;">
</g>
<g style="fill:#840000; fill-opacity:0.0; 
stroke:#840000; stroke-width:200; stroke-opacity:1; 
stroke-linecap:round; stroke-linejoin:round;">
<path style="fill:#840000; fill-opacity:0.0; 
stroke:#840000; stroke-width:200; stroke-opacity:1; 
stroke-linecap:round; stroke-linejoin:round;fill:none"
d="M 58700,36800
60300,36800
" /> 
<path style="fill:#840000; fill-opacity:0.0; 
stroke:#840000; stroke-width:200; stroke-opacity:1; 
stroke-linecap:round; stroke-linejoin:round;fill:none"
d="M 58700,36200
60300,36200
" /> 
</g>
<g style="fill:#840000; fill-opacity:0.0; 
stroke:#840000; stroke-width:60; stroke-opacity:1; 
stroke-linecap:round; stroke-linejoin:round;">
<path d="M59500 36100
L59500 35000
" />
<path d="M59500 36900
L59500 38000
" />
</g>
<g style="fill:#008484; fill-opacity:0.0; 
stroke:#008484; stroke-width:60; stroke-opacity:1; 
stroke-linecap:round; stroke-linejoin:round;">
<text x="61170" y="36310"
textLength="1040" font-size="660" lengthAdjust="spacingAndGlyphs"
text-anchor="middle" opacity="0">C1</text>
<path d="M61080 36230
L61060 36260
L60990 36280
L60940 36280
L60870 36260
L60820 36210
L60800 36160
L60770 36070
L60770 36000
L60800 35900
L60820 35850
L60870 35810
L60940 35780
L60990 35780
L61060 35810
L61080 35830
" />
<path d="M61560 36280
L61270 36280
" />
<path d="M61420 36280
L61420 35780
L61370 35850
L61320 35900
L61270 35920
" />
<text x="61710" y="37220"
textLength="2130" font-size="660" lengthAdjust="spacingAndGlyphs"
text-anchor="middle" opacity="0">2,2uF</text>
<path d="M60760 36740
L60790 36720
L60840 36690
L60960 36690
L61000 36720
L61030 36740
L61050 36790
L61050 36830
L61030 36910
L60740 37190
L61050 37190
" />
<path d="M61290 37170
L61290 37190
L61260 37240
L61240 37260
" />
<path d="M61480 36740
L61500 36720
L61550 36690
L61670 36690
L61720 36720
L61740 36740
L61760 36790
L61760 36830
L61740 36910
L61460 37190
L61760 37190
" />
<path d="M62190 36860
L62190 37190
" />
<path d="M61980 36860
L61980 37120
L62000 37170
L62050 37190
L62120 37190
L62170 37170
L62190 37140
" />
<path d="M62600 36930
L62430 36930
" />
<path d="M62430 37190
L62430 36690
L62670 36690
" />
</g>
</g>
<g style="fill:#008484; fill-opacity:0.0; 
stroke:#008484; stroke-width:0; stroke-opacity:1; 
stroke-linecap:round; stroke-linejoin:round;">
<g >
</g>
<g style="fill:#840000; fill-opacity:0.0; 
stroke:#840000; stroke-width:0; stroke-opacity:1; 
stroke-linecap:round; stroke-linejoin:round;">
</g>
<g style="fill:#840000; fill-opacity:0.0; 
stroke:#840000; stroke-width:60; stroke-opacity:1; 
stroke-linecap:round; stroke-linejoin:round;">
<path d="M54000.9 40000.9 A2120 2120 0.0 0 0 54000.9 42999.1" />
</g>
<g style="fill:#840000; fill-opacity:1.0; 
stroke:#840000; stroke-width:60; stroke-opacity:1; 
stroke-linecap:round; stroke-linejoin:round;">
<path style="fill:#840000; fill-opacity:1.0; 
stroke:#840000; stroke-width:60; stroke-opacity:1; 
stroke-linecap:round; stroke-linejoin:round;fill-rule:evenodd;"
d="M 54000,40000
53600,40200
53900,40400
Z" /> 
</g>
<g style="fill:#008484; fill-opacity:0.0; 
stroke:#008484; stroke-width:60; stroke-opacity:1; 
stroke-linecap:round; stroke-linejoin:round;">
<text x="52200" y="41770"
textLength="1800" font-size="660" lengthAdjust="spacingAndGlyphs"
text-anchor="middle" opacity="0">vx(t)</text>
<path d="M51400 41410
L51520 41740
L51640 41410
" />
<path d="M51780 41740
L52040 41410
" />
<path d="M51780 41410
L52040 41740
" />
<path d="M52370 41930
L52350 41910
L52300 41840
L52280 41790
L52250 41720
L52230 41600
L52230 41500
L52250 41380
L52280 41310
L52300 41270
L52350 41190
L52370 41170
" />
<path d="M52490 41410
L52680 41410
" />
<path d="M52560 41240
L52560 41670
L52590 41720
L52640 41740
L52680 41740
" />
<path d="M52800 41930
L52830 41910
L52870 41840
L52900 41790
L52920 41720
L52950 41600
L52950 41500
L52920 41380
L52900 41310
L52870 41270
L52830 41190
L52800 41170
" />
</g>
</g>
<g style="fill:#008484; fill-opacity:0.0; 
stroke:#008484; stroke-width:0; stroke-opacity:1; 
stroke-linecap:round; stroke-linejoin:round;">
<g >
</g>
<g style="fill:#840000; fill-opacity:0.0; 
stroke:#840000; stroke-width:0; stroke-opacity:1; 
stroke-linecap:round; stroke-linejoin:round;">
</g>
<g style="fill:#840000; fill-opacity:0.0; 
stroke:#840000; stroke-width:60; stroke-opacity:1; 
stroke-linecap:round; stroke-linejoin:round;">
<path style="fill:#840000; fill-opacity:0.0; 
stroke:#840000; stroke-width:60; stroke-opacity:1; 
stroke-linecap:round; stroke-linejoin:round;fill:none"
d="M 63500,35600
63500,35500
" /> 
<path style="fill:#840000; fill-opacity:0.0; 
stroke:#840000; stroke-width:60; stroke-opacity:1; 
stroke-linecap:round; stroke-linejoin:round;fill:none"
d="M 63500,37400
63500,37500
" /> 
<path style="fill:#840000; fill-opacity:0.0; 
stroke:#840000; stroke-width:60; stroke-opacity:1; 
stroke-linecap:round; stroke-linejoin:round;fill:none"
d="M 63500,36200
63100,36050
63500,35900
63900,35750
63500,35600
" /> 
<path style="fill:#840000; fill-opacity:0.0; 
stroke:#840000; stroke-width:60; stroke-opacity:1; 
stroke-linecap:round; stroke-linejoin:round;fill:none"
d="M 63500,36800
63100,36650
63500,36500
63900,36350
63500,36200
" /> 
<path style="fill:#840000; fill-opacity:0.0; 
stroke:#840000; stroke-width:60; stroke-opacity:1; 
stroke-linecap:round; stroke-linejoin:round;fill:none"
d="M 63500,37400
63100,37250
63500,37100
63900,36950
63500,36800
" /> 
<path d="M63500 37500
L63500 38000
" />
<path d="M63500 35500
L63500 35000
" />
</g>
<g style="fill:#008484; fill-opacity:0.0; 
stroke:#008484; stroke-width:60; stroke-opacity:1; 
stroke-linecap:round; stroke-linejoin:round;">
<text x="64700" y="36260"
textLength="1040" font-size="660" lengthAdjust="spacingAndGlyphs"
text-anchor="middle" opacity="0">R4</text>
<path d="M64610 36230
L64450 35990
" />
<path d="M64330 36230
L64330 35730
L64520 35730
L64560 35760
L64590 35780
L64610 35830
L64610 35900
L64590 35950
L64560 35970
L64520 35990
L64330 35990
" />
<path d="M65040 35900
L65040 36230
" />
<path d="M64920 35710
L64800 36060
L65110 36060
" />
<text x="65170" y="37170"
textLength="1990" font-size="660" lengthAdjust="spacingAndGlyphs"
text-anchor="middle" opacity="0">10kΩ</text>
<path d="M64580 37140
L64300 37140
" />
<path d="M64440 37140
L64440 36640
L64390 36710
L64340 36760
L64300 36780
" />
<path d="M64890 36640
L64940 36640
L64990 36670
L65010 36690
L65030 36740
L65060 36830
L65060 36950
L65030 37050
L65010 37090
L64990 37120
L64940 37140
L64890 37140
L64840 37120
L64820 37090
L64800 37050
L64770 36950
L64770 36830
L64800 36740
L64820 36690
L64840 36670
L64890 36640
" />
<path d="M65270 37140
L65270 36640
" />
<path d="M65320 36950
L65460 37140
" />
<path d="M65460 36810
L65270 37000
" />
<path d="M65650 37140
L65770 37140
L65770 37050
L65720 37020
L65680 36970
L65650 36900
L65650 36780
L65680 36710
L65720 36670
L65800 36640
L65890 36640
L65960 36670
L66010 36710
L66030 36780
L66030 36900
L66010 36970
L65960 37020
L65920 37050
L65920 37140
L66030 37140
" />
</g>
</g>
<g style="fill:#008484; fill-opacity:0.0; 
stroke:#008484; stroke-width:0; stroke-opacity:1; 
stroke-linecap:round; stroke-linejoin:round;">
<g >
</g>
<g style="fill:#840000; fill-opacity:0.0; 
stroke:#840000; stroke-width:0; stroke-opacity:1; 
stroke-linecap:round; stroke-linejoin:round;">
</g>
<g style="fill:#840000; fill-opacity:0.0; 
stroke:#840000; stroke-width:60; stroke-opacity:1; 
stroke-linecap:round; stroke-linejoin:round;">
<path style="fill:#840000; fill-opacity:0.0; 
stroke:#840000; stroke-width:60; stroke-opacity:1; 
stroke-linecap:round; stroke-linejoin:round;fill:none"
d="M 67500,34600
67500,34500
" /> 
<path style="fill:#840000; fill-opacity:0.0; 
stroke:#840000; stroke-width:60; stroke-opacity:1; 
stroke-linecap:round; stroke-linejoin:round;fill:none"
d="M 67500,36400
67500,36500
" /> 
<path style="fill:#840000; fill-opacity:0.0; 
stroke:#840000; stroke-width:60; stroke-opacity:1; 
stroke-linecap:round; stroke-linejoin:round;fill:none"
d="M 67500,35200
67100,35050
67500,34900
67900,34750
67500,34600
" /> 
<path style="fill:#840000; fill-opacity:0.0; 
stroke:#840000; stroke-width:60; stroke-opacity:1; 
stroke-linecap:round; stroke-linejoin:round;fill:none"
d="M 67500,35800
67100,35650
67500,35500
67900,35350
67500,35200
" /> 
<path style="fill:#840000; fill-opacity:0.0; 
stroke:#840000; stroke-width:60; stroke-opacity:1; 
stroke-linecap:round; stroke-linejoin:round;fill:none"
d="M 67500,36400
67100,36250
67500,36100
67900,35950
67500,35800
" /> 
<path d="M67500 36500
L67500 37000
" />
<path d="M67500 34500
L67500 34000
" />
</g>
<g style="fill:#008484; fill-opacity:0.0; 
stroke:#008484; stroke-width:60; stroke-opacity:1; 
stroke-linecap:round; stroke-linejoin:round;">
<text x="68700" y="35260"
textLength="1040" font-size="660" lengthAdjust="spacingAndGlyphs"
text-anchor="middle" opacity="0">R5</text>
<path d="M68610 35230
L68450 34990
" />
<path d="M68330 35230
L68330 34730
L68520 34730
L68560 34760
L68590 34780
L68610 34830
L68610 34900
L68590 34950
L68560 34970
L68520 34990
L68330 34990
" />
<path d="M69060 34730
L68830 34730
L68800 34970
L68830 34950
L68870 34920
L68990 34920
L69040 34950
L69060 34970
L69090 35020
L69090 35140
L69060 35180
L69040 35210
L68990 35230
L68870 35230
L68830 35210
L68800 35180
" />
<text x="69170" y="36170"
textLength="1990" font-size="660" lengthAdjust="spacingAndGlyphs"
text-anchor="middle" opacity="0">33kΩ</text>
<path d="M68270 35640
L68580 35640
L68420 35830
L68490 35830
L68530 35860
L68560 35880
L68580 35930
L68580 36050
L68560 36090
L68530 36120
L68490 36140
L68340 36140
L68300 36120
L68270 36090
" />
<path d="M68750 35640
L69060 35640
L68890 35830
L68960 35830
L69010 35860
L69030 35880
L69060 35930
L69060 36050
L69030 36090
L69010 36120
L68960 36140
L68820 36140
L68770 36120
L68750 36090
" />
<path d="M69270 36140
L69270 35640
" />
<path d="M69320 35950
L69460 36140
" />
<path d="M69460 35810
L69270 36000
" />
<path d="M69650 36140
L69770 36140
L69770 36050
L69720 36020
L69680 35970
L69650 35900
L69650 35780
L69680 35710
L69720 35670
L69800 35640
L69890 35640
L69960 35670
L70010 35710
L70030 35780
L70030 35900
L70010 35970
L69960 36020
L69920 36050
L69920 36140
L70030 36140
" />
</g>
</g>
<g style="fill:#008484; fill-opacity:0.0; 
stroke:#008484; stroke-width:0; stroke-opacity:1; 
stroke-linecap:round; stroke-linejoin:round;">
<g >
</g>
<g style="fill:#840000; fill-opacity:0.0; 
stroke:#840000; stroke-width:0; stroke-opacity:1; 
stroke-linecap:round; stroke-linejoin:round;">
</g>
<g style="fill:#840000; fill-opacity:0.0; 
stroke:#840000; stroke-width:200; stroke-opacity:1; 
stroke-linecap:round; stroke-linejoin:round;">
<path style="fill:#840000; fill-opacity:0.0; 
stroke:#840000; stroke-width:200; stroke-opacity:1; 
stroke-linecap:round; stroke-linejoin:round;fill:none"
d="M 66700,39300
68300,39300
" /> 
<path style="fill:#840000; fill-opacity:0.0; 
stroke:#840000; stroke-width:200; stroke-opacity:1; 
stroke-linecap:round; stroke-linejoin:round;fill:none"
d="M 66700,38700
68300,38700
" /> 
</g>
<g style="fill:#840000; fill-opacity:0.0; 
stroke:#840000; stroke-width:60; stroke-opacity:1; 
stroke-linecap:round; stroke-linejoin:round;">
<path d="M67500 38600
L67500 37500
" />
<path d="M67500 39400
L67500 40500
" />
</g>
<g style="fill:#008484; fill-opacity:0.0; 
stroke:#008484; stroke-width:60; stroke-opacity:1; 
stroke-linecap:round; stroke-linejoin:round;">
<text x="69170" y="38810"
textLength="1040" font-size="660" lengthAdjust="spacingAndGlyphs"
text-anchor="middle" opacity="0">C2</text>
<path d="M69080 38730
L69060 38760
L68990 38780
L68940 38780
L68870 38760
L68820 38710
L68800 38660
L68770 38570
L68770 38500
L68800 38400
L68820 38350
L68870 38310
L68940 38280
L68990 38280
L69060 38310
L69080 38330
" />
<path d="M69270 38330
L69300 38310
L69340 38280
L69460 38280
L69510 38310
L69530 38330
L69560 38380
L69560 38420
L69530 38500
L69250 38780
L69560 38780
" />
<text x="69710" y="39720"
textLength="2130" font-size="660" lengthAdjust="spacingAndGlyphs"
text-anchor="middle" opacity="0">4,7uF</text>
<path d="M69000 39360
L69000 39690
" />
<path d="M68880 39170
L68760 39520
L69070 39520
" />
<path d="M69290 39670
L69290 39690
L69260 39740
L69240 39760
" />
<path d="M69460 39190
L69790 39190
L69570 39690
" />
<path d="M70190 39360
L70190 39690
" />
<path d="M69980 39360
L69980 39620
L70000 39670
L70050 39690
L70120 39690
L70170 39670
L70190 39640
" />
<path d="M70600 39430
L70430 39430
" />
<path d="M70430 39690
L70430 39190
L70670 39190
" />
</g>
</g>
<g style="fill:#008484; fill-opacity:0.0; 
stroke:#008484; stroke-width:0; stroke-opacity:1; 
stroke-linecap:round; stroke-linejoin:round;">
<g >
</g>
<g style="fill:#840000; fill-opacity:0.0; 
stroke:#840000; stroke-width:0; stroke-opacity:1; 
stroke-linecap:round; stroke-linejoin:round;">
</g>
<g style="fill:#840000; fill-opacity:0.0; 
stroke:#840000; stroke-width:60; stroke-opacity:1; 
stroke-linecap:round; stroke-linejoin:round;">
<path style="fill:#840000; fill-opacity:0.0; 
stroke:#840000; stroke-width:60; stroke-opacity:1; 
stroke-linecap:round; stroke-linejoin:round;fill:none"
d="M 49600,33500
49500,33500
" /> 
<path style="fill:#840000; fill-opacity:0.0; 
stroke:#840000; stroke-width:60; stroke-opacity:1; 
stroke-linecap:round; stroke-linejoin:round;fill:none"
d="M 51400,33500
51500,33500
" /> 
<path style="fill:#840000; fill-opacity:0.0; 
stroke:#840000; stroke-width:60; stroke-opacity:1; 
stroke-linecap:round; stroke-linejoin:round;fill:none"
d="M 50200,33500
50050,33900
49900,33500
49750,33100
49600,33500
" /> 
<path style="fill:#840000; fill-opacity:0.0; 
stroke:#840000; stroke-width:60; stroke-opacity:1; 
stroke-linecap:round; stroke-linejoin:round;fill:none"
d="M 50800,33500
50650,33900
50500,33500
50350,33100
50200,33500
" /> 
<path style="fill:#840000; fill-opacity:0.0; 
stroke:#840000; stroke-width:60; stroke-opacity:1; 
stroke-linecap:round; stroke-linejoin:round;fill:none"
d="M 51400,33500
51250,33900
51100,33500
50950,33100
50800,33500
" /> 
<path d="M51500 33500
L52000 33500
" />
<path d="M49500 33500
L49000 33500
" />
</g>
<g style="fill:#008484; fill-opacity:0.0; 
stroke:#008484; stroke-width:60; stroke-opacity:1; 
stroke-linecap:round; stroke-linejoin:round;">
<text x="50500" y="31720"
textLength="1040" font-size="660" lengthAdjust="spacingAndGlyphs"
text-anchor="middle" opacity="0">R1</text>
<path d="M50410 31690
L50250 31450
" />
<path d="M50130 31690
L50130 31190
L50320 31190
L50360 31220
L50390 31240
L50410 31290
L50410 31360
L50390 31410
L50360 31430
L50320 31450
L50130 31450
" />
<path d="M50890 31690
L50600 31690
" />
<path d="M50750 31690
L50750 31190
L50700 31260
L50650 31310
L50600 31330
" />
<text x="50500" y="32630"
textLength="1990" font-size="660" lengthAdjust="spacingAndGlyphs"
text-anchor="middle" opacity="0">15kΩ</text>
<path d="M49910 32600
L49630 32600
" />
<path d="M49770 32600
L49770 32100
L49720 32170
L49670 32220
L49630 32240
" />
<path d="M50360 32100
L50130 32100
L50100 32340
L50130 32320
L50170 32290
L50290 32290
L50340 32320
L50360 32340
L50390 32390
L50390 32510
L50360 32550
L50340 32580
L50290 32600
L50170 32600
L50130 32580
L50100 32550
" />
<path d="M50600 32600
L50600 32100
" />
<path d="M50650 32410
L50790 32600
" />
<path d="M50790 32270
L50600 32460
" />
<path d="M50980 32600
L51100 32600
L51100 32510
L51050 32480
L51010 32430
L50980 32360
L50980 32240
L51010 32170
L51050 32130
L51130 32100
L51220 32100
L51290 32130
L51340 32170
L51360 32240
L51360 32360
L51340 32430
L51290 32480
L51250 32510
L51250 32600
L51360 32600
" />
</g>
</g>
<g style="fill:#008484; fill-opacity:0.0; 
stroke:#008484; stroke-width:0; stroke-opacity:1; 
stroke-linecap:round; stroke-linejoin:round;">
<g >
</g>
<g style="fill:#840000; fill-opacity:0.0; 
stroke:#840000; stroke-width:0; stroke-opacity:1; 
stroke-linecap:round; stroke-linejoin:round;">
</g>
<g style="fill:#840000; fill-opacity:0.0; 
stroke:#840000; stroke-width:60; stroke-opacity:1; 
stroke-linecap:round; stroke-linejoin:round;">
<path d="M67500.4 43500 A250 250 0.0 0 0 67500.4 43000" />
<path d="M67500.4 43000 A250 250 0.0 0 0 67500.4 42500" />
<path d="M67500.4 42500 A250 250 0.0 0 0 67500.4 42000" />
<path d="M67500.4 42000 A250 250 0.0 0 0 67500.4 41500" />
<path d="M67500 41500
L67500 41000
" />
<path d="M67500 43500
L67500 44000
" />
</g>
<g style="fill:#008484; fill-opacity:0.0; 
stroke:#008484; stroke-width:60; stroke-opacity:1; 
stroke-linecap:round; stroke-linejoin:round;">
<text x="68490" y="42310"
textLength="940" font-size="660" lengthAdjust="spacingAndGlyphs"
text-anchor="middle" opacity="0">L2</text>
<path d="M68400 42280
L68160 42280
L68160 41780
" />
<path d="M68540 41830
L68570 41810
L68620 41780
L68740 41780
L68780 41810
L68810 41830
L68830 41880
L68830 41920
L68810 42000
L68520 42280
L68830 42280
" />
<text x="69120" y="43220"
textLength="2200" font-size="660" lengthAdjust="spacingAndGlyphs"
text-anchor="middle" opacity="0">39mH</text>
<path d="M68120 42690
L68420 42690
L68260 42880
L68330 42880
L68380 42910
L68400 42930
L68420 42980
L68420 43100
L68400 43140
L68380 43170
L68330 43190
L68190 43190
L68140 43170
L68120 43140
" />
<path d="M68660 43190
L68760 43190
L68810 43170
L68830 43140
L68880 43070
L68900 42980
L68900 42790
L68880 42740
L68850 42720
L68810 42690
L68710 42690
L68660 42720
L68640 42740
L68620 42790
L68620 42910
L68640 42950
L68660 42980
L68710 43000
L68810 43000
L68850 42980
L68880 42950
L68900 42910
" />
<path d="M69120 43190
L69120 42860
" />
<path d="M69120 42910
L69140 42880
L69190 42860
L69260 42860
L69310 42880
L69330 42930
L69330 43190
" />
<path d="M69330 42930
L69350 42880
L69400 42860
L69470 42860
L69520 42880
L69540 42930
L69540 43190
" />
<path d="M69780 43190
L69780 42690
" />
<path d="M69780 42930
L70070 42930
" />
<path d="M70070 43190
L70070 42690
" />
</g>
</g>
<g style="fill:#008484; fill-opacity:0.0; 
stroke:#008484; stroke-width:0; stroke-opacity:1; 
stroke-linecap:round; stroke-linejoin:round;">
<g >
</g>
<g style="fill:#840000; fill-opacity:0.0; 
stroke:#840000; stroke-width:0; stroke-opacity:1; 
stroke-linecap:round; stroke-linejoin:round;">
</g>
<g style="fill:#840000; fill-opacity:1.0; 
stroke:#840000; stroke-width:60; stroke-opacity:1; 
stroke-linecap:round; stroke-linejoin:round;">
<rect x="45600" y="38800" width="1800" height="100" rx="0" />
<rect x="45880" y="39030" width="1200" height="200" rx="0" />
</g>
<g style="fill:#840000; fill-opacity:0.0; 
stroke:#840000; stroke-width:60; stroke-opacity:1; 
stroke-linecap:round; stroke-linejoin:round;">
<path style="fill:#840000; fill-opacity:0.0; 
stroke:#840000; stroke-width:60; stroke-opacity:1; 
stroke-linecap:round; stroke-linejoin:round;fill:none"
d="M 46500,39200
46500,39500
" /> 
<path style="fill:#840000; fill-opacity:0.0; 
stroke:#840000; stroke-width:60; stroke-opacity:1; 
stroke-linecap:round; stroke-linejoin:round;fill:none"
d="M 46500,38800
46500,38500
" /> 
</g>
<g style="fill:#840000; fill-opacity:0.0; 
stroke:#840000; stroke-width:100; stroke-opacity:1; 
stroke-linecap:round; stroke-linejoin:round;">
<path style="fill:#840000; fill-opacity:0.0; 
stroke:#840000; stroke-width:100; stroke-opacity:1; 
stroke-linecap:round; stroke-linejoin:round;fill:none"
d="M 46700,38150
47100,38150
" /> 
<path style="fill:#840000; fill-opacity:0.0; 
stroke:#840000; stroke-width:100; stroke-opacity:1; 
stroke-linecap:round; stroke-linejoin:round;fill:none"
d="M 46900,37950
46900,38350
" /> 
</g>
<g style="fill:#840000; fill-opacity:0.0; 
stroke:#840000; stroke-width:60; stroke-opacity:1; 
stroke-linecap:round; stroke-linejoin:round;">
<path d="M46500 38500
L46500 37500
" />
<path d="M46500 39500
L46500 40500
" />
</g>
<g style="fill:#008484; fill-opacity:0.0; 
stroke:#008484; stroke-width:60; stroke-opacity:1; 
stroke-linecap:round; stroke-linejoin:round;">
<text x="48160" y="38810"
textLength="960" font-size="660" lengthAdjust="spacingAndGlyphs"
text-anchor="middle" opacity="0">V1</text>
<path d="M47750 38280
L47920 38780
L48080 38280
" />
<path d="M48510 38780
L48230 38780
" />
<path d="M48370 38780
L48370 38280
L48320 38350
L48270 38400
L48230 38420
" />
<text x="48400" y="39720"
textLength="1440" font-size="660" lengthAdjust="spacingAndGlyphs"
text-anchor="middle" opacity="0">10V</text>
<path d="M48090 39690
L47800 39690
" />
<path d="M47940 39690
L47940 39190
L47900 39260
L47850 39310
L47800 39330
" />
<path d="M48400 39190
L48440 39190
L48490 39220
L48510 39240
L48540 39290
L48560 39380
L48560 39500
L48540 39600
L48510 39640
L48490 39670
L48440 39690
L48400 39690
L48350 39670
L48320 39640
L48300 39600
L48280 39500
L48280 39380
L48300 39290
L48320 39240
L48350 39220
L48400 39190
" />
<path d="M48700 39190
L48870 39690
L49040 39190
" />
</g>
</g>
<g style="fill:#008484; fill-opacity:0.0; 
stroke:#008484; stroke-width:60; stroke-opacity:1; 
stroke-linecap:round; stroke-linejoin:round;">
</g>
<g style="fill:#008400; fill-opacity:0.0; 
stroke:#008400; stroke-width:60; stroke-opacity:1; 
stroke-linecap:round; stroke-linejoin:round;">
<path d="M59500 39000
L59500 38000
" />
<path d="M63500 39000
L63500 38000
" />
<path d="M59500 39000
L63500 39000
" />
<path d="M63500 33500
L67500 33500
" />
<path d="M63500 35000
L63500 33500
" />
<path d="M54500 44500
L59500 44500
" />
<path d="M54500 43000
L54500 44500
" />
<path d="M54500 33500
L59500 33500
" />
<path d="M54500 35000
L54500 33500
" />
<path d="M54500 40000
L54500 38000
" />
<path d="M46500 40500
L46500 44500
" />
<path d="M49000 33500
L46500 33500
" />
<path d="M46500 33500
L46500 37500
" />
<path d="M67500 33500
L67500 34000
" />
<path d="M67500 37000
L67500 37500
" />
<path d="M67500 40500
L67500 41000
" />
<path d="M46500 44500
L54500 44500
" />
<path d="M67500 44500
L67500 44000
" />
<path d="M59500 44500
L67500 44500
" />
<path d="M59500 40000
L59500 39000
" />
<path d="M59500 35000
L59500 33500
" />
<path d="M52000 33500
L54500 33500
" />
<path d="M59500 33500
L63500 33500
" />
<path d="M59500 43000
L59500 44500
" />
</g>
<g style="fill:#008400; fill-opacity:0.0; 
stroke:#008400; stroke-width:0; stroke-opacity:1; 
stroke-linecap:round; stroke-linejoin:round;">
</g>
<g style="fill:#008400; fill-opacity:1.0; 
stroke:#008400; stroke-width:100; stroke-opacity:1; 
stroke-linecap:round; stroke-linejoin:round;">
<circle cx="54500" cy="44500" r="200" /> 
</g>
<g style="fill:#008400; fill-opacity:1.0; 
stroke:#008400; stroke-width:0; stroke-opacity:1; 
stroke-linecap:round; stroke-linejoin:round;">
</g>
<g style="fill:#008400; fill-opacity:1.0; 
stroke:#008400; stroke-width:100; stroke-opacity:1; 
stroke-linecap:round; stroke-linejoin:round;">
<circle cx="59500" cy="33500" r="200" /> 
</g>
<g style="fill:#008400; fill-opacity:1.0; 
stroke:#008400; stroke-width:0; stroke-opacity:1; 
stroke-linecap:round; stroke-linejoin:round;">
</g>
<g style="fill:#008400; fill-opacity:1.0; 
stroke:#008400; stroke-width:100; stroke-opacity:1; 
stroke-linecap:round; stroke-linejoin:round;">
<circle cx="54500" cy="33500" r="200" /> 
</g>
<g style="fill:#008400; fill-opacity:1.0; 
stroke:#008400; stroke-width:0; stroke-opacity:1; 
stroke-linecap:round; stroke-linejoin:round;">
</g>
<g style="fill:#008400; fill-opacity:1.0; 
stroke:#008400; stroke-width:100; stroke-opacity:1; 
stroke-linecap:round; stroke-linejoin:round;">
<circle cx="59500" cy="39000" r="200" /> 
</g>
<g style="fill:#008400; fill-opacity:1.0; 
stroke:#008400; stroke-width:0; stroke-opacity:1; 
stroke-linecap:round; stroke-linejoin:round;">
</g>
<g style="fill:#008400; fill-opacity:1.0; 
stroke:#008400; stroke-width:100; stroke-opacity:1; 
stroke-linecap:round; stroke-linejoin:round;">
<circle cx="63500" cy="33500" r="200" /> 
</g>
<g style="fill:#008400; fill-opacity:1.0; 
stroke:#008400; stroke-width:0; stroke-opacity:1; 
stroke-linecap:round; stroke-linejoin:round;">
</g>
<g style="fill:#008400; fill-opacity:1.0; 
stroke:#008400; stroke-width:100; stroke-opacity:1; 
stroke-linecap:round; stroke-linejoin:round;">
<circle cx="59500" cy="44500" r="200" /> 
</g> 
</svg>
