<?xml version="1.0" standalone="no"?>
 <!DOCTYPE svg PUBLIC "-//W3C//DTD SVG 1.1//EN" 
 "http://www.w3.org/Graphics/SVG/1.1/DTD/svg11.dtd"> 
<svg
  xmlns:svg="http://www.w3.org/2000/svg"
  xmlns="http://www.w3.org/2000/svg"
  xmlns:xlink="http://www.w3.org/1999/xlink"
  version="1.1"
  width="29.700220cm" height="21.000720cm" viewBox="0 0 116930 82680">
<title>SVG Picture created as questao-10.svg date 2020/11/19 16:22:59 </title>
  <desc>Picture generated by Eeschema-SVG </desc>
<g style="fill:#000000; fill-opacity:1;stroke:#000000; stroke-opacity:1;
stroke-linecap:round; stroke-linejoin:round;"
 transform="translate(0 0) scale(1 1)">
</g>
<g style="fill:#000000; fill-opacity:0.0; 
stroke:#000000; stroke-width:0; stroke-opacity:1; 
stroke-linecap:round; stroke-linejoin:round;">
<g >
</g>
<g style="fill:#840000; fill-opacity:0.0; 
stroke:#840000; stroke-width:0; stroke-opacity:1; 
stroke-linecap:round; stroke-linejoin:round;">
</g>
<g style="fill:#840000; fill-opacity:1.0; 
stroke:#840000; stroke-width:60; stroke-opacity:1; 
stroke-linecap:round; stroke-linejoin:round;">
<rect x="53600" y="28800" width="1800" height="100" rx="0" />
<rect x="53880" y="29030" width="1200" height="200" rx="0" />
</g>
<g style="fill:#840000; fill-opacity:0.0; 
stroke:#840000; stroke-width:60; stroke-opacity:1; 
stroke-linecap:round; stroke-linejoin:round;">
<path style="fill:#840000; fill-opacity:0.0; 
stroke:#840000; stroke-width:60; stroke-opacity:1; 
stroke-linecap:round; stroke-linejoin:round;fill:none"
d="M 54500,29200
54500,29500
" /> 
<path style="fill:#840000; fill-opacity:0.0; 
stroke:#840000; stroke-width:60; stroke-opacity:1; 
stroke-linecap:round; stroke-linejoin:round;fill:none"
d="M 54500,28800
54500,28500
" /> 
</g>
<g style="fill:#840000; fill-opacity:0.0; 
stroke:#840000; stroke-width:100; stroke-opacity:1; 
stroke-linecap:round; stroke-linejoin:round;">
<path style="fill:#840000; fill-opacity:0.0; 
stroke:#840000; stroke-width:100; stroke-opacity:1; 
stroke-linecap:round; stroke-linejoin:round;fill:none"
d="M 54700,28150
55100,28150
" /> 
<path style="fill:#840000; fill-opacity:0.0; 
stroke:#840000; stroke-width:100; stroke-opacity:1; 
stroke-linecap:round; stroke-linejoin:round;fill:none"
d="M 54900,27950
54900,28350
" /> 
</g>
<g style="fill:#840000; fill-opacity:0.0; 
stroke:#840000; stroke-width:60; stroke-opacity:1; 
stroke-linecap:round; stroke-linejoin:round;">
<path d="M54500 28500
L54500 27500
" />
<path d="M54500 29500
L54500 30500
" />
</g>
<g style="fill:#008484; fill-opacity:0.0; 
stroke:#008484; stroke-width:60; stroke-opacity:1; 
stroke-linecap:round; stroke-linejoin:round;">
<text x="56160" y="28810"
textLength="960" font-size="660" lengthAdjust="spacingAndGlyphs"
text-anchor="middle" opacity="0">V2</text>
<path d="M55750 28280
L55920 28780
L56080 28280
" />
<path d="M56230 28330
L56250 28310
L56300 28280
L56420 28280
L56460 28310
L56490 28330
L56510 28380
L56510 28420
L56490 28500
L56200 28780
L56510 28780
" />
<text x="56160" y="29720"
textLength="960" font-size="660" lengthAdjust="spacingAndGlyphs"
text-anchor="middle" opacity="0">2V</text>
<path d="M55800 29240
L55820 29220
L55870 29190
L55990 29190
L56040 29220
L56060 29240
L56080 29290
L56080 29330
L56060 29410
L55770 29690
L56080 29690
" />
<path d="M56230 29190
L56390 29690
L56560 29190
" />
</g>
</g>
<g style="fill:#008484; fill-opacity:0.0; 
stroke:#008484; stroke-width:0; stroke-opacity:1; 
stroke-linecap:round; stroke-linejoin:round;">
<g >
</g>
<g style="fill:#840000; fill-opacity:0.0; 
stroke:#840000; stroke-width:0; stroke-opacity:1; 
stroke-linecap:round; stroke-linejoin:round;">
</g>
<g style="fill:#840000; fill-opacity:0.0; 
stroke:#840000; stroke-width:60; stroke-opacity:1; 
stroke-linecap:round; stroke-linejoin:round;">
<path style="fill:#840000; fill-opacity:0.0; 
stroke:#840000; stroke-width:60; stroke-opacity:1; 
stroke-linecap:round; stroke-linejoin:round;fill:none"
d="M 50100,24500
50000,24500
" /> 
<path style="fill:#840000; fill-opacity:0.0; 
stroke:#840000; stroke-width:60; stroke-opacity:1; 
stroke-linecap:round; stroke-linejoin:round;fill:none"
d="M 51900,24500
52000,24500
" /> 
<path style="fill:#840000; fill-opacity:0.0; 
stroke:#840000; stroke-width:60; stroke-opacity:1; 
stroke-linecap:round; stroke-linejoin:round;fill:none"
d="M 50700,24500
50550,24900
50400,24500
50250,24100
50100,24500
" /> 
<path style="fill:#840000; fill-opacity:0.0; 
stroke:#840000; stroke-width:60; stroke-opacity:1; 
stroke-linecap:round; stroke-linejoin:round;fill:none"
d="M 51300,24500
51150,24900
51000,24500
50850,24100
50700,24500
" /> 
<path style="fill:#840000; fill-opacity:0.0; 
stroke:#840000; stroke-width:60; stroke-opacity:1; 
stroke-linecap:round; stroke-linejoin:round;fill:none"
d="M 51900,24500
51750,24900
51600,24500
51450,24100
51300,24500
" /> 
<path d="M52000 24500
L52500 24500
" />
<path d="M50000 24500
L49500 24500
" />
</g>
<g style="fill:#008484; fill-opacity:0.0; 
stroke:#008484; stroke-width:60; stroke-opacity:1; 
stroke-linecap:round; stroke-linejoin:round;">
<text x="51000" y="22720"
textLength="1040" font-size="660" lengthAdjust="spacingAndGlyphs"
text-anchor="middle" opacity="0">R1</text>
<path d="M50910 22690
L50750 22450
" />
<path d="M50630 22690
L50630 22190
L50820 22190
L50860 22220
L50890 22240
L50910 22290
L50910 22360
L50890 22410
L50860 22430
L50820 22450
L50630 22450
" />
<path d="M51390 22690
L51100 22690
" />
<path d="M51250 22690
L51250 22190
L51200 22260
L51150 22310
L51100 22330
" />
<text x="51000" y="23630"
textLength="1990" font-size="660" lengthAdjust="spacingAndGlyphs"
text-anchor="middle" opacity="0">5k6Ω</text>
<path d="M50390 23100
L50150 23100
L50130 23340
L50150 23320
L50200 23290
L50320 23290
L50360 23320
L50390 23340
L50410 23390
L50410 23510
L50390 23550
L50360 23580
L50320 23600
L50200 23600
L50150 23580
L50130 23550
" />
<path d="M50630 23600
L50630 23100
" />
<path d="M50670 23410
L50820 23600
" />
<path d="M50820 23270
L50630 23460
" />
<path d="M51250 23100
L51150 23100
L51100 23130
L51080 23150
L51030 23220
L51010 23320
L51010 23510
L51030 23550
L51050 23580
L51100 23600
L51200 23600
L51250 23580
L51270 23550
L51290 23510
L51290 23390
L51270 23340
L51250 23320
L51200 23290
L51100 23290
L51050 23320
L51030 23340
L51010 23390
" />
<path d="M51480 23600
L51600 23600
L51600 23510
L51550 23480
L51510 23430
L51480 23360
L51480 23240
L51510 23170
L51550 23130
L51630 23100
L51720 23100
L51790 23130
L51840 23170
L51860 23240
L51860 23360
L51840 23430
L51790 23480
L51750 23510
L51750 23600
L51860 23600
" />
</g>
</g>
<g style="fill:#008484; fill-opacity:0.0; 
stroke:#008484; stroke-width:0; stroke-opacity:1; 
stroke-linecap:round; stroke-linejoin:round;">
<g >
</g>
<g style="fill:#840000; fill-opacity:0.0; 
stroke:#840000; stroke-width:0; stroke-opacity:1; 
stroke-linecap:round; stroke-linejoin:round;">
</g>
<g style="fill:#840000; fill-opacity:0.0; 
stroke:#840000; stroke-width:60; stroke-opacity:1; 
stroke-linecap:round; stroke-linejoin:round;">
<path style="fill:#840000; fill-opacity:0.0; 
stroke:#840000; stroke-width:60; stroke-opacity:1; 
stroke-linecap:round; stroke-linejoin:round;fill:none"
d="M 58100,25500
58000,25500
" /> 
<path style="fill:#840000; fill-opacity:0.0; 
stroke:#840000; stroke-width:60; stroke-opacity:1; 
stroke-linecap:round; stroke-linejoin:round;fill:none"
d="M 59900,25500
60000,25500
" /> 
<path style="fill:#840000; fill-opacity:0.0; 
stroke:#840000; stroke-width:60; stroke-opacity:1; 
stroke-linecap:round; stroke-linejoin:round;fill:none"
d="M 58700,25500
58550,25900
58400,25500
58250,25100
58100,25500
" /> 
<path style="fill:#840000; fill-opacity:0.0; 
stroke:#840000; stroke-width:60; stroke-opacity:1; 
stroke-linecap:round; stroke-linejoin:round;fill:none"
d="M 59300,25500
59150,25900
59000,25500
58850,25100
58700,25500
" /> 
<path style="fill:#840000; fill-opacity:0.0; 
stroke:#840000; stroke-width:60; stroke-opacity:1; 
stroke-linecap:round; stroke-linejoin:round;fill:none"
d="M 59900,25500
59750,25900
59600,25500
59450,25100
59300,25500
" /> 
<path d="M60000 25500
L60500 25500
" />
<path d="M58000 25500
L57500 25500
" />
</g>
<g style="fill:#008484; fill-opacity:0.0; 
stroke:#008484; stroke-width:60; stroke-opacity:1; 
stroke-linecap:round; stroke-linejoin:round;">
<text x="59000" y="26770"
textLength="1040" font-size="660" lengthAdjust="spacingAndGlyphs"
text-anchor="middle" opacity="0">R2</text>
<path d="M58910 26740
L58750 26500
" />
<path d="M58630 26740
L58630 26240
L58820 26240
L58860 26270
L58890 26290
L58910 26340
L58910 26410
L58890 26460
L58860 26480
L58820 26500
L58630 26500
" />
<path d="M59100 26290
L59130 26270
L59170 26240
L59290 26240
L59340 26270
L59360 26290
L59390 26340
L59390 26380
L59360 26460
L59080 26740
L59390 26740
" />
<text x="59000" y="27770"
textLength="1990" font-size="660" lengthAdjust="spacingAndGlyphs"
text-anchor="middle" opacity="0">10kΩ</text>
<path d="M58410 27740
L58130 27740
" />
<path d="M58270 27740
L58270 27240
L58220 27310
L58170 27360
L58130 27380
" />
<path d="M58720 27240
L58770 27240
L58820 27270
L58840 27290
L58860 27340
L58890 27430
L58890 27550
L58860 27650
L58840 27690
L58820 27720
L58770 27740
L58720 27740
L58670 27720
L58650 27690
L58630 27650
L58600 27550
L58600 27430
L58630 27340
L58650 27290
L58670 27270
L58720 27240
" />
<path d="M59100 27740
L59100 27240
" />
<path d="M59150 27550
L59290 27740
" />
<path d="M59290 27410
L59100 27600
" />
<path d="M59480 27740
L59600 27740
L59600 27650
L59550 27620
L59510 27570
L59480 27500
L59480 27380
L59510 27310
L59550 27270
L59630 27240
L59720 27240
L59790 27270
L59840 27310
L59860 27380
L59860 27500
L59840 27570
L59790 27620
L59750 27650
L59750 27740
L59860 27740
" />
</g>
</g>
<g style="fill:#008484; fill-opacity:0.0; 
stroke:#008484; stroke-width:0; stroke-opacity:1; 
stroke-linecap:round; stroke-linejoin:round;">
<g >
</g>
<g style="fill:#840000; fill-opacity:0.0; 
stroke:#840000; stroke-width:0; stroke-opacity:1; 
stroke-linecap:round; stroke-linejoin:round;">
</g>
<g style="fill:#840000; fill-opacity:0.0; 
stroke:#840000; stroke-width:60; stroke-opacity:1; 
stroke-linecap:round; stroke-linejoin:round;">
<path style="fill:#840000; fill-opacity:0.0; 
stroke:#840000; stroke-width:60; stroke-opacity:1; 
stroke-linecap:round; stroke-linejoin:round;fill:none"
d="M 62500,28100
62500,28000
" /> 
<path style="fill:#840000; fill-opacity:0.0; 
stroke:#840000; stroke-width:60; stroke-opacity:1; 
stroke-linecap:round; stroke-linejoin:round;fill:none"
d="M 62500,29900
62500,30000
" /> 
<path style="fill:#840000; fill-opacity:0.0; 
stroke:#840000; stroke-width:60; stroke-opacity:1; 
stroke-linecap:round; stroke-linejoin:round;fill:none"
d="M 62500,28700
62100,28550
62500,28400
62900,28250
62500,28100
" /> 
<path style="fill:#840000; fill-opacity:0.0; 
stroke:#840000; stroke-width:60; stroke-opacity:1; 
stroke-linecap:round; stroke-linejoin:round;fill:none"
d="M 62500,29300
62100,29150
62500,29000
62900,28850
62500,28700
" /> 
<path style="fill:#840000; fill-opacity:0.0; 
stroke:#840000; stroke-width:60; stroke-opacity:1; 
stroke-linecap:round; stroke-linejoin:round;fill:none"
d="M 62500,29900
62100,29750
62500,29600
62900,29450
62500,29300
" /> 
<path d="M62500 30000
L62500 30500
" />
<path d="M62500 28000
L62500 27500
" />
</g>
<g style="fill:#008484; fill-opacity:0.0; 
stroke:#008484; stroke-width:60; stroke-opacity:1; 
stroke-linecap:round; stroke-linejoin:round;">
<text x="63700" y="28760"
textLength="1040" font-size="660" lengthAdjust="spacingAndGlyphs"
text-anchor="middle" opacity="0">R3</text>
<path d="M63610 28730
L63450 28490
" />
<path d="M63330 28730
L63330 28230
L63520 28230
L63560 28260
L63590 28280
L63610 28330
L63610 28400
L63590 28450
L63560 28470
L63520 28490
L63330 28490
" />
<path d="M63780 28230
L64090 28230
L63920 28420
L63990 28420
L64040 28450
L64060 28470
L64090 28520
L64090 28640
L64060 28680
L64040 28710
L63990 28730
L63850 28730
L63800 28710
L63780 28680
" />
<text x="64170" y="29670"
textLength="1990" font-size="660" lengthAdjust="spacingAndGlyphs"
text-anchor="middle" opacity="0">6k8Ω</text>
<path d="M63530 29140
L63440 29140
L63390 29170
L63370 29190
L63320 29260
L63300 29360
L63300 29550
L63320 29590
L63340 29620
L63390 29640
L63490 29640
L63530 29620
L63560 29590
L63580 29550
L63580 29430
L63560 29380
L63530 29360
L63490 29330
L63390 29330
L63340 29360
L63320 29380
L63300 29430
" />
<path d="M63800 29640
L63800 29140
" />
<path d="M63840 29450
L63990 29640
" />
<path d="M63990 29310
L63800 29500
" />
<path d="M64270 29360
L64220 29330
L64200 29310
L64180 29260
L64180 29240
L64200 29190
L64220 29170
L64270 29140
L64370 29140
L64420 29170
L64440 29190
L64460 29240
L64460 29260
L64440 29310
L64420 29330
L64370 29360
L64270 29360
L64220 29380
L64200 29400
L64180 29450
L64180 29550
L64200 29590
L64220 29620
L64270 29640
L64370 29640
L64420 29620
L64440 29590
L64460 29550
L64460 29450
L64440 29400
L64420 29380
L64370 29360
" />
<path d="M64650 29640
L64770 29640
L64770 29550
L64720 29520
L64680 29470
L64650 29400
L64650 29280
L64680 29210
L64720 29170
L64800 29140
L64890 29140
L64960 29170
L65010 29210
L65030 29280
L65030 29400
L65010 29470
L64960 29520
L64920 29550
L64920 29640
L65030 29640
" />
</g>
</g>
<g style="fill:#008484; fill-opacity:0.0; 
stroke:#008484; stroke-width:0; stroke-opacity:1; 
stroke-linecap:round; stroke-linejoin:round;">
<g >
</g>
<g style="fill:#840000; fill-opacity:0.0; 
stroke:#840000; stroke-width:0; stroke-opacity:1; 
stroke-linecap:round; stroke-linejoin:round;">
</g>
<g style="fill:#840000; fill-opacity:0.0; 
stroke:#840000; stroke-width:200; stroke-opacity:1; 
stroke-linecap:round; stroke-linejoin:round;">
<path style="fill:#840000; fill-opacity:0.0; 
stroke:#840000; stroke-width:200; stroke-opacity:1; 
stroke-linecap:round; stroke-linejoin:round;fill:none"
d="M 69700,29300
71300,29300
" /> 
<path style="fill:#840000; fill-opacity:0.0; 
stroke:#840000; stroke-width:200; stroke-opacity:1; 
stroke-linecap:round; stroke-linejoin:round;fill:none"
d="M 69700,28700
71300,28700
" /> 
</g>
<g style="fill:#840000; fill-opacity:0.0; 
stroke:#840000; stroke-width:60; stroke-opacity:1; 
stroke-linecap:round; stroke-linejoin:round;">
<path d="M70500 28600
L70500 27500
" />
<path d="M70500 29400
L70500 30500
" />
</g>
<g style="fill:#008484; fill-opacity:0.0; 
stroke:#008484; stroke-width:60; stroke-opacity:1; 
stroke-linecap:round; stroke-linejoin:round;">
<text x="72170" y="28810"
textLength="1040" font-size="660" lengthAdjust="spacingAndGlyphs"
text-anchor="middle" opacity="0">C1</text>
<path d="M72080 28730
L72060 28760
L71990 28780
L71940 28780
L71870 28760
L71820 28710
L71800 28660
L71770 28570
L71770 28500
L71800 28400
L71820 28350
L71870 28310
L71940 28280
L71990 28280
L72060 28310
L72080 28330
" />
<path d="M72560 28780
L72270 28780
" />
<path d="M72420 28780
L72420 28280
L72370 28350
L72320 28400
L72270 28420
" />
<text x="72710" y="29720"
textLength="2130" font-size="660" lengthAdjust="spacingAndGlyphs"
text-anchor="middle" opacity="0">4,7nF</text>
<path d="M72000 29360
L72000 29690
" />
<path d="M71880 29170
L71760 29520
L72070 29520
" />
<path d="M72290 29670
L72290 29690
L72260 29740
L72240 29760
" />
<path d="M72460 29190
L72790 29190
L72570 29690
" />
<path d="M72980 29360
L72980 29690
" />
<path d="M72980 29410
L73000 29380
L73050 29360
L73120 29360
L73170 29380
L73190 29430
L73190 29690
" />
<path d="M73600 29430
L73430 29430
" />
<path d="M73430 29690
L73430 29190
L73670 29190
" />
</g>
</g>
<g style="fill:#008484; fill-opacity:0.0; 
stroke:#008484; stroke-width:0; stroke-opacity:1; 
stroke-linecap:round; stroke-linejoin:round;">
<g >
</g>
<g style="fill:#840000; fill-opacity:0.0; 
stroke:#840000; stroke-width:0; stroke-opacity:1; 
stroke-linecap:round; stroke-linejoin:round;">
</g>
<g style="fill:#840000; fill-opacity:0.0; 
stroke:#840000; stroke-width:60; stroke-opacity:1; 
stroke-linecap:round; stroke-linejoin:round;">
<circle cx="67800" cy="25500" r="180" /> 
<circle cx="66200" cy="26500" r="180" /> 
<circle cx="66200" cy="25500" r="180" /> 
<circle cx="66200" cy="24500" r="180" /> 
<path style="fill:#840000; fill-opacity:0.0; 
stroke:#840000; stroke-width:60; stroke-opacity:1; 
stroke-linecap:round; stroke-linejoin:round;fill:none"
d="M 67650,25400
66350,24600
" /> 
<path d="M66000 24500
L65000 24500
" />
<text x="65500" y="25100"
textLength="540" font-size="660" lengthAdjust="spacingAndGlyphs"
text-anchor="middle" opacity="0">1</text>
<path d="M65640 25070
L65350 25070
" />
<path d="M65500 25070
L65500 24570
L65450 24640
L65400 24690
L65350 24710
" />
<path d="M66000 25500
L65000 25500
" />
<text x="65500" y="26100"
textLength="540" font-size="660" lengthAdjust="spacingAndGlyphs"
text-anchor="middle" opacity="0">2</text>
<path d="M65350 25620
L65380 25600
L65420 25570
L65540 25570
L65590 25600
L65610 25620
L65640 25670
L65640 25710
L65610 25790
L65330 26070
L65640 26070
" />
<path d="M68000 25500
L69000 25500
" />
<text x="68500" y="26100"
textLength="540" font-size="660" lengthAdjust="spacingAndGlyphs"
text-anchor="middle" opacity="0">3</text>
<path d="M68330 25570
L68640 25570
L68470 25760
L68540 25760
L68590 25790
L68610 25810
L68640 25860
L68640 25980
L68610 26020
L68590 26050
L68540 26070
L68400 26070
L68350 26050
L68330 26020
" />
<path d="M66000 26500
L65000 26500
" />
<text x="65500" y="27100"
textLength="540" font-size="660" lengthAdjust="spacingAndGlyphs"
text-anchor="middle" opacity="0">4</text>
<path d="M65590 26740
L65590 27070
" />
<path d="M65470 26550
L65350 26900
L65660 26900
" />
</g>
<g style="fill:#008484; fill-opacity:0.0; 
stroke:#008484; stroke-width:60; stroke-opacity:1; 
stroke-linecap:round; stroke-linejoin:round;">
<text x="68740" y="27020"
textLength="2010" font-size="660" lengthAdjust="spacingAndGlyphs"
text-anchor="middle" opacity="0">SW1A</text>
<path d="M67850 26970
L67930 26990
L68040 26990
L68090 26970
L68120 26940
L68140 26900
L68140 26850
L68120 26800
L68090 26780
L68040 26750
L67950 26730
L67900 26710
L67880 26680
L67850 26630
L67850 26590
L67880 26540
L67900 26520
L67950 26490
L68070 26490
L68140 26520
" />
<path d="M68310 26490
L68430 26990
L68520 26630
L68620 26990
L68740 26490
" />
<path d="M69190 26990
L68900 26990
" />
<path d="M69040 26990
L69040 26490
L69000 26560
L68950 26610
L68900 26630
" />
<path d="M69380 26850
L69620 26850
" />
<path d="M69330 26990
L69500 26490
L69660 26990
" />
</g>
</g>
<g style="fill:#008484; fill-opacity:0.0; 
stroke:#008484; stroke-width:0; stroke-opacity:1; 
stroke-linecap:round; stroke-linejoin:round;">
<g >
</g>
<g style="fill:#840000; fill-opacity:0.0; 
stroke:#840000; stroke-width:0; stroke-opacity:1; 
stroke-linecap:round; stroke-linejoin:round;">
</g>
<g style="fill:#840000; fill-opacity:0.0; 
stroke:#840000; stroke-width:60; stroke-opacity:1; 
stroke-linecap:round; stroke-linejoin:round;">
<path d="M68498.1 24495.8 A2010 2010 0.0 0 0 66754.1 26252" />
</g>
<g style="fill:#840000; fill-opacity:1.0; 
stroke:#840000; stroke-width:60; stroke-opacity:1; 
stroke-linecap:round; stroke-linejoin:round;">
<path style="fill:#840000; fill-opacity:1.0; 
stroke:#840000; stroke-width:60; stroke-opacity:1; 
stroke-linecap:round; stroke-linejoin:round;fill-rule:evenodd;"
d="M 66750,26500
66700,26150
66850,26150
Z" /> 
</g>
<g style="fill:#840084; fill-opacity:0.0; 
stroke:#840084; stroke-width:60; stroke-opacity:1; 
stroke-linecap:round; stroke-linejoin:round;">
</g>
<g style="fill:#840084; fill-opacity:0.0; 
stroke:#840084; stroke-width:50; stroke-opacity:1; 
stroke-linecap:round; stroke-linejoin:round;">
<text x="72180" y="23670"
textLength="2150" font-size="400" lengthAdjust="spacingAndGlyphs"
text-anchor="middle" opacity="0">t0 = 0us</text>
<path d="M71160 23450
L71280 23450
" />
<path d="M71200 23350
L71200 23610
L71220 23640
L71250 23650
L71280 23650
" />
<path d="M71430 23350
L71460 23350
L71490 23370
L71500 23380
L71520 23410
L71530 23470
L71530 23540
L71520 23590
L71500 23620
L71490 23640
L71460 23650
L71430 23650
L71400 23640
L71390 23620
L71380 23590
L71360 23540
L71360 23470
L71380 23410
L71390 23380
L71400 23370
L71430 23350
" />
<path d="M71890 23490
L72120 23490
" />
<path d="M72120 23580
L71890 23580
" />
<path d="M72550 23350
L72580 23350
L72600 23370
L72620 23380
L72630 23410
L72650 23470
L72650 23540
L72630 23590
L72620 23620
L72600 23640
L72580 23650
L72550 23650
L72520 23640
L72500 23620
L72490 23590
L72480 23540
L72480 23470
L72490 23410
L72500 23380
L72520 23370
L72550 23350
" />
<path d="M72900 23450
L72900 23650
" />
<path d="M72780 23450
L72780 23610
L72790 23640
L72820 23650
L72860 23650
L72890 23640
L72900 23620
" />
<path d="M73030 23640
L73060 23650
L73120 23650
L73150 23640
L73160 23610
L73160 23590
L73150 23570
L73120 23550
L73080 23550
L73050 23540
L73030 23510
L73030 23490
L73050 23470
L73080 23450
L73120 23450
L73150 23470
" />
<text x="72290" y="24420"
textLength="2420" font-size="400" lengthAdjust="spacingAndGlyphs"
text-anchor="middle" opacity="0">t1 = 20us</text>
<path d="M71130 24200
L71240 24200
" />
<path d="M71170 24100
L71170 24360
L71190 24390
L71210 24400
L71240 24400
" />
<path d="M71500 24400
L71330 24400
" />
<path d="M71410 24400
L71410 24100
L71390 24140
L71360 24170
L71330 24190
" />
<path d="M71860 24240
L72090 24240
" />
<path d="M72090 24330
L71860 24330
" />
<path d="M72440 24130
L72460 24120
L72490 24100
L72560 24100
L72590 24120
L72600 24130
L72610 24160
L72610 24190
L72600 24230
L72430 24400
L72610 24400
" />
<path d="M72800 24100
L72830 24100
L72860 24120
L72870 24130
L72890 24160
L72900 24220
L72900 24290
L72890 24340
L72870 24370
L72860 24390
L72830 24400
L72800 24400
L72770 24390
L72760 24370
L72740 24340
L72730 24290
L72730 24220
L72740 24160
L72760 24130
L72770 24120
L72800 24100
" />
<path d="M73160 24200
L73160 24400
" />
<path d="M73030 24200
L73030 24360
L73040 24390
L73070 24400
L73110 24400
L73140 24390
L73160 24370
" />
<path d="M73290 24390
L73310 24400
L73370 24400
L73400 24390
L73410 24360
L73410 24340
L73400 24320
L73370 24300
L73330 24300
L73300 24290
L73290 24260
L73290 24240
L73300 24220
L73330 24200
L73370 24200
L73400 24220
" />
<text x="72390" y="25170"
textLength="2710" font-size="400" lengthAdjust="spacingAndGlyphs"
text-anchor="middle" opacity="0">t2 = 110us</text>
<path d="M71090 24950
L71200 24950
" />
<path d="M71130 24850
L71130 25110
L71140 25140
L71170 25150
L71200 25150
" />
<path d="M71290 24880
L71300 24870
L71330 24850
L71400 24850
L71430 24870
L71440 24880
L71460 24910
L71460 24940
L71440 24980
L71270 25150
L71460 25150
" />
<path d="M71810 24990
L72040 24990
" />
<path d="M72040 25080
L71810 25080
" />
<path d="M72570 25150
L72400 25150
" />
<path d="M72490 25150
L72490 24850
L72460 24890
L72430 24920
L72400 24940
" />
<path d="M72860 25150
L72690 25150
" />
<path d="M72770 25150
L72770 24850
L72740 24890
L72710 24920
L72690 24940
" />
<path d="M73040 24850
L73070 24850
L73100 24870
L73110 24880
L73130 24910
L73140 24970
L73140 25040
L73130 25090
L73110 25120
L73100 25140
L73070 25150
L73040 25150
L73010 25140
L73000 25120
L72990 25090
L72970 25040
L72970 24970
L72990 24910
L73000 24880
L73010 24870
L73040 24850
" />
<path d="M73400 24950
L73400 25150
" />
<path d="M73270 24950
L73270 25110
L73290 25140
L73310 25150
L73360 25150
L73390 25140
L73400 25120
" />
<path d="M73530 25140
L73560 25150
L73610 25150
L73640 25140
L73660 25110
L73660 25090
L73640 25070
L73610 25050
L73570 25050
L73540 25040
L73530 25010
L73530 24990
L73540 24970
L73570 24950
L73610 24950
L73640 24970
" />
</g>
</g>
<g style="fill:#840084; fill-opacity:0.0; 
stroke:#840084; stroke-width:0; stroke-opacity:1; 
stroke-linecap:round; stroke-linejoin:round;">
<g >
</g>
<g style="fill:#840000; fill-opacity:0.0; 
stroke:#840000; stroke-width:0; stroke-opacity:1; 
stroke-linecap:round; stroke-linejoin:round;">
</g>
<g style="fill:#840000; fill-opacity:1.0; 
stroke:#840000; stroke-width:60; stroke-opacity:1; 
stroke-linecap:round; stroke-linejoin:round;">
<rect x="45600" y="28800" width="1800" height="100" rx="0" />
<rect x="45880" y="29030" width="1200" height="200" rx="0" />
</g>
<g style="fill:#840000; fill-opacity:0.0; 
stroke:#840000; stroke-width:60; stroke-opacity:1; 
stroke-linecap:round; stroke-linejoin:round;">
<path style="fill:#840000; fill-opacity:0.0; 
stroke:#840000; stroke-width:60; stroke-opacity:1; 
stroke-linecap:round; stroke-linejoin:round;fill:none"
d="M 46500,29200
46500,29500
" /> 
<path style="fill:#840000; fill-opacity:0.0; 
stroke:#840000; stroke-width:60; stroke-opacity:1; 
stroke-linecap:round; stroke-linejoin:round;fill:none"
d="M 46500,28800
46500,28500
" /> 
</g>
<g style="fill:#840000; fill-opacity:0.0; 
stroke:#840000; stroke-width:100; stroke-opacity:1; 
stroke-linecap:round; stroke-linejoin:round;">
<path style="fill:#840000; fill-opacity:0.0; 
stroke:#840000; stroke-width:100; stroke-opacity:1; 
stroke-linecap:round; stroke-linejoin:round;fill:none"
d="M 46700,28150
47100,28150
" /> 
<path style="fill:#840000; fill-opacity:0.0; 
stroke:#840000; stroke-width:100; stroke-opacity:1; 
stroke-linecap:round; stroke-linejoin:round;fill:none"
d="M 46900,27950
46900,28350
" /> 
</g>
<g style="fill:#840000; fill-opacity:0.0; 
stroke:#840000; stroke-width:60; stroke-opacity:1; 
stroke-linecap:round; stroke-linejoin:round;">
<path d="M46500 28500
L46500 27500
" />
<path d="M46500 29500
L46500 30500
" />
</g>
<g style="fill:#008484; fill-opacity:0.0; 
stroke:#008484; stroke-width:60; stroke-opacity:1; 
stroke-linecap:round; stroke-linejoin:round;">
<text x="48160" y="28810"
textLength="950" font-size="660" lengthAdjust="spacingAndGlyphs"
text-anchor="middle" opacity="0">V1</text>
<path d="M47750 28280
L47920 28780
L48080 28280
" />
<path d="M48510 28780
L48230 28780
" />
<path d="M48370 28780
L48370 28280
L48320 28350
L48270 28400
L48230 28420
" />
<text x="48400" y="29720"
textLength="1440" font-size="660" lengthAdjust="spacingAndGlyphs"
text-anchor="middle" opacity="0">15V</text>
<path d="M48090 29690
L47800 29690
" />
<path d="M47940 29690
L47940 29190
L47900 29260
L47850 29310
L47800 29330
" />
<path d="M48540 29190
L48300 29190
L48280 29430
L48300 29410
L48350 29380
L48470 29380
L48510 29410
L48540 29430
L48560 29480
L48560 29600
L48540 29640
L48510 29670
L48470 29690
L48350 29690
L48300 29670
L48280 29640
" />
<path d="M48700 29190
L48870 29690
L49040 29190
" />
</g>
</g>
<g style="fill:#008484; fill-opacity:0.0; 
stroke:#008484; stroke-width:60; stroke-opacity:1; 
stroke-linecap:round; stroke-linejoin:round;">
</g>
<g style="fill:#008400; fill-opacity:0.0; 
stroke:#008400; stroke-width:60; stroke-opacity:1; 
stroke-linecap:round; stroke-linejoin:round;">
<path d="M54500 30500
L54500 32500
" />
<path d="M62500 26500
L65000 26500
" />
<path d="M62500 27500
L62500 26500
" />
<path d="M54500 25500
L54500 27500
" />
<path d="M57500 25500
L54500 25500
" />
<path d="M62500 32500
L70500 32500
" />
<path d="M62500 30500
L62500 32500
" />
<path d="M54500 32500
L62500 32500
" />
<path d="M65000 24500
L52500 24500
" />
<path d="M60500 25500
L65000 25500
" />
<path d="M46500 24500
L49500 24500
" />
<path d="M46500 27500
L46500 24500
" />
<path d="M70500 30500
L70500 32500
" />
<path d="M46500 32500
L54500 32500
" />
<path d="M46500 30500
L46500 32500
" />
<path d="M70500 25500
L70500 27500
" />
<path d="M69000 25500
L70500 25500
" />
</g>
<g style="fill:#008400; fill-opacity:0.0; 
stroke:#008400; stroke-width:50; stroke-opacity:1; 
stroke-linecap:round; stroke-linejoin:round;">
</g>
<g style="fill:#0000C2; fill-opacity:0.0; 
stroke:#0000C2; stroke-width:50; stroke-opacity:1; 
stroke-linecap:round; stroke-linejoin:round;">
<text x="66500" y="24410"
textLength="520" font-size="400" lengthAdjust="spacingAndGlyphs"
text-anchor="start" opacity="0">t0</text>
<path d="M66550 24190
L66660 24190
" />
<path d="M66590 24090
L66590 24350
L66610 24380
L66630 24390
L66660 24390
" />
<path d="M66820 24090
L66850 24090
L66880 24110
L66890 24120
L66910 24150
L66920 24210
L66920 24280
L66910 24330
L66890 24360
L66880 24380
L66850 24390
L66820 24390
L66790 24380
L66780 24360
L66760 24330
L66750 24280
L66750 24210
L66760 24150
L66780 24120
L66790 24110
L66820 24090
" />
<text x="66500" y="25410"
textLength="510" font-size="400" lengthAdjust="spacingAndGlyphs"
text-anchor="start" opacity="0">t1</text>
<path d="M66550 25190
L66660 25190
" />
<path d="M66590 25090
L66590 25350
L66610 25380
L66630 25390
L66660 25390
" />
<path d="M66920 25390
L66750 25390
" />
<path d="M66830 25390
L66830 25090
L66810 25130
L66780 25160
L66750 25180
" />
<text x="66500" y="27160"
textLength="510" font-size="400" lengthAdjust="spacingAndGlyphs"
text-anchor="start" opacity="0">t2</text>
<path d="M66550 26940
L66660 26940
" />
<path d="M66590 26840
L66590 27100
L66610 27130
L66630 27140
L66660 27140
" />
<path d="M66750 26870
L66760 26860
L66790 26840
L66860 26840
L66890 26860
L66910 26870
L66920 26900
L66920 26930
L66910 26970
L66730 27140
L66920 27140
" />
<text x="71000" y="25910"
textLength="2990" font-size="400" lengthAdjust="spacingAndGlyphs"
text-anchor="start" opacity="0">(tf = 270us)</text>
<path d="M71180 26010
L71160 25990
L71130 25950
L71120 25920
L71110 25880
L71090 25810
L71090 25750
L71110 25680
L71120 25630
L71130 25610
L71160 25560
L71180 25550
" />
<path d="M71250 25690
L71360 25690
" />
<path d="M71290 25590
L71290 25850
L71310 25880
L71330 25890
L71360 25890
" />
<path d="M71420 25690
L71530 25690
" />
<path d="M71460 25890
L71460 25630
L71480 25610
L71510 25590
L71530 25590
" />
<path d="M71860 25730
L72090 25730
" />
<path d="M72090 25820
L71860 25820
" />
<path d="M72450 25620
L72460 25610
L72490 25590
L72560 25590
L72590 25610
L72610 25620
L72620 25650
L72620 25680
L72610 25720
L72430 25890
L72620 25890
" />
<path d="M72720 25590
L72920 25590
L72790 25890
" />
<path d="M73090 25590
L73120 25590
L73150 25610
L73160 25620
L73180 25650
L73190 25710
L73190 25780
L73180 25830
L73160 25860
L73150 25880
L73120 25890
L73090 25890
L73060 25880
L73050 25860
L73030 25830
L73020 25780
L73020 25710
L73030 25650
L73050 25620
L73060 25610
L73090 25590
" />
<path d="M73450 25690
L73450 25890
" />
<path d="M73320 25690
L73320 25850
L73330 25880
L73360 25890
L73410 25890
L73430 25880
L73450 25860
" />
<path d="M73580 25880
L73610 25890
L73660 25890
L73690 25880
L73710 25850
L73710 25830
L73690 25810
L73660 25790
L73620 25790
L73590 25780
L73580 25750
L73580 25730
L73590 25710
L73620 25690
L73660 25690
L73690 25710
" />
<path d="M73810 26010
L73820 25990
L73850 25950
L73860 25920
L73880 25880
L73890 25810
L73890 25750
L73880 25680
L73860 25630
L73850 25610
L73820 25560
L73810 25550
" />
</g>
<g style="fill:#0000C2; fill-opacity:0.0; 
stroke:#0000C2; stroke-width:60; stroke-opacity:1; 
stroke-linecap:round; stroke-linejoin:round;">
<text x="76500" y="22560"
textLength="12810" font-size="660" lengthAdjust="spacingAndGlyphs"
text-anchor="start" opacity="0">Cálculos auxiliares (usar 4 A.S.):</text>
<path d="M76930 22480
L76910 22510
L76830 22530
L76790 22530
L76720 22510
L76670 22460
L76640 22410
L76620 22320
L76620 22250
L76640 22150
L76670 22100
L76720 22060
L76790 22030
L76830 22030
L76910 22060
L76930 22080
" />
<path d="M77360 22530
L77360 22270
L77330 22220
L77290 22200
L77190 22200
L77140 22220
" />
<path d="M77360 22510
L77310 22530
L77190 22530
L77140 22510
L77120 22460
L77120 22410
L77140 22360
L77190 22340
L77310 22340
L77360 22320
" />
<path d="M77290 22010
L77220 22080
" />
<path d="M77670 22530
L77620 22510
L77600 22460
L77600 22030
" />
<path d="M78070 22510
L78030 22530
L77930 22530
L77880 22510
L77860 22480
L77830 22440
L77830 22290
L77860 22250
L77880 22220
L77930 22200
L78030 22200
L78070 22220
" />
<path d="M78500 22200
L78500 22530
" />
<path d="M78290 22200
L78290 22460
L78310 22510
L78360 22530
L78430 22530
L78480 22510
L78500 22480
" />
<path d="M78810 22530
L78760 22510
L78740 22460
L78740 22030
" />
<path d="M79070 22530
L79030 22510
L79000 22480
L78980 22440
L78980 22290
L79000 22250
L79030 22220
L79070 22200
L79140 22200
L79190 22220
L79220 22250
L79240 22290
L79240 22440
L79220 22480
L79190 22510
L79140 22530
L79070 22530
" />
<path d="M79430 22510
L79480 22530
L79570 22530
L79620 22510
L79640 22460
L79640 22440
L79620 22390
L79570 22360
L79500 22360
L79450 22340
L79430 22290
L79430 22270
L79450 22220
L79500 22200
L79570 22200
L79620 22220
" />
<path d="M80450 22530
L80450 22270
L80430 22220
L80380 22200
L80290 22200
L80240 22220
" />
<path d="M80450 22510
L80410 22530
L80290 22530
L80240 22510
L80220 22460
L80220 22410
L80240 22360
L80290 22340
L80410 22340
L80450 22320
" />
<path d="M80910 22200
L80910 22530
" />
<path d="M80690 22200
L80690 22460
L80720 22510
L80760 22530
L80830 22530
L80880 22510
L80910 22480
" />
<path d="M81100 22530
L81360 22200
" />
<path d="M81100 22200
L81360 22530
" />
<path d="M81550 22530
L81550 22200
" />
<path d="M81550 22030
L81530 22060
L81550 22080
L81570 22060
L81550 22030
L81550 22080
" />
<path d="M81860 22530
L81810 22510
L81790 22460
L81790 22030
" />
<path d="M82050 22530
L82050 22200
" />
<path d="M82050 22030
L82030 22060
L82050 22080
L82070 22060
L82050 22030
L82050 22080
" />
<path d="M82500 22530
L82500 22270
L82480 22220
L82430 22200
L82330 22200
L82290 22220
" />
<path d="M82500 22510
L82450 22530
L82330 22530
L82290 22510
L82260 22460
L82260 22410
L82290 22360
L82330 22340
L82450 22340
L82500 22320
" />
<path d="M82740 22530
L82740 22200
" />
<path d="M82740 22290
L82760 22250
L82790 22220
L82830 22200
L82880 22200
" />
<path d="M83240 22510
L83190 22530
L83100 22530
L83050 22510
L83030 22460
L83030 22270
L83050 22220
L83100 22200
L83190 22200
L83240 22220
L83260 22270
L83260 22320
L83030 22360
" />
<path d="M83450 22510
L83500 22530
L83600 22530
L83640 22510
L83670 22460
L83670 22440
L83640 22390
L83600 22360
L83530 22360
L83480 22340
L83450 22290
L83450 22270
L83480 22220
L83530 22200
L83600 22200
L83640 22220
" />
<path d="M84410 22720
L84380 22700
L84330 22630
L84310 22580
L84290 22510
L84260 22390
L84260 22290
L84290 22170
L84310 22100
L84330 22060
L84380 21980
L84410 21960
" />
<path d="M84810 22200
L84810 22530
" />
<path d="M84600 22200
L84600 22460
L84620 22510
L84670 22530
L84740 22530
L84790 22510
L84810 22480
" />
<path d="M85030 22510
L85070 22530
L85170 22530
L85220 22510
L85240 22460
L85240 22440
L85220 22390
L85170 22360
L85100 22360
L85050 22340
L85030 22290
L85030 22270
L85050 22220
L85100 22200
L85170 22200
L85220 22220
" />
<path d="M85670 22530
L85670 22270
L85640 22220
L85600 22200
L85500 22200
L85450 22220
" />
<path d="M85670 22510
L85620 22530
L85500 22530
L85450 22510
L85430 22460
L85430 22410
L85450 22360
L85500 22340
L85620 22340
L85670 22320
" />
<path d="M85910 22530
L85910 22200
" />
<path d="M85910 22290
L85930 22250
L85950 22220
L86000 22200
L86050 22200
" />
<path d="M86810 22200
L86810 22530
" />
<path d="M86690 22010
L86570 22360
L86880 22360
" />
<path d="M87430 22390
L87670 22390
" />
<path d="M87380 22530
L87550 22030
L87720 22530
" />
<path d="M87880 22480
L87910 22510
L87880 22530
L87860 22510
L87880 22480
L87880 22530
" />
<path d="M88100 22510
L88170 22530
L88290 22530
L88330 22510
L88360 22480
L88380 22440
L88380 22390
L88360 22340
L88330 22320
L88290 22290
L88190 22270
L88140 22250
L88120 22220
L88100 22170
L88100 22130
L88120 22080
L88140 22060
L88190 22030
L88310 22030
L88380 22060
" />
<path d="M88600 22480
L88620 22510
L88600 22530
L88570 22510
L88600 22480
L88600 22530
" />
<path d="M88790 22720
L88810 22700
L88860 22630
L88880 22580
L88910 22510
L88930 22390
L88930 22290
L88910 22170
L88880 22100
L88860 22060
L88810 21980
L88790 21960
" />
<path d="M89170 22480
L89190 22510
L89170 22530
L89140 22510
L89170 22480
L89170 22530
" />
<path d="M89170 22220
L89190 22250
L89170 22270
L89140 22250
L89170 22220
L89170 22270
" />
<text x="76500" y="23370"
textLength="60" font-size="660" lengthAdjust="spacingAndGlyphs"
text-anchor="start" opacity="0"></text>
<text x="76500" y="24180"
textLength="60" font-size="660" lengthAdjust="spacingAndGlyphs"
text-anchor="start" opacity="0"></text>
<text x="76500" y="24990"
textLength="15490" font-size="660" lengthAdjust="spacingAndGlyphs"
text-anchor="start" opacity="0">τ1 =                           5 τ1 = </text>
<path d="M76620 24700
L76640 24650
L76690 24630
L76910 24630
" />
<path d="M76760 24630
L76760 24890
L76790 24940
L76830 24960
" />
<path d="M77380 24960
L77100 24960
" />
<path d="M77240 24960
L77240 24460
L77190 24530
L77140 24580
L77100 24600
" />
<path d="M77980 24700
L78360 24700
" />
<path d="M78360 24840
L77980 24840
" />
<path d="M89120 24460
L88880 24460
L88860 24700
L88880 24680
L88930 24650
L89050 24650
L89100 24680
L89120 24700
L89140 24750
L89140 24870
L89120 24910
L89100 24940
L89050 24960
L88930 24960
L88880 24940
L88860 24910
" />
<path d="M89720 24700
L89740 24650
L89790 24630
L90000 24630
" />
<path d="M89860 24630
L89860 24890
L89880 24940
L89930 24960
" />
<path d="M90480 24960
L90190 24960
" />
<path d="M90330 24960
L90330 24460
L90290 24530
L90240 24580
L90190 24600
" />
<path d="M91070 24700
L91450 24700
" />
<path d="M91450 24840
L91070 24840
" />
<text x="76500" y="25800"
textLength="60" font-size="660" lengthAdjust="spacingAndGlyphs"
text-anchor="start" opacity="0"></text>
<text x="76500" y="26610"
textLength="15490" font-size="660" lengthAdjust="spacingAndGlyphs"
text-anchor="start" opacity="0">τ2 =                           5 τ2 = </text>
<path d="M76620 26320
L76640 26270
L76690 26250
L76910 26250
" />
<path d="M76760 26250
L76760 26510
L76790 26560
L76830 26580
" />
<path d="M77100 26130
L77120 26110
L77170 26080
L77290 26080
L77330 26110
L77360 26130
L77380 26180
L77380 26220
L77360 26300
L77070 26580
L77380 26580
" />
<path d="M77980 26320
L78360 26320
" />
<path d="M78360 26460
L77980 26460
" />
<path d="M89120 26080
L88880 26080
L88860 26320
L88880 26300
L88930 26270
L89050 26270
L89100 26300
L89120 26320
L89140 26370
L89140 26490
L89120 26530
L89100 26560
L89050 26580
L88930 26580
L88880 26560
L88860 26530
" />
<path d="M89720 26320
L89740 26270
L89790 26250
L90000 26250
" />
<path d="M89860 26250
L89860 26510
L89880 26560
L89930 26580
" />
<path d="M90190 26130
L90220 26110
L90260 26080
L90380 26080
L90430 26110
L90450 26130
L90480 26180
L90480 26220
L90450 26300
L90170 26580
L90480 26580
" />
<path d="M91070 26320
L91450 26320
" />
<path d="M91450 26460
L91070 26460
" />
<text x="76500" y="27420"
textLength="60" font-size="660" lengthAdjust="spacingAndGlyphs"
text-anchor="start" opacity="0"></text>
<text x="76500" y="28230"
textLength="15490" font-size="660" lengthAdjust="spacingAndGlyphs"
text-anchor="start" opacity="0">τ3 =                           5 τ3 = </text>
<path d="M76620 27940
L76640 27890
L76690 27870
L76910 27870
" />
<path d="M76760 27870
L76760 28130
L76790 28180
L76830 28200
" />
<path d="M77070 27700
L77380 27700
L77220 27890
L77290 27890
L77330 27920
L77360 27940
L77380 27990
L77380 28110
L77360 28150
L77330 28180
L77290 28200
L77140 28200
L77100 28180
L77070 28150
" />
<path d="M77980 27940
L78360 27940
" />
<path d="M78360 28080
L77980 28080
" />
<path d="M89120 27700
L88880 27700
L88860 27940
L88880 27920
L88930 27890
L89050 27890
L89100 27920
L89120 27940
L89140 27990
L89140 28110
L89120 28150
L89100 28180
L89050 28200
L88930 28200
L88880 28180
L88860 28150
" />
<path d="M89720 27940
L89740 27890
L89790 27870
L90000 27870
" />
<path d="M89860 27870
L89860 28130
L89880 28180
L89930 28200
" />
<path d="M90170 27700
L90480 27700
L90310 27890
L90380 27890
L90430 27920
L90450 27940
L90480 27990
L90480 28110
L90450 28150
L90430 28180
L90380 28200
L90240 28200
L90190 28180
L90170 28150
" />
<path d="M91070 27940
L91450 27940
" />
<path d="M91450 28080
L91070 28080
" />
<text x="76500" y="29040"
textLength="60" font-size="660" lengthAdjust="spacingAndGlyphs"
text-anchor="start" opacity="0"></text>
<text x="76500" y="29850"
textLength="60" font-size="660" lengthAdjust="spacingAndGlyphs"
text-anchor="start" opacity="0"></text>
<text x="76500" y="30660"
textLength="2440" font-size="660" lengthAdjust="spacingAndGlyphs"
text-anchor="start" opacity="0">If1 = </text>
<path d="M76640 30630
L76640 30130
" />
<path d="M76810 30300
L77000 30300
" />
<path d="M76880 30630
L76880 30200
L76910 30160
L76950 30130
L77000 30130
" />
<path d="M77430 30630
L77140 30630
" />
<path d="M77290 30630
L77290 30130
L77240 30200
L77190 30250
L77140 30270
" />
<path d="M78030 30370
L78410 30370
" />
<path d="M78410 30510
L78030 30510
" />
<text x="76500" y="31470"
textLength="60" font-size="660" lengthAdjust="spacingAndGlyphs"
text-anchor="start" opacity="0"></text>
<text x="76500" y="32280"
textLength="2440" font-size="660" lengthAdjust="spacingAndGlyphs"
text-anchor="start" opacity="0">If2 = </text>
<path d="M76640 32250
L76640 31750
" />
<path d="M76810 31920
L77000 31920
" />
<path d="M76880 32250
L76880 31820
L76910 31780
L76950 31750
L77000 31750
" />
<path d="M77140 31800
L77170 31780
L77220 31750
L77330 31750
L77380 31780
L77410 31800
L77430 31850
L77430 31890
L77410 31970
L77120 32250
L77430 32250
" />
<path d="M78030 31990
L78410 31990
" />
<path d="M78410 32130
L78030 32130
" />
<text x="76500" y="33090"
textLength="60" font-size="660" lengthAdjust="spacingAndGlyphs"
text-anchor="start" opacity="0"></text>
<text x="76500" y="33900"
textLength="2440" font-size="660" lengthAdjust="spacingAndGlyphs"
text-anchor="start" opacity="0">If3 = </text>
<path d="M76640 33870
L76640 33370
" />
<path d="M76810 33540
L77000 33540
" />
<path d="M76880 33870
L76880 33440
L76910 33400
L76950 33370
L77000 33370
" />
<path d="M77120 33370
L77430 33370
L77260 33560
L77330 33560
L77380 33590
L77410 33610
L77430 33660
L77430 33780
L77410 33820
L77380 33850
L77330 33870
L77190 33870
L77140 33850
L77120 33820
" />
<path d="M78030 33610
L78410 33610
" />
<path d="M78410 33750
L78030 33750
" />
</g>
<g style="fill:#0000C2; fill-opacity:0.0; 
stroke:#0000C2; stroke-width:0; stroke-opacity:1; 
stroke-linecap:round; stroke-linejoin:round;">
</g>
<g style="fill:#008400; fill-opacity:0.0; 
stroke:#008400; stroke-width:0; stroke-opacity:1; 
stroke-linecap:round; stroke-linejoin:round;">
</g>
<g style="fill:#008400; fill-opacity:1.0; 
stroke:#008400; stroke-width:100; stroke-opacity:1; 
stroke-linecap:round; stroke-linejoin:round;">
<circle cx="54500" cy="32500" r="200" /> 
</g>
<g style="fill:#008400; fill-opacity:1.0; 
stroke:#008400; stroke-width:0; stroke-opacity:1; 
stroke-linecap:round; stroke-linejoin:round;">
</g>
<g style="fill:#008400; fill-opacity:1.0; 
stroke:#008400; stroke-width:100; stroke-opacity:1; 
stroke-linecap:round; stroke-linejoin:round;">
<circle cx="62500" cy="32500" r="200" /> 
</g> 
</svg>
