<?xml version="1.0" standalone="no"?>
 <!DOCTYPE svg PUBLIC "-//W3C//DTD SVG 1.1//EN" 
 "http://www.w3.org/Graphics/SVG/1.1/DTD/svg11.dtd"> 
<svg
  xmlns:svg="http://www.w3.org/2000/svg"
  xmlns="http://www.w3.org/2000/svg"
  xmlns:xlink="http://www.w3.org/1999/xlink"
  version="1.1"
  width="29.700220cm" height="21.000720cm" viewBox="0 0 116930 82680">
<title>SVG Picture created as questao-08.svg date 2020/11/19 21:26:21 </title>
  <desc>Picture generated by Eeschema-SVG </desc>
<g style="fill:#000000; fill-opacity:1;stroke:#000000; stroke-opacity:1;
stroke-linecap:round; stroke-linejoin:round;"
 transform="translate(0 0) scale(1 1)">
</g>
<g style="fill:#000000; fill-opacity:0.0; 
stroke:#000000; stroke-width:0; stroke-opacity:1; 
stroke-linecap:round; stroke-linejoin:round;">
<g >
</g>
<g style="fill:#840000; fill-opacity:0.0; 
stroke:#840000; stroke-width:0; stroke-opacity:1; 
stroke-linecap:round; stroke-linejoin:round;">
</g>
<g style="fill:#840000; fill-opacity:0.0; 
stroke:#840000; stroke-width:200; stroke-opacity:1; 
stroke-linecap:round; stroke-linejoin:round;">
<path style="fill:#840000; fill-opacity:0.0; 
stroke:#840000; stroke-width:200; stroke-opacity:1; 
stroke-linecap:round; stroke-linejoin:round;fill:none"
d="M 66700,25800
68300,25800
" /> 
<path style="fill:#840000; fill-opacity:0.0; 
stroke:#840000; stroke-width:200; stroke-opacity:1; 
stroke-linecap:round; stroke-linejoin:round;fill:none"
d="M 66700,25200
68300,25200
" /> 
</g>
<g style="fill:#840000; fill-opacity:0.0; 
stroke:#840000; stroke-width:60; stroke-opacity:1; 
stroke-linecap:round; stroke-linejoin:round;">
<path d="M67500 25100
L67500 24000
" />
<path d="M67500 25900
L67500 27000
" />
</g>
<g style="fill:#008484; fill-opacity:0.0; 
stroke:#008484; stroke-width:60; stroke-opacity:1; 
stroke-linecap:round; stroke-linejoin:round;">
<text x="69170" y="25310"
textLength="990" font-size="660" lengthAdjust="spacingAndGlyphs"
text-anchor="middle" opacity="0">C1</text>
<path d="M69080 25230
L69060 25260
L68990 25280
L68940 25280
L68870 25260
L68820 25210
L68800 25160
L68770 25070
L68770 25000
L68800 24900
L68820 24850
L68870 24810
L68940 24780
L68990 24780
L69060 24810
L69080 24830
" />
<path d="M69560 25280
L69270 25280
" />
<path d="M69420 25280
L69420 24780
L69370 24850
L69320 24900
L69270 24920
" />
<text x="69710" y="26220"
textLength="2130" font-size="660" lengthAdjust="spacingAndGlyphs"
text-anchor="middle" opacity="0">2,2uF</text>
<path d="M68760 25740
L68790 25720
L68840 25690
L68960 25690
L69000 25720
L69030 25740
L69050 25790
L69050 25830
L69030 25910
L68740 26190
L69050 26190
" />
<path d="M69290 26170
L69290 26190
L69260 26240
L69240 26260
" />
<path d="M69480 25740
L69500 25720
L69550 25690
L69670 25690
L69720 25720
L69740 25740
L69760 25790
L69760 25830
L69740 25910
L69460 26190
L69760 26190
" />
<path d="M70190 25860
L70190 26190
" />
<path d="M69980 25860
L69980 26120
L70000 26170
L70050 26190
L70120 26190
L70170 26170
L70190 26140
" />
<path d="M70600 25930
L70430 25930
" />
<path d="M70430 26190
L70430 25690
L70670 25690
" />
</g>
</g>
<g style="fill:#008484; fill-opacity:0.0; 
stroke:#008484; stroke-width:0; stroke-opacity:1; 
stroke-linecap:round; stroke-linejoin:round;">
<g >
</g>
<g style="fill:#840000; fill-opacity:0.0; 
stroke:#840000; stroke-width:0; stroke-opacity:1; 
stroke-linecap:round; stroke-linejoin:round;">
</g>
<g style="fill:#840000; fill-opacity:0.0; 
stroke:#840000; stroke-width:60; stroke-opacity:1; 
stroke-linecap:round; stroke-linejoin:round;">
<path style="fill:#840000; fill-opacity:0.0; 
stroke:#840000; stroke-width:60; stroke-opacity:1; 
stroke-linecap:round; stroke-linejoin:round;fill:none"
d="M 51600,41000
51500,41000
" /> 
<path style="fill:#840000; fill-opacity:0.0; 
stroke:#840000; stroke-width:60; stroke-opacity:1; 
stroke-linecap:round; stroke-linejoin:round;fill:none"
d="M 53400,41000
53500,41000
" /> 
<path style="fill:#840000; fill-opacity:0.0; 
stroke:#840000; stroke-width:60; stroke-opacity:1; 
stroke-linecap:round; stroke-linejoin:round;fill:none"
d="M 52200,41000
52050,41400
51900,41000
51750,40600
51600,41000
" /> 
<path style="fill:#840000; fill-opacity:0.0; 
stroke:#840000; stroke-width:60; stroke-opacity:1; 
stroke-linecap:round; stroke-linejoin:round;fill:none"
d="M 52800,41000
52650,41400
52500,41000
52350,40600
52200,41000
" /> 
<path style="fill:#840000; fill-opacity:0.0; 
stroke:#840000; stroke-width:60; stroke-opacity:1; 
stroke-linecap:round; stroke-linejoin:round;fill:none"
d="M 53400,41000
53250,41400
53100,41000
52950,40600
52800,41000
" /> 
<path d="M53500 41000
L54000 41000
" />
<path d="M51500 41000
L51000 41000
" />
</g>
<g style="fill:#008484; fill-opacity:0.0; 
stroke:#008484; stroke-width:60; stroke-opacity:1; 
stroke-linecap:round; stroke-linejoin:round;">
<text x="52500" y="39220"
textLength="990" font-size="660" lengthAdjust="spacingAndGlyphs"
text-anchor="middle" opacity="0">R?</text>
<path d="M52440 39190
L52270 38950
" />
<path d="M52150 39190
L52150 38690
L52340 38690
L52390 38720
L52410 38740
L52440 38790
L52440 38860
L52410 38910
L52390 38930
L52340 38950
L52150 38950
" />
<path d="M52720 39140
L52750 39170
L52720 39190
L52700 39170
L52720 39140
L52720 39190
" />
<path d="M52630 38720
L52670 38690
L52790 38690
L52840 38720
L52860 38760
L52860 38810
L52840 38860
L52820 38880
L52770 38910
L52750 38930
L52720 38980
L52720 39000
" />
<text x="52500" y="40130"
textLength="1510" font-size="660" lengthAdjust="spacingAndGlyphs"
text-anchor="middle" opacity="0">1kΩ</text>
<path d="M52150 40100
L51860 40100
" />
<path d="M52010 40100
L52010 39600
L51960 39670
L51910 39720
L51860 39740
" />
<path d="M52360 40100
L52360 39600
" />
<path d="M52410 39910
L52550 40100
" />
<path d="M52550 39770
L52360 39960
" />
<path d="M52750 40100
L52860 40100
L52860 40010
L52820 39980
L52770 39930
L52750 39860
L52750 39740
L52770 39670
L52820 39630
L52890 39600
L52980 39600
L53050 39630
L53100 39670
L53130 39740
L53130 39860
L53100 39930
L53050 39980
L53010 40010
L53010 40100
L53130 40100
" />
</g>
</g>
<g style="fill:#008484; fill-opacity:0.0; 
stroke:#008484; stroke-width:0; stroke-opacity:1; 
stroke-linecap:round; stroke-linejoin:round;">
<g >
</g>
<g style="fill:#840000; fill-opacity:0.0; 
stroke:#840000; stroke-width:0; stroke-opacity:1; 
stroke-linecap:round; stroke-linejoin:round;">
</g>
<g style="fill:#840000; fill-opacity:0.0; 
stroke:#840000; stroke-width:60; stroke-opacity:1; 
stroke-linecap:round; stroke-linejoin:round;">
<path d="M52995.9 22252 A2010 2010 0.0 0 0 51251.9 20495.8" />
</g>
<g style="fill:#840000; fill-opacity:1.0; 
stroke:#840000; stroke-width:60; stroke-opacity:1; 
stroke-linecap:round; stroke-linejoin:round;">
<path style="fill:#840000; fill-opacity:1.0; 
stroke:#840000; stroke-width:60; stroke-opacity:1; 
stroke-linecap:round; stroke-linejoin:round;fill-rule:evenodd;"
d="M 53000,22500
53050,22150
52900,22150
Z" /> 
<path style="fill:#840000; fill-opacity:1.0; 
stroke:#840000; stroke-width:60; stroke-opacity:1; 
stroke-linecap:round; stroke-linejoin:round;fill-rule:evenodd;"
d="M 50900,20520
51250,20570
51250,20420
Z" /> 
</g>
<g style="fill:#840084; fill-opacity:0.0; 
stroke:#840084; stroke-width:60; stroke-opacity:1; 
stroke-linecap:round; stroke-linejoin:round;">
</g>
<g style="fill:#840084; fill-opacity:0.0; 
stroke:#840084; stroke-width:50; stroke-opacity:1; 
stroke-linecap:round; stroke-linejoin:round;">
<text x="53000" y="22920"
textLength="1870" font-size="400" lengthAdjust="spacingAndGlyphs"
text-anchor="middle" opacity="0">t0 = 0s</text>
<path d="M52120 22700
L52230 22700
" />
<path d="M52160 22600
L52160 22860
L52170 22890
L52200 22900
L52230 22900
" />
<path d="M52390 22600
L52420 22600
L52450 22620
L52460 22630
L52470 22660
L52490 22720
L52490 22790
L52470 22840
L52460 22870
L52450 22890
L52420 22900
L52390 22900
L52360 22890
L52350 22870
L52330 22840
L52320 22790
L52320 22720
L52330 22660
L52350 22630
L52360 22620
L52390 22600
" />
<path d="M52850 22740
L53070 22740
" />
<path d="M53070 22830
L52850 22830
" />
<path d="M53500 22600
L53530 22600
L53560 22620
L53570 22630
L53590 22660
L53600 22720
L53600 22790
L53590 22840
L53570 22870
L53560 22890
L53530 22900
L53500 22900
L53470 22890
L53460 22870
L53450 22840
L53430 22790
L53430 22720
L53450 22660
L53460 22630
L53470 22620
L53500 22600
" />
<path d="M53720 22890
L53750 22900
L53800 22900
L53830 22890
L53850 22860
L53850 22840
L53830 22820
L53800 22800
L53760 22800
L53730 22790
L53720 22760
L53720 22740
L53730 22720
L53760 22700
L53800 22700
L53830 22720
" />
<text x="51250" y="20170"
textLength="2840" font-size="400" lengthAdjust="spacingAndGlyphs"
text-anchor="middle" opacity="0">t1 = 180ms</text>
<path d="M49880 19950
L50000 19950
" />
<path d="M49920 19850
L49920 20110
L49940 20140
L49970 20150
L50000 20150
" />
<path d="M50250 20150
L50080 20150
" />
<path d="M50170 20150
L50170 19850
L50140 19890
L50110 19920
L50080 19940
" />
<path d="M50610 19990
L50840 19990
" />
<path d="M50840 20080
L50610 20080
" />
<path d="M51370 20150
L51200 20150
" />
<path d="M51280 20150
L51280 19850
L51250 19890
L51220 19920
L51200 19940
" />
<path d="M51540 19980
L51510 19970
L51500 19950
L51480 19920
L51480 19910
L51500 19880
L51510 19870
L51540 19850
L51600 19850
L51620 19870
L51640 19880
L51650 19910
L51650 19920
L51640 19950
L51620 19970
L51600 19980
L51540 19980
L51510 19990
L51500 20010
L51480 20040
L51480 20090
L51500 20120
L51510 20140
L51540 20150
L51600 20150
L51620 20140
L51640 20120
L51650 20090
L51650 20040
L51640 20010
L51620 19990
L51600 19980
" />
<path d="M51840 19850
L51870 19850
L51900 19870
L51910 19880
L51920 19910
L51940 19970
L51940 20040
L51920 20090
L51910 20120
L51900 20140
L51870 20150
L51840 20150
L51810 20140
L51800 20120
L51780 20090
L51770 20040
L51770 19970
L51780 19910
L51800 19880
L51810 19870
L51840 19850
" />
<path d="M52070 20150
L52070 19950
" />
<path d="M52070 19980
L52080 19970
L52110 19950
L52150 19950
L52180 19970
L52200 19990
L52200 20150
" />
<path d="M52200 19990
L52210 19970
L52240 19950
L52280 19950
L52310 19970
L52320 19990
L52320 20150
" />
<path d="M52450 20140
L52480 20150
L52540 20150
L52570 20140
L52580 20110
L52580 20090
L52570 20070
L52540 20050
L52500 20050
L52470 20040
L52450 20010
L52450 19990
L52470 19970
L52500 19950
L52540 19950
L52570 19970
" />
</g>
</g>
<g style="fill:#840084; fill-opacity:0.0; 
stroke:#840084; stroke-width:0; stroke-opacity:1; 
stroke-linecap:round; stroke-linejoin:round;">
<g >
</g>
<g style="fill:#840000; fill-opacity:0.0; 
stroke:#840000; stroke-width:0; stroke-opacity:1; 
stroke-linecap:round; stroke-linejoin:round;">
</g>
<g style="fill:#840000; fill-opacity:0.0; 
stroke:#840000; stroke-width:60; stroke-opacity:1; 
stroke-linecap:round; stroke-linejoin:round;">
<path d="M58252 25254.1 A2010 2010 0.0 0 0 56495.8 26998.1" />
</g>
<g style="fill:#840000; fill-opacity:1.0; 
stroke:#840000; stroke-width:60; stroke-opacity:1; 
stroke-linecap:round; stroke-linejoin:round;">
<path style="fill:#840000; fill-opacity:1.0; 
stroke:#840000; stroke-width:60; stroke-opacity:1; 
stroke-linecap:round; stroke-linejoin:round;fill-rule:evenodd;"
d="M 58500,25250
58150,25200
58150,25350
Z" /> 
</g>
<g style="fill:#840084; fill-opacity:0.0; 
stroke:#840084; stroke-width:60; stroke-opacity:1; 
stroke-linecap:round; stroke-linejoin:round;">
</g>
<g style="fill:#840084; fill-opacity:0.0; 
stroke:#840084; stroke-width:50; stroke-opacity:1; 
stroke-linecap:round; stroke-linejoin:round;">
<text x="59670" y="26170"
textLength="2840" font-size="400" lengthAdjust="spacingAndGlyphs"
text-anchor="middle" opacity="0">t1 = 180ms</text>
<path d="M58300 25950
L58420 25950
" />
<path d="M58340 25850
L58340 26110
L58360 26140
L58390 26150
L58420 26150
" />
<path d="M58670 26150
L58500 26150
" />
<path d="M58590 26150
L58590 25850
L58560 25890
L58530 25920
L58500 25940
" />
<path d="M59030 25990
L59260 25990
" />
<path d="M59260 26080
L59030 26080
" />
<path d="M59790 26150
L59620 26150
" />
<path d="M59700 26150
L59700 25850
L59670 25890
L59640 25920
L59620 25940
" />
<path d="M59960 25980
L59930 25970
L59920 25950
L59900 25920
L59900 25910
L59920 25880
L59930 25870
L59960 25850
L60020 25850
L60040 25870
L60060 25880
L60070 25910
L60070 25920
L60060 25950
L60040 25970
L60020 25980
L59960 25980
L59930 25990
L59920 26010
L59900 26040
L59900 26090
L59920 26120
L59930 26140
L59960 26150
L60020 26150
L60040 26140
L60060 26120
L60070 26090
L60070 26040
L60060 26010
L60040 25990
L60020 25980
" />
<path d="M60260 25850
L60290 25850
L60320 25870
L60330 25880
L60340 25910
L60360 25970
L60360 26040
L60340 26090
L60330 26120
L60320 26140
L60290 26150
L60260 26150
L60230 26140
L60220 26120
L60200 26090
L60190 26040
L60190 25970
L60200 25910
L60220 25880
L60230 25870
L60260 25850
" />
<path d="M60490 26150
L60490 25950
" />
<path d="M60490 25980
L60500 25970
L60530 25950
L60570 25950
L60600 25970
L60620 25990
L60620 26150
" />
<path d="M60620 25990
L60630 25970
L60660 25950
L60700 25950
L60730 25970
L60740 25990
L60740 26150
" />
<path d="M60870 26140
L60900 26150
L60960 26150
L60990 26140
L61000 26110
L61000 26090
L60990 26070
L60960 26050
L60920 26050
L60890 26040
L60870 26010
L60870 25990
L60890 25970
L60920 25950
L60960 25950
L60990 25970
" />
</g>
</g>
<g style="fill:#840084; fill-opacity:0.0; 
stroke:#840084; stroke-width:0; stroke-opacity:1; 
stroke-linecap:round; stroke-linejoin:round;">
<g >
</g>
<g style="fill:#840000; fill-opacity:0.0; 
stroke:#840000; stroke-width:0; stroke-opacity:1; 
stroke-linecap:round; stroke-linejoin:round;">
</g>
<g style="fill:#840000; fill-opacity:0.0; 
stroke:#840000; stroke-width:60; stroke-opacity:1; 
stroke-linecap:round; stroke-linejoin:round;">
<circle cx="56200" cy="41000" r="200" /> 
<circle cx="57800" cy="41000" r="200" /> 
<path style="fill:#840000; fill-opacity:0.0; 
stroke:#840000; stroke-width:60; stroke-opacity:1; 
stroke-linecap:round; stroke-linejoin:round;fill:none"
d="M 56400,40900
57600,40300
" /> 
<path d="M56000 41000
L55000 41000
" />
<text x="55500" y="41600"
textLength="530" font-size="660" lengthAdjust="spacingAndGlyphs"
text-anchor="middle" opacity="0">1</text>
<path d="M55640 41570
L55350 41570
" />
<path d="M55500 41570
L55500 41070
L55450 41140
L55400 41190
L55350 41210
" />
<path d="M58000 41000
L59000 41000
" />
<text x="58500" y="41600"
textLength="540" font-size="660" lengthAdjust="spacingAndGlyphs"
text-anchor="middle" opacity="0">2</text>
<path d="M58350 41120
L58380 41100
L58420 41070
L58540 41070
L58590 41100
L58610 41120
L58640 41170
L58640 41210
L58610 41290
L58330 41570
L58640 41570
" />
</g>
<g style="fill:#008484; fill-opacity:0.0; 
stroke:#008484; stroke-width:60; stroke-opacity:1; 
stroke-linecap:round; stroke-linejoin:round;">
<text x="58500" y="40020"
textLength="1580" font-size="660" lengthAdjust="spacingAndGlyphs"
text-anchor="middle" opacity="0">SW1</text>
<path d="M57830 39970
L57900 39990
L58020 39990
L58070 39970
L58090 39940
L58110 39900
L58110 39850
L58090 39800
L58070 39780
L58020 39750
L57920 39730
L57880 39710
L57850 39680
L57830 39630
L57830 39590
L57850 39540
L57880 39520
L57920 39490
L58040 39490
L58110 39520
" />
<path d="M58280 39490
L58400 39990
L58500 39630
L58590 39990
L58710 39490
" />
<path d="M59160 39990
L58880 39990
" />
<path d="M59020 39990
L59020 39490
L58970 39560
L58920 39610
L58880 39630
" />
</g>
</g>
<g style="fill:#008484; fill-opacity:0.0; 
stroke:#008484; stroke-width:0; stroke-opacity:1; 
stroke-linecap:round; stroke-linejoin:round;">
<g >
</g>
<g style="fill:#840000; fill-opacity:0.0; 
stroke:#840000; stroke-width:0; stroke-opacity:1; 
stroke-linecap:round; stroke-linejoin:round;">
</g>
<g style="fill:#840000; fill-opacity:1.0; 
stroke:#840000; stroke-width:60; stroke-opacity:1; 
stroke-linecap:round; stroke-linejoin:round;">
<rect x="46600" y="46800" width="1800" height="100" rx="0" />
<rect x="46880" y="47030" width="1200" height="200" rx="0" />
</g>
<g style="fill:#840000; fill-opacity:0.0; 
stroke:#840000; stroke-width:60; stroke-opacity:1; 
stroke-linecap:round; stroke-linejoin:round;">
<path style="fill:#840000; fill-opacity:0.0; 
stroke:#840000; stroke-width:60; stroke-opacity:1; 
stroke-linecap:round; stroke-linejoin:round;fill:none"
d="M 47500,47200
47500,47500
" /> 
<path style="fill:#840000; fill-opacity:0.0; 
stroke:#840000; stroke-width:60; stroke-opacity:1; 
stroke-linecap:round; stroke-linejoin:round;fill:none"
d="M 47500,46800
47500,46500
" /> 
</g>
<g style="fill:#840000; fill-opacity:0.0; 
stroke:#840000; stroke-width:100; stroke-opacity:1; 
stroke-linecap:round; stroke-linejoin:round;">
<path style="fill:#840000; fill-opacity:0.0; 
stroke:#840000; stroke-width:100; stroke-opacity:1; 
stroke-linecap:round; stroke-linejoin:round;fill:none"
d="M 47700,46150
48100,46150
" /> 
<path style="fill:#840000; fill-opacity:0.0; 
stroke:#840000; stroke-width:100; stroke-opacity:1; 
stroke-linecap:round; stroke-linejoin:round;fill:none"
d="M 47900,45950
47900,46350
" /> 
</g>
<g style="fill:#840000; fill-opacity:0.0; 
stroke:#840000; stroke-width:60; stroke-opacity:1; 
stroke-linecap:round; stroke-linejoin:round;">
<path d="M47500 46500
L47500 45500
" />
<path d="M47500 47500
L47500 48500
" />
</g>
<g style="fill:#008484; fill-opacity:0.0; 
stroke:#008484; stroke-width:60; stroke-opacity:1; 
stroke-linecap:round; stroke-linejoin:round;">
<text x="49160" y="46810"
textLength="960" font-size="660" lengthAdjust="spacingAndGlyphs"
text-anchor="middle" opacity="0">V1</text>
<path d="M48750 46280
L48920 46780
L49080 46280
" />
<path d="M49510 46780
L49230 46780
" />
<path d="M49370 46780
L49370 46280
L49320 46350
L49270 46400
L49230 46420
" />
<text x="49160" y="47720"
textLength="960" font-size="660" lengthAdjust="spacingAndGlyphs"
text-anchor="middle" opacity="0">5V</text>
<path d="M49060 47190
L48820 47190
L48800 47430
L48820 47410
L48870 47380
L48990 47380
L49040 47410
L49060 47430
L49080 47480
L49080 47600
L49060 47640
L49040 47670
L48990 47690
L48870 47690
L48820 47670
L48800 47640
" />
<path d="M49230 47190
L49390 47690
L49560 47190
" />
</g>
</g>
<g style="fill:#008484; fill-opacity:0.0; 
stroke:#008484; stroke-width:0; stroke-opacity:1; 
stroke-linecap:round; stroke-linejoin:round;">
<g >
</g>
<g style="fill:#840000; fill-opacity:0.0; 
stroke:#840000; stroke-width:0; stroke-opacity:1; 
stroke-linecap:round; stroke-linejoin:round;">
</g>
<g style="fill:#840000; fill-opacity:0.0; 
stroke:#840000; stroke-width:60; stroke-opacity:1; 
stroke-linecap:round; stroke-linejoin:round;">
<circle cx="62000" cy="50300" r="200" /> 
<circle cx="62000" cy="48700" r="200" /> 
<path style="fill:#840000; fill-opacity:0.0; 
stroke:#840000; stroke-width:60; stroke-opacity:1; 
stroke-linecap:round; stroke-linejoin:round;fill:none"
d="M 61900,50100
61300,48900
" /> 
<path d="M62000 50500
L62000 51500
" />
<g transform="rotate(-90 62100 51000)">
<text x="62100" y="51500"
textLength="540" font-size="660" lengthAdjust="spacingAndGlyphs"
text-anchor="middle" opacity="0">1</text>
</g>
<path d="M62570 50850
L62570 51140
" />
<path d="M62570 51000
L62070 51000
L62140 51040
L62190 51090
L62210 51140
" />
<path d="M62000 48500
L62000 47500
" />
<g transform="rotate(-90 62100 48000)">
<text x="62100" y="48500"
textLength="540" font-size="660" lengthAdjust="spacingAndGlyphs"
text-anchor="middle" opacity="0">2</text>
</g>
<path d="M62120 48140
L62100 48110
L62070 48070
L62070 47950
L62100 47900
L62120 47880
L62170 47850
L62210 47850
L62290 47880
L62570 48160
L62570 47850
" />
</g>
<g style="fill:#008484; fill-opacity:0.0; 
stroke:#008484; stroke-width:60; stroke-opacity:1; 
stroke-linecap:round; stroke-linejoin:round;">
<text x="60790" y="48220"
textLength="1580" font-size="660" lengthAdjust="spacingAndGlyphs"
text-anchor="middle" opacity="0">SW2</text>
<path d="M60120 48170
L60190 48190
L60310 48190
L60360 48170
L60380 48140
L60400 48100
L60400 48050
L60380 48000
L60360 47980
L60310 47950
L60210 47930
L60170 47910
L60140 47880
L60120 47830
L60120 47790
L60140 47740
L60170 47720
L60210 47690
L60330 47690
L60400 47720
" />
<path d="M60570 47690
L60690 48190
L60790 47830
L60880 48190
L61000 47690
" />
<path d="M61170 47740
L61190 47720
L61240 47690
L61360 47690
L61400 47720
L61430 47740
L61450 47790
L61450 47830
L61430 47910
L61140 48190
L61450 48190
" />
</g>
</g>
<g style="fill:#008484; fill-opacity:0.0; 
stroke:#008484; stroke-width:0; stroke-opacity:1; 
stroke-linecap:round; stroke-linejoin:round;">
<g >
</g>
<g style="fill:#840000; fill-opacity:0.0; 
stroke:#840000; stroke-width:0; stroke-opacity:1; 
stroke-linecap:round; stroke-linejoin:round;">
</g>
<g style="fill:#840000; fill-opacity:0.0; 
stroke:#840000; stroke-width:60; stroke-opacity:1; 
stroke-linecap:round; stroke-linejoin:round;">
<path style="fill:#840000; fill-opacity:0.0; 
stroke:#840000; stroke-width:60; stroke-opacity:1; 
stroke-linecap:round; stroke-linejoin:round;fill:none"
d="M 61600,21500
61500,21500
" /> 
<path style="fill:#840000; fill-opacity:0.0; 
stroke:#840000; stroke-width:60; stroke-opacity:1; 
stroke-linecap:round; stroke-linejoin:round;fill:none"
d="M 63400,21500
63500,21500
" /> 
<path style="fill:#840000; fill-opacity:0.0; 
stroke:#840000; stroke-width:60; stroke-opacity:1; 
stroke-linecap:round; stroke-linejoin:round;fill:none"
d="M 62200,21500
62050,21900
61900,21500
61750,21100
61600,21500
" /> 
<path style="fill:#840000; fill-opacity:0.0; 
stroke:#840000; stroke-width:60; stroke-opacity:1; 
stroke-linecap:round; stroke-linejoin:round;fill:none"
d="M 62800,21500
62650,21900
62500,21500
62350,21100
62200,21500
" /> 
<path style="fill:#840000; fill-opacity:0.0; 
stroke:#840000; stroke-width:60; stroke-opacity:1; 
stroke-linecap:round; stroke-linejoin:round;fill:none"
d="M 63400,21500
63250,21900
63100,21500
62950,21100
62800,21500
" /> 
<path d="M63500 21500
L64000 21500
" />
<path d="M61500 21500
L61000 21500
" />
</g>
<g style="fill:#008484; fill-opacity:0.0; 
stroke:#008484; stroke-width:60; stroke-opacity:1; 
stroke-linecap:round; stroke-linejoin:round;">
<text x="62500" y="19720"
textLength="1040" font-size="660" lengthAdjust="spacingAndGlyphs"
text-anchor="middle" opacity="0">R1</text>
<path d="M62410 19690
L62250 19450
" />
<path d="M62130 19690
L62130 19190
L62320 19190
L62360 19220
L62390 19240
L62410 19290
L62410 19360
L62390 19410
L62360 19430
L62320 19450
L62130 19450
" />
<path d="M62890 19690
L62600 19690
" />
<path d="M62750 19690
L62750 19190
L62700 19260
L62650 19310
L62600 19330
" />
<text x="62500" y="20630"
textLength="1990" font-size="660" lengthAdjust="spacingAndGlyphs"
text-anchor="middle" opacity="0">15kΩ</text>
<path d="M61910 20600
L61630 20600
" />
<path d="M61770 20600
L61770 20100
L61720 20170
L61670 20220
L61630 20240
" />
<path d="M62360 20100
L62130 20100
L62100 20340
L62130 20320
L62170 20290
L62290 20290
L62340 20320
L62360 20340
L62390 20390
L62390 20510
L62360 20550
L62340 20580
L62290 20600
L62170 20600
L62130 20580
L62100 20550
" />
<path d="M62600 20600
L62600 20100
" />
<path d="M62650 20410
L62790 20600
" />
<path d="M62790 20270
L62600 20460
" />
<path d="M62980 20600
L63100 20600
L63100 20510
L63050 20480
L63010 20430
L62980 20360
L62980 20240
L63010 20170
L63050 20130
L63130 20100
L63220 20100
L63290 20130
L63340 20170
L63360 20240
L63360 20360
L63340 20430
L63290 20480
L63250 20510
L63250 20600
L63360 20600
" />
</g>
</g>
<g style="fill:#008484; fill-opacity:0.0; 
stroke:#008484; stroke-width:0; stroke-opacity:1; 
stroke-linecap:round; stroke-linejoin:round;">
<g >
</g>
<g style="fill:#840000; fill-opacity:0.0; 
stroke:#840000; stroke-width:0; stroke-opacity:1; 
stroke-linecap:round; stroke-linejoin:round;">
</g>
<g style="fill:#840000; fill-opacity:0.0; 
stroke:#840000; stroke-width:60; stroke-opacity:1; 
stroke-linecap:round; stroke-linejoin:round;">
<path d="M57245.9 41752 A2010 2010 0.0 0 0 55501.9 39995.8" />
</g>
<g style="fill:#840000; fill-opacity:1.0; 
stroke:#840000; stroke-width:60; stroke-opacity:1; 
stroke-linecap:round; stroke-linejoin:round;">
<path style="fill:#840000; fill-opacity:1.0; 
stroke:#840000; stroke-width:60; stroke-opacity:1; 
stroke-linecap:round; stroke-linejoin:round;fill-rule:evenodd;"
d="M 57250,42000
57300,41650
57150,41650
Z" /> 
<path style="fill:#840000; fill-opacity:1.0; 
stroke:#840000; stroke-width:60; stroke-opacity:1; 
stroke-linecap:round; stroke-linejoin:round;fill-rule:evenodd;"
d="M 55150,40020
55500,40070
55500,39920
Z" /> 
</g>
<g style="fill:#840084; fill-opacity:0.0; 
stroke:#840084; stroke-width:60; stroke-opacity:1; 
stroke-linecap:round; stroke-linejoin:round;">
</g>
<g style="fill:#840084; fill-opacity:0.0; 
stroke:#840084; stroke-width:50; stroke-opacity:1; 
stroke-linecap:round; stroke-linejoin:round;">
<text x="57250" y="42420"
textLength="1870" font-size="400" lengthAdjust="spacingAndGlyphs"
text-anchor="middle" opacity="0">t0 = 0s</text>
<path d="M56370 42200
L56480 42200
" />
<path d="M56410 42100
L56410 42360
L56420 42390
L56450 42400
L56480 42400
" />
<path d="M56640 42100
L56670 42100
L56700 42120
L56710 42130
L56720 42160
L56740 42220
L56740 42290
L56720 42340
L56710 42370
L56700 42390
L56670 42400
L56640 42400
L56610 42390
L56600 42370
L56580 42340
L56570 42290
L56570 42220
L56580 42160
L56600 42130
L56610 42120
L56640 42100
" />
<path d="M57100 42240
L57320 42240
" />
<path d="M57320 42330
L57100 42330
" />
<path d="M57750 42100
L57780 42100
L57810 42120
L57820 42130
L57840 42160
L57850 42220
L57850 42290
L57840 42340
L57820 42370
L57810 42390
L57780 42400
L57750 42400
L57720 42390
L57710 42370
L57700 42340
L57680 42290
L57680 42220
L57700 42160
L57710 42130
L57720 42120
L57750 42100
" />
<path d="M57970 42390
L58000 42400
L58050 42400
L58080 42390
L58100 42360
L58100 42340
L58080 42320
L58050 42300
L58010 42300
L57980 42290
L57970 42260
L57970 42240
L57980 42220
L58010 42200
L58050 42200
L58080 42220
" />
<text x="55500" y="39670"
textLength="2420" font-size="400" lengthAdjust="spacingAndGlyphs"
text-anchor="middle" opacity="0">t1 = 60us</text>
<path d="M54340 39450
L54450 39450
" />
<path d="M54380 39350
L54380 39610
L54400 39640
L54420 39650
L54450 39650
" />
<path d="M54710 39650
L54540 39650
" />
<path d="M54620 39650
L54620 39350
L54600 39390
L54570 39420
L54540 39440
" />
<path d="M55070 39490
L55300 39490
" />
<path d="M55300 39580
L55070 39580
" />
<path d="M55800 39350
L55740 39350
L55710 39370
L55700 39380
L55670 39420
L55650 39480
L55650 39590
L55670 39620
L55680 39640
L55710 39650
L55770 39650
L55800 39640
L55810 39620
L55820 39590
L55820 39520
L55810 39490
L55800 39480
L55770 39470
L55710 39470
L55680 39480
L55670 39490
L55650 39520
" />
<path d="M56010 39350
L56040 39350
L56070 39370
L56080 39380
L56100 39410
L56110 39470
L56110 39540
L56100 39590
L56080 39620
L56070 39640
L56040 39650
L56010 39650
L55980 39640
L55970 39620
L55950 39590
L55940 39540
L55940 39470
L55950 39410
L55970 39380
L55980 39370
L56010 39350
" />
<path d="M56370 39450
L56370 39650
" />
<path d="M56240 39450
L56240 39610
L56250 39640
L56280 39650
L56320 39650
L56350 39640
L56370 39620
" />
<path d="M56500 39640
L56520 39650
L56580 39650
L56610 39640
L56620 39610
L56620 39590
L56610 39570
L56580 39550
L56540 39550
L56510 39540
L56500 39510
L56500 39490
L56510 39470
L56540 39450
L56580 39450
L56610 39470
" />
</g>
</g>
<g style="fill:#840084; fill-opacity:0.0; 
stroke:#840084; stroke-width:0; stroke-opacity:1; 
stroke-linecap:round; stroke-linejoin:round;">
<g >
</g>
<g style="fill:#840000; fill-opacity:0.0; 
stroke:#840000; stroke-width:0; stroke-opacity:1; 
stroke-linecap:round; stroke-linejoin:round;">
</g>
<g style="fill:#840000; fill-opacity:0.0; 
stroke:#840000; stroke-width:200; stroke-opacity:1; 
stroke-linecap:round; stroke-linejoin:round;">
<path style="fill:#840000; fill-opacity:0.0; 
stroke:#840000; stroke-width:200; stroke-opacity:1; 
stroke-linecap:round; stroke-linejoin:round;fill:none"
d="M 66700,47300
68300,47300
" /> 
<path style="fill:#840000; fill-opacity:0.0; 
stroke:#840000; stroke-width:200; stroke-opacity:1; 
stroke-linecap:round; stroke-linejoin:round;fill:none"
d="M 66700,46700
68300,46700
" /> 
</g>
<g style="fill:#840000; fill-opacity:0.0; 
stroke:#840000; stroke-width:60; stroke-opacity:1; 
stroke-linecap:round; stroke-linejoin:round;">
<path d="M67500 46600
L67500 45500
" />
<path d="M67500 47400
L67500 48500
" />
</g>
<g style="fill:#008484; fill-opacity:0.0; 
stroke:#008484; stroke-width:60; stroke-opacity:1; 
stroke-linecap:round; stroke-linejoin:round;">
<text x="69170" y="46810"
textLength="1030" font-size="660" lengthAdjust="spacingAndGlyphs"
text-anchor="middle" opacity="0">C1</text>
<path d="M69080 46730
L69060 46760
L68990 46780
L68940 46780
L68870 46760
L68820 46710
L68800 46660
L68770 46570
L68770 46500
L68800 46400
L68820 46350
L68870 46310
L68940 46280
L68990 46280
L69060 46310
L69080 46330
" />
<path d="M69560 46780
L69270 46780
" />
<path d="M69420 46780
L69420 46280
L69370 46350
L69320 46400
L69270 46420
" />
<text x="69590" y="47720"
textLength="1890" font-size="660" lengthAdjust="spacingAndGlyphs"
text-anchor="middle" opacity="0">10nF</text>
<path d="M69050 47690
L68760 47690
" />
<path d="M68910 47690
L68910 47190
L68860 47260
L68810 47310
L68760 47330
" />
<path d="M69360 47190
L69410 47190
L69450 47220
L69480 47240
L69500 47290
L69530 47380
L69530 47500
L69500 47600
L69480 47640
L69450 47670
L69410 47690
L69360 47690
L69310 47670
L69290 47640
L69260 47600
L69240 47500
L69240 47380
L69260 47290
L69290 47240
L69310 47220
L69360 47190
" />
<path d="M69740 47360
L69740 47690
" />
<path d="M69740 47410
L69760 47380
L69810 47360
L69880 47360
L69930 47380
L69950 47430
L69950 47690
" />
<path d="M70360 47430
L70190 47430
" />
<path d="M70190 47690
L70190 47190
L70430 47190
" />
</g>
</g>
<g style="fill:#008484; fill-opacity:0.0; 
stroke:#008484; stroke-width:0; stroke-opacity:1; 
stroke-linecap:round; stroke-linejoin:round;">
<g >
</g>
<g style="fill:#840000; fill-opacity:0.0; 
stroke:#840000; stroke-width:0; stroke-opacity:1; 
stroke-linecap:round; stroke-linejoin:round;">
</g>
<g style="fill:#840000; fill-opacity:0.0; 
stroke:#840000; stroke-width:60; stroke-opacity:1; 
stroke-linecap:round; stroke-linejoin:round;">
<path style="fill:#840000; fill-opacity:0.0; 
stroke:#840000; stroke-width:60; stroke-opacity:1; 
stroke-linecap:round; stroke-linejoin:round;fill:none"
d="M 62000,43100
62000,43000
" /> 
<path style="fill:#840000; fill-opacity:0.0; 
stroke:#840000; stroke-width:60; stroke-opacity:1; 
stroke-linecap:round; stroke-linejoin:round;fill:none"
d="M 62000,44900
62000,45000
" /> 
<path style="fill:#840000; fill-opacity:0.0; 
stroke:#840000; stroke-width:60; stroke-opacity:1; 
stroke-linecap:round; stroke-linejoin:round;fill:none"
d="M 62000,43700
61600,43550
62000,43400
62400,43250
62000,43100
" /> 
<path style="fill:#840000; fill-opacity:0.0; 
stroke:#840000; stroke-width:60; stroke-opacity:1; 
stroke-linecap:round; stroke-linejoin:round;fill:none"
d="M 62000,44300
61600,44150
62000,44000
62400,43850
62000,43700
" /> 
<path style="fill:#840000; fill-opacity:0.0; 
stroke:#840000; stroke-width:60; stroke-opacity:1; 
stroke-linecap:round; stroke-linejoin:round;fill:none"
d="M 62000,44900
61600,44750
62000,44600
62400,44450
62000,44300
" /> 
<path d="M62000 45000
L62000 45500
" />
<path d="M62000 43000
L62000 42500
" />
</g>
<g style="fill:#008484; fill-opacity:0.0; 
stroke:#008484; stroke-width:60; stroke-opacity:1; 
stroke-linecap:round; stroke-linejoin:round;">
<text x="63200" y="43760"
textLength="1040" font-size="660" lengthAdjust="spacingAndGlyphs"
text-anchor="middle" opacity="0">R2</text>
<path d="M63110 43730
L62950 43490
" />
<path d="M62830 43730
L62830 43230
L63020 43230
L63060 43260
L63090 43280
L63110 43330
L63110 43400
L63090 43450
L63060 43470
L63020 43490
L62830 43490
" />
<path d="M63300 43280
L63330 43260
L63370 43230
L63490 43230
L63540 43260
L63560 43280
L63590 43330
L63590 43370
L63560 43450
L63280 43730
L63590 43730
" />
<text x="63670" y="44670"
textLength="1990" font-size="660" lengthAdjust="spacingAndGlyphs"
text-anchor="middle" opacity="0">2k2Ω</text>
<path d="M62800 44190
L62820 44170
L62870 44140
L62990 44140
L63030 44170
L63060 44190
L63080 44240
L63080 44280
L63060 44360
L62770 44640
L63080 44640
" />
<path d="M63300 44640
L63300 44140
" />
<path d="M63340 44450
L63490 44640
" />
<path d="M63490 44310
L63300 44500
" />
<path d="M63680 44190
L63700 44170
L63750 44140
L63870 44140
L63920 44170
L63940 44190
L63960 44240
L63960 44280
L63940 44360
L63650 44640
L63960 44640
" />
<path d="M64150 44640
L64270 44640
L64270 44550
L64220 44520
L64180 44470
L64150 44400
L64150 44280
L64180 44210
L64220 44170
L64300 44140
L64390 44140
L64460 44170
L64510 44210
L64530 44280
L64530 44400
L64510 44470
L64460 44520
L64420 44550
L64420 44640
L64530 44640
" />
</g>
</g>
<g style="fill:#008484; fill-opacity:0.0; 
stroke:#008484; stroke-width:0; stroke-opacity:1; 
stroke-linecap:round; stroke-linejoin:round;">
<g >
</g>
<g style="fill:#840000; fill-opacity:0.0; 
stroke:#840000; stroke-width:0; stroke-opacity:1; 
stroke-linecap:round; stroke-linejoin:round;">
</g>
<g style="fill:#840000; fill-opacity:0.0; 
stroke:#840000; stroke-width:60; stroke-opacity:1; 
stroke-linecap:round; stroke-linejoin:round;">
<path d="M62752 49254.1 A2010 2010 0.0 0 0 60995.8 50998.1" />
</g>
<g style="fill:#840000; fill-opacity:1.0; 
stroke:#840000; stroke-width:60; stroke-opacity:1; 
stroke-linecap:round; stroke-linejoin:round;">
<path style="fill:#840000; fill-opacity:1.0; 
stroke:#840000; stroke-width:60; stroke-opacity:1; 
stroke-linecap:round; stroke-linejoin:round;fill-rule:evenodd;"
d="M 63000,49250
62650,49200
62650,49350
Z" /> 
</g>
<g style="fill:#840084; fill-opacity:0.0; 
stroke:#840084; stroke-width:60; stroke-opacity:1; 
stroke-linecap:round; stroke-linejoin:round;">
</g>
<g style="fill:#840084; fill-opacity:0.0; 
stroke:#840084; stroke-width:50; stroke-opacity:1; 
stroke-linecap:round; stroke-linejoin:round;">
<text x="63960" y="50170"
textLength="2430" font-size="400" lengthAdjust="spacingAndGlyphs"
text-anchor="middle" opacity="0">t2 = 80us</text>
<path d="M62800 49950
L62910 49950
" />
<path d="M62840 49850
L62840 50110
L62860 50140
L62880 50150
L62910 50150
" />
<path d="M63000 49880
L63010 49870
L63040 49850
L63110 49850
L63140 49870
L63160 49880
L63170 49910
L63170 49940
L63160 49980
L62980 50150
L63170 50150
" />
<path d="M63530 49990
L63760 49990
" />
<path d="M63760 50080
L63530 50080
" />
<path d="M64170 49980
L64140 49970
L64130 49950
L64110 49920
L64110 49910
L64130 49880
L64140 49870
L64170 49850
L64230 49850
L64260 49870
L64270 49880
L64280 49910
L64280 49920
L64270 49950
L64260 49970
L64230 49980
L64170 49980
L64140 49990
L64130 50010
L64110 50040
L64110 50090
L64130 50120
L64140 50140
L64170 50150
L64230 50150
L64260 50140
L64270 50120
L64280 50090
L64280 50040
L64270 50010
L64260 49990
L64230 49980
" />
<path d="M64470 49850
L64500 49850
L64530 49870
L64540 49880
L64560 49910
L64570 49970
L64570 50040
L64560 50090
L64540 50120
L64530 50140
L64500 50150
L64470 50150
L64440 50140
L64430 50120
L64410 50090
L64400 50040
L64400 49970
L64410 49910
L64430 49880
L64440 49870
L64470 49850
" />
<path d="M64830 49950
L64830 50150
" />
<path d="M64700 49950
L64700 50110
L64710 50140
L64740 50150
L64780 50150
L64810 50140
L64830 50120
" />
<path d="M64960 50140
L64980 50150
L65040 50150
L65070 50140
L65080 50110
L65080 50090
L65070 50070
L65040 50050
L65000 50050
L64970 50040
L64960 50010
L64960 49990
L64970 49970
L65000 49950
L65040 49950
L65070 49970
" />
</g>
</g>
<g style="fill:#840084; fill-opacity:0.0; 
stroke:#840084; stroke-width:0; stroke-opacity:1; 
stroke-linecap:round; stroke-linejoin:round;">
<g >
</g>
<g style="fill:#840000; fill-opacity:0.0; 
stroke:#840000; stroke-width:0; stroke-opacity:1; 
stroke-linecap:round; stroke-linejoin:round;">
</g>
<g style="fill:#840000; fill-opacity:0.0; 
stroke:#840000; stroke-width:60; stroke-opacity:1; 
stroke-linecap:round; stroke-linejoin:round;">
<path style="fill:#840000; fill-opacity:0.0; 
stroke:#840000; stroke-width:60; stroke-opacity:1; 
stroke-linecap:round; stroke-linejoin:round;fill:none"
d="M 68000,21000
66500,21000
" /> 
<path style="fill:#840000; fill-opacity:0.0; 
stroke:#840000; stroke-width:60; stroke-opacity:1; 
stroke-linecap:round; stroke-linejoin:round;fill:none"
d="M 68000,22600
68000,21000
" /> 
</g>
<g style="fill:#840000; fill-opacity:1.0; 
stroke:#840000; stroke-width:60; stroke-opacity:1; 
stroke-linecap:round; stroke-linejoin:round;">
<path style="fill:#840000; fill-opacity:1.0; 
stroke:#840000; stroke-width:60; stroke-opacity:1; 
stroke-linecap:round; stroke-linejoin:round;fill-rule:evenodd;"
d="M 68000,23000
67900,22500
68100,22500
Z" /> 
</g>
<g style="fill:#008484; fill-opacity:0.0; 
stroke:#008484; stroke-width:60; stroke-opacity:1; 
stroke-linecap:round; stroke-linejoin:round;">
<text x="69220" y="22270"
textLength="1670" font-size="660" lengthAdjust="spacingAndGlyphs"
text-anchor="middle" opacity="0">ic(t)</text>
<path d="M68520 22240
L68520 21910
" />
<path d="M68520 21740
L68500 21770
L68520 21790
L68550 21770
L68520 21740
L68520 21790
" />
<path d="M68980 22220
L68930 22240
L68830 22240
L68790 22220
L68760 22190
L68740 22150
L68740 22000
L68760 21960
L68790 21930
L68830 21910
L68930 21910
L68980 21930
" />
<path d="M69330 22430
L69310 22410
L69260 22340
L69240 22290
L69220 22220
L69190 22100
L69190 22000
L69220 21880
L69240 21810
L69260 21770
L69310 21690
L69330 21670
" />
<path d="M69450 21910
L69640 21910
" />
<path d="M69520 21740
L69520 22170
L69550 22220
L69600 22240
L69640 22240
" />
<path d="M69760 22430
L69790 22410
L69830 22340
L69860 22290
L69880 22220
L69910 22100
L69910 22000
L69880 21880
L69860 21810
L69830 21770
L69790 21690
L69760 21670
" />
</g>
</g>
<g style="fill:#008484; fill-opacity:0.0; 
stroke:#008484; stroke-width:0; stroke-opacity:1; 
stroke-linecap:round; stroke-linejoin:round;">
<g >
</g>
<g style="fill:#840000; fill-opacity:0.0; 
stroke:#840000; stroke-width:0; stroke-opacity:1; 
stroke-linecap:round; stroke-linejoin:round;">
</g>
<g style="fill:#840000; fill-opacity:0.0; 
stroke:#840000; stroke-width:60; stroke-opacity:1; 
stroke-linecap:round; stroke-linejoin:round;">
<path style="fill:#840000; fill-opacity:0.0; 
stroke:#840000; stroke-width:60; stroke-opacity:1; 
stroke-linecap:round; stroke-linejoin:round;fill:none"
d="M 68000,40500
66500,40500
" /> 
<path style="fill:#840000; fill-opacity:0.0; 
stroke:#840000; stroke-width:60; stroke-opacity:1; 
stroke-linecap:round; stroke-linejoin:round;fill:none"
d="M 68000,42100
68000,40500
" /> 
</g>
<g style="fill:#840000; fill-opacity:1.0; 
stroke:#840000; stroke-width:60; stroke-opacity:1; 
stroke-linecap:round; stroke-linejoin:round;">
<path style="fill:#840000; fill-opacity:1.0; 
stroke:#840000; stroke-width:60; stroke-opacity:1; 
stroke-linecap:round; stroke-linejoin:round;fill-rule:evenodd;"
d="M 68000,42500
67900,42000
68100,42000
Z" /> 
</g>
<g style="fill:#008484; fill-opacity:0.0; 
stroke:#008484; stroke-width:60; stroke-opacity:1; 
stroke-linecap:round; stroke-linejoin:round;">
<text x="69220" y="41770"
textLength="1680" font-size="660" lengthAdjust="spacingAndGlyphs"
text-anchor="middle" opacity="0">ic(t)</text>
<path d="M68520 41740
L68520 41410
" />
<path d="M68520 41240
L68500 41270
L68520 41290
L68550 41270
L68520 41240
L68520 41290
" />
<path d="M68980 41720
L68930 41740
L68830 41740
L68790 41720
L68760 41690
L68740 41650
L68740 41500
L68760 41460
L68790 41430
L68830 41410
L68930 41410
L68980 41430
" />
<path d="M69330 41930
L69310 41910
L69260 41840
L69240 41790
L69220 41720
L69190 41600
L69190 41500
L69220 41380
L69240 41310
L69260 41270
L69310 41190
L69330 41170
" />
<path d="M69450 41410
L69640 41410
" />
<path d="M69520 41240
L69520 41670
L69550 41720
L69600 41740
L69640 41740
" />
<path d="M69760 41930
L69790 41910
L69830 41840
L69860 41790
L69880 41720
L69910 41600
L69910 41500
L69880 41380
L69860 41310
L69830 41270
L69790 41190
L69760 41170
" />
</g>
</g>
<g style="fill:#008484; fill-opacity:0.0; 
stroke:#008484; stroke-width:0; stroke-opacity:1; 
stroke-linecap:round; stroke-linejoin:round;">
<g >
</g>
<g style="fill:#840000; fill-opacity:0.0; 
stroke:#840000; stroke-width:0; stroke-opacity:1; 
stroke-linecap:round; stroke-linejoin:round;">
</g>
<g style="fill:#840000; fill-opacity:0.0; 
stroke:#840000; stroke-width:60; stroke-opacity:1; 
stroke-linecap:round; stroke-linejoin:round;">
<path d="M61000.9 21999.1 A2120 2120 0.0 0 0 63999.1 21999.1" />
</g>
<g style="fill:#840000; fill-opacity:1.0; 
stroke:#840000; stroke-width:60; stroke-opacity:1; 
stroke-linecap:round; stroke-linejoin:round;">
<path style="fill:#840000; fill-opacity:1.0; 
stroke:#840000; stroke-width:60; stroke-opacity:1; 
stroke-linecap:round; stroke-linejoin:round;fill-rule:evenodd;"
d="M 61000,22000
61200,22400
61400,22100
Z" /> 
</g>
<g style="fill:#008484; fill-opacity:0.0; 
stroke:#008484; stroke-width:60; stroke-opacity:1; 
stroke-linecap:round; stroke-linejoin:round;">
<text x="62500" y="23570"
textLength="2180" font-size="660" lengthAdjust="spacingAndGlyphs"
text-anchor="middle" opacity="0">vr1(t)</text>
<path d="M61510 23210
L61630 23540
L61750 23210
" />
<path d="M61940 23540
L61940 23210
" />
<path d="M61940 23300
L61960 23260
L61980 23230
L62030 23210
L62080 23210
" />
<path d="M62510 23540
L62220 23540
" />
<path d="M62360 23540
L62360 23040
L62320 23110
L62270 23160
L62220 23180
" />
<path d="M62860 23730
L62840 23710
L62790 23640
L62770 23590
L62750 23520
L62720 23400
L62720 23300
L62750 23180
L62770 23110
L62790 23070
L62840 22990
L62860 22970
" />
<path d="M62980 23210
L63170 23210
" />
<path d="M63050 23040
L63050 23470
L63080 23520
L63130 23540
L63170 23540
" />
<path d="M63290 23730
L63320 23710
L63360 23640
L63390 23590
L63410 23520
L63440 23400
L63440 23300
L63410 23180
L63390 23110
L63360 23070
L63320 22990
L63290 22970
" />
</g>
</g>
<g style="fill:#008484; fill-opacity:0.0; 
stroke:#008484; stroke-width:0; stroke-opacity:1; 
stroke-linecap:round; stroke-linejoin:round;">
<g >
</g>
<g style="fill:#840000; fill-opacity:0.0; 
stroke:#840000; stroke-width:0; stroke-opacity:1; 
stroke-linecap:round; stroke-linejoin:round;">
</g>
<g style="fill:#840000; fill-opacity:0.0; 
stroke:#840000; stroke-width:60; stroke-opacity:1; 
stroke-linecap:round; stroke-linejoin:round;">
<path d="M70499.1 26999.1 A2120 2120 0.0 0 0 70499.1 24000.9" />
</g>
<g style="fill:#840000; fill-opacity:1.0; 
stroke:#840000; stroke-width:60; stroke-opacity:1; 
stroke-linecap:round; stroke-linejoin:round;">
<path style="fill:#840000; fill-opacity:1.0; 
stroke:#840000; stroke-width:60; stroke-opacity:1; 
stroke-linecap:round; stroke-linejoin:round;fill-rule:evenodd;"
d="M 70500,24000
70900,24200
70600,24400
Z" /> 
</g>
<g style="fill:#008484; fill-opacity:0.0; 
stroke:#008484; stroke-width:60; stroke-opacity:1; 
stroke-linecap:round; stroke-linejoin:round;">
<text x="72310" y="25770"
textLength="1820" font-size="660" lengthAdjust="spacingAndGlyphs"
text-anchor="middle" opacity="0">vc(t)</text>
<path d="M71500 25410
L71610 25740
L71730 25410
" />
<path d="M72140 25720
L72090 25740
L72000 25740
L71950 25720
L71920 25690
L71900 25650
L71900 25500
L71920 25460
L71950 25430
L72000 25410
L72090 25410
L72140 25430
" />
<path d="M72500 25930
L72470 25910
L72420 25840
L72400 25790
L72380 25720
L72350 25600
L72350 25500
L72380 25380
L72400 25310
L72420 25270
L72470 25190
L72500 25170
" />
<path d="M72610 25410
L72810 25410
" />
<path d="M72690 25240
L72690 25670
L72710 25720
L72760 25740
L72810 25740
" />
<path d="M72920 25930
L72950 25910
L73000 25840
L73020 25790
L73040 25720
L73070 25600
L73070 25500
L73040 25380
L73020 25310
L73000 25270
L72950 25190
L72920 25170
" />
</g>
</g>
<g style="fill:#008484; fill-opacity:0.0; 
stroke:#008484; stroke-width:0; stroke-opacity:1; 
stroke-linecap:round; stroke-linejoin:round;">
<g >
</g>
<g style="fill:#840000; fill-opacity:0.0; 
stroke:#840000; stroke-width:0; stroke-opacity:1; 
stroke-linecap:round; stroke-linejoin:round;">
</g>
<g style="fill:#840000; fill-opacity:0.0; 
stroke:#840000; stroke-width:60; stroke-opacity:1; 
stroke-linecap:round; stroke-linejoin:round;">
<path d="M70499.1 48499.1 A2120 2120 0.0 0 0 70499.1 45500.9" />
</g>
<g style="fill:#840000; fill-opacity:1.0; 
stroke:#840000; stroke-width:60; stroke-opacity:1; 
stroke-linecap:round; stroke-linejoin:round;">
<path style="fill:#840000; fill-opacity:1.0; 
stroke:#840000; stroke-width:60; stroke-opacity:1; 
stroke-linecap:round; stroke-linejoin:round;fill-rule:evenodd;"
d="M 70500,45500
70900,45700
70600,45900
Z" /> 
</g>
<g style="fill:#008484; fill-opacity:0.0; 
stroke:#008484; stroke-width:60; stroke-opacity:1; 
stroke-linecap:round; stroke-linejoin:round;">
<text x="72520" y="47270"
textLength="2250" font-size="660" lengthAdjust="spacingAndGlyphs"
text-anchor="middle" opacity="0">vc(t)?</text>
<path d="M71490 46910
L71610 47240
L71730 46910
" />
<path d="M72130 47220
L72090 47240
L71990 47240
L71940 47220
L71920 47190
L71900 47150
L71900 47000
L71920 46960
L71940 46930
L71990 46910
L72090 46910
L72130 46930
" />
<path d="M72490 47430
L72470 47410
L72420 47340
L72400 47290
L72370 47220
L72350 47100
L72350 47000
L72370 46880
L72400 46810
L72420 46770
L72470 46690
L72490 46670
" />
<path d="M72610 46910
L72800 46910
" />
<path d="M72680 46740
L72680 47170
L72710 47220
L72750 47240
L72800 47240
" />
<path d="M72920 47430
L72940 47410
L72990 47340
L73020 47290
L73040 47220
L73060 47100
L73060 47000
L73040 46880
L73020 46810
L72990 46770
L72940 46690
L72920 46670
" />
<path d="M73370 47190
L73400 47220
L73370 47240
L73350 47220
L73370 47190
L73370 47240
" />
<path d="M73280 46770
L73320 46740
L73440 46740
L73490 46770
L73520 46810
L73520 46860
L73490 46910
L73470 46930
L73420 46960
L73400 46980
L73370 47030
L73370 47050
" />
</g>
</g>
<g style="fill:#008484; fill-opacity:0.0; 
stroke:#008484; stroke-width:0; stroke-opacity:1; 
stroke-linecap:round; stroke-linejoin:round;">
<g >
</g>
<g style="fill:#840000; fill-opacity:0.0; 
stroke:#840000; stroke-width:0; stroke-opacity:1; 
stroke-linecap:round; stroke-linejoin:round;">
</g>
<g style="fill:#840000; fill-opacity:0.0; 
stroke:#840000; stroke-width:60; stroke-opacity:1; 
stroke-linecap:round; stroke-linejoin:round;">
<circle cx="57500" cy="26300" r="200" /> 
<circle cx="57500" cy="24700" r="200" /> 
<path style="fill:#840000; fill-opacity:0.0; 
stroke:#840000; stroke-width:60; stroke-opacity:1; 
stroke-linecap:round; stroke-linejoin:round;fill:none"
d="M 57400,26100
56800,24900
" /> 
<path d="M57500 26500
L57500 27500
" />
<g transform="rotate(-90 57600 27000)">
<text x="57600" y="27500"
textLength="540" font-size="660" lengthAdjust="spacingAndGlyphs"
text-anchor="middle" opacity="0">1</text>
</g>
<path d="M58070 26850
L58070 27140
" />
<path d="M58070 27000
L57570 27000
L57640 27040
L57690 27090
L57710 27140
" />
<path d="M57500 24500
L57500 23500
" />
<g transform="rotate(-90 57600 24000)">
<text x="57600" y="24500"
textLength="540" font-size="660" lengthAdjust="spacingAndGlyphs"
text-anchor="middle" opacity="0">2</text>
</g>
<path d="M57620 24140
L57600 24110
L57570 24070
L57570 23950
L57600 23900
L57620 23880
L57670 23850
L57710 23850
L57790 23880
L58070 24160
L58070 23850
" />
</g>
<g style="fill:#008484; fill-opacity:0.0; 
stroke:#008484; stroke-width:60; stroke-opacity:1; 
stroke-linecap:round; stroke-linejoin:round;">
<text x="56290" y="24220"
textLength="1580" font-size="660" lengthAdjust="spacingAndGlyphs"
text-anchor="middle" opacity="0">SW2</text>
<path d="M55620 24170
L55690 24190
L55810 24190
L55860 24170
L55880 24140
L55900 24100
L55900 24050
L55880 24000
L55860 23980
L55810 23950
L55710 23930
L55670 23910
L55640 23880
L55620 23830
L55620 23790
L55640 23740
L55670 23720
L55710 23690
L55830 23690
L55900 23720
" />
<path d="M56070 23690
L56190 24190
L56290 23830
L56380 24190
L56500 23690
" />
<path d="M56670 23740
L56690 23720
L56740 23690
L56860 23690
L56900 23720
L56930 23740
L56950 23790
L56950 23830
L56930 23910
L56640 24190
L56950 24190
" />
</g>
</g>
<g style="fill:#008484; fill-opacity:0.0; 
stroke:#008484; stroke-width:0; stroke-opacity:1; 
stroke-linecap:round; stroke-linejoin:round;">
<g >
</g>
<g style="fill:#840000; fill-opacity:0.0; 
stroke:#840000; stroke-width:0; stroke-opacity:1; 
stroke-linecap:round; stroke-linejoin:round;">
</g>
<g style="fill:#840000; fill-opacity:0.0; 
stroke:#840000; stroke-width:60; stroke-opacity:1; 
stroke-linecap:round; stroke-linejoin:round;">
<circle cx="51700" cy="21500" r="200" /> 
<circle cx="53300" cy="21500" r="200" /> 
<path style="fill:#840000; fill-opacity:0.0; 
stroke:#840000; stroke-width:60; stroke-opacity:1; 
stroke-linecap:round; stroke-linejoin:round;fill:none"
d="M 51900,21400
53100,20800
" /> 
<path d="M51500 21500
L50500 21500
" />
<text x="51000" y="22100"
textLength="540" font-size="660" lengthAdjust="spacingAndGlyphs"
text-anchor="middle" opacity="0">1</text>
<path d="M51140 22070
L50850 22070
" />
<path d="M51000 22070
L51000 21570
L50950 21640
L50900 21690
L50850 21710
" />
<path d="M53500 21500
L54500 21500
" />
<text x="54000" y="22100"
textLength="540" font-size="660" lengthAdjust="spacingAndGlyphs"
text-anchor="middle" opacity="0">2</text>
<path d="M53850 21620
L53880 21600
L53920 21570
L54040 21570
L54090 21600
L54110 21620
L54140 21670
L54140 21710
L54110 21790
L53830 22070
L54140 22070
" />
</g>
<g style="fill:#008484; fill-opacity:0.0; 
stroke:#008484; stroke-width:60; stroke-opacity:1; 
stroke-linecap:round; stroke-linejoin:round;">
<text x="54000" y="20520"
textLength="1580" font-size="660" lengthAdjust="spacingAndGlyphs"
text-anchor="middle" opacity="0">SW1</text>
<path d="M53330 20470
L53400 20490
L53520 20490
L53570 20470
L53590 20440
L53610 20400
L53610 20350
L53590 20300
L53570 20280
L53520 20250
L53420 20230
L53380 20210
L53350 20180
L53330 20130
L53330 20090
L53350 20040
L53380 20020
L53420 19990
L53540 19990
L53610 20020
" />
<path d="M53780 19990
L53900 20490
L54000 20130
L54090 20490
L54210 19990
" />
<path d="M54660 20490
L54380 20490
" />
<path d="M54520 20490
L54520 19990
L54470 20060
L54420 20110
L54380 20130
" />
</g>
</g>
<g style="fill:#008484; fill-opacity:0.0; 
stroke:#008484; stroke-width:0; stroke-opacity:1; 
stroke-linecap:round; stroke-linejoin:round;">
<g >
</g>
<g style="fill:#840000; fill-opacity:0.0; 
stroke:#840000; stroke-width:0; stroke-opacity:1; 
stroke-linecap:round; stroke-linejoin:round;">
</g>
<g style="fill:#840000; fill-opacity:1.0; 
stroke:#840000; stroke-width:60; stroke-opacity:1; 
stroke-linecap:round; stroke-linejoin:round;">
<rect x="46600" y="25300" width="1800" height="100" rx="0" />
<rect x="46880" y="25530" width="1200" height="200" rx="0" />
</g>
<g style="fill:#840000; fill-opacity:0.0; 
stroke:#840000; stroke-width:60; stroke-opacity:1; 
stroke-linecap:round; stroke-linejoin:round;">
<path style="fill:#840000; fill-opacity:0.0; 
stroke:#840000; stroke-width:60; stroke-opacity:1; 
stroke-linecap:round; stroke-linejoin:round;fill:none"
d="M 47500,25700
47500,26000
" /> 
<path style="fill:#840000; fill-opacity:0.0; 
stroke:#840000; stroke-width:60; stroke-opacity:1; 
stroke-linecap:round; stroke-linejoin:round;fill:none"
d="M 47500,25300
47500,25000
" /> 
</g>
<g style="fill:#840000; fill-opacity:0.0; 
stroke:#840000; stroke-width:100; stroke-opacity:1; 
stroke-linecap:round; stroke-linejoin:round;">
<path style="fill:#840000; fill-opacity:0.0; 
stroke:#840000; stroke-width:100; stroke-opacity:1; 
stroke-linecap:round; stroke-linejoin:round;fill:none"
d="M 47700,24650
48100,24650
" /> 
<path style="fill:#840000; fill-opacity:0.0; 
stroke:#840000; stroke-width:100; stroke-opacity:1; 
stroke-linecap:round; stroke-linejoin:round;fill:none"
d="M 47900,24450
47900,24850
" /> 
</g>
<g style="fill:#840000; fill-opacity:0.0; 
stroke:#840000; stroke-width:60; stroke-opacity:1; 
stroke-linecap:round; stroke-linejoin:round;">
<path d="M47500 25000
L47500 24000
" />
<path d="M47500 26000
L47500 27000
" />
</g>
<g style="fill:#008484; fill-opacity:0.0; 
stroke:#008484; stroke-width:60; stroke-opacity:1; 
stroke-linecap:round; stroke-linejoin:round;">
<text x="49160" y="25310"
textLength="960" font-size="660" lengthAdjust="spacingAndGlyphs"
text-anchor="middle" opacity="0">V1</text>
<path d="M48750 24780
L48920 25280
L49080 24780
" />
<path d="M49510 25280
L49230 25280
" />
<path d="M49370 25280
L49370 24780
L49320 24850
L49270 24900
L49230 24920
" />
<text x="49400" y="26220"
textLength="1440" font-size="660" lengthAdjust="spacingAndGlyphs"
text-anchor="middle" opacity="0">10V</text>
<path d="M49090 26190
L48800 26190
" />
<path d="M48940 26190
L48940 25690
L48900 25760
L48850 25810
L48800 25830
" />
<path d="M49400 25690
L49440 25690
L49490 25720
L49510 25740
L49540 25790
L49560 25880
L49560 26000
L49540 26100
L49510 26140
L49490 26170
L49440 26190
L49400 26190
L49350 26170
L49320 26140
L49300 26100
L49280 26000
L49280 25880
L49300 25790
L49320 25740
L49350 25720
L49400 25690
" />
<path d="M49700 25690
L49870 26190
L50040 25690
" />
</g>
</g>
<g style="fill:#008484; fill-opacity:0.0; 
stroke:#008484; stroke-width:0; stroke-opacity:1; 
stroke-linecap:round; stroke-linejoin:round;">
<g >
</g>
<g style="fill:#840000; fill-opacity:0.0; 
stroke:#840000; stroke-width:0; stroke-opacity:1; 
stroke-linecap:round; stroke-linejoin:round;">
</g>
<g style="fill:#840000; fill-opacity:0.0; 
stroke:#840000; stroke-width:60; stroke-opacity:1; 
stroke-linecap:round; stroke-linejoin:round;">
<path d="M51000.9 41499.1 A2120 2120 0.0 0 0 53999.1 41499.1" />
</g>
<g style="fill:#840000; fill-opacity:1.0; 
stroke:#840000; stroke-width:60; stroke-opacity:1; 
stroke-linecap:round; stroke-linejoin:round;">
<path style="fill:#840000; fill-opacity:1.0; 
stroke:#840000; stroke-width:60; stroke-opacity:1; 
stroke-linecap:round; stroke-linejoin:round;fill-rule:evenodd;"
d="M 51000,41500
51200,41900
51400,41600
Z" /> 
</g>
<g style="fill:#008484; fill-opacity:0.0; 
stroke:#008484; stroke-width:60; stroke-opacity:1; 
stroke-linecap:round; stroke-linejoin:round;">
<text x="52500" y="43070"
textLength="2180" font-size="660" lengthAdjust="spacingAndGlyphs"
text-anchor="middle" opacity="0">vr1(t)</text>
<path d="M51510 42710
L51630 43040
L51750 42710
" />
<path d="M51940 43040
L51940 42710
" />
<path d="M51940 42800
L51960 42760
L51980 42730
L52030 42710
L52080 42710
" />
<path d="M52510 43040
L52220 43040
" />
<path d="M52360 43040
L52360 42540
L52320 42610
L52270 42660
L52220 42680
" />
<path d="M52860 43230
L52840 43210
L52790 43140
L52770 43090
L52750 43020
L52720 42900
L52720 42800
L52750 42680
L52770 42610
L52790 42570
L52840 42490
L52860 42470
" />
<path d="M52980 42710
L53170 42710
" />
<path d="M53050 42540
L53050 42970
L53080 43020
L53130 43040
L53170 43040
" />
<path d="M53290 43230
L53320 43210
L53360 43140
L53390 43090
L53410 43020
L53440 42900
L53440 42800
L53410 42680
L53390 42610
L53360 42570
L53320 42490
L53290 42470
" />
</g>
</g>
<g style="fill:#008484; fill-opacity:0.0; 
stroke:#008484; stroke-width:0; stroke-opacity:1; 
stroke-linecap:round; stroke-linejoin:round;">
<g >
</g>
<g style="fill:#840000; fill-opacity:0.0; 
stroke:#840000; stroke-width:0; stroke-opacity:1; 
stroke-linecap:round; stroke-linejoin:round;">
</g>
<g style="fill:#840000; fill-opacity:0.0; 
stroke:#840000; stroke-width:60; stroke-opacity:1; 
stroke-linecap:round; stroke-linejoin:round;">
<path d="M61500.9 42500.9 A2120 2120 0.0 0 0 61500.9 45499.1" />
</g>
<g style="fill:#840000; fill-opacity:1.0; 
stroke:#840000; stroke-width:60; stroke-opacity:1; 
stroke-linecap:round; stroke-linejoin:round;">
<path style="fill:#840000; fill-opacity:1.0; 
stroke:#840000; stroke-width:60; stroke-opacity:1; 
stroke-linecap:round; stroke-linejoin:round;fill-rule:evenodd;"
d="M 61500,42500
61100,42700
61400,42900
Z" /> 
</g>
<g style="fill:#008484; fill-opacity:0.0; 
stroke:#008484; stroke-width:60; stroke-opacity:1; 
stroke-linecap:round; stroke-linejoin:round;">
<text x="59510" y="44270"
textLength="2180" font-size="660" lengthAdjust="spacingAndGlyphs"
text-anchor="middle" opacity="0">vr2(t)</text>
<path d="M58520 43910
L58640 44240
L58760 43910
" />
<path d="M58950 44240
L58950 43910
" />
<path d="M58950 44000
L58970 43960
L58990 43930
L59040 43910
L59090 43910
" />
<path d="M59230 43790
L59260 43770
L59300 43740
L59420 43740
L59470 43770
L59490 43790
L59520 43840
L59520 43880
L59490 43960
L59210 44240
L59520 44240
" />
<path d="M59870 44430
L59850 44410
L59800 44340
L59780 44290
L59760 44220
L59730 44100
L59730 44000
L59760 43880
L59780 43810
L59800 43770
L59850 43690
L59870 43670
" />
<path d="M59990 43910
L60180 43910
" />
<path d="M60060 43740
L60060 44170
L60090 44220
L60140 44240
L60180 44240
" />
<path d="M60300 44430
L60330 44410
L60370 44340
L60400 44290
L60420 44220
L60450 44100
L60450 44000
L60420 43880
L60400 43810
L60370 43770
L60330 43690
L60300 43670
" />
</g>
</g>
<g style="fill:#008484; fill-opacity:0.0; 
stroke:#008484; stroke-width:60; stroke-opacity:1; 
stroke-linecap:round; stroke-linejoin:round;">
</g>
<g style="fill:#008400; fill-opacity:0.0; 
stroke:#008400; stroke-width:60; stroke-opacity:1; 
stroke-linecap:round; stroke-linejoin:round;">
<path d="M62000 51500
L62000 53000
" />
<path d="M47500 45500
L47500 41000
" />
<path d="M59000 41000
L62000 41000
" />
<path d="M47500 41000
L51000 41000
" />
<path d="M47500 53000
L62000 53000
" />
<path d="M54000 41000
L55000 41000
" />
<path d="M62000 53000
L67500 53000
" />
<path d="M62000 42500
L62000 41000
" />
<path d="M62000 41000
L67500 41000
" />
<path d="M47500 48500
L47500 53000
" />
<path d="M47500 24000
L47500 21500
" />
<path d="M47500 21500
L50500 21500
" />
<path d="M54500 21500
L57500 21500
" />
<path d="M57500 23500
L57500 21500
" />
<path d="M57500 21500
L61000 21500
" />
<path d="M64000 21500
L67500 21500
" />
<path d="M67500 21500
L67500 24000
" />
<path d="M47500 27000
L47500 29500
" />
<path d="M47500 29500
L57500 29500
" />
<path d="M67500 29500
L67500 27000
" />
<path d="M57500 27500
L57500 29500
" />
<path d="M57500 29500
L67500 29500
" />
<path d="M62000 47500
L62000 45500
" />
<path d="M67500 41000
L67500 45500
" />
<path d="M67500 53000
L67500 48500
" />
</g>
<g style="fill:#0000C2; fill-opacity:0.0; 
stroke:#0000C2; stroke-width:60; stroke-opacity:1; 
stroke-linecap:round; stroke-linejoin:round;">
<text x="43500" y="39400"
textLength="850" font-size="660" lengthAdjust="spacingAndGlyphs"
text-anchor="start" opacity="0">b)</text>
<path d="M43640 39370
L43640 38870
" />
<path d="M43640 39060
L43690 39040
L43790 39040
L43830 39060
L43860 39090
L43880 39130
L43880 39280
L43860 39320
L43830 39350
L43790 39370
L43690 39370
L43640 39350
" />
<path d="M44050 39560
L44070 39540
L44120 39470
L44140 39420
L44170 39350
L44190 39230
L44190 39130
L44170 39010
L44140 38940
L44120 38900
L44070 38820
L44050 38800
" />
<text x="43500" y="18400"
textLength="850" font-size="660" lengthAdjust="spacingAndGlyphs"
text-anchor="start" opacity="0">a)</text>
<path d="M43860 18370
L43860 18110
L43830 18060
L43790 18040
L43690 18040
L43640 18060
" />
<path d="M43860 18350
L43810 18370
L43690 18370
L43640 18350
L43620 18300
L43620 18250
L43640 18200
L43690 18180
L43810 18180
L43860 18160
" />
<path d="M44050 18560
L44070 18540
L44120 18470
L44140 18420
L44170 18350
L44190 18230
L44190 18130
L44170 18010
L44140 17940
L44120 17900
L44070 17820
L44050 17800
" />
</g>
<g style="fill:#0000C2; fill-opacity:0.0; 
stroke:#0000C2; stroke-width:0; stroke-opacity:1; 
stroke-linecap:round; stroke-linejoin:round;">
</g>
<g style="fill:#008400; fill-opacity:0.0; 
stroke:#008400; stroke-width:0; stroke-opacity:1; 
stroke-linecap:round; stroke-linejoin:round;">
</g>
<g style="fill:#008400; fill-opacity:1.0; 
stroke:#008400; stroke-width:100; stroke-opacity:1; 
stroke-linecap:round; stroke-linejoin:round;">
<circle cx="62000" cy="53000" r="200" /> 
</g>
<g style="fill:#008400; fill-opacity:1.0; 
stroke:#008400; stroke-width:0; stroke-opacity:1; 
stroke-linecap:round; stroke-linejoin:round;">
</g>
<g style="fill:#008400; fill-opacity:1.0; 
stroke:#008400; stroke-width:100; stroke-opacity:1; 
stroke-linecap:round; stroke-linejoin:round;">
<circle cx="62000" cy="41000" r="200" /> 
</g>
<g style="fill:#008400; fill-opacity:1.0; 
stroke:#008400; stroke-width:0; stroke-opacity:1; 
stroke-linecap:round; stroke-linejoin:round;">
</g>
<g style="fill:#008400; fill-opacity:1.0; 
stroke:#008400; stroke-width:100; stroke-opacity:1; 
stroke-linecap:round; stroke-linejoin:round;">
<circle cx="57500" cy="29500" r="200" /> 
</g>
<g style="fill:#008400; fill-opacity:1.0; 
stroke:#008400; stroke-width:0; stroke-opacity:1; 
stroke-linecap:round; stroke-linejoin:round;">
</g>
<g style="fill:#008400; fill-opacity:1.0; 
stroke:#008400; stroke-width:100; stroke-opacity:1; 
stroke-linecap:round; stroke-linejoin:round;">
<circle cx="57500" cy="21500" r="200" /> 
</g> 
</svg>
