<?xml version="1.0" standalone="no"?>
 <!DOCTYPE svg PUBLIC "-//W3C//DTD SVG 1.1//EN" 
 "http://www.w3.org/Graphics/SVG/1.1/DTD/svg11.dtd"> 
<svg
  xmlns:svg="http://www.w3.org/2000/svg"
  xmlns="http://www.w3.org/2000/svg"
  xmlns:xlink="http://www.w3.org/1999/xlink"
  version="1.1"
  width="29.700220cm" height="21.000720cm" viewBox="0 0 116930 82680">
<title>SVG Picture created as questao-02.svg date 2020/11/18 12:47:54 </title>
  <desc>Picture generated by Eeschema-SVG </desc>
<g style="fill:#000000; fill-opacity:1;stroke:#000000; stroke-opacity:1;
stroke-linecap:round; stroke-linejoin:round;"
 transform="translate(0 0) scale(1 1)">
</g>
<g style="fill:#000000; fill-opacity:0.0; 
stroke:#000000; stroke-width:0; stroke-opacity:1; 
stroke-linecap:round; stroke-linejoin:round;">
<g >
</g>
<g style="fill:#840000; fill-opacity:0.0; 
stroke:#840000; stroke-width:0; stroke-opacity:1; 
stroke-linecap:round; stroke-linejoin:round;">
</g>
<g style="fill:#840000; fill-opacity:0.0; 
stroke:#840000; stroke-width:60; stroke-opacity:1; 
stroke-linecap:round; stroke-linejoin:round;">
<path style="fill:#840000; fill-opacity:0.0; 
stroke:#840000; stroke-width:60; stroke-opacity:1; 
stroke-linecap:round; stroke-linejoin:round;fill:none"
d="M 66500,45000
66500,47000
" /> 
</g>
<g style="fill:#840000; fill-opacity:1.0; 
stroke:#840000; stroke-width:60; stroke-opacity:1; 
stroke-linecap:round; stroke-linejoin:round;">
<path style="fill:#840000; fill-opacity:1.0; 
stroke:#840000; stroke-width:60; stroke-opacity:1; 
stroke-linecap:round; stroke-linejoin:round;fill-rule:evenodd;"
d="M 66500,47000
66750,46500
66250,46500
Z" /> 
</g>
<g style="fill:#840000; fill-opacity:0.0; 
stroke:#840000; stroke-width:60; stroke-opacity:1; 
stroke-linecap:round; stroke-linejoin:round;">
<path style="fill:#840000; fill-opacity:0.0; 
stroke:#840000; stroke-width:60; stroke-opacity:1; 
stroke-linecap:round; stroke-linejoin:round;fill:none"
d="M 66500,47000
67500,46000
66500,45000
65500,46000
Z" /> 
<path d="M66500 47000
L66500 49000
" />
</g>
<g style="fill:#008484; fill-opacity:0.0; 
stroke:#008484; stroke-width:60; stroke-opacity:1; 
stroke-linecap:round; stroke-linejoin:round;">
<g transform="rotate(-90 66400 48000)">
<text x="66400" y="48000"
textLength="780" font-size="660" lengthAdjust="spacingAndGlyphs"
text-anchor="middle" opacity="0">+</text>
</g>
<path d="M66180 48190
L66180 47800
" />
<path d="M66370 48000
L65990 48000
" />
</g>
<g style="fill:#840000; fill-opacity:0.0; 
stroke:#840000; stroke-width:60; stroke-opacity:1; 
stroke-linecap:round; stroke-linejoin:round;">
<path d="M66500 45000
L66500 43000
" />
</g>
<g style="fill:#008484; fill-opacity:0.0; 
stroke:#008484; stroke-width:60; stroke-opacity:1; 
stroke-linecap:round; stroke-linejoin:round;">
<g transform="rotate(-90 66400 44000)">
<text x="66400" y="44000"
textLength="680" font-size="660" lengthAdjust="spacingAndGlyphs"
text-anchor="middle" opacity="0">-</text>
</g>
<path d="M66180 44190
L66180 43800
" />
<text x="68160" y="45310"
textLength="770" font-size="660" lengthAdjust="spacingAndGlyphs"
text-anchor="middle" opacity="0">I2</text>
<path d="M67920 45280
L67920 44780
" />
<path d="M68130 44830
L68160 44810
L68200 44780
L68320 44780
L68370 44810
L68390 44830
L68420 44880
L68420 44920
L68390 45000
L68110 45280
L68420 45280
" />
<text x="69320" y="46220"
textLength="3080" font-size="660" lengthAdjust="spacingAndGlyphs"
text-anchor="middle" opacity="0">i = k v'</text>
<path d="M67920 46190
L67920 45860
" />
<path d="M67920 45690
L67900 45720
L67920 45740
L67950 45720
L67920 45690
L67920 45740
" />
<path d="M68540 45930
L68920 45930
" />
<path d="M68920 46070
L68540 46070
" />
<path d="M69540 46190
L69540 45690
" />
<path d="M69590 46000
L69730 46190
" />
<path d="M69730 45860
L69540 46050
" />
<path d="M70280 45860
L70400 46190
L70520 45860
" />
<path d="M70730 45690
L70680 45790
" />
</g>
<g style="fill:#840084; fill-opacity:0.0; 
stroke:#840084; stroke-width:60; stroke-opacity:1; 
stroke-linecap:round; stroke-linejoin:round;">
<text x="69530" y="47130"
textLength="3510" font-size="660" lengthAdjust="spacingAndGlyphs"
text-anchor="middle" opacity="0">k = 0,5S</text>
<path d="M67920 47100
L67920 46600
" />
<path d="M67970 46910
L68110 47100
" />
<path d="M68110 46770
L67920 46960
" />
<path d="M68700 46840
L69080 46840
" />
<path d="M69080 46980
L68700 46980
" />
<path d="M69800 46600
L69850 46600
L69890 46630
L69920 46650
L69940 46700
L69970 46790
L69970 46910
L69940 47010
L69920 47050
L69890 47080
L69850 47100
L69800 47100
L69750 47080
L69730 47050
L69700 47010
L69680 46910
L69680 46790
L69700 46700
L69730 46650
L69750 46630
L69800 46600
" />
<path d="M70200 47080
L70200 47100
L70180 47150
L70160 47170
" />
<path d="M70660 46600
L70420 46600
L70390 46840
L70420 46820
L70470 46790
L70580 46790
L70630 46820
L70660 46840
L70680 46890
L70680 47010
L70660 47050
L70630 47080
L70580 47100
L70470 47100
L70420 47080
L70390 47050
" />
<path d="M70870 47080
L70940 47100
L71060 47100
L71110 47080
L71130 47050
L71160 47010
L71160 46960
L71130 46910
L71110 46890
L71060 46860
L70970 46840
L70920 46820
L70890 46790
L70870 46740
L70870 46700
L70890 46650
L70920 46630
L70970 46600
L71080 46600
L71160 46630
" />
</g>
</g>
<g style="fill:#840084; fill-opacity:0.0; 
stroke:#840084; stroke-width:0; stroke-opacity:1; 
stroke-linecap:round; stroke-linejoin:round;">
<g >
</g>
<g style="fill:#840000; fill-opacity:0.0; 
stroke:#840000; stroke-width:0; stroke-opacity:1; 
stroke-linecap:round; stroke-linejoin:round;">
</g>
<g style="fill:#840000; fill-opacity:0.0; 
stroke:#840000; stroke-width:60; stroke-opacity:1; 
stroke-linecap:round; stroke-linejoin:round;">
<path d="M68499.1 52499.1 A2120 2120 0.0 0 0 68499.1 49500.9" />
</g>
<g style="fill:#840000; fill-opacity:1.0; 
stroke:#840000; stroke-width:60; stroke-opacity:1; 
stroke-linecap:round; stroke-linejoin:round;">
<path style="fill:#840000; fill-opacity:1.0; 
stroke:#840000; stroke-width:60; stroke-opacity:1; 
stroke-linecap:round; stroke-linejoin:round;fill-rule:evenodd;"
d="M 68500,49500
68900,49700
68600,49900
Z" /> 
</g>
<g style="fill:#008484; fill-opacity:0.0; 
stroke:#008484; stroke-width:60; stroke-opacity:1; 
stroke-linecap:round; stroke-linejoin:round;">
<text x="69840" y="51270"
textLength="890" font-size="660" lengthAdjust="spacingAndGlyphs"
text-anchor="middle" opacity="0">Vx</text>
<path d="M69470 50740
L69630 51240
L69800 50740
" />
<path d="M69920 51240
L70180 50910
" />
<path d="M69920 50910
L70180 51240
" />
</g>
</g>
<g style="fill:#008484; fill-opacity:0.0; 
stroke:#008484; stroke-width:0; stroke-opacity:1; 
stroke-linecap:round; stroke-linejoin:round;">
<g >
</g>
<g style="fill:#840000; fill-opacity:0.0; 
stroke:#840000; stroke-width:0; stroke-opacity:1; 
stroke-linecap:round; stroke-linejoin:round;">
</g>
<g style="fill:#840000; fill-opacity:0.0; 
stroke:#840000; stroke-width:60; stroke-opacity:1; 
stroke-linecap:round; stroke-linejoin:round;">
<path d="M60999.1 43999.1 A2120 2120 0.0 0 0 60999.1 41000.9" />
</g>
<g style="fill:#840000; fill-opacity:1.0; 
stroke:#840000; stroke-width:60; stroke-opacity:1; 
stroke-linecap:round; stroke-linejoin:round;">
<path style="fill:#840000; fill-opacity:1.0; 
stroke:#840000; stroke-width:60; stroke-opacity:1; 
stroke-linecap:round; stroke-linejoin:round;fill-rule:evenodd;"
d="M 61000,41000
61400,41200
61100,41400
Z" /> 
</g>
<g style="fill:#008484; fill-opacity:0.0; 
stroke:#008484; stroke-width:60; stroke-opacity:1; 
stroke-linecap:round; stroke-linejoin:round;">
<text x="62240" y="42770"
textLength="680" font-size="660" lengthAdjust="spacingAndGlyphs"
text-anchor="middle" opacity="0">v'</text>
<path d="M62000 42410
L62120 42740
L62240 42410
" />
<path d="M62450 42240
L62400 42340
" />
</g>
</g>
<g style="fill:#008484; fill-opacity:0.0; 
stroke:#008484; stroke-width:0; stroke-opacity:1; 
stroke-linecap:round; stroke-linejoin:round;">
<g >
</g>
<g style="fill:#840000; fill-opacity:0.0; 
stroke:#840000; stroke-width:0; stroke-opacity:1; 
stroke-linecap:round; stroke-linejoin:round;">
</g>
<g style="fill:#840000; fill-opacity:0.0; 
stroke:#840000; stroke-width:60; stroke-opacity:1; 
stroke-linecap:round; stroke-linejoin:round;">
<path style="fill:#840000; fill-opacity:0.0; 
stroke:#840000; stroke-width:60; stroke-opacity:1; 
stroke-linecap:round; stroke-linejoin:round;fill:none"
d="M 66500,50100
66500,50000
" /> 
<path style="fill:#840000; fill-opacity:0.0; 
stroke:#840000; stroke-width:60; stroke-opacity:1; 
stroke-linecap:round; stroke-linejoin:round;fill:none"
d="M 66500,51900
66500,52000
" /> 
<path style="fill:#840000; fill-opacity:0.0; 
stroke:#840000; stroke-width:60; stroke-opacity:1; 
stroke-linecap:round; stroke-linejoin:round;fill:none"
d="M 66500,50700
66100,50550
66500,50400
66900,50250
66500,50100
" /> 
<path style="fill:#840000; fill-opacity:0.0; 
stroke:#840000; stroke-width:60; stroke-opacity:1; 
stroke-linecap:round; stroke-linejoin:round;fill:none"
d="M 66500,51300
66100,51150
66500,51000
66900,50850
66500,50700
" /> 
<path style="fill:#840000; fill-opacity:0.0; 
stroke:#840000; stroke-width:60; stroke-opacity:1; 
stroke-linecap:round; stroke-linejoin:round;fill:none"
d="M 66500,51900
66100,51750
66500,51600
66900,51450
66500,51300
" /> 
<path d="M66500 52000
L66500 52500
" />
<path d="M66500 50000
L66500 49500
" />
</g>
<g style="fill:#008484; fill-opacity:0.0; 
stroke:#008484; stroke-width:60; stroke-opacity:1; 
stroke-linecap:round; stroke-linejoin:round;">
<text x="67700" y="50760"
textLength="1040" font-size="660" lengthAdjust="spacingAndGlyphs"
text-anchor="middle" opacity="0">R4</text>
<path d="M67610 50730
L67450 50490
" />
<path d="M67330 50730
L67330 50230
L67520 50230
L67560 50260
L67590 50280
L67610 50330
L67610 50400
L67590 50450
L67560 50470
L67520 50490
L67330 50490
" />
<path d="M68040 50400
L68040 50730
" />
<path d="M67920 50210
L67800 50560
L68110 50560
" />
<text x="67730" y="51670"
textLength="1110" font-size="660" lengthAdjust="spacingAndGlyphs"
text-anchor="middle" opacity="0">6Ω</text>
<path d="M67530 51140
L67440 51140
L67390 51170
L67370 51190
L67320 51260
L67300 51360
L67300 51550
L67320 51590
L67340 51620
L67390 51640
L67490 51640
L67530 51620
L67560 51590
L67580 51550
L67580 51430
L67560 51380
L67530 51360
L67490 51330
L67390 51330
L67340 51360
L67320 51380
L67300 51430
" />
<path d="M67770 51640
L67890 51640
L67890 51550
L67840 51520
L67800 51470
L67770 51400
L67770 51280
L67800 51210
L67840 51170
L67920 51140
L68010 51140
L68080 51170
L68130 51210
L68150 51280
L68150 51400
L68130 51470
L68080 51520
L68030 51550
L68030 51640
L68150 51640
" />
</g>
</g>
<g style="fill:#008484; fill-opacity:0.0; 
stroke:#008484; stroke-width:0; stroke-opacity:1; 
stroke-linecap:round; stroke-linejoin:round;">
<g >
</g>
<g style="fill:#840000; fill-opacity:0.0; 
stroke:#840000; stroke-width:0; stroke-opacity:1; 
stroke-linecap:round; stroke-linejoin:round;">
</g>
<g style="fill:#840000; fill-opacity:0.0; 
stroke:#840000; stroke-width:60; stroke-opacity:1; 
stroke-linecap:round; stroke-linejoin:round;">
<path style="fill:#840000; fill-opacity:0.0; 
stroke:#840000; stroke-width:60; stroke-opacity:1; 
stroke-linecap:round; stroke-linejoin:round;fill:none"
d="M 66500,40100
66500,40000
" /> 
<path style="fill:#840000; fill-opacity:0.0; 
stroke:#840000; stroke-width:60; stroke-opacity:1; 
stroke-linecap:round; stroke-linejoin:round;fill:none"
d="M 66500,41900
66500,42000
" /> 
<path style="fill:#840000; fill-opacity:0.0; 
stroke:#840000; stroke-width:60; stroke-opacity:1; 
stroke-linecap:round; stroke-linejoin:round;fill:none"
d="M 66500,40700
66100,40550
66500,40400
66900,40250
66500,40100
" /> 
<path style="fill:#840000; fill-opacity:0.0; 
stroke:#840000; stroke-width:60; stroke-opacity:1; 
stroke-linecap:round; stroke-linejoin:round;fill:none"
d="M 66500,41300
66100,41150
66500,41000
66900,40850
66500,40700
" /> 
<path style="fill:#840000; fill-opacity:0.0; 
stroke:#840000; stroke-width:60; stroke-opacity:1; 
stroke-linecap:round; stroke-linejoin:round;fill:none"
d="M 66500,41900
66100,41750
66500,41600
66900,41450
66500,41300
" /> 
<path d="M66500 42000
L66500 42500
" />
<path d="M66500 40000
L66500 39500
" />
</g>
<g style="fill:#008484; fill-opacity:0.0; 
stroke:#008484; stroke-width:60; stroke-opacity:1; 
stroke-linecap:round; stroke-linejoin:round;">
<text x="67700" y="40760"
textLength="1040" font-size="660" lengthAdjust="spacingAndGlyphs"
text-anchor="middle" opacity="0">R3</text>
<path d="M67610 40730
L67450 40490
" />
<path d="M67330 40730
L67330 40230
L67520 40230
L67560 40260
L67590 40280
L67610 40330
L67610 40400
L67590 40450
L67560 40470
L67520 40490
L67330 40490
" />
<path d="M67780 40230
L68090 40230
L67920 40420
L67990 40420
L68040 40450
L68060 40470
L68090 40520
L68090 40640
L68060 40680
L68040 40710
L67990 40730
L67850 40730
L67800 40710
L67780 40680
" />
<text x="67730" y="41670"
textLength="1110" font-size="660" lengthAdjust="spacingAndGlyphs"
text-anchor="middle" opacity="0">3Ω</text>
<path d="M67270 41140
L67580 41140
L67420 41330
L67490 41330
L67530 41360
L67560 41380
L67580 41430
L67580 41550
L67560 41590
L67530 41620
L67490 41640
L67340 41640
L67300 41620
L67270 41590
" />
<path d="M67770 41640
L67890 41640
L67890 41550
L67840 41520
L67800 41470
L67770 41400
L67770 41280
L67800 41210
L67840 41170
L67920 41140
L68010 41140
L68080 41170
L68130 41210
L68150 41280
L68150 41400
L68130 41470
L68080 41520
L68030 41550
L68030 41640
L68150 41640
" />
</g>
</g>
<g style="fill:#008484; fill-opacity:0.0; 
stroke:#008484; stroke-width:0; stroke-opacity:1; 
stroke-linecap:round; stroke-linejoin:round;">
<g >
</g>
<g style="fill:#840000; fill-opacity:0.0; 
stroke:#840000; stroke-width:0; stroke-opacity:1; 
stroke-linecap:round; stroke-linejoin:round;">
</g>
<g style="fill:#840000; fill-opacity:1.0; 
stroke:#840000; stroke-width:60; stroke-opacity:1; 
stroke-linecap:round; stroke-linejoin:round;">
<rect x="47600" y="28300" width="1800" height="100" rx="0" />
<rect x="47880" y="28530" width="1200" height="200" rx="0" />
</g>
<g style="fill:#840000; fill-opacity:0.0; 
stroke:#840000; stroke-width:60; stroke-opacity:1; 
stroke-linecap:round; stroke-linejoin:round;">
<path style="fill:#840000; fill-opacity:0.0; 
stroke:#840000; stroke-width:60; stroke-opacity:1; 
stroke-linecap:round; stroke-linejoin:round;fill:none"
d="M 48500,28700
48500,29000
" /> 
<path style="fill:#840000; fill-opacity:0.0; 
stroke:#840000; stroke-width:60; stroke-opacity:1; 
stroke-linecap:round; stroke-linejoin:round;fill:none"
d="M 48500,28300
48500,28000
" /> 
</g>
<g style="fill:#840000; fill-opacity:0.0; 
stroke:#840000; stroke-width:100; stroke-opacity:1; 
stroke-linecap:round; stroke-linejoin:round;">
<path style="fill:#840000; fill-opacity:0.0; 
stroke:#840000; stroke-width:100; stroke-opacity:1; 
stroke-linecap:round; stroke-linejoin:round;fill:none"
d="M 48700,27650
49100,27650
" /> 
<path style="fill:#840000; fill-opacity:0.0; 
stroke:#840000; stroke-width:100; stroke-opacity:1; 
stroke-linecap:round; stroke-linejoin:round;fill:none"
d="M 48900,27450
48900,27850
" /> 
</g>
<g style="fill:#840000; fill-opacity:0.0; 
stroke:#840000; stroke-width:60; stroke-opacity:1; 
stroke-linecap:round; stroke-linejoin:round;">
<path d="M48500 28000
L48500 27000
" />
<path d="M48500 29000
L48500 30000
" />
</g>
<g style="fill:#008484; fill-opacity:0.0; 
stroke:#008484; stroke-width:60; stroke-opacity:1; 
stroke-linecap:round; stroke-linejoin:round;">
<text x="50160" y="28310"
textLength="960" font-size="660" lengthAdjust="spacingAndGlyphs"
text-anchor="middle" opacity="0">V1</text>
<path d="M49750 27780
L49920 28280
L50080 27780
" />
<path d="M50510 28280
L50230 28280
" />
<path d="M50370 28280
L50370 27780
L50320 27850
L50270 27900
L50230 27920
" />
<text x="50400" y="29220"
textLength="1440" font-size="660" lengthAdjust="spacingAndGlyphs"
text-anchor="middle" opacity="0">15V</text>
<path d="M50090 29190
L49800 29190
" />
<path d="M49940 29190
L49940 28690
L49900 28760
L49850 28810
L49800 28830
" />
<path d="M50540 28690
L50300 28690
L50280 28930
L50300 28910
L50350 28880
L50470 28880
L50510 28910
L50540 28930
L50560 28980
L50560 29100
L50540 29140
L50510 29170
L50470 29190
L50350 29190
L50300 29170
L50280 29140
" />
<path d="M50700 28690
L50870 29190
L51040 28690
" />
</g>
</g>
<g style="fill:#008484; fill-opacity:0.0; 
stroke:#008484; stroke-width:0; stroke-opacity:1; 
stroke-linecap:round; stroke-linejoin:round;">
<g >
</g>
<g style="fill:#840000; fill-opacity:0.0; 
stroke:#840000; stroke-width:0; stroke-opacity:1; 
stroke-linecap:round; stroke-linejoin:round;">
</g>
<g style="fill:#840000; fill-opacity:0.0; 
stroke:#840000; stroke-width:60; stroke-opacity:1; 
stroke-linecap:round; stroke-linejoin:round;">
<circle cx="54000" cy="49500" r="1030" /> 
<path style="fill:#840000; fill-opacity:0.0; 
stroke:#840000; stroke-width:60; stroke-opacity:1; 
stroke-linecap:round; stroke-linejoin:round;fill:none"
d="M 54000,48500
54000,50500
" /> 
</g>
<g style="fill:#840000; fill-opacity:1.0; 
stroke:#840000; stroke-width:60; stroke-opacity:1; 
stroke-linecap:round; stroke-linejoin:round;">
<path style="fill:#840000; fill-opacity:1.0; 
stroke:#840000; stroke-width:60; stroke-opacity:1; 
stroke-linecap:round; stroke-linejoin:round;fill-rule:evenodd;"
d="M 54000,50500
54250,50000
53750,50000
Z" /> 
</g>
<g style="fill:#840000; fill-opacity:0.0; 
stroke:#840000; stroke-width:60; stroke-opacity:1; 
stroke-linecap:round; stroke-linejoin:round;">
<path d="M54000 50500
L54000 52500
" />
</g>
<g style="fill:#008484; fill-opacity:0.0; 
stroke:#008484; stroke-width:60; stroke-opacity:1; 
stroke-linecap:round; stroke-linejoin:round;">
<g transform="rotate(-90 53900 51500)">
<text x="53900" y="51500"
textLength="680" font-size="660" lengthAdjust="spacingAndGlyphs"
text-anchor="middle" opacity="0">+</text>
</g>
<path d="M53680 51690
L53680 51300
" />
<path d="M53870 51500
L53490 51500
" />
</g>
<g style="fill:#840000; fill-opacity:0.0; 
stroke:#840000; stroke-width:60; stroke-opacity:1; 
stroke-linecap:round; stroke-linejoin:round;">
<path d="M54000 48500
L54000 46500
" />
</g>
<g style="fill:#008484; fill-opacity:0.0; 
stroke:#008484; stroke-width:60; stroke-opacity:1; 
stroke-linecap:round; stroke-linejoin:round;">
<g transform="rotate(-90 53900 47500)">
<text x="53900" y="47500"
textLength="680" font-size="660" lengthAdjust="spacingAndGlyphs"
text-anchor="middle" opacity="0">-</text>
</g>
<path d="M53680 47690
L53680 47300
" />
<text x="55690" y="49260"
textLength="770" font-size="660" lengthAdjust="spacingAndGlyphs"
text-anchor="middle" opacity="0">I1</text>
<path d="M55450 49230
L55450 48730
" />
<path d="M55950 49230
L55660 49230
" />
<path d="M55800 49230
L55800 48730
L55760 48800
L55710 48850
L55660 48870
" />
<text x="56120" y="50170"
textLength="1630" font-size="660" lengthAdjust="spacingAndGlyphs"
text-anchor="middle" opacity="0">2mA</text>
<path d="M55420 49690
L55450 49670
L55500 49640
L55620 49640
L55660 49670
L55690 49690
L55710 49740
L55710 49780
L55690 49860
L55400 50140
L55710 50140
" />
<path d="M55920 50140
L55920 49810
" />
<path d="M55920 49860
L55950 49830
L56000 49810
L56070 49810
L56120 49830
L56140 49880
L56140 50140
" />
<path d="M56140 49880
L56160 49830
L56210 49810
L56280 49810
L56330 49830
L56350 49880
L56350 50140
" />
<path d="M56570 50000
L56810 50000
" />
<path d="M56520 50140
L56690 49640
L56850 50140
" />
</g>
</g>
<g style="fill:#008484; fill-opacity:0.0; 
stroke:#008484; stroke-width:0; stroke-opacity:1; 
stroke-linecap:round; stroke-linejoin:round;">
<g >
</g>
<g style="fill:#840000; fill-opacity:0.0; 
stroke:#840000; stroke-width:0; stroke-opacity:1; 
stroke-linecap:round; stroke-linejoin:round;">
</g>
<g style="fill:#840000; fill-opacity:0.0; 
stroke:#840000; stroke-width:60; stroke-opacity:1; 
stroke-linecap:round; stroke-linejoin:round;">
<path style="fill:#840000; fill-opacity:0.0; 
stroke:#840000; stroke-width:60; stroke-opacity:1; 
stroke-linecap:round; stroke-linejoin:round;fill:none"
d="M 59500,48600
59500,48500
" /> 
<path style="fill:#840000; fill-opacity:0.0; 
stroke:#840000; stroke-width:60; stroke-opacity:1; 
stroke-linecap:round; stroke-linejoin:round;fill:none"
d="M 59500,50400
59500,50500
" /> 
<path style="fill:#840000; fill-opacity:0.0; 
stroke:#840000; stroke-width:60; stroke-opacity:1; 
stroke-linecap:round; stroke-linejoin:round;fill:none"
d="M 59500,49200
59100,49050
59500,48900
59900,48750
59500,48600
" /> 
<path style="fill:#840000; fill-opacity:0.0; 
stroke:#840000; stroke-width:60; stroke-opacity:1; 
stroke-linecap:round; stroke-linejoin:round;fill:none"
d="M 59500,49800
59100,49650
59500,49500
59900,49350
59500,49200
" /> 
<path style="fill:#840000; fill-opacity:0.0; 
stroke:#840000; stroke-width:60; stroke-opacity:1; 
stroke-linecap:round; stroke-linejoin:round;fill:none"
d="M 59500,50400
59100,50250
59500,50100
59900,49950
59500,49800
" /> 
<path d="M59500 50500
L59500 51000
" />
<path d="M59500 48500
L59500 48000
" />
</g>
<g style="fill:#008484; fill-opacity:0.0; 
stroke:#008484; stroke-width:60; stroke-opacity:1; 
stroke-linecap:round; stroke-linejoin:round;">
<text x="60700" y="49260"
textLength="1040" font-size="660" lengthAdjust="spacingAndGlyphs"
text-anchor="middle" opacity="0">R2</text>
<path d="M60610 49230
L60450 48990
" />
<path d="M60330 49230
L60330 48730
L60520 48730
L60560 48760
L60590 48780
L60610 48830
L60610 48900
L60590 48950
L60560 48970
L60520 48990
L60330 48990
" />
<path d="M60800 48780
L60830 48760
L60870 48730
L60990 48730
L61040 48760
L61060 48780
L61090 48830
L61090 48870
L61060 48950
L60780 49230
L61090 49230
" />
<text x="60730" y="50170"
textLength="1110" font-size="660" lengthAdjust="spacingAndGlyphs"
text-anchor="middle" opacity="0">5Ω</text>
<path d="M60560 49640
L60320 49640
L60300 49880
L60320 49860
L60370 49830
L60490 49830
L60530 49860
L60560 49880
L60580 49930
L60580 50050
L60560 50090
L60530 50120
L60490 50140
L60370 50140
L60320 50120
L60300 50090
" />
<path d="M60770 50140
L60890 50140
L60890 50050
L60840 50020
L60800 49970
L60770 49900
L60770 49780
L60800 49710
L60840 49670
L60920 49640
L61010 49640
L61080 49670
L61130 49710
L61150 49780
L61150 49900
L61130 49970
L61080 50020
L61030 50050
L61030 50140
L61150 50140
" />
</g>
</g>
<g style="fill:#008484; fill-opacity:0.0; 
stroke:#008484; stroke-width:0; stroke-opacity:1; 
stroke-linecap:round; stroke-linejoin:round;">
<g >
</g>
<g style="fill:#840000; fill-opacity:0.0; 
stroke:#840000; stroke-width:0; stroke-opacity:1; 
stroke-linecap:round; stroke-linejoin:round;">
</g>
<g style="fill:#840000; fill-opacity:0.0; 
stroke:#840000; stroke-width:60; stroke-opacity:1; 
stroke-linecap:round; stroke-linejoin:round;">
<path style="fill:#840000; fill-opacity:0.0; 
stroke:#840000; stroke-width:60; stroke-opacity:1; 
stroke-linecap:round; stroke-linejoin:round;fill:none"
d="M 59500,41600
59500,41500
" /> 
<path style="fill:#840000; fill-opacity:0.0; 
stroke:#840000; stroke-width:60; stroke-opacity:1; 
stroke-linecap:round; stroke-linejoin:round;fill:none"
d="M 59500,43400
59500,43500
" /> 
<path style="fill:#840000; fill-opacity:0.0; 
stroke:#840000; stroke-width:60; stroke-opacity:1; 
stroke-linecap:round; stroke-linejoin:round;fill:none"
d="M 59500,42200
59100,42050
59500,41900
59900,41750
59500,41600
" /> 
<path style="fill:#840000; fill-opacity:0.0; 
stroke:#840000; stroke-width:60; stroke-opacity:1; 
stroke-linecap:round; stroke-linejoin:round;fill:none"
d="M 59500,42800
59100,42650
59500,42500
59900,42350
59500,42200
" /> 
<path style="fill:#840000; fill-opacity:0.0; 
stroke:#840000; stroke-width:60; stroke-opacity:1; 
stroke-linecap:round; stroke-linejoin:round;fill:none"
d="M 59500,43400
59100,43250
59500,43100
59900,42950
59500,42800
" /> 
<path d="M59500 43500
L59500 44000
" />
<path d="M59500 41500
L59500 41000
" />
</g>
<g style="fill:#008484; fill-opacity:0.0; 
stroke:#008484; stroke-width:60; stroke-opacity:1; 
stroke-linecap:round; stroke-linejoin:round;">
<text x="60700" y="42260"
textLength="1040" font-size="660" lengthAdjust="spacingAndGlyphs"
text-anchor="middle" opacity="0">R1</text>
<path d="M60610 42230
L60450 41990
" />
<path d="M60330 42230
L60330 41730
L60520 41730
L60560 41760
L60590 41780
L60610 41830
L60610 41900
L60590 41950
L60560 41970
L60520 41990
L60330 41990
" />
<path d="M61090 42230
L60800 42230
" />
<path d="M60950 42230
L60950 41730
L60900 41800
L60850 41850
L60800 41870
" />
<text x="60730" y="43170"
textLength="1110" font-size="660" lengthAdjust="spacingAndGlyphs"
text-anchor="middle" opacity="0">2Ω</text>
<path d="M60300 42690
L60320 42670
L60370 42640
L60490 42640
L60530 42670
L60560 42690
L60580 42740
L60580 42780
L60560 42860
L60270 43140
L60580 43140
" />
<path d="M60770 43140
L60890 43140
L60890 43050
L60840 43020
L60800 42970
L60770 42900
L60770 42780
L60800 42710
L60840 42670
L60920 42640
L61010 42640
L61080 42670
L61130 42710
L61150 42780
L61150 42900
L61130 42970
L61080 43020
L61030 43050
L61030 43140
L61150 43140
" />
</g>
</g>
<g style="fill:#008484; fill-opacity:0.0; 
stroke:#008484; stroke-width:0; stroke-opacity:1; 
stroke-linecap:round; stroke-linejoin:round;">
<g >
</g>
<g style="fill:#840000; fill-opacity:0.0; 
stroke:#840000; stroke-width:0; stroke-opacity:1; 
stroke-linecap:round; stroke-linejoin:round;">
</g>
<g style="fill:#840000; fill-opacity:1.0; 
stroke:#840000; stroke-width:60; stroke-opacity:1; 
stroke-linecap:round; stroke-linejoin:round;">
<rect x="46100" y="45800" width="1800" height="100" rx="0" />
<rect x="46380" y="46030" width="1200" height="200" rx="0" />
</g>
<g style="fill:#840000; fill-opacity:0.0; 
stroke:#840000; stroke-width:60; stroke-opacity:1; 
stroke-linecap:round; stroke-linejoin:round;">
<path style="fill:#840000; fill-opacity:0.0; 
stroke:#840000; stroke-width:60; stroke-opacity:1; 
stroke-linecap:round; stroke-linejoin:round;fill:none"
d="M 47000,46200
47000,46500
" /> 
<path style="fill:#840000; fill-opacity:0.0; 
stroke:#840000; stroke-width:60; stroke-opacity:1; 
stroke-linecap:round; stroke-linejoin:round;fill:none"
d="M 47000,45800
47000,45500
" /> 
</g>
<g style="fill:#840000; fill-opacity:0.0; 
stroke:#840000; stroke-width:100; stroke-opacity:1; 
stroke-linecap:round; stroke-linejoin:round;">
<path style="fill:#840000; fill-opacity:0.0; 
stroke:#840000; stroke-width:100; stroke-opacity:1; 
stroke-linecap:round; stroke-linejoin:round;fill:none"
d="M 47200,45150
47600,45150
" /> 
<path style="fill:#840000; fill-opacity:0.0; 
stroke:#840000; stroke-width:100; stroke-opacity:1; 
stroke-linecap:round; stroke-linejoin:round;fill:none"
d="M 47400,44950
47400,45350
" /> 
</g>
<g style="fill:#840000; fill-opacity:0.0; 
stroke:#840000; stroke-width:60; stroke-opacity:1; 
stroke-linecap:round; stroke-linejoin:round;">
<path d="M47000 45500
L47000 44500
" />
<path d="M47000 46500
L47000 47500
" />
</g>
<g style="fill:#008484; fill-opacity:0.0; 
stroke:#008484; stroke-width:60; stroke-opacity:1; 
stroke-linecap:round; stroke-linejoin:round;">
<text x="48660" y="45810"
textLength="960" font-size="660" lengthAdjust="spacingAndGlyphs"
text-anchor="middle" opacity="0">V1</text>
<path d="M48250 45280
L48420 45780
L48580 45280
" />
<path d="M49010 45780
L48730 45780
" />
<path d="M48870 45780
L48870 45280
L48820 45350
L48770 45400
L48730 45420
" />
<text x="48660" y="46720"
textLength="960" font-size="660" lengthAdjust="spacingAndGlyphs"
text-anchor="middle" opacity="0">5V</text>
<path d="M48560 46190
L48320 46190
L48300 46430
L48320 46410
L48370 46380
L48490 46380
L48540 46410
L48560 46430
L48580 46480
L48580 46600
L48560 46640
L48540 46670
L48490 46690
L48370 46690
L48320 46670
L48300 46640
" />
<path d="M48730 46190
L48890 46690
L49060 46190
" />
</g>
</g>
<g style="fill:#008484; fill-opacity:0.0; 
stroke:#008484; stroke-width:0; stroke-opacity:1; 
stroke-linecap:round; stroke-linejoin:round;">
<g >
</g>
<g style="fill:#840000; fill-opacity:0.0; 
stroke:#840000; stroke-width:0; stroke-opacity:1; 
stroke-linecap:round; stroke-linejoin:round;">
</g>
<g style="fill:#840000; fill-opacity:0.0; 
stroke:#840000; stroke-width:60; stroke-opacity:1; 
stroke-linecap:round; stroke-linejoin:round;">
<path d="M66999.1 29999.1 A2120 2120 0.0 0 0 66999.1 27000.9" />
</g>
<g style="fill:#840000; fill-opacity:1.0; 
stroke:#840000; stroke-width:60; stroke-opacity:1; 
stroke-linecap:round; stroke-linejoin:round;">
<path style="fill:#840000; fill-opacity:1.0; 
stroke:#840000; stroke-width:60; stroke-opacity:1; 
stroke-linecap:round; stroke-linejoin:round;fill-rule:evenodd;"
d="M 67000,30000
67400,29800
67100,29600
Z" /> 
</g>
<g style="fill:#008484; fill-opacity:0.0; 
stroke:#008484; stroke-width:60; stroke-opacity:1; 
stroke-linecap:round; stroke-linejoin:round;">
<text x="68340" y="28720"
textLength="890" font-size="660" lengthAdjust="spacingAndGlyphs"
text-anchor="middle" opacity="0">Vx</text>
<path d="M67970 28190
L68130 28690
L68300 28190
" />
<path d="M68420 28690
L68680 28360
" />
<path d="M68420 28360
L68680 28690
" />
</g>
</g>
<g style="fill:#008484; fill-opacity:0.0; 
stroke:#008484; stroke-width:0; stroke-opacity:1; 
stroke-linecap:round; stroke-linejoin:round;">
<g >
</g>
<g style="fill:#840000; fill-opacity:0.0; 
stroke:#840000; stroke-width:0; stroke-opacity:1; 
stroke-linecap:round; stroke-linejoin:round;">
</g>
<g style="fill:#840000; fill-opacity:1.0; 
stroke:#840000; stroke-width:60; stroke-opacity:1; 
stroke-linecap:round; stroke-linejoin:round;">
<rect x="57600" y="30300" width="1800" height="100" rx="0" />
<rect x="57880" y="30530" width="1200" height="200" rx="0" />
</g>
<g style="fill:#840000; fill-opacity:0.0; 
stroke:#840000; stroke-width:60; stroke-opacity:1; 
stroke-linecap:round; stroke-linejoin:round;">
<path style="fill:#840000; fill-opacity:0.0; 
stroke:#840000; stroke-width:60; stroke-opacity:1; 
stroke-linecap:round; stroke-linejoin:round;fill:none"
d="M 58500,30700
58500,31000
" /> 
<path style="fill:#840000; fill-opacity:0.0; 
stroke:#840000; stroke-width:60; stroke-opacity:1; 
stroke-linecap:round; stroke-linejoin:round;fill:none"
d="M 58500,30300
58500,30000
" /> 
</g>
<g style="fill:#840000; fill-opacity:0.0; 
stroke:#840000; stroke-width:100; stroke-opacity:1; 
stroke-linecap:round; stroke-linejoin:round;">
<path style="fill:#840000; fill-opacity:0.0; 
stroke:#840000; stroke-width:100; stroke-opacity:1; 
stroke-linecap:round; stroke-linejoin:round;fill:none"
d="M 58700,29650
59100,29650
" /> 
<path style="fill:#840000; fill-opacity:0.0; 
stroke:#840000; stroke-width:100; stroke-opacity:1; 
stroke-linecap:round; stroke-linejoin:round;fill:none"
d="M 58900,29450
58900,29850
" /> 
</g>
<g style="fill:#840000; fill-opacity:0.0; 
stroke:#840000; stroke-width:60; stroke-opacity:1; 
stroke-linecap:round; stroke-linejoin:round;">
<path d="M58500 30000
L58500 29000
" />
<path d="M58500 31000
L58500 32000
" />
</g>
<g style="fill:#008484; fill-opacity:0.0; 
stroke:#008484; stroke-width:60; stroke-opacity:1; 
stroke-linecap:round; stroke-linejoin:round;">
<text x="60160" y="30310"
textLength="960" font-size="660" lengthAdjust="spacingAndGlyphs"
text-anchor="middle" opacity="0">V2</text>
<path d="M59750 29780
L59920 30280
L60080 29780
" />
<path d="M60230 29830
L60250 29810
L60300 29780
L60420 29780
L60460 29810
L60490 29830
L60510 29880
L60510 29920
L60490 30000
L60200 30280
L60510 30280
" />
<text x="60400" y="31220"
textLength="1440" font-size="660" lengthAdjust="spacingAndGlyphs"
text-anchor="middle" opacity="0">24V</text>
<path d="M59800 30740
L59820 30720
L59870 30690
L59990 30690
L60040 30720
L60060 30740
L60090 30790
L60090 30830
L60060 30910
L59780 31190
L60090 31190
" />
<path d="M60510 30860
L60510 31190
" />
<path d="M60400 30670
L60280 31020
L60590 31020
" />
<path d="M60700 30690
L60870 31190
L61040 30690
" />
</g>
</g>
<g style="fill:#008484; fill-opacity:0.0; 
stroke:#008484; stroke-width:0; stroke-opacity:1; 
stroke-linecap:round; stroke-linejoin:round;">
<g >
</g>
<g style="fill:#840000; fill-opacity:0.0; 
stroke:#840000; stroke-width:0; stroke-opacity:1; 
stroke-linecap:round; stroke-linejoin:round;">
</g>
<g style="fill:#840000; fill-opacity:0.0; 
stroke:#840000; stroke-width:60; stroke-opacity:1; 
stroke-linecap:round; stroke-linejoin:round;">
<path style="fill:#840000; fill-opacity:0.0; 
stroke:#840000; stroke-width:60; stroke-opacity:1; 
stroke-linecap:round; stroke-linejoin:round;fill:none"
d="M 64500,27600
64500,27500
" /> 
<path style="fill:#840000; fill-opacity:0.0; 
stroke:#840000; stroke-width:60; stroke-opacity:1; 
stroke-linecap:round; stroke-linejoin:round;fill:none"
d="M 64500,29400
64500,29500
" /> 
<path style="fill:#840000; fill-opacity:0.0; 
stroke:#840000; stroke-width:60; stroke-opacity:1; 
stroke-linecap:round; stroke-linejoin:round;fill:none"
d="M 64500,28200
64100,28050
64500,27900
64900,27750
64500,27600
" /> 
<path style="fill:#840000; fill-opacity:0.0; 
stroke:#840000; stroke-width:60; stroke-opacity:1; 
stroke-linecap:round; stroke-linejoin:round;fill:none"
d="M 64500,28800
64100,28650
64500,28500
64900,28350
64500,28200
" /> 
<path style="fill:#840000; fill-opacity:0.0; 
stroke:#840000; stroke-width:60; stroke-opacity:1; 
stroke-linecap:round; stroke-linejoin:round;fill:none"
d="M 64500,29400
64100,29250
64500,29100
64900,28950
64500,28800
" /> 
<path d="M64500 29500
L64500 30000
" />
<path d="M64500 27500
L64500 27000
" />
</g>
<g style="fill:#008484; fill-opacity:0.0; 
stroke:#008484; stroke-width:60; stroke-opacity:1; 
stroke-linecap:round; stroke-linejoin:round;">
<text x="65700" y="28260"
textLength="1040" font-size="660" lengthAdjust="spacingAndGlyphs"
text-anchor="middle" opacity="0">R3</text>
<path d="M65610 28230
L65450 27990
" />
<path d="M65330 28230
L65330 27730
L65520 27730
L65560 27760
L65590 27780
L65610 27830
L65610 27900
L65590 27950
L65560 27970
L65520 27990
L65330 27990
" />
<path d="M65780 27730
L66090 27730
L65920 27920
L65990 27920
L66040 27950
L66060 27970
L66090 28020
L66090 28140
L66060 28180
L66040 28210
L65990 28230
L65850 28230
L65800 28210
L65780 28180
" />
<text x="66210" y="29170"
textLength="2060" font-size="660" lengthAdjust="spacingAndGlyphs"
text-anchor="middle" opacity="0">270Ω</text>
<path d="M65300 28690
L65320 28670
L65370 28640
L65490 28640
L65540 28670
L65560 28690
L65590 28740
L65590 28780
L65560 28860
L65280 29140
L65590 29140
" />
<path d="M65750 28640
L66090 28640
L65870 29140
" />
<path d="M66370 28640
L66420 28640
L66470 28670
L66490 28690
L66510 28740
L66540 28830
L66540 28950
L66510 29050
L66490 29090
L66470 29120
L66420 29140
L66370 29140
L66320 29120
L66300 29090
L66280 29050
L66250 28950
L66250 28830
L66280 28740
L66300 28690
L66320 28670
L66370 28640
" />
<path d="M66730 29140
L66850 29140
L66850 29050
L66800 29020
L66750 28970
L66730 28900
L66730 28780
L66750 28710
L66800 28670
L66870 28640
L66970 28640
L67040 28670
L67090 28710
L67110 28780
L67110 28900
L67090 28970
L67040 29020
L66990 29050
L66990 29140
L67110 29140
" />
</g>
</g>
<g style="fill:#008484; fill-opacity:0.0; 
stroke:#008484; stroke-width:0; stroke-opacity:1; 
stroke-linecap:round; stroke-linejoin:round;">
<g >
</g>
<g style="fill:#840000; fill-opacity:0.0; 
stroke:#840000; stroke-width:0; stroke-opacity:1; 
stroke-linecap:round; stroke-linejoin:round;">
</g>
<g style="fill:#840000; fill-opacity:0.0; 
stroke:#840000; stroke-width:60; stroke-opacity:1; 
stroke-linecap:round; stroke-linejoin:round;">
<path style="fill:#840000; fill-opacity:0.0; 
stroke:#840000; stroke-width:60; stroke-opacity:1; 
stroke-linecap:round; stroke-linejoin:round;fill:none"
d="M 52600,25000
52500,25000
" /> 
<path style="fill:#840000; fill-opacity:0.0; 
stroke:#840000; stroke-width:60; stroke-opacity:1; 
stroke-linecap:round; stroke-linejoin:round;fill:none"
d="M 54400,25000
54500,25000
" /> 
<path style="fill:#840000; fill-opacity:0.0; 
stroke:#840000; stroke-width:60; stroke-opacity:1; 
stroke-linecap:round; stroke-linejoin:round;fill:none"
d="M 53200,25000
53050,25400
52900,25000
52750,24600
52600,25000
" /> 
<path style="fill:#840000; fill-opacity:0.0; 
stroke:#840000; stroke-width:60; stroke-opacity:1; 
stroke-linecap:round; stroke-linejoin:round;fill:none"
d="M 53800,25000
53650,25400
53500,25000
53350,24600
53200,25000
" /> 
<path style="fill:#840000; fill-opacity:0.0; 
stroke:#840000; stroke-width:60; stroke-opacity:1; 
stroke-linecap:round; stroke-linejoin:round;fill:none"
d="M 54400,25000
54250,25400
54100,25000
53950,24600
53800,25000
" /> 
<path d="M54500 25000
L55000 25000
" />
<path d="M52500 25000
L52000 25000
" />
</g>
<g style="fill:#008484; fill-opacity:0.0; 
stroke:#008484; stroke-width:60; stroke-opacity:1; 
stroke-linecap:round; stroke-linejoin:round;">
<text x="53500" y="23220"
textLength="1040" font-size="660" lengthAdjust="spacingAndGlyphs"
text-anchor="middle" opacity="0">R1</text>
<path d="M53410 23190
L53250 22950
" />
<path d="M53130 23190
L53130 22690
L53320 22690
L53360 22720
L53390 22740
L53410 22790
L53410 22860
L53390 22910
L53360 22930
L53320 22950
L53130 22950
" />
<path d="M53890 23190
L53600 23190
" />
<path d="M53750 23190
L53750 22690
L53700 22760
L53650 22810
L53600 22830
" />
<text x="53500" y="24130"
textLength="2060" font-size="660" lengthAdjust="spacingAndGlyphs"
text-anchor="middle" opacity="0">100Ω</text>
<path d="M52880 24100
L52590 24100
" />
<path d="M52730 24100
L52730 23600
L52690 23670
L52640 23720
L52590 23740
" />
<path d="M53190 23600
L53230 23600
L53280 23630
L53300 23650
L53330 23700
L53350 23790
L53350 23910
L53330 24010
L53300 24050
L53280 24080
L53230 24100
L53190 24100
L53140 24080
L53110 24050
L53090 24010
L53070 23910
L53070 23790
L53090 23700
L53110 23650
L53140 23630
L53190 23600
" />
<path d="M53660 23600
L53710 23600
L53760 23630
L53780 23650
L53800 23700
L53830 23790
L53830 23910
L53800 24010
L53780 24050
L53760 24080
L53710 24100
L53660 24100
L53610 24080
L53590 24050
L53570 24010
L53540 23910
L53540 23790
L53570 23700
L53590 23650
L53610 23630
L53660 23600
" />
<path d="M54020 24100
L54140 24100
L54140 24010
L54090 23980
L54040 23930
L54020 23860
L54020 23740
L54040 23670
L54090 23630
L54160 23600
L54260 23600
L54330 23630
L54380 23670
L54400 23740
L54400 23860
L54380 23930
L54330 23980
L54280 24010
L54280 24100
L54400 24100
" />
</g>
</g>
<g style="fill:#008484; fill-opacity:0.0; 
stroke:#008484; stroke-width:0; stroke-opacity:1; 
stroke-linecap:round; stroke-linejoin:round;">
<g >
</g>
<g style="fill:#840000; fill-opacity:0.0; 
stroke:#840000; stroke-width:0; stroke-opacity:1; 
stroke-linecap:round; stroke-linejoin:round;">
</g>
<g style="fill:#840000; fill-opacity:0.0; 
stroke:#840000; stroke-width:60; stroke-opacity:1; 
stroke-linecap:round; stroke-linejoin:round;">
<path style="fill:#840000; fill-opacity:0.0; 
stroke:#840000; stroke-width:60; stroke-opacity:1; 
stroke-linecap:round; stroke-linejoin:round;fill:none"
d="M 58500,26100
58500,26000
" /> 
<path style="fill:#840000; fill-opacity:0.0; 
stroke:#840000; stroke-width:60; stroke-opacity:1; 
stroke-linecap:round; stroke-linejoin:round;fill:none"
d="M 58500,27900
58500,28000
" /> 
<path style="fill:#840000; fill-opacity:0.0; 
stroke:#840000; stroke-width:60; stroke-opacity:1; 
stroke-linecap:round; stroke-linejoin:round;fill:none"
d="M 58500,26700
58100,26550
58500,26400
58900,26250
58500,26100
" /> 
<path style="fill:#840000; fill-opacity:0.0; 
stroke:#840000; stroke-width:60; stroke-opacity:1; 
stroke-linecap:round; stroke-linejoin:round;fill:none"
d="M 58500,27300
58100,27150
58500,27000
58900,26850
58500,26700
" /> 
<path style="fill:#840000; fill-opacity:0.0; 
stroke:#840000; stroke-width:60; stroke-opacity:1; 
stroke-linecap:round; stroke-linejoin:round;fill:none"
d="M 58500,27900
58100,27750
58500,27600
58900,27450
58500,27300
" /> 
<path d="M58500 28000
L58500 28500
" />
<path d="M58500 26000
L58500 25500
" />
</g>
<g style="fill:#008484; fill-opacity:0.0; 
stroke:#008484; stroke-width:60; stroke-opacity:1; 
stroke-linecap:round; stroke-linejoin:round;">
<text x="59700" y="26760"
textLength="1040" font-size="660" lengthAdjust="spacingAndGlyphs"
text-anchor="middle" opacity="0">R2</text>
<path d="M59610 26730
L59450 26490
" />
<path d="M59330 26730
L59330 26230
L59520 26230
L59560 26260
L59590 26280
L59610 26330
L59610 26400
L59590 26450
L59560 26470
L59520 26490
L59330 26490
" />
<path d="M59800 26280
L59830 26260
L59870 26230
L59990 26230
L60040 26260
L60060 26280
L60090 26330
L60090 26370
L60060 26450
L59780 26730
L60090 26730
" />
<text x="60210" y="27670"
textLength="2060" font-size="660" lengthAdjust="spacingAndGlyphs"
text-anchor="middle" opacity="0">180Ω</text>
<path d="M59590 27640
L59300 27640
" />
<path d="M59440 27640
L59440 27140
L59400 27210
L59350 27260
L59300 27280
" />
<path d="M59870 27360
L59820 27330
L59800 27310
L59780 27260
L59780 27240
L59800 27190
L59820 27170
L59870 27140
L59970 27140
L60010 27170
L60040 27190
L60060 27240
L60060 27260
L60040 27310
L60010 27330
L59970 27360
L59870 27360
L59820 27380
L59800 27400
L59780 27450
L59780 27550
L59800 27590
L59820 27620
L59870 27640
L59970 27640
L60010 27620
L60040 27590
L60060 27550
L60060 27450
L60040 27400
L60010 27380
L59970 27360
" />
<path d="M60370 27140
L60420 27140
L60470 27170
L60490 27190
L60510 27240
L60540 27330
L60540 27450
L60510 27550
L60490 27590
L60470 27620
L60420 27640
L60370 27640
L60320 27620
L60300 27590
L60280 27550
L60250 27450
L60250 27330
L60280 27240
L60300 27190
L60320 27170
L60370 27140
" />
<path d="M60730 27640
L60850 27640
L60850 27550
L60800 27520
L60750 27470
L60730 27400
L60730 27280
L60750 27210
L60800 27170
L60870 27140
L60970 27140
L61040 27170
L61090 27210
L61110 27280
L61110 27400
L61090 27470
L61040 27520
L60990 27550
L60990 27640
L61110 27640
" />
</g>
</g>
<g style="fill:#008484; fill-opacity:0.0; 
stroke:#008484; stroke-width:60; stroke-opacity:1; 
stroke-linecap:round; stroke-linejoin:round;">
</g>
<g style="fill:#008400; fill-opacity:0.0; 
stroke:#008400; stroke-width:60; stroke-opacity:1; 
stroke-linecap:round; stroke-linejoin:round;">
<path d="M59500 44000
L59500 46000
" />
<path d="M55000 25000
L58500 25000
" />
<path d="M66500 52500
L66500 53000
" />
<path d="M66500 53000
L59500 53000
" />
<path d="M47000 53000
L47000 47500
" />
<path d="M59500 41000
L59500 39000
" />
<path d="M48500 25000
L48500 27000
" />
<path d="M59500 39000
L66500 39000
" />
<path d="M59500 46000
L59500 48000
" />
<path d="M66500 49000
L66500 49500
" />
<path d="M59500 51000
L59500 53000
" />
<path d="M59500 53000
L54000 53000
" />
<path d="M54000 52500
L54000 53000
" />
<path d="M54000 53000
L47000 53000
" />
<path d="M54000 46500
L54000 46000
" />
<path d="M54000 46000
L59500 46000
" />
<path d="M66500 39000
L66500 39500
" />
<path d="M48500 32500
L58500 32500
" />
<path d="M58500 32500
L58500 32000
" />
<path d="M48500 30000
L48500 32500
" />
<path d="M58500 25000
L64500 25000
" />
<path d="M64500 25000
L64500 27000
" />
<path d="M64500 30000
L64500 32500
" />
<path d="M64500 32500
L58500 32500
" />
<path d="M48500 25000
L52000 25000
" />
<path d="M58500 29000
L58500 28500
" />
<path d="M58500 25000
L58500 25500
" />
<path d="M47000 44500
L47000 39000
" />
<path d="M47000 39000
L59500 39000
" />
<path d="M66500 42500
L66500 43000
" />
</g>
<g style="fill:#0000C2; fill-opacity:0.0; 
stroke:#0000C2; stroke-width:60; stroke-opacity:1; 
stroke-linecap:round; stroke-linejoin:round;">
<text x="44500" y="22400"
textLength="850" font-size="660" lengthAdjust="spacingAndGlyphs"
text-anchor="start" opacity="0">a)</text>
<path d="M44860 22370
L44860 22110
L44830 22060
L44790 22040
L44690 22040
L44640 22060
" />
<path d="M44860 22350
L44810 22370
L44690 22370
L44640 22350
L44620 22300
L44620 22250
L44640 22200
L44690 22180
L44810 22180
L44860 22160
" />
<path d="M45050 22560
L45070 22540
L45120 22470
L45140 22420
L45170 22350
L45190 22230
L45190 22130
L45170 22010
L45140 21940
L45120 21900
L45070 21820
L45050 21800
" />
<text x="44500" y="37900"
textLength="850" font-size="660" lengthAdjust="spacingAndGlyphs"
text-anchor="start" opacity="0">b)</text>
<path d="M44640 37870
L44640 37370
" />
<path d="M44640 37560
L44690 37540
L44790 37540
L44830 37560
L44860 37590
L44880 37630
L44880 37780
L44860 37820
L44830 37850
L44790 37870
L44690 37870
L44640 37850
" />
<path d="M45050 38060
L45070 38040
L45120 37970
L45140 37920
L45170 37850
L45190 37730
L45190 37630
L45170 37510
L45140 37440
L45120 37400
L45070 37320
L45050 37300
" />
</g>
<g style="fill:#0000C2; fill-opacity:0.0; 
stroke:#0000C2; stroke-width:0; stroke-opacity:1; 
stroke-linecap:round; stroke-linejoin:round;">
</g>
<g style="fill:#008400; fill-opacity:0.0; 
stroke:#008400; stroke-width:0; stroke-opacity:1; 
stroke-linecap:round; stroke-linejoin:round;">
</g>
<g style="fill:#008400; fill-opacity:1.0; 
stroke:#008400; stroke-width:100; stroke-opacity:1; 
stroke-linecap:round; stroke-linejoin:round;">
<circle cx="58500" cy="32500" r="200" /> 
</g>
<g style="fill:#008400; fill-opacity:1.0; 
stroke:#008400; stroke-width:0; stroke-opacity:1; 
stroke-linecap:round; stroke-linejoin:round;">
</g>
<g style="fill:#008400; fill-opacity:1.0; 
stroke:#008400; stroke-width:100; stroke-opacity:1; 
stroke-linecap:round; stroke-linejoin:round;">
<circle cx="59500" cy="53000" r="200" /> 
</g>
<g style="fill:#008400; fill-opacity:1.0; 
stroke:#008400; stroke-width:0; stroke-opacity:1; 
stroke-linecap:round; stroke-linejoin:round;">
</g>
<g style="fill:#008400; fill-opacity:1.0; 
stroke:#008400; stroke-width:100; stroke-opacity:1; 
stroke-linecap:round; stroke-linejoin:round;">
<circle cx="59500" cy="39000" r="200" /> 
</g>
<g style="fill:#008400; fill-opacity:1.0; 
stroke:#008400; stroke-width:0; stroke-opacity:1; 
stroke-linecap:round; stroke-linejoin:round;">
</g>
<g style="fill:#008400; fill-opacity:1.0; 
stroke:#008400; stroke-width:100; stroke-opacity:1; 
stroke-linecap:round; stroke-linejoin:round;">
<circle cx="54000" cy="53000" r="200" /> 
</g>
<g style="fill:#008400; fill-opacity:1.0; 
stroke:#008400; stroke-width:0; stroke-opacity:1; 
stroke-linecap:round; stroke-linejoin:round;">
</g>
<g style="fill:#008400; fill-opacity:1.0; 
stroke:#008400; stroke-width:100; stroke-opacity:1; 
stroke-linecap:round; stroke-linejoin:round;">
<circle cx="58500" cy="25000" r="200" /> 
</g>
<g style="fill:#008400; fill-opacity:1.0; 
stroke:#008400; stroke-width:0; stroke-opacity:1; 
stroke-linecap:round; stroke-linejoin:round;">
</g>
<g style="fill:#008400; fill-opacity:1.0; 
stroke:#008400; stroke-width:100; stroke-opacity:1; 
stroke-linecap:round; stroke-linejoin:round;">
<circle cx="59500" cy="46000" r="200" /> 
</g> 
</svg>
