<?xml version="1.0" standalone="no"?>
 <!DOCTYPE svg PUBLIC "-//W3C//DTD SVG 1.1//EN" 
 "http://www.w3.org/Graphics/SVG/1.1/DTD/svg11.dtd"> 
<svg
  xmlns:svg="http://www.w3.org/2000/svg"
  xmlns="http://www.w3.org/2000/svg"
  xmlns:xlink="http://www.w3.org/1999/xlink"
  version="1.1"
  width="29.700220cm" height="21.000720cm" viewBox="0 0 116930 82680">
<title>SVG Picture created as questao-08.svg date 2020/11/19 00:17:51 </title>
  <desc>Picture generated by Eeschema-SVG </desc>
<g style="fill:#000000; fill-opacity:1;stroke:#000000; stroke-opacity:1;
stroke-linecap:round; stroke-linejoin:round;"
 transform="translate(0 0) scale(1 1)">
</g>
<g style="fill:#000000; fill-opacity:0.0; 
stroke:#000000; stroke-width:0; stroke-opacity:1; 
stroke-linecap:round; stroke-linejoin:round;">
<g >
</g>
<g style="fill:#840000; fill-opacity:0.0; 
stroke:#840000; stroke-width:0; stroke-opacity:1; 
stroke-linecap:round; stroke-linejoin:round;">
</g>
<g style="fill:#840000; fill-opacity:0.0; 
stroke:#840000; stroke-width:60; stroke-opacity:1; 
stroke-linecap:round; stroke-linejoin:round;">
<path style="fill:#840000; fill-opacity:0.0; 
stroke:#840000; stroke-width:60; stroke-opacity:1; 
stroke-linecap:round; stroke-linejoin:round;fill:none"
d="M 62600,20000
62500,20000
" /> 
<path style="fill:#840000; fill-opacity:0.0; 
stroke:#840000; stroke-width:60; stroke-opacity:1; 
stroke-linecap:round; stroke-linejoin:round;fill:none"
d="M 64400,20000
64500,20000
" /> 
<path style="fill:#840000; fill-opacity:0.0; 
stroke:#840000; stroke-width:60; stroke-opacity:1; 
stroke-linecap:round; stroke-linejoin:round;fill:none"
d="M 63200,20000
63050,20400
62900,20000
62750,19600
62600,20000
" /> 
<path style="fill:#840000; fill-opacity:0.0; 
stroke:#840000; stroke-width:60; stroke-opacity:1; 
stroke-linecap:round; stroke-linejoin:round;fill:none"
d="M 63800,20000
63650,20400
63500,20000
63350,19600
63200,20000
" /> 
<path style="fill:#840000; fill-opacity:0.0; 
stroke:#840000; stroke-width:60; stroke-opacity:1; 
stroke-linecap:round; stroke-linejoin:round;fill:none"
d="M 64400,20000
64250,20400
64100,20000
63950,19600
63800,20000
" /> 
<path d="M64500 20000
L65000 20000
" />
<path d="M62500 20000
L62000 20000
" />
</g>
<g style="fill:#008484; fill-opacity:0.0; 
stroke:#008484; stroke-width:60; stroke-opacity:1; 
stroke-linecap:round; stroke-linejoin:round;">
<text x="63500" y="18220"
textLength="990" font-size="660" lengthAdjust="spacingAndGlyphs"
text-anchor="middle" opacity="0">R1</text>
<path d="M63410 18190
L63250 17950
" />
<path d="M63130 18190
L63130 17690
L63320 17690
L63360 17720
L63390 17740
L63410 17790
L63410 17860
L63390 17910
L63360 17930
L63320 17950
L63130 17950
" />
<path d="M63890 18190
L63600 18190
" />
<path d="M63750 18190
L63750 17690
L63700 17760
L63650 17810
L63600 17830
" />
<text x="63500" y="19130"
textLength="1990" font-size="660" lengthAdjust="spacingAndGlyphs"
text-anchor="middle" opacity="0">15kΩ</text>
<path d="M62910 19100
L62630 19100
" />
<path d="M62770 19100
L62770 18600
L62720 18670
L62670 18720
L62630 18740
" />
<path d="M63360 18600
L63130 18600
L63100 18840
L63130 18820
L63170 18790
L63290 18790
L63340 18820
L63360 18840
L63390 18890
L63390 19010
L63360 19050
L63340 19080
L63290 19100
L63170 19100
L63130 19080
L63100 19050
" />
<path d="M63600 19100
L63600 18600
" />
<path d="M63650 18910
L63790 19100
" />
<path d="M63790 18770
L63600 18960
" />
<path d="M63980 19100
L64100 19100
L64100 19010
L64050 18980
L64010 18930
L63980 18860
L63980 18740
L64010 18670
L64050 18630
L64130 18600
L64220 18600
L64290 18630
L64340 18670
L64360 18740
L64360 18860
L64340 18930
L64290 18980
L64250 19010
L64250 19100
L64360 19100
" />
</g>
</g>
<g style="fill:#008484; fill-opacity:0.0; 
stroke:#008484; stroke-width:0; stroke-opacity:1; 
stroke-linecap:round; stroke-linejoin:round;">
<g >
</g>
<g style="fill:#840000; fill-opacity:0.0; 
stroke:#840000; stroke-width:0; stroke-opacity:1; 
stroke-linecap:round; stroke-linejoin:round;">
</g>
<g style="fill:#840000; fill-opacity:0.0; 
stroke:#840000; stroke-width:60; stroke-opacity:1; 
stroke-linecap:round; stroke-linejoin:round;">
<circle cx="63000" cy="48800" r="200" /> 
<circle cx="63000" cy="47200" r="200" /> 
<path style="fill:#840000; fill-opacity:0.0; 
stroke:#840000; stroke-width:60; stroke-opacity:1; 
stroke-linecap:round; stroke-linejoin:round;fill:none"
d="M 62900,48600
62300,47400
" /> 
<path d="M63000 49000
L63000 50000
" />
<g transform="rotate(-90 63100 49500)">
<text x="63100" y="50000"
textLength="540" font-size="660" lengthAdjust="spacingAndGlyphs"
text-anchor="middle" opacity="0">1</text>
</g>
<path d="M63570 49350
L63570 49640
" />
<path d="M63570 49500
L63070 49500
L63140 49540
L63190 49590
L63210 49640
" />
<path d="M63000 47000
L63000 46000
" />
<g transform="rotate(-90 63100 46500)">
<text x="63100" y="47000"
textLength="540" font-size="660" lengthAdjust="spacingAndGlyphs"
text-anchor="middle" opacity="0">2</text>
</g>
<path d="M63120 46640
L63100 46610
L63070 46570
L63070 46450
L63100 46400
L63120 46380
L63170 46350
L63210 46350
L63290 46380
L63570 46660
L63570 46350
" />
</g>
<g style="fill:#008484; fill-opacity:0.0; 
stroke:#008484; stroke-width:60; stroke-opacity:1; 
stroke-linecap:round; stroke-linejoin:round;">
<text x="61790" y="46720"
textLength="1580" font-size="660" lengthAdjust="spacingAndGlyphs"
text-anchor="middle" opacity="0">SW2</text>
<path d="M61120 46670
L61190 46690
L61310 46690
L61360 46670
L61380 46640
L61400 46600
L61400 46550
L61380 46500
L61360 46480
L61310 46450
L61210 46430
L61170 46410
L61140 46380
L61120 46330
L61120 46290
L61140 46240
L61170 46220
L61210 46190
L61330 46190
L61400 46220
" />
<path d="M61570 46190
L61690 46690
L61790 46330
L61880 46690
L62000 46190
" />
<path d="M62170 46240
L62190 46220
L62240 46190
L62360 46190
L62400 46220
L62430 46240
L62450 46290
L62450 46330
L62430 46410
L62140 46690
L62450 46690
" />
</g>
</g>
<g style="fill:#008484; fill-opacity:0.0; 
stroke:#008484; stroke-width:0; stroke-opacity:1; 
stroke-linecap:round; stroke-linejoin:round;">
<g >
</g>
<g style="fill:#840000; fill-opacity:0.0; 
stroke:#840000; stroke-width:0; stroke-opacity:1; 
stroke-linecap:round; stroke-linejoin:round;">
</g>
<g style="fill:#840000; fill-opacity:1.0; 
stroke:#840000; stroke-width:60; stroke-opacity:1; 
stroke-linecap:round; stroke-linejoin:round;">
<rect x="47600" y="45300" width="1800" height="100" rx="0" />
<rect x="47880" y="45530" width="1200" height="200" rx="0" />
</g>
<g style="fill:#840000; fill-opacity:0.0; 
stroke:#840000; stroke-width:60; stroke-opacity:1; 
stroke-linecap:round; stroke-linejoin:round;">
<path style="fill:#840000; fill-opacity:0.0; 
stroke:#840000; stroke-width:60; stroke-opacity:1; 
stroke-linecap:round; stroke-linejoin:round;fill:none"
d="M 48500,45700
48500,46000
" /> 
<path style="fill:#840000; fill-opacity:0.0; 
stroke:#840000; stroke-width:60; stroke-opacity:1; 
stroke-linecap:round; stroke-linejoin:round;fill:none"
d="M 48500,45300
48500,45000
" /> 
</g>
<g style="fill:#840000; fill-opacity:0.0; 
stroke:#840000; stroke-width:100; stroke-opacity:1; 
stroke-linecap:round; stroke-linejoin:round;">
<path style="fill:#840000; fill-opacity:0.0; 
stroke:#840000; stroke-width:100; stroke-opacity:1; 
stroke-linecap:round; stroke-linejoin:round;fill:none"
d="M 48700,44650
49100,44650
" /> 
<path style="fill:#840000; fill-opacity:0.0; 
stroke:#840000; stroke-width:100; stroke-opacity:1; 
stroke-linecap:round; stroke-linejoin:round;fill:none"
d="M 48900,44450
48900,44850
" /> 
</g>
<g style="fill:#840000; fill-opacity:0.0; 
stroke:#840000; stroke-width:60; stroke-opacity:1; 
stroke-linecap:round; stroke-linejoin:round;">
<path d="M48500 45000
L48500 44000
" />
<path d="M48500 46000
L48500 47000
" />
</g>
<g style="fill:#008484; fill-opacity:0.0; 
stroke:#008484; stroke-width:60; stroke-opacity:1; 
stroke-linecap:round; stroke-linejoin:round;">
<text x="50160" y="45310"
textLength="960" font-size="660" lengthAdjust="spacingAndGlyphs"
text-anchor="middle" opacity="0">V1</text>
<path d="M49750 44780
L49920 45280
L50080 44780
" />
<path d="M50510 45280
L50230 45280
" />
<path d="M50370 45280
L50370 44780
L50320 44850
L50270 44900
L50230 44920
" />
<text x="50160" y="46220"
textLength="960" font-size="660" lengthAdjust="spacingAndGlyphs"
text-anchor="middle" opacity="0">5V</text>
<path d="M50060 45690
L49820 45690
L49800 45930
L49820 45910
L49870 45880
L49990 45880
L50040 45910
L50060 45930
L50080 45980
L50080 46100
L50060 46140
L50040 46170
L49990 46190
L49870 46190
L49820 46170
L49800 46140
" />
<path d="M50230 45690
L50390 46190
L50560 45690
" />
</g>
</g>
<g style="fill:#008484; fill-opacity:0.0; 
stroke:#008484; stroke-width:0; stroke-opacity:1; 
stroke-linecap:round; stroke-linejoin:round;">
<g >
</g>
<g style="fill:#840000; fill-opacity:0.0; 
stroke:#840000; stroke-width:0; stroke-opacity:1; 
stroke-linecap:round; stroke-linejoin:round;">
</g>
<g style="fill:#840000; fill-opacity:0.0; 
stroke:#840000; stroke-width:60; stroke-opacity:1; 
stroke-linecap:round; stroke-linejoin:round;">
<path style="fill:#840000; fill-opacity:0.0; 
stroke:#840000; stroke-width:60; stroke-opacity:1; 
stroke-linecap:round; stroke-linejoin:round;fill:none"
d="M 52600,39500
52500,39500
" /> 
<path style="fill:#840000; fill-opacity:0.0; 
stroke:#840000; stroke-width:60; stroke-opacity:1; 
stroke-linecap:round; stroke-linejoin:round;fill:none"
d="M 54400,39500
54500,39500
" /> 
<path style="fill:#840000; fill-opacity:0.0; 
stroke:#840000; stroke-width:60; stroke-opacity:1; 
stroke-linecap:round; stroke-linejoin:round;fill:none"
d="M 53200,39500
53050,39900
52900,39500
52750,39100
52600,39500
" /> 
<path style="fill:#840000; fill-opacity:0.0; 
stroke:#840000; stroke-width:60; stroke-opacity:1; 
stroke-linecap:round; stroke-linejoin:round;fill:none"
d="M 53800,39500
53650,39900
53500,39500
53350,39100
53200,39500
" /> 
<path style="fill:#840000; fill-opacity:0.0; 
stroke:#840000; stroke-width:60; stroke-opacity:1; 
stroke-linecap:round; stroke-linejoin:round;fill:none"
d="M 54400,39500
54250,39900
54100,39500
53950,39100
53800,39500
" /> 
<path d="M54500 39500
L55000 39500
" />
<path d="M52500 39500
L52000 39500
" />
</g>
<g style="fill:#008484; fill-opacity:0.0; 
stroke:#008484; stroke-width:60; stroke-opacity:1; 
stroke-linecap:round; stroke-linejoin:round;">
<text x="53500" y="37720"
textLength="990" font-size="660" lengthAdjust="spacingAndGlyphs"
text-anchor="middle" opacity="0">R?</text>
<path d="M53440 37690
L53270 37450
" />
<path d="M53150 37690
L53150 37190
L53340 37190
L53390 37220
L53410 37240
L53440 37290
L53440 37360
L53410 37410
L53390 37430
L53340 37450
L53150 37450
" />
<path d="M53720 37640
L53750 37670
L53720 37690
L53700 37670
L53720 37640
L53720 37690
" />
<path d="M53630 37220
L53670 37190
L53790 37190
L53840 37220
L53860 37260
L53860 37310
L53840 37360
L53820 37380
L53770 37410
L53750 37430
L53720 37480
L53720 37500
" />
<text x="53500" y="38630"
textLength="1510" font-size="660" lengthAdjust="spacingAndGlyphs"
text-anchor="middle" opacity="0">1kΩ</text>
<path d="M53150 38600
L52860 38600
" />
<path d="M53010 38600
L53010 38100
L52960 38170
L52910 38220
L52860 38240
" />
<path d="M53360 38600
L53360 38100
" />
<path d="M53410 38410
L53550 38600
" />
<path d="M53550 38270
L53360 38460
" />
<path d="M53750 38600
L53860 38600
L53860 38510
L53820 38480
L53770 38430
L53750 38360
L53750 38240
L53770 38170
L53820 38130
L53890 38100
L53980 38100
L54050 38130
L54100 38170
L54130 38240
L54130 38360
L54100 38430
L54050 38480
L54010 38510
L54010 38600
L54130 38600
" />
</g>
</g>
<g style="fill:#008484; fill-opacity:0.0; 
stroke:#008484; stroke-width:0; stroke-opacity:1; 
stroke-linecap:round; stroke-linejoin:round;">
<g >
</g>
<g style="fill:#840000; fill-opacity:0.0; 
stroke:#840000; stroke-width:0; stroke-opacity:1; 
stroke-linecap:round; stroke-linejoin:round;">
</g>
<g style="fill:#840000; fill-opacity:0.0; 
stroke:#840000; stroke-width:60; stroke-opacity:1; 
stroke-linecap:round; stroke-linejoin:round;">
<path d="M53995.9 20752 A2010 2010 0.0 0 0 52251.9 18995.8" />
</g>
<g style="fill:#840000; fill-opacity:1.0; 
stroke:#840000; stroke-width:60; stroke-opacity:1; 
stroke-linecap:round; stroke-linejoin:round;">
<path style="fill:#840000; fill-opacity:1.0; 
stroke:#840000; stroke-width:60; stroke-opacity:1; 
stroke-linecap:round; stroke-linejoin:round;fill-rule:evenodd;"
d="M 54000,21000
54050,20650
53900,20650
Z" /> 
<path style="fill:#840000; fill-opacity:1.0; 
stroke:#840000; stroke-width:60; stroke-opacity:1; 
stroke-linecap:round; stroke-linejoin:round;fill-rule:evenodd;"
d="M 51900,19020
52250,19070
52250,18920
Z" /> 
</g>
<g style="fill:#840084; fill-opacity:0.0; 
stroke:#840084; stroke-width:60; stroke-opacity:1; 
stroke-linecap:round; stroke-linejoin:round;">
</g>
<g style="fill:#840084; fill-opacity:0.0; 
stroke:#840084; stroke-width:50; stroke-opacity:1; 
stroke-linecap:round; stroke-linejoin:round;">
<text x="54000" y="21420"
textLength="1870" font-size="400" lengthAdjust="spacingAndGlyphs"
text-anchor="middle" opacity="0">t0 = 0s</text>
<path d="M53120 21200
L53230 21200
" />
<path d="M53160 21100
L53160 21360
L53170 21390
L53200 21400
L53230 21400
" />
<path d="M53390 21100
L53420 21100
L53450 21120
L53460 21130
L53470 21160
L53490 21220
L53490 21290
L53470 21340
L53460 21370
L53450 21390
L53420 21400
L53390 21400
L53360 21390
L53350 21370
L53330 21340
L53320 21290
L53320 21220
L53330 21160
L53350 21130
L53360 21120
L53390 21100
" />
<path d="M53850 21240
L54070 21240
" />
<path d="M54070 21330
L53850 21330
" />
<path d="M54500 21100
L54530 21100
L54560 21120
L54570 21130
L54590 21160
L54600 21220
L54600 21290
L54590 21340
L54570 21370
L54560 21390
L54530 21400
L54500 21400
L54470 21390
L54460 21370
L54450 21340
L54430 21290
L54430 21220
L54450 21160
L54460 21130
L54470 21120
L54500 21100
" />
<path d="M54720 21390
L54750 21400
L54800 21400
L54830 21390
L54850 21360
L54850 21340
L54830 21320
L54800 21300
L54760 21300
L54730 21290
L54720 21260
L54720 21240
L54730 21220
L54760 21200
L54800 21200
L54830 21220
" />
<text x="52250" y="18670"
textLength="2840" font-size="400" lengthAdjust="spacingAndGlyphs"
text-anchor="middle" opacity="0">t1 = 180ms</text>
<path d="M50880 18450
L51000 18450
" />
<path d="M50920 18350
L50920 18610
L50940 18640
L50970 18650
L51000 18650
" />
<path d="M51250 18650
L51080 18650
" />
<path d="M51170 18650
L51170 18350
L51140 18390
L51110 18420
L51080 18440
" />
<path d="M51610 18490
L51840 18490
" />
<path d="M51840 18580
L51610 18580
" />
<path d="M52370 18650
L52200 18650
" />
<path d="M52280 18650
L52280 18350
L52250 18390
L52220 18420
L52200 18440
" />
<path d="M52540 18480
L52510 18470
L52500 18450
L52480 18420
L52480 18410
L52500 18380
L52510 18370
L52540 18350
L52600 18350
L52620 18370
L52640 18380
L52650 18410
L52650 18420
L52640 18450
L52620 18470
L52600 18480
L52540 18480
L52510 18490
L52500 18510
L52480 18540
L52480 18590
L52500 18620
L52510 18640
L52540 18650
L52600 18650
L52620 18640
L52640 18620
L52650 18590
L52650 18540
L52640 18510
L52620 18490
L52600 18480
" />
<path d="M52840 18350
L52870 18350
L52900 18370
L52910 18380
L52920 18410
L52940 18470
L52940 18540
L52920 18590
L52910 18620
L52900 18640
L52870 18650
L52840 18650
L52810 18640
L52800 18620
L52780 18590
L52770 18540
L52770 18470
L52780 18410
L52800 18380
L52810 18370
L52840 18350
" />
<path d="M53070 18650
L53070 18450
" />
<path d="M53070 18480
L53080 18470
L53110 18450
L53150 18450
L53180 18470
L53200 18490
L53200 18650
" />
<path d="M53200 18490
L53210 18470
L53240 18450
L53280 18450
L53310 18470
L53320 18490
L53320 18650
" />
<path d="M53450 18640
L53480 18650
L53540 18650
L53570 18640
L53580 18610
L53580 18590
L53570 18570
L53540 18550
L53500 18550
L53470 18540
L53450 18510
L53450 18490
L53470 18470
L53500 18450
L53540 18450
L53570 18470
" />
</g>
</g>
<g style="fill:#840084; fill-opacity:0.0; 
stroke:#840084; stroke-width:0; stroke-opacity:1; 
stroke-linecap:round; stroke-linejoin:round;">
<g >
</g>
<g style="fill:#840000; fill-opacity:0.0; 
stroke:#840000; stroke-width:0; stroke-opacity:1; 
stroke-linecap:round; stroke-linejoin:round;">
</g>
<g style="fill:#840000; fill-opacity:0.0; 
stroke:#840000; stroke-width:60; stroke-opacity:1; 
stroke-linecap:round; stroke-linejoin:round;">
<path d="M59252 23754.1 A2010 2010 0.0 0 0 57495.8 25498.1" />
</g>
<g style="fill:#840000; fill-opacity:1.0; 
stroke:#840000; stroke-width:60; stroke-opacity:1; 
stroke-linecap:round; stroke-linejoin:round;">
<path style="fill:#840000; fill-opacity:1.0; 
stroke:#840000; stroke-width:60; stroke-opacity:1; 
stroke-linecap:round; stroke-linejoin:round;fill-rule:evenodd;"
d="M 59500,23750
59150,23700
59150,23850
Z" /> 
</g>
<g style="fill:#840084; fill-opacity:0.0; 
stroke:#840084; stroke-width:60; stroke-opacity:1; 
stroke-linecap:round; stroke-linejoin:round;">
</g>
<g style="fill:#840084; fill-opacity:0.0; 
stroke:#840084; stroke-width:50; stroke-opacity:1; 
stroke-linecap:round; stroke-linejoin:round;">
<text x="60670" y="24670"
textLength="2840" font-size="400" lengthAdjust="spacingAndGlyphs"
text-anchor="middle" opacity="0">t1 = 180ms</text>
<path d="M59300 24450
L59420 24450
" />
<path d="M59340 24350
L59340 24610
L59360 24640
L59390 24650
L59420 24650
" />
<path d="M59670 24650
L59500 24650
" />
<path d="M59590 24650
L59590 24350
L59560 24390
L59530 24420
L59500 24440
" />
<path d="M60030 24490
L60260 24490
" />
<path d="M60260 24580
L60030 24580
" />
<path d="M60790 24650
L60620 24650
" />
<path d="M60700 24650
L60700 24350
L60670 24390
L60640 24420
L60620 24440
" />
<path d="M60960 24480
L60930 24470
L60920 24450
L60900 24420
L60900 24410
L60920 24380
L60930 24370
L60960 24350
L61020 24350
L61040 24370
L61060 24380
L61070 24410
L61070 24420
L61060 24450
L61040 24470
L61020 24480
L60960 24480
L60930 24490
L60920 24510
L60900 24540
L60900 24590
L60920 24620
L60930 24640
L60960 24650
L61020 24650
L61040 24640
L61060 24620
L61070 24590
L61070 24540
L61060 24510
L61040 24490
L61020 24480
" />
<path d="M61260 24350
L61290 24350
L61320 24370
L61330 24380
L61340 24410
L61360 24470
L61360 24540
L61340 24590
L61330 24620
L61320 24640
L61290 24650
L61260 24650
L61230 24640
L61220 24620
L61200 24590
L61190 24540
L61190 24470
L61200 24410
L61220 24380
L61230 24370
L61260 24350
" />
<path d="M61490 24650
L61490 24450
" />
<path d="M61490 24480
L61500 24470
L61530 24450
L61570 24450
L61600 24470
L61620 24490
L61620 24650
" />
<path d="M61620 24490
L61630 24470
L61660 24450
L61700 24450
L61730 24470
L61740 24490
L61740 24650
" />
<path d="M61870 24640
L61900 24650
L61960 24650
L61990 24640
L62000 24610
L62000 24590
L61990 24570
L61960 24550
L61920 24550
L61890 24540
L61870 24510
L61870 24490
L61890 24470
L61920 24450
L61960 24450
L61990 24470
" />
</g>
</g>
<g style="fill:#840084; fill-opacity:0.0; 
stroke:#840084; stroke-width:0; stroke-opacity:1; 
stroke-linecap:round; stroke-linejoin:round;">
<g >
</g>
<g style="fill:#840000; fill-opacity:0.0; 
stroke:#840000; stroke-width:0; stroke-opacity:1; 
stroke-linecap:round; stroke-linejoin:round;">
</g>
<g style="fill:#840000; fill-opacity:0.0; 
stroke:#840000; stroke-width:200; stroke-opacity:1; 
stroke-linecap:round; stroke-linejoin:round;">
<path style="fill:#840000; fill-opacity:0.0; 
stroke:#840000; stroke-width:200; stroke-opacity:1; 
stroke-linecap:round; stroke-linejoin:round;fill:none"
d="M 67700,45800
69300,45800
" /> 
<path style="fill:#840000; fill-opacity:0.0; 
stroke:#840000; stroke-width:200; stroke-opacity:1; 
stroke-linecap:round; stroke-linejoin:round;fill:none"
d="M 67700,45200
69300,45200
" /> 
</g>
<g style="fill:#840000; fill-opacity:0.0; 
stroke:#840000; stroke-width:60; stroke-opacity:1; 
stroke-linecap:round; stroke-linejoin:round;">
<path d="M68500 45100
L68500 44000
" />
<path d="M68500 45900
L68500 47000
" />
</g>
<g style="fill:#008484; fill-opacity:0.0; 
stroke:#008484; stroke-width:60; stroke-opacity:1; 
stroke-linecap:round; stroke-linejoin:round;">
<text x="70170" y="45310"
textLength="1030" font-size="660" lengthAdjust="spacingAndGlyphs"
text-anchor="middle" opacity="0">C1</text>
<path d="M70080 45230
L70060 45260
L69990 45280
L69940 45280
L69870 45260
L69820 45210
L69800 45160
L69770 45070
L69770 45000
L69800 44900
L69820 44850
L69870 44810
L69940 44780
L69990 44780
L70060 44810
L70080 44830
" />
<path d="M70560 45280
L70270 45280
" />
<path d="M70420 45280
L70420 44780
L70370 44850
L70320 44900
L70270 44920
" />
<text x="70590" y="46220"
textLength="1890" font-size="660" lengthAdjust="spacingAndGlyphs"
text-anchor="middle" opacity="0">10nF</text>
<path d="M70050 46190
L69760 46190
" />
<path d="M69910 46190
L69910 45690
L69860 45760
L69810 45810
L69760 45830
" />
<path d="M70360 45690
L70410 45690
L70450 45720
L70480 45740
L70500 45790
L70530 45880
L70530 46000
L70500 46100
L70480 46140
L70450 46170
L70410 46190
L70360 46190
L70310 46170
L70290 46140
L70260 46100
L70240 46000
L70240 45880
L70260 45790
L70290 45740
L70310 45720
L70360 45690
" />
<path d="M70740 45860
L70740 46190
" />
<path d="M70740 45910
L70760 45880
L70810 45860
L70880 45860
L70930 45880
L70950 45930
L70950 46190
" />
<path d="M71360 45930
L71190 45930
" />
<path d="M71190 46190
L71190 45690
L71430 45690
" />
</g>
</g>
<g style="fill:#008484; fill-opacity:0.0; 
stroke:#008484; stroke-width:0; stroke-opacity:1; 
stroke-linecap:round; stroke-linejoin:round;">
<g >
</g>
<g style="fill:#840000; fill-opacity:0.0; 
stroke:#840000; stroke-width:0; stroke-opacity:1; 
stroke-linecap:round; stroke-linejoin:round;">
</g>
<g style="fill:#840000; fill-opacity:0.0; 
stroke:#840000; stroke-width:60; stroke-opacity:1; 
stroke-linecap:round; stroke-linejoin:round;">
<path d="M63752 47754.1 A2010 2010 0.0 0 0 61995.8 49498.1" />
</g>
<g style="fill:#840000; fill-opacity:1.0; 
stroke:#840000; stroke-width:60; stroke-opacity:1; 
stroke-linecap:round; stroke-linejoin:round;">
<path style="fill:#840000; fill-opacity:1.0; 
stroke:#840000; stroke-width:60; stroke-opacity:1; 
stroke-linecap:round; stroke-linejoin:round;fill-rule:evenodd;"
d="M 64000,47750
63650,47700
63650,47850
Z" /> 
</g>
<g style="fill:#840084; fill-opacity:0.0; 
stroke:#840084; stroke-width:60; stroke-opacity:1; 
stroke-linecap:round; stroke-linejoin:round;">
</g>
<g style="fill:#840084; fill-opacity:0.0; 
stroke:#840084; stroke-width:50; stroke-opacity:1; 
stroke-linecap:round; stroke-linejoin:round;">
<text x="64960" y="48670"
textLength="2430" font-size="400" lengthAdjust="spacingAndGlyphs"
text-anchor="middle" opacity="0">t2 = 80us</text>
<path d="M63800 48450
L63910 48450
" />
<path d="M63840 48350
L63840 48610
L63860 48640
L63880 48650
L63910 48650
" />
<path d="M64000 48380
L64010 48370
L64040 48350
L64110 48350
L64140 48370
L64160 48380
L64170 48410
L64170 48440
L64160 48480
L63980 48650
L64170 48650
" />
<path d="M64530 48490
L64760 48490
" />
<path d="M64760 48580
L64530 48580
" />
<path d="M65170 48480
L65140 48470
L65130 48450
L65110 48420
L65110 48410
L65130 48380
L65140 48370
L65170 48350
L65230 48350
L65260 48370
L65270 48380
L65280 48410
L65280 48420
L65270 48450
L65260 48470
L65230 48480
L65170 48480
L65140 48490
L65130 48510
L65110 48540
L65110 48590
L65130 48620
L65140 48640
L65170 48650
L65230 48650
L65260 48640
L65270 48620
L65280 48590
L65280 48540
L65270 48510
L65260 48490
L65230 48480
" />
<path d="M65470 48350
L65500 48350
L65530 48370
L65540 48380
L65560 48410
L65570 48470
L65570 48540
L65560 48590
L65540 48620
L65530 48640
L65500 48650
L65470 48650
L65440 48640
L65430 48620
L65410 48590
L65400 48540
L65400 48470
L65410 48410
L65430 48380
L65440 48370
L65470 48350
" />
<path d="M65830 48450
L65830 48650
" />
<path d="M65700 48450
L65700 48610
L65710 48640
L65740 48650
L65780 48650
L65810 48640
L65830 48620
" />
<path d="M65960 48640
L65980 48650
L66040 48650
L66070 48640
L66080 48610
L66080 48590
L66070 48570
L66040 48550
L66000 48550
L65970 48540
L65960 48510
L65960 48490
L65970 48470
L66000 48450
L66040 48450
L66070 48470
" />
</g>
</g>
<g style="fill:#840084; fill-opacity:0.0; 
stroke:#840084; stroke-width:0; stroke-opacity:1; 
stroke-linecap:round; stroke-linejoin:round;">
<g >
</g>
<g style="fill:#840000; fill-opacity:0.0; 
stroke:#840000; stroke-width:0; stroke-opacity:1; 
stroke-linecap:round; stroke-linejoin:round;">
</g>
<g style="fill:#840000; fill-opacity:0.0; 
stroke:#840000; stroke-width:60; stroke-opacity:1; 
stroke-linecap:round; stroke-linejoin:round;">
<path d="M58245.9 40252 A2010 2010 0.0 0 0 56501.9 38495.8" />
</g>
<g style="fill:#840000; fill-opacity:1.0; 
stroke:#840000; stroke-width:60; stroke-opacity:1; 
stroke-linecap:round; stroke-linejoin:round;">
<path style="fill:#840000; fill-opacity:1.0; 
stroke:#840000; stroke-width:60; stroke-opacity:1; 
stroke-linecap:round; stroke-linejoin:round;fill-rule:evenodd;"
d="M 58250,40500
58300,40150
58150,40150
Z" /> 
<path style="fill:#840000; fill-opacity:1.0; 
stroke:#840000; stroke-width:60; stroke-opacity:1; 
stroke-linecap:round; stroke-linejoin:round;fill-rule:evenodd;"
d="M 56150,38520
56500,38570
56500,38420
Z" /> 
</g>
<g style="fill:#840084; fill-opacity:0.0; 
stroke:#840084; stroke-width:60; stroke-opacity:1; 
stroke-linecap:round; stroke-linejoin:round;">
</g>
<g style="fill:#840084; fill-opacity:0.0; 
stroke:#840084; stroke-width:50; stroke-opacity:1; 
stroke-linecap:round; stroke-linejoin:round;">
<text x="58250" y="40920"
textLength="1860" font-size="400" lengthAdjust="spacingAndGlyphs"
text-anchor="middle" opacity="0">t0 = 0s</text>
<path d="M57370 40700
L57480 40700
" />
<path d="M57410 40600
L57410 40860
L57420 40890
L57450 40900
L57480 40900
" />
<path d="M57640 40600
L57670 40600
L57700 40620
L57710 40630
L57720 40660
L57740 40720
L57740 40790
L57720 40840
L57710 40870
L57700 40890
L57670 40900
L57640 40900
L57610 40890
L57600 40870
L57580 40840
L57570 40790
L57570 40720
L57580 40660
L57600 40630
L57610 40620
L57640 40600
" />
<path d="M58100 40740
L58320 40740
" />
<path d="M58320 40830
L58100 40830
" />
<path d="M58750 40600
L58780 40600
L58810 40620
L58820 40630
L58840 40660
L58850 40720
L58850 40790
L58840 40840
L58820 40870
L58810 40890
L58780 40900
L58750 40900
L58720 40890
L58710 40870
L58700 40840
L58680 40790
L58680 40720
L58700 40660
L58710 40630
L58720 40620
L58750 40600
" />
<path d="M58970 40890
L59000 40900
L59050 40900
L59080 40890
L59100 40860
L59100 40840
L59080 40820
L59050 40800
L59010 40800
L58980 40790
L58970 40760
L58970 40740
L58980 40720
L59010 40700
L59050 40700
L59080 40720
" />
<text x="56500" y="38170"
textLength="2420" font-size="400" lengthAdjust="spacingAndGlyphs"
text-anchor="middle" opacity="0">t1 = 60us</text>
<path d="M55340 37950
L55450 37950
" />
<path d="M55380 37850
L55380 38110
L55400 38140
L55420 38150
L55450 38150
" />
<path d="M55710 38150
L55540 38150
" />
<path d="M55620 38150
L55620 37850
L55600 37890
L55570 37920
L55540 37940
" />
<path d="M56070 37990
L56300 37990
" />
<path d="M56300 38080
L56070 38080
" />
<path d="M56800 37850
L56740 37850
L56710 37870
L56700 37880
L56670 37920
L56650 37980
L56650 38090
L56670 38120
L56680 38140
L56710 38150
L56770 38150
L56800 38140
L56810 38120
L56820 38090
L56820 38020
L56810 37990
L56800 37980
L56770 37970
L56710 37970
L56680 37980
L56670 37990
L56650 38020
" />
<path d="M57010 37850
L57040 37850
L57070 37870
L57080 37880
L57100 37910
L57110 37970
L57110 38040
L57100 38090
L57080 38120
L57070 38140
L57040 38150
L57010 38150
L56980 38140
L56970 38120
L56950 38090
L56940 38040
L56940 37970
L56950 37910
L56970 37880
L56980 37870
L57010 37850
" />
<path d="M57370 37950
L57370 38150
" />
<path d="M57240 37950
L57240 38110
L57250 38140
L57280 38150
L57320 38150
L57350 38140
L57370 38120
" />
<path d="M57500 38140
L57520 38150
L57580 38150
L57610 38140
L57620 38110
L57620 38090
L57610 38070
L57580 38050
L57540 38050
L57510 38040
L57500 38010
L57500 37990
L57510 37970
L57540 37950
L57580 37950
L57610 37970
" />
</g>
</g>
<g style="fill:#840084; fill-opacity:0.0; 
stroke:#840084; stroke-width:0; stroke-opacity:1; 
stroke-linecap:round; stroke-linejoin:round;">
<g >
</g>
<g style="fill:#840000; fill-opacity:0.0; 
stroke:#840000; stroke-width:0; stroke-opacity:1; 
stroke-linecap:round; stroke-linejoin:round;">
</g>
<g style="fill:#840000; fill-opacity:0.0; 
stroke:#840000; stroke-width:60; stroke-opacity:1; 
stroke-linecap:round; stroke-linejoin:round;">
<circle cx="57200" cy="39500" r="200" /> 
<circle cx="58800" cy="39500" r="200" /> 
<path style="fill:#840000; fill-opacity:0.0; 
stroke:#840000; stroke-width:60; stroke-opacity:1; 
stroke-linecap:round; stroke-linejoin:round;fill:none"
d="M 57400,39400
58600,38800
" /> 
<path d="M57000 39500
L56000 39500
" />
<text x="56500" y="40100"
textLength="530" font-size="660" lengthAdjust="spacingAndGlyphs"
text-anchor="middle" opacity="0">1</text>
<path d="M56640 40070
L56350 40070
" />
<path d="M56500 40070
L56500 39570
L56450 39640
L56400 39690
L56350 39710
" />
<path d="M59000 39500
L60000 39500
" />
<text x="59500" y="40100"
textLength="540" font-size="660" lengthAdjust="spacingAndGlyphs"
text-anchor="middle" opacity="0">2</text>
<path d="M59350 39620
L59380 39600
L59420 39570
L59540 39570
L59590 39600
L59610 39620
L59640 39670
L59640 39710
L59610 39790
L59330 40070
L59640 40070
" />
</g>
<g style="fill:#008484; fill-opacity:0.0; 
stroke:#008484; stroke-width:60; stroke-opacity:1; 
stroke-linecap:round; stroke-linejoin:round;">
<text x="59500" y="38520"
textLength="1580" font-size="660" lengthAdjust="spacingAndGlyphs"
text-anchor="middle" opacity="0">SW1</text>
<path d="M58830 38470
L58900 38490
L59020 38490
L59070 38470
L59090 38440
L59110 38400
L59110 38350
L59090 38300
L59070 38280
L59020 38250
L58920 38230
L58880 38210
L58850 38180
L58830 38130
L58830 38090
L58850 38040
L58880 38020
L58920 37990
L59040 37990
L59110 38020
" />
<path d="M59280 37990
L59400 38490
L59500 38130
L59590 38490
L59710 37990
" />
<path d="M60160 38490
L59880 38490
" />
<path d="M60020 38490
L60020 37990
L59970 38060
L59920 38110
L59880 38130
" />
</g>
</g>
<g style="fill:#008484; fill-opacity:0.0; 
stroke:#008484; stroke-width:0; stroke-opacity:1; 
stroke-linecap:round; stroke-linejoin:round;">
<g >
</g>
<g style="fill:#840000; fill-opacity:0.0; 
stroke:#840000; stroke-width:0; stroke-opacity:1; 
stroke-linecap:round; stroke-linejoin:round;">
</g>
<g style="fill:#840000; fill-opacity:0.0; 
stroke:#840000; stroke-width:200; stroke-opacity:1; 
stroke-linecap:round; stroke-linejoin:round;">
<path style="fill:#840000; fill-opacity:0.0; 
stroke:#840000; stroke-width:200; stroke-opacity:1; 
stroke-linecap:round; stroke-linejoin:round;fill:none"
d="M 67700,24300
69300,24300
" /> 
<path style="fill:#840000; fill-opacity:0.0; 
stroke:#840000; stroke-width:200; stroke-opacity:1; 
stroke-linecap:round; stroke-linejoin:round;fill:none"
d="M 67700,23700
69300,23700
" /> 
</g>
<g style="fill:#840000; fill-opacity:0.0; 
stroke:#840000; stroke-width:60; stroke-opacity:1; 
stroke-linecap:round; stroke-linejoin:round;">
<path d="M68500 23600
L68500 22500
" />
<path d="M68500 24400
L68500 25500
" />
</g>
<g style="fill:#008484; fill-opacity:0.0; 
stroke:#008484; stroke-width:60; stroke-opacity:1; 
stroke-linecap:round; stroke-linejoin:round;">
<text x="70170" y="23810"
textLength="1040" font-size="660" lengthAdjust="spacingAndGlyphs"
text-anchor="middle" opacity="0">C1</text>
<path d="M70080 23730
L70060 23760
L69990 23780
L69940 23780
L69870 23760
L69820 23710
L69800 23660
L69770 23570
L69770 23500
L69800 23400
L69820 23350
L69870 23310
L69940 23280
L69990 23280
L70060 23310
L70080 23330
" />
<path d="M70560 23780
L70270 23780
" />
<path d="M70420 23780
L70420 23280
L70370 23350
L70320 23400
L70270 23420
" />
<text x="70710" y="24720"
textLength="2130" font-size="660" lengthAdjust="spacingAndGlyphs"
text-anchor="middle" opacity="0">2,2uF</text>
<path d="M69760 24240
L69790 24220
L69840 24190
L69960 24190
L70000 24220
L70030 24240
L70050 24290
L70050 24330
L70030 24410
L69740 24690
L70050 24690
" />
<path d="M70290 24670
L70290 24690
L70260 24740
L70240 24760
" />
<path d="M70480 24240
L70500 24220
L70550 24190
L70670 24190
L70720 24220
L70740 24240
L70760 24290
L70760 24330
L70740 24410
L70460 24690
L70760 24690
" />
<path d="M71190 24360
L71190 24690
" />
<path d="M70980 24360
L70980 24620
L71000 24670
L71050 24690
L71120 24690
L71170 24670
L71190 24640
" />
<path d="M71600 24430
L71430 24430
" />
<path d="M71430 24690
L71430 24190
L71670 24190
" />
</g>
</g>
<g style="fill:#008484; fill-opacity:0.0; 
stroke:#008484; stroke-width:0; stroke-opacity:1; 
stroke-linecap:round; stroke-linejoin:round;">
<g >
</g>
<g style="fill:#840000; fill-opacity:0.0; 
stroke:#840000; stroke-width:0; stroke-opacity:1; 
stroke-linecap:round; stroke-linejoin:round;">
</g>
<g style="fill:#840000; fill-opacity:0.0; 
stroke:#840000; stroke-width:60; stroke-opacity:1; 
stroke-linecap:round; stroke-linejoin:round;">
<path style="fill:#840000; fill-opacity:0.0; 
stroke:#840000; stroke-width:60; stroke-opacity:1; 
stroke-linecap:round; stroke-linejoin:round;fill:none"
d="M 63000,41600
63000,41500
" /> 
<path style="fill:#840000; fill-opacity:0.0; 
stroke:#840000; stroke-width:60; stroke-opacity:1; 
stroke-linecap:round; stroke-linejoin:round;fill:none"
d="M 63000,43400
63000,43500
" /> 
<path style="fill:#840000; fill-opacity:0.0; 
stroke:#840000; stroke-width:60; stroke-opacity:1; 
stroke-linecap:round; stroke-linejoin:round;fill:none"
d="M 63000,42200
62600,42050
63000,41900
63400,41750
63000,41600
" /> 
<path style="fill:#840000; fill-opacity:0.0; 
stroke:#840000; stroke-width:60; stroke-opacity:1; 
stroke-linecap:round; stroke-linejoin:round;fill:none"
d="M 63000,42800
62600,42650
63000,42500
63400,42350
63000,42200
" /> 
<path style="fill:#840000; fill-opacity:0.0; 
stroke:#840000; stroke-width:60; stroke-opacity:1; 
stroke-linecap:round; stroke-linejoin:round;fill:none"
d="M 63000,43400
62600,43250
63000,43100
63400,42950
63000,42800
" /> 
<path d="M63000 43500
L63000 44000
" />
<path d="M63000 41500
L63000 41000
" />
</g>
<g style="fill:#008484; fill-opacity:0.0; 
stroke:#008484; stroke-width:60; stroke-opacity:1; 
stroke-linecap:round; stroke-linejoin:round;">
<text x="64200" y="42260"
textLength="1040" font-size="660" lengthAdjust="spacingAndGlyphs"
text-anchor="middle" opacity="0">R2</text>
<path d="M64110 42230
L63950 41990
" />
<path d="M63830 42230
L63830 41730
L64020 41730
L64060 41760
L64090 41780
L64110 41830
L64110 41900
L64090 41950
L64060 41970
L64020 41990
L63830 41990
" />
<path d="M64300 41780
L64330 41760
L64370 41730
L64490 41730
L64540 41760
L64560 41780
L64590 41830
L64590 41870
L64560 41950
L64280 42230
L64590 42230
" />
<text x="64670" y="43170"
textLength="1990" font-size="660" lengthAdjust="spacingAndGlyphs"
text-anchor="middle" opacity="0">2k2Ω</text>
<path d="M63800 42690
L63820 42670
L63870 42640
L63990 42640
L64030 42670
L64060 42690
L64080 42740
L64080 42780
L64060 42860
L63770 43140
L64080 43140
" />
<path d="M64300 43140
L64300 42640
" />
<path d="M64340 42950
L64490 43140
" />
<path d="M64490 42810
L64300 43000
" />
<path d="M64680 42690
L64700 42670
L64750 42640
L64870 42640
L64920 42670
L64940 42690
L64960 42740
L64960 42780
L64940 42860
L64650 43140
L64960 43140
" />
<path d="M65150 43140
L65270 43140
L65270 43050
L65220 43020
L65180 42970
L65150 42900
L65150 42780
L65180 42710
L65220 42670
L65300 42640
L65390 42640
L65460 42670
L65510 42710
L65530 42780
L65530 42900
L65510 42970
L65460 43020
L65420 43050
L65420 43140
L65530 43140
" />
</g>
</g>
<g style="fill:#008484; fill-opacity:0.0; 
stroke:#008484; stroke-width:0; stroke-opacity:1; 
stroke-linecap:round; stroke-linejoin:round;">
<g >
</g>
<g style="fill:#840000; fill-opacity:0.0; 
stroke:#840000; stroke-width:0; stroke-opacity:1; 
stroke-linecap:round; stroke-linejoin:round;">
</g>
<g style="fill:#840000; fill-opacity:0.0; 
stroke:#840000; stroke-width:60; stroke-opacity:1; 
stroke-linecap:round; stroke-linejoin:round;">
<circle cx="58500" cy="24800" r="200" /> 
<circle cx="58500" cy="23200" r="200" /> 
<path style="fill:#840000; fill-opacity:0.0; 
stroke:#840000; stroke-width:60; stroke-opacity:1; 
stroke-linecap:round; stroke-linejoin:round;fill:none"
d="M 58400,24600
57800,23400
" /> 
<path d="M58500 25000
L58500 26000
" />
<g transform="rotate(-90 58600 25500)">
<text x="58600" y="26000"
textLength="540" font-size="660" lengthAdjust="spacingAndGlyphs"
text-anchor="middle" opacity="0">1</text>
</g>
<path d="M59070 25350
L59070 25640
" />
<path d="M59070 25500
L58570 25500
L58640 25540
L58690 25590
L58710 25640
" />
<path d="M58500 23000
L58500 22000
" />
<g transform="rotate(-90 58600 22500)">
<text x="58600" y="23000"
textLength="540" font-size="660" lengthAdjust="spacingAndGlyphs"
text-anchor="middle" opacity="0">2</text>
</g>
<path d="M58620 22640
L58600 22610
L58570 22570
L58570 22450
L58600 22400
L58620 22380
L58670 22350
L58710 22350
L58790 22380
L59070 22660
L59070 22350
" />
</g>
<g style="fill:#008484; fill-opacity:0.0; 
stroke:#008484; stroke-width:60; stroke-opacity:1; 
stroke-linecap:round; stroke-linejoin:round;">
<text x="57290" y="22720"
textLength="1580" font-size="660" lengthAdjust="spacingAndGlyphs"
text-anchor="middle" opacity="0">SW2</text>
<path d="M56620 22670
L56690 22690
L56810 22690
L56860 22670
L56880 22640
L56900 22600
L56900 22550
L56880 22500
L56860 22480
L56810 22450
L56710 22430
L56670 22410
L56640 22380
L56620 22330
L56620 22290
L56640 22240
L56670 22220
L56710 22190
L56830 22190
L56900 22220
" />
<path d="M57070 22190
L57190 22690
L57290 22330
L57380 22690
L57500 22190
" />
<path d="M57670 22240
L57690 22220
L57740 22190
L57860 22190
L57900 22220
L57930 22240
L57950 22290
L57950 22330
L57930 22410
L57640 22690
L57950 22690
" />
</g>
</g>
<g style="fill:#008484; fill-opacity:0.0; 
stroke:#008484; stroke-width:0; stroke-opacity:1; 
stroke-linecap:round; stroke-linejoin:round;">
<g >
</g>
<g style="fill:#840000; fill-opacity:0.0; 
stroke:#840000; stroke-width:0; stroke-opacity:1; 
stroke-linecap:round; stroke-linejoin:round;">
</g>
<g style="fill:#840000; fill-opacity:0.0; 
stroke:#840000; stroke-width:60; stroke-opacity:1; 
stroke-linecap:round; stroke-linejoin:round;">
<circle cx="52700" cy="20000" r="200" /> 
<circle cx="54300" cy="20000" r="200" /> 
<path style="fill:#840000; fill-opacity:0.0; 
stroke:#840000; stroke-width:60; stroke-opacity:1; 
stroke-linecap:round; stroke-linejoin:round;fill:none"
d="M 52900,19900
54100,19300
" /> 
<path d="M52500 20000
L51500 20000
" />
<text x="52000" y="20600"
textLength="540" font-size="660" lengthAdjust="spacingAndGlyphs"
text-anchor="middle" opacity="0">1</text>
<path d="M52140 20570
L51850 20570
" />
<path d="M52000 20570
L52000 20070
L51950 20140
L51900 20190
L51850 20210
" />
<path d="M54500 20000
L55500 20000
" />
<text x="55000" y="20600"
textLength="540" font-size="660" lengthAdjust="spacingAndGlyphs"
text-anchor="middle" opacity="0">2</text>
<path d="M54850 20120
L54880 20100
L54920 20070
L55040 20070
L55090 20100
L55110 20120
L55140 20170
L55140 20210
L55110 20290
L54830 20570
L55140 20570
" />
</g>
<g style="fill:#008484; fill-opacity:0.0; 
stroke:#008484; stroke-width:60; stroke-opacity:1; 
stroke-linecap:round; stroke-linejoin:round;">
<text x="55000" y="19020"
textLength="1580" font-size="660" lengthAdjust="spacingAndGlyphs"
text-anchor="middle" opacity="0">SW1</text>
<path d="M54330 18970
L54400 18990
L54520 18990
L54570 18970
L54590 18940
L54610 18900
L54610 18850
L54590 18800
L54570 18780
L54520 18750
L54420 18730
L54380 18710
L54350 18680
L54330 18630
L54330 18590
L54350 18540
L54380 18520
L54420 18490
L54540 18490
L54610 18520
" />
<path d="M54780 18490
L54900 18990
L55000 18630
L55090 18990
L55210 18490
" />
<path d="M55660 18990
L55380 18990
" />
<path d="M55520 18990
L55520 18490
L55470 18560
L55420 18610
L55380 18630
" />
</g>
</g>
<g style="fill:#008484; fill-opacity:0.0; 
stroke:#008484; stroke-width:0; stroke-opacity:1; 
stroke-linecap:round; stroke-linejoin:round;">
<g >
</g>
<g style="fill:#840000; fill-opacity:0.0; 
stroke:#840000; stroke-width:0; stroke-opacity:1; 
stroke-linecap:round; stroke-linejoin:round;">
</g>
<g style="fill:#840000; fill-opacity:1.0; 
stroke:#840000; stroke-width:60; stroke-opacity:1; 
stroke-linecap:round; stroke-linejoin:round;">
<rect x="47600" y="23800" width="1800" height="100" rx="0" />
<rect x="47880" y="24030" width="1200" height="200" rx="0" />
</g>
<g style="fill:#840000; fill-opacity:0.0; 
stroke:#840000; stroke-width:60; stroke-opacity:1; 
stroke-linecap:round; stroke-linejoin:round;">
<path style="fill:#840000; fill-opacity:0.0; 
stroke:#840000; stroke-width:60; stroke-opacity:1; 
stroke-linecap:round; stroke-linejoin:round;fill:none"
d="M 48500,24200
48500,24500
" /> 
<path style="fill:#840000; fill-opacity:0.0; 
stroke:#840000; stroke-width:60; stroke-opacity:1; 
stroke-linecap:round; stroke-linejoin:round;fill:none"
d="M 48500,23800
48500,23500
" /> 
</g>
<g style="fill:#840000; fill-opacity:0.0; 
stroke:#840000; stroke-width:100; stroke-opacity:1; 
stroke-linecap:round; stroke-linejoin:round;">
<path style="fill:#840000; fill-opacity:0.0; 
stroke:#840000; stroke-width:100; stroke-opacity:1; 
stroke-linecap:round; stroke-linejoin:round;fill:none"
d="M 48700,23150
49100,23150
" /> 
<path style="fill:#840000; fill-opacity:0.0; 
stroke:#840000; stroke-width:100; stroke-opacity:1; 
stroke-linecap:round; stroke-linejoin:round;fill:none"
d="M 48900,22950
48900,23350
" /> 
</g>
<g style="fill:#840000; fill-opacity:0.0; 
stroke:#840000; stroke-width:60; stroke-opacity:1; 
stroke-linecap:round; stroke-linejoin:round;">
<path d="M48500 23500
L48500 22500
" />
<path d="M48500 24500
L48500 25500
" />
</g>
<g style="fill:#008484; fill-opacity:0.0; 
stroke:#008484; stroke-width:60; stroke-opacity:1; 
stroke-linecap:round; stroke-linejoin:round;">
<text x="50160" y="23810"
textLength="960" font-size="660" lengthAdjust="spacingAndGlyphs"
text-anchor="middle" opacity="0">V1</text>
<path d="M49750 23280
L49920 23780
L50080 23280
" />
<path d="M50510 23780
L50230 23780
" />
<path d="M50370 23780
L50370 23280
L50320 23350
L50270 23400
L50230 23420
" />
<text x="50400" y="24720"
textLength="1440" font-size="660" lengthAdjust="spacingAndGlyphs"
text-anchor="middle" opacity="0">10V</text>
<path d="M50090 24690
L49800 24690
" />
<path d="M49940 24690
L49940 24190
L49900 24260
L49850 24310
L49800 24330
" />
<path d="M50400 24190
L50440 24190
L50490 24220
L50510 24240
L50540 24290
L50560 24380
L50560 24500
L50540 24600
L50510 24640
L50490 24670
L50440 24690
L50400 24690
L50350 24670
L50320 24640
L50300 24600
L50280 24500
L50280 24380
L50300 24290
L50320 24240
L50350 24220
L50400 24190
" />
<path d="M50700 24190
L50870 24690
L51040 24190
" />
</g>
</g>
<g style="fill:#008484; fill-opacity:0.0; 
stroke:#008484; stroke-width:60; stroke-opacity:1; 
stroke-linecap:round; stroke-linejoin:round;">
</g>
<g style="fill:#008400; fill-opacity:0.0; 
stroke:#008400; stroke-width:60; stroke-opacity:1; 
stroke-linecap:round; stroke-linejoin:round;">
<path d="M60000 39500
L63000 39500
" />
<path d="M48500 39500
L52000 39500
" />
<path d="M48500 51500
L63000 51500
" />
<path d="M55000 39500
L56000 39500
" />
<path d="M63000 51500
L68500 51500
" />
<path d="M63000 50000
L63000 51500
" />
<path d="M68500 51500
L68500 47000
" />
<path d="M48500 47000
L48500 51500
" />
<path d="M68500 39500
L68500 44000
" />
<path d="M63000 41000
L63000 39500
" />
<path d="M63000 39500
L68500 39500
" />
<path d="M63000 46000
L63000 44000
" />
<path d="M58500 28000
L68500 28000
" />
<path d="M48500 22500
L48500 20000
" />
<path d="M48500 20000
L51500 20000
" />
<path d="M55500 20000
L58500 20000
" />
<path d="M58500 22000
L58500 20000
" />
<path d="M58500 20000
L62000 20000
" />
<path d="M65000 20000
L68500 20000
" />
<path d="M68500 20000
L68500 22500
" />
<path d="M48500 25500
L48500 28000
" />
<path d="M48500 28000
L58500 28000
" />
<path d="M68500 28000
L68500 25500
" />
<path d="M58500 26000
L58500 28000
" />
<path d="M48500 44000
L48500 39500
" />
</g>
<g style="fill:#0000C2; fill-opacity:0.0; 
stroke:#0000C2; stroke-width:60; stroke-opacity:1; 
stroke-linecap:round; stroke-linejoin:round;">
<text x="44500" y="37900"
textLength="850" font-size="660" lengthAdjust="spacingAndGlyphs"
text-anchor="start" opacity="0">b)</text>
<path d="M44640 37870
L44640 37370
" />
<path d="M44640 37560
L44690 37540
L44790 37540
L44830 37560
L44860 37590
L44880 37630
L44880 37780
L44860 37820
L44830 37850
L44790 37870
L44690 37870
L44640 37850
" />
<path d="M45050 38060
L45070 38040
L45120 37970
L45140 37920
L45170 37850
L45190 37730
L45190 37630
L45170 37510
L45140 37440
L45120 37400
L45070 37320
L45050 37300
" />
<text x="44500" y="16900"
textLength="850" font-size="660" lengthAdjust="spacingAndGlyphs"
text-anchor="start" opacity="0">a)</text>
<path d="M44860 16870
L44860 16610
L44830 16560
L44790 16540
L44690 16540
L44640 16560
" />
<path d="M44860 16850
L44810 16870
L44690 16870
L44640 16850
L44620 16800
L44620 16750
L44640 16700
L44690 16680
L44810 16680
L44860 16660
" />
<path d="M45050 17060
L45070 17040
L45120 16970
L45140 16920
L45170 16850
L45190 16730
L45190 16630
L45170 16510
L45140 16440
L45120 16400
L45070 16320
L45050 16300
" />
</g>
<g style="fill:#0000C2; fill-opacity:0.0; 
stroke:#0000C2; stroke-width:0; stroke-opacity:1; 
stroke-linecap:round; stroke-linejoin:round;">
</g>
<g style="fill:#008400; fill-opacity:0.0; 
stroke:#008400; stroke-width:0; stroke-opacity:1; 
stroke-linecap:round; stroke-linejoin:round;">
</g>
<g style="fill:#008400; fill-opacity:1.0; 
stroke:#008400; stroke-width:100; stroke-opacity:1; 
stroke-linecap:round; stroke-linejoin:round;">
<circle cx="58500" cy="20000" r="200" /> 
</g>
<g style="fill:#008400; fill-opacity:1.0; 
stroke:#008400; stroke-width:0; stroke-opacity:1; 
stroke-linecap:round; stroke-linejoin:round;">
</g>
<g style="fill:#008400; fill-opacity:1.0; 
stroke:#008400; stroke-width:100; stroke-opacity:1; 
stroke-linecap:round; stroke-linejoin:round;">
<circle cx="63000" cy="51500" r="200" /> 
</g>
<g style="fill:#008400; fill-opacity:1.0; 
stroke:#008400; stroke-width:0; stroke-opacity:1; 
stroke-linecap:round; stroke-linejoin:round;">
</g>
<g style="fill:#008400; fill-opacity:1.0; 
stroke:#008400; stroke-width:100; stroke-opacity:1; 
stroke-linecap:round; stroke-linejoin:round;">
<circle cx="58500" cy="28000" r="200" /> 
</g>
<g style="fill:#008400; fill-opacity:1.0; 
stroke:#008400; stroke-width:0; stroke-opacity:1; 
stroke-linecap:round; stroke-linejoin:round;">
</g>
<g style="fill:#008400; fill-opacity:1.0; 
stroke:#008400; stroke-width:100; stroke-opacity:1; 
stroke-linecap:round; stroke-linejoin:round;">
<circle cx="63000" cy="39500" r="200" /> 
</g> 
</svg>
