%FSLAX45Y45*%
G04 Gerber Fmt 4.5, Leading zero omitted, Abs format (unit mm)*
G04 Created by KiCad (PCBNEW 5.1.6-c6e7f7d~87~ubuntu20.04.1) date 2020-09-28 13:15:50*
%MOMM*%
%LPD*%
G01*
G04 APERTURE LIST*
%TA.AperFunction,Profile*%
%ADD10C,0.050000*%
%TD*%
%ADD11C,0.200000*%
%ADD12C,0.300000*%
G04 APERTURE END LIST*
D10*
X5969000Y-6858000D02*
X5842000Y-6985000D01*
X3683000Y-5080000D02*
G75*
G02*
X3810000Y-4953000I127000J0D01*
G01*
X5969000Y-4953000D02*
X3810000Y-4953000D01*
X5969000Y-6858000D02*
X5969000Y-4953000D01*
X3683000Y-6985000D02*
X5842000Y-6985000D01*
X3683000Y-5080000D02*
X3683000Y-6985000D01*
D11*
X3897000Y-6437000D02*
X3977000Y-6517000D01*
X3977000Y-6437000D02*
X3897000Y-6517000D01*
X4659000Y-6437000D02*
X4739000Y-6517000D01*
X4739000Y-6437000D02*
X4659000Y-6517000D01*
X5379000Y-6096000D02*
G75*
G03*
X5379000Y-6096000I-45000J0D01*
G01*
X5379000Y-6350000D02*
G75*
G03*
X5379000Y-6350000I-45000J0D01*
G01*
X5379000Y-5334000D02*
G75*
G03*
X5379000Y-5334000I-45000J0D01*
G01*
X5379000Y-5588000D02*
G75*
G03*
X5379000Y-5588000I-45000J0D01*
G01*
X4318000Y-5396000D02*
X4318000Y-5526000D01*
X4253000Y-5461000D02*
X4383000Y-5461000D01*
X4318000Y-5904000D02*
X4318000Y-6034000D01*
X4253000Y-5969000D02*
X4383000Y-5969000D01*
D12*
X3966928Y-7453214D02*
X3966928Y-7153214D01*
X4038357Y-7153214D01*
X4081214Y-7167500D01*
X4109786Y-7196071D01*
X4124071Y-7224643D01*
X4138357Y-7281786D01*
X4138357Y-7324643D01*
X4124071Y-7381786D01*
X4109786Y-7410357D01*
X4081214Y-7438929D01*
X4038357Y-7453214D01*
X3966928Y-7453214D01*
X4266928Y-7453214D02*
X4266928Y-7253214D01*
X4266928Y-7310357D02*
X4281214Y-7281786D01*
X4295500Y-7267500D01*
X4324071Y-7253214D01*
X4352643Y-7253214D01*
X4452643Y-7453214D02*
X4452643Y-7253214D01*
X4452643Y-7153214D02*
X4438357Y-7167500D01*
X4452643Y-7181786D01*
X4466928Y-7167500D01*
X4452643Y-7153214D01*
X4452643Y-7181786D01*
X4638357Y-7453214D02*
X4609786Y-7438929D01*
X4595500Y-7410357D01*
X4595500Y-7153214D01*
X4795500Y-7453214D02*
X4766928Y-7438929D01*
X4752643Y-7410357D01*
X4752643Y-7153214D01*
X5138357Y-7453214D02*
X5138357Y-7153214D01*
X5238357Y-7367500D01*
X5338357Y-7153214D01*
X5338357Y-7453214D01*
X5609786Y-7453214D02*
X5609786Y-7296071D01*
X5595500Y-7267500D01*
X5566928Y-7253214D01*
X5509786Y-7253214D01*
X5481214Y-7267500D01*
X5609786Y-7438929D02*
X5581214Y-7453214D01*
X5509786Y-7453214D01*
X5481214Y-7438929D01*
X5466928Y-7410357D01*
X5466928Y-7381786D01*
X5481214Y-7353214D01*
X5509786Y-7338929D01*
X5581214Y-7338929D01*
X5609786Y-7324643D01*
X5752643Y-7253214D02*
X5752643Y-7553214D01*
X5752643Y-7267500D02*
X5781214Y-7253214D01*
X5838357Y-7253214D01*
X5866928Y-7267500D01*
X5881214Y-7281786D01*
X5895500Y-7310357D01*
X5895500Y-7396071D01*
X5881214Y-7424643D01*
X5866928Y-7438929D01*
X5838357Y-7453214D01*
X5781214Y-7453214D01*
X5752643Y-7438929D01*
X6024071Y-7424643D02*
X6038357Y-7438929D01*
X6024071Y-7453214D01*
X6009786Y-7438929D01*
X6024071Y-7424643D01*
X6024071Y-7453214D01*
X6024071Y-7267500D02*
X6038357Y-7281786D01*
X6024071Y-7296071D01*
X6009786Y-7281786D01*
X6024071Y-7267500D01*
X6024071Y-7296071D01*
X3600500Y-7907500D02*
X3680500Y-7987500D01*
X3680500Y-7907500D02*
X3600500Y-7987500D01*
X4024071Y-7783214D02*
X4052643Y-7783214D01*
X4081214Y-7797500D01*
X4095500Y-7811786D01*
X4109786Y-7840357D01*
X4124071Y-7897500D01*
X4124071Y-7968929D01*
X4109786Y-8026071D01*
X4095500Y-8054643D01*
X4081214Y-8068929D01*
X4052643Y-8083214D01*
X4024071Y-8083214D01*
X3995500Y-8068929D01*
X3981214Y-8054643D01*
X3966928Y-8026071D01*
X3952643Y-7968929D01*
X3952643Y-7897500D01*
X3966928Y-7840357D01*
X3981214Y-7811786D01*
X3995500Y-7797500D01*
X4024071Y-7783214D01*
X4252643Y-8054643D02*
X4266928Y-8068929D01*
X4252643Y-8083214D01*
X4238357Y-8068929D01*
X4252643Y-8054643D01*
X4252643Y-8083214D01*
X4438357Y-7911786D02*
X4409786Y-7897500D01*
X4395500Y-7883214D01*
X4381214Y-7854643D01*
X4381214Y-7840357D01*
X4395500Y-7811786D01*
X4409786Y-7797500D01*
X4438357Y-7783214D01*
X4495500Y-7783214D01*
X4524071Y-7797500D01*
X4538357Y-7811786D01*
X4552643Y-7840357D01*
X4552643Y-7854643D01*
X4538357Y-7883214D01*
X4524071Y-7897500D01*
X4495500Y-7911786D01*
X4438357Y-7911786D01*
X4409786Y-7926071D01*
X4395500Y-7940357D01*
X4381214Y-7968929D01*
X4381214Y-8026071D01*
X4395500Y-8054643D01*
X4409786Y-8068929D01*
X4438357Y-8083214D01*
X4495500Y-8083214D01*
X4524071Y-8068929D01*
X4538357Y-8054643D01*
X4552643Y-8026071D01*
X4552643Y-7968929D01*
X4538357Y-7940357D01*
X4524071Y-7926071D01*
X4495500Y-7911786D01*
X4738357Y-7783214D02*
X4766928Y-7783214D01*
X4795500Y-7797500D01*
X4809786Y-7811786D01*
X4824071Y-7840357D01*
X4838357Y-7897500D01*
X4838357Y-7968929D01*
X4824071Y-8026071D01*
X4809786Y-8054643D01*
X4795500Y-8068929D01*
X4766928Y-8083214D01*
X4738357Y-8083214D01*
X4709786Y-8068929D01*
X4695500Y-8054643D01*
X4681214Y-8026071D01*
X4666928Y-7968929D01*
X4666928Y-7897500D01*
X4681214Y-7840357D01*
X4695500Y-7811786D01*
X4709786Y-7797500D01*
X4738357Y-7783214D01*
X4966928Y-8083214D02*
X4966928Y-7883214D01*
X4966928Y-7911786D02*
X4981214Y-7897500D01*
X5009786Y-7883214D01*
X5052643Y-7883214D01*
X5081214Y-7897500D01*
X5095500Y-7926071D01*
X5095500Y-8083214D01*
X5095500Y-7926071D02*
X5109786Y-7897500D01*
X5138357Y-7883214D01*
X5181214Y-7883214D01*
X5209786Y-7897500D01*
X5224071Y-7926071D01*
X5224071Y-8083214D01*
X5366928Y-8083214D02*
X5366928Y-7883214D01*
X5366928Y-7911786D02*
X5381214Y-7897500D01*
X5409786Y-7883214D01*
X5452643Y-7883214D01*
X5481214Y-7897500D01*
X5495500Y-7926071D01*
X5495500Y-8083214D01*
X5495500Y-7926071D02*
X5509786Y-7897500D01*
X5538357Y-7883214D01*
X5581214Y-7883214D01*
X5609786Y-7897500D01*
X5624071Y-7926071D01*
X5624071Y-8083214D01*
X6209786Y-7768929D02*
X5952643Y-8154643D01*
X6595500Y-7783214D02*
X6624071Y-7783214D01*
X6652643Y-7797500D01*
X6666928Y-7811786D01*
X6681214Y-7840357D01*
X6695500Y-7897500D01*
X6695500Y-7968929D01*
X6681214Y-8026071D01*
X6666928Y-8054643D01*
X6652643Y-8068929D01*
X6624071Y-8083214D01*
X6595500Y-8083214D01*
X6566928Y-8068929D01*
X6552643Y-8054643D01*
X6538357Y-8026071D01*
X6524071Y-7968929D01*
X6524071Y-7897500D01*
X6538357Y-7840357D01*
X6552643Y-7811786D01*
X6566928Y-7797500D01*
X6595500Y-7783214D01*
X6824071Y-8054643D02*
X6838357Y-8068929D01*
X6824071Y-8083214D01*
X6809786Y-8068929D01*
X6824071Y-8054643D01*
X6824071Y-8083214D01*
X7024071Y-7783214D02*
X7052643Y-7783214D01*
X7081214Y-7797500D01*
X7095500Y-7811786D01*
X7109786Y-7840357D01*
X7124071Y-7897500D01*
X7124071Y-7968929D01*
X7109786Y-8026071D01*
X7095500Y-8054643D01*
X7081214Y-8068929D01*
X7052643Y-8083214D01*
X7024071Y-8083214D01*
X6995500Y-8068929D01*
X6981214Y-8054643D01*
X6966928Y-8026071D01*
X6952643Y-7968929D01*
X6952643Y-7897500D01*
X6966928Y-7840357D01*
X6981214Y-7811786D01*
X6995500Y-7797500D01*
X7024071Y-7783214D01*
X7224071Y-7783214D02*
X7409786Y-7783214D01*
X7309786Y-7897500D01*
X7352643Y-7897500D01*
X7381214Y-7911786D01*
X7395500Y-7926071D01*
X7409786Y-7954643D01*
X7409786Y-8026071D01*
X7395500Y-8054643D01*
X7381214Y-8068929D01*
X7352643Y-8083214D01*
X7266928Y-8083214D01*
X7238357Y-8068929D01*
X7224071Y-8054643D01*
X7695500Y-8083214D02*
X7524071Y-8083214D01*
X7609786Y-8083214D02*
X7609786Y-7783214D01*
X7581214Y-7826071D01*
X7552643Y-7854643D01*
X7524071Y-7868929D01*
X7809786Y-7783214D02*
X7809786Y-7840357D01*
X7924071Y-7783214D02*
X7924071Y-7840357D01*
X8366928Y-8197500D02*
X8352643Y-8183214D01*
X8324071Y-8140357D01*
X8309786Y-8111786D01*
X8295500Y-8068929D01*
X8281214Y-7997500D01*
X8281214Y-7940357D01*
X8295500Y-7868929D01*
X8309786Y-7826071D01*
X8324071Y-7797500D01*
X8352643Y-7754643D01*
X8366928Y-7740357D01*
X8466928Y-7811786D02*
X8481214Y-7797500D01*
X8509786Y-7783214D01*
X8581214Y-7783214D01*
X8609786Y-7797500D01*
X8624071Y-7811786D01*
X8638357Y-7840357D01*
X8638357Y-7868929D01*
X8624071Y-7911786D01*
X8452643Y-8083214D01*
X8638357Y-8083214D01*
X8995500Y-8083214D02*
X8995500Y-7783214D01*
X9124071Y-8083214D02*
X9124071Y-7926071D01*
X9109786Y-7897500D01*
X9081214Y-7883214D01*
X9038357Y-7883214D01*
X9009786Y-7897500D01*
X8995500Y-7911786D01*
X9309786Y-8083214D02*
X9281214Y-8068929D01*
X9266928Y-8054643D01*
X9252643Y-8026071D01*
X9252643Y-7940357D01*
X9266928Y-7911786D01*
X9281214Y-7897500D01*
X9309786Y-7883214D01*
X9352643Y-7883214D01*
X9381214Y-7897500D01*
X9395500Y-7911786D01*
X9409786Y-7940357D01*
X9409786Y-8026071D01*
X9395500Y-8054643D01*
X9381214Y-8068929D01*
X9352643Y-8083214D01*
X9309786Y-8083214D01*
X9581214Y-8083214D02*
X9552643Y-8068929D01*
X9538357Y-8040357D01*
X9538357Y-7783214D01*
X9809786Y-8068929D02*
X9781214Y-8083214D01*
X9724071Y-8083214D01*
X9695500Y-8068929D01*
X9681214Y-8040357D01*
X9681214Y-7926071D01*
X9695500Y-7897500D01*
X9724071Y-7883214D01*
X9781214Y-7883214D01*
X9809786Y-7897500D01*
X9824071Y-7926071D01*
X9824071Y-7954643D01*
X9681214Y-7983214D01*
X9938357Y-8068929D02*
X9966928Y-8083214D01*
X10024071Y-8083214D01*
X10052643Y-8068929D01*
X10066928Y-8040357D01*
X10066928Y-8026071D01*
X10052643Y-7997500D01*
X10024071Y-7983214D01*
X9981214Y-7983214D01*
X9952643Y-7968929D01*
X9938357Y-7940357D01*
X9938357Y-7926071D01*
X9952643Y-7897500D01*
X9981214Y-7883214D01*
X10024071Y-7883214D01*
X10052643Y-7897500D01*
X10166928Y-8197500D02*
X10181214Y-8183214D01*
X10209786Y-8140357D01*
X10224071Y-8111786D01*
X10238357Y-8068929D01*
X10252643Y-7997500D01*
X10252643Y-7940357D01*
X10238357Y-7868929D01*
X10224071Y-7826071D01*
X10209786Y-7797500D01*
X10181214Y-7754643D01*
X10166928Y-7740357D01*
X3680500Y-8343500D02*
G75*
G03*
X3680500Y-8343500I-45000J0D01*
G01*
X4024071Y-8179214D02*
X4052643Y-8179214D01*
X4081214Y-8193500D01*
X4095500Y-8207786D01*
X4109786Y-8236357D01*
X4124071Y-8293500D01*
X4124071Y-8364929D01*
X4109786Y-8422072D01*
X4095500Y-8450643D01*
X4081214Y-8464929D01*
X4052643Y-8479214D01*
X4024071Y-8479214D01*
X3995500Y-8464929D01*
X3981214Y-8450643D01*
X3966928Y-8422072D01*
X3952643Y-8364929D01*
X3952643Y-8293500D01*
X3966928Y-8236357D01*
X3981214Y-8207786D01*
X3995500Y-8193500D01*
X4024071Y-8179214D01*
X4252643Y-8450643D02*
X4266928Y-8464929D01*
X4252643Y-8479214D01*
X4238357Y-8464929D01*
X4252643Y-8450643D01*
X4252643Y-8479214D01*
X4409786Y-8479214D02*
X4466928Y-8479214D01*
X4495500Y-8464929D01*
X4509786Y-8450643D01*
X4538357Y-8407786D01*
X4552643Y-8350643D01*
X4552643Y-8236357D01*
X4538357Y-8207786D01*
X4524071Y-8193500D01*
X4495500Y-8179214D01*
X4438357Y-8179214D01*
X4409786Y-8193500D01*
X4395500Y-8207786D01*
X4381214Y-8236357D01*
X4381214Y-8307786D01*
X4395500Y-8336357D01*
X4409786Y-8350643D01*
X4438357Y-8364929D01*
X4495500Y-8364929D01*
X4524071Y-8350643D01*
X4538357Y-8336357D01*
X4552643Y-8307786D01*
X4738357Y-8179214D02*
X4766928Y-8179214D01*
X4795500Y-8193500D01*
X4809786Y-8207786D01*
X4824071Y-8236357D01*
X4838357Y-8293500D01*
X4838357Y-8364929D01*
X4824071Y-8422072D01*
X4809786Y-8450643D01*
X4795500Y-8464929D01*
X4766928Y-8479214D01*
X4738357Y-8479214D01*
X4709786Y-8464929D01*
X4695500Y-8450643D01*
X4681214Y-8422072D01*
X4666928Y-8364929D01*
X4666928Y-8293500D01*
X4681214Y-8236357D01*
X4695500Y-8207786D01*
X4709786Y-8193500D01*
X4738357Y-8179214D01*
X4966928Y-8479214D02*
X4966928Y-8279214D01*
X4966928Y-8307786D02*
X4981214Y-8293500D01*
X5009786Y-8279214D01*
X5052643Y-8279214D01*
X5081214Y-8293500D01*
X5095500Y-8322071D01*
X5095500Y-8479214D01*
X5095500Y-8322071D02*
X5109786Y-8293500D01*
X5138357Y-8279214D01*
X5181214Y-8279214D01*
X5209786Y-8293500D01*
X5224071Y-8322071D01*
X5224071Y-8479214D01*
X5366928Y-8479214D02*
X5366928Y-8279214D01*
X5366928Y-8307786D02*
X5381214Y-8293500D01*
X5409786Y-8279214D01*
X5452643Y-8279214D01*
X5481214Y-8293500D01*
X5495500Y-8322071D01*
X5495500Y-8479214D01*
X5495500Y-8322071D02*
X5509786Y-8293500D01*
X5538357Y-8279214D01*
X5581214Y-8279214D01*
X5609786Y-8293500D01*
X5624071Y-8322071D01*
X5624071Y-8479214D01*
X6209786Y-8164929D02*
X5952643Y-8550643D01*
X6595500Y-8179214D02*
X6624071Y-8179214D01*
X6652643Y-8193500D01*
X6666928Y-8207786D01*
X6681214Y-8236357D01*
X6695500Y-8293500D01*
X6695500Y-8364929D01*
X6681214Y-8422072D01*
X6666928Y-8450643D01*
X6652643Y-8464929D01*
X6624071Y-8479214D01*
X6595500Y-8479214D01*
X6566928Y-8464929D01*
X6552643Y-8450643D01*
X6538357Y-8422072D01*
X6524071Y-8364929D01*
X6524071Y-8293500D01*
X6538357Y-8236357D01*
X6552643Y-8207786D01*
X6566928Y-8193500D01*
X6595500Y-8179214D01*
X6824071Y-8450643D02*
X6838357Y-8464929D01*
X6824071Y-8479214D01*
X6809786Y-8464929D01*
X6824071Y-8450643D01*
X6824071Y-8479214D01*
X7024071Y-8179214D02*
X7052643Y-8179214D01*
X7081214Y-8193500D01*
X7095500Y-8207786D01*
X7109786Y-8236357D01*
X7124071Y-8293500D01*
X7124071Y-8364929D01*
X7109786Y-8422072D01*
X7095500Y-8450643D01*
X7081214Y-8464929D01*
X7052643Y-8479214D01*
X7024071Y-8479214D01*
X6995500Y-8464929D01*
X6981214Y-8450643D01*
X6966928Y-8422072D01*
X6952643Y-8364929D01*
X6952643Y-8293500D01*
X6966928Y-8236357D01*
X6981214Y-8207786D01*
X6995500Y-8193500D01*
X7024071Y-8179214D01*
X7224071Y-8179214D02*
X7409786Y-8179214D01*
X7309786Y-8293500D01*
X7352643Y-8293500D01*
X7381214Y-8307786D01*
X7395500Y-8322071D01*
X7409786Y-8350643D01*
X7409786Y-8422072D01*
X7395500Y-8450643D01*
X7381214Y-8464929D01*
X7352643Y-8479214D01*
X7266928Y-8479214D01*
X7238357Y-8464929D01*
X7224071Y-8450643D01*
X7681214Y-8179214D02*
X7538357Y-8179214D01*
X7524071Y-8322071D01*
X7538357Y-8307786D01*
X7566928Y-8293500D01*
X7638357Y-8293500D01*
X7666928Y-8307786D01*
X7681214Y-8322071D01*
X7695500Y-8350643D01*
X7695500Y-8422072D01*
X7681214Y-8450643D01*
X7666928Y-8464929D01*
X7638357Y-8479214D01*
X7566928Y-8479214D01*
X7538357Y-8464929D01*
X7524071Y-8450643D01*
X7809786Y-8179214D02*
X7809786Y-8236357D01*
X7924071Y-8179214D02*
X7924071Y-8236357D01*
X8366928Y-8593500D02*
X8352643Y-8579214D01*
X8324071Y-8536357D01*
X8309786Y-8507786D01*
X8295500Y-8464929D01*
X8281214Y-8393500D01*
X8281214Y-8336357D01*
X8295500Y-8264929D01*
X8309786Y-8222071D01*
X8324071Y-8193500D01*
X8352643Y-8150643D01*
X8366928Y-8136357D01*
X8609786Y-8279214D02*
X8609786Y-8479214D01*
X8538357Y-8164929D02*
X8466928Y-8379214D01*
X8652643Y-8379214D01*
X8995500Y-8479214D02*
X8995500Y-8179214D01*
X9124071Y-8479214D02*
X9124071Y-8322071D01*
X9109786Y-8293500D01*
X9081214Y-8279214D01*
X9038357Y-8279214D01*
X9009786Y-8293500D01*
X8995500Y-8307786D01*
X9309786Y-8479214D02*
X9281214Y-8464929D01*
X9266928Y-8450643D01*
X9252643Y-8422072D01*
X9252643Y-8336357D01*
X9266928Y-8307786D01*
X9281214Y-8293500D01*
X9309786Y-8279214D01*
X9352643Y-8279214D01*
X9381214Y-8293500D01*
X9395500Y-8307786D01*
X9409786Y-8336357D01*
X9409786Y-8422072D01*
X9395500Y-8450643D01*
X9381214Y-8464929D01*
X9352643Y-8479214D01*
X9309786Y-8479214D01*
X9581214Y-8479214D02*
X9552643Y-8464929D01*
X9538357Y-8436357D01*
X9538357Y-8179214D01*
X9809786Y-8464929D02*
X9781214Y-8479214D01*
X9724071Y-8479214D01*
X9695500Y-8464929D01*
X9681214Y-8436357D01*
X9681214Y-8322071D01*
X9695500Y-8293500D01*
X9724071Y-8279214D01*
X9781214Y-8279214D01*
X9809786Y-8293500D01*
X9824071Y-8322071D01*
X9824071Y-8350643D01*
X9681214Y-8379214D01*
X9938357Y-8464929D02*
X9966928Y-8479214D01*
X10024071Y-8479214D01*
X10052643Y-8464929D01*
X10066928Y-8436357D01*
X10066928Y-8422072D01*
X10052643Y-8393500D01*
X10024071Y-8379214D01*
X9981214Y-8379214D01*
X9952643Y-8364929D01*
X9938357Y-8336357D01*
X9938357Y-8322071D01*
X9952643Y-8293500D01*
X9981214Y-8279214D01*
X10024071Y-8279214D01*
X10052643Y-8293500D01*
X10166928Y-8593500D02*
X10181214Y-8579214D01*
X10209786Y-8536357D01*
X10224071Y-8507786D01*
X10238357Y-8464929D01*
X10252643Y-8393500D01*
X10252643Y-8336357D01*
X10238357Y-8264929D01*
X10224071Y-8222071D01*
X10209786Y-8193500D01*
X10181214Y-8150643D01*
X10166928Y-8136357D01*
X3615500Y-8674500D02*
X3615500Y-8804500D01*
X3550500Y-8739500D02*
X3680500Y-8739500D01*
X4124071Y-8875214D02*
X3952643Y-8875214D01*
X4038357Y-8875214D02*
X4038357Y-8575214D01*
X4009786Y-8618072D01*
X3981214Y-8646643D01*
X3952643Y-8660929D01*
X4252643Y-8846643D02*
X4266928Y-8860929D01*
X4252643Y-8875214D01*
X4238357Y-8860929D01*
X4252643Y-8846643D01*
X4252643Y-8875214D01*
X4366928Y-8575214D02*
X4552643Y-8575214D01*
X4452643Y-8689500D01*
X4495500Y-8689500D01*
X4524071Y-8703786D01*
X4538357Y-8718072D01*
X4552643Y-8746643D01*
X4552643Y-8818072D01*
X4538357Y-8846643D01*
X4524071Y-8860929D01*
X4495500Y-8875214D01*
X4409786Y-8875214D01*
X4381214Y-8860929D01*
X4366928Y-8846643D01*
X4738357Y-8575214D02*
X4766928Y-8575214D01*
X4795500Y-8589500D01*
X4809786Y-8603786D01*
X4824071Y-8632357D01*
X4838357Y-8689500D01*
X4838357Y-8760929D01*
X4824071Y-8818072D01*
X4809786Y-8846643D01*
X4795500Y-8860929D01*
X4766928Y-8875214D01*
X4738357Y-8875214D01*
X4709786Y-8860929D01*
X4695500Y-8846643D01*
X4681214Y-8818072D01*
X4666928Y-8760929D01*
X4666928Y-8689500D01*
X4681214Y-8632357D01*
X4695500Y-8603786D01*
X4709786Y-8589500D01*
X4738357Y-8575214D01*
X4966928Y-8875214D02*
X4966928Y-8675214D01*
X4966928Y-8703786D02*
X4981214Y-8689500D01*
X5009786Y-8675214D01*
X5052643Y-8675214D01*
X5081214Y-8689500D01*
X5095500Y-8718072D01*
X5095500Y-8875214D01*
X5095500Y-8718072D02*
X5109786Y-8689500D01*
X5138357Y-8675214D01*
X5181214Y-8675214D01*
X5209786Y-8689500D01*
X5224071Y-8718072D01*
X5224071Y-8875214D01*
X5366928Y-8875214D02*
X5366928Y-8675214D01*
X5366928Y-8703786D02*
X5381214Y-8689500D01*
X5409786Y-8675214D01*
X5452643Y-8675214D01*
X5481214Y-8689500D01*
X5495500Y-8718072D01*
X5495500Y-8875214D01*
X5495500Y-8718072D02*
X5509786Y-8689500D01*
X5538357Y-8675214D01*
X5581214Y-8675214D01*
X5609786Y-8689500D01*
X5624071Y-8718072D01*
X5624071Y-8875214D01*
X6209786Y-8560929D02*
X5952643Y-8946643D01*
X6595500Y-8575214D02*
X6624071Y-8575214D01*
X6652643Y-8589500D01*
X6666928Y-8603786D01*
X6681214Y-8632357D01*
X6695500Y-8689500D01*
X6695500Y-8760929D01*
X6681214Y-8818072D01*
X6666928Y-8846643D01*
X6652643Y-8860929D01*
X6624071Y-8875214D01*
X6595500Y-8875214D01*
X6566928Y-8860929D01*
X6552643Y-8846643D01*
X6538357Y-8818072D01*
X6524071Y-8760929D01*
X6524071Y-8689500D01*
X6538357Y-8632357D01*
X6552643Y-8603786D01*
X6566928Y-8589500D01*
X6595500Y-8575214D01*
X6824071Y-8846643D02*
X6838357Y-8860929D01*
X6824071Y-8875214D01*
X6809786Y-8860929D01*
X6824071Y-8846643D01*
X6824071Y-8875214D01*
X7024071Y-8575214D02*
X7052643Y-8575214D01*
X7081214Y-8589500D01*
X7095500Y-8603786D01*
X7109786Y-8632357D01*
X7124071Y-8689500D01*
X7124071Y-8760929D01*
X7109786Y-8818072D01*
X7095500Y-8846643D01*
X7081214Y-8860929D01*
X7052643Y-8875214D01*
X7024071Y-8875214D01*
X6995500Y-8860929D01*
X6981214Y-8846643D01*
X6966928Y-8818072D01*
X6952643Y-8760929D01*
X6952643Y-8689500D01*
X6966928Y-8632357D01*
X6981214Y-8603786D01*
X6995500Y-8589500D01*
X7024071Y-8575214D01*
X7395500Y-8575214D02*
X7252643Y-8575214D01*
X7238357Y-8718072D01*
X7252643Y-8703786D01*
X7281214Y-8689500D01*
X7352643Y-8689500D01*
X7381214Y-8703786D01*
X7395500Y-8718072D01*
X7409786Y-8746643D01*
X7409786Y-8818072D01*
X7395500Y-8846643D01*
X7381214Y-8860929D01*
X7352643Y-8875214D01*
X7281214Y-8875214D01*
X7252643Y-8860929D01*
X7238357Y-8846643D01*
X7695500Y-8875214D02*
X7524071Y-8875214D01*
X7609786Y-8875214D02*
X7609786Y-8575214D01*
X7581214Y-8618072D01*
X7552643Y-8646643D01*
X7524071Y-8660929D01*
X7809786Y-8575214D02*
X7809786Y-8632357D01*
X7924071Y-8575214D02*
X7924071Y-8632357D01*
X8366928Y-8989500D02*
X8352643Y-8975214D01*
X8324071Y-8932357D01*
X8309786Y-8903786D01*
X8295500Y-8860929D01*
X8281214Y-8789500D01*
X8281214Y-8732357D01*
X8295500Y-8660929D01*
X8309786Y-8618072D01*
X8324071Y-8589500D01*
X8352643Y-8546643D01*
X8366928Y-8532357D01*
X8466928Y-8603786D02*
X8481214Y-8589500D01*
X8509786Y-8575214D01*
X8581214Y-8575214D01*
X8609786Y-8589500D01*
X8624071Y-8603786D01*
X8638357Y-8632357D01*
X8638357Y-8660929D01*
X8624071Y-8703786D01*
X8452643Y-8875214D01*
X8638357Y-8875214D01*
X8995500Y-8875214D02*
X8995500Y-8575214D01*
X9124071Y-8875214D02*
X9124071Y-8718072D01*
X9109786Y-8689500D01*
X9081214Y-8675214D01*
X9038357Y-8675214D01*
X9009786Y-8689500D01*
X8995500Y-8703786D01*
X9309786Y-8875214D02*
X9281214Y-8860929D01*
X9266928Y-8846643D01*
X9252643Y-8818072D01*
X9252643Y-8732357D01*
X9266928Y-8703786D01*
X9281214Y-8689500D01*
X9309786Y-8675214D01*
X9352643Y-8675214D01*
X9381214Y-8689500D01*
X9395500Y-8703786D01*
X9409786Y-8732357D01*
X9409786Y-8818072D01*
X9395500Y-8846643D01*
X9381214Y-8860929D01*
X9352643Y-8875214D01*
X9309786Y-8875214D01*
X9581214Y-8875214D02*
X9552643Y-8860929D01*
X9538357Y-8832357D01*
X9538357Y-8575214D01*
X9809786Y-8860929D02*
X9781214Y-8875214D01*
X9724071Y-8875214D01*
X9695500Y-8860929D01*
X9681214Y-8832357D01*
X9681214Y-8718072D01*
X9695500Y-8689500D01*
X9724071Y-8675214D01*
X9781214Y-8675214D01*
X9809786Y-8689500D01*
X9824071Y-8718072D01*
X9824071Y-8746643D01*
X9681214Y-8775214D01*
X9938357Y-8860929D02*
X9966928Y-8875214D01*
X10024071Y-8875214D01*
X10052643Y-8860929D01*
X10066928Y-8832357D01*
X10066928Y-8818072D01*
X10052643Y-8789500D01*
X10024071Y-8775214D01*
X9981214Y-8775214D01*
X9952643Y-8760929D01*
X9938357Y-8732357D01*
X9938357Y-8718072D01*
X9952643Y-8689500D01*
X9981214Y-8675214D01*
X10024071Y-8675214D01*
X10052643Y-8689500D01*
X10166928Y-8989500D02*
X10181214Y-8975214D01*
X10209786Y-8932357D01*
X10224071Y-8903786D01*
X10238357Y-8860929D01*
X10252643Y-8789500D01*
X10252643Y-8732357D01*
X10238357Y-8660929D01*
X10224071Y-8618072D01*
X10209786Y-8589500D01*
X10181214Y-8546643D01*
X10166928Y-8532357D01*
M02*
