%TF.GenerationSoftware,KiCad,Pcbnew,5.1.6-c6e7f7d~87~ubuntu20.04.1*%
%TF.CreationDate,2020-09-28T13:14:46-03:00*%
%TF.ProjectId,dois-leds,646f6973-2d6c-4656-9473-2e6b69636164,rev?*%
%TF.SameCoordinates,Original*%
%TF.FileFunction,Copper,L2,Bot*%
%TF.FilePolarity,Positive*%
%FSLAX46Y46*%
G04 Gerber Fmt 4.6, Leading zero omitted, Abs format (unit mm)*
G04 Created by KiCad (PCBNEW 5.1.6-c6e7f7d~87~ubuntu20.04.1) date 2020-09-28 13:14:46*
%MOMM*%
%LPD*%
G01*
G04 APERTURE LIST*
%TA.AperFunction,ComponentPad*%
%ADD10C,2.600000*%
%TD*%
%TA.AperFunction,ComponentPad*%
%ADD11R,2.600000X2.600000*%
%TD*%
%TA.AperFunction,ComponentPad*%
%ADD12O,1.600000X1.600000*%
%TD*%
%TA.AperFunction,ComponentPad*%
%ADD13C,1.600000*%
%TD*%
%TA.AperFunction,ComponentPad*%
%ADD14C,1.800000*%
%TD*%
%TA.AperFunction,ComponentPad*%
%ADD15R,1.800000X1.800000*%
%TD*%
%TA.AperFunction,Conductor*%
%ADD16C,0.500000*%
%TD*%
%TA.AperFunction,Conductor*%
%ADD17C,0.254000*%
%TD*%
G04 APERTURE END LIST*
D10*
%TO.P,V1,2*%
%TO.N,/gnd*%
X43180000Y-59690000D03*
D11*
%TO.P,V1,1*%
%TO.N,Net-(R1-Pad2)*%
X43180000Y-54610000D03*
%TD*%
D12*
%TO.P,R1,2*%
%TO.N,Net-(R1-Pad2)*%
X39370000Y-64770000D03*
D13*
%TO.P,R1,1*%
%TO.N,Net-(D1-Pad2)*%
X46990000Y-64770000D03*
%TD*%
D14*
%TO.P,D2,2*%
%TO.N,Net-(D1-Pad2)*%
X53340000Y-63500000D03*
D15*
%TO.P,D2,1*%
%TO.N,/gnd*%
X53340000Y-60960000D03*
%TD*%
D14*
%TO.P,D1,2*%
%TO.N,Net-(D1-Pad2)*%
X53340000Y-53340000D03*
D15*
%TO.P,D1,1*%
%TO.N,/gnd*%
X53340000Y-55880000D03*
%TD*%
D16*
%TO.N,Net-(D1-Pad2)*%
X52070000Y-64770000D02*
X53340000Y-63500000D01*
X46990000Y-64770000D02*
X52070000Y-64770000D01*
X54612792Y-53340000D02*
X53340000Y-53340000D01*
X54990001Y-53717209D02*
X54612792Y-53340000D01*
X54990001Y-63122791D02*
X54990001Y-53717209D01*
X54612792Y-63500000D02*
X54990001Y-63122791D01*
X53340000Y-63500000D02*
X54612792Y-63500000D01*
%TO.N,Net-(R1-Pad2)*%
X43180000Y-54610000D02*
X40640000Y-54610000D01*
X40640000Y-54610000D02*
X39370000Y-55880000D01*
X39370000Y-55880000D02*
X39370000Y-64770000D01*
%TD*%
D17*
%TO.N,/gnd*%
G36*
X58293000Y-68453000D02*
G01*
X38227000Y-68453000D01*
X38227000Y-65642311D01*
X38255363Y-65684759D01*
X38455241Y-65884637D01*
X38690273Y-66041680D01*
X38951426Y-66149853D01*
X39228665Y-66205000D01*
X39511335Y-66205000D01*
X39788574Y-66149853D01*
X40049727Y-66041680D01*
X40284759Y-65884637D01*
X40484637Y-65684759D01*
X40641680Y-65449727D01*
X40749853Y-65188574D01*
X40805000Y-64911335D01*
X40805000Y-64628665D01*
X45555000Y-64628665D01*
X45555000Y-64911335D01*
X45610147Y-65188574D01*
X45718320Y-65449727D01*
X45875363Y-65684759D01*
X46075241Y-65884637D01*
X46310273Y-66041680D01*
X46571426Y-66149853D01*
X46848665Y-66205000D01*
X47131335Y-66205000D01*
X47408574Y-66149853D01*
X47669727Y-66041680D01*
X47904759Y-65884637D01*
X48104637Y-65684759D01*
X48124521Y-65655000D01*
X52026531Y-65655000D01*
X52070000Y-65659281D01*
X52113469Y-65655000D01*
X52113477Y-65655000D01*
X52243490Y-65642195D01*
X52410313Y-65591589D01*
X52564059Y-65509411D01*
X52698817Y-65398817D01*
X52726534Y-65365044D01*
X53078518Y-65013060D01*
X53188816Y-65035000D01*
X53491184Y-65035000D01*
X53787743Y-64976011D01*
X54067095Y-64860299D01*
X54318505Y-64692312D01*
X54532312Y-64478505D01*
X54593218Y-64387353D01*
X54612792Y-64389281D01*
X54656261Y-64385000D01*
X54656269Y-64385000D01*
X54786282Y-64372195D01*
X54953105Y-64321589D01*
X55106851Y-64239411D01*
X55241609Y-64128817D01*
X55269326Y-64095044D01*
X55585046Y-63779324D01*
X55618818Y-63751608D01*
X55729412Y-63616850D01*
X55811590Y-63463104D01*
X55862196Y-63296281D01*
X55875001Y-63166268D01*
X55875001Y-63166258D01*
X55879282Y-63122792D01*
X55875001Y-63079325D01*
X55875001Y-53760675D01*
X55879282Y-53717208D01*
X55875001Y-53673742D01*
X55875001Y-53673732D01*
X55862196Y-53543719D01*
X55811590Y-53376896D01*
X55729412Y-53223150D01*
X55618818Y-53088392D01*
X55585045Y-53060675D01*
X55269326Y-52744956D01*
X55241609Y-52711183D01*
X55106851Y-52600589D01*
X54953105Y-52518411D01*
X54786282Y-52467805D01*
X54656269Y-52455000D01*
X54656261Y-52455000D01*
X54612792Y-52450719D01*
X54593218Y-52452647D01*
X54532312Y-52361495D01*
X54318505Y-52147688D01*
X54067095Y-51979701D01*
X53787743Y-51863989D01*
X53491184Y-51805000D01*
X53188816Y-51805000D01*
X52892257Y-51863989D01*
X52612905Y-51979701D01*
X52361495Y-52147688D01*
X52147688Y-52361495D01*
X51979701Y-52612905D01*
X51863989Y-52892257D01*
X51805000Y-53188816D01*
X51805000Y-53491184D01*
X51863989Y-53787743D01*
X51979701Y-54067095D01*
X52147688Y-54318505D01*
X52214127Y-54384944D01*
X52195820Y-54390498D01*
X52085506Y-54449463D01*
X51988815Y-54528815D01*
X51909463Y-54625506D01*
X51850498Y-54735820D01*
X51814188Y-54855518D01*
X51801928Y-54980000D01*
X51805000Y-55594250D01*
X51963750Y-55753000D01*
X53213000Y-55753000D01*
X53213000Y-55733000D01*
X53467000Y-55733000D01*
X53467000Y-55753000D01*
X53487000Y-55753000D01*
X53487000Y-56007000D01*
X53467000Y-56007000D01*
X53467000Y-57256250D01*
X53625750Y-57415000D01*
X54105002Y-57417397D01*
X54105001Y-59422603D01*
X53625750Y-59425000D01*
X53467000Y-59583750D01*
X53467000Y-60833000D01*
X53487000Y-60833000D01*
X53487000Y-61087000D01*
X53467000Y-61087000D01*
X53467000Y-61107000D01*
X53213000Y-61107000D01*
X53213000Y-61087000D01*
X51963750Y-61087000D01*
X51805000Y-61245750D01*
X51801928Y-61860000D01*
X51814188Y-61984482D01*
X51850498Y-62104180D01*
X51909463Y-62214494D01*
X51988815Y-62311185D01*
X52085506Y-62390537D01*
X52195820Y-62449502D01*
X52214127Y-62455056D01*
X52147688Y-62521495D01*
X51979701Y-62772905D01*
X51863989Y-63052257D01*
X51805000Y-63348816D01*
X51805000Y-63651184D01*
X51826940Y-63761482D01*
X51703422Y-63885000D01*
X48124521Y-63885000D01*
X48104637Y-63855241D01*
X47904759Y-63655363D01*
X47669727Y-63498320D01*
X47408574Y-63390147D01*
X47131335Y-63335000D01*
X46848665Y-63335000D01*
X46571426Y-63390147D01*
X46310273Y-63498320D01*
X46075241Y-63655363D01*
X45875363Y-63855241D01*
X45718320Y-64090273D01*
X45610147Y-64351426D01*
X45555000Y-64628665D01*
X40805000Y-64628665D01*
X40749853Y-64351426D01*
X40641680Y-64090273D01*
X40484637Y-63855241D01*
X40284759Y-63655363D01*
X40255000Y-63635479D01*
X40255000Y-61039224D01*
X42010381Y-61039224D01*
X42142317Y-61334312D01*
X42483045Y-61505159D01*
X42850557Y-61606250D01*
X43230729Y-61633701D01*
X43608951Y-61586457D01*
X43970690Y-61466333D01*
X44217683Y-61334312D01*
X44349619Y-61039224D01*
X43180000Y-59869605D01*
X42010381Y-61039224D01*
X40255000Y-61039224D01*
X40255000Y-59740729D01*
X41236299Y-59740729D01*
X41283543Y-60118951D01*
X41403667Y-60480690D01*
X41535688Y-60727683D01*
X41830776Y-60859619D01*
X43000395Y-59690000D01*
X43359605Y-59690000D01*
X44529224Y-60859619D01*
X44824312Y-60727683D01*
X44995159Y-60386955D01*
X45085094Y-60060000D01*
X51801928Y-60060000D01*
X51805000Y-60674250D01*
X51963750Y-60833000D01*
X53213000Y-60833000D01*
X53213000Y-59583750D01*
X53054250Y-59425000D01*
X52440000Y-59421928D01*
X52315518Y-59434188D01*
X52195820Y-59470498D01*
X52085506Y-59529463D01*
X51988815Y-59608815D01*
X51909463Y-59705506D01*
X51850498Y-59815820D01*
X51814188Y-59935518D01*
X51801928Y-60060000D01*
X45085094Y-60060000D01*
X45096250Y-60019443D01*
X45123701Y-59639271D01*
X45076457Y-59261049D01*
X44956333Y-58899310D01*
X44824312Y-58652317D01*
X44529224Y-58520381D01*
X43359605Y-59690000D01*
X43000395Y-59690000D01*
X41830776Y-58520381D01*
X41535688Y-58652317D01*
X41364841Y-58993045D01*
X41263750Y-59360557D01*
X41236299Y-59740729D01*
X40255000Y-59740729D01*
X40255000Y-58340776D01*
X42010381Y-58340776D01*
X43180000Y-59510395D01*
X44349619Y-58340776D01*
X44217683Y-58045688D01*
X43876955Y-57874841D01*
X43509443Y-57773750D01*
X43129271Y-57746299D01*
X42751049Y-57793543D01*
X42389310Y-57913667D01*
X42142317Y-58045688D01*
X42010381Y-58340776D01*
X40255000Y-58340776D01*
X40255000Y-56780000D01*
X51801928Y-56780000D01*
X51814188Y-56904482D01*
X51850498Y-57024180D01*
X51909463Y-57134494D01*
X51988815Y-57231185D01*
X52085506Y-57310537D01*
X52195820Y-57369502D01*
X52315518Y-57405812D01*
X52440000Y-57418072D01*
X53054250Y-57415000D01*
X53213000Y-57256250D01*
X53213000Y-56007000D01*
X51963750Y-56007000D01*
X51805000Y-56165750D01*
X51801928Y-56780000D01*
X40255000Y-56780000D01*
X40255000Y-56246578D01*
X41006579Y-55495000D01*
X41241928Y-55495000D01*
X41241928Y-55910000D01*
X41254188Y-56034482D01*
X41290498Y-56154180D01*
X41349463Y-56264494D01*
X41428815Y-56361185D01*
X41525506Y-56440537D01*
X41635820Y-56499502D01*
X41755518Y-56535812D01*
X41880000Y-56548072D01*
X44480000Y-56548072D01*
X44604482Y-56535812D01*
X44724180Y-56499502D01*
X44834494Y-56440537D01*
X44931185Y-56361185D01*
X45010537Y-56264494D01*
X45069502Y-56154180D01*
X45105812Y-56034482D01*
X45118072Y-55910000D01*
X45118072Y-53310000D01*
X45105812Y-53185518D01*
X45069502Y-53065820D01*
X45010537Y-52955506D01*
X44931185Y-52858815D01*
X44834494Y-52779463D01*
X44724180Y-52720498D01*
X44604482Y-52684188D01*
X44480000Y-52671928D01*
X41880000Y-52671928D01*
X41755518Y-52684188D01*
X41635820Y-52720498D01*
X41525506Y-52779463D01*
X41428815Y-52858815D01*
X41349463Y-52955506D01*
X41290498Y-53065820D01*
X41254188Y-53185518D01*
X41241928Y-53310000D01*
X41241928Y-53725000D01*
X40683465Y-53725000D01*
X40639999Y-53720719D01*
X40596533Y-53725000D01*
X40596523Y-53725000D01*
X40466510Y-53737805D01*
X40299687Y-53788411D01*
X40145941Y-53870589D01*
X40145939Y-53870590D01*
X40145940Y-53870590D01*
X40044953Y-53953468D01*
X40044951Y-53953470D01*
X40011183Y-53981183D01*
X39983470Y-54014951D01*
X38774956Y-55223466D01*
X38741183Y-55251183D01*
X38630589Y-55385942D01*
X38548411Y-55539688D01*
X38497805Y-55706511D01*
X38485000Y-55836524D01*
X38485000Y-55836531D01*
X38480719Y-55880000D01*
X38485000Y-55923469D01*
X38485001Y-63635478D01*
X38455241Y-63655363D01*
X38255363Y-63855241D01*
X38227000Y-63897689D01*
X38227000Y-50927000D01*
X58293000Y-50927000D01*
X58293000Y-68453000D01*
G37*
X58293000Y-68453000D02*
X38227000Y-68453000D01*
X38227000Y-65642311D01*
X38255363Y-65684759D01*
X38455241Y-65884637D01*
X38690273Y-66041680D01*
X38951426Y-66149853D01*
X39228665Y-66205000D01*
X39511335Y-66205000D01*
X39788574Y-66149853D01*
X40049727Y-66041680D01*
X40284759Y-65884637D01*
X40484637Y-65684759D01*
X40641680Y-65449727D01*
X40749853Y-65188574D01*
X40805000Y-64911335D01*
X40805000Y-64628665D01*
X45555000Y-64628665D01*
X45555000Y-64911335D01*
X45610147Y-65188574D01*
X45718320Y-65449727D01*
X45875363Y-65684759D01*
X46075241Y-65884637D01*
X46310273Y-66041680D01*
X46571426Y-66149853D01*
X46848665Y-66205000D01*
X47131335Y-66205000D01*
X47408574Y-66149853D01*
X47669727Y-66041680D01*
X47904759Y-65884637D01*
X48104637Y-65684759D01*
X48124521Y-65655000D01*
X52026531Y-65655000D01*
X52070000Y-65659281D01*
X52113469Y-65655000D01*
X52113477Y-65655000D01*
X52243490Y-65642195D01*
X52410313Y-65591589D01*
X52564059Y-65509411D01*
X52698817Y-65398817D01*
X52726534Y-65365044D01*
X53078518Y-65013060D01*
X53188816Y-65035000D01*
X53491184Y-65035000D01*
X53787743Y-64976011D01*
X54067095Y-64860299D01*
X54318505Y-64692312D01*
X54532312Y-64478505D01*
X54593218Y-64387353D01*
X54612792Y-64389281D01*
X54656261Y-64385000D01*
X54656269Y-64385000D01*
X54786282Y-64372195D01*
X54953105Y-64321589D01*
X55106851Y-64239411D01*
X55241609Y-64128817D01*
X55269326Y-64095044D01*
X55585046Y-63779324D01*
X55618818Y-63751608D01*
X55729412Y-63616850D01*
X55811590Y-63463104D01*
X55862196Y-63296281D01*
X55875001Y-63166268D01*
X55875001Y-63166258D01*
X55879282Y-63122792D01*
X55875001Y-63079325D01*
X55875001Y-53760675D01*
X55879282Y-53717208D01*
X55875001Y-53673742D01*
X55875001Y-53673732D01*
X55862196Y-53543719D01*
X55811590Y-53376896D01*
X55729412Y-53223150D01*
X55618818Y-53088392D01*
X55585045Y-53060675D01*
X55269326Y-52744956D01*
X55241609Y-52711183D01*
X55106851Y-52600589D01*
X54953105Y-52518411D01*
X54786282Y-52467805D01*
X54656269Y-52455000D01*
X54656261Y-52455000D01*
X54612792Y-52450719D01*
X54593218Y-52452647D01*
X54532312Y-52361495D01*
X54318505Y-52147688D01*
X54067095Y-51979701D01*
X53787743Y-51863989D01*
X53491184Y-51805000D01*
X53188816Y-51805000D01*
X52892257Y-51863989D01*
X52612905Y-51979701D01*
X52361495Y-52147688D01*
X52147688Y-52361495D01*
X51979701Y-52612905D01*
X51863989Y-52892257D01*
X51805000Y-53188816D01*
X51805000Y-53491184D01*
X51863989Y-53787743D01*
X51979701Y-54067095D01*
X52147688Y-54318505D01*
X52214127Y-54384944D01*
X52195820Y-54390498D01*
X52085506Y-54449463D01*
X51988815Y-54528815D01*
X51909463Y-54625506D01*
X51850498Y-54735820D01*
X51814188Y-54855518D01*
X51801928Y-54980000D01*
X51805000Y-55594250D01*
X51963750Y-55753000D01*
X53213000Y-55753000D01*
X53213000Y-55733000D01*
X53467000Y-55733000D01*
X53467000Y-55753000D01*
X53487000Y-55753000D01*
X53487000Y-56007000D01*
X53467000Y-56007000D01*
X53467000Y-57256250D01*
X53625750Y-57415000D01*
X54105002Y-57417397D01*
X54105001Y-59422603D01*
X53625750Y-59425000D01*
X53467000Y-59583750D01*
X53467000Y-60833000D01*
X53487000Y-60833000D01*
X53487000Y-61087000D01*
X53467000Y-61087000D01*
X53467000Y-61107000D01*
X53213000Y-61107000D01*
X53213000Y-61087000D01*
X51963750Y-61087000D01*
X51805000Y-61245750D01*
X51801928Y-61860000D01*
X51814188Y-61984482D01*
X51850498Y-62104180D01*
X51909463Y-62214494D01*
X51988815Y-62311185D01*
X52085506Y-62390537D01*
X52195820Y-62449502D01*
X52214127Y-62455056D01*
X52147688Y-62521495D01*
X51979701Y-62772905D01*
X51863989Y-63052257D01*
X51805000Y-63348816D01*
X51805000Y-63651184D01*
X51826940Y-63761482D01*
X51703422Y-63885000D01*
X48124521Y-63885000D01*
X48104637Y-63855241D01*
X47904759Y-63655363D01*
X47669727Y-63498320D01*
X47408574Y-63390147D01*
X47131335Y-63335000D01*
X46848665Y-63335000D01*
X46571426Y-63390147D01*
X46310273Y-63498320D01*
X46075241Y-63655363D01*
X45875363Y-63855241D01*
X45718320Y-64090273D01*
X45610147Y-64351426D01*
X45555000Y-64628665D01*
X40805000Y-64628665D01*
X40749853Y-64351426D01*
X40641680Y-64090273D01*
X40484637Y-63855241D01*
X40284759Y-63655363D01*
X40255000Y-63635479D01*
X40255000Y-61039224D01*
X42010381Y-61039224D01*
X42142317Y-61334312D01*
X42483045Y-61505159D01*
X42850557Y-61606250D01*
X43230729Y-61633701D01*
X43608951Y-61586457D01*
X43970690Y-61466333D01*
X44217683Y-61334312D01*
X44349619Y-61039224D01*
X43180000Y-59869605D01*
X42010381Y-61039224D01*
X40255000Y-61039224D01*
X40255000Y-59740729D01*
X41236299Y-59740729D01*
X41283543Y-60118951D01*
X41403667Y-60480690D01*
X41535688Y-60727683D01*
X41830776Y-60859619D01*
X43000395Y-59690000D01*
X43359605Y-59690000D01*
X44529224Y-60859619D01*
X44824312Y-60727683D01*
X44995159Y-60386955D01*
X45085094Y-60060000D01*
X51801928Y-60060000D01*
X51805000Y-60674250D01*
X51963750Y-60833000D01*
X53213000Y-60833000D01*
X53213000Y-59583750D01*
X53054250Y-59425000D01*
X52440000Y-59421928D01*
X52315518Y-59434188D01*
X52195820Y-59470498D01*
X52085506Y-59529463D01*
X51988815Y-59608815D01*
X51909463Y-59705506D01*
X51850498Y-59815820D01*
X51814188Y-59935518D01*
X51801928Y-60060000D01*
X45085094Y-60060000D01*
X45096250Y-60019443D01*
X45123701Y-59639271D01*
X45076457Y-59261049D01*
X44956333Y-58899310D01*
X44824312Y-58652317D01*
X44529224Y-58520381D01*
X43359605Y-59690000D01*
X43000395Y-59690000D01*
X41830776Y-58520381D01*
X41535688Y-58652317D01*
X41364841Y-58993045D01*
X41263750Y-59360557D01*
X41236299Y-59740729D01*
X40255000Y-59740729D01*
X40255000Y-58340776D01*
X42010381Y-58340776D01*
X43180000Y-59510395D01*
X44349619Y-58340776D01*
X44217683Y-58045688D01*
X43876955Y-57874841D01*
X43509443Y-57773750D01*
X43129271Y-57746299D01*
X42751049Y-57793543D01*
X42389310Y-57913667D01*
X42142317Y-58045688D01*
X42010381Y-58340776D01*
X40255000Y-58340776D01*
X40255000Y-56780000D01*
X51801928Y-56780000D01*
X51814188Y-56904482D01*
X51850498Y-57024180D01*
X51909463Y-57134494D01*
X51988815Y-57231185D01*
X52085506Y-57310537D01*
X52195820Y-57369502D01*
X52315518Y-57405812D01*
X52440000Y-57418072D01*
X53054250Y-57415000D01*
X53213000Y-57256250D01*
X53213000Y-56007000D01*
X51963750Y-56007000D01*
X51805000Y-56165750D01*
X51801928Y-56780000D01*
X40255000Y-56780000D01*
X40255000Y-56246578D01*
X41006579Y-55495000D01*
X41241928Y-55495000D01*
X41241928Y-55910000D01*
X41254188Y-56034482D01*
X41290498Y-56154180D01*
X41349463Y-56264494D01*
X41428815Y-56361185D01*
X41525506Y-56440537D01*
X41635820Y-56499502D01*
X41755518Y-56535812D01*
X41880000Y-56548072D01*
X44480000Y-56548072D01*
X44604482Y-56535812D01*
X44724180Y-56499502D01*
X44834494Y-56440537D01*
X44931185Y-56361185D01*
X45010537Y-56264494D01*
X45069502Y-56154180D01*
X45105812Y-56034482D01*
X45118072Y-55910000D01*
X45118072Y-53310000D01*
X45105812Y-53185518D01*
X45069502Y-53065820D01*
X45010537Y-52955506D01*
X44931185Y-52858815D01*
X44834494Y-52779463D01*
X44724180Y-52720498D01*
X44604482Y-52684188D01*
X44480000Y-52671928D01*
X41880000Y-52671928D01*
X41755518Y-52684188D01*
X41635820Y-52720498D01*
X41525506Y-52779463D01*
X41428815Y-52858815D01*
X41349463Y-52955506D01*
X41290498Y-53065820D01*
X41254188Y-53185518D01*
X41241928Y-53310000D01*
X41241928Y-53725000D01*
X40683465Y-53725000D01*
X40639999Y-53720719D01*
X40596533Y-53725000D01*
X40596523Y-53725000D01*
X40466510Y-53737805D01*
X40299687Y-53788411D01*
X40145941Y-53870589D01*
X40145939Y-53870590D01*
X40145940Y-53870590D01*
X40044953Y-53953468D01*
X40044951Y-53953470D01*
X40011183Y-53981183D01*
X39983470Y-54014951D01*
X38774956Y-55223466D01*
X38741183Y-55251183D01*
X38630589Y-55385942D01*
X38548411Y-55539688D01*
X38497805Y-55706511D01*
X38485000Y-55836524D01*
X38485000Y-55836531D01*
X38480719Y-55880000D01*
X38485000Y-55923469D01*
X38485001Y-63635478D01*
X38455241Y-63655363D01*
X38255363Y-63855241D01*
X38227000Y-63897689D01*
X38227000Y-50927000D01*
X58293000Y-50927000D01*
X58293000Y-68453000D01*
%TD*%
M02*
