<?xml version="1.0" standalone="no"?>
 <!DOCTYPE svg PUBLIC "-//W3C//DTD SVG 1.1//EN" 
 "http://www.w3.org/Graphics/SVG/1.1/DTD/svg11.dtd"> 
<svg xmlns="http://www.w3.org/2000/svg" version="1.1" 
    width="29.7002cm" height="21.0007cm" viewBox="0 0 116930 82680 ">
<title>SVG Picture created as ponta-de-prova-logica-simplificada-B.Mask.svg date 2019/03/21 10:12:52 </title>
  <desc>Picture generated by PCBNEW </desc>
<g style="fill:#000000; fill-opacity:1;stroke:#000000; stroke-opacity:1;
stroke-linecap:round; stroke-linejoin:round; "
 transform="translate(0 0) scale(1 1)">
</g>
<g style="fill:#000000; fill-opacity:0.0; 
stroke:#000000; stroke-width:-0.000393701; stroke-opacity:1; 
stroke-linecap:round; stroke-linejoin:round;">
</g>
<g style="fill:#000000; fill-opacity:0.0; 
stroke:#000000; stroke-width:39.3701; stroke-opacity:1; 
stroke-linecap:round; stroke-linejoin:round;">
<path d="M110430 21500 A1000 1000 0.0 0 0 111430 20500 " />
<path d="M85930 20500 A1000 1000 0.0 0 0 86930 21500 " />
<path d="M86930 5750 A1000 1000 0.0 0 0 85930 6750 " />
<path d="M111430 6750 A1000 1000 0.0 0 0 110430 5750 " />
<path d="M110430 21500
L86930 21500
" />
<path d="M111430 6750
L111430 20500
" />
<path d="M86930 5750
L110430 5750
" />
<path d="M85930 20500
L85930 6750
" />
</g>
<g style="fill:#000000; fill-opacity:1.0; 
stroke:#000000; stroke-width:0; stroke-opacity:1; 
stroke-linecap:round; stroke-linejoin:round;">
<polyline style="fill-rule:evenodd;"
points="106655,19861
106655,19861
106655,19861
106581,19884
106581,19884
106513,19921
106453,19970
106404,20030
106404,20030
106367,20098
106351,20151
106345,20172
106337,20250
106345,20327
106345,20327
106345,20327
106365,20393
106367,20401
106404,20469
106453,20529
106513,20578
106513,20578
106581,20615
106655,20638
106655,20638
106655,20638
106713,20643
107146,20643
107204,20638
107204,20638
107204,20638
107278,20615
107346,20578
107346,20578
107406,20529
107455,20469
107492,20401
107494,20393
107514,20327
107514,20327
107514,20327
107522,20250
107514,20172
107508,20151
107492,20098
107455,20030
107455,20030
107406,19970
107346,19921
107278,19884
107278,19884
107204,19861
107204,19861
107204,19861
107146,19856
106713,19856
106655,19861
" /> 
<polyline style="fill-rule:evenodd;"
points="109155,19861
109155,19861
109155,19861
109081,19884
109081,19884
109013,19921
108953,19970
108904,20030
108904,20030
108867,20098
108851,20151
108845,20172
108837,20250
108845,20327
108845,20327
108845,20327
108865,20393
108867,20401
108904,20469
108953,20529
109013,20578
109013,20578
109081,20615
109155,20638
109155,20638
109155,20638
109213,20643
109646,20643
109704,20638
109704,20638
109704,20638
109778,20615
109846,20578
109846,20578
109906,20529
109955,20469
109992,20401
109994,20393
110014,20327
110014,20327
110014,20327
110022,20250
110014,20172
110008,20151
109992,20098
109955,20030
109955,20030
109906,19970
109846,19921
109778,19884
109778,19884
109704,19861
109704,19861
109704,19861
109646,19856
109213,19856
109155,19861
" /> 
<polyline style="fill-rule:evenodd;"
points="94655,19611
94655,19611
94655,19611
94581,19634
94581,19634
94513,19671
94453,19720
94404,19780
94404,19780
94367,19848
94345,19921
94345,19922
94337,20000
94345,20077
94345,20077
94345,20077
94351,20098
94367,20151
94404,20219
94453,20279
94513,20328
94513,20328
94581,20365
94655,20388
94655,20388
94655,20388
94713,20393
95146,20393
95204,20388
95204,20388
95204,20388
95278,20365
95346,20328
95346,20328
95406,20279
95455,20219
95492,20151
95508,20098
95514,20077
95514,20077
95514,20077
95522,20000
95514,19922
95514,19921
95492,19848
95455,19780
95455,19780
95406,19720
95346,19671
95278,19634
95278,19634
95204,19611
95204,19611
95204,19611
95146,19606
94713,19606
94655,19611
" /> 
<polyline style="fill-rule:evenodd;"
points="99905,19611
99905,19611
99905,19611
99831,19634
99831,19634
99763,19671
99703,19720
99654,19780
99654,19780
99617,19848
99595,19921
99595,19922
99587,20000
99595,20077
99595,20077
99595,20077
99601,20098
99617,20151
99654,20219
99703,20279
99763,20328
99763,20328
99831,20365
99905,20388
99905,20388
99905,20388
99963,20393
100396,20393
100454,20388
100454,20388
100454,20388
100528,20365
100596,20328
100596,20328
100656,20279
100705,20219
100742,20151
100758,20098
100764,20077
100764,20077
100764,20077
100772,20000
100764,19922
100764,19921
100742,19848
100705,19780
100705,19780
100656,19720
100596,19671
100528,19634
100528,19634
100454,19611
100454,19611
100454,19611
100396,19606
99963,19606
99905,19611
" /> 
<polyline style="fill-rule:evenodd;"
points="102905,19611
102905,19611
102905,19611
102831,19634
102831,19634
102763,19671
102703,19720
102654,19780
102654,19780
102617,19848
102595,19921
102595,19922
102587,20000
102595,20077
102595,20077
102595,20077
102601,20098
102617,20151
102654,20219
102703,20279
102763,20328
102763,20328
102831,20365
102905,20388
102905,20388
102905,20388
102963,20393
103396,20393
103454,20388
103454,20388
103454,20388
103528,20365
103596,20328
103596,20328
103656,20279
103705,20219
103742,20151
103758,20098
103764,20077
103764,20077
103764,20077
103772,20000
103764,19922
103764,19921
103742,19848
103705,19780
103705,19780
103656,19720
103596,19671
103528,19634
103528,19634
103454,19611
103454,19611
103454,19611
103396,19606
102963,19606
102905,19611
" /> 
<polyline style="fill-rule:evenodd;"
points="97655,19611
97655,19611
97655,19611
97581,19634
97581,19634
97513,19671
97453,19720
97404,19780
97404,19780
97367,19848
97345,19921
97345,19922
97337,20000
97345,20077
97345,20077
97345,20077
97351,20098
97367,20151
97404,20219
97453,20279
97513,20328
97513,20328
97581,20365
97655,20388
97655,20388
97655,20388
97713,20393
98146,20393
98204,20388
98204,20388
98204,20388
98278,20365
98346,20328
98346,20328
98406,20279
98455,20219
98492,20151
98508,20098
98514,20077
98514,20077
98514,20077
98522,20000
98514,19922
98514,19921
98492,19848
98455,19780
98455,19780
98406,19720
98346,19671
98278,19634
98278,19634
98204,19611
98204,19611
98204,19611
98146,19606
97713,19606
97655,19611
" /> 
<polyline style="fill-rule:evenodd;"
points="109036,19643
109823,19643
109823,18856
109036,18856
109036,19643
" /> 
<polyline style="fill-rule:evenodd;"
points="106536,19643
107323,19643
107323,18856
106536,18856
106536,19643
" /> 
<polyline style="fill-rule:evenodd;"
points="89815,17871
89743,17901
89679,17944
89624,17999
89581,18063
89551,18135
89536,18211
89536,18288
89551,18364
89581,18436
89624,18500
89679,18555
89743,18598
89815,18628
89891,18643
89968,18643
90044,18628
90116,18598
90180,18555
90235,18500
90278,18436
90308,18364
90323,18288
90323,18211
90308,18135
90278,18063
90235,17999
90180,17944
90116,17901
90044,17871
89968,17856
89891,17856
89815,17871
" /> 
<polyline style="fill-rule:evenodd;"
points="94655,17611
94655,17611
94655,17611
94581,17634
94581,17634
94513,17671
94453,17720
94404,17780
94379,17827
94367,17848
94345,17922
94345,17922
94337,18000
94345,18077
94345,18077
94345,18077
94365,18143
94367,18151
94404,18219
94453,18279
94513,18328
94581,18365
94581,18365
94655,18388
94655,18388
94655,18388
94713,18393
95146,18393
95204,18388
95204,18388
95204,18388
95278,18365
95278,18365
95346,18328
95406,18279
95455,18219
95492,18151
95494,18143
95514,18077
95514,18077
95514,18077
95522,18000
95514,17922
95514,17922
95492,17848
95480,17827
95455,17780
95406,17720
95346,17671
95278,17634
95278,17634
95204,17611
95204,17611
95204,17611
95146,17606
94713,17606
94655,17611
" /> 
<polyline style="fill-rule:evenodd;"
points="97655,17611
97655,17611
97655,17611
97581,17634
97581,17634
97513,17671
97453,17720
97404,17780
97379,17827
97367,17848
97345,17922
97345,17922
97337,18000
97345,18077
97345,18077
97345,18077
97365,18143
97367,18151
97404,18219
97453,18279
97513,18328
97581,18365
97581,18365
97655,18388
97655,18388
97655,18388
97713,18393
98146,18393
98204,18388
98204,18388
98204,18388
98278,18365
98278,18365
98346,18328
98406,18279
98455,18219
98492,18151
98494,18143
98514,18077
98514,18077
98514,18077
98522,18000
98514,17922
98514,17922
98492,17848
98480,17827
98455,17780
98406,17720
98346,17671
98278,17634
98278,17634
98204,17611
98204,17611
98204,17611
98146,17606
97713,17606
97655,17611
" /> 
<polyline style="fill-rule:evenodd;"
points="87045,17174
87007,17182
86900,17226
86804,17290
86803,17291
86721,17373
86721,17373
86656,17470
86627,17541
86612,17577
86593,17671
86589,17691
86589,17808
86612,17922
86656,18029
86720,18125
86721,18126
86803,18208
86803,18208
86900,18273
87007,18317
87045,18325
87121,18340
87238,18340
87314,18325
87352,18317
87459,18273
87556,18208
87556,18208
87638,18126
87639,18125
87703,18029
87747,17922
87770,17808
87770,17691
87766,17671
87747,17577
87732,17541
87703,17470
87638,17373
87638,17373
87556,17291
87555,17290
87459,17226
87352,17182
87314,17174
87238,17159
87121,17159
87045,17174
" /> 
<polyline style="fill-rule:evenodd;"
points="92545,17174
92507,17182
92400,17226
92304,17290
92303,17291
92221,17373
92221,17373
92156,17470
92127,17541
92112,17577
92093,17671
92089,17691
92089,17808
92112,17922
92156,18029
92220,18125
92221,18126
92303,18208
92303,18208
92400,18273
92507,18317
92545,18325
92621,18340
92738,18340
92814,18325
92852,18317
92959,18273
93056,18208
93056,18208
93138,18126
93139,18125
93203,18029
93247,17922
93270,17808
93270,17691
93266,17671
93247,17577
93232,17541
93203,17470
93138,17373
93138,17373
93056,17291
93055,17290
92959,17226
92852,17182
92814,17174
92738,17159
92621,17159
92545,17174
" /> 
<polyline style="fill-rule:evenodd;"
points="109405,17361
109405,17361
109405,17361
109331,17384
109331,17384
109263,17421
109203,17470
109154,17530
109154,17530
109117,17598
109095,17671
109095,17672
109087,17750
109095,17827
109095,17827
109095,17827
109108,17871
109117,17901
109154,17969
109203,18029
109263,18078
109263,18078
109331,18115
109405,18138
109405,18138
109405,18138
109463,18143
109896,18143
109954,18138
109954,18138
109954,18138
110028,18115
110096,18078
110096,18078
110156,18029
110205,17969
110242,17901
110251,17871
110264,17827
110264,17827
110264,17827
110272,17750
110264,17672
110264,17671
110242,17598
110205,17530
110205,17530
110156,17470
110096,17421
110028,17384
110028,17384
109954,17361
109954,17361
109954,17361
109896,17356
109463,17356
109405,17361
" /> 
<polyline style="fill-rule:evenodd;"
points="106405,17361
106405,17361
106405,17361
106331,17384
106331,17384
106263,17421
106203,17470
106154,17530
106154,17530
106117,17598
106095,17671
106095,17672
106087,17750
106095,17827
106095,17827
106095,17827
106108,17871
106117,17901
106154,17969
106203,18029
106263,18078
106263,18078
106331,18115
106405,18138
106405,18138
106405,18138
106463,18143
106896,18143
106954,18138
106954,18138
106954,18138
107028,18115
107096,18078
107096,18078
107156,18029
107205,17969
107242,17901
107251,17871
107264,17827
107264,17827
107264,17827
107272,17750
107264,17672
107264,17671
107242,17598
107205,17530
107205,17530
107156,17470
107096,17421
107028,17384
107028,17384
106954,17361
106954,17361
106954,17361
106896,17356
106463,17356
106405,17361
" /> 
<polyline style="fill-rule:evenodd;"
points="99589,18064
100770,18064
100770,17435
99589,17435
99589,18064
" /> 
<polyline style="fill-rule:evenodd;"
points="102858,17438
102842,17439
102812,17448
102783,17457
102728,17486
102680,17526
102641,17574
102612,17628
102594,17688
102587,17750
102594,17811
102612,17871
102641,17925
102680,17973
102728,18013
102783,18042
102812,18051
102842,18060
102858,18061
102888,18064
103471,18064
103501,18061
103517,18060
103547,18051
103576,18042
103631,18013
103679,17973
103718,17925
103747,17871
103765,17811
103772,17750
103765,17688
103747,17628
103718,17574
103679,17526
103631,17486
103576,17457
103547,17448
103517,17439
103501,17438
103471,17435
102888,17435
102858,17438
" /> 
<polyline style="fill-rule:evenodd;"
points="104618,16664
104588,16673
104558,16682
104504,16711
104504,16711
104504,16711
104456,16750
104456,16750
104456,16750
104416,16798
104387,16853
104369,16912
104365,16958
104365,17541
104369,17587
104387,17646
104416,17701
104456,17749
104504,17788
104558,17817
104588,17826
104618,17835
104680,17842
104741,17835
104771,17826
104801,17817
104855,17788
104903,17749
104943,17701
104972,17646
104990,17587
104994,17541
104994,16958
104990,16912
104990,16912
104972,16853
104972,16853
104943,16798
104903,16750
104903,16750
104903,16750
104903,16750
104855,16711
104801,16682
104771,16673
104741,16664
104680,16657
104618,16664
" /> 
<polyline style="fill-rule:evenodd;"
points="102858,16438
102842,16439
102812,16448
102783,16457
102728,16486
102680,16526
102641,16574
102612,16628
102594,16688
102587,16750
102594,16811
102612,16871
102641,16925
102680,16973
102728,17013
102783,17042
102812,17051
102842,17060
102858,17061
102888,17064
103471,17064
103501,17061
103517,17060
103547,17051
103576,17042
103631,17013
103679,16973
103718,16925
103747,16871
103765,16811
103772,16750
103765,16688
103747,16628
103718,16574
103679,16526
103631,16486
103576,16457
103547,16448
103517,16439
103501,16438
103471,16435
102888,16435
102858,16438
" /> 
<polyline style="fill-rule:evenodd;"
points="99858,16438
99842,16439
99812,16448
99783,16457
99728,16486
99680,16526
99641,16574
99612,16628
99594,16688
99587,16750
99594,16811
99612,16871
99641,16925
99680,16973
99728,17013
99783,17042
99812,17051
99842,17060
99858,17061
99888,17064
100471,17064
100501,17061
100517,17060
100547,17051
100576,17042
100631,17013
100679,16973
100718,16925
100747,16871
100765,16811
100772,16750
100765,16688
100747,16628
100718,16574
100679,16526
100631,16486
100576,16457
100547,16448
100517,16439
100501,16438
100471,16435
99888,16435
99858,16438
" /> 
<polyline style="fill-rule:evenodd;"
points="106405,15861
106405,15861
106405,15861
106331,15884
106331,15884
106263,15921
106203,15970
106154,16030
106135,16064
106117,16098
106101,16151
106095,16172
106087,16250
106095,16327
106095,16327
106095,16327
106115,16393
106117,16401
106154,16469
106203,16529
106263,16578
106263,16578
106331,16615
106405,16638
106405,16638
106405,16638
106463,16643
106896,16643
106954,16638
106954,16638
106954,16638
107028,16615
107096,16578
107096,16578
107156,16529
107205,16469
107242,16401
107244,16393
107264,16327
107264,16327
107264,16327
107272,16250
107264,16172
107258,16151
107242,16098
107224,16064
107205,16030
107156,15970
107096,15921
107028,15884
107028,15884
106954,15861
106954,15861
106954,15861
106896,15856
106463,15856
106405,15861
" /> 
<polyline style="fill-rule:evenodd;"
points="109405,15861
109405,15861
109405,15861
109331,15884
109331,15884
109263,15921
109203,15970
109154,16030
109135,16064
109117,16098
109101,16151
109095,16172
109087,16250
109095,16327
109095,16327
109095,16327
109115,16393
109117,16401
109154,16469
109203,16529
109263,16578
109263,16578
109331,16615
109405,16638
109405,16638
109405,16638
109463,16643
109896,16643
109954,16638
109954,16638
109954,16638
110028,16615
110096,16578
110096,16578
110156,16529
110205,16469
110242,16401
110244,16393
110264,16327
110264,16327
110264,16327
110272,16250
110264,16172
110258,16151
110242,16098
110224,16064
110205,16030
110156,15970
110096,15921
110028,15884
110028,15884
109954,15861
109954,15861
109954,15861
109896,15856
109463,15856
109405,15861
" /> 
<polyline style="fill-rule:evenodd;"
points="94655,15611
94655,15611
94655,15611
94581,15634
94581,15634
94513,15671
94453,15720
94404,15780
94404,15780
94367,15848
94345,15921
94345,15922
94337,16000
94345,16077
94345,16077
94345,16077
94351,16098
94367,16151
94404,16219
94453,16279
94513,16328
94513,16328
94581,16365
94655,16388
94655,16388
94655,16388
94713,16393
95146,16393
95204,16388
95204,16388
95204,16388
95278,16365
95346,16328
95346,16328
95406,16279
95455,16219
95492,16151
95508,16098
95514,16077
95514,16077
95514,16077
95522,16000
95514,15922
95514,15921
95492,15848
95455,15780
95455,15780
95406,15720
95346,15671
95278,15634
95278,15634
95204,15611
95204,15611
95204,15611
95146,15606
94713,15606
94655,15611
" /> 
<polyline style="fill-rule:evenodd;"
points="97655,15611
97655,15611
97655,15611
97581,15634
97581,15634
97513,15671
97453,15720
97404,15780
97404,15780
97367,15848
97345,15921
97345,15922
97337,16000
97345,16077
97345,16077
97345,16077
97351,16098
97367,16151
97404,16219
97453,16279
97513,16328
97513,16328
97581,16365
97655,16388
97655,16388
97655,16388
97713,16393
98146,16393
98204,16388
98204,16388
98204,16388
98278,16365
98346,16328
98346,16328
98406,16279
98455,16219
98492,16151
98508,16098
98514,16077
98514,16077
98514,16077
98522,16000
98514,15922
98514,15921
98492,15848
98455,15780
98455,15780
98406,15720
98346,15671
98278,15634
98278,15634
98204,15611
98204,15611
98204,15611
98146,15606
97713,15606
97655,15611
" /> 
<polyline style="fill-rule:evenodd;"
points="99858,15438
99842,15439
99812,15448
99783,15457
99728,15486
99680,15526
99641,15574
99612,15628
99594,15688
99587,15750
99594,15811
99612,15871
99641,15925
99680,15973
99728,16013
99783,16042
99812,16051
99842,16060
99858,16061
99888,16064
100471,16064
100501,16061
100517,16060
100547,16051
100576,16042
100631,16013
100679,15973
100718,15925
100747,15871
100765,15811
100772,15750
100765,15688
100747,15628
100718,15574
100679,15526
100631,15486
100576,15457
100547,15448
100517,15439
100501,15438
100471,15435
99888,15435
99858,15438
" /> 
<polyline style="fill-rule:evenodd;"
points="102858,15438
102842,15439
102812,15448
102783,15457
102728,15486
102680,15526
102641,15574
102612,15628
102594,15688
102587,15750
102594,15811
102612,15871
102641,15925
102680,15973
102728,16013
102783,16042
102812,16051
102842,16060
102858,16061
102888,16064
103471,16064
103501,16061
103517,16060
103547,16051
103576,16042
103631,16013
103679,15973
103718,15925
103747,15871
103765,15811
103772,15750
103765,15688
103747,15628
103718,15574
103679,15526
103631,15486
103576,15457
103547,15448
103517,15439
103501,15438
103471,15435
102888,15435
102858,15438
" /> 
<polyline style="fill-rule:evenodd;"
points="104618,14695
104588,14704
104558,14713
104504,14742
104504,14742
104504,14742
104456,14782
104456,14782
104456,14782
104416,14830
104387,14884
104378,14914
104369,14944
104365,14990
104365,15572
104369,15618
104374,15634
104387,15678
104416,15732
104456,15780
104504,15820
104558,15849
104588,15858
104618,15867
104680,15873
104741,15867
104771,15858
104801,15849
104855,15820
104903,15780
104943,15732
104972,15678
104985,15634
104990,15618
104994,15572
104994,14990
104990,14944
104972,14884
104972,14884
104943,14830
104903,14782
104903,14782
104903,14782
104903,14782
104855,14742
104801,14713
104771,14704
104741,14695
104680,14689
104618,14695
" /> 
<polyline style="fill-rule:evenodd;"
points="99858,14438
99842,14439
99812,14448
99783,14457
99728,14486
99680,14526
99641,14574
99612,14628
99612,14628
99594,14688
99591,14713
99587,14750
99594,14811
99612,14871
99641,14925
99680,14973
99728,15013
99783,15042
99812,15051
99842,15060
99858,15061
99888,15064
100471,15064
100501,15061
100517,15060
100547,15051
100576,15042
100631,15013
100679,14973
100718,14925
100747,14871
100765,14811
100772,14750
100768,14713
100765,14688
100747,14628
100747,14628
100718,14574
100679,14526
100631,14486
100576,14457
100547,14448
100517,14439
100501,14438
100471,14435
99888,14435
99858,14438
" /> 
<polyline style="fill-rule:evenodd;"
points="102858,14438
102842,14439
102812,14448
102783,14457
102728,14486
102680,14526
102641,14574
102612,14628
102612,14628
102594,14688
102591,14713
102587,14750
102594,14811
102612,14871
102641,14925
102680,14973
102728,15013
102783,15042
102812,15051
102842,15060
102858,15061
102888,15064
103471,15064
103501,15061
103517,15060
103547,15051
103576,15042
103631,15013
103679,14973
103718,14925
103747,14871
103765,14811
103772,14750
103768,14713
103765,14688
103747,14628
103747,14628
103718,14574
103679,14526
103631,14486
103576,14457
103547,14448
103517,14439
103501,14438
103471,14435
102888,14435
102858,14438
" /> 
<polyline style="fill-rule:evenodd;"
points="94655,13611
94655,13611
94655,13611
94581,13634
94581,13634
94513,13671
94453,13720
94404,13780
94367,13848
94345,13922
94337,14000
94345,14077
94345,14077
94345,14077
94356,14115
94367,14151
94404,14219
94453,14279
94513,14328
94513,14328
94581,14365
94655,14388
94655,14388
94655,14388
94713,14393
95146,14393
95204,14388
95204,14388
95204,14388
95278,14365
95346,14328
95346,14328
95406,14279
95455,14219
95492,14151
95503,14115
95514,14077
95514,14077
95514,14077
95522,14000
95514,13922
95492,13848
95455,13780
95406,13720
95346,13671
95278,13634
95278,13634
95204,13611
95204,13611
95204,13611
95146,13606
94713,13606
94655,13611
" /> 
<polyline style="fill-rule:evenodd;"
points="97655,13611
97655,13611
97655,13611
97581,13634
97581,13634
97513,13671
97453,13720
97404,13780
97367,13848
97345,13922
97337,14000
97345,14077
97345,14077
97345,14077
97356,14115
97367,14151
97404,14219
97453,14279
97513,14328
97513,14328
97581,14365
97655,14388
97655,14388
97655,14388
97713,14393
98146,14393
98204,14388
98204,14388
98204,14388
98278,14365
98346,14328
98346,14328
98406,14279
98455,14219
98492,14151
98503,14115
98514,14077
98514,14077
98514,14077
98522,14000
98514,13922
98492,13848
98455,13780
98406,13720
98346,13671
98278,13634
98278,13634
98204,13611
98204,13611
98204,13611
98146,13606
97713,13606
97655,13611
" /> 
<polyline style="fill-rule:evenodd;"
points="107400,14389
108959,14389
108959,13610
107400,13610
107400,14389
" /> 
<polyline style="fill-rule:evenodd;"
points="104618,13132
104588,13141
104558,13150
104504,13179
104456,13219
104416,13267
104387,13321
104387,13321
104369,13381
104365,13427
104365,14009
104369,14055
104376,14077
104387,14115
104416,14169
104456,14217
104456,14217
104456,14217
104492,14247
104504,14257
104558,14286
104588,14295
104618,14304
104680,14310
104741,14304
104771,14295
104801,14286
104855,14257
104903,14217
104903,14217
104903,14217
104943,14169
104972,14115
104972,14115
104989,14060
104990,14055
104994,14009
104994,13427
104990,13381
104972,13321
104972,13321
104943,13267
104903,13219
104855,13179
104801,13150
104771,13141
104741,13132
104680,13126
104618,13132
" /> 
<polyline style="fill-rule:evenodd;"
points="102858,13438
102842,13439
102812,13448
102783,13457
102728,13486
102680,13526
102641,13574
102612,13628
102594,13688
102587,13750
102594,13811
102612,13871
102641,13925
102680,13973
102728,14013
102783,14042
102812,14051
102842,14060
102858,14061
102888,14064
103471,14064
103501,14061
103517,14060
103547,14051
103576,14042
103631,14013
103679,13973
103718,13925
103747,13871
103765,13811
103772,13750
103765,13688
103747,13628
103718,13574
103679,13526
103631,13486
103576,13457
103547,13448
103517,13439
103501,13438
103471,13435
102888,13435
102858,13438
" /> 
<polyline style="fill-rule:evenodd;"
points="99858,13438
99842,13439
99812,13448
99783,13457
99728,13486
99680,13526
99641,13574
99612,13628
99594,13688
99587,13750
99594,13811
99612,13871
99641,13925
99680,13973
99728,14013
99783,14042
99812,14051
99842,14060
99858,14061
99888,14064
100471,14064
100501,14061
100517,14060
100547,14051
100576,14042
100631,14013
100679,13973
100718,13925
100747,13871
100765,13811
100772,13750
100765,13688
100747,13628
100718,13574
100679,13526
100631,13486
100576,13457
100547,13448
100517,13439
100501,13438
100471,13435
99888,13435
99858,13438
" /> 
<polyline style="fill-rule:evenodd;"
points="102858,12438
102842,12439
102812,12448
102783,12457
102728,12486
102680,12526
102641,12574
102612,12628
102594,12688
102587,12750
102594,12811
102612,12871
102641,12925
102680,12973
102728,13013
102783,13042
102812,13051
102842,13060
102858,13061
102888,13064
103471,13064
103501,13061
103517,13060
103547,13051
103576,13042
103631,13013
103679,12973
103718,12925
103747,12871
103765,12811
103772,12750
103765,12688
103747,12628
103718,12574
103679,12526
103631,12486
103576,12457
103547,12448
103517,12439
103501,12438
103471,12435
102888,12435
102858,12438
" /> 
<polyline style="fill-rule:evenodd;"
points="99858,12438
99842,12439
99812,12448
99783,12457
99728,12486
99680,12526
99641,12574
99612,12628
99594,12688
99587,12750
99594,12811
99612,12871
99641,12925
99680,12973
99728,13013
99783,13042
99812,13051
99842,13060
99858,13061
99888,13064
100471,13064
100501,13061
100517,13060
100547,13051
100576,13042
100631,13013
100679,12973
100718,12925
100747,12871
100765,12811
100772,12750
100765,12688
100747,12628
100718,12574
100679,12526
100631,12486
100576,12457
100547,12448
100517,12439
100501,12438
100471,12435
99888,12435
99858,12438
" /> 
<polyline style="fill-rule:evenodd;"
points="107713,11647
107713,11647
107713,11647
107640,11669
107572,11705
107513,11754
107464,11813
107434,11871
107428,11881
107406,11955
107398,12031
107406,12107
107406,12107
107406,12107
107428,12181
107464,12249
107513,12308
107572,12357
107640,12393
107713,12415
107713,12415
107713,12415
107771,12421
108588,12421
108646,12415
108646,12415
108646,12415
108719,12393
108787,12357
108846,12308
108895,12249
108931,12181
108953,12107
108953,12107
108953,12107
108961,12031
108953,11955
108931,11881
108925,11871
108895,11813
108846,11754
108787,11705
108719,11669
108646,11647
108646,11647
108646,11647
108588,11641
107771,11641
107713,11647
" /> 
<polyline style="fill-rule:evenodd;"
points="94655,11611
94655,11611
94655,11611
94581,11634
94581,11634
94513,11671
94453,11720
94404,11780
94367,11848
94345,11922
94337,12000
94345,12077
94345,12077
94345,12077
94366,12146
94367,12151
94404,12219
94453,12279
94513,12328
94513,12328
94581,12365
94655,12388
94655,12388
94655,12388
94713,12393
95146,12393
95204,12388
95204,12388
95204,12388
95278,12365
95346,12328
95346,12328
95406,12279
95455,12219
95492,12151
95493,12146
95514,12077
95514,12077
95514,12077
95522,12000
95514,11922
95492,11848
95455,11780
95406,11720
95346,11671
95278,11634
95278,11634
95204,11611
95204,11611
95204,11611
95146,11606
94713,11606
94655,11611
" /> 
<polyline style="fill-rule:evenodd;"
points="97655,11611
97655,11611
97655,11611
97581,11634
97581,11634
97513,11671
97453,11720
97404,11780
97367,11848
97345,11922
97337,12000
97345,12077
97345,12077
97345,12077
97366,12146
97367,12151
97404,12219
97453,12279
97513,12328
97513,12328
97581,12365
97655,12388
97655,12388
97655,12388
97713,12393
98146,12393
98204,12388
98204,12388
98204,12388
98278,12365
98346,12328
98346,12328
98406,12279
98455,12219
98492,12151
98493,12146
98514,12077
98514,12077
98514,12077
98522,12000
98514,11922
98492,11848
98455,11780
98406,11720
98346,11671
98278,11634
98278,11634
98204,11611
98204,11611
98204,11611
98146,11606
97713,11606
97655,11611
" /> 
<polyline style="fill-rule:evenodd;"
points="104618,11164
104588,11173
104558,11182
104504,11211
104456,11250
104416,11298
104387,11353
104369,11412
104365,11458
104365,12041
104369,12087
104387,12146
104416,12201
104456,12249
104456,12249
104456,12249
104456,12249
104504,12288
104558,12317
104588,12326
104618,12335
104680,12342
104741,12335
104771,12326
104801,12317
104855,12288
104903,12249
104903,12249
104903,12249
104943,12201
104969,12151
104972,12146
104984,12107
104990,12087
104993,12060
104994,12041
104994,11458
104990,11412
104972,11353
104943,11298
104903,11250
104855,11211
104801,11182
104771,11173
104741,11164
104680,11157
104618,11164
" /> 
<polyline style="fill-rule:evenodd;"
points="99858,11438
99842,11439
99812,11448
99783,11457
99728,11486
99680,11526
99641,11574
99612,11628
99610,11634
99594,11688
99587,11750
99594,11811
99603,11841
99612,11871
99641,11925
99680,11973
99728,12013
99783,12042
99812,12051
99842,12060
99858,12061
99888,12064
100471,12064
100501,12061
100517,12060
100547,12051
100576,12042
100631,12013
100679,11973
100718,11925
100747,11871
100756,11841
100765,11811
100772,11750
100765,11688
100749,11634
100747,11628
100718,11574
100679,11526
100631,11486
100576,11457
100547,11448
100517,11439
100501,11438
100471,11435
99888,11435
99858,11438
" /> 
<polyline style="fill-rule:evenodd;"
points="102858,11438
102842,11439
102812,11448
102783,11457
102728,11486
102680,11526
102641,11574
102612,11628
102610,11634
102594,11688
102587,11750
102594,11811
102603,11841
102612,11871
102641,11925
102680,11973
102728,12013
102783,12042
102812,12051
102842,12060
102858,12061
102888,12064
103471,12064
103501,12061
103517,12060
103547,12051
103576,12042
103631,12013
103679,11973
103718,11925
103747,11871
103756,11841
103765,11811
103772,11750
103765,11688
103749,11634
103747,11628
103718,11574
103679,11526
103631,11486
103576,11457
103547,11448
103517,11439
103501,11438
103471,11435
102888,11435
102858,11438
" /> 
<polyline style="fill-rule:evenodd;"
points="94655,9611
94655,9611
94655,9611
94581,9634
94581,9634
94513,9671
94453,9720
94404,9780
94404,9780
94367,9848
94345,9922
94345,9922
94337,10000
94345,10077
94345,10077
94345,10077
94351,10098
94367,10151
94404,10219
94453,10279
94513,10328
94538,10342
94581,10365
94655,10388
94655,10388
94655,10388
94713,10393
95146,10393
95204,10388
95204,10388
95204,10388
95278,10365
95321,10342
95346,10328
95406,10279
95455,10219
95492,10151
95508,10098
95514,10077
95514,10077
95514,10077
95522,10000
95514,9922
95514,9922
95492,9848
95455,9780
95455,9780
95406,9720
95346,9671
95278,9634
95278,9634
95204,9611
95204,9611
95204,9611
95146,9606
94713,9606
94655,9611
" /> 
<polyline style="fill-rule:evenodd;"
points="102905,9611
102905,9611
102905,9611
102831,9634
102831,9634
102763,9671
102703,9720
102654,9780
102654,9780
102617,9848
102595,9922
102595,9922
102587,10000
102595,10077
102595,10077
102595,10077
102601,10098
102617,10151
102654,10219
102703,10279
102763,10328
102788,10342
102831,10365
102905,10388
102905,10388
102905,10388
102963,10393
103396,10393
103454,10388
103454,10388
103454,10388
103528,10365
103571,10342
103596,10328
103656,10279
103705,10219
103742,10151
103758,10098
103764,10077
103764,10077
103764,10077
103772,10000
103764,9922
103764,9922
103742,9848
103705,9780
103705,9780
103656,9720
103596,9671
103528,9634
103528,9634
103454,9611
103454,9611
103454,9611
103396,9606
102963,9606
102905,9611
" /> 
<polyline style="fill-rule:evenodd;"
points="99905,9611
99905,9611
99905,9611
99831,9634
99831,9634
99763,9671
99703,9720
99654,9780
99654,9780
99617,9848
99595,9922
99595,9922
99587,10000
99595,10077
99595,10077
99595,10077
99601,10098
99617,10151
99654,10219
99703,10279
99763,10328
99788,10342
99831,10365
99905,10388
99905,10388
99905,10388
99963,10393
100396,10393
100454,10388
100454,10388
100454,10388
100528,10365
100571,10342
100596,10328
100656,10279
100705,10219
100742,10151
100758,10098
100764,10077
100764,10077
100764,10077
100772,10000
100764,9922
100764,9922
100742,9848
100705,9780
100705,9780
100656,9720
100596,9671
100528,9634
100528,9634
100454,9611
100454,9611
100454,9611
100396,9606
99963,9606
99905,9611
" /> 
<polyline style="fill-rule:evenodd;"
points="97655,9611
97655,9611
97655,9611
97581,9634
97581,9634
97513,9671
97453,9720
97404,9780
97404,9780
97367,9848
97345,9922
97345,9922
97337,10000
97345,10077
97345,10077
97345,10077
97351,10098
97367,10151
97404,10219
97453,10279
97513,10328
97538,10342
97581,10365
97655,10388
97655,10388
97655,10388
97713,10393
98146,10393
98204,10388
98204,10388
98204,10388
98278,10365
98321,10342
98346,10328
98406,10279
98455,10219
98492,10151
98508,10098
98514,10077
98514,10077
98514,10077
98522,10000
98514,9922
98514,9922
98492,9848
98455,9780
98455,9780
98406,9720
98346,9671
98278,9634
98278,9634
98204,9611
98204,9611
98204,9611
98146,9606
97713,9606
97655,9611
" /> 
<polyline style="fill-rule:evenodd;"
points="108102,9165
108102,9165
108102,9165
108028,9187
108028,9187
108028,9187
107960,9224
107900,9273
107851,9333
107851,9333
107814,9401
107793,9470
107791,9475
107786,9533
107786,9966
107791,10024
107791,10024
107791,10024
107814,10098
107814,10098
107851,10166
107900,10226
107960,10275
107960,10275
108028,10312
108102,10334
108102,10334
108102,10334
108180,10342
108257,10334
108257,10334
108257,10334
108331,10312
108399,10275
108399,10275
108459,10226
108508,10166
108545,10098
108568,10024
108573,9966
108573,9533
108568,9475
108568,9475
108545,9401
108545,9401
108545,9401
108508,9333
108459,9273
108399,9224
108331,9187
108331,9187
108257,9165
108257,9165
108257,9165
108180,9157
108102,9165
" /> 
<polyline style="fill-rule:evenodd;"
points="109102,9165
109102,9165
109102,9165
109028,9187
109028,9187
109028,9187
108960,9224
108900,9273
108851,9333
108851,9333
108814,9401
108793,9470
108791,9475
108786,9533
108786,9966
108791,10024
108791,10024
108791,10024
108814,10098
108814,10098
108851,10166
108900,10226
108960,10275
108960,10275
109028,10312
109102,10334
109102,10334
109102,10334
109180,10342
109257,10334
109257,10334
109257,10334
109331,10312
109399,10275
109399,10275
109459,10226
109508,10166
109545,10098
109568,10024
109573,9966
109573,9533
109568,9475
109568,9475
109545,9401
109545,9401
109545,9401
109508,9333
109459,9273
109399,9224
109331,9187
109331,9187
109257,9165
109257,9165
109257,9165
109180,9157
109102,9165
" /> 
<polyline style="fill-rule:evenodd;"
points="92545,9174
92507,9182
92400,9226
92330,9273
92303,9291
92221,9373
92156,9470
92154,9475
92130,9533
92112,9577
92093,9671
92089,9691
92089,9808
92112,9922
92130,9966
92156,10029
92221,10126
92303,10208
92303,10208
92400,10273
92507,10317
92545,10325
92621,10340
92738,10340
92814,10325
92852,10317
92959,10273
93056,10208
93056,10208
93138,10126
93203,10029
93229,9966
93247,9922
93270,9808
93270,9691
93266,9671
93247,9577
93229,9533
93205,9475
93203,9470
93138,9373
93056,9291
93029,9273
92959,9226
92852,9182
92814,9174
92738,9159
92621,9159
92545,9174
" /> 
<polyline style="fill-rule:evenodd;"
points="106786,10340
107573,10340
107573,9159
106786,9159
106786,10340
" /> 
<polyline style="fill-rule:evenodd;"
points="87045,9174
87007,9182
86900,9226
86830,9273
86803,9291
86721,9373
86656,9470
86654,9475
86630,9533
86612,9577
86593,9671
86589,9691
86589,9808
86612,9922
86630,9966
86656,10029
86721,10126
86803,10208
86803,10208
86900,10273
87007,10317
87045,10325
87121,10340
87238,10340
87314,10325
87352,10317
87459,10273
87556,10208
87556,10208
87638,10126
87703,10029
87729,9966
87747,9922
87770,9808
87770,9691
87766,9671
87747,9577
87729,9533
87705,9475
87703,9470
87638,9373
87556,9291
87529,9273
87459,9226
87352,9182
87314,9174
87238,9159
87121,9159
87045,9174
" /> 
<polyline style="fill-rule:evenodd;"
points="94655,7611
94655,7611
94655,7611
94581,7634
94581,7634
94513,7671
94453,7720
94404,7780
94404,7780
94367,7848
94345,7922
94345,7922
94337,8000
94345,8077
94345,8077
94345,8077
94347,8084
94367,8151
94404,8219
94453,8279
94513,8328
94513,8328
94581,8365
94655,8388
94655,8388
94655,8388
94713,8393
95146,8393
95204,8388
95204,8388
95204,8388
95278,8365
95346,8328
95346,8328
95406,8279
95455,8219
95492,8151
95512,8084
95514,8077
95514,8077
95514,8077
95522,8000
95514,7922
95514,7922
95492,7848
95455,7780
95455,7780
95406,7720
95346,7671
95278,7634
95278,7634
95204,7611
95204,7611
95204,7611
95146,7606
94713,7606
94655,7611
" /> 
<polyline style="fill-rule:evenodd;"
points="97655,7611
97655,7611
97655,7611
97581,7634
97581,7634
97513,7671
97453,7720
97404,7780
97404,7780
97367,7848
97345,7922
97345,7922
97337,8000
97345,8077
97345,8077
97345,8077
97347,8084
97367,8151
97404,8219
97453,8279
97513,8328
97513,8328
97581,8365
97655,8388
97655,8388
97655,8388
97713,8393
98146,8393
98204,8388
98204,8388
98204,8388
98278,8365
98346,8328
98346,8328
98406,8279
98455,8219
98492,8151
98512,8084
98514,8077
98514,8077
98514,8077
98522,8000
98514,7922
98514,7922
98492,7848
98455,7780
98455,7780
98406,7720
98346,7671
98278,7634
98278,7634
98204,7611
98204,7611
98204,7611
98146,7606
97713,7606
97655,7611
" /> 
<polyline style="fill-rule:evenodd;"
points="99905,7611
99905,7611
99905,7611
99831,7634
99831,7634
99763,7671
99703,7720
99654,7780
99654,7780
99617,7848
99595,7922
99595,7922
99587,8000
99595,8077
99595,8077
99595,8077
99597,8084
99617,8151
99654,8219
99703,8279
99763,8328
99763,8328
99831,8365
99905,8388
99905,8388
99905,8388
99963,8393
100396,8393
100454,8388
100454,8388
100454,8388
100528,8365
100596,8328
100596,8328
100656,8279
100705,8219
100742,8151
100762,8084
100764,8077
100764,8077
100764,8077
100772,8000
100764,7922
100764,7922
100742,7848
100705,7780
100705,7780
100656,7720
100596,7671
100528,7634
100528,7634
100454,7611
100454,7611
100454,7611
100396,7606
99963,7606
99905,7611
" /> 
<polyline style="fill-rule:evenodd;"
points="102905,7611
102905,7611
102905,7611
102831,7634
102831,7634
102763,7671
102703,7720
102654,7780
102654,7780
102617,7848
102595,7922
102595,7922
102587,8000
102595,8077
102595,8077
102595,8077
102597,8084
102617,8151
102654,8219
102703,8279
102763,8328
102763,8328
102831,8365
102905,8388
102905,8388
102905,8388
102963,8393
103396,8393
103454,8388
103454,8388
103454,8388
103528,8365
103596,8328
103596,8328
103656,8279
103705,8219
103742,8151
103762,8084
103764,8077
103764,8077
103764,8077
103772,8000
103764,7922
103764,7922
103742,7848
103705,7780
103705,7780
103656,7720
103596,7671
103528,7634
103528,7634
103454,7611
103454,7611
103454,7611
103396,7606
102963,7606
102905,7611
" /> 
<polyline style="fill-rule:evenodd;"
points="107102,6915
107102,6915
107102,6915
107028,6937
107028,6937
107028,6937
106960,6974
106900,7023
106851,7083
106814,7151
106791,7225
106786,7283
106786,7716
106791,7774
106791,7774
106791,7774
106814,7848
106814,7848
106851,7916
106900,7976
106960,8025
106960,8025
107028,8062
107102,8084
107102,8084
107102,8084
107180,8092
107257,8084
107257,8084
107257,8084
107331,8062
107399,8025
107399,8025
107459,7976
107508,7916
107545,7848
107568,7774
107573,7716
107573,7283
107568,7225
107568,7225
107545,7151
107545,7151
107545,7151
107508,7083
107459,7023
107399,6974
107331,6937
107331,6937
107257,6915
107257,6915
107257,6915
107180,6907
107102,6915
" /> 
<polyline style="fill-rule:evenodd;"
points="108102,6915
108102,6915
108102,6915
108028,6937
108028,6937
108028,6937
107960,6974
107900,7023
107851,7083
107814,7151
107791,7225
107786,7283
107786,7716
107791,7774
107791,7774
107791,7774
107814,7848
107814,7848
107851,7916
107900,7976
107960,8025
107960,8025
108028,8062
108102,8084
108102,8084
108102,8084
108180,8092
108257,8084
108257,8084
108257,8084
108331,8062
108399,8025
108399,8025
108459,7976
108508,7916
108545,7848
108568,7774
108573,7716
108573,7283
108568,7225
108568,7225
108545,7151
108545,7151
108545,7151
108508,7083
108459,7023
108399,6974
108331,6937
108331,6937
108257,6915
108257,6915
108257,6915
108180,6907
108102,6915
" /> 
<polyline style="fill-rule:evenodd;"
points="109102,6915
109102,6915
109102,6915
109028,6937
109028,6937
109028,6937
108960,6974
108900,7023
108851,7083
108814,7151
108791,7225
108786,7283
108786,7716
108791,7774
108791,7774
108791,7774
108814,7848
108814,7848
108851,7916
108900,7976
108960,8025
108960,8025
109028,8062
109102,8084
109102,8084
109102,8084
109180,8092
109257,8084
109257,8084
109257,8084
109331,8062
109399,8025
109399,8025
109459,7976
109508,7916
109545,7848
109568,7774
109573,7716
109573,7283
109568,7225
109568,7225
109545,7151
109545,7151
109545,7151
109508,7083
109459,7023
109399,6974
109331,6937
109331,6937
109257,6915
109257,6915
109257,6915
109180,6907
109102,6915
" /> 
</g> 
</svg>
