G04 #@! TF.GenerationSoftware,KiCad,Pcbnew,(5.0.2)-1*
G04 #@! TF.CreationDate,2019-02-28T22:41:27-03:00*
G04 #@! TF.ProjectId,ponta-de-prova-logica-simplificada,706f6e74-612d-4646-952d-70726f76612d,02*
G04 #@! TF.SameCoordinates,Original*
G04 #@! TF.FileFunction,Legend,Top*
G04 #@! TF.FilePolarity,Positive*
%FSLAX46Y46*%
G04 Gerber Fmt 4.6, Leading zero omitted, Abs format (unit mm)*
G04 Created by KiCad (PCBNEW (5.0.2)-1) date 28-02-2019 22:41:27*
%MOMM*%
%LPD*%
G01*
G04 APERTURE LIST*
%ADD10C,0.100000*%
%ADD11C,0.120000*%
%ADD12C,0.150000*%
G04 APERTURE END LIST*
D10*
G04 #@! TO.C,SW1*
X135636000Y-82359500D02*
X135636000Y-90614500D01*
X127063500Y-82359500D02*
X127063500Y-90932000D01*
X135636000Y-82359500D02*
X127063500Y-82359500D01*
X135636000Y-90614500D02*
X135318500Y-90932000D01*
X135318500Y-90932000D02*
X127063500Y-90932000D01*
D11*
G04 #@! TO.C,R12*
X134715000Y-111225000D02*
X134715000Y-110895000D01*
X128175000Y-111225000D02*
X134715000Y-111225000D01*
X128175000Y-110895000D02*
X128175000Y-111225000D01*
X134715000Y-108485000D02*
X134715000Y-108815000D01*
X128175000Y-108485000D02*
X134715000Y-108485000D01*
X128175000Y-108815000D02*
X128175000Y-108485000D01*
G04 #@! TO.C,D1*
X129348608Y-116607335D02*
G75*
G03X129505516Y-113375000I-1078608J1672335D01*
G01*
X127191392Y-116607335D02*
G75*
G02X127034484Y-113375000I1078608J1672335D01*
G01*
X129349837Y-115976130D02*
G75*
G03X129350000Y-113894039I-1079837J1041130D01*
G01*
X127190163Y-115976130D02*
G75*
G02X127190000Y-113894039I1079837J1041130D01*
G01*
X129506000Y-113375000D02*
X129350000Y-113375000D01*
X127190000Y-113375000D02*
X127034000Y-113375000D01*
G04 #@! TO.C,R3*
X151225000Y-86130000D02*
X151225000Y-86460000D01*
X151225000Y-86460000D02*
X144685000Y-86460000D01*
X144685000Y-86460000D02*
X144685000Y-86130000D01*
X151225000Y-84050000D02*
X151225000Y-83720000D01*
X151225000Y-83720000D02*
X144685000Y-83720000D01*
X144685000Y-83720000D02*
X144685000Y-84050000D01*
G04 #@! TO.C,U1*
X142705000Y-111245000D02*
X153205000Y-111245000D01*
X142705000Y-93225000D02*
X142705000Y-111245000D01*
X153205000Y-93225000D02*
X142705000Y-93225000D01*
X153205000Y-111245000D02*
X153205000Y-93225000D01*
X145705000Y-111185000D02*
X146955000Y-111185000D01*
X145705000Y-93285000D02*
X145705000Y-111185000D01*
X150205000Y-93285000D02*
X145705000Y-93285000D01*
X150205000Y-111185000D02*
X150205000Y-93285000D01*
X148955000Y-111185000D02*
X150205000Y-111185000D01*
X146955000Y-111185000D02*
G75*
G02X148955000Y-111185000I1000000J0D01*
G01*
G04 #@! TO.C,C2*
X141390000Y-103465000D02*
X141705000Y-103465000D01*
X138965000Y-103465000D02*
X139280000Y-103465000D01*
X141390000Y-108705000D02*
X141705000Y-108705000D01*
X138965000Y-108705000D02*
X139280000Y-108705000D01*
X141705000Y-108705000D02*
X141705000Y-103465000D01*
X138965000Y-108705000D02*
X138965000Y-103465000D01*
G04 #@! TO.C,C1*
X141705000Y-94495000D02*
X141705000Y-99735000D01*
X138965000Y-94495000D02*
X138965000Y-99735000D01*
X141705000Y-94495000D02*
X141390000Y-94495000D01*
X139280000Y-94495000D02*
X138965000Y-94495000D01*
X141705000Y-99735000D02*
X141390000Y-99735000D01*
X139280000Y-99735000D02*
X138965000Y-99735000D01*
D12*
G04 #@! TO.C,PP1*
X167640000Y-104775000D02*
X187960000Y-104775000D01*
X187960000Y-104775000D02*
X187960000Y-94615000D01*
X187960000Y-94615000D02*
X167640000Y-94615000D01*
X167640000Y-94615000D02*
X167640000Y-104775000D01*
X168910000Y-104775000D02*
X168910000Y-114935000D01*
X168910000Y-114935000D02*
X172720000Y-114935000D01*
X172720000Y-114935000D02*
X172720000Y-104775000D01*
X182880000Y-104775000D02*
X182880000Y-114935000D01*
X186690000Y-114935000D02*
X186690000Y-104775000D01*
X182880000Y-114935000D02*
X186690000Y-114935000D01*
X172720000Y-94615000D02*
X172720000Y-84455000D01*
X168910000Y-84455000D02*
X168910000Y-94615000D01*
X172720000Y-84455000D02*
X168910000Y-84455000D01*
X186690000Y-94615000D02*
X186690000Y-84455000D01*
X182880000Y-84455000D02*
X182880000Y-94615000D01*
X186690000Y-84455000D02*
X182880000Y-84455000D01*
D11*
G04 #@! TO.C,R8*
X164560000Y-101700000D02*
X164560000Y-101370000D01*
X158020000Y-101700000D02*
X164560000Y-101700000D01*
X158020000Y-101370000D02*
X158020000Y-101700000D01*
X164560000Y-98960000D02*
X164560000Y-99290000D01*
X158020000Y-98960000D02*
X164560000Y-98960000D01*
X158020000Y-99290000D02*
X158020000Y-98960000D01*
G04 #@! TO.C,D2*
X133540000Y-113375000D02*
X133384000Y-113375000D01*
X135856000Y-113375000D02*
X135700000Y-113375000D01*
X133540163Y-115976130D02*
G75*
G02X133540000Y-113894039I1079837J1041130D01*
G01*
X135699837Y-115976130D02*
G75*
G03X135700000Y-113894039I-1079837J1041130D01*
G01*
X133541392Y-116607335D02*
G75*
G02X133384484Y-113375000I1078608J1672335D01*
G01*
X135698608Y-116607335D02*
G75*
G03X135855516Y-113375000I-1078608J1672335D01*
G01*
G04 #@! TO.C,J1*
X125145000Y-92130000D02*
X125145000Y-102980000D01*
X130245000Y-92130000D02*
X125145000Y-92130000D01*
X129945000Y-92630000D02*
X130245000Y-92130000D01*
X135345000Y-92630000D02*
X129945000Y-92630000D01*
X135095000Y-92130000D02*
X135345000Y-92630000D01*
X135145000Y-92130000D02*
X135095000Y-92130000D01*
X137045000Y-92130000D02*
X135145000Y-92130000D01*
X136795000Y-92630000D02*
X137045000Y-92130000D01*
X137745000Y-92630000D02*
X136795000Y-92630000D01*
X137745000Y-102980000D02*
X137745000Y-92630000D01*
X125145000Y-102980000D02*
X137745000Y-102980000D01*
G04 #@! TO.C,R1*
X151225000Y-91540000D02*
X151225000Y-91210000D01*
X144685000Y-91540000D02*
X151225000Y-91540000D01*
X144685000Y-91210000D02*
X144685000Y-91540000D01*
X151225000Y-88800000D02*
X151225000Y-89130000D01*
X144685000Y-88800000D02*
X151225000Y-88800000D01*
X144685000Y-89130000D02*
X144685000Y-88800000D01*
G04 #@! TO.C,R2*
X164560000Y-96620000D02*
X164560000Y-96290000D01*
X158020000Y-96620000D02*
X164560000Y-96620000D01*
X158020000Y-96290000D02*
X158020000Y-96620000D01*
X164560000Y-93880000D02*
X164560000Y-94210000D01*
X158020000Y-93880000D02*
X164560000Y-93880000D01*
X158020000Y-94210000D02*
X158020000Y-93880000D01*
G04 #@! TO.C,R4*
X164560000Y-86460000D02*
X164560000Y-86130000D01*
X158020000Y-86460000D02*
X164560000Y-86460000D01*
X158020000Y-86130000D02*
X158020000Y-86460000D01*
X164560000Y-83720000D02*
X164560000Y-84050000D01*
X158020000Y-83720000D02*
X164560000Y-83720000D01*
X158020000Y-84050000D02*
X158020000Y-83720000D01*
G04 #@! TO.C,R5*
X158020000Y-89130000D02*
X158020000Y-88800000D01*
X158020000Y-88800000D02*
X164560000Y-88800000D01*
X164560000Y-88800000D02*
X164560000Y-89130000D01*
X158020000Y-91210000D02*
X158020000Y-91540000D01*
X158020000Y-91540000D02*
X164560000Y-91540000D01*
X164560000Y-91540000D02*
X164560000Y-91210000D01*
G04 #@! TO.C,R6*
X158020000Y-104370000D02*
X158020000Y-104040000D01*
X158020000Y-104040000D02*
X164560000Y-104040000D01*
X164560000Y-104040000D02*
X164560000Y-104370000D01*
X158020000Y-106450000D02*
X158020000Y-106780000D01*
X158020000Y-106780000D02*
X164560000Y-106780000D01*
X164560000Y-106780000D02*
X164560000Y-106450000D01*
G04 #@! TO.C,R7*
X158020000Y-114530000D02*
X158020000Y-114200000D01*
X158020000Y-114200000D02*
X164560000Y-114200000D01*
X164560000Y-114200000D02*
X164560000Y-114530000D01*
X158020000Y-116610000D02*
X158020000Y-116940000D01*
X158020000Y-116940000D02*
X164560000Y-116940000D01*
X164560000Y-116940000D02*
X164560000Y-116610000D01*
G04 #@! TO.C,R9*
X158020000Y-109120000D02*
X158020000Y-109450000D01*
X164560000Y-109120000D02*
X158020000Y-109120000D01*
X164560000Y-109450000D02*
X164560000Y-109120000D01*
X158020000Y-111860000D02*
X158020000Y-111530000D01*
X164560000Y-111860000D02*
X158020000Y-111860000D01*
X164560000Y-111530000D02*
X164560000Y-111860000D01*
G04 #@! TO.C,R10*
X151225000Y-116610000D02*
X151225000Y-116940000D01*
X151225000Y-116940000D02*
X144685000Y-116940000D01*
X144685000Y-116940000D02*
X144685000Y-116610000D01*
X151225000Y-114530000D02*
X151225000Y-114200000D01*
X151225000Y-114200000D02*
X144685000Y-114200000D01*
X144685000Y-114200000D02*
X144685000Y-114530000D01*
G04 #@! TO.C,R11*
X134715000Y-107415000D02*
X134715000Y-107085000D01*
X128175000Y-107415000D02*
X134715000Y-107415000D01*
X128175000Y-107085000D02*
X128175000Y-107415000D01*
X134715000Y-104675000D02*
X134715000Y-105005000D01*
X128175000Y-104675000D02*
X134715000Y-104675000D01*
X128175000Y-105005000D02*
X128175000Y-104675000D01*
G04 #@! TO.C,SW1*
D12*
X136461666Y-83589761D02*
X136604523Y-83637380D01*
X136842619Y-83637380D01*
X136937857Y-83589761D01*
X136985476Y-83542142D01*
X137033095Y-83446904D01*
X137033095Y-83351666D01*
X136985476Y-83256428D01*
X136937857Y-83208809D01*
X136842619Y-83161190D01*
X136652142Y-83113571D01*
X136556904Y-83065952D01*
X136509285Y-83018333D01*
X136461666Y-82923095D01*
X136461666Y-82827857D01*
X136509285Y-82732619D01*
X136556904Y-82685000D01*
X136652142Y-82637380D01*
X136890238Y-82637380D01*
X137033095Y-82685000D01*
X137366428Y-82637380D02*
X137604523Y-83637380D01*
X137795000Y-82923095D01*
X137985476Y-83637380D01*
X138223571Y-82637380D01*
X139128333Y-83637380D02*
X138556904Y-83637380D01*
X138842619Y-83637380D02*
X138842619Y-82637380D01*
X138747380Y-82780238D01*
X138652142Y-82875476D01*
X138556904Y-82923095D01*
G04 #@! TO.C,R12*
X125547380Y-110497857D02*
X125071190Y-110831190D01*
X125547380Y-111069285D02*
X124547380Y-111069285D01*
X124547380Y-110688333D01*
X124595000Y-110593095D01*
X124642619Y-110545476D01*
X124737857Y-110497857D01*
X124880714Y-110497857D01*
X124975952Y-110545476D01*
X125023571Y-110593095D01*
X125071190Y-110688333D01*
X125071190Y-111069285D01*
X125547380Y-109545476D02*
X125547380Y-110116904D01*
X125547380Y-109831190D02*
X124547380Y-109831190D01*
X124690238Y-109926428D01*
X124785476Y-110021666D01*
X124833095Y-110116904D01*
X124642619Y-109164523D02*
X124595000Y-109116904D01*
X124547380Y-109021666D01*
X124547380Y-108783571D01*
X124595000Y-108688333D01*
X124642619Y-108640714D01*
X124737857Y-108593095D01*
X124833095Y-108593095D01*
X124975952Y-108640714D01*
X125547380Y-109212142D01*
X125547380Y-108593095D01*
G04 #@! TO.C,D1*
X130706904Y-117292380D02*
X130706904Y-116292380D01*
X130945000Y-116292380D01*
X131087857Y-116340000D01*
X131183095Y-116435238D01*
X131230714Y-116530476D01*
X131278333Y-116720952D01*
X131278333Y-116863809D01*
X131230714Y-117054285D01*
X131183095Y-117149523D01*
X131087857Y-117244761D01*
X130945000Y-117292380D01*
X130706904Y-117292380D01*
X132230714Y-117292380D02*
X131659285Y-117292380D01*
X131945000Y-117292380D02*
X131945000Y-116292380D01*
X131849761Y-116435238D01*
X131754523Y-116530476D01*
X131659285Y-116578095D01*
G04 #@! TO.C,R3*
X147788333Y-83256380D02*
X147455000Y-82780190D01*
X147216904Y-83256380D02*
X147216904Y-82256380D01*
X147597857Y-82256380D01*
X147693095Y-82304000D01*
X147740714Y-82351619D01*
X147788333Y-82446857D01*
X147788333Y-82589714D01*
X147740714Y-82684952D01*
X147693095Y-82732571D01*
X147597857Y-82780190D01*
X147216904Y-82780190D01*
X148121666Y-82256380D02*
X148740714Y-82256380D01*
X148407380Y-82637333D01*
X148550238Y-82637333D01*
X148645476Y-82684952D01*
X148693095Y-82732571D01*
X148740714Y-82827809D01*
X148740714Y-83065904D01*
X148693095Y-83161142D01*
X148645476Y-83208761D01*
X148550238Y-83256380D01*
X148264523Y-83256380D01*
X148169285Y-83208761D01*
X148121666Y-83161142D01*
G04 #@! TO.C,U1*
X151003095Y-111637380D02*
X151003095Y-112446904D01*
X151050714Y-112542142D01*
X151098333Y-112589761D01*
X151193571Y-112637380D01*
X151384047Y-112637380D01*
X151479285Y-112589761D01*
X151526904Y-112542142D01*
X151574523Y-112446904D01*
X151574523Y-111637380D01*
X152574523Y-112637380D02*
X152003095Y-112637380D01*
X152288809Y-112637380D02*
X152288809Y-111637380D01*
X152193571Y-111780238D01*
X152098333Y-111875476D01*
X152003095Y-111923095D01*
G04 #@! TO.C,C2*
X140803333Y-111609142D02*
X140755714Y-111656761D01*
X140612857Y-111704380D01*
X140517619Y-111704380D01*
X140374761Y-111656761D01*
X140279523Y-111561523D01*
X140231904Y-111466285D01*
X140184285Y-111275809D01*
X140184285Y-111132952D01*
X140231904Y-110942476D01*
X140279523Y-110847238D01*
X140374761Y-110752000D01*
X140517619Y-110704380D01*
X140612857Y-110704380D01*
X140755714Y-110752000D01*
X140803333Y-110799619D01*
X141184285Y-110799619D02*
X141231904Y-110752000D01*
X141327142Y-110704380D01*
X141565238Y-110704380D01*
X141660476Y-110752000D01*
X141708095Y-110799619D01*
X141755714Y-110894857D01*
X141755714Y-110990095D01*
X141708095Y-111132952D01*
X141136666Y-111704380D01*
X141755714Y-111704380D01*
G04 #@! TO.C,C1*
X140803333Y-92305142D02*
X140755714Y-92352761D01*
X140612857Y-92400380D01*
X140517619Y-92400380D01*
X140374761Y-92352761D01*
X140279523Y-92257523D01*
X140231904Y-92162285D01*
X140184285Y-91971809D01*
X140184285Y-91828952D01*
X140231904Y-91638476D01*
X140279523Y-91543238D01*
X140374761Y-91448000D01*
X140517619Y-91400380D01*
X140612857Y-91400380D01*
X140755714Y-91448000D01*
X140803333Y-91495619D01*
X141755714Y-92400380D02*
X141184285Y-92400380D01*
X141470000Y-92400380D02*
X141470000Y-91400380D01*
X141374761Y-91543238D01*
X141279523Y-91638476D01*
X141184285Y-91686095D01*
G04 #@! TO.C,PP1*
X176561904Y-100147380D02*
X176561904Y-99147380D01*
X176942857Y-99147380D01*
X177038095Y-99195000D01*
X177085714Y-99242619D01*
X177133333Y-99337857D01*
X177133333Y-99480714D01*
X177085714Y-99575952D01*
X177038095Y-99623571D01*
X176942857Y-99671190D01*
X176561904Y-99671190D01*
X177561904Y-100147380D02*
X177561904Y-99147380D01*
X177942857Y-99147380D01*
X178038095Y-99195000D01*
X178085714Y-99242619D01*
X178133333Y-99337857D01*
X178133333Y-99480714D01*
X178085714Y-99575952D01*
X178038095Y-99623571D01*
X177942857Y-99671190D01*
X177561904Y-99671190D01*
X179085714Y-100147380D02*
X178514285Y-100147380D01*
X178800000Y-100147380D02*
X178800000Y-99147380D01*
X178704761Y-99290238D01*
X178609523Y-99385476D01*
X178514285Y-99433095D01*
G04 #@! TO.C,R8*
X165695333Y-103068380D02*
X165362000Y-102592190D01*
X165123904Y-103068380D02*
X165123904Y-102068380D01*
X165504857Y-102068380D01*
X165600095Y-102116000D01*
X165647714Y-102163619D01*
X165695333Y-102258857D01*
X165695333Y-102401714D01*
X165647714Y-102496952D01*
X165600095Y-102544571D01*
X165504857Y-102592190D01*
X165123904Y-102592190D01*
X166266761Y-102496952D02*
X166171523Y-102449333D01*
X166123904Y-102401714D01*
X166076285Y-102306476D01*
X166076285Y-102258857D01*
X166123904Y-102163619D01*
X166171523Y-102116000D01*
X166266761Y-102068380D01*
X166457238Y-102068380D01*
X166552476Y-102116000D01*
X166600095Y-102163619D01*
X166647714Y-102258857D01*
X166647714Y-102306476D01*
X166600095Y-102401714D01*
X166552476Y-102449333D01*
X166457238Y-102496952D01*
X166266761Y-102496952D01*
X166171523Y-102544571D01*
X166123904Y-102592190D01*
X166076285Y-102687428D01*
X166076285Y-102877904D01*
X166123904Y-102973142D01*
X166171523Y-103020761D01*
X166266761Y-103068380D01*
X166457238Y-103068380D01*
X166552476Y-103020761D01*
X166600095Y-102973142D01*
X166647714Y-102877904D01*
X166647714Y-102687428D01*
X166600095Y-102592190D01*
X166552476Y-102544571D01*
X166457238Y-102496952D01*
G04 #@! TO.C,D2*
X137056904Y-117292380D02*
X137056904Y-116292380D01*
X137295000Y-116292380D01*
X137437857Y-116340000D01*
X137533095Y-116435238D01*
X137580714Y-116530476D01*
X137628333Y-116720952D01*
X137628333Y-116863809D01*
X137580714Y-117054285D01*
X137533095Y-117149523D01*
X137437857Y-117244761D01*
X137295000Y-117292380D01*
X137056904Y-117292380D01*
X138009285Y-116387619D02*
X138056904Y-116340000D01*
X138152142Y-116292380D01*
X138390238Y-116292380D01*
X138485476Y-116340000D01*
X138533095Y-116387619D01*
X138580714Y-116482857D01*
X138580714Y-116578095D01*
X138533095Y-116720952D01*
X137961666Y-117292380D01*
X138580714Y-117292380D01*
G04 #@! TO.C,J1*
X137461666Y-90257380D02*
X137461666Y-90971666D01*
X137414047Y-91114523D01*
X137318809Y-91209761D01*
X137175952Y-91257380D01*
X137080714Y-91257380D01*
X138461666Y-91257380D02*
X137890238Y-91257380D01*
X138175952Y-91257380D02*
X138175952Y-90257380D01*
X138080714Y-90400238D01*
X137985476Y-90495476D01*
X137890238Y-90543095D01*
G04 #@! TO.C,J2*
X177466666Y-108672380D02*
X177466666Y-109386666D01*
X177419047Y-109529523D01*
X177323809Y-109624761D01*
X177180952Y-109672380D01*
X177085714Y-109672380D01*
X177895238Y-108767619D02*
X177942857Y-108720000D01*
X178038095Y-108672380D01*
X178276190Y-108672380D01*
X178371428Y-108720000D01*
X178419047Y-108767619D01*
X178466666Y-108862857D01*
X178466666Y-108958095D01*
X178419047Y-109100952D01*
X177847619Y-109672380D01*
X178466666Y-109672380D01*
G04 #@! TO.C,R1*
X141311333Y-89098380D02*
X140978000Y-88622190D01*
X140739904Y-89098380D02*
X140739904Y-88098380D01*
X141120857Y-88098380D01*
X141216095Y-88146000D01*
X141263714Y-88193619D01*
X141311333Y-88288857D01*
X141311333Y-88431714D01*
X141263714Y-88526952D01*
X141216095Y-88574571D01*
X141120857Y-88622190D01*
X140739904Y-88622190D01*
X142263714Y-89098380D02*
X141692285Y-89098380D01*
X141978000Y-89098380D02*
X141978000Y-88098380D01*
X141882761Y-88241238D01*
X141787523Y-88336476D01*
X141692285Y-88384095D01*
G04 #@! TO.C,R2*
X161123333Y-93332380D02*
X160790000Y-92856190D01*
X160551904Y-93332380D02*
X160551904Y-92332380D01*
X160932857Y-92332380D01*
X161028095Y-92380000D01*
X161075714Y-92427619D01*
X161123333Y-92522857D01*
X161123333Y-92665714D01*
X161075714Y-92760952D01*
X161028095Y-92808571D01*
X160932857Y-92856190D01*
X160551904Y-92856190D01*
X161504285Y-92427619D02*
X161551904Y-92380000D01*
X161647142Y-92332380D01*
X161885238Y-92332380D01*
X161980476Y-92380000D01*
X162028095Y-92427619D01*
X162075714Y-92522857D01*
X162075714Y-92618095D01*
X162028095Y-92760952D01*
X161456666Y-93332380D01*
X162075714Y-93332380D01*
G04 #@! TO.C,R4*
X161123333Y-83172380D02*
X160790000Y-82696190D01*
X160551904Y-83172380D02*
X160551904Y-82172380D01*
X160932857Y-82172380D01*
X161028095Y-82220000D01*
X161075714Y-82267619D01*
X161123333Y-82362857D01*
X161123333Y-82505714D01*
X161075714Y-82600952D01*
X161028095Y-82648571D01*
X160932857Y-82696190D01*
X160551904Y-82696190D01*
X161980476Y-82505714D02*
X161980476Y-83172380D01*
X161742380Y-82124761D02*
X161504285Y-82839047D01*
X162123333Y-82839047D01*
G04 #@! TO.C,R5*
X161123333Y-88252380D02*
X160790000Y-87776190D01*
X160551904Y-88252380D02*
X160551904Y-87252380D01*
X160932857Y-87252380D01*
X161028095Y-87300000D01*
X161075714Y-87347619D01*
X161123333Y-87442857D01*
X161123333Y-87585714D01*
X161075714Y-87680952D01*
X161028095Y-87728571D01*
X160932857Y-87776190D01*
X160551904Y-87776190D01*
X162028095Y-87252380D02*
X161551904Y-87252380D01*
X161504285Y-87728571D01*
X161551904Y-87680952D01*
X161647142Y-87633333D01*
X161885238Y-87633333D01*
X161980476Y-87680952D01*
X162028095Y-87728571D01*
X162075714Y-87823809D01*
X162075714Y-88061904D01*
X162028095Y-88157142D01*
X161980476Y-88204761D01*
X161885238Y-88252380D01*
X161647142Y-88252380D01*
X161551904Y-88204761D01*
X161504285Y-88157142D01*
G04 #@! TO.C,R6*
X161123333Y-103492380D02*
X160790000Y-103016190D01*
X160551904Y-103492380D02*
X160551904Y-102492380D01*
X160932857Y-102492380D01*
X161028095Y-102540000D01*
X161075714Y-102587619D01*
X161123333Y-102682857D01*
X161123333Y-102825714D01*
X161075714Y-102920952D01*
X161028095Y-102968571D01*
X160932857Y-103016190D01*
X160551904Y-103016190D01*
X161980476Y-102492380D02*
X161790000Y-102492380D01*
X161694761Y-102540000D01*
X161647142Y-102587619D01*
X161551904Y-102730476D01*
X161504285Y-102920952D01*
X161504285Y-103301904D01*
X161551904Y-103397142D01*
X161599523Y-103444761D01*
X161694761Y-103492380D01*
X161885238Y-103492380D01*
X161980476Y-103444761D01*
X162028095Y-103397142D01*
X162075714Y-103301904D01*
X162075714Y-103063809D01*
X162028095Y-102968571D01*
X161980476Y-102920952D01*
X161885238Y-102873333D01*
X161694761Y-102873333D01*
X161599523Y-102920952D01*
X161551904Y-102968571D01*
X161504285Y-103063809D01*
G04 #@! TO.C,R7*
X161123333Y-113736380D02*
X160790000Y-113260190D01*
X160551904Y-113736380D02*
X160551904Y-112736380D01*
X160932857Y-112736380D01*
X161028095Y-112784000D01*
X161075714Y-112831619D01*
X161123333Y-112926857D01*
X161123333Y-113069714D01*
X161075714Y-113164952D01*
X161028095Y-113212571D01*
X160932857Y-113260190D01*
X160551904Y-113260190D01*
X161456666Y-112736380D02*
X162123333Y-112736380D01*
X161694761Y-113736380D01*
G04 #@! TO.C,R9*
X161123333Y-108656380D02*
X160790000Y-108180190D01*
X160551904Y-108656380D02*
X160551904Y-107656380D01*
X160932857Y-107656380D01*
X161028095Y-107704000D01*
X161075714Y-107751619D01*
X161123333Y-107846857D01*
X161123333Y-107989714D01*
X161075714Y-108084952D01*
X161028095Y-108132571D01*
X160932857Y-108180190D01*
X160551904Y-108180190D01*
X161599523Y-108656380D02*
X161790000Y-108656380D01*
X161885238Y-108608761D01*
X161932857Y-108561142D01*
X162028095Y-108418285D01*
X162075714Y-108227809D01*
X162075714Y-107846857D01*
X162028095Y-107751619D01*
X161980476Y-107704000D01*
X161885238Y-107656380D01*
X161694761Y-107656380D01*
X161599523Y-107704000D01*
X161551904Y-107751619D01*
X161504285Y-107846857D01*
X161504285Y-108084952D01*
X161551904Y-108180190D01*
X161599523Y-108227809D01*
X161694761Y-108275428D01*
X161885238Y-108275428D01*
X161980476Y-108227809D01*
X162028095Y-108180190D01*
X162075714Y-108084952D01*
G04 #@! TO.C,R10*
X140327142Y-115387380D02*
X139993809Y-114911190D01*
X139755714Y-115387380D02*
X139755714Y-114387380D01*
X140136666Y-114387380D01*
X140231904Y-114435000D01*
X140279523Y-114482619D01*
X140327142Y-114577857D01*
X140327142Y-114720714D01*
X140279523Y-114815952D01*
X140231904Y-114863571D01*
X140136666Y-114911190D01*
X139755714Y-114911190D01*
X141279523Y-115387380D02*
X140708095Y-115387380D01*
X140993809Y-115387380D02*
X140993809Y-114387380D01*
X140898571Y-114530238D01*
X140803333Y-114625476D01*
X140708095Y-114673095D01*
X141898571Y-114387380D02*
X141993809Y-114387380D01*
X142089047Y-114435000D01*
X142136666Y-114482619D01*
X142184285Y-114577857D01*
X142231904Y-114768333D01*
X142231904Y-115006428D01*
X142184285Y-115196904D01*
X142136666Y-115292142D01*
X142089047Y-115339761D01*
X141993809Y-115387380D01*
X141898571Y-115387380D01*
X141803333Y-115339761D01*
X141755714Y-115292142D01*
X141708095Y-115196904D01*
X141660476Y-115006428D01*
X141660476Y-114768333D01*
X141708095Y-114577857D01*
X141755714Y-114482619D01*
X141803333Y-114435000D01*
X141898571Y-114387380D01*
G04 #@! TO.C,R11*
X125547380Y-106687857D02*
X125071190Y-107021190D01*
X125547380Y-107259285D02*
X124547380Y-107259285D01*
X124547380Y-106878333D01*
X124595000Y-106783095D01*
X124642619Y-106735476D01*
X124737857Y-106687857D01*
X124880714Y-106687857D01*
X124975952Y-106735476D01*
X125023571Y-106783095D01*
X125071190Y-106878333D01*
X125071190Y-107259285D01*
X125547380Y-105735476D02*
X125547380Y-106306904D01*
X125547380Y-106021190D02*
X124547380Y-106021190D01*
X124690238Y-106116428D01*
X124785476Y-106211666D01*
X124833095Y-106306904D01*
X125547380Y-104783095D02*
X125547380Y-105354523D01*
X125547380Y-105068809D02*
X124547380Y-105068809D01*
X124690238Y-105164047D01*
X124785476Y-105259285D01*
X124833095Y-105354523D01*
G04 #@! TD*
M02*
