G04 #@! TF.GenerationSoftware,KiCad,Pcbnew,(5.0.1)-4*
G04 #@! TF.CreationDate,2019-02-25T19:27:26-03:00*
G04 #@! TF.ProjectId,ponta-de-prova-logica-simplificada,706F6E74612D64652D70726F76612D6C,02*
G04 #@! TF.SameCoordinates,Original*
G04 #@! TF.FileFunction,Soldermask,Bot*
G04 #@! TF.FilePolarity,Negative*
%FSLAX46Y46*%
G04 Gerber Fmt 4.6, Leading zero omitted, Abs format (unit mm)*
G04 Created by KiCad (PCBNEW (5.0.1)-4) date 25-02-2019 19:27:26*
%MOMM*%
%LPD*%
G01*
G04 APERTURE LIST*
%ADD10C,0.100000*%
G04 APERTURE END LIST*
D10*
G36*
X172146030Y-115854469D02*
X172146033Y-115854470D01*
X172146034Y-115854470D01*
X172334535Y-115911651D01*
X172334537Y-115911652D01*
X172508260Y-116004509D01*
X172660528Y-116129472D01*
X172785491Y-116281740D01*
X172878348Y-116455463D01*
X172935531Y-116643970D01*
X172954838Y-116840000D01*
X172935531Y-117036030D01*
X172878348Y-117224537D01*
X172785491Y-117398260D01*
X172660528Y-117550528D01*
X172508260Y-117675491D01*
X172508258Y-117675492D01*
X172334535Y-117768349D01*
X172146034Y-117825530D01*
X172146033Y-117825530D01*
X172146030Y-117825531D01*
X171999124Y-117840000D01*
X170900876Y-117840000D01*
X170753970Y-117825531D01*
X170753967Y-117825530D01*
X170753966Y-117825530D01*
X170565465Y-117768349D01*
X170391742Y-117675492D01*
X170391740Y-117675491D01*
X170239472Y-117550528D01*
X170114509Y-117398260D01*
X170021652Y-117224537D01*
X169964469Y-117036030D01*
X169945162Y-116840000D01*
X169964469Y-116643970D01*
X170021652Y-116455463D01*
X170114509Y-116281740D01*
X170239472Y-116129472D01*
X170391740Y-116004509D01*
X170565463Y-115911652D01*
X170565465Y-115911651D01*
X170753966Y-115854470D01*
X170753967Y-115854470D01*
X170753970Y-115854469D01*
X170900876Y-115840000D01*
X171999124Y-115840000D01*
X172146030Y-115854469D01*
X172146030Y-115854469D01*
G37*
G36*
X164526030Y-115854469D02*
X164526033Y-115854470D01*
X164526034Y-115854470D01*
X164714535Y-115911651D01*
X164714537Y-115911652D01*
X164888260Y-116004509D01*
X165040528Y-116129472D01*
X165165491Y-116281740D01*
X165258348Y-116455463D01*
X165315531Y-116643970D01*
X165334838Y-116840000D01*
X165315531Y-117036030D01*
X165258348Y-117224537D01*
X165165491Y-117398260D01*
X165040528Y-117550528D01*
X164888260Y-117675491D01*
X164888258Y-117675492D01*
X164714535Y-117768349D01*
X164526034Y-117825530D01*
X164526033Y-117825530D01*
X164526030Y-117825531D01*
X164379124Y-117840000D01*
X163280876Y-117840000D01*
X163133970Y-117825531D01*
X163133967Y-117825530D01*
X163133966Y-117825530D01*
X162945465Y-117768349D01*
X162771742Y-117675492D01*
X162771740Y-117675491D01*
X162619472Y-117550528D01*
X162494509Y-117398260D01*
X162401652Y-117224537D01*
X162344469Y-117036030D01*
X162325162Y-116840000D01*
X162344469Y-116643970D01*
X162401652Y-116455463D01*
X162494509Y-116281740D01*
X162619472Y-116129472D01*
X162771740Y-116004509D01*
X162945463Y-115911652D01*
X162945465Y-115911651D01*
X163133966Y-115854470D01*
X163133967Y-115854470D01*
X163133970Y-115854469D01*
X163280876Y-115840000D01*
X164379124Y-115840000D01*
X164526030Y-115854469D01*
X164526030Y-115854469D01*
G37*
G36*
X158811030Y-115854469D02*
X158811033Y-115854470D01*
X158811034Y-115854470D01*
X158999535Y-115911651D01*
X158999537Y-115911652D01*
X159173260Y-116004509D01*
X159325528Y-116129472D01*
X159450491Y-116281740D01*
X159543348Y-116455463D01*
X159600531Y-116643970D01*
X159619838Y-116840000D01*
X159600531Y-117036030D01*
X159543348Y-117224537D01*
X159450491Y-117398260D01*
X159325528Y-117550528D01*
X159173260Y-117675491D01*
X159173258Y-117675492D01*
X158999535Y-117768349D01*
X158811034Y-117825530D01*
X158811033Y-117825530D01*
X158811030Y-117825531D01*
X158664124Y-117840000D01*
X157565876Y-117840000D01*
X157418970Y-117825531D01*
X157418967Y-117825530D01*
X157418966Y-117825530D01*
X157230465Y-117768349D01*
X157056742Y-117675492D01*
X157056740Y-117675491D01*
X156904472Y-117550528D01*
X156779509Y-117398260D01*
X156686652Y-117224537D01*
X156629469Y-117036030D01*
X156610162Y-116840000D01*
X156629469Y-116643970D01*
X156686652Y-116455463D01*
X156779509Y-116281740D01*
X156904472Y-116129472D01*
X157056740Y-116004509D01*
X157230463Y-115911652D01*
X157230465Y-115911651D01*
X157418966Y-115854470D01*
X157418967Y-115854470D01*
X157418970Y-115854469D01*
X157565876Y-115840000D01*
X158664124Y-115840000D01*
X158811030Y-115854469D01*
X158811030Y-115854469D01*
G37*
G36*
X141666030Y-115854469D02*
X141666033Y-115854470D01*
X141666034Y-115854470D01*
X141854535Y-115911651D01*
X141854537Y-115911652D01*
X142028260Y-116004509D01*
X142180528Y-116129472D01*
X142305491Y-116281740D01*
X142398348Y-116455463D01*
X142455531Y-116643970D01*
X142474838Y-116840000D01*
X142455531Y-117036030D01*
X142398348Y-117224537D01*
X142305491Y-117398260D01*
X142180528Y-117550528D01*
X142028260Y-117675491D01*
X142028258Y-117675492D01*
X141854535Y-117768349D01*
X141666034Y-117825530D01*
X141666033Y-117825530D01*
X141666030Y-117825531D01*
X141519124Y-117840000D01*
X140420876Y-117840000D01*
X140273970Y-117825531D01*
X140273967Y-117825530D01*
X140273966Y-117825530D01*
X140085465Y-117768349D01*
X139911742Y-117675492D01*
X139911740Y-117675491D01*
X139759472Y-117550528D01*
X139634509Y-117398260D01*
X139541652Y-117224537D01*
X139484469Y-117036030D01*
X139465162Y-116840000D01*
X139484469Y-116643970D01*
X139541652Y-116455463D01*
X139634509Y-116281740D01*
X139759472Y-116129472D01*
X139911740Y-116004509D01*
X140085463Y-115911652D01*
X140085465Y-115911651D01*
X140273966Y-115854470D01*
X140273967Y-115854470D01*
X140273970Y-115854469D01*
X140420876Y-115840000D01*
X141519124Y-115840000D01*
X141666030Y-115854469D01*
X141666030Y-115854469D01*
G37*
G36*
X151191030Y-115854469D02*
X151191033Y-115854470D01*
X151191034Y-115854470D01*
X151379535Y-115911651D01*
X151379537Y-115911652D01*
X151553260Y-116004509D01*
X151705528Y-116129472D01*
X151830491Y-116281740D01*
X151923348Y-116455463D01*
X151980531Y-116643970D01*
X151999838Y-116840000D01*
X151980531Y-117036030D01*
X151923348Y-117224537D01*
X151830491Y-117398260D01*
X151705528Y-117550528D01*
X151553260Y-117675491D01*
X151553258Y-117675492D01*
X151379535Y-117768349D01*
X151191034Y-117825530D01*
X151191033Y-117825530D01*
X151191030Y-117825531D01*
X151044124Y-117840000D01*
X149945876Y-117840000D01*
X149798970Y-117825531D01*
X149798967Y-117825530D01*
X149798966Y-117825530D01*
X149610465Y-117768349D01*
X149436742Y-117675492D01*
X149436740Y-117675491D01*
X149284472Y-117550528D01*
X149159509Y-117398260D01*
X149066652Y-117224537D01*
X149009469Y-117036030D01*
X148990162Y-116840000D01*
X149009469Y-116643970D01*
X149066652Y-116455463D01*
X149159509Y-116281740D01*
X149284472Y-116129472D01*
X149436740Y-116004509D01*
X149610463Y-115911652D01*
X149610465Y-115911651D01*
X149798966Y-115854470D01*
X149798967Y-115854470D01*
X149798970Y-115854469D01*
X149945876Y-115840000D01*
X151044124Y-115840000D01*
X151191030Y-115854469D01*
X151191030Y-115854469D01*
G37*
G36*
X135316030Y-115854469D02*
X135316033Y-115854470D01*
X135316034Y-115854470D01*
X135504535Y-115911651D01*
X135504537Y-115911652D01*
X135678260Y-116004509D01*
X135830528Y-116129472D01*
X135955491Y-116281740D01*
X136048348Y-116455463D01*
X136105531Y-116643970D01*
X136124838Y-116840000D01*
X136105531Y-117036030D01*
X136048348Y-117224537D01*
X135955491Y-117398260D01*
X135830528Y-117550528D01*
X135678260Y-117675491D01*
X135678258Y-117675492D01*
X135504535Y-117768349D01*
X135316034Y-117825530D01*
X135316033Y-117825530D01*
X135316030Y-117825531D01*
X135169124Y-117840000D01*
X134070876Y-117840000D01*
X133923970Y-117825531D01*
X133923967Y-117825530D01*
X133923966Y-117825530D01*
X133735465Y-117768349D01*
X133561742Y-117675492D01*
X133561740Y-117675491D01*
X133409472Y-117550528D01*
X133284509Y-117398260D01*
X133191652Y-117224537D01*
X133134469Y-117036030D01*
X133115162Y-116840000D01*
X133134469Y-116643970D01*
X133191652Y-116455463D01*
X133284509Y-116281740D01*
X133409472Y-116129472D01*
X133561740Y-116004509D01*
X133735463Y-115911652D01*
X133735465Y-115911651D01*
X133923966Y-115854470D01*
X133923967Y-115854470D01*
X133923970Y-115854469D01*
X134070876Y-115840000D01*
X135169124Y-115840000D01*
X135316030Y-115854469D01*
X135316030Y-115854469D01*
G37*
G36*
X135620000Y-115300000D02*
X133620000Y-115300000D01*
X133620000Y-113300000D01*
X135620000Y-113300000D01*
X135620000Y-115300000D01*
X135620000Y-115300000D01*
G37*
G36*
X141970000Y-115300000D02*
X139970000Y-115300000D01*
X139970000Y-113300000D01*
X141970000Y-113300000D01*
X141970000Y-115300000D01*
X141970000Y-115300000D01*
G37*
G36*
X184441538Y-111433919D02*
X184623437Y-111509264D01*
X184787141Y-111618648D01*
X184926352Y-111757859D01*
X185035736Y-111921563D01*
X185111081Y-112103462D01*
X185149490Y-112296557D01*
X185149490Y-112493443D01*
X185111081Y-112686538D01*
X185035736Y-112868437D01*
X184926352Y-113032141D01*
X184787141Y-113171352D01*
X184623437Y-113280736D01*
X184441538Y-113356081D01*
X184248443Y-113394490D01*
X184051557Y-113394490D01*
X183858462Y-113356081D01*
X183676563Y-113280736D01*
X183512859Y-113171352D01*
X183373648Y-113032141D01*
X183264264Y-112868437D01*
X183188919Y-112686538D01*
X183150510Y-112493443D01*
X183150510Y-112296557D01*
X183188919Y-112103462D01*
X183264264Y-111921563D01*
X183373648Y-111757859D01*
X183512859Y-111618648D01*
X183676563Y-111509264D01*
X183858462Y-111433919D01*
X184051557Y-111395510D01*
X184248443Y-111395510D01*
X184441538Y-111433919D01*
X184441538Y-111433919D01*
G37*
G36*
X164526030Y-110774469D02*
X164526033Y-110774470D01*
X164526034Y-110774470D01*
X164714535Y-110831651D01*
X164714537Y-110831652D01*
X164888260Y-110924509D01*
X165040528Y-111049472D01*
X165165491Y-111201740D01*
X165231637Y-111325491D01*
X165258349Y-111375465D01*
X165315530Y-111563966D01*
X165315531Y-111563970D01*
X165334838Y-111760000D01*
X165315531Y-111956030D01*
X165258348Y-112144537D01*
X165165491Y-112318260D01*
X165040528Y-112470528D01*
X164888260Y-112595491D01*
X164714537Y-112688348D01*
X164714535Y-112688349D01*
X164526034Y-112745530D01*
X164526033Y-112745530D01*
X164526030Y-112745531D01*
X164379124Y-112760000D01*
X163280876Y-112760000D01*
X163133970Y-112745531D01*
X163133967Y-112745530D01*
X163133966Y-112745530D01*
X162945465Y-112688349D01*
X162945463Y-112688348D01*
X162771740Y-112595491D01*
X162619472Y-112470528D01*
X162494509Y-112318260D01*
X162401652Y-112144537D01*
X162344469Y-111956030D01*
X162325162Y-111760000D01*
X162344469Y-111563970D01*
X162344470Y-111563966D01*
X162401651Y-111375465D01*
X162428363Y-111325491D01*
X162494509Y-111201740D01*
X162619472Y-111049472D01*
X162771740Y-110924509D01*
X162945463Y-110831652D01*
X162945465Y-110831651D01*
X163133966Y-110774470D01*
X163133967Y-110774470D01*
X163133970Y-110774469D01*
X163280876Y-110760000D01*
X164379124Y-110760000D01*
X164526030Y-110774469D01*
X164526030Y-110774469D01*
G37*
G36*
X172146030Y-110774469D02*
X172146033Y-110774470D01*
X172146034Y-110774470D01*
X172334535Y-110831651D01*
X172334537Y-110831652D01*
X172508260Y-110924509D01*
X172660528Y-111049472D01*
X172785491Y-111201740D01*
X172851637Y-111325491D01*
X172878349Y-111375465D01*
X172935530Y-111563966D01*
X172935531Y-111563970D01*
X172954838Y-111760000D01*
X172935531Y-111956030D01*
X172878348Y-112144537D01*
X172785491Y-112318260D01*
X172660528Y-112470528D01*
X172508260Y-112595491D01*
X172334537Y-112688348D01*
X172334535Y-112688349D01*
X172146034Y-112745530D01*
X172146033Y-112745530D01*
X172146030Y-112745531D01*
X171999124Y-112760000D01*
X170900876Y-112760000D01*
X170753970Y-112745531D01*
X170753967Y-112745530D01*
X170753966Y-112745530D01*
X170565465Y-112688349D01*
X170565463Y-112688348D01*
X170391740Y-112595491D01*
X170239472Y-112470528D01*
X170114509Y-112318260D01*
X170021652Y-112144537D01*
X169964469Y-111956030D01*
X169945162Y-111760000D01*
X169964469Y-111563970D01*
X169964470Y-111563966D01*
X170021651Y-111375465D01*
X170048363Y-111325491D01*
X170114509Y-111201740D01*
X170239472Y-111049472D01*
X170391740Y-110924509D01*
X170565463Y-110831652D01*
X170565465Y-110831651D01*
X170753966Y-110774470D01*
X170753967Y-110774470D01*
X170753970Y-110774469D01*
X170900876Y-110760000D01*
X171999124Y-110760000D01*
X172146030Y-110774469D01*
X172146030Y-110774469D01*
G37*
G36*
X191475935Y-109663429D02*
X191572534Y-109682644D01*
X191845517Y-109795717D01*
X192049089Y-109931740D01*
X192091197Y-109959876D01*
X192300124Y-110168803D01*
X192300126Y-110168806D01*
X192464283Y-110414483D01*
X192576763Y-110686034D01*
X192577356Y-110687467D01*
X192635000Y-110977261D01*
X192635000Y-111272739D01*
X192620940Y-111343424D01*
X192577356Y-111562534D01*
X192464283Y-111835517D01*
X192406788Y-111921564D01*
X192300124Y-112081197D01*
X192091197Y-112290124D01*
X192091194Y-112290126D01*
X191845517Y-112454283D01*
X191572534Y-112567356D01*
X191475935Y-112586571D01*
X191282739Y-112625000D01*
X190987261Y-112625000D01*
X190794065Y-112586571D01*
X190697466Y-112567356D01*
X190424483Y-112454283D01*
X190178806Y-112290126D01*
X190178803Y-112290124D01*
X189969876Y-112081197D01*
X189863212Y-111921564D01*
X189805717Y-111835517D01*
X189692644Y-111562534D01*
X189649060Y-111343424D01*
X189635000Y-111272739D01*
X189635000Y-110977261D01*
X189692644Y-110687467D01*
X189693238Y-110686034D01*
X189805717Y-110414483D01*
X189969874Y-110168806D01*
X189969876Y-110168803D01*
X190178803Y-109959876D01*
X190220911Y-109931740D01*
X190424483Y-109795717D01*
X190697466Y-109682644D01*
X190794065Y-109663429D01*
X190987261Y-109625000D01*
X191282739Y-109625000D01*
X191475935Y-109663429D01*
X191475935Y-109663429D01*
G37*
G36*
X177505935Y-109663429D02*
X177602534Y-109682644D01*
X177875517Y-109795717D01*
X178079089Y-109931740D01*
X178121197Y-109959876D01*
X178330124Y-110168803D01*
X178330126Y-110168806D01*
X178494283Y-110414483D01*
X178606763Y-110686034D01*
X178607356Y-110687467D01*
X178665000Y-110977261D01*
X178665000Y-111272739D01*
X178650940Y-111343424D01*
X178607356Y-111562534D01*
X178494283Y-111835517D01*
X178436788Y-111921564D01*
X178330124Y-112081197D01*
X178121197Y-112290124D01*
X178121194Y-112290126D01*
X177875517Y-112454283D01*
X177602534Y-112567356D01*
X177505935Y-112586571D01*
X177312739Y-112625000D01*
X177017261Y-112625000D01*
X176824065Y-112586571D01*
X176727466Y-112567356D01*
X176454483Y-112454283D01*
X176208806Y-112290126D01*
X176208803Y-112290124D01*
X175999876Y-112081197D01*
X175893212Y-111921564D01*
X175835717Y-111835517D01*
X175722644Y-111562534D01*
X175679060Y-111343424D01*
X175665000Y-111272739D01*
X175665000Y-110977261D01*
X175722644Y-110687467D01*
X175723238Y-110686034D01*
X175835717Y-110414483D01*
X175999874Y-110168806D01*
X175999876Y-110168803D01*
X176208803Y-109959876D01*
X176250911Y-109931740D01*
X176454483Y-109795717D01*
X176727466Y-109682644D01*
X176824065Y-109663429D01*
X177017261Y-109625000D01*
X177312739Y-109625000D01*
X177505935Y-109663429D01*
X177505935Y-109663429D01*
G37*
G36*
X151312649Y-110332717D02*
X151351827Y-110336576D01*
X151427227Y-110359448D01*
X151502629Y-110382321D01*
X151641608Y-110456608D01*
X151763422Y-110556578D01*
X151863392Y-110678392D01*
X151937679Y-110817371D01*
X151983424Y-110968174D01*
X151998870Y-111125000D01*
X151983424Y-111281826D01*
X151937679Y-111432629D01*
X151863392Y-111571608D01*
X151763422Y-111693422D01*
X151641608Y-111793392D01*
X151502629Y-111867679D01*
X151427227Y-111890552D01*
X151351827Y-111913424D01*
X151312649Y-111917283D01*
X151234295Y-111925000D01*
X149755705Y-111925000D01*
X149677351Y-111917283D01*
X149638173Y-111913424D01*
X149562773Y-111890552D01*
X149487371Y-111867679D01*
X149348392Y-111793392D01*
X149226578Y-111693422D01*
X149126608Y-111571608D01*
X149052321Y-111432629D01*
X149006576Y-111281826D01*
X148991130Y-111125000D01*
X149006576Y-110968174D01*
X149052321Y-110817371D01*
X149126608Y-110678392D01*
X149226578Y-110556578D01*
X149348392Y-110456608D01*
X149487371Y-110382321D01*
X149562773Y-110359448D01*
X149638173Y-110336576D01*
X149677351Y-110332717D01*
X149755705Y-110325000D01*
X151234295Y-110325000D01*
X151312649Y-110332717D01*
X151312649Y-110332717D01*
G37*
G36*
X159615000Y-111925000D02*
X156615000Y-111925000D01*
X156615000Y-110325000D01*
X159615000Y-110325000D01*
X159615000Y-111925000D01*
X159615000Y-111925000D01*
G37*
G36*
X142301030Y-109504469D02*
X142301033Y-109504470D01*
X142301034Y-109504470D01*
X142489535Y-109561651D01*
X142489537Y-109561652D01*
X142663260Y-109654509D01*
X142815528Y-109779472D01*
X142940491Y-109931740D01*
X143033348Y-110105463D01*
X143090531Y-110293970D01*
X143109838Y-110490000D01*
X143090531Y-110686030D01*
X143090530Y-110686033D01*
X143090530Y-110686034D01*
X143036961Y-110862629D01*
X143033348Y-110874537D01*
X142940491Y-111048260D01*
X142815528Y-111200528D01*
X142663260Y-111325491D01*
X142663258Y-111325492D01*
X142489535Y-111418349D01*
X142301034Y-111475530D01*
X142301033Y-111475530D01*
X142301030Y-111475531D01*
X142154124Y-111490000D01*
X141055876Y-111490000D01*
X140908970Y-111475531D01*
X140908967Y-111475530D01*
X140908966Y-111475530D01*
X140720465Y-111418349D01*
X140546742Y-111325492D01*
X140546740Y-111325491D01*
X140394472Y-111200528D01*
X140269509Y-111048260D01*
X140176652Y-110874537D01*
X140173040Y-110862629D01*
X140119470Y-110686034D01*
X140119470Y-110686033D01*
X140119469Y-110686030D01*
X140100162Y-110490000D01*
X140119469Y-110293970D01*
X140176652Y-110105463D01*
X140269509Y-109931740D01*
X140394472Y-109779472D01*
X140546740Y-109654509D01*
X140720463Y-109561652D01*
X140720465Y-109561651D01*
X140908966Y-109504470D01*
X140908967Y-109504470D01*
X140908970Y-109504469D01*
X141055876Y-109490000D01*
X142154124Y-109490000D01*
X142301030Y-109504469D01*
X142301030Y-109504469D01*
G37*
G36*
X134681030Y-109504469D02*
X134681033Y-109504470D01*
X134681034Y-109504470D01*
X134869535Y-109561651D01*
X134869537Y-109561652D01*
X135043260Y-109654509D01*
X135195528Y-109779472D01*
X135320491Y-109931740D01*
X135413348Y-110105463D01*
X135470531Y-110293970D01*
X135489838Y-110490000D01*
X135470531Y-110686030D01*
X135470530Y-110686033D01*
X135470530Y-110686034D01*
X135416961Y-110862629D01*
X135413348Y-110874537D01*
X135320491Y-111048260D01*
X135195528Y-111200528D01*
X135043260Y-111325491D01*
X135043258Y-111325492D01*
X134869535Y-111418349D01*
X134681034Y-111475530D01*
X134681033Y-111475530D01*
X134681030Y-111475531D01*
X134534124Y-111490000D01*
X133435876Y-111490000D01*
X133288970Y-111475531D01*
X133288967Y-111475530D01*
X133288966Y-111475530D01*
X133100465Y-111418349D01*
X132926742Y-111325492D01*
X132926740Y-111325491D01*
X132774472Y-111200528D01*
X132649509Y-111048260D01*
X132556652Y-110874537D01*
X132553040Y-110862629D01*
X132499470Y-110686034D01*
X132499470Y-110686033D01*
X132499469Y-110686030D01*
X132480162Y-110490000D01*
X132499469Y-110293970D01*
X132556652Y-110105463D01*
X132649509Y-109931740D01*
X132774472Y-109779472D01*
X132926740Y-109654509D01*
X133100463Y-109561652D01*
X133100465Y-109561651D01*
X133288966Y-109504470D01*
X133288967Y-109504470D01*
X133288970Y-109504469D01*
X133435876Y-109490000D01*
X134534124Y-109490000D01*
X134681030Y-109504469D01*
X134681030Y-109504469D01*
G37*
G36*
X146841826Y-108366576D02*
X146917227Y-108389449D01*
X146992628Y-108412321D01*
X147131604Y-108486606D01*
X147131606Y-108486607D01*
X147131605Y-108486607D01*
X147253422Y-108586578D01*
X147253423Y-108586580D01*
X147253425Y-108586581D01*
X147353392Y-108708392D01*
X147427679Y-108847371D01*
X147473424Y-108998174D01*
X147485000Y-109115705D01*
X147485000Y-110594295D01*
X147473424Y-110711826D01*
X147427679Y-110862629D01*
X147353392Y-111001608D01*
X147253422Y-111123422D01*
X147131608Y-111223392D01*
X146992629Y-111297679D01*
X146917228Y-111320551D01*
X146841827Y-111343424D01*
X146685000Y-111358870D01*
X146528174Y-111343424D01*
X146452773Y-111320551D01*
X146377372Y-111297679D01*
X146238393Y-111223392D01*
X146116579Y-111123422D01*
X146016609Y-111001608D01*
X145942322Y-110862629D01*
X145896577Y-110711826D01*
X145885001Y-110594295D01*
X145885000Y-109115706D01*
X145896576Y-108998175D01*
X145896577Y-108998173D01*
X145942321Y-108847373D01*
X145942321Y-108847372D01*
X146016606Y-108708396D01*
X146116576Y-108586581D01*
X146116578Y-108586578D01*
X146116580Y-108586577D01*
X146116581Y-108586575D01*
X146238392Y-108486608D01*
X146377371Y-108412321D01*
X146452772Y-108389449D01*
X146528173Y-108366576D01*
X146685000Y-108351130D01*
X146841826Y-108366576D01*
X146841826Y-108366576D01*
G37*
G36*
X158932649Y-107792717D02*
X158971827Y-107796576D01*
X159047228Y-107819449D01*
X159122629Y-107842321D01*
X159261608Y-107916608D01*
X159383422Y-108016578D01*
X159483392Y-108138392D01*
X159557679Y-108277371D01*
X159603424Y-108428174D01*
X159618870Y-108585000D01*
X159603424Y-108741826D01*
X159557679Y-108892629D01*
X159483392Y-109031608D01*
X159383422Y-109153422D01*
X159261608Y-109253392D01*
X159122629Y-109327679D01*
X159047227Y-109350552D01*
X158971827Y-109373424D01*
X158932649Y-109377283D01*
X158854295Y-109385000D01*
X157375705Y-109385000D01*
X157297351Y-109377283D01*
X157258173Y-109373424D01*
X157182773Y-109350552D01*
X157107371Y-109327679D01*
X156968392Y-109253392D01*
X156846578Y-109153422D01*
X156746608Y-109031608D01*
X156672321Y-108892629D01*
X156626576Y-108741826D01*
X156611130Y-108585000D01*
X156626576Y-108428174D01*
X156672321Y-108277371D01*
X156746608Y-108138392D01*
X156846578Y-108016578D01*
X156968392Y-107916608D01*
X157107371Y-107842321D01*
X157182772Y-107819449D01*
X157258173Y-107796576D01*
X157297351Y-107792717D01*
X157375705Y-107785000D01*
X158854295Y-107785000D01*
X158932649Y-107792717D01*
X158932649Y-107792717D01*
G37*
G36*
X151312649Y-107792717D02*
X151351827Y-107796576D01*
X151427228Y-107819449D01*
X151502629Y-107842321D01*
X151641608Y-107916608D01*
X151763422Y-108016578D01*
X151863392Y-108138392D01*
X151937679Y-108277371D01*
X151983424Y-108428174D01*
X151998870Y-108585000D01*
X151983424Y-108741826D01*
X151937679Y-108892629D01*
X151863392Y-109031608D01*
X151763422Y-109153422D01*
X151641608Y-109253392D01*
X151502629Y-109327679D01*
X151427227Y-109350552D01*
X151351827Y-109373424D01*
X151312649Y-109377283D01*
X151234295Y-109385000D01*
X149755705Y-109385000D01*
X149677351Y-109377283D01*
X149638173Y-109373424D01*
X149562773Y-109350552D01*
X149487371Y-109327679D01*
X149348392Y-109253392D01*
X149226578Y-109153422D01*
X149126608Y-109031608D01*
X149052321Y-108892629D01*
X149006576Y-108741826D01*
X148991130Y-108585000D01*
X149006576Y-108428174D01*
X149052321Y-108277371D01*
X149126608Y-108138392D01*
X149226578Y-108016578D01*
X149348392Y-107916608D01*
X149487371Y-107842321D01*
X149562772Y-107819449D01*
X149638173Y-107796576D01*
X149677351Y-107792717D01*
X149755705Y-107785000D01*
X151234295Y-107785000D01*
X151312649Y-107792717D01*
X151312649Y-107792717D01*
G37*
G36*
X164526030Y-105694469D02*
X164526033Y-105694470D01*
X164526034Y-105694470D01*
X164714535Y-105751651D01*
X164714537Y-105751652D01*
X164888260Y-105844509D01*
X165040528Y-105969472D01*
X165165491Y-106121740D01*
X165165492Y-106121742D01*
X165258349Y-106295465D01*
X165315530Y-106483966D01*
X165315531Y-106483970D01*
X165334838Y-106680000D01*
X165315531Y-106876030D01*
X165258348Y-107064537D01*
X165165491Y-107238260D01*
X165040528Y-107390528D01*
X164888260Y-107515491D01*
X164888258Y-107515492D01*
X164714535Y-107608349D01*
X164526034Y-107665530D01*
X164526033Y-107665530D01*
X164526030Y-107665531D01*
X164379124Y-107680000D01*
X163280876Y-107680000D01*
X163133970Y-107665531D01*
X163133967Y-107665530D01*
X163133966Y-107665530D01*
X162945465Y-107608349D01*
X162771742Y-107515492D01*
X162771740Y-107515491D01*
X162619472Y-107390528D01*
X162494509Y-107238260D01*
X162401652Y-107064537D01*
X162344469Y-106876030D01*
X162325162Y-106680000D01*
X162344469Y-106483970D01*
X162344470Y-106483966D01*
X162401651Y-106295465D01*
X162494508Y-106121742D01*
X162494509Y-106121740D01*
X162619472Y-105969472D01*
X162771740Y-105844509D01*
X162945463Y-105751652D01*
X162945465Y-105751651D01*
X163133966Y-105694470D01*
X163133967Y-105694470D01*
X163133970Y-105694469D01*
X163280876Y-105680000D01*
X164379124Y-105680000D01*
X164526030Y-105694469D01*
X164526030Y-105694469D01*
G37*
G36*
X172146030Y-105694469D02*
X172146033Y-105694470D01*
X172146034Y-105694470D01*
X172334535Y-105751651D01*
X172334537Y-105751652D01*
X172508260Y-105844509D01*
X172660528Y-105969472D01*
X172785491Y-106121740D01*
X172785492Y-106121742D01*
X172878349Y-106295465D01*
X172935530Y-106483966D01*
X172935531Y-106483970D01*
X172954838Y-106680000D01*
X172935531Y-106876030D01*
X172878348Y-107064537D01*
X172785491Y-107238260D01*
X172660528Y-107390528D01*
X172508260Y-107515491D01*
X172508258Y-107515492D01*
X172334535Y-107608349D01*
X172146034Y-107665530D01*
X172146033Y-107665530D01*
X172146030Y-107665531D01*
X171999124Y-107680000D01*
X170900876Y-107680000D01*
X170753970Y-107665531D01*
X170753967Y-107665530D01*
X170753966Y-107665530D01*
X170565465Y-107608349D01*
X170391742Y-107515492D01*
X170391740Y-107515491D01*
X170239472Y-107390528D01*
X170114509Y-107238260D01*
X170021652Y-107064537D01*
X169964469Y-106876030D01*
X169945162Y-106680000D01*
X169964469Y-106483970D01*
X169964470Y-106483966D01*
X170021651Y-106295465D01*
X170114508Y-106121742D01*
X170114509Y-106121740D01*
X170239472Y-105969472D01*
X170391740Y-105844509D01*
X170565463Y-105751652D01*
X170565465Y-105751651D01*
X170753966Y-105694470D01*
X170753967Y-105694470D01*
X170753970Y-105694469D01*
X170900876Y-105680000D01*
X171999124Y-105680000D01*
X172146030Y-105694469D01*
X172146030Y-105694469D01*
G37*
G36*
X158932649Y-105252717D02*
X158971827Y-105256576D01*
X159047227Y-105279448D01*
X159122629Y-105302321D01*
X159261608Y-105376608D01*
X159383422Y-105476578D01*
X159483392Y-105598392D01*
X159557679Y-105737371D01*
X159603424Y-105888174D01*
X159618870Y-106045000D01*
X159603424Y-106201826D01*
X159557679Y-106352629D01*
X159483392Y-106491608D01*
X159383422Y-106613422D01*
X159261608Y-106713392D01*
X159122629Y-106787679D01*
X159047227Y-106810552D01*
X158971827Y-106833424D01*
X158932649Y-106837283D01*
X158854295Y-106845000D01*
X157375705Y-106845000D01*
X157297351Y-106837283D01*
X157258173Y-106833424D01*
X157182773Y-106810552D01*
X157107371Y-106787679D01*
X156968392Y-106713392D01*
X156846578Y-106613422D01*
X156746608Y-106491608D01*
X156672321Y-106352629D01*
X156626576Y-106201826D01*
X156611130Y-106045000D01*
X156626576Y-105888174D01*
X156672321Y-105737371D01*
X156746608Y-105598392D01*
X156846578Y-105476578D01*
X156968392Y-105376608D01*
X157107371Y-105302321D01*
X157182773Y-105279448D01*
X157258173Y-105256576D01*
X157297351Y-105252717D01*
X157375705Y-105245000D01*
X158854295Y-105245000D01*
X158932649Y-105252717D01*
X158932649Y-105252717D01*
G37*
G36*
X151312649Y-105252717D02*
X151351827Y-105256576D01*
X151427227Y-105279448D01*
X151502629Y-105302321D01*
X151641608Y-105376608D01*
X151763422Y-105476578D01*
X151863392Y-105598392D01*
X151937679Y-105737371D01*
X151983424Y-105888174D01*
X151998870Y-106045000D01*
X151983424Y-106201826D01*
X151937679Y-106352629D01*
X151863392Y-106491608D01*
X151763422Y-106613422D01*
X151641608Y-106713392D01*
X151502629Y-106787679D01*
X151427227Y-106810552D01*
X151351827Y-106833424D01*
X151312649Y-106837283D01*
X151234295Y-106845000D01*
X149755705Y-106845000D01*
X149677351Y-106837283D01*
X149638173Y-106833424D01*
X149562773Y-106810552D01*
X149487371Y-106787679D01*
X149348392Y-106713392D01*
X149226578Y-106613422D01*
X149126608Y-106491608D01*
X149052321Y-106352629D01*
X149006576Y-106201826D01*
X148991130Y-106045000D01*
X149006576Y-105888174D01*
X149052321Y-105737371D01*
X149126608Y-105598392D01*
X149226578Y-105476578D01*
X149348392Y-105376608D01*
X149487371Y-105302321D01*
X149562773Y-105279448D01*
X149638173Y-105256576D01*
X149677351Y-105252717D01*
X149755705Y-105245000D01*
X151234295Y-105245000D01*
X151312649Y-105252717D01*
X151312649Y-105252717D01*
G37*
G36*
X142301030Y-104424469D02*
X142301033Y-104424470D01*
X142301034Y-104424470D01*
X142489535Y-104481651D01*
X142489537Y-104481652D01*
X142663260Y-104574509D01*
X142815528Y-104699472D01*
X142940491Y-104851740D01*
X143033348Y-105025463D01*
X143090531Y-105213970D01*
X143109838Y-105410000D01*
X143090531Y-105606030D01*
X143090530Y-105606033D01*
X143090530Y-105606034D01*
X143046358Y-105751651D01*
X143033348Y-105794537D01*
X142940491Y-105968260D01*
X142815528Y-106120528D01*
X142663260Y-106245491D01*
X142663258Y-106245492D01*
X142489535Y-106338349D01*
X142301034Y-106395530D01*
X142301033Y-106395530D01*
X142301030Y-106395531D01*
X142154124Y-106410000D01*
X141055876Y-106410000D01*
X140908970Y-106395531D01*
X140908967Y-106395530D01*
X140908966Y-106395530D01*
X140720465Y-106338349D01*
X140546742Y-106245492D01*
X140546740Y-106245491D01*
X140394472Y-106120528D01*
X140269509Y-105968260D01*
X140176652Y-105794537D01*
X140163643Y-105751651D01*
X140119470Y-105606034D01*
X140119470Y-105606033D01*
X140119469Y-105606030D01*
X140100162Y-105410000D01*
X140119469Y-105213970D01*
X140176652Y-105025463D01*
X140269509Y-104851740D01*
X140394472Y-104699472D01*
X140546740Y-104574509D01*
X140720463Y-104481652D01*
X140720465Y-104481651D01*
X140908966Y-104424470D01*
X140908967Y-104424470D01*
X140908970Y-104424469D01*
X141055876Y-104410000D01*
X142154124Y-104410000D01*
X142301030Y-104424469D01*
X142301030Y-104424469D01*
G37*
G36*
X134681030Y-104424469D02*
X134681033Y-104424470D01*
X134681034Y-104424470D01*
X134869535Y-104481651D01*
X134869537Y-104481652D01*
X135043260Y-104574509D01*
X135195528Y-104699472D01*
X135320491Y-104851740D01*
X135413348Y-105025463D01*
X135470531Y-105213970D01*
X135489838Y-105410000D01*
X135470531Y-105606030D01*
X135470530Y-105606033D01*
X135470530Y-105606034D01*
X135426358Y-105751651D01*
X135413348Y-105794537D01*
X135320491Y-105968260D01*
X135195528Y-106120528D01*
X135043260Y-106245491D01*
X135043258Y-106245492D01*
X134869535Y-106338349D01*
X134681034Y-106395530D01*
X134681033Y-106395530D01*
X134681030Y-106395531D01*
X134534124Y-106410000D01*
X133435876Y-106410000D01*
X133288970Y-106395531D01*
X133288967Y-106395530D01*
X133288966Y-106395530D01*
X133100465Y-106338349D01*
X132926742Y-106245492D01*
X132926740Y-106245491D01*
X132774472Y-106120528D01*
X132649509Y-105968260D01*
X132556652Y-105794537D01*
X132543643Y-105751651D01*
X132499470Y-105606034D01*
X132499470Y-105606033D01*
X132499469Y-105606030D01*
X132480162Y-105410000D01*
X132499469Y-105213970D01*
X132556652Y-105025463D01*
X132649509Y-104851740D01*
X132774472Y-104699472D01*
X132926740Y-104574509D01*
X133100463Y-104481652D01*
X133100465Y-104481651D01*
X133288966Y-104424470D01*
X133288967Y-104424470D01*
X133288970Y-104424469D01*
X133435876Y-104410000D01*
X134534124Y-104410000D01*
X134681030Y-104424469D01*
X134681030Y-104424469D01*
G37*
G36*
X146841826Y-103366576D02*
X146917227Y-103389449D01*
X146992628Y-103412321D01*
X147131604Y-103486606D01*
X147131606Y-103486607D01*
X147131605Y-103486607D01*
X147253422Y-103586578D01*
X147253423Y-103586580D01*
X147253425Y-103586581D01*
X147353392Y-103708392D01*
X147427679Y-103847371D01*
X147450551Y-103922772D01*
X147473424Y-103998173D01*
X147485000Y-104115707D01*
X147485000Y-105594293D01*
X147473424Y-105711827D01*
X147461343Y-105751652D01*
X147427679Y-105862629D01*
X147353392Y-106001608D01*
X147253422Y-106123422D01*
X147131608Y-106223392D01*
X146992629Y-106297679D01*
X146917227Y-106320552D01*
X146841827Y-106343424D01*
X146685000Y-106358870D01*
X146528174Y-106343424D01*
X146452774Y-106320552D01*
X146377372Y-106297679D01*
X146238393Y-106223392D01*
X146116579Y-106123422D01*
X146016609Y-106001608D01*
X145942322Y-105862629D01*
X145908658Y-105751652D01*
X145896577Y-105711827D01*
X145885001Y-105594293D01*
X145885000Y-104115708D01*
X145896576Y-103998174D01*
X145942321Y-103847373D01*
X145942321Y-103847372D01*
X146016606Y-103708396D01*
X146116576Y-103586581D01*
X146116578Y-103586578D01*
X146116580Y-103586577D01*
X146116581Y-103586575D01*
X146238392Y-103486608D01*
X146377371Y-103412321D01*
X146452772Y-103389449D01*
X146528173Y-103366576D01*
X146685000Y-103351130D01*
X146841826Y-103366576D01*
X146841826Y-103366576D01*
G37*
G36*
X151312649Y-102712717D02*
X151351827Y-102716576D01*
X151427227Y-102739448D01*
X151502629Y-102762321D01*
X151641608Y-102836608D01*
X151763422Y-102936578D01*
X151863392Y-103058392D01*
X151937679Y-103197371D01*
X151937679Y-103197372D01*
X151983424Y-103348173D01*
X151989742Y-103412321D01*
X151998870Y-103505000D01*
X151983424Y-103661826D01*
X151937679Y-103812629D01*
X151863392Y-103951608D01*
X151763422Y-104073422D01*
X151641608Y-104173392D01*
X151502629Y-104247679D01*
X151427227Y-104270552D01*
X151351827Y-104293424D01*
X151312649Y-104297283D01*
X151234295Y-104305000D01*
X149755705Y-104305000D01*
X149677351Y-104297283D01*
X149638173Y-104293424D01*
X149562773Y-104270552D01*
X149487371Y-104247679D01*
X149348392Y-104173392D01*
X149226578Y-104073422D01*
X149126608Y-103951608D01*
X149052321Y-103812629D01*
X149006576Y-103661826D01*
X148991130Y-103505000D01*
X149000258Y-103412321D01*
X149006576Y-103348173D01*
X149052321Y-103197372D01*
X149052321Y-103197371D01*
X149126608Y-103058392D01*
X149226578Y-102936578D01*
X149348392Y-102836608D01*
X149487371Y-102762321D01*
X149562773Y-102739448D01*
X149638173Y-102716576D01*
X149677351Y-102712717D01*
X149755705Y-102705000D01*
X151234295Y-102705000D01*
X151312649Y-102712717D01*
X151312649Y-102712717D01*
G37*
G36*
X158932649Y-102712717D02*
X158971827Y-102716576D01*
X159047227Y-102739448D01*
X159122629Y-102762321D01*
X159261608Y-102836608D01*
X159383422Y-102936578D01*
X159483392Y-103058392D01*
X159557679Y-103197371D01*
X159557679Y-103197372D01*
X159603424Y-103348173D01*
X159609742Y-103412321D01*
X159618870Y-103505000D01*
X159603424Y-103661826D01*
X159557679Y-103812629D01*
X159483392Y-103951608D01*
X159383422Y-104073422D01*
X159261608Y-104173392D01*
X159122629Y-104247679D01*
X159047227Y-104270552D01*
X158971827Y-104293424D01*
X158932649Y-104297283D01*
X158854295Y-104305000D01*
X157375705Y-104305000D01*
X157297351Y-104297283D01*
X157258173Y-104293424D01*
X157182773Y-104270552D01*
X157107371Y-104247679D01*
X156968392Y-104173392D01*
X156846578Y-104073422D01*
X156746608Y-103951608D01*
X156672321Y-103812629D01*
X156626576Y-103661826D01*
X156611130Y-103505000D01*
X156620258Y-103412321D01*
X156626576Y-103348173D01*
X156672321Y-103197372D01*
X156672321Y-103197371D01*
X156746608Y-103058392D01*
X156846578Y-102936578D01*
X156968392Y-102836608D01*
X157107371Y-102762321D01*
X157182773Y-102739448D01*
X157258173Y-102716576D01*
X157297351Y-102712717D01*
X157375705Y-102705000D01*
X158854295Y-102705000D01*
X158932649Y-102712717D01*
X158932649Y-102712717D01*
G37*
G36*
X172146030Y-100614469D02*
X172146033Y-100614470D01*
X172146034Y-100614470D01*
X172334535Y-100671651D01*
X172334537Y-100671652D01*
X172508260Y-100764509D01*
X172660528Y-100889472D01*
X172785491Y-101041740D01*
X172878348Y-101215463D01*
X172935531Y-101403970D01*
X172954838Y-101600000D01*
X172935531Y-101796030D01*
X172935530Y-101796033D01*
X172935530Y-101796034D01*
X172906229Y-101892628D01*
X172878348Y-101984537D01*
X172785491Y-102158260D01*
X172660528Y-102310528D01*
X172508260Y-102435491D01*
X172508258Y-102435492D01*
X172334535Y-102528349D01*
X172146034Y-102585530D01*
X172146033Y-102585530D01*
X172146030Y-102585531D01*
X171999124Y-102600000D01*
X170900876Y-102600000D01*
X170753970Y-102585531D01*
X170753967Y-102585530D01*
X170753966Y-102585530D01*
X170565465Y-102528349D01*
X170391742Y-102435492D01*
X170391740Y-102435491D01*
X170239472Y-102310528D01*
X170114509Y-102158260D01*
X170021652Y-101984537D01*
X169993772Y-101892628D01*
X169964470Y-101796034D01*
X169964470Y-101796033D01*
X169964469Y-101796030D01*
X169945162Y-101600000D01*
X169964469Y-101403970D01*
X170021652Y-101215463D01*
X170114509Y-101041740D01*
X170239472Y-100889472D01*
X170391740Y-100764509D01*
X170565463Y-100671652D01*
X170565465Y-100671651D01*
X170753966Y-100614470D01*
X170753967Y-100614470D01*
X170753970Y-100614469D01*
X170900876Y-100600000D01*
X171999124Y-100600000D01*
X172146030Y-100614469D01*
X172146030Y-100614469D01*
G37*
G36*
X164526030Y-100614469D02*
X164526033Y-100614470D01*
X164526034Y-100614470D01*
X164714535Y-100671651D01*
X164714537Y-100671652D01*
X164888260Y-100764509D01*
X165040528Y-100889472D01*
X165165491Y-101041740D01*
X165258348Y-101215463D01*
X165315531Y-101403970D01*
X165334838Y-101600000D01*
X165315531Y-101796030D01*
X165315530Y-101796033D01*
X165315530Y-101796034D01*
X165286229Y-101892628D01*
X165258348Y-101984537D01*
X165165491Y-102158260D01*
X165040528Y-102310528D01*
X164888260Y-102435491D01*
X164888258Y-102435492D01*
X164714535Y-102528349D01*
X164526034Y-102585530D01*
X164526033Y-102585530D01*
X164526030Y-102585531D01*
X164379124Y-102600000D01*
X163280876Y-102600000D01*
X163133970Y-102585531D01*
X163133967Y-102585530D01*
X163133966Y-102585530D01*
X162945465Y-102528349D01*
X162771742Y-102435492D01*
X162771740Y-102435491D01*
X162619472Y-102310528D01*
X162494509Y-102158260D01*
X162401652Y-101984537D01*
X162373772Y-101892628D01*
X162344470Y-101796034D01*
X162344470Y-101796033D01*
X162344469Y-101796030D01*
X162325162Y-101600000D01*
X162344469Y-101403970D01*
X162401652Y-101215463D01*
X162494509Y-101041740D01*
X162619472Y-100889472D01*
X162771740Y-100764509D01*
X162945463Y-100671652D01*
X162945465Y-100671651D01*
X163133966Y-100614470D01*
X163133967Y-100614470D01*
X163133970Y-100614469D01*
X163280876Y-100600000D01*
X164379124Y-100600000D01*
X164526030Y-100614469D01*
X164526030Y-100614469D01*
G37*
G36*
X146841827Y-99396576D02*
X146917227Y-99419448D01*
X146992629Y-99442321D01*
X147131608Y-99516608D01*
X147253422Y-99616578D01*
X147353392Y-99738392D01*
X147427679Y-99877371D01*
X147427679Y-99877372D01*
X147473424Y-100028173D01*
X147485000Y-100145707D01*
X147485000Y-101624293D01*
X147473424Y-101741827D01*
X147456982Y-101796030D01*
X147427679Y-101892629D01*
X147353392Y-102031608D01*
X147253425Y-102153419D01*
X147253423Y-102153420D01*
X147253422Y-102153422D01*
X147162059Y-102228400D01*
X147131604Y-102253394D01*
X146992628Y-102327679D01*
X146917226Y-102350552D01*
X146841826Y-102373424D01*
X146685000Y-102388870D01*
X146528173Y-102373424D01*
X146452773Y-102350552D01*
X146377371Y-102327679D01*
X146238392Y-102253392D01*
X146116581Y-102153425D01*
X146116580Y-102153423D01*
X146116578Y-102153422D01*
X146016607Y-102031605D01*
X145942322Y-101892629D01*
X145942321Y-101892628D01*
X145900094Y-101753424D01*
X145896576Y-101741826D01*
X145885000Y-101624292D01*
X145885001Y-100145707D01*
X145896577Y-100028173D01*
X145942322Y-99877372D01*
X145942322Y-99877371D01*
X146016609Y-99738392D01*
X146116579Y-99616578D01*
X146238393Y-99516608D01*
X146377372Y-99442321D01*
X146452774Y-99419448D01*
X146528174Y-99396576D01*
X146685000Y-99381130D01*
X146841827Y-99396576D01*
X146841827Y-99396576D01*
G37*
G36*
X151312649Y-100172717D02*
X151351827Y-100176576D01*
X151427228Y-100199449D01*
X151502629Y-100222321D01*
X151641608Y-100296608D01*
X151763422Y-100396578D01*
X151863392Y-100518392D01*
X151937679Y-100657371D01*
X151983424Y-100808174D01*
X151998870Y-100965000D01*
X151983424Y-101121826D01*
X151937679Y-101272629D01*
X151863392Y-101411608D01*
X151763422Y-101533422D01*
X151641608Y-101633392D01*
X151502629Y-101707679D01*
X151427228Y-101730551D01*
X151351827Y-101753424D01*
X151312649Y-101757283D01*
X151234295Y-101765000D01*
X149755705Y-101765000D01*
X149677351Y-101757283D01*
X149638173Y-101753424D01*
X149562772Y-101730551D01*
X149487371Y-101707679D01*
X149348392Y-101633392D01*
X149226578Y-101533422D01*
X149126608Y-101411608D01*
X149052321Y-101272629D01*
X149006576Y-101121826D01*
X148991130Y-100965000D01*
X149006576Y-100808174D01*
X149052321Y-100657371D01*
X149126608Y-100518392D01*
X149226578Y-100396578D01*
X149348392Y-100296608D01*
X149487371Y-100222321D01*
X149562772Y-100199449D01*
X149638173Y-100176576D01*
X149677351Y-100172717D01*
X149755705Y-100165000D01*
X151234295Y-100165000D01*
X151312649Y-100172717D01*
X151312649Y-100172717D01*
G37*
G36*
X158932649Y-100172717D02*
X158971827Y-100176576D01*
X159047228Y-100199449D01*
X159122629Y-100222321D01*
X159261608Y-100296608D01*
X159383422Y-100396578D01*
X159483392Y-100518392D01*
X159557679Y-100657371D01*
X159603424Y-100808174D01*
X159618870Y-100965000D01*
X159603424Y-101121826D01*
X159557679Y-101272629D01*
X159483392Y-101411608D01*
X159383422Y-101533422D01*
X159261608Y-101633392D01*
X159122629Y-101707679D01*
X159047228Y-101730551D01*
X158971827Y-101753424D01*
X158932649Y-101757283D01*
X158854295Y-101765000D01*
X157375705Y-101765000D01*
X157297351Y-101757283D01*
X157258173Y-101753424D01*
X157182772Y-101730551D01*
X157107371Y-101707679D01*
X156968392Y-101633392D01*
X156846578Y-101533422D01*
X156746608Y-101411608D01*
X156672321Y-101272629D01*
X156626576Y-101121826D01*
X156611130Y-100965000D01*
X156626576Y-100808174D01*
X156672321Y-100657371D01*
X156746608Y-100518392D01*
X156846578Y-100396578D01*
X156968392Y-100296608D01*
X157107371Y-100222321D01*
X157182772Y-100199449D01*
X157258173Y-100176576D01*
X157297351Y-100172717D01*
X157375705Y-100165000D01*
X158854295Y-100165000D01*
X158932649Y-100172717D01*
X158932649Y-100172717D01*
G37*
G36*
X139775000Y-100685000D02*
X135815000Y-100685000D01*
X135815000Y-98705000D01*
X139775000Y-98705000D01*
X139775000Y-100685000D01*
X139775000Y-100685000D01*
G37*
G36*
X151312649Y-97632717D02*
X151351827Y-97636576D01*
X151427227Y-97659448D01*
X151502629Y-97682321D01*
X151641608Y-97756608D01*
X151763422Y-97856578D01*
X151863392Y-97978392D01*
X151937679Y-98117371D01*
X151983424Y-98268174D01*
X151998870Y-98425000D01*
X151983424Y-98581826D01*
X151937679Y-98732629D01*
X151863392Y-98871608D01*
X151763422Y-98993422D01*
X151641608Y-99093392D01*
X151502629Y-99167679D01*
X151427227Y-99190552D01*
X151351827Y-99213424D01*
X151312649Y-99217283D01*
X151234295Y-99225000D01*
X149755705Y-99225000D01*
X149677351Y-99217283D01*
X149638173Y-99213424D01*
X149562773Y-99190552D01*
X149487371Y-99167679D01*
X149348392Y-99093392D01*
X149226578Y-98993422D01*
X149126608Y-98871608D01*
X149052321Y-98732629D01*
X149006576Y-98581826D01*
X148991130Y-98425000D01*
X149006576Y-98268174D01*
X149052321Y-98117371D01*
X149126608Y-97978392D01*
X149226578Y-97856578D01*
X149348392Y-97756608D01*
X149487371Y-97682321D01*
X149562773Y-97659448D01*
X149638173Y-97636576D01*
X149677351Y-97632717D01*
X149755705Y-97625000D01*
X151234295Y-97625000D01*
X151312649Y-97632717D01*
X151312649Y-97632717D01*
G37*
G36*
X158932649Y-97632717D02*
X158971827Y-97636576D01*
X159047227Y-97659448D01*
X159122629Y-97682321D01*
X159261608Y-97756608D01*
X159383422Y-97856578D01*
X159483392Y-97978392D01*
X159557679Y-98117371D01*
X159603424Y-98268174D01*
X159618870Y-98425000D01*
X159603424Y-98581826D01*
X159557679Y-98732629D01*
X159483392Y-98871608D01*
X159383422Y-98993422D01*
X159261608Y-99093392D01*
X159122629Y-99167679D01*
X159047227Y-99190552D01*
X158971827Y-99213424D01*
X158932649Y-99217283D01*
X158854295Y-99225000D01*
X157375705Y-99225000D01*
X157297351Y-99217283D01*
X157258173Y-99213424D01*
X157182773Y-99190552D01*
X157107371Y-99167679D01*
X156968392Y-99093392D01*
X156846578Y-98993422D01*
X156746608Y-98871608D01*
X156672321Y-98732629D01*
X156626576Y-98581826D01*
X156611130Y-98425000D01*
X156626576Y-98268174D01*
X156672321Y-98117371D01*
X156746608Y-97978392D01*
X156846578Y-97856578D01*
X156968392Y-97756608D01*
X157107371Y-97682321D01*
X157182773Y-97659448D01*
X157258173Y-97636576D01*
X157297351Y-97632717D01*
X157375705Y-97625000D01*
X158854295Y-97625000D01*
X158932649Y-97632717D01*
X158932649Y-97632717D01*
G37*
G36*
X164526030Y-95534469D02*
X164526033Y-95534470D01*
X164526034Y-95534470D01*
X164714535Y-95591651D01*
X164714537Y-95591652D01*
X164888260Y-95684509D01*
X165040528Y-95809472D01*
X165165491Y-95961740D01*
X165258348Y-96135463D01*
X165315531Y-96323970D01*
X165334838Y-96520000D01*
X165315531Y-96716030D01*
X165315530Y-96716033D01*
X165315530Y-96716034D01*
X165261961Y-96892629D01*
X165258348Y-96904537D01*
X165165491Y-97078260D01*
X165040528Y-97230528D01*
X164888260Y-97355491D01*
X164888258Y-97355492D01*
X164714535Y-97448349D01*
X164526034Y-97505530D01*
X164526033Y-97505530D01*
X164526030Y-97505531D01*
X164379124Y-97520000D01*
X163280876Y-97520000D01*
X163133970Y-97505531D01*
X163133967Y-97505530D01*
X163133966Y-97505530D01*
X162945465Y-97448349D01*
X162771742Y-97355492D01*
X162771740Y-97355491D01*
X162619472Y-97230528D01*
X162494509Y-97078260D01*
X162401652Y-96904537D01*
X162398040Y-96892629D01*
X162344470Y-96716034D01*
X162344470Y-96716033D01*
X162344469Y-96716030D01*
X162325162Y-96520000D01*
X162344469Y-96323970D01*
X162401652Y-96135463D01*
X162494509Y-95961740D01*
X162619472Y-95809472D01*
X162771740Y-95684509D01*
X162945463Y-95591652D01*
X162945465Y-95591651D01*
X163133966Y-95534470D01*
X163133967Y-95534470D01*
X163133970Y-95534469D01*
X163280876Y-95520000D01*
X164379124Y-95520000D01*
X164526030Y-95534469D01*
X164526030Y-95534469D01*
G37*
G36*
X172146030Y-95534469D02*
X172146033Y-95534470D01*
X172146034Y-95534470D01*
X172334535Y-95591651D01*
X172334537Y-95591652D01*
X172508260Y-95684509D01*
X172660528Y-95809472D01*
X172785491Y-95961740D01*
X172878348Y-96135463D01*
X172935531Y-96323970D01*
X172954838Y-96520000D01*
X172935531Y-96716030D01*
X172935530Y-96716033D01*
X172935530Y-96716034D01*
X172881961Y-96892629D01*
X172878348Y-96904537D01*
X172785491Y-97078260D01*
X172660528Y-97230528D01*
X172508260Y-97355491D01*
X172508258Y-97355492D01*
X172334535Y-97448349D01*
X172146034Y-97505530D01*
X172146033Y-97505530D01*
X172146030Y-97505531D01*
X171999124Y-97520000D01*
X170900876Y-97520000D01*
X170753970Y-97505531D01*
X170753967Y-97505530D01*
X170753966Y-97505530D01*
X170565465Y-97448349D01*
X170391742Y-97355492D01*
X170391740Y-97355491D01*
X170239472Y-97230528D01*
X170114509Y-97078260D01*
X170021652Y-96904537D01*
X170018040Y-96892629D01*
X169964470Y-96716034D01*
X169964470Y-96716033D01*
X169964469Y-96716030D01*
X169945162Y-96520000D01*
X169964469Y-96323970D01*
X170021652Y-96135463D01*
X170114509Y-95961740D01*
X170239472Y-95809472D01*
X170391740Y-95684509D01*
X170565463Y-95591652D01*
X170565465Y-95591651D01*
X170753966Y-95534470D01*
X170753967Y-95534470D01*
X170753970Y-95534469D01*
X170900876Y-95520000D01*
X171999124Y-95520000D01*
X172146030Y-95534469D01*
X172146030Y-95534469D01*
G37*
G36*
X146841827Y-94396576D02*
X146917227Y-94419448D01*
X146992629Y-94442321D01*
X147131608Y-94516608D01*
X147253422Y-94616578D01*
X147353392Y-94738392D01*
X147427679Y-94877371D01*
X147473424Y-95028174D01*
X147485000Y-95145705D01*
X147485000Y-96624295D01*
X147473424Y-96741826D01*
X147427679Y-96892629D01*
X147353392Y-97031608D01*
X147253425Y-97153419D01*
X147253423Y-97153420D01*
X147253422Y-97153422D01*
X147253418Y-97153425D01*
X147131604Y-97253394D01*
X146992628Y-97327679D01*
X146917226Y-97350552D01*
X146841826Y-97373424D01*
X146685000Y-97388870D01*
X146528173Y-97373424D01*
X146452773Y-97350552D01*
X146377371Y-97327679D01*
X146238392Y-97253392D01*
X146116581Y-97153425D01*
X146116580Y-97153423D01*
X146116578Y-97153422D01*
X146016607Y-97031605D01*
X145948687Y-96904537D01*
X145942321Y-96892628D01*
X145919448Y-96817226D01*
X145896576Y-96741826D01*
X145889839Y-96673424D01*
X145885000Y-96624294D01*
X145885001Y-95145705D01*
X145896577Y-95028174D01*
X145942322Y-94877371D01*
X146016609Y-94738392D01*
X146116579Y-94616578D01*
X146238393Y-94516608D01*
X146377372Y-94442321D01*
X146452774Y-94419448D01*
X146528174Y-94396576D01*
X146685000Y-94381130D01*
X146841827Y-94396576D01*
X146841827Y-94396576D01*
G37*
G36*
X158932649Y-95092717D02*
X158971827Y-95096576D01*
X159047227Y-95119448D01*
X159122629Y-95142321D01*
X159261608Y-95216608D01*
X159383422Y-95316578D01*
X159483392Y-95438392D01*
X159557679Y-95577371D01*
X159562011Y-95591652D01*
X159590328Y-95685000D01*
X159603424Y-95728174D01*
X159618870Y-95885000D01*
X159603424Y-96041826D01*
X159557679Y-96192629D01*
X159483392Y-96331608D01*
X159383422Y-96453422D01*
X159261608Y-96553392D01*
X159122629Y-96627679D01*
X159047227Y-96650552D01*
X158971827Y-96673424D01*
X158932649Y-96677283D01*
X158854295Y-96685000D01*
X157375705Y-96685000D01*
X157297351Y-96677283D01*
X157258173Y-96673424D01*
X157182773Y-96650552D01*
X157107371Y-96627679D01*
X156968392Y-96553392D01*
X156846578Y-96453422D01*
X156746608Y-96331608D01*
X156672321Y-96192629D01*
X156626576Y-96041826D01*
X156611130Y-95885000D01*
X156626576Y-95728174D01*
X156639673Y-95685000D01*
X156667989Y-95591652D01*
X156672321Y-95577371D01*
X156746608Y-95438392D01*
X156846578Y-95316578D01*
X156968392Y-95216608D01*
X157107371Y-95142321D01*
X157182773Y-95119448D01*
X157258173Y-95096576D01*
X157297351Y-95092717D01*
X157375705Y-95085000D01*
X158854295Y-95085000D01*
X158932649Y-95092717D01*
X158932649Y-95092717D01*
G37*
G36*
X151312649Y-95092717D02*
X151351827Y-95096576D01*
X151427227Y-95119448D01*
X151502629Y-95142321D01*
X151641608Y-95216608D01*
X151763422Y-95316578D01*
X151863392Y-95438392D01*
X151937679Y-95577371D01*
X151942011Y-95591652D01*
X151970328Y-95685000D01*
X151983424Y-95728174D01*
X151998870Y-95885000D01*
X151983424Y-96041826D01*
X151937679Y-96192629D01*
X151863392Y-96331608D01*
X151763422Y-96453422D01*
X151641608Y-96553392D01*
X151502629Y-96627679D01*
X151427227Y-96650552D01*
X151351827Y-96673424D01*
X151312649Y-96677283D01*
X151234295Y-96685000D01*
X149755705Y-96685000D01*
X149677351Y-96677283D01*
X149638173Y-96673424D01*
X149562773Y-96650552D01*
X149487371Y-96627679D01*
X149348392Y-96553392D01*
X149226578Y-96453422D01*
X149126608Y-96331608D01*
X149052321Y-96192629D01*
X149006576Y-96041826D01*
X148991130Y-95885000D01*
X149006576Y-95728174D01*
X149019673Y-95685000D01*
X149047989Y-95591652D01*
X149052321Y-95577371D01*
X149126608Y-95438392D01*
X149226578Y-95316578D01*
X149348392Y-95216608D01*
X149487371Y-95142321D01*
X149562773Y-95119448D01*
X149638173Y-95096576D01*
X149677351Y-95092717D01*
X149755705Y-95085000D01*
X151234295Y-95085000D01*
X151312649Y-95092717D01*
X151312649Y-95092717D01*
G37*
G36*
X138979070Y-93719324D02*
X138979073Y-93719325D01*
X138979074Y-93719325D01*
X139165690Y-93775934D01*
X139337676Y-93867862D01*
X139488423Y-93991577D01*
X139612138Y-94142324D01*
X139704066Y-94314310D01*
X139729021Y-94396576D01*
X139760676Y-94500930D01*
X139779790Y-94695000D01*
X139760676Y-94889070D01*
X139760675Y-94889073D01*
X139760675Y-94889074D01*
X139704066Y-95075690D01*
X139612138Y-95247676D01*
X139488423Y-95398423D01*
X139337676Y-95522138D01*
X139165690Y-95614066D01*
X138979074Y-95670675D01*
X138979073Y-95670675D01*
X138979070Y-95670676D01*
X138833636Y-95685000D01*
X136756364Y-95685000D01*
X136610930Y-95670676D01*
X136610927Y-95670675D01*
X136610926Y-95670675D01*
X136424310Y-95614066D01*
X136252324Y-95522138D01*
X136101577Y-95398423D01*
X135977862Y-95247676D01*
X135885934Y-95075690D01*
X135829325Y-94889074D01*
X135829325Y-94889073D01*
X135829324Y-94889070D01*
X135810210Y-94695000D01*
X135829324Y-94500930D01*
X135860979Y-94396576D01*
X135885934Y-94314310D01*
X135977862Y-94142324D01*
X136101577Y-93991577D01*
X136252324Y-93867862D01*
X136424310Y-93775934D01*
X136610926Y-93719325D01*
X136610927Y-93719325D01*
X136610930Y-93719324D01*
X136756364Y-93705000D01*
X138833636Y-93705000D01*
X138979070Y-93719324D01*
X138979070Y-93719324D01*
G37*
G36*
X164526030Y-90454469D02*
X164526033Y-90454470D01*
X164526034Y-90454470D01*
X164714535Y-90511651D01*
X164714537Y-90511652D01*
X164888260Y-90604509D01*
X165040528Y-90729472D01*
X165165491Y-90881740D01*
X165165492Y-90881742D01*
X165258349Y-91055465D01*
X165315530Y-91243966D01*
X165315531Y-91243970D01*
X165334838Y-91440000D01*
X165315531Y-91636030D01*
X165258348Y-91824537D01*
X165165491Y-91998260D01*
X165040528Y-92150528D01*
X164888260Y-92275491D01*
X164714537Y-92368348D01*
X164714535Y-92368349D01*
X164526034Y-92425530D01*
X164526033Y-92425530D01*
X164526030Y-92425531D01*
X164379124Y-92440000D01*
X163280876Y-92440000D01*
X163133970Y-92425531D01*
X163133967Y-92425530D01*
X163133966Y-92425530D01*
X162945465Y-92368349D01*
X162945463Y-92368348D01*
X162771740Y-92275491D01*
X162619472Y-92150528D01*
X162494509Y-91998260D01*
X162401652Y-91824537D01*
X162344469Y-91636030D01*
X162325162Y-91440000D01*
X162344469Y-91243970D01*
X162344470Y-91243966D01*
X162401651Y-91055465D01*
X162494508Y-90881742D01*
X162494509Y-90881740D01*
X162619472Y-90729472D01*
X162771740Y-90604509D01*
X162945463Y-90511652D01*
X162945465Y-90511651D01*
X163133966Y-90454470D01*
X163133967Y-90454470D01*
X163133970Y-90454469D01*
X163280876Y-90440000D01*
X164379124Y-90440000D01*
X164526030Y-90454469D01*
X164526030Y-90454469D01*
G37*
G36*
X151191030Y-90454469D02*
X151191033Y-90454470D01*
X151191034Y-90454470D01*
X151379535Y-90511651D01*
X151379537Y-90511652D01*
X151553260Y-90604509D01*
X151705528Y-90729472D01*
X151830491Y-90881740D01*
X151830492Y-90881742D01*
X151923349Y-91055465D01*
X151980530Y-91243966D01*
X151980531Y-91243970D01*
X151999838Y-91440000D01*
X151980531Y-91636030D01*
X151923348Y-91824537D01*
X151830491Y-91998260D01*
X151705528Y-92150528D01*
X151553260Y-92275491D01*
X151379537Y-92368348D01*
X151379535Y-92368349D01*
X151191034Y-92425530D01*
X151191033Y-92425530D01*
X151191030Y-92425531D01*
X151044124Y-92440000D01*
X149945876Y-92440000D01*
X149798970Y-92425531D01*
X149798967Y-92425530D01*
X149798966Y-92425530D01*
X149610465Y-92368349D01*
X149610463Y-92368348D01*
X149436740Y-92275491D01*
X149284472Y-92150528D01*
X149159509Y-91998260D01*
X149066652Y-91824537D01*
X149009469Y-91636030D01*
X148990162Y-91440000D01*
X149009469Y-91243970D01*
X149009470Y-91243966D01*
X149066651Y-91055465D01*
X149159508Y-90881742D01*
X149159509Y-90881740D01*
X149284472Y-90729472D01*
X149436740Y-90604509D01*
X149610463Y-90511652D01*
X149610465Y-90511651D01*
X149798966Y-90454470D01*
X149798967Y-90454470D01*
X149798970Y-90454469D01*
X149945876Y-90440000D01*
X151044124Y-90440000D01*
X151191030Y-90454469D01*
X151191030Y-90454469D01*
G37*
G36*
X158811030Y-90454469D02*
X158811033Y-90454470D01*
X158811034Y-90454470D01*
X158999535Y-90511651D01*
X158999537Y-90511652D01*
X159173260Y-90604509D01*
X159325528Y-90729472D01*
X159450491Y-90881740D01*
X159450492Y-90881742D01*
X159543349Y-91055465D01*
X159600530Y-91243966D01*
X159600531Y-91243970D01*
X159619838Y-91440000D01*
X159600531Y-91636030D01*
X159543348Y-91824537D01*
X159450491Y-91998260D01*
X159325528Y-92150528D01*
X159173260Y-92275491D01*
X158999537Y-92368348D01*
X158999535Y-92368349D01*
X158811034Y-92425530D01*
X158811033Y-92425530D01*
X158811030Y-92425531D01*
X158664124Y-92440000D01*
X157565876Y-92440000D01*
X157418970Y-92425531D01*
X157418967Y-92425530D01*
X157418966Y-92425530D01*
X157230465Y-92368349D01*
X157230463Y-92368348D01*
X157056740Y-92275491D01*
X156904472Y-92150528D01*
X156779509Y-91998260D01*
X156686652Y-91824537D01*
X156629469Y-91636030D01*
X156610162Y-91440000D01*
X156629469Y-91243970D01*
X156629470Y-91243966D01*
X156686651Y-91055465D01*
X156779508Y-90881742D01*
X156779509Y-90881740D01*
X156904472Y-90729472D01*
X157056740Y-90604509D01*
X157230463Y-90511652D01*
X157230465Y-90511651D01*
X157418966Y-90454470D01*
X157418967Y-90454470D01*
X157418970Y-90454469D01*
X157565876Y-90440000D01*
X158664124Y-90440000D01*
X158811030Y-90454469D01*
X158811030Y-90454469D01*
G37*
G36*
X172146030Y-90454469D02*
X172146033Y-90454470D01*
X172146034Y-90454470D01*
X172334535Y-90511651D01*
X172334537Y-90511652D01*
X172508260Y-90604509D01*
X172660528Y-90729472D01*
X172785491Y-90881740D01*
X172785492Y-90881742D01*
X172878349Y-91055465D01*
X172935530Y-91243966D01*
X172935531Y-91243970D01*
X172954838Y-91440000D01*
X172935531Y-91636030D01*
X172878348Y-91824537D01*
X172785491Y-91998260D01*
X172660528Y-92150528D01*
X172508260Y-92275491D01*
X172334537Y-92368348D01*
X172334535Y-92368349D01*
X172146034Y-92425530D01*
X172146033Y-92425530D01*
X172146030Y-92425531D01*
X171999124Y-92440000D01*
X170900876Y-92440000D01*
X170753970Y-92425531D01*
X170753967Y-92425530D01*
X170753966Y-92425530D01*
X170565465Y-92368349D01*
X170565463Y-92368348D01*
X170391740Y-92275491D01*
X170239472Y-92150528D01*
X170114509Y-91998260D01*
X170021652Y-91824537D01*
X169964469Y-91636030D01*
X169945162Y-91440000D01*
X169964469Y-91243970D01*
X169964470Y-91243966D01*
X170021651Y-91055465D01*
X170114508Y-90881742D01*
X170114509Y-90881740D01*
X170239472Y-90729472D01*
X170391740Y-90604509D01*
X170565463Y-90511652D01*
X170565465Y-90511651D01*
X170753966Y-90454470D01*
X170753967Y-90454470D01*
X170753970Y-90454469D01*
X170900876Y-90440000D01*
X171999124Y-90440000D01*
X172146030Y-90454469D01*
X172146030Y-90454469D01*
G37*
G36*
X191475935Y-89343429D02*
X191572534Y-89362644D01*
X191845517Y-89475717D01*
X192087920Y-89637687D01*
X192091197Y-89639876D01*
X192300124Y-89848803D01*
X192300126Y-89848806D01*
X192464283Y-90094483D01*
X192577356Y-90367466D01*
X192581813Y-90389872D01*
X192624507Y-90604508D01*
X192635000Y-90657263D01*
X192635000Y-90952737D01*
X192577356Y-91242534D01*
X192576761Y-91243970D01*
X192464284Y-91515515D01*
X192300124Y-91761197D01*
X192091197Y-91970124D01*
X192091194Y-91970126D01*
X191845517Y-92134283D01*
X191572534Y-92247356D01*
X191475935Y-92266571D01*
X191282739Y-92305000D01*
X190987261Y-92305000D01*
X190794065Y-92266571D01*
X190697466Y-92247356D01*
X190424483Y-92134283D01*
X190178806Y-91970126D01*
X190178803Y-91970124D01*
X189969876Y-91761197D01*
X189805716Y-91515515D01*
X189693239Y-91243970D01*
X189692644Y-91242534D01*
X189635000Y-90952737D01*
X189635000Y-90657263D01*
X189645494Y-90604508D01*
X189688187Y-90389872D01*
X189692644Y-90367466D01*
X189805717Y-90094483D01*
X189969874Y-89848806D01*
X189969876Y-89848803D01*
X190178803Y-89639876D01*
X190182080Y-89637687D01*
X190424483Y-89475717D01*
X190697466Y-89362644D01*
X190794065Y-89343429D01*
X190987261Y-89305000D01*
X191282739Y-89305000D01*
X191475935Y-89343429D01*
X191475935Y-89343429D01*
G37*
G36*
X177505935Y-89343429D02*
X177602534Y-89362644D01*
X177875517Y-89475717D01*
X178117920Y-89637687D01*
X178121197Y-89639876D01*
X178330124Y-89848803D01*
X178330126Y-89848806D01*
X178494283Y-90094483D01*
X178607356Y-90367466D01*
X178611813Y-90389872D01*
X178654507Y-90604508D01*
X178665000Y-90657263D01*
X178665000Y-90952737D01*
X178607356Y-91242534D01*
X178606761Y-91243970D01*
X178494284Y-91515515D01*
X178330124Y-91761197D01*
X178121197Y-91970124D01*
X178121194Y-91970126D01*
X177875517Y-92134283D01*
X177602534Y-92247356D01*
X177505935Y-92266571D01*
X177312739Y-92305000D01*
X177017261Y-92305000D01*
X176824065Y-92266571D01*
X176727466Y-92247356D01*
X176454483Y-92134283D01*
X176208806Y-91970126D01*
X176208803Y-91970124D01*
X175999876Y-91761197D01*
X175835716Y-91515515D01*
X175723239Y-91243970D01*
X175722644Y-91242534D01*
X175665000Y-90952737D01*
X175665000Y-90657263D01*
X175675494Y-90604508D01*
X175718187Y-90389872D01*
X175722644Y-90367466D01*
X175835717Y-90094483D01*
X175999874Y-89848806D01*
X175999876Y-89848803D01*
X176208803Y-89639876D01*
X176212080Y-89637687D01*
X176454483Y-89475717D01*
X176727466Y-89362644D01*
X176824065Y-89343429D01*
X177017261Y-89305000D01*
X177312739Y-89305000D01*
X177505935Y-89343429D01*
X177505935Y-89343429D01*
G37*
G36*
X137972224Y-87410128D02*
X138104175Y-87450155D01*
X138225781Y-87515155D01*
X138332370Y-87602630D01*
X138419845Y-87709219D01*
X138484845Y-87830825D01*
X138524872Y-87962776D01*
X138535000Y-88065610D01*
X138535000Y-89734390D01*
X138524872Y-89837224D01*
X138484845Y-89969175D01*
X138419845Y-90090781D01*
X138332369Y-90197370D01*
X138225780Y-90284845D01*
X138104174Y-90349845D01*
X137972223Y-90389872D01*
X137835000Y-90403387D01*
X137697776Y-90389872D01*
X137565825Y-90349845D01*
X137444219Y-90284845D01*
X137337630Y-90197369D01*
X137250155Y-90090780D01*
X137185155Y-89969174D01*
X137145128Y-89837223D01*
X137135000Y-89734389D01*
X137135001Y-88065610D01*
X137145129Y-87962776D01*
X137185156Y-87830825D01*
X137250156Y-87709219D01*
X137337631Y-87602630D01*
X137444220Y-87515155D01*
X137565826Y-87450155D01*
X137697777Y-87410128D01*
X137835000Y-87396613D01*
X137972224Y-87410128D01*
X137972224Y-87410128D01*
G37*
G36*
X140472224Y-87410128D02*
X140604175Y-87450155D01*
X140725781Y-87515155D01*
X140832370Y-87602630D01*
X140919845Y-87709219D01*
X140984845Y-87830825D01*
X141024872Y-87962776D01*
X141035000Y-88065610D01*
X141035000Y-89734390D01*
X141024872Y-89837224D01*
X140984845Y-89969175D01*
X140919845Y-90090781D01*
X140832369Y-90197370D01*
X140725780Y-90284845D01*
X140604174Y-90349845D01*
X140472223Y-90389872D01*
X140335000Y-90403387D01*
X140197776Y-90389872D01*
X140065825Y-90349845D01*
X139944219Y-90284845D01*
X139837630Y-90197369D01*
X139750155Y-90090780D01*
X139685155Y-89969174D01*
X139645128Y-89837223D01*
X139635000Y-89734389D01*
X139635001Y-88065610D01*
X139645129Y-87962776D01*
X139685156Y-87830825D01*
X139750156Y-87709219D01*
X139837631Y-87602630D01*
X139944220Y-87515155D01*
X140065826Y-87450155D01*
X140197777Y-87410128D01*
X140335000Y-87396613D01*
X140472224Y-87410128D01*
X140472224Y-87410128D01*
G37*
G36*
X136035000Y-90400000D02*
X134635000Y-90400000D01*
X134635000Y-87400000D01*
X136035000Y-87400000D01*
X136035000Y-90400000D01*
X136035000Y-90400000D01*
G37*
G36*
X158811030Y-85374469D02*
X158811033Y-85374470D01*
X158811034Y-85374470D01*
X158999535Y-85431651D01*
X158999537Y-85431652D01*
X159173260Y-85524509D01*
X159325528Y-85649472D01*
X159450491Y-85801740D01*
X159543348Y-85975463D01*
X159600531Y-86163970D01*
X159619838Y-86360000D01*
X159600531Y-86556030D01*
X159600530Y-86556033D01*
X159600530Y-86556034D01*
X159566209Y-86669177D01*
X159543348Y-86744537D01*
X159450491Y-86918260D01*
X159325528Y-87070528D01*
X159173260Y-87195491D01*
X159173258Y-87195492D01*
X158999535Y-87288349D01*
X158811034Y-87345530D01*
X158811033Y-87345530D01*
X158811030Y-87345531D01*
X158664124Y-87360000D01*
X157565876Y-87360000D01*
X157418970Y-87345531D01*
X157418967Y-87345530D01*
X157418966Y-87345530D01*
X157230465Y-87288349D01*
X157056742Y-87195492D01*
X157056740Y-87195491D01*
X156904472Y-87070528D01*
X156779509Y-86918260D01*
X156686652Y-86744537D01*
X156663792Y-86669177D01*
X156629470Y-86556034D01*
X156629470Y-86556033D01*
X156629469Y-86556030D01*
X156610162Y-86360000D01*
X156629469Y-86163970D01*
X156686652Y-85975463D01*
X156779509Y-85801740D01*
X156904472Y-85649472D01*
X157056740Y-85524509D01*
X157230463Y-85431652D01*
X157230465Y-85431651D01*
X157418966Y-85374470D01*
X157418967Y-85374470D01*
X157418970Y-85374469D01*
X157565876Y-85360000D01*
X158664124Y-85360000D01*
X158811030Y-85374469D01*
X158811030Y-85374469D01*
G37*
G36*
X164526030Y-85374469D02*
X164526033Y-85374470D01*
X164526034Y-85374470D01*
X164714535Y-85431651D01*
X164714537Y-85431652D01*
X164888260Y-85524509D01*
X165040528Y-85649472D01*
X165165491Y-85801740D01*
X165258348Y-85975463D01*
X165315531Y-86163970D01*
X165334838Y-86360000D01*
X165315531Y-86556030D01*
X165315530Y-86556033D01*
X165315530Y-86556034D01*
X165281209Y-86669177D01*
X165258348Y-86744537D01*
X165165491Y-86918260D01*
X165040528Y-87070528D01*
X164888260Y-87195491D01*
X164888258Y-87195492D01*
X164714535Y-87288349D01*
X164526034Y-87345530D01*
X164526033Y-87345530D01*
X164526030Y-87345531D01*
X164379124Y-87360000D01*
X163280876Y-87360000D01*
X163133970Y-87345531D01*
X163133967Y-87345530D01*
X163133966Y-87345530D01*
X162945465Y-87288349D01*
X162771742Y-87195492D01*
X162771740Y-87195491D01*
X162619472Y-87070528D01*
X162494509Y-86918260D01*
X162401652Y-86744537D01*
X162378792Y-86669177D01*
X162344470Y-86556034D01*
X162344470Y-86556033D01*
X162344469Y-86556030D01*
X162325162Y-86360000D01*
X162344469Y-86163970D01*
X162401652Y-85975463D01*
X162494509Y-85801740D01*
X162619472Y-85649472D01*
X162771740Y-85524509D01*
X162945463Y-85431652D01*
X162945465Y-85431651D01*
X163133966Y-85374470D01*
X163133967Y-85374470D01*
X163133970Y-85374469D01*
X163280876Y-85360000D01*
X164379124Y-85360000D01*
X164526030Y-85374469D01*
X164526030Y-85374469D01*
G37*
G36*
X172146030Y-85374469D02*
X172146033Y-85374470D01*
X172146034Y-85374470D01*
X172334535Y-85431651D01*
X172334537Y-85431652D01*
X172508260Y-85524509D01*
X172660528Y-85649472D01*
X172785491Y-85801740D01*
X172878348Y-85975463D01*
X172935531Y-86163970D01*
X172954838Y-86360000D01*
X172935531Y-86556030D01*
X172935530Y-86556033D01*
X172935530Y-86556034D01*
X172901209Y-86669177D01*
X172878348Y-86744537D01*
X172785491Y-86918260D01*
X172660528Y-87070528D01*
X172508260Y-87195491D01*
X172508258Y-87195492D01*
X172334535Y-87288349D01*
X172146034Y-87345530D01*
X172146033Y-87345530D01*
X172146030Y-87345531D01*
X171999124Y-87360000D01*
X170900876Y-87360000D01*
X170753970Y-87345531D01*
X170753967Y-87345530D01*
X170753966Y-87345530D01*
X170565465Y-87288349D01*
X170391742Y-87195492D01*
X170391740Y-87195491D01*
X170239472Y-87070528D01*
X170114509Y-86918260D01*
X170021652Y-86744537D01*
X169998792Y-86669177D01*
X169964470Y-86556034D01*
X169964470Y-86556033D01*
X169964469Y-86556030D01*
X169945162Y-86360000D01*
X169964469Y-86163970D01*
X170021652Y-85975463D01*
X170114509Y-85801740D01*
X170239472Y-85649472D01*
X170391740Y-85524509D01*
X170565463Y-85431652D01*
X170565465Y-85431651D01*
X170753966Y-85374470D01*
X170753967Y-85374470D01*
X170753970Y-85374469D01*
X170900876Y-85360000D01*
X171999124Y-85360000D01*
X172146030Y-85374469D01*
X172146030Y-85374469D01*
G37*
G36*
X151191030Y-85374469D02*
X151191033Y-85374470D01*
X151191034Y-85374470D01*
X151379535Y-85431651D01*
X151379537Y-85431652D01*
X151553260Y-85524509D01*
X151705528Y-85649472D01*
X151830491Y-85801740D01*
X151923348Y-85975463D01*
X151980531Y-86163970D01*
X151999838Y-86360000D01*
X151980531Y-86556030D01*
X151980530Y-86556033D01*
X151980530Y-86556034D01*
X151946209Y-86669177D01*
X151923348Y-86744537D01*
X151830491Y-86918260D01*
X151705528Y-87070528D01*
X151553260Y-87195491D01*
X151553258Y-87195492D01*
X151379535Y-87288349D01*
X151191034Y-87345530D01*
X151191033Y-87345530D01*
X151191030Y-87345531D01*
X151044124Y-87360000D01*
X149945876Y-87360000D01*
X149798970Y-87345531D01*
X149798967Y-87345530D01*
X149798966Y-87345530D01*
X149610465Y-87288349D01*
X149436742Y-87195492D01*
X149436740Y-87195491D01*
X149284472Y-87070528D01*
X149159509Y-86918260D01*
X149066652Y-86744537D01*
X149043792Y-86669177D01*
X149009470Y-86556034D01*
X149009470Y-86556033D01*
X149009469Y-86556030D01*
X148990162Y-86360000D01*
X149009469Y-86163970D01*
X149066652Y-85975463D01*
X149159509Y-85801740D01*
X149284472Y-85649472D01*
X149436740Y-85524509D01*
X149610463Y-85431652D01*
X149610465Y-85431651D01*
X149798966Y-85374470D01*
X149798967Y-85374470D01*
X149798970Y-85374469D01*
X149945876Y-85360000D01*
X151044124Y-85360000D01*
X151191030Y-85374469D01*
X151191030Y-85374469D01*
G37*
G36*
X140472224Y-84110128D02*
X140604175Y-84150155D01*
X140725781Y-84215155D01*
X140832370Y-84302630D01*
X140919845Y-84409219D01*
X140984845Y-84530825D01*
X141024872Y-84662776D01*
X141035000Y-84765610D01*
X141035000Y-86434390D01*
X141024872Y-86537224D01*
X140984845Y-86669175D01*
X140919845Y-86790781D01*
X140832369Y-86897370D01*
X140725780Y-86984845D01*
X140604174Y-87049845D01*
X140472223Y-87089872D01*
X140335000Y-87103387D01*
X140197776Y-87089872D01*
X140065825Y-87049845D01*
X139944219Y-86984845D01*
X139837630Y-86897369D01*
X139750155Y-86790780D01*
X139685155Y-86669174D01*
X139645128Y-86537223D01*
X139635000Y-86434389D01*
X139635001Y-84765610D01*
X139645129Y-84662776D01*
X139685156Y-84530825D01*
X139750156Y-84409219D01*
X139837631Y-84302630D01*
X139944220Y-84215155D01*
X140065826Y-84150155D01*
X140197777Y-84110128D01*
X140335000Y-84096613D01*
X140472224Y-84110128D01*
X140472224Y-84110128D01*
G37*
G36*
X137972224Y-84110128D02*
X138104175Y-84150155D01*
X138225781Y-84215155D01*
X138332370Y-84302630D01*
X138419845Y-84409219D01*
X138484845Y-84530825D01*
X138524872Y-84662776D01*
X138535000Y-84765610D01*
X138535000Y-86434390D01*
X138524872Y-86537224D01*
X138484845Y-86669175D01*
X138419845Y-86790781D01*
X138332369Y-86897370D01*
X138225780Y-86984845D01*
X138104174Y-87049845D01*
X137972223Y-87089872D01*
X137835000Y-87103387D01*
X137697776Y-87089872D01*
X137565825Y-87049845D01*
X137444219Y-86984845D01*
X137337630Y-86897369D01*
X137250155Y-86790780D01*
X137185155Y-86669174D01*
X137145128Y-86537223D01*
X137135000Y-86434389D01*
X137135001Y-84765610D01*
X137145129Y-84662776D01*
X137185156Y-84530825D01*
X137250156Y-84409219D01*
X137337631Y-84302630D01*
X137444220Y-84215155D01*
X137565826Y-84150155D01*
X137697777Y-84110128D01*
X137835000Y-84096613D01*
X137972224Y-84110128D01*
X137972224Y-84110128D01*
G37*
G36*
X135472224Y-84110128D02*
X135604175Y-84150155D01*
X135725781Y-84215155D01*
X135832370Y-84302630D01*
X135919845Y-84409219D01*
X135984845Y-84530825D01*
X136024872Y-84662776D01*
X136035000Y-84765610D01*
X136035000Y-86434390D01*
X136024872Y-86537224D01*
X135984845Y-86669175D01*
X135919845Y-86790781D01*
X135832369Y-86897370D01*
X135725780Y-86984845D01*
X135604174Y-87049845D01*
X135472223Y-87089872D01*
X135335000Y-87103387D01*
X135197776Y-87089872D01*
X135065825Y-87049845D01*
X134944219Y-86984845D01*
X134837630Y-86897369D01*
X134750155Y-86790780D01*
X134685155Y-86669174D01*
X134645128Y-86537223D01*
X134635000Y-86434389D01*
X134635001Y-84765610D01*
X134645129Y-84662776D01*
X134685156Y-84530825D01*
X134750156Y-84409219D01*
X134837631Y-84302630D01*
X134944220Y-84215155D01*
X135065826Y-84150155D01*
X135197777Y-84110128D01*
X135335000Y-84096613D01*
X135472224Y-84110128D01*
X135472224Y-84110128D01*
G37*
M02*
