G04 #@! TF.GenerationSoftware,KiCad,Pcbnew,(5.0.1)-4*
G04 #@! TF.CreationDate,2019-02-21T12:32:08-03:00*
G04 #@! TF.ProjectId,ponta-de-prova-logica-simplificada,706F6E74612D64652D70726F76612D6C,02*
G04 #@! TF.SameCoordinates,Original*
G04 #@! TF.FileFunction,Legend,Top*
G04 #@! TF.FilePolarity,Positive*
%FSLAX46Y46*%
G04 Gerber Fmt 4.6, Leading zero omitted, Abs format (unit mm)*
G04 Created by KiCad (PCBNEW (5.0.1)-4) date 21-02-2019 12:32:08*
%MOMM*%
%LPD*%
G01*
G04 APERTURE LIST*
%ADD10C,0.120000*%
%ADD11C,0.150000*%
G04 APERTURE END LIST*
D10*
G04 #@! TO.C,R3*
X157575000Y-87400000D02*
X157575000Y-87730000D01*
X157575000Y-87730000D02*
X151035000Y-87730000D01*
X151035000Y-87730000D02*
X151035000Y-87400000D01*
X157575000Y-85320000D02*
X157575000Y-84990000D01*
X157575000Y-84990000D02*
X151035000Y-84990000D01*
X151035000Y-84990000D02*
X151035000Y-85320000D01*
G04 #@! TO.C,U1*
X149055000Y-112515000D02*
X159555000Y-112515000D01*
X149055000Y-94495000D02*
X149055000Y-112515000D01*
X159555000Y-94495000D02*
X149055000Y-94495000D01*
X159555000Y-112515000D02*
X159555000Y-94495000D01*
X152055000Y-112455000D02*
X153305000Y-112455000D01*
X152055000Y-94555000D02*
X152055000Y-112455000D01*
X156555000Y-94555000D02*
X152055000Y-94555000D01*
X156555000Y-112455000D02*
X156555000Y-94555000D01*
X155305000Y-112455000D02*
X156555000Y-112455000D01*
X153305000Y-112455000D02*
G75*
G02X155305000Y-112455000I1000000J0D01*
G01*
G04 #@! TO.C,C2*
X147740000Y-104735000D02*
X148055000Y-104735000D01*
X145315000Y-104735000D02*
X145630000Y-104735000D01*
X147740000Y-109975000D02*
X148055000Y-109975000D01*
X145315000Y-109975000D02*
X145630000Y-109975000D01*
X148055000Y-109975000D02*
X148055000Y-104735000D01*
X145315000Y-109975000D02*
X145315000Y-104735000D01*
G04 #@! TO.C,C1*
X148055000Y-95765000D02*
X148055000Y-101005000D01*
X145315000Y-95765000D02*
X145315000Y-101005000D01*
X148055000Y-95765000D02*
X147740000Y-95765000D01*
X145630000Y-95765000D02*
X145315000Y-95765000D01*
X148055000Y-101005000D02*
X147740000Y-101005000D01*
X145630000Y-101005000D02*
X145315000Y-101005000D01*
D11*
G04 #@! TO.C,PP1*
X173990000Y-106045000D02*
X194310000Y-106045000D01*
X194310000Y-106045000D02*
X194310000Y-95885000D01*
X194310000Y-95885000D02*
X173990000Y-95885000D01*
X173990000Y-95885000D02*
X173990000Y-106045000D01*
X175260000Y-106045000D02*
X175260000Y-116205000D01*
X175260000Y-116205000D02*
X179070000Y-116205000D01*
X179070000Y-116205000D02*
X179070000Y-106045000D01*
X189230000Y-106045000D02*
X189230000Y-116205000D01*
X193040000Y-116205000D02*
X193040000Y-106045000D01*
X189230000Y-116205000D02*
X193040000Y-116205000D01*
X179070000Y-95885000D02*
X179070000Y-85725000D01*
X175260000Y-85725000D02*
X175260000Y-95885000D01*
X179070000Y-85725000D02*
X175260000Y-85725000D01*
X193040000Y-95885000D02*
X193040000Y-85725000D01*
X189230000Y-85725000D02*
X189230000Y-95885000D01*
X193040000Y-85725000D02*
X189230000Y-85725000D01*
D10*
G04 #@! TO.C,R8*
X164370000Y-100560000D02*
X164370000Y-100230000D01*
X164370000Y-100230000D02*
X170910000Y-100230000D01*
X170910000Y-100230000D02*
X170910000Y-100560000D01*
X164370000Y-102640000D02*
X164370000Y-102970000D01*
X164370000Y-102970000D02*
X170910000Y-102970000D01*
X170910000Y-102970000D02*
X170910000Y-102640000D01*
G04 #@! TO.C,D1*
X135698608Y-117242335D02*
G75*
G03X135855516Y-114010000I-1078608J1672335D01*
G01*
X133541392Y-117242335D02*
G75*
G02X133384484Y-114010000I1078608J1672335D01*
G01*
X135699837Y-116611130D02*
G75*
G03X135700000Y-114529039I-1079837J1041130D01*
G01*
X133540163Y-116611130D02*
G75*
G02X133540000Y-114529039I1079837J1041130D01*
G01*
X135856000Y-114010000D02*
X135700000Y-114010000D01*
X133540000Y-114010000D02*
X133384000Y-114010000D01*
G04 #@! TO.C,D2*
X139890000Y-114010000D02*
X139734000Y-114010000D01*
X142206000Y-114010000D02*
X142050000Y-114010000D01*
X139890163Y-116611130D02*
G75*
G02X139890000Y-114529039I1079837J1041130D01*
G01*
X142049837Y-116611130D02*
G75*
G03X142050000Y-114529039I-1079837J1041130D01*
G01*
X139891392Y-117242335D02*
G75*
G02X139734484Y-114010000I1078608J1672335D01*
G01*
X142048608Y-117242335D02*
G75*
G03X142205516Y-114010000I-1078608J1672335D01*
G01*
G04 #@! TO.C,J1*
X131495000Y-102345000D02*
X144095000Y-102345000D01*
X144095000Y-102345000D02*
X144095000Y-91995000D01*
X144095000Y-91995000D02*
X143145000Y-91995000D01*
X143145000Y-91995000D02*
X143395000Y-91495000D01*
X143395000Y-91495000D02*
X141495000Y-91495000D01*
X141495000Y-91495000D02*
X141445000Y-91495000D01*
X141445000Y-91495000D02*
X141695000Y-91995000D01*
X141695000Y-91995000D02*
X136295000Y-91995000D01*
X136295000Y-91995000D02*
X136595000Y-91495000D01*
X136595000Y-91495000D02*
X131495000Y-91495000D01*
X131495000Y-91495000D02*
X131495000Y-102345000D01*
G04 #@! TO.C,R1*
X157575000Y-92810000D02*
X157575000Y-92480000D01*
X151035000Y-92810000D02*
X157575000Y-92810000D01*
X151035000Y-92480000D02*
X151035000Y-92810000D01*
X157575000Y-90070000D02*
X157575000Y-90400000D01*
X151035000Y-90070000D02*
X157575000Y-90070000D01*
X151035000Y-90400000D02*
X151035000Y-90070000D01*
G04 #@! TO.C,R2*
X170910000Y-97890000D02*
X170910000Y-97560000D01*
X164370000Y-97890000D02*
X170910000Y-97890000D01*
X164370000Y-97560000D02*
X164370000Y-97890000D01*
X170910000Y-95150000D02*
X170910000Y-95480000D01*
X164370000Y-95150000D02*
X170910000Y-95150000D01*
X164370000Y-95480000D02*
X164370000Y-95150000D01*
G04 #@! TO.C,R4*
X170910000Y-87730000D02*
X170910000Y-87400000D01*
X164370000Y-87730000D02*
X170910000Y-87730000D01*
X164370000Y-87400000D02*
X164370000Y-87730000D01*
X170910000Y-84990000D02*
X170910000Y-85320000D01*
X164370000Y-84990000D02*
X170910000Y-84990000D01*
X164370000Y-85320000D02*
X164370000Y-84990000D01*
G04 #@! TO.C,R5*
X164370000Y-90400000D02*
X164370000Y-90070000D01*
X164370000Y-90070000D02*
X170910000Y-90070000D01*
X170910000Y-90070000D02*
X170910000Y-90400000D01*
X164370000Y-92480000D02*
X164370000Y-92810000D01*
X164370000Y-92810000D02*
X170910000Y-92810000D01*
X170910000Y-92810000D02*
X170910000Y-92480000D01*
G04 #@! TO.C,R6*
X164370000Y-105640000D02*
X164370000Y-105310000D01*
X164370000Y-105310000D02*
X170910000Y-105310000D01*
X170910000Y-105310000D02*
X170910000Y-105640000D01*
X164370000Y-107720000D02*
X164370000Y-108050000D01*
X164370000Y-108050000D02*
X170910000Y-108050000D01*
X170910000Y-108050000D02*
X170910000Y-107720000D01*
G04 #@! TO.C,R7*
X164370000Y-115800000D02*
X164370000Y-115470000D01*
X164370000Y-115470000D02*
X170910000Y-115470000D01*
X170910000Y-115470000D02*
X170910000Y-115800000D01*
X164370000Y-117880000D02*
X164370000Y-118210000D01*
X164370000Y-118210000D02*
X170910000Y-118210000D01*
X170910000Y-118210000D02*
X170910000Y-117880000D01*
G04 #@! TO.C,R9*
X164370000Y-110390000D02*
X164370000Y-110720000D01*
X170910000Y-110390000D02*
X164370000Y-110390000D01*
X170910000Y-110720000D02*
X170910000Y-110390000D01*
X164370000Y-113130000D02*
X164370000Y-112800000D01*
X170910000Y-113130000D02*
X164370000Y-113130000D01*
X170910000Y-112800000D02*
X170910000Y-113130000D01*
G04 #@! TO.C,R10*
X157575000Y-117880000D02*
X157575000Y-118210000D01*
X157575000Y-118210000D02*
X151035000Y-118210000D01*
X151035000Y-118210000D02*
X151035000Y-117880000D01*
X157575000Y-115800000D02*
X157575000Y-115470000D01*
X157575000Y-115470000D02*
X151035000Y-115470000D01*
X151035000Y-115470000D02*
X151035000Y-115800000D01*
G04 #@! TO.C,R11*
X141065000Y-106780000D02*
X141065000Y-106450000D01*
X134525000Y-106780000D02*
X141065000Y-106780000D01*
X134525000Y-106450000D02*
X134525000Y-106780000D01*
X141065000Y-104040000D02*
X141065000Y-104370000D01*
X134525000Y-104040000D02*
X141065000Y-104040000D01*
X134525000Y-104370000D02*
X134525000Y-104040000D01*
G04 #@! TO.C,R12*
X141065000Y-111860000D02*
X141065000Y-111530000D01*
X134525000Y-111860000D02*
X141065000Y-111860000D01*
X134525000Y-111530000D02*
X134525000Y-111860000D01*
X141065000Y-109120000D02*
X141065000Y-109450000D01*
X134525000Y-109120000D02*
X141065000Y-109120000D01*
X134525000Y-109450000D02*
X134525000Y-109120000D01*
G04 #@! TO.C,TTL1*
X142735000Y-89650000D02*
X142735000Y-88450000D01*
X141535000Y-89650000D02*
X142735000Y-89650000D01*
X133235000Y-85150000D02*
X134435000Y-85150000D01*
X133235000Y-89350000D02*
X133235000Y-85150000D01*
X134435000Y-89350000D02*
X133235000Y-89350000D01*
X142435000Y-85150000D02*
X141235000Y-85150000D01*
X142435000Y-89350000D02*
X142435000Y-85150000D01*
X141235000Y-89350000D02*
X142435000Y-89350000D01*
G04 #@! TO.C,R3*
D11*
X154138333Y-84526380D02*
X153805000Y-84050190D01*
X153566904Y-84526380D02*
X153566904Y-83526380D01*
X153947857Y-83526380D01*
X154043095Y-83574000D01*
X154090714Y-83621619D01*
X154138333Y-83716857D01*
X154138333Y-83859714D01*
X154090714Y-83954952D01*
X154043095Y-84002571D01*
X153947857Y-84050190D01*
X153566904Y-84050190D01*
X154471666Y-83526380D02*
X155090714Y-83526380D01*
X154757380Y-83907333D01*
X154900238Y-83907333D01*
X154995476Y-83954952D01*
X155043095Y-84002571D01*
X155090714Y-84097809D01*
X155090714Y-84335904D01*
X155043095Y-84431142D01*
X154995476Y-84478761D01*
X154900238Y-84526380D01*
X154614523Y-84526380D01*
X154519285Y-84478761D01*
X154471666Y-84431142D01*
G04 #@! TO.C,U1*
X157353095Y-112907380D02*
X157353095Y-113716904D01*
X157400714Y-113812142D01*
X157448333Y-113859761D01*
X157543571Y-113907380D01*
X157734047Y-113907380D01*
X157829285Y-113859761D01*
X157876904Y-113812142D01*
X157924523Y-113716904D01*
X157924523Y-112907380D01*
X158924523Y-113907380D02*
X158353095Y-113907380D01*
X158638809Y-113907380D02*
X158638809Y-112907380D01*
X158543571Y-113050238D01*
X158448333Y-113145476D01*
X158353095Y-113193095D01*
G04 #@! TO.C,C2*
X146391333Y-112879142D02*
X146343714Y-112926761D01*
X146200857Y-112974380D01*
X146105619Y-112974380D01*
X145962761Y-112926761D01*
X145867523Y-112831523D01*
X145819904Y-112736285D01*
X145772285Y-112545809D01*
X145772285Y-112402952D01*
X145819904Y-112212476D01*
X145867523Y-112117238D01*
X145962761Y-112022000D01*
X146105619Y-111974380D01*
X146200857Y-111974380D01*
X146343714Y-112022000D01*
X146391333Y-112069619D01*
X146772285Y-112069619D02*
X146819904Y-112022000D01*
X146915142Y-111974380D01*
X147153238Y-111974380D01*
X147248476Y-112022000D01*
X147296095Y-112069619D01*
X147343714Y-112164857D01*
X147343714Y-112260095D01*
X147296095Y-112402952D01*
X146724666Y-112974380D01*
X147343714Y-112974380D01*
G04 #@! TO.C,C1*
X146391333Y-93575142D02*
X146343714Y-93622761D01*
X146200857Y-93670380D01*
X146105619Y-93670380D01*
X145962761Y-93622761D01*
X145867523Y-93527523D01*
X145819904Y-93432285D01*
X145772285Y-93241809D01*
X145772285Y-93098952D01*
X145819904Y-92908476D01*
X145867523Y-92813238D01*
X145962761Y-92718000D01*
X146105619Y-92670380D01*
X146200857Y-92670380D01*
X146343714Y-92718000D01*
X146391333Y-92765619D01*
X147343714Y-93670380D02*
X146772285Y-93670380D01*
X147058000Y-93670380D02*
X147058000Y-92670380D01*
X146962761Y-92813238D01*
X146867523Y-92908476D01*
X146772285Y-92956095D01*
G04 #@! TO.C,PP1*
X182911904Y-101417380D02*
X182911904Y-100417380D01*
X183292857Y-100417380D01*
X183388095Y-100465000D01*
X183435714Y-100512619D01*
X183483333Y-100607857D01*
X183483333Y-100750714D01*
X183435714Y-100845952D01*
X183388095Y-100893571D01*
X183292857Y-100941190D01*
X182911904Y-100941190D01*
X183911904Y-101417380D02*
X183911904Y-100417380D01*
X184292857Y-100417380D01*
X184388095Y-100465000D01*
X184435714Y-100512619D01*
X184483333Y-100607857D01*
X184483333Y-100750714D01*
X184435714Y-100845952D01*
X184388095Y-100893571D01*
X184292857Y-100941190D01*
X183911904Y-100941190D01*
X185435714Y-101417380D02*
X184864285Y-101417380D01*
X185150000Y-101417380D02*
X185150000Y-100417380D01*
X185054761Y-100560238D01*
X184959523Y-100655476D01*
X184864285Y-100703095D01*
G04 #@! TO.C,R8*
X172045333Y-104338380D02*
X171712000Y-103862190D01*
X171473904Y-104338380D02*
X171473904Y-103338380D01*
X171854857Y-103338380D01*
X171950095Y-103386000D01*
X171997714Y-103433619D01*
X172045333Y-103528857D01*
X172045333Y-103671714D01*
X171997714Y-103766952D01*
X171950095Y-103814571D01*
X171854857Y-103862190D01*
X171473904Y-103862190D01*
X172616761Y-103766952D02*
X172521523Y-103719333D01*
X172473904Y-103671714D01*
X172426285Y-103576476D01*
X172426285Y-103528857D01*
X172473904Y-103433619D01*
X172521523Y-103386000D01*
X172616761Y-103338380D01*
X172807238Y-103338380D01*
X172902476Y-103386000D01*
X172950095Y-103433619D01*
X172997714Y-103528857D01*
X172997714Y-103576476D01*
X172950095Y-103671714D01*
X172902476Y-103719333D01*
X172807238Y-103766952D01*
X172616761Y-103766952D01*
X172521523Y-103814571D01*
X172473904Y-103862190D01*
X172426285Y-103957428D01*
X172426285Y-104147904D01*
X172473904Y-104243142D01*
X172521523Y-104290761D01*
X172616761Y-104338380D01*
X172807238Y-104338380D01*
X172902476Y-104290761D01*
X172950095Y-104243142D01*
X172997714Y-104147904D01*
X172997714Y-103957428D01*
X172950095Y-103862190D01*
X172902476Y-103814571D01*
X172807238Y-103766952D01*
G04 #@! TO.C,D1*
X136929904Y-117800380D02*
X136929904Y-116800380D01*
X137168000Y-116800380D01*
X137310857Y-116848000D01*
X137406095Y-116943238D01*
X137453714Y-117038476D01*
X137501333Y-117228952D01*
X137501333Y-117371809D01*
X137453714Y-117562285D01*
X137406095Y-117657523D01*
X137310857Y-117752761D01*
X137168000Y-117800380D01*
X136929904Y-117800380D01*
X138453714Y-117800380D02*
X137882285Y-117800380D01*
X138168000Y-117800380D02*
X138168000Y-116800380D01*
X138072761Y-116943238D01*
X137977523Y-117038476D01*
X137882285Y-117086095D01*
G04 #@! TO.C,D2*
X143191904Y-117800380D02*
X143191904Y-116800380D01*
X143430000Y-116800380D01*
X143572857Y-116848000D01*
X143668095Y-116943238D01*
X143715714Y-117038476D01*
X143763333Y-117228952D01*
X143763333Y-117371809D01*
X143715714Y-117562285D01*
X143668095Y-117657523D01*
X143572857Y-117752761D01*
X143430000Y-117800380D01*
X143191904Y-117800380D01*
X144144285Y-116895619D02*
X144191904Y-116848000D01*
X144287142Y-116800380D01*
X144525238Y-116800380D01*
X144620476Y-116848000D01*
X144668095Y-116895619D01*
X144715714Y-116990857D01*
X144715714Y-117086095D01*
X144668095Y-117228952D01*
X144096666Y-117800380D01*
X144715714Y-117800380D01*
G04 #@! TO.C,J1*
X144446666Y-90384380D02*
X144446666Y-91098666D01*
X144399047Y-91241523D01*
X144303809Y-91336761D01*
X144160952Y-91384380D01*
X144065714Y-91384380D01*
X145446666Y-91384380D02*
X144875238Y-91384380D01*
X145160952Y-91384380D02*
X145160952Y-90384380D01*
X145065714Y-90527238D01*
X144970476Y-90622476D01*
X144875238Y-90670095D01*
G04 #@! TO.C,J2*
X183816666Y-109942380D02*
X183816666Y-110656666D01*
X183769047Y-110799523D01*
X183673809Y-110894761D01*
X183530952Y-110942380D01*
X183435714Y-110942380D01*
X184245238Y-110037619D02*
X184292857Y-109990000D01*
X184388095Y-109942380D01*
X184626190Y-109942380D01*
X184721428Y-109990000D01*
X184769047Y-110037619D01*
X184816666Y-110132857D01*
X184816666Y-110228095D01*
X184769047Y-110370952D01*
X184197619Y-110942380D01*
X184816666Y-110942380D01*
G04 #@! TO.C,R1*
X147661333Y-90368380D02*
X147328000Y-89892190D01*
X147089904Y-90368380D02*
X147089904Y-89368380D01*
X147470857Y-89368380D01*
X147566095Y-89416000D01*
X147613714Y-89463619D01*
X147661333Y-89558857D01*
X147661333Y-89701714D01*
X147613714Y-89796952D01*
X147566095Y-89844571D01*
X147470857Y-89892190D01*
X147089904Y-89892190D01*
X148613714Y-90368380D02*
X148042285Y-90368380D01*
X148328000Y-90368380D02*
X148328000Y-89368380D01*
X148232761Y-89511238D01*
X148137523Y-89606476D01*
X148042285Y-89654095D01*
G04 #@! TO.C,R2*
X167473333Y-94602380D02*
X167140000Y-94126190D01*
X166901904Y-94602380D02*
X166901904Y-93602380D01*
X167282857Y-93602380D01*
X167378095Y-93650000D01*
X167425714Y-93697619D01*
X167473333Y-93792857D01*
X167473333Y-93935714D01*
X167425714Y-94030952D01*
X167378095Y-94078571D01*
X167282857Y-94126190D01*
X166901904Y-94126190D01*
X167854285Y-93697619D02*
X167901904Y-93650000D01*
X167997142Y-93602380D01*
X168235238Y-93602380D01*
X168330476Y-93650000D01*
X168378095Y-93697619D01*
X168425714Y-93792857D01*
X168425714Y-93888095D01*
X168378095Y-94030952D01*
X167806666Y-94602380D01*
X168425714Y-94602380D01*
G04 #@! TO.C,R4*
X167473333Y-84442380D02*
X167140000Y-83966190D01*
X166901904Y-84442380D02*
X166901904Y-83442380D01*
X167282857Y-83442380D01*
X167378095Y-83490000D01*
X167425714Y-83537619D01*
X167473333Y-83632857D01*
X167473333Y-83775714D01*
X167425714Y-83870952D01*
X167378095Y-83918571D01*
X167282857Y-83966190D01*
X166901904Y-83966190D01*
X168330476Y-83775714D02*
X168330476Y-84442380D01*
X168092380Y-83394761D02*
X167854285Y-84109047D01*
X168473333Y-84109047D01*
G04 #@! TO.C,R5*
X167473333Y-89522380D02*
X167140000Y-89046190D01*
X166901904Y-89522380D02*
X166901904Y-88522380D01*
X167282857Y-88522380D01*
X167378095Y-88570000D01*
X167425714Y-88617619D01*
X167473333Y-88712857D01*
X167473333Y-88855714D01*
X167425714Y-88950952D01*
X167378095Y-88998571D01*
X167282857Y-89046190D01*
X166901904Y-89046190D01*
X168378095Y-88522380D02*
X167901904Y-88522380D01*
X167854285Y-88998571D01*
X167901904Y-88950952D01*
X167997142Y-88903333D01*
X168235238Y-88903333D01*
X168330476Y-88950952D01*
X168378095Y-88998571D01*
X168425714Y-89093809D01*
X168425714Y-89331904D01*
X168378095Y-89427142D01*
X168330476Y-89474761D01*
X168235238Y-89522380D01*
X167997142Y-89522380D01*
X167901904Y-89474761D01*
X167854285Y-89427142D01*
G04 #@! TO.C,R6*
X167473333Y-104762380D02*
X167140000Y-104286190D01*
X166901904Y-104762380D02*
X166901904Y-103762380D01*
X167282857Y-103762380D01*
X167378095Y-103810000D01*
X167425714Y-103857619D01*
X167473333Y-103952857D01*
X167473333Y-104095714D01*
X167425714Y-104190952D01*
X167378095Y-104238571D01*
X167282857Y-104286190D01*
X166901904Y-104286190D01*
X168330476Y-103762380D02*
X168140000Y-103762380D01*
X168044761Y-103810000D01*
X167997142Y-103857619D01*
X167901904Y-104000476D01*
X167854285Y-104190952D01*
X167854285Y-104571904D01*
X167901904Y-104667142D01*
X167949523Y-104714761D01*
X168044761Y-104762380D01*
X168235238Y-104762380D01*
X168330476Y-104714761D01*
X168378095Y-104667142D01*
X168425714Y-104571904D01*
X168425714Y-104333809D01*
X168378095Y-104238571D01*
X168330476Y-104190952D01*
X168235238Y-104143333D01*
X168044761Y-104143333D01*
X167949523Y-104190952D01*
X167901904Y-104238571D01*
X167854285Y-104333809D01*
G04 #@! TO.C,R7*
X167473333Y-115006380D02*
X167140000Y-114530190D01*
X166901904Y-115006380D02*
X166901904Y-114006380D01*
X167282857Y-114006380D01*
X167378095Y-114054000D01*
X167425714Y-114101619D01*
X167473333Y-114196857D01*
X167473333Y-114339714D01*
X167425714Y-114434952D01*
X167378095Y-114482571D01*
X167282857Y-114530190D01*
X166901904Y-114530190D01*
X167806666Y-114006380D02*
X168473333Y-114006380D01*
X168044761Y-115006380D01*
G04 #@! TO.C,R9*
X167473333Y-109926380D02*
X167140000Y-109450190D01*
X166901904Y-109926380D02*
X166901904Y-108926380D01*
X167282857Y-108926380D01*
X167378095Y-108974000D01*
X167425714Y-109021619D01*
X167473333Y-109116857D01*
X167473333Y-109259714D01*
X167425714Y-109354952D01*
X167378095Y-109402571D01*
X167282857Y-109450190D01*
X166901904Y-109450190D01*
X167949523Y-109926380D02*
X168140000Y-109926380D01*
X168235238Y-109878761D01*
X168282857Y-109831142D01*
X168378095Y-109688285D01*
X168425714Y-109497809D01*
X168425714Y-109116857D01*
X168378095Y-109021619D01*
X168330476Y-108974000D01*
X168235238Y-108926380D01*
X168044761Y-108926380D01*
X167949523Y-108974000D01*
X167901904Y-109021619D01*
X167854285Y-109116857D01*
X167854285Y-109354952D01*
X167901904Y-109450190D01*
X167949523Y-109497809D01*
X168044761Y-109545428D01*
X168235238Y-109545428D01*
X168330476Y-109497809D01*
X168378095Y-109450190D01*
X168425714Y-109354952D01*
G04 #@! TO.C,R10*
X146677142Y-118816380D02*
X146343809Y-118340190D01*
X146105714Y-118816380D02*
X146105714Y-117816380D01*
X146486666Y-117816380D01*
X146581904Y-117864000D01*
X146629523Y-117911619D01*
X146677142Y-118006857D01*
X146677142Y-118149714D01*
X146629523Y-118244952D01*
X146581904Y-118292571D01*
X146486666Y-118340190D01*
X146105714Y-118340190D01*
X147629523Y-118816380D02*
X147058095Y-118816380D01*
X147343809Y-118816380D02*
X147343809Y-117816380D01*
X147248571Y-117959238D01*
X147153333Y-118054476D01*
X147058095Y-118102095D01*
X148248571Y-117816380D02*
X148343809Y-117816380D01*
X148439047Y-117864000D01*
X148486666Y-117911619D01*
X148534285Y-118006857D01*
X148581904Y-118197333D01*
X148581904Y-118435428D01*
X148534285Y-118625904D01*
X148486666Y-118721142D01*
X148439047Y-118768761D01*
X148343809Y-118816380D01*
X148248571Y-118816380D01*
X148153333Y-118768761D01*
X148105714Y-118721142D01*
X148058095Y-118625904D01*
X148010476Y-118435428D01*
X148010476Y-118197333D01*
X148058095Y-118006857D01*
X148105714Y-117911619D01*
X148153333Y-117864000D01*
X148248571Y-117816380D01*
G04 #@! TO.C,R11*
X132199142Y-107894380D02*
X131865809Y-107418190D01*
X131627714Y-107894380D02*
X131627714Y-106894380D01*
X132008666Y-106894380D01*
X132103904Y-106942000D01*
X132151523Y-106989619D01*
X132199142Y-107084857D01*
X132199142Y-107227714D01*
X132151523Y-107322952D01*
X132103904Y-107370571D01*
X132008666Y-107418190D01*
X131627714Y-107418190D01*
X133151523Y-107894380D02*
X132580095Y-107894380D01*
X132865809Y-107894380D02*
X132865809Y-106894380D01*
X132770571Y-107037238D01*
X132675333Y-107132476D01*
X132580095Y-107180095D01*
X134103904Y-107894380D02*
X133532476Y-107894380D01*
X133818190Y-107894380D02*
X133818190Y-106894380D01*
X133722952Y-107037238D01*
X133627714Y-107132476D01*
X133532476Y-107180095D01*
G04 #@! TO.C,R12*
X142359142Y-108910380D02*
X142025809Y-108434190D01*
X141787714Y-108910380D02*
X141787714Y-107910380D01*
X142168666Y-107910380D01*
X142263904Y-107958000D01*
X142311523Y-108005619D01*
X142359142Y-108100857D01*
X142359142Y-108243714D01*
X142311523Y-108338952D01*
X142263904Y-108386571D01*
X142168666Y-108434190D01*
X141787714Y-108434190D01*
X143311523Y-108910380D02*
X142740095Y-108910380D01*
X143025809Y-108910380D02*
X143025809Y-107910380D01*
X142930571Y-108053238D01*
X142835333Y-108148476D01*
X142740095Y-108196095D01*
X143692476Y-108005619D02*
X143740095Y-107958000D01*
X143835333Y-107910380D01*
X144073428Y-107910380D01*
X144168666Y-107958000D01*
X144216285Y-108005619D01*
X144263904Y-108100857D01*
X144263904Y-108196095D01*
X144216285Y-108338952D01*
X143644857Y-108910380D01*
X144263904Y-108910380D01*
G04 #@! TO.C,TTL1*
X143232380Y-84542380D02*
X143803809Y-84542380D01*
X143518095Y-85542380D02*
X143518095Y-84542380D01*
X143994285Y-84542380D02*
X144565714Y-84542380D01*
X144280000Y-85542380D02*
X144280000Y-84542380D01*
X145375238Y-85542380D02*
X144899047Y-85542380D01*
X144899047Y-84542380D01*
X146232380Y-85542380D02*
X145660952Y-85542380D01*
X145946666Y-85542380D02*
X145946666Y-84542380D01*
X145851428Y-84685238D01*
X145756190Y-84780476D01*
X145660952Y-84828095D01*
G04 #@! TD*
M02*
