<?xml version="1.0" standalone="no"?>
 <!DOCTYPE svg PUBLIC "-//W3C//DTD SVG 1.1//EN" 
 "http://www.w3.org/Graphics/SVG/1.1/DTD/svg11.dtd"> 
<svg xmlns="http://www.w3.org/2000/svg" version="1.1" 
    width="29.7002cm" height="21.0007cm" viewBox="0 0 116930 82680 ">
<title>SVG Picture created as ponta-de-prova-logica-simplificada-B.Cu.svg date 2019/03/21 10:11:39 </title>
  <desc>Picture generated by PCBNEW </desc>
<g style="fill:#000000; fill-opacity:1;stroke:#000000; stroke-opacity:1;
stroke-linecap:round; stroke-linejoin:round; "
 transform="translate(0 0) scale(1 1)">
</g>
<g style="fill:#000000; fill-opacity:0.0; 
stroke:#000000; stroke-width:-0.000393701; stroke-opacity:1; 
stroke-linecap:round; stroke-linejoin:round;">
</g>
<g style="fill:#000000; fill-opacity:1.0; 
stroke:#000000; stroke-width:39.3701; stroke-opacity:1; 
stroke-linecap:round; stroke-linejoin:round;">
<rect x="60958.3" y="3761.81" width="52459.8" height="42805.2" rx="0" />
</g>
<g style="fill:#FFFFFF; fill-opacity:1.0; 
stroke:#FFFFFF; stroke-width:39.3701; stroke-opacity:1; 
stroke-linecap:round; stroke-linejoin:round;">
</g>
<g style="fill:#FFFFFF; fill-opacity:0.0; 
stroke:#FFFFFF; stroke-width:39.3701; stroke-opacity:1; 
stroke-linecap:round; stroke-linejoin:round;">
</g>
<g style="fill:#FFFFFF; fill-opacity:0.0; 
stroke:#FFFFFF; stroke-width:78.7402; stroke-opacity:1; 
stroke-linecap:round; stroke-linejoin:round;">
<path d="M88458 12775
L88458 12906
" />
<path d="M88251 12962
L88251 12775
L88645 12775
L88645 12962
" />
<path d="M88645 13075
L88645 13300
" />
<path d="M88251 13187
L88645 13187
" />
<path d="M88458 13431
L88458 13562
" />
<path d="M88251 13618
L88251 13431
L88645 13431
L88645 13618
" />
<path d="M88251 13993
L88251 13768
" />
<path d="M88251 13881
L88645 13881
L88589 13843
L88551 13806
L88533 13768
" />
<path d="M88645 14237
L88645 14274
L88626 14312
L88608 14331
L88570 14349
L88495 14368
L88401 14368
L88326 14349
L88289 14331
L88270 14312
L88251 14274
L88251 14237
L88270 14199
L88289 14181
L88326 14162
L88401 14143
L88495 14143
L88570 14162
L88608 14181
L88626 14199
L88645 14237
" />
<path d="M88608 14518
L88626 14537
L88645 14574
L88645 14668
L88626 14706
L88608 14724
L88570 14743
L88533 14743
L88476 14724
L88251 14499
L88251 14743
" />
<path d="M87001 12934
L87189 12803
" />
<path d="M87001 12709
L87395 12709
L87395 12859
L87376 12896
L87358 12915
L87320 12934
L87264 12934
L87226 12915
L87208 12896
L87189 12859
L87189 12709
" />
<path d="M87020 13253
L87001 13215
L87001 13140
L87020 13103
L87058 13084
L87208 13084
L87245 13103
L87264 13140
L87264 13215
L87245 13253
L87208 13271
L87170 13271
L87133 13084
" />
<path d="M87264 13403
L87001 13496
L87264 13590
" />
<path d="M87039 13740
L87020 13759
L87001 13740
L87020 13721
L87039 13740
L87001 13740
" />
<path d="M87395 14303
L87395 14340
L87376 14378
L87358 14396
L87320 14415
L87245 14434
L87151 14434
L87076 14415
L87039 14396
L87020 14378
L87001 14340
L87001 14303
L87020 14265
L87039 14246
L87076 14228
L87151 14209
L87245 14209
L87320 14228
L87358 14246
L87376 14265
L87395 14303
" />
<path d="M87358 14584
L87376 14603
L87395 14640
L87395 14734
L87376 14771
L87358 14790
L87320 14809
L87283 14809
L87226 14790
L87001 14565
L87001 14809
" />
</g>
<g style="fill:#FFFFFF; fill-opacity:0.0; 
stroke:#FFFFFF; stroke-width:39.3701; stroke-opacity:1; 
stroke-linecap:round; stroke-linejoin:round;">
<path d="M110430 21500 A1000 1000 0.0 0 0 111430 20500 " />
<path d="M85930 20500 A1000 1000 0.0 0 0 86930 21500 " />
<path d="M86930 5750 A1000 1000 0.0 0 0 85930 6750 " />
<path d="M111430 6750 A1000 1000 0.0 0 0 110430 5750 " />
<path d="M110430 21500
L86930 21500
" />
<path d="M111430 6750
L111430 20500
" />
<path d="M86930 5750
L110430 5750
" />
<path d="M85930 20500
L85930 6750
" />
</g>
<g style="fill:#FFFFFF; fill-opacity:0.0; 
stroke:#FFFFFF; stroke-width:787.402; stroke-opacity:1; 
stroke-linecap:round; stroke-linejoin:round;">
<path d="M107180 7303
L107180 7696
" />
<path d="M108180 7303
L108180 7696
" />
<path d="M109180 7303
L109180 7696
" />
<path d="M109180 9553
L109180 9946
" />
<path d="M108180 9553
L108180 9946
" />
</g>
<g style="fill:#FFFFFF; fill-opacity:0.0; 
stroke:#FFFFFF; stroke-width:0; stroke-opacity:1; 
stroke-linecap:round; stroke-linejoin:round;">
</g>
<g style="fill:#FFFFFF; fill-opacity:1.0; 
stroke:#FFFFFF; stroke-width:0; stroke-opacity:1; 
stroke-linecap:round; stroke-linejoin:round;">
<polyline style="fill-rule:evenodd;"
points="107573,10340
107573,9159
106786,9159
106786,10340
107573,10340
" /> 
</g>
<g style="fill:#FFFFFF; fill-opacity:1.0; 
stroke:#FFFFFF; stroke-width:787.402; stroke-opacity:1; 
stroke-linecap:round; stroke-linejoin:round;">
</g>
<g style="fill:#FFFFFF; fill-opacity:0.0; 
stroke:#FFFFFF; stroke-width:787.402; stroke-opacity:1; 
stroke-linecap:round; stroke-linejoin:round;">
<path d="M106876 17750
L106483 17750
" />
<path d="M109876 17750
L109483 17750
" />
</g>
<g style="fill:#FFFFFF; fill-opacity:0.0; 
stroke:#FFFFFF; stroke-width:0; stroke-opacity:1; 
stroke-linecap:round; stroke-linejoin:round;">
</g>
<g style="fill:#FFFFFF; fill-opacity:1.0; 
stroke:#FFFFFF; stroke-width:0; stroke-opacity:1; 
stroke-linecap:round; stroke-linejoin:round;">
<polyline style="fill-rule:evenodd;"
points="109823,18856
109036,18856
109036,19643
109823,19643
109823,18856
" /> 
</g>
<g style="fill:#FFFFFF; fill-opacity:1.0; 
stroke:#FFFFFF; stroke-width:787.402; stroke-opacity:1; 
stroke-linecap:round; stroke-linejoin:round;">
</g>
<g style="fill:#FFFFFF; fill-opacity:0.0; 
stroke:#FFFFFF; stroke-width:787.402; stroke-opacity:1; 
stroke-linecap:round; stroke-linejoin:round;">
<path d="M109233 20250
L109626 20250
" />
<path d="M99983 8000
L100376 8000
" />
<path d="M102983 8000
L103376 8000
" />
</g>
<g style="fill:#FFFFFF; fill-opacity:0.0; 
stroke:#FFFFFF; stroke-width:629.921; stroke-opacity:1; 
stroke-linecap:round; stroke-linejoin:round;">
<path d="M102904 17750
L103455 17750
" />
<path d="M99904 11750
L100455 11750
" />
<path d="M102904 16750
L103455 16750
" />
<path d="M99904 12750
L100455 12750
" />
<path d="M102904 15750
L103455 15750
" />
<path d="M99904 13750
L100455 13750
" />
<path d="M102904 14750
L103455 14750
" />
<path d="M99904 14750
L100455 14750
" />
<path d="M102904 13750
L103455 13750
" />
<path d="M99904 15750
L100455 15750
" />
<path d="M102904 12750
L103455 12750
" />
<path d="M99904 16750
L100455 16750
" />
<path d="M102904 11750
L103455 11750
" />
</g>
<g style="fill:#FFFFFF; fill-opacity:0.0; 
stroke:#FFFFFF; stroke-width:0; stroke-opacity:1; 
stroke-linecap:round; stroke-linejoin:round;">
</g>
<g style="fill:#FFFFFF; fill-opacity:1.0; 
stroke:#FFFFFF; stroke-width:0; stroke-opacity:1; 
stroke-linecap:round; stroke-linejoin:round;">
<polyline style="fill-rule:evenodd;"
points="99589,17435
99589,18064
100770,18064
100770,17435
99589,17435
" /> 
</g>
<g style="fill:#FFFFFF; fill-opacity:1.0; 
stroke:#FFFFFF; stroke-width:629.921; stroke-opacity:1; 
stroke-linecap:round; stroke-linejoin:round;">
</g>
<g style="fill:#FFFFFF; fill-opacity:0.0; 
stroke:#FFFFFF; stroke-width:629.921; stroke-opacity:1; 
stroke-linecap:round; stroke-linejoin:round;">
<path d="M104680 15557
L104680 15005
" />
<path d="M104680 17525
L104680 16974
" />
<path d="M104680 11474
L104680 12025
" />
<path d="M104680 13442
L104680 13994
" />
</g>
<g style="fill:#FFFFFF; fill-opacity:1.0; 
stroke:#FFFFFF; stroke-width:0; stroke-opacity:1; 
stroke-linecap:round; stroke-linejoin:round;">
<circle cx="92680" cy="17750" r="590.551" /> 
</g>
<g style="fill:#FFFFFF; fill-opacity:1.0; 
stroke:#FFFFFF; stroke-width:39.3701; stroke-opacity:1; 
stroke-linecap:round; stroke-linejoin:round;">
</g>
<g style="fill:#FFFFFF; fill-opacity:1.0; 
stroke:#FFFFFF; stroke-width:0; stroke-opacity:1; 
stroke-linecap:round; stroke-linejoin:round;">
<circle cx="87180" cy="17750" r="590.551" /> 
</g>
<g style="fill:#FFFFFF; fill-opacity:1.0; 
stroke:#FFFFFF; stroke-width:39.3701; stroke-opacity:1; 
stroke-linecap:round; stroke-linejoin:round;">
</g>
<g style="fill:#FFFFFF; fill-opacity:1.0; 
stroke:#FFFFFF; stroke-width:0; stroke-opacity:1; 
stroke-linecap:round; stroke-linejoin:round;">
<circle cx="92680" cy="9750" r="590.551" /> 
</g>
<g style="fill:#FFFFFF; fill-opacity:1.0; 
stroke:#FFFFFF; stroke-width:39.3701; stroke-opacity:1; 
stroke-linecap:round; stroke-linejoin:round;">
</g>
<g style="fill:#FFFFFF; fill-opacity:1.0; 
stroke:#FFFFFF; stroke-width:0; stroke-opacity:1; 
stroke-linecap:round; stroke-linejoin:round;">
<circle cx="87180" cy="9750" r="590.551" /> 
</g>
<g style="fill:#FFFFFF; fill-opacity:1.0; 
stroke:#FFFFFF; stroke-width:39.3701; stroke-opacity:1; 
stroke-linecap:round; stroke-linejoin:round;">
</g>
<g style="fill:#FFFFFF; fill-opacity:1.0; 
stroke:#FFFFFF; stroke-width:787.402; stroke-opacity:1; 
stroke-linecap:round; stroke-linejoin:round;">
</g>
<g style="fill:#FFFFFF; fill-opacity:0.0; 
stroke:#FFFFFF; stroke-width:787.402; stroke-opacity:1; 
stroke-linecap:round; stroke-linejoin:round;">
<path d="M95126 14000
L94733 14000
" />
<path d="M98126 14000
L97733 14000
" />
<path d="M106733 20250
L107126 20250
" />
</g>
<g style="fill:#FFFFFF; fill-opacity:0.0; 
stroke:#FFFFFF; stroke-width:0; stroke-opacity:1; 
stroke-linecap:round; stroke-linejoin:round;">
</g>
<g style="fill:#FFFFFF; fill-opacity:1.0; 
stroke:#FFFFFF; stroke-width:0; stroke-opacity:1; 
stroke-linecap:round; stroke-linejoin:round;">
<polyline style="fill-rule:evenodd;"
points="107323,18856
106536,18856
106536,19643
107323,19643
107323,18856
" /> 
<polyline style="fill-rule:evenodd;"
points="107400,14389
108959,14389
108959,13610
107400,13610
107400,14389
" /> 
</g>
<g style="fill:#FFFFFF; fill-opacity:1.0; 
stroke:#FFFFFF; stroke-width:779.528; stroke-opacity:1; 
stroke-linecap:round; stroke-linejoin:round;">
</g>
<g style="fill:#FFFFFF; fill-opacity:0.0; 
stroke:#FFFFFF; stroke-width:779.528; stroke-opacity:1; 
stroke-linecap:round; stroke-linejoin:round;">
<path d="M108569 12031
L107790 12031
" />
</g>
<g style="fill:#FFFFFF; fill-opacity:1.0; 
stroke:#FFFFFF; stroke-width:0; stroke-opacity:1; 
stroke-linecap:round; stroke-linejoin:round;">
<circle cx="89930" cy="18250" r="393.5" /> 
</g>
<g style="fill:#FFFFFF; fill-opacity:1.0; 
stroke:#FFFFFF; stroke-width:39.3701; stroke-opacity:1; 
stroke-linecap:round; stroke-linejoin:round;">
</g>
<g style="fill:#FFFFFF; fill-opacity:1.0; 
stroke:#FFFFFF; stroke-width:787.402; stroke-opacity:1; 
stroke-linecap:round; stroke-linejoin:round;">
</g>
<g style="fill:#FFFFFF; fill-opacity:0.0; 
stroke:#FFFFFF; stroke-width:787.402; stroke-opacity:1; 
stroke-linecap:round; stroke-linejoin:round;">
<path d="M100376 10000
L99983 10000
" />
<path d="M103376 10000
L102983 10000
" />
<path d="M95126 12000
L94733 12000
" />
<path d="M98126 12000
L97733 12000
" />
<path d="M95126 8000
L94733 8000
" />
<path d="M98126 8000
L97733 8000
" />
<path d="M98126 10000
L97733 10000
" />
<path d="M95126 10000
L94733 10000
" />
<path d="M98126 16000
L97733 16000
" />
<path d="M95126 16000
L94733 16000
" />
<path d="M98126 20000
L97733 20000
" />
<path d="M95126 20000
L94733 20000
" />
<path d="M97733 18000
L98126 18000
" />
<path d="M94733 18000
L95126 18000
" />
<path d="M99983 20000
L100376 20000
" />
<path d="M102983 20000
L103376 20000
" />
<path d="M106876 16250
L106483 16250
" />
<path d="M109876 16250
L109483 16250
" />
</g>
<g style="fill:#FFFFFF; fill-opacity:1.0; 
stroke:#FFFFFF; stroke-width:0; stroke-opacity:1; 
stroke-linecap:round; stroke-linejoin:round;">
<circle cx="89930" cy="8000" r="393.701" /> 
</g>
<g style="fill:#FFFFFF; fill-opacity:1.0; 
stroke:#FFFFFF; stroke-width:39.3701; stroke-opacity:1; 
stroke-linecap:round; stroke-linejoin:round;">
</g>
<g style="fill:#FFFFFF; fill-opacity:1.0; 
stroke:#FFFFFF; stroke-width:0; stroke-opacity:1; 
stroke-linecap:round; stroke-linejoin:round;">
<circle cx="89930" cy="11000" r="393.701" /> 
</g>
<g style="fill:#FFFFFF; fill-opacity:1.0; 
stroke:#FFFFFF; stroke-width:39.3701; stroke-opacity:1; 
stroke-linecap:round; stroke-linejoin:round;">
</g>
<g style="fill:#FFFFFF; fill-opacity:1.0; 
stroke:#FFFFFF; stroke-width:0; stroke-opacity:1; 
stroke-linecap:round; stroke-linejoin:round;">
<circle cx="98930" cy="19000" r="393.701" /> 
</g>
<g style="fill:#FFFFFF; fill-opacity:1.0; 
stroke:#FFFFFF; stroke-width:39.3701; stroke-opacity:1; 
stroke-linecap:round; stroke-linejoin:round;">
</g>
<g style="fill:#FFFFFF; fill-opacity:1.0; 
stroke:#FFFFFF; stroke-width:0; stroke-opacity:1; 
stroke-linecap:round; stroke-linejoin:round;">
<circle cx="98930" cy="11000" r="393.701" /> 
</g>
<g style="fill:#FFFFFF; fill-opacity:1.0; 
stroke:#FFFFFF; stroke-width:39.3701; stroke-opacity:1; 
stroke-linecap:round; stroke-linejoin:round;">
</g>
<g style="fill:#FFFFFF; fill-opacity:1.0; 
stroke:#FFFFFF; stroke-width:0; stroke-opacity:1; 
stroke-linecap:round; stroke-linejoin:round;">
<circle cx="98930" cy="14500" r="393.701" /> 
</g>
<g style="fill:#FFFFFF; fill-opacity:1.0; 
stroke:#FFFFFF; stroke-width:39.3701; stroke-opacity:1; 
stroke-linecap:round; stroke-linejoin:round;">
</g>
<g style="fill:#FFFFFF; fill-opacity:1.0; 
stroke:#FFFFFF; stroke-width:0; stroke-opacity:1; 
stroke-linecap:round; stroke-linejoin:round;">
<circle cx="98930" cy="15500" r="393.701" /> 
</g>
<g style="fill:#FFFFFF; fill-opacity:1.0; 
stroke:#FFFFFF; stroke-width:39.3701; stroke-opacity:1; 
stroke-linecap:round; stroke-linejoin:round;">
</g>
<g style="fill:#FFFFFF; fill-opacity:1.0; 
stroke:#FFFFFF; stroke-width:0; stroke-opacity:1; 
stroke-linecap:round; stroke-linejoin:round;">
<circle cx="105830" cy="8800" r="393.701" /> 
</g>
<g style="fill:#FFFFFF; fill-opacity:1.0; 
stroke:#FFFFFF; stroke-width:39.3701; stroke-opacity:1; 
stroke-linecap:round; stroke-linejoin:round;">
</g>
<g style="fill:#FFFFFF; fill-opacity:1.0; 
stroke:#FFFFFF; stroke-width:0; stroke-opacity:1; 
stroke-linecap:round; stroke-linejoin:round;">
<circle cx="99230" cy="8800" r="393.701" /> 
</g>
<g style="fill:#FFFFFF; fill-opacity:1.0; 
stroke:#FFFFFF; stroke-width:39.3701; stroke-opacity:1; 
stroke-linecap:round; stroke-linejoin:round;">
</g>
<g style="fill:#FFFFFF; fill-opacity:1.0; 
stroke:#FFFFFF; stroke-width:0; stroke-opacity:1; 
stroke-linecap:round; stroke-linejoin:round;">
<circle cx="105430" cy="19000" r="393.701" /> 
</g>
<g style="fill:#FFFFFF; fill-opacity:1.0; 
stroke:#FFFFFF; stroke-width:39.3701; stroke-opacity:1; 
stroke-linecap:round; stroke-linejoin:round;">
</g>
<g style="fill:#FFFFFF; fill-opacity:1.0; 
stroke:#FFFFFF; stroke-width:0; stroke-opacity:1; 
stroke-linecap:round; stroke-linejoin:round;">
<circle cx="101680" cy="19000" r="393.701" /> 
</g>
<g style="fill:#FFFFFF; fill-opacity:1.0; 
stroke:#FFFFFF; stroke-width:39.3701; stroke-opacity:1; 
stroke-linecap:round; stroke-linejoin:round;">
</g>
<g style="fill:#FFFFFF; fill-opacity:1.0; 
stroke:#FFFFFF; stroke-width:98.4252; stroke-opacity:1; 
stroke-linecap:round; stroke-linejoin:round;">
</g>
<g style="fill:#FFFFFF; fill-opacity:0.0; 
stroke:#FFFFFF; stroke-width:98.4252; stroke-opacity:1; 
stroke-linecap:round; stroke-linejoin:round;">
<path d="M95430 18992
L95430 19007
" />
<path d="M97930 16492
L95430 18992
" />
<path d="M97930 16000
L97930 16492
" />
<path d="M95430 19007
L95437 19000
" />
<path d="M94930 19507
L94930 20000
" />
<path d="M95430 19007
L94930 19507
" />
<path d="M97930 15507
L97930 14000
" />
<path d="M97930 16000
L97930 15507
" />
<path d="M99491 13750
L100180 13750
" />
<path d="M98376 13750
L99491 13750
" />
<path d="M98126 14000
L98376 13750
" />
<path d="M97930 14000
L98126 14000
" />
<path d="M100180 13750
L100180 12750
" />
<path d="M100868 12750
L100180 12750
" />
<path d="M102680 11000
L100868 12750
" />
<path d="M103680 11000
L102680 11000
" />
<path d="M104680 11750
L104266 11750
" />
<path d="M104266 11750
L103680 11000
" />
<path d="M109922 19250
L109430 19250
" />
<path d="M110418 18753
L109922 19250
" />
<path d="M110418 16988
L110418 18753
" />
<path d="M109680 16250
L110418 16988
" />
<path d="M109483 17750
L107983 19250
" />
<path d="M109680 17750
L109483 17750
" />
<path d="M107983 19250
L106930 19250
" />
<path d="M98721 12000
L97930 12000
" />
<path d="M100180 10000
L100180 10541
" />
<path d="M100180 10541
L98721 12000
" />
<path d="M89930 7250
L89930 8000
" />
<path d="M90680 6750
L89930 7250
" />
<path d="M105680 6750
L90680 6750
" />
<path d="M109680 9750
L109930 9500
" />
<path d="M109180 9750
L109680 9750
" />
<path d="M109930 9500
L109930 7000
" />
<path d="M109930 7000
L109483 6553
" />
<path d="M109483 6553
L105876 6553
" />
<path d="M105876 6553
L105680 6750
" />
<path d="M97241 12000
L97930 12000
" />
<path d="M96241 13000
L97241 12000
" />
<path d="M91930 13000
L96241 13000
" />
<path d="M89930 11000
L91930 13000
" />
<path d="M97930 7250
L97930 8000
" />
<path d="M98180 7000
L97930 7250
" />
<path d="M101983 7000
L98180 7000
" />
<path d="M102983 8000
L101983 7000
" />
<path d="M103180 8000
L102983 8000
" />
<path d="M109180 7244
L109180 7500
" />
<path d="M108685 6750
L109180 7244
" />
<path d="M106368 6750
L108685 6750
" />
<path d="M105118 8000
L106368 6750
" />
<path d="M103180 8000
L105118 8000
" />
<path d="M96437 10000
L94930 8492
" />
<path d="M94930 8492
L94930 8000
" />
<path d="M97930 10000
L96437 10000
" />
<path d="M105930 7500
L107180 7500
" />
<path d="M104888 8541
L105930 7500
" />
<path d="M102471 8541
L104888 8541
" />
<path d="M97930 9020
L98930 8020
" />
<path d="M97930 10000
L97930 9020
" />
<path d="M98930 8020
L98930 7750
" />
<path d="M98930 7750
L99430 7250
" />
<path d="M99430 7250
L101180 7250
" />
<path d="M101180 7250
L102471 8541
" />
<path d="M95126 14000
L94930 14000
" />
<path d="M94930 18000
L95126 18000
" />
<path d="M95126 18000
L95930 17196
" />
<path d="M95930 17196
L95930 14803
" />
<path d="M95930 14803
L95126 14000
" />
</g>
<g style="fill:#FFFFFF; fill-opacity:0.0; 
stroke:#FFFFFF; stroke-width:196.85; stroke-opacity:1; 
stroke-linecap:round; stroke-linejoin:round;">
<path d="M97930 19125
L98768 18287
" />
<path d="M97930 20000
L97930 19125
" />
<path d="M98768 18287
L98768 16885
" />
<path d="M98768 16885
L99904 15750
" />
<path d="M99904 15750
L100180 15750
" />
<path d="M101180 15750
L100180 15750
" />
<path d="M104680 18250
L104430 18500
" />
<path d="M104680 17250
L104680 18250
" />
<path d="M104430 18500
L102680 18500
" />
<path d="M102680 18500
L101680 17500
" />
<path d="M101680 17500
L101680 16250
" />
<path d="M101680 16250
L101180 15750
" />
<path d="M103967 10000
L103180 10000
" />
<path d="M104540 10000
L103967 10000
" />
<path d="M106180 11639
L104540 10000
" />
<path d="M106180 12976
L106180 11639
" />
<path d="M108180 14000
L107203 14000
" />
<path d="M107203 14000
L106180 12976
" />
<path d="M110217 20250
L109430 20250
" />
<path d="M110680 19787
L110217 20250
" />
<path d="M110680 15500
L110680 19787
" />
<path d="M109180 14000
L110680 15500
" />
<path d="M108180 14000
L109180 14000
" />
<path d="M109430 20250
L106930 20250
" />
<path d="M99467 18287
L98768 18287
" />
<path d="M100180 19000
L99467 18287
" />
<path d="M100430 19000
L100180 19000
" />
<path d="M104680 20250
L103680 19250
" />
<path d="M106930 20250
L104680 20250
" />
<path d="M103680 19250
L102430 19250
" />
<path d="M102430 19250
L101930 20000
" />
<path d="M101930 20000
L101430 20000
" />
<path d="M101430 20000
L100430 19000
" />
</g>
<g style="fill:#FFFFFF; fill-opacity:0.0; 
stroke:#FFFFFF; stroke-width:98.4252; stroke-opacity:1; 
stroke-linecap:round; stroke-linejoin:round;">
<path d="M92430 16000
L94930 16000
" />
<path d="M89930 18250
L89930 16750
" />
<path d="M89930 16750
L90680 16000
" />
<path d="M90680 16000
L92430 16000
" />
<path d="M99491 8000
L100180 8000
" />
<path d="M99228 8000
L99491 8000
" />
<path d="M94930 12000
L95680 12000
" />
<path d="M95680 12000
L96430 10750
" />
<path d="M96430 10750
L98180 10750
" />
<path d="M98180 10750
L98680 10250
" />
<path d="M98680 10250
L98680 8548
" />
<path d="M98680 8548
L99228 8000
" />
<path d="M100180 8000
L100930 8750
" />
<path d="M100930 8750
L104958 8750
" />
<path d="M105958 9750
L107180 9750
" />
<path d="M104958 8750
L105958 9750
" />
<path d="M98930 14500
L98930 15500
" />
<path d="M98930 14500
L99180 14750
" />
<path d="M99180 14750
L100180 14750
" />
<path d="M98983 19000
L98930 19000
" />
<path d="M99983 20000
L98983 19000
" />
<path d="M100180 20000
L99983 20000
" />
<path d="M98930 10443
L99230 10143
" />
<path d="M98930 11000
L98930 10443
" />
<path d="M99230 10143
L99230 10100
" />
<path d="M99230 10100
L99230 8800
" />
<path d="M108180 8500
L108180 7500
" />
<path d="M105830 8800
L107880 8800
" />
<path d="M107880 8800
L108180 8500
" />
<path d="M100430 17750
L100180 17750
" />
<path d="M101680 19000
L100430 17750
" />
<path d="M106180 16250
L106680 16250
" />
<path d="M105680 16750
L106180 16250
" />
<path d="M105680 17742
L105680 16750
" />
<path d="M105430 19000
L105430 17992
" />
<path d="M105430 17992
L105680 17742
" />
<path d="M106180 18250
L106680 17750
" />
<path d="M106180 19500
L106180 18250
" />
<path d="M100455 16750
L102430 18750
" />
<path d="M100180 16750
L100455 16750
" />
<path d="M102430 18750
L103930 18750
" />
<path d="M103930 18750
L104930 19750
" />
<path d="M104930 19750
L105930 19750
" />
<path d="M105930 19750
L106180 19500
" />
<path d="M100180 11336
L101180 10336
" />
<path d="M100180 11750
L100180 11336
" />
<path d="M101180 10336
L101180 9500
" />
<path d="M101180 9500
L101680 9000
" />
<path d="M101680 9000
L102430 9000
" />
<path d="M102430 9000
L102680 9000
" />
<path d="M102680 9000
L102530 9000
" />
<path d="M108180 10500
L108180 9750
" />
<path d="M107930 10750
L108180 10500
" />
<path d="M106680 10750
L107930 10750
" />
<path d="M102680 9000
L104930 9000
" />
<path d="M104930 9000
L106680 10750
" />
</g>
<g style="fill:#FFFFFF; fill-opacity:1.0; 
stroke:#FFFFFF; stroke-width:100; stroke-opacity:1; 
stroke-linecap:round; stroke-linejoin:round;">
<polyline style="fill-rule:evenodd;"
points="86748,6044
86579,6111
86431,6219
86315,6359
86237,6524
86200,6716
86199,6754
86199,20483
86224,20681
86291,20850
86399,20998
86539,21114
86704,21192
86896,21229
86934,21230
110413,21230
110611,21205
110780,21138
110928,21030
111044,20890
111122,20725
111159,20533
111160,20495
111160,15500
111035,15500
111028,15534
111028,19753
111035,19787
111008,19923
110950,20009
110950,20009
110931,20038
110902,20058
110488,20472
110468,20501
110439,20520
110439,20520
110363,20571
110353,20578
110251,20598
110251,20598
110217,20605
110183,20598
110168,20598
110090,20714
109878,20856
109690,20893
109169,20893
108981,20856
108769,20714
108691,20598
107668,20598
107590,20714
107378,20856
107190,20893
106669,20893
106481,20856
106269,20714
106191,20598
104714,20598
104680,20605
104645,20598
104645,20598
104544,20578
104428,20501
104409,20472
103987,20050
103955,20050
104002,20149
103990,20200
103867,20419
103669,20575
103426,20643
103230,20643
103230,20050
103237,20050
103237,19950
103230,19950
103230,19942
103130,19942
103130,19950
103122,19950
103122,20050
103130,20050
103130,20643
102933,20643
102690,20575
102492,20419
102369,20200
102357,20149
102404,20050
102339,20050
102339,20013
102258,20135
102258,20135
102219,20193
102200,20221
102200,20221
102181,20251
102152,20270
102127,20295
102095,20308
102065,20328
102031,20335
101999,20348
101964,20348
101964,20348
101929,20348
101861,20348
101860,20348
101464,20348
101430,20355
101395,20348
101395,20348
101294,20328
101178,20251
101159,20222
101017,20079
100983,20251
100840,20464
100628,20606
100440,20643
99919,20643
99731,20606
99519,20464
99376,20251
99326,20000
99365,19805
99161,19601
99058,19643
98801,19643
98609,19564
98733,19748
98783,20000
98733,20251
98590,20464
98378,20606
98190,20643
97669,20643
97481,20606
97269,20464
97126,20251
97076,20000
97126,19748
97269,19535
97481,19393
97581,19373
97581,19160
97574,19125
97581,19091
97581,19091
97601,18990
97678,18874
97707,18855
97919,18643
97683,18643
97440,18575
97242,18419
97119,18200
97107,18149
97154,18050
97880,18050
97880,18057
97980,18057
97980,18050
97987,18050
97987,17950
97980,17950
97980,17356
98176,17356
98419,17424
98420,17425
98420,16920
98413,16885
98420,16851
98420,16851
98440,16749
98468,16707
98497,16663
98497,16663
98517,16634
98546,16615
99017,16143
98801,16143
98758,16125
98733,16251
98590,16464
98378,16606
98190,16643
98188,16643
98145,16707
98120,16724
97347,17497
97440,17424
97683,17356
97880,17356
97880,17950
97154,17950
97107,17850
97119,17799
97213,17631
95701,19143
95670,19190
95662,19198
95645,19223
95620,19240
95431,19429
95590,19535
95733,19748
95783,20000
95733,20251
95590,20464
95378,20606
95190,20643
94669,20643
94481,20606
94269,20464
94126,20251
94076,20000
94126,19748
94269,19535
94481,19393
94669,19356
94671,19356
94714,19292
94739,19275
95165,18848
95214,18776
95239,18759
95422,18576
95378,18606
95190,18643
94669,18643
94481,18606
94269,18464
94126,18251
94076,18000
94126,17748
94237,17582
93520,17582
93520,17917
93392,18226
93156,18462
92847,18590
92512,18590
92203,18462
91967,18226
91839,17917
91839,17582
91967,17273
92203,17037
92512,16909
92847,16909
93156,17037
93392,17273
93520,17582
94237,17582
94269,17535
94481,17393
94669,17356
95190,17356
95321,17382
95630,17072
95630,16404
95590,16464
95378,16606
95190,16643
94669,16643
94481,16606
94269,16464
94158,16299
90803,16299
90229,16873
90229,17677
90294,17704
90475,17885
90573,18122
90573,18378
90475,18614
90294,18795
90058,18893
89802,18893
89565,18795
89384,18614
89286,18378
89286,18122
89384,17885
89565,17704
89630,17677
89630,17582
88020,17582
88020,17917
87892,18226
87656,18462
87347,18590
87012,18590
86703,18462
86467,18226
86339,17917
86339,17582
86467,17273
86703,17037
87012,16909
87347,16909
87656,17037
87892,17273
88020,17582
89630,17582
89630,16779
89624,16750
89630,16720
89630,16720
89648,16633
89648,16633
89697,16559
89714,16534
89739,16517
90447,15809
90464,15784
90563,15718
90650,15700
90650,15700
90680,15694
90709,15700
94158,15700
94269,15535
94481,15393
94669,15356
95190,15356
95378,15393
95590,15535
95630,15595
95630,14927
95321,14617
95190,14643
94669,14643
94481,14606
94269,14464
94126,14251
94076,14000
94126,13748
94269,13535
94481,13393
94669,13356
95190,13356
95378,13393
95590,13535
95733,13748
95783,14000
95744,14194
96120,14570
96145,14587
96162,14612
96162,14612
96211,14686
96235,14803
96229,14832
96229,17167
96235,17196
96229,17226
96229,17226
96211,17313
96145,17412
96120,17429
95744,17805
95783,18000
95733,18251
95703,18295
97428,16570
97269,16464
97126,16251
97076,16000
97126,15748
97269,15535
97481,15393
97630,15364
97630,14635
97481,14606
97269,14464
97126,14251
97076,14000
97126,13748
97269,13535
97481,13393
97669,13356
98190,13356
98378,13393
98463,13450
99424,13450
99497,13342
99635,13250
99497,13157
99372,12970
99328,12750
99372,12529
99497,12342
99635,12250
99497,12157
99372,11970
99339,11805
98953,12190
98937,12215
98912,12232
98838,12281
98819,12285
98750,12299
98750,12299
98721,12305
98700,12300
98590,12464
98378,12606
98190,12643
97669,12643
97481,12606
97269,12464
97241,12422
96473,13190
96456,13215
96431,13232
96431,13232
96409,13247
96357,13281
96270,13299
96270,13299
96241,13305
96211,13299
91959,13299
91930,13305
91900,13299
91900,13299
91813,13281
91714,13215
91697,13190
90898,12392
88983,12392
88983,15107
87813,15107
87813,12392
88983,12392
90898,12392
90833,12326
87733,12326
87733,15173
86563,15173
86563,12326
87733,12326
90833,12326
90123,11616
90058,11643
89801,11643
89565,11545
89384,11364
89286,11128
89286,10871
89384,10635
89565,10454
89801,10356
90058,10356
90294,10454
90475,10635
90573,10871
90573,11128
90546,11193
92053,12700
96117,12700
97008,11809
97025,11784
97124,11718
97150,11712
97269,11535
97481,11393
97669,11356
98190,11356
98378,11393
98484,11464
98384,11364
98286,11128
98286,11033
98209,11049
98209,11049
98180,11055
98150,11049
96599,11049
95963,12109
95961,12116
95932,12160
95921,12179
95916,12184
95895,12215
95876,12228
95861,12245
95827,12261
95796,12281
95774,12286
95753,12295
95716,12297
95709,12299
95701,12299
95590,12464
95378,12606
95190,12643
94669,12643
94481,12606
94269,12464
94126,12251
94076,12000
94126,11748
94269,11535
94481,11393
94669,11356
95190,11356
95378,11393
95590,11535
95600,11550
96146,10640
96148,10633
96177,10589
96188,10570
96193,10565
96214,10534
96233,10521
96248,10504
96282,10488
96313,10468
96335,10463
96356,10454
96393,10452
96400,10450
96422,10450
96474,10448
96481,10450
97260,10450
97158,10299
96467,10299
96437,10305
96408,10299
96408,10299
96321,10281
96222,10215
96205,10190
96164,10149
95752,10149
95740,10200
95617,10419
95419,10575
95176,10643
94980,10643
94980,10050
94880,10050
94880,10643
94683,10643
94440,10575
94242,10419
94119,10200
94107,10149
94154,10050
94880,10050
94980,10050
95705,10050
95752,10149
96164,10149
95646,9631
95740,9799
95752,9850
95705,9950
94980,9950
94980,9356
94880,9356
94880,9950
94154,9950
94107,9850
94119,9799
94241,9582
93520,9582
93520,9917
93392,10226
93156,10462
92847,10590
92512,10590
92203,10462
91967,10226
91839,9917
91839,9582
88020,9582
88020,9917
87892,10226
87656,10462
87347,10590
87012,10590
86703,10462
86467,10226
86339,9917
86339,9582
86467,9273
86703,9037
87012,8909
87347,8909
87656,9037
87892,9273
88020,9582
91839,9582
91967,9273
92203,9037
92512,8909
92847,8909
93156,9037
93392,9273
93520,9582
94241,9582
94242,9580
94440,9424
94683,9356
94880,9356
94980,9356
95176,9356
95419,9424
95512,9497
94739,8724
94714,8707
94671,8643
94669,8643
94481,8606
94269,8464
94126,8251
94076,8000
94126,7748
94269,7535
94481,7393
94669,7356
95190,7356
95378,7393
95590,7535
95733,7748
95783,8000
95733,8251
95590,8464
95431,8570
96561,9700
97158,9700
97269,9535
97481,9393
97630,9364
97630,9049
97624,9020
97630,8990
97630,8990
97648,8903
97672,8866
97697,8829
97697,8829
97714,8804
97739,8788
97883,8643
97669,8643
97481,8606
97269,8464
97126,8251
97076,8000
97126,7748
97269,7535
97481,7393
97630,7364
97630,7279
97624,7250
97630,7220
97630,7220
97648,7133
97704,7049
90770,7049
90229,7410
90229,7427
90294,7454
90475,7635
90573,7871
90573,8128
90475,8364
90294,8545
90058,8643
89801,8643
89565,8545
89384,8364
89286,8128
89286,7871
89384,7635
89565,7454
89630,7427
89630,7309
89630,7309
89630,7250
89630,7220
89630,7220
89630,7190
89642,7162
89648,7133
89664,7108
89676,7080
89697,7059
89714,7034
89739,7017
89739,7017
89764,7001
89813,6968
89813,6968
90513,6501
90563,6468
90592,6462
90620,6450
90679,6450
105556,6450
105644,6362
105661,6337
105760,6271
105847,6253
105847,6253
105876,6248
105906,6253
109453,6253
109483,6248
109512,6253
109512,6253
109599,6271
109698,6337
109715,6362
110120,6767
110145,6784
110162,6809
110162,6809
110191,6852
110211,6883
110224,6944
110235,7000
110229,7029
110229,9470
110235,9500
110229,9529
110229,9529
110211,9616
110145,9715
110120,9732
109912,9940
109895,9965
109822,10014
109786,10198
109644,10410
109431,10553
109180,10603
108928,10553
108715,10410
108680,10357
108644,10410
108481,10519
108479,10529
108479,10529
108461,10616
108395,10715
108370,10732
108162,10940
108145,10965
108046,11031
107959,11049
107959,11049
107930,11055
107900,11049
106709,11049
106680,11055
106650,11049
106650,11049
106563,11031
106464,10965
106447,10940
104806,9299
101803,9299
101479,9623
101479,10307
101485,10336
101479,10366
101479,10366
101461,10453
101395,10552
101370,10569
100703,11236
100862,11342
100987,11529
101031,11750
100987,11970
100862,12157
100724,12250
100861,12341
102449,10807
102464,10784
102491,10766
102493,10764
102515,10749
102563,10718
102565,10717
102568,10716
102624,10706
102650,10700
102653,10700
102685,10694
102712,10700
103668,10700
103717,10697
103756,10710
103796,10718
103812,10728
103830,10734
103861,10761
103895,10784
103922,10824
104198,11177
104272,11067
104459,10942
104680,10898
104900,10942
105087,11067
105212,11253
105244,11418
105244,12081
105212,12246
105087,12432
104900,12557
104680,12601
104459,12557
104272,12432
104147,12246
104115,12081
104115,12014
104085,11988
104050,11965
104024,11925
104001,11896
103996,11920
103890,12114
103721,12250
103890,12385
103996,12579
104003,12612
103955,12700
103230,12700
103230,11800
103130,11800
103130,12700
102404,12700
102356,12612
102363,12579
102469,12385
102638,12250
102469,12114
102363,11920
102356,11887
102404,11800
103130,11800
103230,11800
103237,11800
103237,11700
103230,11700
103230,11692
103130,11692
103130,11700
102404,11700
102398,11688
101099,12942
101084,12965
101057,12983
101055,12985
101033,13000
100985,13031
100983,13032
100980,13033
100940,13041
100862,13157
100724,13250
100862,13342
100987,13529
101031,13750
100987,13970
100862,14157
100724,14250
100862,14342
100987,14529
101031,14750
100987,14970
100862,15157
100724,15250
100862,15342
100902,15401
101145,15401
101180,15394
101214,15401
101214,15401
101315,15421
101315,15421
101315,15421
101402,15479
101402,15479
101431,15498
101450,15527
101902,15979
101931,15998
101950,16027
101950,16027
102008,16114
102035,16250
102028,16284
102028,17355
102372,17699
102404,17699
102356,17612
102363,17579
102469,17385
102638,17250
102469,17114
102363,16920
102356,16887
102404,16800
103130,16800
103130,17700
103122,17700
103122,17800
103130,17800
103130,17807
103230,17807
103230,17800
103955,17800
104003,17887
103996,17920
103890,18114
103843,18151
104285,18151
104331,18105
104331,17972
104272,17932
104147,17746
104115,17581
104115,16918
104121,16887
104003,16887
103996,16920
103890,17114
103721,17250
103890,17385
103996,17579
104003,17612
103955,17700
103230,17700
103230,16800
103955,16800
104003,16887
104121,16887
104147,16753
104272,16567
104459,16442
104680,16398
104900,16442
105087,16567
105212,16753
105244,16918
105244,17581
105212,17746
105087,17932
105028,17972
105028,18215
105035,18250
105008,18385
104950,18472
104950,18472
104931,18501
104902,18520
104700,18722
104681,18751
104652,18770
104652,18770
104619,18792
104565,18828
104464,18848
104464,18848
104453,18850
104825,19222
104786,19128
104786,18871
104884,18635
105065,18454
105130,18427
105130,18021
105124,17992
105130,17962
105130,17962
105148,17875
105214,17776
105239,17759
105380,17618
105380,16779
105374,16749
105380,16720
105380,16720
105398,16633
105464,16534
105489,16517
105844,16162
105876,15998
106019,15785
106231,15643
106419,15606
106940,15606
107128,15643
107340,15785
107483,15998
107533,16250
107483,16501
107340,16714
107128,16856
106940,16893
106419,16893
106231,16856
106091,16762
105979,16873
105979,17345
106019,17285
106231,17143
106419,17106
106940,17106
107128,17143
107340,17285
107483,17498
107533,17750
107483,18001
107340,18214
107128,18356
106940,18393
106479,18393
106479,18612
106536,18601
107323,18601
107421,18620
107503,18676
107559,18758
107578,18856
107578,18950
107859,18950
108865,17944
108826,17750
108876,17498
109019,17285
109231,17143
109419,17106
109940,17106
110118,17141
110118,17112
109900,16893
109419,16893
109231,16856
109019,16714
108876,16501
108826,16250
108876,15998
109019,15785
109231,15643
109419,15606
109940,15606
110128,15643
110331,15779
110331,15644
110018,15331
105244,15331
105244,15607
105182,15819
105044,15991
104850,16098
104817,16105
104730,16057
104730,15331
104630,15331
104630,16057
104542,16105
104509,16098
104315,15991
104231,15887
104003,15887
103996,15920
103890,16114
103721,16250
103890,16385
103996,16579
104003,16612
103955,16700
103230,16700
103230,15800
103130,15800
103130,16700
102404,16700
102356,16612
102363,16579
102469,16385
102638,16250
102469,16114
102363,15920
102356,15887
102404,15800
103130,15800
103230,15800
103955,15800
104003,15887
104231,15887
104177,15819
104115,15607
104115,15331
104630,15331
104730,15331
105244,15331
110018,15331
109186,14499
109139,14570
109057,14625
108959,14644
107400,14644
107302,14625
107220,14570
107164,14487
107145,14389
107145,14343
107067,14328
106952,14251
106932,14222
106479,13768
105244,13768
105244,14044
105182,14256
105044,14428
104914,14500
105044,14571
105182,14743
105244,14955
105244,15231
104730,15231
104730,14505
104740,14500
104730,14494
104730,13768
104630,13768
104630,14494
104619,14500
104630,14505
104630,15231
104115,15231
104115,14955
104135,14887
104003,14887
103996,14920
103890,15114
103721,15250
103890,15385
103996,15579
104003,15612
103955,15700
103230,15700
103230,14800
103130,14800
103130,15700
102404,15700
102356,15612
102363,15579
102469,15385
102638,15250
102469,15114
102363,14920
102356,14887
102404,14800
103130,14800
103230,14800
103955,14800
104003,14887
104135,14887
104177,14743
104315,14571
104445,14500
104315,14428
104177,14256
104115,14044
104115,13887
104003,13887
103996,13920
103890,14114
103721,14250
103890,14385
103996,14579
104003,14612
103955,14700
103230,14700
103230,13800
103130,13800
103130,14700
102404,14700
102356,14612
102363,14579
102469,14385
102638,14250
102469,14114
102363,13920
102356,13887
102404,13800
103130,13800
103230,13800
103955,13800
104003,13887
104115,13887
104115,13768
104630,13768
104730,13768
105244,13768
106479,13768
106103,13392
105244,13392
105244,13668
104730,13668
104730,12942
104630,12942
104630,13668
104115,13668
104115,13392
104177,13180
104315,13008
104509,12901
104542,12894
104630,12942
104730,12942
104817,12894
104850,12901
105044,13008
105182,13180
105244,13392
106103,13392
105957,13247
105928,13227
105900,13185
105854,13116
105851,13112
105831,13010
105831,13010
105824,12976
105831,12942
105831,12887
104003,12887
103996,12920
103890,13114
103721,13250
103890,13385
103996,13579
104003,13612
103955,13700
103230,13700
103230,12800
103130,12800
103130,13700
102404,13700
102356,13612
102363,13579
102469,13385
102638,13250
102469,13114
102363,12920
102356,12887
102404,12800
103130,12800
103230,12800
103955,12800
104003,12887
105831,12887
105831,11784
104395,10348
103918,10348
103840,10464
103628,10606
103440,10643
102919,10643
102731,10606
102519,10464
102376,10251
102326,10000
102376,9748
102519,9535
102731,9393
102919,9356
103440,9356
103628,9393
103840,9535
103918,9651
104505,9651
104540,9644
104574,9651
104574,9651
104676,9671
104718,9700
104762,9729
104762,9729
104791,9748
104810,9777
106402,11369
106431,11388
106450,11417
106450,11417
106508,11503
106535,11639
106528,11674
106528,12832
107182,13486
107220,13429
107302,13374
107400,13355
108959,13355
109057,13374
109139,13429
109195,13512
109214,13610
109214,13651
109315,13671
109402,13729
109402,13729
109431,13748
109450,13777
110902,15229
110931,15248
111008,15364
111028,15465
111028,15465
111035,15500
111160,15500
111160,12180
109191,12180
109179,12230
109057,12448
108860,12603
108619,12671
108230,12671
108230,12081
108130,12081
108130,12671
107740,12671
107499,12603
107302,12448
107180,12230
107168,12180
107215,12081
108130,12081
108230,12081
109144,12081
109191,12180
111160,12180
111160,11882
109191,11882
109144,11981
108230,11981
108230,11391
108130,11391
108130,11981
107215,11981
107168,11882
107180,11832
107302,11614
107499,11459
107740,11391
108130,11391
108230,11391
108619,11391
108860,11459
109057,11614
109179,11832
109191,11882
111160,11882
111160,6766
111135,6568
111068,6399
110960,6251
110820,6135
110655,6057
110463,6020
110425,6019
86946,6019
86748,6044
" /> 
</g>
<g style="fill:#000000; fill-opacity:1.0; 
stroke:#000000; stroke-width:100; stroke-opacity:1; 
stroke-linecap:round; stroke-linejoin:round;">
</g>
<g style="fill:#000000; fill-opacity:1.0; 
stroke:#000000; stroke-width:0; stroke-opacity:1; 
stroke-linecap:round; stroke-linejoin:round;">
<circle cx="89930" cy="8000" r="177.165" /> 
</g>
<g style="fill:#000000; fill-opacity:1.0; 
stroke:#000000; stroke-width:39.3701; stroke-opacity:1; 
stroke-linecap:round; stroke-linejoin:round;">
</g>
<g style="fill:#000000; fill-opacity:1.0; 
stroke:#000000; stroke-width:0; stroke-opacity:1; 
stroke-linecap:round; stroke-linejoin:round;">
<circle cx="89930" cy="11000" r="177.165" /> 
</g>
<g style="fill:#000000; fill-opacity:1.0; 
stroke:#000000; stroke-width:39.3701; stroke-opacity:1; 
stroke-linecap:round; stroke-linejoin:round;">
</g>
<g style="fill:#000000; fill-opacity:1.0; 
stroke:#000000; stroke-width:0; stroke-opacity:1; 
stroke-linecap:round; stroke-linejoin:round;">
<circle cx="98930" cy="19000" r="177.165" /> 
</g>
<g style="fill:#000000; fill-opacity:1.0; 
stroke:#000000; stroke-width:39.3701; stroke-opacity:1; 
stroke-linecap:round; stroke-linejoin:round;">
</g>
<g style="fill:#000000; fill-opacity:1.0; 
stroke:#000000; stroke-width:0; stroke-opacity:1; 
stroke-linecap:round; stroke-linejoin:round;">
<circle cx="98930" cy="11000" r="177.165" /> 
</g>
<g style="fill:#000000; fill-opacity:1.0; 
stroke:#000000; stroke-width:39.3701; stroke-opacity:1; 
stroke-linecap:round; stroke-linejoin:round;">
</g>
<g style="fill:#000000; fill-opacity:1.0; 
stroke:#000000; stroke-width:0; stroke-opacity:1; 
stroke-linecap:round; stroke-linejoin:round;">
<circle cx="98930" cy="14500" r="177.165" /> 
</g>
<g style="fill:#000000; fill-opacity:1.0; 
stroke:#000000; stroke-width:39.3701; stroke-opacity:1; 
stroke-linecap:round; stroke-linejoin:round;">
</g>
<g style="fill:#000000; fill-opacity:1.0; 
stroke:#000000; stroke-width:0; stroke-opacity:1; 
stroke-linecap:round; stroke-linejoin:round;">
<circle cx="98930" cy="15500" r="177.165" /> 
</g>
<g style="fill:#000000; fill-opacity:1.0; 
stroke:#000000; stroke-width:39.3701; stroke-opacity:1; 
stroke-linecap:round; stroke-linejoin:round;">
</g>
<g style="fill:#000000; fill-opacity:1.0; 
stroke:#000000; stroke-width:0; stroke-opacity:1; 
stroke-linecap:round; stroke-linejoin:round;">
<circle cx="105830" cy="8800" r="177.165" /> 
</g>
<g style="fill:#000000; fill-opacity:1.0; 
stroke:#000000; stroke-width:39.3701; stroke-opacity:1; 
stroke-linecap:round; stroke-linejoin:round;">
</g>
<g style="fill:#000000; fill-opacity:1.0; 
stroke:#000000; stroke-width:0; stroke-opacity:1; 
stroke-linecap:round; stroke-linejoin:round;">
<circle cx="99230" cy="8800" r="177.165" /> 
</g>
<g style="fill:#000000; fill-opacity:1.0; 
stroke:#000000; stroke-width:39.3701; stroke-opacity:1; 
stroke-linecap:round; stroke-linejoin:round;">
</g>
<g style="fill:#000000; fill-opacity:1.0; 
stroke:#000000; stroke-width:0; stroke-opacity:1; 
stroke-linecap:round; stroke-linejoin:round;">
<circle cx="105430" cy="19000" r="177.165" /> 
</g>
<g style="fill:#000000; fill-opacity:1.0; 
stroke:#000000; stroke-width:39.3701; stroke-opacity:1; 
stroke-linecap:round; stroke-linejoin:round;">
</g>
<g style="fill:#000000; fill-opacity:1.0; 
stroke:#000000; stroke-width:0; stroke-opacity:1; 
stroke-linecap:round; stroke-linejoin:round;">
<circle cx="101680" cy="19000" r="177.165" /> 
</g>
<g style="fill:#000000; fill-opacity:1.0; 
stroke:#000000; stroke-width:39.3701; stroke-opacity:1; 
stroke-linecap:round; stroke-linejoin:round;">
</g>
<g style="fill:#000000; fill-opacity:1.0; 
stroke:#000000; stroke-width:0; stroke-opacity:1; 
stroke-linecap:round; stroke-linejoin:round;">
<circle cx="107180" cy="7500" r="177.165" /> 
</g>
<g style="fill:#000000; fill-opacity:1.0; 
stroke:#000000; stroke-width:39.3701; stroke-opacity:1; 
stroke-linecap:round; stroke-linejoin:round;">
</g>
<g style="fill:#000000; fill-opacity:1.0; 
stroke:#000000; stroke-width:0; stroke-opacity:1; 
stroke-linecap:round; stroke-linejoin:round;">
<circle cx="108180" cy="7500" r="177.165" /> 
</g>
<g style="fill:#000000; fill-opacity:1.0; 
stroke:#000000; stroke-width:39.3701; stroke-opacity:1; 
stroke-linecap:round; stroke-linejoin:round;">
</g>
<g style="fill:#000000; fill-opacity:1.0; 
stroke:#000000; stroke-width:0; stroke-opacity:1; 
stroke-linecap:round; stroke-linejoin:round;">
<circle cx="109180" cy="7500" r="177.165" /> 
</g>
<g style="fill:#000000; fill-opacity:1.0; 
stroke:#000000; stroke-width:39.3701; stroke-opacity:1; 
stroke-linecap:round; stroke-linejoin:round;">
</g>
<g style="fill:#000000; fill-opacity:1.0; 
stroke:#000000; stroke-width:0; stroke-opacity:1; 
stroke-linecap:round; stroke-linejoin:round;">
<circle cx="109180" cy="9750" r="177.165" /> 
</g>
<g style="fill:#000000; fill-opacity:1.0; 
stroke:#000000; stroke-width:39.3701; stroke-opacity:1; 
stroke-linecap:round; stroke-linejoin:round;">
</g>
<g style="fill:#000000; fill-opacity:1.0; 
stroke:#000000; stroke-width:0; stroke-opacity:1; 
stroke-linecap:round; stroke-linejoin:round;">
<circle cx="108180" cy="9750" r="177.165" /> 
</g>
<g style="fill:#000000; fill-opacity:1.0; 
stroke:#000000; stroke-width:39.3701; stroke-opacity:1; 
stroke-linecap:round; stroke-linejoin:round;">
</g>
<g style="fill:#000000; fill-opacity:1.0; 
stroke:#000000; stroke-width:0; stroke-opacity:1; 
stroke-linecap:round; stroke-linejoin:round;">
<circle cx="107180" cy="9750" r="177.165" /> 
</g>
<g style="fill:#000000; fill-opacity:1.0; 
stroke:#000000; stroke-width:39.3701; stroke-opacity:1; 
stroke-linecap:round; stroke-linejoin:round;">
</g>
<g style="fill:#000000; fill-opacity:1.0; 
stroke:#000000; stroke-width:0; stroke-opacity:1; 
stroke-linecap:round; stroke-linejoin:round;">
<circle cx="106680" cy="17750" r="177.165" /> 
</g>
<g style="fill:#000000; fill-opacity:1.0; 
stroke:#000000; stroke-width:39.3701; stroke-opacity:1; 
stroke-linecap:round; stroke-linejoin:round;">
</g>
<g style="fill:#000000; fill-opacity:1.0; 
stroke:#000000; stroke-width:0; stroke-opacity:1; 
stroke-linecap:round; stroke-linejoin:round;">
<circle cx="109680" cy="17750" r="177.165" /> 
</g>
<g style="fill:#000000; fill-opacity:1.0; 
stroke:#000000; stroke-width:39.3701; stroke-opacity:1; 
stroke-linecap:round; stroke-linejoin:round;">
</g>
<g style="fill:#000000; fill-opacity:1.0; 
stroke:#000000; stroke-width:0; stroke-opacity:1; 
stroke-linecap:round; stroke-linejoin:round;">
<circle cx="109430" cy="19250" r="177.165" /> 
</g>
<g style="fill:#000000; fill-opacity:1.0; 
stroke:#000000; stroke-width:39.3701; stroke-opacity:1; 
stroke-linecap:round; stroke-linejoin:round;">
</g>
<g style="fill:#000000; fill-opacity:1.0; 
stroke:#000000; stroke-width:0; stroke-opacity:1; 
stroke-linecap:round; stroke-linejoin:round;">
<circle cx="109430" cy="20250" r="177.165" /> 
</g>
<g style="fill:#000000; fill-opacity:1.0; 
stroke:#000000; stroke-width:39.3701; stroke-opacity:1; 
stroke-linecap:round; stroke-linejoin:round;">
</g>
<g style="fill:#000000; fill-opacity:1.0; 
stroke:#000000; stroke-width:0; stroke-opacity:1; 
stroke-linecap:round; stroke-linejoin:round;">
<circle cx="100180" cy="8000" r="177.165" /> 
</g>
<g style="fill:#000000; fill-opacity:1.0; 
stroke:#000000; stroke-width:39.3701; stroke-opacity:1; 
stroke-linecap:round; stroke-linejoin:round;">
</g>
<g style="fill:#000000; fill-opacity:1.0; 
stroke:#000000; stroke-width:0; stroke-opacity:1; 
stroke-linecap:round; stroke-linejoin:round;">
<circle cx="103180" cy="8000" r="177.165" /> 
</g>
<g style="fill:#000000; fill-opacity:1.0; 
stroke:#000000; stroke-width:39.3701; stroke-opacity:1; 
stroke-linecap:round; stroke-linejoin:round;">
</g>
<g style="fill:#000000; fill-opacity:1.0; 
stroke:#000000; stroke-width:0; stroke-opacity:1; 
stroke-linecap:round; stroke-linejoin:round;">
<circle cx="103180" cy="17750" r="177.165" /> 
</g>
<g style="fill:#000000; fill-opacity:1.0; 
stroke:#000000; stroke-width:39.3701; stroke-opacity:1; 
stroke-linecap:round; stroke-linejoin:round;">
</g>
<g style="fill:#000000; fill-opacity:1.0; 
stroke:#000000; stroke-width:0; stroke-opacity:1; 
stroke-linecap:round; stroke-linejoin:round;">
<circle cx="100180" cy="11750" r="177.165" /> 
</g>
<g style="fill:#000000; fill-opacity:1.0; 
stroke:#000000; stroke-width:39.3701; stroke-opacity:1; 
stroke-linecap:round; stroke-linejoin:round;">
</g>
<g style="fill:#000000; fill-opacity:1.0; 
stroke:#000000; stroke-width:0; stroke-opacity:1; 
stroke-linecap:round; stroke-linejoin:round;">
<circle cx="103180" cy="16750" r="177.165" /> 
</g>
<g style="fill:#000000; fill-opacity:1.0; 
stroke:#000000; stroke-width:39.3701; stroke-opacity:1; 
stroke-linecap:round; stroke-linejoin:round;">
</g>
<g style="fill:#000000; fill-opacity:1.0; 
stroke:#000000; stroke-width:0; stroke-opacity:1; 
stroke-linecap:round; stroke-linejoin:round;">
<circle cx="100180" cy="12750" r="177.165" /> 
</g>
<g style="fill:#000000; fill-opacity:1.0; 
stroke:#000000; stroke-width:39.3701; stroke-opacity:1; 
stroke-linecap:round; stroke-linejoin:round;">
</g>
<g style="fill:#000000; fill-opacity:1.0; 
stroke:#000000; stroke-width:0; stroke-opacity:1; 
stroke-linecap:round; stroke-linejoin:round;">
<circle cx="103180" cy="15750" r="177.165" /> 
</g>
<g style="fill:#000000; fill-opacity:1.0; 
stroke:#000000; stroke-width:39.3701; stroke-opacity:1; 
stroke-linecap:round; stroke-linejoin:round;">
</g>
<g style="fill:#000000; fill-opacity:1.0; 
stroke:#000000; stroke-width:0; stroke-opacity:1; 
stroke-linecap:round; stroke-linejoin:round;">
<circle cx="100180" cy="13750" r="177.165" /> 
</g>
<g style="fill:#000000; fill-opacity:1.0; 
stroke:#000000; stroke-width:39.3701; stroke-opacity:1; 
stroke-linecap:round; stroke-linejoin:round;">
</g>
<g style="fill:#000000; fill-opacity:1.0; 
stroke:#000000; stroke-width:0; stroke-opacity:1; 
stroke-linecap:round; stroke-linejoin:round;">
<circle cx="103180" cy="14750" r="177.165" /> 
</g>
<g style="fill:#000000; fill-opacity:1.0; 
stroke:#000000; stroke-width:39.3701; stroke-opacity:1; 
stroke-linecap:round; stroke-linejoin:round;">
</g>
<g style="fill:#000000; fill-opacity:1.0; 
stroke:#000000; stroke-width:0; stroke-opacity:1; 
stroke-linecap:round; stroke-linejoin:round;">
<circle cx="100180" cy="14750" r="177.165" /> 
</g>
<g style="fill:#000000; fill-opacity:1.0; 
stroke:#000000; stroke-width:39.3701; stroke-opacity:1; 
stroke-linecap:round; stroke-linejoin:round;">
</g>
<g style="fill:#000000; fill-opacity:1.0; 
stroke:#000000; stroke-width:0; stroke-opacity:1; 
stroke-linecap:round; stroke-linejoin:round;">
<circle cx="103180" cy="13750" r="177.165" /> 
</g>
<g style="fill:#000000; fill-opacity:1.0; 
stroke:#000000; stroke-width:39.3701; stroke-opacity:1; 
stroke-linecap:round; stroke-linejoin:round;">
</g>
<g style="fill:#000000; fill-opacity:1.0; 
stroke:#000000; stroke-width:0; stroke-opacity:1; 
stroke-linecap:round; stroke-linejoin:round;">
<circle cx="100180" cy="15750" r="177.165" /> 
</g>
<g style="fill:#000000; fill-opacity:1.0; 
stroke:#000000; stroke-width:39.3701; stroke-opacity:1; 
stroke-linecap:round; stroke-linejoin:round;">
</g>
<g style="fill:#000000; fill-opacity:1.0; 
stroke:#000000; stroke-width:0; stroke-opacity:1; 
stroke-linecap:round; stroke-linejoin:round;">
<circle cx="103180" cy="12750" r="177.165" /> 
</g>
<g style="fill:#000000; fill-opacity:1.0; 
stroke:#000000; stroke-width:39.3701; stroke-opacity:1; 
stroke-linecap:round; stroke-linejoin:round;">
</g>
<g style="fill:#000000; fill-opacity:1.0; 
stroke:#000000; stroke-width:0; stroke-opacity:1; 
stroke-linecap:round; stroke-linejoin:round;">
<circle cx="100180" cy="16750" r="177.165" /> 
</g>
<g style="fill:#000000; fill-opacity:1.0; 
stroke:#000000; stroke-width:39.3701; stroke-opacity:1; 
stroke-linecap:round; stroke-linejoin:round;">
</g>
<g style="fill:#000000; fill-opacity:1.0; 
stroke:#000000; stroke-width:0; stroke-opacity:1; 
stroke-linecap:round; stroke-linejoin:round;">
<circle cx="103180" cy="11750" r="177.165" /> 
</g>
<g style="fill:#000000; fill-opacity:1.0; 
stroke:#000000; stroke-width:39.3701; stroke-opacity:1; 
stroke-linecap:round; stroke-linejoin:round;">
</g>
<g style="fill:#000000; fill-opacity:1.0; 
stroke:#000000; stroke-width:0; stroke-opacity:1; 
stroke-linecap:round; stroke-linejoin:round;">
<circle cx="100180" cy="17750" r="177.165" /> 
</g>
<g style="fill:#000000; fill-opacity:1.0; 
stroke:#000000; stroke-width:39.3701; stroke-opacity:1; 
stroke-linecap:round; stroke-linejoin:round;">
</g>
<g style="fill:#000000; fill-opacity:1.0; 
stroke:#000000; stroke-width:0; stroke-opacity:1; 
stroke-linecap:round; stroke-linejoin:round;">
<circle cx="104680" cy="15281.5" r="177.165" /> 
</g>
<g style="fill:#000000; fill-opacity:1.0; 
stroke:#000000; stroke-width:39.3701; stroke-opacity:1; 
stroke-linecap:round; stroke-linejoin:round;">
</g>
<g style="fill:#000000; fill-opacity:1.0; 
stroke:#000000; stroke-width:0; stroke-opacity:1; 
stroke-linecap:round; stroke-linejoin:round;">
<circle cx="104680" cy="17250" r="177.165" /> 
</g>
<g style="fill:#000000; fill-opacity:1.0; 
stroke:#000000; stroke-width:39.3701; stroke-opacity:1; 
stroke-linecap:round; stroke-linejoin:round;">
</g>
<g style="fill:#000000; fill-opacity:1.0; 
stroke:#000000; stroke-width:0; stroke-opacity:1; 
stroke-linecap:round; stroke-linejoin:round;">
<circle cx="104680" cy="11750" r="177.165" /> 
</g>
<g style="fill:#000000; fill-opacity:1.0; 
stroke:#000000; stroke-width:39.3701; stroke-opacity:1; 
stroke-linecap:round; stroke-linejoin:round;">
</g>
<g style="fill:#000000; fill-opacity:1.0; 
stroke:#000000; stroke-width:0; stroke-opacity:1; 
stroke-linecap:round; stroke-linejoin:round;">
<circle cx="104680" cy="13718.5" r="177.165" /> 
</g>
<g style="fill:#000000; fill-opacity:1.0; 
stroke:#000000; stroke-width:39.3701; stroke-opacity:1; 
stroke-linecap:round; stroke-linejoin:round;">
</g>
<g style="fill:#000000; fill-opacity:1.0; 
stroke:#000000; stroke-width:0; stroke-opacity:1; 
stroke-linecap:round; stroke-linejoin:round;">
<circle cx="92680" cy="17750" r="177.165" /> 
</g>
<g style="fill:#000000; fill-opacity:1.0; 
stroke:#000000; stroke-width:39.3701; stroke-opacity:1; 
stroke-linecap:round; stroke-linejoin:round;">
</g>
<g style="fill:#000000; fill-opacity:1.0; 
stroke:#000000; stroke-width:0; stroke-opacity:1; 
stroke-linecap:round; stroke-linejoin:round;">
<circle cx="87180" cy="17750" r="177.165" /> 
</g>
<g style="fill:#000000; fill-opacity:1.0; 
stroke:#000000; stroke-width:39.3701; stroke-opacity:1; 
stroke-linecap:round; stroke-linejoin:round;">
</g>
<g style="fill:#000000; fill-opacity:1.0; 
stroke:#000000; stroke-width:0; stroke-opacity:1; 
stroke-linecap:round; stroke-linejoin:round;">
<circle cx="92680" cy="9750" r="177.165" /> 
</g>
<g style="fill:#000000; fill-opacity:1.0; 
stroke:#000000; stroke-width:39.3701; stroke-opacity:1; 
stroke-linecap:round; stroke-linejoin:round;">
</g>
<g style="fill:#000000; fill-opacity:1.0; 
stroke:#000000; stroke-width:0; stroke-opacity:1; 
stroke-linecap:round; stroke-linejoin:round;">
<circle cx="87180" cy="9750" r="177.165" /> 
</g>
<g style="fill:#000000; fill-opacity:1.0; 
stroke:#000000; stroke-width:39.3701; stroke-opacity:1; 
stroke-linecap:round; stroke-linejoin:round;">
</g>
<g style="fill:#000000; fill-opacity:1.0; 
stroke:#000000; stroke-width:0; stroke-opacity:1; 
stroke-linecap:round; stroke-linejoin:round;">
<circle cx="94930" cy="14000" r="177.165" /> 
</g>
<g style="fill:#000000; fill-opacity:1.0; 
stroke:#000000; stroke-width:39.3701; stroke-opacity:1; 
stroke-linecap:round; stroke-linejoin:round;">
</g>
<g style="fill:#000000; fill-opacity:1.0; 
stroke:#000000; stroke-width:0; stroke-opacity:1; 
stroke-linecap:round; stroke-linejoin:round;">
<circle cx="97930" cy="14000" r="177.165" /> 
</g>
<g style="fill:#000000; fill-opacity:1.0; 
stroke:#000000; stroke-width:39.3701; stroke-opacity:1; 
stroke-linecap:round; stroke-linejoin:round;">
</g>
<g style="fill:#000000; fill-opacity:1.0; 
stroke:#000000; stroke-width:0; stroke-opacity:1; 
stroke-linecap:round; stroke-linejoin:round;">
<circle cx="106930" cy="20250" r="177.165" /> 
</g>
<g style="fill:#000000; fill-opacity:1.0; 
stroke:#000000; stroke-width:39.3701; stroke-opacity:1; 
stroke-linecap:round; stroke-linejoin:round;">
</g>
<g style="fill:#000000; fill-opacity:1.0; 
stroke:#000000; stroke-width:0; stroke-opacity:1; 
stroke-linecap:round; stroke-linejoin:round;">
<circle cx="106930" cy="19250" r="177.165" /> 
</g>
<g style="fill:#000000; fill-opacity:1.0; 
stroke:#000000; stroke-width:39.3701; stroke-opacity:1; 
stroke-linecap:round; stroke-linejoin:round;">
</g>
<g style="fill:#000000; fill-opacity:1.0; 
stroke:#000000; stroke-width:0; stroke-opacity:1; 
stroke-linecap:round; stroke-linejoin:round;">
<circle cx="108180" cy="14000" r="177.165" /> 
</g>
<g style="fill:#000000; fill-opacity:1.0; 
stroke:#000000; stroke-width:39.3701; stroke-opacity:1; 
stroke-linecap:round; stroke-linejoin:round;">
</g>
<g style="fill:#000000; fill-opacity:1.0; 
stroke:#000000; stroke-width:0; stroke-opacity:1; 
stroke-linecap:round; stroke-linejoin:round;">
<circle cx="108180" cy="12031.5" r="177.165" /> 
</g>
<g style="fill:#000000; fill-opacity:1.0; 
stroke:#000000; stroke-width:39.3701; stroke-opacity:1; 
stroke-linecap:round; stroke-linejoin:round;">
</g>
<g style="fill:#000000; fill-opacity:1.0; 
stroke:#000000; stroke-width:0; stroke-opacity:1; 
stroke-linecap:round; stroke-linejoin:round;">
<circle cx="89930" cy="18250" r="177.165" /> 
</g>
<g style="fill:#000000; fill-opacity:1.0; 
stroke:#000000; stroke-width:39.3701; stroke-opacity:1; 
stroke-linecap:round; stroke-linejoin:round;">
</g>
<g style="fill:#000000; fill-opacity:1.0; 
stroke:#000000; stroke-width:0; stroke-opacity:1; 
stroke-linecap:round; stroke-linejoin:round;">
<circle cx="100180" cy="10000" r="177.165" /> 
</g>
<g style="fill:#000000; fill-opacity:1.0; 
stroke:#000000; stroke-width:39.3701; stroke-opacity:1; 
stroke-linecap:round; stroke-linejoin:round;">
</g>
<g style="fill:#000000; fill-opacity:1.0; 
stroke:#000000; stroke-width:0; stroke-opacity:1; 
stroke-linecap:round; stroke-linejoin:round;">
<circle cx="103180" cy="10000" r="177.165" /> 
</g>
<g style="fill:#000000; fill-opacity:1.0; 
stroke:#000000; stroke-width:39.3701; stroke-opacity:1; 
stroke-linecap:round; stroke-linejoin:round;">
</g>
<g style="fill:#000000; fill-opacity:1.0; 
stroke:#000000; stroke-width:0; stroke-opacity:1; 
stroke-linecap:round; stroke-linejoin:round;">
<circle cx="94930" cy="12000" r="177.165" /> 
</g>
<g style="fill:#000000; fill-opacity:1.0; 
stroke:#000000; stroke-width:39.3701; stroke-opacity:1; 
stroke-linecap:round; stroke-linejoin:round;">
</g>
<g style="fill:#000000; fill-opacity:1.0; 
stroke:#000000; stroke-width:0; stroke-opacity:1; 
stroke-linecap:round; stroke-linejoin:round;">
<circle cx="97930" cy="12000" r="177.165" /> 
</g>
<g style="fill:#000000; fill-opacity:1.0; 
stroke:#000000; stroke-width:39.3701; stroke-opacity:1; 
stroke-linecap:round; stroke-linejoin:round;">
</g>
<g style="fill:#000000; fill-opacity:1.0; 
stroke:#000000; stroke-width:0; stroke-opacity:1; 
stroke-linecap:round; stroke-linejoin:round;">
<circle cx="94930" cy="8000" r="177.165" /> 
</g>
<g style="fill:#000000; fill-opacity:1.0; 
stroke:#000000; stroke-width:39.3701; stroke-opacity:1; 
stroke-linecap:round; stroke-linejoin:round;">
</g>
<g style="fill:#000000; fill-opacity:1.0; 
stroke:#000000; stroke-width:0; stroke-opacity:1; 
stroke-linecap:round; stroke-linejoin:round;">
<circle cx="97930" cy="8000" r="177.165" /> 
</g>
<g style="fill:#000000; fill-opacity:1.0; 
stroke:#000000; stroke-width:39.3701; stroke-opacity:1; 
stroke-linecap:round; stroke-linejoin:round;">
</g>
<g style="fill:#000000; fill-opacity:1.0; 
stroke:#000000; stroke-width:0; stroke-opacity:1; 
stroke-linecap:round; stroke-linejoin:round;">
<circle cx="97930" cy="10000" r="177.165" /> 
</g>
<g style="fill:#000000; fill-opacity:1.0; 
stroke:#000000; stroke-width:39.3701; stroke-opacity:1; 
stroke-linecap:round; stroke-linejoin:round;">
</g>
<g style="fill:#000000; fill-opacity:1.0; 
stroke:#000000; stroke-width:0; stroke-opacity:1; 
stroke-linecap:round; stroke-linejoin:round;">
<circle cx="94930" cy="10000" r="177.165" /> 
</g>
<g style="fill:#000000; fill-opacity:1.0; 
stroke:#000000; stroke-width:39.3701; stroke-opacity:1; 
stroke-linecap:round; stroke-linejoin:round;">
</g>
<g style="fill:#000000; fill-opacity:1.0; 
stroke:#000000; stroke-width:0; stroke-opacity:1; 
stroke-linecap:round; stroke-linejoin:round;">
<circle cx="97930" cy="16000" r="177.165" /> 
</g>
<g style="fill:#000000; fill-opacity:1.0; 
stroke:#000000; stroke-width:39.3701; stroke-opacity:1; 
stroke-linecap:round; stroke-linejoin:round;">
</g>
<g style="fill:#000000; fill-opacity:1.0; 
stroke:#000000; stroke-width:0; stroke-opacity:1; 
stroke-linecap:round; stroke-linejoin:round;">
<circle cx="94930" cy="16000" r="177.165" /> 
</g>
<g style="fill:#000000; fill-opacity:1.0; 
stroke:#000000; stroke-width:39.3701; stroke-opacity:1; 
stroke-linecap:round; stroke-linejoin:round;">
</g>
<g style="fill:#000000; fill-opacity:1.0; 
stroke:#000000; stroke-width:0; stroke-opacity:1; 
stroke-linecap:round; stroke-linejoin:round;">
<circle cx="97930" cy="20000" r="177.165" /> 
</g>
<g style="fill:#000000; fill-opacity:1.0; 
stroke:#000000; stroke-width:39.3701; stroke-opacity:1; 
stroke-linecap:round; stroke-linejoin:round;">
</g>
<g style="fill:#000000; fill-opacity:1.0; 
stroke:#000000; stroke-width:0; stroke-opacity:1; 
stroke-linecap:round; stroke-linejoin:round;">
<circle cx="94930" cy="20000" r="177.165" /> 
</g>
<g style="fill:#000000; fill-opacity:1.0; 
stroke:#000000; stroke-width:39.3701; stroke-opacity:1; 
stroke-linecap:round; stroke-linejoin:round;">
</g>
<g style="fill:#000000; fill-opacity:1.0; 
stroke:#000000; stroke-width:0; stroke-opacity:1; 
stroke-linecap:round; stroke-linejoin:round;">
<circle cx="97930" cy="18000" r="177.165" /> 
</g>
<g style="fill:#000000; fill-opacity:1.0; 
stroke:#000000; stroke-width:39.3701; stroke-opacity:1; 
stroke-linecap:round; stroke-linejoin:round;">
</g>
<g style="fill:#000000; fill-opacity:1.0; 
stroke:#000000; stroke-width:0; stroke-opacity:1; 
stroke-linecap:round; stroke-linejoin:round;">
<circle cx="94930" cy="18000" r="177.165" /> 
</g>
<g style="fill:#000000; fill-opacity:1.0; 
stroke:#000000; stroke-width:39.3701; stroke-opacity:1; 
stroke-linecap:round; stroke-linejoin:round;">
</g>
<g style="fill:#000000; fill-opacity:1.0; 
stroke:#000000; stroke-width:0; stroke-opacity:1; 
stroke-linecap:round; stroke-linejoin:round;">
<circle cx="100180" cy="20000" r="177.165" /> 
</g>
<g style="fill:#000000; fill-opacity:1.0; 
stroke:#000000; stroke-width:39.3701; stroke-opacity:1; 
stroke-linecap:round; stroke-linejoin:round;">
</g>
<g style="fill:#000000; fill-opacity:1.0; 
stroke:#000000; stroke-width:0; stroke-opacity:1; 
stroke-linecap:round; stroke-linejoin:round;">
<circle cx="103180" cy="20000" r="177.165" /> 
</g>
<g style="fill:#000000; fill-opacity:1.0; 
stroke:#000000; stroke-width:39.3701; stroke-opacity:1; 
stroke-linecap:round; stroke-linejoin:round;">
</g>
<g style="fill:#000000; fill-opacity:1.0; 
stroke:#000000; stroke-width:0; stroke-opacity:1; 
stroke-linecap:round; stroke-linejoin:round;">
<circle cx="106680" cy="16250" r="177.165" /> 
</g>
<g style="fill:#000000; fill-opacity:1.0; 
stroke:#000000; stroke-width:39.3701; stroke-opacity:1; 
stroke-linecap:round; stroke-linejoin:round;">
</g>
<g style="fill:#000000; fill-opacity:1.0; 
stroke:#000000; stroke-width:0; stroke-opacity:1; 
stroke-linecap:round; stroke-linejoin:round;">
<circle cx="109680" cy="16250" r="177.165" /> 
</g>
<g style="fill:#000000; fill-opacity:1.0; 
stroke:#000000; stroke-width:39.3701; stroke-opacity:1; 
stroke-linecap:round; stroke-linejoin:round;">
</g>
<g style="fill:#FFFFFF; fill-opacity:1.0; 
stroke:#FFFFFF; stroke-width:39.3701; stroke-opacity:1; 
stroke-linecap:round; stroke-linejoin:round;">
</g> 
</svg>
