<?xml version="1.0" encoding="UTF-8" standalone="no"?>
<svg
   xmlns:dc="http://purl.org/dc/elements/1.1/"
   xmlns:cc="http://creativecommons.org/ns#"
   xmlns:rdf="http://www.w3.org/1999/02/22-rdf-syntax-ns#"
   xmlns:svg="http://www.w3.org/2000/svg"
   xmlns="http://www.w3.org/2000/svg"
   xmlns:sodipodi="http://sodipodi.sourceforge.net/DTD/sodipodi-0.dtd"
   xmlns:inkscape="http://www.inkscape.org/namespaces/inkscape"
   version="1.1"
   width="21.0007cm"
   height="29.700199cm"
   viewBox="0 0 82679.979 116930.03"
   id="svg2"
   inkscape:version="0.91 r13725"
   sodipodi:docname="ponta-de-prova-logica-simplificada-F.SilkS.svg">
  <metadata
     id="metadata460">
    <rdf:RDF>
      <cc:Work
         rdf:about="">
        <dc:format>image/svg+xml</dc:format>
        <dc:type
           rdf:resource="http://purl.org/dc/dcmitype/StillImage" />
        <dc:title>SVG Picture created as ponta-de-prova-logica-simplificada-F.SilkS.svg date 2019/03/21 10:29:38 </dc:title>
      </cc:Work>
    </rdf:RDF>
  </metadata>
  <defs
     id="defs458" />
  <sodipodi:namedview
     pagecolor="#ffffff"
     bordercolor="#666666"
     borderopacity="1"
     objecttolerance="10"
     gridtolerance="10"
     guidetolerance="10"
     inkscape:pageopacity="0"
     inkscape:pageshadow="2"
     inkscape:window-width="1920"
     inkscape:window-height="1027"
     id="namedview456"
     showgrid="false"
     inkscape:zoom="0.6343069"
     inkscape:cx="313.76811"
     inkscape:cy="582.67775"
     inkscape:window-x="0"
     inkscape:window-y="0"
     inkscape:window-maximized="1"
     inkscape:current-layer="svg2" />
  <title
     id="title4">SVG Picture created as ponta-de-prova-logica-simplificada-F.SilkS.svg date 2019/03/21 10:29:38 </title>
  <desc
     id="desc6">Picture generated by PCBNEW </desc>
  <g
     style="fill:#000000;fill-opacity:1;stroke:#000000;stroke-linecap:round;stroke-linejoin:round;stroke-opacity:1"
     id="g8"
     transform="translate(0,34250.03)" />
  <g
     style="fill:#000000;fill-opacity:0;stroke:#000000;stroke-width:-0.0003937;stroke-linecap:round;stroke-linejoin:round;stroke-opacity:1"
     id="g10"
     transform="translate(0,34250.03)" />
  <g
     style="fill:#000000;fill-opacity:0;stroke:#000000;stroke-width:39.37009811;stroke-linecap:round;stroke-linejoin:round;stroke-opacity:1"
     id="g12"
     transform="translate(-1576.5255,-783.86909)">
    <path
       d="m 5500,20500 a 1000,1000 0 0 0 1000,1000"
       id="path14"
       inkscape:connector-curvature="0" />
    <path
       d="m 30000,21500 a 1000,1000 0 0 0 1000,-1000"
       id="path16"
       inkscape:connector-curvature="0" />
    <path
       d="M 31000,6750 A 1000,1000 0 0 0 30000,5750"
       id="path18"
       inkscape:connector-curvature="0" />
    <path
       d="M 6500,5750 A 1000,1000 0 0 0 5500,6750"
       id="path20"
       inkscape:connector-curvature="0" />
    <path
       d="m 6500,21500 23500,0"
       id="path22"
       inkscape:connector-curvature="0" />
    <path
       d="m 5500,6750 0,13750"
       id="path24"
       inkscape:connector-curvature="0" />
    <path
       d="m 30000,5750 -23500,0"
       id="path26"
       inkscape:connector-curvature="0" />
    <path
       d="m 31000,20500 0,-13750"
       id="path28"
       inkscape:connector-curvature="0" />
    <path
       d="m 10400,6925 0,3250"
       id="path30"
       inkscape:connector-curvature="0" />
    <path
       d="m 7025,6925 0,3375"
       id="path32"
       inkscape:connector-curvature="0" />
    <path
       d="m 10400,6925 -3375,0"
       id="path34"
       inkscape:connector-curvature="0" />
    <path
       d="m 10400,10175 -125,125"
       id="path36"
       inkscape:connector-curvature="0" />
    <path
       d="m 10275,10300 -3250,0"
       id="path38"
       inkscape:connector-curvature="0" />
  </g>
  <g
     style="fill:#000000;fill-opacity:0;stroke:#000000;stroke-width:47.24409866;stroke-linecap:round;stroke-linejoin:round;stroke-opacity:1"
     id="g40"
     transform="translate(-1576.5255,-783.86909)">
    <path
       d="m 10037,18289 0,-130"
       id="path42"
       inkscape:connector-curvature="0" />
    <path
       d="m 7462,18289 2575,0"
       id="path44"
       inkscape:connector-curvature="0" />
    <path
       d="m 7462,18159 0,130"
       id="path46"
       inkscape:connector-curvature="0" />
    <path
       d="m 10037,17210 0,130"
       id="path48"
       inkscape:connector-curvature="0" />
    <path
       d="m 7462,17210 2575,0"
       id="path50"
       inkscape:connector-curvature="0" />
    <path
       d="m 7462,17340 0,-130"
       id="path52"
       inkscape:connector-curvature="0" />
    <path
       d="m 7924.65,20408.4 a 783.465,783.465 0 0 0 61.77,-1272.6"
       id="path54"
       inkscape:connector-curvature="0" />
    <path
       d="m 7013.58,19135.8 a 783.465,783.465 0 0 0 61.77,1272.6"
       id="path56"
       inkscape:connector-curvature="0" />
    <path
       d="m 7925.13,20159.9 a 590.551,590.551 0 0 0 0.07,-819.7"
       id="path58"
       inkscape:connector-curvature="0" />
    <path
       d="m 7074.8,19340.2 a 590.551,590.551 0 0 0 0.07,819.7"
       id="path60"
       inkscape:connector-curvature="0" />
    <path
       d="m 7986,19135 -61,0"
       id="path62"
       inkscape:connector-curvature="0" />
    <path
       d="m 7074,19135 -61,0"
       id="path64"
       inkscape:connector-curvature="0" />
    <path
       d="m 16537,8409 0,130"
       id="path66"
       inkscape:connector-curvature="0" />
    <path
       d="m 16537,8539 -2575,0"
       id="path68"
       inkscape:connector-curvature="0" />
    <path
       d="m 13962,8539 0,-130"
       id="path70"
       inkscape:connector-curvature="0" />
    <path
       d="m 16537,7590 0,-130"
       id="path72"
       inkscape:connector-curvature="0" />
    <path
       d="m 16537,7460 -2575,0"
       id="path74"
       inkscape:connector-curvature="0" />
    <path
       d="m 13962,7460 0,130"
       id="path76"
       inkscape:connector-curvature="0" />
    <path
       d="m 13183,18297 4133,0"
       id="path78"
       inkscape:connector-curvature="0" />
    <path
       d="m 13183,11202 0,7095"
       id="path80"
       inkscape:connector-curvature="0" />
    <path
       d="m 17316,11202 -4133,0"
       id="path82"
       inkscape:connector-curvature="0" />
    <path
       d="m 17316,18297 0,-7095"
       id="path84"
       inkscape:connector-curvature="0" />
    <path
       d="m 14364,18273 492,0"
       id="path86"
       inkscape:connector-curvature="0" />
    <path
       d="m 14364,11226 0,7047"
       id="path88"
       inkscape:connector-curvature="0" />
    <path
       d="m 16135,11226 -1771,0"
       id="path90"
       inkscape:connector-curvature="0" />
    <path
       d="m 16135,18273 0,-7047"
       id="path92"
       inkscape:connector-curvature="0" />
    <path
       d="m 15643,18273 492,0"
       id="path94"
       inkscape:connector-curvature="0" />
    <path
       d="m 15643.7,18273.6 a 393.701,393.701 0 0 0 -787.4,0"
       id="path96"
       inkscape:connector-curvature="0" />
    <path
       d="m 12665,15234 124,0"
       id="path98"
       inkscape:connector-curvature="0" />
    <path
       d="m 11710,15234 124,0"
       id="path100"
       inkscape:connector-curvature="0" />
    <path
       d="m 12665,17297 124,0"
       id="path102"
       inkscape:connector-curvature="0" />
    <path
       d="m 11710,17297 124,0"
       id="path104"
       inkscape:connector-curvature="0" />
    <path
       d="m 12789,17297 0,-2063"
       id="path106"
       inkscape:connector-curvature="0" />
    <path
       d="m 11710,17297 0,-2063"
       id="path108"
       inkscape:connector-curvature="0" />
    <path
       d="m 12789,11702 0,2063"
       id="path110"
       inkscape:connector-curvature="0" />
    <path
       d="m 11710,11702 0,2063"
       id="path112"
       inkscape:connector-curvature="0" />
    <path
       d="m 12789,11702 -124,0"
       id="path114"
       inkscape:connector-curvature="0" />
    <path
       d="m 11834,11702 -124,0"
       id="path116"
       inkscape:connector-curvature="0" />
    <path
       d="m 12789,13765 -124,0"
       id="path118"
       inkscape:connector-curvature="0" />
    <path
       d="m 11834,13765 -124,0"
       id="path120"
       inkscape:connector-curvature="0" />
  </g>
  <g
     style="fill:#000000;fill-opacity:0;stroke:#000000;stroke-width:59.05509949;stroke-linecap:round;stroke-linejoin:round;stroke-opacity:1"
     id="g122"
     transform="translate(-1576.5255,-783.86909)">
    <path
       d="m 23000,15750 8000,0"
       id="path124"
       inkscape:connector-curvature="0" />
    <path
       d="m 31000,15750 0,-4000"
       id="path126"
       inkscape:connector-curvature="0" />
    <path
       d="m 31000,11750 -8000,0"
       id="path128"
       inkscape:connector-curvature="0" />
    <path
       d="m 23000,11750 0,4000"
       id="path130"
       inkscape:connector-curvature="0" />
    <path
       d="m 23500,15750 0,4000"
       id="path132"
       inkscape:connector-curvature="0" />
    <path
       d="m 23500,19750 1500,0"
       id="path134"
       inkscape:connector-curvature="0" />
    <path
       d="m 25000,19750 0,-4000"
       id="path136"
       inkscape:connector-curvature="0" />
    <path
       d="m 29000,15750 0,4000"
       id="path138"
       inkscape:connector-curvature="0" />
    <path
       d="m 30500,19750 0,-4000"
       id="path140"
       inkscape:connector-curvature="0" />
    <path
       d="m 29000,19750 1500,0"
       id="path142"
       inkscape:connector-curvature="0" />
    <path
       d="m 25000,11750 0,-4000"
       id="path144"
       inkscape:connector-curvature="0" />
    <path
       d="m 23500,7750 0,4000"
       id="path146"
       inkscape:connector-curvature="0" />
    <path
       d="m 25000,7750 -1500,0"
       id="path148"
       inkscape:connector-curvature="0" />
    <path
       d="m 30500,11750 0,-4000"
       id="path150"
       inkscape:connector-curvature="0" />
    <path
       d="m 29000,7750 0,4000"
       id="path152"
       inkscape:connector-curvature="0" />
    <path
       d="m 30500,7750 -1500,0"
       id="path154"
       inkscape:connector-curvature="0" />
  </g>
  <g
     style="fill:#000000;fill-opacity:0;stroke:#000000;stroke-width:47.24409866;stroke-linecap:round;stroke-linejoin:round;stroke-opacity:1"
     id="g156"
     transform="translate(-1576.5255,-783.86909)">
    <path
       d="m 21787,14539 0,-130"
       id="path158"
       inkscape:connector-curvature="0" />
    <path
       d="m 19212,14539 2575,0"
       id="path160"
       inkscape:connector-curvature="0" />
    <path
       d="m 19212,14409 0,130"
       id="path162"
       inkscape:connector-curvature="0" />
    <path
       d="m 21787,13460 0,130"
       id="path164"
       inkscape:connector-curvature="0" />
    <path
       d="m 19212,13460 2575,0"
       id="path166"
       inkscape:connector-curvature="0" />
    <path
       d="m 19212,13590 0,-130"
       id="path168"
       inkscape:connector-curvature="0" />
    <path
       d="m 9574,19135 -61,0"
       id="path170"
       inkscape:connector-curvature="0" />
    <path
       d="m 10486,19135 -61,0"
       id="path172"
       inkscape:connector-curvature="0" />
    <path
       d="m 9574.8,19340.2 a 590.551,590.551 0 0 0 0.07,819.7"
       id="path174"
       inkscape:connector-curvature="0" />
    <path
       d="m 10425.1,20159.9 a 590.551,590.551 0 0 0 0.1,-819.7"
       id="path176"
       inkscape:connector-curvature="0" />
    <path
       d="m 9513.58,19135.8 a 783.465,783.465 0 0 0 61.77,1272.6"
       id="path178"
       inkscape:connector-curvature="0" />
    <path
       d="m 10424.6,20408.4 a 783.465,783.465 0 0 0 61.8,-1272.6"
       id="path180"
       inkscape:connector-curvature="0" />
    <path
       d="m 6269,15043 4961,0"
       id="path182"
       inkscape:connector-curvature="0" />
    <path
       d="m 11230,15043 0,-4075"
       id="path184"
       inkscape:connector-curvature="0" />
    <path
       d="m 11230,10968 -374,0"
       id="path186"
       inkscape:connector-curvature="0" />
    <path
       d="m 10856,10968 98,-197"
       id="path188"
       inkscape:connector-curvature="0" />
    <path
       d="m 10954,10771 -748,0"
       id="path190"
       inkscape:connector-curvature="0" />
    <path
       d="m 10206,10771 -19,0"
       id="path192"
       inkscape:connector-curvature="0" />
    <path
       d="m 10187,10771 98,197"
       id="path194"
       inkscape:connector-curvature="0" />
    <path
       d="m 10285,10968 -2126,0"
       id="path196"
       inkscape:connector-curvature="0" />
    <path
       d="m 8159,10968 118,-197"
       id="path198"
       inkscape:connector-curvature="0" />
    <path
       d="m 8277,10771 -2008,0"
       id="path200"
       inkscape:connector-curvature="0" />
    <path
       d="m 6269,10771 0,4272"
       id="path202"
       inkscape:connector-curvature="0" />
    <path
       d="m 16537,10539 0,-130"
       id="path204"
       inkscape:connector-curvature="0" />
    <path
       d="m 13962,10539 2575,0"
       id="path206"
       inkscape:connector-curvature="0" />
    <path
       d="m 13962,10409 0,130"
       id="path208"
       inkscape:connector-curvature="0" />
    <path
       d="m 16537,9460 0,130"
       id="path210"
       inkscape:connector-curvature="0" />
    <path
       d="m 13962,9460 2575,0"
       id="path212"
       inkscape:connector-curvature="0" />
    <path
       d="m 13962,9590 0,-130"
       id="path214"
       inkscape:connector-curvature="0" />
    <path
       d="m 21787,12539 0,-130"
       id="path216"
       inkscape:connector-curvature="0" />
    <path
       d="m 19212,12539 2575,0"
       id="path218"
       inkscape:connector-curvature="0" />
    <path
       d="m 19212,12409 0,130"
       id="path220"
       inkscape:connector-curvature="0" />
    <path
       d="m 21787,11460 0,130"
       id="path222"
       inkscape:connector-curvature="0" />
    <path
       d="m 19212,11460 2575,0"
       id="path224"
       inkscape:connector-curvature="0" />
    <path
       d="m 19212,11590 0,-130"
       id="path226"
       inkscape:connector-curvature="0" />
    <path
       d="m 21787,8539 0,-130"
       id="path228"
       inkscape:connector-curvature="0" />
    <path
       d="m 19212,8539 2575,0"
       id="path230"
       inkscape:connector-curvature="0" />
    <path
       d="m 19212,8409 0,130"
       id="path232"
       inkscape:connector-curvature="0" />
    <path
       d="m 21787,7460 0,130"
       id="path234"
       inkscape:connector-curvature="0" />
    <path
       d="m 19212,7460 2575,0"
       id="path236"
       inkscape:connector-curvature="0" />
    <path
       d="m 19212,7590 0,-130"
       id="path238"
       inkscape:connector-curvature="0" />
    <path
       d="m 19212,9590 0,-130"
       id="path240"
       inkscape:connector-curvature="0" />
    <path
       d="m 19212,9460 2575,0"
       id="path242"
       inkscape:connector-curvature="0" />
    <path
       d="m 21787,9460 0,130"
       id="path244"
       inkscape:connector-curvature="0" />
    <path
       d="m 19212,10409 0,130"
       id="path246"
       inkscape:connector-curvature="0" />
    <path
       d="m 19212,10539 2575,0"
       id="path248"
       inkscape:connector-curvature="0" />
    <path
       d="m 21787,10539 0,-130"
       id="path250"
       inkscape:connector-curvature="0" />
    <path
       d="m 19212,15590 0,-130"
       id="path252"
       inkscape:connector-curvature="0" />
    <path
       d="m 19212,15460 2575,0"
       id="path254"
       inkscape:connector-curvature="0" />
    <path
       d="m 21787,15460 0,130"
       id="path256"
       inkscape:connector-curvature="0" />
    <path
       d="m 19212,16409 0,130"
       id="path258"
       inkscape:connector-curvature="0" />
    <path
       d="m 19212,16539 2575,0"
       id="path260"
       inkscape:connector-curvature="0" />
    <path
       d="m 21787,16539 0,-130"
       id="path262"
       inkscape:connector-curvature="0" />
    <path
       d="m 19212,19590 0,-130"
       id="path264"
       inkscape:connector-curvature="0" />
    <path
       d="m 19212,19460 2575,0"
       id="path266"
       inkscape:connector-curvature="0" />
    <path
       d="m 21787,19460 0,130"
       id="path268"
       inkscape:connector-curvature="0" />
    <path
       d="m 19212,20409 0,130"
       id="path270"
       inkscape:connector-curvature="0" />
    <path
       d="m 19212,20539 2575,0"
       id="path272"
       inkscape:connector-curvature="0" />
    <path
       d="m 21787,20539 0,-130"
       id="path274"
       inkscape:connector-curvature="0" />
    <path
       d="m 19212,17460 0,130"
       id="path276"
       inkscape:connector-curvature="0" />
    <path
       d="m 21787,17460 -2575,0"
       id="path278"
       inkscape:connector-curvature="0" />
    <path
       d="m 21787,17590 0,-130"
       id="path280"
       inkscape:connector-curvature="0" />
    <path
       d="m 19212,18539 0,-130"
       id="path282"
       inkscape:connector-curvature="0" />
    <path
       d="m 21787,18539 -2575,0"
       id="path284"
       inkscape:connector-curvature="0" />
    <path
       d="m 21787,18409 0,130"
       id="path286"
       inkscape:connector-curvature="0" />
    <path
       d="m 16537,20409 0,130"
       id="path288"
       inkscape:connector-curvature="0" />
    <path
       d="m 16537,20539 -2575,0"
       id="path290"
       inkscape:connector-curvature="0" />
    <path
       d="m 13962,20539 0,-130"
       id="path292"
       inkscape:connector-curvature="0" />
    <path
       d="m 16537,19590 0,-130"
       id="path294"
       inkscape:connector-curvature="0" />
    <path
       d="m 16537,19460 -2575,0"
       id="path296"
       inkscape:connector-curvature="0" />
    <path
       d="m 13962,19460 0,130"
       id="path298"
       inkscape:connector-curvature="0" />
    <path
       d="m 10037,16789 0,-130"
       id="path300"
       inkscape:connector-curvature="0" />
    <path
       d="m 7462,16789 2575,0"
       id="path302"
       inkscape:connector-curvature="0" />
    <path
       d="m 7462,16659 0,130"
       id="path304"
       inkscape:connector-curvature="0" />
    <path
       d="m 10037,15710 0,130"
       id="path306"
       inkscape:connector-curvature="0" />
    <path
       d="m 7462,15710 2575,0"
       id="path308"
       inkscape:connector-curvature="0" />
    <path
       d="m 7462,15840 0,-130"
       id="path310"
       inkscape:connector-curvature="0" />
  </g>
  <g
     style="fill:#000000;fill-opacity:0;stroke:#000000;stroke-width:59.05509949;stroke-linecap:round;stroke-linejoin:round;stroke-opacity:1"
     id="g312"
     transform="translate(-1576.5255,-783.86909)">
    <path
       d="m 10725,7409 56,19 94,0 37,-19 19,-19 19,-37 0,-38 -19,-37 -19,-19 -37,-19 -75,-19 -38,-18 -19,-19 -18,-38 0,-37 18,-38 19,-18 38,-19 93,0 57,19"
       id="path314"
       inkscape:connector-curvature="0" />
    <path
       d="m 11081,7034 94,394 75,-282 74,282 94,-394"
       id="path316"
       inkscape:connector-curvature="0" />
    <path
       d="m 11774,7428 -225,0"
       id="path318"
       inkscape:connector-curvature="0" />
    <path
       d="m 11662,7428 0,-394 -38,56 -37,38 -38,18"
       id="path320"
       inkscape:connector-curvature="0" />
    <path
       d="m 6428,18003 -188,131"
       id="path322"
       inkscape:connector-curvature="0" />
    <path
       d="m 6428,18228 -394,0 0,-150 19,-38 18,-19 38,-18 56,0 38,18 18,19 19,38 0,150"
       id="path324"
       inkscape:connector-curvature="0" />
    <path
       d="m 6428,17628 0,225"
       id="path326"
       inkscape:connector-curvature="0" />
    <path
       d="m 6428,17740 -394,0 56,38 38,37 18,38"
       id="path328"
       inkscape:connector-curvature="0" />
    <path
       d="m 6071,17478 -18,-19 -19,-38 0,-93 19,-38 18,-19 38,-18 37,0 57,18 225,225 0,-243"
       id="path330"
       inkscape:connector-curvature="0" />
    <path
       d="m 8459,20678 0,-394 94,0 56,19 37,37 19,38 19,75 0,56 -19,75 -19,37 -37,38 -56,19 -94,0"
       id="path332"
       inkscape:connector-curvature="0" />
    <path
       d="m 9059,20678 -225,0"
       id="path334"
       inkscape:connector-curvature="0" />
    <path
       d="m 8946,20678 0,-394 -37,56 -38,38 -37,18"
       id="path336"
       inkscape:connector-curvature="0" />
    <path
       d="m 15184,7278 -131,-188"
       id="path338"
       inkscape:connector-curvature="0" />
    <path
       d="m 14959,7278 0,-394 150,0 37,19 19,18 19,38 0,56 -19,38 -19,18 -37,19 -150,0"
       id="path340"
       inkscape:connector-curvature="0" />
    <path
       d="m 15315,6884 244,0 -131,150 56,0 37,19 19,18 19,38 0,94 -19,37 -19,19 -37,19 -113,0 -37,-19 -19,-19"
       id="path342"
       inkscape:connector-curvature="0" />
    <path
       d="m 16450,18451 0,319 18,37 19,19 38,19 75,0 37,-19 19,-19 19,-37 0,-319"
       id="path344"
       inkscape:connector-curvature="0" />
    <path
       d="m 17068,18845 -225,0"
       id="path346"
       inkscape:connector-curvature="0" />
    <path
       d="m 16956,18845 0,-394 -38,56 -37,38 -38,19"
       id="path348"
       inkscape:connector-curvature="0" />
    <path
       d="m 12434,18440 -19,19 -56,19 -38,0 -56,-19 -37,-38 -19,-37 -19,-75 0,-56 19,-75 19,-38 37,-37 56,-19 38,0 56,19 19,18"
       id="path350"
       inkscape:connector-curvature="0" />
    <path
       d="m 12584,18121 19,-18 37,-19 94,0 37,19 19,18 19,38 0,37 -19,57 -225,225 244,0"
       id="path352"
       inkscape:connector-curvature="0" />
    <path
       d="m 12434,10840 -19,19 -56,19 -38,0 -56,-19 -37,-38 -19,-37 -19,-75 0,-56 19,-75 19,-38 37,-37 56,-19 38,0 56,19 19,18"
       id="path354"
       inkscape:connector-curvature="0" />
    <path
       d="m 12809,10878 -225,0"
       id="path356"
       inkscape:connector-curvature="0" />
    <path
       d="m 12696,10878 0,-394 -37,56 -38,38 -37,18"
       id="path358"
       inkscape:connector-curvature="0" />
    <path
       d="m 26512,13928 0,-394 150,0 38,19 18,18 19,38 0,56 -19,38 -18,18 -38,19 -150,0"
       id="path360"
       inkscape:connector-curvature="0" />
    <path
       d="m 26906,13928 0,-394 150,0 37,19 19,18 19,38 0,56 -19,38 -19,18 -37,19 -150,0"
       id="path362"
       inkscape:connector-curvature="0" />
    <path
       d="m 27506,13928 -225,0"
       id="path364"
       inkscape:connector-curvature="0" />
    <path
       d="m 27393,13928 0,-394 -37,56 -38,38 -37,18"
       id="path366"
       inkscape:connector-curvature="0" />
    <path
       d="m 22234,15078 -131,-188"
       id="path368"
       inkscape:connector-curvature="0" />
    <path
       d="m 22009,15078 0,-394 150,0 37,19 19,18 19,38 0,56 -19,38 -19,18 -37,19 -150,0"
       id="path370"
       inkscape:connector-curvature="0" />
    <path
       d="m 22459,14853 -38,-19 -18,-19 -19,-37 0,-19 19,-38 18,-18 38,-19 75,0 37,19 19,18 19,38 0,19 -19,37 -19,19 -37,19 -75,0 -38,18 -18,19 -19,38 0,75 19,37 18,19 38,19 75,0 37,-19 19,-19 19,-37 0,-75 -19,-38 -19,-19 -37,-18"
       id="path372"
       inkscape:connector-curvature="0" />
    <path
       d="m 10959,20678 0,-394 94,0 56,19 37,37 19,38 19,75 0,56 -19,75 -19,37 -37,38 -56,19 -94,0"
       id="path374"
       inkscape:connector-curvature="0" />
    <path
       d="m 11334,20321 19,-18 37,-19 94,0 37,19 19,18 19,38 0,37 -19,57 -225,225 244,0"
       id="path376"
       inkscape:connector-curvature="0" />
    <path
       d="m 11118,10034 0,281 -18,56 -38,38 -56,19 -38,0"
       id="path378"
       inkscape:connector-curvature="0" />
    <path
       d="m 11512,10428 -225,0"
       id="path380"
       inkscape:connector-curvature="0" />
    <path
       d="m 11399,10428 0,-394 -37,56 -38,38 -37,18"
       id="path382"
       inkscape:connector-curvature="0" />
    <path
       d="m 26868,17284 0,281 -18,56 -38,38 -56,19 -38,0"
       id="path384"
       inkscape:connector-curvature="0" />
    <path
       d="m 27037,17321 19,-18 37,-19 94,0 37,19 19,18 19,38 0,37 -19,57 -225,225 244,0"
       id="path386"
       inkscape:connector-curvature="0" />
    <path
       d="m 12634,9578 -131,-188"
       id="path388"
       inkscape:connector-curvature="0" />
    <path
       d="m 12409,9578 0,-394 150,0 37,19 19,18 19,38 0,56 -19,38 -19,18 -37,19 -150,0"
       id="path390"
       inkscape:connector-curvature="0" />
    <path
       d="m 13009,9578 -225,0"
       id="path392"
       inkscape:connector-curvature="0" />
    <path
       d="m 12896,9578 0,-394 -37,56 -38,38 -37,18"
       id="path394"
       inkscape:connector-curvature="0" />
    <path
       d="m 20434,11245 -131,-188"
       id="path396"
       inkscape:connector-curvature="0" />
    <path
       d="m 20209,11245 0,-394 150,0 37,19 19,18 19,38 0,56 -19,38 -19,18 -37,19 -150,0"
       id="path398"
       inkscape:connector-curvature="0" />
    <path
       d="m 20584,10888 19,-18 37,-19 94,0 37,19 19,18 19,38 0,37 -19,57 -225,225 244,0"
       id="path400"
       inkscape:connector-curvature="0" />
    <path
       d="m 20434,7245 -131,-188"
       id="path402"
       inkscape:connector-curvature="0" />
    <path
       d="m 20209,7245 0,-394 150,0 37,19 19,18 19,38 0,56 -19,38 -19,18 -37,19 -150,0"
       id="path404"
       inkscape:connector-curvature="0" />
    <path
       d="m 20771,6982 0,263"
       id="path406"
       inkscape:connector-curvature="0" />
    <path
       d="m 20678,6832 -94,281 244,0"
       id="path408"
       inkscape:connector-curvature="0" />
    <path
       d="m 20434,9245 -131,-188"
       id="path410"
       inkscape:connector-curvature="0" />
    <path
       d="m 20209,9245 0,-394 150,0 37,19 19,18 19,38 0,56 -19,38 -19,18 -37,19 -150,0"
       id="path412"
       inkscape:connector-curvature="0" />
    <path
       d="m 20790,8851 -187,0 -19,187 19,-18 37,-19 94,0 37,19 19,18 19,38 0,94 -19,37 -19,19 -37,19 -94,0 -37,-19 -19,-19"
       id="path414"
       inkscape:connector-curvature="0" />
    <path
       d="m 20434,15245 -131,-188"
       id="path416"
       inkscape:connector-curvature="0" />
    <path
       d="m 20209,15245 0,-394 150,0 37,19 19,18 19,38 0,56 -19,38 -19,18 -37,19 -150,0"
       id="path418"
       inkscape:connector-curvature="0" />
    <path
       d="m 20771,14851 -75,0 -37,19 -19,18 -37,57 -19,75 0,150 19,37 18,19 38,19 75,0 37,-19 19,-19 19,-37 0,-94 -19,-38 -19,-18 -37,-19 -75,0 -38,19 -18,18 -19,38"
       id="path420"
       inkscape:connector-curvature="0" />
    <path
       d="m 20434,19278 -131,-188"
       id="path422"
       inkscape:connector-curvature="0" />
    <path
       d="m 20209,19278 0,-394 150,0 37,19 19,18 19,38 0,56 -19,38 -19,18 -37,19 -150,0"
       id="path424"
       inkscape:connector-curvature="0" />
    <path
       d="m 20565,18884 263,0 -169,394"
       id="path426"
       inkscape:connector-curvature="0" />
    <path
       d="m 20434,17278 -131,-188"
       id="path428"
       inkscape:connector-curvature="0" />
    <path
       d="m 20209,17278 0,-394 150,0 37,19 19,18 19,38 0,56 -19,38 -19,18 -37,19 -150,0"
       id="path430"
       inkscape:connector-curvature="0" />
    <path
       d="m 20621,17278 75,0 38,-19 19,-19 37,-56 19,-75 0,-150 -19,-38 -19,-18 -37,-19 -75,0 -38,19 -18,18 -19,38 0,94 19,37 18,19 38,19 75,0 37,-19 19,-19 19,-37"
       id="path432"
       inkscape:connector-curvature="0" />
    <path
       d="m 12246,19928 -131,-188"
       id="path434"
       inkscape:connector-curvature="0" />
    <path
       d="m 12021,19928 0,-394 150,0 38,19 19,18 18,38 0,56 -18,38 -19,18 -38,19 -150,0"
       id="path436"
       inkscape:connector-curvature="0" />
    <path
       d="m 12621,19928 -225,0"
       id="path438"
       inkscape:connector-curvature="0" />
    <path
       d="m 12509,19928 0,-394 -38,56 -37,38 -38,18"
       id="path440"
       inkscape:connector-curvature="0" />
    <path
       d="m 12865,19534 38,0 37,19 19,18 19,38 18,75 0,94 -18,75 -19,37 -19,19 -37,19 -38,0 -37,-19 -19,-19 -19,-37 -19,-75 0,-94 19,-75 19,-38 19,-18 37,-19"
       id="path442"
       inkscape:connector-curvature="0" />
    <path
       d="m 6428,16503 -188,131"
       id="path444"
       inkscape:connector-curvature="0" />
    <path
       d="m 6428,16728 -394,0 0,-150 19,-38 18,-19 38,-18 56,0 38,18 18,19 19,38 0,150"
       id="path446"
       inkscape:connector-curvature="0" />
    <path
       d="m 6428,16128 0,225"
       id="path448"
       inkscape:connector-curvature="0" />
    <path
       d="m 6428,16240 -394,0 56,38 38,37 18,38"
       id="path450"
       inkscape:connector-curvature="0" />
    <path
       d="m 6428,15753 0,225"
       id="path452"
       inkscape:connector-curvature="0" />
    <path
       d="m 6428,15865 -394,0 56,38 38,37 18,38"
       id="path454"
       inkscape:connector-curvature="0" />
  </g>
</svg>
