M48
;DRILL file {KiCad (5.0.1)-3} date 23/11/2018 12:14:07
;FORMAT={-:-/ absolute / metric / decimal}
FMAT,2
METRIC,TZ
T1C0.400
T2C0.800
T3C0.800
%
G90
G05
M71
T1
X184.6Y-86.
X184.8Y-93.8
X189.2Y-81.
X189.4Y-92.2
X198.6Y-86.
X198.6Y-111.4
T2
X192.Y-116.2
X192.Y-123.82
X201.25Y-71.5
X201.25Y-79.12
X180.Y-115.5
X180.Y-120.5
X191.7Y-83.5
X191.7Y-86.
X191.7Y-88.5
X195.Y-83.5
X195.Y-86.
X195.Y-88.5
X180.25Y-82.75
X180.25Y-90.37
X188.75Y-71.5
X191.29Y-71.5
X185.Y-71.5
X185.Y-79.12
X191.Y-60.25
X196.Y-60.25
X180.25Y-104.5
X180.25Y-112.12
X202.4Y-106.
X202.4Y-113.62
X185.4Y-115.38
X185.4Y-123.
X202.4Y-83.18
X202.4Y-90.8
X194.96Y-71.5
X197.5Y-71.5
X188.8Y-96.8
X188.8Y-99.34
X188.8Y-101.88
X188.8Y-104.42
X188.8Y-106.96
X188.8Y-109.5
X188.8Y-112.04
X196.42Y-96.8
X196.42Y-99.34
X196.42Y-101.88
X196.42Y-104.42
X196.42Y-106.96
X196.42Y-109.5
X196.42Y-112.04
X174.75Y-113.13
X174.75Y-120.75
X175.Y-107.
X180.25Y-93.75
X180.25Y-101.37
X202.4Y-94.58
X202.4Y-102.2
T3
X184.8Y-93.6
X198.8Y-86.
X189.4Y-92.2
X198.8Y-111.8
X184.6Y-86.
X189.4Y-81.2
T0
M30
