G04 #@! TF.GenerationSoftware,KiCad,Pcbnew,(5.0.1)-4*
G04 #@! TF.CreationDate,2019-02-25T19:27:26-03:00*
G04 #@! TF.ProjectId,ponta-de-prova-logica-simplificada,706F6E74612D64652D70726F76612D6C,02*
G04 #@! TF.SameCoordinates,Original*
G04 #@! TF.FileFunction,Copper,L2,Bot,Signal*
G04 #@! TF.FilePolarity,Positive*
%FSLAX46Y46*%
G04 Gerber Fmt 4.6, Leading zero omitted, Abs format (unit mm)*
G04 Created by KiCad (PCBNEW (5.0.1)-4) date 25-02-2019 19:27:26*
%MOMM*%
%LPD*%
G01*
G04 APERTURE LIST*
G04 #@! TA.AperFunction,ComponentPad*
%ADD10O,3.000000X2.000000*%
G04 #@! TD*
G04 #@! TA.AperFunction,ComponentPad*
%ADD11O,3.000000X1.600000*%
G04 #@! TD*
G04 #@! TA.AperFunction,ComponentPad*
%ADD12R,3.000000X1.600000*%
G04 #@! TD*
G04 #@! TA.AperFunction,ComponentPad*
%ADD13O,1.600000X3.000000*%
G04 #@! TD*
G04 #@! TA.AperFunction,ComponentPad*
%ADD14C,3.000000*%
G04 #@! TD*
G04 #@! TA.AperFunction,ComponentPad*
%ADD15R,2.000000X2.000000*%
G04 #@! TD*
G04 #@! TA.AperFunction,ComponentPad*
%ADD16O,3.960000X1.980000*%
G04 #@! TD*
G04 #@! TA.AperFunction,ComponentPad*
%ADD17R,3.960000X1.980000*%
G04 #@! TD*
G04 #@! TA.AperFunction,ComponentPad*
%ADD18C,1.998980*%
G04 #@! TD*
G04 #@! TA.AperFunction,ComponentPad*
%ADD19O,1.400000X3.000000*%
G04 #@! TD*
G04 #@! TA.AperFunction,ComponentPad*
%ADD20R,1.400000X3.000000*%
G04 #@! TD*
G04 #@! TA.AperFunction,ViaPad*
%ADD21C,2.000000*%
G04 #@! TD*
G04 #@! TA.AperFunction,Conductor*
%ADD22C,0.250000*%
G04 #@! TD*
G04 #@! TA.AperFunction,Conductor*
%ADD23C,0.500000*%
G04 #@! TD*
G04 #@! TA.AperFunction,Conductor*
%ADD24C,0.254000*%
G04 #@! TD*
G04 APERTURE END LIST*
D10*
G04 #@! TO.P,R3,1*
G04 #@! TO.N,Net-(R2-Pad2)*
X158115000Y-86360000D03*
G04 #@! TO.P,R3,2*
G04 #@! TO.N,Net-(R3-Pad2)*
X150495000Y-86360000D03*
G04 #@! TD*
D11*
G04 #@! TO.P,U1,14*
G04 #@! TO.N,GND*
X150495000Y-111125000D03*
G04 #@! TO.P,U1,7*
G04 #@! TO.N,Net-(SW1-Pad2)*
X158115000Y-95885000D03*
G04 #@! TO.P,U1,13*
G04 #@! TO.N,GND*
X150495000Y-108585000D03*
G04 #@! TO.P,U1,6*
G04 #@! TO.N,Net-(C1-Pad1)*
X158115000Y-98425000D03*
G04 #@! TO.P,U1,12*
G04 #@! TO.N,GND*
X150495000Y-106045000D03*
G04 #@! TO.P,U1,5*
G04 #@! TO.N,Net-(C1-Pad1)*
X158115000Y-100965000D03*
G04 #@! TO.P,U1,11*
G04 #@! TO.N,GND*
X150495000Y-103505000D03*
G04 #@! TO.P,U1,4*
G04 #@! TO.N,Net-(R10-Pad1)*
X158115000Y-103505000D03*
G04 #@! TO.P,U1,10*
G04 #@! TO.N,GND*
X150495000Y-100965000D03*
G04 #@! TO.P,U1,3*
G04 #@! TO.N,VCC*
X158115000Y-106045000D03*
G04 #@! TO.P,U1,9*
G04 #@! TO.N,GND*
X150495000Y-98425000D03*
G04 #@! TO.P,U1,2*
G04 #@! TO.N,Net-(R12-Pad2)*
X158115000Y-108585000D03*
G04 #@! TO.P,U1,8*
G04 #@! TO.N,GND*
X150495000Y-95885000D03*
D12*
G04 #@! TO.P,U1,1*
G04 #@! TO.N,Net-(R11-Pad2)*
X158115000Y-111125000D03*
G04 #@! TD*
D13*
G04 #@! TO.P,C2,2*
G04 #@! TO.N,GND*
X146685000Y-104855000D03*
G04 #@! TO.P,C2,1*
G04 #@! TO.N,VCC*
X146685000Y-109855000D03*
G04 #@! TD*
G04 #@! TO.P,C1,1*
G04 #@! TO.N,Net-(C1-Pad1)*
X146685000Y-95885000D03*
G04 #@! TO.P,C1,2*
G04 #@! TO.N,GND*
X146685000Y-100885000D03*
G04 #@! TD*
D14*
G04 #@! TO.P,PP1,1*
G04 #@! TO.N,N/C*
X177165000Y-111125000D03*
G04 #@! TO.P,PP1,2*
X191135000Y-111125000D03*
G04 #@! TO.P,PP1,3*
X177165000Y-90805000D03*
G04 #@! TO.P,PP1,4*
X191135000Y-90805000D03*
G04 #@! TD*
D10*
G04 #@! TO.P,R8,2*
G04 #@! TO.N,Net-(R8-Pad2)*
X171450000Y-101600000D03*
G04 #@! TO.P,R8,1*
G04 #@! TO.N,Net-(C1-Pad1)*
X163830000Y-101600000D03*
G04 #@! TD*
D15*
G04 #@! TO.P,D1,1*
G04 #@! TO.N,Net-(D1-Pad1)*
X134620000Y-114300000D03*
D10*
G04 #@! TO.P,D1,2*
G04 #@! TO.N,VCC*
X134620000Y-116840000D03*
G04 #@! TD*
G04 #@! TO.P,D2,2*
G04 #@! TO.N,VCC*
X140970000Y-116840000D03*
D15*
G04 #@! TO.P,D2,1*
G04 #@! TO.N,Net-(D2-Pad1)*
X140970000Y-114300000D03*
G04 #@! TD*
D16*
G04 #@! TO.P,J1,2*
G04 #@! TO.N,GND*
X137795000Y-94695000D03*
D17*
G04 #@! TO.P,J1,1*
G04 #@! TO.N,VCC*
X137795000Y-99695000D03*
G04 #@! TD*
D18*
G04 #@! TO.P,J2,1*
G04 #@! TO.N,Net-(J2-Pad1)*
X184150000Y-112395000D03*
G04 #@! TD*
D10*
G04 #@! TO.P,R1,2*
G04 #@! TO.N,Net-(R1-Pad2)*
X158115000Y-91440000D03*
G04 #@! TO.P,R1,1*
G04 #@! TO.N,VCC*
X150495000Y-91440000D03*
G04 #@! TD*
G04 #@! TO.P,R2,2*
G04 #@! TO.N,Net-(R2-Pad2)*
X171450000Y-96520000D03*
G04 #@! TO.P,R2,1*
G04 #@! TO.N,Net-(R1-Pad2)*
X163830000Y-96520000D03*
G04 #@! TD*
G04 #@! TO.P,R4,2*
G04 #@! TO.N,Net-(R4-Pad2)*
X171450000Y-86360000D03*
G04 #@! TO.P,R4,1*
G04 #@! TO.N,Net-(R3-Pad2)*
X163830000Y-86360000D03*
G04 #@! TD*
G04 #@! TO.P,R5,1*
G04 #@! TO.N,Net-(R4-Pad2)*
X163830000Y-91440000D03*
G04 #@! TO.P,R5,2*
G04 #@! TO.N,GND*
X171450000Y-91440000D03*
G04 #@! TD*
G04 #@! TO.P,R6,1*
G04 #@! TO.N,Net-(C1-Pad1)*
X163830000Y-106680000D03*
G04 #@! TO.P,R6,2*
G04 #@! TO.N,Net-(J2-Pad1)*
X171450000Y-106680000D03*
G04 #@! TD*
G04 #@! TO.P,R7,1*
G04 #@! TO.N,VCC*
X163830000Y-116840000D03*
G04 #@! TO.P,R7,2*
G04 #@! TO.N,Net-(C1-Pad1)*
X171450000Y-116840000D03*
G04 #@! TD*
G04 #@! TO.P,R9,2*
G04 #@! TO.N,GND*
X163830000Y-111760000D03*
G04 #@! TO.P,R9,1*
G04 #@! TO.N,Net-(R8-Pad2)*
X171450000Y-111760000D03*
G04 #@! TD*
G04 #@! TO.P,R10,1*
G04 #@! TO.N,Net-(R10-Pad1)*
X158115000Y-116840000D03*
G04 #@! TO.P,R10,2*
G04 #@! TO.N,GND*
X150495000Y-116840000D03*
G04 #@! TD*
G04 #@! TO.P,R11,2*
G04 #@! TO.N,Net-(R11-Pad2)*
X141605000Y-105410000D03*
G04 #@! TO.P,R11,1*
G04 #@! TO.N,Net-(D1-Pad1)*
X133985000Y-105410000D03*
G04 #@! TD*
G04 #@! TO.P,R12,2*
G04 #@! TO.N,Net-(R12-Pad2)*
X141605000Y-110490000D03*
G04 #@! TO.P,R12,1*
G04 #@! TO.N,Net-(D2-Pad1)*
X133985000Y-110490000D03*
G04 #@! TD*
D19*
G04 #@! TO.P,SW1,1*
G04 #@! TO.N,Net-(R2-Pad2)*
X140335000Y-88900000D03*
G04 #@! TO.P,SW1,2*
G04 #@! TO.N,Net-(SW1-Pad2)*
X137835000Y-88900000D03*
D20*
G04 #@! TO.P,SW1,3*
G04 #@! TO.N,Net-(R1-Pad2)*
X135335000Y-88900000D03*
D19*
G04 #@! TO.P,SW1,4*
G04 #@! TO.N,Net-(R4-Pad2)*
X140335000Y-85600000D03*
G04 #@! TO.P,SW1,5*
G04 #@! TO.N,Net-(R10-Pad1)*
X137835000Y-85600000D03*
G04 #@! TO.P,SW1,6*
G04 #@! TO.N,Net-(R3-Pad2)*
X135335000Y-85600000D03*
G04 #@! TD*
D21*
G04 #@! TO.N,Net-(R1-Pad2)*
X171450000Y-99060000D03*
X163830000Y-99060000D03*
X184150000Y-86360000D03*
X184150000Y-93980000D03*
G04 #@! TO.N,Net-(R10-Pad1)*
X161290000Y-114300000D03*
X161290000Y-93980000D03*
X161290000Y-102870000D03*
X161290000Y-105410000D03*
X143764000Y-88392000D03*
X160528000Y-88392000D03*
G04 #@! TO.N,Net-(R11-Pad2)*
X144780000Y-114300000D03*
X154305000Y-114300000D03*
G04 #@! TD*
D22*
G04 #@! TO.N,Net-(C1-Pad1)*
X171450000Y-116840000D02*
X170950000Y-116840000D01*
X170180000Y-114280000D02*
X170180000Y-114320000D01*
X163830000Y-107930000D02*
X170180000Y-114280000D01*
X163830000Y-106680000D02*
X163830000Y-107930000D01*
X170180000Y-114320000D02*
X170160000Y-114300000D01*
X171450000Y-115590000D02*
X171450000Y-116840000D01*
X170180000Y-114320000D02*
X171450000Y-115590000D01*
X163830000Y-105430000D02*
X163830000Y-101600000D01*
X163830000Y-106680000D02*
X163830000Y-105430000D01*
X159865000Y-100965000D02*
X158115000Y-100965000D01*
X162695000Y-100965000D02*
X159865000Y-100965000D01*
X163330000Y-101600000D02*
X162695000Y-100965000D01*
X163830000Y-101600000D02*
X163330000Y-101600000D01*
X158115000Y-100965000D02*
X158115000Y-98425000D01*
X156365000Y-98425000D02*
X158115000Y-98425000D01*
X151765000Y-93980000D02*
X156365000Y-98425000D01*
X149225000Y-93980000D02*
X151765000Y-93980000D01*
X146685000Y-95885000D02*
X147735000Y-95885000D01*
X147735000Y-95885000D02*
X149225000Y-93980000D01*
G04 #@! TO.N,Net-(D1-Pad1)*
X132109990Y-113039990D02*
X132109990Y-107285010D01*
X133370000Y-114300000D02*
X132109990Y-113039990D01*
X134620000Y-114300000D02*
X133370000Y-114300000D01*
X132109990Y-107285010D02*
X133985000Y-105410000D01*
G04 #@! TO.N,Net-(D2-Pad1)*
X140970000Y-113050000D02*
X140970000Y-114300000D01*
X138410000Y-110490000D02*
X140970000Y-113050000D01*
X133985000Y-110490000D02*
X138410000Y-110490000D01*
G04 #@! TO.N,Net-(R1-Pad2)*
X163830000Y-99060000D02*
X163830000Y-97155000D01*
X163830000Y-97155000D02*
X163830000Y-96520000D01*
X178435000Y-99060000D02*
X171450000Y-99060000D01*
X179705000Y-98425000D02*
X179070000Y-99060000D01*
X179070000Y-99060000D02*
X178435000Y-99060000D01*
X134385000Y-88900000D02*
X133350000Y-87865000D01*
X134620000Y-83185000D02*
X177800000Y-83185000D01*
X135335000Y-88900000D02*
X134385000Y-88900000D01*
X133350000Y-84455000D02*
X134620000Y-83185000D01*
X133350000Y-87865000D02*
X133350000Y-84455000D01*
X177800000Y-83185000D02*
X182880000Y-83185000D01*
X182880000Y-83185000D02*
X184150000Y-84455000D01*
X184150000Y-84455000D02*
X184150000Y-86360000D01*
X184150000Y-93980000D02*
X179705000Y-98425000D01*
X161819999Y-96520000D02*
X163830000Y-96520000D01*
X158115000Y-91440000D02*
X158115000Y-92815001D01*
X158115000Y-92815001D02*
X161819999Y-96520000D01*
G04 #@! TO.N,Net-(R3-Pad2)*
X135335000Y-84800000D02*
X136410010Y-83724990D01*
X136410010Y-83724990D02*
X142934990Y-83724990D01*
X135335000Y-85600000D02*
X135335000Y-84800000D01*
X145570000Y-86360000D02*
X150495000Y-86360000D01*
X142934990Y-83724990D02*
X145570000Y-86360000D01*
X163830000Y-84455000D02*
X163830000Y-86360000D01*
X163195000Y-83820000D02*
X163830000Y-84455000D01*
X153535000Y-83820000D02*
X163195000Y-83820000D01*
X150995000Y-86360000D02*
X153535000Y-83820000D01*
X150495000Y-86360000D02*
X150995000Y-86360000D01*
G04 #@! TO.N,Net-(R4-Pad2)*
X167620000Y-91440000D02*
X171450000Y-87610000D01*
X171450000Y-87610000D02*
X171450000Y-86360000D01*
X163830000Y-91440000D02*
X167620000Y-91440000D01*
X163830000Y-91440000D02*
X163330000Y-91440000D01*
X163830000Y-88951878D02*
X163830000Y-90190000D01*
X161290000Y-86411878D02*
X163830000Y-88951878D01*
X161290000Y-85725000D02*
X161290000Y-86411878D01*
X144020000Y-85600000D02*
X146155010Y-87735010D01*
X163830000Y-90190000D02*
X163830000Y-91440000D01*
X140335000Y-85600000D02*
X144020000Y-85600000D01*
X146155010Y-87735010D02*
X152294990Y-87735010D01*
X152294990Y-87735010D02*
X155575000Y-84455000D01*
X155575000Y-84455000D02*
X160020000Y-84455000D01*
X160020000Y-84455000D02*
X161290000Y-85725000D01*
G04 #@! TO.N,Net-(R8-Pad2)*
X170950000Y-101600000D02*
X171450000Y-101600000D01*
X171450000Y-111760000D02*
X170950000Y-111760000D01*
X170950000Y-111760000D02*
X168910000Y-109720000D01*
X168910000Y-109720000D02*
X168910000Y-103640000D01*
X168910000Y-103640000D02*
X170950000Y-101600000D01*
D23*
G04 #@! TO.N,VCC*
X135315000Y-99695000D02*
X131445000Y-103565000D01*
X138970000Y-116840000D02*
X140970000Y-116840000D01*
X131445000Y-114165000D02*
X134120000Y-116840000D01*
X134120000Y-116840000D02*
X138970000Y-116840000D01*
X131445000Y-103565000D02*
X131445000Y-114165000D01*
X135255000Y-99695000D02*
X137795000Y-99695000D01*
X140970000Y-116840000D02*
X141470000Y-116840000D01*
X163830000Y-114619998D02*
X161700002Y-112490000D01*
X163830000Y-116840000D02*
X163830000Y-114619998D01*
X161700002Y-112490000D02*
X161700002Y-108930002D01*
X161700002Y-108930002D02*
X158815000Y-106045000D01*
X158815000Y-106045000D02*
X158115000Y-106045000D01*
X155575000Y-106045000D02*
X158115000Y-106045000D01*
X146685000Y-112395000D02*
X147320000Y-113030000D01*
X146685000Y-109855000D02*
X146685000Y-112395000D01*
X147320000Y-113030000D02*
X151765000Y-113030000D01*
X151765000Y-113030000D02*
X154305000Y-110490000D01*
X154305000Y-110490000D02*
X154305000Y-107315000D01*
X154305000Y-107315000D02*
X155575000Y-106045000D01*
X159925000Y-112490000D02*
X161700002Y-112490000D01*
X158115000Y-114300000D02*
X159925000Y-112490000D01*
X157480000Y-114300000D02*
X158115000Y-114300000D01*
X147320000Y-116840000D02*
X149225000Y-114935000D01*
X140970000Y-116840000D02*
X147320000Y-116840000D01*
X149225000Y-114935000D02*
X152400000Y-114935000D01*
X152400000Y-114935000D02*
X153670000Y-116840000D01*
X153670000Y-116840000D02*
X154940000Y-116840000D01*
X154940000Y-116840000D02*
X157480000Y-114300000D01*
X148495000Y-91440000D02*
X150495000Y-91440000D01*
X147040000Y-91440000D02*
X148495000Y-91440000D01*
X138785000Y-99695000D02*
X147040000Y-91440000D01*
X137795000Y-99695000D02*
X138785000Y-99695000D01*
D22*
G04 #@! TO.N,Net-(J2-Pad1)*
X177800000Y-106680000D02*
X171450000Y-106680000D01*
X184150000Y-112395000D02*
X184150000Y-108585000D01*
X184150000Y-108585000D02*
X182245000Y-106680000D01*
X182245000Y-106680000D02*
X177800000Y-106680000D01*
G04 #@! TO.N,Net-(R2-Pad2)*
X140335000Y-88900000D02*
X140970000Y-88900000D01*
X140970000Y-88900000D02*
X141710001Y-88159999D01*
X145872879Y-88159999D02*
X145977880Y-88265000D01*
X145977880Y-88235020D02*
X145947900Y-88235020D01*
X145977880Y-88265000D02*
X145977880Y-88235020D01*
X145947900Y-88235020D02*
X144572888Y-86860008D01*
X144572888Y-86860008D02*
X144072880Y-86360000D01*
X144072880Y-86360000D02*
X143510000Y-86360000D01*
X143510000Y-86360000D02*
X141605000Y-88265000D01*
X159865000Y-86360000D02*
X158115000Y-86360000D01*
X160531002Y-86360000D02*
X159865000Y-86360000D01*
X171450000Y-96520000D02*
X169545000Y-96520000D01*
X169545000Y-96520000D02*
X167640000Y-93345000D01*
X167640000Y-93345000D02*
X163195000Y-93345000D01*
X163195000Y-93345000D02*
X161925000Y-92075000D01*
X161925000Y-92075000D02*
X161925000Y-87753998D01*
X161925000Y-87753998D02*
X160531002Y-86360000D01*
X156845000Y-87630000D02*
X158115000Y-86360000D01*
X145977880Y-88265000D02*
X156210000Y-88265000D01*
X156210000Y-88265000D02*
X156845000Y-87630000D01*
G04 #@! TO.N,Net-(R10-Pad1)*
X161290000Y-102870000D02*
X161290000Y-105410000D01*
X161290000Y-102870000D02*
X160655000Y-103505000D01*
X160655000Y-103505000D02*
X158115000Y-103505000D01*
X161155000Y-114300000D02*
X161290000Y-114300000D01*
X158615000Y-116840000D02*
X161155000Y-114300000D01*
X158115000Y-116840000D02*
X158615000Y-116840000D01*
X138785000Y-85600000D02*
X137835000Y-85600000D01*
X139065000Y-85880000D02*
X138785000Y-85600000D01*
X143764000Y-88392000D02*
X142240000Y-91440000D01*
X142240000Y-91440000D02*
X139700000Y-91440000D01*
X139700000Y-91440000D02*
X139065000Y-90805000D01*
X139065000Y-90805000D02*
X139065000Y-85880000D01*
X161290000Y-92565787D02*
X160528000Y-91803787D01*
X161290000Y-93980000D02*
X161290000Y-92565787D01*
X160528000Y-91803787D02*
X160528000Y-91694000D01*
X160528000Y-91694000D02*
X160528000Y-88392000D01*
G04 #@! TO.N,Net-(R11-Pad2)*
X142105000Y-105410000D02*
X141605000Y-105410000D01*
X144780000Y-108085000D02*
X142105000Y-105410000D01*
X144780000Y-108085000D02*
X144780000Y-114300000D01*
X157480000Y-111125000D02*
X158115000Y-111125000D01*
X154305000Y-114300000D02*
X157480000Y-111125000D01*
G04 #@! TO.N,Net-(R12-Pad2)*
X157415000Y-108585000D02*
X158115000Y-108585000D01*
X152400000Y-113665000D02*
X157415000Y-108585000D01*
X148590000Y-113665000D02*
X152400000Y-113665000D01*
X141605000Y-111740000D02*
X142875000Y-113010000D01*
X141605000Y-110490000D02*
X141605000Y-111740000D01*
X142875000Y-113010000D02*
X142875000Y-115570000D01*
X142875000Y-115570000D02*
X143510000Y-116205000D01*
X143510000Y-116205000D02*
X146050000Y-116205000D01*
X146050000Y-116205000D02*
X148590000Y-113665000D01*
G04 #@! TO.N,Net-(SW1-Pad2)*
X137835000Y-88900000D02*
X137835000Y-90845000D01*
X137835000Y-90845000D02*
X139065000Y-92075000D01*
X142312120Y-92075000D02*
X145487120Y-88900000D01*
X139065000Y-92075000D02*
X142312120Y-92075000D01*
X158115000Y-94835000D02*
X155575000Y-92295000D01*
X158115000Y-95885000D02*
X158115000Y-94835000D01*
X155575000Y-92295000D02*
X155575000Y-90170000D01*
X155575000Y-90170000D02*
X154305000Y-88900000D01*
X154305000Y-88900000D02*
X152400000Y-88900000D01*
X152400000Y-88900000D02*
X151765000Y-88900000D01*
X145487120Y-88900000D02*
X151765000Y-88900000D01*
X151765000Y-88900000D02*
X152146000Y-88900000D01*
G04 #@! TD*
D24*
G04 #@! TO.N,GND*
G36*
X192229967Y-82028552D02*
X192661029Y-82199222D01*
X193036108Y-82471732D01*
X193331633Y-82828960D01*
X193529032Y-83248454D01*
X193622019Y-83735913D01*
X193625001Y-83830792D01*
X193625000Y-118066907D01*
X193561448Y-118569967D01*
X193390777Y-119001031D01*
X193118267Y-119376109D01*
X192761040Y-119671633D01*
X192341546Y-119869032D01*
X191854087Y-119962019D01*
X191759240Y-119965000D01*
X132123093Y-119965000D01*
X131620033Y-119901448D01*
X131188969Y-119730777D01*
X130813891Y-119458267D01*
X130518367Y-119101040D01*
X130320968Y-118681546D01*
X130227981Y-118194087D01*
X130225000Y-118099240D01*
X130225000Y-103565000D01*
X130542663Y-103565000D01*
X130560000Y-103652161D01*
X130560001Y-114077835D01*
X130542663Y-114165000D01*
X130611348Y-114510309D01*
X130757576Y-114729154D01*
X130757578Y-114729156D01*
X130806952Y-114803049D01*
X130880845Y-114852423D01*
X132521897Y-116493476D01*
X132452969Y-116840000D01*
X132579864Y-117477945D01*
X132941231Y-118018769D01*
X133482055Y-118380136D01*
X133958969Y-118475000D01*
X135281031Y-118475000D01*
X135757945Y-118380136D01*
X136298769Y-118018769D01*
X136495059Y-117725000D01*
X139094941Y-117725000D01*
X139291231Y-118018769D01*
X139832055Y-118380136D01*
X140308969Y-118475000D01*
X141631031Y-118475000D01*
X142107945Y-118380136D01*
X142648769Y-118018769D01*
X142845059Y-117725000D01*
X147232839Y-117725000D01*
X147320000Y-117742337D01*
X147407161Y-117725000D01*
X147407165Y-117725000D01*
X147665310Y-117673652D01*
X147958049Y-117478049D01*
X148007425Y-117404153D01*
X148444576Y-116967002D01*
X148524222Y-116967002D01*
X148404876Y-117220434D01*
X148435856Y-117348355D01*
X148749078Y-117906317D01*
X149251980Y-118301942D01*
X149868000Y-118475000D01*
X150368000Y-118475000D01*
X150368000Y-116967000D01*
X150348000Y-116967000D01*
X150348000Y-116713000D01*
X150368000Y-116713000D01*
X150368000Y-116693000D01*
X150622000Y-116693000D01*
X150622000Y-116713000D01*
X150642000Y-116713000D01*
X150642000Y-116967000D01*
X150622000Y-116967000D01*
X150622000Y-118475000D01*
X151122000Y-118475000D01*
X151738020Y-118301942D01*
X152240922Y-117906317D01*
X152554144Y-117348355D01*
X152585124Y-117220434D01*
X152465778Y-116967002D01*
X152630000Y-116967002D01*
X152630000Y-116875458D01*
X152836254Y-117184839D01*
X152836348Y-117185310D01*
X152933514Y-117330729D01*
X152981985Y-117403435D01*
X152982319Y-117403769D01*
X153031951Y-117478049D01*
X153105454Y-117527163D01*
X153167903Y-117589742D01*
X153250405Y-117624016D01*
X153324690Y-117673652D01*
X153411402Y-117690900D01*
X153493037Y-117724814D01*
X153582371Y-117724908D01*
X153582835Y-117725000D01*
X153670505Y-117725000D01*
X153845111Y-117725183D01*
X153845554Y-117725000D01*
X154852839Y-117725000D01*
X154940000Y-117742337D01*
X155027161Y-117725000D01*
X155027165Y-117725000D01*
X155285310Y-117673652D01*
X155578049Y-117478049D01*
X155627425Y-117404153D01*
X155988386Y-117043192D01*
X156074864Y-117477945D01*
X156436231Y-118018769D01*
X156977055Y-118380136D01*
X157453969Y-118475000D01*
X158776031Y-118475000D01*
X159252945Y-118380136D01*
X159793769Y-118018769D01*
X160155136Y-117477945D01*
X160282031Y-116840000D01*
X160183774Y-116346028D01*
X160703166Y-115826637D01*
X160964778Y-115935000D01*
X161615222Y-115935000D01*
X162103423Y-115732780D01*
X161789864Y-116202055D01*
X161662969Y-116840000D01*
X161789864Y-117477945D01*
X162151231Y-118018769D01*
X162692055Y-118380136D01*
X163168969Y-118475000D01*
X164491031Y-118475000D01*
X164967945Y-118380136D01*
X165508769Y-118018769D01*
X165870136Y-117477945D01*
X165997031Y-116840000D01*
X165870136Y-116202055D01*
X165508769Y-115661231D01*
X164967945Y-115299864D01*
X164715000Y-115249550D01*
X164715000Y-114707157D01*
X164732337Y-114619997D01*
X164715000Y-114532838D01*
X164715000Y-114532833D01*
X164663652Y-114274688D01*
X164468049Y-113981949D01*
X164394156Y-113932575D01*
X163856581Y-113395000D01*
X164457000Y-113395000D01*
X165073020Y-113221942D01*
X165575922Y-112826317D01*
X165889144Y-112268355D01*
X165920124Y-112140434D01*
X165800777Y-111887000D01*
X163957000Y-111887000D01*
X163957000Y-111907000D01*
X163703000Y-111907000D01*
X163703000Y-111887000D01*
X163683000Y-111887000D01*
X163683000Y-111633000D01*
X163703000Y-111633000D01*
X163703000Y-110125000D01*
X163203000Y-110125000D01*
X162586980Y-110298058D01*
X162585002Y-110299614D01*
X162585002Y-109017163D01*
X162602339Y-108930002D01*
X162585002Y-108842841D01*
X162585002Y-108842837D01*
X162533654Y-108584692D01*
X162419916Y-108414472D01*
X162387426Y-108365847D01*
X162387425Y-108365846D01*
X162338051Y-108291953D01*
X162264158Y-108242579D01*
X161066579Y-107045000D01*
X161615222Y-107045000D01*
X161726411Y-106998944D01*
X161789864Y-107317945D01*
X162151231Y-107858769D01*
X162692055Y-108220136D01*
X163168969Y-108315000D01*
X163173206Y-108315000D01*
X163282072Y-108477929D01*
X163345528Y-108520329D01*
X165308524Y-110483325D01*
X165073020Y-110298058D01*
X164457000Y-110125000D01*
X163957000Y-110125000D01*
X163957000Y-111633000D01*
X165800777Y-111633000D01*
X165920124Y-111379566D01*
X165889144Y-111251645D01*
X165648923Y-110823725D01*
X169489126Y-114663928D01*
X169569671Y-114784472D01*
X169589669Y-114804470D01*
X169632071Y-114867929D01*
X169695529Y-114910330D01*
X170175983Y-115390784D01*
X169771231Y-115661231D01*
X169409864Y-116202055D01*
X169282969Y-116840000D01*
X169409864Y-117477945D01*
X169771231Y-118018769D01*
X170312055Y-118380136D01*
X170788969Y-118475000D01*
X172111031Y-118475000D01*
X172587945Y-118380136D01*
X173128769Y-118018769D01*
X173490136Y-117477945D01*
X173617031Y-116840000D01*
X173490136Y-116202055D01*
X173128769Y-115661231D01*
X172587945Y-115299864D01*
X172111031Y-115205000D01*
X172106795Y-115205000D01*
X171997929Y-115042071D01*
X171934473Y-114999671D01*
X170850878Y-113916077D01*
X170727929Y-113732071D01*
X170664473Y-113689671D01*
X170200196Y-113225394D01*
X170312055Y-113300136D01*
X170788969Y-113395000D01*
X172111031Y-113395000D01*
X172587945Y-113300136D01*
X173128769Y-112938769D01*
X173490136Y-112397945D01*
X173617031Y-111760000D01*
X173490136Y-111122055D01*
X173208344Y-110700322D01*
X175030000Y-110700322D01*
X175030000Y-111549678D01*
X175355034Y-112334380D01*
X175955620Y-112934966D01*
X176740322Y-113260000D01*
X177589678Y-113260000D01*
X178374380Y-112934966D01*
X178974966Y-112334380D01*
X179300000Y-111549678D01*
X179300000Y-110700322D01*
X178974966Y-109915620D01*
X178374380Y-109315034D01*
X177589678Y-108990000D01*
X176740322Y-108990000D01*
X175955620Y-109315034D01*
X175355034Y-109915620D01*
X175030000Y-110700322D01*
X173208344Y-110700322D01*
X173128769Y-110581231D01*
X172587945Y-110219864D01*
X172111031Y-110125000D01*
X170788969Y-110125000D01*
X170456028Y-110191226D01*
X169670000Y-109405199D01*
X169670000Y-107707266D01*
X169771231Y-107858769D01*
X170312055Y-108220136D01*
X170788969Y-108315000D01*
X172111031Y-108315000D01*
X172587945Y-108220136D01*
X173128769Y-107858769D01*
X173408581Y-107440000D01*
X181930199Y-107440000D01*
X183390001Y-108899803D01*
X183390000Y-110940643D01*
X183224136Y-111009346D01*
X182764346Y-111469136D01*
X182515510Y-112069880D01*
X182515510Y-112720120D01*
X182764346Y-113320864D01*
X183224136Y-113780654D01*
X183824880Y-114029490D01*
X184475120Y-114029490D01*
X185075864Y-113780654D01*
X185535654Y-113320864D01*
X185784490Y-112720120D01*
X185784490Y-112069880D01*
X185535654Y-111469136D01*
X185075864Y-111009346D01*
X184910000Y-110940643D01*
X184910000Y-110700322D01*
X189000000Y-110700322D01*
X189000000Y-111549678D01*
X189325034Y-112334380D01*
X189925620Y-112934966D01*
X190710322Y-113260000D01*
X191559678Y-113260000D01*
X192344380Y-112934966D01*
X192944966Y-112334380D01*
X193270000Y-111549678D01*
X193270000Y-110700322D01*
X192944966Y-109915620D01*
X192344380Y-109315034D01*
X191559678Y-108990000D01*
X190710322Y-108990000D01*
X189925620Y-109315034D01*
X189325034Y-109915620D01*
X189000000Y-110700322D01*
X184910000Y-110700322D01*
X184910000Y-108659848D01*
X184924888Y-108585000D01*
X184910000Y-108510152D01*
X184910000Y-108510148D01*
X184865904Y-108288463D01*
X184865904Y-108288462D01*
X184740329Y-108100527D01*
X184697929Y-108037071D01*
X184634473Y-107994671D01*
X182835331Y-106195530D01*
X182792929Y-106132071D01*
X182541537Y-105964096D01*
X182319852Y-105920000D01*
X182319847Y-105920000D01*
X182245000Y-105905112D01*
X182170153Y-105920000D01*
X173408581Y-105920000D01*
X173128769Y-105501231D01*
X172587945Y-105139864D01*
X172111031Y-105045000D01*
X170788969Y-105045000D01*
X170312055Y-105139864D01*
X169771231Y-105501231D01*
X169670000Y-105652734D01*
X169670000Y-103954801D01*
X170456028Y-103168774D01*
X170788969Y-103235000D01*
X172111031Y-103235000D01*
X172587945Y-103140136D01*
X173128769Y-102778769D01*
X173490136Y-102237945D01*
X173617031Y-101600000D01*
X173490136Y-100962055D01*
X173128769Y-100421231D01*
X172692508Y-100129731D01*
X172836086Y-99986153D01*
X172904909Y-99820000D01*
X178995153Y-99820000D01*
X179070000Y-99834888D01*
X179144847Y-99820000D01*
X179144852Y-99820000D01*
X179366537Y-99775904D01*
X179617929Y-99607929D01*
X179660331Y-99544470D01*
X180295329Y-98909473D01*
X180295331Y-98909470D01*
X183658625Y-95546177D01*
X183824778Y-95615000D01*
X184475222Y-95615000D01*
X185076153Y-95366086D01*
X185536086Y-94906153D01*
X185785000Y-94305222D01*
X185785000Y-93654778D01*
X185536086Y-93053847D01*
X185076153Y-92593914D01*
X184475222Y-92345000D01*
X183824778Y-92345000D01*
X183223847Y-92593914D01*
X182763914Y-93053847D01*
X182515000Y-93654778D01*
X182515000Y-94305222D01*
X182583823Y-94471375D01*
X179220530Y-97834669D01*
X179220527Y-97834671D01*
X178755199Y-98300000D01*
X172904909Y-98300000D01*
X172836086Y-98133847D01*
X172692508Y-97990269D01*
X173128769Y-97698769D01*
X173490136Y-97157945D01*
X173617031Y-96520000D01*
X173490136Y-95882055D01*
X173128769Y-95341231D01*
X172587945Y-94979864D01*
X172111031Y-94885000D01*
X170788969Y-94885000D01*
X170312055Y-94979864D01*
X169771231Y-95341231D01*
X169746369Y-95378440D01*
X168359635Y-93067218D01*
X168355904Y-93048463D01*
X168282181Y-92938128D01*
X168253183Y-92889799D01*
X168240676Y-92876012D01*
X168187929Y-92797071D01*
X168140023Y-92765061D01*
X168101315Y-92722393D01*
X168015480Y-92681844D01*
X167936537Y-92629096D01*
X167880028Y-92617856D01*
X167827938Y-92593248D01*
X167733118Y-92588633D01*
X167714852Y-92585000D01*
X167658461Y-92585000D01*
X167525949Y-92578551D01*
X167507951Y-92585000D01*
X165531333Y-92585000D01*
X165788581Y-92200000D01*
X167545153Y-92200000D01*
X167620000Y-92214888D01*
X167694847Y-92200000D01*
X167694852Y-92200000D01*
X167916537Y-92155904D01*
X168167929Y-91987929D01*
X168210331Y-91924470D01*
X168314367Y-91820434D01*
X169359876Y-91820434D01*
X169390856Y-91948355D01*
X169704078Y-92506317D01*
X170206980Y-92901942D01*
X170823000Y-93075000D01*
X171323000Y-93075000D01*
X171323000Y-91567000D01*
X171577000Y-91567000D01*
X171577000Y-93075000D01*
X172077000Y-93075000D01*
X172693020Y-92901942D01*
X173195922Y-92506317D01*
X173509144Y-91948355D01*
X173540124Y-91820434D01*
X173420777Y-91567000D01*
X171577000Y-91567000D01*
X171323000Y-91567000D01*
X169479223Y-91567000D01*
X169359876Y-91820434D01*
X168314367Y-91820434D01*
X169631077Y-90503725D01*
X169390856Y-90931645D01*
X169359876Y-91059566D01*
X169479223Y-91313000D01*
X171323000Y-91313000D01*
X171323000Y-89805000D01*
X171577000Y-89805000D01*
X171577000Y-91313000D01*
X173420777Y-91313000D01*
X173540124Y-91059566D01*
X173509144Y-90931645D01*
X173199649Y-90380322D01*
X175030000Y-90380322D01*
X175030000Y-91229678D01*
X175355034Y-92014380D01*
X175955620Y-92614966D01*
X176740322Y-92940000D01*
X177589678Y-92940000D01*
X178374380Y-92614966D01*
X178974966Y-92014380D01*
X179300000Y-91229678D01*
X179300000Y-90380322D01*
X189000000Y-90380322D01*
X189000000Y-91229678D01*
X189325034Y-92014380D01*
X189925620Y-92614966D01*
X190710322Y-92940000D01*
X191559678Y-92940000D01*
X192344380Y-92614966D01*
X192944966Y-92014380D01*
X193270000Y-91229678D01*
X193270000Y-90380322D01*
X192944966Y-89595620D01*
X192344380Y-88995034D01*
X191559678Y-88670000D01*
X190710322Y-88670000D01*
X189925620Y-88995034D01*
X189325034Y-89595620D01*
X189000000Y-90380322D01*
X179300000Y-90380322D01*
X178974966Y-89595620D01*
X178374380Y-88995034D01*
X177589678Y-88670000D01*
X176740322Y-88670000D01*
X175955620Y-88995034D01*
X175355034Y-89595620D01*
X175030000Y-90380322D01*
X173199649Y-90380322D01*
X173195922Y-90373683D01*
X172693020Y-89978058D01*
X172077000Y-89805000D01*
X171577000Y-89805000D01*
X171323000Y-89805000D01*
X170823000Y-89805000D01*
X170206980Y-89978058D01*
X169971477Y-90163324D01*
X171934473Y-88200329D01*
X171997929Y-88157929D01*
X172106795Y-87995000D01*
X172111031Y-87995000D01*
X172587945Y-87900136D01*
X173128769Y-87538769D01*
X173490136Y-86997945D01*
X173617031Y-86360000D01*
X173490136Y-85722055D01*
X173128769Y-85181231D01*
X172587945Y-84819864D01*
X172111031Y-84725000D01*
X170788969Y-84725000D01*
X170312055Y-84819864D01*
X169771231Y-85181231D01*
X169409864Y-85722055D01*
X169282969Y-86360000D01*
X169409864Y-86997945D01*
X169771231Y-87538769D01*
X170175983Y-87809215D01*
X167305199Y-90680000D01*
X165788581Y-90680000D01*
X165508769Y-90261231D01*
X164967945Y-89899864D01*
X164590000Y-89824686D01*
X164590000Y-89026724D01*
X164604888Y-88951877D01*
X164590000Y-88877030D01*
X164590000Y-88877026D01*
X164545904Y-88655341D01*
X164483226Y-88561537D01*
X164420329Y-88467404D01*
X164420327Y-88467402D01*
X164377929Y-88403949D01*
X164314476Y-88361551D01*
X163947925Y-87995000D01*
X164491031Y-87995000D01*
X164967945Y-87900136D01*
X165508769Y-87538769D01*
X165870136Y-86997945D01*
X165997031Y-86360000D01*
X165870136Y-85722055D01*
X165508769Y-85181231D01*
X164967945Y-84819864D01*
X164590000Y-84744686D01*
X164590000Y-84529848D01*
X164604888Y-84455000D01*
X164590000Y-84380152D01*
X164590000Y-84380148D01*
X164545904Y-84158463D01*
X164403272Y-83945000D01*
X182565199Y-83945000D01*
X183390000Y-84769802D01*
X183390000Y-84905091D01*
X183223847Y-84973914D01*
X182763914Y-85433847D01*
X182515000Y-86034778D01*
X182515000Y-86685222D01*
X182763914Y-87286153D01*
X183223847Y-87746086D01*
X183824778Y-87995000D01*
X184475222Y-87995000D01*
X185076153Y-87746086D01*
X185536086Y-87286153D01*
X185785000Y-86685222D01*
X185785000Y-86034778D01*
X185536086Y-85433847D01*
X185076153Y-84973914D01*
X184910000Y-84905091D01*
X184910000Y-84529846D01*
X184924888Y-84454999D01*
X184910000Y-84380152D01*
X184910000Y-84380148D01*
X184865904Y-84158463D01*
X184697929Y-83907071D01*
X184634473Y-83864671D01*
X183470331Y-82700530D01*
X183427929Y-82637071D01*
X183176537Y-82469096D01*
X182954852Y-82425000D01*
X182954847Y-82425000D01*
X182880000Y-82410112D01*
X182805153Y-82425000D01*
X134694846Y-82425000D01*
X134619999Y-82410112D01*
X134545152Y-82425000D01*
X134545148Y-82425000D01*
X134323463Y-82469096D01*
X134072071Y-82637071D01*
X134029671Y-82700527D01*
X132865528Y-83864671D01*
X132802072Y-83907071D01*
X132759672Y-83970527D01*
X132759671Y-83970528D01*
X132634097Y-84158463D01*
X132575112Y-84455000D01*
X132590001Y-84529852D01*
X132590000Y-87790153D01*
X132575112Y-87865000D01*
X132590000Y-87939847D01*
X132590000Y-87939851D01*
X132634096Y-88161536D01*
X132802071Y-88412929D01*
X132865530Y-88455331D01*
X133794670Y-89384472D01*
X133837071Y-89447929D01*
X133987560Y-89548483D01*
X133987560Y-90400000D01*
X134036843Y-90647765D01*
X134177191Y-90857809D01*
X134387235Y-90998157D01*
X134635000Y-91047440D01*
X136035000Y-91047440D01*
X136282765Y-90998157D01*
X136492809Y-90857809D01*
X136633157Y-90647765D01*
X136682440Y-90400000D01*
X136682440Y-90378007D01*
X136872519Y-90662480D01*
X137070150Y-90794534D01*
X137060112Y-90845000D01*
X137119097Y-91141537D01*
X137225054Y-91300112D01*
X137287072Y-91392929D01*
X137350528Y-91435329D01*
X138474670Y-92559472D01*
X138517071Y-92622929D01*
X138580527Y-92665329D01*
X138768462Y-92790904D01*
X138816605Y-92800480D01*
X138990148Y-92835000D01*
X138990152Y-92835000D01*
X139065000Y-92849888D01*
X139139848Y-92835000D01*
X142237273Y-92835000D01*
X142312120Y-92849888D01*
X142386967Y-92835000D01*
X142386972Y-92835000D01*
X142608657Y-92790904D01*
X142860049Y-92622929D01*
X142902451Y-92559470D01*
X145801922Y-89660000D01*
X153990199Y-89660000D01*
X154815001Y-90484803D01*
X154815000Y-92220153D01*
X154800112Y-92295000D01*
X154815000Y-92369847D01*
X154815000Y-92369851D01*
X154859096Y-92591536D01*
X155027071Y-92842929D01*
X155090530Y-92885331D01*
X156785174Y-94579977D01*
X156380423Y-94850423D01*
X156063260Y-95325091D01*
X155951887Y-95885000D01*
X156063260Y-96444909D01*
X156380423Y-96919577D01*
X156732758Y-97155000D01*
X156384931Y-97387411D01*
X152351676Y-93490060D01*
X152312929Y-93432071D01*
X152244006Y-93386018D01*
X152239286Y-93381457D01*
X152181861Y-93344494D01*
X152061537Y-93264096D01*
X152054907Y-93262777D01*
X152049227Y-93259121D01*
X151906936Y-93233344D01*
X151839852Y-93220000D01*
X151833277Y-93220000D01*
X151751724Y-93205226D01*
X151683574Y-93220000D01*
X149253388Y-93220000D01*
X149130978Y-93210837D01*
X149031347Y-93243631D01*
X148928463Y-93264096D01*
X148888938Y-93290506D01*
X148843788Y-93305367D01*
X148764287Y-93373795D01*
X148677071Y-93432071D01*
X148608868Y-93534144D01*
X147907208Y-94431233D01*
X147719577Y-94150423D01*
X147244909Y-93833260D01*
X146685000Y-93721887D01*
X146125092Y-93833260D01*
X145650424Y-94150423D01*
X145333261Y-94625091D01*
X145250000Y-95043667D01*
X145250000Y-96726332D01*
X145333260Y-97144908D01*
X145650423Y-97619576D01*
X146125091Y-97936740D01*
X146685000Y-98048113D01*
X147244908Y-97936740D01*
X147719576Y-97619577D01*
X148036740Y-97144909D01*
X148120000Y-96726333D01*
X148120000Y-96556372D01*
X148195711Y-96491206D01*
X148282929Y-96432929D01*
X148351133Y-96330854D01*
X148408160Y-96257944D01*
X148420633Y-96316819D01*
X148690500Y-96809896D01*
X149119607Y-97155000D01*
X148690500Y-97500104D01*
X148420633Y-97993181D01*
X148403096Y-98075961D01*
X148525085Y-98298000D01*
X150368000Y-98298000D01*
X150368000Y-96012000D01*
X150622000Y-96012000D01*
X150622000Y-98298000D01*
X152464915Y-98298000D01*
X152586904Y-98075961D01*
X152569367Y-97993181D01*
X152299500Y-97500104D01*
X151870393Y-97155000D01*
X152299500Y-96809896D01*
X152569367Y-96316819D01*
X152586904Y-96234039D01*
X152464915Y-96012000D01*
X150622000Y-96012000D01*
X150368000Y-96012000D01*
X150348000Y-96012000D01*
X150348000Y-95758000D01*
X150368000Y-95758000D01*
X150368000Y-95738000D01*
X150622000Y-95738000D01*
X150622000Y-95758000D01*
X152464915Y-95758000D01*
X152481000Y-95728722D01*
X155778326Y-98914943D01*
X155817071Y-98972929D01*
X155885990Y-99018980D01*
X155890713Y-99023543D01*
X155948166Y-99060524D01*
X156068463Y-99140904D01*
X156075091Y-99142222D01*
X156080772Y-99145879D01*
X156183217Y-99164438D01*
X156380423Y-99459577D01*
X156732758Y-99695000D01*
X156380423Y-99930423D01*
X156063260Y-100405091D01*
X155951887Y-100965000D01*
X156063260Y-101524909D01*
X156380423Y-101999577D01*
X156732758Y-102235000D01*
X156380423Y-102470423D01*
X156063260Y-102945091D01*
X155951887Y-103505000D01*
X156063260Y-104064909D01*
X156380423Y-104539577D01*
X156732758Y-104775000D01*
X156380423Y-105010423D01*
X156280479Y-105160000D01*
X155662159Y-105160000D01*
X155574999Y-105142663D01*
X155487839Y-105160000D01*
X155487835Y-105160000D01*
X155229690Y-105211348D01*
X155229688Y-105211349D01*
X155229689Y-105211349D01*
X155010845Y-105357576D01*
X155010844Y-105357577D01*
X154936951Y-105406951D01*
X154887577Y-105480844D01*
X153740845Y-106627577D01*
X153666952Y-106676951D01*
X153617578Y-106750844D01*
X153617576Y-106750846D01*
X153471348Y-106969691D01*
X153402663Y-107315000D01*
X153420001Y-107402165D01*
X153420000Y-110123421D01*
X152545424Y-110997998D01*
X152464916Y-110997998D01*
X152586904Y-110775961D01*
X152569367Y-110693181D01*
X152299500Y-110200104D01*
X151870393Y-109855000D01*
X152299500Y-109509896D01*
X152569367Y-109016819D01*
X152586904Y-108934039D01*
X152464915Y-108712000D01*
X150622000Y-108712000D01*
X150622000Y-110998000D01*
X150642000Y-110998000D01*
X150642000Y-111252000D01*
X150622000Y-111252000D01*
X150622000Y-111272000D01*
X150368000Y-111272000D01*
X150368000Y-111252000D01*
X148525085Y-111252000D01*
X148403096Y-111474039D01*
X148420633Y-111556819D01*
X148690500Y-112049896D01*
X148808754Y-112145000D01*
X147686579Y-112145000D01*
X147570000Y-112028422D01*
X147570000Y-111689521D01*
X147719577Y-111589577D01*
X148036740Y-111114909D01*
X148120000Y-110696333D01*
X148120000Y-109013667D01*
X148104161Y-108934039D01*
X148403096Y-108934039D01*
X148420633Y-109016819D01*
X148690500Y-109509896D01*
X149119607Y-109855000D01*
X148690500Y-110200104D01*
X148420633Y-110693181D01*
X148403096Y-110775961D01*
X148525085Y-110998000D01*
X150368000Y-110998000D01*
X150368000Y-108712000D01*
X148525085Y-108712000D01*
X148403096Y-108934039D01*
X148104161Y-108934039D01*
X148036740Y-108595091D01*
X147719576Y-108120423D01*
X147244908Y-107803260D01*
X146685000Y-107691887D01*
X146125091Y-107803260D01*
X145650423Y-108120424D01*
X145540000Y-108285684D01*
X145540000Y-108159846D01*
X145554888Y-108084999D01*
X145540000Y-108010152D01*
X145540000Y-108010148D01*
X145495904Y-107788463D01*
X145327929Y-107537071D01*
X145264473Y-107494671D01*
X143673774Y-105903972D01*
X143772031Y-105410000D01*
X143686897Y-104982000D01*
X145250000Y-104982000D01*
X145250000Y-105682000D01*
X145407834Y-106221483D01*
X145760104Y-106659500D01*
X146253181Y-106929367D01*
X146335961Y-106946904D01*
X146558000Y-106824915D01*
X146558000Y-104982000D01*
X146812000Y-104982000D01*
X146812000Y-106824915D01*
X147034039Y-106946904D01*
X147116819Y-106929367D01*
X147609896Y-106659500D01*
X147823389Y-106394039D01*
X148403096Y-106394039D01*
X148420633Y-106476819D01*
X148690500Y-106969896D01*
X149119607Y-107315000D01*
X148690500Y-107660104D01*
X148420633Y-108153181D01*
X148403096Y-108235961D01*
X148525085Y-108458000D01*
X150368000Y-108458000D01*
X150368000Y-106172000D01*
X150622000Y-106172000D01*
X150622000Y-108458000D01*
X152464915Y-108458000D01*
X152586904Y-108235961D01*
X152569367Y-108153181D01*
X152299500Y-107660104D01*
X151870393Y-107315000D01*
X152299500Y-106969896D01*
X152569367Y-106476819D01*
X152586904Y-106394039D01*
X152464915Y-106172000D01*
X150622000Y-106172000D01*
X150368000Y-106172000D01*
X148525085Y-106172000D01*
X148403096Y-106394039D01*
X147823389Y-106394039D01*
X147962166Y-106221483D01*
X148120000Y-105682000D01*
X148120000Y-104982000D01*
X146812000Y-104982000D01*
X146558000Y-104982000D01*
X145250000Y-104982000D01*
X143686897Y-104982000D01*
X143645136Y-104772055D01*
X143283769Y-104231231D01*
X142742945Y-103869864D01*
X142266031Y-103775000D01*
X140943969Y-103775000D01*
X140467055Y-103869864D01*
X139926231Y-104231231D01*
X139564864Y-104772055D01*
X139437969Y-105410000D01*
X139564864Y-106047945D01*
X139926231Y-106588769D01*
X140467055Y-106950136D01*
X140943969Y-107045000D01*
X142266031Y-107045000D01*
X142598972Y-106978774D01*
X144020000Y-108399802D01*
X144020001Y-112845091D01*
X143853847Y-112913914D01*
X143635000Y-113132761D01*
X143635000Y-113084846D01*
X143649888Y-113009999D01*
X143635000Y-112935152D01*
X143635000Y-112935148D01*
X143590904Y-112713463D01*
X143422929Y-112462071D01*
X143359473Y-112419671D01*
X142879017Y-111939216D01*
X143283769Y-111668769D01*
X143645136Y-111127945D01*
X143772031Y-110490000D01*
X143645136Y-109852055D01*
X143283769Y-109311231D01*
X142742945Y-108949864D01*
X142266031Y-108855000D01*
X140943969Y-108855000D01*
X140467055Y-108949864D01*
X139926231Y-109311231D01*
X139564864Y-109852055D01*
X139445739Y-110450938D01*
X139000331Y-110005530D01*
X138957929Y-109942071D01*
X138706537Y-109774096D01*
X138484852Y-109730000D01*
X138484847Y-109730000D01*
X138410000Y-109715112D01*
X138335153Y-109730000D01*
X135943581Y-109730000D01*
X135663769Y-109311231D01*
X135122945Y-108949864D01*
X134646031Y-108855000D01*
X133323969Y-108855000D01*
X132869990Y-108945302D01*
X132869990Y-107599811D01*
X133424801Y-107045000D01*
X134646031Y-107045000D01*
X135122945Y-106950136D01*
X135663769Y-106588769D01*
X136025136Y-106047945D01*
X136152031Y-105410000D01*
X136025136Y-104772055D01*
X135663769Y-104231231D01*
X135122945Y-103869864D01*
X134646031Y-103775000D01*
X133323969Y-103775000D01*
X132847055Y-103869864D01*
X132330000Y-104215349D01*
X132330000Y-103931578D01*
X135261692Y-100999886D01*
X135357191Y-101142809D01*
X135567235Y-101283157D01*
X135815000Y-101332440D01*
X139775000Y-101332440D01*
X140022765Y-101283157D01*
X140232809Y-101142809D01*
X140320213Y-101012000D01*
X145250000Y-101012000D01*
X145250000Y-101712000D01*
X145407834Y-102251483D01*
X145760104Y-102689500D01*
X146089898Y-102870000D01*
X145760104Y-103050500D01*
X145407834Y-103488517D01*
X145250000Y-104028000D01*
X145250000Y-104728000D01*
X146558000Y-104728000D01*
X146558000Y-102885085D01*
X146530543Y-102870000D01*
X146558000Y-102854915D01*
X146558000Y-101012000D01*
X146812000Y-101012000D01*
X146812000Y-102854915D01*
X146839457Y-102870000D01*
X146812000Y-102885085D01*
X146812000Y-104728000D01*
X148120000Y-104728000D01*
X148120000Y-104028000D01*
X148069106Y-103854039D01*
X148403096Y-103854039D01*
X148420633Y-103936819D01*
X148690500Y-104429896D01*
X149119607Y-104775000D01*
X148690500Y-105120104D01*
X148420633Y-105613181D01*
X148403096Y-105695961D01*
X148525085Y-105918000D01*
X150368000Y-105918000D01*
X150368000Y-103632000D01*
X150622000Y-103632000D01*
X150622000Y-105918000D01*
X152464915Y-105918000D01*
X152586904Y-105695961D01*
X152569367Y-105613181D01*
X152299500Y-105120104D01*
X151870393Y-104775000D01*
X152299500Y-104429896D01*
X152569367Y-103936819D01*
X152586904Y-103854039D01*
X152464915Y-103632000D01*
X150622000Y-103632000D01*
X150368000Y-103632000D01*
X148525085Y-103632000D01*
X148403096Y-103854039D01*
X148069106Y-103854039D01*
X147962166Y-103488517D01*
X147609896Y-103050500D01*
X147280102Y-102870000D01*
X147609896Y-102689500D01*
X147962166Y-102251483D01*
X148120000Y-101712000D01*
X148120000Y-101314039D01*
X148403096Y-101314039D01*
X148420633Y-101396819D01*
X148690500Y-101889896D01*
X149119607Y-102235000D01*
X148690500Y-102580104D01*
X148420633Y-103073181D01*
X148403096Y-103155961D01*
X148525085Y-103378000D01*
X150368000Y-103378000D01*
X150368000Y-101092000D01*
X150622000Y-101092000D01*
X150622000Y-103378000D01*
X152464915Y-103378000D01*
X152586904Y-103155961D01*
X152569367Y-103073181D01*
X152299500Y-102580104D01*
X151870393Y-102235000D01*
X152299500Y-101889896D01*
X152569367Y-101396819D01*
X152586904Y-101314039D01*
X152464915Y-101092000D01*
X150622000Y-101092000D01*
X150368000Y-101092000D01*
X148525085Y-101092000D01*
X148403096Y-101314039D01*
X148120000Y-101314039D01*
X148120000Y-101012000D01*
X146812000Y-101012000D01*
X146558000Y-101012000D01*
X145250000Y-101012000D01*
X140320213Y-101012000D01*
X140373157Y-100932765D01*
X140422440Y-100685000D01*
X140422440Y-100058000D01*
X145250000Y-100058000D01*
X145250000Y-100758000D01*
X146558000Y-100758000D01*
X146558000Y-98915085D01*
X146812000Y-98915085D01*
X146812000Y-100758000D01*
X148120000Y-100758000D01*
X148120000Y-100058000D01*
X147962166Y-99518517D01*
X147609896Y-99080500D01*
X147116819Y-98810633D01*
X147034039Y-98793096D01*
X146812000Y-98915085D01*
X146558000Y-98915085D01*
X146335961Y-98793096D01*
X146253181Y-98810633D01*
X145760104Y-99080500D01*
X145407834Y-99518517D01*
X145250000Y-100058000D01*
X140422440Y-100058000D01*
X140422440Y-99309138D01*
X140957539Y-98774039D01*
X148403096Y-98774039D01*
X148420633Y-98856819D01*
X148690500Y-99349896D01*
X149119607Y-99695000D01*
X148690500Y-100040104D01*
X148420633Y-100533181D01*
X148403096Y-100615961D01*
X148525085Y-100838000D01*
X150368000Y-100838000D01*
X150368000Y-98552000D01*
X150622000Y-98552000D01*
X150622000Y-100838000D01*
X152464915Y-100838000D01*
X152586904Y-100615961D01*
X152569367Y-100533181D01*
X152299500Y-100040104D01*
X151870393Y-99695000D01*
X152299500Y-99349896D01*
X152569367Y-98856819D01*
X152586904Y-98774039D01*
X152464915Y-98552000D01*
X150622000Y-98552000D01*
X150368000Y-98552000D01*
X148525085Y-98552000D01*
X148403096Y-98774039D01*
X140957539Y-98774039D01*
X147406579Y-92325000D01*
X148619941Y-92325000D01*
X148816231Y-92618769D01*
X149357055Y-92980136D01*
X149833969Y-93075000D01*
X151156031Y-93075000D01*
X151632945Y-92980136D01*
X152173769Y-92618769D01*
X152535136Y-92077945D01*
X152662031Y-91440000D01*
X152535136Y-90802055D01*
X152173769Y-90261231D01*
X151632945Y-89899864D01*
X151156031Y-89805000D01*
X149833969Y-89805000D01*
X149357055Y-89899864D01*
X148816231Y-90261231D01*
X148619941Y-90555000D01*
X147127161Y-90555000D01*
X147040000Y-90537663D01*
X146952839Y-90555000D01*
X146952835Y-90555000D01*
X146694690Y-90606348D01*
X146475845Y-90752576D01*
X146475844Y-90752577D01*
X146401951Y-90801951D01*
X146352577Y-90875844D01*
X139170862Y-98057560D01*
X135815000Y-98057560D01*
X135567235Y-98106843D01*
X135357191Y-98247191D01*
X135216843Y-98457235D01*
X135167560Y-98705000D01*
X135167560Y-98810055D01*
X134909690Y-98861348D01*
X134616951Y-99056951D01*
X134446755Y-99311666D01*
X130880847Y-102877575D01*
X130806951Y-102926951D01*
X130611348Y-103219691D01*
X130560000Y-103477836D01*
X130560000Y-103477839D01*
X130542663Y-103565000D01*
X130225000Y-103565000D01*
X130225000Y-95073865D01*
X135224782Y-95073865D01*
X135255095Y-95199528D01*
X135566149Y-95754246D01*
X136065807Y-96147703D01*
X136678000Y-96320000D01*
X137668000Y-96320000D01*
X137668000Y-94822000D01*
X137922000Y-94822000D01*
X137922000Y-96320000D01*
X138912000Y-96320000D01*
X139524193Y-96147703D01*
X140023851Y-95754246D01*
X140334905Y-95199528D01*
X140365218Y-95073865D01*
X140245740Y-94822000D01*
X137922000Y-94822000D01*
X137668000Y-94822000D01*
X135344260Y-94822000D01*
X135224782Y-95073865D01*
X130225000Y-95073865D01*
X130225000Y-94316135D01*
X135224782Y-94316135D01*
X135344260Y-94568000D01*
X137668000Y-94568000D01*
X137668000Y-93070000D01*
X137922000Y-93070000D01*
X137922000Y-94568000D01*
X140245740Y-94568000D01*
X140365218Y-94316135D01*
X140334905Y-94190472D01*
X140023851Y-93635754D01*
X139524193Y-93242297D01*
X138912000Y-93070000D01*
X137922000Y-93070000D01*
X137668000Y-93070000D01*
X136678000Y-93070000D01*
X136065807Y-93242297D01*
X135566149Y-93635754D01*
X135255095Y-94190472D01*
X135224782Y-94316135D01*
X130225000Y-94316135D01*
X130225000Y-83863101D01*
X130288552Y-83360033D01*
X130459222Y-82928971D01*
X130731732Y-82553892D01*
X131088960Y-82258367D01*
X131508454Y-82060968D01*
X131995913Y-81967981D01*
X132090760Y-81965000D01*
X191726899Y-81965000D01*
X192229967Y-82028552D01*
X192229967Y-82028552D01*
G37*
X192229967Y-82028552D02*
X192661029Y-82199222D01*
X193036108Y-82471732D01*
X193331633Y-82828960D01*
X193529032Y-83248454D01*
X193622019Y-83735913D01*
X193625001Y-83830792D01*
X193625000Y-118066907D01*
X193561448Y-118569967D01*
X193390777Y-119001031D01*
X193118267Y-119376109D01*
X192761040Y-119671633D01*
X192341546Y-119869032D01*
X191854087Y-119962019D01*
X191759240Y-119965000D01*
X132123093Y-119965000D01*
X131620033Y-119901448D01*
X131188969Y-119730777D01*
X130813891Y-119458267D01*
X130518367Y-119101040D01*
X130320968Y-118681546D01*
X130227981Y-118194087D01*
X130225000Y-118099240D01*
X130225000Y-103565000D01*
X130542663Y-103565000D01*
X130560000Y-103652161D01*
X130560001Y-114077835D01*
X130542663Y-114165000D01*
X130611348Y-114510309D01*
X130757576Y-114729154D01*
X130757578Y-114729156D01*
X130806952Y-114803049D01*
X130880845Y-114852423D01*
X132521897Y-116493476D01*
X132452969Y-116840000D01*
X132579864Y-117477945D01*
X132941231Y-118018769D01*
X133482055Y-118380136D01*
X133958969Y-118475000D01*
X135281031Y-118475000D01*
X135757945Y-118380136D01*
X136298769Y-118018769D01*
X136495059Y-117725000D01*
X139094941Y-117725000D01*
X139291231Y-118018769D01*
X139832055Y-118380136D01*
X140308969Y-118475000D01*
X141631031Y-118475000D01*
X142107945Y-118380136D01*
X142648769Y-118018769D01*
X142845059Y-117725000D01*
X147232839Y-117725000D01*
X147320000Y-117742337D01*
X147407161Y-117725000D01*
X147407165Y-117725000D01*
X147665310Y-117673652D01*
X147958049Y-117478049D01*
X148007425Y-117404153D01*
X148444576Y-116967002D01*
X148524222Y-116967002D01*
X148404876Y-117220434D01*
X148435856Y-117348355D01*
X148749078Y-117906317D01*
X149251980Y-118301942D01*
X149868000Y-118475000D01*
X150368000Y-118475000D01*
X150368000Y-116967000D01*
X150348000Y-116967000D01*
X150348000Y-116713000D01*
X150368000Y-116713000D01*
X150368000Y-116693000D01*
X150622000Y-116693000D01*
X150622000Y-116713000D01*
X150642000Y-116713000D01*
X150642000Y-116967000D01*
X150622000Y-116967000D01*
X150622000Y-118475000D01*
X151122000Y-118475000D01*
X151738020Y-118301942D01*
X152240922Y-117906317D01*
X152554144Y-117348355D01*
X152585124Y-117220434D01*
X152465778Y-116967002D01*
X152630000Y-116967002D01*
X152630000Y-116875458D01*
X152836254Y-117184839D01*
X152836348Y-117185310D01*
X152933514Y-117330729D01*
X152981985Y-117403435D01*
X152982319Y-117403769D01*
X153031951Y-117478049D01*
X153105454Y-117527163D01*
X153167903Y-117589742D01*
X153250405Y-117624016D01*
X153324690Y-117673652D01*
X153411402Y-117690900D01*
X153493037Y-117724814D01*
X153582371Y-117724908D01*
X153582835Y-117725000D01*
X153670505Y-117725000D01*
X153845111Y-117725183D01*
X153845554Y-117725000D01*
X154852839Y-117725000D01*
X154940000Y-117742337D01*
X155027161Y-117725000D01*
X155027165Y-117725000D01*
X155285310Y-117673652D01*
X155578049Y-117478049D01*
X155627425Y-117404153D01*
X155988386Y-117043192D01*
X156074864Y-117477945D01*
X156436231Y-118018769D01*
X156977055Y-118380136D01*
X157453969Y-118475000D01*
X158776031Y-118475000D01*
X159252945Y-118380136D01*
X159793769Y-118018769D01*
X160155136Y-117477945D01*
X160282031Y-116840000D01*
X160183774Y-116346028D01*
X160703166Y-115826637D01*
X160964778Y-115935000D01*
X161615222Y-115935000D01*
X162103423Y-115732780D01*
X161789864Y-116202055D01*
X161662969Y-116840000D01*
X161789864Y-117477945D01*
X162151231Y-118018769D01*
X162692055Y-118380136D01*
X163168969Y-118475000D01*
X164491031Y-118475000D01*
X164967945Y-118380136D01*
X165508769Y-118018769D01*
X165870136Y-117477945D01*
X165997031Y-116840000D01*
X165870136Y-116202055D01*
X165508769Y-115661231D01*
X164967945Y-115299864D01*
X164715000Y-115249550D01*
X164715000Y-114707157D01*
X164732337Y-114619997D01*
X164715000Y-114532838D01*
X164715000Y-114532833D01*
X164663652Y-114274688D01*
X164468049Y-113981949D01*
X164394156Y-113932575D01*
X163856581Y-113395000D01*
X164457000Y-113395000D01*
X165073020Y-113221942D01*
X165575922Y-112826317D01*
X165889144Y-112268355D01*
X165920124Y-112140434D01*
X165800777Y-111887000D01*
X163957000Y-111887000D01*
X163957000Y-111907000D01*
X163703000Y-111907000D01*
X163703000Y-111887000D01*
X163683000Y-111887000D01*
X163683000Y-111633000D01*
X163703000Y-111633000D01*
X163703000Y-110125000D01*
X163203000Y-110125000D01*
X162586980Y-110298058D01*
X162585002Y-110299614D01*
X162585002Y-109017163D01*
X162602339Y-108930002D01*
X162585002Y-108842841D01*
X162585002Y-108842837D01*
X162533654Y-108584692D01*
X162419916Y-108414472D01*
X162387426Y-108365847D01*
X162387425Y-108365846D01*
X162338051Y-108291953D01*
X162264158Y-108242579D01*
X161066579Y-107045000D01*
X161615222Y-107045000D01*
X161726411Y-106998944D01*
X161789864Y-107317945D01*
X162151231Y-107858769D01*
X162692055Y-108220136D01*
X163168969Y-108315000D01*
X163173206Y-108315000D01*
X163282072Y-108477929D01*
X163345528Y-108520329D01*
X165308524Y-110483325D01*
X165073020Y-110298058D01*
X164457000Y-110125000D01*
X163957000Y-110125000D01*
X163957000Y-111633000D01*
X165800777Y-111633000D01*
X165920124Y-111379566D01*
X165889144Y-111251645D01*
X165648923Y-110823725D01*
X169489126Y-114663928D01*
X169569671Y-114784472D01*
X169589669Y-114804470D01*
X169632071Y-114867929D01*
X169695529Y-114910330D01*
X170175983Y-115390784D01*
X169771231Y-115661231D01*
X169409864Y-116202055D01*
X169282969Y-116840000D01*
X169409864Y-117477945D01*
X169771231Y-118018769D01*
X170312055Y-118380136D01*
X170788969Y-118475000D01*
X172111031Y-118475000D01*
X172587945Y-118380136D01*
X173128769Y-118018769D01*
X173490136Y-117477945D01*
X173617031Y-116840000D01*
X173490136Y-116202055D01*
X173128769Y-115661231D01*
X172587945Y-115299864D01*
X172111031Y-115205000D01*
X172106795Y-115205000D01*
X171997929Y-115042071D01*
X171934473Y-114999671D01*
X170850878Y-113916077D01*
X170727929Y-113732071D01*
X170664473Y-113689671D01*
X170200196Y-113225394D01*
X170312055Y-113300136D01*
X170788969Y-113395000D01*
X172111031Y-113395000D01*
X172587945Y-113300136D01*
X173128769Y-112938769D01*
X173490136Y-112397945D01*
X173617031Y-111760000D01*
X173490136Y-111122055D01*
X173208344Y-110700322D01*
X175030000Y-110700322D01*
X175030000Y-111549678D01*
X175355034Y-112334380D01*
X175955620Y-112934966D01*
X176740322Y-113260000D01*
X177589678Y-113260000D01*
X178374380Y-112934966D01*
X178974966Y-112334380D01*
X179300000Y-111549678D01*
X179300000Y-110700322D01*
X178974966Y-109915620D01*
X178374380Y-109315034D01*
X177589678Y-108990000D01*
X176740322Y-108990000D01*
X175955620Y-109315034D01*
X175355034Y-109915620D01*
X175030000Y-110700322D01*
X173208344Y-110700322D01*
X173128769Y-110581231D01*
X172587945Y-110219864D01*
X172111031Y-110125000D01*
X170788969Y-110125000D01*
X170456028Y-110191226D01*
X169670000Y-109405199D01*
X169670000Y-107707266D01*
X169771231Y-107858769D01*
X170312055Y-108220136D01*
X170788969Y-108315000D01*
X172111031Y-108315000D01*
X172587945Y-108220136D01*
X173128769Y-107858769D01*
X173408581Y-107440000D01*
X181930199Y-107440000D01*
X183390001Y-108899803D01*
X183390000Y-110940643D01*
X183224136Y-111009346D01*
X182764346Y-111469136D01*
X182515510Y-112069880D01*
X182515510Y-112720120D01*
X182764346Y-113320864D01*
X183224136Y-113780654D01*
X183824880Y-114029490D01*
X184475120Y-114029490D01*
X185075864Y-113780654D01*
X185535654Y-113320864D01*
X185784490Y-112720120D01*
X185784490Y-112069880D01*
X185535654Y-111469136D01*
X185075864Y-111009346D01*
X184910000Y-110940643D01*
X184910000Y-110700322D01*
X189000000Y-110700322D01*
X189000000Y-111549678D01*
X189325034Y-112334380D01*
X189925620Y-112934966D01*
X190710322Y-113260000D01*
X191559678Y-113260000D01*
X192344380Y-112934966D01*
X192944966Y-112334380D01*
X193270000Y-111549678D01*
X193270000Y-110700322D01*
X192944966Y-109915620D01*
X192344380Y-109315034D01*
X191559678Y-108990000D01*
X190710322Y-108990000D01*
X189925620Y-109315034D01*
X189325034Y-109915620D01*
X189000000Y-110700322D01*
X184910000Y-110700322D01*
X184910000Y-108659848D01*
X184924888Y-108585000D01*
X184910000Y-108510152D01*
X184910000Y-108510148D01*
X184865904Y-108288463D01*
X184865904Y-108288462D01*
X184740329Y-108100527D01*
X184697929Y-108037071D01*
X184634473Y-107994671D01*
X182835331Y-106195530D01*
X182792929Y-106132071D01*
X182541537Y-105964096D01*
X182319852Y-105920000D01*
X182319847Y-105920000D01*
X182245000Y-105905112D01*
X182170153Y-105920000D01*
X173408581Y-105920000D01*
X173128769Y-105501231D01*
X172587945Y-105139864D01*
X172111031Y-105045000D01*
X170788969Y-105045000D01*
X170312055Y-105139864D01*
X169771231Y-105501231D01*
X169670000Y-105652734D01*
X169670000Y-103954801D01*
X170456028Y-103168774D01*
X170788969Y-103235000D01*
X172111031Y-103235000D01*
X172587945Y-103140136D01*
X173128769Y-102778769D01*
X173490136Y-102237945D01*
X173617031Y-101600000D01*
X173490136Y-100962055D01*
X173128769Y-100421231D01*
X172692508Y-100129731D01*
X172836086Y-99986153D01*
X172904909Y-99820000D01*
X178995153Y-99820000D01*
X179070000Y-99834888D01*
X179144847Y-99820000D01*
X179144852Y-99820000D01*
X179366537Y-99775904D01*
X179617929Y-99607929D01*
X179660331Y-99544470D01*
X180295329Y-98909473D01*
X180295331Y-98909470D01*
X183658625Y-95546177D01*
X183824778Y-95615000D01*
X184475222Y-95615000D01*
X185076153Y-95366086D01*
X185536086Y-94906153D01*
X185785000Y-94305222D01*
X185785000Y-93654778D01*
X185536086Y-93053847D01*
X185076153Y-92593914D01*
X184475222Y-92345000D01*
X183824778Y-92345000D01*
X183223847Y-92593914D01*
X182763914Y-93053847D01*
X182515000Y-93654778D01*
X182515000Y-94305222D01*
X182583823Y-94471375D01*
X179220530Y-97834669D01*
X179220527Y-97834671D01*
X178755199Y-98300000D01*
X172904909Y-98300000D01*
X172836086Y-98133847D01*
X172692508Y-97990269D01*
X173128769Y-97698769D01*
X173490136Y-97157945D01*
X173617031Y-96520000D01*
X173490136Y-95882055D01*
X173128769Y-95341231D01*
X172587945Y-94979864D01*
X172111031Y-94885000D01*
X170788969Y-94885000D01*
X170312055Y-94979864D01*
X169771231Y-95341231D01*
X169746369Y-95378440D01*
X168359635Y-93067218D01*
X168355904Y-93048463D01*
X168282181Y-92938128D01*
X168253183Y-92889799D01*
X168240676Y-92876012D01*
X168187929Y-92797071D01*
X168140023Y-92765061D01*
X168101315Y-92722393D01*
X168015480Y-92681844D01*
X167936537Y-92629096D01*
X167880028Y-92617856D01*
X167827938Y-92593248D01*
X167733118Y-92588633D01*
X167714852Y-92585000D01*
X167658461Y-92585000D01*
X167525949Y-92578551D01*
X167507951Y-92585000D01*
X165531333Y-92585000D01*
X165788581Y-92200000D01*
X167545153Y-92200000D01*
X167620000Y-92214888D01*
X167694847Y-92200000D01*
X167694852Y-92200000D01*
X167916537Y-92155904D01*
X168167929Y-91987929D01*
X168210331Y-91924470D01*
X168314367Y-91820434D01*
X169359876Y-91820434D01*
X169390856Y-91948355D01*
X169704078Y-92506317D01*
X170206980Y-92901942D01*
X170823000Y-93075000D01*
X171323000Y-93075000D01*
X171323000Y-91567000D01*
X171577000Y-91567000D01*
X171577000Y-93075000D01*
X172077000Y-93075000D01*
X172693020Y-92901942D01*
X173195922Y-92506317D01*
X173509144Y-91948355D01*
X173540124Y-91820434D01*
X173420777Y-91567000D01*
X171577000Y-91567000D01*
X171323000Y-91567000D01*
X169479223Y-91567000D01*
X169359876Y-91820434D01*
X168314367Y-91820434D01*
X169631077Y-90503725D01*
X169390856Y-90931645D01*
X169359876Y-91059566D01*
X169479223Y-91313000D01*
X171323000Y-91313000D01*
X171323000Y-89805000D01*
X171577000Y-89805000D01*
X171577000Y-91313000D01*
X173420777Y-91313000D01*
X173540124Y-91059566D01*
X173509144Y-90931645D01*
X173199649Y-90380322D01*
X175030000Y-90380322D01*
X175030000Y-91229678D01*
X175355034Y-92014380D01*
X175955620Y-92614966D01*
X176740322Y-92940000D01*
X177589678Y-92940000D01*
X178374380Y-92614966D01*
X178974966Y-92014380D01*
X179300000Y-91229678D01*
X179300000Y-90380322D01*
X189000000Y-90380322D01*
X189000000Y-91229678D01*
X189325034Y-92014380D01*
X189925620Y-92614966D01*
X190710322Y-92940000D01*
X191559678Y-92940000D01*
X192344380Y-92614966D01*
X192944966Y-92014380D01*
X193270000Y-91229678D01*
X193270000Y-90380322D01*
X192944966Y-89595620D01*
X192344380Y-88995034D01*
X191559678Y-88670000D01*
X190710322Y-88670000D01*
X189925620Y-88995034D01*
X189325034Y-89595620D01*
X189000000Y-90380322D01*
X179300000Y-90380322D01*
X178974966Y-89595620D01*
X178374380Y-88995034D01*
X177589678Y-88670000D01*
X176740322Y-88670000D01*
X175955620Y-88995034D01*
X175355034Y-89595620D01*
X175030000Y-90380322D01*
X173199649Y-90380322D01*
X173195922Y-90373683D01*
X172693020Y-89978058D01*
X172077000Y-89805000D01*
X171577000Y-89805000D01*
X171323000Y-89805000D01*
X170823000Y-89805000D01*
X170206980Y-89978058D01*
X169971477Y-90163324D01*
X171934473Y-88200329D01*
X171997929Y-88157929D01*
X172106795Y-87995000D01*
X172111031Y-87995000D01*
X172587945Y-87900136D01*
X173128769Y-87538769D01*
X173490136Y-86997945D01*
X173617031Y-86360000D01*
X173490136Y-85722055D01*
X173128769Y-85181231D01*
X172587945Y-84819864D01*
X172111031Y-84725000D01*
X170788969Y-84725000D01*
X170312055Y-84819864D01*
X169771231Y-85181231D01*
X169409864Y-85722055D01*
X169282969Y-86360000D01*
X169409864Y-86997945D01*
X169771231Y-87538769D01*
X170175983Y-87809215D01*
X167305199Y-90680000D01*
X165788581Y-90680000D01*
X165508769Y-90261231D01*
X164967945Y-89899864D01*
X164590000Y-89824686D01*
X164590000Y-89026724D01*
X164604888Y-88951877D01*
X164590000Y-88877030D01*
X164590000Y-88877026D01*
X164545904Y-88655341D01*
X164483226Y-88561537D01*
X164420329Y-88467404D01*
X164420327Y-88467402D01*
X164377929Y-88403949D01*
X164314476Y-88361551D01*
X163947925Y-87995000D01*
X164491031Y-87995000D01*
X164967945Y-87900136D01*
X165508769Y-87538769D01*
X165870136Y-86997945D01*
X165997031Y-86360000D01*
X165870136Y-85722055D01*
X165508769Y-85181231D01*
X164967945Y-84819864D01*
X164590000Y-84744686D01*
X164590000Y-84529848D01*
X164604888Y-84455000D01*
X164590000Y-84380152D01*
X164590000Y-84380148D01*
X164545904Y-84158463D01*
X164403272Y-83945000D01*
X182565199Y-83945000D01*
X183390000Y-84769802D01*
X183390000Y-84905091D01*
X183223847Y-84973914D01*
X182763914Y-85433847D01*
X182515000Y-86034778D01*
X182515000Y-86685222D01*
X182763914Y-87286153D01*
X183223847Y-87746086D01*
X183824778Y-87995000D01*
X184475222Y-87995000D01*
X185076153Y-87746086D01*
X185536086Y-87286153D01*
X185785000Y-86685222D01*
X185785000Y-86034778D01*
X185536086Y-85433847D01*
X185076153Y-84973914D01*
X184910000Y-84905091D01*
X184910000Y-84529846D01*
X184924888Y-84454999D01*
X184910000Y-84380152D01*
X184910000Y-84380148D01*
X184865904Y-84158463D01*
X184697929Y-83907071D01*
X184634473Y-83864671D01*
X183470331Y-82700530D01*
X183427929Y-82637071D01*
X183176537Y-82469096D01*
X182954852Y-82425000D01*
X182954847Y-82425000D01*
X182880000Y-82410112D01*
X182805153Y-82425000D01*
X134694846Y-82425000D01*
X134619999Y-82410112D01*
X134545152Y-82425000D01*
X134545148Y-82425000D01*
X134323463Y-82469096D01*
X134072071Y-82637071D01*
X134029671Y-82700527D01*
X132865528Y-83864671D01*
X132802072Y-83907071D01*
X132759672Y-83970527D01*
X132759671Y-83970528D01*
X132634097Y-84158463D01*
X132575112Y-84455000D01*
X132590001Y-84529852D01*
X132590000Y-87790153D01*
X132575112Y-87865000D01*
X132590000Y-87939847D01*
X132590000Y-87939851D01*
X132634096Y-88161536D01*
X132802071Y-88412929D01*
X132865530Y-88455331D01*
X133794670Y-89384472D01*
X133837071Y-89447929D01*
X133987560Y-89548483D01*
X133987560Y-90400000D01*
X134036843Y-90647765D01*
X134177191Y-90857809D01*
X134387235Y-90998157D01*
X134635000Y-91047440D01*
X136035000Y-91047440D01*
X136282765Y-90998157D01*
X136492809Y-90857809D01*
X136633157Y-90647765D01*
X136682440Y-90400000D01*
X136682440Y-90378007D01*
X136872519Y-90662480D01*
X137070150Y-90794534D01*
X137060112Y-90845000D01*
X137119097Y-91141537D01*
X137225054Y-91300112D01*
X137287072Y-91392929D01*
X137350528Y-91435329D01*
X138474670Y-92559472D01*
X138517071Y-92622929D01*
X138580527Y-92665329D01*
X138768462Y-92790904D01*
X138816605Y-92800480D01*
X138990148Y-92835000D01*
X138990152Y-92835000D01*
X139065000Y-92849888D01*
X139139848Y-92835000D01*
X142237273Y-92835000D01*
X142312120Y-92849888D01*
X142386967Y-92835000D01*
X142386972Y-92835000D01*
X142608657Y-92790904D01*
X142860049Y-92622929D01*
X142902451Y-92559470D01*
X145801922Y-89660000D01*
X153990199Y-89660000D01*
X154815001Y-90484803D01*
X154815000Y-92220153D01*
X154800112Y-92295000D01*
X154815000Y-92369847D01*
X154815000Y-92369851D01*
X154859096Y-92591536D01*
X155027071Y-92842929D01*
X155090530Y-92885331D01*
X156785174Y-94579977D01*
X156380423Y-94850423D01*
X156063260Y-95325091D01*
X155951887Y-95885000D01*
X156063260Y-96444909D01*
X156380423Y-96919577D01*
X156732758Y-97155000D01*
X156384931Y-97387411D01*
X152351676Y-93490060D01*
X152312929Y-93432071D01*
X152244006Y-93386018D01*
X152239286Y-93381457D01*
X152181861Y-93344494D01*
X152061537Y-93264096D01*
X152054907Y-93262777D01*
X152049227Y-93259121D01*
X151906936Y-93233344D01*
X151839852Y-93220000D01*
X151833277Y-93220000D01*
X151751724Y-93205226D01*
X151683574Y-93220000D01*
X149253388Y-93220000D01*
X149130978Y-93210837D01*
X149031347Y-93243631D01*
X148928463Y-93264096D01*
X148888938Y-93290506D01*
X148843788Y-93305367D01*
X148764287Y-93373795D01*
X148677071Y-93432071D01*
X148608868Y-93534144D01*
X147907208Y-94431233D01*
X147719577Y-94150423D01*
X147244909Y-93833260D01*
X146685000Y-93721887D01*
X146125092Y-93833260D01*
X145650424Y-94150423D01*
X145333261Y-94625091D01*
X145250000Y-95043667D01*
X145250000Y-96726332D01*
X145333260Y-97144908D01*
X145650423Y-97619576D01*
X146125091Y-97936740D01*
X146685000Y-98048113D01*
X147244908Y-97936740D01*
X147719576Y-97619577D01*
X148036740Y-97144909D01*
X148120000Y-96726333D01*
X148120000Y-96556372D01*
X148195711Y-96491206D01*
X148282929Y-96432929D01*
X148351133Y-96330854D01*
X148408160Y-96257944D01*
X148420633Y-96316819D01*
X148690500Y-96809896D01*
X149119607Y-97155000D01*
X148690500Y-97500104D01*
X148420633Y-97993181D01*
X148403096Y-98075961D01*
X148525085Y-98298000D01*
X150368000Y-98298000D01*
X150368000Y-96012000D01*
X150622000Y-96012000D01*
X150622000Y-98298000D01*
X152464915Y-98298000D01*
X152586904Y-98075961D01*
X152569367Y-97993181D01*
X152299500Y-97500104D01*
X151870393Y-97155000D01*
X152299500Y-96809896D01*
X152569367Y-96316819D01*
X152586904Y-96234039D01*
X152464915Y-96012000D01*
X150622000Y-96012000D01*
X150368000Y-96012000D01*
X150348000Y-96012000D01*
X150348000Y-95758000D01*
X150368000Y-95758000D01*
X150368000Y-95738000D01*
X150622000Y-95738000D01*
X150622000Y-95758000D01*
X152464915Y-95758000D01*
X152481000Y-95728722D01*
X155778326Y-98914943D01*
X155817071Y-98972929D01*
X155885990Y-99018980D01*
X155890713Y-99023543D01*
X155948166Y-99060524D01*
X156068463Y-99140904D01*
X156075091Y-99142222D01*
X156080772Y-99145879D01*
X156183217Y-99164438D01*
X156380423Y-99459577D01*
X156732758Y-99695000D01*
X156380423Y-99930423D01*
X156063260Y-100405091D01*
X155951887Y-100965000D01*
X156063260Y-101524909D01*
X156380423Y-101999577D01*
X156732758Y-102235000D01*
X156380423Y-102470423D01*
X156063260Y-102945091D01*
X155951887Y-103505000D01*
X156063260Y-104064909D01*
X156380423Y-104539577D01*
X156732758Y-104775000D01*
X156380423Y-105010423D01*
X156280479Y-105160000D01*
X155662159Y-105160000D01*
X155574999Y-105142663D01*
X155487839Y-105160000D01*
X155487835Y-105160000D01*
X155229690Y-105211348D01*
X155229688Y-105211349D01*
X155229689Y-105211349D01*
X155010845Y-105357576D01*
X155010844Y-105357577D01*
X154936951Y-105406951D01*
X154887577Y-105480844D01*
X153740845Y-106627577D01*
X153666952Y-106676951D01*
X153617578Y-106750844D01*
X153617576Y-106750846D01*
X153471348Y-106969691D01*
X153402663Y-107315000D01*
X153420001Y-107402165D01*
X153420000Y-110123421D01*
X152545424Y-110997998D01*
X152464916Y-110997998D01*
X152586904Y-110775961D01*
X152569367Y-110693181D01*
X152299500Y-110200104D01*
X151870393Y-109855000D01*
X152299500Y-109509896D01*
X152569367Y-109016819D01*
X152586904Y-108934039D01*
X152464915Y-108712000D01*
X150622000Y-108712000D01*
X150622000Y-110998000D01*
X150642000Y-110998000D01*
X150642000Y-111252000D01*
X150622000Y-111252000D01*
X150622000Y-111272000D01*
X150368000Y-111272000D01*
X150368000Y-111252000D01*
X148525085Y-111252000D01*
X148403096Y-111474039D01*
X148420633Y-111556819D01*
X148690500Y-112049896D01*
X148808754Y-112145000D01*
X147686579Y-112145000D01*
X147570000Y-112028422D01*
X147570000Y-111689521D01*
X147719577Y-111589577D01*
X148036740Y-111114909D01*
X148120000Y-110696333D01*
X148120000Y-109013667D01*
X148104161Y-108934039D01*
X148403096Y-108934039D01*
X148420633Y-109016819D01*
X148690500Y-109509896D01*
X149119607Y-109855000D01*
X148690500Y-110200104D01*
X148420633Y-110693181D01*
X148403096Y-110775961D01*
X148525085Y-110998000D01*
X150368000Y-110998000D01*
X150368000Y-108712000D01*
X148525085Y-108712000D01*
X148403096Y-108934039D01*
X148104161Y-108934039D01*
X148036740Y-108595091D01*
X147719576Y-108120423D01*
X147244908Y-107803260D01*
X146685000Y-107691887D01*
X146125091Y-107803260D01*
X145650423Y-108120424D01*
X145540000Y-108285684D01*
X145540000Y-108159846D01*
X145554888Y-108084999D01*
X145540000Y-108010152D01*
X145540000Y-108010148D01*
X145495904Y-107788463D01*
X145327929Y-107537071D01*
X145264473Y-107494671D01*
X143673774Y-105903972D01*
X143772031Y-105410000D01*
X143686897Y-104982000D01*
X145250000Y-104982000D01*
X145250000Y-105682000D01*
X145407834Y-106221483D01*
X145760104Y-106659500D01*
X146253181Y-106929367D01*
X146335961Y-106946904D01*
X146558000Y-106824915D01*
X146558000Y-104982000D01*
X146812000Y-104982000D01*
X146812000Y-106824915D01*
X147034039Y-106946904D01*
X147116819Y-106929367D01*
X147609896Y-106659500D01*
X147823389Y-106394039D01*
X148403096Y-106394039D01*
X148420633Y-106476819D01*
X148690500Y-106969896D01*
X149119607Y-107315000D01*
X148690500Y-107660104D01*
X148420633Y-108153181D01*
X148403096Y-108235961D01*
X148525085Y-108458000D01*
X150368000Y-108458000D01*
X150368000Y-106172000D01*
X150622000Y-106172000D01*
X150622000Y-108458000D01*
X152464915Y-108458000D01*
X152586904Y-108235961D01*
X152569367Y-108153181D01*
X152299500Y-107660104D01*
X151870393Y-107315000D01*
X152299500Y-106969896D01*
X152569367Y-106476819D01*
X152586904Y-106394039D01*
X152464915Y-106172000D01*
X150622000Y-106172000D01*
X150368000Y-106172000D01*
X148525085Y-106172000D01*
X148403096Y-106394039D01*
X147823389Y-106394039D01*
X147962166Y-106221483D01*
X148120000Y-105682000D01*
X148120000Y-104982000D01*
X146812000Y-104982000D01*
X146558000Y-104982000D01*
X145250000Y-104982000D01*
X143686897Y-104982000D01*
X143645136Y-104772055D01*
X143283769Y-104231231D01*
X142742945Y-103869864D01*
X142266031Y-103775000D01*
X140943969Y-103775000D01*
X140467055Y-103869864D01*
X139926231Y-104231231D01*
X139564864Y-104772055D01*
X139437969Y-105410000D01*
X139564864Y-106047945D01*
X139926231Y-106588769D01*
X140467055Y-106950136D01*
X140943969Y-107045000D01*
X142266031Y-107045000D01*
X142598972Y-106978774D01*
X144020000Y-108399802D01*
X144020001Y-112845091D01*
X143853847Y-112913914D01*
X143635000Y-113132761D01*
X143635000Y-113084846D01*
X143649888Y-113009999D01*
X143635000Y-112935152D01*
X143635000Y-112935148D01*
X143590904Y-112713463D01*
X143422929Y-112462071D01*
X143359473Y-112419671D01*
X142879017Y-111939216D01*
X143283769Y-111668769D01*
X143645136Y-111127945D01*
X143772031Y-110490000D01*
X143645136Y-109852055D01*
X143283769Y-109311231D01*
X142742945Y-108949864D01*
X142266031Y-108855000D01*
X140943969Y-108855000D01*
X140467055Y-108949864D01*
X139926231Y-109311231D01*
X139564864Y-109852055D01*
X139445739Y-110450938D01*
X139000331Y-110005530D01*
X138957929Y-109942071D01*
X138706537Y-109774096D01*
X138484852Y-109730000D01*
X138484847Y-109730000D01*
X138410000Y-109715112D01*
X138335153Y-109730000D01*
X135943581Y-109730000D01*
X135663769Y-109311231D01*
X135122945Y-108949864D01*
X134646031Y-108855000D01*
X133323969Y-108855000D01*
X132869990Y-108945302D01*
X132869990Y-107599811D01*
X133424801Y-107045000D01*
X134646031Y-107045000D01*
X135122945Y-106950136D01*
X135663769Y-106588769D01*
X136025136Y-106047945D01*
X136152031Y-105410000D01*
X136025136Y-104772055D01*
X135663769Y-104231231D01*
X135122945Y-103869864D01*
X134646031Y-103775000D01*
X133323969Y-103775000D01*
X132847055Y-103869864D01*
X132330000Y-104215349D01*
X132330000Y-103931578D01*
X135261692Y-100999886D01*
X135357191Y-101142809D01*
X135567235Y-101283157D01*
X135815000Y-101332440D01*
X139775000Y-101332440D01*
X140022765Y-101283157D01*
X140232809Y-101142809D01*
X140320213Y-101012000D01*
X145250000Y-101012000D01*
X145250000Y-101712000D01*
X145407834Y-102251483D01*
X145760104Y-102689500D01*
X146089898Y-102870000D01*
X145760104Y-103050500D01*
X145407834Y-103488517D01*
X145250000Y-104028000D01*
X145250000Y-104728000D01*
X146558000Y-104728000D01*
X146558000Y-102885085D01*
X146530543Y-102870000D01*
X146558000Y-102854915D01*
X146558000Y-101012000D01*
X146812000Y-101012000D01*
X146812000Y-102854915D01*
X146839457Y-102870000D01*
X146812000Y-102885085D01*
X146812000Y-104728000D01*
X148120000Y-104728000D01*
X148120000Y-104028000D01*
X148069106Y-103854039D01*
X148403096Y-103854039D01*
X148420633Y-103936819D01*
X148690500Y-104429896D01*
X149119607Y-104775000D01*
X148690500Y-105120104D01*
X148420633Y-105613181D01*
X148403096Y-105695961D01*
X148525085Y-105918000D01*
X150368000Y-105918000D01*
X150368000Y-103632000D01*
X150622000Y-103632000D01*
X150622000Y-105918000D01*
X152464915Y-105918000D01*
X152586904Y-105695961D01*
X152569367Y-105613181D01*
X152299500Y-105120104D01*
X151870393Y-104775000D01*
X152299500Y-104429896D01*
X152569367Y-103936819D01*
X152586904Y-103854039D01*
X152464915Y-103632000D01*
X150622000Y-103632000D01*
X150368000Y-103632000D01*
X148525085Y-103632000D01*
X148403096Y-103854039D01*
X148069106Y-103854039D01*
X147962166Y-103488517D01*
X147609896Y-103050500D01*
X147280102Y-102870000D01*
X147609896Y-102689500D01*
X147962166Y-102251483D01*
X148120000Y-101712000D01*
X148120000Y-101314039D01*
X148403096Y-101314039D01*
X148420633Y-101396819D01*
X148690500Y-101889896D01*
X149119607Y-102235000D01*
X148690500Y-102580104D01*
X148420633Y-103073181D01*
X148403096Y-103155961D01*
X148525085Y-103378000D01*
X150368000Y-103378000D01*
X150368000Y-101092000D01*
X150622000Y-101092000D01*
X150622000Y-103378000D01*
X152464915Y-103378000D01*
X152586904Y-103155961D01*
X152569367Y-103073181D01*
X152299500Y-102580104D01*
X151870393Y-102235000D01*
X152299500Y-101889896D01*
X152569367Y-101396819D01*
X152586904Y-101314039D01*
X152464915Y-101092000D01*
X150622000Y-101092000D01*
X150368000Y-101092000D01*
X148525085Y-101092000D01*
X148403096Y-101314039D01*
X148120000Y-101314039D01*
X148120000Y-101012000D01*
X146812000Y-101012000D01*
X146558000Y-101012000D01*
X145250000Y-101012000D01*
X140320213Y-101012000D01*
X140373157Y-100932765D01*
X140422440Y-100685000D01*
X140422440Y-100058000D01*
X145250000Y-100058000D01*
X145250000Y-100758000D01*
X146558000Y-100758000D01*
X146558000Y-98915085D01*
X146812000Y-98915085D01*
X146812000Y-100758000D01*
X148120000Y-100758000D01*
X148120000Y-100058000D01*
X147962166Y-99518517D01*
X147609896Y-99080500D01*
X147116819Y-98810633D01*
X147034039Y-98793096D01*
X146812000Y-98915085D01*
X146558000Y-98915085D01*
X146335961Y-98793096D01*
X146253181Y-98810633D01*
X145760104Y-99080500D01*
X145407834Y-99518517D01*
X145250000Y-100058000D01*
X140422440Y-100058000D01*
X140422440Y-99309138D01*
X140957539Y-98774039D01*
X148403096Y-98774039D01*
X148420633Y-98856819D01*
X148690500Y-99349896D01*
X149119607Y-99695000D01*
X148690500Y-100040104D01*
X148420633Y-100533181D01*
X148403096Y-100615961D01*
X148525085Y-100838000D01*
X150368000Y-100838000D01*
X150368000Y-98552000D01*
X150622000Y-98552000D01*
X150622000Y-100838000D01*
X152464915Y-100838000D01*
X152586904Y-100615961D01*
X152569367Y-100533181D01*
X152299500Y-100040104D01*
X151870393Y-99695000D01*
X152299500Y-99349896D01*
X152569367Y-98856819D01*
X152586904Y-98774039D01*
X152464915Y-98552000D01*
X150622000Y-98552000D01*
X150368000Y-98552000D01*
X148525085Y-98552000D01*
X148403096Y-98774039D01*
X140957539Y-98774039D01*
X147406579Y-92325000D01*
X148619941Y-92325000D01*
X148816231Y-92618769D01*
X149357055Y-92980136D01*
X149833969Y-93075000D01*
X151156031Y-93075000D01*
X151632945Y-92980136D01*
X152173769Y-92618769D01*
X152535136Y-92077945D01*
X152662031Y-91440000D01*
X152535136Y-90802055D01*
X152173769Y-90261231D01*
X151632945Y-89899864D01*
X151156031Y-89805000D01*
X149833969Y-89805000D01*
X149357055Y-89899864D01*
X148816231Y-90261231D01*
X148619941Y-90555000D01*
X147127161Y-90555000D01*
X147040000Y-90537663D01*
X146952839Y-90555000D01*
X146952835Y-90555000D01*
X146694690Y-90606348D01*
X146475845Y-90752576D01*
X146475844Y-90752577D01*
X146401951Y-90801951D01*
X146352577Y-90875844D01*
X139170862Y-98057560D01*
X135815000Y-98057560D01*
X135567235Y-98106843D01*
X135357191Y-98247191D01*
X135216843Y-98457235D01*
X135167560Y-98705000D01*
X135167560Y-98810055D01*
X134909690Y-98861348D01*
X134616951Y-99056951D01*
X134446755Y-99311666D01*
X130880847Y-102877575D01*
X130806951Y-102926951D01*
X130611348Y-103219691D01*
X130560000Y-103477836D01*
X130560000Y-103477839D01*
X130542663Y-103565000D01*
X130225000Y-103565000D01*
X130225000Y-95073865D01*
X135224782Y-95073865D01*
X135255095Y-95199528D01*
X135566149Y-95754246D01*
X136065807Y-96147703D01*
X136678000Y-96320000D01*
X137668000Y-96320000D01*
X137668000Y-94822000D01*
X137922000Y-94822000D01*
X137922000Y-96320000D01*
X138912000Y-96320000D01*
X139524193Y-96147703D01*
X140023851Y-95754246D01*
X140334905Y-95199528D01*
X140365218Y-95073865D01*
X140245740Y-94822000D01*
X137922000Y-94822000D01*
X137668000Y-94822000D01*
X135344260Y-94822000D01*
X135224782Y-95073865D01*
X130225000Y-95073865D01*
X130225000Y-94316135D01*
X135224782Y-94316135D01*
X135344260Y-94568000D01*
X137668000Y-94568000D01*
X137668000Y-93070000D01*
X137922000Y-93070000D01*
X137922000Y-94568000D01*
X140245740Y-94568000D01*
X140365218Y-94316135D01*
X140334905Y-94190472D01*
X140023851Y-93635754D01*
X139524193Y-93242297D01*
X138912000Y-93070000D01*
X137922000Y-93070000D01*
X137668000Y-93070000D01*
X136678000Y-93070000D01*
X136065807Y-93242297D01*
X135566149Y-93635754D01*
X135255095Y-94190472D01*
X135224782Y-94316135D01*
X130225000Y-94316135D01*
X130225000Y-83863101D01*
X130288552Y-83360033D01*
X130459222Y-82928971D01*
X130731732Y-82553892D01*
X131088960Y-82258367D01*
X131508454Y-82060968D01*
X131995913Y-81967981D01*
X132090760Y-81965000D01*
X191726899Y-81965000D01*
X192229967Y-82028552D01*
G04 #@! TD*
M02*
