<?xml version="1.0" encoding="UTF-8" standalone="no"?>
<svg
   xmlns:dc="http://purl.org/dc/elements/1.1/"
   xmlns:cc="http://creativecommons.org/ns#"
   xmlns:rdf="http://www.w3.org/1999/02/22-rdf-syntax-ns#"
   xmlns:svg="http://www.w3.org/2000/svg"
   xmlns="http://www.w3.org/2000/svg"
   xmlns:sodipodi="http://sodipodi.sourceforge.net/DTD/sodipodi-0.dtd"
   xmlns:inkscape="http://www.inkscape.org/namespaces/inkscape"
   version="1.1"
   width="744.11926"
   height="1052.3693"
   viewBox="0 0 82679.976 116930.03"
   id="svg2"
   inkscape:version="0.48.4 r9939"
   sodipodi:docname="ponta-de-prova-logica-simplificada-F.SilkS.svg">
  <metadata
     id="metadata460">
    <rdf:RDF>
      <cc:Work
         rdf:about="">
        <dc:format>image/svg+xml</dc:format>
        <dc:type
           rdf:resource="http://purl.org/dc/dcmitype/StillImage" />
      </cc:Work>
    </rdf:RDF>
  </metadata>
  <defs
     id="defs458" />
  <sodipodi:namedview
     pagecolor="#ffffff"
     bordercolor="#666666"
     borderopacity="1"
     objecttolerance="10"
     gridtolerance="10"
     guidetolerance="10"
     inkscape:pageopacity="0"
     inkscape:pageshadow="2"
     inkscape:window-width="640"
     inkscape:window-height="480"
     id="namedview456"
     showgrid="false"
     inkscape:zoom="0.54353545"
     inkscape:cx="216.98923"
     inkscape:cy="1009.4079"
     inkscape:window-x="0"
     inkscape:window-y="0"
     inkscape:window-maximized="0"
     inkscape:current-layer="svg2" />
  <title
     id="title4">SVG Picture created as ponta-de-prova-logica-simplificada-F.SilkS.svg date 2019/03/21 19:23:57 </title>
  <desc
     id="desc6">Picture generated by PCBNEW </desc>
  <g
     style="fill:#000000;fill-opacity:1;stroke:#000000;stroke-linecap:round;stroke-linejoin:round;stroke-opacity:1"
     id="g8"
     transform="translate(0,34250.034)" />
  <g
     style="fill:#000000;fill-opacity:0;stroke:#000000;stroke-width:-0.0003937;stroke-linecap:round;stroke-linejoin:round;stroke-opacity:1"
     id="g10"
     transform="translate(0,34250.034)" />
  <g
     style="fill:#000000;fill-opacity:0;stroke:#000000;stroke-width:39.37009811;stroke-linecap:round;stroke-linejoin:round;stroke-opacity:1"
     id="g12"
     transform="translate(-79501.939,-297.17245)">
    <path
       d="m 110430,21500 a 1000,1000 0 0 0 1000,-1000"
       id="path14"
       inkscape:connector-curvature="0" />
    <path
       d="m 85930,20500 a 1000,1000 0 0 0 1000,1000"
       id="path16"
       inkscape:connector-curvature="0" />
    <path
       d="M 86930,5750 A 1000,1000 0 0 0 85930,6750"
       id="path18"
       inkscape:connector-curvature="0" />
    <path
       d="M 111430,6750 A 1000,1000 0 0 0 110430,5750"
       id="path20"
       inkscape:connector-curvature="0" />
    <path
       d="m 110430,21500 -23500,0"
       id="path22"
       inkscape:connector-curvature="0" />
    <path
       d="m 111430,6750 0,13750"
       id="path24"
       inkscape:connector-curvature="0" />
    <path
       d="m 86930,5750 23500,0"
       id="path26"
       inkscape:connector-curvature="0" />
    <path
       d="m 85930,20500 0,-13750"
       id="path28"
       inkscape:connector-curvature="0" />
    <path
       d="m 106530,6925 0,3250"
       id="path30"
       inkscape:connector-curvature="0" />
    <path
       d="m 109905,6925 0,3375"
       id="path32"
       inkscape:connector-curvature="0" />
    <path
       d="m 106530,6925 3375,0"
       id="path34"
       inkscape:connector-curvature="0" />
    <path
       d="m 106530,10175 125,125"
       id="path36"
       inkscape:connector-curvature="0" />
    <path
       d="m 106655,10300 3250,0"
       id="path38"
       inkscape:connector-curvature="0" />
  </g>
  <g
     style="fill:#000000;fill-opacity:0;stroke:#000000;stroke-width:47.24409866;stroke-linecap:round;stroke-linejoin:round;stroke-opacity:1"
     id="g40"
     transform="translate(-79501.939,-297.17245)">
    <path
       d="m 106892,18289 0,-130"
       id="path42"
       inkscape:connector-curvature="0" />
    <path
       d="m 109467,18289 -2575,0"
       id="path44"
       inkscape:connector-curvature="0" />
    <path
       d="m 109467,18159 0,130"
       id="path46"
       inkscape:connector-curvature="0" />
    <path
       d="m 106892,17210 0,130"
       id="path48"
       inkscape:connector-curvature="0" />
    <path
       d="m 109467,17210 -2575,0"
       id="path50"
       inkscape:connector-curvature="0" />
    <path
       d="m 109467,17340 0,-130"
       id="path52"
       inkscape:connector-curvature="0" />
    <path
       d="m 108944,19135.8 a 783.465,783.465 0 0 0 61,1272.6"
       id="path54"
       inkscape:connector-curvature="0" />
    <path
       d="m 109855,20408.4 a 783.465,783.465 0 0 0 61,-1272.6"
       id="path56"
       inkscape:connector-curvature="0" />
    <path
       d="m 109005,19340.2 a 590.551,590.551 0 0 0 0,819.7"
       id="path58"
       inkscape:connector-curvature="0" />
    <path
       d="m 109855,20159.9 a 590.551,590.551 0 0 0 0,-819.7"
       id="path60"
       inkscape:connector-curvature="0" />
    <path
       d="m 108943,19135 61,0"
       id="path62"
       inkscape:connector-curvature="0" />
    <path
       d="m 109855,19135 61,0"
       id="path64"
       inkscape:connector-curvature="0" />
    <path
       d="m 100392,8409 0,130"
       id="path66"
       inkscape:connector-curvature="0" />
    <path
       d="m 100392,8539 2575,0"
       id="path68"
       inkscape:connector-curvature="0" />
    <path
       d="m 102967,8539 0,-130"
       id="path70"
       inkscape:connector-curvature="0" />
    <path
       d="m 100392,7590 0,-130"
       id="path72"
       inkscape:connector-curvature="0" />
    <path
       d="m 100392,7460 2575,0"
       id="path74"
       inkscape:connector-curvature="0" />
    <path
       d="m 102967,7460 0,130"
       id="path76"
       inkscape:connector-curvature="0" />
    <path
       d="m 103746,18297 -4133,0"
       id="path78"
       inkscape:connector-curvature="0" />
    <path
       d="m 103746,11202 0,7095"
       id="path80"
       inkscape:connector-curvature="0" />
    <path
       d="m 99613,11202 4133,0"
       id="path82"
       inkscape:connector-curvature="0" />
    <path
       d="m 99613,18297 0,-7095"
       id="path84"
       inkscape:connector-curvature="0" />
    <path
       d="m 102565,18273 -492,0"
       id="path86"
       inkscape:connector-curvature="0" />
    <path
       d="m 102565,11226 0,7047"
       id="path88"
       inkscape:connector-curvature="0" />
    <path
       d="m 100794,11226 1771,0"
       id="path90"
       inkscape:connector-curvature="0" />
    <path
       d="m 100794,18273 0,-7047"
       id="path92"
       inkscape:connector-curvature="0" />
    <path
       d="m 101286,18273 -492,0"
       id="path94"
       inkscape:connector-curvature="0" />
    <path
       d="m 102074,18273.6 a 394,394 0 0 0 -788,0"
       id="path96"
       inkscape:connector-curvature="0" />
    <path
       d="m 104264,15234 -124,0"
       id="path98"
       inkscape:connector-curvature="0" />
    <path
       d="m 105219,15234 -124,0"
       id="path100"
       inkscape:connector-curvature="0" />
    <path
       d="m 104264,17297 -124,0"
       id="path102"
       inkscape:connector-curvature="0" />
    <path
       d="m 105219,17297 -124,0"
       id="path104"
       inkscape:connector-curvature="0" />
    <path
       d="m 104140,17297 0,-2063"
       id="path106"
       inkscape:connector-curvature="0" />
    <path
       d="m 105219,17297 0,-2063"
       id="path108"
       inkscape:connector-curvature="0" />
    <path
       d="m 104140,11702 0,2063"
       id="path110"
       inkscape:connector-curvature="0" />
    <path
       d="m 105219,11702 0,2063"
       id="path112"
       inkscape:connector-curvature="0" />
    <path
       d="m 104140,11702 124,0"
       id="path114"
       inkscape:connector-curvature="0" />
    <path
       d="m 105095,11702 124,0"
       id="path116"
       inkscape:connector-curvature="0" />
    <path
       d="m 104140,13765 124,0"
       id="path118"
       inkscape:connector-curvature="0" />
    <path
       d="m 105095,13765 124,0"
       id="path120"
       inkscape:connector-curvature="0" />
  </g>
  <g
     style="fill:#000000;fill-opacity:0;stroke:#000000;stroke-width:59.05509949;stroke-linecap:round;stroke-linejoin:round;stroke-opacity:1"
     id="g122"
     transform="translate(-79501.939,-297.17245)">
    <path
       d="m 93930,15750 -8000,0"
       id="path124"
       inkscape:connector-curvature="0" />
    <path
       d="m 85930,15750 0,-4000"
       id="path126"
       inkscape:connector-curvature="0" />
    <path
       d="m 85930,11750 8000,0"
       id="path128"
       inkscape:connector-curvature="0" />
    <path
       d="m 93930,11750 0,4000"
       id="path130"
       inkscape:connector-curvature="0" />
    <path
       d="m 93430,15750 0,4000"
       id="path132"
       inkscape:connector-curvature="0" />
    <path
       d="m 93430,19750 -1500,0"
       id="path134"
       inkscape:connector-curvature="0" />
    <path
       d="m 91930,19750 0,-4000"
       id="path136"
       inkscape:connector-curvature="0" />
    <path
       d="m 87930,15750 0,4000"
       id="path138"
       inkscape:connector-curvature="0" />
    <path
       d="m 86430,19750 0,-4000"
       id="path140"
       inkscape:connector-curvature="0" />
    <path
       d="m 87930,19750 -1500,0"
       id="path142"
       inkscape:connector-curvature="0" />
    <path
       d="m 91930,11750 0,-4000"
       id="path144"
       inkscape:connector-curvature="0" />
    <path
       d="m 93430,7750 0,4000"
       id="path146"
       inkscape:connector-curvature="0" />
    <path
       d="m 91930,7750 1500,0"
       id="path148"
       inkscape:connector-curvature="0" />
    <path
       d="m 86430,11750 0,-4000"
       id="path150"
       inkscape:connector-curvature="0" />
    <path
       d="m 87930,7750 0,4000"
       id="path152"
       inkscape:connector-curvature="0" />
    <path
       d="m 86430,7750 1500,0"
       id="path154"
       inkscape:connector-curvature="0" />
  </g>
  <g
     style="fill:#000000;fill-opacity:0;stroke:#000000;stroke-width:47.24409866;stroke-linecap:round;stroke-linejoin:round;stroke-opacity:1"
     id="g156"
     transform="translate(-79501.939,-297.17245)">
    <path
       d="m 95142,14539 0,-130"
       id="path158"
       inkscape:connector-curvature="0" />
    <path
       d="m 97717,14539 -2575,0"
       id="path160"
       inkscape:connector-curvature="0" />
    <path
       d="m 97717,14409 0,130"
       id="path162"
       inkscape:connector-curvature="0" />
    <path
       d="m 95142,13460 0,130"
       id="path164"
       inkscape:connector-curvature="0" />
    <path
       d="m 97717,13460 -2575,0"
       id="path166"
       inkscape:connector-curvature="0" />
    <path
       d="m 97717,13590 0,-130"
       id="path168"
       inkscape:connector-curvature="0" />
    <path
       d="m 107355,19135 61,0"
       id="path170"
       inkscape:connector-curvature="0" />
    <path
       d="m 106443,19135 61,0"
       id="path172"
       inkscape:connector-curvature="0" />
    <path
       d="m 107355,20159.9 a 590.551,590.551 0 0 0 0,-819.7"
       id="path174"
       inkscape:connector-curvature="0" />
    <path
       d="m 106505,19340.2 a 590.551,590.551 0 0 0 0,819.7"
       id="path176"
       inkscape:connector-curvature="0" />
    <path
       d="m 107355,20408.4 a 783.465,783.465 0 0 0 61,-1272.6"
       id="path178"
       inkscape:connector-curvature="0" />
    <path
       d="m 106444,19135.8 a 783.465,783.465 0 0 0 61,1272.6"
       id="path180"
       inkscape:connector-curvature="0" />
    <path
       d="m 110660,15043 -4961,0"
       id="path182"
       inkscape:connector-curvature="0" />
    <path
       d="m 105699,15043 0,-4075"
       id="path184"
       inkscape:connector-curvature="0" />
    <path
       d="m 105699,10968 374,0"
       id="path186"
       inkscape:connector-curvature="0" />
    <path
       d="m 106073,10968 -98,-197"
       id="path188"
       inkscape:connector-curvature="0" />
    <path
       d="m 105975,10771 748,0"
       id="path190"
       inkscape:connector-curvature="0" />
    <path
       d="m 106723,10771 19,0"
       id="path192"
       inkscape:connector-curvature="0" />
    <path
       d="m 106742,10771 -98,197"
       id="path194"
       inkscape:connector-curvature="0" />
    <path
       d="m 106644,10968 2126,0"
       id="path196"
       inkscape:connector-curvature="0" />
    <path
       d="m 108770,10968 -118,-197"
       id="path198"
       inkscape:connector-curvature="0" />
    <path
       d="m 108652,10771 2008,0"
       id="path200"
       inkscape:connector-curvature="0" />
    <path
       d="m 110660,10771 0,4272"
       id="path202"
       inkscape:connector-curvature="0" />
    <path
       d="m 100392,10539 0,-130"
       id="path204"
       inkscape:connector-curvature="0" />
    <path
       d="m 102967,10539 -2575,0"
       id="path206"
       inkscape:connector-curvature="0" />
    <path
       d="m 102967,10409 0,130"
       id="path208"
       inkscape:connector-curvature="0" />
    <path
       d="m 100392,9460 0,130"
       id="path210"
       inkscape:connector-curvature="0" />
    <path
       d="m 102967,9460 -2575,0"
       id="path212"
       inkscape:connector-curvature="0" />
    <path
       d="m 102967,9590 0,-130"
       id="path214"
       inkscape:connector-curvature="0" />
    <path
       d="m 95142,12539 0,-130"
       id="path216"
       inkscape:connector-curvature="0" />
    <path
       d="m 97717,12539 -2575,0"
       id="path218"
       inkscape:connector-curvature="0" />
    <path
       d="m 97717,12409 0,130"
       id="path220"
       inkscape:connector-curvature="0" />
    <path
       d="m 95142,11460 0,130"
       id="path222"
       inkscape:connector-curvature="0" />
    <path
       d="m 97717,11460 -2575,0"
       id="path224"
       inkscape:connector-curvature="0" />
    <path
       d="m 97717,11590 0,-130"
       id="path226"
       inkscape:connector-curvature="0" />
    <path
       d="m 95142,8539 0,-130"
       id="path228"
       inkscape:connector-curvature="0" />
    <path
       d="m 97717,8539 -2575,0"
       id="path230"
       inkscape:connector-curvature="0" />
    <path
       d="m 97717,8409 0,130"
       id="path232"
       inkscape:connector-curvature="0" />
    <path
       d="m 95142,7460 0,130"
       id="path234"
       inkscape:connector-curvature="0" />
    <path
       d="m 97717,7460 -2575,0"
       id="path236"
       inkscape:connector-curvature="0" />
    <path
       d="m 97717,7590 0,-130"
       id="path238"
       inkscape:connector-curvature="0" />
    <path
       d="m 97717,9590 0,-130"
       id="path240"
       inkscape:connector-curvature="0" />
    <path
       d="m 97717,9460 -2575,0"
       id="path242"
       inkscape:connector-curvature="0" />
    <path
       d="m 95142,9460 0,130"
       id="path244"
       inkscape:connector-curvature="0" />
    <path
       d="m 97717,10409 0,130"
       id="path246"
       inkscape:connector-curvature="0" />
    <path
       d="m 97717,10539 -2575,0"
       id="path248"
       inkscape:connector-curvature="0" />
    <path
       d="m 95142,10539 0,-130"
       id="path250"
       inkscape:connector-curvature="0" />
    <path
       d="m 97717,15590 0,-130"
       id="path252"
       inkscape:connector-curvature="0" />
    <path
       d="m 97717,15460 -2575,0"
       id="path254"
       inkscape:connector-curvature="0" />
    <path
       d="m 95142,15460 0,130"
       id="path256"
       inkscape:connector-curvature="0" />
    <path
       d="m 97717,16409 0,130"
       id="path258"
       inkscape:connector-curvature="0" />
    <path
       d="m 97717,16539 -2575,0"
       id="path260"
       inkscape:connector-curvature="0" />
    <path
       d="m 95142,16539 0,-130"
       id="path262"
       inkscape:connector-curvature="0" />
    <path
       d="m 97717,19590 0,-130"
       id="path264"
       inkscape:connector-curvature="0" />
    <path
       d="m 97717,19460 -2575,0"
       id="path266"
       inkscape:connector-curvature="0" />
    <path
       d="m 95142,19460 0,130"
       id="path268"
       inkscape:connector-curvature="0" />
    <path
       d="m 97717,20409 0,130"
       id="path270"
       inkscape:connector-curvature="0" />
    <path
       d="m 97717,20539 -2575,0"
       id="path272"
       inkscape:connector-curvature="0" />
    <path
       d="m 95142,20539 0,-130"
       id="path274"
       inkscape:connector-curvature="0" />
    <path
       d="m 97717,17460 0,130"
       id="path276"
       inkscape:connector-curvature="0" />
    <path
       d="m 95142,17460 2575,0"
       id="path278"
       inkscape:connector-curvature="0" />
    <path
       d="m 95142,17590 0,-130"
       id="path280"
       inkscape:connector-curvature="0" />
    <path
       d="m 97717,18539 0,-130"
       id="path282"
       inkscape:connector-curvature="0" />
    <path
       d="m 95142,18539 2575,0"
       id="path284"
       inkscape:connector-curvature="0" />
    <path
       d="m 95142,18409 0,130"
       id="path286"
       inkscape:connector-curvature="0" />
    <path
       d="m 100392,20409 0,130"
       id="path288"
       inkscape:connector-curvature="0" />
    <path
       d="m 100392,20539 2575,0"
       id="path290"
       inkscape:connector-curvature="0" />
    <path
       d="m 102967,20539 0,-130"
       id="path292"
       inkscape:connector-curvature="0" />
    <path
       d="m 100392,19590 0,-130"
       id="path294"
       inkscape:connector-curvature="0" />
    <path
       d="m 100392,19460 2575,0"
       id="path296"
       inkscape:connector-curvature="0" />
    <path
       d="m 102967,19460 0,130"
       id="path298"
       inkscape:connector-curvature="0" />
    <path
       d="m 106892,16789 0,-130"
       id="path300"
       inkscape:connector-curvature="0" />
    <path
       d="m 109467,16789 -2575,0"
       id="path302"
       inkscape:connector-curvature="0" />
    <path
       d="m 109467,16659 0,130"
       id="path304"
       inkscape:connector-curvature="0" />
    <path
       d="m 106892,15710 0,130"
       id="path306"
       inkscape:connector-curvature="0" />
    <path
       d="m 109467,15710 -2575,0"
       id="path308"
       inkscape:connector-curvature="0" />
    <path
       d="m 109467,15840 0,-130"
       id="path310"
       inkscape:connector-curvature="0" />
  </g>
  <g
     style="fill:#000000;fill-opacity:0;stroke:#000000;stroke-width:59.05509949;stroke-linecap:round;stroke-linejoin:round;stroke-opacity:1"
     id="g312"
     transform="translate(-79501.939,-297.17245)">
    <path
       d="m 106204,7409 -56,19 -94,0 -37,-19 -19,-19 -19,-37 0,-38 19,-37 19,-19 37,-19 75,-19 38,-18 19,-19 18,-38 0,-37 -18,-38 -19,-18 -38,-19 -93,0 -57,19"
       id="path314"
       inkscape:connector-curvature="0" />
    <path
       d="m 105848,7034 -94,394 -74,-282 -75,282 -94,-394"
       id="path316"
       inkscape:connector-curvature="0" />
    <path
       d="m 105155,7428 225,0"
       id="path318"
       inkscape:connector-curvature="0" />
    <path
       d="m 105267,7428 0,-394 38,56 37,38 38,18"
       id="path320"
       inkscape:connector-curvature="0" />
    <path
       d="m 110501,18003 188,131"
       id="path322"
       inkscape:connector-curvature="0" />
    <path
       d="m 110501,18228 394,0 0,-150 -19,-38 -18,-19 -38,-18 -56,0 -38,18 -18,19 -19,38 0,150"
       id="path324"
       inkscape:connector-curvature="0" />
    <path
       d="m 110501,17628 0,225"
       id="path326"
       inkscape:connector-curvature="0" />
    <path
       d="m 110501,17740 394,0 -56,38 -38,37 -18,38"
       id="path328"
       inkscape:connector-curvature="0" />
    <path
       d="m 110858,17478 18,-19 19,-38 0,-93 -19,-38 -18,-19 -38,-18 -37,0 -57,18 -225,225 0,-243"
       id="path330"
       inkscape:connector-curvature="0" />
    <path
       d="m 108470,20678 0,-394 -94,0 -56,19 -37,37 -19,38 -19,75 0,56 19,75 19,37 37,38 56,19 94,0"
       id="path332"
       inkscape:connector-curvature="0" />
    <path
       d="m 107870,20678 225,0"
       id="path334"
       inkscape:connector-curvature="0" />
    <path
       d="m 107983,20678 0,-394 37,56 38,38 37,18"
       id="path336"
       inkscape:connector-curvature="0" />
    <path
       d="m 101745,7278 131,-188"
       id="path338"
       inkscape:connector-curvature="0" />
    <path
       d="m 101970,7278 0,-394 -150,0 -37,19 -19,18 -19,38 0,56 19,38 19,18 37,19 150,0"
       id="path340"
       inkscape:connector-curvature="0" />
    <path
       d="m 101614,6884 -244,0 131,150 -56,0 -37,19 -19,18 -19,38 0,94 19,37 19,19 37,19 113,0 37,-19 19,-19"
       id="path342"
       inkscape:connector-curvature="0" />
    <path
       d="m 100479,18451 0,319 -18,37 -19,19 -38,19 -75,0 -37,-19 -19,-19 -19,-37 0,-319"
       id="path344"
       inkscape:connector-curvature="0" />
    <path
       d="m 99861,18845 225,0"
       id="path346"
       inkscape:connector-curvature="0" />
    <path
       d="m 99973,18845 0,-394 38,56 37,38 38,19"
       id="path348"
       inkscape:connector-curvature="0" />
    <path
       d="m 104495,18440 19,19 56,19 38,0 56,-19 37,-38 19,-37 19,-75 0,-56 -19,-75 -19,-38 -37,-37 -56,-19 -38,0 -56,19 -19,18"
       id="path350"
       inkscape:connector-curvature="0" />
    <path
       d="m 104345,18121 -19,-18 -37,-19 -94,0 -37,19 -19,18 -19,38 0,37 19,57 225,225 -244,0"
       id="path352"
       inkscape:connector-curvature="0" />
    <path
       d="m 104495,10840 19,19 56,19 38,0 56,-19 37,-38 19,-37 19,-75 0,-56 -19,-75 -19,-38 -37,-37 -56,-19 -38,0 -56,19 -19,18"
       id="path354"
       inkscape:connector-curvature="0" />
    <path
       d="m 104120,10878 225,0"
       id="path356"
       inkscape:connector-curvature="0" />
    <path
       d="m 104233,10878 0,-394 37,56 38,38 37,18"
       id="path358"
       inkscape:connector-curvature="0" />
    <path
       d="m 90417,13928 0,-394 -150,0 -38,19 -18,18 -19,38 0,56 19,38 18,18 38,19 150,0"
       id="path360"
       inkscape:connector-curvature="0" />
    <path
       d="m 90023,13928 0,-394 -150,0 -37,19 -19,18 -19,38 0,56 19,38 19,18 37,19 150,0"
       id="path362"
       inkscape:connector-curvature="0" />
    <path
       d="m 89423,13928 225,0"
       id="path364"
       inkscape:connector-curvature="0" />
    <path
       d="m 89536,13928 0,-394 37,56 38,38 37,18"
       id="path366"
       inkscape:connector-curvature="0" />
    <path
       d="m 94695,15078 131,-188"
       id="path368"
       inkscape:connector-curvature="0" />
    <path
       d="m 94920,15078 0,-394 -150,0 -37,19 -19,18 -19,38 0,56 19,38 19,18 37,19 150,0"
       id="path370"
       inkscape:connector-curvature="0" />
    <path
       d="m 94470,14853 38,-19 18,-19 19,-37 0,-19 -19,-38 -18,-18 -38,-19 -75,0 -37,19 -19,18 -19,38 0,19 19,37 19,19 37,19 75,0 38,18 18,19 19,38 0,75 -19,37 -18,19 -38,19 -75,0 -37,-19 -19,-19 -19,-37 0,-75 19,-38 19,-19 37,-18"
       id="path372"
       inkscape:connector-curvature="0" />
    <path
       d="m 105970,20678 0,-394 -94,0 -56,19 -37,37 -19,38 -19,75 0,56 19,75 19,37 37,38 56,19 94,0"
       id="path374"
       inkscape:connector-curvature="0" />
    <path
       d="m 105595,20321 -19,-18 -37,-19 -94,0 -37,19 -19,18 -19,38 0,37 19,57 225,225 -244,0"
       id="path376"
       inkscape:connector-curvature="0" />
    <path
       d="m 105811,10034 0,281 18,56 38,38 56,19 38,0"
       id="path378"
       inkscape:connector-curvature="0" />
    <path
       d="m 105417,10428 225,0"
       id="path380"
       inkscape:connector-curvature="0" />
    <path
       d="m 105530,10428 0,-394 37,56 38,38 37,18"
       id="path382"
       inkscape:connector-curvature="0" />
    <path
       d="m 90061,17284 0,281 18,56 38,38 56,19 38,0"
       id="path384"
       inkscape:connector-curvature="0" />
    <path
       d="m 89892,17321 -19,-18 -37,-19 -94,0 -37,19 -19,18 -19,38 0,37 19,57 225,225 -244,0"
       id="path386"
       inkscape:connector-curvature="0" />
    <path
       d="m 104295,9578 131,-188"
       id="path388"
       inkscape:connector-curvature="0" />
    <path
       d="m 104520,9578 0,-394 -150,0 -37,19 -19,18 -19,38 0,56 19,38 19,18 37,19 150,0"
       id="path390"
       inkscape:connector-curvature="0" />
    <path
       d="m 103920,9578 225,0"
       id="path392"
       inkscape:connector-curvature="0" />
    <path
       d="m 104033,9578 0,-394 37,56 38,38 37,18"
       id="path394"
       inkscape:connector-curvature="0" />
    <path
       d="m 96495,11245 131,-188"
       id="path396"
       inkscape:connector-curvature="0" />
    <path
       d="m 96720,11245 0,-394 -150,0 -37,19 -19,18 -19,38 0,56 19,38 19,18 37,19 150,0"
       id="path398"
       inkscape:connector-curvature="0" />
    <path
       d="m 96345,10888 -19,-18 -37,-19 -94,0 -37,19 -19,18 -19,38 0,37 19,57 225,225 -244,0"
       id="path400"
       inkscape:connector-curvature="0" />
    <path
       d="m 96495,7245 131,-188"
       id="path402"
       inkscape:connector-curvature="0" />
    <path
       d="m 96720,7245 0,-394 -150,0 -37,19 -19,18 -19,38 0,56 19,38 19,18 37,19 150,0"
       id="path404"
       inkscape:connector-curvature="0" />
    <path
       d="m 96158,6982 0,263"
       id="path406"
       inkscape:connector-curvature="0" />
    <path
       d="m 96251,6832 94,281 -244,0"
       id="path408"
       inkscape:connector-curvature="0" />
    <path
       d="m 96495,9245 131,-188"
       id="path410"
       inkscape:connector-curvature="0" />
    <path
       d="m 96720,9245 0,-394 -150,0 -37,19 -19,18 -19,38 0,56 19,38 19,18 37,19 150,0"
       id="path412"
       inkscape:connector-curvature="0" />
    <path
       d="m 96139,8851 187,0 19,187 -19,-18 -37,-19 -94,0 -37,19 -19,18 -19,38 0,94 19,37 19,19 37,19 94,0 37,-19 19,-19"
       id="path414"
       inkscape:connector-curvature="0" />
    <path
       d="m 96495,15245 131,-188"
       id="path416"
       inkscape:connector-curvature="0" />
    <path
       d="m 96720,15245 0,-394 -150,0 -37,19 -19,18 -19,38 0,56 19,38 19,18 37,19 150,0"
       id="path418"
       inkscape:connector-curvature="0" />
    <path
       d="m 96158,14851 75,0 37,19 19,18 37,57 19,75 0,150 -19,37 -18,19 -38,19 -75,0 -37,-19 -19,-19 -19,-37 0,-94 19,-38 19,-18 37,-19 75,0 38,19 18,18 19,38"
       id="path420"
       inkscape:connector-curvature="0" />
    <path
       d="m 96495,19278 131,-188"
       id="path422"
       inkscape:connector-curvature="0" />
    <path
       d="m 96720,19278 0,-394 -150,0 -37,19 -19,18 -19,38 0,56 19,38 19,18 37,19 150,0"
       id="path424"
       inkscape:connector-curvature="0" />
    <path
       d="m 96364,18884 -263,0 169,394"
       id="path426"
       inkscape:connector-curvature="0" />
    <path
       d="m 96495,17278 131,-188"
       id="path428"
       inkscape:connector-curvature="0" />
    <path
       d="m 96720,17278 0,-394 -150,0 -37,19 -19,18 -19,38 0,56 19,38 19,18 37,19 150,0"
       id="path430"
       inkscape:connector-curvature="0" />
    <path
       d="m 96308,17278 -75,0 -38,-19 -19,-19 -37,-56 -19,-75 0,-150 19,-38 19,-18 37,-19 75,0 38,19 18,18 19,38 0,94 -19,37 -18,19 -38,19 -75,0 -37,-19 -19,-19 -19,-37"
       id="path432"
       inkscape:connector-curvature="0" />
    <path
       d="m 104683,19928 131,-188"
       id="path434"
       inkscape:connector-curvature="0" />
    <path
       d="m 104908,19928 0,-394 -150,0 -38,19 -19,18 -18,38 0,56 18,38 19,18 38,19 150,0"
       id="path436"
       inkscape:connector-curvature="0" />
    <path
       d="m 104308,19928 225,0"
       id="path438"
       inkscape:connector-curvature="0" />
    <path
       d="m 104420,19928 0,-394 38,56 37,38 38,18"
       id="path440"
       inkscape:connector-curvature="0" />
    <path
       d="m 104064,19534 -38,0 -37,19 -19,18 -19,38 -18,75 0,94 18,75 19,37 19,19 37,19 38,0 37,-19 19,-19 19,-37 19,-75 0,-94 -19,-75 -19,-38 -19,-18 -37,-19"
       id="path442"
       inkscape:connector-curvature="0" />
    <path
       d="m 110501,16503 188,131"
       id="path444"
       inkscape:connector-curvature="0" />
    <path
       d="m 110501,16728 394,0 0,-150 -19,-38 -18,-19 -38,-18 -56,0 -38,18 -18,19 -19,38 0,150"
       id="path446"
       inkscape:connector-curvature="0" />
    <path
       d="m 110501,16128 0,225"
       id="path448"
       inkscape:connector-curvature="0" />
    <path
       d="m 110501,16240 394,0 -56,38 -38,37 -18,38"
       id="path450"
       inkscape:connector-curvature="0" />
    <path
       d="m 110501,15753 0,225"
       id="path452"
       inkscape:connector-curvature="0" />
    <path
       d="m 110501,15865 394,0 -56,38 -38,37 -18,38"
       id="path454"
       inkscape:connector-curvature="0" />
  </g>
</svg>
