M48
; DRILL file {KiCad 5.1.12-84ad8e8a86~92~ubuntu20.04.1} date dom 13 fev 2022 23:15:43
; FORMAT={-:-/ absolute / metric / decimal}
; #@! TF.CreationDate,2022-02-13T23:15:43-03:00
; #@! TF.GenerationSoftware,Kicad,Pcbnew,5.1.12-84ad8e8a86~92~ubuntu20.04.1
; #@! TF.FileFunction,Plated,1,2,PTH
FMAT,2
METRIC
T1C0.800
T2C1.300
%
G90
G05
T1
X110.49Y-90.17
X120.65Y-90.17
X123.19Y-97.79
X125.73Y-91.44
X127.0Y-90.17
X128.27Y-91.44
X130.81Y-97.79
X134.62Y-90.17
X134.62Y-97.79
X144.78Y-90.17
X144.78Y-97.79
X144.78Y-102.87
X144.78Y-105.41
T2
X105.41Y-90.17
X109.22Y-97.79
X109.22Y-102.79
X109.22Y-113.03
X109.22Y-118.03
X120.95Y-104.82
X120.95Y-117.02
X127.0Y-102.87
X132.95Y-104.82
X133.0Y-117.07
X144.78Y-113.11
X144.78Y-118.11
T0
M30
