<?xml version="1.0" encoding="UTF-8" standalone="no"?>
<!-- Created with Digital by H.Neemann -->
<!-- created: Sat Jun 25 19:50:56 BRT 2022 -->

<svg
   xmlns:svg="http://www.w3.org/2000/svg"
   xmlns="http://www.w3.org/2000/svg"
   width="115.95mm"
   height="37.35mm"
   viewBox="2 3 773 249">
<g stroke-linecap="square">
<text text-anchor="end" x="54.0" y="31.0" fill="#000000" style="font-size:24px">POR</text>
<line x1="56.0" y1="5.0" x2="773.0" y2="5.0" stroke="#000000" stroke-linecap="square" stroke-width="1.0" stroke-dasharray="4.0,4.0" />
<text text-anchor="end" x="54.0" y="66.0" fill="#000000" style="font-size:24px">ck</text>
<line x1="56.0" y1="40.0" x2="773.0" y2="40.0" stroke="#000000" stroke-linecap="square" stroke-width="1.0" stroke-dasharray="4.0,4.0" />
<text text-anchor="end" x="54.0" y="101.0" fill="#000000" style="font-size:24px">Q0</text>
<line x1="56.0" y1="75.0" x2="773.0" y2="75.0" stroke="#000000" stroke-linecap="square" stroke-width="1.0" stroke-dasharray="4.0,4.0" />
<text text-anchor="end" x="54.0" y="136.0" fill="#000000" style="font-size:24px">Q1</text>
<line x1="56.0" y1="110.0" x2="773.0" y2="110.0" stroke="#000000" stroke-linecap="square" stroke-width="1.0" stroke-dasharray="4.0,4.0" />
<text text-anchor="end" x="54.0" y="171.0" fill="#000000" style="font-size:24px">Q2</text>
<line x1="56.0" y1="145.0" x2="773.0" y2="145.0" stroke="#000000" stroke-linecap="square" stroke-width="1.0" stroke-dasharray="4.0,4.0" />
<text text-anchor="end" x="54.0" y="206.0" fill="#000000" style="font-size:24px">Q3</text>
<line x1="56.0" y1="180.0" x2="773.0" y2="180.0" stroke="#000000" stroke-linecap="square" stroke-width="1.0" stroke-dasharray="4.0,4.0" />
<text text-anchor="end" x="54.0" y="241.0" fill="#000000" style="font-size:24px">fs</text>
<line x1="56.0" y1="215.0" x2="773.0" y2="215.0" stroke="#000000" stroke-linecap="square" stroke-width="1.0" stroke-dasharray="4.0,4.0" />
<line x1="56.0" y1="250.0" x2="773.0" y2="250.0" stroke="#000000" stroke-linecap="square" stroke-width="1.0" stroke-dasharray="4.0,4.0" />
<line x1="56.0" y1="5.0" x2="56.0" y2="250.0" stroke="#000000" stroke-linecap="square" stroke-width="1.0" stroke-dasharray="4.0,4.0" />
<line x1="56.0" y1="10.0" x2="72.0" y2="10.0" stroke="#000000" stroke-linecap="square" stroke-width="4.0" />
<line x1="56.0" y1="70.0" x2="72.0" y2="70.0" stroke="#000000" stroke-linecap="square" stroke-width="4.0" />
<line x1="56.0" y1="105.0" x2="72.0" y2="105.0" stroke="#000000" stroke-linecap="square" stroke-width="4.0" />
<line x1="56.0" y1="115.0" x2="72.0" y2="115.0" stroke="#000000" stroke-linecap="square" stroke-width="4.0" />
<line x1="56.0" y1="150.0" x2="72.0" y2="150.0" stroke="#000000" stroke-linecap="square" stroke-width="4.0" />
<line x1="56.0" y1="210.0" x2="72.0" y2="210.0" stroke="#000000" stroke-linecap="square" stroke-width="4.0" />
<line x1="56.0" y1="245.0" x2="72.0" y2="245.0" stroke="#000000" stroke-linecap="square" stroke-width="4.0" />
<line x1="72.0" y1="5.0" x2="72.0" y2="250.0" stroke="#000000" stroke-linecap="square" stroke-width="1.0" stroke-dasharray="4.0,4.0" />
<line x1="72.0" y1="10.0" x2="91.0" y2="10.0" stroke="#000000" stroke-linecap="square" stroke-width="4.0" />
<line x1="72.0" y1="70.0" x2="91.0" y2="70.0" stroke="#000000" stroke-linecap="square" stroke-width="4.0" />
<line x1="72.0" y1="105.0" x2="91.0" y2="105.0" stroke="#000000" stroke-linecap="square" stroke-width="4.0" />
<line x1="72.0" y1="115.0" x2="91.0" y2="115.0" stroke="#000000" stroke-linecap="square" stroke-width="4.0" />
<line x1="72.0" y1="150.0" x2="91.0" y2="150.0" stroke="#000000" stroke-linecap="square" stroke-width="4.0" />
<line x1="72.0" y1="210.0" x2="91.0" y2="210.0" stroke="#000000" stroke-linecap="square" stroke-width="4.0" />
<line x1="72.0" y1="245.0" x2="91.0" y2="245.0" stroke="#000000" stroke-linecap="square" stroke-width="4.0" />
<line x1="91.0" y1="5.0" x2="91.0" y2="250.0" stroke="#000000" stroke-linecap="square" stroke-width="1.0" stroke-dasharray="4.0,4.0" />
<line x1="91.0" y1="10.0" x2="110.0" y2="10.0" stroke="#000000" stroke-linecap="square" stroke-width="4.0" />
<line x1="91.0" y1="70.0" x2="110.0" y2="70.0" stroke="#000000" stroke-linecap="square" stroke-width="4.0" />
<line x1="91.0" y1="80.0" x2="110.0" y2="80.0" stroke="#000000" stroke-linecap="square" stroke-width="4.0" />
<line x1="91.0" y1="105.0" x2="91.0" y2="80.0" stroke="#000000" stroke-linecap="square" stroke-width="4.0" />
<line x1="91.0" y1="140.0" x2="110.0" y2="140.0" stroke="#000000" stroke-linecap="square" stroke-width="4.0" />
<line x1="91.0" y1="115.0" x2="91.0" y2="140.0" stroke="#000000" stroke-linecap="square" stroke-width="4.0" />
<line x1="91.0" y1="175.0" x2="110.0" y2="175.0" stroke="#000000" stroke-linecap="square" stroke-width="4.0" />
<line x1="91.0" y1="150.0" x2="91.0" y2="175.0" stroke="#000000" stroke-linecap="square" stroke-width="4.0" />
<line x1="91.0" y1="210.0" x2="110.0" y2="210.0" stroke="#000000" stroke-linecap="square" stroke-width="4.0" />
<line x1="91.0" y1="245.0" x2="110.0" y2="245.0" stroke="#000000" stroke-linecap="square" stroke-width="4.0" />
<line x1="110.0" y1="5.0" x2="110.0" y2="250.0" stroke="#000000" stroke-linecap="square" stroke-width="1.0" stroke-dasharray="4.0,4.0" />
<line x1="110.0" y1="10.0" x2="129.0" y2="10.0" stroke="#000000" stroke-linecap="square" stroke-width="4.0" />
<line x1="110.0" y1="70.0" x2="129.0" y2="70.0" stroke="#000000" stroke-linecap="square" stroke-width="4.0" />
<line x1="110.0" y1="80.0" x2="129.0" y2="80.0" stroke="#000000" stroke-linecap="square" stroke-width="4.0" />
<line x1="110.0" y1="140.0" x2="129.0" y2="140.0" stroke="#000000" stroke-linecap="square" stroke-width="4.0" />
<line x1="110.0" y1="175.0" x2="129.0" y2="175.0" stroke="#000000" stroke-linecap="square" stroke-width="4.0" />
<line x1="110.0" y1="210.0" x2="129.0" y2="210.0" stroke="#000000" stroke-linecap="square" stroke-width="4.0" />
<line x1="110.0" y1="245.0" x2="129.0" y2="245.0" stroke="#000000" stroke-linecap="square" stroke-width="4.0" />
<line x1="129.0" y1="5.0" x2="129.0" y2="250.0" stroke="#000000" stroke-linecap="square" stroke-width="1.0" stroke-dasharray="4.0,4.0" />
<line x1="129.0" y1="35.0" x2="148.0" y2="35.0" stroke="#000000" stroke-linecap="square" stroke-width="4.0" />
<line x1="129.0" y1="10.0" x2="129.0" y2="35.0" stroke="#000000" stroke-linecap="square" stroke-width="4.0" />
<line x1="129.0" y1="70.0" x2="148.0" y2="70.0" stroke="#000000" stroke-linecap="square" stroke-width="4.0" />
<line x1="129.0" y1="80.0" x2="148.0" y2="80.0" stroke="#000000" stroke-linecap="square" stroke-width="4.0" />
<line x1="129.0" y1="140.0" x2="148.0" y2="140.0" stroke="#000000" stroke-linecap="square" stroke-width="4.0" />
<line x1="129.0" y1="175.0" x2="148.0" y2="175.0" stroke="#000000" stroke-linecap="square" stroke-width="4.0" />
<line x1="129.0" y1="210.0" x2="148.0" y2="210.0" stroke="#000000" stroke-linecap="square" stroke-width="4.0" />
<line x1="129.0" y1="245.0" x2="148.0" y2="245.0" stroke="#000000" stroke-linecap="square" stroke-width="4.0" />
<line x1="148.0" y1="5.0" x2="148.0" y2="250.0" stroke="#000000" stroke-linecap="square" stroke-width="1.0" stroke-dasharray="4.0,4.0" />
<line x1="148.0" y1="35.0" x2="167.0" y2="35.0" stroke="#000000" stroke-linecap="square" stroke-width="4.0" />
<line x1="148.0" y1="70.0" x2="167.0" y2="70.0" stroke="#000000" stroke-linecap="square" stroke-width="4.0" />
<line x1="148.0" y1="80.0" x2="167.0" y2="80.0" stroke="#000000" stroke-linecap="square" stroke-width="4.0" />
<line x1="148.0" y1="140.0" x2="167.0" y2="140.0" stroke="#000000" stroke-linecap="square" stroke-width="4.0" />
<line x1="148.0" y1="175.0" x2="167.0" y2="175.0" stroke="#000000" stroke-linecap="square" stroke-width="4.0" />
<line x1="148.0" y1="210.0" x2="167.0" y2="210.0" stroke="#000000" stroke-linecap="square" stroke-width="4.0" />
<line x1="148.0" y1="245.0" x2="167.0" y2="245.0" stroke="#000000" stroke-linecap="square" stroke-width="4.0" />
<line x1="167.0" y1="5.0" x2="167.0" y2="250.0" stroke="#000000" stroke-linecap="square" stroke-width="1.0" stroke-dasharray="4.0,4.0" />
<line x1="167.0" y1="35.0" x2="186.0" y2="35.0" stroke="#000000" stroke-linecap="square" stroke-width="4.0" />
<line x1="167.0" y1="70.0" x2="186.0" y2="70.0" stroke="#000000" stroke-linecap="square" stroke-width="4.0" />
<line x1="167.0" y1="80.0" x2="186.0" y2="80.0" stroke="#000000" stroke-linecap="square" stroke-width="4.0" />
<line x1="167.0" y1="140.0" x2="186.0" y2="140.0" stroke="#000000" stroke-linecap="square" stroke-width="4.0" />
<line x1="167.0" y1="175.0" x2="186.0" y2="175.0" stroke="#000000" stroke-linecap="square" stroke-width="4.0" />
<line x1="167.0" y1="210.0" x2="186.0" y2="210.0" stroke="#000000" stroke-linecap="square" stroke-width="4.0" />
<line x1="167.0" y1="245.0" x2="186.0" y2="245.0" stroke="#000000" stroke-linecap="square" stroke-width="4.0" />
<line x1="186.0" y1="5.0" x2="186.0" y2="250.0" stroke="#000000" stroke-linecap="square" stroke-width="1.0" stroke-dasharray="4.0,4.0" />
<line x1="186.0" y1="35.0" x2="204.0" y2="35.0" stroke="#000000" stroke-linecap="square" stroke-width="4.0" />
<line x1="186.0" y1="45.0" x2="204.0" y2="45.0" stroke="#000000" stroke-linecap="square" stroke-width="4.0" />
<line x1="186.0" y1="70.0" x2="186.0" y2="45.0" stroke="#000000" stroke-linecap="square" stroke-width="4.0" />
<line x1="186.0" y1="80.0" x2="204.0" y2="80.0" stroke="#000000" stroke-linecap="square" stroke-width="4.0" />
<line x1="186.0" y1="140.0" x2="204.0" y2="140.0" stroke="#000000" stroke-linecap="square" stroke-width="4.0" />
<line x1="186.0" y1="175.0" x2="204.0" y2="175.0" stroke="#000000" stroke-linecap="square" stroke-width="4.0" />
<line x1="186.0" y1="210.0" x2="204.0" y2="210.0" stroke="#000000" stroke-linecap="square" stroke-width="4.0" />
<line x1="186.0" y1="245.0" x2="204.0" y2="245.0" stroke="#000000" stroke-linecap="square" stroke-width="4.0" />
<line x1="204.0" y1="5.0" x2="204.0" y2="250.0" stroke="#000000" stroke-linecap="square" stroke-width="1.0" stroke-dasharray="4.0,4.0" />
<line x1="204.0" y1="35.0" x2="223.0" y2="35.0" stroke="#000000" stroke-linecap="square" stroke-width="4.0" />
<line x1="204.0" y1="45.0" x2="223.0" y2="45.0" stroke="#000000" stroke-linecap="square" stroke-width="4.0" />
<line x1="204.0" y1="80.0" x2="223.0" y2="80.0" stroke="#000000" stroke-linecap="square" stroke-width="4.0" />
<line x1="204.0" y1="140.0" x2="223.0" y2="140.0" stroke="#000000" stroke-linecap="square" stroke-width="4.0" />
<line x1="204.0" y1="175.0" x2="223.0" y2="175.0" stroke="#000000" stroke-linecap="square" stroke-width="4.0" />
<line x1="204.0" y1="210.0" x2="223.0" y2="210.0" stroke="#000000" stroke-linecap="square" stroke-width="4.0" />
<line x1="204.0" y1="245.0" x2="223.0" y2="245.0" stroke="#000000" stroke-linecap="square" stroke-width="4.0" />
<line x1="223.0" y1="5.0" x2="223.0" y2="250.0" stroke="#000000" stroke-linecap="square" stroke-width="1.0" stroke-dasharray="4.0,4.0" />
<line x1="223.0" y1="35.0" x2="242.0" y2="35.0" stroke="#000000" stroke-linecap="square" stroke-width="4.0" />
<line x1="223.0" y1="70.0" x2="242.0" y2="70.0" stroke="#000000" stroke-linecap="square" stroke-width="4.0" />
<line x1="223.0" y1="45.0" x2="223.0" y2="70.0" stroke="#000000" stroke-linecap="square" stroke-width="4.0" />
<line x1="223.0" y1="80.0" x2="242.0" y2="80.0" stroke="#000000" stroke-linecap="square" stroke-width="4.0" />
<line x1="223.0" y1="140.0" x2="242.0" y2="140.0" stroke="#000000" stroke-linecap="square" stroke-width="4.0" />
<line x1="223.0" y1="175.0" x2="242.0" y2="175.0" stroke="#000000" stroke-linecap="square" stroke-width="4.0" />
<line x1="223.0" y1="210.0" x2="242.0" y2="210.0" stroke="#000000" stroke-linecap="square" stroke-width="4.0" />
<line x1="223.0" y1="245.0" x2="242.0" y2="245.0" stroke="#000000" stroke-linecap="square" stroke-width="4.0" />
<line x1="242.0" y1="5.0" x2="242.0" y2="250.0" stroke="#000000" stroke-linecap="square" stroke-width="1.0" stroke-dasharray="4.0,4.0" />
<line x1="242.0" y1="35.0" x2="261.0" y2="35.0" stroke="#000000" stroke-linecap="square" stroke-width="4.0" />
<line x1="242.0" y1="70.0" x2="261.0" y2="70.0" stroke="#000000" stroke-linecap="square" stroke-width="4.0" />
<line x1="242.0" y1="105.0" x2="261.0" y2="105.0" stroke="#000000" stroke-linecap="square" stroke-width="4.0" />
<line x1="242.0" y1="80.0" x2="242.0" y2="105.0" stroke="#000000" stroke-linecap="square" stroke-width="4.0" />
<line x1="242.0" y1="140.0" x2="261.0" y2="140.0" stroke="#000000" stroke-linecap="square" stroke-width="4.0" />
<line x1="242.0" y1="175.0" x2="261.0" y2="175.0" stroke="#000000" stroke-linecap="square" stroke-width="4.0" />
<line x1="242.0" y1="210.0" x2="261.0" y2="210.0" stroke="#000000" stroke-linecap="square" stroke-width="4.0" />
<line x1="242.0" y1="245.0" x2="261.0" y2="245.0" stroke="#000000" stroke-linecap="square" stroke-width="4.0" />
<line x1="261.0" y1="5.0" x2="261.0" y2="250.0" stroke="#000000" stroke-linecap="square" stroke-width="1.0" stroke-dasharray="4.0,4.0" />
<line x1="261.0" y1="35.0" x2="280.0" y2="35.0" stroke="#000000" stroke-linecap="square" stroke-width="4.0" />
<line x1="261.0" y1="70.0" x2="280.0" y2="70.0" stroke="#000000" stroke-linecap="square" stroke-width="4.0" />
<line x1="261.0" y1="105.0" x2="280.0" y2="105.0" stroke="#000000" stroke-linecap="square" stroke-width="4.0" />
<line x1="261.0" y1="115.0" x2="280.0" y2="115.0" stroke="#000000" stroke-linecap="square" stroke-width="4.0" />
<line x1="261.0" y1="140.0" x2="261.0" y2="115.0" stroke="#000000" stroke-linecap="square" stroke-width="4.0" />
<line x1="261.0" y1="175.0" x2="280.0" y2="175.0" stroke="#000000" stroke-linecap="square" stroke-width="4.0" />
<line x1="261.0" y1="210.0" x2="280.0" y2="210.0" stroke="#000000" stroke-linecap="square" stroke-width="4.0" />
<line x1="261.0" y1="245.0" x2="280.0" y2="245.0" stroke="#000000" stroke-linecap="square" stroke-width="4.0" />
<line x1="280.0" y1="5.0" x2="280.0" y2="250.0" stroke="#000000" stroke-linecap="square" stroke-width="1.0" stroke-dasharray="4.0,4.0" />
<line x1="280.0" y1="35.0" x2="299.0" y2="35.0" stroke="#000000" stroke-linecap="square" stroke-width="4.0" />
<line x1="280.0" y1="70.0" x2="299.0" y2="70.0" stroke="#000000" stroke-linecap="square" stroke-width="4.0" />
<line x1="280.0" y1="105.0" x2="299.0" y2="105.0" stroke="#000000" stroke-linecap="square" stroke-width="4.0" />
<line x1="280.0" y1="115.0" x2="299.0" y2="115.0" stroke="#000000" stroke-linecap="square" stroke-width="4.0" />
<line x1="280.0" y1="175.0" x2="299.0" y2="175.0" stroke="#000000" stroke-linecap="square" stroke-width="4.0" />
<line x1="280.0" y1="210.0" x2="299.0" y2="210.0" stroke="#000000" stroke-linecap="square" stroke-width="4.0" />
<line x1="280.0" y1="245.0" x2="299.0" y2="245.0" stroke="#000000" stroke-linecap="square" stroke-width="4.0" />
<line x1="299.0" y1="5.0" x2="299.0" y2="250.0" stroke="#000000" stroke-linecap="square" stroke-width="1.0" stroke-dasharray="4.0,4.0" />
<line x1="299.0" y1="35.0" x2="318.0" y2="35.0" stroke="#000000" stroke-linecap="square" stroke-width="4.0" />
<line x1="299.0" y1="45.0" x2="318.0" y2="45.0" stroke="#000000" stroke-linecap="square" stroke-width="4.0" />
<line x1="299.0" y1="70.0" x2="299.0" y2="45.0" stroke="#000000" stroke-linecap="square" stroke-width="4.0" />
<line x1="299.0" y1="105.0" x2="318.0" y2="105.0" stroke="#000000" stroke-linecap="square" stroke-width="4.0" />
<line x1="299.0" y1="115.0" x2="318.0" y2="115.0" stroke="#000000" stroke-linecap="square" stroke-width="4.0" />
<line x1="299.0" y1="175.0" x2="318.0" y2="175.0" stroke="#000000" stroke-linecap="square" stroke-width="4.0" />
<line x1="299.0" y1="210.0" x2="318.0" y2="210.0" stroke="#000000" stroke-linecap="square" stroke-width="4.0" />
<line x1="299.0" y1="245.0" x2="318.0" y2="245.0" stroke="#000000" stroke-linecap="square" stroke-width="4.0" />
<line x1="318.0" y1="5.0" x2="318.0" y2="250.0" stroke="#000000" stroke-linecap="square" stroke-width="1.0" stroke-dasharray="4.0,4.0" />
<line x1="318.0" y1="35.0" x2="337.0" y2="35.0" stroke="#000000" stroke-linecap="square" stroke-width="4.0" />
<line x1="318.0" y1="45.0" x2="337.0" y2="45.0" stroke="#000000" stroke-linecap="square" stroke-width="4.0" />
<line x1="318.0" y1="105.0" x2="337.0" y2="105.0" stroke="#000000" stroke-linecap="square" stroke-width="4.0" />
<line x1="318.0" y1="115.0" x2="337.0" y2="115.0" stroke="#000000" stroke-linecap="square" stroke-width="4.0" />
<line x1="318.0" y1="175.0" x2="337.0" y2="175.0" stroke="#000000" stroke-linecap="square" stroke-width="4.0" />
<line x1="318.0" y1="210.0" x2="337.0" y2="210.0" stroke="#000000" stroke-linecap="square" stroke-width="4.0" />
<line x1="318.0" y1="245.0" x2="337.0" y2="245.0" stroke="#000000" stroke-linecap="square" stroke-width="4.0" />
<line x1="337.0" y1="5.0" x2="337.0" y2="250.0" stroke="#000000" stroke-linecap="square" stroke-width="1.0" stroke-dasharray="4.0,4.0" />
<line x1="337.0" y1="35.0" x2="355.0" y2="35.0" stroke="#000000" stroke-linecap="square" stroke-width="4.0" />
<line x1="337.0" y1="70.0" x2="355.0" y2="70.0" stroke="#000000" stroke-linecap="square" stroke-width="4.0" />
<line x1="337.0" y1="45.0" x2="337.0" y2="70.0" stroke="#000000" stroke-linecap="square" stroke-width="4.0" />
<line x1="337.0" y1="105.0" x2="355.0" y2="105.0" stroke="#000000" stroke-linecap="square" stroke-width="4.0" />
<line x1="337.0" y1="115.0" x2="355.0" y2="115.0" stroke="#000000" stroke-linecap="square" stroke-width="4.0" />
<line x1="337.0" y1="175.0" x2="355.0" y2="175.0" stroke="#000000" stroke-linecap="square" stroke-width="4.0" />
<line x1="337.0" y1="210.0" x2="355.0" y2="210.0" stroke="#000000" stroke-linecap="square" stroke-width="4.0" />
<line x1="337.0" y1="245.0" x2="355.0" y2="245.0" stroke="#000000" stroke-linecap="square" stroke-width="4.0" />
<line x1="355.0" y1="5.0" x2="355.0" y2="250.0" stroke="#000000" stroke-linecap="square" stroke-width="1.0" stroke-dasharray="4.0,4.0" />
<line x1="355.0" y1="35.0" x2="374.0" y2="35.0" stroke="#000000" stroke-linecap="square" stroke-width="4.0" />
<line x1="355.0" y1="70.0" x2="374.0" y2="70.0" stroke="#000000" stroke-linecap="square" stroke-width="4.0" />
<line x1="355.0" y1="80.0" x2="374.0" y2="80.0" stroke="#000000" stroke-linecap="square" stroke-width="4.0" />
<line x1="355.0" y1="105.0" x2="355.0" y2="80.0" stroke="#000000" stroke-linecap="square" stroke-width="4.0" />
<line x1="355.0" y1="115.0" x2="374.0" y2="115.0" stroke="#000000" stroke-linecap="square" stroke-width="4.0" />
<line x1="355.0" y1="175.0" x2="374.0" y2="175.0" stroke="#000000" stroke-linecap="square" stroke-width="4.0" />
<line x1="355.0" y1="210.0" x2="374.0" y2="210.0" stroke="#000000" stroke-linecap="square" stroke-width="4.0" />
<line x1="355.0" y1="245.0" x2="374.0" y2="245.0" stroke="#000000" stroke-linecap="square" stroke-width="4.0" />
<line x1="374.0" y1="5.0" x2="374.0" y2="250.0" stroke="#000000" stroke-linecap="square" stroke-width="1.0" stroke-dasharray="4.0,4.0" />
<line x1="374.0" y1="35.0" x2="393.0" y2="35.0" stroke="#000000" stroke-linecap="square" stroke-width="4.0" />
<line x1="374.0" y1="70.0" x2="393.0" y2="70.0" stroke="#000000" stroke-linecap="square" stroke-width="4.0" />
<line x1="374.0" y1="80.0" x2="393.0" y2="80.0" stroke="#000000" stroke-linecap="square" stroke-width="4.0" />
<line x1="374.0" y1="115.0" x2="393.0" y2="115.0" stroke="#000000" stroke-linecap="square" stroke-width="4.0" />
<line x1="374.0" y1="175.0" x2="393.0" y2="175.0" stroke="#000000" stroke-linecap="square" stroke-width="4.0" />
<line x1="374.0" y1="210.0" x2="393.0" y2="210.0" stroke="#000000" stroke-linecap="square" stroke-width="4.0" />
<line x1="374.0" y1="245.0" x2="393.0" y2="245.0" stroke="#000000" stroke-linecap="square" stroke-width="4.0" />
<line x1="393.0" y1="5.0" x2="393.0" y2="250.0" stroke="#000000" stroke-linecap="square" stroke-width="1.0" stroke-dasharray="4.0,4.0" />
<line x1="393.0" y1="35.0" x2="412.0" y2="35.0" stroke="#000000" stroke-linecap="square" stroke-width="4.0" />
<line x1="393.0" y1="45.0" x2="412.0" y2="45.0" stroke="#000000" stroke-linecap="square" stroke-width="4.0" />
<line x1="393.0" y1="70.0" x2="393.0" y2="45.0" stroke="#000000" stroke-linecap="square" stroke-width="4.0" />
<line x1="393.0" y1="80.0" x2="412.0" y2="80.0" stroke="#000000" stroke-linecap="square" stroke-width="4.0" />
<line x1="393.0" y1="115.0" x2="412.0" y2="115.0" stroke="#000000" stroke-linecap="square" stroke-width="4.0" />
<line x1="393.0" y1="175.0" x2="412.0" y2="175.0" stroke="#000000" stroke-linecap="square" stroke-width="4.0" />
<line x1="393.0" y1="210.0" x2="412.0" y2="210.0" stroke="#000000" stroke-linecap="square" stroke-width="4.0" />
<line x1="393.0" y1="245.0" x2="412.0" y2="245.0" stroke="#000000" stroke-linecap="square" stroke-width="4.0" />
<line x1="412.0" y1="5.0" x2="412.0" y2="250.0" stroke="#000000" stroke-linecap="square" stroke-width="1.0" stroke-dasharray="4.0,4.0" />
<line x1="412.0" y1="35.0" x2="431.0" y2="35.0" stroke="#000000" stroke-linecap="square" stroke-width="4.0" />
<line x1="412.0" y1="45.0" x2="431.0" y2="45.0" stroke="#000000" stroke-linecap="square" stroke-width="4.0" />
<line x1="412.0" y1="80.0" x2="431.0" y2="80.0" stroke="#000000" stroke-linecap="square" stroke-width="4.0" />
<line x1="412.0" y1="115.0" x2="431.0" y2="115.0" stroke="#000000" stroke-linecap="square" stroke-width="4.0" />
<line x1="412.0" y1="175.0" x2="431.0" y2="175.0" stroke="#000000" stroke-linecap="square" stroke-width="4.0" />
<line x1="412.0" y1="210.0" x2="431.0" y2="210.0" stroke="#000000" stroke-linecap="square" stroke-width="4.0" />
<line x1="412.0" y1="245.0" x2="431.0" y2="245.0" stroke="#000000" stroke-linecap="square" stroke-width="4.0" />
<line x1="431.0" y1="5.0" x2="431.0" y2="250.0" stroke="#000000" stroke-linecap="square" stroke-width="1.0" stroke-dasharray="4.0,4.0" />
<line x1="431.0" y1="35.0" x2="450.0" y2="35.0" stroke="#000000" stroke-linecap="square" stroke-width="4.0" />
<line x1="431.0" y1="70.0" x2="450.0" y2="70.0" stroke="#000000" stroke-linecap="square" stroke-width="4.0" />
<line x1="431.0" y1="45.0" x2="431.0" y2="70.0" stroke="#000000" stroke-linecap="square" stroke-width="4.0" />
<line x1="431.0" y1="80.0" x2="450.0" y2="80.0" stroke="#000000" stroke-linecap="square" stroke-width="4.0" />
<line x1="431.0" y1="115.0" x2="450.0" y2="115.0" stroke="#000000" stroke-linecap="square" stroke-width="4.0" />
<line x1="431.0" y1="175.0" x2="450.0" y2="175.0" stroke="#000000" stroke-linecap="square" stroke-width="4.0" />
<line x1="431.0" y1="210.0" x2="450.0" y2="210.0" stroke="#000000" stroke-linecap="square" stroke-width="4.0" />
<line x1="431.0" y1="245.0" x2="450.0" y2="245.0" stroke="#000000" stroke-linecap="square" stroke-width="4.0" />
<line x1="450.0" y1="5.0" x2="450.0" y2="250.0" stroke="#000000" stroke-linecap="square" stroke-width="1.0" stroke-dasharray="4.0,4.0" />
<line x1="450.0" y1="35.0" x2="469.0" y2="35.0" stroke="#000000" stroke-linecap="square" stroke-width="4.0" />
<line x1="450.0" y1="70.0" x2="469.0" y2="70.0" stroke="#000000" stroke-linecap="square" stroke-width="4.0" />
<line x1="450.0" y1="105.0" x2="469.0" y2="105.0" stroke="#000000" stroke-linecap="square" stroke-width="4.0" />
<line x1="450.0" y1="80.0" x2="450.0" y2="105.0" stroke="#000000" stroke-linecap="square" stroke-width="4.0" />
<line x1="450.0" y1="115.0" x2="469.0" y2="115.0" stroke="#000000" stroke-linecap="square" stroke-width="4.0" />
<line x1="450.0" y1="175.0" x2="469.0" y2="175.0" stroke="#000000" stroke-linecap="square" stroke-width="4.0" />
<line x1="450.0" y1="210.0" x2="469.0" y2="210.0" stroke="#000000" stroke-linecap="square" stroke-width="4.0" />
<line x1="450.0" y1="245.0" x2="469.0" y2="245.0" stroke="#000000" stroke-linecap="square" stroke-width="4.0" />
<line x1="469.0" y1="5.0" x2="469.0" y2="250.0" stroke="#000000" stroke-linecap="square" stroke-width="1.0" stroke-dasharray="4.0,4.0" />
<line x1="469.0" y1="35.0" x2="487.0" y2="35.0" stroke="#000000" stroke-linecap="square" stroke-width="4.0" />
<line x1="469.0" y1="70.0" x2="487.0" y2="70.0" stroke="#000000" stroke-linecap="square" stroke-width="4.0" />
<line x1="469.0" y1="105.0" x2="487.0" y2="105.0" stroke="#000000" stroke-linecap="square" stroke-width="4.0" />
<line x1="469.0" y1="140.0" x2="487.0" y2="140.0" stroke="#000000" stroke-linecap="square" stroke-width="4.0" />
<line x1="469.0" y1="115.0" x2="469.0" y2="140.0" stroke="#000000" stroke-linecap="square" stroke-width="4.0" />
<line x1="469.0" y1="175.0" x2="487.0" y2="175.0" stroke="#000000" stroke-linecap="square" stroke-width="4.0" />
<line x1="469.0" y1="210.0" x2="487.0" y2="210.0" stroke="#000000" stroke-linecap="square" stroke-width="4.0" />
<line x1="469.0" y1="245.0" x2="487.0" y2="245.0" stroke="#000000" stroke-linecap="square" stroke-width="4.0" />
<line x1="487.0" y1="5.0" x2="487.0" y2="250.0" stroke="#000000" stroke-linecap="square" stroke-width="1.0" stroke-dasharray="4.0,4.0" />
<line x1="487.0" y1="35.0" x2="506.0" y2="35.0" stroke="#000000" stroke-linecap="square" stroke-width="4.0" />
<line x1="487.0" y1="70.0" x2="506.0" y2="70.0" stroke="#000000" stroke-linecap="square" stroke-width="4.0" />
<line x1="487.0" y1="105.0" x2="506.0" y2="105.0" stroke="#000000" stroke-linecap="square" stroke-width="4.0" />
<line x1="487.0" y1="140.0" x2="506.0" y2="140.0" stroke="#000000" stroke-linecap="square" stroke-width="4.0" />
<line x1="487.0" y1="150.0" x2="506.0" y2="150.0" stroke="#000000" stroke-linecap="square" stroke-width="4.0" />
<line x1="487.0" y1="175.0" x2="487.0" y2="150.0" stroke="#000000" stroke-linecap="square" stroke-width="4.0" />
<line x1="487.0" y1="210.0" x2="506.0" y2="210.0" stroke="#000000" stroke-linecap="square" stroke-width="4.0" />
<line x1="487.0" y1="245.0" x2="506.0" y2="245.0" stroke="#000000" stroke-linecap="square" stroke-width="4.0" />
<line x1="506.0" y1="5.0" x2="506.0" y2="250.0" stroke="#000000" stroke-linecap="square" stroke-width="1.0" stroke-dasharray="4.0,4.0" />
<line x1="506.0" y1="35.0" x2="525.0" y2="35.0" stroke="#000000" stroke-linecap="square" stroke-width="4.0" />
<line x1="506.0" y1="70.0" x2="525.0" y2="70.0" stroke="#000000" stroke-linecap="square" stroke-width="4.0" />
<line x1="506.0" y1="105.0" x2="525.0" y2="105.0" stroke="#000000" stroke-linecap="square" stroke-width="4.0" />
<line x1="506.0" y1="140.0" x2="525.0" y2="140.0" stroke="#000000" stroke-linecap="square" stroke-width="4.0" />
<line x1="506.0" y1="150.0" x2="525.0" y2="150.0" stroke="#000000" stroke-linecap="square" stroke-width="4.0" />
<line x1="506.0" y1="210.0" x2="525.0" y2="210.0" stroke="#000000" stroke-linecap="square" stroke-width="4.0" />
<line x1="506.0" y1="245.0" x2="525.0" y2="245.0" stroke="#000000" stroke-linecap="square" stroke-width="4.0" />
<line x1="525.0" y1="5.0" x2="525.0" y2="250.0" stroke="#000000" stroke-linecap="square" stroke-width="1.0" stroke-dasharray="4.0,4.0" />
<line x1="525.0" y1="35.0" x2="544.0" y2="35.0" stroke="#000000" stroke-linecap="square" stroke-width="4.0" />
<line x1="525.0" y1="45.0" x2="544.0" y2="45.0" stroke="#000000" stroke-linecap="square" stroke-width="4.0" />
<line x1="525.0" y1="70.0" x2="525.0" y2="45.0" stroke="#000000" stroke-linecap="square" stroke-width="4.0" />
<line x1="525.0" y1="105.0" x2="544.0" y2="105.0" stroke="#000000" stroke-linecap="square" stroke-width="4.0" />
<line x1="525.0" y1="140.0" x2="544.0" y2="140.0" stroke="#000000" stroke-linecap="square" stroke-width="4.0" />
<line x1="525.0" y1="150.0" x2="544.0" y2="150.0" stroke="#000000" stroke-linecap="square" stroke-width="4.0" />
<line x1="525.0" y1="210.0" x2="544.0" y2="210.0" stroke="#000000" stroke-linecap="square" stroke-width="4.0" />
<line x1="525.0" y1="245.0" x2="544.0" y2="245.0" stroke="#000000" stroke-linecap="square" stroke-width="4.0" />
<line x1="544.0" y1="5.0" x2="544.0" y2="250.0" stroke="#000000" stroke-linecap="square" stroke-width="1.0" stroke-dasharray="4.0,4.0" />
<line x1="544.0" y1="35.0" x2="563.0" y2="35.0" stroke="#000000" stroke-linecap="square" stroke-width="4.0" />
<line x1="544.0" y1="45.0" x2="563.0" y2="45.0" stroke="#000000" stroke-linecap="square" stroke-width="4.0" />
<line x1="544.0" y1="105.0" x2="563.0" y2="105.0" stroke="#000000" stroke-linecap="square" stroke-width="4.0" />
<line x1="544.0" y1="140.0" x2="563.0" y2="140.0" stroke="#000000" stroke-linecap="square" stroke-width="4.0" />
<line x1="544.0" y1="150.0" x2="563.0" y2="150.0" stroke="#000000" stroke-linecap="square" stroke-width="4.0" />
<line x1="544.0" y1="210.0" x2="563.0" y2="210.0" stroke="#000000" stroke-linecap="square" stroke-width="4.0" />
<line x1="544.0" y1="245.0" x2="563.0" y2="245.0" stroke="#000000" stroke-linecap="square" stroke-width="4.0" />
<line x1="563.0" y1="5.0" x2="563.0" y2="250.0" stroke="#000000" stroke-linecap="square" stroke-width="1.0" stroke-dasharray="4.0,4.0" />
<line x1="563.0" y1="35.0" x2="582.0" y2="35.0" stroke="#000000" stroke-linecap="square" stroke-width="4.0" />
<line x1="563.0" y1="70.0" x2="582.0" y2="70.0" stroke="#000000" stroke-linecap="square" stroke-width="4.0" />
<line x1="563.0" y1="45.0" x2="563.0" y2="70.0" stroke="#000000" stroke-linecap="square" stroke-width="4.0" />
<line x1="563.0" y1="105.0" x2="582.0" y2="105.0" stroke="#000000" stroke-linecap="square" stroke-width="4.0" />
<line x1="563.0" y1="140.0" x2="582.0" y2="140.0" stroke="#000000" stroke-linecap="square" stroke-width="4.0" />
<line x1="563.0" y1="150.0" x2="582.0" y2="150.0" stroke="#000000" stroke-linecap="square" stroke-width="4.0" />
<line x1="563.0" y1="210.0" x2="582.0" y2="210.0" stroke="#000000" stroke-linecap="square" stroke-width="4.0" />
<line x1="563.0" y1="245.0" x2="582.0" y2="245.0" stroke="#000000" stroke-linecap="square" stroke-width="4.0" />
<line x1="582.0" y1="5.0" x2="582.0" y2="250.0" stroke="#000000" stroke-linecap="square" stroke-width="1.0" stroke-dasharray="4.0,4.0" />
<line x1="582.0" y1="35.0" x2="601.0" y2="35.0" stroke="#000000" stroke-linecap="square" stroke-width="4.0" />
<line x1="582.0" y1="70.0" x2="601.0" y2="70.0" stroke="#000000" stroke-linecap="square" stroke-width="4.0" />
<line x1="582.0" y1="80.0" x2="601.0" y2="80.0" stroke="#000000" stroke-linecap="square" stroke-width="4.0" />
<line x1="582.0" y1="105.0" x2="582.0" y2="80.0" stroke="#000000" stroke-linecap="square" stroke-width="4.0" />
<line x1="582.0" y1="140.0" x2="601.0" y2="140.0" stroke="#000000" stroke-linecap="square" stroke-width="4.0" />
<line x1="582.0" y1="150.0" x2="601.0" y2="150.0" stroke="#000000" stroke-linecap="square" stroke-width="4.0" />
<line x1="582.0" y1="210.0" x2="601.0" y2="210.0" stroke="#000000" stroke-linecap="square" stroke-width="4.0" />
<line x1="582.0" y1="245.0" x2="601.0" y2="245.0" stroke="#000000" stroke-linecap="square" stroke-width="4.0" />
<line x1="601.0" y1="5.0" x2="601.0" y2="250.0" stroke="#000000" stroke-linecap="square" stroke-width="1.0" stroke-dasharray="4.0,4.0" />
<line x1="601.0" y1="35.0" x2="620.0" y2="35.0" stroke="#000000" stroke-linecap="square" stroke-width="4.0" />
<line x1="601.0" y1="70.0" x2="620.0" y2="70.0" stroke="#000000" stroke-linecap="square" stroke-width="4.0" />
<line x1="601.0" y1="80.0" x2="620.0" y2="80.0" stroke="#000000" stroke-linecap="square" stroke-width="4.0" />
<line x1="601.0" y1="140.0" x2="620.0" y2="140.0" stroke="#000000" stroke-linecap="square" stroke-width="4.0" />
<line x1="601.0" y1="150.0" x2="620.0" y2="150.0" stroke="#000000" stroke-linecap="square" stroke-width="4.0" />
<line x1="601.0" y1="210.0" x2="620.0" y2="210.0" stroke="#000000" stroke-linecap="square" stroke-width="4.0" />
<line x1="601.0" y1="245.0" x2="620.0" y2="245.0" stroke="#000000" stroke-linecap="square" stroke-width="4.0" />
<line x1="620.0" y1="5.0" x2="620.0" y2="250.0" stroke="#000000" stroke-linecap="square" stroke-width="1.0" stroke-dasharray="4.0,4.0" />
<line x1="620.0" y1="35.0" x2="638.0" y2="35.0" stroke="#000000" stroke-linecap="square" stroke-width="4.0" />
<line x1="620.0" y1="45.0" x2="638.0" y2="45.0" stroke="#000000" stroke-linecap="square" stroke-width="4.0" />
<line x1="620.0" y1="70.0" x2="620.0" y2="45.0" stroke="#000000" stroke-linecap="square" stroke-width="4.0" />
<line x1="620.0" y1="80.0" x2="638.0" y2="80.0" stroke="#000000" stroke-linecap="square" stroke-width="4.0" />
<line x1="620.0" y1="140.0" x2="638.0" y2="140.0" stroke="#000000" stroke-linecap="square" stroke-width="4.0" />
<line x1="620.0" y1="150.0" x2="638.0" y2="150.0" stroke="#000000" stroke-linecap="square" stroke-width="4.0" />
<line x1="620.0" y1="210.0" x2="638.0" y2="210.0" stroke="#000000" stroke-linecap="square" stroke-width="4.0" />
<line x1="620.0" y1="245.0" x2="638.0" y2="245.0" stroke="#000000" stroke-linecap="square" stroke-width="4.0" />
<line x1="638.0" y1="5.0" x2="638.0" y2="250.0" stroke="#000000" stroke-linecap="square" stroke-width="1.0" stroke-dasharray="4.0,4.0" />
<line x1="638.0" y1="35.0" x2="657.0" y2="35.0" stroke="#000000" stroke-linecap="square" stroke-width="4.0" />
<line x1="638.0" y1="45.0" x2="657.0" y2="45.0" stroke="#000000" stroke-linecap="square" stroke-width="4.0" />
<line x1="638.0" y1="80.0" x2="657.0" y2="80.0" stroke="#000000" stroke-linecap="square" stroke-width="4.0" />
<line x1="638.0" y1="140.0" x2="657.0" y2="140.0" stroke="#000000" stroke-linecap="square" stroke-width="4.0" />
<line x1="638.0" y1="150.0" x2="657.0" y2="150.0" stroke="#000000" stroke-linecap="square" stroke-width="4.0" />
<line x1="638.0" y1="210.0" x2="657.0" y2="210.0" stroke="#000000" stroke-linecap="square" stroke-width="4.0" />
<line x1="638.0" y1="245.0" x2="657.0" y2="245.0" stroke="#000000" stroke-linecap="square" stroke-width="4.0" />
<line x1="657.0" y1="5.0" x2="657.0" y2="250.0" stroke="#000000" stroke-linecap="square" stroke-width="1.0" stroke-dasharray="4.0,4.0" />
<line x1="657.0" y1="35.0" x2="676.0" y2="35.0" stroke="#000000" stroke-linecap="square" stroke-width="4.0" />
<line x1="657.0" y1="70.0" x2="676.0" y2="70.0" stroke="#000000" stroke-linecap="square" stroke-width="4.0" />
<line x1="657.0" y1="45.0" x2="657.0" y2="70.0" stroke="#000000" stroke-linecap="square" stroke-width="4.0" />
<line x1="657.0" y1="80.0" x2="676.0" y2="80.0" stroke="#000000" stroke-linecap="square" stroke-width="4.0" />
<line x1="657.0" y1="140.0" x2="676.0" y2="140.0" stroke="#000000" stroke-linecap="square" stroke-width="4.0" />
<line x1="657.0" y1="150.0" x2="676.0" y2="150.0" stroke="#000000" stroke-linecap="square" stroke-width="4.0" />
<line x1="657.0" y1="210.0" x2="676.0" y2="210.0" stroke="#000000" stroke-linecap="square" stroke-width="4.0" />
<line x1="657.0" y1="245.0" x2="676.0" y2="245.0" stroke="#000000" stroke-linecap="square" stroke-width="4.0" />
<line x1="676.0" y1="5.0" x2="676.0" y2="250.0" stroke="#000000" stroke-linecap="square" stroke-width="1.0" stroke-dasharray="4.0,4.0" />
<line x1="676.0" y1="35.0" x2="695.0" y2="35.0" stroke="#000000" stroke-linecap="square" stroke-width="4.0" />
<line x1="676.0" y1="70.0" x2="695.0" y2="70.0" stroke="#000000" stroke-linecap="square" stroke-width="4.0" />
<line x1="676.0" y1="105.0" x2="695.0" y2="105.0" stroke="#000000" stroke-linecap="square" stroke-width="4.0" />
<line x1="676.0" y1="80.0" x2="676.0" y2="105.0" stroke="#000000" stroke-linecap="square" stroke-width="4.0" />
<line x1="676.0" y1="140.0" x2="695.0" y2="140.0" stroke="#000000" stroke-linecap="square" stroke-width="4.0" />
<line x1="676.0" y1="150.0" x2="695.0" y2="150.0" stroke="#000000" stroke-linecap="square" stroke-width="4.0" />
<line x1="676.0" y1="210.0" x2="695.0" y2="210.0" stroke="#000000" stroke-linecap="square" stroke-width="4.0" />
<line x1="676.0" y1="245.0" x2="695.0" y2="245.0" stroke="#000000" stroke-linecap="square" stroke-width="4.0" />
<line x1="695.0" y1="5.0" x2="695.0" y2="250.0" stroke="#000000" stroke-linecap="square" stroke-width="1.0" stroke-dasharray="4.0,4.0" />
<line x1="695.0" y1="35.0" x2="714.0" y2="35.0" stroke="#000000" stroke-linecap="square" stroke-width="4.0" />
<line x1="695.0" y1="70.0" x2="714.0" y2="70.0" stroke="#000000" stroke-linecap="square" stroke-width="4.0" />
<line x1="695.0" y1="105.0" x2="714.0" y2="105.0" stroke="#000000" stroke-linecap="square" stroke-width="4.0" />
<line x1="695.0" y1="115.0" x2="714.0" y2="115.0" stroke="#000000" stroke-linecap="square" stroke-width="4.0" />
<line x1="695.0" y1="140.0" x2="695.0" y2="115.0" stroke="#000000" stroke-linecap="square" stroke-width="4.0" />
<line x1="695.0" y1="150.0" x2="714.0" y2="150.0" stroke="#000000" stroke-linecap="square" stroke-width="4.0" />
<line x1="695.0" y1="210.0" x2="714.0" y2="210.0" stroke="#000000" stroke-linecap="square" stroke-width="4.0" />
<line x1="695.0" y1="245.0" x2="714.0" y2="245.0" stroke="#000000" stroke-linecap="square" stroke-width="4.0" />
<line x1="714.0" y1="5.0" x2="714.0" y2="250.0" stroke="#000000" stroke-linecap="square" stroke-width="1.0" stroke-dasharray="4.0,4.0" />
<line x1="714.0" y1="35.0" x2="733.0" y2="35.0" stroke="#000000" stroke-linecap="square" stroke-width="4.0" />
<line x1="714.0" y1="70.0" x2="733.0" y2="70.0" stroke="#000000" stroke-linecap="square" stroke-width="4.0" />
<line x1="714.0" y1="105.0" x2="733.0" y2="105.0" stroke="#000000" stroke-linecap="square" stroke-width="4.0" />
<line x1="714.0" y1="115.0" x2="733.0" y2="115.0" stroke="#000000" stroke-linecap="square" stroke-width="4.0" />
<line x1="714.0" y1="150.0" x2="733.0" y2="150.0" stroke="#000000" stroke-linecap="square" stroke-width="4.0" />
<line x1="714.0" y1="210.0" x2="733.0" y2="210.0" stroke="#000000" stroke-linecap="square" stroke-width="4.0" />
<line x1="714.0" y1="245.0" x2="733.0" y2="245.0" stroke="#000000" stroke-linecap="square" stroke-width="4.0" />
<line x1="733.0" y1="5.0" x2="733.0" y2="250.0" stroke="#000000" stroke-linecap="square" stroke-width="1.0" stroke-dasharray="4.0,4.0" />
<line x1="733.0" y1="35.0" x2="752.0" y2="35.0" stroke="#000000" stroke-linecap="square" stroke-width="4.0" />
<line x1="733.0" y1="45.0" x2="752.0" y2="45.0" stroke="#000000" stroke-linecap="square" stroke-width="4.0" />
<line x1="733.0" y1="70.0" x2="733.0" y2="45.0" stroke="#000000" stroke-linecap="square" stroke-width="4.0" />
<line x1="733.0" y1="105.0" x2="752.0" y2="105.0" stroke="#000000" stroke-linecap="square" stroke-width="4.0" />
<line x1="733.0" y1="115.0" x2="752.0" y2="115.0" stroke="#000000" stroke-linecap="square" stroke-width="4.0" />
<line x1="733.0" y1="150.0" x2="752.0" y2="150.0" stroke="#000000" stroke-linecap="square" stroke-width="4.0" />
<line x1="733.0" y1="210.0" x2="752.0" y2="210.0" stroke="#000000" stroke-linecap="square" stroke-width="4.0" />
<line x1="733.0" y1="245.0" x2="752.0" y2="245.0" stroke="#000000" stroke-linecap="square" stroke-width="4.0" />
<line x1="752.0" y1="5.0" x2="752.0" y2="250.0" stroke="#000000" stroke-linecap="square" stroke-width="1.0" stroke-dasharray="4.0,4.0" />
<line x1="752.0" y1="35.0" x2="770.0" y2="35.0" stroke="#000000" stroke-linecap="square" stroke-width="4.0" />
<line x1="752.0" y1="45.0" x2="770.0" y2="45.0" stroke="#000000" stroke-linecap="square" stroke-width="4.0" />
<line x1="752.0" y1="105.0" x2="770.0" y2="105.0" stroke="#000000" stroke-linecap="square" stroke-width="4.0" />
<line x1="752.0" y1="115.0" x2="770.0" y2="115.0" stroke="#000000" stroke-linecap="square" stroke-width="4.0" />
<line x1="752.0" y1="150.0" x2="770.0" y2="150.0" stroke="#000000" stroke-linecap="square" stroke-width="4.0" />
<line x1="752.0" y1="210.0" x2="770.0" y2="210.0" stroke="#000000" stroke-linecap="square" stroke-width="4.0" />
<line x1="752.0" y1="245.0" x2="770.0" y2="245.0" stroke="#000000" stroke-linecap="square" stroke-width="4.0" />
<line x1="773.0" y1="5.0" x2="773.0" y2="250.0" stroke="#000000" stroke-linecap="square" stroke-width="1.0" stroke-dasharray="4.0,4.0" />
</g>
</svg>