<?xml version="1.0" encoding="UTF-8" standalone="no"?>
<!-- Created with Digital by H.Neemann -->
<!-- created: Sat Jun 25 20:02:46 BRT 2022 -->

<svg
   xmlns:svg="http://www.w3.org/2000/svg"
   xmlns="http://www.w3.org/2000/svg"
   width="212.1mm"
   height="57.6mm"
   viewBox="98 48 1414 384">
<g stroke-linecap="square">
<circle cx="240.0" cy="120.0" r="70.0" stroke="#000000" stroke-width="4.0" fill="none" />
<circle cx="110.0" cy="120.0" r="10.0" stroke="#000000" stroke-width="4.0" fill="#000000" />
<path d="M 124,120 Q 145,120 166,120" stroke="#808080" stroke-width="2.0" fill="none"/>
<path d="M 146,126 L 168,120 L 146,114" stroke="#808080" stroke-width="2.0" fill="none"/>
<text text-anchor="middle" x="240.0" y="105.0" fill="#000000" style="font-size:24px">1</text>
<circle cx="480.0" cy="120.0" r="70.0" stroke="#000000" stroke-width="4.0" fill="none" />
<text text-anchor="middle" x="480.0" y="105.0" fill="#000000" style="font-size:24px">0</text>
<circle cx="720.0" cy="120.0" r="70.0" stroke="#000000" stroke-width="4.0" fill="none" />
<text text-anchor="middle" x="720.0" y="105.0" fill="#000000" style="font-size:24px">2</text>
<circle cx="960.0" cy="120.0" r="70.0" stroke="#000000" stroke-width="4.0" fill="none" />
<text text-anchor="middle" x="960.0" y="105.0" fill="#000000" style="font-size:24px">3</text>
<circle cx="1440.0" cy="240.0" r="70.0" stroke="#000000" stroke-width="4.0" fill="none" />
<text text-anchor="middle" x="1440.0" y="225.0" fill="#000000" style="font-size:24px">0</text>
<circle cx="1200.0" cy="120.0" r="70.0" stroke="#000000" stroke-width="4.0" fill="none" />
<text text-anchor="middle" x="1200.0" y="105.0" fill="#000000" style="font-size:24px">2</text>
<circle cx="1200.0" cy="360.0" r="70.0" stroke="#000000" stroke-width="4.0" fill="none" />
<text text-anchor="middle" x="1200.0" y="345.0" fill="#000000" style="font-size:24px">4</text>
<circle cx="960.0" cy="360.0" r="70.0" stroke="#000000" stroke-width="4.0" fill="none" />
<text text-anchor="middle" x="960.0" y="345.0" fill="#000000" style="font-size:24px">5</text>
<circle cx="720.0" cy="360.0" r="70.0" stroke="#000000" stroke-width="4.0" fill="none" />
<text text-anchor="middle" x="720.0" y="345.0" fill="#000000" style="font-size:24px">4</text>
<circle cx="480.0" cy="360.0" r="70.0" stroke="#000000" stroke-width="4.0" fill="none" />
<text text-anchor="middle" x="480.0" y="345.0" fill="#000000" style="font-size:24px">6</text>
<path d="M 313.9999,119.87985 Q 361,119.8991 404.0001,119.8766" stroke="#808080" stroke-width="2.0" fill="none"/>
<path d="M 384.00323,125.88707 L 406.0001,119.87556 L 383.99695,113.88707" stroke="#808080" stroke-width="2.0" fill="none"/>
<path d="M 553.99225,121.07225 Q 600.9999,120.90065 644.008,121.10123" stroke="#808080" stroke-width="2.0" fill="none"/>
<path d="M 623.9803,127.00789 L 646.008,121.11056 L 624.0362,115.008026" stroke="#808080" stroke-width="2.0" fill="none"/>
<path d="M 793.9957,119.20502 Q 841,119.33232 884.0044,119.18353" stroke="#808080" stroke-width="2.0" fill="none"/>
<path d="M 864.02527,125.25269 L 886.0044,119.17661 L 863.98376,113.25277" stroke="#808080" stroke-width="2.0" fill="none"/>
<path d="M 1033.9996,119.78365 Q 1081,119.81831 1124.0004,119.77781" stroke="#808080" stroke-width="2.0" fill="none"/>
<path d="M 1104.006,125.796646 L 1126.0004,119.775925 L 1103.9948,113.796646" stroke="#808080" stroke-width="2.0" fill="none"/>
<path d="M 1265.7806,153.89554 Q 1320.4685,181.2986 1371.6156,206.84018" stroke="#808080" stroke-width="2.0" fill="none"/>
<path d="M 1351.042,203.27277 L 1373.4049,207.73372 L 1356.4031,192.53696" stroke="#808080" stroke-width="2.0" fill="none"/>
<path d="M 1373.804,273.0769 Q 1319.0966,300.42938 1267.9678,325.99442" stroke="#808080" stroke-width="2.0" fill="none"/>
<path d="M 1283.1729,311.6834 L 1266.179,326.88885 L 1288.5396,322.4165" stroke="#808080" stroke-width="2.0" fill="none"/>
<path d="M 1126.004,359.22946 Q 1079.0001,359.35284 1035.9958,359.20865" stroke="#808080" stroke-width="2.0" fill="none"/>
<path d="M 1056.0159,353.27573 L 1033.9958,359.20193 L 1055.9756,365.27567" stroke="#808080" stroke-width="2.0" fill="none"/>
<path d="M 886.0029,360.65732 Q 839,360.55206 795.997,360.67508" stroke="#808080" stroke-width="2.0" fill="none"/>
<path d="M 815.9798,354.6179 L 793.997,360.6808 L 816.0141,366.61783" stroke="#808080" stroke-width="2.0" fill="none"/>
<path d="M 646.0056,359.086 Q 599.0001,359.2323 555.9942,359.06128" stroke="#808080" stroke-width="2.0" fill="none"/>
<path d="M 576.0179,353.14087 L 553.9942,359.0533 L 575.97015,365.14075" stroke="#808080" stroke-width="2.0" fill="none"/>
</g>
</svg>