<?xml version="1.0" encoding="UTF-8" standalone="no"?>
<!-- Created with Digital by H.Neemann -->
<!-- created: Sat Jun 25 19:40:26 BRT 2022 -->

<svg
   xmlns:svg="http://www.w3.org/2000/svg"
   xmlns="http://www.w3.org/2000/svg"
   width="66.3mm"
   height="32.1mm"
   viewBox="4 3 442 214">
<g stroke-linecap="square">
<text text-anchor="end" x="42.0" y="31.0" fill="#000000" style="font-size:24px">MS</text>
<line x1="44.0" y1="5.0" x2="444.0" y2="5.0" stroke="#000000" stroke-linecap="square" stroke-width="1.0" stroke-dasharray="4.0,4.0" />
<text text-anchor="end" x="42.0" y="66.0" fill="#000000" style="font-size:24px">ck</text>
<line x1="44.0" y1="40.0" x2="444.0" y2="40.0" stroke="#000000" stroke-linecap="square" stroke-width="1.0" stroke-dasharray="4.0,4.0" />
<text text-anchor="end" x="42.0" y="101.0" fill="#000000" style="font-size:24px">Q3</text>
<line x1="44.0" y1="75.0" x2="444.0" y2="75.0" stroke="#000000" stroke-linecap="square" stroke-width="1.0" stroke-dasharray="4.0,4.0" />
<text text-anchor="end" x="42.0" y="136.0" fill="#000000" style="font-size:24px">Q2</text>
<line x1="44.0" y1="110.0" x2="444.0" y2="110.0" stroke="#000000" stroke-linecap="square" stroke-width="1.0" stroke-dasharray="4.0,4.0" />
<text text-anchor="end" x="42.0" y="171.0" fill="#000000" style="font-size:24px">Q1</text>
<line x1="44.0" y1="145.0" x2="444.0" y2="145.0" stroke="#000000" stroke-linecap="square" stroke-width="1.0" stroke-dasharray="4.0,4.0" />
<text text-anchor="end" x="42.0" y="206.0" fill="#000000" style="font-size:24px">Q0</text>
<line x1="44.0" y1="180.0" x2="444.0" y2="180.0" stroke="#000000" stroke-linecap="square" stroke-width="1.0" stroke-dasharray="4.0,4.0" />
<line x1="44.0" y1="215.0" x2="444.0" y2="215.0" stroke="#000000" stroke-linecap="square" stroke-width="1.0" stroke-dasharray="4.0,4.0" />
<line x1="44.0" y1="5.0" x2="44.0" y2="215.0" stroke="#000000" stroke-linecap="square" stroke-width="1.0" stroke-dasharray="4.0,4.0" />
<line x1="44.0" y1="10.0" x2="69.0" y2="10.0" stroke="#000000" stroke-linecap="square" stroke-width="4.0" />
<line x1="44.0" y1="45.0" x2="69.0" y2="45.0" stroke="#000000" stroke-linecap="square" stroke-width="4.0" />
<line x1="44.0" y1="105.0" x2="69.0" y2="105.0" stroke="#00ff00" stroke-linecap="square" stroke-width="4.0" />
<line x1="44.0" y1="115.0" x2="69.0" y2="115.0" stroke="#00ff00" stroke-linecap="square" stroke-width="4.0" />
<line x1="44.0" y1="150.0" x2="69.0" y2="150.0" stroke="#00ff00" stroke-linecap="square" stroke-width="4.0" />
<line x1="44.0" y1="185.0" x2="69.0" y2="185.0" stroke="#00ff00" stroke-linecap="square" stroke-width="4.0" />
<line x1="69.0" y1="5.0" x2="69.0" y2="215.0" stroke="#000000" stroke-linecap="square" stroke-width="1.0" stroke-dasharray="4.0,4.0" />
<line x1="69.0" y1="10.0" x2="94.0" y2="10.0" stroke="#000000" stroke-linecap="square" stroke-width="4.0" />
<line x1="69.0" y1="45.0" x2="94.0" y2="45.0" stroke="#000000" stroke-linecap="square" stroke-width="4.0" />
<line x1="69.0" y1="105.0" x2="94.0" y2="105.0" stroke="#00ff00" stroke-linecap="square" stroke-width="4.0" />
<line x1="69.0" y1="115.0" x2="94.0" y2="115.0" stroke="#00ff00" stroke-linecap="square" stroke-width="4.0" />
<line x1="69.0" y1="150.0" x2="94.0" y2="150.0" stroke="#00ff00" stroke-linecap="square" stroke-width="4.0" />
<line x1="69.0" y1="185.0" x2="94.0" y2="185.0" stroke="#00ff00" stroke-linecap="square" stroke-width="4.0" />
<line x1="94.0" y1="5.0" x2="94.0" y2="215.0" stroke="#000000" stroke-linecap="square" stroke-width="1.0" stroke-dasharray="4.0,4.0" />
<line x1="94.0" y1="35.0" x2="119.0" y2="35.0" stroke="#000000" stroke-linecap="square" stroke-width="4.0" />
<line x1="94.0" y1="10.0" x2="94.0" y2="35.0" stroke="#000000" stroke-linecap="square" stroke-width="4.0" />
<line x1="94.0" y1="70.0" x2="119.0" y2="70.0" stroke="#000000" stroke-linecap="square" stroke-width="4.0" />
<line x1="94.0" y1="45.0" x2="94.0" y2="70.0" stroke="#000000" stroke-linecap="square" stroke-width="4.0" />
<line x1="94.0" y1="105.0" x2="119.0" y2="105.0" stroke="#00ff00" stroke-linecap="square" stroke-width="4.0" />
<line x1="94.0" y1="115.0" x2="119.0" y2="115.0" stroke="#00ff00" stroke-linecap="square" stroke-width="4.0" />
<line x1="94.0" y1="150.0" x2="119.0" y2="150.0" stroke="#00ff00" stroke-linecap="square" stroke-width="4.0" />
<line x1="94.0" y1="185.0" x2="119.0" y2="185.0" stroke="#00ff00" stroke-linecap="square" stroke-width="4.0" />
<line x1="119.0" y1="5.0" x2="119.0" y2="215.0" stroke="#000000" stroke-linecap="square" stroke-width="1.0" stroke-dasharray="4.0,4.0" />
<line x1="119.0" y1="35.0" x2="144.0" y2="35.0" stroke="#000000" stroke-linecap="square" stroke-width="4.0" />
<line x1="119.0" y1="45.0" x2="144.0" y2="45.0" stroke="#000000" stroke-linecap="square" stroke-width="4.0" />
<line x1="119.0" y1="70.0" x2="119.0" y2="45.0" stroke="#000000" stroke-linecap="square" stroke-width="4.0" />
<line x1="119.0" y1="80.0" x2="144.0" y2="80.0" stroke="#00ff00" stroke-linecap="square" stroke-width="4.0" />
<line x1="119.0" y1="105.0" x2="119.0" y2="80.0" stroke="#00ff00" stroke-linecap="square" stroke-width="4.0" />
<line x1="119.0" y1="140.0" x2="144.0" y2="140.0" stroke="#00ff00" stroke-linecap="square" stroke-width="4.0" />
<line x1="119.0" y1="115.0" x2="119.0" y2="140.0" stroke="#00ff00" stroke-linecap="square" stroke-width="4.0" />
<line x1="119.0" y1="150.0" x2="144.0" y2="150.0" stroke="#00ff00" stroke-linecap="square" stroke-width="4.0" />
<line x1="119.0" y1="185.0" x2="144.0" y2="185.0" stroke="#00ff00" stroke-linecap="square" stroke-width="4.0" />
<line x1="144.0" y1="5.0" x2="144.0" y2="215.0" stroke="#000000" stroke-linecap="square" stroke-width="1.0" stroke-dasharray="4.0,4.0" />
<line x1="144.0" y1="35.0" x2="169.0" y2="35.0" stroke="#000000" stroke-linecap="square" stroke-width="4.0" />
<line x1="144.0" y1="70.0" x2="169.0" y2="70.0" stroke="#000000" stroke-linecap="square" stroke-width="4.0" />
<line x1="144.0" y1="45.0" x2="144.0" y2="70.0" stroke="#000000" stroke-linecap="square" stroke-width="4.0" />
<line x1="144.0" y1="80.0" x2="169.0" y2="80.0" stroke="#00ff00" stroke-linecap="square" stroke-width="4.0" />
<line x1="144.0" y1="140.0" x2="169.0" y2="140.0" stroke="#00ff00" stroke-linecap="square" stroke-width="4.0" />
<line x1="144.0" y1="150.0" x2="169.0" y2="150.0" stroke="#00ff00" stroke-linecap="square" stroke-width="4.0" />
<line x1="144.0" y1="185.0" x2="169.0" y2="185.0" stroke="#00ff00" stroke-linecap="square" stroke-width="4.0" />
<line x1="169.0" y1="5.0" x2="169.0" y2="215.0" stroke="#000000" stroke-linecap="square" stroke-width="1.0" stroke-dasharray="4.0,4.0" />
<line x1="169.0" y1="35.0" x2="194.0" y2="35.0" stroke="#000000" stroke-linecap="square" stroke-width="4.0" />
<line x1="169.0" y1="45.0" x2="194.0" y2="45.0" stroke="#000000" stroke-linecap="square" stroke-width="4.0" />
<line x1="169.0" y1="70.0" x2="169.0" y2="45.0" stroke="#000000" stroke-linecap="square" stroke-width="4.0" />
<line x1="169.0" y1="80.0" x2="194.0" y2="80.0" stroke="#00ff00" stroke-linecap="square" stroke-width="4.0" />
<line x1="169.0" y1="115.0" x2="194.0" y2="115.0" stroke="#00ff00" stroke-linecap="square" stroke-width="4.0" />
<line x1="169.0" y1="140.0" x2="169.0" y2="115.0" stroke="#00ff00" stroke-linecap="square" stroke-width="4.0" />
<line x1="169.0" y1="175.0" x2="194.0" y2="175.0" stroke="#00ff00" stroke-linecap="square" stroke-width="4.0" />
<line x1="169.0" y1="150.0" x2="169.0" y2="175.0" stroke="#00ff00" stroke-linecap="square" stroke-width="4.0" />
<line x1="169.0" y1="185.0" x2="194.0" y2="185.0" stroke="#00ff00" stroke-linecap="square" stroke-width="4.0" />
<line x1="194.0" y1="5.0" x2="194.0" y2="215.0" stroke="#000000" stroke-linecap="square" stroke-width="1.0" stroke-dasharray="4.0,4.0" />
<line x1="194.0" y1="35.0" x2="219.0" y2="35.0" stroke="#000000" stroke-linecap="square" stroke-width="4.0" />
<line x1="194.0" y1="70.0" x2="219.0" y2="70.0" stroke="#000000" stroke-linecap="square" stroke-width="4.0" />
<line x1="194.0" y1="45.0" x2="194.0" y2="70.0" stroke="#000000" stroke-linecap="square" stroke-width="4.0" />
<line x1="194.0" y1="80.0" x2="219.0" y2="80.0" stroke="#00ff00" stroke-linecap="square" stroke-width="4.0" />
<line x1="194.0" y1="115.0" x2="219.0" y2="115.0" stroke="#00ff00" stroke-linecap="square" stroke-width="4.0" />
<line x1="194.0" y1="175.0" x2="219.0" y2="175.0" stroke="#00ff00" stroke-linecap="square" stroke-width="4.0" />
<line x1="194.0" y1="185.0" x2="219.0" y2="185.0" stroke="#00ff00" stroke-linecap="square" stroke-width="4.0" />
<line x1="219.0" y1="5.0" x2="219.0" y2="215.0" stroke="#000000" stroke-linecap="square" stroke-width="1.0" stroke-dasharray="4.0,4.0" />
<line x1="219.0" y1="35.0" x2="244.0" y2="35.0" stroke="#000000" stroke-linecap="square" stroke-width="4.0" />
<line x1="219.0" y1="45.0" x2="244.0" y2="45.0" stroke="#000000" stroke-linecap="square" stroke-width="4.0" />
<line x1="219.0" y1="70.0" x2="219.0" y2="45.0" stroke="#000000" stroke-linecap="square" stroke-width="4.0" />
<line x1="219.0" y1="80.0" x2="244.0" y2="80.0" stroke="#00ff00" stroke-linecap="square" stroke-width="4.0" />
<line x1="219.0" y1="115.0" x2="244.0" y2="115.0" stroke="#00ff00" stroke-linecap="square" stroke-width="4.0" />
<line x1="219.0" y1="150.0" x2="244.0" y2="150.0" stroke="#00ff00" stroke-linecap="square" stroke-width="4.0" />
<line x1="219.0" y1="175.0" x2="219.0" y2="150.0" stroke="#00ff00" stroke-linecap="square" stroke-width="4.0" />
<line x1="219.0" y1="210.0" x2="244.0" y2="210.0" stroke="#00ff00" stroke-linecap="square" stroke-width="4.0" />
<line x1="219.0" y1="185.0" x2="219.0" y2="210.0" stroke="#00ff00" stroke-linecap="square" stroke-width="4.0" />
<line x1="244.0" y1="5.0" x2="244.0" y2="215.0" stroke="#000000" stroke-linecap="square" stroke-width="1.0" stroke-dasharray="4.0,4.0" />
<line x1="244.0" y1="35.0" x2="269.0" y2="35.0" stroke="#000000" stroke-linecap="square" stroke-width="4.0" />
<line x1="244.0" y1="70.0" x2="269.0" y2="70.0" stroke="#000000" stroke-linecap="square" stroke-width="4.0" />
<line x1="244.0" y1="45.0" x2="244.0" y2="70.0" stroke="#000000" stroke-linecap="square" stroke-width="4.0" />
<line x1="244.0" y1="80.0" x2="269.0" y2="80.0" stroke="#00ff00" stroke-linecap="square" stroke-width="4.0" />
<line x1="244.0" y1="115.0" x2="269.0" y2="115.0" stroke="#00ff00" stroke-linecap="square" stroke-width="4.0" />
<line x1="244.0" y1="150.0" x2="269.0" y2="150.0" stroke="#00ff00" stroke-linecap="square" stroke-width="4.0" />
<line x1="244.0" y1="210.0" x2="269.0" y2="210.0" stroke="#00ff00" stroke-linecap="square" stroke-width="4.0" />
<line x1="269.0" y1="5.0" x2="269.0" y2="215.0" stroke="#000000" stroke-linecap="square" stroke-width="1.0" stroke-dasharray="4.0,4.0" />
<line x1="269.0" y1="35.0" x2="294.0" y2="35.0" stroke="#000000" stroke-linecap="square" stroke-width="4.0" />
<line x1="269.0" y1="45.0" x2="294.0" y2="45.0" stroke="#000000" stroke-linecap="square" stroke-width="4.0" />
<line x1="269.0" y1="70.0" x2="269.0" y2="45.0" stroke="#000000" stroke-linecap="square" stroke-width="4.0" />
<line x1="269.0" y1="105.0" x2="294.0" y2="105.0" stroke="#00ff00" stroke-linecap="square" stroke-width="4.0" />
<line x1="269.0" y1="80.0" x2="269.0" y2="105.0" stroke="#00ff00" stroke-linecap="square" stroke-width="4.0" />
<line x1="269.0" y1="115.0" x2="294.0" y2="115.0" stroke="#00ff00" stroke-linecap="square" stroke-width="4.0" />
<line x1="269.0" y1="150.0" x2="294.0" y2="150.0" stroke="#00ff00" stroke-linecap="square" stroke-width="4.0" />
<line x1="269.0" y1="185.0" x2="294.0" y2="185.0" stroke="#00ff00" stroke-linecap="square" stroke-width="4.0" />
<line x1="269.0" y1="210.0" x2="269.0" y2="185.0" stroke="#00ff00" stroke-linecap="square" stroke-width="4.0" />
<line x1="294.0" y1="5.0" x2="294.0" y2="215.0" stroke="#000000" stroke-linecap="square" stroke-width="1.0" stroke-dasharray="4.0,4.0" />
<line x1="294.0" y1="35.0" x2="319.0" y2="35.0" stroke="#000000" stroke-linecap="square" stroke-width="4.0" />
<line x1="294.0" y1="70.0" x2="319.0" y2="70.0" stroke="#000000" stroke-linecap="square" stroke-width="4.0" />
<line x1="294.0" y1="45.0" x2="294.0" y2="70.0" stroke="#000000" stroke-linecap="square" stroke-width="4.0" />
<line x1="294.0" y1="105.0" x2="319.0" y2="105.0" stroke="#00ff00" stroke-linecap="square" stroke-width="4.0" />
<line x1="294.0" y1="115.0" x2="319.0" y2="115.0" stroke="#00ff00" stroke-linecap="square" stroke-width="4.0" />
<line x1="294.0" y1="150.0" x2="319.0" y2="150.0" stroke="#00ff00" stroke-linecap="square" stroke-width="4.0" />
<line x1="294.0" y1="185.0" x2="319.0" y2="185.0" stroke="#00ff00" stroke-linecap="square" stroke-width="4.0" />
<line x1="319.0" y1="5.0" x2="319.0" y2="215.0" stroke="#000000" stroke-linecap="square" stroke-width="1.0" stroke-dasharray="4.0,4.0" />
<line x1="319.0" y1="35.0" x2="344.0" y2="35.0" stroke="#000000" stroke-linecap="square" stroke-width="4.0" />
<line x1="319.0" y1="45.0" x2="344.0" y2="45.0" stroke="#000000" stroke-linecap="square" stroke-width="4.0" />
<line x1="319.0" y1="70.0" x2="319.0" y2="45.0" stroke="#000000" stroke-linecap="square" stroke-width="4.0" />
<line x1="319.0" y1="80.0" x2="344.0" y2="80.0" stroke="#00ff00" stroke-linecap="square" stroke-width="4.0" />
<line x1="319.0" y1="105.0" x2="319.0" y2="80.0" stroke="#00ff00" stroke-linecap="square" stroke-width="4.0" />
<line x1="319.0" y1="140.0" x2="344.0" y2="140.0" stroke="#00ff00" stroke-linecap="square" stroke-width="4.0" />
<line x1="319.0" y1="115.0" x2="319.0" y2="140.0" stroke="#00ff00" stroke-linecap="square" stroke-width="4.0" />
<line x1="319.0" y1="150.0" x2="344.0" y2="150.0" stroke="#00ff00" stroke-linecap="square" stroke-width="4.0" />
<line x1="319.0" y1="185.0" x2="344.0" y2="185.0" stroke="#00ff00" stroke-linecap="square" stroke-width="4.0" />
<line x1="344.0" y1="5.0" x2="344.0" y2="215.0" stroke="#000000" stroke-linecap="square" stroke-width="1.0" stroke-dasharray="4.0,4.0" />
<line x1="344.0" y1="35.0" x2="369.0" y2="35.0" stroke="#000000" stroke-linecap="square" stroke-width="4.0" />
<line x1="344.0" y1="70.0" x2="369.0" y2="70.0" stroke="#000000" stroke-linecap="square" stroke-width="4.0" />
<line x1="344.0" y1="45.0" x2="344.0" y2="70.0" stroke="#000000" stroke-linecap="square" stroke-width="4.0" />
<line x1="344.0" y1="80.0" x2="369.0" y2="80.0" stroke="#00ff00" stroke-linecap="square" stroke-width="4.0" />
<line x1="344.0" y1="140.0" x2="369.0" y2="140.0" stroke="#00ff00" stroke-linecap="square" stroke-width="4.0" />
<line x1="344.0" y1="150.0" x2="369.0" y2="150.0" stroke="#00ff00" stroke-linecap="square" stroke-width="4.0" />
<line x1="344.0" y1="185.0" x2="369.0" y2="185.0" stroke="#00ff00" stroke-linecap="square" stroke-width="4.0" />
<line x1="369.0" y1="5.0" x2="369.0" y2="215.0" stroke="#000000" stroke-linecap="square" stroke-width="1.0" stroke-dasharray="4.0,4.0" />
<line x1="369.0" y1="35.0" x2="394.0" y2="35.0" stroke="#000000" stroke-linecap="square" stroke-width="4.0" />
<line x1="369.0" y1="45.0" x2="394.0" y2="45.0" stroke="#000000" stroke-linecap="square" stroke-width="4.0" />
<line x1="369.0" y1="70.0" x2="369.0" y2="45.0" stroke="#000000" stroke-linecap="square" stroke-width="4.0" />
<line x1="369.0" y1="80.0" x2="394.0" y2="80.0" stroke="#00ff00" stroke-linecap="square" stroke-width="4.0" />
<line x1="369.0" y1="115.0" x2="394.0" y2="115.0" stroke="#00ff00" stroke-linecap="square" stroke-width="4.0" />
<line x1="369.0" y1="140.0" x2="369.0" y2="115.0" stroke="#00ff00" stroke-linecap="square" stroke-width="4.0" />
<line x1="369.0" y1="175.0" x2="394.0" y2="175.0" stroke="#00ff00" stroke-linecap="square" stroke-width="4.0" />
<line x1="369.0" y1="150.0" x2="369.0" y2="175.0" stroke="#00ff00" stroke-linecap="square" stroke-width="4.0" />
<line x1="369.0" y1="185.0" x2="394.0" y2="185.0" stroke="#00ff00" stroke-linecap="square" stroke-width="4.0" />
<line x1="394.0" y1="5.0" x2="394.0" y2="215.0" stroke="#000000" stroke-linecap="square" stroke-width="1.0" stroke-dasharray="4.0,4.0" />
<line x1="394.0" y1="35.0" x2="419.0" y2="35.0" stroke="#000000" stroke-linecap="square" stroke-width="4.0" />
<line x1="394.0" y1="70.0" x2="419.0" y2="70.0" stroke="#000000" stroke-linecap="square" stroke-width="4.0" />
<line x1="394.0" y1="45.0" x2="394.0" y2="70.0" stroke="#000000" stroke-linecap="square" stroke-width="4.0" />
<line x1="394.0" y1="80.0" x2="419.0" y2="80.0" stroke="#00ff00" stroke-linecap="square" stroke-width="4.0" />
<line x1="394.0" y1="115.0" x2="419.0" y2="115.0" stroke="#00ff00" stroke-linecap="square" stroke-width="4.0" />
<line x1="394.0" y1="175.0" x2="419.0" y2="175.0" stroke="#00ff00" stroke-linecap="square" stroke-width="4.0" />
<line x1="394.0" y1="185.0" x2="419.0" y2="185.0" stroke="#00ff00" stroke-linecap="square" stroke-width="4.0" />
<line x1="419.0" y1="5.0" x2="419.0" y2="215.0" stroke="#000000" stroke-linecap="square" stroke-width="1.0" stroke-dasharray="4.0,4.0" />
<line x1="419.0" y1="35.0" x2="444.0" y2="35.0" stroke="#000000" stroke-linecap="square" stroke-width="4.0" />
<line x1="419.0" y1="45.0" x2="444.0" y2="45.0" stroke="#000000" stroke-linecap="square" stroke-width="4.0" />
<line x1="419.0" y1="70.0" x2="419.0" y2="45.0" stroke="#000000" stroke-linecap="square" stroke-width="4.0" />
<line x1="419.0" y1="80.0" x2="444.0" y2="80.0" stroke="#00ff00" stroke-linecap="square" stroke-width="4.0" />
<line x1="419.0" y1="115.0" x2="444.0" y2="115.0" stroke="#00ff00" stroke-linecap="square" stroke-width="4.0" />
<line x1="419.0" y1="150.0" x2="444.0" y2="150.0" stroke="#00ff00" stroke-linecap="square" stroke-width="4.0" />
<line x1="419.0" y1="175.0" x2="419.0" y2="150.0" stroke="#00ff00" stroke-linecap="square" stroke-width="4.0" />
<line x1="419.0" y1="210.0" x2="444.0" y2="210.0" stroke="#00ff00" stroke-linecap="square" stroke-width="4.0" />
<line x1="419.0" y1="185.0" x2="419.0" y2="210.0" stroke="#00ff00" stroke-linecap="square" stroke-width="4.0" />
<line x1="444.0" y1="5.0" x2="444.0" y2="215.0" stroke="#000000" stroke-linecap="square" stroke-width="1.0" stroke-dasharray="4.0,4.0" />
</g>
</svg>